<score-partwise version="2.0"><work><work-number/><work-title/></work><movement-number/><movement-title>All Blues</movement-title><identification><creator type="composer">Miles Davis</creator><creator type="poet"/><rights>All Rights Reserved</rights><encoding><software>Finale 2006 for Windows</software><software>Dolet Light for Finale 2006</software><encoding-date>1900-00-00</encoding-date><software>ProxyMusic 2.0 c</software></encoding><source>http://www.wikifonia.org/node/100/revisions/104/view</source></identification><part-list><score-part id="P3"><part-name>MusicXML Part</part-name><score-instrument id="P3-I4"><instrument-name>Instrument 1</instrument-name></score-instrument><midi-instrument id="P3-I4"><midi-channel>1</midi-channel><midi-program>1</midi-program></midi-instrument></score-part></part-list><part><measure number="1"><attributes><divisions>4</divisions><key><fifths>0</fifths><mode>major</mode></key><time><beats>6</beats><beat-type>8</beat-type></time><clef><sign>G</sign><line>2</line></clef></attributes><sound tempo="96"/><harmony default-y="40"><root><root-step>G</root-step></root><kind>dominant</kind></harmony><note><pitch><step>B</step><octave>4</octave></pitch><duration>6</duration><tie type="start"/><voice>1</voice><type>quarter</type><dot/><stem>down</stem><notations><tied type="start"/></notations></note><note><pitch><step>B</step><octave>4</octave></pitch><duration>4</duration><tie type="stop"/><tie type="start"/><voice>1</voice><type>quarter</type><stem>down</stem><notations><tied type="stop"/><tied type="start"/></notations></note><note><pitch><step>B</step><octave>4</octave></pitch><duration>1</duration><tie type="stop"/><voice>1</voice><type>16th</type><stem>up</stem><beam number="1">begin</beam><beam number="2">begin</beam><notations><tied type="stop"/></notations></note><note><pitch><step>D</step><octave>4</octave></pitch><duration>1</duration><voice>1</voice><type>16th</type><stem>up</stem><beam number="1">end</beam><beam number="2">end</beam></note></measure><measure number="2"><note><pitch><step>B</step><octave>4</octave></pitch><duration>1</duration><voice>1</voice><type>16th</type><stem>down</stem><beam number="1">begin</beam><beam number="2">begin</beam></note><note><pitch><step>C</step><octave>5</octave></pitch><duration>1</duration><voice>1</voice><type>16th</type><stem>down</stem><beam number="1">end</beam><beam number="2">end</beam></note><note><pitch><step>B</step><octave>4</octave></pitch><duration>4</duration><tie type="start"/><voice>1</voice><type>quarter</type><stem>down</stem><notations><tied type="start"/></notations></note><note><pitch><step>B</step><octave>4</octave></pitch><duration>4</duration><tie type="stop"/><tie type="start"/><voice>1</voice><type>quarter</type><stem>down</stem><notations><tied type="stop"/><tied type="start"/></notations></note><note><pitch><step>B</step><octave>4</octave></pitch><duration>1</duration><tie type="stop"/><voice>1</voice><type>16th</type><stem>up</stem><beam number="1">begin</beam><beam number="2">begin</beam><notations><tied type="stop"/></notations></note><note><pitch><step>D</step><octave>4</octave></pitch><duration>1</duration><voice>1</voice><type>16th</type><stem>up</stem><beam number="1">end</beam><beam number="2">end</beam></note></measure><measure number="3"><note><pitch><step>B</step><octave>4</octave></pitch><duration>1</duration><voice>1</voice><type>16th</type><stem>down</stem><beam number="1">begin</beam><beam number="2">begin</beam></note><note><pitch><step>C</step><octave>5</octave></pitch><duration>1</duration><voice>1</voice><type>16th</type><stem>down</stem><beam number="1">end</beam><beam number="2">end</beam></note><note><pitch><step>B</step><octave>4</octave></pitch><duration>4</duration><tie type="start"/><voice>1</voice><type>quarter</type><stem>down</stem><notations><tied type="start"/></notations></note><note><pitch><step>B</step><octave>4</octave></pitch><duration>4</duration><tie type="stop"/><tie type="start"/><voice>1</voice><type>quarter</type><stem>down</stem><notations><tied type="stop"/><tied type="start"/></notations></note><note><pitch><step>B</step><octave>4</octave></pitch><duration>1</duration><tie type="stop"/><voice>1</voice><type>16th</type><stem>up</stem><beam number="1">begin</beam><beam number="2">begin</beam><notations><tied type="stop"/></notations></note><note><pitch><step>D</step><octave>4</octave></pitch><duration>1</duration><voice>1</voice><type>16th</type><stem>up</stem><beam number="1">end</beam><beam number="2">end</beam></note></measure><measure number="4"><note><pitch><step>B</step><octave>4</octave></pitch><duration>6</duration><tie type="start"/><voice>1</voice><type>quarter</type><dot/><stem>down</stem><notations><tied type="start"/></notations></note><note><pitch><step>B</step><octave>4</octave></pitch><duration>4</duration><tie type="stop"/><voice>1</voice><type>quarter</type><stem>down</stem><notations><tied type="stop"/></notations></note><note><rest/><duration>2</duration><voice>1</voice><type>eighth</type></note></measure><measure number="5"><print new-system="yes"/><harmony default-y="40"><root><root-step>C</root-step></root><kind>dominant</kind></harmony><note><pitch><step>A</step><octave>4</octave></pitch><duration>4</duration><voice>1</voice><type>quarter</type><stem>up</stem></note><note><pitch><step>B</step><alter>-1</alter><octave>4</octave></pitch><duration>2</duration><voice>1</voice><type>eighth</type><accidental>flat</accidental><stem>down</stem></note><note><pitch><step>C</step><octave>5</octave></pitch><duration>4</duration><voice>1</voice><type>quarter</type><stem>down</stem></note><note><pitch><step>D</step><octave>5</octave></pitch><duration>2</duration><voice>1</voice><type>eighth</type><stem>down</stem></note></measure><measure number="6"><note><pitch><step>C</step><octave>5</octave></pitch><duration>4</duration><voice>1</voice><type>quarter</type><stem>down</stem></note><note><pitch><step>B</step><alter>-1</alter><octave>4</octave></pitch><duration>2</duration><voice>1</voice><type>eighth</type><accidental>flat</accidental><stem>down</stem></note><note><pitch><step>A</step><octave>4</octave></pitch><duration>4</duration><tie type="start"/><voice>1</voice><type>quarter</type><stem>up</stem><notations><tied type="start"/></notations></note><note><pitch><step>A</step><octave>4</octave></pitch><duration>1</duration><tie type="stop"/><voice>1</voice><type>16th</type><stem>up</stem><beam number="1">begin</beam><beam number="2">begin</beam><notations><tied type="stop"/></notations></note><note><pitch><step>D</step><octave>4</octave></pitch><duration>1</duration><voice>1</voice><type>16th</type><stem>up</stem><beam number="1">end</beam><beam number="2">end</beam></note></measure><measure number="7"><harmony default-y="40"><root><root-step>G</root-step></root><kind>dominant</kind></harmony><note><pitch><step>B</step><octave>4</octave></pitch><duration>12</duration><voice>1</voice><type>half</type><dot/><accidental editorial="yes">natural</accidental><stem>down</stem></note></measure><measure number="8"><note><pitch><step>G</step><octave>4</octave></pitch><duration>6</duration><tie type="start"/><voice>1</voice><type>quarter</type><dot/><stem>up</stem><notations><tied type="start"/></notations></note><note><pitch><step>G</step><octave>4</octave></pitch><duration>4</duration><tie type="stop"/><tie type="start"/><voice>1</voice><type>quarter</type><stem>up</stem><notations><tied type="stop"/><tied type="start"/></notations></note><note><pitch><step>G</step><octave>4</octave></pitch><duration>1</duration><tie type="stop"/><voice>1</voice><type>16th</type><stem>up</stem><beam number="1">begin</beam><beam number="2">begin</beam><notations><tied type="stop"/></notations></note><note><pitch><step>G</step><alter>1</alter><octave>4</octave></pitch><duration>1</duration><voice>1</voice><type>16th</type><accidental>sharp</accidental><stem>up</stem><beam number="1">end</beam><beam number="2">end</beam></note></measure><measure number="9"><print new-page="yes"/><harmony default-y="40"><root><root-step>D</root-step></root><kind>dominant</kind><degree><degree-value>9</degree-value><degree-alter>1</degree-alter><degree-type>add</degree-type></degree></harmony><note><pitch><step>A</step><octave>4</octave></pitch><duration>12</duration><voice>1</voice><type>half</type><dot/><stem>up</stem></note></measure><measure number="10"><harmony default-y="40"><root><root-step>E</root-step><root-alter>-1</root-alter></root><kind>dominant</kind><degree><degree-value>9</degree-value><degree-alter>1</degree-alter><degree-type>add</degree-type></degree></harmony><note><pitch><step>B</step><alter>-1</alter><octave>4</octave></pitch><duration>12</duration><voice>1</voice><type>half</type><dot/><accidental>flat</accidental><stem>down</stem></note></measure><measure number="11"><harmony default-y="40"><root><root-step>G</root-step></root><kind>dominant</kind></harmony><note><pitch><step>A</step><octave>4</octave></pitch><duration>6</duration><voice>1</voice><type>quarter</type><dot/><stem>up</stem></note><note><pitch><step>B</step><octave>4</octave></pitch><duration>6</duration><voice>1</voice><type>quarter</type><dot/><stem>down</stem></note></measure><measure number="12"><note><pitch><step>A</step><octave>4</octave></pitch><duration>6</duration><voice>1</voice><type>quarter</type><dot/><stem>up</stem></note><note><pitch><step>G</step><octave>4</octave></pitch><duration>6</duration><voice>1</voice><type>quarter</type><dot/><stem>up</stem></note><barline location="right"><bar-style>light-heavy</bar-style></barline></measure></part><part><measure number="1"><attributes><divisions>2</divisions><key><fifths>0</fifths><mode>major</mode></key><time><beats>6</beats><beat-type>8</beat-type></time><clef><sign>G</sign><line>2</line></clef></attributes><sound tempo="96"/><note><pitch><step>B</step><octave>3</octave></pitch><duration>2</duration><voice>1</voice><type>quarter</type><stem>up</stem></note><note><chord/><pitch><step>D</step><octave>4</octave></pitch><duration>2</duration><voice>1</voice><type>quarter</type><stem>up</stem></note><note><pitch><step>C</step><octave>4</octave></pitch><duration>1</duration><voice>1</voice><type>eighth</type><stem>up</stem></note><note><chord/><pitch><step>E</step><octave>4</octave></pitch><duration>1</duration><voice>1</voice><type>eighth</type><stem>up</stem></note><note><pitch><step>D</step><octave>4</octave></pitch><duration>2</duration><voice>1</voice><type>quarter</type><stem>up</stem></note><note><chord/><pitch><step>F</step><octave>4</octave></pitch><duration>2</duration><voice>1</voice><type>quarter</type><stem>up</stem></note><note><pitch><step>C</step><octave>4</octave></pitch><duration>1</duration><voice>1</voice><type>eighth</type><stem>up</stem></note><note><chord/><pitch><step>E</step><octave>4</octave></pitch><duration>1</duration><voice>1</voice><type>eighth</type><stem>up</stem></note></measure><measure number="2"><note><pitch><step>B</step><octave>3</octave></pitch><duration>2</duration><voice>1</voice><type>quarter</type><stem>up</stem></note><note><chord/><pitch><step>D</step><octave>4</octave></pitch><duration>2</duration><voice>1</voice><type>quarter</type><stem>up</stem></note><note><pitch><step>C</step><octave>4</octave></pitch><duration>1</duration><voice>1</voice><type>eighth</type><stem>up</stem></note><note><chord/><pitch><step>E</step><octave>4</octave></pitch><duration>1</duration><voice>1</voice><type>eighth</type><stem>up</stem></note><note><pitch><step>D</step><octave>4</octave></pitch><duration>2</duration><voice>1</voice><type>quarter</type><stem>up</stem></note><note><chord/><pitch><step>F</step><octave>4</octave></pitch><duration>2</duration><voice>1</voice><type>quarter</type><stem>up</stem></note><note><pitch><step>C</step><octave>4</octave></pitch><duration>1</duration><voice>1</voice><type>eighth</type><stem>up</stem></note><note><chord/><pitch><step>E</step><octave>4</octave></pitch><duration>1</duration><voice>1</voice><type>eighth</type><stem>up</stem></note></measure><measure number="3"><note><pitch><step>B</step><octave>3</octave></pitch><duration>2</duration><voice>1</voice><type>quarter</type><stem>up</stem></note><note><chord/><pitch><step>D</step><octave>4</octave></pitch><duration>2</duration><voice>1</voice><type>quarter</type><stem>up</stem></note><note><pitch><step>C</step><octave>4</octave></pitch><duration>1</duration><voice>1</voice><type>eighth</type><stem>up</stem></note><note><chord/><pitch><step>E</step><octave>4</octave></pitch><duration>1</duration><voice>1</voice><type>eighth</type><stem>up</stem></note><note><pitch><step>D</step><octave>4</octave></pitch><duration>2</duration><voice>1</voice><type>quarter</type><stem>up</stem></note><note><chord/><pitch><step>F</step><octave>4</octave></pitch><duration>2</duration><voice>1</voice><type>quarter</type><stem>up</stem></note><note><pitch><step>C</step><octave>4</octave></pitch><duration>1</duration><voice>1</voice><type>eighth</type><stem>up</stem></note><note><chord/><pitch><step>E</step><octave>4</octave></pitch><duration>1</duration><voice>1</voice><type>eighth</type><stem>up</stem></note></measure><measure number="4"><note><pitch><step>B</step><octave>3</octave></pitch><duration>2</duration><voice>1</voice><type>quarter</type><stem>up</stem></note><note><chord/><pitch><step>D</step><octave>4</octave></pitch><duration>2</duration><voice>1</voice><type>quarter</type><stem>up</stem></note><note><pitch><step>C</step><octave>4</octave></pitch><duration>1</duration><voice>1</voice><type>eighth</type><stem>up</stem></note><note><chord/><pitch><step>E</step><octave>4</octave></pitch><duration>1</duration><voice>1</voice><type>eighth</type><stem>up</stem></note><note><pitch><step>D</step><octave>4</octave></pitch><duration>2</duration><voice>1</voice><type>quarter</type><stem>up</stem></note><note><chord/><pitch><step>F</step><octave>4</octave></pitch><duration>2</duration><voice>1</voice><type>quarter</type><stem>up</stem></note><note><pitch><step>C</step><octave>4</octave></pitch><duration>1</duration><voice>1</voice><type>eighth</type><stem>up</stem></note><note><chord/><pitch><step>E</step><octave>4</octave></pitch><duration>1</duration><voice>1</voice><type>eighth</type><stem>up</stem></note></measure><measure number="5"><print new-system="yes"/><note><pitch><step>B</step><alter>-1</alter><octave>3</octave></pitch><duration>2</duration><voice>1</voice><type>quarter</type><accidental>flat</accidental><stem>up</stem></note><note><chord/><pitch><step>D</step><octave>4</octave></pitch><duration>2</duration><voice>1</voice><type>quarter</type><stem>up</stem></note><note><pitch><step>C</step><octave>4</octave></pitch><duration>1</duration><voice>1</voice><type>eighth</type><stem>up</stem></note><note><chord/><pitch><step>E</step><octave>4</octave></pitch><duration>1</duration><voice>1</voice><type>eighth</type><stem>up</stem></note><note><pitch><step>D</step><octave>4</octave></pitch><duration>2</duration><voice>1</voice><type>quarter</type><stem>up</stem></note><note><chord/><pitch><step>F</step><octave>4</octave></pitch><duration>2</duration><voice>1</voice><type>quarter</type><stem>up</stem></note><note><pitch><step>C</step><octave>4</octave></pitch><duration>1</duration><voice>1</voice><type>eighth</type><stem>up</stem></note><note><chord/><pitch><step>E</step><octave>4</octave></pitch><duration>1</duration><voice>1</voice><type>eighth</type><stem>up</stem></note></measure><measure number="6"><note><pitch><step>B</step><alter>-1</alter><octave>3</octave></pitch><duration>2</duration><voice>1</voice><type>quarter</type><accidental>flat</accidental><stem>up</stem></note><note><chord/><pitch><step>D</step><octave>4</octave></pitch><duration>2</duration><voice>1</voice><type>quarter</type><stem>up</stem></note><note><pitch><step>C</step><octave>4</octave></pitch><duration>1</duration><voice>1</voice><type>eighth</type><stem>up</stem></note><note><chord/><pitch><step>E</step><octave>4</octave></pitch><duration>1</duration><voice>1</voice><type>eighth</type><stem>up</stem></note><note><pitch><step>D</step><octave>4</octave></pitch><duration>2</duration><voice>1</voice><type>quarter</type><stem>up</stem></note><note><chord/><pitch><step>F</step><octave>4</octave></pitch><duration>2</duration><voice>1</voice><type>quarter</type><stem>up</stem></note><note><pitch><step>C</step><octave>4</octave></pitch><duration>1</duration><voice>1</voice><type>eighth</type><stem>up</stem></note><note><chord/><pitch><step>E</step><octave>4</octave></pitch><duration>1</duration><voice>1</voice><type>eighth</type><stem>up</stem></note></measure><measure number="7"><note><pitch><step>B</step><octave>3</octave></pitch><duration>2</duration><voice>1</voice><type>quarter</type><accidental editorial="yes">natural</accidental><stem>up</stem></note><note><chord/><pitch><step>D</step><octave>4</octave></pitch><duration>2</duration><voice>1</voice><type>quarter</type><stem>up</stem></note><note><pitch><step>C</step><octave>4</octave></pitch><duration>1</duration><voice>1</voice><type>eighth</type><stem>up</stem></note><note><chord/><pitch><step>E</step><octave>4</octave></pitch><duration>1</duration><voice>1</voice><type>eighth</type><stem>up</stem></note><note><pitch><step>D</step><octave>4</octave></pitch><duration>2</duration><voice>1</voice><type>quarter</type><stem>up</stem></note><note><chord/><pitch><step>F</step><octave>4</octave></pitch><duration>2</duration><voice>1</voice><type>quarter</type><stem>up</stem></note><note><pitch><step>C</step><octave>4</octave></pitch><duration>1</duration><voice>1</voice><type>eighth</type><stem>up</stem></note><note><chord/><pitch><step>E</step><octave>4</octave></pitch><duration>1</duration><voice>1</voice><type>eighth</type><stem>up</stem></note></measure><measure number="8"><note><pitch><step>B</step><octave>3</octave></pitch><duration>2</duration><voice>1</voice><type>quarter</type><stem>up</stem></note><note><chord/><pitch><step>D</step><octave>4</octave></pitch><duration>2</duration><voice>1</voice><type>quarter</type><stem>up</stem></note><note><pitch><step>C</step><octave>4</octave></pitch><duration>1</duration><voice>1</voice><type>eighth</type><stem>up</stem></note><note><chord/><pitch><step>E</step><octave>4</octave></pitch><duration>1</duration><voice>1</voice><type>eighth</type><stem>up</stem></note><note><pitch><step>D</step><octave>4</octave></pitch><duration>2</duration><voice>1</voice><type>quarter</type><stem>up</stem></note><note><chord/><pitch><step>F</step><octave>4</octave></pitch><duration>2</duration><voice>1</voice><type>quarter</type><stem>up</stem></note><note><pitch><step>C</step><octave>4</octave></pitch><duration>1</duration><voice>1</voice><type>eighth</type><stem>up</stem></note><note><chord/><pitch><step>E</step><octave>4</octave></pitch><duration>1</duration><voice>1</voice><type>eighth</type><stem>up</stem></note></measure><measure number="9"><print new-page="yes"/><note><rest/><duration>3</duration><voice>1</voice><type>quarter</type><dot/></note><note><pitch><step>C</step><octave>4</octave></pitch><duration>3</duration><voice>1</voice><type>quarter</type><dot/><stem>up</stem></note><note><chord/><pitch><step>F</step><octave>4</octave></pitch><duration>3</duration><voice>1</voice><type>quarter</type><dot/><stem>up</stem></note></measure><measure number="10"><note><pitch><step>D</step><alter>-1</alter><octave>4</octave></pitch><duration>3</duration><voice>1</voice><type>quarter</type><dot/><accidental>flat</accidental><stem>up</stem></note><note><chord/><pitch><step>G</step><alter>-1</alter><octave>4</octave></pitch><duration>3</duration><voice>1</voice><type>quarter</type><dot/><accidental>flat</accidental><stem>up</stem></note><note><pitch><step>C</step><octave>4</octave></pitch><duration>3</duration><voice>1</voice><type>quarter</type><dot/><stem>up</stem></note><note><chord/><pitch><step>F</step><octave>4</octave></pitch><duration>3</duration><voice>1</voice><type>quarter</type><dot/><stem>up</stem></note></measure><measure number="11"><note><pitch><step>C</step><octave>4</octave></pitch><duration>3</duration><voice>1</voice><type>quarter</type><dot/><stem>up</stem></note><note><chord/><pitch><step>F</step><octave>4</octave></pitch><duration>3</duration><voice>1</voice><type>quarter</type><dot/><stem>up</stem></note><note><pitch><step>D</step><octave>4</octave></pitch><duration>3</duration><voice>1</voice><type>quarter</type><dot/><stem>up</stem></note><note><chord/><pitch><step>G</step><octave>4</octave></pitch><duration>3</duration><voice>1</voice><type>quarter</type><dot/><stem>up</stem></note></measure><measure number="12"><note><pitch><step>C</step><octave>4</octave></pitch><duration>3</duration><voice>1</voice><type>quarter</type><dot/><stem>up</stem></note><note><chord/><pitch><step>F</step><octave>4</octave></pitch><duration>3</duration><voice>1</voice><type>quarter</type><dot/><stem>up</stem></note><note><pitch><step>B</step><octave>3</octave></pitch><duration>3</duration><voice>1</voice><type>quarter</type><dot/><stem>up</stem></note><note><chord/><pitch><step>E</step><octave>4</octave></pitch><duration>3</duration><voice>1</voice><type>quarter</type><dot/><stem>up</stem></note><barline location="right"><bar-style>light-heavy</bar-style></barline></measure></part><part id="P3"><measure number="1"><attributes><divisions>4</divisions><key><fifths>0</fifths><mode>major</mode></key><time><beats>6</beats><beat-type>8</beat-type></time><clef><sign>F</sign><line>4</line></clef></attributes><sound tempo="96"/><note><pitch><step>G</step><octave>2</octave></pitch><duration>3</duration><voice>1</voice><type>eighth</type><dot/><stem>up</stem><beam number="1">begin</beam></note><note><pitch><step>D</step><octave>3</octave></pitch><duration>1</duration><voice>1</voice><type>16th</type><stem>up</stem><beam number="1">continue</beam><beam number="2">begin</beam></note><note><pitch><step>E</step><octave>3</octave></pitch><duration>1</duration><voice>1</voice><type>16th</type><stem>up</stem><beam number="1">continue</beam><beam number="2">continue</beam></note><note><pitch><step>D</step><octave>3</octave></pitch><duration>1</duration><voice>1</voice><type>16th</type><stem>up</stem><beam number="1">end</beam><beam number="2">end</beam></note><note><pitch><step>F</step><octave>3</octave></pitch><duration>3</duration><voice>1</voice><type>eighth</type><dot/><stem>down</stem><beam number="1">begin</beam></note><note><pitch><step>D</step><octave>3</octave></pitch><duration>1</duration><voice>1</voice><type>16th</type><stem>down</stem><beam number="1">continue</beam><beam number="2">begin</beam></note><note><pitch><step>E</step><octave>3</octave></pitch><duration>1</duration><voice>1</voice><type>16th</type><stem>down</stem><beam number="1">continue</beam><beam number="2">continue</beam></note><note><pitch><step>D</step><octave>3</octave></pitch><duration>1</duration><voice>1</voice><type>16th</type><stem>down</stem><beam number="1">end</beam><beam number="2">end</beam></note></measure><measure number="2"><note><pitch><step>G</step><octave>2</octave></pitch><duration>3</duration><voice>1</voice><type>eighth</type><dot/><stem>up</stem><beam number="1">begin</beam></note><note><pitch><step>D</step><octave>3</octave></pitch><duration>1</duration><voice>1</voice><type>16th</type><stem>up</stem><beam number="1">continue</beam><beam number="2">begin</beam></note><note><pitch><step>E</step><octave>3</octave></pitch><duration>1</duration><voice>1</voice><type>16th</type><stem>up</stem><beam number="1">continue</beam><beam number="2">continue</beam></note><note><pitch><step>D</step><octave>3</octave></pitch><duration>1</duration><voice>1</voice><type>16th</type><stem>up</stem><beam number="1">end</beam><beam number="2">end</beam></note><note><pitch><step>F</step><octave>3</octave></pitch><duration>3</duration><voice>1</voice><type>eighth</type><dot/><stem>down</stem><beam number="1">begin</beam></note><note><pitch><step>D</step><octave>3</octave></pitch><duration>1</duration><voice>1</voice><type>16th</type><stem>down</stem><beam number="1">continue</beam><beam number="2">begin</beam></note><note><pitch><step>E</step><octave>3</octave></pitch><duration>1</duration><voice>1</voice><type>16th</type><stem>down</stem><beam number="1">continue</beam><beam number="2">continue</beam></note><note><pitch><step>D</step><octave>3</octave></pitch><duration>1</duration><voice>1</voice><type>16th</type><stem>down</stem><beam number="1">end</beam><beam number="2">end</beam></note></measure><measure number="3"><note><pitch><step>G</step><octave>2</octave></pitch><duration>3</duration><voice>1</voice><type>eighth</type><dot/><stem>up</stem><beam number="1">begin</beam></note><note><pitch><step>D</step><octave>3</octave></pitch><duration>1</duration><voice>1</voice><type>16th</type><stem>up</stem><beam number="1">continue</beam><beam number="2">begin</beam></note><note><pitch><step>E</step><octave>3</octave></pitch><duration>1</duration><voice>1</voice><type>16th</type><stem>up</stem><beam number="1">continue</beam><beam number="2">continue</beam></note><note><pitch><step>D</step><octave>3</octave></pitch><duration>1</duration><voice>1</voice><type>16th</type><stem>up</stem><beam number="1">end</beam><beam number="2">end</beam></note><note><pitch><step>F</step><octave>3</octave></pitch><duration>3</duration><voice>1</voice><type>eighth</type><dot/><stem>down</stem><beam number="1">begin</beam></note><note><pitch><step>D</step><octave>3</octave></pitch><duration>1</duration><voice>1</voice><type>16th</type><stem>down</stem><beam number="1">continue</beam><beam number="2">begin</beam></note><note><pitch><step>E</step><octave>3</octave></pitch><duration>1</duration><voice>1</voice><type>16th</type><stem>down</stem><beam number="1">continue</beam><beam number="2">continue</beam></note><note><pitch><step>D</step><octave>3</octave></pitch><duration>1</duration><voice>1</voice><type>16th</type><stem>down</stem><beam number="1">end</beam><beam number="2">end</beam></note></measure><measure number="4"><note><pitch><step>G</step><octave>2</octave></pitch><duration>3</duration><voice>1</voice><type>eighth</type><dot/><stem>up</stem><beam number="1">begin</beam></note><note><pitch><step>D</step><octave>3</octave></pitch><duration>1</duration><voice>1</voice><type>16th</type><stem>up</stem><beam number="1">continue</beam><beam number="2">begin</beam></note><note><pitch><step>E</step><octave>3</octave></pitch><duration>1</duration><voice>1</voice><type>16th</type><stem>up</stem><beam number="1">continue</beam><beam number="2">continue</beam></note><note><pitch><step>D</step><octave>3</octave></pitch><duration>1</duration><voice>1</voice><type>16th</type><stem>up</stem><beam number="1">end</beam><beam number="2">end</beam></note><note><pitch><step>F</step><octave>3</octave></pitch><duration>3</duration><voice>1</voice><type>eighth</type><dot/><stem>down</stem><beam number="1">begin</beam></note><note><pitch><step>D</step><octave>3</octave></pitch><duration>1</duration><voice>1</voice><type>16th</type><stem>down</stem><beam number="1">continue</beam><beam number="2">begin</beam></note><note><pitch><step>E</step><octave>3</octave></pitch><duration>1</duration><voice>1</voice><type>16th</type><stem>down</stem><beam number="1">continue</beam><beam number="2">continue</beam></note><note><pitch><step>D</step><octave>3</octave></pitch><duration>1</duration><voice>1</voice><type>16th</type><stem>down</stem><beam number="1">end</beam><beam number="2">end</beam></note></measure><measure number="5"><print new-system="yes"/><note><pitch><step>G</step><octave>2</octave></pitch><duration>3</duration><voice>1</voice><type>eighth</type><dot/><stem>up</stem><beam number="1">begin</beam></note><note><pitch><step>D</step><octave>3</octave></pitch><duration>1</duration><voice>1</voice><type>16th</type><stem>up</stem><beam number="1">continue</beam><beam number="2">begin</beam></note><note><pitch><step>E</step><octave>3</octave></pitch><duration>1</duration><voice>1</voice><type>16th</type><stem>up</stem><beam number="1">continue</beam><beam number="2">continue</beam></note><note><pitch><step>D</step><octave>3</octave></pitch><duration>1</duration><voice>1</voice><type>16th</type><stem>up</stem><beam number="1">end</beam><beam number="2">end</beam></note><note><pitch><step>F</step><octave>3</octave></pitch><duration>3</duration><voice>1</voice><type>eighth</type><dot/><stem>down</stem><beam number="1">begin</beam></note><note><pitch><step>D</step><octave>3</octave></pitch><duration>1</duration><voice>1</voice><type>16th</type><stem>down</stem><beam number="1">continue</beam><beam number="2">begin</beam></note><note><pitch><step>E</step><octave>3</octave></pitch><duration>1</duration><voice>1</voice><type>16th</type><stem>down</stem><beam number="1">continue</beam><beam number="2">continue</beam></note><note><pitch><step>D</step><octave>3</octave></pitch><duration>1</duration><voice>1</voice><type>16th</type><stem>down</stem><beam number="1">end</beam><beam number="2">end</beam></note></measure><measure number="6"><note><pitch><step>G</step><octave>2</octave></pitch><duration>3</duration><voice>1</voice><type>eighth</type><dot/><stem>up</stem><beam number="1">begin</beam></note><note><pitch><step>D</step><octave>3</octave></pitch><duration>1</duration><voice>1</voice><type>16th</type><stem>up</stem><beam number="1">continue</beam><beam number="2">begin</beam></note><note><pitch><step>E</step><octave>3</octave></pitch><duration>1</duration><voice>1</voice><type>16th</type><stem>up</stem><beam number="1">continue</beam><beam number="2">continue</beam></note><note><pitch><step>D</step><octave>3</octave></pitch><duration>1</duration><voice>1</voice><type>16th</type><stem>up</stem><beam number="1">end</beam><beam number="2">end</beam></note><note><pitch><step>F</step><octave>3</octave></pitch><duration>3</duration><voice>1</voice><type>eighth</type><dot/><stem>down</stem><beam number="1">begin</beam></note><note><pitch><step>D</step><octave>3</octave></pitch><duration>1</duration><voice>1</voice><type>16th</type><stem>down</stem><beam number="1">continue</beam><beam number="2">begin</beam></note><note><pitch><step>E</step><octave>3</octave></pitch><duration>1</duration><voice>1</voice><type>16th</type><stem>down</stem><beam number="1">continue</beam><beam number="2">continue</beam></note><note><pitch><step>D</step><octave>3</octave></pitch><duration>1</duration><voice>1</voice><type>16th</type><stem>down</stem><beam number="1">end</beam><beam number="2">end</beam></note></measure><measure number="7"><note><pitch><step>G</step><octave>2</octave></pitch><duration>3</duration><voice>1</voice><type>eighth</type><dot/><stem>up</stem><beam number="1">begin</beam></note><note><pitch><step>D</step><octave>3</octave></pitch><duration>1</duration><voice>1</voice><type>16th</type><stem>up</stem><beam number="1">continue</beam><beam number="2">begin</beam></note><note><pitch><step>E</step><octave>3</octave></pitch><duration>1</duration><voice>1</voice><type>16th</type><stem>up</stem><beam number="1">continue</beam><beam number="2">continue</beam></note><note><pitch><step>D</step><octave>3</octave></pitch><duration>1</duration><voice>1</voice><type>16th</type><stem>up</stem><beam number="1">end</beam><beam number="2">end</beam></note><note><pitch><step>F</step><octave>3</octave></pitch><duration>3</duration><voice>1</voice><type>eighth</type><dot/><stem>down</stem><beam number="1">begin</beam></note><note><pitch><step>D</step><octave>3</octave></pitch><duration>1</duration><voice>1</voice><type>16th</type><stem>down</stem><beam number="1">continue</beam><beam number="2">begin</beam></note><note><pitch><step>E</step><octave>3</octave></pitch><duration>1</duration><voice>1</voice><type>16th</type><stem>down</stem><beam number="1">continue</beam><beam number="2">continue</beam></note><note><pitch><step>D</step><octave>3</octave></pitch><duration>1</duration><voice>1</voice><type>16th</type><stem>down</stem><beam number="1">end</beam><beam number="2">end</beam></note></measure><measure number="8"><note><pitch><step>G</step><octave>2</octave></pitch><duration>3</duration><voice>1</voice><type>eighth</type><dot/><stem>up</stem><beam number="1">begin</beam></note><note><pitch><step>D</step><octave>3</octave></pitch><duration>1</duration><voice>1</voice><type>16th</type><stem>up</stem><beam number="1">continue</beam><beam number="2">begin</beam></note><note><pitch><step>E</step><octave>3</octave></pitch><duration>1</duration><voice>1</voice><type>16th</type><stem>up</stem><beam number="1">continue</beam><beam number="2">continue</beam></note><note><pitch><step>D</step><octave>3</octave></pitch><duration>1</duration><voice>1</voice><type>16th</type><stem>up</stem><beam number="1">end</beam><beam number="2">end</beam></note><note><pitch><step>F</step><octave>3</octave></pitch><duration>3</duration><voice>1</voice><type>eighth</type><dot/><stem>down</stem><beam number="1">begin</beam></note><note><pitch><step>D</step><octave>3</octave></pitch><duration>1</duration><voice>1</voice><type>16th</type><stem>down</stem><beam number="1">continue</beam><beam number="2">begin</beam></note><note><pitch><step>E</step><octave>3</octave></pitch><duration>1</duration><voice>1</voice><type>16th</type><stem>down</stem><beam number="1">continue</beam><beam number="2">continue</beam></note><note><pitch><step>D</step><octave>3</octave></pitch><duration>1</duration><voice>1</voice><type>16th</type><stem>down</stem><beam number="1">end</beam><beam number="2">end</beam></note></measure><measure number="9"><print new-page="yes"/><note><pitch><step>D</step><octave>3</octave></pitch><duration>12</duration><voice>1</voice><type>half</type><dot/><stem>down</stem></note></measure><measure number="10"><note><pitch><step>E</step><alter>-1</alter><octave>3</octave></pitch><duration>6</duration><voice>1</voice><type>quarter</type><dot/><accidental>flat</accidental><stem>down</stem></note><note><pitch><step>D</step><octave>3</octave></pitch><duration>6</duration><voice>1</voice><type>quarter</type><dot/><stem>down</stem></note></measure><measure number="11"><note><pitch><step>G</step><octave>2</octave></pitch><duration>3</duration><voice>1</voice><type>eighth</type><dot/><stem>up</stem><beam number="1">begin</beam></note><note><pitch><step>D</step><octave>3</octave></pitch><duration>1</duration><voice>1</voice><type>16th</type><stem>up</stem><beam number="1">continue</beam><beam number="2">begin</beam></note><note><pitch><step>E</step><octave>3</octave></pitch><duration>1</duration><voice>1</voice><type>16th</type><stem>up</stem><beam number="1">continue</beam><beam number="2">continue</beam></note><note><pitch><step>D</step><octave>3</octave></pitch><duration>1</duration><voice>1</voice><type>16th</type><stem>up</stem><beam number="1">end</beam><beam number="2">end</beam></note><note><pitch><step>F</step><octave>3</octave></pitch><duration>3</duration><voice>1</voice><type>eighth</type><dot/><stem>down</stem><beam number="1">begin</beam></note><note><pitch><step>D</step><octave>3</octave></pitch><duration>1</duration><voice>1</voice><type>16th</type><stem>down</stem><beam number="1">continue</beam><beam number="2">begin</beam></note><note><pitch><step>E</step><octave>3</octave></pitch><duration>1</duration><voice>1</voice><type>16th</type><stem>down</stem><beam number="1">continue</beam><beam number="2">continue</beam></note><note><pitch><step>D</step><octave>3</octave></pitch><duration>1</duration><voice>1</voice><type>16th</type><stem>down</stem><beam number="1">end</beam><beam number="2">end</beam></note></measure><measure number="12"><note><pitch><step>G</step><octave>2</octave></pitch><duration>3</duration><voice>1</voice><type>eighth</type><dot/><stem>up</stem><beam number="1">begin</beam></note><note><pitch><step>D</step><octave>3</octave></pitch><duration>1</duration><voice>1</voice><type>16th</type><stem>up</stem><beam number="1">continue</beam><beam number="2">begin</beam></note><note><pitch><step>E</step><octave>3</octave></pitch><duration>1</duration><voice>1</voice><type>16th</type><stem>up</stem><beam number="1">continue</beam><beam number="2">continue</beam></note><note><pitch><step>D</step><octave>3</octave></pitch><duration>1</duration><voice>1</voice><type>16th</type><stem>up</stem><beam number="1">end</beam><beam number="2">end</beam></note><note><pitch><step>F</step><octave>3</octave></pitch><duration>3</duration><voice>1</voice><type>eighth</type><dot/><stem>down</stem><beam number="1">begin</beam></note><note><pitch><step>D</step><octave>3</octave></pitch><duration>1</duration><voice>1</voice><type>16th</type><stem>down</stem><beam number="1">continue</beam><beam number="2">begin</beam></note><note><pitch><step>E</step><octave>3</octave></pitch><duration>1</duration><voice>1</voice><type>16th</type><stem>down</stem><beam number="1">continue</beam><beam number="2">continue</beam></note><note><pitch><step>D</step><octave>3</octave></pitch><duration>1</duration><voice>1</voice><type>16th</type><stem>down</stem><beam number="1">end</beam><beam number="2">end</beam></note><barline location="right"><bar-style>light-heavy</bar-style></barline></measure></part></score-partwise>