<score-partwise version="2.0"><work><work-number/><work-title/></work><movement-number/><movement-title>The theme from Pink Panther</movement-title><identification><creator type="composer">Henry Mancini</creator><creator type="poet"/><rights>All Rights Reserved</rights><encoding><software>Sibelius 5.2</software><software>Dolet 4 for Sibelius</software><supports type="no" element="accidental"/><supports type="no" element="transpose"/><software>ProxyMusic 2.0 c</software></encoding><source>http://wikifonia.org/node/1093/revisions/1528/view</source></identification><defaults><scaling><millimeters>6</millimeters><tenths>40</tenths></scaling><page-layout><page-height>1980</page-height><page-width>1400</page-width></page-layout></defaults><part-list><score-part id="P1"><part-name>Alto Saxophone</part-name><part-abbreviation>Alto Sax.</part-abbreviation><score-instrument id="P1-I1"><instrument-name>Alto Saxophone</instrument-name><instrument-abbreviation>Alto Sax.</instrument-abbreviation></score-instrument><midi-instrument id="P1-I1"><volume>75</volume><pan>-18</pan></midi-instrument></score-part></part-list><part id="P1"><measure number="0" implicit="yes"><attributes><divisions>768</divisions><key><fifths>1</fifths><mode>major</mode></key><time><beats>4</beats><beat-type>4</beat-type></time><clef><sign>G</sign><line>2</line></clef></attributes><direction><direction-type><words relative-x="-6" default-y="20" enclosure="rectangle">intro</words></direction-type></direction><note><rest/><duration>384</duration><voice>1</voice><type>eighth</type></note><direction><direction-type><words relative-x="-6" default-y="20">bass</words></direction-type></direction><note><pitch><step>C</step><alter>1</alter><octave>4</octave></pitch><duration>384</duration><voice>1</voice><type>eighth</type></note><note><pitch><step>D</step><octave>4</octave></pitch><duration>384</duration><voice>1</voice><type>eighth</type><beam number="1">begin</beam></note><note><pitch><step>D</step><alter>1</alter><octave>4</octave></pitch><duration>384</duration><voice>1</voice><type>eighth</type><beam number="1">end</beam></note></measure><measure number="1"><harmony relative-x="8" default-y="25" print-frame="no"><root><root-step>E</root-step></root><kind text="m7">minor-seventh</kind></harmony><note><pitch><step>E</step><octave>4</octave></pitch><duration>3072</duration><tie type="start"/><voice>1</voice><type>whole</type><notations><tied type="start"/></notations></note></measure><measure number="2"><note><pitch><step>E</step><octave>4</octave></pitch><duration>1536</duration><tie type="stop"/><voice>1</voice><type>half</type><notations><tied type="stop"/></notations></note><note><rest/><duration>384</duration><voice>1</voice><type>eighth</type></note><note><pitch><step>C</step><alter>1</alter><octave>4</octave></pitch><duration>384</duration><voice>1</voice><type>eighth</type></note><note><pitch><step>D</step><octave>4</octave></pitch><duration>384</duration><voice>1</voice><type>eighth</type><beam number="1">begin</beam></note><note><pitch><step>D</step><alter>1</alter><octave>4</octave></pitch><duration>384</duration><voice>1</voice><type>eighth</type><beam number="1">end</beam></note></measure><measure number="3"><harmony relative-x="8" default-y="25" print-frame="no"><root><root-step>E</root-step></root><kind text="m7">minor-seventh</kind></harmony><note><pitch><step>E</step><octave>4</octave></pitch><duration>3072</duration><tie type="start"/><voice>1</voice><type>whole</type><notations><tied type="start"/></notations></note></measure><measure number="4"><note><pitch><step>E</step><octave>4</octave></pitch><duration>1536</duration><tie type="stop"/><voice>1</voice><type>half</type><notations><tied type="stop"/></notations></note><note><rest/><duration>768</duration><voice>1</voice><type>quarter</type></note><note><rest/><duration>384</duration><voice>1</voice><type>eighth</type></note><direction><direction-type><words relative-x="-6" default-y="20">lead</words></direction-type></direction><note><pitch><step>D</step><alter>1</alter><octave>4</octave></pitch><duration>384</duration><voice>1</voice><type>eighth</type></note><barline location="right"><bar-style>light-light</bar-style></barline></measure><measure number="5"><print new-system="yes"/><direction placement="above"><direction-type><rehearsal>[A]</rehearsal></direction-type></direction><harmony relative-x="8" default-y="25" print-frame="no"><root><root-step>E</root-step></root><kind text="m7">minor-seventh</kind></harmony><note><pitch><step>E</step><octave>4</octave></pitch><duration>768</duration><voice>1</voice><type>quarter</type></note><note><rest/><duration>384</duration><voice>1</voice><type>eighth</type></note><note><pitch><step>F</step><alter>1</alter><octave>4</octave></pitch><duration>384</duration><voice>1</voice><type>eighth</type></note><note><pitch><step>G</step><octave>4</octave></pitch><duration>768</duration><voice>1</voice><type>quarter</type></note><note><rest/><duration>384</duration><voice>1</voice><type>eighth</type></note><note><pitch><step>D</step><alter>1</alter><octave>4</octave></pitch><duration>384</duration><voice>1</voice><type>eighth</type></note></measure><measure number="6"><note><pitch><step>E</step><octave>4</octave></pitch><duration>384</duration><voice>1</voice><type>eighth</type><beam number="1">begin</beam></note><note><pitch><step>F</step><alter>1</alter><octave>4</octave></pitch><duration>384</duration><voice>1</voice><type>eighth</type><beam number="1">continue</beam></note><note><pitch><step>G</step><octave>4</octave></pitch><duration>384</duration><voice>1</voice><type>eighth</type><beam number="1">continue</beam></note><note><pitch><step>C</step><octave>5</octave></pitch><duration>384</duration><voice>1</voice><type>eighth</type><beam number="1">end</beam></note><note><pitch><step>B</step><octave>4</octave></pitch><duration>384</duration><voice>1</voice><type>eighth</type><beam number="1">begin</beam></note><note><pitch><step>E</step><octave>4</octave></pitch><duration>384</duration><voice>1</voice><type>eighth</type><beam number="1">continue</beam></note><note><pitch><step>G</step><octave>4</octave></pitch><duration>384</duration><voice>1</voice><type>eighth</type><beam number="1">continue</beam></note><note><pitch><step>B</step><octave>4</octave></pitch><duration>384</duration><voice>1</voice><type>eighth</type><beam number="1">end</beam></note></measure><measure number="7"><harmony relative-x="8" default-y="25" print-frame="no"><root><root-step>C</root-step></root><kind text="7" parentheses-degrees="yes">dominant</kind><degree><degree-value>11</degree-value><degree-alter>1</degree-alter><degree-type>add</degree-type></degree></harmony><note><pitch><step>B</step><alter>-1</alter><octave>4</octave></pitch><duration>1536</duration><tie type="start"/><voice>1</voice><type>half</type><notations><tied type="start"/><slur type="start" number="1"/></notations></note><note><pitch><step>B</step><alter>-1</alter><octave>4</octave></pitch><duration>256</duration><tie type="stop"/><voice>1</voice><type>eighth</type><time-modification><actual-notes>3</actual-notes><normal-notes>2</normal-notes></time-modification><beam number="1">begin</beam><notations><tied type="stop"/><tuplet type="start" number="1"/></notations></note><note><pitch><step>A</step><octave>4</octave></pitch><duration>256</duration><voice>1</voice><type>eighth</type><time-modification><actual-notes>3</actual-notes><normal-notes>2</normal-notes></time-modification><beam number="1">continue</beam></note><note><pitch><step>G</step><octave>4</octave></pitch><duration>256</duration><voice>1</voice><type>eighth</type><time-modification><actual-notes>3</actual-notes><normal-notes>2</normal-notes></time-modification><beam number="1">end</beam><notations><tuplet type="stop" number="1"/><slur type="stop" number="1"/></notations></note><note><pitch><step>E</step><octave>4</octave></pitch><duration>256</duration><voice>1</voice><type>eighth</type><time-modification><actual-notes>3</actual-notes><normal-notes>2</normal-notes></time-modification><beam number="1">begin</beam><notations><tuplet type="start" number="1"/><slur type="start" number="1"/></notations></note><note><pitch><step>D</step><octave>4</octave></pitch><duration>256</duration><voice>1</voice><type>eighth</type><time-modification><actual-notes>3</actual-notes><normal-notes>2</normal-notes></time-modification><beam number="1">continue</beam></note><note><pitch><step>E</step><octave>4</octave></pitch><duration>256</duration><tie type="start"/><voice>1</voice><type>eighth</type><time-modification><actual-notes>3</actual-notes><normal-notes>2</normal-notes></time-modification><beam number="1">end</beam><notations><tied type="start"/><tuplet type="stop" number="1"/></notations></note></measure><measure number="8"><note><pitch><step>E</step><octave>4</octave></pitch><duration>768</duration><voice>1</voice><type>quarter</type><notations><slur type="stop" number="1"/></notations></note><note><rest/><duration>768</duration><voice>1</voice><type>quarter</type></note><note><rest/><duration>768</duration><voice>1</voice><type>quarter</type></note><note><rest/><duration>384</duration><voice>1</voice><type>eighth</type></note><note><pitch><step>D</step><alter>1</alter><octave>4</octave></pitch><duration>384</duration><voice>1</voice><type>eighth</type></note></measure><measure number="9"><print new-system="yes"/><harmony relative-x="8" default-y="25" print-frame="no"><root><root-step>E</root-step></root><kind text="m7">minor-seventh</kind></harmony><note><pitch><step>E</step><octave>4</octave></pitch><duration>768</duration><voice>1</voice><type>quarter</type></note><note><rest/><duration>384</duration><voice>1</voice><type>eighth</type></note><note><pitch><step>F</step><alter>1</alter><octave>4</octave></pitch><duration>384</duration><voice>1</voice><type>eighth</type></note><note><pitch><step>G</step><octave>4</octave></pitch><duration>768</duration><voice>1</voice><type>quarter</type></note><note><rest/><duration>384</duration><voice>1</voice><type>eighth</type></note><note><pitch><step>D</step><alter>1</alter><octave>4</octave></pitch><duration>384</duration><voice>1</voice><type>eighth</type></note></measure><measure number="10"><note><pitch><step>E</step><octave>4</octave></pitch><duration>384</duration><voice>1</voice><type>eighth</type><beam number="1">begin</beam></note><note><pitch><step>F</step><alter>1</alter><octave>4</octave></pitch><duration>384</duration><voice>1</voice><type>eighth</type><beam number="1">continue</beam></note><note><pitch><step>G</step><octave>4</octave></pitch><duration>384</duration><voice>1</voice><type>eighth</type><beam number="1">continue</beam></note><note><pitch><step>C</step><octave>5</octave></pitch><duration>384</duration><voice>1</voice><type>eighth</type><beam number="1">end</beam></note><note><pitch><step>B</step><octave>4</octave></pitch><duration>384</duration><voice>1</voice><type>eighth</type><beam number="1">begin</beam></note><note><pitch><step>G</step><octave>4</octave></pitch><duration>384</duration><voice>1</voice><type>eighth</type><beam number="1">continue</beam></note><note><pitch><step>B</step><octave>4</octave></pitch><duration>384</duration><voice>1</voice><type>eighth</type><beam number="1">continue</beam></note><note><pitch><step>E</step><octave>5</octave></pitch><duration>384</duration><voice>1</voice><type>eighth</type><beam number="1">end</beam></note></measure><measure number="11"><harmony relative-x="8" default-y="25" print-frame="no"><root><root-step>F</root-step></root><kind text="7" parentheses-degrees="yes">dominant</kind><degree><degree-value>11</degree-value><degree-alter>1</degree-alter><degree-type>add</degree-type></degree></harmony><note><pitch><step>D</step><alter>1</alter><octave>5</octave></pitch><duration>3072</duration><tie type="start"/><voice>1</voice><type>whole</type><notations><tied type="start"/></notations></note></measure><measure number="12"><note><pitch><step>D</step><alter>1</alter><octave>5</octave></pitch><duration>1536</duration><tie type="stop"/><voice>1</voice><type>half</type><notations><tied type="stop"/></notations></note><note><rest/><duration>768</duration><voice>1</voice><type>quarter</type></note><note><rest/><duration>384</duration><voice>1</voice><type>eighth</type></note><note><pitch><step>D</step><alter>1</alter><octave>4</octave></pitch><duration>384</duration><voice>1</voice><type>eighth</type></note></measure><measure number="13"><print new-system="yes"/><harmony relative-x="8" default-y="25" print-frame="no"><root><root-step>E</root-step></root><kind text="m7">minor-seventh</kind></harmony><note><pitch><step>E</step><octave>4</octave></pitch><duration>768</duration><voice>1</voice><type>quarter</type></note><note><rest/><duration>384</duration><voice>1</voice><type>eighth</type></note><note><pitch><step>F</step><alter>1</alter><octave>4</octave></pitch><duration>384</duration><voice>1</voice><type>eighth</type></note><note><pitch><step>G</step><octave>4</octave></pitch><duration>768</duration><voice>1</voice><type>quarter</type></note><note><rest/><duration>384</duration><voice>1</voice><type>eighth</type></note><note><pitch><step>D</step><alter>1</alter><octave>4</octave></pitch><duration>384</duration><voice>1</voice><type>eighth</type></note></measure><measure number="14"><note><pitch><step>E</step><octave>4</octave></pitch><duration>384</duration><voice>1</voice><type>eighth</type><beam number="1">begin</beam></note><note><pitch><step>F</step><alter>1</alter><octave>4</octave></pitch><duration>384</duration><voice>1</voice><type>eighth</type><beam number="1">continue</beam></note><note><pitch><step>G</step><octave>4</octave></pitch><duration>384</duration><voice>1</voice><type>eighth</type><beam number="1">continue</beam></note><note><pitch><step>C</step><octave>5</octave></pitch><duration>384</duration><voice>1</voice><type>eighth</type><beam number="1">end</beam></note><note><pitch><step>B</step><octave>4</octave></pitch><duration>384</duration><voice>1</voice><type>eighth</type><beam number="1">begin</beam></note><note><pitch><step>E</step><octave>4</octave></pitch><duration>384</duration><voice>1</voice><type>eighth</type><beam number="1">continue</beam></note><note><pitch><step>G</step><octave>4</octave></pitch><duration>384</duration><voice>1</voice><type>eighth</type><beam number="1">continue</beam></note><note><pitch><step>B</step><octave>4</octave></pitch><duration>384</duration><voice>1</voice><type>eighth</type><beam number="1">end</beam></note></measure><measure number="15"><harmony relative-x="8" default-y="25" print-frame="no"><root><root-step>C</root-step></root><kind text="7" parentheses-degrees="yes">dominant</kind><degree><degree-value>11</degree-value><degree-alter>1</degree-alter><degree-type>add</degree-type></degree></harmony><note><pitch><step>B</step><alter>-1</alter><octave>4</octave></pitch><duration>1536</duration><tie type="start"/><voice>1</voice><type>half</type><notations><tied type="start"/><slur type="start" number="1"/></notations></note><note><pitch><step>B</step><alter>-1</alter><octave>4</octave></pitch><duration>256</duration><tie type="stop"/><voice>1</voice><type>eighth</type><time-modification><actual-notes>3</actual-notes><normal-notes>2</normal-notes></time-modification><beam number="1">begin</beam><notations><tied type="stop"/><tuplet type="start" number="1"/></notations></note><note><pitch><step>A</step><octave>4</octave></pitch><duration>256</duration><voice>1</voice><type>eighth</type><time-modification><actual-notes>3</actual-notes><normal-notes>2</normal-notes></time-modification><beam number="1">continue</beam></note><note><pitch><step>G</step><octave>4</octave></pitch><duration>256</duration><voice>1</voice><type>eighth</type><time-modification><actual-notes>3</actual-notes><normal-notes>2</normal-notes></time-modification><beam number="1">end</beam><notations><tuplet type="stop" number="1"/><slur type="stop" number="1"/></notations></note><note><pitch><step>E</step><octave>4</octave></pitch><duration>256</duration><voice>1</voice><type>eighth</type><time-modification><actual-notes>3</actual-notes><normal-notes>2</normal-notes></time-modification><beam number="1">begin</beam><notations><tuplet type="start" number="1"/><slur type="start" number="1"/></notations></note><note><pitch><step>D</step><octave>4</octave></pitch><duration>256</duration><voice>1</voice><type>eighth</type><time-modification><actual-notes>3</actual-notes><normal-notes>2</normal-notes></time-modification><beam number="1">continue</beam></note><note><pitch><step>E</step><octave>4</octave></pitch><duration>256</duration><tie type="start"/><voice>1</voice><type>eighth</type><time-modification><actual-notes>3</actual-notes><normal-notes>2</normal-notes></time-modification><beam number="1">end</beam><notations><tied type="start"/><tuplet type="stop" number="1"/></notations></note></measure><measure number="16"><note><pitch><step>E</step><octave>4</octave></pitch><duration>768</duration><voice>1</voice><type>quarter</type><notations><slur type="stop" number="1"/></notations></note><note><rest/><duration>768</duration><voice>1</voice><type>quarter</type></note><note><rest/><duration>384</duration><voice>1</voice><type>eighth</type></note><direction><direction-type><words relative-x="-6" default-y="20">bass</words></direction-type></direction><note><pitch><step>C</step><alter>1</alter><octave>4</octave></pitch><duration>384</duration><voice>1</voice><type>eighth</type></note><note><pitch><step>D</step><octave>4</octave></pitch><duration>384</duration><voice>1</voice><type>eighth</type><beam number="1">begin</beam></note><note><pitch><step>D</step><alter>1</alter><octave>4</octave></pitch><duration>384</duration><voice>1</voice><type>eighth</type><beam number="1">end</beam></note></measure><measure number="17"><print new-system="yes"/><note><pitch><step>E</step><octave>4</octave></pitch><duration>384</duration><voice>1</voice><type>eighth</type></note><note><rest/><duration>384</duration><voice>1</voice><type>eighth</type></note><direction><direction-type><words relative-x="-6" default-y="17">lead</words></direction-type></direction><harmony relative-x="8" default-y="51" print-frame="no"><root><root-step text="">C</root-step></root><kind text="N.C.">none</kind></harmony><note><pitch><step>E</step><octave>5</octave></pitch><duration>384</duration><voice>1</voice><type>eighth</type><beam number="1">begin</beam></note><note><pitch><step>D</step><octave>5</octave></pitch><duration>384</duration><voice>1</voice><type>eighth</type><beam number="1">end</beam></note><note><pitch><step>B</step><octave>4</octave></pitch><duration>384</duration><voice>1</voice><type>eighth</type><beam number="1">begin</beam></note><note><pitch><step>A</step><octave>4</octave></pitch><duration>384</duration><voice>1</voice><type>eighth</type><beam number="1">continue</beam></note><note><pitch><step>G</step><octave>4</octave></pitch><duration>384</duration><voice>1</voice><type>eighth</type><beam number="1">continue</beam></note><note><pitch><step>E</step><octave>4</octave></pitch><duration>384</duration><voice>1</voice><type>eighth</type><beam number="1">end</beam></note></measure><measure number="18"><note><pitch><step>B</step><alter>-1</alter><octave>4</octave></pitch><duration>256</duration><voice>1</voice><type>eighth</type><time-modification><actual-notes>3</actual-notes><normal-notes>2</normal-notes></time-modification><beam number="1">begin</beam><notations><tuplet type="start" number="1"/><slur type="start" number="1"/></notations></note><note><pitch><step>A</step><octave>4</octave></pitch><duration>512</duration><voice>1</voice><type>quarter</type><time-modification><actual-notes>3</actual-notes><normal-notes>2</normal-notes><normal-type>eighth</normal-type></time-modification><notations><tuplet type="stop" number="1"/><slur type="stop" number="1"/></notations></note><note><pitch><step>B</step><alter>-1</alter><octave>4</octave></pitch><duration>256</duration><voice>1</voice><type>eighth</type><time-modification><actual-notes>3</actual-notes><normal-notes>2</normal-notes></time-modification><beam number="1">begin</beam><notations><tuplet type="start" number="1"/><slur type="start" number="1"/></notations></note><note><pitch><step>A</step><octave>4</octave></pitch><duration>512</duration><voice>1</voice><type>quarter</type><time-modification><actual-notes>3</actual-notes><normal-notes>2</normal-notes><normal-type>eighth</normal-type></time-modification><notations><tuplet type="stop" number="1"/><slur type="stop" number="1"/></notations></note><note><pitch><step>B</step><alter>-1</alter><octave>4</octave></pitch><duration>256</duration><voice>1</voice><type>eighth</type><time-modification><actual-notes>3</actual-notes><normal-notes>2</normal-notes></time-modification><beam number="1">begin</beam><notations><tuplet type="start" number="1"/><slur type="start" number="1"/></notations></note><note><pitch><step>A</step><octave>4</octave></pitch><duration>512</duration><voice>1</voice><type>quarter</type><time-modification><actual-notes>3</actual-notes><normal-notes>2</normal-notes><normal-type>eighth</normal-type></time-modification><notations><tuplet type="stop" number="1"/><slur type="stop" number="1"/></notations></note><note><pitch><step>B</step><alter>-1</alter><octave>4</octave></pitch><duration>256</duration><voice>1</voice><type>eighth</type><time-modification><actual-notes>3</actual-notes><normal-notes>2</normal-notes></time-modification><beam number="1">begin</beam><notations><tuplet type="start" number="1"/><slur type="start" number="1"/></notations></note><note><pitch><step>A</step><octave>4</octave></pitch><duration>512</duration><voice>1</voice><type>quarter</type><time-modification><actual-notes>3</actual-notes><normal-notes>2</normal-notes><normal-type>eighth</normal-type></time-modification><notations><tuplet type="stop" number="1"/><slur type="stop" number="1"/></notations></note></measure><measure number="19"><harmony relative-x="8" default-y="25" print-frame="no"><root><root-step>E</root-step></root><kind text="m7">minor-seventh</kind></harmony><note><pitch><step>G</step><octave>4</octave></pitch><duration>256</duration><voice>1</voice><type>eighth</type><time-modification><actual-notes>3</actual-notes><normal-notes>2</normal-notes></time-modification><beam number="1">begin</beam><notations><tuplet type="start" number="1"/><slur type="start" number="1"/></notations></note><note><pitch><step>E</step><octave>4</octave></pitch><duration>256</duration><voice>1</voice><type>eighth</type><time-modification><actual-notes>3</actual-notes><normal-notes>2</normal-notes></time-modification><beam number="1">continue</beam></note><note><pitch><step>D</step><octave>4</octave></pitch><duration>256</duration><voice>1</voice><type>eighth</type><time-modification><actual-notes>3</actual-notes><normal-notes>2</normal-notes></time-modification><beam number="1">end</beam><notations><tuplet type="stop" number="1"/><slur type="stop" number="1"/></notations></note><note><pitch><step>E</step><octave>4</octave></pitch><duration>384</duration><voice>1</voice><type>eighth</type><beam number="1">begin</beam></note><note><pitch><step>E</step><octave>4</octave></pitch><duration>384</duration><tie type="start"/><voice>1</voice><type>eighth</type><beam number="1">end</beam><notations><tied type="start"/></notations></note><note><pitch><step>E</step><octave>4</octave></pitch><duration>1536</duration><tie type="stop"/><voice>1</voice><type>half</type><notations><tied type="stop"/></notations></note></measure><measure number="20"><note><rest/><duration>3072</duration><voice>1</voice><type>whole</type></note><barline location="right"><bar-style>light-light</bar-style></barline></measure><measure number="21"><print new-system="yes"/><attributes><key><fifths>-1</fifths><mode>major</mode></key></attributes><direction placement="above"><direction-type><rehearsal>[B]</rehearsal></direction-type></direction><harmony relative-x="13" default-y="25" print-frame="no"><root><root-step>G</root-step></root><kind text="m6">minor-sixth</kind></harmony><note><pitch><step>F</step><alter>1</alter><octave>4</octave></pitch><duration>384</duration><voice>1</voice><type>eighth</type><beam number="1">begin</beam></note><note><pitch><step>G</step><octave>4</octave></pitch><duration>384</duration><tie type="start"/><voice>1</voice><type>eighth</type><beam number="1">end</beam><notations><tied type="start"/></notations></note><note><pitch><step>G</step><octave>4</octave></pitch><duration>768</duration><tie type="stop"/><voice>1</voice><type>quarter</type><notations><tied type="stop"/></notations></note><note><rest/><duration>768</duration><voice>1</voice><type>quarter</type></note><note><pitch><step>A</step><octave>4</octave></pitch><duration>384</duration><voice>1</voice><type>eighth</type><beam number="1">begin</beam></note><note><pitch><step>B</step><alter>-1</alter><octave>4</octave></pitch><duration>384</duration><tie type="start"/><voice>1</voice><type>eighth</type><beam number="1">end</beam><notations><tied type="start"/></notations></note></measure><measure number="22"><note><pitch><step>B</step><alter>-1</alter><octave>4</octave></pitch><duration>1536</duration><tie type="stop"/><tie type="start"/><voice>1</voice><type>half</type><notations><tied type="stop"/><tied type="start"/></notations></note><note><pitch><step>B</step><alter>-1</alter><octave>4</octave></pitch><duration>384</duration><tie type="stop"/><voice>1</voice><type>eighth</type><beam number="1">begin</beam><notations><tied type="stop"/></notations></note><note><pitch><step>C</step><alter>1</alter><octave>5</octave></pitch><duration>384</duration><voice>1</voice><type>eighth</type><beam number="1">continue</beam></note><note><pitch><step>D</step><octave>5</octave></pitch><duration>384</duration><voice>1</voice><type>eighth</type><beam number="1">continue</beam></note><note><pitch><step>F</step><octave>5</octave></pitch><duration>384</duration><tie type="start"/><voice>1</voice><type>eighth</type><beam number="1">end</beam><notations><tied type="start"/></notations></note></measure><measure number="23"><harmony relative-x="8" default-y="25" print-frame="no"><root><root-step>E</root-step><root-alter>-1</root-alter></root><kind text="7">dominant</kind></harmony><note><pitch><step>F</step><octave>5</octave></pitch><duration>1536</duration><tie type="stop"/><tie type="start"/><voice>1</voice><type>half</type><notations><tied type="stop"/><tied type="start"/></notations></note><note><pitch><step>F</step><octave>5</octave></pitch><duration>384</duration><tie type="stop"/><voice>1</voice><type>eighth</type><beam number="1">begin</beam><notations><tied type="stop"/></notations></note><note><pitch><step>E</step><alter>-1</alter><octave>5</octave></pitch><duration>384</duration><voice>1</voice><type>eighth</type><accidental>flat</accidental><beam number="1">continue</beam></note><note><pitch><step>D</step><alter>-1</alter><octave>5</octave></pitch><duration>384</duration><voice>1</voice><type>eighth</type><beam number="1">continue</beam></note><note><pitch><step>B</step><alter>-1</alter><octave>4</octave></pitch><duration>384</duration><tie type="start"/><voice>1</voice><type>eighth</type><beam number="1">end</beam><notations><tied type="start"/></notations></note></measure><measure number="24"><note><pitch><step>B</step><alter>-1</alter><octave>4</octave></pitch><duration>384</duration><tie type="stop"/><voice>1</voice><type>eighth</type><notations><tied type="stop"/></notations></note><note><rest/><duration>384</duration><voice>1</voice><type>eighth</type></note><note><rest/><duration>768</duration><voice>1</voice><type>quarter</type></note><note><rest/><duration>768</duration><voice>1</voice><type>quarter</type></note><note><rest/><duration>384</duration><voice>1</voice><type>eighth</type></note><note><pitch><step>G</step><octave>4</octave></pitch><duration>384</duration><voice>1</voice><type>eighth</type></note></measure><measure number="25"><print new-system="yes"/><harmony relative-x="8" default-y="25" print-frame="no"><root><root-step>G</root-step></root><kind text="m6">minor-sixth</kind></harmony><note><pitch><step>B</step><alter>-1</alter><octave>4</octave></pitch><duration>192</duration><voice>1</voice><type>16th</type><beam number="1">begin</beam><beam number="2">begin</beam></note><note><pitch><step>C</step><octave>5</octave></pitch><duration>192</duration><voice>1</voice><type>16th</type><beam number="1">continue</beam><beam number="2">continue</beam></note><note><pitch><step>B</step><alter>-1</alter><octave>4</octave></pitch><duration>192</duration><voice>1</voice><type>16th</type><beam number="1">continue</beam><beam number="2">continue</beam></note><note><pitch><step>G</step><octave>4</octave></pitch><duration>192</duration><voice>1</voice><type>16th</type><beam number="1">end</beam><beam number="2">end</beam></note><note><pitch><step>A</step><octave>4</octave></pitch><duration>384</duration><voice>1</voice><type>eighth</type><beam number="1">begin</beam></note><note><pitch><step>G</step><octave>4</octave></pitch><duration>384</duration><voice>1</voice><type>eighth</type><beam number="1">end</beam></note><note><rest/><duration>768</duration><voice>1</voice><type>quarter</type></note><note><rest/><duration>384</duration><voice>1</voice><type>eighth</type></note><note><pitch><step>B</step><alter>-1</alter><octave>4</octave></pitch><duration>384</duration><voice>1</voice><type>eighth</type></note></measure><measure number="26"><note><pitch><step>D</step><alter>-1</alter><octave>5</octave></pitch><duration>192</duration><voice>1</voice><type>16th</type><beam number="1">begin</beam><beam number="2">begin</beam></note><note><pitch><step>E</step><alter>-1</alter><octave>5</octave></pitch><duration>192</duration><voice>1</voice><type>16th</type><beam number="1">continue</beam><beam number="2">continue</beam></note><note><pitch><step>D</step><alter>-1</alter><octave>5</octave></pitch><duration>192</duration><voice>1</voice><type>16th</type><beam number="1">continue</beam><beam number="2">continue</beam></note><note><pitch><step>B</step><alter>-1</alter><octave>4</octave></pitch><duration>192</duration><voice>1</voice><type>16th</type><beam number="1">end</beam><beam number="2">end</beam></note><note><pitch><step>C</step><octave>5</octave></pitch><duration>384</duration><voice>1</voice><type>eighth</type><beam number="1">begin</beam></note><note><pitch><step>B</step><alter>-1</alter><octave>4</octave></pitch><duration>384</duration><tie type="start"/><voice>1</voice><type>eighth</type><beam number="1">end</beam><notations><tied type="start"/></notations></note><note><pitch><step>B</step><alter>-1</alter><octave>4</octave></pitch><duration>768</duration><tie type="stop"/><voice>1</voice><type>quarter</type><notations><tied type="stop"/></notations></note><note><pitch><step>G</step><octave>4</octave></pitch><duration>384</duration><voice>1</voice><type>eighth</type><beam number="1">begin</beam></note><note><pitch><step>F</step><octave>4</octave></pitch><duration>384</duration><tie type="start"/><voice>1</voice><type>eighth</type><beam number="1">end</beam><notations><tied type="start"/></notations></note></measure><measure number="27"><harmony relative-x="8" default-y="25" print-frame="no"><root><root-step>A</root-step><root-alter>-1</root-alter></root><kind text="7">dominant</kind></harmony><note><pitch><step>F</step><octave>4</octave></pitch><duration>3072</duration><tie type="stop"/><voice>1</voice><type>whole</type><notations><tied type="stop"/></notations></note></measure><measure number="28"><note><rest/><duration>1536</duration><voice>1</voice><type>half</type></note><note><rest/><duration>768</duration><voice>1</voice><type>quarter</type></note><note><pitch><step>F</step><alter>1</alter><octave>4</octave></pitch><duration>384</duration><voice>1</voice><type>eighth</type><beam number="1">begin</beam></note><note><pitch><step>G</step><octave>4</octave></pitch><duration>384</duration><tie type="start"/><voice>1</voice><type>eighth</type><beam number="1">end</beam><notations><tied type="start"/></notations></note></measure><measure number="29"><print new-system="yes"/><harmony relative-x="8" default-y="25" print-frame="no"><root><root-step>G</root-step></root><kind text="m6">minor-sixth</kind></harmony><note><pitch><step>G</step><octave>4</octave></pitch><duration>384</duration><tie type="stop"/><voice>1</voice><type>eighth</type><notations><tied type="stop"/></notations></note><note><rest/><duration>384</duration><voice>1</voice><type>eighth</type></note><note><rest/><duration>768</duration><voice>1</voice><type>quarter</type></note><note><rest/><duration>384</duration><voice>1</voice><type>eighth</type></note><note><pitch><step>G</step><octave>4</octave></pitch><duration>384</duration><voice>1</voice><type>eighth</type></note><note><pitch><step>B</step><alter>-1</alter><octave>4</octave></pitch><duration>384</duration><voice>1</voice><type>eighth</type><beam number="1">begin</beam></note><note><pitch><step>C</step><octave>5</octave></pitch><duration>384</duration><voice>1</voice><type>eighth</type><beam number="1">end</beam></note></measure><measure number="30"><note><pitch><step>D</step><alter>-1</alter><octave>5</octave></pitch><duration>384</duration><voice>1</voice><type>eighth</type><beam number="1">begin</beam></note><note><pitch><step>D</step><alter>-1</alter><octave>5</octave></pitch><duration>384</duration><voice>1</voice><type>eighth</type><beam number="1">end</beam></note><note><pitch><step>D</step><alter>-1</alter><octave>5</octave></pitch><duration>256</duration><voice>1</voice><type>eighth</type><time-modification><actual-notes>3</actual-notes><normal-notes>2</normal-notes></time-modification><beam number="1">begin</beam><notations><tuplet type="start" number="1"/></notations></note><note><pitch><step>C</step><octave>5</octave></pitch><duration>256</duration><voice>1</voice><type>eighth</type><time-modification><actual-notes>3</actual-notes><normal-notes>2</normal-notes></time-modification><beam number="1">continue</beam></note><note><pitch><step>B</step><alter>-1</alter><octave>4</octave></pitch><duration>256</duration><voice>1</voice><type>eighth</type><time-modification><actual-notes>3</actual-notes><normal-notes>2</normal-notes></time-modification><beam number="1">end</beam><notations><tuplet type="stop" number="1"/></notations></note><note><pitch><step>G</step><octave>4</octave></pitch><duration>384</duration><voice>1</voice><type>eighth</type><beam number="1">begin</beam></note><note><pitch><step>B</step><alter>-1</alter><octave>4</octave></pitch><duration>384</duration><voice>1</voice><type>eighth</type><beam number="1">end</beam></note><note><rest/><duration>384</duration><voice>1</voice><type>eighth</type></note><note><pitch><step>G</step><octave>4</octave></pitch><duration>384</duration><voice>1</voice><type>eighth</type></note></measure><measure number="31"><harmony relative-x="8" default-y="25" print-frame="no"><root><root-step>E</root-step><root-alter>-1</root-alter></root><kind text="7">dominant</kind></harmony><note><pitch><step>B</step><alter>-1</alter><octave>4</octave></pitch><duration>512</duration><voice>1</voice><type>quarter</type><time-modification><actual-notes>3</actual-notes><normal-notes>2</normal-notes></time-modification><notations><tuplet type="start" number="1"/></notations></note><note><pitch><step>C</step><octave>5</octave></pitch><duration>512</duration><voice>1</voice><type>quarter</type><time-modification><actual-notes>3</actual-notes><normal-notes>2</normal-notes></time-modification></note><note><pitch><step>D</step><alter>-1</alter><octave>5</octave></pitch><duration>512</duration><voice>1</voice><type>quarter</type><time-modification><actual-notes>3</actual-notes><normal-notes>2</normal-notes></time-modification><notations><tuplet type="stop" number="1"/></notations></note><note><pitch><step>D</step><alter>-1</alter><octave>5</octave></pitch><duration>512</duration><voice>1</voice><type>quarter</type><time-modification><actual-notes>3</actual-notes><normal-notes>2</normal-notes></time-modification><notations><tuplet type="start" number="1"/></notations></note><note><pitch><step>C</step><octave>5</octave></pitch><duration>512</duration><voice>1</voice><type>quarter</type><time-modification><actual-notes>3</actual-notes><normal-notes>2</normal-notes></time-modification></note><note><pitch><step>B</step><alter>-1</alter><octave>4</octave></pitch><duration>512</duration><voice>1</voice><type>quarter</type><time-modification><actual-notes>3</actual-notes><normal-notes>2</normal-notes></time-modification><notations><tuplet type="stop" number="1"/></notations></note></measure><measure number="32"><note><pitch><step>G</step><octave>4</octave></pitch><duration>2304</duration><voice>1</voice><type>half</type><dot/></note><note><pitch><step>F</step><octave>4</octave></pitch><duration>384</duration><voice>1</voice><type>eighth</type><beam number="1">begin</beam></note><harmony relative-x="8" default-y="25" print-frame="no"><root><root-step>G</root-step></root><kind text="m7">minor-seventh</kind></harmony><note><pitch><step>D</step><octave>4</octave></pitch><duration>384</duration><voice>1</voice><type>eighth</type><beam number="1">end</beam></note></measure><measure number="33"><print new-system="yes"/><note><rest/><duration>3072</duration><voice>1</voice><type>whole</type></note></measure><measure number="34"><harmony relative-x="8" default-y="25" print-frame="no"><root><root-step>E</root-step><root-alter>-1</root-alter></root><kind text="7">dominant</kind></harmony><note><pitch><step>G</step><octave>4</octave></pitch><duration>256</duration><voice>1</voice><type>eighth</type><time-modification><actual-notes>3</actual-notes><normal-notes>2</normal-notes></time-modification><beam number="1">begin</beam><notations><tuplet type="start" number="1"/></notations></note><note><pitch><step>B</step><alter>-1</alter><octave>4</octave></pitch><duration>256</duration><voice>1</voice><type>eighth</type><time-modification><actual-notes>3</actual-notes><normal-notes>2</normal-notes></time-modification><beam number="1">end</beam></note><note><rest/><duration>256</duration><voice>1</voice><type>eighth</type><time-modification><actual-notes>3</actual-notes><normal-notes>2</normal-notes></time-modification><notations><tuplet type="stop" number="1"/></notations></note><note><pitch><step>B</step><alter>-1</alter><octave>4</octave></pitch><duration>768</duration><voice>1</voice><type>quarter</type><notations><articulations><tenuto/></articulations></notations></note><harmony relative-x="8" default-y="25" print-frame="no"><root><root-step>D</root-step></root><kind text="7" parentheses-degrees="yes">dominant</kind><degree><degree-value>9</degree-value><degree-alter>-1</degree-alter><degree-type>add</degree-type></degree></harmony><note><pitch><step>F</step><alter>1</alter><octave>4</octave></pitch><duration>256</duration><voice>1</voice><type>eighth</type><time-modification><actual-notes>3</actual-notes><normal-notes>2</normal-notes></time-modification><beam number="1">begin</beam><notations><tuplet type="start" number="1"/></notations></note><note><pitch><step>A</step><octave>4</octave></pitch><duration>256</duration><voice>1</voice><type>eighth</type><time-modification><actual-notes>3</actual-notes><normal-notes>2</normal-notes></time-modification><beam number="1">end</beam></note><note><rest/><duration>256</duration><voice>1</voice><type>eighth</type><time-modification><actual-notes>3</actual-notes><normal-notes>2</normal-notes></time-modification><notations><tuplet type="stop" number="1"/></notations></note><note><pitch><step>A</step><octave>4</octave></pitch><duration>768</duration><voice>1</voice><type>quarter</type><notations><articulations><tenuto/></articulations></notations></note></measure><measure number="35"><harmony relative-x="8" default-y="25" print-frame="no"><root><root-step>G</root-step></root><kind text="m6">minor-sixth</kind></harmony><note><pitch><step>G</step><octave>4</octave></pitch><duration>768</duration><voice>1</voice><type>quarter</type></note><note><rest/><duration>768</duration><voice>1</voice><type>quarter</type></note><note><rest/><duration>1536</duration><voice>1</voice><type>half</type></note></measure><measure number="36"><note><rest/><duration>3072</duration><voice>1</voice></note><barline location="right"><bar-style>light-light</bar-style></barline></measure><measure number="37"><print new-system="yes"/><attributes><key><fifths>1</fifths><mode>major</mode></key></attributes><direction placement="above"><direction-type><rehearsal>[C]</rehearsal></direction-type></direction><direction placement="above"><direction-type><words>Solo's</words></direction-type></direction><harmony relative-x="8" default-y="25" print-frame="no"><root><root-step>E</root-step></root><kind text="m7">minor-seventh</kind></harmony><note><rest/><duration>3072</duration><voice>1</voice></note></measure><measure number="38"><note><rest/><duration>3072</duration><voice>1</voice></note></measure><measure number="39"><harmony relative-x="8" default-y="25" print-frame="no"><root><root-step>C</root-step></root><kind text="7">dominant</kind></harmony><note><rest/><duration>3072</duration><voice>1</voice></note></measure><measure number="40"><note><rest/><duration>3072</duration><voice>1</voice></note></measure><measure number="41"><print new-system="yes"/><harmony relative-x="8" default-y="25" print-frame="no"><root><root-step>E</root-step></root><kind text="m7">minor-seventh</kind></harmony><note><rest/><duration>3072</duration><voice>1</voice></note></measure><measure number="42"><note><rest/><duration>3072</duration><voice>1</voice></note></measure><measure number="43"><harmony relative-x="8" default-y="25" print-frame="no"><root><root-step>F</root-step></root><kind text="7">dominant</kind></harmony><note><rest/><duration>3072</duration><voice>1</voice></note></measure><measure number="44"><note><rest/><duration>3072</duration><voice>1</voice></note></measure><measure number="45"><print new-system="yes"/><harmony relative-x="8" default-y="25" print-frame="no"><root><root-step>E</root-step></root><kind text="m7">minor-seventh</kind></harmony><note><rest/><duration>3072</duration><voice>1</voice></note></measure><measure number="46"><note><rest/><duration>3072</duration><voice>1</voice></note></measure><measure number="47"><harmony relative-x="8" default-y="25" print-frame="no"><root><root-step>C</root-step></root><kind text="7">dominant</kind></harmony><note><rest/><duration>3072</duration><voice>1</voice></note></measure><measure number="48"><note><rest/><duration>3072</duration><voice>1</voice></note></measure><measure number="49"><print new-system="yes"/><harmony relative-x="8" default-y="25" print-frame="no"><root><root-step>E</root-step></root><kind text="m7">minor-seventh</kind></harmony><note><rest/><duration>3072</duration><voice>1</voice></note></measure><measure number="50"><harmony relative-x="8" default-y="25" print-frame="no"><root><root-step>C</root-step></root><kind text="7">dominant</kind></harmony><note><rest/><duration>1536</duration><voice>1</voice><type>half</type></note><harmony relative-x="8" default-y="25" print-frame="no"><root><root-step>F</root-step><root-alter>1</root-alter></root><kind text="m7">minor-seventh</kind></harmony><note><rest/><duration>768</duration><voice>1</voice><type>quarter</type></note><harmony relative-x="8" default-y="25" print-frame="no"><root><root-step>B</root-step></root><kind text="7">dominant</kind></harmony><note><rest/><duration>768</duration><voice>1</voice><type>quarter</type></note></measure><measure number="51"><harmony relative-x="8" default-y="25" print-frame="no"><root><root-step>E</root-step></root><kind text="m7">minor-seventh</kind></harmony><note><rest/><duration>3072</duration><voice>1</voice></note></measure><measure number="52"><note><rest/><duration>3072</duration><voice>1</voice></note><barline location="right"><bar-style>light-light</bar-style></barline></measure><measure number="53"><print new-system="yes"/><note><rest/><duration>384</duration><voice>1</voice><type>eighth</type></note><direction><direction-type><words relative-x="-6" default-y="20">bass</words></direction-type></direction><note><pitch><step>C</step><alter>1</alter><octave>4</octave></pitch><duration>384</duration><voice>1</voice><type>eighth</type></note><note><pitch><step>D</step><octave>4</octave></pitch><duration>384</duration><voice>1</voice><type>eighth</type><beam number="1">begin</beam></note><note><pitch><step>D</step><alter>1</alter><octave>4</octave></pitch><duration>384</duration><voice>1</voice><type>eighth</type><beam number="1">end</beam></note><harmony relative-x="8" default-y="25" print-frame="no"><root><root-step>E</root-step></root><kind text="m7">minor-seventh</kind></harmony><note><pitch><step>E</step><octave>4</octave></pitch><duration>1536</duration><tie type="start"/><voice>1</voice><type>half</type><notations><tied type="start"/></notations></note></measure><measure number="54"><note><pitch><step>E</step><octave>4</octave></pitch><duration>1536</duration><tie type="stop"/><tie type="start"/><voice>1</voice><type>half</type><notations><tied type="stop"/><tied type="start"/></notations></note><note><pitch><step>E</step><octave>4</octave></pitch><duration>1536</duration><tie type="stop"/><voice>1</voice><type>half</type><notations><tied type="stop"/></notations></note></measure><measure number="55"><note><rest/><duration>384</duration><voice>1</voice><type>eighth</type></note><note><pitch><step>C</step><alter>1</alter><octave>4</octave></pitch><duration>384</duration><voice>1</voice><type>eighth</type></note><note><pitch><step>D</step><octave>4</octave></pitch><duration>384</duration><voice>1</voice><type>eighth</type><beam number="1">begin</beam></note><note><pitch><step>D</step><alter>1</alter><octave>4</octave></pitch><duration>384</duration><voice>1</voice><type>eighth</type><beam number="1">end</beam></note><harmony relative-x="8" default-y="25" print-frame="no"><root><root-step>E</root-step></root><kind text="m7">minor-seventh</kind></harmony><note><pitch><step>E</step><octave>4</octave></pitch><duration>1536</duration><tie type="start"/><voice>1</voice><type>half</type><notations><tied type="start"/></notations></note></measure><measure number="56"><note><pitch><step>E</step><octave>4</octave></pitch><duration>1536</duration><tie type="stop"/><voice>1</voice><type>half</type><notations><tied type="stop"/></notations></note><note><rest/><duration>768</duration><voice>1</voice><type>quarter</type></note><note><rest/><duration>384</duration><voice>1</voice><type>eighth</type></note><direction><direction-type><words relative-x="-6" default-y="20">lead</words></direction-type></direction><note><pitch><step>D</step><alter>1</alter><octave>4</octave></pitch><duration>384</duration><voice>1</voice><type>eighth</type></note><barline location="right"><bar-style>light-light</bar-style></barline></measure><measure number="57"><print new-system="yes"/><direction placement="above"><direction-type><rehearsal>[D]</rehearsal></direction-type></direction><harmony relative-x="8" default-y="25" print-frame="no"><root><root-step>E</root-step></root><kind text="m7">minor-seventh</kind></harmony><note><pitch><step>E</step><octave>4</octave></pitch><duration>768</duration><voice>1</voice><type>quarter</type></note><note><rest/><duration>384</duration><voice>1</voice><type>eighth</type></note><note><pitch><step>F</step><alter>1</alter><octave>4</octave></pitch><duration>384</duration><voice>1</voice><type>eighth</type></note><note><pitch><step>G</step><octave>4</octave></pitch><duration>768</duration><voice>1</voice><type>quarter</type></note><note><rest/><duration>384</duration><voice>1</voice><type>eighth</type></note><note><pitch><step>D</step><alter>1</alter><octave>4</octave></pitch><duration>384</duration><voice>1</voice><type>eighth</type></note></measure><measure number="58"><note><pitch><step>E</step><octave>4</octave></pitch><duration>384</duration><voice>1</voice><type>eighth</type><beam number="1">begin</beam></note><note><pitch><step>F</step><alter>1</alter><octave>4</octave></pitch><duration>384</duration><voice>1</voice><type>eighth</type><beam number="1">continue</beam></note><note><pitch><step>G</step><octave>4</octave></pitch><duration>384</duration><voice>1</voice><type>eighth</type><beam number="1">continue</beam></note><note><pitch><step>C</step><octave>5</octave></pitch><duration>384</duration><voice>1</voice><type>eighth</type><beam number="1">end</beam></note><note><pitch><step>B</step><octave>4</octave></pitch><duration>384</duration><voice>1</voice><type>eighth</type><beam number="1">begin</beam></note><note><pitch><step>E</step><octave>4</octave></pitch><duration>384</duration><voice>1</voice><type>eighth</type><beam number="1">continue</beam></note><note><pitch><step>G</step><octave>4</octave></pitch><duration>384</duration><voice>1</voice><type>eighth</type><beam number="1">continue</beam></note><note><pitch><step>B</step><octave>4</octave></pitch><duration>384</duration><voice>1</voice><type>eighth</type><beam number="1">end</beam></note></measure><measure number="59"><harmony relative-x="8" default-y="25" print-frame="no"><root><root-step>C</root-step></root><kind text="7" parentheses-degrees="yes">dominant</kind><degree><degree-value>11</degree-value><degree-alter>1</degree-alter><degree-type>add</degree-type></degree></harmony><note><pitch><step>B</step><alter>-1</alter><octave>4</octave></pitch><duration>1536</duration><tie type="start"/><voice>1</voice><type>half</type><notations><tied type="start"/><slur type="start" number="1"/></notations></note><note><pitch><step>B</step><alter>-1</alter><octave>4</octave></pitch><duration>256</duration><tie type="stop"/><voice>1</voice><type>eighth</type><time-modification><actual-notes>3</actual-notes><normal-notes>2</normal-notes></time-modification><beam number="1">begin</beam><notations><tied type="stop"/><tuplet type="start" number="1"/></notations></note><note><pitch><step>A</step><octave>4</octave></pitch><duration>256</duration><voice>1</voice><type>eighth</type><time-modification><actual-notes>3</actual-notes><normal-notes>2</normal-notes></time-modification><beam number="1">continue</beam></note><note><pitch><step>G</step><octave>4</octave></pitch><duration>256</duration><voice>1</voice><type>eighth</type><time-modification><actual-notes>3</actual-notes><normal-notes>2</normal-notes></time-modification><beam number="1">end</beam><notations><tuplet type="stop" number="1"/><slur type="stop" number="1"/></notations></note><note><pitch><step>E</step><octave>4</octave></pitch><duration>256</duration><voice>1</voice><type>eighth</type><time-modification><actual-notes>3</actual-notes><normal-notes>2</normal-notes></time-modification><beam number="1">begin</beam><notations><tuplet type="start" number="1"/><slur type="start" number="1"/></notations></note><note><pitch><step>D</step><octave>4</octave></pitch><duration>256</duration><voice>1</voice><type>eighth</type><time-modification><actual-notes>3</actual-notes><normal-notes>2</normal-notes></time-modification><beam number="1">continue</beam></note><note><pitch><step>E</step><octave>4</octave></pitch><duration>256</duration><tie type="start"/><voice>1</voice><type>eighth</type><time-modification><actual-notes>3</actual-notes><normal-notes>2</normal-notes></time-modification><beam number="1">end</beam><notations><tied type="start"/><tuplet type="stop" number="1"/></notations></note></measure><measure number="60"><note><pitch><step>E</step><octave>4</octave></pitch><duration>768</duration><voice>1</voice><type>quarter</type><notations><slur type="stop" number="1"/></notations></note><note><rest/><duration>768</duration><voice>1</voice><type>quarter</type></note><note><rest/><duration>768</duration><voice>1</voice><type>quarter</type></note><note><rest/><duration>384</duration><voice>1</voice><type>eighth</type></note><note><pitch><step>D</step><alter>1</alter><octave>4</octave></pitch><duration>384</duration><voice>1</voice><type>eighth</type></note></measure><measure number="61"><print new-system="yes"/><harmony relative-x="8" default-y="25" print-frame="no"><root><root-step>E</root-step></root><kind text="m7">minor-seventh</kind></harmony><note><pitch><step>E</step><octave>4</octave></pitch><duration>768</duration><voice>1</voice><type>quarter</type></note><note><rest/><duration>384</duration><voice>1</voice><type>eighth</type></note><note><pitch><step>F</step><alter>1</alter><octave>4</octave></pitch><duration>384</duration><voice>1</voice><type>eighth</type></note><note><pitch><step>G</step><octave>4</octave></pitch><duration>768</duration><voice>1</voice><type>quarter</type></note><note><rest/><duration>384</duration><voice>1</voice><type>eighth</type></note><note><pitch><step>D</step><alter>1</alter><octave>4</octave></pitch><duration>384</duration><voice>1</voice><type>eighth</type></note></measure><measure number="62"><note><pitch><step>E</step><octave>4</octave></pitch><duration>384</duration><voice>1</voice><type>eighth</type><beam number="1">begin</beam></note><note><pitch><step>F</step><alter>1</alter><octave>4</octave></pitch><duration>384</duration><voice>1</voice><type>eighth</type><beam number="1">continue</beam></note><note><pitch><step>G</step><octave>4</octave></pitch><duration>384</duration><voice>1</voice><type>eighth</type><beam number="1">continue</beam></note><note><pitch><step>C</step><octave>5</octave></pitch><duration>384</duration><voice>1</voice><type>eighth</type><beam number="1">end</beam></note><note><pitch><step>B</step><octave>4</octave></pitch><duration>384</duration><voice>1</voice><type>eighth</type><beam number="1">begin</beam></note><note><pitch><step>G</step><octave>4</octave></pitch><duration>384</duration><voice>1</voice><type>eighth</type><beam number="1">continue</beam></note><note><pitch><step>B</step><octave>4</octave></pitch><duration>384</duration><voice>1</voice><type>eighth</type><beam number="1">continue</beam></note><note><pitch><step>E</step><octave>5</octave></pitch><duration>384</duration><voice>1</voice><type>eighth</type><beam number="1">end</beam></note></measure><measure number="63"><harmony relative-x="8" default-y="25" print-frame="no"><root><root-step>F</root-step></root><kind text="7" parentheses-degrees="yes">dominant</kind><degree><degree-value>11</degree-value><degree-alter>1</degree-alter><degree-type>add</degree-type></degree></harmony><note><pitch><step>D</step><alter>1</alter><octave>5</octave></pitch><duration>3072</duration><tie type="start"/><voice>1</voice><type>whole</type><notations><tied type="start"/></notations></note></measure><measure number="64"><note><pitch><step>D</step><alter>1</alter><octave>5</octave></pitch><duration>1536</duration><tie type="stop"/><voice>1</voice><type>half</type><notations><tied type="stop"/></notations></note><note><rest/><duration>768</duration><voice>1</voice><type>quarter</type></note><note><rest/><duration>384</duration><voice>1</voice><type>eighth</type></note><note><pitch><step>D</step><alter>1</alter><octave>4</octave></pitch><duration>384</duration><voice>1</voice><type>eighth</type></note></measure><measure number="65"><print new-system="yes"/><harmony relative-x="8" default-y="25" print-frame="no"><root><root-step>E</root-step></root><kind text="m7">minor-seventh</kind></harmony><note><pitch><step>E</step><octave>4</octave></pitch><duration>768</duration><voice>1</voice><type>quarter</type></note><note><rest/><duration>384</duration><voice>1</voice><type>eighth</type></note><note><pitch><step>F</step><alter>1</alter><octave>4</octave></pitch><duration>384</duration><voice>1</voice><type>eighth</type></note><note><pitch><step>G</step><octave>4</octave></pitch><duration>768</duration><voice>1</voice><type>quarter</type></note><note><rest/><duration>384</duration><voice>1</voice><type>eighth</type></note><note><pitch><step>D</step><alter>1</alter><octave>4</octave></pitch><duration>384</duration><voice>1</voice><type>eighth</type></note></measure><measure number="66"><note><pitch><step>E</step><octave>4</octave></pitch><duration>384</duration><voice>1</voice><type>eighth</type><beam number="1">begin</beam></note><note><pitch><step>F</step><alter>1</alter><octave>4</octave></pitch><duration>384</duration><voice>1</voice><type>eighth</type><beam number="1">continue</beam></note><note><pitch><step>G</step><octave>4</octave></pitch><duration>384</duration><voice>1</voice><type>eighth</type><beam number="1">continue</beam></note><note><pitch><step>C</step><octave>5</octave></pitch><duration>384</duration><voice>1</voice><type>eighth</type><beam number="1">end</beam></note><note><pitch><step>B</step><octave>4</octave></pitch><duration>384</duration><voice>1</voice><type>eighth</type><beam number="1">begin</beam></note><note><pitch><step>E</step><octave>4</octave></pitch><duration>384</duration><voice>1</voice><type>eighth</type><beam number="1">continue</beam></note><note><pitch><step>G</step><octave>4</octave></pitch><duration>384</duration><voice>1</voice><type>eighth</type><beam number="1">continue</beam></note><note><pitch><step>B</step><octave>4</octave></pitch><duration>384</duration><voice>1</voice><type>eighth</type><beam number="1">end</beam></note></measure><measure number="67"><harmony relative-x="8" default-y="25" print-frame="no"><root><root-step>C</root-step></root><kind text="7" parentheses-degrees="yes">dominant</kind><degree><degree-value>11</degree-value><degree-alter>1</degree-alter><degree-type>add</degree-type></degree></harmony><note><pitch><step>B</step><alter>-1</alter><octave>4</octave></pitch><duration>1536</duration><tie type="start"/><voice>1</voice><type>half</type><notations><tied type="start"/><slur type="start" number="1"/></notations></note><note><pitch><step>B</step><alter>-1</alter><octave>4</octave></pitch><duration>256</duration><tie type="stop"/><voice>1</voice><type>eighth</type><time-modification><actual-notes>3</actual-notes><normal-notes>2</normal-notes></time-modification><beam number="1">begin</beam><notations><tied type="stop"/><tuplet type="start" number="1"/></notations></note><note><pitch><step>A</step><octave>4</octave></pitch><duration>256</duration><voice>1</voice><type>eighth</type><time-modification><actual-notes>3</actual-notes><normal-notes>2</normal-notes></time-modification><beam number="1">continue</beam></note><note><pitch><step>G</step><octave>4</octave></pitch><duration>256</duration><voice>1</voice><type>eighth</type><time-modification><actual-notes>3</actual-notes><normal-notes>2</normal-notes></time-modification><beam number="1">end</beam><notations><tuplet type="stop" number="1"/><slur type="stop" number="1"/></notations></note><note><pitch><step>E</step><octave>4</octave></pitch><duration>256</duration><voice>1</voice><type>eighth</type><time-modification><actual-notes>3</actual-notes><normal-notes>2</normal-notes></time-modification><beam number="1">begin</beam><notations><tuplet type="start" number="1"/><slur type="start" number="1"/></notations></note><note><pitch><step>D</step><octave>4</octave></pitch><duration>256</duration><voice>1</voice><type>eighth</type><time-modification><actual-notes>3</actual-notes><normal-notes>2</normal-notes></time-modification><beam number="1">continue</beam></note><note><pitch><step>E</step><octave>4</octave></pitch><duration>256</duration><tie type="start"/><voice>1</voice><type>eighth</type><time-modification><actual-notes>3</actual-notes><normal-notes>2</normal-notes></time-modification><beam number="1">end</beam><notations><tied type="start"/><tuplet type="stop" number="1"/></notations></note></measure><measure number="68"><note><pitch><step>E</step><octave>4</octave></pitch><duration>768</duration><voice>1</voice><type>quarter</type><notations><slur type="stop" number="1"/></notations></note><note><rest/><duration>768</duration><voice>1</voice><type>quarter</type></note><note><rest/><duration>384</duration><voice>1</voice><type>eighth</type></note><direction><direction-type><words relative-x="-6" default-y="20">bass</words></direction-type></direction><note><pitch><step>C</step><alter>1</alter><octave>4</octave></pitch><duration>384</duration><voice>1</voice><type>eighth</type></note><note><pitch><step>D</step><octave>4</octave></pitch><duration>384</duration><voice>1</voice><type>eighth</type><beam number="1">begin</beam></note><note><pitch><step>D</step><alter>1</alter><octave>4</octave></pitch><duration>384</duration><voice>1</voice><type>eighth</type><beam number="1">end</beam></note></measure><measure number="69"><print new-system="yes"/><note><pitch><step>E</step><octave>4</octave></pitch><duration>384</duration><voice>1</voice><type>eighth</type></note><note><rest/><duration>384</duration><voice>1</voice><type>eighth</type></note><direction><direction-type><words relative-x="-6" default-y="28">lead</words></direction-type></direction><note><pitch><step>E</step><octave>5</octave></pitch><duration>384</duration><voice>1</voice><type>eighth</type><beam number="1">begin</beam></note><note><pitch><step>D</step><octave>5</octave></pitch><duration>384</duration><voice>1</voice><type>eighth</type><beam number="1">end</beam></note><note><pitch><step>B</step><octave>4</octave></pitch><duration>384</duration><voice>1</voice><type>eighth</type><beam number="1">begin</beam></note><note><pitch><step>A</step><octave>4</octave></pitch><duration>384</duration><voice>1</voice><type>eighth</type><beam number="1">continue</beam></note><note><pitch><step>G</step><octave>4</octave></pitch><duration>384</duration><voice>1</voice><type>eighth</type><beam number="1">continue</beam></note><note><pitch><step>E</step><octave>4</octave></pitch><duration>384</duration><voice>1</voice><type>eighth</type><beam number="1">end</beam></note></measure><measure number="70"><note><pitch><step>B</step><alter>-1</alter><octave>4</octave></pitch><duration>256</duration><voice>1</voice><type>eighth</type><time-modification><actual-notes>3</actual-notes><normal-notes>2</normal-notes></time-modification><beam number="1">begin</beam><notations><tuplet type="start" number="1"/><slur type="start" number="1"/></notations></note><note><pitch><step>A</step><octave>4</octave></pitch><duration>512</duration><voice>1</voice><type>quarter</type><time-modification><actual-notes>3</actual-notes><normal-notes>2</normal-notes><normal-type>eighth</normal-type></time-modification><notations><tuplet type="stop" number="1"/><slur type="stop" number="1"/></notations></note><note><pitch><step>B</step><alter>-1</alter><octave>4</octave></pitch><duration>256</duration><voice>1</voice><type>eighth</type><time-modification><actual-notes>3</actual-notes><normal-notes>2</normal-notes></time-modification><beam number="1">begin</beam><notations><tuplet type="start" number="1"/><slur type="start" number="1"/></notations></note><note><pitch><step>A</step><octave>4</octave></pitch><duration>512</duration><voice>1</voice><type>quarter</type><time-modification><actual-notes>3</actual-notes><normal-notes>2</normal-notes><normal-type>eighth</normal-type></time-modification><notations><tuplet type="stop" number="1"/><slur type="stop" number="1"/></notations></note><note><pitch><step>B</step><alter>-1</alter><octave>4</octave></pitch><duration>256</duration><voice>1</voice><type>eighth</type><time-modification><actual-notes>3</actual-notes><normal-notes>2</normal-notes></time-modification><beam number="1">begin</beam><notations><tuplet type="start" number="1"/><slur type="start" number="1"/></notations></note><note><pitch><step>A</step><octave>4</octave></pitch><duration>512</duration><voice>1</voice><type>quarter</type><time-modification><actual-notes>3</actual-notes><normal-notes>2</normal-notes><normal-type>eighth</normal-type></time-modification><notations><tuplet type="stop" number="1"/><slur type="stop" number="1"/></notations></note><note><pitch><step>B</step><alter>-1</alter><octave>4</octave></pitch><duration>256</duration><voice>1</voice><type>eighth</type><time-modification><actual-notes>3</actual-notes><normal-notes>2</normal-notes></time-modification><beam number="1">begin</beam><notations><tuplet type="start" number="1"/><slur type="start" number="1"/></notations></note><note><pitch><step>A</step><octave>4</octave></pitch><duration>512</duration><voice>1</voice><type>quarter</type><time-modification><actual-notes>3</actual-notes><normal-notes>2</normal-notes><normal-type>eighth</normal-type></time-modification><notations><tuplet type="stop" number="1"/><slur type="stop" number="1"/></notations></note></measure><measure number="71"><harmony relative-x="8" default-y="25" print-frame="no"><root><root-step>E</root-step></root><kind text="m7">minor-seventh</kind></harmony><note><pitch><step>G</step><octave>4</octave></pitch><duration>256</duration><voice>1</voice><type>eighth</type><time-modification><actual-notes>3</actual-notes><normal-notes>2</normal-notes></time-modification><beam number="1">begin</beam><notations><tuplet type="start" number="1"/><slur type="start" number="1"/></notations></note><note><pitch><step>E</step><octave>4</octave></pitch><duration>256</duration><voice>1</voice><type>eighth</type><time-modification><actual-notes>3</actual-notes><normal-notes>2</normal-notes></time-modification><beam number="1">continue</beam></note><note><pitch><step>D</step><octave>4</octave></pitch><duration>256</duration><voice>1</voice><type>eighth</type><time-modification><actual-notes>3</actual-notes><normal-notes>2</normal-notes></time-modification><beam number="1">end</beam><notations><tuplet type="stop" number="1"/><slur type="stop" number="1"/></notations></note><note><pitch><step>E</step><octave>4</octave></pitch><duration>384</duration><voice>1</voice><type>eighth</type><beam number="1">begin</beam></note><note><pitch><step>E</step><octave>4</octave></pitch><duration>384</duration><tie type="start"/><voice>1</voice><type>eighth</type><beam number="1">end</beam><notations><tied type="start"/></notations></note><note><pitch><step>E</step><octave>4</octave></pitch><duration>1536</duration><tie type="stop"/><voice>1</voice><type>half</type><notations><tied type="stop"/></notations></note></measure><measure number="72"><harmony relative-x="8" default-y="25" print-frame="no"><root><root-step>C</root-step></root><kind text="7">dominant</kind></harmony><note><pitch><step>G</step><octave>4</octave></pitch><duration>256</duration><voice>1</voice><type>eighth</type><time-modification><actual-notes>3</actual-notes><normal-notes>2</normal-notes></time-modification><beam number="1">begin</beam><notations><tuplet type="start" number="1"/><slur type="start" number="1"/></notations></note><note><pitch><step>E</step><octave>4</octave></pitch><duration>256</duration><voice>1</voice><type>eighth</type><time-modification><actual-notes>3</actual-notes><normal-notes>2</normal-notes></time-modification><beam number="1">continue</beam></note><note><pitch><step>D</step><octave>4</octave></pitch><duration>256</duration><voice>1</voice><type>eighth</type><time-modification><actual-notes>3</actual-notes><normal-notes>2</normal-notes></time-modification><beam number="1">end</beam><notations><tuplet type="stop" number="1"/><slur type="stop" number="1"/></notations></note><note><pitch><step>E</step><octave>4</octave></pitch><duration>384</duration><voice>1</voice><type>eighth</type><beam number="1">begin</beam></note><note><pitch><step>E</step><octave>4</octave></pitch><duration>384</duration><tie type="start"/><voice>1</voice><type>eighth</type><beam number="1">end</beam><notations><tied type="start"/></notations></note><note><pitch><step>E</step><octave>4</octave></pitch><duration>1536</duration><tie type="stop"/><voice>1</voice><type>half</type><notations><tied type="stop"/></notations></note></measure><measure number="73"><print new-system="yes"/><harmony relative-x="8" default-y="25" print-frame="no"><root><root-step>E</root-step></root><kind text="m7">minor-seventh</kind></harmony><note><pitch><step>G</step><octave>4</octave></pitch><duration>256</duration><voice>1</voice><type>eighth</type><time-modification><actual-notes>3</actual-notes><normal-notes>2</normal-notes></time-modification><beam number="1">begin</beam><notations><tuplet type="start" number="1"/><slur type="start" number="1"/></notations></note><note><pitch><step>E</step><octave>4</octave></pitch><duration>256</duration><voice>1</voice><type>eighth</type><time-modification><actual-notes>3</actual-notes><normal-notes>2</normal-notes></time-modification><beam number="1">continue</beam></note><note><pitch><step>D</step><octave>4</octave></pitch><duration>256</duration><voice>1</voice><type>eighth</type><time-modification><actual-notes>3</actual-notes><normal-notes>2</normal-notes></time-modification><beam number="1">end</beam><notations><tuplet type="stop" number="1"/><slur type="stop" number="1"/></notations></note><note><pitch><step>E</step><octave>4</octave></pitch><duration>384</duration><voice>1</voice><type>eighth</type><beam number="1">begin</beam></note><note><pitch><step>E</step><octave>4</octave></pitch><duration>384</duration><tie type="start"/><voice>1</voice><type>eighth</type><beam number="1">end</beam><notations><tied type="start"/></notations></note><note><pitch><step>E</step><octave>4</octave></pitch><duration>1536</duration><tie type="stop"/><tie type="start"/><voice>1</voice><type>half</type><notations><tied type="stop"/><tied type="start"/></notations></note></measure><measure number="74"><note><pitch><step>E</step><octave>4</octave></pitch><duration>3072</duration><tie type="stop"/><voice>1</voice><type>whole</type><notations><tied type="stop"/><fermata/></notations></note><barline location="right"><bar-style>light-heavy</bar-style></barline></measure></part></score-partwise>