<score-partwise version="2.0"><work><work-number/><work-title/></work><movement-number/><movement-title>Quizás, Quizás, Quizás</movement-title><identification><creator type="composer">Osvaldo Farres</creator><creator type="poet">Osvaldo Farres</creator><rights>All Rights Reserved</rights><encoding><software>MuseScore 0.9.4</software><encoding-date>2009-01-27</encoding-date><software>ProxyMusic 2.0 c</software></encoding><source>http://wikifonia.org/node/1182/revisions/1562/view</source></identification><part-list><score-part id="P1"><part-name/><score-instrument id="P1-I3"><instrument-name/></score-instrument><midi-instrument id="P1-I3"><midi-channel>1</midi-channel><midi-program>0</midi-program></midi-instrument></score-part></part-list><part id="P1"><measure number="1"><attributes><divisions>480</divisions><key><fifths>0</fifths><mode>major</mode></key><time symbol="cut"><beats>2</beats><beat-type>2</beat-type></time><clef><sign>G</sign><line>2</line></clef></attributes><harmony print-frame="no"><root><root-step>C</root-step></root><kind text="m">minor</kind></harmony><note><rest/><duration>960</duration><voice>1</voice><type>half</type></note><harmony print-frame="no"><root><root-step>F</root-step></root><kind text="7">dominant</kind></harmony><note><rest/><duration>480</duration><voice>1</voice><type>quarter</type></note><harmony print-frame="no"><root><root-step>F</root-step><root-alter>1</root-alter></root><kind text="dim7">diminished-seventh</kind></harmony><note><rest/><duration>480</duration><voice>1</voice><type>quarter</type></note></measure><measure number="2"><harmony print-frame="no"><root><root-step>C</root-step></root><kind text="m">minor</kind></harmony><note><rest/><duration>1920</duration><voice>1</voice></note></measure><measure number="3"><harmony print-frame="no"><root><root-step>D</root-step></root><kind text="m">minor</kind></harmony><note><rest/><duration>960</duration><voice>1</voice><type>half</type></note><harmony print-frame="no"><root><root-step>B</root-step></root><kind text="m7b5">half-diminished</kind></harmony><note><rest/><duration>960</duration><voice>1</voice><type>half</type></note></measure><measure number="4"><harmony print-frame="no"><root><root-step>E</root-step></root><kind text="7">dominant</kind></harmony><note><rest/><duration>480</duration><voice>1</voice><type>quarter</type></note><note><rest/><duration>240</duration><voice>1</voice><type>eighth</type></note><note><pitch><step>E</step><octave>3</octave></pitch><duration>240</duration><voice>1</voice><type>eighth</type><stem>up</stem><lyric number="1"><syllabic>begin</syllabic><text>Siem</text></lyric></note><note><pitch><step>F</step><alter>1</alter><octave>3</octave></pitch><duration>240</duration><voice>1</voice><type>eighth</type><accidental>sharp</accidental><stem>up</stem><beam number="1">begin</beam><lyric number="1"><syllabic>end</syllabic><text>-pre</text></lyric></note><note><pitch><step>G</step><alter>1</alter><octave>3</octave></pitch><duration>240</duration><voice>1</voice><type>eighth</type><accidental>sharp</accidental><stem>up</stem><beam number="1">continue</beam><lyric number="1"><syllabic>single</syllabic><text>que</text></lyric></note><note><pitch><step>A</step><octave>3</octave></pitch><duration>240</duration><voice>1</voice><type>eighth</type><stem>up</stem><beam number="1">continue</beam><lyric number="1"><syllabic>single</syllabic><text>te</text></lyric></note><note><pitch><step>B</step><octave>3</octave></pitch><duration>240</duration><voice>1</voice><type>eighth</type><stem>up</stem><beam number="1">end</beam><lyric number="1"><syllabic>begin</syllabic><text>pre</text></lyric></note></measure><measure number="5"><print new-system="yes"/><barline location="left"><bar-style>heavy-light</bar-style><repeat direction="forward"/></barline><harmony print-frame="no"><root><root-step>A</root-step></root><kind text="m">minor</kind></harmony><note><pitch><step>C</step><octave>4</octave></pitch><duration>720</duration><voice>1</voice><type>quarter</type><dot/><stem>up</stem><lyric number="1"><syllabic>middle</syllabic><text>gun</text></lyric></note><note><pitch><step>A</step><octave>3</octave></pitch><duration>240</duration><tie type="start"/><voice>1</voice><type>eighth</type><stem>up</stem><notations><tied type="start"/></notations><lyric number="1"><syllabic>end</syllabic><text>to</text><extend/></lyric></note><note><pitch><step>A</step><octave>3</octave></pitch><duration>480</duration><tie type="stop"/><voice>1</voice><type>quarter</type><stem>up</stem><notations><tied type="stop"/></notations></note><note><pitch><step>A</step><octave>3</octave></pitch><duration>480</duration><voice>1</voice><type>quarter</type><stem>up</stem><lyric number="1"><syllabic>single</syllabic><text>que</text></lyric></note></measure><measure number="6"><harmony print-frame="no"><root><root-step>D</root-step></root><kind text="m">minor</kind></harmony><note><pitch><step>D</step><octave>4</octave></pitch><duration>960</duration><voice>1</voice><type>half</type><stem>up</stem><lyric number="1"><syllabic>begin</syllabic><text>cuan</text></lyric></note><harmony print-frame="no"><root><root-step>E</root-step></root><kind text="7">dominant</kind></harmony><note><pitch><step>B</step><octave>3</octave></pitch><duration>320</duration><voice>1</voice><type>quarter</type><time-modification><actual-notes>3</actual-notes><normal-notes>2</normal-notes></time-modification><stem>up</stem><notations><tuplet type="start" bracket="yes"/></notations><lyric number="1"><syllabic>end</syllabic><text>do</text></lyric></note><note><pitch><step>D</step><octave>4</octave></pitch><duration>320</duration><voice>1</voice><type>quarter</type><time-modification><actual-notes>3</actual-notes><normal-notes>2</normal-notes></time-modification><stem>up</stem><lyric number="1"><syllabic>begin</syllabic><text>co</text></lyric></note><note><pitch><step>B</step><octave>3</octave></pitch><duration>320</duration><voice>1</voice><type>quarter</type><time-modification><actual-notes>3</actual-notes><normal-notes>2</normal-notes></time-modification><stem>up</stem><notations><tuplet type="stop"/></notations><lyric number="1"><syllabic>end</syllabic><text>mo y</text></lyric></note></measure><measure number="7"><harmony print-frame="no"><root><root-step>A</root-step></root><kind text="m">minor</kind></harmony><note><pitch><step>C</step><octave>4</octave></pitch><duration>720</duration><voice>1</voice><type>quarter</type><dot/><stem>up</stem><lyric number="1"><syllabic>begin</syllabic><text>don</text></lyric></note><note><pitch><step>A</step><octave>3</octave></pitch><duration>240</duration><tie type="start"/><voice>1</voice><type>eighth</type><stem>up</stem><notations><tied type="start"/></notations><lyric number="1"><syllabic>end</syllabic><text>de,</text><extend/></lyric></note><note><pitch><step>A</step><octave>3</octave></pitch><duration>480</duration><tie type="stop"/><voice>1</voice><type>quarter</type><stem>up</stem><notations><tied type="stop"/></notations></note><note><pitch><step>A</step><octave>3</octave></pitch><duration>480</duration><voice>1</voice><type>quarter</type><stem>up</stem><lyric number="1"><syllabic>single</syllabic><text>tu</text></lyric></note></measure><measure number="8"><harmony print-frame="no"><root><root-step>D</root-step></root><kind text="m">minor</kind></harmony><note><pitch><step>D</step><octave>4</octave></pitch><duration>960</duration><voice>1</voice><type>half</type><stem>up</stem><lyric number="1"><syllabic>begin</syllabic><text>siem</text></lyric></note><harmony print-frame="no"><root><root-step>E</root-step></root><kind text="7">dominant</kind></harmony><note><pitch><step>B</step><octave>3</octave></pitch><duration>320</duration><voice>1</voice><type>quarter</type><time-modification><actual-notes>3</actual-notes><normal-notes>2</normal-notes></time-modification><stem>up</stem><notations><tuplet type="start" bracket="yes"/></notations><lyric number="1"><syllabic>end</syllabic><text>pre</text></lyric></note><note><pitch><step>D</step><octave>4</octave></pitch><duration>320</duration><voice>1</voice><type>quarter</type><time-modification><actual-notes>3</actual-notes><normal-notes>2</normal-notes></time-modification><stem>up</stem><lyric number="1"><syllabic>single</syllabic><text>me</text></lyric></note><note><pitch><step>B</step><octave>3</octave></pitch><duration>320</duration><voice>1</voice><type>quarter</type><time-modification><actual-notes>3</actual-notes><normal-notes>2</normal-notes></time-modification><stem>up</stem><notations><tuplet type="stop"/></notations><lyric number="1"><syllabic>begin</syllabic><text>res</text></lyric></note></measure><measure number="9"><print new-system="yes"/><harmony print-frame="no"><root><root-step>A</root-step></root><kind text="m">minor</kind></harmony><note><pitch><step>E</step><octave>4</octave></pitch><duration>720</duration><voice>1</voice><type>quarter</type><dot/><stem>up</stem><lyric number="1"><syllabic>middle</syllabic><text>pon</text></lyric></note><note><pitch><step>C</step><octave>4</octave></pitch><duration>240</duration><tie type="start"/><voice>1</voice><type>eighth</type><stem>up</stem><notations><tied type="start"/></notations><lyric number="1"><syllabic>end</syllabic><text>des</text><extend/></lyric></note><note><pitch><step>C</step><octave>4</octave></pitch><duration>480</duration><tie type="stop"/><voice>1</voice><type>quarter</type><stem>up</stem><notations><tied type="stop"/></notations></note><harmony print-frame="no"><root><root-step>E</root-step></root><kind text="7">dominant</kind></harmony><note><pitch><step>E</step><octave>3</octave></pitch><duration>480</duration><voice>1</voice><type>quarter</type><stem>up</stem><lyric number="1"><syllabic>begin</syllabic><text>"qui</text></lyric></note></measure><measure number="10"><harmony print-frame="no"><root><root-step>A</root-step></root><kind text="m">minor</kind></harmony><note><pitch><step>C</step><octave>4</octave></pitch><duration>480</duration><voice>1</voice><type>quarter</type><stem>up</stem><lyric number="1"><syllabic>single</syllabic><text>zás,</text></lyric></note><note><rest/><duration>240</duration><voice>1</voice><type>eighth</type></note><note><pitch><step>A</step><octave>3</octave></pitch><duration>240</duration><voice>1</voice><type>eighth</type><stem>up</stem><lyric number="1"><syllabic>begin</syllabic><text>qui</text></lyric></note><harmony print-frame="no"><root><root-step>E</root-step></root><kind text="7">dominant</kind></harmony><note><pitch><step>B</step><octave>3</octave></pitch><duration>480</duration><voice>1</voice><type>quarter</type><stem>up</stem><lyric number="1"><syllabic>end</syllabic><text>zás,</text></lyric></note><note><rest/><duration>240</duration><voice>1</voice><type>eighth</type></note><note><pitch><step>G</step><alter>1</alter><octave>3</octave></pitch><duration>240</duration><voice>1</voice><type>eighth</type><accidental>sharp</accidental><stem>up</stem><lyric number="1"><syllabic>begin</syllabic><text>qui</text></lyric></note></measure><measure number="11"><harmony print-frame="no"><root><root-step>A</root-step></root><kind text="m">minor</kind></harmony><harmony relative-x="81.90" print-frame="no"><root><root-step>D</root-step></root><kind text="m6">minor-sixth</kind></harmony><note><pitch><step>A</step><octave>3</octave></pitch><duration>1920</duration><tie type="start"/><voice>1</voice><type>whole</type><notations><tied type="start"/></notations><lyric number="1"><syllabic>end</syllabic><text>zás."</text><extend/></lyric></note></measure><measure number="12"><harmony print-frame="no"><root><root-step>A</root-step></root><kind text="m">minor</kind></harmony><note><pitch><step>A</step><octave>3</octave></pitch><duration>480</duration><tie type="stop"/><voice>1</voice><type>quarter</type><stem>up</stem><notations><tied type="stop"/></notations></note><note><rest/><duration>240</duration><voice>1</voice><type>eighth</type></note><note><pitch><step>E</step><octave>3</octave></pitch><duration>240</duration><voice>1</voice><type>eighth</type><stem>up</stem><lyric number="1"><syllabic>begin</syllabic><text>Y a</text></lyric></note><harmony print-frame="no"><root><root-step>E</root-step></root><kind text="7">dominant</kind></harmony><note><pitch><step>F</step><alter>1</alter><octave>3</octave></pitch><duration>240</duration><voice>1</voice><type>eighth</type><accidental>sharp</accidental><stem>up</stem><beam number="1">begin</beam><lyric number="1"><syllabic>end</syllabic><text>si</text></lyric></note><note><pitch><step>G</step><alter>1</alter><octave>3</octave></pitch><duration>240</duration><voice>1</voice><type>eighth</type><accidental>sharp</accidental><stem>up</stem><beam number="1">continue</beam><lyric number="1"><syllabic>begin</syllabic><text>pa</text></lyric></note><note><pitch><step>A</step><octave>3</octave></pitch><duration>240</duration><voice>1</voice><type>eighth</type><stem>up</stem><beam number="1">continue</beam><lyric number="1"><syllabic>end</syllabic><text>san</text></lyric></note><note><pitch><step>B</step><octave>3</octave></pitch><duration>240</duration><voice>1</voice><type>eighth</type><stem>up</stem><beam number="1">end</beam><lyric number="1"><syllabic>single</syllabic><text>los</text></lyric></note></measure><measure number="13"><print new-system="yes"/><harmony print-frame="no"><root><root-step>A</root-step></root><kind text="m">minor</kind></harmony><note><pitch><step>C</step><octave>4</octave></pitch><duration>720</duration><voice>1</voice><type>quarter</type><dot/><stem>up</stem><lyric number="1"><syllabic>begin</syllabic><text>dí</text></lyric></note><note><pitch><step>A</step><octave>3</octave></pitch><duration>240</duration><tie type="start"/><voice>1</voice><type>eighth</type><stem>up</stem><notations><tied type="start"/></notations><lyric number="1"><syllabic>end</syllabic><text>as</text><extend/></lyric></note><note><pitch><step>A</step><octave>3</octave></pitch><duration>480</duration><tie type="stop"/><voice>1</voice><type>quarter</type><stem>up</stem><notations><tied type="stop"/></notations></note><note><pitch><step>A</step><octave>3</octave></pitch><duration>480</duration><voice>1</voice><type>quarter</type><stem>up</stem><lyric number="1"><syllabic>single</syllabic><text>y</text></lyric></note></measure><measure number="14"><harmony print-frame="no"><root><root-step>D</root-step></root><kind text="m">minor</kind></harmony><note><pitch><step>D</step><octave>4</octave></pitch><duration>960</duration><voice>1</voice><type>half</type><stem>up</stem><lyric number="1"><syllabic>single</syllabic><text>yo</text></lyric></note><harmony print-frame="no"><root><root-step>E</root-step></root><kind text="7">dominant</kind></harmony><note><pitch><step>B</step><octave>3</octave></pitch><duration>320</duration><voice>1</voice><type>quarter</type><time-modification><actual-notes>3</actual-notes><normal-notes>2</normal-notes></time-modification><stem>up</stem><notations><tuplet type="start" bracket="yes"/></notations><lyric number="1"><syllabic>begin</syllabic><text>de</text></lyric></note><note><pitch><step>D</step><octave>4</octave></pitch><duration>320</duration><voice>1</voice><type>quarter</type><time-modification><actual-notes>3</actual-notes><normal-notes>2</normal-notes></time-modification><stem>up</stem><lyric number="1"><syllabic>middle</syllabic><text>ses</text></lyric></note><note><pitch><step>B</step><octave>3</octave></pitch><duration>320</duration><voice>1</voice><type>quarter</type><time-modification><actual-notes>3</actual-notes><normal-notes>2</normal-notes></time-modification><stem>up</stem><notations><tuplet type="stop"/></notations><lyric number="1"><syllabic>middle</syllabic><text>pe</text></lyric></note></measure><measure number="15"><harmony print-frame="no"><root><root-step>A</root-step></root><kind text="m">minor</kind></harmony><note><pitch><step>C</step><octave>4</octave></pitch><duration>720</duration><voice>1</voice><type>quarter</type><dot/><stem>up</stem><lyric number="1"><syllabic>middle</syllabic><text>ra</text></lyric></note><note><pitch><step>A</step><octave>3</octave></pitch><duration>240</duration><tie type="start"/><voice>1</voice><type>eighth</type><stem>up</stem><notations><tied type="start"/></notations><lyric number="1"><syllabic>end</syllabic><text>do</text><extend/></lyric></note><note><pitch><step>A</step><octave>3</octave></pitch><duration>480</duration><tie type="stop"/><voice>1</voice><type>quarter</type><stem>up</stem><notations><tied type="stop"/></notations></note><note><pitch><step>A</step><octave>3</octave></pitch><duration>480</duration><voice>1</voice><type>quarter</type><stem>up</stem><lyric number="1"><syllabic>single</syllabic><text>y</text></lyric></note></measure><measure number="16"><harmony print-frame="no"><root><root-step>D</root-step></root><kind text="m">minor</kind></harmony><note><pitch><step>D</step><octave>4</octave></pitch><duration>960</duration><voice>1</voice><type>half</type><stem>up</stem><lyric number="1"><syllabic>single</syllabic><text>tú,</text></lyric></note><harmony print-frame="no"><root><root-step>E</root-step></root><kind text="7">dominant</kind></harmony><note><pitch><step>B</step><octave>3</octave></pitch><duration>320</duration><voice>1</voice><type>quarter</type><time-modification><actual-notes>3</actual-notes><normal-notes>2</normal-notes></time-modification><stem>up</stem><notations><tuplet type="start" bracket="yes"/></notations><lyric number="1"><syllabic>single</syllabic><text>tú</text></lyric></note><note><pitch><step>D</step><octave>4</octave></pitch><duration>320</duration><voice>1</voice><type>quarter</type><time-modification><actual-notes>3</actual-notes><normal-notes>2</normal-notes></time-modification><stem>up</stem><lyric number="1"><syllabic>begin</syllabic><text>con</text></lyric></note><note><pitch><step>B</step><octave>3</octave></pitch><duration>320</duration><voice>1</voice><type>quarter</type><time-modification><actual-notes>3</actual-notes><normal-notes>2</normal-notes></time-modification><stem>up</stem><notations><tuplet type="stop"/></notations><lyric number="1"><syllabic>middle</syllabic><text>tes</text></lyric></note></measure><measure number="17"><print new-system="yes"/><harmony print-frame="no"><root><root-step>A</root-step></root><kind text="m">minor</kind></harmony><note><pitch><step>E</step><octave>4</octave></pitch><duration>720</duration><voice>1</voice><type>quarter</type><dot/><stem>up</stem><lyric number="1"><syllabic>middle</syllabic><text>tan</text></lyric></note><note><pitch><step>C</step><octave>4</octave></pitch><duration>240</duration><tie type="start"/><voice>1</voice><type>eighth</type><stem>up</stem><notations><tied type="start"/></notations><lyric number="1"><syllabic>end</syllabic><text>do</text><extend/></lyric></note><note><pitch><step>C</step><octave>4</octave></pitch><duration>480</duration><tie type="stop"/><voice>1</voice><type>quarter</type><stem>up</stem><notations><tied type="stop"/></notations></note><harmony print-frame="no"><root><root-step>E</root-step></root><kind text="7">dominant</kind></harmony><note><pitch><step>E</step><octave>3</octave></pitch><duration>480</duration><voice>1</voice><type>quarter</type><stem>up</stem><lyric number="1"><syllabic>begin</syllabic><text>"qui</text></lyric></note></measure><measure number="18"><harmony print-frame="no"><root><root-step>A</root-step></root><kind text="m">minor</kind></harmony><note><pitch><step>C</step><octave>4</octave></pitch><duration>480</duration><voice>1</voice><type>quarter</type><stem>up</stem><lyric number="1"><syllabic>end</syllabic><text>zás,</text></lyric></note><note><rest/><duration>240</duration><voice>1</voice><type>eighth</type></note><note><pitch><step>A</step><octave>3</octave></pitch><duration>240</duration><voice>1</voice><type>eighth</type><stem>up</stem><lyric number="1"><syllabic>begin</syllabic><text>qui</text></lyric></note><harmony print-frame="no"><root><root-step>E</root-step></root><kind text="7">dominant</kind></harmony><note><pitch><step>B</step><octave>3</octave></pitch><duration>480</duration><voice>1</voice><type>quarter</type><stem>up</stem><lyric number="1"><syllabic>end</syllabic><text>zás"</text></lyric></note><note><rest/><duration>240</duration><voice>1</voice><type>eighth</type></note><note><pitch><step>G</step><alter>1</alter><octave>3</octave></pitch><duration>240</duration><voice>1</voice><type>eighth</type><accidental>sharp</accidental><stem>up</stem><lyric number="1"><syllabic>begin</syllabic><text>qui</text></lyric></note></measure><measure number="19"><harmony print-frame="no"><root><root-step>A</root-step></root><kind text="m">minor</kind></harmony><harmony relative-x="92.40" print-frame="no"><root><root-step>D</root-step></root><kind text="m6">minor-sixth</kind></harmony><note><pitch><step>A</step><octave>3</octave></pitch><duration>1920</duration><tie type="start"/><voice>1</voice><type>whole</type><notations><tied type="start"/></notations><lyric number="1"><syllabic>end</syllabic><text>zás."</text><extend/></lyric></note></measure><measure number="20"><harmony print-frame="no"><root><root-step>A</root-step></root><kind text="m">minor</kind></harmony><note><pitch><step>A</step><octave>3</octave></pitch><duration>480</duration><tie type="stop"/><voice>1</voice><type>quarter</type><stem>up</stem><notations><tied type="stop"/></notations></note><note><rest/><duration>240</duration><voice>1</voice><type>eighth</type></note><note><pitch><step>E</step><octave>4</octave></pitch><duration>240</duration><voice>1</voice><type>eighth</type><stem>up</stem><lyric number="1"><syllabic>begin</syllabic><text>Es</text></lyric></note><harmony print-frame="no"><root><root-step>B</root-step></root><kind text="m7">minor-seventh</kind></harmony><note><pitch><step>A</step><octave>4</octave></pitch><duration>240</duration><voice>1</voice><type>eighth</type><stem>up</stem><beam number="1">begin</beam><lyric number="1"><syllabic>end</syllabic><text>tas</text></lyric></note><note><pitch><step>A</step><octave>4</octave></pitch><duration>240</duration><voice>1</voice><type>eighth</type><stem>up</stem><beam number="1">continue</beam><lyric number="1"><syllabic>begin</syllabic><text>per</text></lyric></note><note><pitch><step>A</step><octave>4</octave></pitch><duration>240</duration><voice>1</voice><type>eighth</type><stem>up</stem><beam number="1">continue</beam><lyric number="1"><syllabic>middle</syllabic><text>dien</text></lyric></note><note><pitch><step>A</step><octave>4</octave></pitch><duration>240</duration><voice>1</voice><type>eighth</type><stem>up</stem><beam number="1">end</beam><lyric number="1"><syllabic>single</syllabic><text>do el</text></lyric></note></measure><measure number="21"><print new-system="yes"/><harmony print-frame="no"><root><root-step>E</root-step></root><kind text="7">dominant</kind></harmony><note><pitch><step>G</step><alter>1</alter><octave>4</octave></pitch><duration>720</duration><voice>1</voice><type>quarter</type><dot/><accidental>sharp</accidental><stem>up</stem><lyric number="1"><syllabic>begin</syllabic><text>tiem</text></lyric></note><note><pitch><step>D</step><octave>4</octave></pitch><duration>240</duration><tie type="start"/><voice>1</voice><type>eighth</type><stem>up</stem><notations><tied type="start"/></notations><lyric number="1"><syllabic>single</syllabic><text>po</text></lyric></note><note><pitch><step>D</step><octave>4</octave></pitch><duration>480</duration><tie type="stop"/><voice>1</voice><type>quarter</type><stem>up</stem><notations><tied type="stop"/></notations><lyric number="1"><syllabic>single</syllabic><text> </text></lyric></note><harmony print-frame="no"><root><root-step>B</root-step></root><kind text="m7">minor-seventh</kind></harmony><note><pitch><step>B</step><octave>4</octave></pitch><duration>480</duration><voice>1</voice><type>quarter</type><stem>down</stem><lyric number="1"><syllabic>begin</syllabic><text>pen</text></lyric></note></measure><measure number="22"><harmony print-frame="no"><root><root-step>E</root-step></root><kind text="7">dominant</kind></harmony><note><pitch><step>G</step><alter>1</alter><octave>4</octave></pitch><duration>720</duration><voice>1</voice><type>quarter</type><dot/><accidental>sharp</accidental><stem>up</stem><lyric number="1"><syllabic>middle</syllabic><text>san</text></lyric></note><note><pitch><step>D</step><octave>4</octave></pitch><duration>240</duration><tie type="start"/><voice>1</voice><type>eighth</type><stem>up</stem><notations><tied type="start"/></notations><lyric number="1"><syllabic>end</syllabic><text>do</text><extend/></lyric></note><note><pitch><step>D</step><octave>4</octave></pitch><duration>480</duration><tie type="stop"/><voice>1</voice><type>quarter</type><stem>up</stem><notations><tied type="stop"/></notations></note><note><pitch><step>G</step><alter>1</alter><octave>4</octave></pitch><duration>480</duration><voice>1</voice><type>quarter</type><stem>up</stem><lyric number="1"><syllabic>begin</syllabic><text>pen</text></lyric></note></measure><measure number="23"><harmony print-frame="no"><root><root-step>A</root-step></root><kind text="">major</kind></harmony><note><pitch><step>F</step><alter>1</alter><octave>4</octave></pitch><duration>720</duration><voice>1</voice><type>quarter</type><dot/><accidental>sharp</accidental><stem>up</stem><lyric number="1"><syllabic>middle</syllabic><text>san</text></lyric></note><note><pitch><step>C</step><alter>1</alter><octave>4</octave></pitch><duration>240</duration><tie type="start"/><voice>1</voice><type>eighth</type><accidental>sharp</accidental><stem>up</stem><notations><tied type="start"/></notations><lyric number="1"><syllabic>end</syllabic><text>do;</text><extend/></lyric></note><note><pitch><step>C</step><alter>1</alter><octave>4</octave></pitch><duration>960</duration><tie type="stop"/><tie type="start"/><voice>1</voice><type>half</type><stem>up</stem><notations><tied type="stop"/><tied type="start"/></notations></note></measure><measure number="24"><note><pitch><step>C</step><alter>1</alter><octave>4</octave></pitch><duration>480</duration><tie type="stop"/><voice>1</voice><type>quarter</type><stem>up</stem><notations><tied type="stop"/></notations></note><note><rest/><duration>240</duration><voice>1</voice><type>eighth</type></note><note><pitch><step>E</step><octave>4</octave></pitch><duration>240</duration><voice>1</voice><type>eighth</type><stem>up</stem><lyric number="1"><syllabic>single</syllabic><text>por</text></lyric></note><harmony print-frame="no"><root><root-step>B</root-step></root><kind text="m7">minor-seventh</kind></harmony><note><pitch><step>A</step><octave>4</octave></pitch><duration>240</duration><voice>1</voice><type>eighth</type><stem>up</stem><beam number="1">begin</beam><lyric number="1"><syllabic>single</syllabic><text>lo</text></lyric></note><note><pitch><step>A</step><octave>4</octave></pitch><duration>240</duration><voice>1</voice><type>eighth</type><stem>up</stem><beam number="1">continue</beam><lyric number="1"><syllabic>single</syllabic><text>que</text></lyric></note><note><pitch><step>A</step><octave>4</octave></pitch><duration>240</duration><voice>1</voice><type>eighth</type><stem>up</stem><beam number="1">continue</beam><lyric number="1"><syllabic>single</syllabic><text>más</text></lyric></note><note><pitch><step>A</step><octave>4</octave></pitch><duration>240</duration><voice>1</voice><type>eighth</type><stem>up</stem><beam number="1">end</beam><lyric number="1"><syllabic>single</syllabic><text>tú</text></lyric></note></measure><measure number="25"><print new-system="yes"/><harmony print-frame="no"><root><root-step>E</root-step></root><kind text="7">dominant</kind></harmony><note><pitch><step>G</step><alter>1</alter><octave>4</octave></pitch><duration>720</duration><voice>1</voice><type>quarter</type><dot/><accidental>sharp</accidental><stem>up</stem><lyric number="1"><syllabic>begin</syllabic><text>quie</text></lyric></note><note><pitch><step>D</step><octave>4</octave></pitch><duration>240</duration><tie type="start"/><voice>1</voice><type>eighth</type><stem>up</stem><notations><tied type="start"/></notations><lyric number="1"><syllabic>end</syllabic><text>ras</text><extend/></lyric></note><note><pitch><step>D</step><octave>4</octave></pitch><duration>240</duration><tie type="stop"/><voice>1</voice><type>eighth</type><stem>up</stem><notations><tied type="stop"/></notations></note><note><pitch><step>A</step><octave>4</octave></pitch><duration>480</duration><voice>1</voice><type>quarter</type><stem>up</stem><lyric number="1"><syllabic>begin</syllabic><text>has</text></lyric></note><harmony print-frame="no"><root><root-step>B</root-step></root><kind text="m7">minor-seventh</kind></harmony><note><pitch><step>A</step><octave>4</octave></pitch><duration>240</duration><voice>1</voice><type>eighth</type><stem>up</stem><lyric number="1"><syllabic>end</syllabic><text>ta</text></lyric></note></measure><measure number="26"><harmony print-frame="no"><root><root-step>E</root-step></root><kind text="7">dominant</kind></harmony><note><pitch><step>G</step><alter>1</alter><octave>4</octave></pitch><duration>720</duration><voice>1</voice><type>quarter</type><dot/><accidental>sharp</accidental><stem>up</stem><lyric number="1"><syllabic>begin</syllabic><text>cuan</text></lyric></note><note><pitch><step>D</step><octave>4</octave></pitch><duration>240</duration><tie type="start"/><voice>1</voice><type>eighth</type><stem>up</stem><notations><tied type="start"/></notations><lyric number="1"><syllabic>single</syllabic><text>do</text><extend/></lyric></note><note><pitch><step>D</step><octave>4</octave></pitch><duration>240</duration><tie type="stop"/><voice>1</voice><type>eighth</type><stem>up</stem><notations><tied type="stop"/></notations></note><note><pitch><step>G</step><alter>1</alter><octave>4</octave></pitch><duration>480</duration><voice>1</voice><type>quarter</type><stem>up</stem><lyric number="1"><syllabic>begin</syllabic><text>has</text></lyric></note><note><pitch><step>G</step><alter>1</alter><octave>4</octave></pitch><duration>240</duration><voice>1</voice><type>eighth</type><stem>up</stem><lyric number="1"><syllabic>end</syllabic><text>ta</text></lyric></note></measure><measure number="27"><harmony print-frame="no"><root><root-step>A</root-step></root><kind text="">major</kind></harmony><note><pitch><step>F</step><alter>1</alter><octave>4</octave></pitch><duration>720</duration><voice>1</voice><type>quarter</type><dot/><accidental>sharp</accidental><stem>up</stem><lyric number="1"><syllabic>begin</syllabic><text>cuan</text></lyric></note><note><pitch><step>C</step><alter>1</alter><octave>4</octave></pitch><duration>240</duration><tie type="start"/><voice>1</voice><type>eighth</type><accidental>sharp</accidental><stem>up</stem><notations><tied type="start"/></notations><lyric number="1"><syllabic>end</syllabic><text>do</text><extend/></lyric></note><note><pitch><step>C</step><alter>1</alter><octave>4</octave></pitch><duration>960</duration><tie type="stop"/><tie type="start"/><voice>1</voice><type>half</type><stem>up</stem><notations><tied type="stop"/><tied type="start"/></notations></note></measure><measure number="28"><note><pitch><step>C</step><alter>1</alter><octave>4</octave></pitch><duration>480</duration><tie type="stop"/><voice>1</voice><type>quarter</type><stem>up</stem><notations><tied type="stop"/></notations></note><note><rest/><duration>240</duration><voice>1</voice><type>eighth</type></note><note><pitch><step>E</step><octave>3</octave></pitch><duration>240</duration><voice>1</voice><type>eighth</type><stem>up</stem><lyric number="1"><syllabic>begin</syllabic><text>Y a</text></lyric></note><harmony print-frame="no"><root><root-step>E</root-step></root><kind text="7">dominant</kind></harmony><note><pitch><step>F</step><alter>1</alter><octave>3</octave></pitch><duration>240</duration><voice>1</voice><type>eighth</type><accidental>sharp</accidental><stem>up</stem><beam number="1">begin</beam><lyric number="1"><syllabic>end</syllabic><text>si</text></lyric></note><note><pitch><step>G</step><alter>1</alter><octave>3</octave></pitch><duration>240</duration><voice>1</voice><type>eighth</type><accidental>sharp</accidental><stem>up</stem><beam number="1">continue</beam><lyric number="1"><syllabic>begin</syllabic><text>pa</text></lyric></note><note><pitch><step>A</step><octave>3</octave></pitch><duration>240</duration><voice>1</voice><type>eighth</type><stem>up</stem><beam number="1">continue</beam><lyric number="1"><syllabic>end</syllabic><text>san</text></lyric></note><note><pitch><step>B</step><octave>3</octave></pitch><duration>240</duration><voice>1</voice><type>eighth</type><stem>up</stem><beam number="1">end</beam><lyric number="1"><syllabic>single</syllabic><text>los</text></lyric></note></measure><measure number="29"><print new-system="yes"/><harmony print-frame="no"><root><root-step>A</root-step></root><kind text="m">minor</kind></harmony><note><pitch><step>C</step><octave>4</octave></pitch><duration>720</duration><voice>1</voice><type>quarter</type><dot/><stem>up</stem><lyric number="1"><syllabic>begin</syllabic><text>dí</text></lyric></note><note><pitch><step>A</step><octave>3</octave></pitch><duration>240</duration><tie type="start"/><voice>1</voice><type>eighth</type><stem>up</stem><notations><tied type="start"/></notations><lyric number="1"><syllabic>end</syllabic><text>as,</text><extend/></lyric></note><note><pitch><step>A</step><octave>3</octave></pitch><duration>480</duration><tie type="stop"/><voice>1</voice><type>quarter</type><stem>up</stem><notations><tied type="stop"/></notations></note><note><pitch><step>A</step><octave>3</octave></pitch><duration>480</duration><voice>1</voice><type>quarter</type><stem>up</stem><lyric number="1"><syllabic>single</syllabic><text>y</text></lyric></note></measure><measure number="30"><note><pitch><step>D</step><octave>4</octave></pitch><duration>960</duration><voice>1</voice><type>half</type><stem>up</stem><lyric number="1"><syllabic>single</syllabic><text>yo</text></lyric></note><harmony print-frame="no"><root><root-step>E</root-step></root><kind text="7">dominant</kind></harmony><note><pitch><step>B</step><octave>3</octave></pitch><duration>320</duration><voice>1</voice><type>quarter</type><time-modification><actual-notes>3</actual-notes><normal-notes>2</normal-notes></time-modification><stem>up</stem><notations><tuplet type="start" bracket="yes"/></notations><lyric number="1"><syllabic>begin</syllabic><text>de</text></lyric></note><note><pitch><step>D</step><octave>4</octave></pitch><duration>320</duration><voice>1</voice><type>quarter</type><time-modification><actual-notes>3</actual-notes><normal-notes>2</normal-notes></time-modification><stem>up</stem><lyric number="1"><syllabic>middle</syllabic><text>ses</text></lyric></note><note><pitch><step>B</step><octave>3</octave></pitch><duration>320</duration><voice>1</voice><type>quarter</type><time-modification><actual-notes>3</actual-notes><normal-notes>2</normal-notes></time-modification><stem>up</stem><notations><tuplet type="stop"/></notations><lyric number="1"><syllabic>middle</syllabic><text>pe</text></lyric></note></measure><measure number="31"><harmony print-frame="no"><root><root-step>A</root-step></root><kind text="m">minor</kind></harmony><note><pitch><step>C</step><octave>4</octave></pitch><duration>720</duration><voice>1</voice><type>quarter</type><dot/><stem>up</stem><lyric number="1"><syllabic>middle</syllabic><text>ra</text></lyric></note><note><pitch><step>A</step><octave>3</octave></pitch><duration>240</duration><tie type="start"/><voice>1</voice><type>eighth</type><stem>up</stem><notations><tied type="start"/></notations><lyric number="1"><syllabic>end</syllabic><text>do</text><extend/></lyric></note><note><pitch><step>A</step><octave>3</octave></pitch><duration>480</duration><tie type="stop"/><voice>1</voice><type>quarter</type><stem>up</stem><notations><tied type="stop"/></notations></note><note><pitch><step>A</step><octave>3</octave></pitch><duration>480</duration><voice>1</voice><type>quarter</type><stem>up</stem><lyric number="1"><syllabic>single</syllabic><text>y</text></lyric></note></measure><measure number="32"><harmony print-frame="no"><root><root-step>D</root-step></root><kind text="m">minor</kind></harmony><note><pitch><step>D</step><octave>4</octave></pitch><duration>960</duration><voice>1</voice><type>half</type><stem>up</stem><lyric number="1"><syllabic>single</syllabic><text>tú,</text></lyric></note><harmony print-frame="no"><root><root-step>E</root-step></root><kind text="7">dominant</kind></harmony><note><pitch><step>B</step><octave>3</octave></pitch><duration>320</duration><voice>1</voice><type>quarter</type><time-modification><actual-notes>3</actual-notes><normal-notes>2</normal-notes></time-modification><stem>up</stem><notations><tuplet type="start" bracket="yes"/></notations><lyric number="1"><syllabic>single</syllabic><text>tú</text></lyric></note><note><pitch><step>D</step><octave>4</octave></pitch><duration>320</duration><voice>1</voice><type>quarter</type><time-modification><actual-notes>3</actual-notes><normal-notes>2</normal-notes></time-modification><stem>up</stem><lyric number="1"><syllabic>begin</syllabic><text>con</text></lyric></note><note><pitch><step>B</step><octave>3</octave></pitch><duration>320</duration><voice>1</voice><type>quarter</type><time-modification><actual-notes>3</actual-notes><normal-notes>2</normal-notes></time-modification><stem>up</stem><notations><tuplet type="stop"/></notations><lyric number="1"><syllabic>begin</syllabic><text>tes</text></lyric></note></measure><measure number="33"><harmony print-frame="no"><root><root-step>A</root-step></root><kind text="m">minor</kind></harmony><note><pitch><step>E</step><octave>4</octave></pitch><duration>720</duration><voice>1</voice><type>quarter</type><dot/><stem>up</stem><lyric number="1"><syllabic>middle</syllabic><text>tan</text></lyric></note><note><pitch><step>C</step><octave>4</octave></pitch><duration>240</duration><voice>1</voice><type>eighth</type><stem>up</stem><notations><slur type="start" number="1"/></notations><lyric number="1"><syllabic>end</syllabic><text>do</text><extend/></lyric></note><note><pitch><step>C</step><octave>4</octave></pitch><duration>480</duration><voice>1</voice><type>quarter</type><stem>up</stem><notations><slur type="stop" number="1"/></notations></note><harmony print-frame="no"><root><root-step>E</root-step></root><kind text="7">dominant</kind></harmony><note><pitch><step>E</step><octave>3</octave></pitch><duration>480</duration><voice>1</voice><type>quarter</type><stem>up</stem><lyric number="1"><syllabic>begin</syllabic><text>"qui</text></lyric></note></measure><measure number="34"><print new-system="yes"/><harmony print-frame="no"><root><root-step>A</root-step></root><kind text="m">minor</kind></harmony><note><pitch><step>C</step><octave>4</octave></pitch><duration>480</duration><voice>1</voice><type>quarter</type><stem>up</stem><lyric number="1"><syllabic>end</syllabic><text>zás,</text></lyric></note><note><rest/><duration>240</duration><voice>1</voice><type>eighth</type></note><note><pitch><step>A</step><octave>3</octave></pitch><duration>240</duration><voice>1</voice><type>eighth</type><stem>up</stem><lyric number="1"><syllabic>begin</syllabic><text>qui</text></lyric></note><harmony print-frame="no"><root><root-step>E</root-step></root><kind text="7">dominant</kind></harmony><note><pitch><step>B</step><octave>3</octave></pitch><duration>480</duration><voice>1</voice><type>quarter</type><stem>up</stem><lyric number="1"><syllabic>end</syllabic><text>zás,</text></lyric></note><note><rest/><duration>240</duration><voice>1</voice><type>eighth</type></note><note><pitch><step>G</step><alter>1</alter><octave>3</octave></pitch><duration>240</duration><voice>1</voice><type>eighth</type><accidental>sharp</accidental><stem>up</stem><lyric number="1"><syllabic>begin</syllabic><text>qui</text></lyric></note></measure><measure number="35"><barline location="left"><ending type="start" number="1"/></barline><harmony print-frame="no"><root><root-step>A</root-step></root><kind text="m">minor</kind></harmony><note><pitch><step>A</step><octave>3</octave></pitch><duration>1440</duration><voice>1</voice><type>half</type><dot/><stem>up</stem><lyric number="1"><syllabic>end</syllabic><text>zás."</text></lyric></note><harmony print-frame="no"><root><root-step>B</root-step></root><kind text="m7b5">half-diminished</kind></harmony><note><rest/><duration>480</duration><voice>1</voice><type>quarter</type></note></measure><measure number="36"><harmony print-frame="no"><root><root-step>E</root-step></root><kind text="7">dominant</kind></harmony><note><rest/><duration>480</duration><voice>1</voice><type>quarter</type></note><note><rest/><duration>240</duration><voice>1</voice><type>eighth</type></note><note><pitch><step>E</step><octave>3</octave></pitch><duration>240</duration><voice>1</voice><type>eighth</type><stem>up</stem><lyric number="1"><syllabic>begin</syllabic><text>Siem-</text></lyric></note><note><pitch><step>F</step><alter>1</alter><octave>3</octave></pitch><duration>240</duration><voice>1</voice><type>eighth</type><accidental>sharp</accidental><stem>up</stem><beam number="1">begin</beam><lyric number="1"><syllabic>end</syllabic><text>-pre</text></lyric></note><note><pitch><step>G</step><alter>1</alter><octave>3</octave></pitch><duration>240</duration><voice>1</voice><type>eighth</type><accidental>sharp</accidental><stem>up</stem><beam number="1">continue</beam><lyric number="1"><syllabic>single</syllabic><text>que</text></lyric></note><note><pitch><step>A</step><octave>3</octave></pitch><duration>240</duration><voice>1</voice><type>eighth</type><stem>up</stem><beam number="1">continue</beam><lyric number="1"><syllabic>single</syllabic><text>te</text></lyric></note><note><pitch><step>B</step><octave>3</octave></pitch><duration>240</duration><voice>1</voice><type>eighth</type><stem>up</stem><beam number="1">end</beam><lyric number="1"><syllabic>single</syllabic><text>pre</text></lyric></note><barline location="right"><bar-style>light-heavy</bar-style><ending type="stop" number="1"/><repeat direction="backward"/></barline></measure><measure number="37"><barline location="left"><ending type="start" number="2"/></barline><harmony print-frame="no"><root><root-step>A</root-step></root><kind text="m">minor</kind></harmony><harmony relative-x="39.00" print-frame="no"><root><root-step>D</root-step></root><kind text="m6">minor-sixth</kind></harmony><note><pitch><step>A</step><octave>3</octave></pitch><duration>1920</duration><tie type="start"/><voice>1</voice><type>whole</type><notations><tied type="start"/></notations><lyric number="1"><syllabic>single</syllabic><text>zás.</text></lyric></note></measure><measure number="38"><harmony print-frame="no"><root><root-step>A</root-step></root><kind text="m">minor</kind></harmony><note><pitch><step>A</step><octave>3</octave></pitch><duration>1440</duration><tie type="stop"/><voice>1</voice><type>half</type><dot/><stem>up</stem><notations><tied type="stop"/></notations></note><note><rest/><duration>480</duration><voice>1</voice><type>quarter</type></note><barline location="right"><bar-style>light-heavy</bar-style><ending type="stop" number="2"/></barline></measure></part></score-partwise>