<score-partwise version="2.0"><work><work-number/><work-title/></work><movement-number/><movement-title>Azt gondoltad, azt gondoltad</movement-title><identification><creator type="composer">Hungarian folk song</creator><creator type="poet"/><rights>Public Domain</rights><encoding><software>Finale 2008 for Windows</software><software>Dolet Light for Finale 2008</software><encoding-date>2009-02-04</encoding-date><software>ProxyMusic 2.0 c</software></encoding><source>http://wikifonia.org/node/1218/revisions/1612/view</source></identification><defaults><scaling><millimeters>7.2319</millimeters><tenths>40</tenths></scaling><page-layout><page-height>1545</page-height><page-width>1194</page-width><page-margins type="both"><left-margin>70</left-margin><right-margin>70</right-margin><top-margin>88</top-margin><bottom-margin>88</bottom-margin></page-margins></page-layout><system-layout><system-margins><left-margin>0</left-margin><right-margin>0</right-margin></system-margins><system-distance>121</system-distance><top-system-distance>70</top-system-distance></system-layout><music-font font-size="20.5" font-family="Maestro"/><word-font font-size="10.25" font-family="Times New Roman"/><lyric-font font-size="10.25" font-family="Times New Roman" name="verse"/></defaults><credit><credit-words font-weight="bold" font-size="24" default-y="1440" default-x="597" justify="center" valign="top">&#160;
</credit-words></credit><part-list><score-part id="P1"><part-name print-object="no">MusicXML Part</part-name><score-instrument id="P1-I1"><instrument-name>Grand Piano</instrument-name></score-instrument><midi-instrument id="P1-I1"><midi-channel>1</midi-channel><midi-program>1</midi-program></midi-instrument></score-part></part-list><part id="P1"><measure width="255" number="1"><print><system-layout><system-margins><left-margin>70</left-margin><right-margin>0</right-margin></system-margins><top-system-distance>211</top-system-distance></system-layout></print><attributes><divisions>2</divisions><key><fifths>-3</fifths><mode>minor</mode></key><time symbol="common"><beats>4</beats><beat-type>4</beat-type></time><clef><sign>G</sign><line>2</line></clef></attributes><sound tempo="120"/><harmony default-y="40"><root><root-step>C</root-step></root><kind text="m">minor</kind></harmony><note default-x="133"><pitch><step>E</step><alter>-1</alter><octave>4</octave></pitch><duration>2</duration><voice>1</voice><type>quarter</type><stem default-y="-4">up</stem><lyric default-y="-80" number="1"><syllabic>single</syllabic><text>Azt</text></lyric></note><note default-x="168"><pitch><step>E</step><alter>-1</alter><octave>4</octave></pitch><duration>2</duration><voice>1</voice><type>quarter</type><stem default-y="-4">up</stem><lyric default-y="-80" number="1"><syllabic>begin</syllabic><text>gon</text></lyric></note><note default-x="197"><pitch><step>D</step><octave>4</octave></pitch><duration>2</duration><voice>1</voice><type>quarter</type><stem default-y="-9">up</stem><lyric default-y="-80" number="1"><syllabic>middle</syllabic><text>dol</text></lyric></note><note default-x="226"><pitch><step>C</step><octave>4</octave></pitch><duration>2</duration><voice>1</voice><type>quarter</type><stem default-y="-14">up</stem><lyric default-y="-80" number="1"><syllabic>end</syllabic><text>tad,</text></lyric></note></measure><measure width="134" number="2"><note default-x="15"><pitch><step>E</step><alter>-1</alter><octave>4</octave></pitch><duration>2</duration><voice>1</voice><type>quarter</type><stem default-y="-4">up</stem><lyric default-y="-80" number="1"><syllabic>single</syllabic><text>azt</text></lyric></note><note default-x="48"><pitch><step>E</step><alter>-1</alter><octave>4</octave></pitch><duration>2</duration><voice>1</voice><type>quarter</type><stem default-y="-4">up</stem><lyric default-y="-80" number="1"><syllabic>begin</syllabic><text>gon</text></lyric></note><note default-x="76"><pitch><step>D</step><octave>4</octave></pitch><duration>2</duration><voice>1</voice><type>quarter</type><stem default-y="-9">up</stem><lyric default-y="-80" number="1"><syllabic>middle</syllabic><text>dol</text></lyric></note><note default-x="105"><pitch><step>C</step><octave>4</octave></pitch><duration>2</duration><voice>1</voice><type>quarter</type><stem default-y="-14">up</stem><lyric default-y="-80" number="1"><syllabic>end</syllabic><text>tad,</text></lyric></note></measure><measure width="159" number="3"><harmony default-y="40"><root><root-step>G</root-step></root><kind text="">major</kind></harmony><note default-x="21"><pitch><step>B</step><octave>3</octave></pitch><duration>1</duration><voice>1</voice><type>eighth</type><accidental>natural</accidental><stem default-y="-20">up</stem><beam number="1">begin</beam><lyric default-y="-80" number="1"><syllabic>begin</syllabic><text>ba</text></lyric></note><note default-x="54"><pitch><step>C</step><octave>4</octave></pitch><duration>1</duration><voice>1</voice><type>eighth</type><stem default-y="-17">up</stem><beam number="1">end</beam><lyric default-y="-80" number="1"><syllabic>end</syllabic><text>bám,</text></lyric></note><note default-x="91"><pitch><step>D</step><octave>4</octave></pitch><duration>2</duration><voice>1</voice><type>quarter</type><stem default-y="-9">up</stem><lyric default-y="-80" number="1"><syllabic>begin</syllabic><text>bá</text></lyric></note><harmony default-y="40"><root><root-step>C</root-step></root><kind text="m">minor</kind></harmony><note default-x="123"><pitch><step>C</step><octave>4</octave></pitch><duration>4</duration><voice>1</voice><type>half</type><stem default-y="-14">up</stem><lyric default-y="-80" number="1"><syllabic>end</syllabic><text>nom,</text></lyric></note></measure><measure width="145" number="4"><harmony default-y="40"><root><root-step>C</root-step></root><kind text="m">minor</kind></harmony><note default-x="26"><pitch><step>G</step><octave>4</octave></pitch><duration>2</duration><voice>1</voice><type>quarter</type><stem default-y="6">up</stem><lyric default-y="-80" number="1"><syllabic>single</syllabic><text>Hogy</text></lyric></note><note default-x="66"><pitch><step>G</step><octave>4</octave></pitch><duration>2</duration><voice>1</voice><type>quarter</type><stem default-y="6">up</stem><lyric default-y="-80" number="1"><syllabic>begin</syllabic><text>te</text></lyric></note><note default-x="86"><pitch><step>F</step><octave>4</octave></pitch><duration>2</duration><voice>1</voice><type>quarter</type><stem default-y="1">up</stem><lyric default-y="-80" number="1"><syllabic>middle</syllabic><text>tõ</text></lyric></note><note default-x="113"><pitch><step>E</step><alter>-1</alter><octave>4</octave></pitch><duration>2</duration><voice>1</voice><type>quarter</type><stem default-y="-4">up</stem><lyric default-y="-80" number="1"><syllabic>end</syllabic><text>led,</text></lyric></note></measure><measure width="142" number="5"><note default-x="24"><pitch><step>G</step><octave>4</octave></pitch><duration>2</duration><voice>1</voice><type>quarter</type><stem default-y="6">up</stem><lyric default-y="-80" number="1"><syllabic>single</syllabic><text>hogy</text></lyric></note><note default-x="61"><pitch><step>G</step><octave>4</octave></pitch><duration>2</duration><voice>1</voice><type>quarter</type><stem default-y="6">up</stem><lyric default-y="-80" number="1"><syllabic>begin</syllabic><text>te</text></lyric></note><note default-x="84"><pitch><step>F</step><octave>4</octave></pitch><duration>2</duration><voice>1</voice><type>quarter</type><stem default-y="1">up</stem><lyric default-y="-80" number="1"><syllabic>middle</syllabic><text>tõ</text></lyric></note><note default-x="110"><pitch><step>E</step><alter>-1</alter><octave>4</octave></pitch><duration>2</duration><voice>1</voice><type>quarter</type><stem default-y="-4">up</stem><lyric default-y="-80" number="1"><syllabic>end</syllabic><text>led</text></lyric></note></measure><measure width="148" number="6"><harmony default-y="40"><root><root-step>G</root-step></root><kind text="">major</kind></harmony><note default-x="11"><pitch><step>D</step><octave>4</octave></pitch><duration>1</duration><voice>1</voice><type>eighth</type><stem default-y="-10">up</stem><beam number="1">begin</beam><lyric default-y="-80" number="1"><syllabic>single</syllabic><text>el</text></lyric></note><note default-x="41"><pitch><step>E</step><alter>-1</alter><octave>4</octave></pitch><duration>1</duration><voice>1</voice><type>eighth</type><stem default-y="-7.5">up</stem><beam number="1">end</beam><lyric default-y="-80" number="1"><syllabic>single</syllabic><text>kell</text></lyric></note><note default-x="77"><pitch><step>F</step><octave>4</octave></pitch><duration>2</duration><voice>1</voice><type>quarter</type><stem default-y="1">up</stem><lyric default-y="-80" number="1"><syllabic>begin</syllabic><text>vál</text></lyric></note><harmony default-y="40"><root><root-step>C</root-step></root><kind text="m">minor</kind></harmony><note default-x="112"><pitch><step>E</step><alter>-1</alter><octave>4</octave></pitch><duration>4</duration><voice>1</voice><type>half</type><stem default-y="-4">up</stem><lyric default-y="-80" number="1"><syllabic>end</syllabic><text>nom,</text></lyric></note></measure><measure width="369" number="7"><print new-system="yes"><system-layout><system-distance>114</system-distance></system-layout></print><harmony default-y="40"><root><root-step>C</root-step></root><kind text="m">minor</kind></harmony><note default-x="106"><pitch><step>G</step><octave>4</octave></pitch><duration>2</duration><voice>1</voice><type>quarter</type><stem default-y="6">up</stem><lyric default-y="-80" number="1"><syllabic>begin</syllabic><text>Elvá</text></lyric></note><note default-x="150"><pitch><step>F</step><octave>4</octave></pitch><duration>1</duration><voice>1</voice><type>eighth</type><stem default-y="-5">up</stem><beam number="1">begin</beam><lyric default-y="-80" number="1"><syllabic>middle</syllabic><text>lá</text></lyric></note><note default-x="184"><pitch><step>E</step><alter>-1</alter><octave>4</octave></pitch><duration>1</duration><voice>1</voice><type>eighth</type><stem default-y="-7.5">up</stem><beam number="1">end</beam><lyric default-y="-80" number="1"><syllabic>end</syllabic><text>sunk</text></lyric></note><harmony default-y="40"><root><root-step>F</root-step></root><kind text="m">minor</kind></harmony><note default-x="231"><pitch><step>F</step><octave>4</octave></pitch><duration>1</duration><voice>1</voice><type>eighth</type><stem default-y="0">up</stem><beam number="1">begin</beam><lyric default-y="-80" number="1"><syllabic>single</syllabic><text>csak</text></lyric></note><note default-x="274"><pitch><step>G</step><octave>4</octave></pitch><duration>1</duration><voice>1</voice><type>eighth</type><stem default-y="5">up</stem><beam number="1">end</beam><lyric default-y="-80" number="1"><syllabic>single</syllabic><text>egy</text></lyric></note><note default-x="321"><pitch><step>A</step><alter>-1</alter><octave>4</octave></pitch><duration>2</duration><voice>1</voice><type>quarter</type><stem default-y="11">up</stem><lyric default-y="-80" number="1"><syllabic>single</syllabic><text>álom,</text></lyric></note></measure><measure width="284" number="8"><harmony default-y="40"><root><root-step>B</root-step><root-alter>-1</root-alter></root><kind text="">major</kind></harmony><note default-x="24"><pitch><step>F</step><octave>4</octave></pitch><duration>2</duration><voice>1</voice><type>quarter</type><stem default-y="1">up</stem><lyric default-y="-80" number="1"><syllabic>begin</syllabic><text>szíve</text></lyric></note><note default-x="73"><pitch><step>E</step><alter>-1</alter><octave>4</octave></pitch><duration>1</duration><voice>1</voice><type>eighth</type><stem default-y="-5">up</stem><beam number="1">begin</beam><lyric default-y="-80" number="1"><syllabic>end</syllabic><text>met</text></lyric></note><note default-x="115"><pitch><step>D</step><octave>4</octave></pitch><duration>1</duration><voice>1</voice><type>eighth</type><stem default-y="-7.5">up</stem><beam number="1">end</beam><lyric default-y="-80" number="1"><syllabic>begin</syllabic><text>más</text></lyric></note><harmony default-y="40"><root><root-step>E</root-step><root-alter>-1</root-alter></root><kind text="">major</kind></harmony><note default-x="152"><pitch><step>E</step><alter>-1</alter><octave>4</octave></pitch><duration>1</duration><voice>1</voice><type>eighth</type><stem default-y="-10">up</stem><beam number="1">begin</beam><lyric default-y="-80" number="1"><syllabic>end</syllabic><text>nak</text></lyric></note><note default-x="186"><pitch><step>F</step><octave>4</octave></pitch><duration>1</duration><voice>1</voice><type>eighth</type><stem default-y="-7.5">up</stem><beam number="1">end</beam><lyric default-y="-80" number="1"><syllabic>begin</syllabic><text>a</text></lyric></note><note default-x="230"><pitch><step>G</step><octave>4</octave></pitch><duration>2</duration><voice>1</voice><type>quarter</type><stem default-y="6">up</stem><lyric default-y="-80" number="1"><syllabic>end</syllabic><text>jánlom,</text></lyric></note></measure><measure width="223" number="9"><harmony default-y="40"><root><root-step>C</root-step></root><kind text="m">minor</kind></harmony><note default-x="30"><pitch><step>E</step><alter>-1</alter><octave>4</octave></pitch><duration>2</duration><voice>1</voice><type>quarter</type><stem default-y="-4">up</stem><lyric justify="left" default-y="-80" number="1"><syllabic>single</syllabic><text>ajna...</text><extend/></lyric></note><note default-x="73"><pitch><step>D</step><octave>4</octave></pitch><duration>1</duration><voice>1</voice><type>eighth</type><stem default-y="-15">up</stem><beam number="1">begin</beam></note><note default-x="98"><pitch><step>C</step><octave>4</octave></pitch><duration>1</duration><voice>1</voice><type>eighth</type><stem default-y="-17">up</stem><beam number="1">end</beam></note><harmony default-y="40"><root><root-step>G</root-step></root><kind text="">major</kind></harmony><note default-x="131"><pitch><step>B</step><octave>3</octave></pitch><duration>1</duration><voice>1</voice><type>eighth</type><accidental>natural</accidental><stem default-y="-20">up</stem><beam number="1">begin</beam></note><note default-x="157"><pitch><step>C</step><octave>4</octave></pitch><duration>1</duration><voice>1</voice><type>eighth</type><stem default-y="-17">up</stem><beam number="1">end</beam></note><note default-x="182"><pitch><step>F</step><octave>4</octave></pitch><duration>2</duration><voice>1</voice><type>quarter</type><stem default-y="1">up</stem></note></measure><measure width="178" number="10"><harmony default-y="40"><root><root-step>C</root-step></root><kind text="m">minor</kind></harmony><note default-x="10"><pitch><step>E</step><alter>-1</alter><octave>4</octave></pitch><duration>1</duration><voice>1</voice><type>eighth</type><stem default-y="-5">up</stem><beam number="1">begin</beam></note><note default-x="33"><pitch><step>C</step><octave>4</octave></pitch><duration>1</duration><voice>1</voice><type>eighth</type><stem default-y="-5.5">up</stem><beam number="1">continue</beam></note><harmony default-y="40"><root><root-step>G</root-step></root><kind text="">major</kind></harmony><note default-x="55"><pitch><step>D</step><octave>4</octave></pitch><duration>1</duration><voice>1</voice><type>eighth</type><stem default-y="-6.5">up</stem><beam number="1">continue</beam></note><note default-x="84"><pitch><step>B</step><octave>3</octave></pitch><duration>1</duration><voice>1</voice><type>eighth</type><accidental>natural</accidental><stem default-y="-7.5">up</stem><beam number="1">end</beam></note><harmony default-y="40"><root><root-step>C</root-step></root><kind text="m">minor</kind></harmony><note default-x="110"><pitch><step>C</step><octave>4</octave></pitch><duration>4</duration><voice>1</voice><type>half</type><stem default-y="-14">up</stem></note><barline location="right"><bar-style>light-heavy</bar-style></barline></measure></part></score-partwise>