<score-partwise version="2.0"><work><work-number/><work-title/></work><movement-number/><movement-title>Song for My Father</movement-title><identification><creator type="composer">Horace Silver</creator><creator type="poet"/><rights>All Rights Reserved</rights><encoding><software>Finale 2006 for Windows</software><software>Dolet Light for Finale 2006</software><encoding-date>1900-00-00</encoding-date><software>ProxyMusic 2.0 c</software></encoding><source>http://wikifonia.org/node/126/revisions/130/view</source></identification><part-list><score-part id="P1"><part-name>MusicXML Part</part-name><score-instrument id="P1-I1"><instrument-name>Instrument 1</instrument-name></score-instrument><midi-instrument id="P1-I1"><midi-channel>1</midi-channel><midi-program>1</midi-program></midi-instrument></score-part></part-list><part id="P1"><measure number="1"><attributes><divisions>24</divisions><key><fifths>-4</fifths><mode>major</mode></key><time><beats>4</beats><beat-type>4</beat-type></time><clef><sign>G</sign><line>2</line></clef></attributes><sound tempo="96"/><note><pitch><step>C</step><octave>4</octave></pitch><duration>12</duration><voice>1</voice><type>eighth</type><stem>up</stem></note><note><pitch><step>F</step><octave>4</octave></pitch><duration>12</duration><voice>1</voice><type>eighth</type><stem>up</stem><beam number="1">begin</beam></note><note><pitch><step>A</step><alter>-1</alter><octave>4</octave></pitch><duration>12</duration><voice>1</voice><type>eighth</type><stem>up</stem><beam number="1">end</beam></note></measure><measure number="2"><barline location="left"><bar-style>heavy-light</bar-style><repeat direction="forward"/></barline><harmony default-y="-20"><root><root-step>F</root-step></root><kind>minor-seventh</kind></harmony><note><pitch><step>C</step><octave>5</octave></pitch><duration>12</duration><voice>1</voice><type>eighth</type><stem>down</stem><beam number="1">begin</beam></note><note><pitch><step>D</step><alter>-1</alter><octave>5</octave></pitch><duration>4</duration><voice>1</voice><type>16th</type><time-modification><actual-notes>3</actual-notes><normal-notes>2</normal-notes></time-modification><stem>down</stem><beam number="1">continue</beam><beam number="2">begin</beam><notations><tuplet placement="below" type="start" number="1"/></notations></note><note><pitch><step>C</step><octave>5</octave></pitch><duration>4</duration><voice>1</voice><type>16th</type><time-modification><actual-notes>3</actual-notes><normal-notes>2</normal-notes></time-modification><stem>down</stem><beam number="1">continue</beam><beam number="2">continue</beam></note><note><pitch><step>B</step><alter>-1</alter><octave>4</octave></pitch><duration>4</duration><voice>1</voice><type>16th</type><time-modification><actual-notes>3</actual-notes><normal-notes>2</normal-notes></time-modification><stem>down</stem><beam number="1">end</beam><beam number="2">end</beam><notations><tuplet type="stop" number="1"/></notations></note><note><pitch><step>A</step><alter>-1</alter><octave>4</octave></pitch><duration>12</duration><voice>1</voice><type>eighth</type><stem>up</stem><beam number="1">begin</beam></note><note><pitch><step>B</step><alter>-1</alter><octave>4</octave></pitch><duration>12</duration><tie type="start"/><voice>1</voice><type>eighth</type><stem>up</stem><beam number="1">end</beam><notations><tied type="start"/></notations></note><note><pitch><step>B</step><alter>-1</alter><octave>4</octave></pitch><duration>12</duration><tie type="stop"/><voice>1</voice><type>eighth</type><stem>down</stem><beam number="1">begin</beam><notations><tied type="stop"/></notations></note><note><pitch><step>C</step><alter>-1</alter><octave>5</octave></pitch><duration>4</duration><voice>1</voice><type>16th</type><accidental>flat</accidental><time-modification><actual-notes>3</actual-notes><normal-notes>2</normal-notes></time-modification><stem>down</stem><beam number="1">continue</beam><beam number="2">begin</beam><notations><tuplet placement="below" type="start" number="1"/></notations></note><note><pitch><step>B</step><alter>-1</alter><octave>4</octave></pitch><duration>4</duration><voice>1</voice><type>16th</type><time-modification><actual-notes>3</actual-notes><normal-notes>2</normal-notes></time-modification><stem>down</stem><beam number="1">continue</beam><beam number="2">continue</beam></note><note><pitch><step>A</step><alter>-1</alter><octave>4</octave></pitch><duration>4</duration><voice>1</voice><type>16th</type><time-modification><actual-notes>3</actual-notes><normal-notes>2</normal-notes></time-modification><stem>down</stem><beam number="1">end</beam><beam number="2">end</beam><notations><tuplet type="stop" number="1"/></notations></note><note><pitch><step>F</step><octave>4</octave></pitch><duration>12</duration><voice>1</voice><type>eighth</type><stem>up</stem><beam number="1">begin</beam></note><note><pitch><step>A</step><alter>-1</alter><octave>4</octave></pitch><duration>12</duration><tie type="start"/><voice>1</voice><type>eighth</type><stem>up</stem><beam number="1">end</beam><notations><tied type="start"/></notations></note></measure><measure number="3"><note><pitch><step>A</step><alter>-1</alter><octave>4</octave></pitch><duration>12</duration><tie type="stop"/><voice>1</voice><type>eighth</type><stem>up</stem><beam number="1">begin</beam><notations><tied type="stop"/></notations></note><note><pitch><step>B</step><alter>-1</alter><octave>4</octave></pitch><duration>4</duration><voice>1</voice><type>16th</type><time-modification><actual-notes>3</actual-notes><normal-notes>2</normal-notes></time-modification><stem>up</stem><beam number="1">continue</beam><beam number="2">begin</beam><notations><tuplet placement="above" type="start" number="1"/></notations></note><note><pitch><step>A</step><alter>-1</alter><octave>4</octave></pitch><duration>4</duration><voice>1</voice><type>16th</type><time-modification><actual-notes>3</actual-notes><normal-notes>2</normal-notes></time-modification><stem>up</stem><beam number="1">continue</beam><beam number="2">continue</beam></note><note><pitch><step>F</step><octave>4</octave></pitch><duration>4</duration><voice>1</voice><type>16th</type><time-modification><actual-notes>3</actual-notes><normal-notes>2</normal-notes></time-modification><stem>up</stem><beam number="1">end</beam><beam number="2">end</beam><notations><tuplet type="stop" number="1"/></notations></note><note><pitch><step>E</step><alter>-1</alter><octave>4</octave></pitch><duration>12</duration><voice>1</voice><type>eighth</type><stem>up</stem><beam number="1">begin</beam></note><note><pitch><step>F</step><octave>4</octave></pitch><duration>12</duration><tie type="start"/><voice>1</voice><type>eighth</type><stem>up</stem><beam number="1">end</beam><notations><tied type="start"/></notations></note><note><pitch><step>F</step><octave>4</octave></pitch><duration>12</duration><tie type="stop"/><voice>1</voice><type>eighth</type><stem>up</stem><beam number="1">begin</beam><notations><tied type="stop"/></notations></note><note><pitch><step>G</step><octave>4</octave></pitch><duration>4</duration><voice>1</voice><type>16th</type><time-modification><actual-notes>3</actual-notes><normal-notes>2</normal-notes></time-modification><stem>up</stem><beam number="1">continue</beam><beam number="2">begin</beam><notations><tuplet placement="above" type="start" number="1"/></notations></note><note><pitch><step>F</step><octave>4</octave></pitch><duration>4</duration><voice>1</voice><type>16th</type><time-modification><actual-notes>3</actual-notes><normal-notes>2</normal-notes></time-modification><stem>up</stem><beam number="1">continue</beam><beam number="2">continue</beam></note><note><pitch><step>E</step><alter>-1</alter><octave>4</octave></pitch><duration>4</duration><voice>1</voice><type>16th</type><time-modification><actual-notes>3</actual-notes><normal-notes>2</normal-notes></time-modification><stem>up</stem><beam number="1">end</beam><beam number="2">end</beam><notations><tuplet type="stop" number="1"/></notations></note><note><pitch><step>C</step><octave>4</octave></pitch><duration>12</duration><voice>1</voice><type>eighth</type><stem>up</stem><beam number="1">begin</beam></note><note><pitch><step>E</step><alter>-1</alter><octave>4</octave></pitch><duration>12</duration><tie type="start"/><voice>1</voice><type>eighth</type><stem>up</stem><beam number="1">end</beam><notations><tied type="start"/></notations></note></measure><measure number="4"><harmony default-y="-20"><root><root-step>E</root-step><root-alter>-1</root-alter></root><kind>dominant</kind></harmony><note><pitch><step>E</step><alter>-1</alter><octave>4</octave></pitch><duration>96</duration><tie type="stop"/><tie type="start"/><voice>1</voice><type>whole</type><notations><tied type="stop"/><tied type="start"/></notations></note></measure><measure number="5"><note><pitch><step>E</step><alter>-1</alter><octave>4</octave></pitch><duration>72</duration><tie type="stop"/><voice>1</voice><type>half</type><dot/><stem>up</stem><notations><tied type="stop"/></notations></note><note><pitch><step>G</step><octave>3</octave></pitch><duration>12</duration><voice>1</voice><type>eighth</type><stem>up</stem><beam number="1">begin</beam></note><note><pitch><step>G</step><alter>-1</alter><octave>3</octave></pitch><duration>12</duration><voice>1</voice><type>eighth</type><accidental>flat</accidental><stem>up</stem><beam number="1">end</beam></note></measure><measure number="6"><print new-system="yes"/><harmony default-y="-20"><root><root-step>D</root-step><root-alter>-1</root-alter></root><kind>dominant</kind></harmony><note><pitch><step>F</step><octave>3</octave></pitch><duration>12</duration><voice>1</voice><type>eighth</type><stem>up</stem><beam number="1">begin</beam></note><note><pitch><step>D</step><alter>-1</alter><octave>4</octave></pitch><duration>12</duration><tie type="start"/><voice>1</voice><type>eighth</type><stem>up</stem><beam number="1">end</beam><notations><tied type="start"/></notations></note><note><pitch><step>D</step><alter>-1</alter><octave>4</octave></pitch><duration>72</duration><tie type="stop"/><voice>1</voice><type>half</type><dot/><stem>up</stem><notations><tied type="stop"/></notations></note></measure><measure number="7"><note><rest/><duration>24</duration><voice>1</voice><type>quarter</type></note><harmony relative-x="-21" default-y="-20"><root><root-step>C</root-step></root><kind>suspended-fourth</kind><degree print-object="no"><degree-value>7</degree-value><degree-alter>0</degree-alter><degree-type>add</degree-type></degree></harmony><note><rest/><duration>12</duration><voice>1</voice><type>eighth</type></note><note><pitch><step>F</step><octave>4</octave></pitch><duration>12</duration><tie type="start"/><voice>1</voice><type>eighth</type><stem>up</stem><notations><tied type="start"/></notations></note><note><pitch><step>F</step><octave>4</octave></pitch><duration>36</duration><tie type="stop"/><voice>1</voice><type>quarter</type><dot/><stem>up</stem><notations><tied type="stop"/></notations></note><note><pitch><step>G</step><octave>4</octave></pitch><duration>12</duration><tie type="start"/><voice>1</voice><type>eighth</type><stem>up</stem><notations><tied type="start"/></notations></note></measure><measure number="8"><harmony default-y="-20"><root><root-step>F</root-step></root><kind>minor-seventh</kind></harmony><note><pitch><step>G</step><octave>4</octave></pitch><duration>96</duration><tie type="stop"/><tie type="start"/><voice>1</voice><type>whole</type><notations><tied type="stop"/><tied type="start"/></notations></note></measure><measure number="9"><note><pitch><step>G</step><octave>4</octave></pitch><duration>48</duration><tie type="stop"/><voice>1</voice><type>half</type><stem>up</stem><notations><tied type="stop"/></notations></note><note><rest/><duration>12</duration><voice>1</voice><type>eighth</type></note><note><pitch><step>C</step><octave>4</octave></pitch><duration>12</duration><voice>1</voice><type>eighth</type><stem>up</stem></note><note><pitch><step>F</step><octave>4</octave></pitch><duration>12</duration><voice>1</voice><type>eighth</type><stem>up</stem><beam number="1">begin</beam></note><note><pitch><step>A</step><alter>-1</alter><octave>4</octave></pitch><duration>12</duration><voice>1</voice><type>eighth</type><stem>up</stem><beam number="1">end</beam></note><barline location="right"><bar-style>light-light</bar-style></barline></measure><measure number="10"><print new-system="yes"/><harmony default-y="-20"><root><root-step>F</root-step></root><kind>minor-seventh</kind></harmony><note><pitch><step>C</step><octave>5</octave></pitch><duration>12</duration><voice>1</voice><type>eighth</type><stem>down</stem><beam number="1">begin</beam></note><note><pitch><step>D</step><alter>-1</alter><octave>5</octave></pitch><duration>4</duration><voice>1</voice><type>16th</type><time-modification><actual-notes>3</actual-notes><normal-notes>2</normal-notes></time-modification><stem>down</stem><beam number="1">continue</beam><beam number="2">begin</beam><notations><tuplet placement="below" type="start" number="1"/></notations></note><note><pitch><step>C</step><octave>5</octave></pitch><duration>4</duration><voice>1</voice><type>16th</type><time-modification><actual-notes>3</actual-notes><normal-notes>2</normal-notes></time-modification><stem>down</stem><beam number="1">continue</beam><beam number="2">continue</beam></note><note><pitch><step>B</step><alter>-1</alter><octave>4</octave></pitch><duration>4</duration><voice>1</voice><type>16th</type><time-modification><actual-notes>3</actual-notes><normal-notes>2</normal-notes></time-modification><stem>down</stem><beam number="1">end</beam><beam number="2">end</beam><notations><tuplet type="stop" number="1"/></notations></note><note><pitch><step>A</step><alter>-1</alter><octave>4</octave></pitch><duration>12</duration><voice>1</voice><type>eighth</type><stem>up</stem><beam number="1">begin</beam></note><note><pitch><step>B</step><alter>-1</alter><octave>4</octave></pitch><duration>12</duration><tie type="start"/><voice>1</voice><type>eighth</type><stem>up</stem><beam number="1">end</beam><notations><tied type="start"/></notations></note><note><pitch><step>B</step><alter>-1</alter><octave>4</octave></pitch><duration>12</duration><tie type="stop"/><voice>1</voice><type>eighth</type><stem>down</stem><beam number="1">begin</beam><notations><tied type="stop"/></notations></note><note><pitch><step>C</step><alter>-1</alter><octave>5</octave></pitch><duration>4</duration><voice>1</voice><type>16th</type><accidental>flat</accidental><time-modification><actual-notes>3</actual-notes><normal-notes>2</normal-notes></time-modification><stem>down</stem><beam number="1">continue</beam><beam number="2">begin</beam><notations><tuplet placement="below" type="start" number="1"/></notations></note><note><pitch><step>B</step><alter>-1</alter><octave>4</octave></pitch><duration>4</duration><voice>1</voice><type>16th</type><time-modification><actual-notes>3</actual-notes><normal-notes>2</normal-notes></time-modification><stem>down</stem><beam number="1">continue</beam><beam number="2">continue</beam></note><note><pitch><step>A</step><alter>-1</alter><octave>4</octave></pitch><duration>4</duration><voice>1</voice><type>16th</type><time-modification><actual-notes>3</actual-notes><normal-notes>2</normal-notes></time-modification><stem>down</stem><beam number="1">end</beam><beam number="2">end</beam><notations><tuplet type="stop" number="1"/></notations></note><note><pitch><step>F</step><octave>4</octave></pitch><duration>12</duration><voice>1</voice><type>eighth</type><stem>up</stem><beam number="1">begin</beam></note><note><pitch><step>A</step><alter>-1</alter><octave>4</octave></pitch><duration>12</duration><tie type="start"/><voice>1</voice><type>eighth</type><stem>up</stem><beam number="1">end</beam><notations><tied type="start"/></notations></note></measure><measure number="11"><note><pitch><step>A</step><alter>-1</alter><octave>4</octave></pitch><duration>12</duration><tie type="stop"/><voice>1</voice><type>eighth</type><stem>up</stem><beam number="1">begin</beam><notations><tied type="stop"/></notations></note><note><pitch><step>B</step><alter>-1</alter><octave>4</octave></pitch><duration>4</duration><voice>1</voice><type>16th</type><time-modification><actual-notes>3</actual-notes><normal-notes>2</normal-notes></time-modification><stem>up</stem><beam number="1">continue</beam><beam number="2">begin</beam><notations><tuplet placement="above" type="start" number="1"/></notations></note><note><pitch><step>A</step><alter>-1</alter><octave>4</octave></pitch><duration>4</duration><voice>1</voice><type>16th</type><time-modification><actual-notes>3</actual-notes><normal-notes>2</normal-notes></time-modification><stem>up</stem><beam number="1">continue</beam><beam number="2">continue</beam></note><note><pitch><step>F</step><octave>4</octave></pitch><duration>4</duration><voice>1</voice><type>16th</type><time-modification><actual-notes>3</actual-notes><normal-notes>2</normal-notes></time-modification><stem>up</stem><beam number="1">end</beam><beam number="2">end</beam><notations><tuplet type="stop" number="1"/></notations></note><note><pitch><step>E</step><alter>-1</alter><octave>4</octave></pitch><duration>12</duration><voice>1</voice><type>eighth</type><stem>up</stem><beam number="1">begin</beam></note><note><pitch><step>F</step><octave>4</octave></pitch><duration>12</duration><tie type="start"/><voice>1</voice><type>eighth</type><stem>up</stem><beam number="1">end</beam><notations><tied type="start"/></notations></note><note><pitch><step>F</step><octave>4</octave></pitch><duration>12</duration><tie type="stop"/><voice>1</voice><type>eighth</type><stem>up</stem><beam number="1">begin</beam><notations><tied type="stop"/></notations></note><note><pitch><step>G</step><octave>4</octave></pitch><duration>4</duration><voice>1</voice><type>16th</type><time-modification><actual-notes>3</actual-notes><normal-notes>2</normal-notes></time-modification><stem>up</stem><beam number="1">continue</beam><beam number="2">begin</beam><notations><tuplet placement="above" type="start" number="1"/></notations></note><note><pitch><step>F</step><octave>4</octave></pitch><duration>4</duration><voice>1</voice><type>16th</type><time-modification><actual-notes>3</actual-notes><normal-notes>2</normal-notes></time-modification><stem>up</stem><beam number="1">continue</beam><beam number="2">continue</beam></note><note><pitch><step>E</step><alter>-1</alter><octave>4</octave></pitch><duration>4</duration><voice>1</voice><type>16th</type><time-modification><actual-notes>3</actual-notes><normal-notes>2</normal-notes></time-modification><stem>up</stem><beam number="1">end</beam><beam number="2">end</beam><notations><tuplet type="stop" number="1"/></notations></note><note><pitch><step>C</step><octave>4</octave></pitch><duration>12</duration><voice>1</voice><type>eighth</type><stem>up</stem><beam number="1">begin</beam></note><note><pitch><step>E</step><alter>-1</alter><octave>4</octave></pitch><duration>12</duration><tie type="start"/><voice>1</voice><type>eighth</type><stem>up</stem><beam number="1">end</beam><notations><tied type="start"/></notations></note></measure><measure number="12"><harmony default-y="-20"><root><root-step>E</root-step><root-alter>-1</root-alter></root><kind>dominant</kind></harmony><note><pitch><step>E</step><alter>-1</alter><octave>4</octave></pitch><duration>96</duration><tie type="stop"/><tie type="start"/><voice>1</voice><type>whole</type><notations><tied type="stop"/><tied type="start"/></notations></note></measure><measure number="13"><note><pitch><step>E</step><alter>-1</alter><octave>4</octave></pitch><duration>72</duration><tie type="stop"/><voice>1</voice><type>half</type><dot/><stem>up</stem><notations><tied type="stop"/></notations></note><note><pitch><step>G</step><octave>3</octave></pitch><duration>12</duration><voice>1</voice><type>eighth</type><stem>up</stem><beam number="1">begin</beam></note><note><pitch><step>G</step><alter>-1</alter><octave>3</octave></pitch><duration>12</duration><voice>1</voice><type>eighth</type><accidental>flat</accidental><stem>up</stem><beam number="1">end</beam></note></measure><measure number="14"><print new-system="yes"/><harmony default-y="-20"><root><root-step>D</root-step><root-alter>-1</root-alter></root><kind>dominant</kind></harmony><note><pitch><step>F</step><octave>3</octave></pitch><duration>12</duration><voice>1</voice><type>eighth</type><stem>up</stem><beam number="1">begin</beam></note><note><pitch><step>D</step><alter>-1</alter><octave>4</octave></pitch><duration>12</duration><tie type="start"/><voice>1</voice><type>eighth</type><stem>up</stem><beam number="1">end</beam><notations><tied type="start"/></notations></note><note><pitch><step>D</step><alter>-1</alter><octave>4</octave></pitch><duration>72</duration><tie type="stop"/><voice>1</voice><type>half</type><dot/><stem>up</stem><notations><tied type="stop"/></notations></note></measure><measure number="15"><note><rest/><duration>24</duration><voice>1</voice><type>quarter</type></note><harmony relative-x="-21" default-y="-20"><root><root-step>C</root-step></root><kind>suspended-fourth</kind><degree print-object="no"><degree-value>7</degree-value><degree-alter>0</degree-alter><degree-type>add</degree-type></degree></harmony><note><rest/><duration>12</duration><voice>1</voice><type>eighth</type></note><note><pitch><step>F</step><octave>4</octave></pitch><duration>12</duration><tie type="start"/><voice>1</voice><type>eighth</type><stem>up</stem><notations><tied type="start"/></notations></note><note><pitch><step>F</step><octave>4</octave></pitch><duration>36</duration><tie type="stop"/><voice>1</voice><type>quarter</type><dot/><stem>up</stem><notations><tied type="stop"/></notations></note><note><pitch><step>G</step><octave>4</octave></pitch><duration>12</duration><tie type="start"/><voice>1</voice><type>eighth</type><stem>up</stem><notations><tied type="start"/></notations></note></measure><measure number="16"><harmony default-y="-20"><root><root-step>F</root-step></root><kind>minor-seventh</kind></harmony><note><pitch><step>G</step><octave>4</octave></pitch><duration>96</duration><tie type="stop"/><tie type="start"/><voice>1</voice><type>whole</type><notations><tied type="stop"/><tied type="start"/></notations></note></measure><measure number="17"><note><pitch><step>G</step><octave>4</octave></pitch><duration>48</duration><tie type="stop"/><voice>1</voice><type>half</type><stem>up</stem><notations><tied type="stop"/></notations></note><note><rest/><duration>12</duration><voice>1</voice><type>eighth</type></note><note><pitch><step>E</step><alter>-1</alter><octave>4</octave></pitch><duration>12</duration><voice>1</voice><type>eighth</type><stem>up</stem></note><note><pitch><step>E</step><alter>-1</alter><octave>4</octave></pitch><duration>12</duration><voice>1</voice><type>eighth</type><stem>up</stem><beam number="1">begin</beam></note><note><pitch><step>E</step><alter>-1</alter><octave>4</octave></pitch><duration>12</duration><voice>1</voice><type>eighth</type><stem>up</stem><beam number="1">end</beam></note></measure><measure number="18"><print new-system="yes"/><harmony default-y="-20"><root><root-step>E</root-step><root-alter>-1</root-alter></root><kind>dominant</kind></harmony><note><pitch><step>E</step><alter>-1</alter><octave>4</octave></pitch><duration>12</duration><voice>1</voice><type>eighth</type><stem>up</stem></note><note><pitch><step>D</step><alter>-1</alter><octave>4</octave></pitch><duration>24</duration><voice>1</voice><type>quarter</type><stem>up</stem></note><note><pitch><step>F</step><octave>4</octave></pitch><duration>12</duration><tie type="start"/><voice>1</voice><type>eighth</type><stem>up</stem><notations><tied type="start"/></notations></note><note><pitch><step>F</step><octave>4</octave></pitch><duration>48</duration><tie type="stop"/><tie type="start"/><voice>1</voice><type>half</type><stem>up</stem><notations><tied type="stop"/><tied type="start"/></notations></note></measure><measure number="19"><note><pitch><step>F</step><octave>4</octave></pitch><duration>48</duration><tie type="stop"/><voice>1</voice><type>half</type><stem>up</stem><notations><tied type="stop"/></notations></note><note><rest/><duration>12</duration><voice>1</voice><type>eighth</type></note><note><pitch><step>F</step><octave>4</octave></pitch><duration>12</duration><voice>1</voice><type>eighth</type><stem>up</stem></note><note><pitch><step>F</step><octave>4</octave></pitch><duration>12</duration><voice>1</voice><type>eighth</type><stem>up</stem><beam number="1">begin</beam></note><note><pitch><step>F</step><octave>4</octave></pitch><duration>12</duration><voice>1</voice><type>eighth</type><stem>up</stem><beam number="1">end</beam></note></measure><measure number="20"><harmony default-y="-20"><root><root-step>F</root-step></root><kind>minor-seventh</kind></harmony><note><pitch><step>F</step><octave>4</octave></pitch><duration>12</duration><voice>1</voice><type>eighth</type><stem>up</stem></note><note><pitch><step>E</step><alter>-1</alter><octave>4</octave></pitch><duration>24</duration><voice>1</voice><type>quarter</type><stem>up</stem></note><note><pitch><step>G</step><octave>4</octave></pitch><duration>12</duration><tie type="start"/><voice>1</voice><type>eighth</type><stem>up</stem><notations><tied type="start"/></notations></note><note><pitch><step>G</step><octave>4</octave></pitch><duration>48</duration><tie type="stop"/><tie type="start"/><voice>1</voice><type>half</type><stem>up</stem><notations><tied type="stop"/><tied type="start"/></notations></note></measure><measure number="21"><note><pitch><step>G</step><octave>4</octave></pitch><duration>48</duration><tie type="stop"/><voice>1</voice><type>half</type><stem>up</stem><notations><tied type="stop"/></notations></note><note><rest/><duration>12</duration><voice>1</voice><type>eighth</type></note><note><pitch><step>E</step><alter>-1</alter><octave>4</octave></pitch><duration>12</duration><voice>1</voice><type>eighth</type><stem>up</stem></note><note><pitch><step>E</step><alter>-1</alter><octave>4</octave></pitch><duration>12</duration><voice>1</voice><type>eighth</type><stem>up</stem><beam number="1">begin</beam></note><note><pitch><step>E</step><alter>-1</alter><octave>4</octave></pitch><duration>12</duration><voice>1</voice><type>eighth</type><stem>up</stem><beam number="1">end</beam></note></measure><measure number="22"><print new-system="yes"/><harmony default-y="-20"><root><root-step>E</root-step><root-alter>-1</root-alter></root><kind>dominant</kind></harmony><note><pitch><step>E</step><alter>-1</alter><octave>4</octave></pitch><duration>12</duration><voice>1</voice><type>eighth</type><stem>up</stem></note><note><pitch><step>D</step><alter>-1</alter><octave>4</octave></pitch><duration>24</duration><voice>1</voice><type>quarter</type><stem>up</stem></note><note><pitch><step>G</step><octave>4</octave></pitch><duration>12</duration><tie type="start"/><voice>1</voice><type>eighth</type><stem>up</stem><notations><tied type="start"/></notations></note><harmony default-y="-20"><root><root-step>D</root-step><root-alter>-1</root-alter></root><kind>dominant</kind></harmony><note><pitch><step>G</step><octave>4</octave></pitch><duration>48</duration><tie type="stop"/><tie type="start"/><voice>1</voice><type>half</type><stem>up</stem><notations><tied type="stop"/><tied type="start"/></notations></note></measure><measure number="23"><harmony default-y="-20"><root><root-step>C</root-step></root><kind>dominant</kind></harmony><note><pitch><step>G</step><octave>4</octave></pitch><duration>24</duration><tie type="stop"/><voice>1</voice><type>quarter</type><stem>up</stem><notations><tied type="stop"/></notations></note><note><rest/><duration>24</duration><voice>1</voice><type>quarter</type></note><note><pitch><step>A</step><alter>-1</alter><octave>4</octave></pitch><duration>36</duration><voice>1</voice><type>quarter</type><dot/><stem>up</stem></note><note><pitch><step>B</step><alter>-1</alter><octave>4</octave></pitch><duration>12</duration><tie type="start"/><voice>1</voice><type>eighth</type><stem>down</stem><notations><tied type="start"/></notations></note></measure><measure number="24"><harmony default-y="-20"><root><root-step>F</root-step></root><kind>minor-seventh</kind></harmony><note><pitch><step>B</step><alter>-1</alter><octave>4</octave></pitch><duration>96</duration><tie type="stop"/><tie type="start"/><voice>1</voice><type>whole</type><notations><tied type="stop"/><tied type="start"/></notations></note></measure><measure number="25"><note><pitch><step>B</step><alter>-1</alter><octave>4</octave></pitch><duration>48</duration><tie type="stop"/><voice>1</voice><type>half</type><stem>down</stem><notations><tied type="stop"/></notations></note><direction placement="below"><direction-type><words font-size="10,3" font-family="Times New Roman"> ( 
</words></direction-type><offset>-12</offset></direction><note><rest/><duration>12</duration><voice>1</voice><type>eighth</type></note><note><pitch><step>C</step><octave>4</octave></pitch><duration>12</duration><voice>1</voice><type>eighth</type><stem>up</stem></note><note><pitch><step>F</step><octave>4</octave></pitch><duration>12</duration><voice>1</voice><type>eighth</type><stem>up</stem><beam number="1">begin</beam></note><direction placement="below"><direction-type><words font-size="10,3" font-family="Times New Roman"> ) 
</words></direction-type></direction><note><pitch><step>A</step><alter>-1</alter><octave>4</octave></pitch><duration>12</duration><voice>1</voice><type>eighth</type><stem>up</stem><beam number="1">end</beam></note><barline location="right"><bar-style>light-heavy</bar-style></barline></measure></part></score-partwise>