<score-partwise version="2.0"><work><work-number/><work-title/></work><movement-number/><movement-title>Cry Me A River</movement-title><identification><creator type="composer">Arthur Hamilton</creator><creator type="poet"/><rights>All Rights Reserved</rights><encoding><software>PrintMusic 2008 for Macintosh</software><software>Dolet Light for PrintMusic 2008</software><encoding-date>2009-02-20</encoding-date><software>ProxyMusic 2.0 c</software></encoding><source>http://wikifonia.org/node/1341/revisions/5349/view</source></identification><defaults><scaling><millimeters>7.2319</millimeters><tenths>40</tenths></scaling><page-layout><page-height>1545</page-height><page-width>1194</page-width><page-margins type="both"><left-margin>70</left-margin><right-margin>70</right-margin><top-margin>88</top-margin><bottom-margin>88</bottom-margin></page-margins></page-layout><system-layout><system-margins><left-margin>0</left-margin><right-margin>0</right-margin></system-margins><system-distance>121</system-distance><top-system-distance>70</top-system-distance></system-layout><music-font font-size="20.5" font-family="Jazz"/><word-font font-size="12" font-family="JazzText"/></defaults><credit><credit-words font-weight="bold" font-size="24" default-y="1473" default-x="593" justify="right" halign="center" valign="top">Cry Me A River</credit-words></credit><credit><credit-words font-weight="bold" font-size="12" default-y="1422" default-x="1116" justify="right" valign="top">Arthur Hamilton</credit-words></credit><part-list><score-part id="P1"><part-name print-object="no">MusicXML Part</part-name><score-instrument id="P1-I2"><instrument-name>Acoustic Bass</instrument-name></score-instrument><midi-instrument id="P1-I2"><midi-channel>2</midi-channel><midi-program>33</midi-program></midi-instrument></score-part></part-list><part id="P1"><measure width="357" number="1"><print><system-layout><top-system-distance>211</top-system-distance></system-layout></print><barline location="left"><bar-style>heavy-light</bar-style><repeat direction="forward"/></barline><attributes><divisions>12</divisions><key><fifths>-1</fifths><mode>major</mode></key><time symbol="common"><beats>4</beats><beat-type>4</beat-type></time><clef><sign>G</sign><line>2</line></clef></attributes><direction placement="above"><direction-type><metronome relative-x="-4" default-y="112"><beat-unit>quarter</beat-unit><per-minute>80</per-minute></metronome></direction-type><sound tempo="80"/></direction><direction placement="above"><direction-type><rehearsal font-size="13.7" default-y="54" default-x="-2">A</rehearsal></direction-type></direction><harmony font-size="15.4" default-y="36"><root><root-step>D</root-step></root><kind text="min">minor</kind></harmony><note default-x="140"><pitch><step>E</step><octave>5</octave></pitch><duration>24</duration><tie type="start"/><voice>1</voice><type>half</type><stem default-y="-40">down</stem><notations><tied type="start"/></notations></note><harmony font-size="15.4" default-y="36"><root><root-step>B</root-step><root-alter>-1</root-alter></root><kind text="">major</kind><bass><bass-step>D</bass-step></bass></harmony><note default-x="225"><pitch><step>E</step><octave>5</octave></pitch><duration>6</duration><tie type="stop"/><voice>1</voice><type>eighth</type><stem default-y="-65">down</stem><beam number="1">begin</beam><notations><tied type="stop"/></notations></note><note default-x="258"><pitch><step>D</step><octave>5</octave></pitch><duration>6</duration><voice>1</voice><type>eighth</type><stem default-y="-66.5">down</stem><beam number="1">continue</beam></note><note default-x="291"><pitch><step>A</step><octave>4</octave></pitch><duration>6</duration><voice>1</voice><type>eighth</type><stem default-y="-68">down</stem><beam number="1">continue</beam></note><note default-x="323"><pitch><step>F</step><octave>4</octave></pitch><duration>6</duration><voice>1</voice><type>eighth</type><stem default-y="-70">down</stem><beam number="1">end</beam></note></measure><measure width="217" number="2"><harmony font-size="15.4" default-y="36"><root><root-step>D</root-step></root><kind text="min6">minor-sixth</kind></harmony><note default-x="10"><pitch><step>E</step><octave>4</octave></pitch><duration>6</duration><voice>1</voice><type>eighth</type><stem default-y="-5">up</stem><beam number="1">begin</beam></note><note default-x="47"><pitch><step>D</step><octave>4</octave></pitch><duration>6</duration><tie type="start"/><voice>1</voice><type>eighth</type><stem default-y="-7.5">up</stem><beam number="1">end</beam><notations><tied type="start"/></notations></note><harmony font-size="15.4" default-y="36"><root><root-step>D</root-step></root><kind text="min7">minor-seventh</kind></harmony><note default-x="87"><pitch><step>D</step><octave>4</octave></pitch><duration>36</duration><tie type="stop"/><voice>1</voice><type>half</type><dot/><stem default-y="-9.5">up</stem><notations><tied type="stop"/></notations></note></measure><measure width="246" number="3"><harmony font-size="15.4" relative-x="12" default-y="36"><root><root-step>G</root-step></root><kind text="min7">minor-seventh</kind></harmony><note default-x="11"><rest/><duration>6</duration><voice>1</voice><type>eighth</type></note><note default-x="43"><pitch><step>D</step><octave>4</octave></pitch><duration>6</duration><voice>1</voice><type>eighth</type><stem default-y="20">up</stem><beam number="1">begin</beam></note><note default-x="75"><pitch><step>F</step><octave>4</octave></pitch><duration>6</duration><voice>1</voice><type>eighth</type><stem default-y="23">up</stem><beam number="1">continue</beam></note><note default-x="108"><pitch><step>D</step><octave>5</octave></pitch><duration>6</duration><voice>1</voice><type>eighth</type><stem default-y="25">up</stem><beam number="1">end</beam></note><harmony font-size="15.4" default-y="36"><root><root-step>C</root-step></root><kind text="7">dominant</kind></harmony><note default-x="140"><pitch><step>C</step><octave>5</octave></pitch><duration>12</duration><voice>1</voice><type>quarter</type><stem default-y="-50.5">down</stem></note><note default-x="192"><pitch><step>C</step><octave>5</octave></pitch><duration>12</duration><voice>1</voice><type>quarter</type><stem default-y="-50.5">down</stem></note></measure><measure width="233" number="4"><harmony font-size="15.4" default-y="36"><root><root-step>F</root-step></root><kind text="Maj7">major-seventh</kind></harmony><note default-x="10"><pitch><step>A</step><octave>4</octave></pitch><duration>24</duration><tie type="start"/><voice>1</voice><type>half</type><stem default-y="10.5">up</stem><notations><tied type="start"/></notations></note><harmony font-size="15.4" relative-x="18" default-y="34"><root><root-step>E</root-step></root><kind text="min7">minor-seventh</kind></harmony><note default-x="98"><pitch><step>A</step><octave>4</octave></pitch><duration>6</duration><tie type="stop"/><voice>1</voice><type>eighth</type><stem default-y="10">up</stem><beam number="1">begin</beam><notations><tied type="stop"/></notations></note><note default-x="131"><pitch><step>A</step><octave>4</octave></pitch><duration>6</duration><voice>1</voice><type>eighth</type><stem default-y="10">up</stem><beam number="1">continue</beam></note><harmony font-size="15.4" default-y="36"><root><root-step>A</root-step></root><kind text="7">dominant</kind></harmony><note default-x="164"><pitch><step>G</step><alter>1</alter><octave>4</octave></pitch><duration>6</duration><voice>1</voice><type>eighth</type><accidental>sharp</accidental><stem default-y="10">up</stem><beam number="1">continue</beam></note><note default-x="198"><pitch><step>A</step><octave>4</octave></pitch><duration>6</duration><voice>1</voice><type>eighth</type><stem default-y="10">up</stem><beam number="1">end</beam></note></measure><measure width="250" number="5"><print new-system="yes"><system-layout><system-distance>169</system-distance></system-layout></print><harmony font-size="15.4" default-y="31"><root><root-step>A</root-step></root><kind text="min7">minor-seventh</kind></harmony><note default-x="40"><pitch><step>D</step><octave>5</octave></pitch><duration>12</duration><tie type="start"/><voice>1</voice><type>quarter</type><stem default-y="-45">down</stem><notations><tied type="start"/></notations></note><note default-x="84"><pitch><step>D</step><octave>5</octave></pitch><duration>4</duration><tie type="stop"/><voice>1</voice><type>eighth</type><time-modification><actual-notes>3</actual-notes><normal-notes>2</normal-notes></time-modification><stem default-y="-45">down</stem><beam number="1">begin</beam><notations><tied type="stop"/><tuplet placement="above" type="start" number="1" bracket="yes"/></notations></note><note default-x="117"><pitch><step>E</step><alter>-1</alter><octave>5</octave></pitch><duration>4</duration><voice>1</voice><type>eighth</type><accidental>flat</accidental><time-modification><actual-notes>3</actual-notes><normal-notes>2</normal-notes></time-modification><stem default-y="-45">down</stem><beam number="1">continue</beam></note><note default-x="139"><pitch><step>D</step><octave>5</octave></pitch><duration>4</duration><voice>1</voice><type>eighth</type><time-modification><actual-notes>3</actual-notes><normal-notes>2</normal-notes></time-modification><stem default-y="-45">down</stem><beam number="1">end</beam><notations><tuplet type="stop" number="1"/></notations></note><harmony font-size="15.4" default-y="35"><root><root-step>D</root-step></root><kind text="7" parentheses-degrees="yes">dominant</kind><degree><degree-value>9</degree-value><degree-alter>-1</degree-alter><degree-type>add</degree-type></degree></harmony><note default-x="161"><pitch><step>E</step><alter>-1</alter><octave>5</octave></pitch><duration>6</duration><voice>1</voice><type>eighth</type><stem default-y="-40">down</stem></note><note default-x="189"><pitch><step>D</step><octave>5</octave></pitch><duration>18</duration><voice>1</voice><type>quarter</type><dot/><stem default-y="-45">down</stem></note></measure><measure width="247" number="6"><harmony font-size="15.4" default-y="31"><root><root-step>D</root-step></root><kind text="min7">minor-seventh</kind></harmony><note default-x="10"><rest/><duration>6</duration><voice>1</voice><type>eighth</type></note><note default-x="39"><pitch><step>A</step><octave>4</octave></pitch><duration>6</duration><tie type="start"/><voice>1</voice><type>eighth</type><stem default-y="10.5">up</stem><notations><tied type="start"/></notations></note><note default-x="82"><pitch><step>A</step><octave>4</octave></pitch><duration>4</duration><tie type="stop"/><voice>1</voice><type>eighth</type><time-modification><actual-notes>3</actual-notes><normal-notes>2</normal-notes></time-modification><stem default-y="10">up</stem><beam number="1">begin</beam><notations><tied type="stop"/><tuplet placement="above" type="start" number="1" bracket="yes"/></notations></note><note default-x="105"><pitch><step>G</step><octave>4</octave></pitch><duration>4</duration><voice>1</voice><type>eighth</type><time-modification><actual-notes>3</actual-notes><normal-notes>2</normal-notes></time-modification><stem default-y="7.5">up</stem><beam number="1">continue</beam></note><note default-x="128"><pitch><step>F</step><octave>4</octave></pitch><duration>4</duration><voice>1</voice><type>eighth</type><time-modification><actual-notes>3</actual-notes><normal-notes>2</normal-notes></time-modification><stem default-y="5">up</stem><beam number="1">end</beam><notations><tuplet type="stop" number="1"/></notations></note><harmony font-size="15.4" default-y="31"><root><root-step>G</root-step></root><kind text="9">dominant-ninth</kind></harmony><note default-x="151"><pitch><step>G</step><octave>4</octave></pitch><duration>6</duration><voice>1</voice><type>eighth</type><stem default-y="5.5">up</stem></note><note default-x="185"><pitch><step>A</step><octave>4</octave></pitch><duration>18</duration><voice>1</voice><type>quarter</type><dot/><stem default-y="10.5">up</stem></note></measure><measure width="234" number="7"><harmony font-size="15.4" default-y="31"><root><root-step>D</root-step><root-alter>-1</root-alter></root><kind text="9">dominant-ninth</kind></harmony><note default-x="11"><rest/><duration>6</duration><voice>1</voice><type>eighth</type></note><note default-x="42"><pitch><step>A</step><alter>-1</alter><octave>4</octave></pitch><duration>6</duration><voice>1</voice><type>eighth</type><accidental>flat</accidental><stem default-y="10">up</stem><beam number="1">begin</beam></note><note default-x="69"><pitch><step>G</step><octave>4</octave></pitch><duration>6</duration><voice>1</voice><type>eighth</type><stem default-y="7.5">up</stem><beam number="1">continue</beam></note><note default-x="97"><pitch><step>F</step><octave>4</octave></pitch><duration>6</duration><voice>1</voice><type>eighth</type><stem default-y="5">up</stem><beam number="1">end</beam></note><harmony font-size="15.4" relative-x="29" default-y="29"><root><root-step>C</root-step></root><kind text="7sus4">suspended-fourth</kind><degree print-object="no"><degree-value>7</degree-value><degree-alter>0</degree-alter><degree-type>add</degree-type></degree></harmony><note default-x="124"><pitch><step>G</step><octave>4</octave></pitch><duration>6</duration><voice>1</voice><type>eighth</type><stem default-y="5">up</stem><beam number="1">begin</beam></note><note default-x="151"><pitch><step>F</step><octave>4</octave></pitch><duration>6</duration><voice>1</voice><type>eighth</type><stem default-y="4.5">up</stem><beam number="1">continue</beam></note><note default-x="178"><pitch><step>D</step><octave>4</octave></pitch><duration>6</duration><voice>1</voice><type>eighth</type><stem default-y="3.5">up</stem><beam number="1">continue</beam></note><note default-x="206"><pitch><step>F</step><octave>4</octave></pitch><duration>6</duration><voice>1</voice><type>eighth</type><stem default-y="2.5">up</stem><beam number="1">end</beam></note></measure><measure width="170" number="8"><barline location="left"><ending font-size="8.5" default-y="95" type="start" number="1" end-length="30"/></barline><harmony font-size="15.4" default-y="23"><root><root-step>F</root-step></root><kind text="69">major-sixth</kind><degree print-object="no"><degree-value>9</degree-value><degree-alter>0</degree-alter><degree-type>add</degree-type></degree></harmony><note default-x="10"><pitch><step>F</step><octave>4</octave></pitch><duration>48</duration><voice>1</voice><type>whole</type></note><backup><duration>48</duration></backup><note print-object="no"><cue/><pitch><step>F</step><octave>4</octave></pitch><duration>24</duration><voice>2</voice><type size="full">half</type><stem>up</stem></note><harmony font-size="15.4" default-y="25"><root><root-step>A</root-step></root><kind use-symbols="yes">augmented-seventh</kind></harmony><note print-object="no"><cue/><pitch><step>F</step><octave>4</octave></pitch><duration>24</duration><voice>2</voice><type size="full">half</type><stem>up</stem></note><barline location="right"><bar-style>light-heavy</bar-style><ending type="stop" number="1"/><repeat direction="backward"/></barline></measure><measure width="153" number="9"><barline location="left"><ending font-size="8.5" default-y="95" type="start" number="2" end-length="30"/></barline><harmony font-size="15.4" relative-x="14" default-y="20"><root><root-step>F</root-step></root><kind text="69">major-sixth</kind><degree print-object="no"><degree-value>9</degree-value><degree-alter>0</degree-alter><degree-type>add</degree-type></degree></harmony><note default-x="8"><pitch><step>F</step><octave>4</octave></pitch><duration>48</duration><voice>1</voice><type>whole</type></note><backup><duration>48</duration></backup><note print-object="no"><cue/><pitch><step>G</step><octave>4</octave></pitch><duration>24</duration><voice>2</voice><type size="full">half</type><stem>up</stem></note><harmony font-size="15.4" relative-x="25" default-y="23"><root><root-step>E</root-step></root><kind text="7" parentheses-degrees="yes">dominant</kind><degree><degree-value>9</degree-value><degree-alter>1</degree-alter><degree-type>add</degree-type></degree></harmony><note print-object="no"><cue/><pitch><step>F</step><octave>4</octave></pitch><duration>24</duration><voice>2</voice><type size="full">half</type><stem>up</stem></note><barline location="right"><bar-style>light-light</bar-style><ending type="discontinue" number="2"/></barline></measure><measure width="346" number="10"><print new-system="yes"><system-layout><system-distance>157</system-distance></system-layout></print><direction placement="above"><direction-type><rehearsal font-size="13.7" default-y="65" default-x="-4">B</rehearsal></direction-type></direction><harmony font-size="15.4" relative-x="25" default-y="22"><root><root-step>A</root-step></root><kind text="min7">minor-seventh</kind></harmony><note default-x="39"><pitch><step>G</step><octave>4</octave></pitch><duration>6</duration><voice>1</voice><type>eighth</type><stem default-y="15">up</stem><beam number="1">begin</beam></note><note default-x="77"><pitch><step>A</step><octave>4</octave></pitch><duration>6</duration><voice>1</voice><type>eighth</type><stem default-y="17">up</stem><beam number="1">continue</beam></note><note default-x="115"><pitch><step>B</step><octave>4</octave></pitch><duration>6</duration><voice>1</voice><type>eighth</type><accidental>natural</accidental><stem default-y="19">up</stem><beam number="1">continue</beam></note><note default-x="154"><pitch><step>C</step><octave>5</octave></pitch><duration>6</duration><voice>1</voice><type>eighth</type><stem default-y="20">up</stem><beam number="1">end</beam></note><harmony font-size="15.4" relative-x="41" default-y="26"><root><root-step>F</root-step><root-alter>1</root-alter></root><kind text="m7" parentheses-degrees="yes">minor-seventh</kind><degree><degree-value>5</degree-value><degree-alter>-1</degree-alter><degree-type>alter</degree-type></degree></harmony><note default-x="192"><pitch><step>E</step><octave>4</octave></pitch><duration>6</duration><voice>1</voice><type>eighth</type><stem default-y="5">up</stem><beam number="1">begin</beam></note><note default-x="230"><pitch><step>F</step><alter>1</alter><octave>4</octave></pitch><duration>6</duration><voice>1</voice><type>eighth</type><accidental>sharp</accidental><stem default-y="7">up</stem><beam number="1">continue</beam></note><note default-x="268"><pitch><step>G</step><alter>1</alter><octave>4</octave></pitch><duration>6</duration><voice>1</voice><type>eighth</type><accidental>sharp</accidental><stem default-y="8.5">up</stem><beam number="1">continue</beam></note><note default-x="306"><pitch><step>A</step><octave>4</octave></pitch><duration>6</duration><voice>1</voice><type>eighth</type><stem default-y="10">up</stem><beam number="1">end</beam></note></measure><measure width="278" number="11"><harmony font-size="15.4" default-y="28"><root><root-step>F</root-step></root><kind text="7">dominant</kind></harmony><note default-x="22"><pitch><step>B</step><octave>4</octave></pitch><duration>6</duration><voice>1</voice><type>eighth</type><accidental>natural</accidental><stem default-y="-60">down</stem><beam number="1">begin</beam></note><note default-x="58"><pitch><step>A</step><octave>4</octave></pitch><duration>6</duration><voice>1</voice><type>eighth</type><stem default-y="-60">down</stem><beam number="1">continue</beam></note><note default-x="94"><pitch><step>C</step><octave>5</octave></pitch><duration>6</duration><voice>1</voice><type>eighth</type><stem default-y="-60">down</stem><beam number="1">continue</beam></note><note default-x="129"><pitch><step>B</step><octave>4</octave></pitch><duration>6</duration><tie type="start"/><voice>1</voice><type>eighth</type><stem default-y="-60">down</stem><beam number="1">end</beam><notations><tied type="start"/></notations></note><harmony font-size="15.4" relative-x="20" default-y="30"><root><root-step>E</root-step></root><kind text="7" parentheses-degrees="yes">dominant</kind><degree><degree-value>9</degree-value><degree-alter>-1</degree-alter><degree-type>add</degree-type></degree></harmony><note default-x="165"><pitch><step>B</step><octave>4</octave></pitch><duration>18</duration><tie type="stop"/><voice>1</voice><type>quarter</type><dot/><stem default-y="-55.5">down</stem><notations><tied type="stop"/></notations></note><note default-x="241"><pitch><step>A</step><octave>4</octave></pitch><duration>6</duration><voice>1</voice><type>eighth</type><stem default-y="11">up</stem></note></measure><measure width="283" number="12"><harmony font-size="15.4" relative-x="12" default-y="32"><root><root-step>A</root-step></root><kind text="min7">minor-seventh</kind></harmony><note default-x="10"><pitch><step>C</step><octave>5</octave></pitch><duration>6</duration><voice>1</voice><type>eighth</type><stem default-y="-50">down</stem><beam number="1">begin</beam></note><note default-x="46"><pitch><step>D</step><octave>5</octave></pitch><duration>6</duration><voice>1</voice><type>eighth</type><stem default-y="-48">down</stem><beam number="1">continue</beam></note><note default-x="81"><pitch><step>E</step><octave>5</octave></pitch><duration>6</duration><voice>1</voice><type>eighth</type><stem default-y="-47">down</stem><beam number="1">continue</beam></note><note default-x="117"><pitch><step>D</step><octave>5</octave></pitch><duration>6</duration><tie type="start"/><voice>1</voice><type>eighth</type><stem default-y="-45">down</stem><beam number="1">end</beam><notations><tied type="start"/></notations></note><harmony font-size="15.4" relative-x="25" default-y="30"><root><root-step>F</root-step><root-alter>1</root-alter></root><kind text="m7" parentheses-degrees="yes">minor-seventh</kind><degree><degree-value>5</degree-value><degree-alter>-1</degree-alter><degree-type>alter</degree-type></degree></harmony><note default-x="153"><pitch><step>D</step><octave>5</octave></pitch><duration>12</duration><tie type="stop"/><voice>1</voice><type>quarter</type><stem default-y="-45">down</stem><notations><tied type="stop"/></notations></note><note default-x="210"><pitch><step>C</step><octave>5</octave></pitch><duration>6</duration><voice>1</voice><type>eighth</type><stem default-y="-50">down</stem><beam number="1">begin</beam></note><note default-x="246"><pitch><step>D</step><octave>5</octave></pitch><duration>6</duration><tie type="start"/><voice>1</voice><type>eighth</type><stem default-y="-45">down</stem><beam number="1">end</beam><notations><tied type="start"/></notations></note></measure><measure width="146" number="13"><harmony font-size="15.4" relative-x="13" default-y="30"><root><root-step>B</root-step><root-alter>-1</root-alter></root><kind text="7" parentheses-degrees="yes">dominant</kind><degree><degree-value>9</degree-value><degree-alter>1</degree-alter><degree-type>add</degree-type></degree></harmony><note default-x="10"><pitch><step>D</step><octave>5</octave></pitch><duration>48</duration><tie type="stop"/><voice>1</voice><type>whole</type><notations><tied type="stop"/></notations></note></measure><measure width="300" number="14"><print new-system="yes"><system-layout><system-distance>160</system-distance></system-layout></print><harmony font-size="15.4" default-y="36"><root><root-step>A</root-step></root><kind text="min7">minor-seventh</kind></harmony><note default-x="40"><rest/><duration>6</duration><voice>1</voice><type>eighth</type></note><note default-x="69"><pitch><step>A</step><octave>4</octave></pitch><duration>6</duration><voice>1</voice><type>eighth</type><stem default-y="-60">down</stem><beam number="1">begin</beam></note><note default-x="104"><pitch><step>B</step><octave>4</octave></pitch><duration>6</duration><voice>1</voice><type>eighth</type><accidental>natural</accidental><stem default-y="-57">down</stem><beam number="1">continue</beam></note><note default-x="135"><pitch><step>C</step><octave>5</octave></pitch><duration>6</duration><voice>1</voice><type>eighth</type><stem default-y="-55">down</stem><beam number="1">end</beam></note><harmony font-size="15.4" default-y="36"><root><root-step>F</root-step><root-alter>1</root-alter></root><kind text="m7" parentheses-degrees="yes">minor-seventh</kind><degree><degree-value>5</degree-value><degree-alter>-1</degree-alter><degree-type>alter</degree-type></degree></harmony><note default-x="165"><pitch><step>E</step><octave>4</octave></pitch><duration>6</duration><voice>1</voice><type>eighth</type><stem default-y="5">up</stem><beam number="1">begin</beam></note><note default-x="201"><pitch><step>F</step><alter>1</alter><octave>4</octave></pitch><duration>6</duration><voice>1</voice><type>eighth</type><accidental>sharp</accidental><stem default-y="7">up</stem><beam number="1">continue</beam></note><note default-x="237"><pitch><step>G</step><alter>1</alter><octave>4</octave></pitch><duration>6</duration><voice>1</voice><type>eighth</type><accidental>sharp</accidental><stem default-y="9">up</stem><beam number="1">continue</beam></note><note default-x="268"><pitch><step>A</step><octave>4</octave></pitch><duration>6</duration><voice>1</voice><type>eighth</type><stem default-y="10">up</stem><beam number="1">end</beam></note></measure><measure width="218" number="15"><harmony font-size="15.4" default-y="36"><root><root-step>F</root-step></root><kind text="7">dominant</kind></harmony><note default-x="24"><pitch><step>B</step><octave>4</octave></pitch><duration>6</duration><voice>1</voice><type>eighth</type><accidental>natural</accidental><stem default-y="-60">down</stem><beam number="1">begin</beam></note><note default-x="53"><pitch><step>A</step><octave>4</octave></pitch><duration>6</duration><voice>1</voice><type>eighth</type><stem default-y="-60">down</stem><beam number="1">continue</beam></note><note default-x="81"><pitch><step>C</step><octave>5</octave></pitch><duration>6</duration><voice>1</voice><type>eighth</type><stem default-y="-60">down</stem><beam number="1">continue</beam></note><note default-x="109"><pitch><step>B</step><octave>4</octave></pitch><duration>6</duration><tie type="start"/><voice>1</voice><type>eighth</type><stem default-y="-60">down</stem><beam number="1">end</beam><notations><tied type="start"/></notations></note><harmony font-size="15.4" default-y="36"><root><root-step>E</root-step></root><kind text="7" parentheses-degrees="yes">dominant</kind><degree><degree-value>9</degree-value><degree-alter>-1</degree-alter><degree-type>add</degree-type></degree></harmony><note default-x="143"><pitch><step>B</step><octave>4</octave></pitch><duration>24</duration><tie type="stop"/><voice>1</voice><type>half</type><stem default-y="-55.5">down</stem><notations><tied type="stop"/></notations></note></measure><measure width="268" number="16"><harmony font-size="15.4" default-y="36"><root><root-step>A</root-step></root><kind text="Maj7">major-seventh</kind></harmony><note default-x="10"><rest/><duration>6</duration><voice>1</voice><type>eighth</type></note><note default-x="43"><pitch><step>B</step><octave>4</octave></pitch><duration>3</duration><voice>1</voice><type>16th</type><accidental>natural</accidental><stem default-y="15">up</stem><beam number="1">begin</beam><beam number="2">begin</beam></note><note default-x="62"><pitch><step>A</step><octave>4</octave></pitch><duration>3</duration><voice>1</voice><type>16th</type><stem default-y="10">up</stem><beam number="1">end</beam><beam number="2">end</beam></note><note default-x="82"><pitch><step>B</step><octave>4</octave></pitch><duration>6</duration><voice>1</voice><type>eighth</type><stem default-y="15">up</stem><beam number="1">begin</beam></note><note default-x="112"><pitch><step>A</step><octave>4</octave></pitch><duration>6</duration><voice>1</voice><type>eighth</type><stem default-y="10">up</stem><beam number="1">end</beam></note><note default-x="143"><pitch><step>B</step><octave>4</octave></pitch><duration>6</duration><voice>1</voice><type>eighth</type><stem default-y="23.5">up</stem><beam number="1">begin</beam></note><note default-x="173"><pitch><step>A</step><octave>4</octave></pitch><duration>6</duration><voice>1</voice><type>eighth</type><stem default-y="22">up</stem><beam number="1">continue</beam></note><note default-x="206"><pitch><step>C</step><alter>1</alter><octave>5</octave></pitch><duration>6</duration><voice>1</voice><type>eighth</type><accidental>sharp</accidental><stem default-y="20">up</stem><beam number="1">continue</beam></note><note default-x="236"><pitch><step>A</step><octave>4</octave></pitch><duration>6</duration><voice>1</voice><type>eighth</type><stem default-y="18.5">up</stem><beam number="1">end</beam></note></measure><measure width="268" number="17"><harmony font-size="15.4" default-y="33"><root><root-step>E</root-step></root><kind text="min7">minor-seventh</kind></harmony><note default-x="11"><rest/><duration>6</duration><voice>1</voice><type>eighth</type></note><note default-x="42"><pitch><step>B</step><octave>4</octave></pitch><duration>3</duration><voice>1</voice><type>16th</type><accidental>natural</accidental><stem default-y="15">up</stem><beam number="1">begin</beam><beam number="2">begin</beam></note><note default-x="62"><pitch><step>A</step><octave>4</octave></pitch><duration>3</duration><voice>1</voice><type>16th</type><stem default-y="10">up</stem><beam number="1">end</beam><beam number="2">end</beam></note><note default-x="82"><pitch><step>B</step><octave>4</octave></pitch><duration>6</duration><voice>1</voice><type>eighth</type><stem default-y="15">up</stem><beam number="1">begin</beam></note><note default-x="112"><pitch><step>A</step><octave>4</octave></pitch><duration>6</duration><voice>1</voice><type>eighth</type><stem default-y="10">up</stem><beam number="1">end</beam></note><harmony font-size="15.4" default-y="36"><root><root-step>A</root-step></root><kind text="7sus4">suspended-fourth</kind><degree print-object="no"><degree-value>7</degree-value><degree-alter>0</degree-alter><degree-type>add</degree-type></degree></harmony><note default-x="142"><pitch><step>B</step><octave>4</octave></pitch><duration>6</duration><voice>1</voice><type>eighth</type><stem default-y="23.5">up</stem><beam number="1">begin</beam></note><note default-x="173"><pitch><step>A</step><octave>4</octave></pitch><duration>6</duration><voice>1</voice><type>eighth</type><stem default-y="22">up</stem><beam number="1">continue</beam></note><harmony font-size="15.4" default-y="36"><root><root-step>A</root-step></root><kind text="7">dominant</kind></harmony><note default-x="205"><pitch><step>C</step><alter>1</alter><octave>5</octave></pitch><duration>6</duration><voice>1</voice><type>eighth</type><accidental>sharp</accidental><stem default-y="20">up</stem><beam number="1">continue</beam></note><note default-x="236"><pitch><step>A</step><octave>4</octave></pitch><duration>6</duration><voice>1</voice><type>eighth</type><stem default-y="18.5">up</stem><beam number="1">end</beam></note></measure><measure width="278" number="18"><print new-system="yes"><system-layout><system-distance>160</system-distance></system-layout></print><direction placement="above"><direction-type><rehearsal font-size="13.7" default-y="64" default-x="-4">A</rehearsal></direction-type></direction><harmony font-size="15.4" default-y="23"><root><root-step>D</root-step></root><kind text="min7">minor-seventh</kind></harmony><note default-x="40"><pitch><step>E</step><octave>5</octave></pitch><duration>24</duration><tie type="start"/><voice>1</voice><type>half</type><stem default-y="-40.5">down</stem><notations><tied type="start"/></notations></note><harmony font-size="15.4" default-y="23"><root><root-step>B</root-step><root-alter>-1</root-alter></root><kind text="">major</kind><bass><bass-step>D</bass-step></bass></harmony><note default-x="133"><pitch><step>E</step><octave>5</octave></pitch><duration>6</duration><tie type="stop"/><voice>1</voice><type>eighth</type><stem default-y="-65">down</stem><beam number="1">begin</beam><notations><tied type="stop"/></notations></note><note default-x="169"><pitch><step>D</step><octave>5</octave></pitch><duration>6</duration><voice>1</voice><type>eighth</type><stem default-y="-66">down</stem><beam number="1">continue</beam></note><note default-x="205"><pitch><step>A</step><octave>4</octave></pitch><duration>6</duration><voice>1</voice><type>eighth</type><stem default-y="-68">down</stem><beam number="1">continue</beam></note><note default-x="241"><pitch><step>F</step><octave>4</octave></pitch><duration>6</duration><voice>1</voice><type>eighth</type><stem default-y="-70">down</stem><beam number="1">end</beam></note></measure><measure width="238" number="19"><harmony font-size="15.4" default-y="23"><root><root-step>D</root-step></root><kind text="min6">minor-sixth</kind></harmony><note default-x="10"><pitch><step>E</step><octave>4</octave></pitch><duration>6</duration><voice>1</voice><type>eighth</type><stem default-y="-5">up</stem><beam number="1">begin</beam></note><note default-x="52"><pitch><step>D</step><octave>4</octave></pitch><duration>6</duration><tie type="start"/><voice>1</voice><type>eighth</type><stem default-y="-7">up</stem><beam number="1">end</beam><notations><tied type="start"/></notations></note><harmony font-size="15.4" default-y="23"><root><root-step>D</root-step></root><kind text="min7">minor-seventh</kind></harmony><note default-x="93"><pitch><step>D</step><octave>4</octave></pitch><duration>36</duration><tie type="stop"/><voice>1</voice><type>half</type><dot/><stem default-y="-9">up</stem><notations><tied type="stop"/></notations></note></measure><measure width="270" number="20"><harmony font-size="15.4" relative-x="20" default-y="23"><root><root-step>G</root-step></root><kind text="min7">minor-seventh</kind></harmony><note default-x="11"><rest/><duration>6</duration><voice>1</voice><type>eighth</type></note><note default-x="46"><pitch><step>D</step><octave>4</octave></pitch><duration>6</duration><voice>1</voice><type>eighth</type><stem default-y="20">up</stem><beam number="1">begin</beam></note><note default-x="82"><pitch><step>F</step><octave>4</octave></pitch><duration>6</duration><voice>1</voice><type>eighth</type><stem default-y="22.5">up</stem><beam number="1">continue</beam></note><note default-x="117"><pitch><step>D</step><octave>5</octave></pitch><duration>6</duration><voice>1</voice><type>eighth</type><stem default-y="25">up</stem><beam number="1">end</beam></note><harmony font-size="15.4" default-y="23"><root><root-step>C</root-step></root><kind text="7">dominant</kind></harmony><note default-x="154"><pitch><step>C</step><octave>5</octave></pitch><duration>12</duration><voice>1</voice><type>quarter</type><stem default-y="-50">down</stem></note><note default-x="211"><pitch><step>C</step><octave>5</octave></pitch><duration>12</duration><voice>1</voice><type>quarter</type><stem default-y="-50">down</stem></note></measure><measure width="267" number="21"><harmony font-size="15.4" default-y="23"><root><root-step>F</root-step></root><kind text="Maj7">major-seventh</kind></harmony><note default-x="10"><pitch><step>A</step><octave>4</octave></pitch><duration>24</duration><tie type="start"/><voice>1</voice><type>half</type><stem default-y="11">up</stem><notations><tied type="start"/></notations></note><note default-x="111"><pitch><step>A</step><octave>4</octave></pitch><duration>6</duration><tie type="stop"/><voice>1</voice><type>eighth</type><stem default-y="10">up</stem><beam number="1">begin</beam><notations><tied type="stop"/></notations></note><note default-x="149"><pitch><step>A</step><octave>4</octave></pitch><duration>6</duration><voice>1</voice><type>eighth</type><stem default-y="10">up</stem><beam number="1">continue</beam></note><harmony font-size="15.4" default-y="23"><root><root-step>A</root-step></root><kind text="7">dominant</kind></harmony><note default-x="188"><pitch><step>G</step><alter>1</alter><octave>4</octave></pitch><duration>6</duration><voice>1</voice><type>eighth</type><accidental>sharp</accidental><stem default-y="10">up</stem><beam number="1">continue</beam></note><note default-x="227"><pitch><step>A</step><octave>4</octave></pitch><duration>6</duration><voice>1</voice><type>eighth</type><stem default-y="10">up</stem><beam number="1">end</beam></note></measure><measure width="299" number="22"><print new-system="yes"><system-layout><system-distance>171</system-distance></system-layout></print><harmony font-size="15.4" relative-x="15" default-y="34"><root><root-step>A</root-step></root><kind text="min7">minor-seventh</kind></harmony><note default-x="40"><pitch><step>D</step><octave>5</octave></pitch><duration>12</duration><tie type="start"/><voice>1</voice><type>quarter</type><stem default-y="-45">down</stem><notations><tied type="start"/></notations></note><note default-x="97"><pitch><step>D</step><octave>5</octave></pitch><duration>4</duration><tie type="stop"/><voice>1</voice><type>eighth</type><time-modification><actual-notes>3</actual-notes><normal-notes>2</normal-notes></time-modification><stem default-y="-45">down</stem><beam number="1">begin</beam><notations><tied type="stop"/><tuplet placement="above" type="start" number="1" bracket="yes"/></notations></note><note default-x="129"><pitch><step>E</step><alter>-1</alter><octave>5</octave></pitch><duration>4</duration><voice>1</voice><type>eighth</type><accidental>flat</accidental><time-modification><actual-notes>3</actual-notes><normal-notes>2</normal-notes></time-modification><stem default-y="-45">down</stem><beam number="1">continue</beam></note><note default-x="157"><pitch><step>D</step><octave>5</octave></pitch><duration>4</duration><voice>1</voice><type>eighth</type><time-modification><actual-notes>3</actual-notes><normal-notes>2</normal-notes></time-modification><stem default-y="-45">down</stem><beam number="1">end</beam><notations><tuplet type="stop" number="1"/></notations></note><harmony font-size="15.4" relative-x="14" default-y="32"><root><root-step>D</root-step></root><kind text="7" parentheses-degrees="yes">dominant</kind><degree><degree-value>9</degree-value><degree-alter>-1</degree-alter><degree-type>add</degree-type></degree></harmony><note default-x="185"><pitch><step>E</step><alter>-1</alter><octave>5</octave></pitch><duration>6</duration><voice>1</voice><type>eighth</type><stem default-y="-40.5">down</stem></note><note default-x="221"><pitch><step>D</step><octave>5</octave></pitch><duration>18</duration><voice>1</voice><type>quarter</type><dot/><stem default-y="-45">down</stem></note></measure><measure width="308" number="23"><harmony font-size="15.4" relative-x="14" default-y="26"><root><root-step>D</root-step></root><kind text="min7">minor-seventh</kind></harmony><note default-x="11"><rest/><duration>6</duration><voice>1</voice><type>eighth</type></note><note default-x="49"><pitch><step>A</step><octave>4</octave></pitch><duration>6</duration><tie type="start"/><voice>1</voice><type>eighth</type><stem default-y="11">up</stem><notations><tied type="start"/></notations></note><note default-x="93"><pitch><step>A</step><octave>4</octave></pitch><duration>3</duration><tie type="stop"/><voice>1</voice><type>16th</type><stem default-y="10">up</stem><beam number="1">begin</beam><beam number="2">begin</beam><notations><tied type="stop"/></notations></note><note default-x="117"><pitch><step>G</step><octave>4</octave></pitch><duration>3</duration><voice>1</voice><type>16th</type><stem default-y="8">up</stem><beam number="1">continue</beam><beam number="2">end</beam></note><note default-x="143"><pitch><step>F</step><octave>4</octave></pitch><duration>6</duration><voice>1</voice><type>eighth</type><stem default-y="5">up</stem><beam number="1">end</beam></note><harmony font-size="15.4" default-y="24"><root><root-step>G</root-step></root><kind text="9">dominant-ninth</kind></harmony><note default-x="182"><pitch><step>G</step><octave>4</octave></pitch><duration>6</duration><voice>1</voice><type>eighth</type><stem default-y="5">up</stem></note><note default-x="223"><pitch><step>A</step><octave>4</octave></pitch><duration>18</duration><voice>1</voice><type>quarter</type><dot/><stem default-y="11">up</stem></note></measure><measure width="287" number="24"><harmony font-size="15.4" default-y="20"><root><root-step>D</root-step><root-alter>-1</root-alter></root><kind text="9">dominant-ninth</kind></harmony><note default-x="10"><rest/><duration>6</duration><voice>1</voice><type>eighth</type></note><note default-x="45"><pitch><step>A</step><alter>-1</alter><octave>4</octave></pitch><duration>6</duration><voice>1</voice><type>eighth</type><accidental>flat</accidental><stem default-y="10">up</stem><beam number="1">begin</beam></note><note default-x="79"><pitch><step>G</step><octave>4</octave></pitch><duration>6</duration><voice>1</voice><type>eighth</type><stem default-y="8">up</stem><beam number="1">continue</beam></note><note default-x="113"><pitch><step>F</step><octave>4</octave></pitch><duration>6</duration><voice>1</voice><type>eighth</type><stem default-y="5">up</stem><beam number="1">end</beam></note><harmony font-size="15.4" relative-x="12" default-y="24"><root><root-step>C</root-step></root><kind text="7sus4">suspended-fourth</kind><degree print-object="no"><degree-value>7</degree-value><degree-alter>0</degree-alter><degree-type>add</degree-type></degree></harmony><note default-x="148"><pitch><step>G</step><octave>4</octave></pitch><duration>6</duration><voice>1</voice><type>eighth</type><stem default-y="5">up</stem><beam number="1">begin</beam></note><note default-x="182"><pitch><step>F</step><octave>4</octave></pitch><duration>6</duration><voice>1</voice><type>eighth</type><stem default-y="4.5">up</stem><beam number="1">continue</beam></note><note default-x="217"><pitch><step>D</step><octave>4</octave></pitch><duration>6</duration><voice>1</voice><type>eighth</type><stem default-y="3.5">up</stem><beam number="1">continue</beam></note><note default-x="251"><pitch><step>F</step><octave>4</octave></pitch><duration>6</duration><voice>1</voice><type>eighth</type><stem default-y="2.5">up</stem><beam number="1">end</beam></note></measure><measure width="159" number="25"><harmony font-size="15.4" default-y="24"><root><root-step>F</root-step></root><kind text="69">major-sixth</kind><degree print-object="no"><degree-value>9</degree-value><degree-alter>0</degree-alter><degree-type>add</degree-type></degree></harmony><note default-x="10"><pitch><step>F</step><octave>4</octave></pitch><duration>48</duration><voice>1</voice><type>whole</type></note><barline location="right"><bar-style>light-heavy</bar-style></barline></measure></part></score-partwise>