<score-partwise version="2.0"><work><work-number/><work-title/></work><movement-number/><movement-title>Blues for Barry</movement-title><identification><creator type="composer">Barry Goldberg</creator><creator type="poet"/><rights>All Rights Reserved</rights><encoding><software>Finale 2006 for Windows</software><software>Dolet Light for Finale 2006</software><encoding-date>1900-00-00</encoding-date><software>ProxyMusic 2.0 c</software></encoding><source>http://www.wikifonia.org/node/142/revisions/146/view</source></identification><part-list><score-part id="P3"><part-name>MusicXML Part</part-name><score-instrument id="P3-I1"><instrument-name>Instrument 1</instrument-name></score-instrument><midi-instrument id="P3-I1"><midi-channel>1</midi-channel><midi-program>1</midi-program></midi-instrument></score-part></part-list><part><measure number="1"><print/><attributes><divisions>12</divisions><key><fifths>-1</fifths><mode>major</mode></key><time><beats>4</beats><beat-type>4</beat-type></time><clef><sign>G</sign><line>2</line></clef></attributes><sound tempo="96"/><note><pitch><step>C</step><octave>5</octave></pitch><duration>6</duration><voice>1</voice><type>eighth</type><stem>down</stem><beam number="1">begin</beam></note><harmony default-y="-20"><root><root-step>F</root-step></root><kind>major-seventh</kind></harmony><note><pitch><step>D</step><octave>5</octave></pitch><duration>6</duration><voice>1</voice><type>eighth</type><stem>down</stem><beam number="1">continue</beam></note><note><pitch><step>E</step><octave>5</octave></pitch><duration>6</duration><voice>1</voice><type>eighth</type><stem>down</stem><beam number="1">continue</beam></note><note><pitch><step>F</step><octave>5</octave></pitch><duration>6</duration><voice>1</voice><type>eighth</type><stem>down</stem><beam number="1">end</beam></note><note><pitch><step>E</step><octave>5</octave></pitch><duration>6</duration><voice>1</voice><type>eighth</type><stem>down</stem><beam number="1">begin</beam></note><harmony default-y="-20"><root><root-step>E</root-step><root-alter>-1</root-alter></root><kind>dominant</kind></harmony><note><pitch><step>D</step><octave>5</octave></pitch><duration>6</duration><voice>1</voice><type>eighth</type><stem>down</stem><beam number="1">continue</beam></note><note><pitch><step>C</step><octave>5</octave></pitch><duration>6</duration><voice>1</voice><type>eighth</type><stem>down</stem><beam number="1">continue</beam></note><note><pitch><step>A</step><octave>4</octave></pitch><duration>6</duration><voice>1</voice><type>eighth</type><stem>down</stem><beam number="1">end</beam></note></measure><measure number="2"><note><pitch><step>G</step><octave>4</octave></pitch><duration>6</duration><voice>1</voice><type>eighth</type><stem>up</stem><beam number="1">begin</beam></note><harmony default-y="-20"><root><root-step>E</root-step></root><kind>minor-seventh</kind><degree><degree-value>5</degree-value><degree-alter>-1</degree-alter><degree-type>alter</degree-type></degree></harmony><note><pitch><step>A</step><octave>4</octave></pitch><duration>6</duration><voice>1</voice><type>eighth</type><stem>up</stem><beam number="1">continue</beam></note><note><pitch><step>G</step><octave>4</octave></pitch><duration>6</duration><voice>1</voice><type>eighth</type><stem>up</stem><beam number="1">continue</beam></note><note><pitch><step>F</step><octave>4</octave></pitch><duration>6</duration><voice>1</voice><type>eighth</type><stem>up</stem><beam number="1">end</beam></note><harmony default-y="-20"><root><root-step>A</root-step></root><kind>augmented-seventh</kind></harmony><note><rest/><duration>12</duration><voice>1</voice><type>quarter</type></note><note><pitch><step>G</step><octave>4</octave></pitch><duration>6</duration><voice>1</voice><type>eighth</type><stem>up</stem><beam number="1">begin</beam></note><note><pitch><step>A</step><octave>4</octave></pitch><duration>6</duration><voice>1</voice><type>eighth</type><stem>up</stem><beam number="1">end</beam></note></measure><measure number="3"><harmony default-y="-20"><root><root-step>D</root-step></root><kind>minor-seventh</kind></harmony><note><pitch><step>G</step><octave>4</octave></pitch><duration>6</duration><voice>1</voice><type>eighth</type><stem>up</stem><beam number="1">begin</beam></note><note><pitch><step>F</step><octave>4</octave></pitch><duration>6</duration><voice>1</voice><type>eighth</type><stem>up</stem><beam number="1">end</beam></note><note><rest/><duration>12</duration><voice>1</voice><type>quarter</type></note><harmony default-y="-20"><root><root-step>G</root-step></root><kind>dominant</kind></harmony><note><rest/><duration>12</duration><voice>1</voice><type>quarter</type></note><note><rest/><duration>6</duration><voice>1</voice><type>eighth</type></note><note><pitch><step>A</step><octave>4</octave></pitch><duration>6</duration><voice>1</voice><type>eighth</type><stem>up</stem></note></measure><measure number="4"><note><pitch><step>G</step><octave>4</octave></pitch><duration>6</duration><voice>1</voice><type>eighth</type><stem>up</stem><beam number="1">begin</beam></note><harmony default-y="-20"><root><root-step>C</root-step></root><kind>minor-seventh</kind></harmony><note><pitch><step>A</step><octave>4</octave></pitch><duration>6</duration><voice>1</voice><type>eighth</type><stem>up</stem><beam number="1">continue</beam></note><note><pitch><step>F</step><octave>4</octave></pitch><duration>6</duration><voice>1</voice><type>eighth</type><stem>up</stem><beam number="1">continue</beam></note><note><pitch><step>E</step><octave>4</octave></pitch><duration>6</duration><voice>1</voice><type>eighth</type><stem>up</stem><beam number="1">end</beam></note><harmony default-y="-20"><root><root-step>F</root-step></root><kind>dominant</kind></harmony><note><pitch><step>E</step><alter>-1</alter><octave>4</octave></pitch><duration>6</duration><voice>1</voice><type>eighth</type><accidental>flat</accidental><stem>up</stem></note><note><pitch><step>D</step><octave>5</octave></pitch><duration>12</duration><voice>1</voice><type>quarter</type><stem>down</stem></note><note><pitch><step>C</step><octave>5</octave></pitch><duration>6</duration><voice>1</voice><type>eighth</type><stem>down</stem></note></measure><measure number="5"><print new-system="yes"/><note><pitch><step>A</step><octave>4</octave></pitch><duration>4</duration><voice>1</voice><type>eighth</type><time-modification><actual-notes>3</actual-notes><normal-notes>2</normal-notes></time-modification><stem>up</stem><beam number="1">begin</beam><notations><tuplet placement="above" type="start" number="1"/></notations></note><note><pitch><step>B</step><alter>-1</alter><octave>4</octave></pitch><duration>4</duration><voice>1</voice><type>eighth</type><time-modification><actual-notes>3</actual-notes><normal-notes>2</normal-notes></time-modification><stem>up</stem><beam number="1">continue</beam></note><harmony default-y="-20"><root><root-step>B</root-step><root-alter>-1</root-alter></root><kind>major-seventh</kind></harmony><note><pitch><step>B</step><octave>4</octave></pitch><duration>4</duration><voice>1</voice><type>eighth</type><accidental>natural</accidental><time-modification><actual-notes>3</actual-notes><normal-notes>2</normal-notes></time-modification><stem>up</stem><beam number="1">end</beam><notations><tuplet type="stop" number="1"/></notations></note><note><pitch><step>C</step><octave>5</octave></pitch><duration>6</duration><voice>1</voice><type>eighth</type><stem>down</stem><beam number="1">begin</beam></note><note><pitch><step>A</step><octave>4</octave></pitch><duration>6</duration><voice>1</voice><type>eighth</type><stem>down</stem><beam number="1">end</beam></note><note><pitch><step>B</step><alter>-1</alter><octave>4</octave></pitch><duration>6</duration><voice>1</voice><type>eighth</type><accidental>flat</accidental><stem>up</stem><beam number="1">begin</beam></note><note><pitch><step>F</step><octave>4</octave></pitch><duration>6</duration><voice>1</voice><type>eighth</type><stem>up</stem><beam number="1">continue</beam></note><note><pitch><step>G</step><octave>4</octave></pitch><duration>6</duration><voice>1</voice><type>eighth</type><stem>up</stem><beam number="1">continue</beam></note><note><pitch><step>A</step><alter>-1</alter><octave>4</octave></pitch><duration>6</duration><tie type="start"/><voice>1</voice><type>eighth</type><accidental>flat</accidental><stem>up</stem><beam number="1">end</beam><notations><tied type="start"/></notations></note></measure><measure number="6"><note><pitch><step>A</step><alter>-1</alter><octave>4</octave></pitch><duration>3</duration><tie type="stop"/><voice>1</voice><type>16th</type><stem>up</stem><beam number="1">begin</beam><beam number="2">begin</beam><notations><tied type="stop"/></notations></note><harmony default-y="-20"><root><root-step>B</root-step><root-alter>-1</root-alter></root><kind>minor-seventh</kind></harmony><note><pitch><step>B</step><alter>-1</alter><octave>4</octave></pitch><duration>3</duration><voice>1</voice><type>16th</type><stem>up</stem><beam number="1">continue</beam><beam number="2">continue</beam></note><note><pitch><step>A</step><alter>-1</alter><octave>4</octave></pitch><duration>3</duration><voice>1</voice><type>16th</type><accidental>flat</accidental><stem>up</stem><beam number="1">continue</beam><beam number="2">continue</beam></note><note><pitch><step>F</step><octave>4</octave></pitch><duration>3</duration><voice>1</voice><type>16th</type><stem>up</stem><beam number="1">end</beam><beam number="2">end</beam></note><note><pitch><step>G</step><octave>4</octave></pitch><duration>12</duration><voice>1</voice><type>quarter</type><stem>up</stem></note><harmony default-y="-20"><root><root-step>E</root-step><root-alter>-1</root-alter></root><kind>dominant</kind></harmony><note><rest/><duration>24</duration><voice>1</voice><type>half</type></note></measure><measure number="7"><harmony default-y="-20"><root><root-step>A</root-step></root><kind>minor-seventh</kind></harmony><note><rest/><duration>24</duration><voice>1</voice><type>half</type></note><note><pitch><step>B</step><octave>4</octave></pitch><duration>4</duration><voice>1</voice><type>eighth</type><accidental>natural</accidental><time-modification><actual-notes>3</actual-notes><normal-notes>2</normal-notes></time-modification><stem>down</stem><beam number="1">begin</beam><notations><tuplet placement="below" type="start" number="1"/></notations></note><harmony default-y="-20"><root><root-step>D</root-step></root><kind>dominant</kind></harmony><note><pitch><step>C</step><octave>5</octave></pitch><duration>4</duration><voice>1</voice><type>eighth</type><time-modification><actual-notes>3</actual-notes><normal-notes>2</normal-notes></time-modification><stem>down</stem><beam number="1">continue</beam></note><note><pitch><step>C</step><alter>1</alter><octave>5</octave></pitch><duration>4</duration><voice>1</voice><type>eighth</type><accidental>sharp</accidental><time-modification><actual-notes>3</actual-notes><normal-notes>2</normal-notes></time-modification><stem>down</stem><beam number="1">end</beam><notations><tuplet type="stop" number="1"/></notations></note><note><pitch><step>D</step><octave>5</octave></pitch><duration>6</duration><voice>1</voice><type>eighth</type><stem>down</stem><beam number="1">begin</beam></note><note><pitch><step>C</step><octave>5</octave></pitch><duration>6</duration><voice>1</voice><type>eighth</type><accidental>natural</accidental><stem>down</stem><beam number="1">end</beam></note></measure><measure number="8"><note><pitch><step>D</step><alter>-1</alter><octave>5</octave></pitch><duration>6</duration><voice>1</voice><type>eighth</type><accidental>flat</accidental><stem>up</stem><beam number="1">begin</beam></note><harmony default-y="-20"><root><root-step>A</root-step><root-alter>-1</root-alter></root><kind>minor-seventh</kind></harmony><note><pitch><step>E</step><alter>-1</alter><octave>4</octave></pitch><duration>6</duration><voice>1</voice><type>eighth</type><accidental>flat</accidental><stem>up</stem><beam number="1">continue</beam></note><note><pitch><step>G</step><alter>-1</alter><octave>4</octave></pitch><duration>6</duration><voice>1</voice><type>eighth</type><accidental>flat</accidental><stem>up</stem><beam number="1">continue</beam></note><note><pitch><step>B</step><alter>-1</alter><octave>4</octave></pitch><duration>6</duration><tie type="start"/><voice>1</voice><type>eighth</type><stem>up</stem><beam number="1">end</beam><notations><tied type="start"/></notations></note><note><pitch><step>B</step><alter>-1</alter><octave>4</octave></pitch><duration>3</duration><tie type="stop"/><voice>1</voice><type>16th</type><stem>up</stem><beam number="1">begin</beam><beam number="2">begin</beam><notations><tied type="stop"/></notations></note><harmony default-y="-20"><root><root-step>D</root-step><root-alter>-1</root-alter></root><kind>dominant</kind></harmony><note><pitch><step>C</step><alter>-1</alter><octave>5</octave></pitch><duration>3</duration><voice>1</voice><type>16th</type><accidental>flat</accidental><stem>up</stem><beam number="1">continue</beam><beam number="2">continue</beam></note><note><pitch><step>B</step><alter>-1</alter><octave>4</octave></pitch><duration>3</duration><voice>1</voice><type>16th</type><stem>up</stem><beam number="1">continue</beam><beam number="2">continue</beam></note><note><pitch><step>G</step><octave>4</octave></pitch><duration>3</duration><voice>1</voice><type>16th</type><accidental>natural</accidental><stem>up</stem><beam number="1">end</beam><beam number="2">end</beam></note><note><pitch><step>A</step><octave>4</octave></pitch><duration>6</duration><voice>1</voice><type>eighth</type><stem>up</stem><beam number="1">begin</beam></note><note><pitch><step>B</step><alter>-1</alter><octave>4</octave></pitch><duration>6</duration><voice>1</voice><type>eighth</type><stem>up</stem><beam number="1">end</beam></note></measure><measure number="9"><print new-system="yes"/><harmony default-y="-20"><root><root-step>G</root-step></root><kind>minor-seventh</kind></harmony><note><pitch><step>C</step><octave>5</octave></pitch><duration>6</duration><voice>1</voice><type>eighth</type><stem>down</stem><beam number="1">begin</beam></note><note><pitch><step>D</step><octave>5</octave></pitch><duration>6</duration><voice>1</voice><type>eighth</type><stem>down</stem><beam number="1">continue</beam></note><note><pitch><step>E</step><octave>5</octave></pitch><duration>6</duration><voice>1</voice><type>eighth</type><stem>down</stem><beam number="1">continue</beam></note><note><pitch><step>F</step><octave>5</octave></pitch><duration>6</duration><voice>1</voice><type>eighth</type><stem>down</stem><beam number="1">end</beam></note><note><pitch><step>E</step><octave>5</octave></pitch><duration>6</duration><voice>1</voice><type>eighth</type><stem>down</stem><beam number="1">begin</beam></note><note><pitch><step>D</step><octave>5</octave></pitch><duration>6</duration><voice>1</voice><type>eighth</type><stem>down</stem><beam number="1">continue</beam></note><note><pitch><step>C</step><octave>5</octave></pitch><duration>6</duration><voice>1</voice><type>eighth</type><stem>down</stem><beam number="1">continue</beam></note><note><pitch><step>B</step><octave>4</octave></pitch><duration>6</duration><voice>1</voice><type>eighth</type><accidental>natural</accidental><stem>down</stem><beam number="1">end</beam></note></measure><measure number="10"><harmony default-y="-20"><root><root-step>C</root-step></root><kind>dominant</kind></harmony><note><pitch><step>B</step><alter>-1</alter><octave>4</octave></pitch><duration>6</duration><voice>1</voice><type>eighth</type><stem>down</stem><beam number="1">begin</beam></note><note><pitch><step>C</step><octave>5</octave></pitch><duration>6</duration><voice>1</voice><type>eighth</type><stem>down</stem><beam number="1">continue</beam></note><note><pitch><step>D</step><octave>5</octave></pitch><duration>6</duration><voice>1</voice><type>eighth</type><stem>down</stem><beam number="1">continue</beam></note><note><pitch><step>B</step><alter>-1</alter><octave>4</octave></pitch><duration>6</duration><voice>1</voice><type>eighth</type><stem>down</stem><beam number="1">end</beam></note><note><pitch><step>A</step><octave>4</octave></pitch><duration>6</duration><voice>1</voice><type>eighth</type><stem>up</stem><beam number="1">begin</beam></note><note><pitch><step>C</step><octave>4</octave></pitch><duration>6</duration><voice>1</voice><type>eighth</type><stem>up</stem><beam number="1">continue</beam></note><note><pitch><step>D</step><octave>4</octave></pitch><duration>6</duration><voice>1</voice><type>eighth</type><stem>up</stem><beam number="1">continue</beam></note><note><pitch><step>E</step><octave>4</octave></pitch><duration>6</duration><voice>1</voice><type>eighth</type><stem>up</stem><beam number="1">end</beam></note></measure><measure number="11"><harmony default-y="-20"><root><root-step>A</root-step></root><kind>minor-seventh</kind></harmony><note><pitch><step>G</step><octave>4</octave></pitch><duration>6</duration><voice>1</voice><type>eighth</type><stem>up</stem><beam number="1">begin</beam></note><note><pitch><step>F</step><alter>1</alter><octave>4</octave></pitch><duration>6</duration><voice>1</voice><type>eighth</type><accidental>sharp</accidental><stem>up</stem><beam number="1">continue</beam></note><note><pitch><step>F</step><octave>4</octave></pitch><duration>6</duration><voice>1</voice><type>eighth</type><accidental>natural</accidental><stem>up</stem><beam number="1">continue</beam></note><note><pitch><step>E</step><alter>-1</alter><octave>4</octave></pitch><duration>6</duration><voice>1</voice><type>eighth</type><accidental>flat</accidental><stem>up</stem><beam number="1">end</beam></note><harmony default-y="-20"><root><root-step>A</root-step><root-alter>-1</root-alter></root><kind>diminished-seventh</kind></harmony><note><pitch><step>E</step><octave>4</octave></pitch><duration>12</duration><voice>1</voice><type>quarter</type><accidental>natural</accidental><stem>up</stem></note><note><rest/><duration>6</duration><voice>1</voice><type>eighth</type></note><note><pitch><step>C</step><alter>1</alter><octave>4</octave></pitch><duration>6</duration><voice>1</voice><type>eighth</type><accidental>sharp</accidental><stem>up</stem></note></measure><measure number="12"><direction placement="above"><direction-type><coda default-y="60"/></direction-type><sound divisions="12" coda="6"/></direction><harmony default-y="-20"><root><root-step>G</root-step></root><kind>minor-seventh</kind></harmony><note><pitch><step>D</step><octave>4</octave></pitch><duration>6</duration><voice>1</voice><type>eighth</type><stem>up</stem><beam number="1">begin</beam></note><note><pitch><step>F</step><octave>4</octave></pitch><duration>6</duration><voice>1</voice><type>eighth</type><stem>up</stem><beam number="1">continue</beam></note><note><pitch><step>G</step><octave>4</octave></pitch><duration>6</duration><voice>1</voice><type>eighth</type><stem>up</stem><beam number="1">continue</beam></note><note><pitch><step>G</step><alter>1</alter><octave>4</octave></pitch><duration>6</duration><voice>1</voice><type>eighth</type><accidental>sharp</accidental><stem>up</stem><beam number="1">end</beam></note><harmony default-y="-20"><root><root-step>D</root-step><root-alter>-1</root-alter></root><kind>dominant</kind></harmony><note><rest/><duration>6</duration><voice>1</voice><type>eighth</type></note><note><pitch><step>A</step><octave>4</octave></pitch><duration>6</duration><voice>1</voice><type>eighth</type><stem>up</stem></note><harmony default-y="-20"><root><root-step>C</root-step></root><kind>dominant</kind></harmony><note><rest/><duration>12</duration><voice>1</voice><type>quarter</type></note><barline location="right"><bar-style>light-light</bar-style></barline></measure><measure number="13"><print new-page="yes"/><harmony default-y="-20"><root><root-step>G</root-step></root><kind>minor-seventh</kind></harmony><note><pitch><step>D</step><octave>4</octave></pitch><duration>6</duration><voice>1</voice><type>eighth</type><stem>up</stem><beam number="1">begin</beam></note><note><pitch><step>F</step><octave>4</octave></pitch><duration>6</duration><voice>1</voice><type>eighth</type><stem>up</stem><beam number="1">continue</beam></note><direction placement="above"><direction-type><coda default-y="55"/></direction-type><sound divisions="12" coda="6"/></direction><note><pitch><step>G</step><octave>4</octave></pitch><duration>6</duration><voice>1</voice><type>eighth</type><stem>up</stem><beam number="1">continue</beam></note><note><pitch><step>G</step><alter>1</alter><octave>4</octave></pitch><duration>6</duration><voice>1</voice><type>eighth</type><accidental>sharp</accidental><stem>up</stem><beam number="1">end</beam></note><harmony default-y="-20"><root><root-step>D</root-step><root-alter>-1</root-alter></root><kind>dominant</kind></harmony><note><rest/><duration>6</duration><voice>1</voice><type>eighth</type></note><note><pitch><step>A</step><octave>4</octave></pitch><duration>12</duration><voice>1</voice><type>quarter</type><stem>up</stem></note><harmony default-y="-20"><root><root-step>C</root-step></root><kind>dominant</kind></harmony><note><pitch><step>E</step><octave>4</octave></pitch><duration>6</duration><tie type="start"/><voice>1</voice><type>eighth</type><stem>up</stem><notations><tied type="start"/></notations></note></measure><measure number="14"><harmony default-y="-20"><root><root-step>F</root-step></root><kind>major-seventh</kind></harmony><note><pitch><step>E</step><octave>4</octave></pitch><duration>48</duration><tie type="stop"/><voice>1</voice><type>whole</type><notations><tied type="stop"/></notations></note><barline location="right"><bar-style>light-heavy</bar-style></barline></measure><measure number="15"><note><rest/><duration>48</duration><voice>1</voice></note></measure><measure number="16"><note><rest/><duration>48</duration><voice>1</voice></note><barline location="right"><bar-style>light-heavy</bar-style></barline></measure></part><part><measure number="1"><attributes><divisions>12</divisions><key><fifths>-1</fifths><mode>major</mode></key><time><beats>4</beats><beat-type>4</beat-type></time><clef><sign>G</sign><line>2</line></clef></attributes><sound tempo="96"/><note><pitch><step>A</step><octave>4</octave></pitch><duration>6</duration><voice>1</voice><type>eighth</type><stem>down</stem><beam number="1">begin</beam></note><note><pitch><step>B</step><alter>-1</alter><octave>4</octave></pitch><duration>6</duration><voice>1</voice><type>eighth</type><stem>down</stem><beam number="1">continue</beam></note><note><pitch><step>C</step><octave>5</octave></pitch><duration>6</duration><voice>1</voice><type>eighth</type><stem>down</stem><beam number="1">continue</beam></note><note><pitch><step>D</step><octave>5</octave></pitch><duration>6</duration><voice>1</voice><type>eighth</type><stem>down</stem><beam number="1">end</beam></note><note><pitch><step>C</step><octave>5</octave></pitch><duration>6</duration><voice>1</voice><type>eighth</type><stem>up</stem><beam number="1">begin</beam></note><note><pitch><step>B</step><alter>-1</alter><octave>4</octave></pitch><duration>6</duration><voice>1</voice><type>eighth</type><stem>up</stem><beam number="1">continue</beam></note><note><pitch><step>A</step><octave>4</octave></pitch><duration>6</duration><voice>1</voice><type>eighth</type><stem>up</stem><beam number="1">continue</beam></note><note><pitch><step>E</step><octave>4</octave></pitch><duration>6</duration><voice>1</voice><type>eighth</type><stem>up</stem><beam number="1">end</beam></note></measure><measure number="2"><note><pitch><step>D</step><octave>4</octave></pitch><duration>6</duration><voice>1</voice><type>eighth</type><stem>up</stem><beam number="1">begin</beam></note><note><pitch><step>E</step><octave>4</octave></pitch><duration>6</duration><voice>1</voice><type>eighth</type><stem>up</stem><beam number="1">continue</beam></note><note><pitch><step>D</step><octave>4</octave></pitch><duration>6</duration><voice>1</voice><type>eighth</type><stem>up</stem><beam number="1">continue</beam></note><note><pitch><step>C</step><alter>1</alter><octave>4</octave></pitch><duration>6</duration><voice>1</voice><type>eighth</type><accidental>sharp</accidental><stem>up</stem><beam number="1">end</beam></note><note><rest/><duration>12</duration><voice>1</voice><type>quarter</type></note><note><pitch><step>C</step><alter>1</alter><octave>4</octave></pitch><duration>6</duration><voice>1</voice><type>eighth</type><accidental editorial="yes">sharp</accidental><stem>up</stem><beam number="1">begin</beam></note><note><pitch><step>E</step><octave>4</octave></pitch><duration>6</duration><voice>1</voice><type>eighth</type><stem>up</stem><beam number="1">end</beam></note></measure><measure number="3"><note><pitch><step>C</step><alter>1</alter><octave>4</octave></pitch><duration>6</duration><voice>1</voice><type>eighth</type><accidental>sharp</accidental><stem>up</stem><beam number="1">begin</beam></note><note><pitch><step>C</step><octave>4</octave></pitch><duration>6</duration><voice>1</voice><type>eighth</type><accidental>natural</accidental><stem>up</stem><beam number="1">end</beam></note><note><rest/><duration>12</duration><voice>1</voice><type>quarter</type></note><note><rest/><duration>12</duration><voice>1</voice><type>quarter</type></note><note><rest/><duration>6</duration><voice>1</voice><type>eighth</type></note><note><pitch><step>F</step><octave>4</octave></pitch><duration>6</duration><voice>1</voice><type>eighth</type><stem>up</stem></note></measure><measure number="4"><note><pitch><step>E</step><alter>-1</alter><octave>4</octave></pitch><duration>6</duration><voice>1</voice><type>eighth</type><accidental>flat</accidental><stem>up</stem><beam number="1">begin</beam></note><note><pitch><step>F</step><octave>4</octave></pitch><duration>6</duration><voice>1</voice><type>eighth</type><stem>up</stem><beam number="1">continue</beam></note><note><pitch><step>C</step><octave>4</octave></pitch><duration>6</duration><voice>1</voice><type>eighth</type><stem>up</stem><beam number="1">continue</beam></note><note><pitch><step>C</step><alter>-1</alter><octave>4</octave></pitch><duration>6</duration><voice>1</voice><type>eighth</type><accidental>flat</accidental><stem>up</stem><beam number="1">end</beam></note><note><pitch><step>B</step><alter>-1</alter><octave>3</octave></pitch><duration>6</duration><voice>1</voice><type>eighth</type><stem>up</stem></note><note><pitch><step>A</step><octave>4</octave></pitch><duration>12</duration><voice>1</voice><type>quarter</type><stem>up</stem></note><note><pitch><step>G</step><octave>4</octave></pitch><duration>6</duration><voice>1</voice><type>eighth</type><stem>up</stem></note></measure><measure number="5"><print new-system="yes"/><note><pitch><step>F</step><alter>1</alter><octave>4</octave></pitch><duration>4</duration><voice>1</voice><type>eighth</type><accidental>sharp</accidental><time-modification><actual-notes>3</actual-notes><normal-notes>2</normal-notes></time-modification><stem>up</stem><beam number="1">begin</beam><notations><tuplet placement="above" type="start" number="1"/></notations></note><note><pitch><step>G</step><octave>4</octave></pitch><duration>4</duration><voice>1</voice><type>eighth</type><time-modification><actual-notes>3</actual-notes><normal-notes>2</normal-notes></time-modification><stem>up</stem><beam number="1">continue</beam></note><note><pitch><step>G</step><alter>1</alter><octave>4</octave></pitch><duration>4</duration><voice>1</voice><type>eighth</type><accidental>sharp</accidental><time-modification><actual-notes>3</actual-notes><normal-notes>2</normal-notes></time-modification><stem>up</stem><beam number="1">end</beam><notations><tuplet type="stop" number="1"/></notations></note><note><pitch><step>A</step><octave>4</octave></pitch><duration>6</duration><voice>1</voice><type>eighth</type><stem>up</stem><beam number="1">begin</beam></note><note><pitch><step>F</step><alter>1</alter><octave>4</octave></pitch><duration>6</duration><voice>1</voice><type>eighth</type><stem>up</stem><beam number="1">end</beam></note><note><pitch><step>G</step><octave>4</octave></pitch><duration>6</duration><voice>1</voice><type>eighth</type><accidental>natural</accidental><stem>up</stem><beam number="1">begin</beam></note><note><pitch><step>D</step><octave>4</octave></pitch><duration>6</duration><voice>1</voice><type>eighth</type><stem>up</stem><beam number="1">continue</beam></note><note><pitch><step>E</step><alter>-1</alter><octave>4</octave></pitch><duration>6</duration><voice>1</voice><type>eighth</type><accidental>flat</accidental><stem>up</stem><beam number="1">continue</beam></note><note><pitch><step>F</step><octave>4</octave></pitch><duration>6</duration><tie type="start"/><voice>1</voice><type>eighth</type><accidental>natural</accidental><stem>up</stem><beam number="1">end</beam><notations><tied type="start"/></notations></note></measure><measure number="6"><note><pitch><step>F</step><octave>4</octave></pitch><duration>3</duration><tie type="stop"/><voice>1</voice><type>16th</type><stem>up</stem><beam number="1">begin</beam><beam number="2">begin</beam><notations><tied type="stop"/></notations></note><note><pitch><step>G</step><octave>4</octave></pitch><duration>3</duration><voice>1</voice><type>16th</type><stem>up</stem><beam number="1">continue</beam><beam number="2">continue</beam></note><note><pitch><step>F</step><octave>4</octave></pitch><duration>3</duration><voice>1</voice><type>16th</type><stem>up</stem><beam number="1">continue</beam><beam number="2">continue</beam></note><note><pitch><step>C</step><octave>4</octave></pitch><duration>3</duration><voice>1</voice><type>16th</type><stem>up</stem><beam number="1">end</beam><beam number="2">end</beam></note><note><pitch><step>D</step><alter>-1</alter><octave>4</octave></pitch><duration>12</duration><voice>1</voice><type>quarter</type><accidental>flat</accidental><stem>up</stem></note><note><rest/><duration>24</duration><voice>1</voice><type>half</type></note></measure><measure number="7"><note><rest/><duration>24</duration><voice>1</voice><type>half</type></note><note><pitch><step>G</step><alter>1</alter><octave>4</octave></pitch><duration>4</duration><voice>1</voice><type>eighth</type><accidental>sharp</accidental><time-modification><actual-notes>3</actual-notes><normal-notes>2</normal-notes></time-modification><stem>up</stem><beam number="1">begin</beam><notations><tuplet placement="above" type="start" number="1"/></notations></note><note><pitch><step>A</step><octave>4</octave></pitch><duration>4</duration><voice>1</voice><type>eighth</type><time-modification><actual-notes>3</actual-notes><normal-notes>2</normal-notes></time-modification><stem>up</stem><beam number="1">continue</beam></note><note><pitch><step>A</step><alter>1</alter><octave>4</octave></pitch><duration>4</duration><voice>1</voice><type>eighth</type><accidental>sharp</accidental><time-modification><actual-notes>3</actual-notes><normal-notes>2</normal-notes></time-modification><stem>up</stem><beam number="1">end</beam><notations><tuplet type="stop" number="1"/></notations></note><note><pitch><step>B</step><octave>4</octave></pitch><duration>6</duration><voice>1</voice><type>eighth</type><accidental>natural</accidental><stem>up</stem><beam number="1">begin</beam></note><note><pitch><step>A</step><octave>4</octave></pitch><duration>6</duration><voice>1</voice><type>eighth</type><accidental>natural</accidental><stem>up</stem><beam number="1">end</beam></note></measure><measure number="8"><note><pitch><step>B</step><alter>-1</alter><octave>4</octave></pitch><duration>6</duration><voice>1</voice><type>eighth</type><accidental editorial="yes">flat</accidental><stem>up</stem><beam number="1">begin</beam></note><note><pitch><step>C</step><alter>-1</alter><octave>4</octave></pitch><duration>6</duration><voice>1</voice><type>eighth</type><accidental>flat</accidental><stem>up</stem><beam number="1">continue</beam></note><note><pitch><step>E</step><alter>-1</alter><octave>4</octave></pitch><duration>6</duration><voice>1</voice><type>eighth</type><accidental>flat</accidental><stem>up</stem><beam number="1">continue</beam></note><note><pitch><step>F</step><octave>4</octave></pitch><duration>6</duration><tie type="start"/><voice>1</voice><type>eighth</type><stem>up</stem><beam number="1">end</beam><notations><tied type="start"/></notations></note><note><pitch><step>F</step><octave>4</octave></pitch><duration>3</duration><tie type="stop"/><voice>1</voice><type>16th</type><stem>up</stem><beam number="1">begin</beam><beam number="2">begin</beam><notations><tied type="stop"/></notations></note><note><pitch><step>G</step><alter>-1</alter><octave>4</octave></pitch><duration>3</duration><voice>1</voice><type>16th</type><accidental>flat</accidental><stem>up</stem><beam number="1">continue</beam><beam number="2">continue</beam></note><note><pitch><step>F</step><octave>4</octave></pitch><duration>3</duration><voice>1</voice><type>16th</type><stem>up</stem><beam number="1">continue</beam><beam number="2">continue</beam></note><note><pitch><step>D</step><octave>4</octave></pitch><duration>3</duration><voice>1</voice><type>16th</type><stem>up</stem><beam number="1">end</beam><beam number="2">end</beam></note><note><pitch><step>E</step><alter>-1</alter><octave>4</octave></pitch><duration>6</duration><voice>1</voice><type>eighth</type><stem>up</stem><beam number="1">begin</beam></note><note><pitch><step>F</step><octave>4</octave></pitch><duration>6</duration><voice>1</voice><type>eighth</type><stem>up</stem><beam number="1">end</beam></note></measure><measure number="9"><print new-system="yes"/><note><pitch><step>A</step><octave>4</octave></pitch><duration>6</duration><voice>1</voice><type>eighth</type><stem>down</stem><beam number="1">begin</beam></note><note><pitch><step>B</step><alter>-1</alter><octave>4</octave></pitch><duration>6</duration><voice>1</voice><type>eighth</type><stem>down</stem><beam number="1">continue</beam></note><note><pitch><step>C</step><octave>5</octave></pitch><duration>6</duration><voice>1</voice><type>eighth</type><stem>down</stem><beam number="1">continue</beam></note><note><pitch><step>D</step><octave>5</octave></pitch><duration>6</duration><voice>1</voice><type>eighth</type><stem>down</stem><beam number="1">end</beam></note><note><pitch><step>C</step><octave>5</octave></pitch><duration>6</duration><voice>1</voice><type>eighth</type><stem>up</stem><beam number="1">begin</beam></note><note><pitch><step>B</step><alter>-1</alter><octave>4</octave></pitch><duration>6</duration><voice>1</voice><type>eighth</type><stem>up</stem><beam number="1">continue</beam></note><note><pitch><step>G</step><octave>4</octave></pitch><duration>6</duration><voice>1</voice><type>eighth</type><stem>up</stem><beam number="1">continue</beam></note><note><pitch><step>G</step><octave>4</octave></pitch><duration>6</duration><voice>1</voice><type>eighth</type><stem>up</stem><beam number="1">end</beam></note></measure><measure number="10"><note><pitch><step>F</step><octave>4</octave></pitch><duration>6</duration><voice>1</voice><type>eighth</type><stem>up</stem><beam number="1">begin</beam></note><note><pitch><step>G</step><octave>4</octave></pitch><duration>6</duration><voice>1</voice><type>eighth</type><stem>up</stem><beam number="1">continue</beam></note><note><pitch><step>A</step><octave>4</octave></pitch><duration>6</duration><voice>1</voice><type>eighth</type><stem>up</stem><beam number="1">continue</beam></note><note><pitch><step>F</step><octave>4</octave></pitch><duration>6</duration><voice>1</voice><type>eighth</type><stem>up</stem><beam number="1">end</beam></note><note><pitch><step>E</step><octave>4</octave></pitch><duration>6</duration><voice>1</voice><type>eighth</type><stem>up</stem><beam number="1">begin</beam></note><note><pitch><step>B</step><alter>-1</alter><octave>3</octave></pitch><duration>6</duration><voice>1</voice><type>eighth</type><stem>up</stem><beam number="1">continue</beam></note><note><pitch><step>B</step><octave>3</octave></pitch><duration>6</duration><voice>1</voice><type>eighth</type><accidental>natural</accidental><stem>up</stem><beam number="1">continue</beam></note><note><pitch><step>C</step><alter>1</alter><octave>4</octave></pitch><duration>6</duration><voice>1</voice><type>eighth</type><accidental>sharp</accidental><stem>up</stem><beam number="1">end</beam></note></measure><measure number="11"><note><pitch><step>E</step><octave>4</octave></pitch><duration>6</duration><voice>1</voice><type>eighth</type><stem>up</stem><beam number="1">begin</beam></note><note><pitch><step>E</step><alter>-1</alter><octave>4</octave></pitch><duration>6</duration><voice>1</voice><type>eighth</type><accidental>flat</accidental><stem>up</stem><beam number="1">continue</beam></note><note><pitch><step>D</step><octave>4</octave></pitch><duration>6</duration><voice>1</voice><type>eighth</type><stem>up</stem><beam number="1">continue</beam></note><note><pitch><step>B</step><alter>-1</alter><octave>3</octave></pitch><duration>6</duration><voice>1</voice><type>eighth</type><stem>up</stem><beam number="1">end</beam></note><note><pitch><step>B</step><octave>3</octave></pitch><duration>12</duration><voice>1</voice><type>quarter</type><accidental>natural</accidental><stem>up</stem></note><note><rest/><duration>6</duration><voice>1</voice><type>eighth</type></note><note><pitch><step>A</step><octave>3</octave></pitch><duration>6</duration><voice>1</voice><type>eighth</type><stem>up</stem></note></measure><measure number="12"><note><pitch><step>B</step><alter>-1</alter><octave>3</octave></pitch><duration>6</duration><voice>1</voice><type>eighth</type><stem>up</stem><beam number="1">begin</beam></note><note><pitch><step>D</step><octave>4</octave></pitch><duration>6</duration><voice>1</voice><type>eighth</type><stem>up</stem><beam number="1">continue</beam></note><note><pitch><step>E</step><octave>4</octave></pitch><duration>6</duration><voice>1</voice><type>eighth</type><stem>up</stem><beam number="1">continue</beam></note><note><pitch><step>D</step><alter>1</alter><octave>4</octave></pitch><duration>6</duration><voice>1</voice><type>eighth</type><accidental>sharp</accidental><stem>up</stem><beam number="1">end</beam></note><note><rest/><duration>6</duration><voice>1</voice><type>eighth</type></note><note><pitch><step>E</step><octave>4</octave></pitch><duration>6</duration><voice>1</voice><type>eighth</type><stem>up</stem></note><note><rest/><duration>12</duration><voice>1</voice><type>quarter</type></note><barline location="right"><bar-style>light-light</bar-style></barline></measure><measure number="13"><print new-page="yes"/><note><pitch><step>B</step><alter>-1</alter><octave>3</octave></pitch><duration>6</duration><voice>1</voice><type>eighth</type><stem>up</stem><beam number="1">begin</beam></note><note><pitch><step>D</step><octave>4</octave></pitch><duration>6</duration><voice>1</voice><type>eighth</type><stem>up</stem><beam number="1">continue</beam></note><note><pitch><step>E</step><octave>4</octave></pitch><duration>6</duration><voice>1</voice><type>eighth</type><stem>up</stem><beam number="1">continue</beam></note><note><pitch><step>D</step><alter>1</alter><octave>4</octave></pitch><duration>6</duration><voice>1</voice><type>eighth</type><accidental>sharp</accidental><stem>up</stem><beam number="1">end</beam></note><note><rest/><duration>6</duration><voice>1</voice><type>eighth</type></note><note><pitch><step>E</step><octave>4</octave></pitch><duration>12</duration><voice>1</voice><type>quarter</type><stem>up</stem></note><note><pitch><step>B</step><octave>3</octave></pitch><duration>6</duration><tie type="start"/><voice>1</voice><type>eighth</type><accidental>natural</accidental><stem>up</stem><notations><tied type="start"/></notations></note></measure><measure number="14"><note><pitch><step>B</step><octave>3</octave></pitch><duration>48</duration><tie type="stop"/><voice>1</voice><type>whole</type><notations><tied type="stop"/></notations></note><barline location="right"><bar-style>light-heavy</bar-style></barline></measure><measure number="15"><note><rest/><duration>48</duration><voice>1</voice></note></measure><measure number="16"><note><rest/><duration>48</duration><voice>1</voice></note><barline location="right"><bar-style>light-heavy</bar-style></barline></measure></part><part id="P3"><measure number="1"><attributes><divisions>12</divisions><key><fifths>-1</fifths><mode>major</mode></key><time><beats>4</beats><beat-type>4</beat-type></time><clef><sign>G</sign><line>2</line></clef></attributes><sound tempo="96"/><note><pitch><step>E</step><octave>4</octave></pitch><duration>6</duration><voice>1</voice><type>eighth</type><stem>up</stem><beam number="1">begin</beam></note><note><pitch><step>F</step><octave>4</octave></pitch><duration>6</duration><voice>1</voice><type>eighth</type><stem>up</stem><beam number="1">continue</beam></note><note><pitch><step>G</step><octave>4</octave></pitch><duration>6</duration><voice>1</voice><type>eighth</type><stem>up</stem><beam number="1">continue</beam></note><note><pitch><step>A</step><octave>4</octave></pitch><duration>6</duration><voice>1</voice><type>eighth</type><stem>up</stem><beam number="1">end</beam></note><note><pitch><step>G</step><octave>4</octave></pitch><duration>6</duration><voice>1</voice><type>eighth</type><stem>up</stem><beam number="1">begin</beam></note><note><pitch><step>F</step><octave>4</octave></pitch><duration>6</duration><voice>1</voice><type>eighth</type><stem>up</stem><beam number="1">continue</beam></note><note><pitch><step>E</step><octave>4</octave></pitch><duration>6</duration><voice>1</voice><type>eighth</type><stem>up</stem><beam number="1">continue</beam></note><note><pitch><step>C</step><octave>4</octave></pitch><duration>6</duration><voice>1</voice><type>eighth</type><stem>up</stem><beam number="1">end</beam></note></measure><measure number="2"><note><pitch><step>B</step><alter>-1</alter><octave>3</octave></pitch><duration>6</duration><voice>1</voice><type>eighth</type><stem>up</stem><beam number="1">begin</beam></note><note><pitch><step>C</step><octave>4</octave></pitch><duration>6</duration><voice>1</voice><type>eighth</type><stem>up</stem><beam number="1">continue</beam></note><note><pitch><step>B</step><alter>-1</alter><octave>3</octave></pitch><duration>6</duration><voice>1</voice><type>eighth</type><stem>up</stem><beam number="1">continue</beam></note><note><pitch><step>G</step><octave>3</octave></pitch><duration>6</duration><voice>1</voice><type>eighth</type><stem>up</stem><beam number="1">end</beam></note><note><rest/><duration>12</duration><voice>1</voice><type>quarter</type></note><note><pitch><step>B</step><alter>-1</alter><octave>3</octave></pitch><duration>6</duration><voice>1</voice><type>eighth</type><stem>up</stem><beam number="1">begin</beam></note><note><pitch><step>C</step><alter>1</alter><octave>4</octave></pitch><duration>6</duration><voice>1</voice><type>eighth</type><accidental>sharp</accidental><stem>up</stem><beam number="1">end</beam></note></measure><measure number="3"><note><pitch><step>B</step><alter>-1</alter><octave>3</octave></pitch><duration>6</duration><voice>1</voice><type>eighth</type><stem>up</stem><beam number="1">begin</beam></note><note><pitch><step>A</step><octave>3</octave></pitch><duration>6</duration><voice>1</voice><type>eighth</type><stem>up</stem><beam number="1">end</beam></note><note><rest/><duration>12</duration><voice>1</voice><type>quarter</type></note><note><rest/><duration>12</duration><voice>1</voice><type>quarter</type></note><note><rest/><duration>6</duration><voice>1</voice><type>eighth</type></note><note><pitch><step>B</step><octave>3</octave></pitch><duration>6</duration><voice>1</voice><type>eighth</type><accidental>natural</accidental><stem>up</stem></note></measure><measure number="4"><note><pitch><step>B</step><alter>-1</alter><octave>3</octave></pitch><duration>6</duration><voice>1</voice><type>eighth</type><stem>up</stem><beam number="1">begin</beam></note><note><pitch><step>C</step><octave>4</octave></pitch><duration>6</duration><voice>1</voice><type>eighth</type><stem>up</stem><beam number="1">continue</beam></note><note><pitch><step>A</step><octave>3</octave></pitch><duration>6</duration><voice>1</voice><type>eighth</type><stem>up</stem><beam number="1">continue</beam></note><note><pitch><step>A</step><alter>-1</alter><octave>3</octave></pitch><duration>6</duration><voice>1</voice><type>eighth</type><accidental>flat</accidental><stem>up</stem><beam number="1">end</beam></note><note><pitch><step>G</step><octave>3</octave></pitch><duration>6</duration><voice>1</voice><type>eighth</type><stem>up</stem></note><note><pitch><step>E</step><alter>-1</alter><octave>4</octave></pitch><duration>12</duration><voice>1</voice><type>quarter</type><accidental>flat</accidental><stem>up</stem></note><note><pitch><step>E</step><alter>-1</alter><octave>4</octave></pitch><duration>6</duration><voice>1</voice><type>eighth</type><stem>up</stem></note></measure><measure number="5"><print new-system="yes"/><note><pitch><step>C</step><octave>4</octave></pitch><duration>4</duration><voice>1</voice><type>eighth</type><time-modification><actual-notes>3</actual-notes><normal-notes>2</normal-notes></time-modification><stem>up</stem><beam number="1">begin</beam><notations><tuplet placement="above" type="start" number="1"/></notations></note><note><pitch><step>C</step><alter>1</alter><octave>4</octave></pitch><duration>4</duration><voice>1</voice><type>eighth</type><accidental>sharp</accidental><time-modification><actual-notes>3</actual-notes><normal-notes>2</normal-notes></time-modification><stem>up</stem><beam number="1">continue</beam></note><note><pitch><step>D</step><octave>4</octave></pitch><duration>4</duration><voice>1</voice><type>eighth</type><time-modification><actual-notes>3</actual-notes><normal-notes>2</normal-notes></time-modification><stem>up</stem><beam number="1">end</beam><notations><tuplet type="stop" number="1"/></notations></note><note><pitch><step>E</step><alter>-1</alter><octave>4</octave></pitch><duration>6</duration><voice>1</voice><type>eighth</type><accidental>flat</accidental><stem>up</stem><beam number="1">begin</beam></note><note><pitch><step>C</step><alter>1</alter><octave>4</octave></pitch><duration>6</duration><voice>1</voice><type>eighth</type><stem>up</stem><beam number="1">end</beam></note><note><pitch><step>D</step><octave>4</octave></pitch><duration>6</duration><voice>1</voice><type>eighth</type><stem>up</stem><beam number="1">begin</beam></note><note><pitch><step>A</step><octave>3</octave></pitch><duration>6</duration><voice>1</voice><type>eighth</type><stem>up</stem><beam number="1">continue</beam></note><note><pitch><step>B</step><alter>-1</alter><octave>3</octave></pitch><duration>6</duration><voice>1</voice><type>eighth</type><stem>up</stem><beam number="1">continue</beam></note><note><pitch><step>D</step><alter>-1</alter><octave>4</octave></pitch><duration>6</duration><tie type="start"/><voice>1</voice><type>eighth</type><accidental>flat</accidental><stem>up</stem><beam number="1">end</beam><notations><tied type="start"/></notations></note></measure><measure number="6"><note><pitch><step>D</step><alter>-1</alter><octave>4</octave></pitch><duration>3</duration><tie type="stop"/><voice>1</voice><type>16th</type><stem>up</stem><beam number="1">begin</beam><beam number="2">begin</beam><notations><tied type="stop"/></notations></note><note><pitch><step>E</step><alter>-1</alter><octave>4</octave></pitch><duration>3</duration><voice>1</voice><type>16th</type><accidental>flat</accidental><stem>up</stem><beam number="1">continue</beam><beam number="2">continue</beam></note><note><pitch><step>D</step><alter>-1</alter><octave>4</octave></pitch><duration>3</duration><voice>1</voice><type>16th</type><accidental>flat</accidental><stem>up</stem><beam number="1">continue</beam><beam number="2">continue</beam></note><note><pitch><step>A</step><octave>3</octave></pitch><duration>3</duration><voice>1</voice><type>16th</type><stem>up</stem><beam number="1">end</beam><beam number="2">end</beam></note><note><pitch><step>B</step><alter>-1</alter><octave>3</octave></pitch><duration>12</duration><voice>1</voice><type>quarter</type><stem>up</stem></note><note><rest/><duration>24</duration><voice>1</voice><type>half</type></note></measure><measure number="7"><note><rest/><duration>24</duration><voice>1</voice><type>half</type></note><note><pitch><step>D</step><alter>1</alter><octave>4</octave></pitch><duration>4</duration><voice>1</voice><type>eighth</type><accidental>sharp</accidental><time-modification><actual-notes>3</actual-notes><normal-notes>2</normal-notes></time-modification><stem>up</stem><beam number="1">begin</beam><notations><tuplet placement="above" type="start" number="1"/></notations></note><note><pitch><step>E</step><octave>4</octave></pitch><duration>4</duration><voice>1</voice><type>eighth</type><time-modification><actual-notes>3</actual-notes><normal-notes>2</normal-notes></time-modification><stem>up</stem><beam number="1">continue</beam></note><note><pitch><step>F</step><octave>4</octave></pitch><duration>4</duration><voice>1</voice><type>eighth</type><time-modification><actual-notes>3</actual-notes><normal-notes>2</normal-notes></time-modification><stem>up</stem><beam number="1">end</beam><notations><tuplet type="stop" number="1"/></notations></note><note><pitch><step>F</step><alter>1</alter><octave>4</octave></pitch><duration>6</duration><voice>1</voice><type>eighth</type><accidental>sharp</accidental><stem>up</stem><beam number="1">begin</beam></note><note><pitch><step>F</step><octave>4</octave></pitch><duration>6</duration><voice>1</voice><type>eighth</type><accidental>natural</accidental><stem>up</stem><beam number="1">end</beam></note></measure><measure number="8"><note><pitch><step>G</step><alter>-1</alter><octave>4</octave></pitch><duration>6</duration><voice>1</voice><type>eighth</type><accidental>flat</accidental><stem>up</stem><beam number="1">begin</beam></note><note><pitch><step>A</step><alter>-1</alter><octave>3</octave></pitch><duration>6</duration><voice>1</voice><type>eighth</type><accidental>flat</accidental><stem>up</stem><beam number="1">continue</beam></note><note><pitch><step>C</step><alter>-1</alter><octave>4</octave></pitch><duration>6</duration><voice>1</voice><type>eighth</type><accidental>flat</accidental><stem>up</stem><beam number="1">continue</beam></note><note><pitch><step>D</step><alter>-1</alter><octave>4</octave></pitch><duration>6</duration><tie type="start"/><voice>1</voice><type>eighth</type><accidental>flat</accidental><stem>up</stem><beam number="1">end</beam><notations><tied type="start"/></notations></note><note><pitch><step>D</step><alter>-1</alter><octave>4</octave></pitch><duration>3</duration><tie type="stop"/><voice>1</voice><type>16th</type><stem>up</stem><beam number="1">begin</beam><beam number="2">begin</beam><notations><tied type="stop"/></notations></note><note><pitch><step>E</step><alter>-1</alter><octave>4</octave></pitch><duration>3</duration><voice>1</voice><type>16th</type><accidental>flat</accidental><stem>up</stem><beam number="1">continue</beam><beam number="2">continue</beam></note><note><pitch><step>D</step><alter>-1</alter><octave>4</octave></pitch><duration>3</duration><voice>1</voice><type>16th</type><stem>up</stem><beam number="1">continue</beam><beam number="2">continue</beam></note><note><pitch><step>B</step><alter>-1</alter><octave>3</octave></pitch><duration>3</duration><voice>1</voice><type>16th</type><stem>up</stem><beam number="1">end</beam><beam number="2">end</beam></note><note><pitch><step>C</step><alter>-1</alter><octave>4</octave></pitch><duration>6</duration><voice>1</voice><type>eighth</type><stem>up</stem><beam number="1">begin</beam></note><note><pitch><step>D</step><alter>-1</alter><octave>4</octave></pitch><duration>6</duration><voice>1</voice><type>eighth</type><stem>up</stem><beam number="1">end</beam></note></measure><measure number="9"><print new-system="yes"/><note><pitch><step>F</step><octave>4</octave></pitch><duration>6</duration><voice>1</voice><type>eighth</type><stem>up</stem><beam number="1">begin</beam></note><note><pitch><step>G</step><octave>4</octave></pitch><duration>6</duration><voice>1</voice><type>eighth</type><stem>up</stem><beam number="1">continue</beam></note><note><pitch><step>A</step><octave>4</octave></pitch><duration>6</duration><voice>1</voice><type>eighth</type><stem>up</stem><beam number="1">continue</beam></note><note><pitch><step>B</step><alter>-1</alter><octave>4</octave></pitch><duration>6</duration><voice>1</voice><type>eighth</type><stem>up</stem><beam number="1">end</beam></note><note><pitch><step>G</step><octave>4</octave></pitch><duration>6</duration><voice>1</voice><type>eighth</type><stem>up</stem><beam number="1">begin</beam></note><note><pitch><step>F</step><octave>4</octave></pitch><duration>6</duration><voice>1</voice><type>eighth</type><stem>up</stem><beam number="1">continue</beam></note><note><pitch><step>E</step><octave>4</octave></pitch><duration>6</duration><voice>1</voice><type>eighth</type><stem>up</stem><beam number="1">continue</beam></note><note><pitch><step>E</step><alter>-1</alter><octave>4</octave></pitch><duration>6</duration><voice>1</voice><type>eighth</type><accidental>flat</accidental><stem>up</stem><beam number="1">end</beam></note></measure><measure number="10"><note><pitch><step>D</step><octave>4</octave></pitch><duration>6</duration><voice>1</voice><type>eighth</type><stem>up</stem><beam number="1">begin</beam></note><note><pitch><step>E</step><octave>4</octave></pitch><duration>6</duration><voice>1</voice><type>eighth</type><stem>up</stem><beam number="1">continue</beam></note><note><pitch><step>F</step><octave>4</octave></pitch><duration>6</duration><voice>1</voice><type>eighth</type><stem>up</stem><beam number="1">continue</beam></note><note><pitch><step>D</step><octave>4</octave></pitch><duration>6</duration><voice>1</voice><type>eighth</type><stem>up</stem><beam number="1">end</beam></note><note><pitch><step>D</step><alter>-1</alter><octave>4</octave></pitch><duration>6</duration><voice>1</voice><type>eighth</type><accidental>flat</accidental><stem>up</stem><beam number="1">begin</beam></note><note><pitch><step>G</step><octave>3</octave></pitch><duration>6</duration><voice>1</voice><type>eighth</type><stem>up</stem><beam number="1">continue</beam></note><note><pitch><step>A</step><alter>-1</alter><octave>3</octave></pitch><duration>6</duration><voice>1</voice><type>eighth</type><accidental>flat</accidental><stem>up</stem><beam number="1">continue</beam></note><note><pitch><step>B</step><alter>-1</alter><octave>3</octave></pitch><duration>6</duration><voice>1</voice><type>eighth</type><stem>up</stem><beam number="1">end</beam></note></measure><measure number="11"><note><pitch><step>C</step><octave>4</octave></pitch><duration>6</duration><voice>1</voice><type>eighth</type><stem>up</stem><beam number="1">begin</beam></note><note><pitch><step>B</step><alter>-1</alter><octave>3</octave></pitch><duration>6</duration><voice>1</voice><type>eighth</type><stem>up</stem><beam number="1">continue</beam></note><note><pitch><step>A</step><octave>3</octave></pitch><duration>6</duration><voice>1</voice><type>eighth</type><stem>up</stem><beam number="1">continue</beam></note><note><pitch><step>E</step><octave>3</octave></pitch><duration>6</duration><voice>1</voice><type>eighth</type><stem>up</stem><beam number="1">end</beam></note><note><pitch><step>F</step><octave>3</octave></pitch><duration>12</duration><voice>1</voice><type>quarter</type><stem>up</stem></note><note><rest/><duration>6</duration><voice>1</voice><type>eighth</type></note><note><pitch><step>E</step><octave>3</octave></pitch><duration>6</duration><voice>1</voice><type>eighth</type><stem>up</stem></note></measure><measure number="12"><note><pitch><step>F</step><octave>3</octave></pitch><duration>6</duration><voice>1</voice><type>eighth</type><stem>up</stem><beam number="1">begin</beam></note><note><pitch><step>B</step><alter>-1</alter><octave>3</octave></pitch><duration>6</duration><voice>1</voice><type>eighth</type><stem>up</stem><beam number="1">continue</beam></note><note><pitch><step>C</step><octave>4</octave></pitch><duration>6</duration><voice>1</voice><type>eighth</type><stem>up</stem><beam number="1">continue</beam></note><note><pitch><step>B</step><octave>3</octave></pitch><duration>6</duration><voice>1</voice><type>eighth</type><accidental>natural</accidental><stem>up</stem><beam number="1">end</beam></note><note><rest/><duration>6</duration><voice>1</voice><type>eighth</type></note><note><pitch><step>B</step><alter>-1</alter><octave>3</octave></pitch><duration>6</duration><voice>1</voice><type>eighth</type><accidental>flat</accidental><stem>up</stem></note><note><rest/><duration>12</duration><voice>1</voice><type>quarter</type></note><barline location="right"><bar-style>light-light</bar-style></barline></measure><measure number="13"><print new-page="yes"/><note><pitch><step>F</step><octave>3</octave></pitch><duration>6</duration><voice>1</voice><type>eighth</type><stem>up</stem><beam number="1">begin</beam></note><note><pitch><step>B</step><alter>-1</alter><octave>3</octave></pitch><duration>6</duration><voice>1</voice><type>eighth</type><stem>up</stem><beam number="1">continue</beam></note><note><pitch><step>C</step><octave>4</octave></pitch><duration>6</duration><voice>1</voice><type>eighth</type><stem>up</stem><beam number="1">continue</beam></note><note><pitch><step>B</step><octave>3</octave></pitch><duration>6</duration><voice>1</voice><type>eighth</type><accidental>natural</accidental><stem>up</stem><beam number="1">end</beam></note><note><rest/><duration>6</duration><voice>1</voice><type>eighth</type></note><note><pitch><step>B</step><alter>-1</alter><octave>3</octave></pitch><duration>12</duration><voice>1</voice><type>quarter</type><accidental>flat</accidental><stem>up</stem></note><note><pitch><step>A</step><octave>3</octave></pitch><duration>6</duration><tie type="start"/><voice>1</voice><type>eighth</type><stem>up</stem><notations><tied type="start"/></notations></note></measure><measure number="14"><note><pitch><step>A</step><octave>3</octave></pitch><duration>48</duration><tie type="stop"/><voice>1</voice><type>whole</type><notations><tied type="stop"/></notations></note><barline location="right"><bar-style>light-heavy</bar-style></barline></measure><measure number="15"><note><rest/><duration>48</duration><voice>1</voice></note></measure><measure number="16"><note><rest/><duration>48</duration><voice>1</voice></note><barline location="right"><bar-style>light-heavy</bar-style></barline></measure></part></score-partwise>