<score-partwise version="2.0"><work><work-number/><work-title/></work><movement-number/><movement-title>Tenderly</movement-title><identification><creator type="composer">Walter Gross</creator><creator type="poet">Jack Lawrence</creator><rights>All Rights Reserved</rights><encoding><software>MuseScore 0.9.4</software><encoding-date>2009-03-02</encoding-date><software>ProxyMusic 2.0 c</software></encoding><source>http://wikifonia.org/node/1422/revisions/1838/view</source></identification><part-list><score-part id="P1"><part-name>Voice</part-name><score-instrument id="P1-I3"><instrument-name>Voice</instrument-name></score-instrument><midi-instrument id="P1-I3"><midi-channel>1</midi-channel><midi-program>53</midi-program></midi-instrument></score-part></part-list><part id="P1"><measure number="1"><attributes><divisions>480</divisions><key><fifths>-3</fifths><mode>major</mode></key><time><beats>3</beats><beat-type>4</beat-type></time><clef><sign>G</sign><line>2</line></clef></attributes><note><pitch><step>G</step><octave>4</octave></pitch><duration>240</duration><voice>1</voice><type>eighth</type><stem>up</stem><beam number="1">begin</beam></note><note><pitch><step>A</step><alter>-1</alter><octave>4</octave></pitch><duration>240</duration><voice>1</voice><type>eighth</type><stem>up</stem><beam number="1">continue</beam></note><note><pitch><step>C</step><octave>5</octave></pitch><duration>240</duration><voice>1</voice><type>eighth</type><stem>down</stem><beam number="1">end</beam></note></measure><measure number="2"><harmony print-frame="no"><root><root-step>G</root-step></root><kind text="m">minor</kind></harmony><note><pitch><step>B</step><alter>-1</alter><octave>4</octave></pitch><duration>720</duration><voice>1</voice><type>quarter</type><dot/><stem>down</stem></note><note><pitch><step>G</step><octave>4</octave></pitch><duration>240</duration><voice>1</voice><type>eighth</type><stem>up</stem></note><note><pitch><step>A</step><alter>-1</alter><octave>4</octave></pitch><duration>240</duration><voice>1</voice><type>eighth</type><stem>up</stem><beam number="1">begin</beam></note><note><pitch><step>C</step><octave>5</octave></pitch><duration>240</duration><voice>1</voice><type>eighth</type><stem>down</stem><beam number="1">end</beam></note></measure><measure number="3"><harmony print-frame="no"><root><root-step>G</root-step><root-alter>-1</root-alter></root><kind text="Maj7">major-seventh</kind></harmony><note><pitch><step>B</step><alter>-1</alter><octave>4</octave></pitch><duration>720</duration><voice>1</voice><type>quarter</type><dot/><stem>down</stem></note><note><pitch><step>E</step><alter>-1</alter><octave>4</octave></pitch><duration>240</duration><voice>1</voice><type>eighth</type><stem>up</stem></note><note><pitch><step>F</step><octave>4</octave></pitch><duration>240</duration><voice>1</voice><type>eighth</type><stem>up</stem><beam number="1">begin</beam></note><note><pitch><step>A</step><alter>-1</alter><octave>4</octave></pitch><duration>240</duration><voice>1</voice><type>eighth</type><stem>up</stem><beam number="1">end</beam></note></measure><measure number="4"><harmony print-frame="no"><root><root-step>F</root-step></root><kind text="m7">minor-seventh</kind></harmony><note><pitch><step>G</step><octave>4</octave></pitch><duration>480</duration><voice>1</voice><type>quarter</type><stem>up</stem></note><note><pitch><step>E</step><alter>-1</alter><octave>4</octave></pitch><duration>480</duration><voice>1</voice><type>quarter</type><stem>up</stem></note><note><pitch><step>C</step><octave>4</octave></pitch><duration>480</duration><voice>1</voice><type>quarter</type><stem>up</stem></note></measure><measure number="5"><harmony print-frame="no"><root><root-step>B</root-step><root-alter>-1</root-alter></root><kind text="7">dominant-seventh</kind></harmony><note><pitch><step>F</step><octave>4</octave></pitch><duration>480</duration><voice>1</voice><type>quarter</type><stem>up</stem></note><note><pitch><step>B</step><alter>-1</alter><octave>3</octave></pitch><duration>240</duration><voice>1</voice><type>eighth</type><stem>up</stem><beam number="1">begin</beam></note><note><pitch><step>B</step><alter>-1</alter><octave>4</octave></pitch><duration>240</duration><voice>1</voice><type>eighth</type><stem>down</stem><beam number="1">end</beam><lyric number="1"><syllabic>single</syllabic><text>The</text></lyric></note><note><pitch><step>C</step><octave>5</octave></pitch><duration>240</duration><voice>1</voice><type>eighth</type><stem>down</stem><beam number="1">begin</beam><lyric number="1"><syllabic>begin</syllabic><text>eve</text></lyric></note><note><pitch><step>E</step><alter>-1</alter><octave>5</octave></pitch><duration>240</duration><voice>1</voice><type>eighth</type><stem>down</stem><beam number="1">end</beam><lyric number="1"><syllabic>end</syllabic><text>ning</text></lyric></note></measure><measure number="6"><barline location="left"><bar-style>heavy-light</bar-style><repeat direction="forward"/></barline><harmony print-frame="no"><root><root-step>E</root-step><root-alter>-1</root-alter></root><kind text="Maj7">major-seventh</kind></harmony><note><pitch><step>D</step><octave>5</octave></pitch><duration>720</duration><voice>1</voice><type>quarter</type><dot/><stem>down</stem><lyric number="1"><syllabic>single</syllabic><text>breeze</text></lyric></note><note><pitch><step>B</step><alter>-1</alter><octave>4</octave></pitch><duration>240</duration><voice>1</voice><type>eighth</type><stem>down</stem><lyric number="1"><syllabic>begin</syllabic><text>ca</text></lyric></note><note><pitch><step>C</step><octave>5</octave></pitch><duration>240</duration><voice>1</voice><type>eighth</type><stem>down</stem><beam number="1">begin</beam><lyric number="1"><syllabic>end</syllabic><text>ressed</text></lyric></note><note><pitch><step>E</step><alter>-1</alter><octave>5</octave></pitch><duration>240</duration><voice>1</voice><type>eighth</type><stem>down</stem><beam number="1">end</beam><lyric number="1"><syllabic>single</syllabic><text>the</text></lyric></note></measure><measure number="7"><harmony print-frame="no"><root><root-step>B</root-step><root-alter>-1</root-alter></root><kind text="aug">augmented</kind></harmony><note><pitch><step>D</step><octave>5</octave></pitch><duration>960</duration><voice>1</voice><type>half</type><stem>down</stem><lyric number="1"><syllabic>single</syllabic><text>trees</text></lyric></note><note><pitch><step>B</step><alter>-1</alter><octave>4</octave></pitch><duration>240</duration><voice>1</voice><type>eighth</type><stem>down</stem><beam number="1">begin</beam><lyric number="1"><syllabic>begin</syllabic><text>ten</text></lyric></note><note><pitch><step>G</step><alter>-1</alter><octave>4</octave></pitch><duration>240</duration><voice>1</voice><type>eighth</type><accidental>flat</accidental><stem>up</stem><beam number="1">end</beam><lyric number="1"><syllabic>middle</syllabic><text>der</text></lyric></note></measure><measure number="8"><harmony print-frame="no"><root><root-step>E</root-step><root-alter>-1</root-alter></root><kind text="m7">minor-seventh</kind></harmony><note><pitch><step>F</step><octave>4</octave></pitch><duration>1440</duration><tie type="start"/><voice>1</voice><type>half</type><dot/><stem>up</stem><notations><tied type="start"/></notations><lyric number="1"><syllabic>end</syllabic><text>ly;</text><extend/></lyric></note></measure><measure number="9"><harmony print-frame="no"><root><root-step>A</root-step><root-alter>-1</root-alter></root><kind text="9">dominant-ninth</kind></harmony><note><pitch><step>F</step><octave>4</octave></pitch><duration>480</duration><tie type="stop"/><voice>1</voice><type>quarter</type><stem>up</stem><notations><tied type="stop"/></notations></note><note><rest/><duration>240</duration><voice>1</voice><type>eighth</type></note><note><pitch><step>E</step><alter>-1</alter><octave>4</octave></pitch><duration>240</duration><voice>1</voice><type>eighth</type><stem>up</stem><lyric number="1"><syllabic>single</syllabic><text>the</text></lyric></note><note><pitch><step>F</step><octave>4</octave></pitch><duration>240</duration><voice>1</voice><type>eighth</type><stem>up</stem><beam number="1">begin</beam><lyric number="1"><syllabic>begin</syllabic><text>tremb</text></lyric></note><note><pitch><step>A</step><alter>-1</alter><octave>4</octave></pitch><duration>240</duration><voice>1</voice><type>eighth</type><stem>up</stem><beam number="1">end</beam><lyric number="1"><syllabic>end</syllabic><text>ling</text></lyric></note></measure><measure number="10"><harmony print-frame="no"><root><root-step>F</root-step></root><kind text="m7">minor-seventh</kind></harmony><note><pitch><step>G</step><octave>4</octave></pitch><duration>720</duration><voice>1</voice><type>quarter</type><dot/><stem>up</stem><lyric number="1"><syllabic>single</syllabic><text>trees</text></lyric></note><note><pitch><step>E</step><alter>-1</alter><octave>4</octave></pitch><duration>240</duration><voice>1</voice><type>eighth</type><stem>up</stem><lyric number="1"><syllabic>begin</syllabic><text>em</text></lyric></note><note><pitch><step>F</step><octave>4</octave></pitch><duration>240</duration><voice>1</voice><type>eighth</type><stem>up</stem><beam number="1">begin</beam><lyric number="1"><syllabic>end</syllabic><text>braced</text></lyric></note><note><pitch><step>A</step><alter>-1</alter><octave>4</octave></pitch><duration>240</duration><voice>1</voice><type>eighth</type><stem>up</stem><beam number="1">end</beam><lyric number="1"><syllabic>single</syllabic><text>the</text></lyric></note></measure><measure number="11"><harmony print-frame="no"><root><root-step>A</root-step><root-alter>-1</root-alter></root><kind text="m">minor</kind></harmony><note><pitch><step>G</step><octave>4</octave></pitch><duration>960</duration><voice>1</voice><type>half</type><stem>up</stem><lyric number="1"><syllabic>single</syllabic><text>breeze</text></lyric></note><note><pitch><step>E</step><alter>-1</alter><octave>4</octave></pitch><duration>240</duration><voice>1</voice><type>eighth</type><stem>up</stem><beam number="1">begin</beam><lyric number="1"><syllabic>begin</syllabic><text>ten</text></lyric></note><note><pitch><step>C</step><alter>-1</alter><octave>4</octave></pitch><duration>240</duration><voice>1</voice><type>eighth</type><accidental>flat</accidental><stem>up</stem><beam number="1">end</beam><lyric number="1"><syllabic>middle</syllabic><text>der</text></lyric></note></measure><measure number="12"><harmony print-frame="no"><root><root-step>E</root-step><root-alter>-1</root-alter></root><kind text="">major</kind></harmony><harmony relative-x="1.50" print-frame="no"><root><root-step>G</root-step></root><kind text="m7">minor-seventh</kind></harmony><harmony relative-x="49.50" print-frame="no"><root><root-step>F</root-step></root><kind text="m7">minor-seventh</kind></harmony><note><pitch><step>B</step><alter>-1</alter><octave>3</octave></pitch><duration>1440</duration><tie type="start"/><voice>1</voice><type>half</type><dot/><stem>up</stem><notations><tied type="start"/></notations><lyric number="1"><syllabic>end</syllabic><text>ly</text><extend/></lyric></note></measure><measure number="13"><harmony print-frame="no"><root><root-step>E</root-step><root-alter>-1</root-alter></root><kind text="">major</kind></harmony><note><pitch><step>B</step><alter>-1</alter><octave>3</octave></pitch><duration>480</duration><tie type="stop"/><voice>1</voice><type>quarter</type><stem>up</stem><notations><tied type="stop"/></notations></note><note><rest/><duration>480</duration><voice>1</voice><type>quarter</type></note><note><pitch><step>B</step><alter>-1</alter><octave>3</octave></pitch><duration>480</duration><voice>1</voice><type>quarter</type><stem>up</stem><lyric number="1"><syllabic>single</syllabic><text>Then</text></lyric></note></measure><measure number="14"><harmony print-frame="no"><root><root-step>A</root-step><root-alter>-1</root-alter></root><kind text="m7">minor-seventh</kind></harmony><note><pitch><step>C</step><alter>-1</alter><octave>4</octave></pitch><duration>960</duration><voice>1</voice><type>half</type><accidental>flat</accidental><stem>up</stem><lyric number="1"><syllabic>single</syllabic><text>you</text></lyric></note><note><pitch><step>B</step><alter>-1</alter><octave>4</octave></pitch><duration>480</duration><voice>1</voice><type>quarter</type><stem>down</stem><lyric number="1"><syllabic>single</syllabic><text>and</text></lyric></note></measure><measure number="15"><harmony print-frame="no"><root><root-step>B</root-step><root-alter>-1</root-alter></root><kind text="7">dominant-seventh</kind></harmony><note><pitch><step>G</step><octave>4</octave></pitch><duration>960</duration><voice>1</voice><type>half</type><stem>up</stem><lyric number="1"><syllabic>single</syllabic><text>I</text></lyric></note><note><pitch><step>B</step><alter>-1</alter><octave>3</octave></pitch><duration>480</duration><voice>1</voice><type>quarter</type><stem>up</stem><lyric number="1"><syllabic>single</syllabic><text>came</text></lyric></note></measure><measure number="16"><harmony print-frame="no"><root><root-step>A</root-step><root-alter>-1</root-alter></root><kind text="m7">minor-seventh</kind></harmony><note><pitch><step>C</step><alter>-1</alter><octave>4</octave></pitch><duration>480</duration><voice>1</voice><type>quarter</type><accidental>flat</accidental><stem>up</stem><lyric number="1"><syllabic>begin</syllabic><text>wan</text></lyric></note><note><pitch><step>E</step><alter>-1</alter><octave>4</octave></pitch><duration>480</duration><voice>1</voice><type>quarter</type><stem>up</stem><lyric number="1"><syllabic>middle</syllabic><text>der</text></lyric></note><note><pitch><step>B</step><alter>-1</alter><octave>4</octave></pitch><duration>480</duration><voice>1</voice><type>quarter</type><stem>down</stem><lyric number="1"><syllabic>end</syllabic><text>ing</text></lyric></note></measure><measure number="17"><harmony print-frame="no"><root><root-step>B</root-step><root-alter>-1</root-alter></root><kind text="7">dominant-seventh</kind></harmony><note><pitch><step>G</step><octave>4</octave></pitch><duration>960</duration><voice>1</voice><type>half</type><stem>up</stem><lyric number="1"><syllabic>single</syllabic><text>by</text></lyric></note><harmony print-frame="no"><root><root-step>B</root-step></root><kind text="dim">diminished</kind></harmony><note><pitch><step>F</step><octave>4</octave></pitch><duration>480</duration><voice>1</voice><type>quarter</type><stem>up</stem><lyric number="1"><syllabic>single</syllabic><text>and</text></lyric></note></measure><measure number="18"><harmony print-frame="no"><root><root-step>C</root-step></root><kind text="m7">minor-seventh</kind></harmony><note><pitch><step>E</step><alter>-1</alter><octave>4</octave></pitch><duration>480</duration><voice>1</voice><type>quarter</type><stem>up</stem><lyric number="1"><syllabic>single</syllabic><text>lost</text></lyric></note><note><pitch><step>G</step><octave>4</octave></pitch><duration>480</duration><voice>1</voice><type>quarter</type><stem>up</stem><lyric number="1"><syllabic>single</syllabic><text>in</text></lyric></note><note><pitch><step>F</step><octave>5</octave></pitch><duration>480</duration><voice>1</voice><type>quarter</type><stem>down</stem><lyric number="1"><syllabic>single</syllabic><text>a</text></lyric></note></measure><measure number="19"><harmony print-frame="no"><root><root-step>F</root-step></root><kind text="7">dominant-seventh</kind></harmony><note><pitch><step>D</step><octave>5</octave></pitch><duration>960</duration><voice>1</voice><type>half</type><stem>down</stem><lyric number="1"><syllabic>single</syllabic><text>sigh</text></lyric></note><note><pitch><step>F</step><octave>4</octave></pitch><duration>480</duration><voice>1</voice><type>quarter</type><stem>up</stem><lyric number="1"><syllabic>single</syllabic><text>were</text></lyric></note></measure><measure number="20"><harmony print-frame="no"><root><root-step>B</root-step><root-alter>-1</root-alter></root><kind text="7">dominant-seventh</kind></harmony><note><pitch><step>B</step><alter>-1</alter><octave>4</octave></pitch><duration>1440</duration><tie type="start"/><voice>1</voice><type>half</type><dot/><stem>down</stem><notations><tied type="start"/></notations><lyric number="1"><syllabic>single</syllabic><text>we.</text><extend/></lyric></note></measure><measure number="21"><note><pitch><step>B</step><alter>-1</alter><octave>4</octave></pitch><duration>480</duration><tie type="stop"/><voice>1</voice><type>quarter</type><stem>down</stem><notations><tied type="stop"/></notations></note><note><rest/><duration>240</duration><voice>1</voice><type>eighth</type></note><note><pitch><step>B</step><alter>-1</alter><octave>4</octave></pitch><duration>240</duration><voice>1</voice><type>eighth</type><stem>down</stem><lyric number="1"><syllabic>single</syllabic><text>The</text></lyric></note><note><pitch><step>C</step><octave>5</octave></pitch><duration>240</duration><voice>1</voice><type>eighth</type><stem>down</stem><beam number="1">begin</beam><lyric number="1"><syllabic>single</syllabic><text>shore</text></lyric></note><note><pitch><step>E</step><alter>-1</alter><octave>5</octave></pitch><duration>240</duration><voice>1</voice><type>eighth</type><stem>down</stem><beam number="1">end</beam><lyric number="1"><syllabic>single</syllabic><text>was</text></lyric></note><barline location="right"><bar-style>light-light</bar-style></barline></measure><measure number="22"><harmony print-frame="no"><root><root-step>E</root-step><root-alter>-1</root-alter></root><kind text="Maj7">major-seventh</kind></harmony><note><pitch><step>D</step><octave>5</octave></pitch><duration>720</duration><voice>1</voice><type>quarter</type><dot/><stem>down</stem><lyric number="1"><syllabic>single</syllabic><text>kissed</text></lyric></note><note><pitch><step>B</step><alter>-1</alter><octave>4</octave></pitch><duration>240</duration><voice>1</voice><type>eighth</type><stem>down</stem><lyric number="1"><syllabic>single</syllabic><text>by</text></lyric></note><note><pitch><step>C</step><octave>5</octave></pitch><duration>240</duration><voice>1</voice><type>eighth</type><stem>down</stem><beam number="1">begin</beam><lyric number="1"><syllabic>single</syllabic><text>sea</text></lyric></note><note><pitch><step>E</step><alter>-1</alter><octave>5</octave></pitch><duration>240</duration><voice>1</voice><type>eighth</type><stem>down</stem><beam number="1">end</beam><lyric number="1"><syllabic>single</syllabic><text>and</text></lyric></note></measure><measure number="23"><harmony print-frame="no"><root><root-step>B</root-step><root-alter>-1</root-alter></root><kind text="aug">augmented</kind></harmony><note><pitch><step>D</step><octave>5</octave></pitch><duration>960</duration><voice>1</voice><type>half</type><stem>down</stem><lyric number="1"><syllabic>single</syllabic><text>mist</text></lyric></note><note><pitch><step>B</step><alter>-1</alter><octave>4</octave></pitch><duration>240</duration><voice>1</voice><type>eighth</type><stem>down</stem><beam number="1">begin</beam><lyric number="1"><syllabic>begin</syllabic><text>ten</text></lyric></note><note><pitch><step>G</step><alter>-1</alter><octave>4</octave></pitch><duration>240</duration><voice>1</voice><type>eighth</type><accidental>flat</accidental><stem>up</stem><beam number="1">end</beam><lyric number="1"><syllabic>middle</syllabic><text>der</text></lyric></note></measure><measure number="24"><harmony print-frame="no"><root><root-step>E</root-step><root-alter>-1</root-alter></root><kind text="m7">minor-seventh</kind></harmony><note><pitch><step>F</step><octave>4</octave></pitch><duration>1440</duration><tie type="start"/><voice>1</voice><type>half</type><dot/><stem>up</stem><notations><tied type="start"/></notations><lyric number="1"><syllabic>end</syllabic><text>ly.</text><extend/></lyric></note></measure><measure number="25"><harmony print-frame="no"><root><root-step>A</root-step><root-alter>-1</root-alter></root><kind text="9">dominant-ninth</kind></harmony><note><pitch><step>F</step><octave>4</octave></pitch><duration>480</duration><tie type="stop"/><voice>1</voice><type>quarter</type><stem>up</stem><notations><tied type="stop"/></notations></note><note><rest/><duration>240</duration><voice>1</voice><type>eighth</type></note><note><pitch><step>E</step><alter>-1</alter><octave>4</octave></pitch><duration>240</duration><voice>1</voice><type>eighth</type><stem>up</stem><lyric number="1"><syllabic>single</syllabic><text>I</text></lyric></note><note><pitch><step>F</step><octave>4</octave></pitch><duration>240</duration><voice>1</voice><type>eighth</type><stem>up</stem><beam number="1">begin</beam><lyric number="1"><syllabic>single</syllabic><text>can't</text></lyric></note><note><pitch><step>A</step><alter>-1</alter><octave>4</octave></pitch><duration>240</duration><voice>1</voice><type>eighth</type><stem>up</stem><beam number="1">end</beam><lyric number="1"><syllabic>begin</syllabic><text>for</text></lyric></note></measure><measure number="26"><harmony print-frame="no"><root><root-step>F</root-step></root><kind text="m7">minor-seventh</kind></harmony><note><pitch><step>G</step><octave>4</octave></pitch><duration>720</duration><voice>1</voice><type>quarter</type><dot/><stem>up</stem><lyric number="1"><syllabic>end</syllabic><text>get</text></lyric></note><note><pitch><step>E</step><alter>-1</alter><octave>4</octave></pitch><duration>240</duration><voice>1</voice><type>eighth</type><stem>up</stem><lyric number="1"><syllabic>single</syllabic><text>how</text></lyric></note><note><pitch><step>F</step><octave>4</octave></pitch><duration>240</duration><voice>1</voice><type>eighth</type><stem>up</stem><beam number="1">begin</beam><lyric number="1"><syllabic>single</syllabic><text>two</text></lyric></note><note><pitch><step>A</step><alter>-1</alter><octave>4</octave></pitch><duration>240</duration><voice>1</voice><type>eighth</type><stem>up</stem><beam number="1">end</beam><lyric number="1"><syllabic>single</syllabic><text>hearts</text></lyric></note></measure><measure number="27"><harmony print-frame="no"><root><root-step>A</root-step><root-alter>-1</root-alter></root><kind text="m">minor</kind></harmony><note><pitch><step>G</step><octave>4</octave></pitch><duration>960</duration><voice>1</voice><type>half</type><stem>up</stem><lyric number="1"><syllabic>single</syllabic><text>met</text></lyric></note><note><pitch><step>E</step><alter>-1</alter><octave>4</octave></pitch><duration>240</duration><voice>1</voice><type>eighth</type><stem>up</stem><beam number="1">begin</beam><lyric number="1"><syllabic>begin</syllabic><text>breath</text></lyric></note><note><pitch><step>C</step><alter>-1</alter><octave>4</octave></pitch><duration>240</duration><voice>1</voice><type>eighth</type><accidental>flat</accidental><stem>up</stem><beam number="1">end</beam><lyric number="1"><syllabic>middle</syllabic><text>less</text></lyric></note></measure><measure number="28"><harmony print-frame="no"><root><root-step>E</root-step><root-alter>-1</root-alter></root><kind text="">major</kind></harmony><harmony print-frame="no"><root><root-step>G</root-step></root><kind text="m7">minor-seventh</kind></harmony><harmony relative-x="43.50" print-frame="no"><root><root-step>F</root-step></root><kind text="m7">minor-seventh</kind></harmony><note><pitch><step>B</step><alter>-1</alter><octave>3</octave></pitch><duration>1440</duration><tie type="start"/><voice>1</voice><type>half</type><dot/><stem>up</stem><notations><tied type="start"/></notations><lyric number="1"><syllabic>end</syllabic><text>ly.</text><extend/></lyric></note></measure><measure number="29"><direction><direction-type><words default-y="100">E</words></direction-type></direction><note><pitch><step>B</step><alter>-1</alter><octave>3</octave></pitch><duration>480</duration><tie type="stop"/><voice>1</voice><type>quarter</type><stem>up</stem><notations><tied type="stop"/></notations></note><note><rest/><duration>480</duration><voice>1</voice><type>quarter</type></note><note><pitch><step>B</step><alter>-1</alter><octave>3</octave></pitch><duration>480</duration><voice>1</voice><type>quarter</type><stem>up</stem><lyric number="1"><syllabic>single</syllabic><text>Your</text></lyric></note></measure><measure number="30"><harmony print-frame="no"><root><root-step>A</root-step><root-alter>-1</root-alter></root><kind text="m7">minor-seventh</kind></harmony><note><pitch><step>C</step><alter>-1</alter><octave>4</octave></pitch><duration>480</duration><voice>1</voice><type>quarter</type><accidental>flat</accidental><stem>up</stem><lyric number="1"><syllabic>single</syllabic><text>arms</text></lyric></note><note><pitch><step>E</step><alter>-1</alter><octave>4</octave></pitch><duration>480</duration><voice>1</voice><type>quarter</type><stem>up</stem><lyric number="1"><syllabic>begin</syllabic><text>op</text></lyric></note><note><pitch><step>B</step><alter>-1</alter><octave>4</octave></pitch><duration>480</duration><voice>1</voice><type>quarter</type><stem>down</stem><lyric number="1"><syllabic>end</syllabic><text>ened</text></lyric></note></measure><measure number="31"><harmony print-frame="no"><root><root-step>B</root-step><root-alter>-1</root-alter></root><kind text="7">dominant</kind></harmony><note><pitch><step>G</step><octave>4</octave></pitch><duration>960</duration><voice>1</voice><type>half</type><stem>up</stem><lyric number="1"><syllabic>single</syllabic><text>wide</text></lyric></note><harmony print-frame="no"><root><root-step>B</root-step></root><kind text="dim">diminished</kind></harmony><note><pitch><step>F</step><octave>4</octave></pitch><duration>480</duration><voice>1</voice><type>quarter</type><stem>up</stem><lyric number="1"><syllabic>single</syllabic><text>and</text></lyric></note></measure><measure number="32"><harmony print-frame="no"><root><root-step>C</root-step></root><kind text="m7">minor-seventh</kind></harmony><note><pitch><step>E</step><alter>-1</alter><octave>4</octave></pitch><duration>480</duration><voice>1</voice><type>quarter</type><stem>up</stem><lyric number="1"><syllabic>single</syllabic><text>closed</text></lyric></note><note><pitch><step>G</step><octave>4</octave></pitch><duration>480</duration><voice>1</voice><type>quarter</type><stem>up</stem><lyric number="1"><syllabic>single</syllabic><text>me</text></lyric></note><harmony print-frame="no"><root><root-step>E</root-step><root-alter>-1</root-alter></root><kind text="m7">minor-seventh</kind></harmony><note><pitch><step>F</step><octave>5</octave></pitch><duration>480</duration><voice>1</voice><type>quarter</type><stem>down</stem><lyric number="1"><syllabic>begin</syllabic><text>in</text></lyric></note></measure><measure number="33"><harmony print-frame="no"><root><root-step>F</root-step></root><kind text="9">dominant-ninth</kind></harmony><note><pitch><step>D</step><octave>5</octave></pitch><duration>720</duration><voice>1</voice><type>quarter</type><dot/><stem>down</stem><notations><fermata type="upright"/></notations><lyric number="1"><syllabic>end</syllabic><text>side;</text></lyric></note><note><pitch><step>E</step><alter>-1</alter><octave>5</octave></pitch><duration>240</duration><voice>1</voice><type>eighth</type><stem>down</stem><lyric number="1"><syllabic>single</syllabic><text>you</text></lyric></note><harmony print-frame="no"><root><root-step>F</root-step><root-alter>1</root-alter></root><kind text="dim">diminished</kind></harmony><note><pitch><step>C</step><octave>5</octave></pitch><duration>240</duration><voice>1</voice><type>eighth</type><stem>down</stem><beam number="1">begin</beam><lyric number="1"><syllabic>single</syllabic><text>took</text></lyric></note><note><pitch><step>D</step><octave>5</octave></pitch><duration>240</duration><voice>1</voice><type>eighth</type><stem>down</stem><beam number="1">end</beam><lyric number="1"><syllabic>single</syllabic><text>my</text></lyric></note></measure><measure number="34"><harmony print-frame="no"><root><root-step>E</root-step><root-alter>-1</root-alter></root><kind text="">major</kind></harmony><note><pitch><step>B</step><alter>-1</alter><octave>4</octave></pitch><duration>720</duration><voice>1</voice><type>quarter</type><dot/><stem>down</stem><lyric number="1"><syllabic>single</syllabic><text>lips,</text></lyric></note><note><pitch><step>C</step><octave>5</octave></pitch><duration>240</duration><voice>1</voice><type>eighth</type><stem>down</stem><lyric number="1"><syllabic>single</syllabic><text>you</text></lyric></note><harmony print-frame="no"><root><root-step>E</root-step></root><kind text="dim7">diminished-seventh</kind></harmony><note><pitch><step>A</step><alter>-1</alter><octave>4</octave></pitch><duration>240</duration><voice>1</voice><type>eighth</type><stem>up</stem><beam number="1">begin</beam><lyric number="1"><syllabic>single</syllabic><text>took</text></lyric></note><note><pitch><step>B</step><alter>-1</alter><octave>4</octave></pitch><duration>240</duration><voice>1</voice><type>eighth</type><stem>down</stem><beam number="1">end</beam><lyric number="1"><syllabic>single</syllabic><text>my</text></lyric></note></measure><measure number="35"><harmony print-frame="no"><root><root-step>F</root-step></root><kind text="m7">minor-seventh</kind></harmony><note><pitch><step>G</step><octave>4</octave></pitch><duration>720</duration><voice>1</voice><type>quarter</type><dot/><stem>up</stem><lyric number="1"><syllabic>single</syllabic><text>love</text></lyric></note><note><pitch><step>F</step><octave>4</octave></pitch><duration>240</duration><voice>1</voice><type>eighth</type><stem>up</stem><lyric number="1"><syllabic>single</syllabic><text>so</text></lyric></note><harmony print-frame="no"><root><root-step>B</root-step><root-alter>-1</root-alter></root><kind text="7b9">dominant</kind><degree><degree-value>9</degree-value><degree-alter>-1</degree-alter><degree-type>add</degree-type></degree></harmony><note><pitch><step>A</step><alter>-1</alter><octave>4</octave></pitch><duration>240</duration><voice>1</voice><type>eighth</type><stem>up</stem><beam number="1">begin</beam><lyric number="1"><syllabic>begin</syllabic><text>ten</text></lyric></note><note><pitch><step>D</step><octave>4</octave></pitch><duration>240</duration><voice>1</voice><type>eighth</type><stem>up</stem><beam number="1">end</beam><lyric number="1"><syllabic>middle</syllabic><text>der</text></lyric></note></measure><measure number="36"><barline location="left"><ending type="start" number="1"/></barline><harmony print-frame="no"><root><root-step>E</root-step><root-alter>-1</root-alter></root><kind text="">major</kind></harmony><direction><direction-type><words default-y="100">A</words></direction-type></direction><note><pitch><step>E</step><alter>-1</alter><octave>4</octave></pitch><duration>1440</duration><voice>1</voice><type>half</type><dot/><stem>up</stem><lyric number="1"><syllabic>end</syllabic><text>ly.</text></lyric></note></measure><measure number="37"><direction><direction-type><words default-y="100">B7sus</words></direction-type></direction><note><rest/><duration>480</duration><voice>1</voice><type>quarter</type></note><direction><direction-type><words default-y="100">B7</words></direction-type></direction><note><rest/><duration>240</duration><voice>1</voice><type>eighth</type></note><note><pitch><step>B</step><alter>-1</alter><octave>4</octave></pitch><duration>240</duration><voice>1</voice><type>eighth</type><stem>down</stem><lyric number="1"><syllabic>single</syllabic><text>The</text></lyric></note><note><pitch><step>C</step><octave>5</octave></pitch><duration>240</duration><voice>1</voice><type>eighth</type><stem>down</stem><beam number="1">begin</beam><lyric number="1"><syllabic>begin</syllabic><text>eve</text></lyric></note><note><pitch><step>E</step><alter>-1</alter><octave>5</octave></pitch><duration>240</duration><voice>1</voice><type>eighth</type><stem>down</stem><beam number="1">end</beam><lyric number="1"><syllabic>end</syllabic><text>ning</text></lyric></note><barline location="right"><bar-style>light-heavy</bar-style><ending type="stop" number="1"/><repeat direction="backward"/></barline></measure><measure number="38"><barline location="left"><ending type="start" number="2"/></barline><harmony print-frame="no"><root><root-step>E</root-step><root-alter>-1</root-alter></root><kind text="">major</kind></harmony><note><pitch><step>E</step><alter>-1</alter><octave>4</octave></pitch><duration>1440</duration><tie type="start"/><voice>1</voice><type>half</type><dot/><stem>up</stem><notations><tied type="start"/></notations><lyric number="1"><syllabic>single</syllabic><text>ly.</text><extend/></lyric></note></measure><measure number="39"><note><pitch><step>E</step><alter>-1</alter><octave>4</octave></pitch><duration>1440</duration><tie type="stop"/><voice>1</voice><type>half</type><dot/><stem>up</stem><notations><tied type="stop"/></notations></note><barline location="right"><bar-style>light-heavy</bar-style><ending type="stop" number="2"/></barline></measure></part></score-partwise>