<score-partwise version="2.0"><work><work-number/><work-title/></work><movement-number/><movement-title>When I Fall In Love</movement-title><identification><creator type="composer">Victor Young</creator><creator type="poet">Edward Heyman</creator><rights>All Rights Reserved</rights><encoding><software>MuseScore 0.9.4</software><encoding-date>2009-03-02</encoding-date><software>ProxyMusic 2.0 c</software></encoding><source>http://wikifonia.org/node/1427/revisions/1844/view</source></identification><part-list><score-part id="P1"><part-name>Voice</part-name><score-instrument id="P1-I3"><instrument-name>Voice</instrument-name></score-instrument><midi-instrument id="P1-I3"><midi-channel>1</midi-channel><midi-program>53</midi-program></midi-instrument></score-part></part-list><part id="P1"><measure number="1"><attributes><divisions>480</divisions><key><fifths>-3</fifths><mode>major</mode></key><time><beats>4</beats><beat-type>4</beat-type></time><clef><sign>G</sign><line>2</line></clef></attributes><harmony print-frame="no"><root><root-step>E</root-step><root-alter>-1</root-alter></root><kind text="">major</kind></harmony><direction placement="above"><direction-type><words>Moderately</words></direction-type><sound tempo="1"/></direction><note><pitch><step>B</step><alter>-1</alter><octave>3</octave></pitch><duration>480</duration><voice>1</voice><type>quarter</type><stem>up</stem><lyric number="1"><syllabic>single</syllabic><text>When</text></lyric></note><note><pitch><step>E</step><alter>-1</alter><octave>4</octave></pitch><duration>480</duration><voice>1</voice><type>quarter</type><stem>up</stem><lyric number="1"><syllabic>single</syllabic><text>I</text></lyric></note><harmony print-frame="no"><root><root-step>C</root-step></root><kind text="7#5b9">dominant-seventh</kind><degree><degree-value>5</degree-value><degree-alter>1</degree-alter><degree-type>alter</degree-type></degree><degree><degree-value>9</degree-value><degree-alter>-1</degree-alter><degree-type>add</degree-type></degree></harmony><note><pitch><step>A</step><alter>-1</alter><octave>4</octave></pitch><duration>480</duration><voice>1</voice><type>quarter</type><stem>up</stem><lyric number="1"><syllabic>single</syllabic><text>fall</text></lyric></note><note><pitch><step>G</step><octave>4</octave></pitch><duration>480</duration><voice>1</voice><type>quarter</type><stem>up</stem><lyric number="1"><syllabic>single</syllabic><text>in</text></lyric></note></measure><measure number="2"><harmony print-frame="no"><root><root-step>F</root-step></root><kind text="m7">minor-seventh</kind></harmony><harmony relative-x="34.50" print-frame="no"><root><root-step>B</root-step><root-alter>-1</root-alter></root><kind text="7">dominant-seventh</kind></harmony><note><pitch><step>E</step><alter>-1</alter><octave>4</octave></pitch><duration>1920</duration><voice>1</voice><type>whole</type><lyric number="1"><syllabic>single</syllabic><text>love</text></lyric></note></measure><measure number="3"><harmony print-frame="no"><root><root-step>E</root-step><root-alter>-1</root-alter></root><kind text="">major</kind></harmony><note><pitch><step>B</step><alter>-1</alter><octave>3</octave></pitch><duration>480</duration><voice>1</voice><type>quarter</type><stem>up</stem><lyric number="1"><syllabic>single</syllabic><text>it</text></lyric></note><note><pitch><step>E</step><alter>-1</alter><octave>4</octave></pitch><duration>480</duration><voice>1</voice><type>quarter</type><stem>up</stem><lyric number="1"><syllabic>single</syllabic><text>will</text></lyric></note><harmony print-frame="no"><root><root-step>C</root-step></root><kind text="7#5b9">dominant-seventh</kind><degree><degree-value>5</degree-value><degree-alter>1</degree-alter><degree-type>alter</degree-type></degree><degree><degree-value>9</degree-value><degree-alter>-1</degree-alter><degree-type>add</degree-type></degree></harmony><note><pitch><step>A</step><alter>-1</alter><octave>4</octave></pitch><duration>480</duration><voice>1</voice><type>quarter</type><stem>up</stem><lyric number="1"><syllabic>single</syllabic><text>be</text></lyric></note><note><pitch><step>G</step><octave>4</octave></pitch><duration>480</duration><voice>1</voice><type>quarter</type><stem>up</stem><lyric number="1"><syllabic>begin</syllabic><text>for</text></lyric></note></measure><measure number="4"><harmony print-frame="no"><root><root-step>F</root-step></root><kind text="m7">minor-seventh</kind></harmony><note><pitch><step>E</step><alter>-1</alter><octave>4</octave></pitch><duration>480</duration><voice>1</voice><type>quarter</type><stem>up</stem><lyric number="1"><syllabic>middle</syllabic><text>ev</text></lyric></note><note><pitch><step>F</step><octave>4</octave></pitch><duration>480</duration><tie type="start"/><voice>1</voice><type>quarter</type><stem>up</stem><notations><tied type="start"/></notations><lyric number="1"><syllabic>end</syllabic><text>er,</text><extend/></lyric></note><harmony print-frame="no"><root><root-step>B</root-step><root-alter>-1</root-alter></root><kind text="7">dominant-seventh</kind></harmony><note><pitch><step>F</step><octave>4</octave></pitch><duration>960</duration><tie type="stop"/><voice>1</voice><type>half</type><stem>up</stem><notations><tied type="stop"/></notations></note></measure><measure number="5"><harmony print-frame="no"><root><root-step>E</root-step><root-alter>-1</root-alter></root><kind text="">major</kind></harmony><note><pitch><step>B</step><alter>-1</alter><octave>3</octave></pitch><duration>480</duration><voice>1</voice><type>quarter</type><stem>up</stem><lyric number="1"><syllabic>single</syllabic><text>or</text></lyric></note><note><pitch><step>E</step><alter>-1</alter><octave>4</octave></pitch><duration>480</duration><voice>1</voice><type>quarter</type><stem>up</stem><lyric number="1"><syllabic>single</syllabic><text>I'll</text></lyric></note><note><pitch><step>C</step><octave>5</octave></pitch><duration>480</duration><voice>1</voice><type>quarter</type><stem>down</stem><lyric number="1"><syllabic>begin</syllabic><text>nev</text></lyric></note><note><pitch><step>B</step><alter>-1</alter><octave>4</octave></pitch><duration>480</duration><voice>1</voice><type>quarter</type><stem>down</stem><lyric number="1"><syllabic>end</syllabic><text>er</text></lyric></note></measure><measure number="6"><harmony print-frame="no"><root><root-step>D</root-step><root-alter>-1</root-alter></root><kind text="9">dominant-ninth</kind></harmony><note><pitch><step>A</step><alter>-1</alter><octave>4</octave></pitch><duration>960</duration><tie type="start"/><voice>1</voice><type>half</type><stem>up</stem><notations><tied type="start"/></notations><lyric number="1"><syllabic>single</syllabic><text>fall</text><extend/></lyric></note><harmony print-frame="no"><root><root-step>C</root-step></root><kind text="9#5">dominant-ninth</kind><degree><degree-value>5</degree-value><degree-alter>1</degree-alter><degree-type>alter</degree-type></degree></harmony><note><pitch><step>A</step><alter>-1</alter><octave>4</octave></pitch><duration>480</duration><tie type="stop"/><voice>1</voice><type>quarter</type><stem>up</stem><notations><tied type="stop"/></notations></note><note><pitch><step>G</step><octave>4</octave></pitch><duration>480</duration><voice>1</voice><type>quarter</type><stem>up</stem><lyric number="1"><syllabic>single</syllabic><text>in</text></lyric></note></measure><measure number="7"><print new-system="yes"/><harmony print-frame="no"><root><root-step>F</root-step></root><kind text="m7">minor-seventh</kind></harmony><note><pitch><step>F</step><octave>4</octave></pitch><duration>1920</duration><tie type="start"/><voice>1</voice><type>whole</type><notations><tied type="start"/></notations><lyric number="1"><syllabic>single</syllabic><text>love.</text><extend/></lyric></note></measure><measure number="8"><harmony print-frame="no"><root><root-step>B</root-step><root-alter>-1</root-alter></root><kind text="7b9">dominant</kind><degree><degree-value>9</degree-value><degree-alter>-1</degree-alter><degree-type>add</degree-type></degree></harmony><note><pitch><step>F</step><octave>4</octave></pitch><duration>1440</duration><tie type="stop"/><voice>1</voice><type>half</type><dot/><stem>up</stem><notations><tied type="stop"/></notations></note><note><pitch><step>G</step><octave>4</octave></pitch><duration>240</duration><voice>1</voice><type>eighth</type><stem>up</stem><beam number="1">begin</beam><lyric number="1"><syllabic>single</syllabic><text>In</text></lyric></note><note><pitch><step>A</step><alter>-1</alter><octave>4</octave></pitch><duration>240</duration><voice>1</voice><type>eighth</type><stem>up</stem><beam number="1">end</beam><lyric number="1"><syllabic>single</syllabic><text>a</text></lyric></note></measure><measure number="9"><harmony print-frame="no"><root><root-step>E</root-step><root-alter>-1</root-alter></root><kind text="">major</kind></harmony><note><pitch><step>B</step><alter>-1</alter><octave>4</octave></pitch><duration>720</duration><voice>1</voice><type>quarter</type><dot/><stem>down</stem><lyric number="1"><syllabic>begin</syllabic><text>rest</text></lyric></note><note><pitch><step>E</step><alter>-1</alter><octave>4</octave></pitch><duration>240</duration><voice>1</voice><type>eighth</type><stem>up</stem><lyric number="1"><syllabic>end</syllabic><text>less</text></lyric></note><note><pitch><step>E</step><alter>-1</alter><octave>4</octave></pitch><duration>480</duration><voice>1</voice><type>quarter</type><stem>up</stem><lyric number="1"><syllabic>single</syllabic><text>world</text></lyric></note><note><pitch><step>E</step><alter>-1</alter><octave>4</octave></pitch><duration>480</duration><voice>1</voice><type>quarter</type><stem>up</stem><lyric number="1"><syllabic>single</syllabic><text>like</text></lyric></note></measure><measure number="10"><harmony print-frame="no"><root><root-step>F</root-step></root><kind text="m7">minor-seventh</kind></harmony><note><pitch><step>G</step><octave>4</octave></pitch><duration>480</duration><voice>1</voice><type>quarter</type><stem>up</stem><lyric number="1"><syllabic>single</syllabic><text>this</text></lyric></note><note><pitch><step>F</step><octave>4</octave></pitch><duration>480</duration><tie type="start"/><voice>1</voice><type>quarter</type><stem>up</stem><notations><tied type="start"/></notations><lyric number="1"><syllabic>single</syllabic><text>is,</text><extend/></lyric></note><harmony print-frame="no"><root><root-step>B</root-step><root-alter>-1</root-alter></root><kind text="7">dominant-seventh</kind></harmony><note><pitch><step>F</step><octave>4</octave></pitch><duration>480</duration><tie type="stop"/><voice>1</voice><type>quarter</type><stem>up</stem><notations><tied type="stop"/></notations></note><note><pitch><step>G</step><octave>4</octave></pitch><duration>240</duration><voice>1</voice><type>eighth</type><stem>up</stem><beam number="1">begin</beam><lyric number="1"><syllabic>single</syllabic><text>love</text></lyric></note><note><pitch><step>A</step><alter>-1</alter><octave>4</octave></pitch><duration>240</duration><voice>1</voice><type>eighth</type><stem>up</stem><beam number="1">end</beam><lyric number="1"><syllabic>single</syllabic><text>is</text></lyric></note></measure><measure number="11"><harmony print-frame="no"><root><root-step>G</root-step></root><kind text="m7">minor-seventh</kind></harmony><note><pitch><step>B</step><alter>-1</alter><octave>4</octave></pitch><duration>320</duration><voice>1</voice><type>quarter</type><time-modification><actual-notes>3</actual-notes><normal-notes>2</normal-notes></time-modification><stem>up</stem><notations><tuplet type="start" bracket="yes"/></notations><lyric number="1"><syllabic>begin</syllabic><text>end</text></lyric></note><note><pitch><step>G</step><octave>4</octave></pitch><duration>320</duration><voice>1</voice><type>quarter</type><time-modification><actual-notes>3</actual-notes><normal-notes>2</normal-notes></time-modification><stem>up</stem><lyric number="1"><syllabic>end</syllabic><text>ed</text></lyric></note><note><pitch><step>A</step><alter>-1</alter><octave>4</octave></pitch><duration>320</duration><voice>1</voice><type>quarter</type><time-modification><actual-notes>3</actual-notes><normal-notes>2</normal-notes></time-modification><stem>up</stem><notations><tuplet type="stop"/></notations><lyric number="1"><syllabic>begin</syllabic><text>be</text></lyric></note><note><pitch><step>B</step><alter>-1</alter><octave>4</octave></pitch><duration>320</duration><voice>1</voice><type>quarter</type><time-modification><actual-notes>3</actual-notes><normal-notes>2</normal-notes></time-modification><stem>up</stem><notations><tuplet type="start" bracket="yes"/></notations><lyric number="1"><syllabic>end</syllabic><text>fore</text></lyric></note><note><pitch><step>G</step><octave>4</octave></pitch><duration>320</duration><voice>1</voice><type>quarter</type><time-modification><actual-notes>3</actual-notes><normal-notes>2</normal-notes></time-modification><stem>up</stem><lyric number="1"><syllabic>single</syllabic><text>it's</text></lyric></note><note><pitch><step>A</step><alter>-1</alter><octave>4</octave></pitch><duration>320</duration><voice>1</voice><type>quarter</type><time-modification><actual-notes>3</actual-notes><normal-notes>2</normal-notes></time-modification><stem>up</stem><notations><tuplet type="stop"/></notations><lyric number="1"><syllabic>begin</syllabic><text>be</text></lyric></note></measure><measure number="12"><harmony print-frame="no"><root><root-step>C</root-step></root><kind text="7">dominant-seventh</kind></harmony><note><pitch><step>B</step><alter>-1</alter><octave>4</octave></pitch><duration>1440</duration><voice>1</voice><type>half</type><dot/><stem>down</stem><lyric number="1"><syllabic>end</syllabic><text>gun,</text></lyric></note><note><pitch><step>A</step><alter>-1</alter><octave>4</octave></pitch><duration>240</duration><voice>1</voice><type>eighth</type><stem>up</stem><beam number="1">begin</beam><lyric number="1"><syllabic>single</syllabic><text>and</text></lyric></note><note><pitch><step>B</step><alter>-1</alter><octave>4</octave></pitch><duration>240</duration><voice>1</voice><type>eighth</type><stem>down</stem><beam number="1">end</beam><lyric number="1"><syllabic>single</syllabic><text>too</text></lyric></note></measure><measure number="13"><print new-system="yes"/><harmony print-frame="no"><root><root-step>F</root-step></root><kind text="m">minor</kind></harmony><note><pitch><step>C</step><octave>5</octave></pitch><duration>720</duration><voice>1</voice><type>quarter</type><dot/><stem>down</stem><lyric number="1"><syllabic>begin</syllabic><text>man</text></lyric></note><note><pitch><step>F</step><octave>4</octave></pitch><duration>240</duration><voice>1</voice><type>eighth</type><stem>up</stem><lyric number="1"><syllabic>end</syllabic><text>y</text></lyric></note><note><pitch><step>F</step><octave>4</octave></pitch><duration>480</duration><voice>1</voice><type>quarter</type><stem>up</stem><lyric number="1"><syllabic>begin</syllabic><text>moon</text></lyric></note><note><pitch><step>F</step><octave>4</octave></pitch><duration>480</duration><voice>1</voice><type>quarter</type><stem>up</stem><lyric number="1"><syllabic>end</syllabic><text>light</text></lyric></note></measure><measure number="14"><harmony print-frame="no"><root><root-step>C</root-step></root><kind text="7b9">dominant</kind><degree><degree-value>9</degree-value><degree-alter>-1</degree-alter><degree-type>add</degree-type></degree></harmony><note><pitch><step>A</step><alter>-1</alter><octave>4</octave></pitch><duration>480</duration><voice>1</voice><type>quarter</type><stem>up</stem><lyric number="1"><syllabic>begin</syllabic><text>kiss</text></lyric></note><note><pitch><step>G</step><octave>4</octave></pitch><duration>960</duration><voice>1</voice><type>half</type><stem>up</stem><lyric number="1"><syllabic>end</syllabic><text>es</text></lyric></note><note><pitch><step>A</step><alter>-1</alter><octave>4</octave></pitch><duration>240</duration><voice>1</voice><type>eighth</type><stem>up</stem><beam number="1">begin</beam><lyric number="1"><syllabic>single</syllabic><text>seem</text></lyric></note><note><pitch><step>B</step><alter>-1</alter><octave>4</octave></pitch><duration>240</duration><voice>1</voice><type>eighth</type><stem>down</stem><beam number="1">end</beam><lyric number="1"><syllabic>single</syllabic><text>to</text></lyric></note></measure><measure number="15"><harmony print-frame="no"><root><root-step>F</root-step></root><kind text="m7">minor-seventh</kind></harmony><note><pitch><step>C</step><octave>5</octave></pitch><duration>320</duration><voice>1</voice><type>quarter</type><time-modification><actual-notes>3</actual-notes><normal-notes>2</normal-notes></time-modification><stem>down</stem><notations><tuplet type="start" bracket="yes"/></notations><lyric number="1"><syllabic>single</syllabic><text>cool</text></lyric></note><note><pitch><step>A</step><alter>-1</alter><octave>4</octave></pitch><duration>320</duration><voice>1</voice><type>quarter</type><time-modification><actual-notes>3</actual-notes><normal-notes>2</normal-notes></time-modification><stem>down</stem><lyric number="1"><syllabic>single</syllabic><text>in</text></lyric></note><note><pitch><step>B</step><alter>-1</alter><octave>4</octave></pitch><duration>320</duration><voice>1</voice><type>quarter</type><time-modification><actual-notes>3</actual-notes><normal-notes>2</normal-notes></time-modification><stem>down</stem><notations><tuplet type="stop"/></notations><lyric number="1"><syllabic>single</syllabic><text>the</text></lyric></note><note><pitch><step>C</step><octave>5</octave></pitch><duration>320</duration><voice>1</voice><type>quarter</type><time-modification><actual-notes>3</actual-notes><normal-notes>2</normal-notes></time-modification><stem>down</stem><notations><tuplet type="start" bracket="yes"/></notations><lyric number="1"><syllabic>single</syllabic><text>warmth</text></lyric></note><note><pitch><step>A</step><alter>-1</alter><octave>4</octave></pitch><duration>320</duration><voice>1</voice><type>quarter</type><time-modification><actual-notes>3</actual-notes><normal-notes>2</normal-notes></time-modification><stem>down</stem><lyric number="1"><syllabic>single</syllabic><text>of</text></lyric></note><note><pitch><step>C</step><octave>5</octave></pitch><duration>320</duration><voice>1</voice><type>quarter</type><time-modification><actual-notes>3</actual-notes><normal-notes>2</normal-notes></time-modification><stem>down</stem><notations><tuplet type="stop"/></notations><lyric number="1"><syllabic>single</syllabic><text>the</text></lyric></note></measure><measure number="16"><harmony print-frame="no"><root><root-step>B</root-step><root-alter>-1</root-alter></root><kind text="7">dominant-seventh</kind></harmony><note><pitch><step>B</step><alter>-1</alter><octave>4</octave></pitch><duration>1920</duration><voice>1</voice><type>whole</type><lyric number="1"><syllabic>single</syllabic><text>sun.</text></lyric></note></measure><measure number="17"><harmony print-frame="no"><root><root-step>E</root-step><root-alter>-1</root-alter></root><kind text="">major</kind></harmony><note><pitch><step>B</step><alter>-1</alter><octave>3</octave></pitch><duration>480</duration><voice>1</voice><type>quarter</type><stem>up</stem><lyric number="1"><syllabic>single</syllabic><text>When</text></lyric></note><note><pitch><step>E</step><alter>-1</alter><octave>4</octave></pitch><duration>480</duration><voice>1</voice><type>quarter</type><stem>up</stem><lyric number="1"><syllabic>single</syllabic><text>I</text></lyric></note><harmony print-frame="no"><root><root-step>C</root-step></root><kind text="7#5b9">dominant-seventh</kind><degree><degree-value>5</degree-value><degree-alter>1</degree-alter><degree-type>alter</degree-type></degree><degree><degree-value>9</degree-value><degree-alter>-1</degree-alter><degree-type>add</degree-type></degree></harmony><note><pitch><step>A</step><alter>-1</alter><octave>4</octave></pitch><duration>480</duration><voice>1</voice><type>quarter</type><stem>up</stem><lyric number="1"><syllabic>single</syllabic><text>give</text></lyric></note><note><pitch><step>G</step><octave>4</octave></pitch><duration>480</duration><voice>1</voice><type>quarter</type><stem>up</stem><lyric number="1"><syllabic>single</syllabic><text>my</text></lyric></note></measure><measure number="18"><harmony print-frame="no"><root><root-step>F</root-step></root><kind text="m7">minor-seventh</kind></harmony><harmony relative-x="34.50" print-frame="no"><root><root-step>B</root-step><root-alter>-1</root-alter></root><kind text="7">dominant-seventh</kind></harmony><note><pitch><step>E</step><alter>-1</alter><octave>4</octave></pitch><duration>1920</duration><voice>1</voice><type>whole</type><lyric number="1"><syllabic>single</syllabic><text>heart</text></lyric></note></measure><measure number="19"><print new-system="yes"/><harmony print-frame="no"><root><root-step>E</root-step><root-alter>-1</root-alter></root><kind text="">major</kind></harmony><note><pitch><step>B</step><alter>-1</alter><octave>3</octave></pitch><duration>480</duration><voice>1</voice><type>quarter</type><stem>up</stem><lyric number="1"><syllabic>single</syllabic><text>it</text></lyric></note><note><pitch><step>E</step><alter>-1</alter><octave>4</octave></pitch><duration>480</duration><voice>1</voice><type>quarter</type><stem>up</stem><lyric number="1"><syllabic>single</syllabic><text>will</text></lyric></note><harmony print-frame="no"><root><root-step>C</root-step></root><kind text="7#5b9">dominant-seventh</kind><degree><degree-value>5</degree-value><degree-alter>1</degree-alter><degree-type>alter</degree-type></degree><degree><degree-value>9</degree-value><degree-alter>-1</degree-alter><degree-type>add</degree-type></degree></harmony><note><pitch><step>A</step><alter>-1</alter><octave>4</octave></pitch><duration>480</duration><voice>1</voice><type>quarter</type><stem>up</stem><lyric number="1"><syllabic>single</syllabic><text>be</text></lyric></note><note><pitch><step>G</step><octave>4</octave></pitch><duration>480</duration><voice>1</voice><type>quarter</type><stem>up</stem><lyric number="1"><syllabic>begin</syllabic><text>com</text></lyric></note></measure><measure number="20"><harmony print-frame="no"><root><root-step>F</root-step></root><kind text="m7">minor-seventh</kind></harmony><note><pitch><step>E</step><alter>-1</alter><octave>4</octave></pitch><duration>480</duration><voice>1</voice><type>quarter</type><stem>up</stem><lyric number="1"><syllabic>middle</syllabic><text>plete</text></lyric></note><note><pitch><step>F</step><octave>4</octave></pitch><duration>480</duration><tie type="start"/><voice>1</voice><type>quarter</type><stem>up</stem><notations><tied type="start"/></notations><lyric number="1"><syllabic>end</syllabic><text>ly</text><extend/></lyric></note><harmony print-frame="no"><root><root-step>B</root-step><root-alter>-1</root-alter></root><kind text="7">dominant</kind></harmony><note><pitch><step>F</step><octave>4</octave></pitch><duration>960</duration><tie type="stop"/><voice>1</voice><type>half</type><stem>up</stem><notations><tied type="stop"/></notations></note></measure><measure number="21"><harmony print-frame="no"><root><root-step>E</root-step><root-alter>-1</root-alter></root><kind text="">major</kind></harmony><note><pitch><step>B</step><alter>-1</alter><octave>3</octave></pitch><duration>480</duration><voice>1</voice><type>quarter</type><stem>up</stem><lyric number="1"><syllabic>single</syllabic><text>or</text></lyric></note><note><pitch><step>E</step><alter>-1</alter><octave>4</octave></pitch><duration>480</duration><voice>1</voice><type>quarter</type><stem>up</stem><lyric number="1"><syllabic>single</syllabic><text>I'll</text></lyric></note><note><pitch><step>C</step><octave>5</octave></pitch><duration>480</duration><voice>1</voice><type>quarter</type><stem>down</stem><lyric number="1"><syllabic>begin</syllabic><text>nev</text></lyric></note><note><pitch><step>B</step><alter>-1</alter><octave>4</octave></pitch><duration>480</duration><voice>1</voice><type>quarter</type><stem>down</stem><lyric number="1"><syllabic>end</syllabic><text>er</text></lyric></note></measure><measure number="22"><harmony print-frame="no"><root><root-step>D</root-step><root-alter>-1</root-alter></root><kind text="9">dominant-ninth</kind></harmony><note><pitch><step>A</step><alter>-1</alter><octave>4</octave></pitch><duration>960</duration><tie type="start"/><voice>1</voice><type>half</type><stem>up</stem><notations><tied type="start"/></notations><lyric number="1"><syllabic>single</syllabic><text>give</text><extend/></lyric></note><harmony print-frame="no"><root><root-step>C</root-step></root><kind text="9#5">dominant-ninth</kind><degree><degree-value>5</degree-value><degree-alter>1</degree-alter><degree-type>alter</degree-type></degree></harmony><note><pitch><step>A</step><alter>-1</alter><octave>4</octave></pitch><duration>480</duration><tie type="stop"/><voice>1</voice><type>quarter</type><stem>up</stem><notations><tied type="stop"/></notations></note><note><pitch><step>G</step><octave>4</octave></pitch><duration>480</duration><voice>1</voice><type>quarter</type><stem>up</stem><lyric number="1"><syllabic>single</syllabic><text>my</text></lyric></note></measure><measure number="23"><harmony print-frame="no"><root><root-step>F</root-step></root><kind text="m7">minor-seventh</kind></harmony><note><pitch><step>F</step><octave>4</octave></pitch><duration>1920</duration><tie type="start"/><voice>1</voice><type>whole</type><notations><tied type="start"/></notations><lyric number="1"><syllabic>single</syllabic><text>heart.</text><extend/></lyric></note></measure><measure number="24"><harmony print-frame="no"><root><root-step>B</root-step><root-alter>-1</root-alter></root><kind text="7b9">dominant</kind><degree><degree-value>9</degree-value><degree-alter>-1</degree-alter><degree-type>add</degree-type></degree></harmony><note><pitch><step>F</step><octave>4</octave></pitch><duration>1440</duration><tie type="stop"/><voice>1</voice><type>half</type><dot/><stem>up</stem><notations><tied type="stop"/></notations></note><note><pitch><step>G</step><octave>4</octave></pitch><duration>240</duration><voice>1</voice><type>eighth</type><stem>up</stem><beam number="1">begin</beam><lyric number="1"><syllabic>single</syllabic><text>And</text></lyric></note><note><pitch><step>A</step><alter>-1</alter><octave>4</octave></pitch><duration>240</duration><voice>1</voice><type>eighth</type><stem>up</stem><beam number="1">end</beam><lyric number="1"><syllabic>single</syllabic><text>the</text></lyric></note></measure><measure number="25"><print new-system="yes"/><harmony print-frame="no"><root><root-step>E</root-step><root-alter>-1</root-alter></root><kind text="">major</kind></harmony><note><pitch><step>B</step><alter>-1</alter><octave>4</octave></pitch><duration>720</duration><voice>1</voice><type>quarter</type><dot/><stem>down</stem><lyric number="1"><syllabic>begin</syllabic><text>mo</text></lyric></note><note><pitch><step>E</step><alter>-1</alter><octave>4</octave></pitch><duration>240</duration><voice>1</voice><type>eighth</type><stem>up</stem><lyric number="1"><syllabic>end</syllabic><text>ment</text></lyric></note><note><pitch><step>E</step><alter>-1</alter><octave>4</octave></pitch><duration>480</duration><voice>1</voice><type>quarter</type><stem>up</stem><lyric number="1"><syllabic>single</syllabic><text>I</text></lyric></note><note><pitch><step>E</step><alter>-1</alter><octave>4</octave></pitch><duration>480</duration><voice>1</voice><type>quarter</type><stem>up</stem><lyric number="1"><syllabic>single</syllabic><text>can</text></lyric></note></measure><measure number="26"><harmony print-frame="no"><root><root-step>A</root-step><root-alter>-1</root-alter></root><kind text="">major</kind></harmony><note><pitch><step>D</step><octave>5</octave></pitch><duration>480</duration><voice>1</voice><type>quarter</type><stem>down</stem><lyric number="1"><syllabic>single</syllabic><text>tell</text></lyric></note><note><pitch><step>C</step><octave>5</octave></pitch><duration>960</duration><voice>1</voice><type>half</type><stem>down</stem><lyric number="1"><syllabic>single</syllabic><text>that</text></lyric></note><note><pitch><step>C</step><octave>4</octave></pitch><duration>480</duration><voice>1</voice><type>quarter</type><stem>up</stem><lyric number="1"><syllabic>single</syllabic><text>you</text></lyric></note></measure><measure number="27"><harmony relative-x="3.00" print-frame="no"><root><root-step>G</root-step></root><kind text="m7">minor-seventh</kind></harmony><note><pitch><step>C</step><octave>5</octave></pitch><duration>480</duration><voice>1</voice><type>quarter</type><stem>down</stem><lyric number="1"><syllabic>single</syllabic><text>feel</text></lyric></note><note><pitch><step>B</step><alter>-1</alter><octave>4</octave></pitch><duration>480</duration><tie type="start"/><voice>1</voice><type>quarter</type><stem>down</stem><notations><tied type="start"/></notations><lyric number="1"><syllabic>single</syllabic><text>that</text><extend/></lyric></note><harmony print-frame="no"><root><root-step>C</root-step></root><kind text="7">dominant-seventh</kind></harmony><note><pitch><step>B</step><alter>-1</alter><octave>4</octave></pitch><duration>480</duration><tie type="stop"/><voice>1</voice><type>quarter</type><stem>down</stem><notations><tied type="stop"/></notations></note><note><pitch><step>C</step><octave>5</octave></pitch><duration>480</duration><voice>1</voice><type>quarter</type><stem>down</stem><lyric number="1"><syllabic>single</syllabic><text>way</text></lyric></note></measure><measure number="28"><harmony print-frame="no"><root><root-step>F</root-step></root><kind text="m7">minor-seventh</kind></harmony><note><pitch><step>A</step><alter>-1</alter><octave>4</octave></pitch><duration>960</duration><tie type="start"/><voice>1</voice><type>half</type><stem>up</stem><notations><tied type="start"/></notations><lyric number="1"><syllabic>single</syllabic><text>too,</text><extend/></lyric></note><harmony print-frame="no"><root><root-step>D</root-step><root-alter>-1</root-alter></root><kind text="9">dominant-ninth</kind></harmony><note><pitch><step>A</step><alter>-1</alter><octave>4</octave></pitch><duration>480</duration><tie type="stop"/><voice>1</voice><type>quarter</type><stem>up</stem><notations><tied type="stop"/></notations></note><note><pitch><step>F</step><octave>4</octave></pitch><duration>480</duration><voice>1</voice><type>quarter</type><stem>up</stem><lyric number="1"><syllabic>single</syllabic><text>is</text></lyric></note></measure><measure number="29"><harmony print-frame="no"><root><root-step>E</root-step><root-alter>-1</root-alter></root><kind text="">major</kind></harmony><note><pitch><step>B</step><alter>-1</alter><octave>3</octave></pitch><duration>480</duration><voice>1</voice><type>quarter</type><stem>up</stem><lyric number="1"><syllabic>single</syllabic><text>when</text></lyric></note><note><pitch><step>E</step><alter>-1</alter><octave>4</octave></pitch><duration>480</duration><voice>1</voice><type>quarter</type><stem>up</stem><lyric number="1"><syllabic>single</syllabic><text>I</text></lyric></note><harmony print-frame="no"><root><root-step>C</root-step></root><kind text="7#5b9">dominant-seventh</kind><degree><degree-value>5</degree-value><degree-alter>1</degree-alter><degree-type>alter</degree-type></degree><degree><degree-value>9</degree-value><degree-alter>-1</degree-alter><degree-type>add</degree-type></degree></harmony><note><pitch><step>A</step><alter>-1</alter><octave>4</octave></pitch><duration>480</duration><voice>1</voice><type>quarter</type><stem>up</stem><lyric number="1"><syllabic>single</syllabic><text>fall</text></lyric></note><note><pitch><step>G</step><octave>4</octave></pitch><duration>480</duration><voice>1</voice><type>quarter</type><stem>up</stem><lyric number="1"><syllabic>single</syllabic><text>in</text></lyric></note></measure><measure number="30"><print new-system="yes"/><harmony print-frame="no"><root><root-step>F</root-step></root><kind text="m7">minor-seventh</kind></harmony><note><pitch><step>E</step><alter>-1</alter><octave>4</octave></pitch><duration>960</duration><voice>1</voice><type>half</type><stem>up</stem><lyric number="1"><syllabic>single</syllabic><text>love</text></lyric></note><harmony print-frame="no"><root><root-step>B</root-step><root-alter>-1</root-alter></root><kind text="7">dominant-seventh</kind></harmony><note><pitch><step>F</step><octave>4</octave></pitch><duration>960</duration><voice>1</voice><type>half</type><stem>up</stem><lyric number="1"><syllabic>single</syllabic><text>with</text></lyric></note></measure><measure number="31"><barline location="left"><ending type="start" number="1"/></barline><harmony print-frame="no"><root><root-step>E</root-step><root-alter>-1</root-alter></root><kind text="">major</kind></harmony><harmony relative-x="54.00" print-frame="no"><root><root-step>C</root-step></root><kind text="m7">minor-seventh</kind></harmony><note><pitch><step>E</step><alter>-1</alter><octave>4</octave></pitch><duration>1920</duration><tie type="start"/><voice>1</voice><type>whole</type><notations><tied type="start"/></notations><lyric number="1"><syllabic>single</syllabic><text>you.</text><extend/></lyric></note></measure><measure number="32"><harmony relative-x="1.50" print-frame="no"><root><root-step>F</root-step></root><kind text="m7">minor-seventh</kind></harmony><note><pitch><step>E</step><alter>-1</alter><octave>4</octave></pitch><duration>480</duration><tie type="stop"/><voice>1</voice><type>quarter</type><stem>up</stem><notations><tied type="stop"/></notations></note><note><rest/><duration>480</duration><voice>1</voice><type>quarter</type></note><harmony print-frame="no"><root><root-step>B</root-step><root-alter>-1</root-alter></root><kind text="7b9">dominant</kind><degree><degree-value>9</degree-value><degree-alter>-1</degree-alter><degree-type>add</degree-type></degree></harmony><note><rest/><duration>960</duration><voice>1</voice><type>half</type></note><barline location="right"><bar-style>light-heavy</bar-style><ending type="stop" number="1"/><repeat direction="backward"/></barline></measure><measure number="33"><barline location="left"><ending type="start" number="2"/></barline><harmony print-frame="no"><root><root-step>E</root-step><root-alter>-1</root-alter></root><kind text="">major</kind></harmony><note><pitch><step>E</step><alter>-1</alter><octave>4</octave></pitch><duration>1920</duration><tie type="start"/><voice>1</voice><type>whole</type><notations><tied type="start"/></notations><lyric number="1"><syllabic>single</syllabic><text>you.</text><extend/></lyric></note></measure><measure number="34"><note><pitch><step>E</step><alter>-1</alter><octave>4</octave></pitch><duration>1440</duration><tie type="stop"/><voice>1</voice><type>half</type><dot/><stem>up</stem><notations><tied type="stop"/></notations></note><note><rest/><duration>480</duration><voice>1</voice><type>quarter</type></note><barline location="right"><bar-style>light-heavy</bar-style><ending type="stop" number="2"/></barline></measure></part></score-partwise>