<score-partwise version="2.0"><work><work-number/><work-title/></work><movement-number/><movement-title>Cape Clip So</movement-title><identification><creator type="composer">Jiggs Whigham</creator><creator type="poet"/><rights>All Rights Reserved</rights><encoding><software>Sibelius 4.0</software><software>Dolet 3.2 for Sibelius</software><supports type="no" element="accidental"/><supports type="no" element="transpose"/><software>ProxyMusic 2.0 c</software></encoding><source>http://www.wikifonia.org/node/148/revisions/152/view</source></identification><defaults><scaling><millimeters>6</millimeters><tenths>40</tenths></scaling><page-layout><page-height>1980</page-height><page-width>1400</page-width></page-layout></defaults><part-list><score-part id="P3"><part-name>Rhythm   Section  </part-name><part-abbreviation>R.S. </part-abbreviation><score-instrument id="P3-I1"><instrument-name>Rhythm   Section  </instrument-name></score-instrument><midi-instrument id="P3-I1"><midi-channel>3</midi-channel><midi-program>34</midi-program></midi-instrument></score-part></part-list><part><measure number="0" implicit="yes"><attributes><divisions>768</divisions><key><fifths>-2</fifths><mode>major</mode></key><time symbol="cut"><beats>2</beats><beat-type>2</beat-type></time><clef><sign>G</sign><line>2</line></clef></attributes><direction placement="above"><direction-type><metronome><beat-unit>half</beat-unit><per-minute>100</per-minute></metronome></direction-type><sound tempo="50"/></direction><note><pitch><step>F</step><octave>4</octave></pitch><duration>768</duration><voice>1</voice><type>quarter</type><notations><articulations><staccato/></articulations></notations></note><note><pitch><step>B</step><alter>-1</alter><octave>4</octave></pitch><duration>768</duration><voice>1</voice><type>quarter</type><notations><articulations><staccato/></articulations></notations></note></measure><measure number="1"><print new-system="no"/><barline location="left"><bar-style>heavy-light</bar-style><repeat direction="forward"/></barline><note><pitch><step>D</step><octave>5</octave></pitch><duration>768</duration><voice>1</voice><type>quarter</type><notations><articulations><staccato/></articulations></notations></note><note><pitch><step>D</step><octave>5</octave></pitch><duration>384</duration><voice>1</voice><type>eighth</type><beam number="1">begin</beam></note><note><pitch><step>E</step><alter>-1</alter><octave>5</octave></pitch><duration>384</duration><tie type="start"/><voice>1</voice><type>eighth</type><beam number="1">continue</beam><notations><tied type="start"/><articulations><staccato/></articulations></notations></note><note><pitch><step>E</step><alter>-1</alter><octave>5</octave></pitch><duration>384</duration><voice>1</voice><type>eighth</type><beam number="1">begin</beam></note><note><pitch><step>E</step><alter>-1</alter><octave>5</octave></pitch><duration>384</duration><voice>1</voice><type>eighth</type><beam number="1">continue</beam></note><note><pitch><step>F</step><octave>5</octave></pitch><duration>768</duration><voice>1</voice><type>quarter</type><notations><articulations><staccato/></articulations></notations></note></measure><measure number="2"><print new-system="no"/><note><rest/><duration>1536</duration><voice>1</voice><type>half</type></note><note><pitch><step>F</step><octave>5</octave></pitch><duration>768</duration><voice>1</voice><type>quarter</type><notations><articulations><staccato/></articulations></notations></note><note><pitch><step>E</step><alter>-1</alter><octave>5</octave></pitch><duration>768</duration><voice>1</voice><type>quarter</type><notations><articulations><staccato/></articulations></notations></note></measure><measure number="3"><print new-system="no"/><note><pitch><step>D</step><octave>5</octave></pitch><duration>768</duration><voice>1</voice><type>quarter</type><notations><articulations><staccato/></articulations></notations></note><note><pitch><step>D</step><octave>5</octave></pitch><duration>384</duration><voice>1</voice><type>eighth</type><beam number="1">begin</beam></note><note><pitch><step>C</step><octave>5</octave></pitch><duration>384</duration><tie type="start"/><voice>1</voice><type>eighth</type><beam number="1">continue</beam><notations><tied type="start"/><articulations><staccato/></articulations></notations></note><note><pitch><step>C</step><octave>5</octave></pitch><duration>384</duration><voice>1</voice><type>eighth</type><beam number="1">begin</beam></note><note><pitch><step>C</step><octave>5</octave></pitch><duration>384</duration><voice>1</voice><type>eighth</type><beam number="1">continue</beam></note><note><pitch><step>B</step><alter>-1</alter><octave>4</octave></pitch><duration>768</duration><voice>1</voice><type>quarter</type><notations><articulations><staccato/></articulations></notations></note></measure><measure number="4"><print new-system="no"/><note><rest/><duration>1536</duration><voice>1</voice><type>half</type></note><note><pitch><step>F</step><octave>4</octave></pitch><duration>768</duration><voice>1</voice><type>quarter</type><notations><articulations><staccato/></articulations></notations></note><note><pitch><step>B</step><alter>-1</alter><octave>4</octave></pitch><duration>768</duration><voice>1</voice><type>quarter</type><notations><articulations><staccato/></articulations></notations></note></measure><measure number="5"><print new-system="yes"/><note><pitch><step>D</step><octave>5</octave></pitch><duration>768</duration><voice>1</voice><type>quarter</type><notations><articulations><staccato/></articulations></notations></note><note><pitch><step>D</step><octave>5</octave></pitch><duration>384</duration><voice>1</voice><type>eighth</type><beam number="1">begin</beam></note><note><pitch><step>E</step><alter>-1</alter><octave>5</octave></pitch><duration>384</duration><tie type="start"/><voice>1</voice><type>eighth</type><beam number="1">continue</beam><notations><tied type="start"/><articulations><staccato/></articulations></notations></note><note><pitch><step>E</step><alter>-1</alter><octave>5</octave></pitch><duration>384</duration><voice>1</voice><type>eighth</type><beam number="1">begin</beam></note><note><pitch><step>E</step><alter>-1</alter><octave>5</octave></pitch><duration>384</duration><voice>1</voice><type>eighth</type><beam number="1">continue</beam></note><note><pitch><step>F</step><octave>5</octave></pitch><duration>768</duration><voice>1</voice><type>quarter</type><notations><articulations><staccato/></articulations></notations></note></measure><measure number="6"><print new-system="no"/><note><rest/><duration>1536</duration><voice>1</voice><type>half</type></note><note><pitch><step>G</step><octave>5</octave></pitch><duration>768</duration><voice>1</voice><type>quarter</type><notations><articulations><staccato/></articulations></notations></note><note><pitch><step>F</step><octave>5</octave></pitch><duration>768</duration><voice>1</voice><type>quarter</type><notations><articulations><staccato/></articulations></notations></note></measure><measure number="7"><print new-system="no"/><note><pitch><step>D</step><octave>5</octave></pitch><duration>768</duration><voice>1</voice><type>quarter</type><notations><articulations><staccato/></articulations></notations></note><note><pitch><step>B</step><alter>-1</alter><octave>4</octave></pitch><duration>384</duration><voice>1</voice><type>eighth</type><beam number="1">begin</beam></note><note><pitch><step>B</step><alter>-1</alter><octave>4</octave></pitch><duration>384</duration><tie type="start"/><voice>1</voice><type>eighth</type><beam number="1">continue</beam><notations><tied type="start"/><articulations><staccato/></articulations></notations></note><note><pitch><step>B</step><alter>-1</alter><octave>4</octave></pitch><duration>384</duration><voice>1</voice><type>eighth</type><beam number="1">begin</beam></note><note><pitch><step>G</step><octave>4</octave></pitch><duration>384</duration><voice>1</voice><type>eighth</type><beam number="1">continue</beam></note><note><pitch><step>C</step><octave>5</octave></pitch><duration>768</duration><voice>1</voice><type>quarter</type><notations><articulations><staccato/></articulations></notations></note></measure><measure number="8"><print new-system="no"/><note><rest/><duration>3072</duration><voice>1</voice></note></measure><measure number="9"><print new-system="yes"/><note><rest/><duration>384</duration><voice>1</voice><type>eighth</type></note><note><pitch><step>D</step><alter>-1</alter><octave>5</octave></pitch><duration>768</duration><voice>1</voice><type>quarter</type><notations><articulations><accent/></articulations></notations></note><note><pitch><step>B</step><alter>-1</alter><octave>4</octave></pitch><duration>384</duration><voice>1</voice><type>eighth</type><beam number="1">continue</beam></note><note><pitch><step>D</step><alter>-1</alter><octave>5</octave></pitch><duration>1152</duration><voice>1</voice><type>quarter</type><dot/></note><note><pitch><step>D</step><alter>-1</alter><octave>5</octave></pitch><duration>384</duration><tie type="start"/><voice>1</voice><type>eighth</type><beam number="1">continue</beam><notations><tied type="start"/><articulations><accent/></articulations></notations></note></measure><measure number="10"><print new-system="no"/><note><pitch><step>D</step><alter>-1</alter><octave>5</octave></pitch><duration>384</duration><voice>1</voice><type>eighth</type><beam number="1">begin</beam></note><note><pitch><step>B</step><alter>-1</alter><octave>4</octave></pitch><duration>384</duration><voice>1</voice><type>eighth</type><beam number="1">continue</beam></note><note><pitch><step>D</step><alter>-1</alter><octave>5</octave></pitch><duration>768</duration><tie type="start"/><voice>1</voice><type>quarter</type><notations><tied type="start"/></notations></note><note><pitch><step>D</step><alter>-1</alter><octave>5</octave></pitch><duration>384</duration><voice>1</voice><type>eighth</type><beam number="1">begin</beam></note><note><pitch><step>D</step><alter>-1</alter><octave>5</octave></pitch><duration>768</duration><voice>1</voice><type>quarter</type><notations><articulations><accent/></articulations></notations></note><note><pitch><step>B</step><alter>-1</alter><octave>4</octave></pitch><duration>384</duration><voice>1</voice><type>eighth</type><beam number="1">continue</beam></note></measure><measure number="11"><print new-system="no"/><note><pitch><step>D</step><alter>-1</alter><octave>5</octave></pitch><duration>1152</duration><voice>1</voice><type>quarter</type><dot/></note><note><pitch><step>D</step><alter>-1</alter><octave>5</octave></pitch><duration>384</duration><tie type="start"/><voice>1</voice><type>eighth</type><beam number="1">continue</beam><notations><tied type="start"/><articulations><accent/></articulations></notations></note><note><pitch><step>D</step><alter>-1</alter><octave>5</octave></pitch><duration>384</duration><voice>1</voice><type>eighth</type><beam number="1">begin</beam></note><note><pitch><step>B</step><alter>-1</alter><octave>4</octave></pitch><duration>384</duration><voice>1</voice><type>eighth</type><beam number="1">continue</beam></note><note><pitch><step>D</step><alter>-1</alter><octave>5</octave></pitch><duration>768</duration><voice>1</voice><type>quarter</type><notations><articulations><strong-accent type="up"/></articulations></notations></note></measure><measure number="12"><print new-system="no"/><note><rest/><duration>3072</duration><voice>1</voice><type>whole</type></note></measure><measure number="13"><print new-system="yes"/><direction><direction-type><words relative-x="-61" default-y="40">play last 4 bars 3 times for ending</words></direction-type></direction><note><rest/><duration>768</duration><voice>1</voice><type>quarter</type></note><note><pitch><step>D</step><octave>5</octave></pitch><duration>512</duration><voice>1</voice><type>quarter</type><time-modification><actual-notes>3</actual-notes><normal-notes>2</normal-notes></time-modification><notations><tuplet type="start"/><articulations><staccato/></articulations></notations></note><note><pitch><step>D</step><octave>5</octave></pitch><duration>512</duration><voice>1</voice><type>quarter</type><time-modification><actual-notes>3</actual-notes><normal-notes>2</normal-notes></time-modification><notations><articulations><staccato/></articulations></notations></note><note><pitch><step>E</step><alter>-1</alter><octave>5</octave></pitch><duration>512</duration><voice>1</voice><type>quarter</type><time-modification><actual-notes>3</actual-notes><normal-notes>2</normal-notes></time-modification><notations><tuplet type="stop"/><articulations><staccato/></articulations></notations></note><note><pitch><step>E</step><alter>-1</alter><octave>5</octave></pitch><duration>512</duration><voice>1</voice><type>quarter</type><time-modification><actual-notes>3</actual-notes><normal-notes>2</normal-notes><normal-type>eighth</normal-type></time-modification><notations><tuplet type="start"/><articulations><staccato/></articulations></notations></note><note><pitch><step>F</step><octave>5</octave></pitch><duration>256</duration><tie type="start"/><voice>1</voice><type>eighth</type><time-modification><actual-notes>3</actual-notes><normal-notes>2</normal-notes></time-modification><beam number="1">continue</beam><notations><tied type="start"/><tuplet type="stop"/><articulations><staccato/></articulations></notations></note></measure><measure number="14"><print new-system="no"/><note><pitch><step>F</step><octave>5</octave></pitch><duration>256</duration><voice>1</voice><type>eighth</type><time-modification><actual-notes>3</actual-notes><normal-notes>2</normal-notes></time-modification><beam number="1">begin</beam><notations><tuplet type="start"/></notations></note><note><pitch><step>G</step><octave>5</octave></pitch><duration>512</duration><voice>1</voice><type>quarter</type><time-modification><actual-notes>3</actual-notes><normal-notes>2</normal-notes><normal-type>eighth</normal-type></time-modification><notations><tuplet type="stop"/><articulations><staccato/></articulations></notations></note><note><rest/><duration>768</duration><voice>1</voice><type>quarter</type></note><note><rest/><duration>768</duration><voice>1</voice><type>quarter</type></note><note><pitch><step>F</step><octave>5</octave></pitch><duration>768</duration><voice>1</voice><type>quarter</type><notations><articulations><staccato/></articulations></notations></note></measure><measure number="15"><print new-system="no"/><note><pitch><step>D</step><octave>5</octave></pitch><duration>768</duration><voice>1</voice><type>quarter</type><notations><articulations><staccato/></articulations></notations></note><direction><direction-type><words relative-x="-20" default-y="33">top notes last time only</words></direction-type></direction><note><rest/><duration>384</duration><voice>1</voice><type>eighth</type></note><note><pitch><step>C</step><octave>5</octave></pitch><duration>384</duration><voice>1</voice><type>eighth</type><beam number="1">continue</beam><notations><articulations><staccato/></articulations></notations></note><note><chord/><pitch><step>F</step><octave>5</octave></pitch><duration>384</duration><voice>1</voice><type>eighth</type></note><note><rest/><duration>768</duration><voice>1</voice><type>quarter</type></note><note><pitch><step>B</step><alter>-1</alter><octave>4</octave></pitch><duration>768</duration><voice>1</voice><type>quarter</type><notations><articulations><staccato/></articulations></notations></note><note><chord/><pitch><step>B</step><alter>-1</alter><octave>5</octave></pitch><duration>768</duration><voice>1</voice><type>quarter</type></note></measure><measure number="16"><print new-system="no"/><note><rest/><duration>1536</duration><voice>1</voice><type>half</type></note><direction><direction-type><words relative-x="1" default-y="15">1st time only</words></direction-type><offset>-336</offset></direction><note><pitch><step>F</step><octave>4</octave></pitch><duration>768</duration><voice>1</voice><type>quarter</type><notations><articulations><staccato/></articulations></notations></note><note><pitch><step>B</step><alter>-1</alter><octave>4</octave></pitch><duration>768</duration><voice>1</voice><type>quarter</type><notations><articulations><staccato/></articulations></notations></note><barline location="right"><bar-style>light-heavy</bar-style><repeat direction="backward"/></barline></measure><measure number="17"><print new-system="yes"/><barline location="left"><bar-style>heavy-light</bar-style><repeat direction="forward"/></barline><note><rest/><duration>3072</duration><voice>1</voice></note></measure><measure number="18"><print new-system="no"/><note><rest/><duration>3072</duration><voice>1</voice></note></measure><measure number="19"><print new-system="no"/><note><rest/><duration>3072</duration><voice>1</voice></note></measure><measure number="20"><print new-system="no"/><note><rest/><duration>3072</duration><voice>1</voice></note></measure><measure number="21"><print new-system="yes"/><note><rest/><duration>3072</duration><voice>1</voice></note></measure><measure number="22"><print new-system="no"/><note><rest/><duration>3072</duration><voice>1</voice></note></measure><measure number="23"><print new-system="no"/><note><rest/><duration>3072</duration><voice>1</voice></note></measure><measure number="24"><print new-system="no"/><note><rest/><duration>3072</duration><voice>1</voice></note></measure><measure number="25"><print new-system="yes"/><note><rest/><duration>3072</duration><voice>1</voice></note></measure><measure number="26"><print new-system="no"/><note><rest/><duration>3072</duration><voice>1</voice></note></measure><measure number="27"><print new-system="no"/><note><rest/><duration>3072</duration><voice>1</voice></note></measure><measure number="28"><print new-system="no"/><note><rest/><duration>3072</duration><voice>1</voice></note></measure><measure number="29"><print new-system="yes"/><note><rest/><duration>3072</duration><voice>1</voice></note></measure><measure number="30"><print new-system="no"/><note><rest/><duration>3072</duration><voice>1</voice></note></measure><measure number="31"><print new-system="no"/><note><rest/><duration>3072</duration><voice>1</voice></note></measure><measure number="32"><print new-system="no"/><note><rest/><duration>3072</duration><voice>1</voice></note><barline location="right"><bar-style>light-heavy</bar-style><repeat direction="backward"/></barline></measure></part><part><measure number="0" implicit="yes"><attributes><divisions>768</divisions><key><fifths>-2</fifths><mode>major</mode></key><time symbol="cut"><beats>2</beats><beat-type>2</beat-type></time><clef><sign>G</sign><line>2</line></clef></attributes><note><rest/><duration>1536</duration><voice>1</voice></note></measure><measure number="1"><print new-system="no"/><barline location="left"><bar-style>heavy-light</bar-style><repeat direction="forward"/></barline><note><pitch><step>B</step><alter>-1</alter><octave>4</octave></pitch><duration>768</duration><voice>1</voice><type>quarter</type><notations><articulations><staccato/></articulations></notations></note><note><pitch><step>B</step><alter>-1</alter><octave>4</octave></pitch><duration>384</duration><voice>1</voice><type>eighth</type><beam number="1">begin</beam></note><note><pitch><step>C</step><octave>5</octave></pitch><duration>384</duration><tie type="start"/><voice>1</voice><type>eighth</type><beam number="1">continue</beam><notations><tied type="start"/><articulations><staccato/></articulations></notations></note><note><pitch><step>C</step><octave>5</octave></pitch><duration>384</duration><voice>1</voice><type>eighth</type><beam number="1">begin</beam></note><note><pitch><step>C</step><octave>5</octave></pitch><duration>384</duration><voice>1</voice><type>eighth</type><beam number="1">continue</beam></note><note><pitch><step>D</step><octave>5</octave></pitch><duration>768</duration><voice>1</voice><type>quarter</type><notations><articulations><staccato/></articulations></notations></note></measure><measure number="2"><print new-system="no"/><note><rest/><duration>1536</duration><voice>1</voice><type>half</type></note><note><pitch><step>D</step><octave>5</octave></pitch><duration>768</duration><voice>1</voice><type>quarter</type><notations><articulations><staccato/></articulations></notations></note><note><pitch><step>C</step><octave>5</octave></pitch><duration>768</duration><voice>1</voice><type>quarter</type><notations><articulations><staccato/></articulations></notations></note></measure><measure number="3"><print new-system="no"/><note><pitch><step>B</step><alter>-1</alter><octave>4</octave></pitch><duration>768</duration><voice>1</voice><type>quarter</type><notations><articulations><staccato/></articulations></notations></note><note><pitch><step>B</step><alter>-1</alter><octave>4</octave></pitch><duration>384</duration><voice>1</voice><type>eighth</type><beam number="1">begin</beam></note><note><pitch><step>A</step><octave>4</octave></pitch><duration>384</duration><tie type="start"/><voice>1</voice><type>eighth</type><beam number="1">continue</beam><notations><tied type="start"/><articulations><staccato/></articulations></notations></note><note><pitch><step>A</step><octave>4</octave></pitch><duration>384</duration><voice>1</voice><type>eighth</type><beam number="1">begin</beam></note><note><pitch><step>A</step><octave>4</octave></pitch><duration>384</duration><voice>1</voice><type>eighth</type><beam number="1">continue</beam></note><note><pitch><step>F</step><octave>4</octave></pitch><duration>768</duration><voice>1</voice><type>quarter</type><notations><articulations><staccato/></articulations></notations></note></measure><measure number="4"><print new-system="no"/><note><rest/><duration>1536</duration><voice>1</voice><type>half</type></note><note><pitch><step>F</step><octave>4</octave></pitch><duration>768</duration><voice>1</voice><type>quarter</type><notations><articulations><staccato/></articulations></notations></note><note><pitch><step>B</step><alter>-1</alter><octave>4</octave></pitch><duration>768</duration><voice>1</voice><type>quarter</type><notations><articulations><staccato/></articulations></notations></note></measure><measure number="5"><print new-system="yes"/><note><pitch><step>B</step><alter>-1</alter><octave>4</octave></pitch><duration>768</duration><voice>1</voice><type>quarter</type><notations><articulations><staccato/></articulations></notations></note><note><pitch><step>B</step><alter>-1</alter><octave>4</octave></pitch><duration>384</duration><voice>1</voice><type>eighth</type><beam number="1">begin</beam></note><note><pitch><step>C</step><octave>5</octave></pitch><duration>384</duration><tie type="start"/><voice>1</voice><type>eighth</type><beam number="1">continue</beam><notations><tied type="start"/><articulations><staccato/></articulations></notations></note><note><pitch><step>C</step><octave>5</octave></pitch><duration>384</duration><voice>1</voice><type>eighth</type><beam number="1">begin</beam></note><note><pitch><step>C</step><octave>5</octave></pitch><duration>384</duration><voice>1</voice><type>eighth</type><beam number="1">continue</beam></note><note><pitch><step>D</step><octave>5</octave></pitch><duration>768</duration><voice>1</voice><type>quarter</type><notations><articulations><staccato/></articulations></notations></note></measure><measure number="6"><print new-system="no"/><note><rest/><duration>1536</duration><voice>1</voice><type>half</type></note><note><pitch><step>E</step><alter>-1</alter><octave>5</octave></pitch><duration>768</duration><voice>1</voice><type>quarter</type><notations><articulations><staccato/></articulations></notations></note><note><pitch><step>D</step><octave>5</octave></pitch><duration>768</duration><voice>1</voice><type>quarter</type><notations><articulations><staccato/></articulations></notations></note></measure><measure number="7"><print new-system="no"/><note><pitch><step>B</step><alter>-1</alter><octave>4</octave></pitch><duration>768</duration><voice>1</voice><type>quarter</type><notations><articulations><staccato/></articulations></notations></note><note><pitch><step>B</step><alter>-1</alter><octave>4</octave></pitch><duration>384</duration><voice>1</voice><type>eighth</type><beam number="1">begin</beam></note><note><pitch><step>B</step><alter>-1</alter><octave>4</octave></pitch><duration>384</duration><tie type="start"/><voice>1</voice><type>eighth</type><beam number="1">continue</beam><notations><tied type="start"/><articulations><staccato/></articulations></notations></note><note><pitch><step>B</step><alter>-1</alter><octave>4</octave></pitch><duration>384</duration><voice>1</voice><type>eighth</type><beam number="1">begin</beam></note><note><pitch><step>G</step><octave>4</octave></pitch><duration>384</duration><voice>1</voice><type>eighth</type><beam number="1">continue</beam></note><note><pitch><step>A</step><octave>4</octave></pitch><duration>768</duration><voice>1</voice><type>quarter</type><notations><articulations><staccato/></articulations></notations></note></measure><measure number="8"><print new-system="no"/><note><rest/><duration>3072</duration><voice>1</voice></note></measure><measure number="9"><print new-system="yes"/><note><rest/><duration>384</duration><voice>1</voice><type>eighth</type></note><note><pitch><step>B</step><alter>-1</alter><octave>4</octave></pitch><duration>768</duration><voice>1</voice><type>quarter</type><notations><articulations><accent/></articulations></notations></note><note><pitch><step>G</step><octave>4</octave></pitch><duration>384</duration><voice>1</voice><type>eighth</type><beam number="1">continue</beam></note><note><pitch><step>B</step><alter>-1</alter><octave>4</octave></pitch><duration>1152</duration><voice>1</voice><type>quarter</type><dot/></note><note><pitch><step>B</step><alter>-1</alter><octave>4</octave></pitch><duration>384</duration><tie type="start"/><voice>1</voice><type>eighth</type><beam number="1">continue</beam><notations><tied type="start"/><articulations><accent/></articulations></notations></note></measure><measure number="10"><print new-system="no"/><note><pitch><step>B</step><alter>-1</alter><octave>4</octave></pitch><duration>384</duration><voice>1</voice><type>eighth</type><beam number="1">begin</beam></note><note><pitch><step>G</step><octave>4</octave></pitch><duration>384</duration><voice>1</voice><type>eighth</type><beam number="1">continue</beam></note><note><pitch><step>B</step><alter>-1</alter><octave>4</octave></pitch><duration>768</duration><tie type="start"/><voice>1</voice><type>quarter</type><notations><tied type="start"/></notations></note><note><pitch><step>B</step><alter>-1</alter><octave>4</octave></pitch><duration>384</duration><voice>1</voice><type>eighth</type><beam number="1">begin</beam></note><note><pitch><step>B</step><alter>-1</alter><octave>4</octave></pitch><duration>768</duration><voice>1</voice><type>quarter</type><notations><articulations><accent/></articulations></notations></note><note><pitch><step>G</step><octave>4</octave></pitch><duration>384</duration><voice>1</voice><type>eighth</type><beam number="1">continue</beam></note></measure><measure number="11"><print new-system="no"/><note><pitch><step>B</step><alter>-1</alter><octave>4</octave></pitch><duration>1152</duration><voice>1</voice><type>quarter</type><dot/></note><note><pitch><step>B</step><alter>-1</alter><octave>4</octave></pitch><duration>384</duration><tie type="start"/><voice>1</voice><type>eighth</type><beam number="1">continue</beam><notations><tied type="start"/><articulations><accent/></articulations></notations></note><note><pitch><step>B</step><alter>-1</alter><octave>4</octave></pitch><duration>384</duration><voice>1</voice><type>eighth</type><beam number="1">begin</beam></note><note><pitch><step>G</step><octave>4</octave></pitch><duration>384</duration><voice>1</voice><type>eighth</type><beam number="1">continue</beam></note><note><pitch><step>B</step><alter>-1</alter><octave>4</octave></pitch><duration>768</duration><voice>1</voice><type>quarter</type><notations><articulations><strong-accent type="up"/></articulations></notations></note></measure><measure number="12"><print new-system="no"/><note><rest/><duration>3072</duration><voice>1</voice><type>whole</type></note></measure><measure number="13"><print new-system="yes"/><note><rest/><duration>768</duration><voice>1</voice><type>quarter</type></note><note><pitch><step>B</step><alter>-1</alter><octave>4</octave></pitch><duration>512</duration><voice>1</voice><type>quarter</type><time-modification><actual-notes>3</actual-notes><normal-notes>2</normal-notes></time-modification><notations><tuplet type="start"/><articulations><staccato/></articulations></notations></note><note><pitch><step>B</step><alter>-1</alter><octave>4</octave></pitch><duration>512</duration><voice>1</voice><type>quarter</type><time-modification><actual-notes>3</actual-notes><normal-notes>2</normal-notes></time-modification><notations><articulations><staccato/></articulations></notations></note><note><pitch><step>C</step><octave>5</octave></pitch><duration>512</duration><voice>1</voice><type>quarter</type><time-modification><actual-notes>3</actual-notes><normal-notes>2</normal-notes></time-modification><notations><tuplet type="stop"/><articulations><staccato/></articulations></notations></note><note><pitch><step>C</step><octave>5</octave></pitch><duration>512</duration><voice>1</voice><type>quarter</type><time-modification><actual-notes>3</actual-notes><normal-notes>2</normal-notes><normal-type>eighth</normal-type></time-modification><notations><tuplet type="start"/><articulations><staccato/></articulations></notations></note><note><pitch><step>D</step><octave>5</octave></pitch><duration>256</duration><tie type="start"/><voice>1</voice><type>eighth</type><time-modification><actual-notes>3</actual-notes><normal-notes>2</normal-notes></time-modification><beam number="1">continue</beam><notations><tied type="start"/><tuplet type="stop"/><articulations><staccato/></articulations></notations></note></measure><measure number="14"><print new-system="no"/><note><pitch><step>D</step><octave>5</octave></pitch><duration>256</duration><voice>1</voice><type>eighth</type><time-modification><actual-notes>3</actual-notes><normal-notes>2</normal-notes></time-modification><beam number="1">begin</beam><notations><tuplet type="start"/></notations></note><note><pitch><step>E</step><alter>-1</alter><octave>5</octave></pitch><duration>512</duration><voice>1</voice><type>quarter</type><time-modification><actual-notes>3</actual-notes><normal-notes>2</normal-notes><normal-type>eighth</normal-type></time-modification><notations><tuplet type="stop"/><articulations><staccato/></articulations></notations></note><note><rest/><duration>768</duration><voice>1</voice><type>quarter</type></note><note><rest/><duration>768</duration><voice>1</voice><type>quarter</type></note><note><pitch><step>D</step><octave>5</octave></pitch><duration>768</duration><voice>1</voice><type>quarter</type><notations><articulations><staccato/></articulations></notations></note></measure><measure number="15"><print new-system="no"/><note><pitch><step>B</step><alter>-1</alter><octave>4</octave></pitch><duration>768</duration><voice>1</voice><type>quarter</type><notations><articulations><staccato/></articulations></notations></note><note><rest/><duration>384</duration><voice>1</voice><type>eighth</type></note><note><pitch><step>A</step><octave>4</octave></pitch><duration>384</duration><voice>1</voice><type>eighth</type><beam number="1">continue</beam><notations><articulations><staccato/></articulations></notations></note><note><rest/><duration>768</duration><voice>1</voice><type>quarter</type></note><note><pitch><step>F</step><octave>4</octave></pitch><duration>768</duration><voice>1</voice><type>quarter</type><notations><articulations><staccato/></articulations></notations></note></measure><measure number="16"><print new-system="no"/><note><rest/><duration>3072</duration><voice>1</voice></note><barline location="right"><bar-style>light-heavy</bar-style><repeat direction="backward"/></barline></measure><measure number="17"><print new-system="yes"/><barline location="left"><bar-style>heavy-light</bar-style><repeat direction="forward"/></barline><note><rest/><duration>3072</duration><voice>1</voice></note></measure><measure number="18"><print new-system="no"/><note><rest/><duration>3072</duration><voice>1</voice></note></measure><measure number="19"><print new-system="no"/><note><rest/><duration>3072</duration><voice>1</voice></note></measure><measure number="20"><print new-system="no"/><note><rest/><duration>3072</duration><voice>1</voice></note></measure><measure number="21"><print new-system="yes"/><note><rest/><duration>3072</duration><voice>1</voice></note></measure><measure number="22"><print new-system="no"/><note><rest/><duration>3072</duration><voice>1</voice></note></measure><measure number="23"><print new-system="no"/><note><rest/><duration>3072</duration><voice>1</voice></note></measure><measure number="24"><print new-system="no"/><note><rest/><duration>3072</duration><voice>1</voice></note></measure><measure number="25"><print new-system="yes"/><note><rest/><duration>3072</duration><voice>1</voice></note></measure><measure number="26"><print new-system="no"/><note><rest/><duration>3072</duration><voice>1</voice></note></measure><measure number="27"><print new-system="no"/><note><rest/><duration>3072</duration><voice>1</voice></note></measure><measure number="28"><print new-system="no"/><note><rest/><duration>3072</duration><voice>1</voice></note></measure><measure number="29"><print new-system="yes"/><note><rest/><duration>3072</duration><voice>1</voice></note></measure><measure number="30"><print new-system="no"/><note><rest/><duration>3072</duration><voice>1</voice></note></measure><measure number="31"><print new-system="no"/><note><rest/><duration>3072</duration><voice>1</voice></note></measure><measure number="32"><print new-system="no"/><note><rest/><duration>3072</duration><voice>1</voice></note><barline location="right"><bar-style>light-heavy</bar-style><repeat direction="backward"/></barline></measure></part><part id="P3"><measure number="0" implicit="yes"><attributes><divisions>768</divisions><key><fifths>-2</fifths><mode>major</mode></key><time symbol="cut"><beats>2</beats><beat-type>2</beat-type></time><clef><sign>F</sign><line>4</line></clef></attributes><note><rest/><duration>1536</duration><voice>1</voice></note></measure><measure number="1"><print new-system="no"/><barline location="left"><bar-style>heavy-light</bar-style><repeat direction="forward"/></barline><direction><direction-type><words relative-x="-11" default-y="-70">1st time: as is 2nd time: calypso feel</words></direction-type></direction><harmony relative-x="13" default-y="20" print-frame="no"><root><root-step>B</root-step><root-alter>-1</root-alter></root><kind text="">major</kind></harmony><note><pitch><step>B</step><alter>-1</alter><octave>1</octave></pitch><duration>768</duration><voice>1</voice><type>quarter</type><notations><articulations><staccato/></articulations></notations></note><note><rest/><duration>384</duration><voice>1</voice><type>eighth</type></note><harmony relative-x="13" default-y="20" print-frame="no"><root><root-step>C</root-step></root><kind text="m7">minor-seventh</kind></harmony><note><pitch><step>C</step><octave>2</octave></pitch><duration>384</duration><voice>1</voice><type>eighth</type><beam number="1">continue</beam><notations><articulations><staccato/></articulations></notations></note><note><rest/><duration>768</duration><voice>1</voice><type>quarter</type></note><harmony relative-x="13" default-y="20" print-frame="no"><root><root-step>D</root-step></root><kind text="m7">minor-seventh</kind></harmony><note><pitch><step>D</step><octave>2</octave></pitch><duration>768</duration><voice>1</voice><type>quarter</type><notations><articulations><staccato/></articulations></notations></note></measure><measure number="2"><print new-system="no"/><note><rest/><duration>3072</duration><voice>1</voice></note></measure><measure number="3"><print new-system="no"/><note><pitch><step>F</step><octave>1</octave></pitch><duration>768</duration><voice>1</voice><type>quarter</type><notations><articulations><staccato/></articulations></notations></note><direction><direction-type><words default-y="20">F13(b9)</words></direction-type><offset>-363</offset></direction><note><rest/><duration>384</duration><voice>1</voice><type>eighth</type></note><note><pitch><step>F</step><octave>1</octave></pitch><duration>384</duration><voice>1</voice><type>eighth</type><beam number="1">continue</beam><notations><articulations><staccato/></articulations></notations></note><note><rest/><duration>768</duration><voice>1</voice><type>quarter</type></note><harmony relative-x="13" default-y="20" print-frame="no"><root><root-step>B</root-step><root-alter>-1</root-alter></root><kind text="">major</kind></harmony><note><pitch><step>B</step><alter>-1</alter><octave>1</octave></pitch><duration>768</duration><voice>1</voice><type>quarter</type><notations><articulations><staccato/></articulations></notations></note></measure><measure number="4"><print new-system="no"/><note><rest/><duration>3072</duration><voice>1</voice></note></measure><measure number="5"><print new-system="yes"/><harmony relative-x="13" default-y="20" print-frame="no"><root><root-step>B</root-step><root-alter>-1</root-alter></root><kind text="7">dominant</kind></harmony><note><pitch><step>B</step><alter>-1</alter><octave>1</octave></pitch><duration>768</duration><voice>1</voice><type>quarter</type><notations><articulations><staccato/></articulations></notations></note><note><rest/><duration>384</duration><voice>1</voice><type>eighth</type></note><harmony relative-x="13" default-y="20" print-frame="no"><root><root-step>A</root-step><root-alter>-1</root-alter></root><kind text="7">dominant</kind></harmony><note><pitch><step>A</step><alter>-1</alter><octave>1</octave></pitch><duration>384</duration><voice>1</voice><type>eighth</type><beam number="1">continue</beam><notations><articulations><staccato/></articulations></notations></note><note><rest/><duration>768</duration><voice>1</voice><type>quarter</type></note><harmony relative-x="13" default-y="20" print-frame="no"><root><root-step>G</root-step></root><kind text="7">dominant</kind></harmony><note><pitch><step>G</step><octave>1</octave></pitch><duration>768</duration><voice>1</voice><type>quarter</type><notations><articulations><staccato/></articulations></notations></note></measure><measure number="6"><print new-system="no"/><note><rest/><duration>3072</duration><voice>1</voice></note></measure><measure number="7"><print new-system="no"/><harmony relative-x="13" default-y="20" print-frame="no"><root><root-step>C</root-step></root><kind text="9">dominant-ninth</kind></harmony><note><pitch><step>C</step><octave>2</octave></pitch><duration>768</duration><voice>1</voice><type>quarter</type><notations><articulations><staccato/></articulations></notations></note><note><rest/><duration>384</duration><voice>1</voice><type>eighth</type></note><note><pitch><step>C</step><octave>2</octave></pitch><duration>384</duration><voice>1</voice><type>eighth</type><beam number="1">continue</beam><notations><articulations><staccato/></articulations></notations></note><note><rest/><duration>768</duration><voice>1</voice><type>quarter</type></note><harmony relative-x="13" default-y="20" print-frame="no"><root><root-step>F</root-step></root><kind text="7">dominant</kind></harmony><note><pitch><step>F</step><octave>1</octave></pitch><duration>768</duration><voice>1</voice><type>quarter</type><notations><articulations><staccato/></articulations></notations></note></measure><measure number="8"><print new-system="no"/><note><rest/><duration>3072</duration><voice>1</voice></note></measure><measure number="9"><print new-system="yes"/><note><rest/><duration>384</duration><voice>1</voice><type>eighth</type></note><direction><direction-type><words default-y="23">Bb7(#9)</words></direction-type><offset>252</offset></direction><note><pitch><step>B</step><alter>-1</alter><octave>2</octave></pitch><duration>1152</duration><voice>1</voice><type>quarter</type><dot/><notations><articulations><accent/></articulations></notations></note><note><pitch><step>B</step><alter>-1</alter><octave>2</octave></pitch><duration>1152</duration><voice>1</voice><type>quarter</type><dot/><notations><articulations><accent/></articulations></notations></note><note><pitch><step>E</step><octave>2</octave></pitch><duration>384</duration><tie type="start"/><voice>1</voice><type>eighth</type><beam number="1">continue</beam><notations><tied type="start"/><articulations><accent/></articulations></notations></note><direction><direction-type><words relative-x="-12" default-y="20">E7(#11)</words></direction-type><offset>-3</offset></direction></measure><measure number="10"><print new-system="no"/><note><pitch><step>E</step><octave>2</octave></pitch><duration>768</duration><voice>1</voice><type>quarter</type></note><note><pitch><step>E</step><octave>2</octave></pitch><duration>768</duration><tie type="start"/><voice>1</voice><type>quarter</type><notations><tied type="start"/><articulations><accent/></articulations></notations></note><note><pitch><step>E</step><octave>2</octave></pitch><duration>384</duration><voice>1</voice><type>eighth</type><beam number="1">begin</beam></note><note><pitch><step>E</step><octave>2</octave></pitch><duration>1152</duration><voice>1</voice><type>quarter</type><dot/><notations><articulations><accent/></articulations></notations></note></measure><measure number="11"><print new-system="no"/><harmony relative-x="13" default-y="20" print-frame="no"><root><root-step>E</root-step><root-alter>-1</root-alter></root><kind text="7">dominant</kind></harmony><note><pitch><step>E</step><alter>-1</alter><octave>2</octave></pitch><duration>1152</duration><voice>1</voice><type>quarter</type><dot/><notations><articulations><accent/></articulations></notations></note><note><pitch><step>E</step><alter>-1</alter><octave>2</octave></pitch><duration>384</duration><tie type="start"/><voice>1</voice><type>eighth</type><beam number="1">continue</beam><notations><tied type="start"/><articulations><accent/></articulations></notations></note><note><pitch><step>E</step><alter>-1</alter><octave>2</octave></pitch><duration>768</duration><voice>1</voice><type>quarter</type></note><harmony relative-x="13" default-y="20" print-frame="no"><root><root-step>E</root-step></root><kind text="dim">diminished</kind></harmony><note><pitch><step>E</step><octave>2</octave></pitch><duration>768</duration><voice>1</voice><type>quarter</type><notations><articulations><strong-accent type="up"/></articulations></notations></note></measure><measure number="12"><print new-system="no"/><note><rest/><duration>3072</duration><voice>1</voice></note></measure><measure number="13"><print new-system="yes"/><note><rest/><duration>768</duration><voice>1</voice><type>quarter</type></note><harmony relative-x="13" default-y="35" print-frame="no"><root><root-step>B</root-step><root-alter>-1</root-alter></root><kind text="7">dominant</kind></harmony><note><pitch><step>B</step><alter>-1</alter><octave>2</octave></pitch><duration>512</duration><voice>1</voice><type>quarter</type><time-modification><actual-notes>3</actual-notes><normal-notes>2</normal-notes></time-modification><notations><tuplet type="start"/><articulations><staccato/></articulations></notations></note><note><pitch><step>B</step><alter>-1</alter><octave>2</octave></pitch><duration>512</duration><voice>1</voice><type>quarter</type><time-modification><actual-notes>3</actual-notes><normal-notes>2</normal-notes></time-modification><notations><articulations><staccato/></articulations></notations></note><harmony relative-x="13" default-y="35" print-frame="no"><root><root-step>A</root-step><root-alter>-1</root-alter></root><kind text="7">dominant</kind><offset>-1</offset></harmony><note><pitch><step>A</step><alter>-1</alter><octave>2</octave></pitch><duration>512</duration><voice>1</voice><type>quarter</type><time-modification><actual-notes>3</actual-notes><normal-notes>2</normal-notes></time-modification><notations><tuplet type="stop"/><articulations><staccato/></articulations></notations></note><note><pitch><step>A</step><alter>-1</alter><octave>2</octave></pitch><duration>512</duration><voice>1</voice><type>quarter</type><time-modification><actual-notes>3</actual-notes><normal-notes>2</normal-notes><normal-type>eighth</normal-type></time-modification><notations><tuplet type="start"/><articulations><staccato/></articulations></notations></note><harmony relative-x="13" default-y="30" print-frame="no"><root><root-step>G</root-step></root><kind text="7">dominant</kind><offset>-2</offset></harmony><note><pitch><step>G</step><octave>2</octave></pitch><duration>256</duration><tie type="start"/><voice>1</voice><type>eighth</type><time-modification><actual-notes>3</actual-notes><normal-notes>2</normal-notes></time-modification><beam number="1">continue</beam><notations><tied type="start"/><tuplet type="stop"/><articulations><staccato/></articulations></notations></note></measure><measure number="14"><print new-system="no"/><note><pitch><step>G</step><octave>2</octave></pitch><duration>256</duration><voice>1</voice><type>eighth</type><time-modification><actual-notes>3</actual-notes><normal-notes>2</normal-notes></time-modification><beam number="1">begin</beam><notations><tuplet type="start"/></notations></note><note><pitch><step>D</step><alter>-1</alter><octave>2</octave></pitch><duration>512</duration><voice>1</voice><type>quarter</type><time-modification><actual-notes>3</actual-notes><normal-notes>2</normal-notes><normal-type>eighth</normal-type></time-modification><notations><tuplet type="stop"/><articulations><staccato/></articulations></notations></note><direction><direction-type><words relative-x="-13" default-y="30">Db7(#11)</words></direction-type></direction><note><rest/><duration>768</duration><voice>1</voice><type>quarter</type></note><note><rest/><duration>768</duration><voice>1</voice><type>quarter</type></note><harmony relative-x="13" default-y="20" print-frame="no"><root><root-step>G</root-step></root><kind text="7">dominant</kind></harmony><note><pitch><step>G</step><octave>2</octave></pitch><duration>768</duration><voice>1</voice><type>quarter</type><notations><articulations><staccato/></articulations></notations></note></measure><measure number="15"><print new-system="no"/><harmony relative-x="13" default-y="20" print-frame="no"><root><root-step>C</root-step></root><kind text="9">dominant-ninth</kind></harmony><note><pitch><step>C</step><octave>2</octave></pitch><duration>768</duration><voice>1</voice><type>quarter</type><notations><articulations><staccato/></articulations></notations></note><note><rest/><duration>384</duration><voice>1</voice><type>eighth</type></note><harmony relative-x="13" default-y="20" print-frame="no"><root><root-step>F</root-step></root><kind text="7">dominant</kind></harmony><note><pitch><step>F</step><octave>2</octave></pitch><duration>384</duration><voice>1</voice><type>eighth</type><beam number="1">continue</beam><notations><articulations><staccato/></articulations></notations></note><note><rest/><duration>768</duration><voice>1</voice><type>quarter</type></note><harmony relative-x="13" default-y="20" print-frame="no"><root><root-step>B</root-step><root-alter>-1</root-alter></root><kind text="">major</kind></harmony><note><pitch><step>B</step><alter>-1</alter><octave>1</octave></pitch><duration>768</duration><voice>1</voice><type>quarter</type><notations><articulations><staccato/></articulations></notations></note></measure><measure number="16"><print new-system="no"/><note><rest/><duration>3072</duration><voice>1</voice></note><barline location="right"><bar-style>light-heavy</bar-style><repeat direction="backward"/></barline></measure><measure number="17"><print new-system="yes"/><barline location="left"><bar-style>heavy-light</bar-style><repeat direction="forward"/></barline><direction><direction-type><words relative-x="-96" default-y="68" enclosure="rectangle">Solo changes</words></direction-type></direction><harmony relative-x="8" default-y="25" print-frame="no"><root><root-step>B</root-step><root-alter>-1</root-alter></root><kind text="">major</kind></harmony><note><pitch><step>D</step><octave>2</octave></pitch><duration>768</duration><voice>1</voice><type>quarter</type><stem>none</stem><notehead>slash</notehead></note><note><pitch><step>D</step><octave>2</octave></pitch><duration>768</duration><voice>1</voice><type>quarter</type><stem>none</stem><notehead>slash</notehead></note><harmony relative-x="8" default-y="25" print-frame="no"><root><root-step>C</root-step></root><kind text="m7">minor-seventh</kind></harmony><note><pitch><step>D</step><octave>2</octave></pitch><duration>768</duration><voice>1</voice><type>quarter</type><stem>none</stem><notehead>slash</notehead></note><note><pitch><step>D</step><octave>2</octave></pitch><duration>768</duration><voice>1</voice><type>quarter</type><stem>none</stem><notehead>slash</notehead></note></measure><measure number="18"><print new-system="no"/><harmony relative-x="8" default-y="25" print-frame="no"><root><root-step>D</root-step></root><kind text="m7">minor-seventh</kind></harmony><note><pitch><step>D</step><octave>2</octave></pitch><duration>768</duration><voice>1</voice><type>quarter</type><stem>none</stem><notehead>slash</notehead></note><note><pitch><step>D</step><octave>2</octave></pitch><duration>768</duration><voice>1</voice><type>quarter</type><stem>none</stem><notehead>slash</notehead></note><harmony relative-x="8" default-y="25" print-frame="no"><root><root-step>G</root-step></root><kind text="7">dominant</kind></harmony><note><pitch><step>D</step><octave>2</octave></pitch><duration>768</duration><voice>1</voice><type>quarter</type><stem>none</stem><notehead>slash</notehead></note><note><pitch><step>D</step><octave>2</octave></pitch><duration>768</duration><voice>1</voice><type>quarter</type><stem>none</stem><notehead>slash</notehead></note></measure><measure number="19"><print new-system="no"/><harmony relative-x="8" default-y="25" print-frame="no"><root><root-step>C</root-step></root><kind text="m7">minor-seventh</kind></harmony><note><pitch><step>D</step><octave>2</octave></pitch><duration>768</duration><voice>1</voice><type>quarter</type><stem>none</stem><notehead>slash</notehead></note><note><pitch><step>D</step><octave>2</octave></pitch><duration>768</duration><voice>1</voice><type>quarter</type><stem>none</stem><notehead>slash</notehead></note><harmony relative-x="8" default-y="25" print-frame="no"><root><root-step>F</root-step></root><kind text="7">dominant</kind></harmony><note><pitch><step>D</step><octave>2</octave></pitch><duration>768</duration><voice>1</voice><type>quarter</type><stem>none</stem><notehead>slash</notehead></note><note><pitch><step>D</step><octave>2</octave></pitch><duration>768</duration><voice>1</voice><type>quarter</type><stem>none</stem><notehead>slash</notehead></note></measure><measure number="20"><print new-system="no"/><harmony relative-x="8" default-y="25" print-frame="no"><root><root-step>B</root-step><root-alter>-1</root-alter></root><kind text="">major</kind></harmony><note><pitch><step>D</step><octave>2</octave></pitch><duration>768</duration><voice>1</voice><type>quarter</type><stem>none</stem><notehead>slash</notehead></note><note><pitch><step>D</step><octave>2</octave></pitch><duration>768</duration><voice>1</voice><type>quarter</type><stem>none</stem><notehead>slash</notehead></note><note><pitch><step>D</step><octave>2</octave></pitch><duration>768</duration><voice>1</voice><type>quarter</type><stem>none</stem><notehead>slash</notehead></note><note><pitch><step>D</step><octave>2</octave></pitch><duration>768</duration><voice>1</voice><type>quarter</type><stem>none</stem><notehead>slash</notehead></note></measure><measure number="21"><print new-system="yes"/><harmony relative-x="8" default-y="25" print-frame="no"><root><root-step>B</root-step><root-alter>-1</root-alter></root><kind text="">major</kind></harmony><note><pitch><step>D</step><octave>2</octave></pitch><duration>768</duration><voice>1</voice><type>quarter</type><stem>none</stem><notehead>slash</notehead></note><note><pitch><step>D</step><octave>2</octave></pitch><duration>768</duration><voice>1</voice><type>quarter</type><stem>none</stem><notehead>slash</notehead></note><harmony relative-x="8" default-y="25" print-frame="no"><root><root-step>A</root-step><root-alter>-1</root-alter></root><kind text="7">dominant</kind></harmony><note><pitch><step>D</step><octave>2</octave></pitch><duration>768</duration><voice>1</voice><type>quarter</type><stem>none</stem><notehead>slash</notehead></note><note><pitch><step>D</step><octave>2</octave></pitch><duration>768</duration><voice>1</voice><type>quarter</type><stem>none</stem><notehead>slash</notehead></note></measure><measure number="22"><print new-system="no"/><harmony relative-x="8" default-y="25" print-frame="no"><root><root-step>G</root-step></root><kind text="7">dominant</kind></harmony><note><pitch><step>D</step><octave>2</octave></pitch><duration>768</duration><voice>1</voice><type>quarter</type><stem>none</stem><notehead>slash</notehead></note><note><pitch><step>D</step><octave>2</octave></pitch><duration>768</duration><voice>1</voice><type>quarter</type><stem>none</stem><notehead>slash</notehead></note><note><pitch><step>D</step><octave>2</octave></pitch><duration>768</duration><voice>1</voice><type>quarter</type><stem>none</stem><notehead>slash</notehead></note><note><pitch><step>D</step><octave>2</octave></pitch><duration>768</duration><voice>1</voice><type>quarter</type><stem>none</stem><notehead>slash</notehead></note></measure><measure number="23"><print new-system="no"/><harmony relative-x="8" default-y="25" print-frame="no"><root><root-step>C</root-step></root><kind text="7">dominant</kind></harmony><note><pitch><step>D</step><octave>2</octave></pitch><duration>768</duration><voice>1</voice><type>quarter</type><stem>none</stem><notehead>slash</notehead></note><note><pitch><step>D</step><octave>2</octave></pitch><duration>768</duration><voice>1</voice><type>quarter</type><stem>none</stem><notehead>slash</notehead></note><note><pitch><step>D</step><octave>2</octave></pitch><duration>768</duration><voice>1</voice><type>quarter</type><stem>none</stem><notehead>slash</notehead></note><note><pitch><step>D</step><octave>2</octave></pitch><duration>768</duration><voice>1</voice><type>quarter</type><stem>none</stem><notehead>slash</notehead></note></measure><measure number="24"><print new-system="no"/><harmony relative-x="8" default-y="25" print-frame="no"><root><root-step>F</root-step></root><kind text="7">dominant</kind></harmony><note><pitch><step>D</step><octave>2</octave></pitch><duration>768</duration><voice>1</voice><type>quarter</type><stem>none</stem><notehead>slash</notehead></note><note><pitch><step>D</step><octave>2</octave></pitch><duration>768</duration><voice>1</voice><type>quarter</type><stem>none</stem><notehead>slash</notehead></note><note><pitch><step>D</step><octave>2</octave></pitch><duration>768</duration><voice>1</voice><type>quarter</type><stem>none</stem><notehead>slash</notehead></note><note><pitch><step>D</step><octave>2</octave></pitch><duration>768</duration><voice>1</voice><type>quarter</type><stem>none</stem><notehead>slash</notehead></note></measure><measure number="25"><print new-system="yes"/><harmony relative-x="8" default-y="25" print-frame="no"><root><root-step>B</root-step><root-alter>-1</root-alter></root><kind text="7">dominant</kind></harmony><note><pitch><step>D</step><octave>2</octave></pitch><duration>768</duration><voice>1</voice><type>quarter</type><stem>none</stem><notehead>slash</notehead></note><note><pitch><step>D</step><octave>2</octave></pitch><duration>768</duration><voice>1</voice><type>quarter</type><stem>none</stem><notehead>slash</notehead></note><note><pitch><step>D</step><octave>2</octave></pitch><duration>768</duration><voice>1</voice><type>quarter</type><stem>none</stem><notehead>slash</notehead></note><note><pitch><step>D</step><octave>2</octave></pitch><duration>768</duration><voice>1</voice><type>quarter</type><stem>none</stem><notehead>slash</notehead></note></measure><measure number="26"><print new-system="no"/><note><pitch><step>D</step><octave>2</octave></pitch><duration>768</duration><voice>1</voice><type>quarter</type><stem>none</stem><notehead>slash</notehead></note><note><pitch><step>D</step><octave>2</octave></pitch><duration>768</duration><voice>1</voice><type>quarter</type><stem>none</stem><notehead>slash</notehead></note><note><pitch><step>D</step><octave>2</octave></pitch><duration>768</duration><voice>1</voice><type>quarter</type><stem>none</stem><notehead>slash</notehead></note><note><pitch><step>D</step><octave>2</octave></pitch><duration>768</duration><voice>1</voice><type>quarter</type><stem>none</stem><notehead>slash</notehead></note></measure><measure number="27"><print new-system="no"/><harmony relative-x="8" default-y="25" print-frame="no"><root><root-step>E</root-step><root-alter>-1</root-alter></root><kind text="7">dominant</kind></harmony><note><pitch><step>D</step><octave>2</octave></pitch><duration>768</duration><voice>1</voice><type>quarter</type><stem>none</stem><notehead>slash</notehead></note><note><pitch><step>D</step><octave>2</octave></pitch><duration>768</duration><voice>1</voice><type>quarter</type><stem>none</stem><notehead>slash</notehead></note><note><pitch><step>D</step><octave>2</octave></pitch><duration>768</duration><voice>1</voice><type>quarter</type><stem>none</stem><notehead>slash</notehead></note><note><pitch><step>D</step><octave>2</octave></pitch><duration>768</duration><voice>1</voice><type>quarter</type><stem>none</stem><notehead>slash</notehead></note></measure><measure number="28"><print new-system="no"/><harmony relative-x="8" default-y="25" print-frame="no"><root><root-step>E</root-step></root><kind text="dim">diminished</kind></harmony><note><pitch><step>D</step><octave>2</octave></pitch><duration>768</duration><voice>1</voice><type>quarter</type><stem>none</stem><notehead>slash</notehead></note><note><pitch><step>D</step><octave>2</octave></pitch><duration>768</duration><voice>1</voice><type>quarter</type><stem>none</stem><notehead>slash</notehead></note><note><pitch><step>D</step><octave>2</octave></pitch><duration>768</duration><voice>1</voice><type>quarter</type><stem>none</stem><notehead>slash</notehead></note><note><pitch><step>D</step><octave>2</octave></pitch><duration>768</duration><voice>1</voice><type>quarter</type><stem>none</stem><notehead>slash</notehead></note></measure><measure number="29"><print new-system="yes"/><harmony relative-x="8" default-y="25" print-frame="no"><root><root-step>B</root-step><root-alter>-1</root-alter></root><kind text="">major</kind></harmony><note><pitch><step>D</step><octave>2</octave></pitch><duration>768</duration><voice>1</voice><type>quarter</type><stem>none</stem><notehead>slash</notehead></note><note><pitch><step>D</step><octave>2</octave></pitch><duration>768</duration><voice>1</voice><type>quarter</type><stem>none</stem><notehead>slash</notehead></note><harmony relative-x="8" default-y="25" print-frame="no"><root><root-step>A</root-step><root-alter>-1</root-alter></root><kind text="7">dominant</kind></harmony><note><pitch><step>D</step><octave>2</octave></pitch><duration>768</duration><voice>1</voice><type>quarter</type><stem>none</stem><notehead>slash</notehead></note><note><pitch><step>D</step><octave>2</octave></pitch><duration>768</duration><voice>1</voice><type>quarter</type><stem>none</stem><notehead>slash</notehead></note></measure><measure number="30"><print new-system="no"/><harmony relative-x="8" default-y="25" print-frame="no"><root><root-step>G</root-step></root><kind text="7">dominant</kind></harmony><note><pitch><step>D</step><octave>2</octave></pitch><duration>768</duration><voice>1</voice><type>quarter</type><stem>none</stem><notehead>slash</notehead></note><note><pitch><step>D</step><octave>2</octave></pitch><duration>768</duration><voice>1</voice><type>quarter</type><stem>none</stem><notehead>slash</notehead></note><note><pitch><step>D</step><octave>2</octave></pitch><duration>768</duration><voice>1</voice><type>quarter</type><stem>none</stem><notehead>slash</notehead></note><note><pitch><step>D</step><octave>2</octave></pitch><duration>768</duration><voice>1</voice><type>quarter</type><stem>none</stem><notehead>slash</notehead></note></measure><measure number="31"><print new-system="no"/><harmony relative-x="8" default-y="25" print-frame="no"><root><root-step>C</root-step></root><kind text="m7">minor-seventh</kind></harmony><note><pitch><step>D</step><octave>2</octave></pitch><duration>768</duration><voice>1</voice><type>quarter</type><stem>none</stem><notehead>slash</notehead></note><note><pitch><step>D</step><octave>2</octave></pitch><duration>768</duration><voice>1</voice><type>quarter</type><stem>none</stem><notehead>slash</notehead></note><harmony relative-x="8" default-y="25" print-frame="no"><root><root-step>F</root-step></root><kind text="7">dominant</kind></harmony><note><pitch><step>D</step><octave>2</octave></pitch><duration>768</duration><voice>1</voice><type>quarter</type><stem>none</stem><notehead>slash</notehead></note><note><pitch><step>D</step><octave>2</octave></pitch><duration>768</duration><voice>1</voice><type>quarter</type><stem>none</stem><notehead>slash</notehead></note></measure><measure number="32"><print new-system="no"/><harmony relative-x="8" default-y="25" print-frame="no"><root><root-step>B</root-step><root-alter>-1</root-alter></root><kind text="">major</kind></harmony><note><pitch><step>D</step><octave>2</octave></pitch><duration>768</duration><voice>1</voice><type>quarter</type><stem>none</stem><notehead>slash</notehead></note><note><pitch><step>D</step><octave>2</octave></pitch><duration>768</duration><voice>1</voice><type>quarter</type><stem>none</stem><notehead>slash</notehead></note><note><pitch><step>D</step><octave>2</octave></pitch><duration>768</duration><voice>1</voice><type>quarter</type><stem>none</stem><notehead>slash</notehead></note><note><pitch><step>D</step><octave>2</octave></pitch><duration>768</duration><voice>1</voice><type>quarter</type><stem>none</stem><notehead>slash</notehead></note><barline location="right"><bar-style>light-heavy</bar-style><repeat direction="backward"/></barline></measure></part></score-partwise>