<score-partwise version="2.0"><work><work-number/><work-title/></work><movement-number/><movement-title>Just Friends</movement-title><identification><creator type="composer">John Klenner</creator><creator type="poet">Sam M. Lewis</creator><rights>All Rights Reserved</rights><encoding><software>Finale 2008 for Windows</software><software>Dolet Light for Finale 2008</software><encoding-date>2009-03-29</encoding-date><software>ProxyMusic 2.0 c</software></encoding><source>http://wikifonia.org/node/1556/revisions/1986/view</source></identification><defaults><scaling><millimeters>7.2319</millimeters><tenths>40</tenths></scaling><page-layout><page-height>1642</page-height><page-width>1161</page-width><page-margins type="both"><left-margin>70</left-margin><right-margin>70</right-margin><top-margin>88</top-margin><bottom-margin>88</bottom-margin></page-margins></page-layout><system-layout><system-margins><left-margin>0</left-margin><right-margin>0</right-margin></system-margins><system-distance>114</system-distance><top-system-distance>63</top-system-distance></system-layout><music-font font-size="20.5" font-family="Maestro"/><word-font font-size="10.25" font-family="Times New Roman"/><lyric-font font-size="10.25" font-family="Times New Roman" name="verse"/></defaults><credit><credit-words font-weight="bold" font-size="24" default-y="1537" default-x="580" justify="center" valign="top">Just Friends
</credit-words></credit><credit><credit-words font-weight="bold" font-size="12" default-y="1472" default-x="1091" justify="right" valign="top">John Klenner</credit-words></credit><part-list><score-part id="P1"><part-name print-object="no">MusicXML Part</part-name><score-instrument id="P1-I1"><instrument-name>Grand Piano</instrument-name></score-instrument><midi-instrument id="P1-I1"><midi-channel>1</midi-channel><midi-program>2</midi-program></midi-instrument></score-part></part-list><part id="P1"><measure width="234" number="1"><print><system-layout><system-margins><left-margin>70</left-margin><right-margin>0</right-margin></system-margins><top-system-distance>211</top-system-distance></system-layout></print><attributes><divisions>6</divisions><key><fifths>1</fifths><mode>major</mode></key><time symbol="common"><beats>4</beats><beat-type>4</beat-type></time><clef><sign>G</sign><line>2</line></clef></attributes><sound tempo="180"/><note default-x="105"><rest/><duration>12</duration><voice>1</voice><type>half</type></note><harmony default-y="40"><root><root-step>G</root-step></root><kind text="7">dominant</kind></harmony><note default-x="170"><pitch><step>B</step><octave>4</octave></pitch><duration>12</duration><voice>1</voice><type>half</type><stem default-y="-55.5">down</stem><lyric default-y="-80" number="1"><syllabic>single</syllabic><text>Just</text></lyric></note></measure><measure width="138" number="2"><harmony default-y="40"><root><root-step>C</root-step></root><kind text="M7">major-seventh</kind></harmony><note default-x="33"><pitch><step>B</step><octave>4</octave></pitch><duration>24</duration><tie type="start"/><voice>1</voice><type>whole</type><notations><tied type="start"/></notations><lyric justify="left" default-y="-80" number="1"><syllabic>single</syllabic><text>friends,</text><extend/></lyric></note></measure><measure width="173" number="3"><note default-x="10"><pitch><step>B</step><octave>4</octave></pitch><duration>12</duration><tie type="stop"/><voice>1</voice><type>half</type><stem default-y="-55.5">down</stem><notations><tied type="stop"/></notations></note><note default-x="75"><pitch><step>A</step><octave>4</octave></pitch><duration>4</duration><voice>1</voice><type>quarter</type><time-modification><actual-notes>3</actual-notes><normal-notes>2</normal-notes></time-modification><stem default-y="11">up</stem><notations><tuplet placement="above" type="start" number="1"/></notations><lyric default-y="-80" number="1"><syllabic>begin</syllabic><text>lov</text></lyric></note><note default-x="105"><pitch><step>B</step><octave>4</octave></pitch><duration>4</duration><voice>1</voice><type>quarter</type><time-modification><actual-notes>3</actual-notes><normal-notes>2</normal-notes></time-modification><stem default-y="-55.5">down</stem><lyric default-y="-80" number="1"><syllabic>end</syllabic><text>ers</text></lyric></note><note default-x="142"><pitch><step>A</step><octave>4</octave></pitch><duration>4</duration><voice>1</voice><type>quarter</type><time-modification><actual-notes>3</actual-notes><normal-notes>2</normal-notes></time-modification><stem default-y="11">up</stem><notations><tuplet type="stop" number="1"/></notations><lyric default-y="-80" number="1"><syllabic>single</syllabic><text>no</text></lyric></note></measure><measure width="131" number="4"><harmony default-y="40"><root><root-step>C</root-step></root><kind text="m7">minor-seventh</kind></harmony><note default-x="27"><pitch><step>E</step><alter>-1</alter><octave>4</octave></pitch><duration>24</duration><tie type="start"/><voice>1</voice><type>whole</type><accidental>flat</accidental><notations><tied type="start"/></notations><lyric justify="left" default-y="-80" number="1"><syllabic>single</syllabic><text>more,</text><extend/></lyric></note></measure><measure width="136" number="5"><harmony default-y="40"><root><root-step>F</root-step></root><kind text="7">dominant</kind></harmony><note default-x="10"><pitch><step>E</step><alter>-1</alter><octave>4</octave></pitch><duration>12</duration><tie type="stop"/><voice>1</voice><type>half</type><stem default-y="-4">up</stem><notations><tied type="stop"/></notations></note><note default-x="73"><pitch><step>A</step><octave>4</octave></pitch><duration>12</duration><voice>1</voice><type>half</type><stem default-y="11">up</stem><lyric default-y="-80" number="1"><syllabic>single</syllabic><text>just</text></lyric></note></measure><measure width="138" number="6"><harmony default-y="40"><root><root-step>G</root-step></root><kind text="M7">major-seventh</kind></harmony><note default-x="33"><pitch><step>A</step><octave>4</octave></pitch><duration>24</duration><tie type="start"/><voice>1</voice><type>whole</type><notations><tied type="start"/></notations><lyric justify="left" default-y="-80" number="1"><syllabic>single</syllabic><text>friends,</text><extend/></lyric></note></measure><measure width="249" number="7"><print new-system="yes"><system-layout><system-distance>106</system-distance></system-layout></print><note default-x="74"><pitch><step>A</step><octave>4</octave></pitch><duration>6</duration><tie type="stop"/><voice>1</voice><type>quarter</type><stem default-y="11">up</stem><notations><tied type="stop"/></notations></note><note default-x="111"><pitch><step>A</step><octave>4</octave></pitch><duration>6</duration><voice>1</voice><type>quarter</type><stem default-y="11">up</stem><lyric default-y="-80" number="1"><syllabic>single</syllabic><text>but</text></lyric></note><note default-x="148"><pitch><step>G</step><octave>4</octave></pitch><duration>4</duration><voice>1</voice><type>quarter</type><time-modification><actual-notes>3</actual-notes><normal-notes>2</normal-notes></time-modification><stem default-y="6">up</stem><notations><tuplet placement="above" type="start" number="1"/></notations><lyric default-y="-80" number="1"><syllabic>single</syllabic><text>not</text></lyric></note><note default-x="178"><pitch><step>A</step><octave>4</octave></pitch><duration>4</duration><voice>1</voice><type>quarter</type><time-modification><actual-notes>3</actual-notes><normal-notes>2</normal-notes></time-modification><stem default-y="11">up</stem><lyric default-y="-80" number="1"><syllabic>single</syllabic><text>like</text></lyric></note><note default-x="220"><pitch><step>G</step><octave>4</octave></pitch><duration>4</duration><voice>1</voice><type>quarter</type><time-modification><actual-notes>3</actual-notes><normal-notes>2</normal-notes></time-modification><stem default-y="6">up</stem><notations><tuplet type="stop" number="1"/></notations><lyric default-y="-80" number="1"><syllabic>begin</syllabic><text>be</text></lyric></note></measure><measure width="118" number="8"><harmony default-y="40"><root><root-step>B</root-step><root-alter>-1</root-alter></root><kind text="m7">minor-seventh</kind></harmony><note default-x="22"><pitch><step>D</step><alter>-1</alter><octave>4</octave></pitch><duration>24</duration><tie type="start"/><voice>1</voice><type>whole</type><accidental>flat</accidental><notations><tied type="start"/></notations><lyric justify="left" default-y="-80" number="1"><syllabic>end</syllabic><text>fore,</text><extend/></lyric></note></measure><measure width="125" number="9"><harmony default-y="40"><root><root-step>E</root-step><root-alter>-1</root-alter></root><kind text="7">dominant</kind></harmony><note default-x="10"><pitch><step>D</step><alter>-1</alter><octave>4</octave></pitch><duration>18</duration><tie type="stop"/><voice>1</voice><type>half</type><dot/><stem default-y="-9">up</stem><notations><tied type="stop"/></notations></note><note default-x="87"><pitch><step>G</step><octave>4</octave></pitch><duration>6</duration><voice>1</voice><type>quarter</type><stem default-y="6">up</stem><lyric default-y="-80" number="1"><syllabic>single</syllabic><text>To</text></lyric></note></measure><measure width="212" number="10"><harmony default-y="40"><root><root-step>A</root-step></root><kind text="m7">minor-seventh</kind></harmony><note default-x="24"><pitch><step>G</step><octave>4</octave></pitch><duration>9</duration><voice>1</voice><type>quarter</type><dot/><stem default-y="6">up</stem><lyric default-y="-80" number="1"><syllabic>single</syllabic><text>think</text></lyric></note><note default-x="74"><pitch><step>E</step><octave>4</octave></pitch><duration>3</duration><voice>1</voice><type>eighth</type><stem default-y="-4">up</stem><lyric default-y="-80" number="1"><syllabic>single</syllabic><text>of</text></lyric></note><note default-x="114"><pitch><step>G</step><octave>4</octave></pitch><duration>9</duration><voice>1</voice><type>quarter</type><dot/><stem default-y="6">up</stem><lyric default-y="-80" number="1"><syllabic>single</syllabic><text>what</text></lyric></note><note default-x="170"><pitch><step>E</step><octave>4</octave></pitch><duration>3</duration><voice>1</voice><type>eighth</type><stem default-y="-4">up</stem><lyric default-y="-80" number="1"><syllabic>single</syllabic><text>we´ve</text></lyric></note></measure><measure width="138" number="11"><harmony default-y="40"><root><root-step>D</root-step></root><kind text="7">dominant</kind></harmony><note default-x="23"><pitch><step>F</step><alter>1</alter><octave>4</octave></pitch><duration>18</duration><voice>1</voice><type>half</type><dot/><stem default-y="0.5">up</stem><lyric default-y="-80" number="1"><syllabic>single</syllabic><text>been</text></lyric></note><note default-x="101"><pitch><step>F</step><alter>1</alter><octave>4</octave></pitch><duration>6</duration><voice>1</voice><type>quarter</type><stem default-y="0.5">up</stem><lyric default-y="-80" number="1"><syllabic>single</syllabic><text>and</text></lyric></note></measure><measure width="178" number="12"><harmony default-y="40"><root><root-step>F</root-step><root-alter>1</root-alter></root><kind text="m7" parentheses-degrees="yes">minor-seventh</kind><degree><degree-value>5</degree-value><degree-alter>-1</degree-alter><degree-type>alter</degree-type></degree></harmony><note default-x="16"><pitch><step>F</step><alter>1</alter><octave>4</octave></pitch><duration>9</duration><voice>1</voice><type>quarter</type><dot/><stem default-y="0.5">up</stem><lyric default-y="-80" number="1"><syllabic>single</syllabic><text>not</text></lyric></note><note default-x="65"><pitch><step>D</step><octave>4</octave></pitch><duration>3</duration><voice>1</voice><type>eighth</type><stem default-y="-9">up</stem><lyric default-y="-80" number="1"><syllabic>single</syllabic><text>to</text></lyric></note><harmony default-y="40"><root><root-step>B</root-step></root><kind text="7">dominant</kind></harmony><note default-x="101"><pitch><step>F</step><alter>1</alter><octave>4</octave></pitch><duration>9</duration><voice>1</voice><type>quarter</type><dot/><stem default-y="0.5">up</stem><lyric default-y="-80" number="1"><syllabic>single</syllabic><text>kiss</text></lyric></note><note default-x="149"><pitch><step>D</step><octave>4</octave></pitch><duration>3</duration><voice>1</voice><type>eighth</type><stem default-y="-9">up</stem><lyric default-y="-80" number="1"><syllabic>begin</syllabic><text>a</text></lyric></note></measure><measure width="273" number="13"><print new-system="yes"><system-layout><system-distance>106</system-distance></system-layout></print><harmony default-y="40"><root><root-step>E</root-step></root><kind text="m7">minor-seventh</kind></harmony><note default-x="84"><pitch><step>E</step><octave>4</octave></pitch><duration>6</duration><voice>1</voice><type>quarter</type><stem default-y="-4.5">up</stem><lyric default-y="-80" number="1"><syllabic>end</syllabic><text>gain</text></lyric></note><note default-x="135"><pitch><step>F</step><alter>1</alter><octave>4</octave></pitch><duration>6</duration><voice>1</voice><type>quarter</type><stem default-y="1">up</stem><lyric default-y="-80" number="1"><syllabic>single</syllabic><text>seems</text></lyric></note><note default-x="185"><pitch><step>G</step><octave>4</octave></pitch><duration>6</duration><voice>1</voice><type>quarter</type><stem default-y="6">up</stem><lyric default-y="-80" number="1"><syllabic>single</syllabic><text>like</text></lyric></note><note default-x="229"><pitch><step>B</step><octave>4</octave></pitch><duration>6</duration><voice>1</voice><type>quarter</type><stem default-y="-56">down</stem><lyric default-y="-80" number="1"><syllabic>begin</syllabic><text>pre</text></lyric></note></measure><measure width="146" number="14"><harmony default-y="40"><root><root-step>A</root-step></root><kind text="9">dominant-ninth</kind></harmony><note default-x="21"><pitch><step>E</step><octave>5</octave></pitch><duration>12</duration><voice>1</voice><type>half</type><stem default-y="-40.5">down</stem><lyric default-y="-80" number="1"><syllabic>middle</syllabic><text>tend</text></lyric></note><note default-x="83"><pitch><step>B</step><octave>4</octave></pitch><duration>12</duration><tie type="start"/><voice>1</voice><type>half</type><stem default-y="-56">down</stem><notations><tied type="start"/></notations><lyric justify="left" default-y="-80" number="1"><syllabic>end</syllabic><text>ing</text><extend/></lyric></note></measure><measure width="180" number="15"><note default-x="10"><pitch><step>B</step><octave>4</octave></pitch><duration>6</duration><tie type="stop"/><voice>1</voice><type>quarter</type><stem default-y="-56">down</stem><notations><tied type="stop"/></notations></note><note default-x="49"><pitch><step>E</step><octave>4</octave></pitch><duration>6</duration><voice>1</voice><type>quarter</type><stem default-y="-4.5">up</stem><lyric default-y="-80" number="1"><syllabic>begin</syllabic><text>it</text></lyric></note><note default-x="87"><pitch><step>E</step><octave>4</octave></pitch><duration>4</duration><voice>1</voice><type>quarter</type><time-modification><actual-notes>3</actual-notes><normal-notes>2</normal-notes></time-modification><stem default-y="-4.5">up</stem><notations><tuplet placement="above" type="start" number="1"/></notations><lyric default-y="-80" number="1"><syllabic>middle</syllabic><text>is</text></lyric></note><note default-x="117"><pitch><step>F</step><alter>1</alter><octave>4</octave></pitch><duration>4</duration><voice>1</voice><type>quarter</type><time-modification><actual-notes>3</actual-notes><normal-notes>2</normal-notes></time-modification><stem default-y="1">up</stem><lyric default-y="-80" number="1"><syllabic>end</syllabic><text>n´t</text></lyric></note><note default-x="150"><pitch><step>G</step><octave>4</octave></pitch><duration>4</duration><voice>1</voice><type>quarter</type><time-modification><actual-notes>3</actual-notes><normal-notes>2</normal-notes></time-modification><stem default-y="6">up</stem><notations><tuplet type="stop" number="1"/></notations><lyric default-y="-80" number="1"><syllabic>begin</syllabic><text>the</text></lyric></note></measure><measure width="155" number="16"><harmony default-y="40"><root><root-step>A</root-step></root><kind text="m7">minor-seventh</kind></harmony><note default-x="29"><pitch><step>B</step><octave>4</octave></pitch><duration>12</duration><voice>1</voice><type>half</type><stem default-y="-56">down</stem><lyric relative-x="-20" default-y="-79" number="1"><syllabic>middle</syllabic><text>end</text></lyric></note><harmony default-y="40"><root><root-step>D</root-step></root><kind text="7">dominant</kind></harmony><note default-x="91"><pitch><step>A</step><octave>4</octave></pitch><duration>12</duration><tie type="start"/><voice>1</voice><type>half</type><stem default-y="11">up</stem><notations><tied type="start"/></notations><lyric justify="left" default-y="-80" number="1"><syllabic>end</syllabic><text>ing.</text><extend/></lyric></note></measure><measure width="134" number="17"><harmony default-y="40"><root><root-step>D</root-step></root><kind text="m7">minor-seventh</kind></harmony><note default-x="10"><pitch><step>A</step><octave>4</octave></pitch><duration>12</duration><tie type="stop"/><voice>1</voice><type>half</type><stem default-y="11">up</stem><notations><tied type="stop"/></notations></note><harmony default-y="40"><root><root-step>G</root-step></root><kind text="7">dominant</kind></harmony><note default-x="72"><pitch><step>B</step><octave>4</octave></pitch><duration>12</duration><voice>1</voice><type>half</type><stem default-y="-56">down</stem><lyric default-y="-80" number="1"><syllabic>single</syllabic><text>Two</text></lyric></note></measure><measure width="133" number="18"><harmony default-y="40"><root><root-step>C</root-step></root><kind text="M7">major-seventh</kind></harmony><note default-x="30"><pitch><step>B</step><octave>4</octave></pitch><duration>24</duration><tie type="start"/><voice>1</voice><type>whole</type><notations><tied type="start"/></notations><lyric justify="left" default-y="-80" number="1"><syllabic>single</syllabic><text>friends</text><extend/></lyric></note></measure><measure width="223" number="19"><print new-system="yes"><system-layout><system-distance>106</system-distance></system-layout></print><note default-x="74"><pitch><step>B</step><octave>4</octave></pitch><duration>12</duration><tie type="stop"/><voice>1</voice><type>half</type><stem default-y="-55">down</stem><notations><tied type="stop"/></notations></note><note default-x="132"><pitch><step>A</step><octave>4</octave></pitch><duration>4</duration><voice>1</voice><type>quarter</type><time-modification><actual-notes>3</actual-notes><normal-notes>2</normal-notes></time-modification><stem default-y="10.5">up</stem><notations><tuplet placement="above" type="start" number="1"/></notations><lyric default-y="-80" number="1"><syllabic>begin</syllabic><text>drift</text></lyric></note><note default-x="166"><pitch><step>B</step><octave>4</octave></pitch><duration>4</duration><voice>1</voice><type>quarter</type><time-modification><actual-notes>3</actual-notes><normal-notes>2</normal-notes></time-modification><stem default-y="-55">down</stem><lyric default-y="-80" number="1"><syllabic>end</syllabic><text>ing</text></lyric></note><note default-x="196"><pitch><step>A</step><octave>4</octave></pitch><duration>4</duration><voice>1</voice><type>quarter</type><time-modification><actual-notes>3</actual-notes><normal-notes>2</normal-notes></time-modification><stem default-y="10.5">up</stem><notations><tuplet type="stop" number="1"/></notations><lyric default-y="-80" number="1"><syllabic>begin</syllabic><text>a</text></lyric></note></measure><measure width="116" number="20"><harmony default-y="40"><root><root-step>C</root-step></root><kind text="m7">minor-seventh</kind></harmony><note default-x="22"><pitch><step>E</step><alter>-1</alter><octave>4</octave></pitch><duration>24</duration><tie type="start"/><voice>1</voice><type>whole</type><accidental>flat</accidental><notations><tied type="start"/></notations><lyric justify="left" default-y="-80" number="1"><syllabic>end</syllabic><text>part,</text><extend/></lyric></note></measure><measure width="126" number="21"><harmony default-y="40"><root><root-step>F</root-step></root><kind text="7">dominant</kind></harmony><note default-x="10"><pitch><step>E</step><alter>-1</alter><octave>4</octave></pitch><duration>12</duration><tie type="stop"/><voice>1</voice><type>half</type><stem default-y="-4">up</stem><notations><tied type="stop"/></notations></note><note default-x="68"><pitch><step>A</step><octave>4</octave></pitch><duration>12</duration><voice>1</voice><type>half</type><stem default-y="10.5">up</stem><lyric default-y="-80" number="1"><syllabic>single</syllabic><text>Two</text></lyric></note></measure><measure width="127" number="22"><harmony default-y="40"><root><root-step>G</root-step></root><kind text="M7">major-seventh</kind></harmony><note default-x="33"><pitch><step>A</step><octave>4</octave></pitch><duration>24</duration><tie type="start"/><voice>1</voice><type>whole</type><notations><tied type="start"/></notations><lyric justify="left" default-y="-80" number="1"><syllabic>single</syllabic><text>friends,</text><extend/></lyric></note></measure><measure width="185" number="23"><note default-x="10"><pitch><step>A</step><octave>4</octave></pitch><duration>6</duration><tie type="stop"/><voice>1</voice><type>quarter</type><stem default-y="10.5">up</stem><notations><tied type="stop"/></notations></note><note default-x="46"><pitch><step>A</step><octave>4</octave></pitch><duration>6</duration><voice>1</voice><type>quarter</type><stem default-y="10.5">up</stem><lyric default-y="-80" number="1"><syllabic>single</syllabic><text>but</text></lyric></note><note default-x="82"><pitch><step>G</step><octave>4</octave></pitch><duration>4</duration><voice>1</voice><type>quarter</type><time-modification><actual-notes>3</actual-notes><normal-notes>2</normal-notes></time-modification><stem default-y="6">up</stem><notations><tuplet placement="above" type="start" number="1"/></notations><lyric default-y="-80" number="1"><syllabic>single</syllabic><text>one</text></lyric></note><note default-x="120"><pitch><step>A</step><octave>4</octave></pitch><duration>4</duration><voice>1</voice><type>quarter</type><time-modification><actual-notes>3</actual-notes><normal-notes>2</normal-notes></time-modification><stem default-y="10.5">up</stem><lyric default-y="-80" number="1"><syllabic>begin</syllabic><text>bro</text></lyric></note><note default-x="153"><pitch><step>G</step><octave>4</octave></pitch><duration>4</duration><voice>1</voice><type>quarter</type><time-modification><actual-notes>3</actual-notes><normal-notes>2</normal-notes></time-modification><stem default-y="6">up</stem><notations><tuplet type="stop" number="1"/></notations><lyric default-y="-80" number="1"><syllabic>end</syllabic><text>ken</text></lyric></note></measure><measure width="120" number="24"><harmony default-y="40"><root><root-step>B</root-step><root-alter>-1</root-alter></root><kind text="m7">minor-seventh</kind></harmony><note default-x="26"><pitch><step>D</step><alter>-1</alter><octave>4</octave></pitch><duration>24</duration><tie type="start"/><voice>1</voice><type>whole</type><accidental>flat</accidental><notations><tied type="start"/></notations><lyric justify="left" default-y="-80" number="1"><syllabic>single</syllabic><text>heart,</text><extend/></lyric></note></measure><measure width="123" number="25"><harmony default-y="40"><root><root-step>E</root-step><root-alter>-1</root-alter></root><kind text="7">dominant</kind></harmony><note default-x="10"><pitch><step>D</step><alter>-1</alter><octave>4</octave></pitch><duration>18</duration><tie type="stop"/><voice>1</voice><type>half</type><dot/><stem default-y="-9.5">up</stem><notations><tied type="stop"/></notations></note><note default-x="86"><pitch><step>G</step><octave>4</octave></pitch><duration>6</duration><voice>1</voice><type>quarter</type><stem default-y="6">up</stem><lyric default-y="-80" number="1"><syllabic>single</syllabic><text>We</text></lyric></note></measure><measure width="311" number="26"><print new-system="yes"><system-layout><system-distance>106</system-distance></system-layout></print><harmony default-y="40"><root><root-step>A</root-step></root><kind text="m7">minor-seventh</kind></harmony><note default-x="92"><pitch><step>G</step><octave>4</octave></pitch><duration>9</duration><voice>1</voice><type>quarter</type><dot/><stem default-y="5.5">up</stem><lyric default-y="-80" number="1"><syllabic>single</syllabic><text>loved,</text></lyric></note><note default-x="153"><pitch><step>E</step><octave>4</octave></pitch><duration>3</duration><voice>1</voice><type>eighth</type><stem default-y="-4">up</stem><lyric default-y="-80" number="1"><syllabic>single</syllabic><text>we</text></lyric></note><note default-x="208"><pitch><step>G</step><octave>4</octave></pitch><duration>9</duration><voice>1</voice><type>quarter</type><dot/><stem default-y="5.5">up</stem><lyric default-y="-80" number="1"><syllabic>single</syllabic><text>laughed,</text></lyric></note><note default-x="277"><pitch><step>E</step><octave>4</octave></pitch><duration>3</duration><voice>1</voice><type>eighth</type><stem default-y="-4">up</stem><lyric default-y="-80" number="1"><syllabic>single</syllabic><text>we</text></lyric></note></measure><measure width="158" number="27"><harmony default-y="40"><root><root-step>D</root-step></root><kind text="7">dominant</kind></harmony><note default-x="26"><pitch><step>F</step><alter>1</alter><octave>4</octave></pitch><duration>18</duration><voice>1</voice><type>half</type><dot/><stem default-y="1">up</stem><lyric default-y="-80" number="1"><syllabic>single</syllabic><text>cried,</text></lyric></note><note default-x="115"><pitch><step>A</step><octave>4</octave></pitch><duration>6</duration><voice>1</voice><type>quarter</type><stem default-y="11">up</stem><lyric default-y="-80" number="1"><syllabic>single</syllabic><text>and</text></lyric></note></measure><measure width="198" number="28"><harmony default-y="40"><root><root-step>F</root-step><root-alter>1</root-alter></root><kind text="m7" parentheses-degrees="yes">minor-seventh</kind><degree><degree-value>5</degree-value><degree-alter>-1</degree-alter><degree-type>alter</degree-type></degree></harmony><note default-x="17"><pitch><step>A</step><octave>4</octave></pitch><duration>9</duration><voice>1</voice><type>quarter</type><dot/><stem default-y="11">up</stem><lyric default-y="-80" number="1"><syllabic>begin</syllabic><text>sud</text></lyric></note><note default-x="75"><pitch><step>F</step><alter>1</alter><octave>4</octave></pitch><duration>3</duration><voice>1</voice><type>eighth</type><stem default-y="1">up</stem><lyric default-y="-80" number="1"><syllabic>middle</syllabic><text>den</text></lyric></note><harmony default-y="40"><root><root-step>B</root-step></root><kind text="7">dominant</kind></harmony><note default-x="105"><pitch><step>A</step><octave>4</octave></pitch><duration>9</duration><voice>1</voice><type>quarter</type><dot/><stem default-y="11">up</stem><lyric default-y="-80" number="1"><syllabic>end</syllabic><text>ly</text></lyric></note><note default-x="163"><pitch><step>F</step><alter>1</alter><octave>4</octave></pitch><duration>3</duration><voice>1</voice><type>eighth</type><stem default-y="1">up</stem><lyric default-y="-80" number="1"><syllabic>single</syllabic><text>love</text></lyric></note></measure><measure width="200" number="29"><harmony default-y="40"><root><root-step>E</root-step></root><kind text="m7">minor-seventh</kind></harmony><note default-x="22"><pitch><step>G</step><octave>4</octave></pitch><duration>6</duration><voice>1</voice><type>quarter</type><stem default-y="5.5">up</stem><lyric default-y="-80" number="1"><syllabic>single</syllabic><text>dies,</text></lyric></note><note default-x="66"><pitch><step>A</step><octave>4</octave></pitch><duration>6</duration><voice>1</voice><type>quarter</type><stem default-y="11">up</stem><lyric default-y="-80" number="1"><syllabic>single</syllabic><text>The</text></lyric></note><note default-x="110"><pitch><step>B</step><octave>4</octave></pitch><duration>6</duration><voice>1</voice><type>quarter</type><stem default-y="-55.5">down</stem><lyric default-y="-80" number="1"><syllabic>begin</syllabic><text>sto</text></lyric></note><note default-x="154"><pitch><step>D</step><octave>5</octave></pitch><duration>6</duration><voice>1</voice><type>quarter</type><stem default-y="-45.5">down</stem><lyric default-y="-80" number="1"><syllabic>end</syllabic><text>ry</text></lyric></note></measure><measure width="153" number="30"><harmony default-y="40"><root><root-step>A</root-step></root><kind text="9">dominant-ninth</kind></harmony><note default-x="22"><pitch><step>E</step><octave>5</octave></pitch><duration>18</duration><voice>1</voice><type>half</type><dot/><stem default-y="-40">down</stem><lyric default-y="-80" number="1"><syllabic>single</syllabic><text>ends</text></lyric></note><note default-x="110"><pitch><step>E</step><octave>4</octave></pitch><duration>6</duration><voice>1</voice><type>quarter</type><stem default-y="-4">up</stem><lyric default-y="-80" number="1"><syllabic>single</syllabic><text>and</text></lyric></note></measure><measure width="428" number="31"><print new-system="yes"><system-layout><system-distance>106</system-distance></system-layout></print><harmony default-y="40"><root><root-step>A</root-step></root><kind text="m7">minor-seventh</kind></harmony><note default-x="90"><pitch><step>D</step><octave>5</octave></pitch><duration>12</duration><voice>1</voice><type>half</type><stem default-y="-45">down</stem><lyric default-y="-80" number="1"><syllabic>single</syllabic><text>we´re</text></lyric></note><harmony default-y="40"><root><root-step>D</root-step></root><kind text="7">dominant</kind></harmony><note default-x="259"><pitch><step>B</step><octave>4</octave></pitch><duration>12</duration><voice>1</voice><type>half</type><stem default-y="-55.5">down</stem><lyric default-y="-80" number="1"><syllabic>single</syllabic><text>just</text></lyric></note></measure><measure width="325" number="32"><harmony default-y="40"><root><root-step>G</root-step></root><kind text="6">major-sixth</kind></harmony><note default-x="33"><pitch><step>G</step><octave>4</octave></pitch><duration>24</duration><voice>1</voice><type>whole</type><lyric default-y="-80" number="1"><syllabic>single</syllabic><text>friends.</text></lyric></note></measure><measure width="267" number="33"><note><rest/><duration>24</duration><voice>1</voice></note><barline location="right"><bar-style>light-heavy</bar-style></barline></measure></part></score-partwise>