<score-partwise version="2.0"><work><work-number/><work-title/></work><movement-number/><movement-title>Tenderly</movement-title><identification><creator type="composer">Walter Gross</creator><creator type="poet">Jack Lawrence</creator><rights>All Rights Reserved</rights><encoding><software>MuseScore 0.9.5</software><encoding-date>2009-10-02</encoding-date><software>ProxyMusic 2.0 c</software></encoding><source>http://www.wikifonia.org/node/1605/revisions/3621/view</source></identification><defaults><scaling><millimeters>7.1967</millimeters><tenths>40</tenths></scaling><page-layout><page-height>1650.76</page-height><page-width>1167.2</page-width><page-margins type="both"><left-margin>141</left-margin><right-margin>70</right-margin><top-margin>88</top-margin><bottom-margin>88</bottom-margin></page-margins></page-layout></defaults><credit page="1"><credit-words font-size="24" default-y="1562.76" default-x="583.601" justify="center" valign="top">Tenderly</credit-words></credit><credit page="1"><credit-words font-size="12" default-y="1518.76" default-x="1097.2" justify="right" valign="top">Words and Music by
 Jack Lawrence, Walter Gross</credit-words></credit><credit page="1"><credit-words font-size="8" default-y="88" default-x="583.601" justify="center" valign="bottom">All Rights Reserved</credit-words></credit><part-list><score-part id="P1"><part-name>MusicXML Part</part-name><score-instrument id="P1-I3"><instrument-name>MusicXML Part</instrument-name></score-instrument><midi-instrument id="P1-I3"><midi-channel>1</midi-channel><midi-program>1</midi-program></midi-instrument></score-part></part-list><part id="P1"><measure width="287.49" number="1"><print><system-layout><system-margins><left-margin>170.43</left-margin><right-margin>0.00</right-margin></system-margins><top-system-distance>199.47</top-system-distance></system-layout></print><attributes><divisions>2</divisions><key><fifths>0</fifths><mode>major</mode></key><time><beats>3</beats><beat-type>4</beat-type></time><clef><sign>G</sign><line>2</line></clef></attributes><note><rest/><duration>2</duration><voice>1</voice><type>quarter</type></note><note><rest/><duration>1</duration><voice>1</voice><type>eighth</type></note><note default-y="5.00" default-x="158.62"><pitch><step>G</step><octave>5</octave></pitch><duration>1</duration><voice>1</voice><type>eighth</type><stem>down</stem><lyric number="1"><syllabic>single</syllabic><text>The</text></lyric></note><note default-y="10.00" default-x="197.97"><pitch><step>A</step><octave>5</octave></pitch><duration>1</duration><voice>1</voice><type>eighth</type><stem>down</stem><beam number="1">begin</beam><lyric number="1"><syllabic>begin</syllabic><text>eve</text></lyric></note><note default-y="20.00" default-x="239.87"><pitch><step>C</step><octave>6</octave></pitch><duration>1</duration><voice>1</voice><type>eighth</type><stem>down</stem><beam number="1">end</beam><lyric number="1"><syllabic>end</syllabic><text>ning</text></lyric></note></measure><measure width="243.64" number="2"><barline location="left"><bar-style>heavy-light</bar-style><repeat direction="forward"/></barline><harmony print-frame="no"><root><root-step>C</root-step></root><kind text="Maj7">major-seventh</kind></harmony><note default-y="15.00" default-x="38.12"><pitch><step>B</step><octave>5</octave></pitch><duration>3</duration><voice>1</voice><type>quarter</type><dot/><stem>down</stem><lyric number="1"><syllabic>single</syllabic><text>breeze</text></lyric></note><note default-y="5.00" default-x="110.26"><pitch><step>G</step><octave>5</octave></pitch><duration>1</duration><voice>1</voice><type>eighth</type><stem>down</stem><lyric number="1"><syllabic>begin</syllabic><text>ca</text></lyric></note><note default-y="10.00" default-x="156.84"><pitch><step>A</step><octave>5</octave></pitch><duration>1</duration><voice>1</voice><type>eighth</type><stem>down</stem><beam number="1">begin</beam><lyric number="1"><syllabic>end</syllabic><text>ressed</text></lyric></note><note default-y="20.00" default-x="205.06"><pitch><step>C</step><octave>6</octave></pitch><duration>1</duration><voice>1</voice><type>eighth</type><stem>down</stem><beam number="1">end</beam><lyric number="1"><syllabic>single</syllabic><text>the</text></lyric></note></measure><measure width="171.19" number="3"><harmony print-frame="no"><root><root-step>G</root-step></root><kind text="7#5">augmented-seventh</kind></harmony><note default-y="15.00" default-x="29.92"><pitch><step>B</step><octave>5</octave></pitch><duration>4</duration><voice>1</voice><type>half</type><stem>down</stem><lyric number="1"><syllabic>single</syllabic><text>trees</text></lyric></note><note default-y="5.00" default-x="102.35"><pitch><step>G</step><octave>5</octave></pitch><duration>1</duration><voice>1</voice><type>eighth</type><stem>down</stem><beam number="1">begin</beam><lyric number="1"><syllabic>begin</syllabic><text>ten</text></lyric></note><note default-y="-5.00" default-x="136.66"><pitch><step>E</step><alter>-1</alter><octave>5</octave></pitch><duration>1</duration><voice>1</voice><type>eighth</type><accidental>flat</accidental><stem>down</stem><beam number="1">end</beam><lyric number="1"><syllabic>middle</syllabic><text>der</text></lyric></note></measure><measure width="83.46" number="4"><harmony print-frame="no"><root><root-step>C</root-step></root><kind text="Maj7">major-seventh</kind></harmony><note default-y="-10.00" default-x="19.32"><pitch><step>D</step><octave>5</octave></pitch><duration>6</duration><tie type="start"/><voice>1</voice><type>half</type><dot/><stem>down</stem><notations><tied type="start"/></notations><lyric number="1"><syllabic>end</syllabic><text>ly,</text></lyric></note></measure><measure width="316.34" number="5"><print new-system="yes"><system-layout><system-margins><left-margin>0.00</left-margin><right-margin>0.00</right-margin></system-margins><system-distance>126.47</system-distance></system-layout></print><note default-y="-10.00" default-x="53.18"><pitch><step>D</step><octave>5</octave></pitch><duration>2</duration><tie type="stop"/><voice>1</voice><type>quarter</type><stem>down</stem><notations><tied type="stop"/></notations></note><note><rest/><duration>1</duration><voice>1</voice><type>eighth</type></note><note default-y="-15.00" default-x="172.69"><pitch><step>C</step><octave>5</octave></pitch><duration>1</duration><voice>1</voice><type>eighth</type><stem>down</stem><lyric number="1"><syllabic>single</syllabic><text>The</text></lyric></note><note default-y="-10.00" default-x="218.66"><pitch><step>D</step><octave>5</octave></pitch><duration>1</duration><voice>1</voice><type>eighth</type><stem>down</stem><beam number="1">begin</beam><lyric number="1"><syllabic>begin</syllabic><text>trem</text></lyric></note><note default-y="0.00" default-x="268.77"><pitch><step>F</step><octave>5</octave></pitch><duration>1</duration><voice>1</voice><type>eighth</type><stem>down</stem><beam number="1">end</beam><lyric number="1"><syllabic>end</syllabic><text>bling</text></lyric></note></measure><measure width="280.56" number="6"><harmony print-frame="no"><root><root-step>F</root-step></root><kind text="Maj7">major-seventh</kind></harmony><note default-y="-5.00" default-x="29.92"><pitch><step>E</step><octave>5</octave></pitch><duration>3</duration><voice>1</voice><type>quarter</type><dot/><stem>down</stem><lyric number="1"><syllabic>single</syllabic><text>trees</text></lyric></note><note default-y="-15.00" default-x="128.06"><pitch><step>C</step><octave>5</octave></pitch><duration>1</duration><voice>1</voice><type>eighth</type><stem>down</stem><lyric number="1"><syllabic>begin</syllabic><text>em</text></lyric></note><note default-y="-10.00" default-x="178.36"><pitch><step>D</step><octave>5</octave></pitch><duration>1</duration><voice>1</voice><type>eighth</type><stem>down</stem><beam number="1">begin</beam><lyric number="1"><syllabic>end</syllabic><text>braced</text></lyric></note><note default-y="0.00" default-x="228.66"><pitch><step>F</step><octave>5</octave></pitch><duration>1</duration><voice>1</voice><type>eighth</type><stem>down</stem><beam number="1">end</beam><lyric number="1"><syllabic>single</syllabic><text>the</text></lyric></note></measure><measure width="231.71" number="7"><harmony print-frame="no"><root><root-step>F</root-step></root><kind text="m9Maj7">major-minor</kind><degree><degree-value>9</degree-value><degree-alter>0</degree-alter><degree-type>add</degree-type></degree></harmony><note default-y="-5.00" default-x="38.12"><pitch><step>E</step><octave>5</octave></pitch><duration>4</duration><voice>1</voice><type>half</type><stem>down</stem><lyric number="1"><syllabic>single</syllabic><text>breeze</text></lyric></note><note default-y="-15.00" default-x="138.68"><pitch><step>C</step><octave>5</octave></pitch><duration>1</duration><voice>1</voice><type>eighth</type><stem>down</stem><beam number="1">begin</beam><lyric number="1"><syllabic>begin</syllabic><text>ten</text></lyric></note><note default-y="-25.00" default-x="184.40"><pitch><step>A</step><alter>-1</alter><octave>4</octave></pitch><duration>1</duration><voice>1</voice><type>eighth</type><accidental>flat</accidental><stem>down</stem><beam number="1">end</beam><lyric number="1"><syllabic>middle</syllabic><text>der</text></lyric></note></measure><measure width="127.59" number="8"><harmony print-frame="no"><root><root-step>C</root-step></root><kind text="Maj7">major-seventh</kind></harmony><note default-y="-30.00" default-x="19.32"><pitch><step>G</step><octave>4</octave></pitch><duration>6</duration><tie type="start"/><voice>1</voice><type>half</type><dot/><stem>up</stem><notations><tied type="start"/></notations><lyric number="1"><syllabic>end</syllabic><text>ly.</text></lyric></note></measure><measure width="268.69" number="9"><print new-system="yes"><system-layout><system-margins><left-margin>0.00</left-margin><right-margin>-0.00</right-margin></system-margins><system-distance>126.47</system-distance></system-layout></print><note default-y="-30.00" default-x="53.18"><pitch><step>G</step><octave>4</octave></pitch><duration>2</duration><tie type="stop"/><voice>1</voice><type>quarter</type><stem>up</stem><notations><tied type="stop"/></notations></note><note><rest/><duration>2</duration><voice>1</voice><type>quarter</type></note><note default-y="-30.00" default-x="195.79"><pitch><step>G</step><octave>4</octave></pitch><duration>2</duration><voice>1</voice><type>quarter</type><stem>up</stem><lyric number="1"><syllabic>single</syllabic><text>Then</text></lyric></note></measure><measure width="217.35" number="10"><harmony print-frame="no"><root><root-step>F</root-step></root><kind text="m7">minor-seventh</kind></harmony><note default-y="-25.00" default-x="25.51"><pitch><step>A</step><alter>-1</alter><octave>4</octave></pitch><duration>4</duration><voice>1</voice><type>half</type><accidental>flat</accidental><stem>up</stem><lyric number="1"><syllabic>single</syllabic><text>you</text></lyric></note><note default-y="5.00" default-x="142.58"><pitch><step>G</step><octave>5</octave></pitch><duration>2</duration><voice>1</voice><type>quarter</type><stem>down</stem><lyric number="1"><syllabic>single</syllabic><text>and</text></lyric></note></measure><measure width="217.88" number="11"><harmony print-frame="no"><root><root-step>G</root-step></root><kind text="7">dominant</kind></harmony><note default-y="-5.00" default-x="15.00"><pitch><step>E</step><octave>5</octave></pitch><duration>4</duration><voice>1</voice><type>half</type><stem>down</stem><lyric number="1"><syllabic>single</syllabic><text>I</text></lyric></note><note default-y="-30.00" default-x="138.87"><pitch><step>G</step><octave>4</octave></pitch><duration>2</duration><voice>1</voice><type>quarter</type><stem>up</stem><lyric number="1"><syllabic>single</syllabic><text>came</text></lyric></note></measure><measure width="252.28" number="12"><harmony print-frame="no"><root><root-step>F</root-step></root><kind text="m7">minor-seventh</kind></harmony><note default-y="-25.00" default-x="27.39"><pitch><step>A</step><alter>-1</alter><octave>4</octave></pitch><duration>2</duration><voice>1</voice><type>quarter</type><accidental>flat</accidental><stem>up</stem><lyric number="1"><syllabic>begin</syllabic><text>wan</text></lyric></note><note default-y="-15.00" default-x="101.82"><pitch><step>C</step><octave>5</octave></pitch><duration>2</duration><voice>1</voice><type>quarter</type><stem>down</stem><lyric number="1"><syllabic>middle</syllabic><text>der</text></lyric></note><note default-y="5.00" default-x="176.25"><pitch><step>G</step><octave>5</octave></pitch><duration>2</duration><voice>1</voice><type>quarter</type><stem>down</stem><lyric number="1"><syllabic>end</syllabic><text>ing</text></lyric></note></measure><measure width="269.81" number="13"><print new-system="yes"><system-layout><system-margins><left-margin>0.00</left-margin><right-margin>0.00</right-margin></system-margins><system-distance>126.47</system-distance></system-layout></print><harmony print-frame="no"><root><root-step>G</root-step></root><kind text="7">dominant</kind></harmony><note default-y="-5.00" default-x="65.50"><pitch><step>E</step><octave>5</octave></pitch><duration>4</duration><voice>1</voice><type>half</type><stem>down</stem><lyric number="1"><syllabic>single</syllabic><text>by</text></lyric></note><harmony print-frame="no"><root><root-step>G</root-step><root-alter>1</root-alter></root><kind text="dim">diminished</kind></harmony><note default-y="-10.00" default-x="190.24"><pitch><step>D</step><octave>5</octave></pitch><duration>2</duration><voice>1</voice><type>quarter</type><stem>down</stem><lyric number="1"><syllabic>single</syllabic><text>and</text></lyric></note></measure><measure width="244.10" number="14"><harmony print-frame="no"><root><root-step>A</root-step></root><kind text="m">minor</kind></harmony><note default-y="-15.00" default-x="24.88"><pitch><step>C</step><octave>5</octave></pitch><duration>2</duration><voice>1</voice><type>quarter</type><stem>down</stem><lyric number="1"><syllabic>single</syllabic><text>lost</text></lyric></note><note default-y="-5.00" default-x="97.42"><pitch><step>E</step><octave>5</octave></pitch><duration>2</duration><voice>1</voice><type>quarter</type><stem>down</stem><lyric number="1"><syllabic>single</syllabic><text>in</text></lyric></note><note default-y="25.00" default-x="169.96"><pitch><step>D</step><octave>6</octave></pitch><duration>2</duration><voice>1</voice><type>quarter</type><stem>down</stem><lyric number="1"><syllabic>single</syllabic><text>a</text></lyric></note></measure><measure width="249.05" number="15"><harmony print-frame="no"><root><root-step>D</root-step></root><kind text="7">dominant</kind></harmony><note default-y="15.00" default-x="27.41"><pitch><step>B</step><octave>5</octave></pitch><duration>4</duration><voice>1</voice><type>half</type><stem>down</stem><lyric number="1"><syllabic>single</syllabic><text>sigh</text></lyric></note><note default-y="-10.00" default-x="162.82"><pitch><step>D</step><octave>5</octave></pitch><duration>2</duration><voice>1</voice><type>quarter</type><stem>down</stem><lyric number="1"><syllabic>single</syllabic><text>were</text></lyric></note></measure><measure width="193.24" number="16"><harmony print-frame="no"><root><root-step>G</root-step></root><kind text="">major</kind></harmony><note default-y="5.00" default-x="24.54"><pitch><step>G</step><octave>5</octave></pitch><duration>6</duration><tie type="start"/><voice>1</voice><type>half</type><dot/><stem>down</stem><notations><tied type="start"/></notations><lyric number="1"><syllabic>single</syllabic><text>we.</text></lyric></note></measure><measure width="322.71" number="17"><print new-system="yes"><system-layout><system-margins><left-margin>0.00</left-margin><right-margin>0.00</right-margin></system-margins><system-distance>126.47</system-distance></system-layout></print><note default-y="5.00" default-x="53.18"><pitch><step>G</step><octave>5</octave></pitch><duration>2</duration><tie type="stop"/><voice>1</voice><type>quarter</type><stem>down</stem><notations><tied type="stop"/></notations></note><note><rest/><duration>1</duration><voice>1</voice><type>eighth</type></note><note default-y="5.00" default-x="177.04"><pitch><step>G</step><octave>5</octave></pitch><duration>1</duration><voice>1</voice><type>eighth</type><stem>down</stem><lyric number="1"><syllabic>single</syllabic><text>The</text></lyric></note><note default-y="10.00" default-x="225.25"><pitch><step>A</step><octave>5</octave></pitch><duration>1</duration><voice>1</voice><type>eighth</type><stem>down</stem><beam number="1">begin</beam><lyric number="1"><syllabic>single</syllabic><text>shore</text></lyric></note><note default-y="20.00" default-x="273.47"><pitch><step>C</step><octave>6</octave></pitch><duration>1</duration><voice>1</voice><type>eighth</type><stem>down</stem><beam number="1">end</beam><lyric number="1"><syllabic>single</syllabic><text>was</text></lyric></note></measure><measure width="274.00" number="18"><harmony print-frame="no"><root><root-step>C</root-step></root><kind text="Maj7">major-seventh</kind></harmony><note default-y="15.00" default-x="36.89"><pitch><step>B</step><octave>5</octave></pitch><duration>3</duration><voice>1</voice><type>quarter</type><dot/><stem>down</stem><lyric number="1"><syllabic>single</syllabic><text>kissed</text></lyric></note><note default-y="5.00" default-x="129.69"><pitch><step>G</step><octave>5</octave></pitch><duration>1</duration><voice>1</voice><type>eighth</type><stem>down</stem><lyric number="1"><syllabic>single</syllabic><text>by</text></lyric></note><note default-y="10.00" default-x="177.26"><pitch><step>A</step><octave>5</octave></pitch><duration>1</duration><voice>1</voice><type>eighth</type><stem>down</stem><beam number="1">begin</beam><lyric number="1"><syllabic>single</syllabic><text>sea</text></lyric></note><note default-y="20.00" default-x="224.83"><pitch><step>C</step><octave>6</octave></pitch><duration>1</duration><voice>1</voice><type>eighth</type><stem>down</stem><beam number="1">end</beam><lyric number="1"><syllabic>single</syllabic><text>and</text></lyric></note></measure><measure width="221.73" number="19"><harmony print-frame="no"><root><root-step>G</root-step></root><kind text="7#5">augmented-seventh</kind></harmony><note default-y="15.00" default-x="28.04"><pitch><step>B</step><octave>5</octave></pitch><duration>4</duration><voice>1</voice><type>half</type><stem>down</stem><lyric number="1"><syllabic>single</syllabic><text>mist</text></lyric></note><note default-y="5.00" default-x="128.66"><pitch><step>G</step><octave>5</octave></pitch><duration>1</duration><voice>1</voice><type>eighth</type><stem>down</stem><beam number="1">begin</beam><lyric number="1"><syllabic>begin</syllabic><text>ten</text></lyric></note><note default-y="-5.00" default-x="174.39"><pitch><step>E</step><alter>-1</alter><octave>5</octave></pitch><duration>1</duration><voice>1</voice><type>eighth</type><accidental>flat</accidental><stem>down</stem><beam number="1">end</beam><lyric number="1"><syllabic>middle</syllabic><text>der</text></lyric></note></measure><measure width="137.76" number="20"><harmony print-frame="no"><root><root-step>C</root-step></root><kind text="Maj7">major-seventh</kind></harmony><note default-y="-10.00" default-x="19.32"><pitch><step>D</step><octave>5</octave></pitch><duration>6</duration><tie type="start"/><voice>1</voice><type>half</type><dot/><stem>down</stem><notations><tied type="start"/></notations><lyric number="1"><syllabic>end</syllabic><text>ly.</text></lyric></note></measure><measure width="285.60" number="21"><print new-system="yes"><system-layout><system-margins><left-margin>0.00</left-margin><right-margin>-0.00</right-margin></system-margins><system-distance>126.47</system-distance></system-layout></print><note default-y="-10.00" default-x="53.18"><pitch><step>D</step><octave>5</octave></pitch><duration>2</duration><tie type="stop"/><voice>1</voice><type>quarter</type><stem>down</stem><notations><tied type="stop"/></notations></note><note><rest/><duration>1</duration><voice>1</voice><type>eighth</type></note><note default-y="-15.00" default-x="160.35"><pitch><step>C</step><octave>5</octave></pitch><duration>1</duration><voice>1</voice><type>eighth</type><stem>down</stem><lyric number="1"><syllabic>single</syllabic><text>I</text></lyric></note><note default-y="-10.00" default-x="201.57"><pitch><step>D</step><octave>5</octave></pitch><duration>1</duration><voice>1</voice><type>eighth</type><stem>down</stem><beam number="1">begin</beam><lyric number="1"><syllabic>single</syllabic><text>can't</text></lyric></note><note default-y="0.00" default-x="242.78"><pitch><step>F</step><octave>5</octave></pitch><duration>1</duration><voice>1</voice><type>eighth</type><stem>down</stem><beam number="1">end</beam><lyric number="1"><syllabic>begin</syllabic><text>for</text></lyric></note></measure><measure width="285.35" number="22"><harmony print-frame="no"><root><root-step>F</root-step></root><kind text="Maj7">major-seventh</kind></harmony><note default-y="-5.00" default-x="22.34"><pitch><step>E</step><octave>5</octave></pitch><duration>3</duration><voice>1</voice><type>quarter</type><dot/><stem>down</stem><lyric number="1"><syllabic>end</syllabic><text>get</text></lyric></note><note default-y="-15.00" default-x="125.35"><pitch><step>C</step><octave>5</octave></pitch><duration>1</duration><voice>1</voice><type>eighth</type><stem>down</stem><lyric number="1"><syllabic>single</syllabic><text>how</text></lyric></note><note default-y="-10.00" default-x="178.15"><pitch><step>D</step><octave>5</octave></pitch><duration>1</duration><voice>1</voice><type>eighth</type><stem>down</stem><beam number="1">begin</beam><lyric number="1"><syllabic>single</syllabic><text>two</text></lyric></note><note default-y="0.00" default-x="230.95"><pitch><step>F</step><octave>5</octave></pitch><duration>1</duration><voice>1</voice><type>eighth</type><stem>down</stem><beam number="1">end</beam><lyric number="1"><syllabic>single</syllabic><text>hearts</text></lyric></note></measure><measure width="249.13" number="23"><harmony print-frame="no"><root><root-step>F</root-step></root><kind text="m9Maj7">major-minor</kind><degree><degree-value>9</degree-value><degree-alter>0</degree-alter><degree-type>add</degree-type></degree></harmony><note default-y="-5.00" default-x="25.50"><pitch><step>E</step><octave>5</octave></pitch><duration>4</duration><voice>1</voice><type>half</type><stem>down</stem><lyric number="1"><syllabic>single</syllabic><text>met</text></lyric></note><note default-y="-15.00" default-x="141.80"><pitch><step>C</step><octave>5</octave></pitch><duration>1</duration><voice>1</voice><type>eighth</type><stem>down</stem><beam number="1">begin</beam><lyric number="1"><syllabic>begin</syllabic><text>breath</text></lyric></note><note default-y="-25.00" default-x="194.67"><pitch><step>A</step><alter>-1</alter><octave>4</octave></pitch><duration>1</duration><voice>1</voice><type>eighth</type><accidental>flat</accidental><stem>down</stem><beam number="1">end</beam><lyric number="1"><syllabic>middle</syllabic><text>less</text></lyric></note></measure><measure width="136.12" number="24"><harmony relative-x="38.00" print-frame="no"><root><root-step>C</root-step></root><kind text="Maj7">major-seventh</kind></harmony><note default-y="-30.00" default-x="19.32"><pitch><step>G</step><octave>4</octave></pitch><duration>6</duration><tie type="start"/><voice>1</voice><type>half</type><dot/><stem>up</stem><notations><tied type="start"/></notations><lyric number="1"><syllabic>end</syllabic><text>ly.</text></lyric></note></measure><measure width="189.87" number="25"><print new-system="yes"><system-layout><system-margins><left-margin>0.00</left-margin><right-margin>0.00</right-margin></system-margins><system-distance>126.47</system-distance></system-layout></print><note default-y="-30.00" default-x="53.18"><pitch><step>G</step><octave>4</octave></pitch><duration>2</duration><tie type="stop"/><voice>1</voice><type>quarter</type><stem>up</stem><notations><tied type="stop"/></notations></note><note><rest/><duration>2</duration><voice>1</voice><type>quarter</type></note><note default-y="-30.00" default-x="143.24"><pitch><step>G</step><octave>4</octave></pitch><duration>2</duration><voice>1</voice><type>quarter</type><stem>up</stem><lyric number="1"><syllabic>single</syllabic><text>Your</text></lyric></note></measure><measure width="196.43" number="26"><harmony print-frame="no"><root><root-step>F</root-step></root><kind text="m7">minor-seventh</kind></harmony><note default-y="-25.00" default-x="30.55"><pitch><step>A</step><alter>-1</alter><octave>4</octave></pitch><duration>2</duration><voice>1</voice><type>quarter</type><accidental>flat</accidental><stem>up</stem><lyric number="1"><syllabic>single</syllabic><text>arms</text></lyric></note><note default-y="-15.00" default-x="85.31"><pitch><step>C</step><octave>5</octave></pitch><duration>2</duration><voice>1</voice><type>quarter</type><stem>down</stem><lyric number="1"><syllabic>begin</syllabic><text>o</text></lyric></note><note default-y="5.00" default-x="140.07"><pitch><step>G</step><octave>5</octave></pitch><duration>2</duration><voice>1</voice><type>quarter</type><stem>down</stem><lyric number="1"><syllabic>end</syllabic><text>pened</text></lyric></note></measure><measure width="151.12" number="27"><harmony print-frame="no"><root><root-step>G</root-step></root><kind text="7">dominant</kind></harmony><note default-y="-5.00" default-x="30.55"><pitch><step>E</step><octave>5</octave></pitch><duration>4</duration><voice>1</voice><type>half</type><stem>down</stem><lyric number="1"><syllabic>single</syllabic><text>wide</text></lyric></note><harmony print-frame="no"><root><root-step>G</root-step><root-alter>1</root-alter></root><kind text="dim">diminished</kind></harmony><note default-y="-10.00" default-x="103.77"><pitch><step>D</step><octave>5</octave></pitch><duration>2</duration><voice>1</voice><type>quarter</type><stem>down</stem><lyric number="1"><syllabic>single</syllabic><text>and</text></lyric></note></measure><measure width="186.96" number="28"><harmony print-frame="no"><root><root-step>A</root-step></root><kind text="m">minor</kind></harmony><note default-y="-15.00" default-x="37.51"><pitch><step>C</step><octave>5</octave></pitch><duration>2</duration><voice>1</voice><type>quarter</type><stem>down</stem><lyric number="1"><syllabic>single</syllabic><text>closed</text></lyric></note><note default-y="-5.00" default-x="86.79"><pitch><step>E</step><octave>5</octave></pitch><duration>2</duration><voice>1</voice><type>quarter</type><stem>down</stem><lyric number="1"><syllabic>single</syllabic><text>me</text></lyric></note><note default-y="25.00" default-x="136.08"><pitch><step>D</step><octave>6</octave></pitch><duration>2</duration><voice>1</voice><type>quarter</type><stem>down</stem><lyric number="1"><syllabic>begin</syllabic><text>in</text></lyric></note></measure><measure width="231.82" number="29"><harmony print-frame="no"><root><root-step>D</root-step></root><kind text="">major</kind></harmony><note default-y="15.00" default-x="29.61"><pitch><step>B</step><octave>5</octave></pitch><duration>3</duration><voice>1</voice><type>quarter</type><dot/><stem>down</stem><lyric number="1"><syllabic>end</syllabic><text>side,</text></lyric></note><note default-y="20.00" default-x="106.82"><pitch><step>C</step><octave>6</octave></pitch><duration>1</duration><voice>1</voice><type>eighth</type><stem>down</stem><lyric number="1"><syllabic>single</syllabic><text>you</text></lyric></note><harmony print-frame="no"><root><root-step>D</root-step><root-alter>1</root-alter></root><kind text="dim">diminished</kind></harmony><note default-y="10.00" default-x="150.00"><pitch><step>A</step><octave>5</octave></pitch><duration>1</duration><voice>1</voice><type>eighth</type><stem>down</stem><beam number="1">begin</beam><lyric number="1"><syllabic>single</syllabic><text>took</text></lyric></note><note default-y="15.00" default-x="190.64"><pitch><step>B</step><octave>5</octave></pitch><duration>1</duration><voice>1</voice><type>eighth</type><stem>down</stem><beam number="1">end</beam><lyric number="1"><syllabic>single</syllabic><text>my</text></lyric></note></measure><measure width="267.63" number="30"><print new-system="yes"><system-layout><system-margins><left-margin>0.00</left-margin><right-margin>0.00</right-margin></system-margins><system-distance>126.47</system-distance></system-layout></print><harmony print-frame="no"><root><root-step>E</root-step></root><kind text="m7">minor-seventh</kind></harmony><note default-y="5.00" default-x="73.40"><pitch><step>G</step><octave>5</octave></pitch><duration>3</duration><voice>1</voice><type>quarter</type><dot/><stem>down</stem><lyric number="1"><syllabic>single</syllabic><text>lips,</text></lyric></note><note default-y="10.00" default-x="145.33"><pitch><step>A</step><octave>5</octave></pitch><duration>1</duration><voice>1</voice><type>eighth</type><stem>down</stem><lyric number="1"><syllabic>single</syllabic><text>you</text></lyric></note><harmony print-frame="no"><root><root-step>F</root-step></root><kind text="m7">minor-seventh</kind></harmony><note default-y="0.00" default-x="188.51"><pitch><step>F</step><octave>5</octave></pitch><duration>1</duration><voice>1</voice><type>eighth</type><stem>down</stem><beam number="1">begin</beam><lyric number="1"><syllabic>single</syllabic><text>took</text></lyric></note><note default-y="5.00" default-x="229.16"><pitch><step>G</step><octave>5</octave></pitch><duration>1</duration><voice>1</voice><type>eighth</type><stem>down</stem><beam number="1">end</beam><lyric number="1"><syllabic>single</syllabic><text>my</text></lyric></note></measure><measure width="198.13" number="31"><harmony print-frame="no"><root><root-step>C</root-step></root><kind text="6">major-sixth</kind><bass><bass-step>G</bass-step></bass></harmony><note default-y="-5.00" default-x="28.03"><pitch><step>E</step><octave>5</octave></pitch><duration>3</duration><voice>1</voice><type>quarter</type><dot/><stem>down</stem><lyric number="1"><syllabic>single</syllabic><text>love</text></lyric></note><note default-y="-10.00" default-x="94.29"><pitch><step>D</step><octave>5</octave></pitch><duration>1</duration><voice>1</voice><type>eighth</type><stem>down</stem><lyric number="1"><syllabic>single</syllabic><text>so</text></lyric></note><harmony print-frame="no"><root><root-step>G</root-step></root><kind text="7">dominant</kind></harmony><note default-y="0.00" default-x="128.25"><pitch><step>F</step><octave>5</octave></pitch><duration>1</duration><voice>1</voice><type>eighth</type><stem>down</stem><beam number="1">begin</beam><lyric number="1"><syllabic>begin</syllabic><text>ten</text></lyric></note><note default-y="-20.00" default-x="162.56"><pitch><step>B</step><octave>4</octave></pitch><duration>1</duration><voice>1</voice><type>eighth</type><stem>down</stem><beam number="1">end</beam><lyric number="1"><syllabic>middle</syllabic><text>der</text></lyric></note></measure><measure width="85.92" number="32"><barline location="left"><ending type="start" number="1"/></barline><harmony relative-x="68.00" print-frame="no"><root><root-step>C</root-step></root><kind text="6">major-sixth</kind></harmony><note default-y="-15.00" default-x="19.32"><pitch><step>C</step><octave>5</octave></pitch><duration>6</duration><voice>1</voice><type>half</type><dot/><stem>down</stem><lyric number="1"><syllabic>end</syllabic><text>ly.</text></lyric></note></measure><measure width="231.00" number="33"><direction placement="above"><direction-type><bracket line-type="solid" default-y="31" type="start" number="1" line-end="none"/></direction-type><offset>60</offset></direction><direction placement="above"><direction-type><bracket line-type="solid" default-y="32" type="start" number="2" line-end="none"/></direction-type><offset>300</offset></direction><direction placement="above"><direction-type><bracket line-type="solid" default-y="31" type="start" number="3" line-end="none"/></direction-type><offset>540</offset></direction><note><rest/><duration>2</duration><voice>1</voice><type>quarter</type></note><note><rest/><duration>1</duration><voice>1</voice><type>eighth</type></note><note default-y="5.00" default-x="101.37"><pitch><step>G</step><octave>5</octave></pitch><duration>1</duration><voice>1</voice><type>eighth</type><stem>down</stem><lyric number="1"><syllabic>single</syllabic><text>The</text></lyric></note><note default-y="10.00" default-x="140.72"><pitch><step>A</step><octave>5</octave></pitch><duration>1</duration><voice>1</voice><type>eighth</type><stem>down</stem><beam number="1">begin</beam><lyric number="1"><syllabic>begin</syllabic><text>eve</text></lyric></note><note default-y="20.00" default-x="182.62"><pitch><step>C</step><octave>6</octave></pitch><duration>1</duration><voice>1</voice><type>eighth</type><stem>down</stem><beam number="1">end</beam><lyric number="1"><syllabic>end</syllabic><text>ning</text></lyric></note><barline location="right"><bar-style>light-heavy</bar-style><ending type="stop" number="1"/><repeat direction="backward"/></barline></measure><measure width="85.92" number="34"><barline location="left"><ending type="start" number="2"/></barline><harmony print-frame="no"><root><root-step>C</root-step></root><kind text="6">major-sixth</kind></harmony><direction placement="above"><direction-type><bracket type="stop" number="1" line-end="none"/></direction-type><offset>-720</offset></direction><direction placement="above"><direction-type><bracket type="stop" number="2" line-end="none"/></direction-type><offset>-720</offset></direction><direction placement="above"><direction-type><bracket type="stop" number="3" line-end="none"/></direction-type><offset>-480</offset></direction><note default-y="-15.00" default-x="19.32"><pitch><step>C</step><octave>5</octave></pitch><duration>6</duration><tie type="start"/><voice>1</voice><type>half</type><dot/><stem>down</stem><notations><tied type="start"/></notations><lyric number="1"><syllabic>single</syllabic><text>ly.</text></lyric></note></measure><measure width="87.61" number="35"><direction placement="above"><direction-type><bracket line-type="solid" default-y="27" type="start" number="1" line-end="none"/></direction-type></direction><note default-y="-15.00" default-x="15.00"><pitch><step>C</step><octave>5</octave></pitch><duration>6</duration><tie type="stop"/><voice>1</voice><type>half</type><dot/><stem>down</stem><notations><tied type="stop"/><fermata type="upright"/></notations></note><direction placement="above"><direction-type><bracket type="stop" number="1" line-end="none"/></direction-type></direction><barline location="right"><bar-style>light-heavy</bar-style><ending type="stop" number="2"/></barline></measure></part></score-partwise>