<score-partwise version="2.0"><work><work-number/><work-title/></work><movement-number/><movement-title>I can't help falling in love</movement-title><identification><creator type="composer">George Weiss, Hugo Peretti, Luigi Creatore</creator><creator type="poet">George Weiss, Hugo Peretti, Luigi Creatore</creator><rights>All Rights Reserved</rights><encoding><software>Finale 2009 for Macintosh</software><software>Dolet Light for Finale 2009</software><encoding-date>2009-06-26</encoding-date><supports value="yes" type="yes" element="print" attribute="new-system"/><supports value="yes" type="yes" element="print" attribute="new-page"/><software>ProxyMusic 2.0 c</software></encoding><source>http://www.wikifonia.org/node/2049/revisions/2629/view</source></identification><defaults><scaling><millimeters>6.7733</millimeters><tenths>40</tenths></scaling><page-layout><page-height>1650</page-height><page-width>1275</page-width><page-margins type="both"><left-margin>112</left-margin><right-margin>75</right-margin><top-margin>75</top-margin><bottom-margin>75</bottom-margin></page-margins></page-layout><system-layout><system-margins><left-margin>0</left-margin><right-margin>0</right-margin></system-margins><system-distance>126</system-distance><top-system-distance>82</top-system-distance></system-layout><appearance><line-width type="stem">0.7656</line-width><line-width type="beam">4.0052</line-width><line-width type="staff">0.7656</line-width><line-width type="light barline">0.7656</line-width><line-width type="heavy barline">4.0313</line-width><line-width type="leger">0.7656</line-width><line-width type="ending">0.7656</line-width><line-width type="wedge">0.7656</line-width><line-width type="enclosure">0.7656</line-width><line-width type="tuplet bracket">0.7656</line-width><note-size type="grace">50</note-size><note-size type="cue">50</note-size></appearance><music-font font-size="19.2" font-family="Maestro"/><word-font font-size="9.6" font-family="Times"/><lyric-font font-size="9.6" font-family="Geneva" name="verse"/></defaults><credit page="1"><credit-words font-weight="bold" font-size="38.4" default-y="1599" default-x="588" halign="center" valign="top">Can't help falling love</credit-words></credit><credit page="1"><credit-words font-size="14.4" default-y="1504" default-x="1182" halign="right" valign="top">Weiss,Pereti, Creatore</credit-words></credit><credit page="1"><credit-words font-size="14.4" default-y="1471" default-x="129" valign="top">Intro-Flute</credit-words></credit><credit page="2"><credit-words default-y="75" default-x="616" halign="center" valign="bottom">-2-</credit-words></credit><credit page="2"><credit-words font-size="14.4" default-y="1598" default-x="841" valign="top">Can't help falling in love-2</credit-words></credit><part-list><score-part id="P1"><part-name print-object="no">MusicXML Part</part-name><score-instrument id="P1-I1"><instrument-name>Grand Piano</instrument-name></score-instrument><midi-instrument id="P1-I1"><midi-channel>1</midi-channel><midi-program>1</midi-program><volume>80</volume><pan>0</pan></midi-instrument></score-part></part-list><part id="P1"><measure width="298" number="1"><print page-number="1"><page-layout><page-height>1650</page-height><page-width>1275</page-width><page-margins><left-margin>65</left-margin><right-margin>93</right-margin><top-margin>0</top-margin><bottom-margin>29</bottom-margin></page-margins></page-layout><system-layout><top-system-distance>239</top-system-distance></system-layout></print><attributes><divisions>6</divisions><key><fifths>2</fifths><mode>major</mode></key><time symbol="common"><beats>4</beats><beat-type>4</beat-type></time><clef><sign>G</sign><line>2</line></clef></attributes><sound tempo="96"/><direction placement="above"><direction-type><metronome font-size="19.2" font-family="Maestro" relative-x="-206" default-y="84"><beat-unit>quarter</beat-unit><per-minute>95</per-minute></metronome></direction-type></direction><note default-x="234"><pitch><step>A</step><octave>3</octave></pitch><duration>3</duration><voice>1</voice><type>eighth</type><stem default-y="-19.5">up</stem></note></measure><measure width="203" number="2"><harmony font-weight="bold" font-size="14.4" default-y="23"><root><root-step>G</root-step></root><kind halign="center" text="">major</kind></harmony><note default-x="12"><pitch><step>B</step><octave>3</octave></pitch><duration>12</duration><voice>1</voice><type>half</type><stem default-y="-19.5">up</stem></note><harmony font-weight="bold" font-size="14.4" default-y="23"><root><root-step>A</root-step></root><kind halign="center" text="7">dominant</kind></harmony><note default-x="107"><pitch><step>C</step><alter>1</alter><octave>4</octave></pitch><duration>12</duration><voice>1</voice><type>half</type><stem default-y="-14">up</stem></note></measure><measure width="238" number="3"><harmony font-weight="bold" font-size="14.4" default-y="23"><root><root-step>D</root-step></root><kind halign="center" text="">major</kind></harmony><note default-x="10"><pitch><step>D</step><octave>4</octave></pitch><duration>12</duration><voice>1</voice><type>half</type><stem default-y="-9.5">up</stem></note><harmony font-weight="bold" font-size="14.4" default-y="32"><root><root-step>E</root-step></root><kind halign="center" use-symbols="yes">minor</kind></harmony><note default-x="104"><pitch><step>E</step><octave>4</octave></pitch><duration>4</duration><voice>1</voice><type>quarter</type><time-modification><actual-notes>3</actual-notes><normal-notes>2</normal-notes></time-modification><stem default-y="-4">up</stem><notations><tuplet placement="above" type="start" number="1" bracket="yes"/></notations></note><note default-x="149"><pitch><step>F</step><alter>1</alter><octave>4</octave></pitch><duration>4</duration><voice>1</voice><type>quarter</type><time-modification><actual-notes>3</actual-notes><normal-notes>2</normal-notes></time-modification><stem default-y="1">up</stem></note><note default-x="193"><pitch><step>G</step><octave>4</octave></pitch><duration>4</duration><voice>1</voice><type>quarter</type><time-modification><actual-notes>3</actual-notes><normal-notes>2</normal-notes></time-modification><stem default-y="5.5">up</stem><notations><tuplet type="stop" number="1"/></notations></note></measure><measure width="200" number="4"><harmony font-weight="bold" font-size="14.4" default-y="23"><root><root-step>D</root-step></root><kind halign="center" text="">major</kind></harmony><note default-x="10"><pitch><step>F</step><alter>1</alter><octave>4</octave></pitch><duration>12</duration><voice>1</voice><type>half</type><stem default-y="1">up</stem></note><harmony font-weight="bold" font-size="14.4" default-y="23"><root><root-step>A</root-step></root><kind halign="center" text="7">dominant</kind></harmony><note default-x="105"><pitch><step>E</step><octave>4</octave></pitch><duration>12</duration><voice>1</voice><type>half</type><stem default-y="-4">up</stem></note></measure><measure width="177" number="5"><harmony font-weight="bold" font-size="14.4" default-y="23"><root><root-step>D</root-step></root><kind halign="center" text="">major</kind></harmony><note default-x="10"><pitch><step>D</step><octave>4</octave></pitch><duration>24</duration><voice>1</voice><type>whole</type></note><barline location="right"><bar-style>light-light</bar-style></barline></measure><measure width="333" number="6"><print new-system="yes"><system-layout><system-distance>118</system-distance></system-layout></print><harmony font-weight="bold" font-size="14.4" default-y="23"><root><root-step>D</root-step></root><kind halign="center" text="">major</kind></harmony><note default-x="107"><pitch><step>D</step><octave>4</octave></pitch><duration>12</duration><voice>1</voice><type>half</type><stem default-y="-9">up</stem><lyric default-y="-88" number="1"><syllabic>single</syllabic><text font-size="12.8">Wise</text></lyric></note><harmony font-weight="bold" font-size="14.4" default-y="23"><root><root-step>F</root-step><root-alter>1</root-alter></root><kind halign="center" use-symbols="yes">minor</kind></harmony><note default-x="219"><pitch><step>A</step><octave>4</octave></pitch><duration>12</duration><voice>1</voice><type>half</type><stem default-y="10.5">up</stem><lyric default-y="-88" number="1"><syllabic>single</syllabic><text font-size="12.8">men</text></lyric></note></measure><measure width="263" number="7"><harmony font-weight="bold" font-size="14.4" default-y="23"><root><root-step>B</root-step></root><kind halign="center" use-symbols="yes">minor</kind></harmony><note default-x="23"><pitch><step>D</step><octave>4</octave></pitch><duration>18</duration><voice>1</voice><type>half</type><dot/><stem default-y="-9">up</stem><lyric default-y="-88" number="1"><syllabic>single</syllabic><text font-size="12.8">say</text></lyric></note><note default-x="175"><pitch><step>E</step><octave>4</octave></pitch><duration>3</duration><voice>1</voice><type>eighth</type><stem default-y="-7">up</stem><beam number="1">begin</beam><lyric default-y="-88" number="1"><syllabic>begin</syllabic><text font-size="12.8">on</text></lyric></note><note default-x="218"><pitch><step>F</step><alter>1</alter><octave>4</octave></pitch><duration>3</duration><voice>1</voice><type>eighth</type><stem default-y="-5">up</stem><beam number="1">end</beam><lyric default-y="-88" number="1"><syllabic>end</syllabic><text font-size="12.8">ly</text></lyric></note></measure><measure width="257" number="8"><harmony font-weight="bold" font-size="14.4" default-y="23"><root><root-step>G</root-step></root><kind halign="center" text="">major</kind></harmony><note default-x="31"><pitch><step>G</step><octave>4</octave></pitch><duration>12</duration><voice>1</voice><type>half</type><stem default-y="6">up</stem><lyric default-y="-88" number="1"><syllabic>single</syllabic><text font-size="12.8">fools</text></lyric></note><harmony font-weight="bold" font-size="14.4" default-y="23"><root><root-step>D</root-step></root><kind halign="center" text="">major</kind></harmony><note default-x="143"><pitch><step>F</step><alter>1</alter><octave>4</octave></pitch><duration>12</duration><voice>1</voice><type>half</type><stem default-y="0.5">up</stem><lyric default-y="-88" number="1"><syllabic>single</syllabic><text font-size="12.8">rush</text></lyric></note></measure><measure width="265" number="9"><harmony font-weight="bold" font-size="14.4" default-y="23"><root><root-step>A</root-step></root><kind halign="center" text="7">dominant</kind></harmony><note default-x="13"><pitch><step>E</step><octave>4</octave></pitch><duration>12</duration><tie type="start"/><voice>1</voice><type>half</type><stem default-y="-4">up</stem><notations><tied type="start"/></notations><lyric default-y="-88" number="1"><syllabic>single</syllabic><text font-size="12.8">in</text></lyric></note><note default-x="127"><pitch><step>E</step><octave>4</octave></pitch><duration>9</duration><tie type="stop"/><voice>1</voice><type>quarter</type><dot/><stem default-y="-4">up</stem><notations><tied type="stop"/></notations></note><note default-x="220"><pitch><step>A</step><octave>3</octave></pitch><duration>3</duration><voice>1</voice><type>eighth</type><stem default-y="-19">up</stem><lyric default-y="-88" number="1"><syllabic>single</syllabic><text font-size="12.8">but</text></lyric></note></measure><measure width="320" number="10"><print new-system="yes"/><harmony font-weight="bold" font-size="14.4" default-y="23"><root><root-step>G</root-step></root><kind halign="center" text="">major</kind></harmony><note default-x="89"><pitch><step>B</step><octave>3</octave></pitch><duration>12</duration><voice>1</voice><type>half</type><stem default-y="-19.5">up</stem><lyric default-y="-88" number="1"><syllabic>single</syllabic><text font-size="12.8">I</text></lyric></note><harmony font-weight="bold" font-size="14.4" default-y="23"><root><root-step>A</root-step></root><kind halign="center" text="7">dominant</kind></harmony><note default-x="204"><pitch><step>C</step><alter>1</alter><octave>4</octave></pitch><duration>12</duration><voice>1</voice><type>half</type><stem default-y="-14">up</stem><lyric default-y="-88" number="1"><syllabic>single</syllabic><text font-size="12.8">can't</text></lyric></note></measure><measure width="320" number="11"><harmony font-weight="bold" font-size="14.4" default-y="23"><root><root-step>D</root-step></root><kind halign="center" text="">major</kind></harmony><note default-x="27"><pitch><step>D</step><octave>4</octave></pitch><duration>12</duration><voice>1</voice><type>half</type><stem default-y="-9">up</stem><lyric default-y="-88" number="1"><syllabic>single</syllabic><text font-size="12.8">help</text></lyric></note><harmony font-weight="bold" font-size="14.4" default-y="30"><root><root-step>E</root-step></root><kind halign="center" use-symbols="yes">minor</kind></harmony><note default-x="148"><pitch><step>E</step><octave>4</octave></pitch><duration>4</duration><voice>1</voice><type>quarter</type><time-modification><actual-notes>3</actual-notes><normal-notes>2</normal-notes></time-modification><stem default-y="-4.5">up</stem><notations><tuplet placement="above" type="start" number="1" bracket="yes"/></notations><lyric default-y="-88" number="1"><syllabic>begin</syllabic><text font-size="12.8">fall</text></lyric></note><note default-x="205"><pitch><step>F</step><alter>1</alter><octave>4</octave></pitch><duration>4</duration><voice>1</voice><type>quarter</type><time-modification><actual-notes>3</actual-notes><normal-notes>2</normal-notes></time-modification><stem default-y="1">up</stem><lyric default-y="-88" number="1"><syllabic>end</syllabic><text font-size="12.8">ing</text></lyric></note><note default-x="262"><pitch><step>G</step><octave>4</octave></pitch><duration>4</duration><voice>1</voice><type>quarter</type><time-modification><actual-notes>3</actual-notes><normal-notes>2</normal-notes></time-modification><stem default-y="5.5">up</stem><notations><tuplet type="stop" number="1"/></notations><lyric default-y="-88" number="1"><syllabic>single</syllabic><text font-size="12.8">in</text></lyric></note></measure><measure width="262" number="12"><harmony font-weight="bold" font-size="14.4" default-y="23"><root><root-step>D</root-step></root><kind halign="center" text="">major</kind></harmony><note default-x="26"><pitch><step>F</step><alter>1</alter><octave>4</octave></pitch><duration>12</duration><voice>1</voice><type>half</type><stem default-y="1">up</stem><lyric default-y="-88" number="1"><syllabic>single</syllabic><text font-size="12.8">love</text></lyric></note><harmony font-weight="bold" font-size="14.4" default-y="23"><root><root-step>A</root-step></root><kind halign="center" text="7">dominant</kind></harmony><note default-x="144"><pitch><step>E</step><octave>4</octave></pitch><duration>12</duration><voice>1</voice><type>half</type><stem default-y="-4.5">up</stem><lyric default-y="-88" number="1"><syllabic>single</syllabic><text font-size="12.8">with</text></lyric></note></measure><measure width="216" number="13"><harmony font-weight="bold" font-size="14.4" default-y="23"><root><root-step>D</root-step></root><kind halign="center" text="">major</kind></harmony><note default-x="24"><pitch><step>D</step><octave>4</octave></pitch><duration>24</duration><voice>1</voice><type>whole</type><lyric default-y="-88" number="1"><syllabic>single</syllabic><text font-size="12.8">you</text></lyric></note></measure><measure width="328" number="14"><print new-system="yes"/><harmony font-weight="bold" font-size="14.4" default-y="23"><root><root-step>D</root-step></root><kind halign="center" text="">major</kind></harmony><note default-x="105"><pitch><step>D</step><octave>4</octave></pitch><duration>12</duration><voice>1</voice><type>half</type><stem default-y="-9.5">up</stem><lyric default-y="-88" number="1"><syllabic>single</syllabic><text font-size="12.8">shall</text></lyric></note><harmony font-weight="bold" font-size="14.4" relative-x="-10" default-y="23"><root><root-step>F</root-step><root-alter>1</root-alter></root><kind halign="center" use-symbols="yes">minor</kind></harmony><note default-x="216"><pitch><step>A</step><octave>4</octave></pitch><duration>12</duration><voice>1</voice><type>half</type><stem default-y="11">up</stem><lyric default-y="-88" number="1"><syllabic>single</syllabic><text font-size="12.8">I</text></lyric></note></measure><measure width="290" number="15"><harmony font-weight="bold" font-size="14.4" default-y="23"><root><root-step>B</root-step></root><kind halign="center" use-symbols="yes">minor</kind></harmony><note default-x="28"><pitch><step>D</step><octave>4</octave></pitch><duration>18</duration><voice>1</voice><type>half</type><dot/><stem default-y="-9.5">up</stem><lyric default-y="-88" number="1"><syllabic>single</syllabic><text font-size="12.8">stay</text></lyric></note><note default-x="189"><pitch><step>E</step><octave>4</octave></pitch><duration>3</duration><voice>1</voice><type>eighth</type><stem default-y="-7">up</stem><beam number="1">begin</beam><lyric default-y="-88" number="1"><syllabic>single</syllabic><text font-size="12.8">would</text></lyric></note><note default-x="242"><pitch><step>F</step><alter>1</alter><octave>4</octave></pitch><duration>3</duration><voice>1</voice><type>eighth</type><stem default-y="-5">up</stem><beam number="1">end</beam><lyric default-y="-88" number="1"><syllabic>single</syllabic><text font-size="12.8">it</text></lyric></note></measure><measure width="238" number="16"><harmony font-weight="bold" font-size="14.4" default-y="23"><root><root-step>G</root-step></root><kind halign="center" text="">major</kind></harmony><note default-x="17"><pitch><step>G</step><octave>4</octave></pitch><duration>12</duration><voice>1</voice><type>half</type><stem default-y="6">up</stem><lyric default-y="-88" number="1"><syllabic>single</syllabic><text font-size="12.8">be</text></lyric></note><harmony font-weight="bold" font-size="14.4" default-y="23"><root><root-step>D</root-step></root><kind halign="center" text="">major</kind></harmony><note default-x="127"><pitch><step>F</step><alter>1</alter><octave>4</octave></pitch><duration>12</duration><voice>1</voice><type>half</type><stem default-y="0.5">up</stem><lyric default-y="-88" number="1"><syllabic>single</syllabic><text font-size="12.8">a</text></lyric></note></measure><measure width="261" number="17"><harmony font-weight="bold" font-size="14.4" default-y="23"><root><root-step>A</root-step></root><kind halign="center" text="7">dominant</kind></harmony><note default-x="19"><pitch><step>E</step><octave>4</octave></pitch><duration>12</duration><tie type="start"/><voice>1</voice><type>half</type><stem default-y="-4">up</stem><notations><tied type="start"/></notations><lyric default-y="-88" number="1"><syllabic>single</syllabic><text font-size="12.8">sin</text></lyric></note><note default-x="128"><pitch><step>E</step><octave>4</octave></pitch><duration>9</duration><tie type="stop"/><voice>1</voice><type>quarter</type><dot/><stem default-y="-4">up</stem><notations><tied type="stop"/></notations></note><note default-x="219"><pitch><step>A</step><octave>3</octave></pitch><duration>3</duration><voice>1</voice><type>eighth</type><stem default-y="-19">up</stem><lyric default-y="-88" number="1"><syllabic>single</syllabic><text font-size="12.8">if</text></lyric></note></measure><measure width="318" number="18"><print new-system="yes"/><harmony font-weight="bold" font-size="14.4" default-y="23"><root><root-step>G</root-step></root><kind halign="center" text="">major</kind></harmony><note default-x="89"><pitch><step>B</step><octave>3</octave></pitch><duration>12</duration><voice>1</voice><type>half</type><stem default-y="-19">up</stem><lyric default-y="-88" number="1"><syllabic>single</syllabic><text font-size="12.8">I</text></lyric></note><harmony font-weight="bold" font-size="14.4" default-y="23"><root><root-step>A</root-step></root><kind halign="center" text="7">dominant</kind></harmony><note default-x="203"><pitch><step>C</step><alter>1</alter><octave>4</octave></pitch><duration>12</duration><voice>1</voice><type>half</type><stem default-y="-14.5">up</stem><lyric default-y="-88" number="1"><syllabic>single</syllabic><text font-size="12.8">can't</text></lyric></note></measure><measure width="318" number="19"><harmony font-weight="bold" font-size="14.4" default-y="23"><root><root-step>D</root-step></root><kind halign="center" text="">major</kind></harmony><note default-x="27"><pitch><step>D</step><octave>4</octave></pitch><duration>12</duration><voice>1</voice><type>half</type><stem default-y="-9">up</stem><lyric default-y="-88" number="1"><syllabic>single</syllabic><text font-size="12.8">help</text></lyric></note><harmony font-weight="bold" font-size="14.4" relative-x="-12" default-y="25"><root><root-step>E</root-step></root><kind halign="center" use-symbols="yes">minor</kind></harmony><note default-x="148"><pitch><step>E</step><octave>4</octave></pitch><duration>4</duration><voice>1</voice><type>quarter</type><time-modification><actual-notes>3</actual-notes><normal-notes>2</normal-notes></time-modification><stem default-y="-4.5">up</stem><notations><tuplet placement="above" type="start" number="1" bracket="yes"/></notations><lyric default-y="-88" number="1"><syllabic>begin</syllabic><text font-size="12.8">fall</text></lyric></note><note default-x="204"><pitch><step>F</step><alter>1</alter><octave>4</octave></pitch><duration>4</duration><voice>1</voice><type>quarter</type><time-modification><actual-notes>3</actual-notes><normal-notes>2</normal-notes></time-modification><stem default-y="1">up</stem><lyric default-y="-88" number="1"><syllabic>end</syllabic><text font-size="12.8">ing</text></lyric></note><note default-x="261"><pitch><step>G</step><octave>4</octave></pitch><duration>4</duration><voice>1</voice><type>quarter</type><time-modification><actual-notes>3</actual-notes><normal-notes>2</normal-notes></time-modification><stem default-y="6">up</stem><notations><tuplet type="stop" number="1"/></notations><lyric default-y="-88" number="1"><syllabic>single</syllabic><text font-size="12.8">in</text></lyric></note></measure><measure width="261" number="20"><harmony font-weight="bold" font-size="14.4" default-y="23"><root><root-step>D</root-step></root><kind halign="center" text="">major</kind></harmony><note default-x="27"><pitch><step>F</step><alter>1</alter><octave>4</octave></pitch><duration>12</duration><voice>1</voice><type>half</type><stem default-y="1">up</stem><lyric default-y="-88" number="1"><syllabic>single</syllabic><text font-size="12.8">love</text></lyric></note><harmony font-weight="bold" font-size="14.4" default-y="23"><root><root-step>A</root-step></root><kind halign="center" text="7">dominant</kind></harmony><note default-x="143"><pitch><step>E</step><octave>4</octave></pitch><duration>12</duration><voice>1</voice><type>half</type><stem default-y="-4.5">up</stem><lyric default-y="-88" number="1"><syllabic>single</syllabic><text font-size="12.8">with</text></lyric></note></measure><measure width="220" number="21"><harmony font-weight="bold" font-size="14.4" default-y="23"><root><root-step>D</root-step></root><kind halign="center" text="">major</kind></harmony><note default-x="24"><pitch><step>D</step><octave>4</octave></pitch><duration>24</duration><voice>1</voice><type>whole</type><lyric default-y="-88" number="1"><syllabic>single</syllabic><text font-size="12.8">you</text></lyric></note><barline location="right"><bar-style>light-light</bar-style></barline></measure><measure width="421" number="22"><print new-system="yes"><system-layout><system-distance>169</system-distance></system-layout></print><harmony font-weight="bold" font-size="14.4" default-y="23"><root><root-step>F</root-step><root-alter>1</root-alter></root><kind halign="center" use-symbols="yes">minor</kind></harmony><note default-x="103"><pitch><step>C</step><alter>1</alter><octave>4</octave></pitch><duration>3</duration><voice>1</voice><type>eighth</type><stem default-y="15">up</stem><beam number="1">begin</beam><lyric default-y="-88" number="1"><syllabic>single</syllabic><text font-size="12.8">Like</text></lyric></note><note default-x="153"><pitch><step>F</step><alter>1</alter><octave>4</octave></pitch><duration>3</duration><voice>1</voice><type>eighth</type><stem default-y="17">up</stem><beam number="1">continue</beam><lyric default-y="-88" number="1"><syllabic>single</syllabic><text font-size="12.8">a</text></lyric></note><note default-x="197"><pitch><step>A</step><octave>4</octave></pitch><duration>3</duration><voice>1</voice><type>eighth</type><stem default-y="19">up</stem><beam number="1">continue</beam><lyric default-y="-88" number="1"><syllabic>begin</syllabic><text font-size="12.8">ri</text></lyric></note><note default-x="245"><pitch><step>C</step><alter>1</alter><octave>5</octave></pitch><duration>3</duration><voice>1</voice><type>eighth</type><stem default-y="20">up</stem><beam number="1">end</beam><lyric default-y="-88" number="1"><syllabic>end</syllabic><text font-size="12.8">ver</text></lyric></note><harmony font-weight="bold" font-size="14.4" default-y="23"><root><root-step>C</root-step><root-alter>1</root-alter></root><kind halign="center" text="7">dominant</kind></harmony><note default-x="305"><pitch><step>B</step><octave>4</octave></pitch><duration>12</duration><voice>1</voice><type>half</type><stem default-y="-55">down</stem><lyric default-y="-88" number="1"><syllabic>single</syllabic><text font-size="12.8">flows</text></lyric></note></measure><measure width="351" number="23"><harmony font-weight="bold" font-size="14.4" default-y="23"><root><root-step>F</root-step><root-alter>1</root-alter></root><kind halign="center" use-symbols="yes">minor</kind></harmony><note default-x="27"><pitch><step>C</step><alter>1</alter><octave>4</octave></pitch><duration>3</duration><voice>1</voice><type>eighth</type><stem default-y="15">up</stem><beam number="1">begin</beam><lyric default-y="-88" number="1"><syllabic>begin</syllabic><text font-size="12.8">sure</text></lyric></note><note default-x="77"><pitch><step>F</step><alter>1</alter><octave>4</octave></pitch><duration>3</duration><voice>1</voice><type>eighth</type><stem default-y="16.5">up</stem><beam number="1">continue</beam><lyric default-y="-88" number="1"><syllabic>end</syllabic><text font-size="12.8">ly</text></lyric></note><note default-x="126"><pitch><step>A</step><octave>4</octave></pitch><duration>3</duration><voice>1</voice><type>eighth</type><stem default-y="19">up</stem><beam number="1">continue</beam><lyric default-y="-88" number="1"><syllabic>single</syllabic><text font-size="12.8">to</text></lyric></note><note default-x="175"><pitch><step>C</step><alter>1</alter><octave>5</octave></pitch><duration>3</duration><voice>1</voice><type>eighth</type><stem default-y="20">up</stem><beam number="1">end</beam><lyric default-y="-88" number="1"><syllabic>single</syllabic><text font-size="12.8">the</text></lyric></note><harmony font-weight="bold" font-size="14.4" default-y="23"><root><root-step>C</root-step><root-alter>1</root-alter></root><kind halign="center" text="7">dominant</kind></harmony><note default-x="226"><pitch><step>B</step><octave>4</octave></pitch><duration>12</duration><voice>1</voice><type>half</type><stem default-y="-55">down</stem><lyric default-y="-88" number="1"><syllabic>single</syllabic><text font-size="12.8">sea</text></lyric></note></measure><measure width="345" number="24"><harmony font-weight="bold" font-size="14.4" default-y="23"><root><root-step>F</root-step><root-alter>1</root-alter></root><kind halign="center" use-symbols="yes">minor</kind></harmony><note default-x="22"><pitch><step>C</step><alter>1</alter><octave>4</octave></pitch><duration>3</duration><voice>1</voice><type>eighth</type><stem default-y="15">up</stem><beam number="1">begin</beam><lyric default-y="-88" number="1"><syllabic>begin</syllabic><text font-size="12.8">dar</text></lyric></note><note default-x="73"><pitch><step>F</step><alter>1</alter><octave>4</octave></pitch><duration>3</duration><voice>1</voice><type>eighth</type><stem default-y="16.5">up</stem><beam number="1">continue</beam><lyric default-y="-88" number="1"><syllabic>end</syllabic><text font-size="12.8">ling</text></lyric></note><note default-x="123"><pitch><step>A</step><octave>4</octave></pitch><duration>3</duration><voice>1</voice><type>eighth</type><stem default-y="19">up</stem><beam number="1">continue</beam><lyric default-y="-88" number="1"><syllabic>single</syllabic><text font-size="12.8">so</text></lyric></note><note default-x="170"><pitch><step>C</step><alter>1</alter><octave>5</octave></pitch><duration>3</duration><voice>1</voice><type>eighth</type><stem default-y="20">up</stem><beam number="1">end</beam><lyric default-y="-88" number="1"><syllabic>single</syllabic><text font-size="12.8">it</text></lyric></note><harmony font-weight="bold" font-size="14.4" default-y="23"><root><root-step>C</root-step><root-alter>1</root-alter></root><kind halign="center" text="7">dominant</kind></harmony><note default-x="221"><pitch><step>B</step><octave>4</octave></pitch><duration>12</duration><voice>1</voice><type>half</type><stem default-y="-55">down</stem><lyric default-y="-88" number="1"><syllabic>single</syllabic><text font-size="12.8">goes</text></lyric></note></measure><measure width="478" number="25"><print new-system="yes"><system-layout><system-margins><left-margin>0</left-margin><right-margin>10</right-margin></system-margins><system-distance>168</system-distance></system-layout></print><harmony font-weight="bold" font-size="14.4" default-y="23"><root><root-step>F</root-step><root-alter>1</root-alter></root><kind halign="center" use-symbols="yes">minor</kind></harmony><note default-x="110"><pitch><step>A</step><octave>4</octave></pitch><duration>6</duration><voice>1</voice><type>quarter</type><stem default-y="10.5">up</stem><lyric default-y="-88" number="1"><syllabic>begin</syllabic><text font-size="12.8">some</text></lyric></note><note default-x="195"><pitch><step>A</step><octave>4</octave></pitch><duration>6</duration><tie type="start"/><voice>1</voice><type>quarter</type><stem default-y="10.5">up</stem><notations><tied type="start"/></notations><lyric default-y="-88" number="1"><syllabic>end</syllabic><text font-size="12.8">things</text></lyric></note><harmony font-weight="bold" font-size="14.4" default-y="23"><root><root-step>B</root-step></root><kind halign="center" text="7">dominant</kind></harmony><note default-x="272"><pitch><step>A</step><octave>4</octave></pitch><duration>3</duration><tie type="stop"/><voice>1</voice><type>eighth</type><stem default-y="10">up</stem><beam number="1">begin</beam><notations><tied type="stop"/></notations></note><note default-x="310"><pitch><step>F</step><alter>1</alter><octave>4</octave></pitch><duration>3</duration><voice>1</voice><type>eighth</type><stem default-y="10">up</stem><beam number="1">continue</beam><lyric default-y="-88" number="1"><syllabic>single</syllabic><text font-size="12.8">are</text></lyric></note><note default-x="377"><pitch><step>A</step><octave>4</octave></pitch><duration>3</duration><voice>1</voice><type>eighth</type><stem default-y="10">up</stem><beam number="1">continue</beam><lyric default-y="-88" number="1"><syllabic>single</syllabic><text font-size="12.8">meant</text></lyric></note><note default-x="439"><pitch><step>F</step><alter>1</alter><octave>4</octave></pitch><duration>3</duration><voice>1</voice><type>eighth</type><stem default-y="10">up</stem><beam number="1">end</beam><lyric default-y="-88" number="1"><syllabic>single</syllabic><text font-size="12.8">to</text></lyric></note></measure><measure width="170" number="26"><harmony font-weight="bold" font-size="14.4" default-y="20"><root><root-step>E</root-step></root><kind halign="center" use-symbols="yes">minor</kind></harmony><harmony font-weight="bold" font-size="14.4" relative-x="113" default-y="22"><root><root-step>A</root-step></root><kind halign="center" text="7">dominant</kind></harmony><harmony font-weight="bold" font-size="14.4" relative-x="44" default-y="19"><root><root-step>G</root-step></root><kind halign="center" text="">major</kind><bass><bass-step>A</bass-step></bass></harmony><note default-x="17"><pitch><step>G</step><octave>4</octave></pitch><duration>24</duration><voice>1</voice><type>whole</type><lyric default-y="-88" number="1"><syllabic>single</syllabic><text font-size="12.8">be</text></lyric></note><barline location="right"><bar-style>light-light</bar-style></barline></measure><measure width="209" number="27"><harmony font-weight="bold" font-size="14.4" default-y="23"><root><root-step>D</root-step></root><kind halign="center" text="">major</kind></harmony><note default-x="27"><pitch><step>D</step><octave>4</octave></pitch><duration>12</duration><voice>1</voice><type>half</type><stem default-y="-9">up</stem><lyric default-y="-88" number="1"><syllabic>single</syllabic><text font-size="12.8">take</text></lyric></note><harmony font-weight="bold" font-size="14.4" default-y="23"><root><root-step>F</root-step><root-alter>1</root-alter></root><kind halign="center" use-symbols="yes">minor</kind></harmony><note default-x="117"><pitch><step>A</step><octave>4</octave></pitch><duration>12</duration><voice>1</voice><type>half</type><stem default-y="10.5">up</stem><lyric default-y="-88" number="1"><syllabic>single</syllabic><text font-size="12.8">my</text></lyric></note></measure><measure width="250" number="28"><harmony font-weight="bold" font-size="14.4" default-y="23"><root><root-step>B</root-step></root><kind halign="center" use-symbols="yes">minor</kind></harmony><note default-x="31"><pitch><step>D</step><octave>4</octave></pitch><duration>18</duration><voice>1</voice><type>half</type><dot/><stem default-y="-9">up</stem><lyric default-y="-88" number="1"><syllabic>single</syllabic><text font-size="12.8">hand</text></lyric></note><note default-x="155"><pitch><step>E</step><octave>4</octave></pitch><duration>3</duration><voice>1</voice><type>eighth</type><stem default-y="-7">up</stem><beam number="1">begin</beam><lyric default-y="-88" number="1"><syllabic>single</syllabic><text font-size="12.8">take</text></lyric></note><note default-x="210"><pitch><step>F</step><alter>1</alter><octave>4</octave></pitch><duration>3</duration><voice>1</voice><type>eighth</type><stem default-y="-5">up</stem><beam number="1">end</beam><lyric default-y="-88" number="1"><syllabic>single</syllabic><text font-size="12.8">my</text></lyric></note></measure><measure width="283" number="29"><print new-system="yes"><system-layout><system-distance>110</system-distance></system-layout></print><harmony font-weight="bold" font-size="14.4" default-y="23"><root><root-step>G</root-step></root><kind halign="center" text="">major</kind></harmony><note default-x="113"><pitch><step>G</step><octave>4</octave></pitch><duration>12</duration><voice>1</voice><type>half</type><stem default-y="6">up</stem><lyric default-y="-88" number="1"><syllabic>single</syllabic><text font-size="12.8">whole</text></lyric></note><harmony font-weight="bold" font-size="14.4" default-y="23"><root><root-step>D</root-step></root><kind halign="center" text="">major</kind></harmony><note default-x="198"><pitch><step>F</step><alter>1</alter><octave>4</octave></pitch><duration>12</duration><voice>1</voice><type>half</type><stem default-y="1">up</stem><lyric default-y="-88" number="1"><syllabic>single</syllabic><text font-size="12.8">life</text></lyric></note></measure><measure width="214" number="30"><harmony font-weight="bold" font-size="14.4" default-y="23"><root><root-step>A</root-step></root><kind halign="center" text="7">dominant</kind></harmony><note default-x="23"><pitch><step>E</step><octave>4</octave></pitch><duration>12</duration><tie type="start"/><voice>1</voice><type>half</type><stem default-y="-4.5">up</stem><notations><tied type="start"/></notations><lyric default-y="-88" number="1"><syllabic>single</syllabic><text font-size="12.8">too</text></lyric></note><note default-x="108"><pitch><step>E</step><octave>4</octave></pitch><duration>9</duration><tie type="stop"/><voice>1</voice><type>quarter</type><dot/><stem default-y="-4.5">up</stem><notations><tied type="stop"/></notations></note><note default-x="177"><pitch><step>A</step><octave>3</octave></pitch><duration>3</duration><voice>1</voice><type>eighth</type><stem default-y="-19">up</stem><lyric default-y="-88" number="1"><syllabic>single</syllabic><text font-size="12.8">for</text></lyric></note></measure><measure width="183" number="31"><harmony font-weight="bold" font-size="14.4" default-y="23"><root><root-step>G</root-step></root><kind halign="center" text="">major</kind></harmony><note default-x="12"><pitch><step>B</step><octave>3</octave></pitch><duration>12</duration><voice>1</voice><type>half</type><stem default-y="-19">up</stem><lyric default-y="-88" number="1"><syllabic>single</syllabic><text font-size="12.8">I</text></lyric></note><harmony font-weight="bold" font-size="14.4" default-y="23"><root><root-step>A</root-step></root><kind halign="center" text="7">dominant</kind></harmony><note default-x="97"><pitch><step>C</step><alter>1</alter><octave>4</octave></pitch><duration>12</duration><voice>1</voice><type>half</type><stem default-y="-14.5">up</stem><lyric default-y="-88" number="1"><syllabic>single</syllabic><text font-size="12.8">can't</text></lyric></note></measure><measure width="240" number="32"><harmony font-weight="bold" font-size="14.4" default-y="23"><root><root-step>D</root-step></root><kind halign="center" text="">major</kind></harmony><note default-x="27"><pitch><step>D</step><octave>4</octave></pitch><duration>12</duration><voice>1</voice><type>half</type><stem default-y="-9">up</stem><lyric default-y="-88" number="1"><syllabic>single</syllabic><text font-size="12.8">help</text></lyric></note><harmony font-weight="bold" font-size="14.4" default-y="28"><root><root-step>E</root-step></root><kind halign="center" use-symbols="yes">minor</kind></harmony><note default-x="112"><pitch><step>E</step><octave>4</octave></pitch><duration>4</duration><voice>1</voice><type>quarter</type><time-modification><actual-notes>3</actual-notes><normal-notes>2</normal-notes></time-modification><stem default-y="-4.5">up</stem><notations><tuplet placement="above" type="start" number="1" bracket="yes"/></notations><lyric default-y="-88" number="1"><syllabic>begin</syllabic><text font-size="12.8">fall</text></lyric></note><note default-x="159"><pitch><step>F</step><alter>1</alter><octave>4</octave></pitch><duration>4</duration><voice>1</voice><type>quarter</type><time-modification><actual-notes>3</actual-notes><normal-notes>2</normal-notes></time-modification><stem default-y="1">up</stem><lyric default-y="-88" number="1"><syllabic>end</syllabic><text font-size="12.8">ing</text></lyric></note><note default-x="199"><pitch><step>G</step><octave>4</octave></pitch><duration>4</duration><voice>1</voice><type>quarter</type><time-modification><actual-notes>3</actual-notes><normal-notes>2</normal-notes></time-modification><stem default-y="6">up</stem><notations><tuplet type="stop" number="1"/></notations><lyric default-y="-88" number="1"><syllabic>single</syllabic><text font-size="12.8">in</text></lyric></note></measure><measure width="197" number="33"><harmony font-weight="bold" font-size="14.4" default-y="23"><root><root-step>D</root-step></root><kind halign="center" text="">major</kind></harmony><note default-x="27"><pitch><step>F</step><alter>1</alter><octave>4</octave></pitch><duration>12</duration><voice>1</voice><type>half</type><stem default-y="1">up</stem><lyric default-y="-88" number="1"><syllabic>single</syllabic><text font-size="12.8">love</text></lyric></note><harmony font-weight="bold" font-size="14.4" default-y="23"><root><root-step>A</root-step></root><kind halign="center" text="7">dominant</kind></harmony><note default-x="112"><pitch><step>E</step><octave>4</octave></pitch><duration>12</duration><voice>1</voice><type>half</type><stem default-y="-4.5">up</stem><lyric default-y="-88" number="1"><syllabic>single</syllabic><text font-size="12.8">with</text></lyric></note></measure><measure width="276" number="34"><print page-number="2" new-page="yes"><page-layout><page-height>1650</page-height><page-width>1275</page-width><page-margins><left-margin>72</left-margin><right-margin>115</right-margin><top-margin>75</top-margin><bottom-margin>75</bottom-margin></page-margins></page-layout></print><harmony font-weight="bold" font-size="14.4" default-y="23"><root><root-step>D</root-step></root><kind halign="center" text="">major</kind></harmony><note default-x="101"><pitch><step>D</step><octave>4</octave></pitch><duration>24</duration><voice>1</voice><type>whole</type><lyric default-y="-88" number="1"><syllabic>single</syllabic><text font-size="12.8">you</text></lyric></note><barline location="right"><bar-style>light-light</bar-style></barline></measure><measure width="270" number="35"><direction placement="above"><direction-type><words font-weight="bold" font-size="12.8" font-family="Geneva" relative-x="-15" default-y="67">Flute</words></direction-type></direction><harmony font-weight="bold" font-size="14.4" default-y="28"><root><root-step>F</root-step><root-alter>1</root-alter></root><kind halign="center" use-symbols="yes">minor</kind></harmony><note default-x="11"><pitch><step>C</step><alter>1</alter><octave>4</octave></pitch><duration>3</duration><voice>1</voice><type>eighth</type><stem default-y="15">up</stem><beam number="1">begin</beam></note><note default-x="50"><pitch><step>F</step><alter>1</alter><octave>4</octave></pitch><duration>3</duration><voice>1</voice><type>eighth</type><stem default-y="17">up</stem><beam number="1">continue</beam></note><note default-x="89"><pitch><step>A</step><octave>4</octave></pitch><duration>3</duration><voice>1</voice><type>eighth</type><stem default-y="18.5">up</stem><beam number="1">continue</beam></note><note default-x="128"><pitch><step>C</step><alter>1</alter><octave>5</octave></pitch><duration>3</duration><voice>1</voice><type>eighth</type><stem default-y="20">up</stem><beam number="1">end</beam></note><harmony font-weight="bold" font-size="14.4" default-y="32"><root><root-step>C</root-step><root-alter>1</root-alter></root><kind halign="center" text="7">dominant</kind></harmony><note default-x="167"><pitch><step>B</step><octave>4</octave></pitch><duration>12</duration><voice>1</voice><type>half</type><stem default-y="-55.5">down</stem></note></measure><measure width="271" number="36"><harmony font-weight="bold" font-size="14.4" default-y="32"><root><root-step>F</root-step><root-alter>1</root-alter></root><kind halign="center" use-symbols="yes">minor</kind></harmony><note default-x="12"><pitch><step>C</step><alter>1</alter><octave>4</octave></pitch><duration>3</duration><voice>1</voice><type>eighth</type><stem default-y="15">up</stem><beam number="1">begin</beam></note><note default-x="51"><pitch><step>F</step><alter>1</alter><octave>4</octave></pitch><duration>3</duration><voice>1</voice><type>eighth</type><stem default-y="17">up</stem><beam number="1">continue</beam></note><note default-x="90"><pitch><step>A</step><octave>4</octave></pitch><duration>3</duration><voice>1</voice><type>eighth</type><stem default-y="18.5">up</stem><beam number="1">continue</beam></note><note default-x="129"><pitch><step>C</step><alter>1</alter><octave>5</octave></pitch><duration>3</duration><voice>1</voice><type>eighth</type><stem default-y="20">up</stem><beam number="1">end</beam></note><harmony font-weight="bold" font-size="14.4" relative-x="10" default-y="32"><root><root-step>C</root-step><root-alter>1</root-alter></root><kind halign="center" text="7">dominant</kind></harmony><note default-x="168"><pitch><step>B</step><octave>4</octave></pitch><duration>12</duration><voice>1</voice><type>half</type><stem default-y="-55.5">down</stem></note></measure><measure width="271" number="37"><harmony font-weight="bold" font-size="14.4" default-y="27"><root><root-step>F</root-step><root-alter>1</root-alter></root><kind halign="center" use-symbols="yes">minor</kind></harmony><note default-x="12"><pitch><step>C</step><alter>1</alter><octave>4</octave></pitch><duration>3</duration><voice>1</voice><type>eighth</type><stem default-y="15">up</stem><beam number="1">begin</beam></note><note default-x="51"><pitch><step>F</step><alter>1</alter><octave>4</octave></pitch><duration>3</duration><voice>1</voice><type>eighth</type><stem default-y="17">up</stem><beam number="1">continue</beam></note><note default-x="90"><pitch><step>A</step><octave>4</octave></pitch><duration>3</duration><voice>1</voice><type>eighth</type><stem default-y="18.5">up</stem><beam number="1">continue</beam></note><note default-x="129"><pitch><step>C</step><alter>1</alter><octave>5</octave></pitch><duration>3</duration><voice>1</voice><type>eighth</type><stem default-y="20">up</stem><beam number="1">end</beam></note><harmony font-weight="bold" font-size="14.4" default-y="32"><root><root-step>C</root-step><root-alter>1</root-alter></root><kind halign="center" text="7">dominant</kind></harmony><note default-x="168"><pitch><step>B</step><octave>4</octave></pitch><duration>12</duration><voice>1</voice><type>half</type><stem default-y="-55.5">down</stem></note></measure><measure width="303" number="38"><print new-system="yes"/><harmony font-weight="bold" font-size="14.4" default-y="30"><root><root-step>F</root-step><root-alter>1</root-alter></root><kind halign="center" use-symbols="yes">minor</kind></harmony><note default-x="87"><pitch><step>A</step><octave>4</octave></pitch><duration>6</duration><voice>1</voice><type>quarter</type><stem default-y="10.5">up</stem></note><note default-x="135"><pitch><step>A</step><octave>4</octave></pitch><duration>6</duration><voice>1</voice><type>quarter</type><stem default-y="10.5">up</stem></note><harmony font-weight="bold" font-size="14.4" default-y="28"><root><root-step>B</root-step></root><kind halign="center" text="7">dominant</kind></harmony><note default-x="183"><pitch><step>A</step><octave>4</octave></pitch><duration>3</duration><voice>1</voice><type>eighth</type><stem default-y="10">up</stem><beam number="1">begin</beam></note><note default-x="213"><pitch><step>F</step><alter>1</alter><octave>4</octave></pitch><duration>3</duration><voice>1</voice><type>eighth</type><stem default-y="5">up</stem><beam number="1">end</beam></note><note default-x="242"><pitch><step>A</step><octave>4</octave></pitch><duration>3</duration><voice>1</voice><type>eighth</type><stem default-y="10">up</stem><beam number="1">begin</beam></note><note default-x="272"><pitch><step>G</step><octave>4</octave></pitch><duration>3</duration><voice>1</voice><type>eighth</type><stem default-y="5">up</stem><beam number="1">end</beam></note></measure><measure width="148" number="39"><harmony font-weight="bold" font-size="14.4" default-y="23"><root><root-step>E</root-step></root><kind halign="center" use-symbols="yes">minor</kind></harmony><harmony font-weight="bold" font-size="14.4" relative-x="71" default-y="22"><root><root-step>C</root-step></root><kind halign="center" text="7">dominant</kind></harmony><note default-x="10"><pitch><step>G</step><octave>4</octave></pitch><duration>24</duration><voice>1</voice><type>whole</type></note><barline location="right"><bar-style>light-light</bar-style></barline></measure><measure width="227" number="40"><attributes><key><cancel>2</cancel><fifths>-1</fifths><mode>major</mode></key></attributes><harmony font-weight="bold" font-size="14.4" default-y="23"><root><root-step>F</root-step></root><kind halign="center" text="">major</kind></harmony><note default-x="72"><pitch><step>F</step><octave>4</octave></pitch><duration>12</duration><voice>1</voice><type>half</type><stem default-y="0.5">up</stem><lyric default-y="-88" number="1"><syllabic>single</syllabic><text font-size="12.8">take</text></lyric></note><harmony font-weight="bold" font-size="14.4" default-y="23"><root><root-step>A</root-step></root><kind halign="center" use-symbols="yes">minor</kind></harmony><note default-x="149"><pitch><step>C</step><octave>5</octave></pitch><duration>12</duration><voice>1</voice><type>half</type><stem default-y="-50.5">down</stem><lyric default-y="-88" number="1"><syllabic>single</syllabic><text font-size="12.8">my</text></lyric></note></measure><measure width="219" number="41"><harmony font-weight="bold" font-size="14.4" default-y="23"><root><root-step>D</root-step></root><kind halign="center" use-symbols="yes">minor</kind></harmony><note default-x="31"><pitch><step>F</step><octave>4</octave></pitch><duration>18</duration><voice>1</voice><type>half</type><dot/><stem default-y="0.5">up</stem><lyric default-y="-88" number="1"><syllabic>single</syllabic><text font-size="12.8">hand</text></lyric></note><note default-x="127"><pitch><step>G</step><octave>4</octave></pitch><duration>3</duration><voice>1</voice><type>eighth</type><stem default-y="5">up</stem><beam number="1">begin</beam><lyric default-y="-88" number="1"><syllabic>single</syllabic><text font-size="12.8">take</text></lyric></note><note default-x="182"><pitch><step>A</step><octave>4</octave></pitch><duration>3</duration><voice>1</voice><type>eighth</type><stem default-y="10">up</stem><beam number="1">end</beam><lyric default-y="-88" number="1"><syllabic>single</syllabic><text font-size="12.8">my</text></lyric></note></measure><measure width="191" number="42"><harmony font-weight="bold" font-size="14.4" default-y="23"><root><root-step>B</root-step><root-alter>-1</root-alter></root><kind halign="center" text="">major</kind></harmony><note default-x="36"><pitch><step>B</step><alter>-1</alter><octave>4</octave></pitch><duration>12</duration><voice>1</voice><type>half</type><stem default-y="-55">down</stem><lyric default-y="-88" number="1"><syllabic>single</syllabic><text font-size="12.8">whole</text></lyric></note><harmony font-weight="bold" font-size="14.4" default-y="23"><root><root-step>F</root-step></root><kind halign="center" text="">major</kind></harmony><note default-x="113"><pitch><step>A</step><octave>4</octave></pitch><duration>12</duration><voice>1</voice><type>half</type><stem default-y="10.5">up</stem><lyric default-y="-88" number="1"><syllabic>single</syllabic><text font-size="12.8">life</text></lyric></note></measure><measure width="328" number="43"><print new-system="yes"/><harmony font-weight="bold" font-size="14.4" default-y="23"><root><root-step>C</root-step></root><kind halign="center" text="7">dominant</kind></harmony><note default-x="87"><pitch><step>G</step><octave>4</octave></pitch><duration>12</duration><tie type="start"/><voice>1</voice><type>half</type><stem default-y="5.5">up</stem><notations><tied type="start"/></notations><lyric default-y="-88" number="1"><syllabic>single</syllabic><text font-size="12.8">too</text></lyric></note><note default-x="196"><pitch><step>G</step><octave>4</octave></pitch><duration>9</duration><tie type="stop"/><voice>1</voice><type>quarter</type><dot/><stem default-y="5.5">up</stem><notations><tied type="stop"/></notations></note><note default-x="285"><pitch><step>C</step><octave>4</octave></pitch><duration>3</duration><voice>1</voice><type>eighth</type><stem default-y="-14">up</stem><lyric default-y="-88" number="1"><syllabic>single</syllabic><text font-size="12.8">for</text></lyric></note></measure><measure width="222" number="44"><harmony font-weight="bold" font-size="14.4" default-y="23"><root><root-step>B</root-step><root-alter>-1</root-alter></root><kind halign="center" text="">major</kind></harmony><note default-x="10"><pitch><step>D</step><octave>4</octave></pitch><duration>12</duration><voice>1</voice><type>half</type><stem default-y="-9">up</stem><lyric default-y="-88" number="1"><syllabic>single</syllabic><text font-size="12.8">I</text></lyric></note><harmony font-weight="bold" font-size="14.4" default-y="23"><root><root-step>C</root-step></root><kind halign="center" text="7">dominant</kind></harmony><note default-x="116"><pitch><step>E</step><octave>4</octave></pitch><duration>12</duration><voice>1</voice><type>half</type><stem default-y="-4.5">up</stem><lyric default-y="-88" number="1"><syllabic>single</syllabic><text font-size="12.8">can't</text></lyric></note></measure><measure width="296" number="45"><harmony font-weight="bold" font-size="14.4" default-y="23"><root><root-step>F</root-step></root><kind halign="center" text="">major</kind></harmony><note default-x="27"><pitch><step>F</step><octave>4</octave></pitch><duration>12</duration><voice>1</voice><type>half</type><stem default-y="1">up</stem><lyric default-y="-88" number="1"><syllabic>single</syllabic><text font-size="12.8">help</text></lyric></note><harmony font-weight="bold" font-size="14.4" default-y="28"><root><root-step>G</root-step></root><kind halign="center" use-symbols="yes">minor</kind></harmony><note default-x="139"><pitch><step>G</step><octave>4</octave></pitch><duration>4</duration><voice>1</voice><type>quarter</type><time-modification><actual-notes>3</actual-notes><normal-notes>2</normal-notes></time-modification><stem default-y="5.5">up</stem><notations><tuplet placement="above" type="start" number="1" bracket="yes"/></notations><lyric default-y="-88" number="1"><syllabic>begin</syllabic><text font-size="12.8">fall</text></lyric></note><note default-x="191"><pitch><step>A</step><octave>4</octave></pitch><duration>4</duration><voice>1</voice><type>quarter</type><time-modification><actual-notes>3</actual-notes><normal-notes>2</normal-notes></time-modification><stem default-y="11">up</stem><lyric default-y="-88" number="1"><syllabic>end</syllabic><text font-size="12.8">ing</text></lyric></note><note default-x="243"><pitch><step>B</step><alter>-1</alter><octave>4</octave></pitch><duration>4</duration><voice>1</voice><type>quarter</type><time-modification><actual-notes>3</actual-notes><normal-notes>2</normal-notes></time-modification><stem default-y="-55.5">down</stem><notations><tuplet type="stop" number="1"/></notations><lyric default-y="-88" number="1"><syllabic>single</syllabic><text font-size="12.8">in</text></lyric></note></measure><measure width="242" number="46"><harmony font-weight="bold" font-size="14.4" default-y="23"><root><root-step>F</root-step></root><kind halign="center" text="">major</kind></harmony><note default-x="27"><pitch><step>A</step><octave>4</octave></pitch><duration>12</duration><voice>1</voice><type>half</type><stem default-y="11">up</stem><lyric default-y="-88" number="1"><syllabic>single</syllabic><text font-size="12.8">love</text></lyric></note><harmony font-weight="bold" font-size="14.4" default-y="23"><root><root-step>C</root-step></root><kind halign="center" text="7">dominant</kind></harmony><note default-x="134"><pitch><step>G</step><octave>4</octave></pitch><duration>12</duration><voice>1</voice><type>half</type><stem default-y="5.5">up</stem><lyric default-y="-88" number="1"><syllabic>single</syllabic><text font-size="12.8">with</text></lyric></note></measure><measure width="411" number="47"><print new-system="yes"/><harmony font-weight="bold" font-size="14.4" default-y="23"><root><root-step>F</root-step></root><kind halign="center" text="">major</kind></harmony><note default-x="89"><pitch><step>F</step><octave>4</octave></pitch><duration>12</duration><tie type="start"/><voice>1</voice><type>half</type><stem default-y="0.5">up</stem><notations><tied type="start"/></notations><lyric default-y="-88" number="1"><syllabic>single</syllabic><text font-size="12.8">you</text></lyric></note><note default-x="235"><pitch><step>F</step><octave>4</octave></pitch><duration>9</duration><tie type="stop"/><voice>1</voice><type>quarter</type><dot/><stem default-y="0.5">up</stem><notations><tied type="stop"/></notations></note><note default-x="354"><pitch><step>C</step><octave>4</octave></pitch><duration>3</duration><voice>1</voice><type>eighth</type><stem default-y="-14">up</stem><lyric default-y="-88" number="1"><syllabic>single</syllabic><text font-size="12.8">for</text></lyric></note></measure><measure width="290" number="48"><harmony font-weight="bold" font-size="14.4" default-y="23"><root><root-step>B</root-step><root-alter>-1</root-alter></root><kind halign="center" text="">major</kind></harmony><note default-x="10"><pitch><step>D</step><octave>4</octave></pitch><duration>12</duration><voice>1</voice><type>half</type><stem default-y="-9.5">up</stem><lyric default-y="-88" number="1"><syllabic>single</syllabic><text font-size="12.8">I</text></lyric></note><harmony font-weight="bold" font-size="14.4" default-y="23"><root><root-step>C</root-step></root><kind halign="center" text="7">dominant</kind></harmony><note default-x="149"><pitch><step>E</step><octave>4</octave></pitch><duration>12</duration><voice>1</voice><type>half</type><stem default-y="-4">up</stem><lyric default-y="-88" number="1"><syllabic>single</syllabic><text font-size="12.8">can't</text></lyric></note></measure><measure width="387" number="49"><harmony font-weight="bold" font-size="14.4" default-y="23"><root><root-step>F</root-step></root><kind halign="center" text="">major</kind></harmony><note default-x="27"><pitch><step>F</step><octave>4</octave></pitch><duration>12</duration><voice>1</voice><type>half</type><stem default-y="0.5">up</stem><lyric default-y="-88" number="1"><syllabic>single</syllabic><text font-size="12.8">help</text></lyric></note><harmony font-weight="bold" font-size="14.4" default-y="28"><root><root-step>G</root-step></root><kind halign="center" use-symbols="yes">minor</kind></harmony><note default-x="176"><pitch><step>G</step><octave>4</octave></pitch><duration>4</duration><voice>1</voice><type>quarter</type><time-modification><actual-notes>3</actual-notes><normal-notes>2</normal-notes></time-modification><stem default-y="6">up</stem><notations><tuplet placement="above" type="start" number="1" bracket="yes"/></notations><lyric default-y="-88" number="1"><syllabic>begin</syllabic><text font-size="12.8">fall</text></lyric></note><note default-x="247"><pitch><step>A</step><octave>4</octave></pitch><duration>4</duration><voice>1</voice><type>quarter</type><time-modification><actual-notes>3</actual-notes><normal-notes>2</normal-notes></time-modification><stem default-y="11">up</stem><lyric default-y="-88" number="1"><syllabic>end</syllabic><text font-size="12.8">ing</text></lyric></note><note default-x="316"><pitch><step>B</step><alter>-1</alter><octave>4</octave></pitch><duration>4</duration><voice>1</voice><type>quarter</type><time-modification><actual-notes>3</actual-notes><normal-notes>2</normal-notes></time-modification><stem default-y="-55">down</stem><notations><tuplet type="stop" number="1"/></notations><lyric default-y="-88" number="1"><syllabic>single</syllabic><text font-size="12.8">in</text></lyric></note></measure><measure width="405" number="50"><print new-system="yes"/><harmony font-weight="bold" font-size="14.4" default-y="23"><root><root-step>F</root-step></root><kind halign="center" text="">major</kind></harmony><note default-x="93"><pitch><step>A</step><octave>4</octave></pitch><duration>12</duration><voice>1</voice><type>half</type><stem default-y="10.5">up</stem><lyric default-y="-88" number="1"><syllabic>single</syllabic><text font-size="12.8">love</text></lyric></note><harmony font-weight="bold" font-size="14.4" default-y="23"><root><root-step>C</root-step></root><kind halign="center" text="7">dominant</kind></harmony><note default-x="247"><pitch><step>G</step><octave>4</octave></pitch><duration>12</duration><voice>1</voice><type>half</type><stem default-y="6">up</stem><lyric default-y="-88" number="1"><syllabic>single</syllabic><text font-size="12.8">with</text></lyric></note></measure><measure width="372" number="51"><harmony font-weight="bold" font-size="14.4" default-y="23"><root><root-step>F</root-step></root><kind halign="center" text="">major</kind></harmony><note default-x="24"><pitch><step>F</step><octave>4</octave></pitch><duration>12</duration><tie type="start"/><voice>1</voice><type>half</type><stem default-y="1">up</stem><notations><tied type="start"/></notations><lyric default-y="-88" number="1"><syllabic>single</syllabic><text font-size="12.8">you</text></lyric></note><note default-x="182"><pitch><step>F</step><octave>4</octave></pitch><duration>9</duration><tie type="stop"/><voice>1</voice><type>quarter</type><dot/><stem default-y="1">up</stem><notations><tied type="stop"/></notations></note><note default-x="311"><pitch><step>C</step><octave>4</octave></pitch><duration>3</duration><voice>1</voice><type>eighth</type><stem default-y="-14.5">up</stem><lyric default-y="-88" number="1"><syllabic>single</syllabic><text font-size="12.8">for</text></lyric></note></measure><measure width="311" number="52"><harmony font-weight="bold" font-size="14.4" default-y="23"><root><root-step>B</root-step><root-alter>-1</root-alter></root><kind halign="center" text="">major</kind></harmony><note default-x="10"><pitch><step>D</step><octave>4</octave></pitch><duration>12</duration><voice>1</voice><type>half</type><stem default-y="-9">up</stem><lyric default-y="-88" number="1"><syllabic>single</syllabic><text font-size="12.8">I</text></lyric></note><harmony font-weight="bold" font-size="14.4" default-y="23"><root><root-step>C</root-step></root><kind halign="center" text="7">dominant</kind></harmony><note default-x="160"><pitch><step>E</step><octave>4</octave></pitch><duration>12</duration><voice>1</voice><type>half</type><stem default-y="-4.5">up</stem><lyric default-y="-88" number="1"><syllabic>single</syllabic><text font-size="12.8">can't</text></lyric></note></measure><measure width="448" number="53"><print new-system="yes"/><harmony font-weight="bold" font-size="14.4" default-y="23"><root><root-step>F</root-step></root><kind halign="center" text="">major</kind></harmony><note default-x="91"><pitch><step>F</step><octave>4</octave></pitch><duration>12</duration><voice>1</voice><type>half</type><stem default-y="1">up</stem><lyric default-y="-88" number="1"><syllabic>single</syllabic><text font-size="12.8">help</text></lyric></note><harmony font-weight="bold" font-size="14.4" default-y="28"><root><root-step>G</root-step></root><kind halign="center" use-symbols="yes">minor</kind></harmony><note default-x="239"><pitch><step>G</step><octave>4</octave></pitch><duration>4</duration><voice>1</voice><type>quarter</type><time-modification><actual-notes>3</actual-notes><normal-notes>2</normal-notes></time-modification><stem default-y="5.5">up</stem><notations><tuplet placement="above" type="start" number="1" bracket="yes"/></notations><lyric default-y="-88" number="1"><syllabic>begin</syllabic><text font-size="12.8">fall</text></lyric></note><note default-x="308"><pitch><step>A</step><octave>4</octave></pitch><duration>4</duration><voice>1</voice><type>quarter</type><time-modification><actual-notes>3</actual-notes><normal-notes>2</normal-notes></time-modification><stem default-y="11">up</stem><lyric default-y="-88" number="1"><syllabic>end</syllabic><text font-size="12.8">ing</text></lyric></note><note default-x="378"><pitch><step>B</step><alter>-1</alter><octave>4</octave></pitch><duration>4</duration><voice>1</voice><type>quarter</type><time-modification><actual-notes>3</actual-notes><normal-notes>2</normal-notes></time-modification><stem default-y="-55.5">down</stem><notations><tuplet type="stop" number="1"/></notations><lyric default-y="-88" number="1"><syllabic>single</syllabic><text font-size="12.8">in</text></lyric></note></measure><measure width="314" number="54"><harmony font-weight="bold" font-size="14.4" default-y="23"><root><root-step>F</root-step></root><kind halign="center" text="">major</kind></harmony><note default-x="28"><pitch><step>A</step><octave>4</octave></pitch><duration>12</duration><voice>1</voice><type>half</type><stem default-y="11">up</stem><lyric default-y="-88" number="1"><syllabic>single</syllabic><text font-size="12.8">love</text></lyric></note><harmony font-weight="bold" font-size="14.4" default-y="23"><root><root-step>C</root-step></root><kind halign="center" text="7">dominant</kind></harmony><note default-x="170"><pitch><step>G</step><octave>4</octave></pitch><duration>12</duration><voice>1</voice><type>half</type><stem default-y="5.5">up</stem><lyric default-y="-88" number="1"><syllabic>single</syllabic><text font-size="12.8">with</text></lyric></note></measure><measure width="326" number="55"><harmony font-weight="bold" font-size="14.4" default-y="23"><root><root-step>F</root-step></root><kind halign="center" text="">major</kind></harmony><note default-x="28"><pitch><step>F</step><octave>4</octave></pitch><duration>12</duration><voice>1</voice><type>half</type><stem default-y="1">up</stem><lyric default-y="-88" number="1"><syllabic>single</syllabic><text font-size="12.8">you.</text></lyric></note><note default-x="170"><rest/><duration>12</duration><voice>1</voice><type>half</type></note><barline location="right"><bar-style>light-heavy</bar-style></barline></measure></part></score-partwise>