<score-partwise version="2.0"><work><work-number/><work-title/></work><movement-number/><movement-title>Chattanooga Choo-Choo</movement-title><identification><creator type="composer">Harry Warren</creator><creator type="poet">Mack Gordon</creator><rights>All Rights Reserved</rights><encoding><software>MuseScore 0.9.5</software><encoding-date>2009-07-04</encoding-date><software>ProxyMusic 2.0 c</software></encoding><source>http://www.wikifonia.org/node/2123/revisions/2712/view</source></identification><defaults><scaling><millimeters>7.05556</millimeters><tenths>40</tenths></scaling><page-layout><page-height>1870.87</page-height><page-width>1322.83</page-width><page-margins type="both"><left-margin>62.9921</left-margin><right-margin>62.9921</right-margin><top-margin>62.9921</top-margin><bottom-margin>125.984</bottom-margin></page-margins></page-layout></defaults><credit page="1"><credit-words font-size="24" default-y="1807.87" default-x="661.417" justify="center" valign="top">Chattanooga Choo-Choo</credit-words></credit><credit page="1"><credit-words font-size="12" default-y="1729.56" default-x="1259.84" justify="right" valign="top">Harry Warren</credit-words></credit><credit page="1"><credit-words font-size="12" default-y="1729.56" default-x="62.9921" justify="left" valign="top">Mack Gordon</credit-words></credit><part-list><score-part id="P1"><part-name/><score-instrument id="P1-I3"><instrument-name/></score-instrument><midi-instrument id="P1-I3"><midi-channel>1</midi-channel><midi-program>0</midi-program></midi-instrument></score-part></part-list><part id="P1"><measure number="1"><attributes><divisions>480</divisions><key><fifths>0</fifths><mode>major</mode></key><time><beats>4</beats><beat-type>4</beat-type></time><clef><sign>G</sign><line>2</line></clef></attributes><note><pitch><step>C</step><octave>4</octave></pitch><duration>360</duration><voice>1</voice><type>eighth</type><dot/><stem>up</stem><beam number="1">begin</beam></note><note><pitch><step>G</step><octave>4</octave></pitch><duration>120</duration><voice>1</voice><type>16th</type><stem>up</stem><beam number="1">continue</beam></note><note><pitch><step>A</step><octave>4</octave></pitch><duration>360</duration><voice>1</voice><type>eighth</type><dot/><stem>up</stem><beam number="1">continue</beam></note><harmony print-frame="no"><root><root-step>A</root-step></root><kind text="m7">minor-seventh</kind></harmony><note><pitch><step>G</step><octave>3</octave></pitch><duration>120</duration><tie type="start"/><voice>1</voice><type>16th</type><stem>up</stem><beam number="1">end</beam><notations><tied type="start"/></notations></note><note><pitch><step>G</step><octave>3</octave></pitch><duration>360</duration><tie type="stop"/><voice>1</voice><type>eighth</type><dot/><stem>up</stem><beam number="1">begin</beam><notations><tied type="stop"/></notations></note><note><pitch><step>G</step><octave>4</octave></pitch><duration>120</duration><voice>1</voice><type>16th</type><stem>up</stem><beam number="1">continue</beam></note><note><pitch><step>A</step><octave>4</octave></pitch><duration>360</duration><voice>1</voice><type>eighth</type><dot/><stem>up</stem><beam number="1">continue</beam></note><note><pitch><step>G</step><octave>4</octave></pitch><duration>120</duration><voice>1</voice><type>16th</type><stem>up</stem><beam number="1">end</beam></note></measure><measure number="2"><note><pitch><step>C</step><octave>4</octave></pitch><duration>360</duration><voice>1</voice><type>eighth</type><dot/><stem>up</stem><beam number="1">begin</beam></note><note><pitch><step>G</step><octave>4</octave></pitch><duration>120</duration><voice>1</voice><type>16th</type><stem>up</stem><beam number="1">continue</beam></note><note><pitch><step>A</step><octave>4</octave></pitch><duration>360</duration><voice>1</voice><type>eighth</type><dot/><stem>up</stem><beam number="1">end</beam></note><harmony print-frame="no"><root><root-step>A</root-step></root><kind text="m7">minor-seventh</kind></harmony><note><pitch><step>G</step><octave>3</octave></pitch><duration>120</duration><tie type="start"/><voice>1</voice><type>16th</type><stem>up</stem><notations><tied type="start"/></notations></note><note><pitch><step>G</step><octave>3</octave></pitch><duration>360</duration><tie type="stop"/><voice>1</voice><type>eighth</type><dot/><stem>up</stem><beam number="1">begin</beam><notations><tied type="stop"/></notations></note><harmony print-frame="no"><root><root-step>A</root-step></root><kind text="m7">minor-seventh</kind></harmony><note><pitch><step>G</step><octave>4</octave></pitch><duration>120</duration><voice>1</voice><type>16th</type><stem>up</stem><beam number="1">continue</beam></note><note><pitch><step>A</step><octave>4</octave></pitch><duration>360</duration><voice>1</voice><type>eighth</type><dot/><stem>up</stem><beam number="1">continue</beam></note><note><pitch><step>G</step><octave>4</octave></pitch><duration>120</duration><voice>1</voice><type>16th</type><stem>up</stem><beam number="1">end</beam></note></measure><measure number="3"><note><pitch><step>C</step><octave>4</octave></pitch><duration>360</duration><voice>1</voice><type>eighth</type><dot/><stem>up</stem><beam number="1">begin</beam></note><note><pitch><step>G</step><octave>4</octave></pitch><duration>120</duration><voice>1</voice><type>16th</type><stem>up</stem><beam number="1">continue</beam></note><note><pitch><step>A</step><octave>4</octave></pitch><duration>360</duration><voice>1</voice><type>eighth</type><dot/><stem>up</stem><beam number="1">end</beam></note><harmony print-frame="no"><root><root-step>A</root-step></root><kind text="m7">minor-seventh</kind></harmony><note><pitch><step>G</step><octave>3</octave></pitch><duration>120</duration><tie type="start"/><voice>1</voice><type>16th</type><stem>up</stem><notations><tied type="start"/></notations></note><note><pitch><step>G</step><octave>3</octave></pitch><duration>360</duration><tie type="stop"/><voice>1</voice><type>eighth</type><dot/><stem>up</stem><beam number="1">begin</beam><notations><tied type="stop"/></notations></note><note><pitch><step>G</step><octave>4</octave></pitch><duration>120</duration><voice>1</voice><type>16th</type><stem>up</stem><beam number="1">continue</beam></note><note><pitch><step>A</step><octave>4</octave></pitch><duration>360</duration><voice>1</voice><type>eighth</type><dot/><stem>up</stem><beam number="1">continue</beam></note><note><pitch><step>G</step><octave>4</octave></pitch><duration>120</duration><voice>1</voice><type>16th</type><stem>up</stem><beam number="1">end</beam></note></measure><measure number="4"><note><pitch><step>C</step><octave>4</octave></pitch><duration>360</duration><voice>1</voice><type>eighth</type><dot/><stem>up</stem><beam number="1">begin</beam></note><note><pitch><step>G</step><octave>4</octave></pitch><duration>120</duration><voice>1</voice><type>16th</type><stem>up</stem><beam number="1">continue</beam></note><note><pitch><step>A</step><octave>4</octave></pitch><duration>360</duration><voice>1</voice><type>eighth</type><dot/><stem>up</stem><beam number="1">end</beam></note><harmony print-frame="no"><root><root-step>A</root-step></root><kind text="m7">minor-seventh</kind></harmony><note><pitch><step>G</step><octave>3</octave></pitch><duration>120</duration><tie type="start"/><voice>1</voice><type>16th</type><stem>up</stem><notations><tied type="start"/></notations></note><note><pitch><step>G</step><octave>3</octave></pitch><duration>360</duration><tie type="stop"/><voice>1</voice><type>eighth</type><dot/><stem>up</stem><beam number="1">begin</beam><notations><tied type="stop"/></notations></note><harmony print-frame="no"><root><root-step>A</root-step></root><kind text="m7">minor-seventh</kind></harmony><note><pitch><step>G</step><octave>4</octave></pitch><duration>120</duration><voice>1</voice><type>16th</type><stem>up</stem><beam number="1">continue</beam></note><note><pitch><step>A</step><octave>4</octave></pitch><duration>360</duration><voice>1</voice><type>eighth</type><dot/><stem>up</stem><beam number="1">continue</beam></note><note><pitch><step>G</step><octave>4</octave></pitch><duration>120</duration><voice>1</voice><type>16th</type><stem>up</stem><beam number="1">end</beam></note><barline location="right"><bar-style>light-light</bar-style></barline></measure><measure number="5"><print new-system="yes"/><barline location="left"><bar-style>heavy-light</bar-style><repeat direction="forward"/></barline><harmony print-frame="no"><root><root-step>C</root-step></root><kind text="">major</kind></harmony><note><pitch><step>E</step><octave>4</octave></pitch><duration>360</duration><voice>1</voice><type>eighth</type><dot/><stem>up</stem><beam number="1">begin</beam><lyric number="1"><syllabic>begin</syllabic><text>Par</text></lyric></note><note><pitch><step>F</step><octave>4</octave></pitch><duration>120</duration><voice>1</voice><type>16th</type><stem>up</stem><beam number="1">continue</beam><lyric number="1"><syllabic>end</syllabic><text>don</text></lyric></note><harmony print-frame="no"><root><root-step>C</root-step></root><kind text="dim">diminished</kind></harmony><note><pitch><step>F</step><alter>1</alter><octave>4</octave></pitch><duration>360</duration><voice>1</voice><type>eighth</type><dot/><accidental>sharp</accidental><stem>up</stem><beam number="1">continue</beam><lyric number="1"><syllabic>single</syllabic><text>me</text></lyric></note><note><pitch><step>G</step><octave>4</octave></pitch><duration>120</duration><tie type="start"/><voice>1</voice><type>16th</type><stem>up</stem><beam number="1">end</beam><notations><tied type="start"/></notations><lyric number="1"><syllabic>single</syllabic><text>boy</text><extend/></lyric></note><harmony print-frame="no"><root><root-step>C</root-step></root><kind text="6">major-sixth</kind></harmony><note><pitch><step>G</step><octave>4</octave></pitch><duration>960</duration><tie type="stop"/><tie type="start"/><voice>1</voice><type>half</type><stem>up</stem><notations><tied type="stop"/><tied type="start"/></notations></note></measure><measure number="6"><note><pitch><step>G</step><octave>4</octave></pitch><duration>360</duration><tie type="stop"/><voice>1</voice><type>eighth</type><dot/><stem>up</stem><beam number="1">begin</beam><notations><tied type="stop"/></notations></note><note><pitch><step>G</step><octave>4</octave></pitch><duration>120</duration><voice>1</voice><type>16th</type><stem>up</stem><beam number="1">continue</beam><lyric number="1"><syllabic>single</syllabic><text>is</text></lyric></note><note><pitch><step>A</step><octave>4</octave></pitch><duration>360</duration><voice>1</voice><type>eighth</type><dot/><stem>up</stem><beam number="1">continue</beam><lyric number="1"><syllabic>single</syllabic><text>that</text></lyric></note><note><pitch><step>B</step><octave>4</octave></pitch><duration>120</duration><voice>1</voice><type>16th</type><stem>up</stem><beam number="1">end</beam><lyric number="1"><syllabic>single</syllabic><text>the</text></lyric></note><note><pitch><step>C</step><octave>5</octave></pitch><duration>360</duration><voice>1</voice><type>eighth</type><dot/><stem>down</stem><beam number="1">begin</beam><lyric number="1"><syllabic>begin</syllabic><text>Chat</text></lyric></note><note><pitch><step>D</step><octave>5</octave></pitch><duration>120</duration><voice>1</voice><type>16th</type><stem>down</stem><beam number="1">continue</beam><lyric number="1"><syllabic>middle</syllabic><text>ta</text></lyric></note><note><pitch><step>C</step><octave>5</octave></pitch><duration>360</duration><voice>1</voice><type>eighth</type><dot/><stem>down</stem><beam number="1">continue</beam><lyric number="1"><syllabic>middle</syllabic><text>noo</text></lyric></note><note><pitch><step>E</step><octave>4</octave></pitch><duration>120</duration><voice>1</voice><type>16th</type><stem>down</stem><beam number="1">end</beam><lyric number="1"><syllabic>end</syllabic><text>ga</text></lyric></note></measure><measure number="7"><note><pitch><step>A</step><octave>4</octave></pitch><duration>240</duration><voice>1</voice><type>eighth</type><stem>up</stem><lyric number="1"><syllabic>begin</syllabic><text>Choo</text></lyric></note><note><pitch><step>G</step><octave>4</octave></pitch><duration>720</duration><tie type="start"/><voice>1</voice><type>quarter</type><dot/><stem>up</stem><notations><tied type="start"/></notations><lyric number="1"><syllabic>end</syllabic><text>choo</text><extend/></lyric></note><note><pitch><step>G</step><octave>4</octave></pitch><duration>960</duration><tie type="stop"/><tie type="start"/><voice>1</voice><type>half</type><stem>up</stem><notations><tied type="stop"/><tied type="start"/></notations></note></measure><measure number="8"><note><pitch><step>G</step><octave>4</octave></pitch><duration>480</duration><tie type="stop"/><voice>1</voice><type>quarter</type><stem>up</stem><notations><tied type="stop"/></notations></note><note><rest/><duration>360</duration><voice>1</voice><type>eighth</type><dot/></note><note><pitch><step>A</step><octave>4</octave></pitch><duration>120</duration><tie type="start"/><voice>1</voice><type>16th</type><stem>up</stem><notations><tied type="start"/></notations><lyric number="1"><syllabic>single</syllabic><text>Track</text><extend/></lyric></note><note><pitch><step>A</step><octave>4</octave></pitch><duration>360</duration><tie type="stop"/><voice>1</voice><type>eighth</type><dot/><stem>up</stem><beam number="1">begin</beam><notations><tied type="stop"/></notations></note><note><pitch><step>G</step><octave>4</octave></pitch><duration>120</duration><voice>1</voice><type>16th</type><stem>up</stem><beam number="1">continue</beam><lyric number="1"><syllabic>begin</syllabic><text>twen</text></lyric></note><note><pitch><step>E</step><octave>4</octave></pitch><duration>360</duration><voice>1</voice><type>eighth</type><dot/><stem>up</stem><beam number="1">continue</beam><lyric number="1"><syllabic>end</syllabic><text>ty</text></lyric></note><note><pitch><step>D</step><octave>4</octave></pitch><duration>120</duration><tie type="start"/><voice>1</voice><type>16th</type><stem>up</stem><beam number="1">end</beam><notations><tied type="start"/></notations><lyric number="1"><syllabic>single</syllabic><text>nine</text><extend/></lyric></note></measure><measure number="9"><print new-system="yes"/><harmony print-frame="no"><root><root-step>D</root-step></root><kind text="m7">minor-seventh</kind></harmony><note><pitch><step>D</step><octave>4</octave></pitch><duration>960</duration><tie type="stop"/><tie type="start"/><voice>1</voice><type>half</type><stem>up</stem><notations><tied type="stop"/><tied type="start"/></notations></note><harmony print-frame="no"><root><root-step>G</root-step></root><kind text="7">dominant</kind></harmony><note><pitch><step>D</step><octave>4</octave></pitch><duration>960</duration><tie type="stop"/><voice>1</voice><type>half</type><stem>up</stem><notations><tied type="stop"/></notations></note></measure><measure number="10"><harmony print-frame="no"><root><root-step>G</root-step></root><kind text="9">dominant-ninth</kind></harmony><note><rest/><duration>240</duration><voice>1</voice><type>eighth</type></note><note><pitch><step>A</step><octave>4</octave></pitch><duration>240</duration><voice>1</voice><type>eighth</type><stem>up</stem><beam number="1">begin</beam><lyric number="1"><syllabic>single</syllabic><text>Boy</text></lyric></note><note><pitch><step>A</step><octave>4</octave></pitch><duration>240</duration><voice>1</voice><type>eighth</type><stem>up</stem><beam number="1">continue</beam><lyric number="1"><syllabic>single</syllabic><text>you</text></lyric></note><note><pitch><step>A</step><octave>4</octave></pitch><duration>240</duration><voice>1</voice><type>eighth</type><stem>up</stem><beam number="1">end</beam><lyric number="1"><syllabic>single</syllabic><text>can</text></lyric></note><note><pitch><step>A</step><octave>4</octave></pitch><duration>240</duration><voice>1</voice><type>eighth</type><stem>up</stem><beam number="1">begin</beam><lyric number="1"><syllabic>begin</syllabic><text>gim</text></lyric></note><note><pitch><step>G</step><octave>4</octave></pitch><duration>240</duration><voice>1</voice><type>eighth</type><stem>up</stem><beam number="1">continue</beam><lyric number="1"><syllabic>end</syllabic><text>me</text></lyric></note><note><pitch><step>E</step><octave>4</octave></pitch><duration>240</duration><voice>1</voice><type>eighth</type><stem>up</stem><beam number="1">continue</beam><lyric number="1"><syllabic>single</syllabic><text>a</text></lyric></note><note><pitch><step>C</step><octave>4</octave></pitch><duration>240</duration><tie type="start"/><voice>1</voice><type>eighth</type><stem>up</stem><beam number="1">end</beam><notations><tied type="start"/></notations><lyric number="1"><syllabic>single</syllabic><text>shine</text><extend/></lyric></note></measure><measure number="11"><harmony print-frame="no"><root><root-step>C</root-step></root><kind text="">major</kind></harmony><note><pitch><step>C</step><octave>4</octave></pitch><duration>1920</duration><tie type="stop"/><tie type="start"/><voice>1</voice><type>whole</type><notations><tied type="stop"/><tied type="start"/></notations></note></measure><measure number="12"><note><pitch><step>C</step><octave>4</octave></pitch><duration>480</duration><tie type="stop"/><voice>1</voice><type>quarter</type><stem>up</stem><notations><tied type="stop"/></notations></note><note><rest/><duration>480</duration><voice>1</voice><type>quarter</type></note><note><rest/><duration>960</duration><voice>1</voice><type>half</type></note></measure><measure number="13"><print new-system="yes"/><note><pitch><step>E</step><octave>4</octave></pitch><duration>360</duration><voice>1</voice><type>eighth</type><dot/><stem>up</stem><beam number="1">begin</beam><lyric number="1"><syllabic>single</syllabic><text>I</text></lyric></note><note><pitch><step>F</step><octave>4</octave></pitch><duration>120</duration><voice>1</voice><type>16th</type><stem>up</stem><beam number="1">continue</beam><lyric number="1"><syllabic>single</syllabic><text>can</text></lyric></note><harmony print-frame="no"><root><root-step>C</root-step></root><kind text="dim">diminished</kind></harmony><note><pitch><step>F</step><alter>1</alter><octave>4</octave></pitch><duration>360</duration><voice>1</voice><type>eighth</type><dot/><accidental>sharp</accidental><stem>up</stem><beam number="1">end</beam><lyric number="1"><syllabic>begin</syllabic><text>af</text></lyric></note><note><pitch><step>G</step><octave>4</octave></pitch><duration>120</duration><tie type="start"/><voice>1</voice><type>16th</type><stem>up</stem><notations><tied type="start"/></notations><lyric number="1"><syllabic>end</syllabic><text>ford</text><extend/></lyric></note><harmony print-frame="no"><root><root-step>C</root-step></root><kind text="6">major-sixth</kind></harmony><note><pitch><step>G</step><octave>4</octave></pitch><duration>960</duration><tie type="stop"/><tie type="start"/><voice>1</voice><type>half</type><stem>up</stem><notations><tied type="stop"/><tied type="start"/></notations></note></measure><measure number="14"><note><pitch><step>G</step><octave>4</octave></pitch><duration>360</duration><tie type="stop"/><voice>1</voice><type>eighth</type><dot/><stem>up</stem><beam number="1">begin</beam><notations><tied type="stop"/></notations></note><note><pitch><step>G</step><octave>4</octave></pitch><duration>120</duration><voice>1</voice><type>16th</type><stem>up</stem><beam number="1">continue</beam><lyric number="1"><syllabic>single</syllabic><text>to</text></lyric></note><note><pitch><step>A</step><octave>4</octave></pitch><duration>360</duration><voice>1</voice><type>eighth</type><dot/><stem>up</stem><beam number="1">continue</beam><lyric number="1"><syllabic>single</syllabic><text>board</text></lyric></note><note><pitch><step>B</step><octave>4</octave></pitch><duration>120</duration><voice>1</voice><type>16th</type><stem>up</stem><beam number="1">end</beam><lyric number="1"><syllabic>single</syllabic><text>a</text></lyric></note><note><pitch><step>C</step><octave>5</octave></pitch><duration>360</duration><voice>1</voice><type>eighth</type><dot/><stem>down</stem><beam number="1">begin</beam><lyric number="1"><syllabic>begin</syllabic><text>Chat</text></lyric></note><note><pitch><step>D</step><octave>5</octave></pitch><duration>120</duration><voice>1</voice><type>16th</type><stem>down</stem><beam number="1">continue</beam><lyric number="1"><syllabic>middle</syllabic><text>ta</text></lyric></note><note><pitch><step>C</step><octave>5</octave></pitch><duration>360</duration><voice>1</voice><type>eighth</type><dot/><stem>down</stem><beam number="1">continue</beam><lyric number="1"><syllabic>middle</syllabic><text>noo</text></lyric></note><note><pitch><step>E</step><octave>4</octave></pitch><duration>120</duration><voice>1</voice><type>16th</type><stem>down</stem><beam number="1">end</beam><lyric number="1"><syllabic>end</syllabic><text>ga</text></lyric></note></measure><measure number="15"><note><pitch><step>A</step><octave>4</octave></pitch><duration>240</duration><voice>1</voice><type>eighth</type><stem>up</stem><lyric number="1"><syllabic>begin</syllabic><text>Choo</text></lyric></note><note><pitch><step>G</step><octave>4</octave></pitch><duration>720</duration><tie type="start"/><voice>1</voice><type>quarter</type><dot/><stem>up</stem><notations><tied type="start"/></notations><lyric number="1"><syllabic>end</syllabic><text>choo</text><extend/></lyric></note><note><pitch><step>G</step><octave>4</octave></pitch><duration>960</duration><tie type="stop"/><tie type="start"/><voice>1</voice><type>half</type><stem>up</stem><notations><tied type="stop"/><tied type="start"/></notations></note></measure><measure number="16"><note><pitch><step>G</step><octave>4</octave></pitch><duration>480</duration><tie type="stop"/><voice>1</voice><type>quarter</type><stem>up</stem><notations><tied type="stop"/></notations></note><note><rest/><duration>360</duration><voice>1</voice><type>eighth</type><dot/></note><note><pitch><step>A</step><octave>4</octave></pitch><duration>120</duration><tie type="start"/><voice>1</voice><type>16th</type><stem>up</stem><notations><tied type="start"/></notations><lyric number="1"><syllabic>single</syllabic><text>I've</text><extend/></lyric></note><note><pitch><step>A</step><octave>4</octave></pitch><duration>360</duration><tie type="stop"/><voice>1</voice><type>eighth</type><dot/><stem>up</stem><beam number="1">begin</beam><notations><tied type="stop"/></notations></note><note><pitch><step>G</step><octave>4</octave></pitch><duration>120</duration><voice>1</voice><type>16th</type><stem>up</stem><beam number="1">continue</beam><lyric number="1"><syllabic>single</syllabic><text>got</text></lyric></note><note><pitch><step>E</step><octave>4</octave></pitch><duration>360</duration><voice>1</voice><type>eighth</type><dot/><stem>up</stem><beam number="1">continue</beam><lyric number="1"><syllabic>single</syllabic><text>my</text></lyric></note><note><pitch><step>D</step><octave>4</octave></pitch><duration>120</duration><tie type="start"/><voice>1</voice><type>16th</type><stem>up</stem><beam number="1">end</beam><notations><tied type="start"/></notations><lyric number="1"><syllabic>single</syllabic><text>fare</text><extend/></lyric></note></measure><measure number="17"><print new-system="yes"/><harmony print-frame="no"><root><root-step>D</root-step></root><kind text="m7">minor-seventh</kind></harmony><note><pitch><step>D</step><octave>4</octave></pitch><duration>960</duration><tie type="stop"/><tie type="start"/><voice>1</voice><type>half</type><stem>up</stem><notations><tied type="stop"/><tied type="start"/></notations></note><harmony print-frame="no"><root><root-step>G</root-step></root><kind text="7">dominant</kind></harmony><note><pitch><step>D</step><octave>4</octave></pitch><duration>960</duration><tie type="stop"/><voice>1</voice><type>half</type><stem>up</stem><notations><tied type="stop"/></notations></note></measure><measure number="18"><harmony print-frame="no"><root><root-step>G</root-step></root><kind text="9">dominant-ninth</kind></harmony><note><rest/><duration>240</duration><voice>1</voice><type>eighth</type></note><note><pitch><step>A</step><octave>4</octave></pitch><duration>240</duration><voice>1</voice><type>eighth</type><stem>up</stem><beam number="1">begin</beam><lyric number="1"><syllabic>single</syllabic><text>and</text></lyric></note><note><pitch><step>A</step><octave>4</octave></pitch><duration>240</duration><voice>1</voice><type>eighth</type><stem>up</stem><beam number="1">continue</beam><lyric number="1"><syllabic>single</syllabic><text>just</text></lyric></note><note><pitch><step>A</step><octave>4</octave></pitch><duration>240</duration><voice>1</voice><type>eighth</type><stem>up</stem><beam number="1">end</beam><lyric number="1"><syllabic>single</syllabic><text>a</text></lyric></note><note><pitch><step>A</step><octave>4</octave></pitch><duration>240</duration><voice>1</voice><type>eighth</type><stem>up</stem><beam number="1">begin</beam><lyric number="1"><syllabic>begin</syllabic><text>tri</text></lyric></note><note><pitch><step>G</step><octave>4</octave></pitch><duration>240</duration><voice>1</voice><type>eighth</type><stem>up</stem><beam number="1">continue</beam><lyric number="1"><syllabic>end</syllabic><text>fle</text></lyric></note><note><pitch><step>E</step><octave>4</octave></pitch><duration>240</duration><voice>1</voice><type>eighth</type><stem>up</stem><beam number="1">continue</beam><lyric number="1"><syllabic>single</syllabic><text>to</text></lyric></note><note><pitch><step>C</step><octave>4</octave></pitch><duration>240</duration><tie type="start"/><voice>1</voice><type>eighth</type><stem>up</stem><beam number="1">end</beam><notations><tied type="start"/></notations><lyric number="1"><syllabic>single</syllabic><text>spare</text><extend/></lyric></note></measure><measure number="19"><harmony print-frame="no"><root><root-step>C</root-step></root><kind text="">major</kind></harmony><note><pitch><step>C</step><octave>4</octave></pitch><duration>1920</duration><tie type="stop"/><tie type="start"/><voice>1</voice><type>whole</type><notations><tied type="stop"/><tied type="start"/></notations></note></measure><measure number="20"><note><pitch><step>C</step><octave>4</octave></pitch><duration>480</duration><tie type="stop"/><voice>1</voice><type>quarter</type><stem>up</stem><notations><tied type="stop"/></notations></note><note><rest/><duration>240</duration><voice>1</voice><type>eighth</type></note><harmony print-frame="no"><root><root-step>C</root-step></root><kind text="7">dominant</kind></harmony><note><pitch><step>C</step><octave>5</octave></pitch><duration>480</duration><voice>1</voice><type>quarter</type><stem>down</stem><lyric number="1"><syllabic>single</syllabic><text>you</text></lyric></note><harmony print-frame="no"><root><root-step>B</root-step><root-alter>-1</root-alter></root><kind text="">major</kind></harmony><note><pitch><step>C</step><octave>5</octave></pitch><duration>480</duration><voice>1</voice><type>quarter</type><stem>down</stem><lyric number="1"><syllabic>single</syllabic><text>leave</text></lyric></note><harmony print-frame="no"><root><root-step>C</root-step></root><kind text="7">dominant</kind></harmony><note><pitch><step>C</step><octave>5</octave></pitch><duration>240</duration><tie type="start"/><voice>1</voice><type>eighth</type><stem>down</stem><notations><tied type="start"/></notations><lyric number="1"><syllabic>single</syllabic><text>the</text></lyric></note></measure><measure number="21"><print new-system="yes"/><harmony print-frame="no"><root><root-step>F</root-step></root><kind text="">major</kind></harmony><note><pitch><step>C</step><octave>5</octave></pitch><duration>360</duration><tie type="stop"/><voice>1</voice><type>eighth</type><dot/><stem>up</stem><beam number="1">begin</beam><notations><tied type="stop"/></notations><lyric number="1"><syllabic>single</syllabic><text>Penn</text></lyric></note><note><pitch><step>A</step><octave>4</octave></pitch><duration>120</duration><voice>1</voice><type>16th</type><stem>up</stem><beam number="1">continue</beam><lyric number="1"><syllabic>begin</syllabic><text>syl</text></lyric></note><note><pitch><step>F</step><octave>4</octave></pitch><duration>360</duration><voice>1</voice><type>eighth</type><dot/><stem>up</stem><beam number="1">continue</beam><lyric number="1"><syllabic>middle</syllabic><text>va</text></lyric></note><note><pitch><step>C</step><octave>4</octave></pitch><duration>120</duration><voice>1</voice><type>16th</type><stem>up</stem><beam number="1">end</beam><lyric number="1"><syllabic>end</syllabic><text>nia</text></lyric></note><harmony print-frame="no"><root><root-step>C</root-step></root><kind text="7">dominant</kind></harmony><note><pitch><step>B</step><alter>-1</alter><octave>4</octave></pitch><duration>360</duration><voice>1</voice><type>eighth</type><dot/><accidental>flat</accidental><stem>up</stem><beam number="1">begin</beam><lyric number="1"><syllabic>begin</syllabic><text>sta</text></lyric></note><note><pitch><step>G</step><octave>4</octave></pitch><duration>120</duration><voice>1</voice><type>16th</type><stem>up</stem><beam number="1">continue</beam><lyric number="1"><syllabic>end</syllabic><text>tion</text></lyric></note><note><pitch><step>E</step><octave>4</octave></pitch><duration>360</duration><voice>1</voice><type>eighth</type><dot/><stem>up</stem><beam number="1">continue</beam><lyric number="1"><syllabic>single</syllabic><text>'bout</text></lyric></note><note><pitch><step>C</step><octave>4</octave></pitch><duration>120</duration><voice>1</voice><type>16th</type><stem>up</stem><beam number="1">end</beam><lyric number="1"><syllabic>single</syllabic><text>a</text></lyric></note></measure><measure number="22"><harmony print-frame="no"><root><root-step>F</root-step></root><kind text="">major</kind></harmony><note><pitch><step>F</step><octave>4</octave></pitch><duration>360</duration><voice>1</voice><type>eighth</type><dot/><stem>up</stem><beam number="1">begin</beam><lyric number="1"><syllabic>begin</syllabic><text>quar</text></lyric></note><note><pitch><step>G</step><octave>4</octave></pitch><duration>120</duration><voice>1</voice><type>16th</type><stem>up</stem><beam number="1">continue</beam><lyric number="1"><syllabic>end</syllabic><text>ter</text></lyric></note><note><pitch><step>A</step><octave>4</octave></pitch><duration>360</duration><voice>1</voice><type>eighth</type><dot/><stem>up</stem><beam number="1">continue</beam><lyric number="1"><syllabic>single</syllabic><text>to</text></lyric></note><note><pitch><step>C</step><octave>5</octave></pitch><duration>120</duration><tie type="start"/><voice>1</voice><type>16th</type><stem>up</stem><beam number="1">end</beam><notations><tied type="start"/></notations><lyric number="1"><syllabic>single</syllabic><text>four,</text><extend/></lyric></note><harmony print-frame="no"><root><root-step>G</root-step></root><kind text="m7">minor-seventh</kind></harmony><note><pitch><step>C</step><octave>5</octave></pitch><duration>720</duration><tie type="stop"/><voice>1</voice><type>quarter</type><dot/><stem>down</stem><notations><tied type="stop"/></notations></note><harmony print-frame="no"><root><root-step>C</root-step></root><kind text="7">dominant</kind></harmony><note><pitch><step>C</step><octave>5</octave></pitch><duration>240</duration><tie type="start"/><voice>1</voice><type>eighth</type><stem>down</stem><notations><tied type="start"/></notations><lyric number="1"><syllabic>single</syllabic><text>read</text><extend/></lyric></note></measure><measure number="23"><harmony print-frame="no"><root><root-step>F</root-step></root><kind text="">major</kind></harmony><note><pitch><step>C</step><octave>5</octave></pitch><duration>360</duration><tie type="stop"/><voice>1</voice><type>eighth</type><dot/><stem>up</stem><beam number="1">begin</beam><notations><tied type="stop"/></notations></note><note><pitch><step>A</step><octave>4</octave></pitch><duration>120</duration><voice>1</voice><type>16th</type><stem>up</stem><beam number="1">continue</beam><lyric number="1"><syllabic>single</syllabic><text>a</text></lyric></note><note><pitch><step>F</step><octave>4</octave></pitch><duration>360</duration><voice>1</voice><type>eighth</type><dot/><stem>up</stem><beam number="1">continue</beam><lyric number="1"><syllabic>begin</syllabic><text>mag</text></lyric></note><note><pitch><step>C</step><octave>4</octave></pitch><duration>120</duration><voice>1</voice><type>16th</type><stem>up</stem><beam number="1">end</beam><lyric number="1"><syllabic>middle</syllabic><text>a</text></lyric></note><harmony print-frame="no"><root><root-step>C</root-step></root><kind text="7">dominant</kind></harmony><note><pitch><step>B</step><alter>-1</alter><octave>4</octave></pitch><duration>360</duration><voice>1</voice><type>eighth</type><dot/><accidental>flat</accidental><stem>up</stem><beam number="1">begin</beam><lyric number="1"><syllabic>end</syllabic><text>zine</text></lyric></note><note><pitch><step>G</step><octave>4</octave></pitch><duration>120</duration><voice>1</voice><type>16th</type><stem>up</stem><beam number="1">continue</beam><lyric number="1"><syllabic>single</syllabic><text>and</text></lyric></note><note><pitch><step>E</step><octave>4</octave></pitch><duration>360</duration><voice>1</voice><type>eighth</type><dot/><stem>up</stem><beam number="1">continue</beam><lyric number="1"><syllabic>single</syllabic><text>then</text></lyric></note><note><pitch><step>C</step><octave>4</octave></pitch><duration>120</duration><voice>1</voice><type>16th</type><stem>up</stem><beam number="1">end</beam><lyric number="1"><syllabic>single</syllabic><text>you're</text></lyric></note></measure><measure number="24"><harmony print-frame="no"><root><root-step>F</root-step></root><kind text="">major</kind></harmony><note><pitch><step>F</step><octave>4</octave></pitch><duration>360</duration><voice>1</voice><type>eighth</type><dot/><stem>up</stem><beam number="1">begin</beam><lyric number="1"><syllabic>single</syllabic><text>in</text></lyric></note><note><pitch><step>G</step><octave>4</octave></pitch><duration>120</duration><voice>1</voice><type>16th</type><stem>up</stem><beam number="1">continue</beam><lyric number="1"><syllabic>begin</syllabic><text>Bal</text></lyric></note><note><pitch><step>A</step><octave>4</octave></pitch><duration>360</duration><voice>1</voice><type>eighth</type><dot/><stem>up</stem><beam number="1">continue</beam><lyric number="1"><syllabic>middle</syllabic><text>ti</text></lyric></note><note><pitch><step>C</step><octave>5</octave></pitch><duration>120</duration><tie type="start"/><voice>1</voice><type>16th</type><stem>up</stem><beam number="1">end</beam><notations><tied type="start"/></notations><lyric number="1"><syllabic>end</syllabic><text>more,</text><extend/></lyric></note><harmony print-frame="no"><root><root-step>F</root-step></root><kind text="9">dominant-ninth</kind></harmony><note><pitch><step>C</step><octave>5</octave></pitch><duration>720</duration><tie type="stop"/><voice>1</voice><type>quarter</type><dot/><stem>down</stem><notations><tied type="stop"/></notations></note><note><pitch><step>F</step><octave>5</octave></pitch><duration>240</duration><tie type="start"/><voice>1</voice><type>eighth</type><stem>down</stem><notations><tied type="start"/></notations><lyric number="1"><syllabic>begin</syllabic><text>Din</text></lyric></note></measure><measure number="25"><print new-system="yes"/><harmony print-frame="no"><root><root-step>B</root-step><root-alter>-1</root-alter></root><kind text="">major</kind></harmony><note><pitch><step>F</step><octave>5</octave></pitch><duration>360</duration><tie type="stop"/><voice>1</voice><type>eighth</type><dot/><stem>down</stem><beam number="1">begin</beam><notations><tied type="stop"/></notations></note><note><pitch><step>F</step><octave>5</octave></pitch><duration>120</duration><voice>1</voice><type>16th</type><stem>down</stem><beam number="1">continue</beam><lyric number="1"><syllabic>end</syllabic><text>ner</text></lyric></note><note><pitch><step>E</step><octave>5</octave></pitch><duration>360</duration><voice>1</voice><type>eighth</type><dot/><stem>down</stem><beam number="1">continue</beam><lyric number="1"><syllabic>single</syllabic><text>in</text></lyric></note><note><pitch><step>F</step><octave>5</octave></pitch><duration>120</duration><voice>1</voice><type>16th</type><stem>down</stem><beam number="1">end</beam><lyric number="1"><syllabic>single</syllabic><text>the</text></lyric></note><harmony print-frame="no"><root><root-step>F</root-step></root><kind text="dim">diminished</kind></harmony><note><pitch><step>E</step><octave>5</octave></pitch><duration>240</duration><voice>1</voice><type>eighth</type><stem>down</stem><lyric number="1"><syllabic>begin</syllabic><text>din</text></lyric></note><note><pitch><step>D</step><octave>5</octave></pitch><duration>480</duration><voice>1</voice><type>quarter</type><stem>down</stem><lyric number="1"><syllabic>end</syllabic><text>er</text></lyric></note><note><pitch><step>C</step><octave>5</octave></pitch><duration>240</duration><tie type="start"/><voice>1</voice><type>eighth</type><stem>down</stem><notations><tied type="start"/></notations><lyric number="1"><syllabic>begin</syllabic><text>noth</text></lyric></note></measure><measure number="26"><harmony print-frame="no"><root><root-step>F</root-step></root><kind text="">major</kind></harmony><note><pitch><step>C</step><octave>5</octave></pitch><duration>360</duration><tie type="stop"/><voice>1</voice><type>eighth</type><dot/><stem>down</stem><beam number="1">begin</beam><notations><tied type="stop"/></notations></note><note><pitch><step>C</step><octave>5</octave></pitch><duration>120</duration><voice>1</voice><type>16th</type><stem>down</stem><beam number="1">continue</beam><lyric number="1"><syllabic>end</syllabic><text>ing</text></lyric></note><note><pitch><step>B</step><octave>4</octave></pitch><duration>360</duration><voice>1</voice><type>eighth</type><dot/><stem>down</stem><beam number="1">continue</beam><lyric number="1"><syllabic>single</syllabic><text>could</text></lyric></note><note><pitch><step>C</step><octave>5</octave></pitch><duration>120</duration><voice>1</voice><type>16th</type><stem>down</stem><beam number="1">end</beam><lyric number="1"><syllabic>single</syllabic><text>be</text></lyric></note><harmony print-frame="no"><root><root-step>D</root-step></root><kind text="+">augmented</kind></harmony><note><pitch><step>B</step><alter>-1</alter><octave>4</octave></pitch><duration>240</duration><voice>1</voice><type>eighth</type><accidental>flat</accidental><stem>down</stem><lyric number="1"><syllabic>begin</syllabic><text>fin</text></lyric></note><harmony print-frame="no"><root><root-step>D</root-step></root><kind text="7">dominant</kind></harmony><note><pitch><step>A</step><octave>4</octave></pitch><duration>480</duration><voice>1</voice><type>quarter</type><stem>up</stem><lyric number="1"><syllabic>end</syllabic><text>er</text></lyric></note><note><pitch><step>A</step><alter>-1</alter><octave>4</octave></pitch><duration>240</duration><tie type="start"/><voice>1</voice><type>eighth</type><accidental>flat</accidental><stem>up</stem><notations><tied type="start"/></notations><lyric number="1"><syllabic>single</syllabic><text>than</text><extend/></lyric></note></measure><measure number="27"><harmony print-frame="no"><root><root-step>G</root-step></root><kind text="9">dominant-ninth</kind></harmony><note><pitch><step>A</step><alter>-1</alter><octave>4</octave></pitch><duration>360</duration><tie type="stop"/><voice>1</voice><type>eighth</type><dot/><accidental>flat</accidental><stem>up</stem><beam number="1">begin</beam><notations><tied type="stop"/></notations></note><note><pitch><step>A</step><alter>-1</alter><octave>4</octave></pitch><duration>120</duration><voice>1</voice><type>16th</type><accidental>flat</accidental><stem>up</stem><beam number="1">continue</beam><lyric number="1"><syllabic>single</syllabic><text>to</text></lyric></note><note><pitch><step>A</step><alter>-1</alter><octave>4</octave></pitch><duration>360</duration><voice>1</voice><type>eighth</type><dot/><stem>up</stem><beam number="1">continue</beam><lyric number="1"><syllabic>single</syllabic><text>have</text></lyric></note><note><pitch><step>A</step><alter>-1</alter><octave>4</octave></pitch><duration>120</duration><voice>1</voice><type>16th</type><stem>up</stem><beam number="1">end</beam><lyric number="1"><syllabic>single</syllabic><text>you</text></lyric></note><note><pitch><step>A</step><alter>-1</alter><octave>4</octave></pitch><duration>360</duration><voice>1</voice><type>eighth</type><dot/><stem>up</stem><beam number="1">begin</beam><lyric number="1"><syllabic>single</syllabic><text>ham</text></lyric></note><note><pitch><step>F</step><octave>4</octave></pitch><duration>120</duration><voice>1</voice><type>16th</type><stem>up</stem><beam number="1">continue</beam><lyric number="1"><syllabic>single</syllabic><text>'n</text></lyric></note><note><pitch><step>D</step><octave>4</octave></pitch><duration>360</duration><voice>1</voice><type>eighth</type><dot/><stem>up</stem><beam number="1">continue</beam><lyric number="1"><syllabic>single</syllabic><text>eggs</text></lyric></note><note><pitch><step>B</step><octave>3</octave></pitch><duration>120</duration><voice>1</voice><type>16th</type><stem>up</stem><beam number="1">end</beam><lyric number="1"><syllabic>single</syllabic><text>in</text></lyric></note></measure><measure number="28"><note><pitch><step>A</step><alter>-1</alter><octave>4</octave></pitch><duration>240</duration><voice>1</voice><type>eighth</type><accidental>flat</accidental><stem>up</stem><lyric number="1"><syllabic>begin</syllabic><text>Car</text></lyric></note><note><pitch><step>A</step><alter>-1</alter><octave>4</octave></pitch><duration>480</duration><voice>1</voice><type>quarter</type><stem>up</stem><lyric number="1"><syllabic>middle</syllabic><text>o</text></lyric></note><harmony print-frame="no"><root><root-step>A</root-step><root-alter>-1</root-alter></root><kind text="m6">minor-sixth</kind></harmony><note><pitch><step>A</step><alter>-1</alter><octave>4</octave></pitch><duration>480</duration><voice>1</voice><type>quarter</type><stem>up</stem><lyric number="1"><syllabic>middle</syllabic><text>li</text></lyric></note><harmony print-frame="no"><root><root-step>C</root-step></root><kind text="9">dominant-ninth</kind></harmony><note><pitch><step>G</step><octave>4</octave></pitch><duration>480</duration><voice>1</voice><type>quarter</type><stem>up</stem><lyric number="1"><syllabic>end</syllabic><text>na.</text></lyric></note><note><pitch><step>C</step><octave>5</octave></pitch><duration>240</duration><tie type="start"/><voice>1</voice><type>eighth</type><stem>down</stem><notations><tied type="start"/></notations><lyric number="1"><syllabic>single</syllabic><text>When</text><extend/></lyric></note></measure><measure number="29"><print new-system="yes"/><harmony print-frame="no"><root><root-step>F</root-step></root><kind text="">major</kind></harmony><note><pitch><step>C</step><octave>5</octave></pitch><duration>360</duration><tie type="stop"/><voice>1</voice><type>eighth</type><dot/><stem>up</stem><beam number="1">begin</beam><notations><tied type="stop"/></notations></note><note><pitch><step>A</step><octave>4</octave></pitch><duration>120</duration><voice>1</voice><type>16th</type><stem>up</stem><beam number="1">continue</beam><lyric number="1"><syllabic>single</syllabic><text>you</text></lyric></note><note><pitch><step>F</step><octave>4</octave></pitch><duration>360</duration><voice>1</voice><type>eighth</type><dot/><stem>up</stem><beam number="1">continue</beam><lyric number="1"><syllabic>single</syllabic><text>hear</text></lyric></note><note><pitch><step>C</step><octave>4</octave></pitch><duration>120</duration><voice>1</voice><type>16th</type><stem>up</stem><beam number="1">end</beam><lyric number="1"><syllabic>single</syllabic><text>the</text></lyric></note><harmony print-frame="no"><root><root-step>C</root-step></root><kind text="7">dominant</kind></harmony><note><pitch><step>B</step><alter>-1</alter><octave>4</octave></pitch><duration>360</duration><voice>1</voice><type>eighth</type><dot/><accidental>flat</accidental><stem>up</stem><beam number="1">begin</beam><lyric number="1"><syllabic>begin</syllabic><text>whis</text></lyric></note><note><pitch><step>G</step><octave>4</octave></pitch><duration>120</duration><voice>1</voice><type>16th</type><stem>up</stem><beam number="1">continue</beam><lyric number="1"><syllabic>end</syllabic><text>tle</text></lyric></note><note><pitch><step>E</step><octave>4</octave></pitch><duration>360</duration><voice>1</voice><type>eighth</type><dot/><stem>up</stem><beam number="1">continue</beam><lyric number="1"><syllabic>begin</syllabic><text>blow</text></lyric></note><note><pitch><step>C</step><octave>4</octave></pitch><duration>120</duration><voice>1</voice><type>16th</type><stem>up</stem><beam number="1">end</beam><lyric number="1"><syllabic>end</syllabic><text>in'</text></lyric></note></measure><measure number="30"><harmony print-frame="no"><root><root-step>F</root-step></root><kind text="">major</kind></harmony><note><pitch><step>F</step><octave>4</octave></pitch><duration>360</duration><voice>1</voice><type>eighth</type><dot/><stem>up</stem><beam number="1">begin</beam><lyric number="1"><syllabic>single</syllabic><text>eight</text></lyric></note><note><pitch><step>G</step><octave>4</octave></pitch><duration>120</duration><voice>1</voice><type>16th</type><stem>up</stem><beam number="1">continue</beam><lyric number="1"><syllabic>single</syllabic><text>to</text></lyric></note><note><pitch><step>A</step><octave>4</octave></pitch><duration>360</duration><voice>1</voice><type>eighth</type><dot/><stem>up</stem><beam number="1">continue</beam><lyric number="1"><syllabic>single</syllabic><text>the</text></lyric></note><note><pitch><step>C</step><octave>5</octave></pitch><duration>120</duration><tie type="start"/><voice>1</voice><type>16th</type><stem>up</stem><beam number="1">end</beam><notations><tied type="start"/></notations><lyric number="1"><syllabic>single</syllabic><text>bar</text><extend/></lyric></note><harmony print-frame="no"><root><root-step>G</root-step></root><kind text="m7">minor-seventh</kind></harmony><note><pitch><step>C</step><octave>5</octave></pitch><duration>720</duration><tie type="stop"/><voice>1</voice><type>quarter</type><dot/><stem>down</stem><notations><tied type="stop"/></notations></note><harmony print-frame="no"><root><root-step>C</root-step></root><kind text="7">dominant</kind></harmony><note><pitch><step>C</step><octave>5</octave></pitch><duration>240</duration><tie type="start"/><voice>1</voice><type>eighth</type><stem>down</stem><notations><tied type="start"/></notations><lyric number="1"><syllabic>single</syllabic><text>Then</text><extend/></lyric></note></measure><measure number="31"><harmony print-frame="no"><root><root-step>F</root-step></root><kind text="">major</kind></harmony><note><pitch><step>C</step><octave>5</octave></pitch><duration>360</duration><tie type="stop"/><voice>1</voice><type>eighth</type><dot/><stem>up</stem><beam number="1">begin</beam><notations><tied type="stop"/></notations></note><note><pitch><step>A</step><octave>4</octave></pitch><duration>120</duration><voice>1</voice><type>16th</type><stem>up</stem><beam number="1">continue</beam><lyric number="1"><syllabic>single</syllabic><text>you</text></lyric></note><note><pitch><step>F</step><octave>4</octave></pitch><duration>360</duration><voice>1</voice><type>eighth</type><dot/><stem>up</stem><beam number="1">continue</beam><lyric number="1"><syllabic>single</syllabic><text>know</text></lyric></note><note><pitch><step>C</step><octave>4</octave></pitch><duration>120</duration><voice>1</voice><type>16th</type><stem>up</stem><beam number="1">end</beam><lyric number="1"><syllabic>single</syllabic><text>that</text></lyric></note><harmony print-frame="no"><root><root-step>C</root-step></root><kind text="7">dominant</kind></harmony><note><pitch><step>B</step><alter>-1</alter><octave>4</octave></pitch><duration>360</duration><voice>1</voice><type>eighth</type><dot/><accidental>flat</accidental><stem>up</stem><beam number="1">begin</beam><lyric number="1"><syllabic>begin</syllabic><text>Ten</text></lyric></note><note><pitch><step>G</step><octave>4</octave></pitch><duration>120</duration><voice>1</voice><type>16th</type><stem>up</stem><beam number="1">continue</beam><lyric number="1"><syllabic>middle</syllabic><text>nes</text></lyric></note><note><pitch><step>E</step><octave>4</octave></pitch><duration>360</duration><voice>1</voice><type>eighth</type><dot/><stem>up</stem><beam number="1">continue</beam><lyric number="1"><syllabic>end</syllabic><text>see</text></lyric></note><note><pitch><step>C</step><octave>4</octave></pitch><duration>120</duration><voice>1</voice><type>16th</type><stem>up</stem><beam number="1">end</beam><lyric number="1"><syllabic>single</syllabic><text>is</text></lyric></note></measure><measure number="32"><harmony print-frame="no"><root><root-step>F</root-step></root><kind text="">major</kind></harmony><note><pitch><step>F</step><octave>4</octave></pitch><duration>360</duration><voice>1</voice><type>eighth</type><dot/><stem>up</stem><beam number="1">begin</beam><lyric number="1"><syllabic>single</syllabic><text>not</text></lyric></note><note><pitch><step>G</step><octave>4</octave></pitch><duration>120</duration><voice>1</voice><type>16th</type><stem>up</stem><beam number="1">continue</beam><lyric number="1"><syllabic>begin</syllabic><text>ver</text></lyric></note><note><pitch><step>A</step><octave>4</octave></pitch><duration>360</duration><voice>1</voice><type>eighth</type><dot/><stem>up</stem><beam number="1">continue</beam><lyric number="1"><syllabic>end</syllabic><text>y</text></lyric></note><note><pitch><step>C</step><octave>5</octave></pitch><duration>120</duration><tie type="start"/><voice>1</voice><type>16th</type><stem>up</stem><beam number="1">end</beam><notations><tied type="start"/></notations><lyric number="1"><syllabic>single</syllabic><text>far</text><extend/></lyric></note><note><pitch><step>C</step><octave>5</octave></pitch><duration>720</duration><tie type="stop"/><voice>1</voice><type>quarter</type><dot/><stem>down</stem><notations><tied type="stop"/></notations></note><harmony print-frame="no"><root><root-step>F</root-step></root><kind text="9">dominant-ninth</kind></harmony><note><pitch><step>F</step><octave>5</octave></pitch><duration>240</duration><tie type="start"/><voice>1</voice><type>eighth</type><stem>down</stem><notations><tied type="start"/></notations><lyric number="1"><syllabic>begin</syllabic><text>Shov</text></lyric></note></measure><measure number="33"><print new-system="yes"/><harmony print-frame="no"><root><root-step>B</root-step><root-alter>-1</root-alter></root><kind text="">major</kind></harmony><note><pitch><step>F</step><octave>5</octave></pitch><duration>360</duration><tie type="stop"/><voice>1</voice><type>eighth</type><dot/><stem>down</stem><beam number="1">begin</beam><notations><tied type="stop"/></notations></note><note><pitch><step>F</step><octave>5</octave></pitch><duration>120</duration><voice>1</voice><type>16th</type><stem>down</stem><beam number="1">continue</beam><lyric number="1"><syllabic>end</syllabic><text>el</text></lyric></note><note><pitch><step>E</step><octave>5</octave></pitch><duration>360</duration><voice>1</voice><type>eighth</type><dot/><stem>down</stem><beam number="1">continue</beam><lyric number="1"><syllabic>single</syllabic><text>all</text></lyric></note><note><pitch><step>F</step><octave>5</octave></pitch><duration>120</duration><voice>1</voice><type>16th</type><stem>down</stem><beam number="1">end</beam><lyric number="1"><syllabic>single</syllabic><text>the</text></lyric></note><harmony print-frame="no"><root><root-step>F</root-step></root><kind text="dim">diminished</kind></harmony><note><pitch><step>E</step><octave>5</octave></pitch><duration>240</duration><voice>1</voice><type>eighth</type><stem>down</stem><lyric number="1"><syllabic>single</syllabic><text>coal</text></lyric></note><note><pitch><step>D</step><octave>5</octave></pitch><duration>480</duration><voice>1</voice><type>quarter</type><stem>down</stem><lyric number="1"><syllabic>single</syllabic><text>in</text></lyric></note><note><pitch><step>C</step><octave>5</octave></pitch><duration>240</duration><tie type="start"/><voice>1</voice><type>eighth</type><stem>down</stem><notations><tied type="start"/></notations><lyric number="1"><syllabic>begin</syllabic><text>got</text></lyric></note></measure><measure number="34"><harmony print-frame="no"><root><root-step>F</root-step></root><kind text="">major</kind></harmony><note><pitch><step>C</step><octave>5</octave></pitch><duration>360</duration><tie type="stop"/><voice>1</voice><type>eighth</type><dot/><stem>down</stem><beam number="1">begin</beam><notations><tied type="stop"/></notations></note><note><pitch><step>C</step><octave>5</octave></pitch><duration>120</duration><voice>1</voice><type>16th</type><stem>down</stem><beam number="1">continue</beam><lyric number="1"><syllabic>end</syllabic><text>ta</text></lyric></note><note><pitch><step>B</step><octave>4</octave></pitch><duration>360</duration><voice>1</voice><type>eighth</type><dot/><stem>down</stem><beam number="1">continue</beam><lyric number="1"><syllabic>single</syllabic><text>keep</text></lyric></note><note><pitch><step>C</step><octave>5</octave></pitch><duration>120</duration><voice>1</voice><type>16th</type><stem>down</stem><beam number="1">end</beam><lyric number="1"><syllabic>single</syllabic><text>it</text></lyric></note><harmony print-frame="no"><root><root-step>D</root-step></root><kind text="+">augmented</kind></harmony><note><pitch><step>B</step><alter>-1</alter><octave>4</octave></pitch><duration>240</duration><voice>1</voice><type>eighth</type><accidental>flat</accidental><stem>down</stem><lyric number="1"><syllabic>begin</syllabic><text>roll</text></lyric></note><harmony print-frame="no"><root><root-step>D</root-step></root><kind text="7">dominant</kind></harmony><note><pitch><step>A</step><octave>4</octave></pitch><duration>480</duration><voice>1</voice><type>quarter</type><stem>up</stem><lyric number="1"><syllabic>end</syllabic><text>in'</text></lyric></note><note><rest/><duration>240</duration><voice>1</voice><type>eighth</type></note></measure><measure number="35"><harmony print-frame="no"><root><root-step>G</root-step></root><kind text="m9">minor-ninth</kind></harmony><note><pitch><step>A</step><alter>-1</alter><octave>4</octave></pitch><duration>480</duration><voice>1</voice><type>quarter</type><accidental>flat</accidental><stem>up</stem><lyric number="1"><syllabic>single</syllabic><text>Woo,</text></lyric></note><note><pitch><step>A</step><alter>-1</alter><octave>4</octave></pitch><duration>480</duration><voice>1</voice><type>quarter</type><stem>up</stem><lyric number="1"><syllabic>single</syllabic><text>Woo,</text></lyric></note><note><pitch><step>A</step><alter>-1</alter><octave>4</octave></pitch><duration>360</duration><voice>1</voice><type>eighth</type><dot/><stem>up</stem><beam number="1">begin</beam><lyric number="1"><syllabic>begin</syllabic><text>Chat</text></lyric></note><note><pitch><step>F</step><octave>4</octave></pitch><duration>120</duration><voice>1</voice><type>16th</type><stem>up</stem><beam number="1">continue</beam><lyric number="1"><syllabic>middle</syllabic><text>ta</text></lyric></note><note><pitch><step>D</step><octave>4</octave></pitch><duration>360</duration><voice>1</voice><type>eighth</type><dot/><stem>up</stem><beam number="1">continue</beam><lyric number="1"><syllabic>middle</syllabic><text>noo</text></lyric></note><note><pitch><step>B</step><octave>3</octave></pitch><duration>120</duration><voice>1</voice><type>16th</type><stem>up</stem><beam number="1">end</beam><lyric number="1"><syllabic>end</syllabic><text>ga</text></lyric></note></measure><measure number="36"><note><pitch><step>A</step><alter>-1</alter><octave>4</octave></pitch><duration>360</duration><voice>1</voice><type>eighth</type><dot/><accidental>flat</accidental><stem>up</stem><beam number="1">begin</beam><lyric number="1"><syllabic>single</syllabic><text>there</text></lyric></note><note><pitch><step>F</step><octave>4</octave></pitch><duration>120</duration><voice>1</voice><type>16th</type><stem>up</stem><beam number="1">continue</beam></note><harmony print-frame="no"><root><root-step>C</root-step></root><kind text="7">dominant</kind></harmony><note><pitch><step>G</step><octave>4</octave></pitch><duration>360</duration><voice>1</voice><type>eighth</type><dot/><stem>up</stem><beam number="1">continue</beam><lyric number="1"><syllabic>single</syllabic><text>you</text></lyric></note><note><pitch><step>F</step><octave>4</octave></pitch><duration>120</duration><tie type="start"/><voice>1</voice><type>16th</type><stem>up</stem><beam number="1">end</beam><notations><tied type="start"/></notations><lyric number="1"><syllabic>single</syllabic><text>are</text><extend/></lyric></note><harmony print-frame="no"><root><root-step>F</root-step></root><kind text="">major</kind></harmony><note><pitch><step>F</step><octave>4</octave></pitch><duration>480</duration><tie type="stop"/><voice>1</voice><type>quarter</type><stem>up</stem><notations><tied type="stop"/></notations></note><harmony print-frame="no"><root><root-step>G</root-step></root><kind text="7">dominant</kind></harmony><note><rest/><duration>480</duration><voice>1</voice><type>quarter</type></note></measure><measure number="37"><harmony print-frame="no"><root><root-step>C</root-step></root><kind text="">major</kind></harmony><note><rest/><duration>1920</duration><voice>1</voice></note></measure><measure number="38"><note><rest/><duration>1920</duration><voice>1</voice></note><barline location="right"><bar-style>light-heavy</bar-style><repeat direction="backward"/></barline></measure><measure number="39"><print new-system="yes"/><harmony print-frame="no"><root><root-step>C</root-step></root><kind text="">major</kind></harmony><note><pitch><step>E</step><octave>4</octave></pitch><duration>360</duration><voice>1</voice><type>eighth</type><dot/><stem>up</stem><beam number="1">begin</beam><lyric number="1"><syllabic>single</syllabic><text>Ther's</text></lyric></note><note><pitch><step>F</step><octave>4</octave></pitch><duration>120</duration><voice>1</voice><type>16th</type><stem>up</stem><beam number="1">continue</beam><lyric number="1"><syllabic>begin</syllabic><text>gon</text></lyric></note><harmony print-frame="no"><root><root-step>C</root-step></root><kind text="dim">diminished</kind></harmony><note><pitch><step>F</step><alter>1</alter><octave>4</octave></pitch><duration>360</duration><voice>1</voice><type>eighth</type><dot/><accidental>sharp</accidental><stem>up</stem><beam number="1">end</beam><lyric number="1"><syllabic>end</syllabic><text>na</text></lyric></note><note><pitch><step>G</step><octave>4</octave></pitch><duration>120</duration><tie type="start"/><voice>1</voice><type>16th</type><stem>up</stem><notations><tied type="start"/></notations><lyric number="1"><syllabic>single</syllabic><text>be</text><extend/></lyric></note><harmony print-frame="no"><root><root-step>C</root-step></root><kind text="6">major-sixth</kind></harmony><note><pitch><step>G</step><octave>4</octave></pitch><duration>960</duration><tie type="stop"/><tie type="start"/><voice>1</voice><type>half</type><stem>up</stem><notations><tied type="stop"/><tied type="start"/></notations></note></measure><measure number="40"><note><pitch><step>G</step><octave>4</octave></pitch><duration>360</duration><tie type="stop"/><voice>1</voice><type>eighth</type><dot/><stem>up</stem><beam number="1">begin</beam><notations><tied type="stop"/></notations></note><note><pitch><step>G</step><octave>4</octave></pitch><duration>120</duration><voice>1</voice><type>16th</type><stem>up</stem><beam number="1">continue</beam><lyric number="1"><syllabic>single</syllabic><text>a</text></lyric></note><note><pitch><step>A</step><octave>4</octave></pitch><duration>360</duration><voice>1</voice><type>eighth</type><dot/><stem>up</stem><beam number="1">continue</beam><lyric number="1"><syllabic>begin</syllabic><text>cer</text></lyric></note><note><pitch><step>B</step><octave>4</octave></pitch><duration>120</duration><voice>1</voice><type>16th</type><stem>up</stem><beam number="1">end</beam><lyric number="1"><syllabic>end</syllabic><text>tain</text></lyric></note><note><pitch><step>C</step><octave>5</octave></pitch><duration>360</duration><voice>1</voice><type>eighth</type><dot/><stem>down</stem><beam number="1">begin</beam><lyric number="1"><syllabic>begin</syllabic><text>par</text></lyric></note><note><pitch><step>D</step><octave>5</octave></pitch><duration>120</duration><voice>1</voice><type>16th</type><stem>down</stem><beam number="1">continue</beam><lyric number="1"><syllabic>end</syllabic><text>ty</text></lyric></note><note><pitch><step>C</step><octave>5</octave></pitch><duration>360</duration><voice>1</voice><type>eighth</type><dot/><stem>down</stem><beam number="1">continue</beam><lyric number="1"><syllabic>single</syllabic><text>at</text></lyric></note><note><pitch><step>E</step><octave>4</octave></pitch><duration>120</duration><voice>1</voice><type>16th</type><stem>down</stem><beam number="1">end</beam><lyric number="1"><syllabic>single</syllabic><text>the</text></lyric></note></measure><measure number="41"><note><pitch><step>A</step><octave>4</octave></pitch><duration>240</duration><voice>1</voice><type>eighth</type><stem>up</stem><lyric number="1"><syllabic>begin</syllabic><text>sta</text></lyric></note><note><pitch><step>G</step><octave>4</octave></pitch><duration>720</duration><tie type="start"/><voice>1</voice><type>quarter</type><dot/><stem>up</stem><notations><tied type="start"/></notations><lyric number="1"><syllabic>end</syllabic><text>tion</text><extend/></lyric></note><note><pitch><step>G</step><octave>4</octave></pitch><duration>960</duration><tie type="stop"/><tie type="start"/><voice>1</voice><type>half</type><stem>up</stem><notations><tied type="stop"/><tied type="start"/></notations></note></measure><measure number="42"><note><pitch><step>G</step><octave>4</octave></pitch><duration>480</duration><tie type="stop"/><voice>1</voice><type>quarter</type><stem>up</stem><notations><tied type="stop"/></notations></note><note><rest/><duration>360</duration><voice>1</voice><type>eighth</type><dot/></note><note><pitch><step>A</step><octave>4</octave></pitch><duration>120</duration><tie type="start"/><voice>1</voice><type>16th</type><stem>up</stem><notations><tied type="start"/></notations><lyric number="1"><syllabic>begin</syllabic><text>Sat</text></lyric></note><note><pitch><step>A</step><octave>4</octave></pitch><duration>360</duration><tie type="stop"/><voice>1</voice><type>eighth</type><dot/><stem>up</stem><beam number="1">begin</beam><notations><tied type="stop"/></notations></note><note><pitch><step>G</step><octave>4</octave></pitch><duration>120</duration><voice>1</voice><type>16th</type><stem>up</stem><beam number="1">continue</beam><lyric number="1"><syllabic>end</syllabic><text>in</text></lyric></note><note><pitch><step>E</step><octave>4</octave></pitch><duration>360</duration><voice>1</voice><type>eighth</type><dot/><stem>up</stem><beam number="1">continue</beam><lyric number="1"><syllabic>single</syllabic><text>and</text></lyric></note><note><pitch><step>D</step><octave>4</octave></pitch><duration>120</duration><tie type="start"/><voice>1</voice><type>16th</type><stem>up</stem><beam number="1">end</beam><notations><tied type="start"/></notations><lyric number="1"><syllabic>single</syllabic><text>lace</text><extend/></lyric></note></measure><measure number="43"><print new-system="yes"/><harmony print-frame="no"><root><root-step>D</root-step></root><kind text="m7">minor-seventh</kind></harmony><note><pitch><step>D</step><octave>4</octave></pitch><duration>960</duration><tie type="stop"/><tie type="start"/><voice>1</voice><type>half</type><stem>up</stem><notations><tied type="stop"/><tied type="start"/></notations></note><harmony print-frame="no"><root><root-step>G</root-step></root><kind text="7">dominant</kind></harmony><note><pitch><step>D</step><octave>4</octave></pitch><duration>960</duration><tie type="stop"/><voice>1</voice><type>half</type><stem>up</stem><notations><tied type="stop"/></notations></note></measure><measure number="44"><harmony print-frame="no"><root><root-step>G</root-step></root><kind text="9">dominant-ninth</kind></harmony><note><rest/><duration>240</duration><voice>1</voice><type>eighth</type></note><note><pitch><step>A</step><octave>4</octave></pitch><duration>240</duration><voice>1</voice><type>eighth</type><stem>up</stem><beam number="1">begin</beam><lyric number="1"><syllabic>single</syllabic><text>I</text></lyric></note><note><pitch><step>A</step><octave>4</octave></pitch><duration>240</duration><voice>1</voice><type>eighth</type><stem>up</stem><beam number="1">continue</beam><lyric number="1"><syllabic>single</syllabic><text>used</text></lyric></note><note><pitch><step>A</step><octave>4</octave></pitch><duration>240</duration><voice>1</voice><type>eighth</type><stem>up</stem><beam number="1">end</beam><lyric number="1"><syllabic>single</syllabic><text>to</text></lyric></note><note><pitch><step>A</step><octave>4</octave></pitch><duration>240</duration><voice>1</voice><type>eighth</type><stem>up</stem><beam number="1">begin</beam><lyric number="1"><syllabic>single</syllabic><text>call</text></lyric></note><note><pitch><step>G</step><octave>4</octave></pitch><duration>240</duration><voice>1</voice><type>eighth</type><stem>up</stem><beam number="1">continue</beam><lyric number="1"><syllabic>begin</syllabic><text>fun</text></lyric></note><note><pitch><step>E</step><octave>4</octave></pitch><duration>240</duration><voice>1</voice><type>eighth</type><stem>up</stem><beam number="1">continue</beam><lyric number="1"><syllabic>end</syllabic><text>ny</text></lyric></note><note><pitch><step>C</step><octave>4</octave></pitch><duration>240</duration><tie type="start"/><voice>1</voice><type>eighth</type><stem>up</stem><beam number="1">end</beam><notations><tied type="start"/></notations><lyric number="1"><syllabic>single</syllabic><text>face</text><extend/></lyric></note></measure><measure number="45"><harmony print-frame="no"><root><root-step>C</root-step></root><kind text="">major</kind></harmony><note><pitch><step>C</step><octave>4</octave></pitch><duration>1920</duration><tie type="stop"/><tie type="start"/><voice>1</voice><type>whole</type><notations><tied type="stop"/><tied type="start"/></notations></note></measure><measure number="46"><note><pitch><step>C</step><octave>4</octave></pitch><duration>480</duration><tie type="stop"/><voice>1</voice><type>quarter</type><stem>up</stem><notations><tied type="stop"/></notations></note><note><rest/><duration>480</duration><voice>1</voice><type>quarter</type></note><note><rest/><duration>960</duration><voice>1</voice><type>half</type></note></measure><measure number="47"><print new-system="yes"/><note><pitch><step>E</step><octave>4</octave></pitch><duration>360</duration><voice>1</voice><type>eighth</type><dot/><stem>up</stem><beam number="1">begin</beam><lyric number="1"><syllabic>single</syllabic><text>She's</text></lyric></note><note><pitch><step>F</step><octave>4</octave></pitch><duration>120</duration><voice>1</voice><type>16th</type><stem>up</stem><beam number="1">continue</beam><lyric number="1"><syllabic>begin</syllabic><text>gon</text></lyric></note><harmony print-frame="no"><root><root-step>C</root-step></root><kind text="dim">diminished</kind></harmony><note><pitch><step>F</step><alter>1</alter><octave>4</octave></pitch><duration>360</duration><voice>1</voice><type>eighth</type><dot/><accidental>sharp</accidental><stem>up</stem><beam number="1">continue</beam><lyric number="1"><syllabic>end</syllabic><text>na</text></lyric></note><note><pitch><step>G</step><octave>4</octave></pitch><duration>120</duration><tie type="start"/><voice>1</voice><type>16th</type><stem>up</stem><beam number="1">end</beam><notations><tied type="start"/></notations><lyric number="1"><syllabic>single</syllabic><text>cry</text><extend/></lyric></note><harmony print-frame="no"><root><root-step>C</root-step></root><kind text="6">major-sixth</kind></harmony><note><pitch><step>G</step><octave>4</octave></pitch><duration>960</duration><tie type="stop"/><tie type="start"/><voice>1</voice><type>half</type><stem>up</stem><notations><tied type="stop"/><tied type="start"/></notations></note></measure><measure number="48"><note><pitch><step>G</step><octave>4</octave></pitch><duration>360</duration><tie type="stop"/><voice>1</voice><type>eighth</type><dot/><stem>up</stem><beam number="1">begin</beam><notations><tied type="stop"/></notations></note><note><pitch><step>G</step><octave>4</octave></pitch><duration>120</duration><voice>1</voice><type>16th</type><stem>up</stem><beam number="1">continue</beam><lyric number="1"><syllabic>begin</syllabic><text>un</text></lyric></note><note><pitch><step>A</step><octave>4</octave></pitch><duration>360</duration><voice>1</voice><type>eighth</type><dot/><stem>up</stem><beam number="1">continue</beam><lyric number="1"><syllabic>end</syllabic><text>til</text></lyric></note><note><pitch><step>B</step><octave>4</octave></pitch><duration>120</duration><voice>1</voice><type>16th</type><stem>up</stem><beam number="1">end</beam><lyric number="1"><syllabic>single</syllabic><text>I</text></lyric></note><note><pitch><step>C</step><octave>5</octave></pitch><duration>360</duration><voice>1</voice><type>eighth</type><dot/><stem>down</stem><beam number="1">begin</beam><lyric number="1"><syllabic>single</syllabic><text>tell</text></lyric></note><note><pitch><step>D</step><octave>5</octave></pitch><duration>120</duration><voice>1</voice><type>16th</type><stem>down</stem><beam number="1">continue</beam><lyric number="1"><syllabic>single</syllabic><text>her</text></lyric></note><harmony print-frame="no"><root><root-step>C</root-step></root><kind text="7">dominant</kind></harmony><note><pitch><step>C</step><octave>5</octave></pitch><duration>360</duration><voice>1</voice><type>eighth</type><dot/><stem>down</stem><beam number="1">continue</beam><lyric number="1"><syllabic>single</syllabic><text>that</text></lyric></note><note><pitch><step>A</step><octave>4</octave></pitch><duration>120</duration><voice>1</voice><type>16th</type><stem>down</stem><beam number="1">end</beam><lyric number="1"><syllabic>single</syllabic><text>I'll</text></lyric></note></measure><measure number="49"><harmony print-frame="no"><root><root-step>F</root-step></root><kind text="">major</kind></harmony><note><pitch><step>G</step><octave>4</octave></pitch><duration>240</duration><voice>1</voice><type>eighth</type><stem>up</stem><lyric number="1"><syllabic>begin</syllabic><text>nev</text></lyric></note><note><pitch><step>F</step><octave>4</octave></pitch><duration>480</duration><voice>1</voice><type>quarter</type><stem>up</stem><lyric number="1"><syllabic>end</syllabic><text>er</text></lyric></note><note><pitch><step>C</step><octave>5</octave></pitch><duration>240</duration><tie type="start"/><voice>1</voice><type>eighth</type><stem>down</stem><notations><tied type="start"/></notations><lyric number="1"><syllabic>single</syllabic><text>roam</text><extend/></lyric></note><note><pitch><step>C</step><octave>5</octave></pitch><duration>960</duration><tie type="stop"/><tie type="start"/><voice>1</voice><type>half</type><stem>down</stem><notations><tied type="stop"/><tied type="start"/></notations></note></measure><measure number="50"><harmony print-frame="no"><root><root-step>A</root-step><root-alter>-1</root-alter></root><kind text="7">dominant</kind></harmony><note><pitch><step>C</step><octave>5</octave></pitch><duration>960</duration><tie type="stop"/><voice>1</voice><type>half</type><stem>down</stem><notations><tied type="stop"/></notations></note><note><rest/><duration>480</duration><voice>1</voice><type>quarter</type></note><harmony print-frame="no"><root><root-step>D</root-step></root><kind text="7b5">dominant</kind><degree><degree-value>5</degree-value><degree-alter>-1</degree-alter><degree-type>alter</degree-type></degree></harmony><note><pitch><step>D</step><octave>5</octave></pitch><duration>480</duration><voice>1</voice><type>quarter</type><stem>down</stem><lyric number="1"><syllabic>single</syllabic><text>so</text></lyric></note></measure><measure number="51"><print new-system="yes"/><harmony print-frame="no"><root><root-step>C</root-step></root><kind text="">major</kind></harmony><note><pitch><step>E</step><octave>5</octave></pitch><duration>360</duration><voice>1</voice><type>eighth</type><dot/><stem>down</stem><beam number="1">begin</beam><lyric number="1"><syllabic>begin</syllabic><text>Chat</text></lyric></note><note><pitch><step>E</step><alter>-1</alter><octave>5</octave></pitch><duration>120</duration><voice>1</voice><type>16th</type><accidental>flat</accidental><stem>down</stem><beam number="1">continue</beam><lyric number="1"><syllabic>middle</syllabic><text>ta</text></lyric></note><note><pitch><step>D</step><octave>5</octave></pitch><duration>360</duration><voice>1</voice><type>eighth</type><dot/><stem>down</stem><beam number="1">continue</beam><lyric number="1"><syllabic>middle</syllabic><text>noo</text></lyric></note><note><pitch><step>C</step><octave>5</octave></pitch><duration>120</duration><voice>1</voice><type>16th</type><stem>down</stem><beam number="1">end</beam><lyric number="1"><syllabic>end</syllabic><text>ga</text></lyric></note><harmony print-frame="no"><root><root-step>A</root-step></root><kind text="m7">minor-seventh</kind></harmony><note><pitch><step>E</step><octave>5</octave></pitch><duration>240</duration><voice>1</voice><type>eighth</type><accidental>natural</accidental><stem>down</stem><lyric number="1"><syllabic>begin</syllabic><text>Choo</text></lyric></note><note><pitch><step>C</step><octave>5</octave></pitch><duration>480</duration><voice>1</voice><type>quarter</type><stem>down</stem><lyric number="1"><syllabic>end</syllabic><text>choo</text></lyric></note><note><pitch><step>E</step><octave>5</octave></pitch><duration>240</duration><tie type="start"/><voice>1</voice><type>eighth</type><stem>down</stem><notations><tied type="start"/></notations><lyric number="1"><syllabic>single</syllabic><text>won't</text><extend/></lyric></note></measure><measure number="52"><harmony print-frame="no"><root><root-step>D</root-step></root><kind text="7">dominant</kind></harmony><note><pitch><step>E</step><octave>5</octave></pitch><duration>240</duration><tie type="stop"/><voice>1</voice><type>eighth</type><stem>down</stem><notations><tied type="stop"/></notations></note><note><pitch><step>C</step><octave>5</octave></pitch><duration>480</duration><voice>1</voice><type>quarter</type><stem>down</stem><lyric number="1"><syllabic>single</syllabic><text>you</text></lyric></note><harmony print-frame="no"><root><root-step>D</root-step></root><kind text="m7">minor-seventh</kind></harmony><note><pitch><step>E</step><octave>5</octave></pitch><duration>240</duration><tie type="start"/><voice>1</voice><type>eighth</type><stem>down</stem><notations><tied type="start"/></notations><lyric number="1"><syllabic>single</syllabic><text>choo</text><extend/></lyric></note><note><pitch><step>E</step><octave>5</octave></pitch><duration>360</duration><tie type="stop"/><voice>1</voice><type>eighth</type><dot/><stem>down</stem><beam number="1">begin</beam><notations><tied type="stop"/></notations></note><note><pitch><step>E</step><alter>-1</alter><octave>5</octave></pitch><duration>120</duration><voice>1</voice><type>16th</type><accidental>flat</accidental><stem>down</stem><beam number="1">continue</beam><lyric number="1"><syllabic>single</syllabic><text>choo</text></lyric></note><harmony print-frame="no"><root><root-step>G</root-step></root><kind text="m9">minor-ninth</kind></harmony><note><pitch><step>D</step><octave>5</octave></pitch><duration>360</duration><voice>1</voice><type>eighth</type><dot/><stem>down</stem><beam number="1">continue</beam><lyric number="1"><syllabic>single</syllabic><text>me</text></lyric></note><note><pitch><step>C</step><octave>5</octave></pitch><duration>120</duration><tie type="start"/><voice>1</voice><type>16th</type><stem>down</stem><beam number="1">end</beam><notations><tied type="start"/></notations><lyric number="1"><syllabic>single</syllabic><text>home</text><extend/></lyric></note></measure><measure number="53"><harmony print-frame="no"><root><root-step>C</root-step></root><kind text="">major</kind></harmony><note><pitch><step>C</step><octave>5</octave></pitch><duration>1920</duration><tie type="stop"/><tie type="start"/><voice>1</voice><type>whole</type><notations><tied type="stop"/><tied type="start"/></notations></note></measure><measure number="54"><harmony print-frame="no"><root><root-step>C</root-step></root><kind text="m6">minor-sixth</kind></harmony><note><pitch><step>C</step><octave>5</octave></pitch><duration>480</duration><tie type="stop"/><voice>1</voice><type>quarter</type><stem>down</stem><notations><tied type="stop"/></notations></note><note><rest/><duration>480</duration><voice>1</voice><type>quarter</type></note><note><rest/><duration>960</duration><voice>1</voice><type>half</type></note></measure><measure number="55"><print new-system="yes"/><harmony print-frame="no"><root><root-step>C</root-step></root><kind text="7">dominant</kind></harmony><note><rest/><duration>1920</duration><voice>1</voice></note></measure><measure number="56"><harmony print-frame="no"><root><root-step>C</root-step></root><kind text="m6">minor-sixth</kind></harmony><note><rest/><duration>960</duration><voice>1</voice><type>half</type></note><note><rest/><duration>480</duration><voice>1</voice><type>quarter</type></note><note><rest/><duration>360</duration><voice>1</voice><type>eighth</type><dot/></note><note><pitch><step>E</step><octave>5</octave></pitch><duration>120</duration><tie type="start"/><voice>1</voice><type>16th</type><stem>down</stem><notations><tied type="start"/></notations><lyric number="1"><syllabic>begin</syllabic><text>Chat</text></lyric></note></measure><measure number="57"><harmony print-frame="no"><root><root-step>C</root-step></root><kind text="7">dominant</kind></harmony><note><pitch><step>E</step><octave>5</octave></pitch><duration>360</duration><tie type="stop"/><voice>1</voice><type>eighth</type><dot/><stem>down</stem><beam number="1">begin</beam><notations><tied type="stop"/></notations></note><note><pitch><step>E</step><alter>-1</alter><octave>5</octave></pitch><duration>120</duration><voice>1</voice><type>16th</type><accidental>flat</accidental><stem>down</stem><beam number="1">continue</beam><lyric number="1"><syllabic>middle</syllabic><text>ta</text></lyric></note><note><pitch><step>D</step><octave>5</octave></pitch><duration>360</duration><voice>1</voice><type>eighth</type><dot/><stem>down</stem><beam number="1">continue</beam><lyric number="1"><syllabic>middle</syllabic><text>noo</text></lyric></note><note><pitch><step>C</step><octave>5</octave></pitch><duration>120</duration><voice>1</voice><type>16th</type><stem>down</stem><beam number="1">end</beam><lyric number="1"><syllabic>end</syllabic><text>ga</text></lyric></note><harmony print-frame="no"><root><root-step>A</root-step></root><kind text="m7">minor-seventh</kind></harmony><note><pitch><step>E</step><octave>5</octave></pitch><duration>240</duration><voice>1</voice><type>eighth</type><accidental>natural</accidental><stem>down</stem><lyric number="1"><syllabic>begin</syllabic><text>choo</text></lyric></note><note><pitch><step>C</step><octave>5</octave></pitch><duration>480</duration><voice>1</voice><type>quarter</type><stem>down</stem><lyric number="1"><syllabic>end</syllabic><text>choo</text></lyric></note><note><pitch><step>E</step><octave>5</octave></pitch><duration>240</duration><tie type="start"/><voice>1</voice><type>eighth</type><stem>down</stem><notations><tied type="start"/></notations><lyric number="1"><syllabic>single</syllabic><text>won't</text><extend/></lyric></note></measure><measure number="58"><harmony print-frame="no"><root><root-step>D</root-step></root><kind text="7b5">dominant</kind><degree><degree-value>5</degree-value><degree-alter>-1</degree-alter><degree-type>alter</degree-type></degree></harmony><note><pitch><step>E</step><octave>5</octave></pitch><duration>240</duration><tie type="stop"/><voice>1</voice><type>eighth</type><stem>down</stem><notations><tied type="stop"/></notations></note><note><pitch><step>C</step><octave>5</octave></pitch><duration>480</duration><voice>1</voice><type>quarter</type><stem>down</stem><lyric number="1"><syllabic>single</syllabic><text>you</text></lyric></note><note><pitch><step>E</step><octave>5</octave></pitch><duration>240</duration><tie type="start"/><voice>1</voice><type>eighth</type><stem>down</stem><notations><tied type="start"/></notations><lyric number="1"><syllabic>single</syllabic><text>choo</text><extend/></lyric></note><note><pitch><step>E</step><octave>5</octave></pitch><duration>360</duration><tie type="stop"/><voice>1</voice><type>eighth</type><dot/><stem>down</stem><beam number="1">begin</beam><notations><tied type="stop"/></notations></note><harmony print-frame="no"><root><root-step>D</root-step></root><kind text="m7">minor-seventh</kind></harmony><note><pitch><step>E</step><alter>-1</alter><octave>5</octave></pitch><duration>120</duration><voice>1</voice><type>16th</type><accidental>flat</accidental><stem>down</stem><beam number="1">continue</beam><lyric number="1"><syllabic>single</syllabic><text>choo</text></lyric></note><harmony print-frame="no"><root><root-step>G</root-step></root><kind text="m9">minor-ninth</kind></harmony><note><pitch><step>D</step><octave>5</octave></pitch><duration>360</duration><voice>1</voice><type>eighth</type><dot/><stem>down</stem><beam number="1">continue</beam><lyric number="1"><syllabic>single</syllabic><text>me</text></lyric></note><note><pitch><step>C</step><octave>5</octave></pitch><duration>120</duration><tie type="start"/><voice>1</voice><type>16th</type><stem>down</stem><beam number="1">end</beam><notations><tied type="start"/></notations><lyric number="1"><syllabic>single</syllabic><text>home.</text><extend/></lyric></note></measure><measure number="59"><harmony print-frame="no"><root><root-step>C</root-step></root><kind text="">major</kind></harmony><note><pitch><step>C</step><octave>5</octave></pitch><duration>960</duration><tie type="stop"/><tie type="start"/><voice>1</voice><type>half</type><stem>down</stem><notations><tied type="stop"/><tied type="start"/></notations></note><harmony print-frame="no"><root><root-step>G</root-step></root><kind text="7">dominant</kind></harmony><note><pitch><step>C</step><octave>5</octave></pitch><duration>960</duration><tie type="stop"/><tie type="start"/><voice>1</voice><type>half</type><stem>down</stem><notations><tied type="stop"/><tied type="start"/></notations></note></measure><measure number="60"><harmony print-frame="no"><root><root-step>C</root-step></root><kind text="">major</kind></harmony><note><pitch><step>C</step><octave>5</octave></pitch><duration>480</duration><tie type="stop"/><voice>1</voice><type>quarter</type><stem>down</stem><notations><tied type="stop"/></notations></note><note><rest/><duration>480</duration><voice>1</voice><type>quarter</type></note><note><rest/><duration>960</duration><voice>1</voice><type>half</type></note></measure></part></score-partwise>