<score-partwise version="2.0"><work><work-number/><work-title/></work><movement-number/><movement-title>Hard Hearted Hannah</movement-title><identification><creator type="composer">Milton Ager</creator><creator type="poet">Bob Bigelow, Charles Bates, Jack Yellen</creator><rights>All Rights Reserved</rights><encoding><software>MuseScore 0.9.5</software><encoding-date>2009-07-24</encoding-date><software>ProxyMusic 2.0 c</software></encoding><source>http://wikifonia.org/node/2251/revisions/2856/view</source></identification><defaults><scaling><millimeters>7.056</millimeters><tenths>40</tenths></scaling><page-layout><page-height>1683.67</page-height><page-width>1190.48</page-width><page-margins type="both"><left-margin>56.6893</left-margin><right-margin>56.6893</right-margin><top-margin>56.6893</top-margin><bottom-margin>113.379</bottom-margin></page-margins></page-layout></defaults><part-list><score-part id="P1"><part-name/><score-instrument id="P1-I3"><instrument-name/></score-instrument><midi-instrument id="P1-I3"><midi-channel>1</midi-channel><midi-program>1</midi-program></midi-instrument></score-part></part-list><part id="P1"><measure width="427.62" number="1"><print><system-layout><system-margins><left-margin>-0.00</left-margin><right-margin>0.00</right-margin></system-margins><top-system-distance>70.00</top-system-distance></system-layout></print><barline location="left"><bar-style>heavy-light</bar-style><repeat direction="forward"/></barline><attributes><divisions>4</divisions><key><fifths>-3</fifths><mode>major</mode></key><time symbol="cut"><beats>2</beats><beat-type>2</beat-type></time><clef><sign>G</sign><line>2</line></clef></attributes><direction placement="above"><direction-type><words>Moderato</words></direction-type></direction><note default-y="-15.00" default-x="158.23"><pitch><step>C</step><octave>5</octave></pitch><duration>4</duration><voice>1</voice><type>quarter</type><stem>down</stem><lyric number="1"><syllabic>single</syllabic><text>Hard</text></lyric></note><harmony print-frame="no"><root><root-step>E</root-step><root-alter>-1</root-alter></root><kind text="">major</kind></harmony><note default-y="-15.00" default-x="211.72"><pitch><step>C</step><octave>5</octave></pitch><duration>3</duration><voice>1</voice><type>eighth</type><dot/><stem>down</stem><beam number="1">begin</beam><lyric number="1"><syllabic>begin</syllabic><text>Heart</text></lyric></note><note default-y="-20.00" default-x="257.03"><pitch><step>B</step><alter>-1</alter><octave>4</octave></pitch><duration>1</duration><voice>1</voice><type>16th</type><stem>down</stem><beam number="1">end</beam><lyric number="1"><syllabic>end</syllabic><text>ed</text></lyric></note><harmony print-frame="no"><root><root-step>D</root-step></root><kind text="7">dominant</kind></harmony><note default-y="-15.00" default-x="293.97"><pitch><step>C</step><octave>5</octave></pitch><duration>2</duration><voice>1</voice><type>eighth</type><stem>down</stem><lyric number="1"><syllabic>begin</syllabic><text>Han</text></lyric></note><harmony print-frame="no"><root><root-step>B</root-step><root-alter>-1</root-alter></root><kind text="6">major-sixth</kind></harmony><note default-y="-20.00" default-x="337.76"><pitch><step>B</step><alter>-1</alter><octave>4</octave></pitch><duration>4</duration><voice>1</voice><type>quarter</type><stem>down</stem><lyric number="1"><syllabic>end</syllabic><text>nah,</text></lyric></note><note default-y="-20.00" default-x="388.86"><pitch><step>B</step><alter>-1</alter><octave>4</octave></pitch><duration>2</duration><voice>1</voice><type>eighth</type><stem>down</stem><lyric number="1"><syllabic>single</syllabic><text>the</text></lyric></note></measure><measure width="239.13" number="2"><harmony print-frame="no"><root><root-step>C</root-step></root><kind text="7">dominant</kind></harmony><note default-y="-15.00" default-x="33.50"><pitch><step>C</step><octave>5</octave></pitch><duration>4</duration><voice>1</voice><type>quarter</type><stem>down</stem><lyric number="1"><syllabic>single</syllabic><text>vamp</text></lyric></note><note default-y="-15.00" default-x="75.62"><pitch><step>C</step><octave>5</octave></pitch><duration>3</duration><voice>1</voice><type>eighth</type><dot/><stem>down</stem><beam number="1">begin</beam><lyric number="1"><syllabic>single</syllabic><text>of</text></lyric></note><note default-y="-20.00" default-x="112.97"><pitch><step>B</step><alter>-1</alter><octave>4</octave></pitch><duration>1</duration><voice>1</voice><type>16th</type><stem>down</stem><beam number="1">end</beam><lyric number="1"><syllabic>begin</syllabic><text>Sa</text></lyric></note><note default-y="-10.00" default-x="147.40"><pitch><step>D</step><octave>5</octave></pitch><duration>2</duration><voice>1</voice><type>eighth</type><stem>down</stem><lyric number="1"><syllabic>middle</syllabic><text>van</text></lyric></note><note default-y="-15.00" default-x="188.70"><pitch><step>C</step><octave>5</octave></pitch><duration>6</duration><voice>1</voice><type>quarter</type><dot/><stem>down</stem><lyric number="1"><syllabic>end</syllabic><text>nah,</text></lyric></note></measure><measure width="328.26" number="3"><note><rest/><duration>3</duration><voice>1</voice><type>eighth</type><dot/></note><harmony print-frame="no"><root><root-step>F</root-step></root><kind text="7">dominant</kind></harmony><note default-y="-35.00" default-x="62.77"><pitch><step>F</step><alter>1</alter><octave>4</octave></pitch><duration>1</duration><voice>1</voice><type>16th</type><accidental>sharp</accidental><stem>up</stem><lyric number="1"><syllabic>single</syllabic><text>The</text></lyric></note><note default-y="-30.00" default-x="114.46"><pitch><step>G</step><octave>4</octave></pitch><duration>3</duration><voice>1</voice><type>eighth</type><dot/><stem>up</stem><beam number="1">begin</beam><lyric number="1"><syllabic>begin</syllabic><text>mean</text></lyric></note><note default-y="-35.00" default-x="162.23"><pitch><step>F</step><alter>1</alter><octave>4</octave></pitch><duration>1</duration><voice>1</voice><type>16th</type><stem>up</stem><beam number="1">end</beam><lyric number="1"><syllabic>end</syllabic><text>est</text></lyric></note><note default-y="-30.00" default-x="194.45"><pitch><step>G</step><octave>4</octave></pitch><duration>2</duration><voice>1</voice><type>eighth</type><stem>up</stem><lyric number="1"><syllabic>single</syllabic><text>gal</text></lyric></note><note default-y="-15.00" default-x="233.62"><pitch><step>C</step><octave>5</octave></pitch><duration>4</duration><voice>1</voice><type>quarter</type><stem>down</stem><lyric number="1"><syllabic>single</syllabic><text>in</text></lyric></note><note default-y="-35.00" default-x="287.49"><pitch><step>F</step><octave>4</octave></pitch><duration>2</duration><tie type="start"/><voice>1</voice><type>eighth</type><accidental>natural</accidental><stem>up</stem><notations><tied type="start"/></notations><lyric number="1"><syllabic>single</syllabic><text>town;</text><extend/></lyric></note></measure><measure width="82.08" number="4"><note default-y="-35.00" default-x="15.00"><pitch><step>F</step><octave>4</octave></pitch><duration>16</duration><tie type="stop"/><voice>1</voice><type>whole</type><notations><tied type="stop"/></notations></note></measure><measure width="344.98" number="5"><print new-system="yes"><system-layout><system-margins><left-margin>-0.00</left-margin><right-margin>-0.00</right-margin></system-margins><system-distance>158.35</system-distance></system-layout></print><harmony print-frame="no"><root><root-step>B</root-step><root-alter>-1</root-alter></root><kind text="6">major-sixth</kind></harmony><note default-y="-30.00" default-x="113.92"><pitch><step>G</step><octave>4</octave></pitch><duration>4</duration><voice>1</voice><type>quarter</type><stem>up</stem><lyric number="1"><syllabic>begin</syllabic><text>Leath</text></lyric><lyric number="2"><syllabic>single</syllabic><text>Talk</text></lyric></note><note default-y="-30.00" default-x="160.13"><pitch><step>G</step><octave>4</octave></pitch><duration>3</duration><voice>1</voice><type>eighth</type><dot/><stem>up</stem><beam number="1">begin</beam><lyric number="1"><syllabic>end</syllabic><text>er</text></lyric><lyric number="2"><syllabic>single</syllabic><text>of</text></lyric></note><note default-y="-35.00" default-x="201.11"><pitch><step>F</step><octave>4</octave></pitch><duration>1</duration><voice>1</voice><type>16th</type><stem>up</stem><beam number="1">end</beam><lyric number="1"><syllabic>single</syllabic><text>is</text></lyric><lyric number="2"><syllabic>single</syllabic><text>your</text></lyric></note><note default-y="-30.00" default-x="256.19"><pitch><step>G</step><octave>4</octave></pitch><duration>6</duration><voice>1</voice><type>quarter</type><dot/><stem>up</stem><lyric number="1"><syllabic>single</syllabic><text>tough,</text></lyric><lyric number="2"><syllabic>single</syllabic><text>cold,</text></lyric></note><harmony print-frame="no"><root><root-step>A</root-step></root><kind text="7">dominant</kind></harmony><note default-y="-35.00" default-x="309.78"><pitch><step>F</step><octave>4</octave></pitch><duration>2</duration><voice>1</voice><type>eighth</type><stem>up</stem><lyric number="1"><syllabic>single</syllabic><text>but</text></lyric><lyric number="2"><syllabic>begin</syllabic><text>re</text></lyric></note></measure><measure width="372.13" number="6"><harmony print-frame="no"><root><root-step>B</root-step><root-alter>-1</root-alter></root><kind text="7">dominant</kind></harmony><note default-y="-30.00" default-x="27.24"><pitch><step>G</step><octave>4</octave></pitch><duration>3</duration><voice>1</voice><type>eighth</type><dot/><stem>up</stem><beam number="1">begin</beam><lyric number="1"><syllabic>begin</syllabic><text>Han</text></lyric><lyric number="2"><syllabic>middle</syllabic><text>frig</text></lyric></note><note default-y="-20.00" default-x="86.14"><pitch><step>B</step><alter>-1</alter><octave>4</octave></pitch><duration>1</duration><voice>1</voice><type>16th</type><stem>up</stem><beam number="1">continue</beam><lyric number="1"><syllabic>end</syllabic><text>nah'</text></lyric><lyric number="2"><syllabic>middle</syllabic><text>er</text></lyric></note><note default-y="-30.00" default-x="132.90"><pitch><step>G</step><octave>4</octave></pitch><duration>3</duration><voice>1</voice><type>eighth</type><dot/><stem>up</stem><beam number="1">continue</beam><lyric number="1"><syllabic>single</syllabic><text>heart</text></lyric><lyric number="2"><syllabic>middle</syllabic><text>a</text></lyric></note><note default-y="-35.00" default-x="191.80"><pitch><step>F</step><octave>4</octave></pitch><duration>1</duration><voice>1</voice><type>16th</type><stem>up</stem><beam number="1">end</beam><lyric number="1"><syllabic>single</syllabic><text>is</text></lyric><lyric number="2"><syllabic>end</syllabic><text>ting</text></lyric></note><note default-y="-30.00" default-x="240.94"><pitch><step>G</step><octave>4</octave></pitch><duration>2</duration><voice>1</voice><type>eighth</type><stem>up</stem><lyric number="1"><syllabic>begin</syllabic><text>tough</text></lyric><lyric number="2"><syllabic>begin</syllabic><text>Mam</text></lyric></note><note default-y="-20.00" default-x="293.52"><pitch><step>B</step><alter>-1</alter><octave>4</octave></pitch><duration>6</duration><voice>1</voice><type>quarter</type><dot/><stem>down</stem><lyric number="1"><syllabic>end</syllabic><text>er;</text></lyric><lyric number="2"><syllabic>end</syllabic><text>mas,</text></lyric></note></measure><measure width="359.98" number="7"><harmony print-frame="no"><root><root-step>E</root-step><root-alter>-1</root-alter></root><kind text="">major</kind></harmony><note default-y="-5.00" default-x="34.14"><pitch><step>E</step><alter>-1</alter><octave>5</octave></pitch><duration>2</duration><voice>1</voice><type>eighth</type><stem>down</stem><lyric number="1"><syllabic>single</syllabic><text>She's</text></lyric><lyric number="2"><syllabic>begin</syllabic><text>Broth</text></lyric></note><note default-y="-5.00" default-x="76.81"><pitch><step>E</step><alter>-1</alter><octave>5</octave></pitch><duration>4</duration><voice>1</voice><type>quarter</type><stem>down</stem><lyric number="1"><syllabic>single</syllabic><text>a</text></lyric><lyric number="2"><syllabic>end</syllabic><text>er,</text></lyric></note><note default-y="-40.00" default-x="143.22"><pitch><step>E</step><alter>-1</alter><octave>4</octave></pitch><duration>2</duration><tie type="start"/><voice>1</voice><type>eighth</type><stem>up</stem><notations><tied type="start"/></notations><lyric number="1"><syllabic>single</syllabic><text>gal</text><extend/></lyric><lyric number="2"><syllabic>single</syllabic><text>she's</text><extend/></lyric></note><note default-y="-40.00" default-x="184.73"><pitch><step>E</step><alter>-1</alter><octave>4</octave></pitch><duration>2</duration><tie type="stop"/><voice>1</voice><type>eighth</type><stem>up</stem><beam number="1">begin</beam><notations><tied type="stop"/></notations></note><note default-y="-40.00" default-x="226.23"><pitch><step>E</step><alter>-1</alter><octave>4</octave></pitch><duration>2</duration><voice>1</voice><type>eighth</type><stem>up</stem><beam number="1">continue</beam><lyric number="1"><syllabic>single</syllabic><text>who</text></lyric><lyric number="2"><syllabic>single</syllabic><text>the</text></lyric></note><note default-y="-35.00" default-x="275.37"><pitch><step>F</step><octave>4</octave></pitch><duration>2</duration><voice>1</voice><type>eighth</type><stem>up</stem><beam number="1">continue</beam><lyric number="1"><syllabic>single</syllabic><text>loves</text></lyric><lyric number="2"><syllabic>begin</syllabic><text>Pol</text></lyric></note><note default-y="-40.00" default-x="316.87"><pitch><step>E</step><alter>-1</alter><octave>4</octave></pitch><duration>2</duration><voice>1</voice><type>eighth</type><stem>up</stem><beam number="1">end</beam><lyric number="1"><syllabic>single</syllabic><text>to</text></lyric><lyric number="2"><syllabic>end</syllabic><text>ar</text></lyric></note></measure><measure width="402.28" number="8"><print new-system="yes"><system-layout><system-margins><left-margin>-0.00</left-margin><right-margin>-0.00</right-margin></system-margins><system-distance>184.51</system-distance></system-layout></print><harmony print-frame="no"><root><root-step>B</root-step></root><kind text="7">dominant</kind></harmony><note default-y="-30.00" default-x="107.66"><pitch><step>G</step><alter>-1</alter><octave>4</octave></pitch><duration>4</duration><voice>1</voice><type>quarter</type><accidental>flat</accidental><stem>up</stem><lyric number="1"><syllabic>single</syllabic><text>see</text></lyric><lyric number="2"><syllabic>single</syllabic><text>bear</text></lyric></note><note default-y="-30.00" default-x="176.48"><pitch><step>G</step><alter>-1</alter><octave>4</octave></pitch><duration>4</duration><voice>1</voice><type>quarter</type><stem>up</stem><lyric number="1"><syllabic>single</syllabic><text>men</text></lyric><lyric number="2"><syllabic>begin</syllabic><text>pa</text></lyric></note><harmony print-frame="no"><root><root-step>B</root-step><root-alter>-1</root-alter></root><kind text="7">dominant</kind></harmony><note default-y="-30.00" default-x="245.30"><pitch><step>G</step><alter>-1</alter><octave>4</octave></pitch><duration>2</duration><voice>1</voice><type>eighth</type><stem>up</stem><lyric number="1"><syllabic>begin</syllabic><text>suf</text></lyric><lyric number="2"><syllabic>middle</syllabic><text>jam</text></lyric></note><note default-y="-35.00" default-x="288.84"><pitch><step>F</step><octave>4</octave></pitch><duration>4</duration><voice>1</voice><type>quarter</type><stem>up</stem><lyric number="1"><syllabic>end</syllabic><text>fer!</text></lyric><lyric number="2"><syllabic>end</syllabic><text>as!</text></lyric></note><note default-y="-20.00" default-x="357.66"><pitch><step>B</step><alter>-1</alter><octave>4</octave></pitch><duration>2</duration><voice>1</voice><type>eighth</type><stem>down</stem><lyric number="1"><syllabic>single</syllabic><text>To</text></lyric></note></measure><measure width="370.30" number="9"><harmony print-frame="no"><root><root-step>E</root-step><root-alter>-1</root-alter></root><kind text="">major</kind></harmony><note default-y="-15.00" default-x="30.99"><pitch><step>C</step><octave>5</octave></pitch><duration>4</duration><voice>1</voice><type>quarter</type><stem>down</stem><lyric number="1"><syllabic>single</syllabic><text>tease</text></lyric></note><note default-y="-15.00" default-x="98.62"><pitch><step>C</step><octave>5</octave></pitch><duration>3</duration><voice>1</voice><type>eighth</type><dot/><stem>down</stem><beam number="1">begin</beam><lyric number="1"><syllabic>single</syllabic><text>'em</text></lyric></note><harmony print-frame="no"><root><root-step>D</root-step></root><kind text="7">dominant</kind></harmony><note default-y="-20.00" default-x="158.59"><pitch><step>B</step><alter>-1</alter><octave>4</octave></pitch><duration>1</duration><voice>1</voice><type>16th</type><stem>down</stem><beam number="1">end</beam><lyric number="1"><syllabic>single</syllabic><text>and</text></lyric></note><note default-y="-15.00" default-x="202.71"><pitch><step>C</step><octave>5</octave></pitch><duration>2</duration><voice>1</voice><type>eighth</type><stem>down</stem><lyric number="1"><syllabic>single</syllabic><text>thrill</text></lyric></note><harmony print-frame="no"><root><root-step>D</root-step></root><kind text="6">major-sixth</kind></harmony><note default-y="-20.00" default-x="251.89"><pitch><step>B</step><alter>-1</alter><octave>4</octave></pitch><duration>4</duration><voice>1</voice><type>quarter</type><stem>down</stem><lyric number="1"><syllabic>single</syllabic><text>'em,</text></lyric></note><note default-y="-20.00" default-x="319.52"><pitch><step>B</step><alter>-1</alter><octave>4</octave></pitch><duration>2</duration><voice>1</voice><type>eighth</type><stem>down</stem><lyric number="1"><syllabic>single</syllabic><text>To</text></lyric></note></measure><measure width="304.52" number="10"><harmony print-frame="no"><root><root-step>C</root-step></root><kind text="7">dominant</kind></harmony><note default-y="-15.00" default-x="20.98"><pitch><step>C</step><octave>5</octave></pitch><duration>4</duration><voice>1</voice><type>quarter</type><stem>down</stem><lyric number="1"><syllabic>begin</syllabic><text>tor</text></lyric></note><note default-y="-15.00" default-x="85.83"><pitch><step>C</step><octave>5</octave></pitch><duration>3</duration><voice>1</voice><type>eighth</type><dot/><stem>down</stem><beam number="1">begin</beam><lyric number="1"><syllabic>end</syllabic><text>ture</text></lyric></note><note default-y="-20.00" default-x="143.34"><pitch><step>B</step><alter>-1</alter><octave>4</octave></pitch><duration>1</duration><voice>1</voice><type>16th</type><stem>down</stem><beam number="1">end</beam><lyric number="1"><syllabic>single</syllabic><text>and</text></lyric></note><note default-y="-10.00" default-x="180.57"><pitch><step>D</step><octave>5</octave></pitch><duration>2</duration><voice>1</voice><type>eighth</type><stem>down</stem><lyric number="1"><syllabic>single</syllabic><text>kill</text></lyric></note><note default-y="-15.00" default-x="227.73"><pitch><step>C</step><octave>5</octave></pitch><duration>6</duration><voice>1</voice><type>quarter</type><dot/><stem>down</stem><lyric number="1"><syllabic>single</syllabic><text>'em</text></lyric></note></measure><measure width="397.34" number="11"><print new-system="yes"><system-layout><system-margins><left-margin>-0.00</left-margin><right-margin>0.00</right-margin></system-margins><system-distance>184.51</system-distance></system-layout></print><harmony print-frame="no"><root><root-step>F</root-step></root><kind text="m">minor</kind></harmony><note><rest/><duration>3</duration><voice>1</voice><type>eighth</type><dot/></note><note default-y="-30.00" default-x="140.60"><pitch><step>G</step><octave>4</octave></pitch><duration>1</duration><voice>1</voice><type>16th</type><stem>up</stem><lyric number="1"><syllabic>single</syllabic><text>Is</text></lyric></note><note default-y="-25.00" default-x="182.27"><pitch><step>A</step><alter>-1</alter><octave>4</octave></pitch><duration>3</duration><voice>1</voice><type>eighth</type><dot/><stem>up</stem><beam number="1">begin</beam><lyric number="1"><syllabic>single</syllabic><text>her</text></lyric></note><note default-y="-35.00" default-x="235.57"><pitch><step>F</step><octave>4</octave></pitch><duration>1</duration><voice>1</voice><type>16th</type><stem>up</stem><beam number="1">end</beam><lyric number="1"><syllabic>begin</syllabic><text>de</text></lyric></note><harmony print-frame="no"><root><root-step>G</root-step></root><kind text="7">dominant</kind></harmony><note default-y="-30.00" default-x="277.22"><pitch><step>G</step><octave>4</octave></pitch><duration>2</duration><voice>1</voice><type>eighth</type><stem>up</stem><lyric number="1"><syllabic>end</syllabic><text>light,</text></lyric></note><note default-y="-35.00" default-x="326.05"><pitch><step>F</step><octave>4</octave></pitch><duration>6</duration><voice>1</voice><type>quarter</type><dot/><stem>up</stem><lyric number="1"><syllabic>single</syllabic><text>they</text></lyric></note></measure><measure width="197.30" number="12"><harmony print-frame="no"><root><root-step>C</root-step></root><kind text="m">minor</kind></harmony><note default-y="-40.00" default-x="25.50"><pitch><step>E</step><alter>-1</alter><octave>4</octave></pitch><duration>8</duration><tie type="start"/><voice>1</voice><type>half</type><stem>up</stem><notations><tied type="start"/></notations><lyric number="1"><syllabic>single</syllabic><text>say,</text><extend/></lyric></note><harmony print-frame="no"><root><root-step>E</root-step><root-alter>-1</root-alter></root><kind text="7">dominant</kind><bass><bass-step>B</bass-step><bass-alter>-1</bass-alter></bass></harmony><note default-y="-40.00" default-x="101.14"><pitch><step>E</step><alter>-1</alter><octave>4</octave></pitch><duration>4</duration><tie type="stop"/><voice>1</voice><type>quarter</type><stem>up</stem><notations><tied type="stop"/></notations></note><note default-y="-40.00" default-x="148.42"><pitch><step>E</step><alter>-1</alter><octave>4</octave></pitch><duration>4</duration><voice>1</voice><type>quarter</type><stem>up</stem><lyric number="1"><syllabic>single</syllabic><text>I</text></lyric><lyric number="2"><syllabic>single</syllabic><text>An</text></lyric></note></measure><measure width="482.46" number="13"><harmony print-frame="no"><root><root-step>A</root-step><root-alter>-1</root-alter></root><kind text="6">major-sixth</kind></harmony><note default-y="-35.00" default-x="25.99"><pitch><step>F</step><octave>4</octave></pitch><duration>3</duration><voice>1</voice><type>eighth</type><dot/><stem>up</stem><beam number="1">begin</beam><lyric number="1"><syllabic>single</syllabic><text>saw</text></lyric><lyric number="2"><syllabic>begin</syllabic><text>ev</text></lyric></note><note default-y="-40.00" default-x="94.23"><pitch><step>E</step><alter>-1</alter><octave>4</octave></pitch><duration>1</duration><voice>1</voice><type>16th</type><stem>up</stem><beam number="1">continue</beam><lyric number="1"><syllabic>single</syllabic><text>her</text></lyric><lyric number="2"><syllabic>end</syllabic><text>'ning</text></lyric></note><note default-y="-35.00" default-x="146.03"><pitch><step>F</step><octave>4</octave></pitch><duration>3</duration><voice>1</voice><type>eighth</type><dot/><stem>up</stem><beam number="1">continue</beam><lyric number="1"><syllabic>single</syllabic><text>at</text></lyric><lyric number="2"><syllabic>single</syllabic><text>spent</text></lyric></note><note default-y="-40.00" default-x="214.27"><pitch><step>E</step><alter>-1</alter><octave>4</octave></pitch><duration>1</duration><voice>1</voice><type>16th</type><stem>up</stem><beam number="1">end</beam><lyric number="1"><syllabic>single</syllabic><text>the</text></lyric><lyric number="2"><syllabic>single</syllabic><text>with</text></lyric></note><note default-y="-35.00" default-x="259.01"><pitch><step>F</step><octave>4</octave></pitch><duration>3</duration><voice>1</voice><type>eighth</type><dot/><stem>up</stem><beam number="1">begin</beam><lyric number="1"><syllabic>single</syllabic><text>sea</text></lyric><lyric number="2"><syllabic>begin</syllabic><text>Han</text></lyric></note><note default-y="-40.00" default-x="327.26"><pitch><step>E</step><alter>-1</alter><octave>4</octave></pitch><duration>1</duration><voice>1</voice><type>16th</type><stem>up</stem><beam number="1">continue</beam><lyric number="1"><syllabic>single</syllabic><text>shore</text></lyric><lyric number="2"><syllabic>end</syllabic><text>nah</text></lyric></note><note default-y="-35.00" default-x="377.64"><pitch><step>F</step><octave>4</octave></pitch><duration>3</duration><voice>1</voice><type>eighth</type><dot/><stem>up</stem><beam number="1">continue</beam><lyric number="1"><syllabic>single</syllabic><text>with</text></lyric><lyric number="2"><syllabic>begin</syllabic><text>sit</text></lyric></note><note default-y="-40.00" default-x="445.88"><pitch><step>E</step><alter>-1</alter><octave>4</octave></pitch><duration>1</duration><voice>1</voice><type>16th</type><stem>up</stem><beam number="1">end</beam><lyric number="1"><syllabic>single</syllabic><text>a</text></lyric><lyric number="2"><syllabic>end</syllabic><text>ting</text></lyric></note></measure><measure width="560.11" number="14"><print new-system="yes"><system-layout><system-margins><left-margin>-0.00</left-margin><right-margin>0.00</right-margin></system-margins><system-distance>184.51</system-distance></system-layout></print><harmony print-frame="no"><root><root-step>B</root-step></root><kind text="7">dominant</kind><bass><bass-step>A</bass-step></bass></harmony><note default-y="-30.00" default-x="110.79"><pitch><step>G</step><octave>4</octave></pitch><duration>2</duration><voice>1</voice><type>eighth</type><stem>up</stem><lyric number="1"><syllabic>single</syllabic><text>great</text></lyric><lyric number="2"><syllabic>single</syllabic><text>on</text></lyric></note><note default-y="-30.00" default-x="178.69"><pitch><step>G</step><octave>4</octave></pitch><duration>4</duration><voice>1</voice><type>quarter</type><stem>up</stem><lyric number="1"><syllabic>single</syllabic><text>big</text></lyric><lyric number="2"><syllabic>single</syllabic><text>your</text></lyric></note><note default-y="-40.00" default-x="272.04"><pitch><step>E</step><alter>-1</alter><octave>4</octave></pitch><duration>2</duration><tie type="start"/><voice>1</voice><type>eighth</type><stem>up</stem><notations><tied type="start"/></notations><lyric number="1"><syllabic>single</syllabic><text>pan;</text><extend/></lyric><lyric number="2"><syllabic>single</syllabic><text>knees,</text><extend/></lyric></note><note default-y="-40.00" default-x="339.93"><pitch><step>E</step><alter>-1</alter><octave>4</octave></pitch><duration>4</duration><tie type="stop"/><voice>1</voice><type>quarter</type><stem>up</stem><notations><tied type="stop"/></notations></note><note default-y="-35.00" default-x="433.29"><pitch><step>F</step><octave>4</octave></pitch><duration>3</duration><voice>1</voice><type>eighth</type><dot/><stem>up</stem><beam number="1">begin</beam><lyric number="1"><syllabic>single</syllabic><text>There</text></lyric><lyric number="2"><syllabic>single</syllabic><text>is</text></lyric></note><note default-y="-35.00" default-x="516.07"><pitch><step>F</step><alter>1</alter><octave>4</octave></pitch><duration>1</duration><voice>1</voice><type>16th</type><accidental>sharp</accidental><stem>up</stem><beam number="1">end</beam><lyric number="1"><syllabic>single</syllabic><text>was</text></lyric><lyric number="2"><syllabic>single</syllabic><text>like</text></lyric></note></measure><measure width="516.99" number="15"><harmony print-frame="no"><root><root-step>E</root-step><root-alter>-1</root-alter></root><kind text="">major</kind></harmony><note default-y="-30.00" default-x="28.02"><pitch><step>G</step><octave>4</octave></pitch><duration>3</duration><voice>1</voice><type>eighth</type><dot/><stem>up</stem><beam number="1">begin</beam><lyric number="1"><syllabic>begin</syllabic><text>Han</text></lyric><lyric number="2"><syllabic>begin</syllabic><text>trav'</text></lyric></note><note default-y="-35.00" default-x="108.06"><pitch><step>F</step><alter>1</alter><octave>4</octave></pitch><duration>1</duration><voice>1</voice><type>16th</type><accidental>sharp</accidental><stem>up</stem><beam number="1">continue</beam><lyric number="1"><syllabic>end</syllabic><text>nah</text></lyric><lyric number="2"><syllabic>end</syllabic><text>ling</text></lyric></note><note default-y="-30.00" default-x="152.19"><pitch><step>G</step><octave>4</octave></pitch><duration>3</duration><voice>1</voice><type>eighth</type><dot/><stem>up</stem><beam number="1">continue</beam><lyric number="1"><syllabic>begin</syllabic><text>pour</text></lyric><lyric number="2"><syllabic>single</syllabic><text>thru</text></lyric></note><note default-y="-35.00" default-x="232.23"><pitch><step>F</step><alter>1</alter><octave>4</octave></pitch><duration>1</duration><voice>1</voice><type>16th</type><stem>up</stem><beam number="1">end</beam><lyric number="1"><syllabic>end</syllabic><text>ing-</text></lyric><lyric number="2"><syllabic>begin</syllabic><text>A</text></lyric></note><note default-y="-30.00" default-x="273.26"><pitch><step>G</step><octave>4</octave></pitch><duration>3</duration><voice>1</voice><type>eighth</type><dot/><stem>up</stem><beam number="1">begin</beam><lyric number="1"><syllabic>begin</syllabic><text>wa</text></lyric><lyric number="2"><syllabic>middle</syllabic><text>las</text></lyric></note><note default-y="-35.00" default-x="353.30"><pitch><step>F</step><alter>1</alter><octave>4</octave></pitch><duration>1</duration><voice>1</voice><type>16th</type><stem>up</stem><beam number="1">continue</beam><lyric number="1"><syllabic>end</syllabic><text>ter</text></lyric><lyric number="2"><syllabic>end</syllabic><text>ka</text></lyric></note><harmony print-frame="no"><root><root-step>B</root-step><root-alter>-1</root-alter></root><kind text="m">minor</kind><bass><bass-step>D</bass-step><bass-alter>-1</bass-alter></bass></harmony><note default-y="-30.00" default-x="394.32"><pitch><step>G</step><octave>4</octave></pitch><duration>3</duration><voice>1</voice><type>eighth</type><dot/><stem>up</stem><beam number="1">continue</beam><lyric number="1"><syllabic>single</syllabic><text>on</text></lyric><lyric number="2"><syllabic>single</syllabic><text>in</text></lyric></note><note default-y="-25.00" default-x="474.36"><pitch><step>A</step><alter>-1</alter><octave>4</octave></pitch><duration>1</duration><voice>1</voice><type>16th</type><stem>up</stem><beam number="1">end</beam><lyric number="1"><syllabic>single</syllabic><text>a</text></lyric><lyric number="2"><syllabic>single</syllabic><text>your</text></lyric></note></measure><measure width="399.01" number="16"><print new-system="yes"><system-layout><system-margins><left-margin>-0.00</left-margin><right-margin>-0.00</right-margin></system-margins><system-distance>184.51</system-distance></system-layout></print><harmony print-frame="no"><root><root-step>C</root-step></root><kind text="7">dominant</kind></harmony><note default-y="-20.00" default-x="117.06"><pitch><step>B</step><alter>-1</alter><octave>4</octave></pitch><duration>2</duration><voice>1</voice><type>eighth</type><stem>down</stem><lyric number="1"><syllabic>begin</syllabic><text>drown</text></lyric><lyric number="2"><syllabic>single</syllabic><text>B.</text></lyric></note><note default-y="-20.00" default-x="166.20"><pitch><step>B</step><alter>-1</alter><octave>4</octave></pitch><duration>4</duration><voice>1</voice><type>quarter</type><stem>down</stem><lyric number="1"><syllabic>end</syllabic><text>ing</text></lyric><lyric number="2"><syllabic>single</syllabic><text>V.</text></lyric></note><note default-y="-30.00" default-x="229.98"><pitch><step>G</step><octave>4</octave></pitch><duration>2</duration><tie type="start"/><voice>1</voice><type>eighth</type><stem>up</stem><notations><tied type="start"/></notations><lyric number="1"><syllabic>single</syllabic><text>man;</text><extend/></lyric><lyric number="2"><syllabic>single</syllabic><text>D's;</text><extend/></lyric></note><note default-y="-30.00" default-x="269.84"><pitch><step>G</step><octave>4</octave></pitch><duration>4</duration><tie type="stop"/><voice>1</voice><type>quarter</type><stem>up</stem><notations><tied type="stop"/></notations></note><note default-y="-15.00" default-x="333.62"><pitch><step>C</step><octave>5</octave></pitch><duration>4</duration><voice>1</voice><type>quarter</type><stem>down</stem><lyric number="1"><syllabic>single</syllabic><text>She's</text></lyric><lyric number="2"><syllabic>single</syllabic><text>She's</text></lyric></note></measure><measure width="358.86" number="17"><harmony print-frame="no"><root><root-step>F</root-step></root><kind text="7">dominant</kind></harmony><note default-y="-5.00" default-x="30.99"><pitch><step>E</step><alter>-1</alter><octave>5</octave></pitch><duration>4</duration><voice>1</voice><type>quarter</type><stem>down</stem><lyric number="1"><syllabic>single</syllabic><text>Hard</text></lyric></note><note default-y="-5.00" default-x="97.64"><pitch><step>E</step><alter>-1</alter><octave>5</octave></pitch><duration>3</duration><voice>1</voice><type>eighth</type><dot/><stem>down</stem><beam number="1">begin</beam><lyric number="1"><syllabic>begin</syllabic><text>Heart</text></lyric></note><note default-y="-15.00" default-x="156.74"><pitch><step>C</step><octave>5</octave></pitch><duration>1</duration><voice>1</voice><type>16th</type><stem>down</stem><beam number="1">end</beam><lyric number="1"><syllabic>end</syllabic><text>ed</text></lyric></note><note default-y="-5.00" default-x="193.68"><pitch><step>E</step><alter>-1</alter><octave>5</octave></pitch><duration>2</duration><voice>1</voice><type>eighth</type><stem>down</stem><lyric number="1"><syllabic>begin</syllabic><text>Han</text></lyric></note><note default-y="-15.00" default-x="242.15"><pitch><step>C</step><octave>5</octave></pitch><duration>4</duration><voice>1</voice><type>quarter</type><stem>down</stem><lyric number="1"><syllabic>end</syllabic><text>nah</text></lyric></note><note default-y="-15.00" default-x="308.79"><pitch><step>C</step><octave>5</octave></pitch><duration>2</duration><voice>1</voice><type>eighth</type><stem>down</stem><lyric number="1"><syllabic>single</syllabic><text>The</text></lyric></note></measure><measure width="319.23" number="18"><harmony print-frame="no"><root><root-step>F</root-step></root><kind text="m7">minor-seventh</kind></harmony><note default-y="-5.00" default-x="33.50"><pitch><step>E</step><alter>-1</alter><octave>5</octave></pitch><duration>4</duration><voice>1</voice><type>quarter</type><stem>down</stem><lyric number="1"><syllabic>single</syllabic><text>vamp</text></lyric></note><note default-y="-5.00" default-x="90.89"><pitch><step>E</step><alter>-1</alter><octave>5</octave></pitch><duration>3</duration><voice>1</voice><type>eighth</type><dot/><stem>down</stem><beam number="1">begin</beam><lyric number="1"><syllabic>single</syllabic><text>of</text></lyric></note><note default-y="-15.00" default-x="141.77"><pitch><step>C</step><octave>5</octave></pitch><duration>1</duration><voice>1</voice><type>16th</type><stem>down</stem><beam number="1">end</beam><lyric number="1"><syllabic>begin</syllabic><text>Sa</text></lyric></note><note default-y="-20.00" default-x="176.21"><pitch><step>B</step><alter>-1</alter><octave>4</octave></pitch><duration>3</duration><voice>1</voice><type>eighth</type><dot/><stem>up</stem><beam number="1">begin</beam><lyric number="1"><syllabic>middle</syllabic><text>van</text></lyric></note><note default-y="-30.00" default-x="227.10"><pitch><step>G</step><alter>-1</alter><octave>4</octave></pitch><duration>1</duration><voice>1</voice><type>16th</type><accidental>flat</accidental><stem>up</stem><beam number="1">end</beam><lyric number="1"><syllabic>end</syllabic><text>nah</text></lyric></note><note default-y="-35.00" default-x="260.25"><pitch><step>F</step><octave>4</octave></pitch><duration>4</duration><voice>1</voice><type>quarter</type><stem>up</stem><lyric number="1"><syllabic>single</syllabic><text>G.</text></lyric></note></measure><measure width="306.31" number="19"><print new-system="yes"><system-layout><system-margins><left-margin>-0.00</left-margin><right-margin>-0.00</right-margin></system-margins><system-distance>184.51</system-distance></system-layout></print><barline location="left"><ending type="start" number="1"/></barline><harmony print-frame="no"><root><root-step>E</root-step><root-alter>-1</root-alter></root><kind text="">major</kind></harmony><note default-y="-40.00" default-x="99.21"><pitch><step>E</step><alter>-1</alter><octave>4</octave></pitch><duration>4</duration><voice>1</voice><type>quarter</type><stem>up</stem><lyric number="1"><syllabic>single</syllabic><text>A.</text></lyric></note><note><rest/><duration>4</duration><voice>1</voice><type>quarter</type></note><harmony print-frame="no"><root><root-step>E</root-step><root-alter>-1</root-alter></root><kind text="dim">diminished</kind></harmony><note><rest/><duration>8</duration><voice>1</voice><type>half</type></note></measure><measure width="343.39" number="20"><harmony print-frame="no"><root><root-step>B</root-step><root-alter>-1</root-alter></root><kind text="7">dominant</kind></harmony><note><rest/><duration>8</duration><voice>1</voice><type>half</type></note><note><rest/><duration>3</duration><voice>1</voice><type>eighth</type><dot/></note><note default-y="-25.00" default-x="180.24"><pitch><step>A</step><octave>4</octave></pitch><duration>1</duration><voice>1</voice><type>16th</type><accidental>natural</accidental><stem>up</stem><lyric number="1"><syllabic>single</syllabic><text>They</text></lyric></note><note default-y="-20.00" default-x="225.60"><pitch><step>B</step><alter>-1</alter><octave>4</octave></pitch><duration>3</duration><voice>1</voice><type>eighth</type><dot/><stem>down</stem><beam number="1">begin</beam><lyric number="1"><syllabic>single</syllabic><text>call</text></lyric></note><note default-y="-20.00" default-x="293.45"><pitch><step>B</step><octave>4</octave></pitch><duration>1</duration><voice>1</voice><type>16th</type><accidental>natural</accidental><stem>down</stem><beam number="1">end</beam><lyric number="1"><syllabic>single</syllabic><text>her</text></lyric></note><barline location="right"><bar-style>light-heavy</bar-style><ending type="stop" number="1"/><repeat direction="backward"/></barline></measure><measure width="199.31" number="21"><barline location="left"><ending type="start" number="2"/></barline><harmony print-frame="no"><root><root-step>B</root-step><root-alter>-1</root-alter></root><kind text="7#5">augmented-seventh</kind></harmony><harmony print-frame="no"><root><root-step>E</root-step><root-alter>-1</root-alter></root><kind text="">major</kind></harmony><note default-y="-40.00" default-x="19.41"><pitch><step>E</step><alter>-1</alter><octave>4</octave></pitch><duration>16</duration><tie type="start"/><voice>1</voice><type>whole</type><notations><tied type="start"/></notations><lyric number="1"><syllabic>single</syllabic><text>A.</text><extend/></lyric></note></measure><measure width="228.09" number="22"><harmony print-frame="no"><root><root-step>E</root-step><root-alter>-1</root-alter></root><kind text="">major</kind></harmony><note default-y="-40.00" default-x="15.00"><pitch><step>E</step><alter>-1</alter><octave>4</octave></pitch><duration>4</duration><tie type="stop"/><voice>1</voice><type>quarter</type><stem>up</stem><notations><tied type="stop"/></notations></note><note><rest/><duration>4</duration><voice>1</voice><type>quarter</type></note><note><rest/><duration>8</duration><voice>1</voice><type>half</type></note><barline location="right"><bar-style>light-heavy</bar-style><ending type="stop" number="2"/></barline></measure></part></score-partwise>