<score-partwise version="2.0"><work><work-number/><work-title/></work><movement-number/><movement-title>Ev'ry Time We Say Goodbye</movement-title><identification><creator type="composer">Cole Porter</creator><creator type="poet">Cole Porter</creator><rights>All Rights Reserved</rights><encoding><software>MuseScore 0.9.5</software><encoding-date>2009-08-08</encoding-date><software>ProxyMusic 2.0 c</software></encoding><source>http://www.wikifonia.org/node/2319/revisions/2930/view</source></identification><defaults><scaling><millimeters>5.7</millimeters><tenths>40</tenths></scaling><page-layout><page-height>2084.21</page-height><page-width>1473.68</page-width><page-margins type="both"><left-margin>70.1754</left-margin><right-margin>70.1754</right-margin><top-margin>70.1754</top-margin><bottom-margin>140.351</bottom-margin></page-margins></page-layout></defaults><part-list><score-part id="P1"><part-name/><score-instrument id="P1-I3"><instrument-name/></score-instrument><midi-instrument id="P1-I3"><midi-channel>1</midi-channel><midi-program>41</midi-program></midi-instrument></score-part></part-list><part id="P1"><measure width="414.42" number="1"><print><system-layout><system-margins><left-margin>3.00</left-margin><right-margin>0.00</right-margin></system-margins><top-system-distance>70.00</top-system-distance></system-layout></print><attributes><divisions>2</divisions><key><fifths>-3</fifths><mode>major</mode></key><time><beats>4</beats><beat-type>4</beat-type></time><clef><sign>G</sign><line>2</line></clef></attributes><harmony print-frame="no"><root><root-step>E</root-step><root-alter>-1</root-alter></root><kind text="">major</kind></harmony><note default-y="-30.00" default-x="125.91"><pitch><step>G</step><octave>4</octave></pitch><duration>3</duration><voice>1</voice><type>quarter</type><dot/><stem>up</stem><lyric number="1"><syllabic>begin</syllabic><text>Ev</text></lyric></note><note default-y="-30.00" default-x="234.58"><pitch><step>G</step><octave>4</octave></pitch><duration>1</duration><voice>1</voice><type>eighth</type><stem>up</stem><lyric number="1"><syllabic>end</syllabic><text>'ry</text></lyric></note><harmony print-frame="no"><root><root-step>C</root-step></root><kind text="m">minor</kind></harmony><note default-y="-30.00" default-x="290.28"><pitch><step>G</step><octave>4</octave></pitch><duration>4</duration><tie type="start"/><voice>1</voice><type>half</type><stem>up</stem><notations><tied type="start"/></notations><lyric number="1"><syllabic>single</syllabic><text>Time</text><extend/></lyric></note></measure><measure width="344.33" number="2"><harmony print-frame="no"><root><root-step>E</root-step><root-alter>-1</root-alter></root><kind text="">major</kind></harmony><note default-y="-30.00" default-x="15.00"><pitch><step>G</step><octave>4</octave></pitch><duration>2</duration><tie type="stop"/><voice>1</voice><type>quarter</type><stem>up</stem><notations><tied type="stop"/></notations></note><note default-y="-30.00" default-x="96.93"><pitch><step>G</step><octave>4</octave></pitch><duration>2</duration><voice>1</voice><type>quarter</type><stem>up</stem><lyric number="1"><syllabic>single</syllabic><text>We</text></lyric></note><harmony print-frame="no"><root><root-step>C</root-step></root><kind text="m">minor</kind></harmony><note default-y="-30.00" default-x="178.87"><pitch><step>G</step><octave>4</octave></pitch><duration>2</duration><voice>1</voice><type>quarter</type><stem>up</stem><lyric number="1"><syllabic>single</syllabic><text>Say</text></lyric></note><note default-y="-30.00" default-x="260.80"><pitch><step>G</step><octave>4</octave></pitch><duration>2</duration><voice>1</voice><type>quarter</type><stem>up</stem><lyric number="1"><syllabic>begin</syllabic><text>Good</text></lyric></note></measure><measure width="246.40" number="3"><harmony print-frame="no"><root><root-step>E</root-step><root-alter>-1</root-alter></root><kind text="">major</kind></harmony><harmony relative-x="2100.00" print-frame="no"><root><root-step>C</root-step></root><kind text="m">minor</kind></harmony><note default-y="-30.00" default-x="24.97"><pitch><step>G</step><octave>4</octave></pitch><duration>6</duration><voice>1</voice><type>half</type><dot/><stem>up</stem><lyric number="1"><syllabic>end</syllabic><text>bye</text><extend/></lyric></note><note default-y="-30.00" default-x="170.30"><pitch><step>G</step><octave>4</octave></pitch><duration>2</duration><voice>1</voice><type>quarter</type><stem>up</stem><lyric number="1"><syllabic>single</syllabic><text>I</text></lyric></note></measure><measure width="325.18" number="4"><harmony print-frame="no"><root><root-step>F</root-step></root><kind text="m7">minor-seventh</kind></harmony><note default-y="-25.00" default-x="22.46"><pitch><step>A</step><alter>-1</alter><octave>4</octave></pitch><duration>4</duration><tie type="start"/><voice>1</voice><type>half</type><stem>up</stem><notations><tied type="start"/></notations><lyric number="1"><syllabic>single</syllabic><text>die</text><extend/></lyric></note><harmony print-frame="no"><root><root-step>B</root-step><root-alter>-1</root-alter></root><kind text="7">dominant</kind></harmony><note default-y="-25.00" default-x="129.31"><pitch><step>A</step><alter>-1</alter><octave>4</octave></pitch><duration>1</duration><tie type="stop"/><voice>1</voice><type>eighth</type><stem>up</stem><beam number="1">begin</beam><notations><tied type="stop"/></notations></note><note default-y="-35.00" default-x="177.88"><pitch><step>F</step><octave>4</octave></pitch><duration>1</duration><voice>1</voice><type>eighth</type><stem>up</stem><beam number="1">continue</beam><lyric number="1"><syllabic>single</syllabic><text>a</text></lyric></note><note default-y="-40.00" default-x="226.44"><pitch><step>E</step><alter>-1</alter><octave>4</octave></pitch><duration>1</duration><voice>1</voice><type>eighth</type><stem>up</stem><beam number="1">continue</beam><lyric number="1"><syllabic>begin</syllabic><text>lit</text></lyric></note><note default-y="-45.00" default-x="275.01"><pitch><step>D</step><octave>4</octave></pitch><duration>1</duration><voice>1</voice><type>eighth</type><stem>up</stem><beam number="1">end</beam><lyric number="1"><syllabic>single</syllabic><text>tle,</text></lyric></note></measure><measure width="320.68" number="5"><print new-system="yes"><system-layout><system-margins><left-margin>3.00</left-margin><right-margin>-0.00</right-margin></system-margins><system-distance>170.12</system-distance></system-layout></print><harmony print-frame="no"><root><root-step>E</root-step><root-alter>-1</root-alter></root><kind text="">major</kind></harmony><note><rest/><duration>1</duration><voice>1</voice><type>eighth</type></note><note default-y="-20.00" default-x="67.43"><pitch><step>B</step><alter>-1</alter><octave>4</octave></pitch><duration>2</duration><voice>1</voice><type>quarter</type><stem>down</stem><lyric number="1"><syllabic>begin</syllabic><text>Ev</text></lyric></note><note default-y="-20.00" default-x="151.31"><pitch><step>B</step><alter>-1</alter><octave>4</octave></pitch><duration>1</duration><voice>1</voice><type>eighth</type><stem>down</stem><lyric number="1"><syllabic>end</syllabic><text>'ry</text></lyric></note><harmony print-frame="no"><root><root-step>B</root-step><root-alter>-1</root-alter></root><kind text="7">dominant</kind></harmony><note default-y="-20.00" default-x="203.74"><pitch><step>B</step><alter>-1</alter><octave>4</octave></pitch><duration>4</duration><tie type="start"/><voice>1</voice><type>half</type><stem>down</stem><notations><tied type="start"/></notations><lyric number="1"><syllabic>single</syllabic><text>Time</text><extend/></lyric></note></measure><measure width="335.38" number="6"><harmony print-frame="no"><root><root-step>G</root-step><root-alter>-1</root-alter></root><kind text="">major</kind></harmony><note default-y="-20.00" default-x="15.00"><pitch><step>B</step><alter>-1</alter><octave>4</octave></pitch><duration>2</duration><tie type="stop"/><voice>1</voice><type>quarter</type><stem>down</stem><notations><tied type="stop"/></notations></note><note default-y="-20.00" default-x="94.70"><pitch><step>B</step><alter>-1</alter><octave>4</octave></pitch><duration>2</duration><voice>1</voice><type>quarter</type><stem>down</stem><lyric number="1"><syllabic>single</syllabic><text>We</text></lyric></note><harmony print-frame="no"><root><root-step>B</root-step><root-alter>-1</root-alter></root><kind text="7">dominant</kind></harmony><note default-y="-20.00" default-x="174.39"><pitch><step>B</step><alter>-1</alter><octave>4</octave></pitch><duration>2</duration><voice>1</voice><type>quarter</type><stem>down</stem><lyric number="1"><syllabic>single</syllabic><text>say</text></lyric></note><note default-y="-20.00" default-x="254.09"><pitch><step>B</step><alter>-1</alter><octave>4</octave></pitch><duration>2</duration><voice>1</voice><type>quarter</type><stem>down</stem><lyric number="1"><syllabic>begin</syllabic><text>Good</text></lyric></note></measure><measure width="343.03" number="7"><harmony print-frame="no"><root><root-step>E</root-step><root-alter>-1</root-alter></root><kind text="">major</kind></harmony><note default-y="-20.00" default-x="25.60"><pitch><step>B</step><alter>-1</alter><octave>4</octave></pitch><duration>4</duration><tie type="start"/><voice>1</voice><type>half</type><stem>down</stem><notations><tied type="start"/></notations><lyric number="1"><syllabic>end</syllabic><text>buy</text><extend/></lyric></note><harmony print-frame="no"><root><root-step>E</root-step><root-alter>-1</root-alter></root><kind text="7">dominant</kind></harmony><note default-y="-20.00" default-x="137.67"><pitch><step>B</step><alter>-1</alter><octave>4</octave></pitch><duration>1</duration><tie type="stop"/><voice>1</voice><type>eighth</type><stem>up</stem><beam number="1">begin</beam><notations><tied type="stop"/></notations></note><note default-y="-30.00" default-x="188.61"><pitch><step>G</step><octave>4</octave></pitch><duration>1</duration><voice>1</voice><type>eighth</type><stem>up</stem><beam number="1">continue</beam><lyric number="1"><syllabic>single</syllabic><text>I</text></lyric></note><note default-y="-25.00" default-x="239.55"><pitch><step>A</step><alter>-1</alter><octave>4</octave></pitch><duration>1</duration><voice>1</voice><type>eighth</type><stem>up</stem><beam number="1">continue</beam><lyric number="1"><syllabic>begin</syllabic><text>won</text></lyric></note><note default-y="-20.00" default-x="290.49"><pitch><step>B</step><alter>-1</alter><octave>4</octave></pitch><duration>1</duration><voice>1</voice><type>eighth</type><stem>up</stem><beam number="1">end</beam><lyric number="1"><syllabic>end</syllabic><text>der</text></lyric></note></measure><measure width="331.25" number="8"><harmony print-frame="no"><root><root-step>A</root-step><root-alter>-1</root-alter></root><kind text="m">minor</kind></harmony><note default-y="-15.00" default-x="28.10"><pitch><step>C</step><alter>-1</alter><octave>5</octave></pitch><duration>4</duration><tie type="start"/><voice>1</voice><type>half</type><accidental>flat</accidental><stem>down</stem><notations><tied type="start"/></notations><lyric number="1"><syllabic>single</syllabic><text>why</text><extend/></lyric></note><note default-y="-15.00" default-x="135.10"><pitch><step>C</step><alter>-1</alter><octave>5</octave></pitch><duration>1</duration><tie type="stop"/><voice>1</voice><type>eighth</type><accidental>flat</accidental><stem>up</stem><beam number="1">begin</beam><notations><tied type="stop"/></notations></note><note default-y="-25.00" default-x="183.74"><pitch><step>A</step><alter>-1</alter><octave>4</octave></pitch><duration>1</duration><voice>1</voice><type>eighth</type><stem>up</stem><beam number="1">continue</beam><lyric number="1"><syllabic>single</syllabic><text>a</text></lyric></note><note default-y="-30.00" default-x="232.37"><pitch><step>G</step><octave>4</octave></pitch><duration>1</duration><voice>1</voice><type>eighth</type><stem>up</stem><beam number="1">continue</beam><lyric number="1"><syllabic>begin</syllabic><text>lit</text></lyric></note><note default-y="-35.00" default-x="281.01"><pitch><step>F</step><octave>4</octave></pitch><duration>1</duration><voice>1</voice><type>eighth</type><stem>up</stem><beam number="1">end</beam><lyric number="1"><syllabic>end</syllabic><text>tle,</text></lyric></note></measure><measure width="373.57" number="9"><print new-system="yes"><system-layout><system-margins><left-margin>3.00</left-margin><right-margin>0.00</right-margin></system-margins><system-distance>170.12</system-distance></system-layout></print><harmony print-frame="no"><root><root-step>E</root-step><root-alter>-1</root-alter></root><kind text="">major</kind></harmony><note><rest/><duration>1</duration><voice>1</voice><type>eighth</type></note><note default-y="-5.00" default-x="67.50"><pitch><step>E</step><alter>-1</alter><octave>5</octave></pitch><duration>2</duration><voice>1</voice><type>quarter</type><stem>down</stem><lyric number="1"><syllabic>single</syllabic><text>Why</text></lyric></note><note default-y="-5.00" default-x="151.49"><pitch><step>E</step><alter>-1</alter><octave>5</octave></pitch><duration>1</duration><voice>1</voice><type>eighth</type><stem>down</stem><lyric number="1"><syllabic>single</syllabic><text>the</text></lyric></note><harmony print-frame="no"><root><root-step>E</root-step><root-alter>-1</root-alter></root><kind text="dim">diminished</kind></harmony><note default-y="-5.00" default-x="203.98"><pitch><step>E</step><alter>-1</alter><octave>5</octave></pitch><duration>2</duration><voice>1</voice><type>quarter</type><stem>down</stem><lyric number="1"><syllabic>single</syllabic><text>gods</text></lyric></note><note default-y="-5.00" default-x="287.98"><pitch><step>E</step><alter>-1</alter><octave>5</octave></pitch><duration>2</duration><voice>1</voice><type>quarter</type><stem>down</stem><lyric number="1"><syllabic>begin</syllabic><text>a</text></lyric></note></measure><measure width="325.13" number="10"><harmony print-frame="no"><root><root-step>A</root-step><root-alter>-1</root-alter></root><kind text="m6">minor-sixth</kind></harmony><note default-y="-5.00" default-x="30.60"><pitch><step>E</step><alter>-1</alter><octave>5</octave></pitch><duration>2</duration><voice>1</voice><type>quarter</type><stem>down</stem><lyric number="1"><syllabic>end</syllabic><text>bove</text></lyric></note><harmony print-frame="no"><root><root-step>B</root-step><root-alter>-1</root-alter></root><kind text="7">dominant</kind></harmony><note default-y="-10.00" default-x="111.97"><pitch><step>D</step><octave>5</octave></pitch><duration>4</duration><voice>1</voice><type>half</type><stem>down</stem><lyric number="1"><syllabic>single</syllabic><text>me</text></lyric></note><note default-y="-20.00" default-x="242.16"><pitch><step>B</step><alter>-1</alter><octave>4</octave></pitch><duration>2</duration><voice>1</voice><type>quarter</type><stem>down</stem><lyric number="1"><syllabic>single</syllabic><text>Who</text></lyric></note></measure><measure width="386.36" number="11"><harmony print-frame="no"><root><root-step>B</root-step><root-alter>-1</root-alter></root><kind text="m">minor</kind></harmony><note default-y="-10.00" default-x="30.61"><pitch><step>D</step><alter>-1</alter><octave>5</octave></pitch><duration>2</duration><voice>1</voice><type>quarter</type><accidental>flat</accidental><stem>down</stem><lyric number="1"><syllabic>single</syllabic><text>must</text></lyric></note><note><rest/><duration>1</duration><voice>1</voice><type>eighth</type></note><note default-y="-30.00" default-x="158.50"><pitch><step>G</step><octave>4</octave></pitch><duration>1</duration><tie type="start"/><voice>1</voice><type>eighth</type><stem>up</stem><notations><tied type="start"/></notations><lyric number="1"><syllabic>single</syllabic><text>be</text><extend/></lyric></note><harmony print-frame="no"><root><root-step>E</root-step><root-alter>-1</root-alter></root><kind text="7">dominant</kind></harmony><note default-y="-30.00" default-x="207.68"><pitch><step>G</step><octave>4</octave></pitch><duration>1</duration><tie type="stop"/><voice>1</voice><type>eighth</type><stem>up</stem><notations><tied type="stop"/></notations></note><note default-y="-25.00" default-x="256.87"><pitch><step>A</step><alter>-1</alter><octave>4</octave></pitch><duration>2</duration><voice>1</voice><type>quarter</type><stem>up</stem><lyric number="1"><syllabic>single</syllabic><text>in</text></lyric></note><note default-y="-20.00" default-x="335.57"><pitch><step>B</step><alter>-1</alter><octave>4</octave></pitch><duration>1</duration><voice>1</voice><type>eighth</type><stem>down</stem><lyric number="1"><syllabic>single</syllabic><text>the</text></lyric></note></measure><measure width="245.28" number="12"><harmony print-frame="no"><root><root-step>A</root-step><root-alter>-1</root-alter></root><kind text="">major</kind></harmony><note default-y="-15.00" default-x="33.74"><pitch><step>C</step><octave>5</octave></pitch><duration>8</duration><voice>1</voice><type>whole</type><lyric number="1"><syllabic>single</syllabic><text>know</text></lyric></note></measure><measure width="371.14" number="13"><print new-system="yes"><system-layout><system-margins><left-margin>3.00</left-margin><right-margin>-0.00</right-margin></system-margins><system-distance>170.12</system-distance></system-layout></print><harmony print-frame="no"><root><root-step>A</root-step><root-alter>-1</root-alter></root><kind text="m">minor</kind></harmony><note><rest/><duration>1</duration><voice>1</voice><type>eighth</type></note><note default-y="-15.00" default-x="69.12"><pitch><step>C</step><alter>-1</alter><octave>5</octave></pitch><duration>2</duration><voice>1</voice><type>quarter</type><accidental>flat</accidental><stem>down</stem><lyric number="1"><syllabic>single</syllabic><text>Think</text></lyric></note><note default-y="-15.00" default-x="155.71"><pitch><step>C</step><alter>-1</alter><octave>5</octave></pitch><duration>1</duration><voice>1</voice><type>eighth</type><stem>down</stem><lyric number="1"><syllabic>single</syllabic><text>so</text></lyric></note><note default-y="-15.00" default-x="209.83"><pitch><step>C</step><alter>-1</alter><octave>5</octave></pitch><duration>1</duration><voice>1</voice><type>eighth</type><stem>down</stem><lyric number="1"><syllabic>begin</syllabic><text>li</text></lyric></note><note default-y="-15.00" default-x="263.95"><pitch><step>C</step><alter>-1</alter><octave>5</octave></pitch><duration>3</duration><voice>1</voice><type>quarter</type><dot/><accidental>flat</accidental><stem>down</stem><lyric number="1"><syllabic>end</syllabic><text>tle</text></lyric></note></measure><measure width="343.82" number="14"><harmony print-frame="no"><root><root-step>G</root-step></root><kind text="+">augmented</kind></harmony><note default-y="-15.00" default-x="18.08"><pitch><step>C</step><alter>-1</alter><octave>5</octave></pitch><duration>2</duration><voice>1</voice><type>quarter</type><accidental>flat</accidental><stem>down</stem><lyric number="1"><syllabic>single</syllabic><text>of</text></lyric></note><harmony print-frame="no"><root><root-step>E</root-step><root-alter>-1</root-alter></root><kind text="">major</kind></harmony><note default-y="-20.00" default-x="107.50"><pitch><step>B</step><alter>-1</alter><octave>4</octave></pitch><duration>4</duration><voice>1</voice><type>half</type><stem>down</stem><lyric number="1"><syllabic>single</syllabic><text>me</text></lyric></note><note default-y="-40.00" default-x="230.45"><pitch><step>E</step><alter>-1</alter><octave>4</octave></pitch><duration>1</duration><voice>1</voice><type>eighth</type><stem>up</stem><beam number="1">begin</beam><lyric number="1"><syllabic>single</syllabic><text>They</text></lyric></note><note default-y="-35.00" default-x="286.33"><pitch><step>F</step><octave>4</octave></pitch><duration>1</duration><voice>1</voice><type>eighth</type><stem>up</stem><beam number="1">end</beam><lyric number="1"><syllabic>begin</syllabic><text>al</text></lyric></note></measure><measure width="371.67" number="15"><harmony print-frame="no"><root><root-step>E</root-step><root-alter>-1</root-alter></root><kind text="dim">diminished</kind></harmony><note default-y="-30.00" default-x="25.59"><pitch><step>G</step><alter>-1</alter><octave>4</octave></pitch><duration>1</duration><voice>1</voice><type>eighth</type><accidental>flat</accidental><stem>up</stem><lyric number="1"><syllabic>end</syllabic><text>low</text></lyric></note><note default-y="-30.00" default-x="76.25"><pitch><step>G</step><alter>-1</alter><octave>4</octave></pitch><duration>2</duration><voice>1</voice><type>quarter</type><accidental>flat</accidental><stem>up</stem><lyric number="1"><syllabic>single</syllabic><text>you</text></lyric></note><note default-y="-40.00" default-x="157.31"><pitch><step>E</step><alter>-1</alter><octave>4</octave></pitch><duration>1</duration><voice>1</voice><type>eighth</type><stem>up</stem><lyric number="1"><syllabic>single</syllabic><text>to</text></lyric></note><harmony print-frame="no"><root><root-step>E</root-step><root-alter>-1</root-alter></root><kind text="m">minor</kind></harmony><note default-y="-30.00" default-x="207.96"><pitch><step>G</step><alter>-1</alter><octave>4</octave></pitch><duration>2</duration><voice>1</voice><type>quarter</type><stem>up</stem><lyric number="1"><syllabic>single</syllabic><text>go</text><extend/></lyric></note><harmony print-frame="no"><root><root-step>B</root-step><root-alter>-1</root-alter></root><kind text="7">dominant</kind></harmony><note default-y="-35.00" default-x="289.02"><pitch><step>F</step><octave>4</octave></pitch><duration>2</duration><tie type="start"/><voice>1</voice><type>quarter</type><stem>up</stem><notations><tied type="start"/></notations></note></measure><measure width="243.70" number="16"><harmony print-frame="no"><root><root-step>A</root-step><root-alter>-1</root-alter></root><kind text="m6">minor-sixth</kind></harmony><note default-y="-35.00" default-x="15.00"><pitch><step>F</step><octave>4</octave></pitch><duration>6</duration><tie type="stop"/><voice>1</voice><type>half</type><dot/><stem>up</stem><notations><tied type="stop"/></notations></note><harmony print-frame="no"><root><root-step>B</root-step><root-alter>-1</root-alter></root><kind text="7">dominant</kind></harmony><note><rest/><duration>2</duration><voice>1</voice><type>quarter</type></note></measure><measure width="356.07" number="17"><print new-system="yes"><system-layout><system-margins><left-margin>3.00</left-margin><right-margin>-0.00</right-margin></system-margins><system-distance>170.12</system-distance></system-layout></print><harmony print-frame="no"><root><root-step>E</root-step><root-alter>-1</root-alter></root><kind text="">major</kind></harmony><note default-y="-30.00" default-x="35.60"><pitch><step>G</step><octave>4</octave></pitch><duration>3</duration><voice>1</voice><type>quarter</type><dot/><stem>up</stem><lyric number="1"><syllabic>single</syllabic><text>When</text></lyric></note><note default-y="-30.00" default-x="156.37"><pitch><step>G</step><octave>4</octave></pitch><duration>1</duration><voice>1</voice><type>eighth</type><stem>up</stem><lyric number="1"><syllabic>single</syllabic><text>you're</text></lyric></note><harmony print-frame="no"><root><root-step>C</root-step></root><kind text="m">minor</kind></harmony><note default-y="-30.00" default-x="218.28"><pitch><step>G</step><octave>4</octave></pitch><duration>4</duration><tie type="start"/><voice>1</voice><type>half</type><stem>up</stem><notations><tied type="start"/></notations><lyric number="1"><syllabic>single</syllabic><text>near</text><extend/></lyric></note></measure><measure width="355.62" number="18"><harmony print-frame="no"><root><root-step>E</root-step><root-alter>-1</root-alter></root><kind text="">major</kind></harmony><note default-y="-30.00" default-x="15.00"><pitch><step>G</step><octave>4</octave></pitch><duration>2</duration><tie type="stop"/><voice>1</voice><type>quarter</type><stem>up</stem><notations><tied type="stop"/></notations></note><note default-y="-30.00" default-x="99.76"><pitch><step>G</step><octave>4</octave></pitch><duration>2</duration><voice>1</voice><type>quarter</type><stem>up</stem><lyric number="1"><syllabic>single</syllabic><text>there's</text></lyric></note><harmony print-frame="no"><root><root-step>C</root-step></root><kind text="m">minor</kind></harmony><note default-y="-30.00" default-x="184.51"><pitch><step>G</step><octave>4</octave></pitch><duration>2</duration><voice>1</voice><type>quarter</type><stem>up</stem><lyric number="1"><syllabic>single</syllabic><text>such</text></lyric></note><note default-y="-30.00" default-x="269.27"><pitch><step>G</step><octave>4</octave></pitch><duration>2</duration><voice>1</voice><type>quarter</type><stem>up</stem><lyric number="1"><syllabic>single</syllabic><text>an</text></lyric></note></measure><measure width="246.69" number="19"><harmony print-frame="no"><root><root-step>E</root-step><root-alter>-1</root-alter></root><kind text="">major</kind></harmony><harmony relative-x="1500.00" print-frame="no"><root><root-step>C</root-step></root><kind text="m">minor</kind></harmony><note default-y="-30.00" default-x="20.58"><pitch><step>G</step><octave>4</octave></pitch><duration>6</duration><voice>1</voice><type>half</type><dot/><stem>up</stem><lyric number="1"><syllabic>single</syllabic><text>air</text><extend/></lyric></note><note default-y="-30.00" default-x="169.01"><pitch><step>G</step><octave>4</octave></pitch><duration>2</duration><voice>1</voice><type>quarter</type><stem>up</stem><lyric number="1"><syllabic>single</syllabic><text>of</text></lyric></note></measure><measure width="371.95" number="20"><harmony print-frame="no"><root><root-step>F</root-step></root><kind text="m7">minor-seventh</kind></harmony><note default-y="-25.00" default-x="38.75"><pitch><step>A</step><alter>-1</alter><octave>4</octave></pitch><duration>4</duration><tie type="start"/><voice>1</voice><type>half</type><stem>up</stem><notations><tied type="start"/></notations><lyric number="1"><syllabic>single</syllabic><text>Spring</text><extend/></lyric></note><harmony print-frame="no"><root><root-step>B</root-step><root-alter>-1</root-alter></root><kind text="7">dominant</kind></harmony><note default-y="-25.00" default-x="156.42"><pitch><step>A</step><alter>-1</alter><octave>4</octave></pitch><duration>1</duration><tie type="stop"/><voice>1</voice><type>eighth</type><stem>up</stem><beam number="1">begin</beam><notations><tied type="stop"/></notations></note><note default-y="-35.00" default-x="209.90"><pitch><step>F</step><octave>4</octave></pitch><duration>1</duration><voice>1</voice><type>eighth</type><stem>up</stem><beam number="1">continue</beam><lyric number="1"><syllabic>begin</syllabic><text>a</text></lyric></note><note default-y="-40.00" default-x="263.38"><pitch><step>E</step><alter>-1</alter><octave>4</octave></pitch><duration>1</duration><voice>1</voice><type>eighth</type><stem>up</stem><beam number="1">continue</beam><lyric number="1"><syllabic>end</syllabic><text>bout</text></lyric></note><note default-y="-45.00" default-x="316.87"><pitch><step>D</step><octave>4</octave></pitch><duration>1</duration><voice>1</voice><type>eighth</type><stem>up</stem><beam number="1">end</beam><lyric number="1"><syllabic>single</syllabic><text>it,</text></lyric></note></measure><measure width="311.73" number="21"><print new-system="yes"><system-layout><system-margins><left-margin>3.00</left-margin><right-margin>0.00</right-margin></system-margins><system-distance>170.12</system-distance></system-layout></print><harmony print-frame="no"><root><root-step>E</root-step><root-alter>-1</root-alter></root><kind text="">major</kind></harmony><note><rest/><duration>1</duration><voice>1</voice><type>eighth</type></note><note default-y="-20.00" default-x="65.88"><pitch><step>B</step><alter>-1</alter><octave>4</octave></pitch><duration>2</duration><voice>1</voice><type>quarter</type><stem>down</stem><lyric number="1"><syllabic>single</syllabic><text>I</text></lyric></note><note default-y="-20.00" default-x="147.30"><pitch><step>B</step><alter>-1</alter><octave>4</octave></pitch><duration>1</duration><voice>1</voice><type>eighth</type><stem>down</stem><lyric number="1"><syllabic>single</syllabic><text>can</text></lyric></note><harmony print-frame="no"><root><root-step>B</root-step><root-alter>-1</root-alter></root><kind text="7">dominant</kind></harmony><note default-y="-20.00" default-x="198.18"><pitch><step>B</step><alter>-1</alter><octave>4</octave></pitch><duration>4</duration><tie type="start"/><voice>1</voice><type>half</type><stem>down</stem><notations><tied type="start"/></notations><lyric number="1"><syllabic>single</syllabic><text>hear</text><extend/></lyric></note></measure><measure width="325.96" number="22"><harmony print-frame="no"><root><root-step>G</root-step><root-alter>-1</root-alter></root><kind text="">major</kind></harmony><note default-y="-20.00" default-x="15.00"><pitch><step>B</step><alter>-1</alter><octave>4</octave></pitch><duration>2</duration><tie type="stop"/><voice>1</voice><type>quarter</type><stem>down</stem><notations><tied type="stop"/></notations></note><note default-y="-20.00" default-x="92.34"><pitch><step>B</step><alter>-1</alter><octave>4</octave></pitch><duration>2</duration><voice>1</voice><type>quarter</type><stem>down</stem><lyric number="1"><syllabic>single</syllabic><text>a</text></lyric></note><harmony print-frame="no"><root><root-step>B</root-step><root-alter>-1</root-alter></root><kind text="7">dominant</kind></harmony><note default-y="-20.00" default-x="169.68"><pitch><step>B</step><alter>-1</alter><octave>4</octave></pitch><duration>2</duration><voice>1</voice><type>quarter</type><stem>down</stem><lyric number="1"><syllabic>single</syllabic><text>lark</text></lyric></note><note default-y="-20.00" default-x="247.02"><pitch><step>B</step><alter>-1</alter><octave>4</octave></pitch><duration>2</duration><voice>1</voice><type>quarter</type><stem>down</stem><lyric number="1"><syllabic>begin</syllabic><text>some</text></lyric></note></measure><measure width="353.50" number="23"><harmony print-frame="no"><root><root-step>E</root-step><root-alter>-1</root-alter></root><kind text="">major</kind></harmony><note default-y="-20.00" default-x="36.22"><pitch><step>B</step><alter>-1</alter><octave>4</octave></pitch><duration>4</duration><tie type="start"/><voice>1</voice><type>half</type><stem>down</stem><notations><tied type="start"/></notations><lyric number="1"><syllabic>end</syllabic><text>where</text><extend/></lyric></note><harmony print-frame="no"><root><root-step>E</root-step><root-alter>-1</root-alter></root><kind text="7">dominant</kind></harmony><note default-y="-20.00" default-x="148.24"><pitch><step>B</step><alter>-1</alter><octave>4</octave></pitch><duration>1</duration><tie type="stop"/><voice>1</voice><type>eighth</type><stem>up</stem><beam number="1">begin</beam><notations><tied type="stop"/></notations></note><note default-y="-30.00" default-x="199.15"><pitch><step>G</step><octave>4</octave></pitch><duration>1</duration><voice>1</voice><type>eighth</type><stem>up</stem><beam number="1">continue</beam><lyric number="1"><syllabic>begin</syllabic><text>be</text></lyric></note><note default-y="-25.00" default-x="250.07"><pitch><step>A</step><alter>-1</alter><octave>4</octave></pitch><duration>1</duration><voice>1</voice><type>eighth</type><stem>up</stem><beam number="1">continue</beam><lyric number="1"><syllabic>end</syllabic><text>gin</text></lyric></note><note default-y="-20.00" default-x="300.98"><pitch><step>B</step><alter>-1</alter><octave>4</octave></pitch><duration>1</duration><voice>1</voice><type>eighth</type><stem>up</stem><beam number="1">end</beam><lyric number="1"><syllabic>single</syllabic><text>to</text></lyric></note></measure><measure width="339.15" number="24"><harmony print-frame="no"><root><root-step>A</root-step><root-alter>-1</root-alter></root><kind text="">major</kind></harmony><note default-y="-15.00" default-x="27.48"><pitch><step>C</step><octave>5</octave></pitch><duration>4</duration><tie type="start"/><voice>1</voice><type>half</type><stem>down</stem><notations><tied type="start"/></notations><lyric number="1"><syllabic>single</syllabic><text>sing</text><extend/></lyric></note><harmony print-frame="no"><root><root-step>A</root-step><root-alter>-1</root-alter></root><kind text="m">minor</kind></harmony><note default-y="-15.00" default-x="137.51"><pitch><step>C</step><octave>5</octave></pitch><duration>1</duration><tie type="stop"/><voice>1</voice><type>eighth</type><stem>up</stem><beam number="1">begin</beam><notations><tied type="stop"/></notations></note><note default-y="-25.00" default-x="187.52"><pitch><step>A</step><alter>-1</alter><octave>4</octave></pitch><duration>1</duration><voice>1</voice><type>eighth</type><stem>up</stem><beam number="1">continue</beam><lyric number="1"><syllabic>begin</syllabic><text>a</text></lyric></note><note default-y="-30.00" default-x="237.53"><pitch><step>G</step><octave>4</octave></pitch><duration>1</duration><voice>1</voice><type>eighth</type><stem>up</stem><beam number="1">continue</beam><lyric number="1"><syllabic>end</syllabic><text>bout</text></lyric></note><note default-y="-35.00" default-x="287.54"><pitch><step>F</step><octave>4</octave></pitch><duration>1</duration><voice>1</voice><type>eighth</type><stem>up</stem><beam number="1">end</beam><lyric number="1"><syllabic>single</syllabic><text>it</text></lyric></note></measure><measure width="358.90" number="25"><print new-system="yes"><system-layout><system-margins><left-margin>3.00</left-margin><right-margin>0.00</right-margin></system-margins><system-distance>170.12</system-distance></system-layout></print><harmony print-frame="no"><root><root-step>E</root-step><root-alter>-1</root-alter></root><kind text="">major</kind></harmony><note><rest/><duration>1</duration><voice>1</voice><type>eighth</type></note><note default-y="-5.00" default-x="66.65"><pitch><step>E</step><alter>-1</alter><octave>5</octave></pitch><duration>2</duration><voice>1</voice><type>quarter</type><stem>down</stem><lyric number="1"><syllabic>single</syllabic><text>There's</text></lyric></note><note default-y="-5.00" default-x="146.83"><pitch><step>E</step><alter>-1</alter><octave>5</octave></pitch><duration>1</duration><voice>1</voice><type>eighth</type><stem>down</stem><lyric number="1"><syllabic>single</syllabic><text>no</text></lyric></note><harmony print-frame="no"><root><root-step>E</root-step><root-alter>-1</root-alter></root><kind text="dim">diminished</kind></harmony><note default-y="0.00" default-x="196.95"><pitch><step>F</step><octave>5</octave></pitch><duration>2</duration><voice>1</voice><type>quarter</type><stem>down</stem><lyric number="1"><syllabic>single</syllabic><text>love</text></lyric></note><note default-y="-5.00" default-x="277.12"><pitch><step>E</step><alter>-1</alter><octave>5</octave></pitch><duration>2</duration><voice>1</voice><type>quarter</type><stem>down</stem><lyric number="1"><syllabic>single</syllabic><text>song</text></lyric></note></measure><measure width="283.77" number="26"><harmony print-frame="no"><root><root-step>A</root-step><root-alter>-1</root-alter></root><kind text="m6">minor-sixth</kind></harmony><note default-y="-5.00" default-x="21.21"><pitch><step>E</step><alter>-1</alter><octave>5</octave></pitch><duration>2</duration><voice>1</voice><type>quarter</type><stem>down</stem><lyric number="1"><syllabic>begin</syllabic><text>fin</text></lyric></note><harmony print-frame="no"><root><root-step>B</root-step><root-alter>-1</root-alter></root><kind text="7">dominant</kind></harmony><note default-y="-10.00" default-x="93.20"><pitch><step>D</step><octave>5</octave></pitch><duration>4</duration><voice>1</voice><type>half</type><stem>down</stem><lyric number="1"><syllabic>end</syllabic><text>er,</text></lyric></note><note default-y="-20.00" default-x="192.19"><pitch><step>B</step><alter>-1</alter><octave>4</octave></pitch><duration>1</duration><voice>1</voice><type>eighth</type><stem>down</stem><beam number="1">begin</beam><lyric number="1"><syllabic>single</syllabic><text>But</text></lyric></note><note default-y="-15.00" default-x="237.18"><pitch><step>C</step><octave>5</octave></pitch><duration>1</duration><voice>1</voice><type>eighth</type><stem>down</stem><beam number="1">end</beam><lyric number="1"><syllabic>single</syllabic><text>how</text></lyric></note></measure><measure width="371.21" number="27"><harmony print-frame="no"><root><root-step>E</root-step><root-alter>-1</root-alter></root><kind text="7">dominant</kind></harmony><note default-y="-10.00" default-x="41.24"><pitch><step>D</step><alter>-1</alter><octave>5</octave></pitch><duration>3</duration><voice>1</voice><type>quarter</type><dot/><accidental>flat</accidental><stem>down</stem><lyric number="1"><syllabic>single</syllabic><text>strange</text></lyric></note><note default-y="-30.00" default-x="147.88"><pitch><step>G</step><octave>4</octave></pitch><duration>1</duration><voice>1</voice><type>eighth</type><stem>up</stem><lyric number="1"><syllabic>single</syllabic><text>the</text></lyric></note><harmony print-frame="no"><root><root-step>A</root-step><root-alter>-1</root-alter></root><kind text="">major</kind></harmony><note default-y="-15.00" default-x="208.32"><pitch><step>C</step><octave>5</octave></pitch><duration>3</duration><voice>1</voice><type>quarter</type><dot/><stem>down</stem><lyric number="1"><syllabic>single</syllabic><text>change</text></lyric></note><note default-y="0.00" default-x="314.96"><pitch><step>F</step><octave>5</octave></pitch><duration>1</duration><voice>1</voice><type>eighth</type><stem>down</stem><lyric number="1"><syllabic>single</syllabic><text>from</text></lyric></note></measure><measure width="316.44" number="28"><harmony print-frame="no"><root><root-step>A</root-step><root-alter>-1</root-alter></root><kind text="m7">minor-seventh</kind></harmony><note default-y="-5.00" default-x="22.46"><pitch><step>E</step><alter>-1</alter><octave>5</octave></pitch><duration>1</duration><voice>1</voice><type>eighth</type><stem>down</stem><beam number="1">begin</beam><lyric number="1"><syllabic>begin</syllabic><text>ma</text></lyric></note><note default-y="-10.00" default-x="63.07"><pitch><step>D</step><octave>5</octave></pitch><duration>1</duration><voice>1</voice><type>eighth</type><stem>down</stem><beam number="1">continue</beam><lyric number="1"><syllabic>end</syllabic><text>jor</text></lyric></note><note default-y="-5.00" default-x="103.67"><pitch><step>E</step><alter>-1</alter><octave>5</octave></pitch><duration>1</duration><voice>1</voice><type>eighth</type><stem>down</stem><beam number="1">continue</beam><lyric number="1"><syllabic>single</syllabic><text>to</text></lyric></note><note default-y="-20.00" default-x="144.28"><pitch><step>B</step><alter>-1</alter><octave>4</octave></pitch><duration>1</duration><tie type="start"/><voice>1</voice><type>eighth</type><stem>down</stem><beam number="1">end</beam><notations><tied type="start"/></notations><lyric number="1"><syllabic>begin</syllabic><text>mi</text></lyric></note><note default-y="-20.00" default-x="184.89"><pitch><step>B</step><alter>-1</alter><octave>4</octave></pitch><duration>2</duration><tie type="stop"/><voice>1</voice><type>quarter</type><stem>down</stem><notations><tied type="stop"/></notations></note><note default-y="-25.00" default-x="249.87"><pitch><step>A</step><alter>-1</alter><octave>4</octave></pitch><duration>2</duration><voice>1</voice><type>quarter</type><stem>up</stem><lyric number="1"><syllabic>end</syllabic><text>nor</text></lyric></note></measure><measure width="355.40" number="29"><print new-system="yes"><system-layout><system-margins><left-margin>3.00</left-margin><right-margin>-0.00</right-margin></system-margins><system-distance>170.12</system-distance></system-layout></print><harmony print-frame="no"><root><root-step>E</root-step><root-alter>-1</root-alter></root><kind text="">major</kind></harmony><note default-y="-30.00" default-x="21.20"><pitch><step>G</step><octave>4</octave></pitch><duration>3</duration><voice>1</voice><type>quarter</type><dot/><stem>up</stem><lyric number="1"><syllabic>begin</syllabic><text>Ev</text></lyric></note><note default-y="-30.00" default-x="147.18"><pitch><step>G</step><octave>4</octave></pitch><duration>1</duration><voice>1</voice><type>eighth</type><stem>up</stem><lyric number="1"><syllabic>end</syllabic><text>'ry</text></lyric></note><harmony print-frame="no"><root><root-step>C</root-step></root><kind text="7">dominant</kind></harmony><note default-y="-30.00" default-x="211.75"><pitch><step>G</step><octave>4</octave></pitch><duration>4</duration><tie type="start"/><voice>1</voice><type>half</type><stem>up</stem><notations><tied type="start"/></notations><lyric number="1"><syllabic>single</syllabic><text>Time</text><extend/></lyric></note></measure><measure width="390.02" number="30"><barline location="left"><ending type="start" number="1"/></barline><harmony print-frame="no"><root><root-step>F</root-step></root><kind text="9">dominant-ninth</kind></harmony><note default-y="-30.00" default-x="15.00"><pitch><step>G</step><octave>4</octave></pitch><duration>2</duration><tie type="stop"/><voice>1</voice><type>quarter</type><stem>up</stem><notations><tied type="stop"/></notations></note><note default-y="-35.00" default-x="108.35"><pitch><step>F</step><octave>4</octave></pitch><duration>2</duration><voice>1</voice><type>quarter</type><stem>up</stem><lyric number="1"><syllabic>single</syllabic><text>We</text></lyric></note><harmony print-frame="no"><root><root-step>A</root-step><root-alter>-1</root-alter></root><kind text="">major</kind></harmony><note default-y="-40.00" default-x="201.71"><pitch><step>E</step><alter>-1</alter><octave>4</octave></pitch><duration>2</duration><voice>1</voice><type>quarter</type><stem>up</stem><lyric number="1"><syllabic>single</syllabic><text>Say</text></lyric></note><harmony print-frame="no"><root><root-step>B</root-step><root-alter>-1</root-alter></root><kind text="7">dominant</kind></harmony><note default-y="-45.00" default-x="295.06"><pitch><step>D</step><octave>4</octave></pitch><duration>2</duration><voice>1</voice><type>quarter</type><stem>up</stem><lyric number="1"><syllabic>single</syllabic><text>Good</text></lyric></note></measure><measure width="274.57" number="31"><harmony print-frame="no"><root><root-step>E</root-step><root-alter>-1</root-alter></root><kind text="">major</kind></harmony><harmony relative-x="3100.00" print-frame="no"><root><root-step>E</root-step><root-alter>-1</root-alter></root><kind text="dim">diminished</kind></harmony><note default-y="-40.00" default-x="27.78"><pitch><step>E</step><alter>-1</alter><octave>4</octave></pitch><duration>8</duration><tie type="start"/><voice>1</voice><type>whole</type><notations><tied type="start"/></notations><lyric number="1"><syllabic>single</syllabic><text>bye.</text><extend/></lyric></note></measure><measure width="310.35" number="32"><note default-y="-40.00" default-x="15.00"><pitch><step>E</step><alter>-1</alter><octave>4</octave></pitch><duration>2</duration><tie type="stop"/><voice>1</voice><type>quarter</type><stem>up</stem><notations><tied type="stop"/></notations></note><note><rest/><duration>2</duration><voice>1</voice><type>quarter</type></note><harmony print-frame="no"><root><root-step>B</root-step><root-alter>-1</root-alter></root><kind text="7">dominant</kind></harmony><note><rest/><duration>4</duration><voice>1</voice><type>half</type></note><barline location="right"><bar-style>light-heavy</bar-style><ending type="stop" number="1"/><repeat direction="backward"/></barline></measure><measure width="264.52" number="33"><print new-system="yes"><system-layout><system-margins><left-margin>3.00</left-margin><right-margin>0.00</right-margin></system-margins><system-distance>170.12</system-distance></system-layout></print><barline location="left"><ending type="start" number="2"/></barline><harmony print-frame="no"><root><root-step>F</root-step></root><kind text="9">dominant-ninth</kind></harmony><note default-y="-30.00" default-x="15.00"><pitch><step>G</step><octave>4</octave></pitch><duration>2</duration><voice>1</voice><type>quarter</type><stem>up</stem></note><note default-y="-35.00" default-x="76.98"><pitch><step>F</step><octave>4</octave></pitch><duration>2</duration><voice>1</voice><type>quarter</type><stem>up</stem><lyric number="1"><syllabic>single</syllabic><text>We</text></lyric></note><harmony print-frame="no"><root><root-step>F</root-step></root><kind text="m7">minor-seventh</kind></harmony><note default-y="-40.00" default-x="138.96"><pitch><step>E</step><alter>-1</alter><octave>4</octave></pitch><duration>2</duration><voice>1</voice><type>quarter</type><stem>up</stem><lyric number="1"><syllabic>single</syllabic><text>Say</text></lyric></note><harmony print-frame="no"><root><root-step>B</root-step><root-alter>-1</root-alter></root><kind text="7">dominant</kind></harmony><note default-y="-45.00" default-x="200.94"><pitch><step>D</step><octave>4</octave></pitch><duration>2</duration><voice>1</voice><type>quarter</type><stem>up</stem><lyric number="1"><syllabic>begin</syllabic><text>Good</text></lyric></note><barline location="right"><ending type="discontinue" number="2"/></barline></measure><measure width="149.07" number="34"><harmony print-frame="no"><root><root-step>C</root-step></root><kind text="m">minor</kind></harmony><note default-y="-40.00" default-x="27.78"><pitch><step>E</step><alter>-1</alter><octave>4</octave></pitch><duration>8</duration><voice>1</voice><type>whole</type><lyric number="1"><syllabic>single</syllabic><text>bye.</text></lyric></note></measure><measure width="235.34" number="35"><harmony print-frame="no"><root><root-step>E</root-step><root-alter>-1</root-alter></root><kind text="dim">diminished</kind></harmony><note default-y="-10.00" default-x="21.20"><pitch><step>D</step><octave>5</octave></pitch><duration>2</duration><voice>1</voice><type>quarter</type><stem>down</stem><lyric number="1"><syllabic>begin</syllabic><text>Ev</text></lyric></note><note default-y="-10.00" default-x="74.34"><pitch><step>D</step><alter>-1</alter><octave>5</octave></pitch><duration>2</duration><voice>1</voice><type>quarter</type><accidental>flat</accidental><stem>down</stem><lyric number="1"><syllabic>end</syllabic><text>'ry</text></lyric></note><harmony print-frame="no"><root><root-step>B</root-step><root-alter>-1</root-alter></root><kind text="7">dominant</kind></harmony><note default-y="-15.00" default-x="127.47"><pitch><step>C</step><octave>5</octave></pitch><duration>2</duration><voice>1</voice><type>quarter</type><stem>down</stem><lyric number="1"><syllabic>begin</syllabic><text>sin</text></lyric></note><note default-y="-15.00" default-x="180.61"><pitch><step>C</step><alter>-1</alter><octave>5</octave></pitch><duration>2</duration><voice>1</voice><type>quarter</type><accidental>flat</accidental><stem>down</stem><lyric number="1"><syllabic>end</syllabic><text>gle</text></lyric></note></measure><measure width="184.61" number="36"><harmony print-frame="no"><root><root-step>B</root-step><root-alter>-1</root-alter></root><kind text="m">minor</kind></harmony><harmony relative-x="1600.00" print-frame="no"><root><root-step>C</root-step></root><kind text="m7">minor-seventh</kind></harmony><note default-y="-20.00" default-x="28.72"><pitch><step>B</step><alter>-1</alter><octave>4</octave></pitch><duration>6</duration><voice>1</voice><type>half</type><dot/><stem>down</stem><lyric number="1"><syllabic>single</syllabic><text>time</text></lyric></note><note default-y="-15.00" default-x="130.72"><pitch><step>C</step><octave>5</octave></pitch><duration>2</duration><voice>1</voice><type>quarter</type><stem>down</stem><lyric number="1"><syllabic>single</syllabic><text>we</text></lyric></note></measure><measure width="193.42" number="37"><harmony print-frame="no"><root><root-step>F</root-step></root><kind text="7">dominant</kind></harmony><harmony relative-x="1400.00" print-frame="no"><root><root-step>B</root-step><root-alter>-1</root-alter></root><kind text="7">dominant</kind></harmony><note default-y="0.00" default-x="23.72"><pitch><step>F</step><octave>5</octave></pitch><duration>6</duration><voice>1</voice><type>half</type><dot/><stem>down</stem><lyric number="1"><syllabic>single</syllabic><text>say</text></lyric></note><note default-y="-15.00" default-x="134.85"><pitch><step>C</step><octave>5</octave></pitch><duration>2</duration><voice>1</voice><type>quarter</type><stem>down</stem><lyric number="1"><syllabic>begin</syllabic><text>good</text></lyric></note></measure><measure width="149.07" number="38"><harmony print-frame="no"><root><root-step>E</root-step><root-alter>-1</root-alter></root><kind text="">major</kind></harmony><harmony relative-x="1700.00" print-frame="no"><root><root-step>C</root-step></root><kind text="m">minor</kind></harmony><note default-y="-5.00" default-x="27.78"><pitch><step>E</step><alter>-1</alter><octave>5</octave></pitch><duration>8</duration><tie type="start"/><voice>1</voice><type>whole</type><notations><tied type="start"/></notations><lyric number="1"><syllabic>end</syllabic><text>bye.</text><extend/></lyric></note></measure><measure width="154.30" number="39"><harmony print-frame="no"><root><root-step>E</root-step><root-alter>-1</root-alter></root><kind text="">major</kind></harmony><note default-y="-5.00" default-x="15.00"><pitch><step>E</step><alter>-1</alter><octave>5</octave></pitch><duration>6</duration><tie type="stop"/><voice>1</voice><type>half</type><dot/><stem>down</stem><notations><tied type="stop"/></notations></note><note><rest/><duration>2</duration><voice>1</voice><type>quarter</type></note><barline location="right"><bar-style>light-heavy</bar-style></barline></measure></part></score-partwise>