<score-partwise version="2.0"><work><work-number/><work-title/></work><movement-number/><movement-title>Estaté</movement-title><identification><creator type="composer">Bruno Brighetti, Bruno Martino</creator><creator type="poet"/><rights>All Rights Reserved</rights><encoding><software>MuseScore 0.9.5</software><encoding-date>2009-08-16</encoding-date><software>ProxyMusic 2.0 c</software></encoding><source>http://fr.wikifonia.org/node/2365/revisions/2984/view</source></identification><defaults><scaling><millimeters>7.056</millimeters><tenths>40</tenths></scaling><page-layout><page-height>1683.67</page-height><page-width>1190.48</page-width><page-margins type="both"><left-margin>56.6893</left-margin><right-margin>56.6893</right-margin><top-margin>56.6893</top-margin><bottom-margin>113.379</bottom-margin></page-margins></page-layout></defaults><credit page="1"><credit-words font-size="24" default-y="1626.98" default-x="595.238" justify="center" valign="top">Estaté</credit-words></credit><credit page="1"><credit-words font-size="14" default-y="1570.29" default-x="595.238" justify="center" valign="top">Un été</credit-words></credit><credit page="1"><credit-words font-size="12" default-y="1554.82" default-x="1133.79" justify="right" valign="top">Bruno Martino et Bruno Brighetti</credit-words></credit><credit page="1"><credit-words font-size="12" default-y="1554.82" default-x="56.6893" justify="left" valign="top">Chanté par Claude Nougaro</credit-words></credit><part-list><score-part id="P1"><part-name/><score-instrument id="P1-I3"><instrument-name/></score-instrument><midi-instrument id="P1-I3"><midi-channel>1</midi-channel><midi-program>1</midi-program></midi-instrument></score-part></part-list><part id="P1"><measure width="174.06" number="1"><print><system-layout><system-margins><left-margin>-0.00</left-margin><right-margin>-0.00</right-margin></system-margins><top-system-distance>198.18</top-system-distance></system-layout></print><attributes><divisions>6</divisions><key><fifths>0</fifths><mode>major</mode></key><time><beats>4</beats><beat-type>4</beat-type></time><clef><sign>G</sign><line>2</line></clef></attributes><note><rest/><duration>3</duration><voice>1</voice><type>eighth</type></note><note default-y="-40.00" default-x="116.64"><pitch><step>E</step><octave>4</octave></pitch><duration>3</duration><voice>1</voice><type>eighth</type><stem>up</stem></note></measure><measure width="281.66" number="2"><barline location="left"><bar-style>heavy-light</bar-style><repeat direction="forward"/></barline><harmony relative-x="122.45" print-frame="no"><root><root-step>A</root-step></root><kind text="m7">minor-seventh</kind></harmony><note default-y="-40.00" default-x="15.00"><pitch><step>E</step><octave>4</octave></pitch><duration>3</duration><voice>1</voice><type>eighth</type><stem>up</stem><beam number="1">begin</beam></note><note default-y="-40.00" default-x="73.24"><pitch><step>E</step><octave>4</octave></pitch><duration>3</duration><tie type="start"/><voice>1</voice><type>eighth</type><stem>up</stem><beam number="1">end</beam><notations><tied type="start"/></notations></note><note default-y="-40.00" default-x="131.49"><pitch><step>E</step><octave>4</octave></pitch><duration>18</duration><tie type="stop"/><tie type="start"/><voice>1</voice><type>half</type><dot/><stem>up</stem><notations><tied type="stop"/><tied type="start"/></notations></note></measure><measure width="287.78" number="3"><note default-y="-40.00" default-x="15.00"><pitch><step>E</step><octave>4</octave></pitch><duration>18</duration><tie type="stop"/><voice>1</voice><type>half</type><dot/><stem>up</stem><notations><tied type="stop"/></notations></note><note><rest/><duration>3</duration><voice>1</voice><type>eighth</type></note><note default-y="-40.00" default-x="226.60"><pitch><step>E</step><octave>4</octave></pitch><duration>3</duration><voice>1</voice><type>eighth</type><stem>up</stem></note></measure><measure width="333.58" number="4"><harmony print-frame="no"><root><root-step>D</root-step></root><kind text="m7">minor-seventh</kind></harmony><harmony relative-x="100.00" print-frame="no"><root><root-step>D</root-step></root><kind text="">major</kind></harmony><note default-y="-35.00" default-x="15.00"><pitch><step>F</step><octave>4</octave></pitch><duration>9</duration><voice>1</voice><type>quarter</type><dot/><stem>up</stem></note><note default-y="-35.00" default-x="109.40"><pitch><step>F</step><octave>4</octave></pitch><duration>3</duration><voice>1</voice><type>eighth</type><stem>up</stem></note><note default-y="-25.00" default-x="157.79"><pitch><step>A</step><octave>4</octave></pitch><duration>3</duration><voice>1</voice><type>eighth</type><stem>up</stem></note><note default-y="-25.00" default-x="206.18"><pitch><step>A</step><octave>4</octave></pitch><duration>6</duration><voice>1</voice><type>quarter</type><stem>up</stem></note><note default-y="-15.00" default-x="283.60"><pitch><step>C</step><octave>5</octave></pitch><duration>3</duration><tie type="start"/><voice>1</voice><type>eighth</type><stem>down</stem><notations><tied type="start"/></notations></note></measure><measure width="321.73" number="5"><print new-system="yes"><system-layout><system-margins><left-margin>-0.00</left-margin><right-margin>-0.00</right-margin></system-margins><system-distance>110.68</system-distance></system-layout></print><harmony print-frame="no"><root><root-step>E</root-step></root><kind text="7alt">dominant</kind><degree><degree-value>5</degree-value><degree-alter>1</degree-alter><degree-type>alter</degree-type></degree><degree><degree-value>9</degree-value><degree-alter>1</degree-alter><degree-type>add</degree-type></degree><degree><degree-value>11</degree-value><degree-alter>1</degree-alter><degree-type>add</degree-type></degree></harmony><note default-y="-15.00" default-x="53.06"><pitch><step>C</step><octave>5</octave></pitch><duration>3</duration><tie type="stop"/><voice>1</voice><type>eighth</type><stem>down</stem><notations><tied type="stop"/></notations></note><note default-y="-15.00" default-x="90.15"><pitch><step>C</step><octave>5</octave></pitch><duration>6</duration><voice>1</voice><type>quarter</type><stem>down</stem></note><note default-y="-20.00" default-x="149.50"><pitch><step>B</step><octave>4</octave></pitch><duration>3</duration><voice>1</voice><type>eighth</type><stem>down</stem></note><note default-y="-20.00" default-x="186.59"><pitch><step>B</step><octave>4</octave></pitch><duration>3</duration><tie type="start"/><voice>1</voice><type>eighth</type><stem>down</stem><notations><tied type="start"/></notations></note><note default-y="-20.00" default-x="223.69"><pitch><step>B</step><octave>4</octave></pitch><duration>6</duration><tie type="stop"/><voice>1</voice><type>quarter</type><stem>down</stem><notations><tied type="stop"/></notations></note><note default-y="-40.00" default-x="283.04"><pitch><step>E</step><octave>4</octave></pitch><duration>3</duration><tie type="start"/><voice>1</voice><type>eighth</type><stem>up</stem><notations><tied type="start"/></notations></note></measure><measure width="223.67" number="6"><harmony print-frame="no"><root><root-step>A</root-step></root><kind text="m7">minor-seventh</kind></harmony><note default-y="-40.00" default-x="15.00"><pitch><step>E</step><octave>4</octave></pitch><duration>3</duration><tie type="stop"/><voice>1</voice><type>eighth</type><stem>up</stem><beam number="1">begin</beam><notations><tied type="stop"/></notations></note><note default-y="-40.00" default-x="60.50"><pitch><step>E</step><octave>4</octave></pitch><duration>3</duration><tie type="start"/><voice>1</voice><type>eighth</type><stem>up</stem><beam number="1">end</beam><notations><tied type="start"/></notations></note><note default-y="-40.00" default-x="106.00"><pitch><step>E</step><octave>4</octave></pitch><duration>18</duration><tie type="stop"/><tie type="start"/><voice>1</voice><type>half</type><dot/><stem>up</stem><notations><tied type="stop"/><tied type="start"/></notations></note></measure><measure width="229.79" number="7"><note default-y="-40.00" default-x="15.00"><pitch><step>E</step><octave>4</octave></pitch><duration>18</duration><tie type="stop"/><voice>1</voice><type>half</type><dot/><stem>up</stem><notations><tied type="stop"/></notations></note><note><rest/><duration>3</duration><voice>1</voice><type>eighth</type></note><note default-y="-40.00" default-x="181.34"><pitch><step>E</step><octave>4</octave></pitch><duration>3</duration><voice>1</voice><type>eighth</type><stem>up</stem></note></measure><measure width="301.91" number="8"><harmony print-frame="no"><root><root-step>D</root-step></root><kind text="m7">minor-seventh</kind></harmony><note default-y="-35.00" default-x="15.00"><pitch><step>F</step><octave>4</octave></pitch><duration>3</duration><voice>1</voice><type>eighth</type><stem>up</stem></note><note default-y="-35.00" default-x="54.63"><pitch><step>F</step><octave>4</octave></pitch><duration>6</duration><voice>1</voice><type>quarter</type><stem>up</stem></note><note default-y="-25.00" default-x="118.03"><pitch><step>A</step><octave>4</octave></pitch><duration>3</duration><tie type="start"/><voice>1</voice><type>eighth</type><stem>up</stem><notations><tied type="start"/></notations></note><note default-y="-25.00" default-x="157.65"><pitch><step>A</step><octave>4</octave></pitch><duration>3</duration><tie type="stop"/><voice>1</voice><type>eighth</type><stem>up</stem><notations><tied type="stop"/></notations></note><note default-y="-25.00" default-x="197.28"><pitch><step>A</step><octave>4</octave></pitch><duration>6</duration><voice>1</voice><type>quarter</type><stem>up</stem></note><note default-y="-5.00" default-x="260.68"><pitch><step>E</step><octave>5</octave></pitch><duration>3</duration><tie type="start"/><voice>1</voice><type>eighth</type><stem>down</stem><notations><tied type="start"/></notations></note></measure><measure width="328.57" number="9"><print new-system="yes"><system-layout><system-margins><left-margin>-0.00</left-margin><right-margin>-0.00</right-margin></system-margins><system-distance>110.68</system-distance></system-layout></print><harmony print-frame="no"><root><root-step>G</root-step></root><kind text="7">dominant</kind></harmony><note default-y="-5.00" default-x="53.06"><pitch><step>E</step><octave>5</octave></pitch><duration>3</duration><tie type="stop"/><voice>1</voice><type>eighth</type><stem>down</stem><notations><tied type="stop"/></notations></note><note default-y="-5.00" default-x="91.10"><pitch><step>E</step><octave>5</octave></pitch><duration>6</duration><voice>1</voice><type>quarter</type><stem>down</stem></note><note default-y="-10.00" default-x="151.97"><pitch><step>D</step><octave>5</octave></pitch><duration>3</duration><tie type="start"/><voice>1</voice><type>eighth</type><stem>down</stem><notations><tied type="start"/></notations></note><note default-y="-10.00" default-x="190.01"><pitch><step>D</step><octave>5</octave></pitch><duration>3</duration><tie type="stop"/><voice>1</voice><type>eighth</type><stem>down</stem><notations><tied type="stop"/></notations></note><note default-y="-10.00" default-x="228.06"><pitch><step>D</step><octave>5</octave></pitch><duration>6</duration><voice>1</voice><type>quarter</type><stem>down</stem></note><note default-y="-30.00" default-x="288.93"><pitch><step>G</step><octave>4</octave></pitch><duration>3</duration><tie type="start"/><voice>1</voice><type>eighth</type><stem>up</stem><notations><tied type="start"/></notations></note></measure><measure width="230.51" number="10"><harmony print-frame="no"><root><root-step>G</root-step></root><kind text="m7">minor-seventh</kind><bass><bass-step>C</bass-step></bass></harmony><note default-y="-30.00" default-x="15.00"><pitch><step>G</step><octave>4</octave></pitch><duration>3</duration><tie type="stop"/><voice>1</voice><type>eighth</type><stem>up</stem><beam number="1">begin</beam><notations><tied type="stop"/></notations></note><note default-y="-30.00" default-x="62.00"><pitch><step>G</step><octave>4</octave></pitch><duration>3</duration><tie type="start"/><voice>1</voice><type>eighth</type><stem>up</stem><beam number="1">end</beam><notations><tied type="start"/></notations></note><note default-y="-30.00" default-x="109.01"><pitch><step>G</step><octave>4</octave></pitch><duration>18</duration><tie type="stop"/><tie type="start"/><voice>1</voice><type>half</type><dot/><stem>up</stem><notations><tied type="stop"/><tied type="start"/></notations></note></measure><measure width="236.63" number="11"><harmony print-frame="no"><root><root-step>C</root-step></root><kind text="7">dominant</kind></harmony><note default-y="-30.00" default-x="15.00"><pitch><step>G</step><octave>4</octave></pitch><duration>18</duration><tie type="stop"/><voice>1</voice><type>half</type><dot/><stem>up</stem><notations><tied type="stop"/></notations></note><note><rest/><duration>3</duration><voice>1</voice><type>eighth</type></note><note default-y="-30.00" default-x="186.68"><pitch><step>G</step><octave>4</octave></pitch><duration>3</duration><voice>1</voice><type>eighth</type><stem>up</stem></note></measure><measure width="281.39" number="12"><harmony print-frame="no"><root><root-step>F</root-step></root><kind text="">major</kind></harmony><note default-y="-25.00" default-x="15.00"><pitch><step>A</step><octave>4</octave></pitch><duration>6</duration><voice>1</voice><type>quarter</type><stem>up</stem></note><note default-y="-25.00" default-x="73.84"><pitch><step>A</step><octave>4</octave></pitch><duration>3</duration><voice>1</voice><type>eighth</type><stem>down</stem><beam number="1">begin</beam></note><note default-y="-15.00" default-x="110.62"><pitch><step>C</step><octave>5</octave></pitch><duration>3</duration><tie type="start"/><voice>1</voice><type>eighth</type><stem>down</stem><beam number="1">end</beam><notations><tied type="start"/></notations></note><note default-y="-15.00" default-x="147.39"><pitch><step>C</step><octave>5</octave></pitch><duration>3</duration><tie type="stop"/><voice>1</voice><type>eighth</type><stem>down</stem><notations><tied type="stop"/></notations></note><note default-y="-15.00" default-x="184.17"><pitch><step>C</step><octave>5</octave></pitch><duration>6</duration><voice>1</voice><type>quarter</type><stem>down</stem></note><note default-y="5.00" default-x="243.01"><pitch><step>G</step><octave>5</octave></pitch><duration>3</duration><tie type="start"/><voice>1</voice><type>eighth</type><stem>down</stem><notations><tied type="start"/></notations></note></measure><measure width="308.19" number="13"><print new-system="yes"><system-layout><system-margins><left-margin>-0.00</left-margin><right-margin>0.00</right-margin></system-margins><system-distance>110.68</system-distance></system-layout></print><harmony print-frame="no"><root><root-step>B</root-step><root-alter>-1</root-alter></root><kind text="7b5">dominant</kind><degree><degree-value>5</degree-value><degree-alter>-1</degree-alter><degree-type>alter</degree-type></degree></harmony><note default-y="5.00" default-x="53.06"><pitch><step>G</step><octave>5</octave></pitch><duration>9</duration><tie type="stop"/><voice>1</voice><type>quarter</type><dot/><stem>down</stem><notations><tied type="stop"/></notations></note><note default-y="0.00" default-x="128.56"><pitch><step>F</step><octave>5</octave></pitch><duration>3</duration><voice>1</voice><type>eighth</type><stem>down</stem></note><note default-y="-15.00" default-x="167.27"><pitch><step>C</step><octave>5</octave></pitch><duration>3</duration><voice>1</voice><type>eighth</type><stem>down</stem></note><note default-y="-10.00" default-x="205.97"><pitch><step>D</step><octave>5</octave></pitch><duration>6</duration><voice>1</voice><type>quarter</type><stem>down</stem></note><note default-y="-5.00" default-x="267.89"><pitch><step>E</step><octave>5</octave></pitch><duration>3</duration><tie type="start"/><voice>1</voice><type>eighth</type><stem>down</stem><notations><tied type="start"/></notations></note></measure><measure width="207.93" number="14"><harmony print-frame="no"><root><root-step>B</root-step></root><kind text="m7">minor-seventh</kind><bass><bass-step>E</bass-step></bass></harmony><note default-y="-5.00" default-x="15.00"><pitch><step>E</step><octave>5</octave></pitch><duration>24</duration><tie type="stop"/><tie type="start"/><voice>1</voice><type>whole</type><notations><tied type="stop"/><tied type="start"/></notations></note></measure><measure width="242.57" number="15"><barline location="left"><ending type="start" number="1"/></barline><harmony print-frame="no"><root><root-step>E</root-step></root><kind text="7alt">dominant</kind><degree><degree-value>5</degree-value><degree-alter>1</degree-alter><degree-type>alter</degree-type></degree><degree><degree-value>9</degree-value><degree-alter>1</degree-alter><degree-type>add</degree-type></degree><degree><degree-value>11</degree-value><degree-alter>1</degree-alter><degree-type>add</degree-type></degree></harmony><note default-y="-5.00" default-x="15.00"><pitch><step>E</step><octave>5</octave></pitch><duration>18</duration><tie type="stop"/><voice>1</voice><type>half</type><dot/><stem>down</stem><notations><tied type="stop"/></notations></note><note><rest/><duration>3</duration><voice>1</voice><type>eighth</type></note><note default-y="-40.00" default-x="180.83"><pitch><step>E</step><octave>4</octave></pitch><duration>3</duration><voice>1</voice><type>eighth</type><stem>up</stem></note><barline location="right"><bar-style>light-heavy</bar-style><ending type="stop" number="1"/><repeat direction="backward"/></barline></measure><measure width="318.41" number="16"><barline location="left"><ending type="start" number="2"/></barline><harmony print-frame="no"><root><root-step>E</root-step></root><kind text="7">dominant</kind></harmony><note default-y="-5.00" default-x="15.00"><pitch><step>E</step><octave>5</octave></pitch><duration>4</duration><voice>1</voice><type>quarter</type><time-modification><actual-notes>3</actual-notes><normal-notes>2</normal-notes></time-modification><stem>up</stem><notations><tuplet type="start" bracket="yes"/></notations></note><note default-y="-5.00" default-x="64.53"><pitch><step>E</step><octave>5</octave></pitch><duration>4</duration><voice>1</voice><type>quarter</type><time-modification><actual-notes>3</actual-notes><normal-notes>2</normal-notes></time-modification><stem>up</stem></note><note default-y="0.00" default-x="114.07"><pitch><step>F</step><alter>1</alter><octave>5</octave></pitch><duration>4</duration><voice>1</voice><type>quarter</type><accidental>sharp</accidental><time-modification><actual-notes>3</actual-notes><normal-notes>2</normal-notes></time-modification><stem>up</stem><notations><tuplet type="stop"/></notations></note><note default-y="5.00" default-x="163.60"><pitch><step>G</step><alter>1</alter><octave>5</octave></pitch><duration>4</duration><voice>1</voice><type>quarter</type><accidental>sharp</accidental><time-modification><actual-notes>3</actual-notes><normal-notes>2</normal-notes></time-modification><stem>up</stem><notations><tuplet type="start" bracket="yes"/></notations></note><note default-y="0.00" default-x="213.14"><pitch><step>F</step><alter>1</alter><octave>5</octave></pitch><duration>4</duration><voice>1</voice><type>quarter</type><time-modification><actual-notes>3</actual-notes><normal-notes>2</normal-notes></time-modification><stem>up</stem></note><note default-y="5.00" default-x="262.67"><pitch><step>G</step><alter>1</alter><octave>5</octave></pitch><duration>4</duration><voice>1</voice><type>quarter</type><time-modification><actual-notes>3</actual-notes><normal-notes>2</normal-notes></time-modification><stem>up</stem><notations><tuplet type="stop"/></notations></note><barline location="right"><bar-style>light-light</bar-style><ending type="discontinue" number="2"/></barline></measure><measure width="262.76" number="17"><print new-system="yes"><system-layout><system-margins><left-margin>-0.00</left-margin><right-margin>-0.00</right-margin></system-margins><system-distance>110.68</system-distance></system-layout></print><harmony print-frame="no"><root><root-step>A</root-step></root><kind text="">major</kind></harmony><note default-y="-5.00" default-x="53.06"><pitch><step>E</step><octave>5</octave></pitch><duration>24</duration><tie type="start"/><voice>1</voice><type>whole</type><notations><tied type="start"/></notations></note></measure><measure width="250.22" number="18"><note default-y="-5.00" default-x="15.00"><pitch><step>E</step><octave>5</octave></pitch><duration>18</duration><tie type="stop"/><voice>1</voice><type>half</type><dot/><stem>down</stem><notations><tied type="stop"/></notations></note><note><rest/><duration>3</duration><voice>1</voice><type>eighth</type></note><note default-y="-5.00" default-x="197.29"><pitch><step>E</step><octave>5</octave></pitch><duration>3</duration><voice>1</voice><type>eighth</type><stem>down</stem></note></measure><measure width="275.44" number="19"><harmony print-frame="no"><root><root-step>E</root-step><root-alter>-1</root-alter></root><kind text="m7b5">half-diminished</kind></harmony><note default-y="0.00" default-x="20.74"><pitch><step>F</step><alter>1</alter><octave>5</octave></pitch><duration>6</duration><voice>1</voice><type>quarter</type><accidental>sharp</accidental><stem>down</stem></note><note default-y="5.00" default-x="84.01"><pitch><step>G</step><octave>5</octave></pitch><duration>6</duration><voice>1</voice><type>quarter</type><stem>down</stem></note><note default-y="10.00" default-x="147.29"><pitch><step>A</step><octave>5</octave></pitch><duration>6</duration><voice>1</voice><type>quarter</type><stem>down</stem></note><note default-y="10.00" default-x="210.56"><pitch><step>A</step><octave>5</octave></pitch><duration>6</duration><voice>1</voice><type>quarter</type><stem>down</stem></note></measure><measure width="288.68" number="20"><harmony print-frame="no"><root><root-step>A</root-step><root-alter>-1</root-alter></root><kind text="7">dominant</kind></harmony><note default-y="5.00" default-x="20.74"><pitch><step>G</step><alter>1</alter><octave>5</octave></pitch><duration>6</duration><voice>1</voice><type>quarter</type><accidental>sharp</accidental><stem>down</stem></note><note default-y="5.00" default-x="87.32"><pitch><step>G</step><alter>1</alter><octave>5</octave></pitch><duration>6</duration><voice>1</voice><type>quarter</type><stem>down</stem></note><note default-y="0.00" default-x="153.91"><pitch><step>F</step><alter>1</alter><octave>5</octave></pitch><duration>6</duration><voice>1</voice><type>quarter</type><accidental>sharp</accidental><stem>down</stem></note><note default-y="5.00" default-x="220.49"><pitch><step>G</step><alter>1</alter><octave>5</octave></pitch><duration>6</duration><voice>1</voice><type>quarter</type><stem>down</stem></note></measure><measure width="273.49" number="21"><print new-system="yes"><system-layout><system-margins><left-margin>-0.00</left-margin><right-margin>-0.00</right-margin></system-margins><system-distance>110.68</system-distance></system-layout></print><harmony print-frame="no"><root><root-step>D</root-step><root-alter>-1</root-alter></root><kind text="7">dominant</kind></harmony><note default-y="-5.00" default-x="53.06"><pitch><step>E</step><octave>5</octave></pitch><duration>6</duration><tie type="start"/><voice>1</voice><type>quarter</type><stem>down</stem><notations><tied type="start"/></notations></note><note default-y="-5.00" default-x="127.22"><pitch><step>E</step><octave>5</octave></pitch><duration>18</duration><tie type="stop"/><voice>1</voice><type>half</type><dot/><stem>down</stem><notations><tied type="stop"/></notations></note></measure><measure width="265.39" number="22"><harmony print-frame="no"><root><root-step>F</root-step><root-alter>1</root-alter></root><kind text="7">dominant</kind></harmony><note><rest/><duration>12</duration><voice>1</voice><type>half</type></note><note><rest/><duration>6</duration><voice>1</voice><type>quarter</type></note><note><rest/><duration>3</duration><voice>1</voice><type>eighth</type></note><note default-y="-5.00" default-x="220.89"><pitch><step>E</step><octave>5</octave></pitch><duration>3</duration><voice>1</voice><type>eighth</type><stem>down</stem></note></measure><measure width="269.11" number="23"><harmony print-frame="no"><root><root-step>D</root-step></root><kind text="m7">minor-seventh</kind></harmony><note default-y="-10.00" default-x="15.00"><pitch><step>D</step><octave>5</octave></pitch><duration>9</duration><voice>1</voice><type>quarter</type><dot/><stem>down</stem></note><note default-y="-10.00" default-x="95.09"><pitch><step>D</step><octave>5</octave></pitch><duration>3</duration><voice>1</voice><type>eighth</type><stem>down</stem></note><note default-y="0.00" default-x="136.14"><pitch><step>F</step><octave>5</octave></pitch><duration>6</duration><voice>1</voice><type>quarter</type><stem>down</stem></note><note default-y="0.00" default-x="201.83"><pitch><step>F</step><octave>5</octave></pitch><duration>6</duration><voice>1</voice><type>quarter</type><stem>down</stem></note></measure><measure width="269.11" number="24"><harmony print-frame="no"><root><root-step>G</root-step></root><kind text="7">dominant</kind></harmony><note default-y="-5.00" default-x="15.00"><pitch><step>E</step><octave>5</octave></pitch><duration>6</duration><voice>1</voice><type>quarter</type><stem>down</stem></note><note default-y="-5.00" default-x="78.13"><pitch><step>E</step><octave>5</octave></pitch><duration>6</duration><voice>1</voice><type>quarter</type><stem>down</stem></note><note default-y="-10.00" default-x="141.25"><pitch><step>D</step><octave>5</octave></pitch><duration>6</duration><voice>1</voice><type>quarter</type><stem>down</stem></note><note default-y="-5.00" default-x="204.38"><pitch><step>E</step><octave>5</octave></pitch><duration>6</duration><voice>1</voice><type>quarter</type><stem>down</stem></note></measure><measure width="274.36" number="25"><print new-system="yes"><system-layout><system-margins><left-margin>-0.00</left-margin><right-margin>-0.00</right-margin></system-margins><system-distance>110.68</system-distance></system-layout></print><harmony print-frame="no"><root><root-step>G</root-step></root><kind text="m7">minor-seventh</kind></harmony><note default-y="-30.00" default-x="53.06"><pitch><step>G</step><octave>4</octave></pitch><duration>12</duration><voice>1</voice><type>half</type><stem>up</stem></note><note default-y="-30.00" default-x="162.91"><pitch><step>G</step><octave>4</octave></pitch><duration>12</duration><tie type="start"/><voice>1</voice><type>half</type><stem>up</stem><notations><tied type="start"/></notations></note></measure><measure width="264.22" number="26"><harmony print-frame="no"><root><root-step>C</root-step></root><kind text="7">dominant</kind></harmony><note default-y="-30.00" default-x="15.00"><pitch><step>G</step><octave>4</octave></pitch><duration>6</duration><tie type="stop"/><voice>1</voice><type>quarter</type><stem>up</stem><notations><tied type="stop"/></notations></note><note><rest/><duration>6</duration><voice>1</voice><type>quarter</type></note><note><rest/><duration>6</duration><voice>1</voice><type>quarter</type></note><note default-y="-30.00" default-x="200.71"><pitch><step>G</step><octave>4</octave></pitch><duration>6</duration><voice>1</voice><type>quarter</type><stem>up</stem></note></measure><measure width="269.26" number="27"><harmony print-frame="no"><root><root-step>F</root-step></root><kind text="">major</kind></harmony><note default-y="-25.00" default-x="15.00"><pitch><step>A</step><octave>4</octave></pitch><duration>6</duration><voice>1</voice><type>quarter</type><stem>up</stem></note><note default-y="-25.00" default-x="78.16"><pitch><step>A</step><octave>4</octave></pitch><duration>6</duration><voice>1</voice><type>quarter</type><stem>up</stem></note><note default-y="-15.00" default-x="141.33"><pitch><step>C</step><octave>5</octave></pitch><duration>6</duration><voice>1</voice><type>quarter</type><stem>down</stem></note><note default-y="-15.00" default-x="204.49"><pitch><step>C</step><octave>5</octave></pitch><duration>6</duration><voice>1</voice><type>quarter</type><stem>down</stem></note></measure><measure width="269.26" number="28"><harmony print-frame="no"><root><root-step>B</root-step><root-alter>-1</root-alter></root><kind text="7b5">dominant</kind><degree><degree-value>5</degree-value><degree-alter>-1</degree-alter><degree-type>alter</degree-type></degree></harmony><note default-y="5.00" default-x="15.00"><pitch><step>G</step><octave>5</octave></pitch><duration>6</duration><voice>1</voice><type>quarter</type><stem>down</stem></note><note default-y="0.00" default-x="78.16"><pitch><step>F</step><octave>5</octave></pitch><duration>6</duration><voice>1</voice><type>quarter</type><stem>down</stem></note><note default-y="-15.00" default-x="141.33"><pitch><step>C</step><octave>5</octave></pitch><duration>6</duration><voice>1</voice><type>quarter</type><stem>down</stem></note><note default-y="-10.00" default-x="204.49"><pitch><step>D</step><octave>5</octave></pitch><duration>6</duration><voice>1</voice><type>quarter</type><stem>down</stem></note></measure><measure width="272.22" number="29"><print new-system="yes"><system-layout><system-margins><left-margin>-0.00</left-margin><right-margin>-0.00</right-margin></system-margins><system-distance>110.68</system-distance></system-layout></print><harmony print-frame="no"><root><root-step>B</root-step></root><kind text="m7">minor-seventh</kind><bass><bass-step>E</bass-step></bass></harmony><note default-y="-5.00" default-x="53.06"><pitch><step>E</step><octave>5</octave></pitch><duration>24</duration><tie type="start"/><voice>1</voice><type>whole</type><notations><tied type="start"/></notations></note></measure><measure width="273.40" number="30"><note default-y="-5.00" default-x="15.00"><pitch><step>E</step><octave>5</octave></pitch><duration>18</duration><tie type="stop"/><voice>1</voice><type>half</type><dot/><stem>down</stem><notations><tied type="stop"/></notations></note><note><rest/><duration>3</duration><voice>1</voice><type>eighth</type></note><note default-y="-40.00" default-x="211.78"><pitch><step>E</step><octave>4</octave></pitch><duration>3</duration><voice>1</voice><type>eighth</type><stem>up</stem></note><barline location="right"><bar-style>light-light</bar-style></barline></measure><measure width="262.68" number="31"><harmony print-frame="no"><root><root-step>E</root-step></root><kind text="7">dominant</kind></harmony><note default-y="-40.00" default-x="15.00"><pitch><step>E</step><octave>4</octave></pitch><duration>3</duration><voice>1</voice><type>eighth</type><stem>up</stem><beam number="1">begin</beam></note><note default-y="-40.00" default-x="69.07"><pitch><step>E</step><octave>4</octave></pitch><duration>3</duration><tie type="start"/><voice>1</voice><type>eighth</type><stem>up</stem><beam number="1">end</beam><notations><tied type="start"/></notations></note><note default-y="-40.00" default-x="123.14"><pitch><step>E</step><octave>4</octave></pitch><duration>18</duration><tie type="stop"/><tie type="start"/><voice>1</voice><type>half</type><dot/><stem>up</stem><notations><tied type="stop"/><tied type="start"/></notations></note></measure><measure width="268.80" number="32"><harmony print-frame="no"><root><root-step>A</root-step></root><kind text="m7">minor-seventh</kind></harmony><note default-y="-40.00" default-x="15.00"><pitch><step>E</step><octave>4</octave></pitch><duration>18</duration><tie type="stop"/><voice>1</voice><type>half</type><dot/><stem>up</stem><notations><tied type="stop"/></notations></note><note><rest/><duration>3</duration><voice>1</voice><type>eighth</type></note><note default-y="-40.00" default-x="211.78"><pitch><step>E</step><octave>4</octave></pitch><duration>3</duration><voice>1</voice><type>eighth</type><stem>up</stem></note></measure><measure width="320.23" number="33"><print new-system="yes"><system-layout><system-margins><left-margin>-0.00</left-margin><right-margin>-0.00</right-margin></system-margins><system-distance>110.68</system-distance></system-layout></print><harmony print-frame="no"><root><root-step>D</root-step></root><kind text="m7">minor-seventh</kind></harmony><note default-y="-35.00" default-x="53.06"><pitch><step>F</step><octave>4</octave></pitch><duration>9</duration><voice>1</voice><type>quarter</type><dot/><stem>up</stem></note><note default-y="-35.00" default-x="132.15"><pitch><step>F</step><octave>4</octave></pitch><duration>3</duration><voice>1</voice><type>eighth</type><stem>up</stem></note><note default-y="-25.00" default-x="172.69"><pitch><step>A</step><octave>4</octave></pitch><duration>3</duration><voice>1</voice><type>eighth</type><stem>up</stem></note><note default-y="-25.00" default-x="213.23"><pitch><step>A</step><octave>4</octave></pitch><duration>6</duration><voice>1</voice><type>quarter</type><stem>up</stem></note><note default-y="-15.00" default-x="278.09"><pitch><step>C</step><octave>5</octave></pitch><duration>3</duration><tie type="start"/><voice>1</voice><type>eighth</type><stem>down</stem><notations><tied type="start"/></notations></note></measure><measure width="290.25" number="34"><harmony print-frame="no"><root><root-step>E</root-step></root><kind text="7alt">dominant</kind><degree><degree-value>5</degree-value><degree-alter>1</degree-alter><degree-type>alter</degree-type></degree><degree><degree-value>9</degree-value><degree-alter>1</degree-alter><degree-type>add</degree-type></degree><degree><degree-value>11</degree-value><degree-alter>1</degree-alter><degree-type>add</degree-type></degree></harmony><note default-y="-15.00" default-x="15.00"><pitch><step>C</step><octave>5</octave></pitch><duration>3</duration><tie type="stop"/><voice>1</voice><type>eighth</type><stem>down</stem><notations><tied type="stop"/></notations></note><note default-y="-15.00" default-x="53.01"><pitch><step>C</step><octave>5</octave></pitch><duration>6</duration><voice>1</voice><type>quarter</type><stem>down</stem></note><note default-y="-20.00" default-x="113.82"><pitch><step>B</step><octave>4</octave></pitch><duration>3</duration><tie type="start"/><voice>1</voice><type>eighth</type><stem>down</stem><notations><tied type="start"/></notations></note><note default-y="-20.00" default-x="151.82"><pitch><step>B</step><octave>4</octave></pitch><duration>3</duration><tie type="stop"/><voice>1</voice><type>eighth</type><stem>down</stem><notations><tied type="stop"/></notations></note><note default-y="-20.00" default-x="189.83"><pitch><step>B</step><octave>4</octave></pitch><duration>6</duration><voice>1</voice><type>quarter</type><stem>down</stem></note><note default-y="-40.00" default-x="250.64"><pitch><step>E</step><octave>4</octave></pitch><duration>3</duration><tie type="start"/><voice>1</voice><type>eighth</type><stem>up</stem><notations><tied type="start"/></notations></note></measure><measure width="230.25" number="35"><harmony print-frame="no"><root><root-step>A</root-step></root><kind text="m7">minor-seventh</kind></harmony><note default-y="-40.00" default-x="15.00"><pitch><step>E</step><octave>4</octave></pitch><duration>3</duration><tie type="stop"/><voice>1</voice><type>eighth</type><stem>up</stem><beam number="1">begin</beam><notations><tied type="stop"/></notations></note><note default-y="-40.00" default-x="61.95"><pitch><step>E</step><octave>4</octave></pitch><duration>3</duration><tie type="start"/><voice>1</voice><type>eighth</type><stem>up</stem><beam number="1">end</beam><notations><tied type="start"/></notations></note><note default-y="-40.00" default-x="108.89"><pitch><step>E</step><octave>4</octave></pitch><duration>18</duration><tie type="stop"/><tie type="start"/><voice>1</voice><type>half</type><dot/><stem>up</stem><notations><tied type="stop"/><tied type="start"/></notations></note></measure><measure width="236.37" number="36"><note default-y="-40.00" default-x="15.00"><pitch><step>E</step><octave>4</octave></pitch><duration>18</duration><tie type="stop"/><voice>1</voice><type>half</type><dot/><stem>up</stem><notations><tied type="stop"/></notations></note><note><rest/><duration>3</duration><voice>1</voice><type>eighth</type></note><note default-y="-40.00" default-x="186.48"><pitch><step>E</step><octave>4</octave></pitch><duration>3</duration><voice>1</voice><type>eighth</type><stem>up</stem></note></measure><measure width="339.97" number="37"><print new-page="yes"><system-layout><system-margins><left-margin>0.00</left-margin><right-margin>-0.00</right-margin></system-margins><top-system-distance>70.00</top-system-distance></system-layout></print><harmony print-frame="no"><root><root-step>D</root-step></root><kind text="m7">minor-seventh</kind></harmony><note default-y="-35.00" default-x="53.06"><pitch><step>F</step><octave>4</octave></pitch><duration>3</duration><voice>1</voice><type>eighth</type><stem>up</stem></note><note default-y="-35.00" default-x="92.69"><pitch><step>F</step><octave>4</octave></pitch><duration>6</duration><voice>1</voice><type>quarter</type><stem>up</stem></note><note default-y="-25.00" default-x="156.09"><pitch><step>A</step><octave>4</octave></pitch><duration>3</duration><tie type="start"/><voice>1</voice><type>eighth</type><stem>up</stem><notations><tied type="start"/></notations></note><note default-y="-25.00" default-x="195.71"><pitch><step>A</step><octave>4</octave></pitch><duration>3</duration><tie type="stop"/><voice>1</voice><type>eighth</type><stem>up</stem><notations><tied type="stop"/></notations></note><note default-y="-25.00" default-x="235.34"><pitch><step>A</step><octave>4</octave></pitch><duration>6</duration><voice>1</voice><type>quarter</type><stem>up</stem></note><note default-y="-5.00" default-x="298.74"><pitch><step>E</step><octave>5</octave></pitch><duration>3</duration><tie type="start"/><voice>1</voice><type>eighth</type><stem>down</stem><notations><tied type="start"/></notations></note></measure><measure width="283.67" number="38"><harmony print-frame="no"><root><root-step>G</root-step></root><kind text="7">dominant</kind></harmony><note default-y="-5.00" default-x="15.00"><pitch><step>E</step><octave>5</octave></pitch><duration>3</duration><tie type="stop"/><voice>1</voice><type>eighth</type><stem>down</stem><notations><tied type="stop"/></notations></note><note default-y="-5.00" default-x="52.09"><pitch><step>E</step><octave>5</octave></pitch><duration>6</duration><voice>1</voice><type>quarter</type><stem>down</stem></note><note default-y="-10.00" default-x="111.44"><pitch><step>D</step><octave>5</octave></pitch><duration>3</duration><tie type="start"/><voice>1</voice><type>eighth</type><stem>down</stem><notations><tied type="start"/></notations></note><note default-y="-10.00" default-x="148.53"><pitch><step>D</step><octave>5</octave></pitch><duration>3</duration><tie type="stop"/><voice>1</voice><type>eighth</type><stem>down</stem><notations><tied type="stop"/></notations></note><note default-y="-10.00" default-x="185.63"><pitch><step>D</step><octave>5</octave></pitch><duration>6</duration><voice>1</voice><type>quarter</type><stem>down</stem></note><note default-y="-30.00" default-x="244.98"><pitch><step>G</step><octave>4</octave></pitch><duration>3</duration><tie type="start"/><voice>1</voice><type>eighth</type><stem>up</stem><notations><tied type="start"/></notations></note></measure><measure width="223.67" number="39"><harmony print-frame="no"><root><root-step>G</root-step></root><kind text="m7">minor-seventh</kind><bass><bass-step>C</bass-step></bass></harmony><note default-y="-30.00" default-x="15.00"><pitch><step>G</step><octave>4</octave></pitch><duration>3</duration><tie type="stop"/><voice>1</voice><type>eighth</type><stem>up</stem><beam number="1">begin</beam><notations><tied type="stop"/></notations></note><note default-y="-30.00" default-x="60.50"><pitch><step>G</step><octave>4</octave></pitch><duration>3</duration><tie type="start"/><voice>1</voice><type>eighth</type><stem>up</stem><beam number="1">end</beam><notations><tied type="start"/></notations></note><note default-y="-30.00" default-x="106.00"><pitch><step>G</step><octave>4</octave></pitch><duration>18</duration><tie type="stop"/><tie type="start"/><voice>1</voice><type>half</type><dot/><stem>up</stem><notations><tied type="stop"/><tied type="start"/></notations></note></measure><measure width="229.79" number="40"><harmony print-frame="no"><root><root-step>C</root-step></root><kind text="7">dominant</kind></harmony><note default-y="-30.00" default-x="15.00"><pitch><step>G</step><octave>4</octave></pitch><duration>18</duration><tie type="stop"/><voice>1</voice><type>half</type><dot/><stem>up</stem><notations><tied type="stop"/></notations></note><note><rest/><duration>3</duration><voice>1</voice><type>eighth</type></note><note default-y="-30.00" default-x="181.34"><pitch><step>G</step><octave>4</octave></pitch><duration>3</duration><voice>1</voice><type>eighth</type><stem>up</stem></note></measure><measure width="338.12" number="41"><print new-system="yes"><system-layout><system-margins><left-margin>0.00</left-margin><right-margin>-0.00</right-margin></system-margins><system-distance>92.50</system-distance></system-layout></print><harmony print-frame="no"><root><root-step>F</root-step></root><kind text="">major</kind></harmony><note default-y="-25.00" default-x="53.06"><pitch><step>A</step><octave>4</octave></pitch><duration>6</duration><voice>1</voice><type>quarter</type><stem>up</stem></note><note default-y="-25.00" default-x="116.05"><pitch><step>A</step><octave>4</octave></pitch><duration>3</duration><voice>1</voice><type>eighth</type><stem>down</stem><beam number="1">begin</beam></note><note default-y="-15.00" default-x="155.42"><pitch><step>C</step><octave>5</octave></pitch><duration>3</duration><tie type="start"/><voice>1</voice><type>eighth</type><stem>down</stem><beam number="1">end</beam><notations><tied type="start"/></notations></note><note default-y="-15.00" default-x="194.79"><pitch><step>C</step><octave>5</octave></pitch><duration>3</duration><tie type="stop"/><voice>1</voice><type>eighth</type><stem>down</stem><notations><tied type="stop"/></notations></note><note default-y="-15.00" default-x="234.16"><pitch><step>C</step><octave>5</octave></pitch><duration>6</duration><voice>1</voice><type>quarter</type><stem>down</stem></note><note default-y="5.00" default-x="297.15"><pitch><step>G</step><octave>5</octave></pitch><duration>3</duration><tie type="start"/><voice>1</voice><type>eighth</type><stem>down</stem><notations><tied type="start"/></notations></note></measure><measure width="282.86" number="42"><harmony print-frame="no"><root><root-step>B</root-step><root-alter>-1</root-alter></root><kind text="7b5">dominant</kind><degree><degree-value>5</degree-value><degree-alter>-1</degree-alter><degree-type>alter</degree-type></degree></harmony><note default-y="5.00" default-x="15.00"><pitch><step>G</step><octave>5</octave></pitch><duration>9</duration><tie type="stop"/><voice>1</voice><type>quarter</type><dot/><stem>down</stem><notations><tied type="stop"/></notations></note><note default-y="0.00" default-x="94.30"><pitch><step>F</step><octave>5</octave></pitch><duration>3</duration><voice>1</voice><type>eighth</type><stem>down</stem></note><note default-y="-15.00" default-x="134.94"><pitch><step>C</step><octave>5</octave></pitch><duration>3</duration><voice>1</voice><type>eighth</type><stem>down</stem></note><note default-y="-10.00" default-x="175.58"><pitch><step>D</step><octave>5</octave></pitch><duration>6</duration><voice>1</voice><type>quarter</type><stem>down</stem></note><note default-y="-5.00" default-x="240.62"><pitch><step>E</step><octave>5</octave></pitch><duration>3</duration><tie type="start"/><voice>1</voice><type>eighth</type><stem>down</stem><notations><tied type="start"/></notations></note></measure><measure width="220.66" number="43"><harmony print-frame="no"><root><root-step>B</root-step></root><kind text="m7">minor-seventh</kind><bass><bass-step>E</bass-step></bass></harmony><note default-y="-5.00" default-x="15.00"><pitch><step>E</step><octave>5</octave></pitch><duration>24</duration><tie type="stop"/><tie type="start"/><voice>1</voice><type>whole</type><notations><tied type="stop"/><tied type="start"/></notations></note></measure><measure width="235.46" number="44"><harmony print-frame="no"><root><root-step>E</root-step></root><kind text="7b9">dominant</kind><degree><degree-value>9</degree-value><degree-alter>-1</degree-alter><degree-type>add</degree-type></degree></harmony><note default-y="-5.00" default-x="15.00"><pitch><step>E</step><octave>5</octave></pitch><duration>18</duration><tie type="stop"/><voice>1</voice><type>half</type><dot/><stem>down</stem><notations><tied type="stop"/></notations></note><note><rest/><duration>6</duration><voice>1</voice><type>quarter</type></note><barline location="right"><bar-style>light-heavy</bar-style></barline></measure></part></score-partwise>