<score-partwise version="2.0"><work><work-number/><work-title/></work><movement-number/><movement-title>I Say A Little Prayer</movement-title><identification><creator type="composer">Burt Bacharach, Hal David</creator><creator type="poet"/><rights>All Rights Reserved</rights><encoding><software>Sibelius 4.0</software><software>Dolet 3.2 for Sibelius</software><supports type="no" element="accidental"/><supports type="no" element="transpose"/><software>ProxyMusic 2.0 c</software></encoding><source>http://wikifonia.org/node/255/revisions/7731/view</source></identification><defaults><scaling><millimeters>6</millimeters><tenths>40</tenths></scaling><page-layout><page-height>1980</page-height><page-width>1400</page-width></page-layout></defaults><part-list><score-part id="P1"><part-name> </part-name><part-abbreviation> </part-abbreviation><score-instrument id="P1-I1"><instrument-name> </instrument-name></score-instrument><midi-instrument id="P1-I1"><midi-channel>1</midi-channel><midi-program>14</midi-program></midi-instrument></score-part></part-list><part id="P1"><measure number="1"><attributes><divisions>768</divisions><key><fifths>-4</fifths><mode>major</mode></key><time><beats>4</beats><beat-type>4</beat-type></time><clef><sign>G</sign><line>2</line></clef></attributes><harmony relative-x="8" default-y="25" print-frame="no"><root><root-step>F</root-step></root><kind text="m7">minor-seventh</kind></harmony><note><rest/><duration>768</duration><voice>1</voice><type>quarter</type></note><note><pitch><step>A</step><alter>-1</alter><octave>3</octave></pitch><duration>384</duration><voice>1</voice><type>eighth</type><beam number="1">begin</beam><lyric number="1" name="verse"><syllabic>end</syllabic><text>The</text></lyric><lyric number="2" name="verse"><syllabic>end</syllabic><text>I</text></lyric></note><note><pitch><step>A</step><alter>-1</alter><octave>3</octave></pitch><duration>384</duration><tie type="start"/><voice>1</voice><type>eighth</type><beam number="1">continue</beam><notations><tied type="start"/></notations><lyric number="1" name="verse"><syllabic>middle</syllabic><text>mo</text><extend/></lyric><lyric number="2" name="verse"><syllabic>end</syllabic><text>ran</text><extend/></lyric></note><note><pitch><step>A</step><alter>-1</alter><octave>3</octave></pitch><duration>384</duration><voice>1</voice><type>eighth</type><beam number="1">begin</beam></note><note><pitch><step>B</step><alter>-1</alter><octave>3</octave></pitch><duration>384</duration><voice>1</voice><type>eighth</type><beam number="1">continue</beam><lyric number="1" name="verse"><syllabic>end</syllabic><text>ment</text></lyric><lyric number="2" name="verse"><syllabic>end</syllabic><text>for</text></lyric></note><note><pitch><step>C</step><octave>4</octave></pitch><duration>768</duration><voice>1</voice><type>quarter</type><lyric number="1" name="verse"><syllabic>end</syllabic><text>I</text></lyric><lyric number="2" name="verse"><syllabic>end</syllabic><text>the</text></lyric></note></measure><measure number="2"><harmony relative-x="8" default-y="25" print-frame="no"><root><root-step>B</root-step><root-alter>-1</root-alter></root><kind text="m7">minor-seventh</kind></harmony><note><pitch><step>D</step><alter>-1</alter><octave>4</octave></pitch><duration>768</duration><voice>1</voice><type>quarter</type><lyric number="1" name="verse"><syllabic>end</syllabic><text>wake</text></lyric><lyric number="2" name="verse"><syllabic>end</syllabic><text>bus</text></lyric></note><note><pitch><step>A</step><alter>-1</alter><octave>4</octave></pitch><duration>2304</duration><voice>1</voice><type>half</type><dot/><lyric number="1" name="verse"><syllabic>end</syllabic><text>up</text></lyric><lyric number="2" name="verse"><syllabic>end</syllabic><text>dear</text></lyric></note></measure><measure number="3"><note><rest/><duration>768</duration><voice>1</voice><type>quarter</type></note><note><pitch><step>A</step><alter>-1</alter><octave>4</octave></pitch><duration>384</duration><voice>1</voice><type>eighth</type><beam number="1">begin</beam><lyric number="1" name="verse"><syllabic>middle</syllabic><text>Be</text></lyric><lyric number="2" name="verse"><syllabic>end</syllabic><text>While</text></lyric></note><note><pitch><step>A</step><alter>-1</alter><octave>4</octave></pitch><duration>384</duration><tie type="start"/><voice>1</voice><type>eighth</type><beam number="1">continue</beam><notations><tied type="start"/></notations><lyric number="1" name="verse"><syllabic>end</syllabic><text>fore</text><extend/></lyric><lyric number="2" name="verse"><syllabic>middle</syllabic><text>ri</text><extend/></lyric></note><note><pitch><step>A</step><alter>-1</alter><octave>4</octave></pitch><duration>384</duration><voice>1</voice><type>eighth</type><beam number="1">begin</beam></note><note><pitch><step>B</step><alter>-1</alter><octave>4</octave></pitch><duration>384</duration><voice>1</voice><type>eighth</type><beam number="1">continue</beam><lyric number="1" name="verse"><syllabic>end</syllabic><text>I</text></lyric><lyric number="2" name="verse"><syllabic>end</syllabic><text>ding</text></lyric></note><note><pitch><step>C</step><octave>5</octave></pitch><duration>768</duration><voice>1</voice><type>quarter</type><lyric number="1" name="verse"><syllabic>end</syllabic><text>put</text></lyric><lyric number="2" name="verse"><syllabic>end</syllabic><text>I</text></lyric></note></measure><measure number="4"><harmony relative-x="8" default-y="25" print-frame="no"><root><root-step>E</root-step><root-alter>-1</root-alter></root><kind text="">major</kind></harmony><note><pitch><step>B</step><alter>-1</alter><octave>4</octave></pitch><duration>384</duration><voice>1</voice><type>eighth</type><beam number="1">begin</beam><notations><slur type="start" number="1"/></notations><lyric number="1" name="verse"><syllabic>end</syllabic><text>on</text><extend/></lyric><lyric number="2" name="verse"><syllabic>end</syllabic><text>think</text><extend/></lyric></note><note><pitch><step>A</step><alter>-1</alter><octave>4</octave></pitch><duration>384</duration><voice>1</voice><type>eighth</type><beam number="1">continue</beam><notations><slur type="stop" number="1"/></notations></note><note><pitch><step>F</step><octave>4</octave></pitch><duration>384</duration><voice>1</voice><type>eighth</type><beam number="1">continue</beam><notations><slur type="start" number="1"/></notations><lyric number="1" name="verse"><syllabic>end</syllabic><text>my</text><extend/></lyric><lyric number="2" name="verse"><syllabic>end</syllabic><text>of</text><extend/></lyric></note><note><pitch><step>E</step><alter>-1</alter><octave>4</octave></pitch><duration>384</duration><voice>1</voice><type>eighth</type><beam number="1">continue</beam><notations><slur type="stop" number="1"/></notations></note><harmony relative-x="8" default-y="25" print-frame="no"><root><root-step>A</root-step><root-alter>-1</root-alter></root><kind text="">major</kind></harmony><note><pitch><step>F</step><octave>4</octave></pitch><duration>768</duration><voice>1</voice><type>quarter</type><lyric number="1" name="verse"><syllabic>end</syllabic><text>make</text></lyric><lyric number="2" name="verse"><syllabic>end</syllabic><text>us</text></lyric></note><note><pitch><step>A</step><alter>-1</alter><octave>4</octave></pitch><duration>768</duration><tie type="start"/><voice>1</voice><type>quarter</type><notations><tied type="start"/></notations><lyric number="1" name="verse"><syllabic>end</syllabic><text>up</text></lyric><lyric number="2" name="verse"><syllabic>end</syllabic><text>dear</text><extend/></lyric></note></measure><measure number="5"><print new-system="yes"/><attributes><time><beats>2</beats><beat-type>4</beat-type></time></attributes><note><pitch><step>A</step><alter>-1</alter><octave>4</octave></pitch><duration>768</duration><voice>1</voice><type>quarter</type></note><note><rest/><duration>384</duration><voice>1</voice><type>eighth</type></note><note><pitch><step>E</step><alter>-1</alter><octave>4</octave></pitch><duration>384</duration><voice>1</voice><type>eighth</type><beam number="1">end</beam><lyric number="1" name="verse"><syllabic>end</syllabic><text>I</text></lyric><lyric number="2" name="verse"><syllabic>end</syllabic><text>I</text></lyric></note></measure><measure number="6"><attributes><time><beats>4</beats><beat-type>4</beat-type></time></attributes><harmony relative-x="8" default-y="25" print-frame="no"><root><root-step>G</root-step></root><kind text="m7">minor-seventh</kind></harmony><note><pitch><step>F</step><octave>4</octave></pitch><duration>384</duration><voice>1</voice><type>eighth</type><beam number="1">begin</beam><lyric number="1" name="verse"><syllabic>end</syllabic><text>say</text></lyric><lyric number="2" name="verse"><syllabic>end</syllabic><text>say</text></lyric></note><note><pitch><step>F</step><octave>4</octave></pitch><duration>384</duration><voice>1</voice><type>eighth</type><beam number="1">continue</beam><lyric number="1" name="verse"><syllabic>end</syllabic><text>a</text></lyric><lyric number="2" name="verse"><syllabic>end</syllabic><text>a</text></lyric></note><note><pitch><step>F</step><octave>4</octave></pitch><duration>384</duration><voice>1</voice><type>eighth</type><beam number="1">continue</beam><lyric number="1" name="verse"><syllabic>middle</syllabic><text>litt</text></lyric><lyric number="2" name="verse"><syllabic>middle</syllabic><text>litt</text></lyric></note><note><pitch><step>F</step><octave>4</octave></pitch><duration>384</duration><voice>1</voice><type>eighth</type><beam number="1">continue</beam><lyric number="1" name="verse"><syllabic>end</syllabic><text>le</text></lyric><lyric number="2" name="verse"><syllabic>end</syllabic><text>le</text></lyric></note><note><pitch><step>F</step><octave>4</octave></pitch><duration>384</duration><voice>1</voice><type>eighth</type><beam number="1">end</beam><lyric number="1" name="verse"><syllabic>end</syllabic><text>prayer</text></lyric><lyric number="2" name="verse"><syllabic>end</syllabic><text>prayer</text></lyric></note><note><pitch><step>B</step><alter>-1</alter><octave>4</octave></pitch><duration>768</duration><voice>1</voice><type>quarter</type><lyric number="1" name="verse"><syllabic>end</syllabic><text>for</text></lyric><lyric number="2" name="verse"><syllabic>end</syllabic><text>for</text></lyric></note><note><pitch><step>G</step><octave>4</octave></pitch><duration>384</duration><tie type="start"/><voice>1</voice><type>eighth</type><beam number="1">end</beam><notations><tied type="start"/></notations><lyric number="1" name="verse"><syllabic>end</syllabic><text>you</text><extend/></lyric><lyric number="2" name="verse"><syllabic>end</syllabic><text>you</text><extend/></lyric></note></measure><measure number="7"><harmony relative-x="8" default-y="25" print-frame="no"><root><root-step>C</root-step></root><kind text="7">dominant</kind></harmony><note><pitch><step>G</step><octave>4</octave></pitch><duration>3072</duration><voice>1</voice><type>whole</type></note></measure><measure number="8"><harmony relative-x="8" default-y="25" print-frame="no"><root><root-step>F</root-step></root><kind text="m7">minor-seventh</kind></harmony><note><rest/><duration>768</duration><voice>1</voice><type>quarter</type></note><note><pitch><step>A</step><alter>-1</alter><octave>3</octave></pitch><duration>384</duration><voice>1</voice><type>eighth</type><beam number="1">begin</beam><lyric number="1" name="verse"><syllabic>end</syllabic><text>While</text></lyric><lyric number="2" name="verse"><syllabic>end</syllabic><text>At</text></lyric></note><note><pitch><step>A</step><alter>-1</alter><octave>3</octave></pitch><duration>384</duration><tie type="start"/><voice>1</voice><type>eighth</type><beam number="1">continue</beam><notations><tied type="start"/></notations><lyric number="1" name="verse"><syllabic>middle</syllabic><text>comb</text><extend/></lyric><lyric number="2" name="verse"><syllabic>end</syllabic><text>work</text><extend/></lyric></note><note><pitch><step>A</step><alter>-1</alter><octave>3</octave></pitch><duration>384</duration><voice>1</voice><type>eighth</type><beam number="1">begin</beam></note><note><pitch><step>B</step><alter>-1</alter><octave>3</octave></pitch><duration>384</duration><voice>1</voice><type>eighth</type><beam number="1">continue</beam><lyric number="1" name="verse"><syllabic>end</syllabic><text>ing</text></lyric><lyric number="2" name="verse"><syllabic>end</syllabic><text>I</text></lyric></note><note><pitch><step>C</step><octave>4</octave></pitch><duration>768</duration><voice>1</voice><type>quarter</type><lyric number="1" name="verse"><syllabic>end</syllabic><text>my</text></lyric><lyric number="2" name="verse"><syllabic>end</syllabic><text>just</text></lyric></note></measure><measure number="9"><print new-system="yes"/><harmony relative-x="8" default-y="25" print-frame="no"><root><root-step>B</root-step><root-alter>-1</root-alter></root><kind text="m7">minor-seventh</kind></harmony><note><pitch><step>D</step><alter>-1</alter><octave>4</octave></pitch><duration>768</duration><voice>1</voice><type>quarter</type><lyric number="1" name="verse"><syllabic>end</syllabic><text>head</text></lyric><lyric number="2" name="verse"><syllabic>end</syllabic><text>take</text></lyric></note><note><pitch><step>A</step><alter>-1</alter><octave>4</octave></pitch><duration>2304</duration><voice>1</voice><type>half</type><dot/><lyric number="1" name="verse"><syllabic>end</syllabic><text>now</text></lyric><lyric number="2" name="verse"><syllabic>end</syllabic><text>time</text></lyric></note></measure><measure number="10"><note><rest/><duration>768</duration><voice>1</voice><type>quarter</type></note><note><pitch><step>A</step><alter>-1</alter><octave>4</octave></pitch><duration>384</duration><voice>1</voice><type>eighth</type><beam number="1">begin</beam><lyric number="1" name="verse"><syllabic>end</syllabic><text>And</text></lyric><lyric number="2" name="verse"><syllabic>end</syllabic><text>And</text></lyric></note><note><pitch><step>A</step><alter>-1</alter><octave>4</octave></pitch><duration>384</duration><tie type="start"/><voice>1</voice><type>eighth</type><beam number="1">continue</beam><notations><tied type="start"/></notations><lyric number="1" name="verse"><syllabic>middle</syllabic><text>won</text><extend/></lyric><lyric number="2" name="verse"><syllabic>end</syllabic><text>all</text></lyric></note><note><pitch><step>A</step><alter>-1</alter><octave>4</octave></pitch><duration>384</duration><voice>1</voice><type>eighth</type><beam number="1">begin</beam></note><note><pitch><step>B</step><alter>-1</alter><octave>4</octave></pitch><duration>384</duration><voice>1</voice><type>eighth</type><beam number="1">continue</beam><lyric number="1" name="verse"><syllabic>end</syllabic><text>dering</text></lyric><lyric number="2" name="verse"><syllabic>end</syllabic><text>through</text></lyric></note><note><pitch><step>C</step><octave>5</octave></pitch><duration>768</duration><voice>1</voice><type>quarter</type><lyric number="1" name="verse"><syllabic>end</syllabic><text>what</text></lyric><lyric number="2" name="verse"><syllabic>end</syllabic><text>my</text></lyric></note></measure><measure number="11"><harmony relative-x="8" default-y="25" print-frame="no"><root><root-step>E</root-step><root-alter>-1</root-alter></root><kind text="">major</kind></harmony><note><pitch><step>B</step><alter>-1</alter><octave>4</octave></pitch><duration>384</duration><voice>1</voice><type>eighth</type><beam number="1">begin</beam><notations><slur type="start" number="1"/></notations><lyric number="1" name="verse"><syllabic>end</syllabic><text>dress</text><extend/></lyric><lyric number="2" name="verse"><syllabic>middle</syllabic><text>coff</text><extend/></lyric></note><note><pitch><step>A</step><alter>-1</alter><octave>4</octave></pitch><duration>384</duration><voice>1</voice><type>eighth</type><beam number="1">continue</beam><notations><slur type="stop" number="1"/></notations></note><note><pitch><step>F</step><octave>4</octave></pitch><duration>384</duration><voice>1</voice><type>eighth</type><beam number="1">continue</beam><notations><slur type="start" number="1"/></notations><lyric number="1" name="verse"><syllabic>end</syllabic><text>to</text><extend/></lyric><lyric number="2" name="verse"><syllabic>end</syllabic><text>ee</text><extend/></lyric></note><note><pitch><step>E</step><alter>-1</alter><octave>4</octave></pitch><duration>384</duration><voice>1</voice><type>eighth</type><beam number="1">continue</beam><notations><slur type="stop" number="1"/></notations></note><harmony relative-x="8" default-y="25" print-frame="no"><root><root-step>A</root-step><root-alter>-1</root-alter></root><kind text="">major</kind></harmony><note><pitch><step>B</step><alter>-1</alter><octave>4</octave></pitch><duration>768</duration><voice>1</voice><type>quarter</type><lyric number="1" name="verse"><syllabic>end</syllabic><text>wear,</text></lyric><lyric number="2" name="verse"><syllabic>middle</syllabic><text>Break</text></lyric></note><note><pitch><step>A</step><alter>-1</alter><octave>4</octave></pitch><duration>768</duration><tie type="start"/><voice>1</voice><type>quarter</type><notations><tied type="start"/></notations><lyric number="1" name="verse"><syllabic>end</syllabic><text>now,</text></lyric><lyric number="2" name="verse"><syllabic>end</syllabic><text>time</text><extend/></lyric></note></measure><measure number="12"><attributes><time><beats>2</beats><beat-type>4</beat-type></time></attributes><note><pitch><step>A</step><alter>-1</alter><octave>4</octave></pitch><duration>768</duration><voice>1</voice><type>quarter</type></note><note><rest/><duration>384</duration><voice>1</voice><type>eighth</type></note><note><pitch><step>E</step><alter>-1</alter><octave>4</octave></pitch><duration>384</duration><voice>1</voice><type>eighth</type><beam number="1">end</beam><lyric number="1" name="verse"><syllabic>end</syllabic><text>I</text></lyric><lyric number="2" name="verse"><syllabic>end</syllabic><text>I</text></lyric></note></measure><measure number="13"><print new-system="yes"/><attributes><time><beats>4</beats><beat-type>4</beat-type></time></attributes><harmony relative-x="8" default-y="25" print-frame="no"><root><root-step>G</root-step></root><kind text="">major</kind></harmony><note><pitch><step>F</step><octave>4</octave></pitch><duration>384</duration><voice>1</voice><type>eighth</type><beam number="1">begin</beam><lyric number="1" name="verse"><syllabic>end</syllabic><text>say</text></lyric><lyric number="2" name="verse"><syllabic>end</syllabic><text>say</text></lyric></note><note><pitch><step>F</step><octave>4</octave></pitch><duration>384</duration><voice>1</voice><type>eighth</type><beam number="1">continue</beam><lyric number="1" name="verse"><syllabic>end</syllabic><text>a</text></lyric><lyric number="2" name="verse"><syllabic>end</syllabic><text>a</text></lyric></note><note><pitch><step>F</step><octave>4</octave></pitch><duration>384</duration><voice>1</voice><type>eighth</type><beam number="1">continue</beam><lyric number="1" name="verse"><syllabic>middle</syllabic><text>litt</text></lyric><lyric number="2" name="verse"><syllabic>middle</syllabic><text>litt</text></lyric></note><note><pitch><step>F</step><octave>4</octave></pitch><duration>384</duration><voice>1</voice><type>eighth</type><beam number="1">continue</beam><lyric number="1" name="verse"><syllabic>end</syllabic><text>le</text></lyric><lyric number="2" name="verse"><syllabic>end</syllabic><text>le</text></lyric></note><note><pitch><step>F</step><octave>4</octave></pitch><duration>384</duration><voice>1</voice><type>eighth</type><beam number="1">end</beam><lyric number="1" name="verse"><syllabic>end</syllabic><text>prayer</text></lyric><lyric number="2" name="verse"><syllabic>end</syllabic><text>prayer</text></lyric></note><note><pitch><step>B</step><alter>-1</alter><octave>4</octave></pitch><duration>768</duration><voice>1</voice><type>quarter</type><lyric number="1" name="verse"><syllabic>end</syllabic><text>for</text></lyric><lyric number="2" name="verse"><syllabic>end</syllabic><text>for</text></lyric></note><note><pitch><step>G</step><octave>4</octave></pitch><duration>384</duration><tie type="start"/><voice>1</voice><type>eighth</type><beam number="1">end</beam><notations><tied type="start"/></notations><lyric number="1" name="verse"><syllabic>end</syllabic><text>you</text><extend/></lyric><lyric number="2" name="verse"><syllabic>end</syllabic><text>you</text><extend/></lyric></note></measure><measure number="14"><harmony relative-x="8" default-y="25" print-frame="no"><root><root-step>C</root-step></root><kind text="7">dominant</kind></harmony><note><pitch><step>G</step><octave>4</octave></pitch><duration>1536</duration><tie type="start"/><voice>1</voice><type>half</type><notations><tied type="start"/></notations></note><note><pitch><step>G</step><octave>4</octave></pitch><duration>1152</duration><voice>1</voice><type>quarter</type><dot/></note><note><pitch><step>G</step><octave>4</octave></pitch><duration>384</duration><voice>1</voice><type>eighth</type><beam number="1">end</beam><lyric number="1" name="verse"><syllabic>middle</syllabic><text>For</text></lyric></note><barline location="right"><bar-style>light-light</bar-style></barline></measure><measure number="15"><harmony relative-x="8" default-y="25" print-frame="no"><root><root-step>D</root-step><root-alter>-1</root-alter></root><kind text="">major</kind></harmony><note><pitch><step>A</step><alter>-1</alter><octave>4</octave></pitch><duration>384</duration><voice>1</voice><type>eighth</type><beam number="1">end</beam><lyric number="1" name="verse"><syllabic>middle</syllabic><text>e</text></lyric></note><note><pitch><step>A</step><alter>-1</alter><octave>4</octave></pitch><duration>768</duration><voice>1</voice><type>quarter</type><lyric number="1" name="verse"><syllabic>end</syllabic><text>ver,</text></lyric></note><note><pitch><step>A</step><alter>-1</alter><octave>4</octave></pitch><duration>384</duration><voice>1</voice><type>eighth</type><beam number="1">end</beam><lyric number="1" name="verse"><syllabic>middle</syllabic><text>for</text></lyric></note><harmony relative-x="8" default-y="25" print-frame="no"><root><root-step>E</root-step><root-alter>-1</root-alter></root><kind text="">major</kind><bass><bass-step>D</bass-step><bass-alter>-1</bass-alter></bass></harmony><note><pitch><step>B</step><alter>-1</alter><octave>4</octave></pitch><duration>384</duration><voice>1</voice><type>eighth</type><beam number="1">end</beam><lyric number="1" name="verse"><syllabic>middle</syllabic><text>e</text></lyric></note><note><pitch><step>B</step><alter>-1</alter><octave>4</octave></pitch><duration>768</duration><voice>1</voice><type>quarter</type><lyric number="1" name="verse"><syllabic>end</syllabic><text>ver,</text></lyric></note><note><pitch><step>B</step><alter>-1</alter><octave>4</octave></pitch><duration>384</duration><voice>1</voice><type>eighth</type><beam number="1">end</beam><lyric number="1" name="verse"><syllabic>end</syllabic><text>you'll</text></lyric></note></measure><measure number="16"><attributes><time><beats>3</beats><beat-type>4</beat-type></time></attributes><harmony relative-x="8" default-y="25" print-frame="no"><root><root-step>C</root-step></root><kind text="m7">minor-seventh</kind></harmony><note><pitch><step>B</step><alter>-1</alter><octave>4</octave></pitch><duration>384</duration><voice>1</voice><type>eighth</type><beam number="1">begin</beam><lyric number="1" name="verse"><syllabic>end</syllabic><text>stay</text></lyric></note><note><pitch><step>B</step><alter>-1</alter><octave>4</octave></pitch><duration>384</duration><voice>1</voice><type>eighth</type><beam number="1">continue</beam><lyric number="1" name="verse"><syllabic>end</syllabic><text>in</text></lyric></note><note><pitch><step>E</step><alter>-1</alter><octave>5</octave></pitch><duration>384</duration><voice>1</voice><type>eighth</type><beam number="1">continue</beam><lyric number="1" name="verse"><syllabic>end</syllabic><text>my</text></lyric></note><note><pitch><step>C</step><octave>5</octave></pitch><duration>384</duration><tie type="start"/><voice>1</voice><type>eighth</type><beam number="1">continue</beam><notations><tied type="start"/></notations><lyric number="1" name="verse"><syllabic>end</syllabic><text>heart</text><extend/></lyric></note><note><pitch><step>C</step><octave>5</octave></pitch><duration>384</duration><voice>1</voice><type>eighth</type><beam number="1">begin</beam></note><note><pitch><step>B</step><alter>-1</alter><octave>4</octave></pitch><duration>384</duration><voice>1</voice><type>eighth</type><beam number="1">continue</beam><lyric number="1" name="verse"><syllabic>end</syllabic><text>and</text></lyric></note></measure><measure number="17"><print new-system="yes"/><attributes><time><beats>4</beats><beat-type>4</beat-type></time></attributes><harmony relative-x="8" default-y="25" print-frame="no"><root><root-step>A</root-step><root-alter>-1</root-alter></root><kind text="">major</kind></harmony><note><pitch><step>C</step><octave>5</octave></pitch><duration>768</duration><voice>1</voice><type>quarter</type><lyric number="1" name="verse"><syllabic>end</syllabic><text>I</text></lyric></note><note><pitch><step>C</step><octave>5</octave></pitch><duration>768</duration><voice>1</voice><type>quarter</type><lyric number="1" name="verse"><syllabic>end</syllabic><text>will</text></lyric></note><harmony relative-x="8" default-y="25" print-frame="no"><root><root-step>G</root-step><root-alter>-1</root-alter></root><kind text="">major</kind><bass><bass-step>A</bass-step><bass-alter>-1</bass-alter></bass></harmony><note><pitch><step>D</step><alter>-1</alter><octave>5</octave></pitch><duration>384</duration><voice>1</voice><type>eighth</type><beam number="1">begin</beam><lyric number="1" name="verse"><syllabic>end</syllabic><text>love</text></lyric></note><harmony relative-x="8" default-y="25" print-frame="no"><root><root-step>A</root-step><root-alter>-1</root-alter></root><kind text="">major</kind></harmony><note><pitch><step>C</step><octave>5</octave></pitch><duration>384</duration><tie type="start"/><voice>1</voice><type>eighth</type><beam number="1">continue</beam><notations><tied type="start"/></notations><lyric number="1" name="verse"><syllabic>end</syllabic><text>you</text><extend/></lyric></note><note><pitch><step>C</step><octave>5</octave></pitch><duration>384</duration><voice>1</voice><type>eighth</type><beam number="1">continue</beam></note><harmony relative-x="8" default-y="25" print-frame="no"><root><root-step>A</root-step><root-alter>-1</root-alter></root><kind text="9">dominant-ninth</kind></harmony><note><pitch><step>B</step><alter>-1</alter><octave>4</octave></pitch><duration>384</duration><voice>1</voice><type>eighth</type><beam number="1">continue</beam><lyric number="1" name="verse"><syllabic>middle</syllabic><text>For</text></lyric></note></measure><measure number="18"><harmony relative-x="8" default-y="25" print-frame="no"><root><root-step>D</root-step><root-alter>-1</root-alter></root><kind text="">major</kind></harmony><note><pitch><step>A</step><alter>-1</alter><octave>4</octave></pitch><duration>384</duration><voice>1</voice><type>eighth</type><beam number="1">begin</beam><lyric number="1" name="verse"><syllabic>middle</syllabic><text>e</text></lyric></note><note><pitch><step>A</step><alter>-1</alter><octave>4</octave></pitch><duration>768</duration><voice>1</voice><type>quarter</type><lyric number="1" name="verse"><syllabic>end</syllabic><text>ver,</text></lyric></note><note><pitch><step>A</step><alter>-1</alter><octave>4</octave></pitch><duration>384</duration><voice>1</voice><type>eighth</type><beam number="1">continue</beam><lyric number="1" name="verse"><syllabic>middle</syllabic><text>for</text></lyric></note><harmony relative-x="8" default-y="25" print-frame="no"><root><root-step>E</root-step><root-alter>-1</root-alter></root><kind text="">major</kind><bass><bass-step>D</bass-step><bass-alter>-1</bass-alter></bass></harmony><note><pitch><step>B</step><alter>-1</alter><octave>4</octave></pitch><duration>384</duration><voice>1</voice><type>eighth</type><beam number="1">begin</beam><lyric number="1" name="verse"><syllabic>middle</syllabic><text>e</text></lyric></note><note><pitch><step>B</step><alter>-1</alter><octave>4</octave></pitch><duration>768</duration><voice>1</voice><type>quarter</type><lyric number="1" name="verse"><syllabic>end</syllabic><text>ver,</text></lyric></note><note><pitch><step>B</step><alter>-1</alter><octave>4</octave></pitch><duration>384</duration><voice>1</voice><type>eighth</type><beam number="1">continue</beam><lyric number="1" name="verse"><syllabic>end</syllabic><text>we</text></lyric></note></measure><measure number="19"><attributes><time><beats>3</beats><beat-type>4</beat-type></time></attributes><harmony relative-x="8" default-y="25" print-frame="no"><root><root-step>C</root-step></root><kind text="m7">minor-seventh</kind></harmony><note><pitch><step>B</step><alter>-1</alter><octave>4</octave></pitch><duration>384</duration><voice>1</voice><type>eighth</type><beam number="1">begin</beam><lyric number="1" name="verse"><syllabic>middle</syllabic><text>ne</text></lyric></note><note><pitch><step>B</step><alter>-1</alter><octave>4</octave></pitch><duration>384</duration><voice>1</voice><type>eighth</type><beam number="1">continue</beam><lyric number="1" name="verse"><syllabic>end</syllabic><text>ver</text></lyric></note><note><pitch><step>E</step><alter>-1</alter><octave>5</octave></pitch><duration>384</duration><voice>1</voice><type>eighth</type><beam number="1">continue</beam><lyric number="1" name="verse"><syllabic>end</syllabic><text>will</text></lyric></note><note><pitch><step>C</step><octave>5</octave></pitch><duration>384</duration><tie type="start"/><voice>1</voice><type>eighth</type><beam number="1">continue</beam><notations><tied type="start"/></notations><lyric number="1" name="verse"><syllabic>end</syllabic><text>part</text><extend/></lyric></note><note><pitch><step>C</step><octave>5</octave></pitch><duration>384</duration><voice>1</voice><type>eighth</type><beam number="1">begin</beam></note><note><pitch><step>B</step><alter>-1</alter><octave>4</octave></pitch><duration>384</duration><voice>1</voice><type>eighth</type><beam number="1">continue</beam><lyric number="1" name="verse"><syllabic>end</syllabic><text>Oh,</text></lyric></note></measure><measure number="20"><attributes><time><beats>4</beats><beat-type>4</beat-type></time></attributes><harmony relative-x="8" default-y="25" print-frame="no"><root><root-step>G</root-step><root-alter>-1</root-alter></root><kind text="">major</kind></harmony><note><pitch><step>D</step><alter>-1</alter><octave>5</octave></pitch><duration>768</duration><voice>1</voice><type>quarter</type><lyric number="1" name="verse"><syllabic>end</syllabic><text>I</text></lyric></note><harmony relative-x="8" default-y="25" print-frame="no"><root><root-step>A</root-step><root-alter>-1</root-alter></root><kind text="">major</kind></harmony><note><pitch><step>C</step><octave>5</octave></pitch><duration>768</duration><voice>1</voice><type>quarter</type><lyric number="1" name="verse"><syllabic>end</syllabic><text>will</text></lyric></note><harmony relative-x="8" default-y="25" print-frame="no"><root><root-step>A</root-step><root-alter>-1</root-alter></root><kind text="9">dominant-ninth</kind></harmony><note><pitch><step>B</step><alter>-1</alter><octave>4</octave></pitch><duration>384</duration><voice>1</voice><type>eighth</type><beam number="1">end</beam><lyric number="1" name="verse"><syllabic>end</syllabic><text>love</text></lyric></note><harmony relative-x="8" default-y="25" print-frame="no"><root><root-step>A</root-step><root-alter>-1</root-alter></root><kind text="">major</kind></harmony><note><pitch><step>C</step><octave>5</octave></pitch><duration>768</duration><voice>1</voice><type>quarter</type><lyric number="1" name="verse"><syllabic>end</syllabic><text>you</text></lyric></note><note><pitch><step>A</step><alter>-1</alter><octave>4</octave></pitch><duration>384</duration><voice>1</voice><type>eighth</type><beam number="1">end</beam><lyric number="1" name="verse"><syllabic>middle</syllabic><text>To</text></lyric></note></measure><measure number="21"><print new-system="yes"/><harmony relative-x="8" default-y="25" print-frame="no"><root><root-step>D</root-step><root-alter>-1</root-alter></root><kind text="">major</kind></harmony><note><pitch><step>A</step><alter>-1</alter><octave>4</octave></pitch><duration>384</duration><voice>1</voice><type>eighth</type><beam number="1">end</beam><lyric number="1" name="verse"><syllabic>middle</syllabic><text>ge</text></lyric></note><note><pitch><step>A</step><alter>-1</alter><octave>4</octave></pitch><duration>768</duration><voice>1</voice><type>quarter</type><lyric number="1" name="verse"><syllabic>end</syllabic><text>ther,</text></lyric></note><note><pitch><step>A</step><alter>-1</alter><octave>4</octave></pitch><duration>384</duration><voice>1</voice><type>eighth</type><beam number="1">end</beam><lyric number="1" name="verse"><syllabic>middle</syllabic><text>To</text></lyric></note><note><pitch><step>B</step><alter>-1</alter><octave>4</octave></pitch><duration>384</duration><voice>1</voice><type>eighth</type><beam number="1">end</beam><lyric number="1" name="verse"><syllabic>middle</syllabic><text>ge</text></lyric></note><note><pitch><step>B</step><alter>-1</alter><octave>4</octave></pitch><duration>768</duration><voice>1</voice><type>quarter</type><lyric number="1" name="verse"><syllabic>end</syllabic><text>ther,</text></lyric></note><note><pitch><step>B</step><alter>-1</alter><octave>4</octave></pitch><duration>384</duration><voice>1</voice><type>eighth</type><beam number="1">end</beam><lyric number="1" name="verse"><syllabic>end</syllabic><text>that's</text></lyric></note></measure><measure number="22"><attributes><time><beats>3</beats><beat-type>4</beat-type></time></attributes><harmony relative-x="8" default-y="25" print-frame="no"><root><root-step>C</root-step></root><kind text="m7">minor-seventh</kind></harmony><note><pitch><step>B</step><alter>-1</alter><octave>4</octave></pitch><duration>384</duration><voice>1</voice><type>eighth</type><beam number="1">begin</beam><lyric number="1" name="verse"><syllabic>end</syllabic><text>how</text></lyric></note><note><pitch><step>B</step><alter>-1</alter><octave>4</octave></pitch><duration>384</duration><voice>1</voice><type>eighth</type><beam number="1">continue</beam><lyric number="1" name="verse"><syllabic>end</syllabic><text>it</text></lyric></note><note><pitch><step>E</step><alter>-1</alter><octave>5</octave></pitch><duration>384</duration><voice>1</voice><type>eighth</type><beam number="1">continue</beam><lyric number="1" name="verse"><syllabic>end</syllabic><text>must</text></lyric></note><note><pitch><step>C</step><octave>5</octave></pitch><duration>384</duration><tie type="start"/><voice>1</voice><type>eighth</type><beam number="1">continue</beam><notations><tied type="start"/></notations><lyric number="1" name="verse"><syllabic>end</syllabic><text>be</text><extend/></lyric></note><note><pitch><step>C</step><octave>5</octave></pitch><duration>384</duration><voice>1</voice><type>eighth</type><beam number="1">begin</beam></note><note><pitch><step>B</step><alter>-1</alter><octave>4</octave></pitch><duration>384</duration><voice>1</voice><type>eighth</type><beam number="1">continue</beam><lyric number="1" name="verse"><syllabic>end</syllabic><text>To</text></lyric></note></measure><measure number="23"><attributes><time><beats>4</beats><beat-type>4</beat-type></time></attributes><harmony relative-x="8" default-y="25" print-frame="no"><root><root-step>A</root-step><root-alter>-1</root-alter></root><kind text="">major</kind></harmony><note><pitch><step>C</step><octave>5</octave></pitch><duration>768</duration><voice>1</voice><type>quarter</type><lyric number="1" name="verse"><syllabic>end</syllabic><text>live</text></lyric></note><note><pitch><step>C</step><octave>5</octave></pitch><duration>768</duration><voice>1</voice><type>quarter</type><lyric number="1" name="verse"><syllabic>middle</syllabic><text>with</text></lyric></note><harmony relative-x="8" default-y="25" print-frame="no"><root><root-step>G</root-step><root-alter>-1</root-alter></root><kind text="">major</kind><bass><bass-step>A</bass-step><bass-alter>-1</bass-alter></bass></harmony><note><pitch><step>D</step><alter>-1</alter><octave>5</octave></pitch><duration>384</duration><voice>1</voice><type>eighth</type><beam number="1">begin</beam><lyric number="1" name="verse"><syllabic>end</syllabic><text>out</text></lyric></note><harmony relative-x="8" default-y="25" print-frame="no"><root><root-step>A</root-step><root-alter>-1</root-alter></root><kind text="">major</kind></harmony><note><pitch><step>C</step><octave>5</octave></pitch><duration>768</duration><voice>1</voice><type>quarter</type><lyric number="1" name="verse"><syllabic>end</syllabic><text>you</text><extend/></lyric></note><harmony relative-x="8" default-y="25" print-frame="no"><root><root-step>A</root-step><root-alter>-1</root-alter></root><kind text="9">dominant-ninth</kind></harmony><note><pitch><step>B</step><alter>-1</alter><octave>4</octave></pitch><duration>384</duration><voice>1</voice><type>eighth</type><beam number="1">continue</beam><lyric number="1" name="verse"><syllabic>end</syllabic><text>Would</text></lyric></note></measure><measure number="24"><harmony relative-x="8" default-y="25" print-frame="no"><root><root-step>D</root-step><root-alter>-1</root-alter></root><kind text="">major</kind></harmony><note><pitch><step>A</step><alter>-1</alter><octave>4</octave></pitch><duration>384</duration><voice>1</voice><type>eighth</type><beam number="1">begin</beam><lyric number="1" name="verse"><syllabic>middle</syllabic><text>on</text></lyric></note><note><pitch><step>A</step><alter>-1</alter><octave>4</octave></pitch><duration>768</duration><voice>1</voice><type>quarter</type><lyric number="1" name="verse"><syllabic>end</syllabic><text>ly</text></lyric></note><note><pitch><step>A</step><alter>-1</alter><octave>4</octave></pitch><duration>384</duration><voice>1</voice><type>eighth</type><beam number="1">continue</beam><lyric number="1" name="verse"><syllabic>end</syllabic><text>be</text></lyric></note><harmony relative-x="8" default-y="25" print-frame="no"><root><root-step>E</root-step><root-alter>-1</root-alter></root><kind text="">major</kind><bass><bass-step>D</bass-step><bass-alter>-1</bass-alter></bass></harmony><note><pitch><step>B</step><alter>-1</alter><octave>4</octave></pitch><duration>384</duration><voice>1</voice><type>eighth</type><beam number="1">begin</beam><lyric number="1" name="verse"><syllabic>middle</syllabic><text>heart</text></lyric></note><note><pitch><step>A</step><alter>-1</alter><octave>4</octave></pitch><duration>768</duration><voice>1</voice><type>quarter</type><lyric number="1" name="verse"><syllabic>end</syllabic><text>break</text></lyric></note><note><pitch><step>B</step><alter>-1</alter><octave>4</octave></pitch><duration>384</duration><voice>1</voice><type>eighth</type><beam number="1">continue</beam><lyric number="1" name="verse"><syllabic>end</syllabic><text>for</text></lyric></note></measure><measure number="25"><harmony relative-x="8" default-y="25" print-frame="no"><root><root-step>C</root-step></root><kind text="">major</kind></harmony><note><pitch><step>C</step><octave>5</octave></pitch><duration>3072</duration><tie type="start"/><voice>1</voice><type>whole</type><notations><tied type="start"/></notations><lyric number="1" name="verse"><syllabic>end</syllabic><text>me</text><extend/></lyric></note></measure><measure number="26"><note><pitch><step>C</step><octave>5</octave></pitch><duration>1536</duration><voice>1</voice><type>half</type></note><note><rest/><duration>1536</duration><voice>1</voice><type>half</type></note><barline location="right"><bar-style>light-heavy</bar-style><repeat direction="backward"/></barline></measure><measure number="27"><harmony relative-x="8" default-y="25" print-frame="no"><root><root-step>F</root-step></root><kind text="m7">minor-seventh</kind></harmony><note><rest/><duration>1536</duration><voice>1</voice><type>half</type></note><note><pitch><step>A</step><alter>-1</alter><octave>3</octave></pitch><duration>384</duration><voice>1</voice><type>eighth</type><beam number="1">begin</beam></note><note><pitch><step>B</step><alter>-1</alter><octave>3</octave></pitch><duration>384</duration><voice>1</voice><type>eighth</type><beam number="1">continue</beam><lyric number="1" name="verse"><syllabic>end</syllabic><text>ling</text></lyric></note><note><pitch><step>C</step><octave>4</octave></pitch><duration>768</duration><voice>1</voice><type>quarter</type><lyric number="1" name="verse"><syllabic>middle</syllabic><text>be</text></lyric></note></measure><measure number="28"><harmony relative-x="8" default-y="25" print-frame="no"><root><root-step>B</root-step><root-alter>-1</root-alter></root><kind text="m7">minor-seventh</kind></harmony><note><pitch><step>D</step><alter>-1</alter><octave>4</octave></pitch><duration>768</duration><voice>1</voice><type>quarter</type><lyric number="1" name="verse"><syllabic>end</syllabic><text>lieve</text></lyric></note><note><pitch><step>A</step><alter>-1</alter><octave>4</octave></pitch><duration>2304</duration><voice>1</voice><type>half</type><dot/><lyric number="1" name="verse"><syllabic>end</syllabic><text>me,</text></lyric></note></measure><measure number="29"><note><rest/><duration>768</duration><voice>1</voice><type>quarter</type></note><note><pitch><step>A</step><alter>-1</alter><octave>4</octave></pitch><duration>384</duration><voice>1</voice><type>eighth</type><beam number="1">begin</beam><lyric number="1" name="verse"><syllabic>end</syllabic><text>For</text></lyric></note><note><pitch><step>A</step><alter>-1</alter><octave>4</octave></pitch><duration>384</duration><tie type="start"/><voice>1</voice><type>eighth</type><beam number="1">continue</beam><notations><tied type="start"/></notations><lyric number="1" name="verse"><syllabic>end</syllabic><text>me</text><extend/></lyric></note><note><pitch><step>A</step><alter>-1</alter><octave>4</octave></pitch><duration>384</duration><voice>1</voice><type>eighth</type><beam number="1">begin</beam></note><note><pitch><step>B</step><alter>-1</alter><octave>4</octave></pitch><duration>384</duration><voice>1</voice><type>eighth</type><beam number="1">continue</beam><lyric number="1" name="verse"><syllabic>end</syllabic><text>there</text></lyric></note><note><pitch><step>C</step><octave>5</octave></pitch><duration>768</duration><voice>1</voice><type>quarter</type><lyric number="1" name="verse"><syllabic>end</syllabic><text>is</text></lyric></note></measure><measure number="30"><harmony relative-x="8" default-y="25" print-frame="no"><root><root-step>D</root-step><root-alter>-1</root-alter></root><kind text="">major</kind><bass><bass-step>E</bass-step><bass-alter>-1</bass-alter></bass></harmony><note><pitch><step>C</step><octave>5</octave></pitch><duration>768</duration><voice>1</voice><type>quarter</type><lyric number="1" name="verse"><syllabic>end</syllabic><text>no</text></lyric></note><note><pitch><step>D</step><alter>-1</alter><octave>5</octave></pitch><duration>2304</duration><tie type="start"/><voice>1</voice><type>half</type><dot/><notations><tied type="start"/></notations><lyric number="1" name="verse"><syllabic>end</syllabic><text>one</text><extend/></lyric></note></measure><measure number="31"><note><pitch><step>D</step><alter>-1</alter><octave>5</octave></pitch><duration>1536</duration><voice>1</voice><type>half</type></note><note><pitch><step>B</step><alter>-1</alter><octave>4</octave></pitch><duration>1536</duration><voice>1</voice><type>half</type><lyric number="1" name="verse"><syllabic>end</syllabic><text>but</text></lyric></note></measure><measure number="32"><harmony relative-x="8" default-y="25" print-frame="no"><root><root-step>A</root-step><root-alter>-1</root-alter></root><kind text="maj7">major-seventh</kind></harmony><note><pitch><step>C</step><octave>5</octave></pitch><duration>3072</duration><voice>1</voice><type>whole</type><lyric number="1" name="verse"><syllabic>end</syllabic><text>you</text></lyric></note></measure><measure number="33"><harmony relative-x="8" default-y="25" print-frame="no"><root><root-step>E</root-step><root-alter>-1</root-alter></root><kind text="9sus4">suspended-fourth</kind><degree print-object="no"><degree-value>7</degree-value><degree-alter>0</degree-alter><degree-type>add</degree-type></degree><degree print-object="no"><degree-value>9</degree-value><degree-alter>0</degree-alter><degree-type>add</degree-type></degree></harmony><note><rest/><duration>1152</duration><voice>1</voice><type>quarter</type><dot/></note><note><pitch><step>A</step><alter>-1</alter><octave>4</octave></pitch><duration>384</duration><tie type="start"/><voice>1</voice><type>eighth</type><beam number="1">continue</beam><notations><tied type="start"/></notations><lyric number="1" name="verse"><syllabic>end</syllabic><text>Please,</text><extend/></lyric></note><note><pitch><step>A</step><alter>-1</alter><octave>4</octave></pitch><duration>384</duration><voice>1</voice><type>eighth</type><beam number="1">begin</beam></note><note><pitch><step>F</step><octave>4</octave></pitch><duration>768</duration><voice>1</voice><type>quarter</type><lyric number="1" name="verse"><syllabic>end</syllabic><text>love</text></lyric></note><note><pitch><step>B</step><alter>-1</alter><octave>4</octave></pitch><duration>384</duration><voice>1</voice><type>eighth</type><beam number="1">continue</beam><lyric number="1" name="verse"><syllabic>end</syllabic><text>me</text></lyric></note></measure><measure number="34"><harmony relative-x="8" default-y="25" print-frame="no"><root><root-step>A</root-step><root-alter>-1</root-alter></root><kind text="maj7">major-seventh</kind></harmony><note><pitch><step>E</step><alter>-1</alter><octave>4</octave></pitch><duration>3072</duration><tie type="start"/><voice>1</voice><type>whole</type><notations><tied type="start"/></notations><lyric number="1" name="verse"><syllabic>end</syllabic><text>too</text><extend/></lyric></note></measure><measure number="35"><harmony relative-x="8" default-y="25" print-frame="no"><root><root-step>E</root-step><root-alter>-1</root-alter></root><kind text="9sus4">suspended-fourth</kind><degree print-object="no"><degree-value>7</degree-value><degree-alter>0</degree-alter><degree-type>add</degree-type></degree><degree print-object="no"><degree-value>9</degree-value><degree-alter>0</degree-alter><degree-type>add</degree-type></degree></harmony><note><pitch><step>E</step><alter>-1</alter><octave>4</octave></pitch><duration>1152</duration><voice>1</voice><type>quarter</type><dot/></note><note><pitch><step>B</step><alter>-1</alter><octave>4</octave></pitch><duration>384</duration><tie type="start"/><voice>1</voice><type>eighth</type><beam number="1">continue</beam><notations><tied type="start"/></notations><lyric number="1" name="verse"><syllabic>end</syllabic><text>I'm</text><extend/></lyric></note><note><pitch><step>B</step><alter>-1</alter><octave>4</octave></pitch><duration>384</duration><voice>1</voice><type>eighth</type><beam number="1">begin</beam></note><note><pitch><step>A</step><alter>-1</alter><octave>4</octave></pitch><duration>384</duration><voice>1</voice><type>eighth</type><beam number="1">continue</beam><lyric number="1" name="verse"><syllabic>end</syllabic><text>in</text></lyric></note><note><pitch><step>G</step><octave>4</octave></pitch><duration>384</duration><voice>1</voice><type>eighth</type><beam number="1">continue</beam><lyric number="1" name="verse"><syllabic>end</syllabic><text>love</text></lyric></note><note><pitch><step>F</step><octave>4</octave></pitch><duration>384</duration><voice>1</voice><type>eighth</type><beam number="1">continue</beam><lyric number="1" name="verse"><syllabic>end</syllabic><text>with</text></lyric></note></measure><measure number="36"><harmony relative-x="8" default-y="25" print-frame="no"><root><root-step>A</root-step><root-alter>-1</root-alter></root><kind text="maj7">major-seventh</kind></harmony><note><pitch><step>E</step><alter>-1</alter><octave>5</octave></pitch><duration>384</duration><voice>1</voice><type>eighth</type><beam number="1">begin</beam><notations><slur type="start" number="1"/></notations><lyric number="1" name="verse"><syllabic>end</syllabic><text>you</text><extend/></lyric></note><note><pitch><step>C</step><octave>5</octave></pitch><duration>1152</duration><tie type="start"/><voice>1</voice><type>quarter</type><dot/><notations><tied type="start"/><slur type="stop" number="1"/></notations></note><note><pitch><step>C</step><octave>5</octave></pitch><duration>1536</duration><tie type="start"/><voice>1</voice><type>half</type><notations><tied type="start"/></notations></note></measure><measure number="37"><note><pitch><step>C</step><octave>5</octave></pitch><duration>768</duration><voice>1</voice><type>quarter</type></note><harmony relative-x="8" default-y="25" print-frame="no"><root><root-step>E</root-step><root-alter>-1</root-alter></root><kind text="9sus4">suspended-fourth</kind><degree print-object="no"><degree-value>7</degree-value><degree-alter>0</degree-alter><degree-type>add</degree-type></degree><degree print-object="no"><degree-value>9</degree-value><degree-alter>0</degree-alter><degree-type>add</degree-type></degree></harmony><note><rest/><duration>768</duration><voice>1</voice><type>quarter</type></note><note><pitch><step>A</step><alter>-1</alter><octave>4</octave></pitch><duration>512</duration><voice>1</voice><type>quarter</type><time-modification><actual-notes>3</actual-notes><normal-notes>2</normal-notes></time-modification><notations><tuplet type="start"/></notations><lyric number="1" name="verse"><syllabic>end</syllabic><text>Please,</text></lyric></note><note><pitch><step>F</step><octave>4</octave></pitch><duration>512</duration><voice>1</voice><type>quarter</type><time-modification><actual-notes>3</actual-notes><normal-notes>2</normal-notes></time-modification><lyric number="1" name="verse"><syllabic>end</syllabic><text>love</text></lyric></note><note><pitch><step>B</step><alter>-1</alter><octave>4</octave></pitch><duration>512</duration><voice>1</voice><type>quarter</type><time-modification><actual-notes>3</actual-notes><normal-notes>2</normal-notes></time-modification><notations><tuplet type="stop"/></notations><lyric number="1" name="verse"><syllabic>end</syllabic><text>me</text></lyric></note></measure><measure number="38"><harmony relative-x="8" default-y="25" print-frame="no"><root><root-step>A</root-step><root-alter>-1</root-alter></root><kind text="maj7">major-seventh</kind></harmony><note><pitch><step>E</step><alter>-1</alter><octave>4</octave></pitch><duration>3072</duration><tie type="start"/><voice>1</voice><type>whole</type><notations><tied type="start"/></notations><lyric number="1" name="verse"><syllabic>end</syllabic><text>too</text><extend/></lyric></note></measure><measure number="39"><harmony relative-x="8" default-y="25" print-frame="no"><root><root-step>E</root-step><root-alter>-1</root-alter></root><kind text="9sus4">suspended-fourth</kind><degree print-object="no"><degree-value>7</degree-value><degree-alter>0</degree-alter><degree-type>add</degree-type></degree><degree print-object="no"><degree-value>9</degree-value><degree-alter>0</degree-alter><degree-type>add</degree-type></degree></harmony><note><pitch><step>E</step><alter>-1</alter><octave>4</octave></pitch><duration>1536</duration><voice>1</voice><type>half</type></note><note><pitch><step>B</step><alter>-1</alter><octave>4</octave></pitch><duration>384</duration><voice>1</voice><type>eighth</type><beam number="1">begin</beam><lyric number="1" name="verse"><syllabic>end</syllabic><text>I'm</text></lyric></note><note><pitch><step>A</step><alter>-1</alter><octave>4</octave></pitch><duration>384</duration><voice>1</voice><type>eighth</type><beam number="1">continue</beam><lyric number="1" name="verse"><syllabic>end</syllabic><text>in</text></lyric></note><note><pitch><step>A</step><alter>-1</alter><octave>4</octave></pitch><duration>384</duration><voice>1</voice><type>eighth</type><beam number="1">continue</beam><lyric number="1" name="verse"><syllabic>end</syllabic><text>love</text></lyric></note><note><pitch><step>F</step><octave>4</octave></pitch><duration>384</duration><voice>1</voice><type>eighth</type><beam number="1">continue</beam><lyric number="1" name="verse"><syllabic>end</syllabic><text>with</text></lyric></note></measure><measure number="40"><harmony relative-x="8" default-y="25" print-frame="no"><root><root-step>A</root-step><root-alter>-1</root-alter></root><kind text="maj7">major-seventh</kind></harmony><note><pitch><step>E</step><alter>-1</alter><octave>5</octave></pitch><duration>384</duration><voice>1</voice><type>eighth</type><beam number="1">begin</beam><notations><slur type="start" number="1"/></notations><lyric number="1" name="verse"><syllabic>end</syllabic><text>you</text></lyric></note><note><pitch><step>C</step><octave>5</octave></pitch><duration>1152</duration><tie type="start"/><voice>1</voice><type>quarter</type><dot/><notations><tied type="start"/><slur type="stop" number="1"/></notations></note><note><pitch><step>C</step><octave>5</octave></pitch><duration>1536</duration><tie type="start"/><voice>1</voice><type>half</type><notations><tied type="start"/></notations></note></measure><measure number="41"><note><pitch><step>C</step><octave>5</octave></pitch><duration>3072</duration><voice>1</voice><type>whole</type></note><barline location="right"><bar-style>light-heavy</bar-style></barline></measure></part></score-partwise>