<score-partwise version="2.0"><work><work-number/><work-title/></work><movement-number/><movement-title>It's Only A Paper Moon</movement-title><identification><creator type="composer">Rose, Harburg, Arlen</creator><creator type="poet"/><rights>Public Domain</rights><encoding><software>PrintMusic 2008 for Windows</software><software>Dolet Light for PrintMusic 2008</software><encoding-date>2009-08-18</encoding-date><software>ProxyMusic 2.0 c</software></encoding><source>http://www.wikifonia.org/node/2553/revisions/3202/view</source></identification><defaults><scaling><millimeters>7.2319</millimeters><tenths>40</tenths></scaling><page-layout><page-height>1545</page-height><page-width>1194</page-width><page-margins type="both"><left-margin>140</left-margin><right-margin>70</right-margin><top-margin>88</top-margin><bottom-margin>88</bottom-margin></page-margins></page-layout><system-layout><system-margins><left-margin>0</left-margin><right-margin>0</right-margin></system-margins><system-distance>121</system-distance><top-system-distance>70</top-system-distance></system-layout><music-font font-size="20.5" font-family="Jazz"/><word-font font-size="12" font-family="JazzText"/><lyric-font font-size="10.25" font-family="JazzText" name="verse"/></defaults><credit><credit-words font-weight="bold" font-size="24" default-y="1458" default-x="632" justify="center" valign="top">It's Only A Paper Moon</credit-words></credit><credit><credit-words font-weight="bold" font-size="12" default-y="1430" default-x="1124" justify="right" valign="top">Rose, Harburg, Arlen</credit-words></credit><credit><credit-words font-size="10" default-y="61" default-x="632" justify="center" valign="bottom">© Dan Parshall</credit-words></credit><part-list><score-part id="P1"><part-name print-object="no">MusicXML Part</part-name><score-instrument id="P1-I1"><instrument-name>Choir Aahs</instrument-name></score-instrument><midi-instrument id="P1-I1"><midi-channel>1</midi-channel><midi-program>1</midi-program></midi-instrument></score-part></part-list><part id="P1"><measure width="290" number="1"><print><system-layout><top-system-distance>172</top-system-distance></system-layout></print><attributes><divisions>2</divisions><key><fifths>0</fifths><mode>major</mode></key><time symbol="common"><beats>4</beats><beat-type>4</beat-type></time><clef><sign>G</sign><line>2</line></clef></attributes><sound tempo="120"/><harmony font-size="15.4" default-y="23"><root><root-step>C</root-step></root><kind text="6">major-sixth</kind></harmony><note default-x="83"><rest/><duration>1</duration><voice>1</voice><type>eighth</type></note><note default-x="112"><pitch><step>G</step><octave>4</octave></pitch><duration>2</duration><voice>1</voice><type>quarter</type><stem default-y="5.5">up</stem><lyric default-y="-80" number="1"><syllabic>single</syllabic><text>Say</text></lyric></note><note default-x="157"><pitch><step>G</step><octave>4</octave></pitch><duration>1</duration><voice>1</voice><type>eighth</type><stem default-y="5.5">up</stem><lyric default-y="-80" number="1"><syllabic>single</syllabic><text>it's</text></lyric></note><harmony font-size="15.4" default-y="23"><root><root-step>C</root-step><root-alter>1</root-alter></root><kind use-symbols="yes">diminished</kind></harmony><note default-x="188"><pitch><step>G</step><octave>5</octave></pitch><duration>1</duration><voice>1</voice><type>eighth</type><stem default-y="-30">down</stem><lyric default-y="-80" number="1"><syllabic>begin</syllabic><text>on</text></lyric></note><note default-x="216"><pitch><step>G</step><octave>5</octave></pitch><duration>2</duration><voice>1</voice><type>quarter</type><stem default-y="-30">down</stem><lyric default-y="-80" number="1"><syllabic>end</syllabic><text>ly</text></lyric></note><note default-x="261"><pitch><step>G</step><octave>5</octave></pitch><duration>1</duration><voice>1</voice><type>eighth</type><stem default-y="-30">down</stem><lyric default-y="-80" number="1"><syllabic>single</syllabic><text>a</text></lyric></note></measure><measure width="233" number="2"><harmony font-size="15.4" default-y="23"><root><root-step>D</root-step></root><kind use-symbols="yes">minor-seventh</kind></harmony><note default-x="14"><pitch><step>F</step><octave>5</octave></pitch><duration>2</duration><voice>1</voice><type>quarter</type><stem default-y="-35.5">down</stem><lyric default-y="-80" number="1"><syllabic>begin</syllabic><text>pap</text></lyric></note><note default-x="62"><pitch><step>E</step><octave>5</octave></pitch><duration>1</duration><voice>1</voice><type>eighth</type><stem default-y="-40">down</stem><beam number="1">begin</beam><lyric default-y="-80" number="1"><syllabic>end</syllabic><text>er</text></lyric></note><note default-x="103"><pitch><step>D</step><octave>5</octave></pitch><duration>1</duration><tie type="start"/><voice>1</voice><type>eighth</type><stem default-y="-42">down</stem><beam number="1">end</beam><notations><tied type="start"/></notations><lyric justify="left" default-y="-80" number="1"><syllabic>single</syllabic><text>moon,</text><extend/></lyric></note><harmony font-size="15.4" default-y="23"><root><root-step>G</root-step></root><kind text="7">dominant</kind></harmony><note default-x="155"><pitch><step>D</step><octave>5</octave></pitch><duration>4</duration><tie type="stop"/><voice>1</voice><type>half</type><stem default-y="-45">down</stem><notations><tied type="stop"/></notations></note></measure><measure width="218" number="3"><harmony font-size="15.4" default-y="23"><root><root-step>D</root-step></root><kind use-symbols="yes">minor-seventh</kind></harmony><note default-x="11"><rest/><duration>1</duration><voice>1</voice><type>eighth</type></note><note default-x="39"><pitch><step>G</step><octave>4</octave></pitch><duration>2</duration><voice>1</voice><type>quarter</type><stem default-y="5.5">up</stem><lyric default-y="-80" number="1"><syllabic>begin</syllabic><text>sail</text></lyric></note><note default-x="85"><pitch><step>G</step><octave>4</octave></pitch><duration>1</duration><voice>1</voice><type>eighth</type><stem default-y="5.5">up</stem><lyric default-y="-80" number="1"><syllabic>end</syllabic><text>ing</text></lyric></note><harmony font-size="15.4" default-y="23"><root><root-step>G</root-step></root><kind text="7">dominant</kind></harmony><note default-x="114"><pitch><step>F</step><octave>5</octave></pitch><duration>1</duration><voice>1</voice><type>eighth</type><stem default-y="-35.5">down</stem><lyric default-y="-80" number="1"><syllabic>single</syllabic><text>ov</text></lyric></note><note default-x="143"><pitch><step>F</step><octave>5</octave></pitch><duration>2</duration><voice>1</voice><type>quarter</type><stem default-y="-35.5">down</stem><lyric default-y="-80" number="1"><syllabic>single</syllabic><text>er</text></lyric></note><note default-x="189"><pitch><step>F</step><octave>5</octave></pitch><duration>1</duration><voice>1</voice><type>eighth</type><stem default-y="-35.5">down</stem><lyric default-y="-80" number="1"><syllabic>single</syllabic><text>a</text></lyric></note></measure><measure width="242" number="4"><harmony font-size="15.4" default-y="23"><root><root-step>C</root-step></root><kind text="6">major-sixth</kind></harmony><note default-x="20"><pitch><step>E</step><octave>5</octave></pitch><duration>2</duration><voice>1</voice><type>quarter</type><stem default-y="-40.5">down</stem><lyric default-y="-80" number="1"><syllabic>begin</syllabic><text>card</text></lyric></note><note default-x="73"><pitch><step>D</step><octave>5</octave></pitch><duration>1</duration><voice>1</voice><type>eighth</type><stem default-y="-45">down</stem><beam number="1">begin</beam><lyric default-y="-80" number="1"><syllabic>end</syllabic><text>board</text></lyric></note><note default-x="113"><pitch><step>C</step><octave>5</octave></pitch><duration>1</duration><tie type="start"/><voice>1</voice><type>eighth</type><stem default-y="-50">down</stem><beam number="1">end</beam><notations><tied type="start"/></notations><lyric justify="left" default-y="-80" number="1"><syllabic>single</syllabic><text>sea</text><extend/></lyric></note><note default-x="162"><pitch><step>C</step><octave>5</octave></pitch><duration>4</duration><tie type="stop"/><voice>1</voice><type>half</type><stem default-y="-50">down</stem><notations><tied type="stop"/></notations></note></measure><measure width="291" number="5"><print new-system="yes"><system-layout><system-distance>114</system-distance></system-layout></print><harmony font-size="15.4" default-y="23"><root><root-step>C</root-step></root><kind text="7">dominant</kind></harmony><note default-x="50"><rest/><duration>1</duration><voice>1</voice><type>eighth</type></note><note default-x="79"><pitch><step>G</step><octave>4</octave></pitch><duration>2</duration><voice>1</voice><type>quarter</type><stem default-y="5.5">up</stem><lyric default-y="-80" number="1"><syllabic>single</syllabic><text>but</text></lyric></note><note default-x="124"><pitch><step>G</step><octave>4</octave></pitch><duration>1</duration><voice>1</voice><type>eighth</type><stem default-y="5.5">up</stem><lyric default-y="-80" number="1"><syllabic>single</syllabic><text>it</text></lyric></note><note default-x="169"><pitch><step>G</step><octave>5</octave></pitch><duration>1</duration><voice>1</voice><type>eighth</type><stem default-y="-30.5">down</stem><lyric default-y="-80" number="1"><syllabic>begin</syllabic><text>would</text></lyric></note><note default-x="209"><pitch><step>G</step><octave>5</octave></pitch><duration>2</duration><voice>1</voice><type>quarter</type><stem default-y="-30.5">down</stem><lyric default-y="-80" number="1"><syllabic>end</syllabic><text>n't</text></lyric></note><note default-x="259"><pitch><step>G</step><alter>1</alter><octave>5</octave></pitch><duration>1</duration><voice>1</voice><type>eighth</type><accidental>sharp</accidental><stem default-y="-30.5">down</stem><lyric default-y="-80" number="1"><syllabic>single</syllabic><text>be</text></lyric></note></measure><measure width="280" number="6"><harmony font-size="15.4" default-y="23"><root><root-step>F</root-step></root><kind text="6">major-sixth</kind></harmony><note default-x="20"><pitch><step>A</step><octave>5</octave></pitch><duration>2</duration><voice>1</voice><type>quarter</type><stem default-y="-25">down</stem><lyric default-y="-80" number="1"><syllabic>single</syllabic><text>make</text></lyric></note><note default-x="66"><pitch><step>F</step><octave>5</octave></pitch><duration>1</duration><voice>1</voice><type>eighth</type><stem default-y="-40">down</stem><beam number="1">begin</beam><lyric default-y="-80" number="1"><syllabic>begin</syllabic><text>be</text></lyric></note><note default-x="102"><pitch><step>D</step><octave>5</octave></pitch><duration>1</duration><tie type="start"/><voice>1</voice><type>eighth</type><stem default-y="-42">down</stem><beam number="1">end</beam><notations><tied type="start"/></notations><lyric justify="left" default-y="-80" number="1"><syllabic>end</syllabic><text>lieve</text><extend/></lyric></note><harmony font-size="15.4" default-y="23"><root><root-step>F</root-step><root-alter>1</root-alter></root><kind use-symbols="yes">diminished</kind></harmony><note default-x="153"><pitch><step>D</step><octave>5</octave></pitch><duration>2</duration><tie type="stop"/><voice>1</voice><type>quarter</type><stem default-y="-45">down</stem><notations><tied type="stop"/></notations></note><note default-x="199"><pitch><step>C</step><octave>5</octave></pitch><duration>1</duration><voice>1</voice><type>eighth</type><stem default-y="-50">down</stem><beam number="1">begin</beam><lyric default-y="-80" number="1"><syllabic>single</syllabic><text>if</text></lyric></note><note default-x="233"><pitch><step>B</step><octave>4</octave></pitch><duration>1</duration><tie type="start"/><voice>1</voice><type>eighth</type><stem default-y="-55">down</stem><beam number="1">end</beam><notations><tied type="start"/></notations><lyric justify="left" default-y="-80" number="1"><syllabic>single</syllabic><text>you</text><extend/></lyric></note></measure><measure width="270" number="7"><harmony font-size="15.4" default-y="23"><root><root-step>G</root-step></root><kind text="7">dominant</kind></harmony><note default-x="10"><pitch><step>B</step><octave>4</octave></pitch><duration>2</duration><tie type="stop"/><voice>1</voice><type>quarter</type><stem default-y="-55.5">down</stem><notations><tied type="stop"/></notations></note><note default-x="56"><pitch><step>A</step><octave>5</octave></pitch><duration>1</duration><voice>1</voice><type>eighth</type><stem default-y="-20">down</stem><beam number="1">begin</beam><lyric default-y="-80" number="1"><syllabic>begin</syllabic><text>be</text></lyric></note><note default-x="92"><pitch><step>G</step><octave>5</octave></pitch><duration>1</duration><tie type="start"/><voice>1</voice><type>eighth</type><stem default-y="-22">down</stem><beam number="1">end</beam><notations><tied type="start"/></notations><lyric justify="left" default-y="-80" number="1"><syllabic>end</syllabic><text>lieve</text><extend/></lyric></note><note default-x="143"><pitch><step>G</step><octave>5</octave></pitch><duration>2</duration><tie type="stop"/><voice>1</voice><type>quarter</type><stem default-y="-30.5">down</stem><notations><tied type="stop"/></notations></note><note default-x="189"><pitch><step>B</step><octave>4</octave></pitch><duration>1</duration><voice>1</voice><type>eighth</type><stem default-y="-55">down</stem><beam number="1">begin</beam><lyric default-y="-80" number="1"><syllabic>single</syllabic><text>in</text></lyric></note><note default-x="223"><pitch><step>C</step><octave>5</octave></pitch><duration>1</duration><tie type="start"/><voice>1</voice><type>eighth</type><stem default-y="-50">down</stem><beam number="1">end</beam><notations><tied type="start"/></notations><lyric justify="left" default-y="-80" number="1"><syllabic>single</syllabic><text>me.</text><extend/></lyric></note></measure><measure width="143" number="8"><harmony font-size="15.4" default-y="23"><root><root-step>C</root-step></root><kind text="6">major-sixth</kind></harmony><note default-x="10"><pitch><step>C</step><octave>5</octave></pitch><duration>4</duration><tie type="stop"/><voice>1</voice><type>half</type><stem default-y="-50.5">down</stem><notations><tied type="stop"/></notations></note><harmony font-size="15.4" default-y="23"><root><root-step>G</root-step></root><kind text="7">dominant</kind></harmony><note default-x="74"><rest/><duration>4</duration><voice>1</voice><type>half</type></note></measure><measure width="276" number="9"><print new-system="yes"><system-layout><system-distance>114</system-distance></system-layout></print><harmony font-size="15.4" default-y="23"><root><root-step>C</root-step></root><kind text="6">major-sixth</kind></harmony><note default-x="50"><rest/><duration>1</duration><voice>1</voice><type>eighth</type></note><note default-x="81"><pitch><step>G</step><octave>4</octave></pitch><duration>2</duration><voice>1</voice><type>quarter</type><stem default-y="6">up</stem><lyric default-y="-80" number="1"><syllabic>single</syllabic><text>sure</text></lyric></note><note default-x="131"><pitch><step>G</step><octave>4</octave></pitch><duration>1</duration><voice>1</voice><type>eighth</type><stem default-y="6">up</stem><lyric default-y="-80" number="1"><syllabic>single</syllabic><text>it's</text></lyric></note><harmony font-size="15.4" default-y="23"><root><root-step>C</root-step><root-alter>1</root-alter></root><kind use-symbols="yes">diminished</kind></harmony><note default-x="162"><pitch><step>G</step><octave>5</octave></pitch><duration>1</duration><voice>1</voice><type>eighth</type><stem default-y="-30.5">down</stem><lyric default-y="-80" number="1"><syllabic>begin</syllabic><text>on</text></lyric></note><note default-x="193"><pitch><step>G</step><octave>5</octave></pitch><duration>2</duration><voice>1</voice><type>quarter</type><stem default-y="-30.5">down</stem><lyric default-y="-80" number="1"><syllabic>end</syllabic><text>ly</text></lyric></note><note default-x="243"><pitch><step>G</step><octave>5</octave></pitch><duration>1</duration><voice>1</voice><type>eighth</type><stem default-y="-30.5">down</stem><lyric default-y="-80" number="1"><syllabic>single</syllabic><text>a</text></lyric></note></measure><measure width="235" number="10"><harmony font-size="15.4" default-y="23"><root><root-step>D</root-step></root><kind use-symbols="yes">minor-seventh</kind></harmony><note default-x="16"><pitch><step>F</step><octave>5</octave></pitch><duration>2</duration><voice>1</voice><type>quarter</type><stem default-y="-35">down</stem><lyric default-y="-80" number="1"><syllabic>begin</syllabic><text>can</text></lyric></note><note default-x="66"><pitch><step>E</step><octave>5</octave></pitch><duration>1</duration><voice>1</voice><type>eighth</type><stem default-y="-40">down</stem><beam number="1">begin</beam><lyric default-y="-80" number="1"><syllabic>end</syllabic><text>vas</text></lyric></note><note default-x="102"><pitch><step>D</step><octave>5</octave></pitch><duration>1</duration><tie type="start"/><voice>1</voice><type>eighth</type><stem default-y="-42">down</stem><beam number="1">end</beam><notations><tied type="start"/></notations><lyric justify="left" default-y="-80" number="1"><syllabic>single</syllabic><text>sky</text><extend/></lyric></note><harmony font-size="15.4" default-y="23"><root><root-step>G</root-step></root><kind text="7">dominant</kind></harmony><note default-x="153"><pitch><step>D</step><octave>5</octave></pitch><duration>4</duration><tie type="stop"/><voice>1</voice><type>half</type><stem default-y="-45.5">down</stem><notations><tied type="stop"/></notations></note></measure><measure width="228" number="11"><harmony font-size="15.4" default-y="23"><root><root-step>D</root-step></root><kind use-symbols="yes">minor-seventh</kind></harmony><note default-x="11"><rest/><duration>1</duration><voice>1</voice><type>eighth</type></note><note default-x="40"><pitch><step>G</step><octave>4</octave></pitch><duration>2</duration><voice>1</voice><type>quarter</type><stem default-y="6">up</stem><lyric default-y="-80" number="1"><syllabic>begin</syllabic><text>hang</text></lyric></note><note default-x="89"><pitch><step>G</step><octave>4</octave></pitch><duration>1</duration><voice>1</voice><type>eighth</type><stem default-y="6">up</stem><lyric default-y="-80" number="1"><syllabic>end</syllabic><text>ing</text></lyric></note><harmony font-size="15.4" default-y="23"><root><root-step>G</root-step></root><kind text="7">dominant</kind></harmony><note default-x="118"><pitch><step>F</step><octave>5</octave></pitch><duration>1</duration><voice>1</voice><type>eighth</type><stem default-y="-35">down</stem><lyric default-y="-80" number="1"><syllabic>begin</syllabic><text>ov</text></lyric></note><note default-x="149"><pitch><step>F</step><octave>5</octave></pitch><duration>2</duration><voice>1</voice><type>quarter</type><stem default-y="-35">down</stem><lyric default-y="-80" number="1"><syllabic>end</syllabic><text>er</text></lyric></note><note default-x="197"><pitch><step>F</step><octave>5</octave></pitch><duration>1</duration><voice>1</voice><type>eighth</type><stem default-y="-35">down</stem><lyric default-y="-80" number="1"><syllabic>single</syllabic><text>a</text></lyric></note></measure><measure width="244" number="12"><harmony font-size="15.4" default-y="23"><root><root-step>C</root-step></root><kind text="6">major-sixth</kind></harmony><note default-x="18"><pitch><step>E</step><octave>5</octave></pitch><duration>2</duration><voice>1</voice><type>quarter</type><stem default-y="-40">down</stem><lyric default-y="-80" number="1"><syllabic>begin</syllabic><text>mus</text></lyric></note><note default-x="68"><pitch><step>D</step><octave>5</octave></pitch><duration>1</duration><voice>1</voice><type>eighth</type><stem default-y="-45">down</stem><beam number="1">begin</beam><lyric default-y="-80" number="1"><syllabic>end</syllabic><text>lin</text></lyric></note><note default-x="104"><pitch><step>C</step><octave>5</octave></pitch><duration>1</duration><tie type="start"/><voice>1</voice><type>eighth</type><stem default-y="-50">down</stem><beam number="1">end</beam><notations><tied type="start"/></notations><lyric justify="left" default-y="-80" number="1"><syllabic>single</syllabic><text>tree</text><extend/></lyric></note><note default-x="161"><pitch><step>C</step><octave>5</octave></pitch><duration>4</duration><tie type="stop"/><voice>1</voice><type>half</type><stem default-y="-50.5">down</stem><notations><tied type="stop"/></notations></note></measure><measure width="286" number="13"><print new-system="yes"><system-layout><system-distance>114</system-distance></system-layout></print><harmony font-size="15.4" default-y="23"><root><root-step>C</root-step></root><kind text="7">dominant</kind></harmony><note default-x="50"><rest/><duration>1</duration><voice>1</voice><type>eighth</type></note><note default-x="78"><pitch><step>G</step><octave>4</octave></pitch><duration>2</duration><voice>1</voice><type>quarter</type><stem default-y="6">up</stem><lyric default-y="-80" number="1"><syllabic>single</syllabic><text>but</text></lyric></note><note default-x="122"><pitch><step>G</step><octave>4</octave></pitch><duration>1</duration><voice>1</voice><type>eighth</type><stem default-y="6">up</stem><lyric default-y="-80" number="1"><syllabic>single</syllabic><text>it</text></lyric></note><note default-x="166"><pitch><step>G</step><octave>5</octave></pitch><duration>1</duration><voice>1</voice><type>eighth</type><stem default-y="-30">down</stem><lyric default-y="-80" number="1"><syllabic>begin</syllabic><text>would</text></lyric></note><note default-x="206"><pitch><step>G</step><octave>5</octave></pitch><duration>2</duration><voice>1</voice><type>quarter</type><stem default-y="-30">down</stem><lyric default-y="-80" number="1"><syllabic>end</syllabic><text>n't</text></lyric></note><note default-x="255"><pitch><step>G</step><alter>1</alter><octave>5</octave></pitch><duration>1</duration><voice>1</voice><type>eighth</type><accidental>sharp</accidental><stem default-y="-30">down</stem><lyric default-y="-80" number="1"><syllabic>single</syllabic><text>be</text></lyric></note></measure><measure width="277" number="14"><harmony font-size="15.4" default-y="23"><root><root-step>F</root-step></root><kind text="6">major-sixth</kind></harmony><note default-x="20"><pitch><step>A</step><octave>5</octave></pitch><duration>2</duration><voice>1</voice><type>quarter</type><stem default-y="-25.5">down</stem><lyric default-y="-80" number="1"><syllabic>single</syllabic><text>make</text></lyric></note><note default-x="64"><pitch><step>F</step><octave>5</octave></pitch><duration>1</duration><voice>1</voice><type>eighth</type><stem default-y="-40">down</stem><beam number="1">begin</beam><lyric default-y="-80" number="1"><syllabic>begin</syllabic><text>be</text></lyric></note><note default-x="91"><pitch><step>D</step><octave>5</octave></pitch><duration>1</duration><tie type="start"/><voice>1</voice><type>eighth</type><stem default-y="-42.5">down</stem><beam number="1">end</beam><notations><tied type="start"/></notations><lyric justify="left" default-y="-80" number="1"><syllabic>end</syllabic><text>lieve</text><extend/></lyric></note><harmony font-size="15.4" default-y="23"><root><root-step>F</root-step><root-alter>1</root-alter></root><kind use-symbols="yes">diminished</kind></harmony><note default-x="152"><pitch><step>D</step><octave>5</octave></pitch><duration>2</duration><tie type="stop"/><voice>1</voice><type>quarter</type><stem default-y="-45.5">down</stem><notations><tied type="stop"/></notations></note><note default-x="196"><pitch><step>C</step><octave>5</octave></pitch><duration>1</duration><voice>1</voice><type>eighth</type><stem default-y="-50">down</stem><beam number="1">begin</beam><lyric default-y="-80" number="1"><syllabic>single</syllabic><text>if</text></lyric></note><note default-x="224"><pitch><step>B</step><octave>4</octave></pitch><duration>1</duration><tie type="start"/><voice>1</voice><type>eighth</type><stem default-y="-55">down</stem><beam number="1">end</beam><notations><tied type="start"/></notations><lyric justify="left" default-y="-80" number="1"><syllabic>single</syllabic><text>you</text><extend/></lyric></note></measure><measure width="266" number="15"><harmony font-size="15.4" default-y="23"><root><root-step>G</root-step></root><kind text="7">dominant</kind></harmony><note default-x="10"><pitch><step>B</step><octave>4</octave></pitch><duration>2</duration><tie type="stop"/><voice>1</voice><type>quarter</type><stem default-y="-55">down</stem><notations><tied type="stop"/></notations></note><note default-x="54"><pitch><step>A</step><octave>5</octave></pitch><duration>1</duration><voice>1</voice><type>eighth</type><stem default-y="-20">down</stem><beam number="1">begin</beam><lyric default-y="-80" number="1"><syllabic>begin</syllabic><text>be</text></lyric></note><note default-x="81"><pitch><step>G</step><octave>5</octave></pitch><duration>1</duration><tie type="start"/><voice>1</voice><type>eighth</type><stem default-y="-22.5">down</stem><beam number="1">end</beam><notations><tied type="start"/></notations><lyric justify="left" default-y="-80" number="1"><syllabic>end</syllabic><text>lieve</text><extend/></lyric></note><note default-x="142"><pitch><step>G</step><octave>5</octave></pitch><duration>2</duration><tie type="stop"/><voice>1</voice><type>quarter</type><stem default-y="-30">down</stem><notations><tied type="stop"/></notations></note><note default-x="186"><pitch><step>B</step><octave>4</octave></pitch><duration>1</duration><voice>1</voice><type>eighth</type><stem default-y="-55">down</stem><beam number="1">begin</beam><lyric default-y="-80" number="1"><syllabic>single</syllabic><text>in</text></lyric></note><note default-x="215"><pitch><step>C</step><octave>5</octave></pitch><duration>1</duration><tie type="start"/><voice>1</voice><type>eighth</type><stem default-y="-50">down</stem><beam number="1">end</beam><notations><tied type="start"/></notations><lyric justify="left" default-y="-80" number="1"><syllabic>single</syllabic><text>me.</text><extend/></lyric></note></measure><measure width="154" number="16"><harmony font-size="15.4" default-y="23"><root><root-step>C</root-step></root><kind text="6">major-sixth</kind></harmony><note default-x="10"><pitch><step>C</step><octave>5</octave></pitch><duration>4</duration><tie type="stop"/><voice>1</voice><type>half</type><stem default-y="-50">down</stem><notations><tied type="stop"/></notations></note><note default-x="74"><rest/><duration>2</duration><voice>1</voice><type>quarter</type></note><note default-x="114"><pitch><step>C</step><octave>5</octave></pitch><duration>2</duration><voice>1</voice><type>quarter</type><stem default-y="-50">down</stem><lyric default-y="-80" number="1"><syllabic>single</syllabic><text>with</text></lyric></note></measure><measure width="241" number="17"><print new-system="yes"><system-layout><system-distance>114</system-distance></system-layout></print><harmony font-size="15.4" default-y="23"><root><root-step>F</root-step></root><kind text="6">major-sixth</kind></harmony><note default-x="55"><pitch><step>D</step><octave>5</octave></pitch><duration>4</duration><voice>1</voice><type>half</type><stem default-y="-45">down</stem><lyric default-y="-80" number="1"><syllabic>single</syllabic><text>out</text></lyric></note><note default-x="147"><pitch><step>E</step><alter>-1</alter><octave>5</octave></pitch><duration>4</duration><voice>1</voice><type>half</type><accidental>flat</accidental><stem default-y="-40.5">down</stem><lyric default-y="-80" number="1"><syllabic>single</syllabic><text>your</text></lyric></note></measure><measure width="258" number="18"><harmony font-size="15.4" default-y="23"><root><root-step>C</root-step></root><kind use-symbols="yes">major-seventh</kind><bass><bass-step>G</bass-step></bass></harmony><note default-x="22"><pitch><step>E</step><octave>5</octave></pitch><duration>4</duration><voice>1</voice><type>half</type><stem default-y="-40.5">down</stem><lyric default-y="-80" number="1"><syllabic>single</syllabic><text>love,</text></lyric></note><note default-x="121"><rest/><duration>2</duration><voice>1</voice><type>quarter</type></note><note default-x="182"><pitch><step>F</step><octave>5</octave></pitch><duration>1</duration><voice>1</voice><type>eighth</type><stem default-y="-35">down</stem><beam number="1">begin</beam><lyric default-y="-80" number="1"><syllabic>single</syllabic><text>it's</text></lyric></note><note default-x="219"><pitch><step>A</step><octave>5</octave></pitch><duration>1</duration><voice>1</voice><type>eighth</type><stem default-y="-32.5">down</stem><beam number="1">end</beam><lyric default-y="-80" number="1"><syllabic>single</syllabic><text>a</text></lyric></note></measure><measure width="261" number="19"><harmony font-size="15.4" default-y="23"><root><root-step>D</root-step></root><kind use-symbols="yes">minor-seventh</kind></harmony><note default-x="16"><pitch><step>G</step><octave>5</octave></pitch><duration>3</duration><voice>1</voice><type>quarter</type><dot/><stem default-y="-30">down</stem><lyric default-y="-80" number="1"><syllabic>begin</syllabic><text>hon</text></lyric></note><note default-x="99"><pitch><step>G</step><octave>5</octave></pitch><duration>1</duration><voice>1</voice><type>eighth</type><stem default-y="-30">down</stem><lyric default-y="-80" number="1"><syllabic>end</syllabic><text>ky</text></lyric></note><harmony font-size="15.4" default-y="23"><root><root-step>G</root-step></root><kind text="7">dominant</kind></harmony><note default-x="138"><pitch><step>E</step><octave>5</octave></pitch><duration>3</duration><voice>1</voice><type>quarter</type><dot/><stem default-y="-40.5">down</stem><lyric default-y="-80" number="1"><syllabic>single</syllabic><text>tonk</text></lyric></note><note default-x="221"><pitch><step>E</step><octave>5</octave></pitch><duration>1</duration><voice>1</voice><type>eighth</type><stem default-y="-40.5">down</stem><lyric default-y="-80" number="1"><syllabic>begin</syllabic><text>par</text></lyric></note></measure><measure width="223" number="20"><harmony font-size="15.4" default-y="23"><root><root-step>C</root-step></root><kind text="">major</kind></harmony><note default-x="15"><pitch><step>C</step><octave>5</octave></pitch><duration>4</duration><voice>1</voice><type>half</type><stem default-y="-50">down</stem><lyric default-y="-80" number="1"><syllabic>end</syllabic><text>ade</text></lyric></note><note default-x="108"><rest/><duration>2</duration><voice>1</voice><type>quarter</type></note><harmony font-size="15.4" default-y="23"><root><root-step>C</root-step></root><kind text="7">dominant</kind></harmony><note default-x="164"><pitch><step>C</step><octave>5</octave></pitch><duration>2</duration><voice>1</voice><type>quarter</type><stem default-y="-50">down</stem><lyric default-y="-80" number="1"><syllabic>single</syllabic><text>with</text></lyric></note></measure><measure width="223" number="21"><print new-system="yes"><system-layout><system-distance>114</system-distance></system-layout></print><harmony font-size="15.4" default-y="23"><root><root-step>F</root-step></root><kind text="6">major-sixth</kind></harmony><note default-x="55"><pitch><step>D</step><octave>5</octave></pitch><duration>4</duration><voice>1</voice><type>half</type><stem default-y="-45">down</stem><lyric default-y="-80" number="1"><syllabic>single</syllabic><text>out</text></lyric></note><note default-x="138"><pitch><step>E</step><alter>-1</alter><octave>5</octave></pitch><duration>4</duration><voice>1</voice><type>half</type><accidental>flat</accidental><stem default-y="-40">down</stem><lyric default-y="-80" number="1"><syllabic>single</syllabic><text>your</text></lyric></note></measure><measure width="235" number="22"><harmony font-size="15.4" default-y="23"><root><root-step>C</root-step></root><kind use-symbols="yes">major-seventh</kind><bass><bass-step>G</bass-step></bass></harmony><note default-x="22"><pitch><step>E</step><octave>5</octave></pitch><duration>4</duration><voice>1</voice><type>half</type><stem default-y="-40">down</stem><lyric default-y="-80" number="1"><syllabic>single</syllabic><text>love,</text></lyric></note><note default-x="111"><rest/><duration>2</duration><voice>1</voice><type>quarter</type></note><note default-x="165"><pitch><step>D</step><alter>1</alter><octave>5</octave></pitch><duration>1</duration><voice>1</voice><type>eighth</type><accidental>sharp</accidental><stem default-y="-45">down</stem><beam number="1">begin</beam><lyric default-y="-80" number="1"><syllabic>single</syllabic><text>it's</text></lyric></note><note default-x="199"><pitch><step>E</step><octave>5</octave></pitch><duration>1</duration><voice>1</voice><type>eighth</type><stem default-y="-40">down</stem><beam number="1">end</beam><lyric default-y="-80" number="1"><syllabic>single</syllabic><text>a</text></lyric></note></measure><measure width="297" number="23"><harmony font-size="15.4" default-y="23"><root><root-step>E</root-step></root><kind use-symbols="yes">minor-seventh</kind></harmony><note default-x="17"><pitch><step>G</step><octave>5</octave></pitch><duration>1</duration><voice>1</voice><type>eighth</type><stem default-y="-30">down</stem><beam number="1">begin</beam><lyric default-y="-80" number="1"><syllabic>begin</syllabic><text>mel</text></lyric></note><note default-x="56"><pitch><step>G</step><octave>5</octave></pitch><duration>1</duration><voice>1</voice><type>eighth</type><stem default-y="-30">down</stem><beam number="1">end</beam><lyric default-y="-80" number="1"><syllabic>middle</syllabic><text>o</text></lyric></note><note default-x="94"><pitch><step>G</step><octave>5</octave></pitch><duration>2</duration><voice>1</voice><type>quarter</type><stem default-y="-30.5">down</stem><lyric default-y="-80" number="1"><syllabic>end</syllabic><text>dy</text></lyric></note><harmony font-size="15.4" default-y="23"><root><root-step>A</root-step></root><kind text="7">dominant</kind></harmony><note default-x="156"><pitch><step>G</step><octave>5</octave></pitch><duration>2</duration><voice>1</voice><type>quarter</type><stem default-y="-30.5">down</stem><lyric default-y="-80" number="1"><syllabic>single</syllabic><text>played</text></lyric></note><note default-x="218"><pitch><step>D</step><alter>1</alter><octave>5</octave></pitch><duration>1</duration><voice>1</voice><type>eighth</type><accidental>sharp</accidental><stem default-y="-45">down</stem><beam number="1">begin</beam><lyric default-y="-80" number="1"><syllabic>single</syllabic><text>in</text></lyric></note><note default-x="257"><pitch><step>E</step><octave>5</octave></pitch><duration>1</duration><voice>1</voice><type>eighth</type><stem default-y="-40">down</stem><beam number="1">end</beam><lyric default-y="-80" number="1"><syllabic>single</syllabic><text>a</text></lyric></note></measure><measure width="229" number="24"><harmony font-size="15.4" default-y="23"><root><root-step>D</root-step></root><kind text="9">dominant-ninth</kind></harmony><note default-x="15"><pitch><step>A</step><octave>5</octave></pitch><duration>1</duration><voice>1</voice><type>eighth</type><stem default-y="-25">down</stem><beam number="1">begin</beam><lyric default-y="-80" number="1"><syllabic>begin</syllabic><text>pen</text></lyric></note><note default-x="49"><pitch><step>A</step><octave>5</octave></pitch><duration>1</duration><voice>1</voice><type>eighth</type><stem default-y="-25">down</stem><beam number="1">end</beam><lyric default-y="-80" number="1"><syllabic>end</syllabic><text>ny</text></lyric></note><note default-x="83"><pitch><step>A</step><octave>5</octave></pitch><duration>2</duration><voice>1</voice><type>quarter</type><stem default-y="-25">down</stem><lyric default-y="-80" number="1"><syllabic>begin</syllabic><text>ar</text></lyric></note><harmony font-size="15.4" default-y="23"><root><root-step>G</root-step></root><kind text="7">dominant</kind></harmony><note default-x="138"><pitch><step>A</step><octave>5</octave></pitch><duration>4</duration><voice>1</voice><type>half</type><stem default-y="-25">down</stem><lyric default-y="-80" number="1"><syllabic>end</syllabic><text>cade</text></lyric></note></measure><measure width="286" number="25"><print new-system="yes"><system-layout><system-distance>114</system-distance></system-layout></print><harmony font-size="15.4" default-y="23"><root><root-step>C</root-step></root><kind text="6">major-sixth</kind></harmony><note default-x="50"><rest/><duration>1</duration><voice>1</voice><type>eighth</type></note><note default-x="80"><pitch><step>G</step><octave>4</octave></pitch><duration>2</duration><voice>1</voice><type>quarter</type><stem default-y="6">up</stem><lyric default-y="-80" number="1"><syllabic>single</syllabic><text>It'l</text></lyric></note><note default-x="128"><pitch><step>G</step><octave>4</octave></pitch><duration>1</duration><voice>1</voice><type>eighth</type><stem default-y="6">up</stem><lyric default-y="-80" number="1"><syllabic>single</syllabic><text>a</text></lyric></note><harmony font-size="15.4" default-y="23"><root><root-step>C</root-step><root-alter>1</root-alter></root><kind use-symbols="yes">diminished</kind></harmony><note default-x="167"><pitch><step>G</step><octave>5</octave></pitch><duration>1</duration><voice>1</voice><type>eighth</type><stem default-y="-30.5">down</stem><lyric default-y="-80" number="1"><syllabic>begin</syllabic><text>Barn</text></lyric></note><note default-x="202"><pitch><step>G</step><octave>5</octave></pitch><duration>2</duration><voice>1</voice><type>quarter</type><stem default-y="-30.5">down</stem><lyric default-y="-80" number="1"><syllabic>end</syllabic><text>um</text></lyric></note><note default-x="250"><pitch><step>G</step><octave>5</octave></pitch><duration>1</duration><voice>1</voice><type>eighth</type><stem default-y="-30.5">down</stem><lyric default-y="-80" number="1"><syllabic>single</syllabic><text>and</text></lyric></note></measure><measure width="253" number="26"><harmony font-size="15.4" default-y="23"><root><root-step>D</root-step></root><kind use-symbols="yes">minor-seventh</kind></harmony><note default-x="19"><pitch><step>F</step><octave>5</octave></pitch><duration>2</duration><voice>1</voice><type>quarter</type><stem default-y="-35">down</stem><lyric default-y="-80" number="1"><syllabic>begin</syllabic><text>Bail</text></lyric></note><note default-x="67"><pitch><step>E</step><octave>5</octave></pitch><duration>1</duration><voice>1</voice><type>eighth</type><stem default-y="-40">down</stem><beam number="1">begin</beam><lyric default-y="-80" number="1"><syllabic>end</syllabic><text>ey</text></lyric></note><note default-x="99"><pitch><step>D</step><octave>5</octave></pitch><duration>1</duration><tie type="start"/><voice>1</voice><type>eighth</type><stem default-y="-42">down</stem><beam number="1">end</beam><notations><tied type="start"/></notations><lyric justify="left" default-y="-80" number="1"><syllabic>single</syllabic><text>world,</text><extend/></lyric></note><harmony font-size="15.4" default-y="23"><root><root-step>G</root-step></root><kind text="7">dominant</kind></harmony><note default-x="175"><pitch><step>D</step><octave>5</octave></pitch><duration>4</duration><tie type="stop"/><voice>1</voice><type>half</type><stem default-y="-45.5">down</stem><notations><tied type="stop"/></notations></note></measure><measure width="238" number="27"><harmony font-size="15.4" default-y="23"><root><root-step>D</root-step></root><kind use-symbols="yes">minor-seventh</kind></harmony><note default-x="11"><rest/><duration>1</duration><voice>1</voice><type>eighth</type></note><note default-x="43"><pitch><step>G</step><octave>4</octave></pitch><duration>2</duration><voice>1</voice><type>quarter</type><stem default-y="6">up</stem><lyric default-y="-80" number="1"><syllabic>single</syllabic><text>just</text></lyric></note><note default-x="89"><pitch><step>G</step><octave>4</octave></pitch><duration>1</duration><voice>1</voice><type>eighth</type><stem default-y="6">up</stem><lyric default-y="-80" number="1"><syllabic>single</syllabic><text>as</text></lyric></note><harmony font-size="15.4" default-y="23"><root><root-step>G</root-step></root><kind text="7">dominant</kind></harmony><note default-x="127"><pitch><step>F</step><octave>5</octave></pitch><duration>1</duration><voice>1</voice><type>eighth</type><stem default-y="-35">down</stem><lyric default-y="-80" number="1"><syllabic>begin</syllabic><text>phon</text></lyric></note><note default-x="159"><pitch><step>F</step><octave>5</octave></pitch><duration>2</duration><voice>1</voice><type>quarter</type><stem default-y="-35">down</stem><lyric default-y="-80" number="1"><syllabic>end</syllabic><text>y</text></lyric></note><note default-x="206"><pitch><step>F</step><octave>5</octave></pitch><duration>1</duration><voice>1</voice><type>eighth</type><stem default-y="-35">down</stem><lyric default-y="-80" number="1"><syllabic>single</syllabic><text>as</text></lyric></note></measure><measure width="206" number="28"><harmony font-size="15.4" default-y="23"><root><root-step>C</root-step></root><kind text="6">major-sixth</kind></harmony><note default-x="11"><pitch><step>E</step><octave>5</octave></pitch><duration>2</duration><voice>1</voice><type>quarter</type><stem default-y="-40">down</stem><lyric default-y="-80" number="1"><syllabic>single</syllabic><text>it</text></lyric></note><note default-x="56"><pitch><step>D</step><octave>5</octave></pitch><duration>1</duration><voice>1</voice><type>eighth</type><stem default-y="-45">down</stem><beam number="1">begin</beam><lyric default-y="-80" number="1"><syllabic>single</syllabic><text>can</text></lyric></note><note default-x="90"><pitch><step>C</step><octave>5</octave></pitch><duration>1</duration><tie type="start"/><voice>1</voice><type>eighth</type><stem default-y="-50">down</stem><beam number="1">end</beam><notations><tied type="start"/></notations><lyric justify="left" default-y="-80" number="1"><syllabic>single</syllabic><text>be</text><extend/></lyric></note><note default-x="131"><pitch><step>C</step><octave>5</octave></pitch><duration>4</duration><tie type="stop"/><voice>1</voice><type>half</type><stem default-y="-50.5">down</stem><notations><tied type="stop"/></notations></note></measure><measure width="286" number="29"><print new-system="yes"><system-layout><system-distance>114</system-distance></system-layout></print><harmony font-size="15.4" default-y="23"><root><root-step>C</root-step></root><kind text="7">dominant</kind></harmony><note default-x="50"><rest/><duration>1</duration><voice>1</voice><type>eighth</type></note><note default-x="78"><pitch><step>G</step><octave>4</octave></pitch><duration>2</duration><voice>1</voice><type>quarter</type><stem default-y="6">up</stem><lyric default-y="-80" number="1"><syllabic>single</syllabic><text>but</text></lyric></note><note default-x="122"><pitch><step>G</step><octave>4</octave></pitch><duration>1</duration><voice>1</voice><type>eighth</type><stem default-y="6">up</stem><lyric default-y="-80" number="1"><syllabic>single</syllabic><text>it</text></lyric></note><note default-x="166"><pitch><step>G</step><octave>5</octave></pitch><duration>1</duration><voice>1</voice><type>eighth</type><stem default-y="-30">down</stem><lyric default-y="-80" number="1"><syllabic>begin</syllabic><text>would</text></lyric></note><note default-x="206"><pitch><step>G</step><octave>5</octave></pitch><duration>2</duration><voice>1</voice><type>quarter</type><stem default-y="-30">down</stem><lyric default-y="-80" number="1"><syllabic>end</syllabic><text>n't</text></lyric></note><note default-x="255"><pitch><step>G</step><alter>1</alter><octave>5</octave></pitch><duration>1</duration><voice>1</voice><type>eighth</type><accidental>sharp</accidental><stem default-y="-30">down</stem><lyric default-y="-80" number="1"><syllabic>single</syllabic><text>be</text></lyric></note></measure><measure width="277" number="30"><harmony font-size="15.4" default-y="23"><root><root-step>F</root-step></root><kind text="6">major-sixth</kind></harmony><note default-x="20"><pitch><step>A</step><octave>5</octave></pitch><duration>2</duration><voice>1</voice><type>quarter</type><stem default-y="-25.5">down</stem><lyric default-y="-80" number="1"><syllabic>single</syllabic><text>make</text></lyric></note><note default-x="64"><pitch><step>F</step><octave>5</octave></pitch><duration>1</duration><voice>1</voice><type>eighth</type><stem default-y="-40">down</stem><beam number="1">begin</beam><lyric default-y="-80" number="1"><syllabic>begin</syllabic><text>be</text></lyric></note><note default-x="91"><pitch><step>D</step><octave>5</octave></pitch><duration>1</duration><tie type="start"/><voice>1</voice><type>eighth</type><stem default-y="-42.5">down</stem><beam number="1">end</beam><notations><tied type="start"/></notations><lyric justify="left" default-y="-80" number="1"><syllabic>end</syllabic><text>lieve</text><extend/></lyric></note><harmony font-size="15.4" default-y="23"><root><root-step>F</root-step><root-alter>1</root-alter></root><kind use-symbols="yes">diminished</kind></harmony><note default-x="152"><pitch><step>D</step><octave>5</octave></pitch><duration>2</duration><tie type="stop"/><voice>1</voice><type>quarter</type><stem default-y="-45.5">down</stem><notations><tied type="stop"/></notations></note><note default-x="196"><pitch><step>C</step><octave>5</octave></pitch><duration>1</duration><voice>1</voice><type>eighth</type><stem default-y="-50">down</stem><beam number="1">begin</beam><lyric default-y="-80" number="1"><syllabic>single</syllabic><text>if</text></lyric></note><note default-x="224"><pitch><step>B</step><octave>4</octave></pitch><duration>1</duration><tie type="start"/><voice>1</voice><type>eighth</type><stem default-y="-55">down</stem><beam number="1">end</beam><notations><tied type="start"/></notations><lyric justify="left" default-y="-80" number="1"><syllabic>single</syllabic><text>you</text><extend/></lyric></note></measure><measure width="266" number="31"><harmony font-size="15.4" default-y="23"><root><root-step>G</root-step></root><kind text="7">dominant</kind></harmony><note default-x="10"><pitch><step>B</step><octave>4</octave></pitch><duration>2</duration><tie type="stop"/><voice>1</voice><type>quarter</type><stem default-y="-55">down</stem><notations><tied type="stop"/></notations></note><note default-x="54"><pitch><step>A</step><octave>5</octave></pitch><duration>1</duration><voice>1</voice><type>eighth</type><stem default-y="-20">down</stem><beam number="1">begin</beam><lyric default-y="-80" number="1"><syllabic>begin</syllabic><text>be</text></lyric></note><note default-x="81"><pitch><step>G</step><octave>5</octave></pitch><duration>1</duration><tie type="start"/><voice>1</voice><type>eighth</type><stem default-y="-22.5">down</stem><beam number="1">end</beam><notations><tied type="start"/></notations><lyric justify="left" default-y="-80" number="1"><syllabic>end</syllabic><text>lieve</text><extend/></lyric></note><note default-x="142"><pitch><step>G</step><octave>5</octave></pitch><duration>2</duration><tie type="stop"/><voice>1</voice><type>quarter</type><stem default-y="-30">down</stem><notations><tied type="stop"/></notations></note><note default-x="186"><pitch><step>B</step><octave>4</octave></pitch><duration>1</duration><voice>1</voice><type>eighth</type><stem default-y="-55">down</stem><beam number="1">begin</beam><lyric default-y="-80" number="1"><syllabic>single</syllabic><text>in</text></lyric></note><note default-x="215"><pitch><step>C</step><octave>5</octave></pitch><duration>1</duration><tie type="start"/><voice>1</voice><type>eighth</type><stem default-y="-50">down</stem><beam number="1">end</beam><notations><tied type="start"/></notations><lyric justify="left" default-y="-80" number="1"><syllabic>single</syllabic><text>me.</text><extend/></lyric></note></measure><measure width="154" number="32"><harmony font-size="15.4" default-y="23"><root><root-step>C</root-step></root><kind text="6">major-sixth</kind></harmony><note default-x="10"><pitch><step>C</step><octave>5</octave></pitch><duration>4</duration><tie type="stop"/><voice>1</voice><type>half</type><stem default-y="-50">down</stem><notations><tied type="stop"/></notations></note><note default-x="71"><rest/><duration>2</duration><voice>1</voice><type>quarter</type></note><note default-x="108"><rest/><duration>2</duration><voice>1</voice><type>quarter</type></note><barline location="right"><bar-style>light-heavy</bar-style></barline></measure></part></score-partwise>