<score-partwise version="2.0"><work><work-number/><work-title/></work><movement-number/><movement-title>Aquarius</movement-title><identification><creator type="composer">Hair</creator><creator type="poet"/><rights>All Rights Reserved</rights><encoding><software>Sibelius 4.0</software><software>Dolet 3.2 for Sibelius</software><supports type="no" element="accidental"/><supports type="no" element="transpose"/><software>ProxyMusic 2.0 c</software></encoding><source>http://wikifonia.org/node/272/revisions/319/view</source></identification><defaults><scaling><millimeters>7</millimeters><tenths>40</tenths></scaling><page-layout><page-height>1597</page-height><page-width>1234</page-width></page-layout></defaults><part-list><score-part id="P1"><part-name print-object="no">[Alto Saxophone]</part-name><score-instrument id="P1-I1"><instrument-name>[Alto Saxophone]</instrument-name></score-instrument><midi-instrument id="P1-I1"><midi-channel>1</midi-channel><midi-program>66</midi-program></midi-instrument></score-part></part-list><part id="P1"><measure number="1"><attributes><divisions>768</divisions><key><fifths>0</fifths><mode>major</mode></key><time><beats>4</beats><beat-type>4</beat-type></time><clef><sign>G</sign><line>2</line></clef></attributes><note><rest/><duration>1536</duration><voice>1</voice><type>half</type></note><note><pitch><step>A</step><octave>4</octave></pitch><duration>768</duration><voice>1</voice><type>quarter</type><lyric number="1" name="verse"><syllabic>end</syllabic><text>When</text></lyric></note><note><pitch><step>B</step><octave>4</octave></pitch><duration>768</duration><voice>1</voice><type>quarter</type><lyric number="1" name="verse"><syllabic>end</syllabic><text>the</text></lyric></note><direction placement="above"><direction-type><segno/></direction-type><offset>-3</offset></direction><barline location="right"><bar-style>light-light</bar-style></barline></measure><measure number="2"><harmony default-y="25" print-frame="no"><root><root-step>D</root-step></root><kind text="m9">minor-ninth</kind><offset>741</offset></harmony><note><pitch><step>C</step><octave>5</octave></pitch><duration>3072</duration><tie type="start"/><voice>1</voice><type>whole</type><notations><tied type="start"/></notations><lyric number="1" name="verse"><syllabic>end</syllabic><text>moon</text><extend/></lyric></note></measure><measure number="3"><harmony relative-x="8" default-y="25" print-frame="no"><root><root-step>G</root-step></root><kind text="7">dominant</kind></harmony><note><pitch><step>C</step><octave>5</octave></pitch><duration>768</duration><voice>1</voice><type>quarter</type></note><note><pitch><step>D</step><octave>5</octave></pitch><duration>768</duration><voice>1</voice><type>quarter</type><lyric number="1" name="verse"><syllabic>end</syllabic><text>is</text></lyric></note><note><pitch><step>C</step><octave>5</octave></pitch><duration>768</duration><voice>1</voice><type>quarter</type><lyric number="1" name="verse"><syllabic>end</syllabic><text>in</text></lyric></note><note><pitch><step>B</step><octave>4</octave></pitch><duration>384</duration><voice>1</voice><type>eighth</type><beam number="1">begin</beam><lyric number="1" name="verse"><syllabic>end</syllabic><text>the</text></lyric></note><note><pitch><step>A</step><octave>4</octave></pitch><duration>384</duration><tie type="start"/><voice>1</voice><type>eighth</type><beam number="1">continue</beam><notations><tied type="start"/></notations><lyric number="1" name="verse"><syllabic>end</syllabic><text>Seventh</text><extend/></lyric></note></measure><measure number="4"><harmony relative-x="-2" default-y="23" print-frame="no"><root><root-step>A</root-step></root><kind text="m">minor</kind></harmony><note><pitch><step>A</step><octave>4</octave></pitch><duration>384</duration><voice>1</voice><type>eighth</type><beam number="1">begin</beam></note><note><pitch><step>G</step><octave>4</octave></pitch><duration>768</duration><voice>1</voice><type>quarter</type></note><note><pitch><step>A</step><octave>4</octave></pitch><duration>384</duration><tie type="start"/><voice>1</voice><type>eighth</type><beam number="1">continue</beam><notations><tied type="start"/></notations><lyric number="1" name="verse"><syllabic>end</syllabic><text>House</text><extend/></lyric></note><note><pitch><step>A</step><octave>4</octave></pitch><duration>1536</duration><tie type="start"/><voice>1</voice><type>half</type><notations><tied type="start"/></notations></note></measure><measure number="5"><print new-system="yes"/><note><pitch><step>A</step><octave>4</octave></pitch><duration>2304</duration><voice>1</voice><type>half</type><dot/></note><note><pitch><step>G</step><octave>4</octave></pitch><duration>768</duration><voice>1</voice><type>quarter</type><lyric number="1" name="verse"><syllabic>end</syllabic><text>And</text></lyric></note></measure><measure number="6"><harmony relative-x="1" default-y="25" print-frame="no"><root><root-step>D</root-step></root><kind text="m9">minor-ninth</kind></harmony><note><pitch><step>A</step><octave>4</octave></pitch><duration>384</duration><voice>1</voice><type>eighth</type><beam number="1">begin</beam><lyric number="1" name="verse"><syllabic>end</syllabic><text>Jupiter</text><extend/></lyric></note><note><pitch><step>B</step><octave>4</octave></pitch><duration>768</duration><voice>1</voice><type>quarter</type></note><note><pitch><step>B</step><octave>4</octave></pitch><duration>384</duration><tie type="start"/><voice>1</voice><type>eighth</type><beam number="1">continue</beam><notations><tied type="start"/></notations></note><note><pitch><step>B</step><octave>4</octave></pitch><duration>1536</duration><tie type="start"/><voice>1</voice><type>half</type><notations><tied type="start"/></notations></note></measure><measure number="7"><harmony relative-x="-2" default-y="25" print-frame="no"><root><root-step>G</root-step></root><kind text="7">dominant</kind></harmony><note><pitch><step>B</step><octave>4</octave></pitch><duration>768</duration><voice>1</voice><type>quarter</type></note><note><pitch><step>A</step><octave>4</octave></pitch><duration>768</duration><voice>1</voice><type>quarter</type><lyric number="1" name="verse"><syllabic>end</syllabic><text>aligns</text><extend/></lyric></note><note><pitch><step>A</step><octave>4</octave></pitch><duration>384</duration><voice>1</voice><type>eighth</type><beam number="1">begin</beam></note><note><pitch><step>G</step><octave>4</octave></pitch><duration>768</duration><voice>1</voice><type>quarter</type><lyric number="1" name="verse"><syllabic>end</syllabic><text>with</text><extend/></lyric></note><note><pitch><step>G</step><octave>4</octave></pitch><duration>384</duration><voice>1</voice><type>eighth</type><beam number="1">continue</beam></note></measure><measure number="8"><harmony relative-x="6" default-y="23" print-frame="no"><root><root-step>A</root-step></root><kind text="m">minor</kind></harmony><note><pitch><step>A</step><octave>4</octave></pitch><duration>3072</duration><tie type="start"/><voice>1</voice><type>whole</type><notations><tied type="start"/></notations><lyric number="1" name="verse"><syllabic>end</syllabic><text>Mars</text><extend/></lyric></note></measure><measure number="9"><print new-system="yes"/><note><pitch><step>A</step><octave>4</octave></pitch><duration>2304</duration><voice>1</voice><type>half</type><dot/></note><note><pitch><step>B</step><octave>4</octave></pitch><duration>768</duration><voice>1</voice><type>quarter</type><lyric number="1" name="verse"><syllabic>end</syllabic><text>then</text></lyric></note></measure><measure number="10"><harmony relative-x="1" default-y="11" print-frame="no"><root><root-step>D</root-step></root><kind text="m9">minor-ninth</kind></harmony><note><pitch><step>C</step><octave>5</octave></pitch><duration>3072</duration><tie type="start"/><voice>1</voice><type>whole</type><notations><tied type="start"/></notations><lyric number="1" name="verse"><syllabic>end</syllabic><text>peace</text><extend/></lyric></note></measure><measure number="11"><harmony relative-x="12" default-y="13" print-frame="no"><root><root-step>G</root-step></root><kind text="7">dominant</kind></harmony><note><pitch><step>C</step><octave>5</octave></pitch><duration>768</duration><voice>1</voice><type>quarter</type></note><note><pitch><step>D</step><octave>5</octave></pitch><duration>768</duration><voice>1</voice><type>quarter</type><lyric number="1" name="verse"><syllabic>end</syllabic><text>will</text></lyric></note><note><pitch><step>C</step><octave>5</octave></pitch><duration>384</duration><voice>1</voice><type>eighth</type><beam number="1">begin</beam><lyric number="1" name="verse"><syllabic>end</syllabic><text>guide</text><extend/></lyric></note><note><pitch><step>B</step><octave>4</octave></pitch><duration>384</duration><voice>1</voice><type>eighth</type><beam number="1">continue</beam></note><note><pitch><step>A</step><octave>4</octave></pitch><duration>384</duration><voice>1</voice><type>eighth</type><beam number="1">continue</beam><lyric number="1" name="verse"><syllabic>end</syllabic><text>the</text><extend/></lyric></note><note><pitch><step>G</step><octave>4</octave></pitch><duration>384</duration><voice>1</voice><type>eighth</type><beam number="1">continue</beam></note></measure><measure number="12"><harmony relative-x="7" default-y="13" print-frame="no"><root><root-step>A</root-step></root><kind text="m">minor</kind></harmony><note><pitch><step>G</step><octave>4</octave></pitch><duration>768</duration><voice>1</voice><type>quarter</type><lyric number="1" name="verse"><syllabic>end</syllabic><text>planets</text><extend/></lyric></note><note><pitch><step>A</step><octave>4</octave></pitch><duration>2304</duration><tie type="start"/><voice>1</voice><type>half</type><dot/><notations><tied type="start"/></notations></note></measure><measure number="13"><print new-system="yes"/><note><pitch><step>A</step><octave>4</octave></pitch><duration>1536</duration><voice>1</voice><type>half</type></note><note><rest/><duration>768</duration><voice>1</voice><type>quarter</type></note><note><pitch><step>G</step><octave>4</octave></pitch><duration>768</duration><voice>1</voice><type>quarter</type><lyric number="1" name="verse"><syllabic>end</syllabic><text>and</text></lyric></note></measure><measure number="14"><harmony relative-x="-12" default-y="6" print-frame="no"><root><root-step>F</root-step></root><kind text="">major</kind></harmony><note><pitch><step>A</step><octave>4</octave></pitch><duration>3072</duration><voice>1</voice><type>whole</type><lyric number="1" name="verse"><syllabic>end</syllabic><text>love</text></lyric></note></measure><measure number="15"><harmony relative-x="13" default-y="6" print-frame="no"><root><root-step>G</root-step></root><kind text="7">dominant</kind></harmony><note><rest/><duration>768</duration><voice>1</voice><type>quarter</type></note><note><pitch><step>B</step><octave>4</octave></pitch><duration>768</duration><voice>1</voice><type>quarter</type><lyric number="1" name="verse"><syllabic>end</syllabic><text>will</text></lyric></note><note><pitch><step>B</step><octave>4</octave></pitch><duration>768</duration><voice>1</voice><type>quarter</type><lyric number="1" name="verse"><syllabic>end</syllabic><text>steer</text></lyric></note><note><pitch><step>B</step><octave>4</octave></pitch><duration>384</duration><voice>1</voice><type>eighth</type><beam number="1">begin</beam><lyric number="1" name="verse"><syllabic>end</syllabic><text>the</text></lyric></note><harmony default-y="6" print-frame="no"><root><root-step>C</root-step></root><kind text="">major</kind></harmony><note><pitch><step>C</step><octave>5</octave></pitch><duration>384</duration><tie type="start"/><voice>1</voice><type>eighth</type><beam number="1">continue</beam><notations><tied type="start"/></notations><lyric number="1" name="verse"><syllabic>end</syllabic><text>stars</text><extend/></lyric></note></measure><measure number="16"><note><pitch><step>C</step><octave>5</octave></pitch><duration>768</duration><voice>1</voice><type>quarter</type></note><direction><direction-type><words relative-x="4" default-y="6">N.C.</words></direction-type></direction><note><pitch><step>C</step><octave>5</octave></pitch><duration>768</duration><voice>1</voice><type>quarter</type><lyric number="1" name="verse"><syllabic>end</syllabic><text>This</text></lyric></note><note><pitch><step>D</step><octave>5</octave></pitch><duration>768</duration><voice>1</voice><type>quarter</type><lyric number="1" name="verse"><syllabic>end</syllabic><text>is</text></lyric></note><note><pitch><step>C</step><octave>5</octave></pitch><duration>384</duration><voice>1</voice><type>eighth</type><beam number="1">begin</beam><lyric number="1" name="verse"><syllabic>end</syllabic><text>the</text></lyric></note><note><pitch><step>E</step><octave>5</octave></pitch><duration>384</duration><tie type="start"/><voice>1</voice><type>eighth</type><beam number="1">continue</beam><notations><tied type="start"/></notations><lyric number="1" name="verse"><syllabic>end</syllabic><text>dawning</text><extend/></lyric></note></measure><measure number="17"><print new-system="yes"/><note><pitch><step>E</step><octave>5</octave></pitch><duration>768</duration><voice>1</voice><type>quarter</type></note><note><pitch><step>D</step><octave>5</octave></pitch><duration>768</duration><voice>1</voice><type>quarter</type></note><note><pitch><step>C</step><octave>5</octave></pitch><duration>768</duration><voice>1</voice><type>quarter</type><lyric number="1" name="verse"><syllabic>end</syllabic><text>of</text></lyric></note><note><pitch><step>B</step><alter>-1</alter><octave>4</octave></pitch><duration>768</duration><voice>1</voice><type>quarter</type><lyric number="1" name="verse"><syllabic>end</syllabic><text>the</text></lyric></note></measure><measure number="18"><harmony relative-x="8" default-y="1" print-frame="no"><root><root-step>B</root-step><root-alter>-1</root-alter></root><kind text="">major</kind></harmony><note><pitch><step>B</step><alter>-1</alter><octave>4</octave></pitch><duration>1536</duration><voice>1</voice><type>half</type><lyric number="1" name="verse"><syllabic>end</syllabic><text>age</text></lyric></note><note><pitch><step>B</step><alter>-1</alter><octave>4</octave></pitch><duration>768</duration><voice>1</voice><type>quarter</type><lyric number="1" name="verse"><syllabic>end</syllabic><text>of</text></lyric></note><note><pitch><step>A</step><octave>4</octave></pitch><duration>768</duration><voice>1</voice><type>quarter</type><lyric number="1" name="verse"><syllabic>end</syllabic><text>Aquarius</text><extend/></lyric></note></measure><measure number="19"><note><pitch><step>B</step><alter>-1</alter><octave>4</octave></pitch><duration>768</duration><voice>1</voice><type>quarter</type></note><note><pitch><step>C</step><octave>5</octave></pitch><duration>384</duration><voice>1</voice><type>eighth</type><beam number="1">begin</beam></note><note><pitch><step>D</step><octave>5</octave></pitch><duration>1152</duration><voice>1</voice><type>quarter</type><dot/></note><note><rest/><duration>384</duration><voice>1</voice><type>eighth</type></note><note><pitch><step>C</step><octave>5</octave></pitch><duration>384</duration><voice>1</voice><type>eighth</type><beam number="1">continue</beam><lyric number="1" name="verse"><syllabic>end</syllabic><text>the</text></lyric></note></measure><measure number="20"><note><pitch><step>B</step><alter>-1</alter><octave>4</octave></pitch><duration>1536</duration><voice>1</voice><type>half</type><lyric number="1" name="verse"><syllabic>end</syllabic><text>age</text></lyric></note><note><pitch><step>B</step><alter>-1</alter><octave>4</octave></pitch><duration>768</duration><voice>1</voice><type>quarter</type><lyric number="1" name="verse"><syllabic>end</syllabic><text>of</text></lyric></note><note><pitch><step>A</step><octave>4</octave></pitch><duration>768</duration><voice>1</voice><type>quarter</type><lyric number="1" name="verse"><syllabic>end</syllabic><text>Aquarius</text><extend/></lyric></note></measure><measure number="21"><print new-system="yes"/><note><pitch><step>B</step><alter>-1</alter><octave>4</octave></pitch><duration>768</duration><voice>1</voice><type>quarter</type></note><note><pitch><step>C</step><octave>5</octave></pitch><duration>384</duration><voice>1</voice><type>eighth</type><beam number="1">begin</beam></note><note><pitch><step>D</step><octave>5</octave></pitch><duration>384</duration><tie type="start"/><voice>1</voice><type>eighth</type><beam number="1">continue</beam><notations><tied type="start"/></notations></note><note><pitch><step>D</step><octave>5</octave></pitch><duration>1536</duration><tie type="start"/><voice>1</voice><type>half</type><notations><tied type="start"/></notations></note></measure><measure number="22"><harmony relative-x="8" default-y="11" print-frame="no"><root><root-step>D</root-step></root><kind text="m">minor</kind></harmony><note><pitch><step>D</step><octave>5</octave></pitch><duration>3072</duration><tie type="start"/><voice>1</voice><type>whole</type><notations><tied type="start"/></notations></note></measure><measure number="23"><note><pitch><step>D</step><octave>5</octave></pitch><duration>2304</duration><voice>1</voice><type>half</type><dot/></note><note><pitch><step>C</step><octave>5</octave></pitch><duration>768</duration><voice>1</voice><type>quarter</type><lyric number="1" name="verse"><syllabic>end</syllabic><text>Aquarius</text><extend/></lyric></note></measure><measure number="24"><harmony relative-x="8" default-y="11" print-frame="no"><root><root-step>G</root-step></root><kind text="7">dominant</kind></harmony><note><pitch><step>D</step><octave>5</octave></pitch><duration>1152</duration><voice>1</voice><type>quarter</type><dot/></note><note><pitch><step>F</step><octave>5</octave></pitch><duration>384</duration><voice>1</voice><type>eighth</type><beam number="1">continue</beam></note><note><pitch><step>G</step><octave>5</octave></pitch><duration>1536</duration><tie type="start"/><voice>1</voice><type>half</type><notations><tied type="start"/></notations></note></measure><measure number="25"><print new-system="yes"/><note><pitch><step>G</step><octave>5</octave></pitch><duration>3072</duration><tie type="start"/><voice>1</voice><type>whole</type><notations><tied type="start"/></notations></note></measure><measure number="26"><note><pitch><step>G</step><octave>5</octave></pitch><duration>3072</duration><tie type="start"/><voice>1</voice><type>whole</type><notations><tied type="start"/></notations></note></measure><measure number="27"><note><pitch><step>G</step><octave>5</octave></pitch><duration>2304</duration><voice>1</voice><type>half</type><dot/></note><note><pitch><step>F</step><octave>5</octave></pitch><duration>768</duration><voice>1</voice><type>quarter</type><lyric number="1" name="verse"><syllabic>end</syllabic><text>Aquarius</text><extend/></lyric></note></measure><measure number="28"><harmony relative-x="8" default-y="16" print-frame="no"><root><root-step>D</root-step></root><kind text="m">minor</kind></harmony><note><pitch><step>G</step><octave>5</octave></pitch><duration>768</duration><voice>1</voice><type>quarter</type></note><note><pitch><step>F</step><octave>5</octave></pitch><duration>768</duration><voice>1</voice><type>quarter</type></note><note><pitch><step>D</step><octave>5</octave></pitch><duration>1536</duration><tie type="start"/><voice>1</voice><type>half</type><notations><tied type="start"/></notations></note></measure><measure number="29"><print new-system="yes"/><note><pitch><step>D</step><octave>5</octave></pitch><duration>3072</duration><tie type="start"/><voice>1</voice><type>whole</type><notations><tied type="start"/></notations></note></measure><measure number="30"><note><pitch><step>D</step><octave>5</octave></pitch><duration>3072</duration><tie type="start"/><voice>1</voice><type>whole</type><notations><tied type="start"/></notations></note></measure><measure number="31"><note><pitch><step>D</step><octave>5</octave></pitch><duration>2304</duration><voice>1</voice><type>half</type><dot/></note><note><rest/><duration>768</duration><voice>1</voice><type>quarter</type></note><barline location="right"><bar-style>light-heavy</bar-style></barline></measure><measure number="32"><harmony relative-x="-1" default-y="13" print-frame="no"><root><root-step>C</root-step></root><kind text="7">dominant</kind></harmony><note><pitch><step>C</step><octave>5</octave></pitch><duration>384</duration><voice>1</voice><type>eighth</type><beam number="1">begin</beam><lyric number="1" name="verse"><syllabic>middle</syllabic><text>Har</text></lyric></note><note><pitch><step>D</step><octave>5</octave></pitch><duration>384</duration><voice>1</voice><type>eighth</type><beam number="1">continue</beam><lyric number="1" name="verse"><syllabic>middle</syllabic><text>mo</text></lyric></note><note><pitch><step>C</step><octave>5</octave></pitch><duration>384</duration><voice>1</voice><type>eighth</type><beam number="1">continue</beam><lyric number="1" name="verse"><syllabic>end</syllabic><text>ny</text></lyric></note><note><pitch><step>B</step><alter>-1</alter><octave>4</octave></pitch><duration>384</duration><voice>1</voice><type>eighth</type><beam number="1">continue</beam><lyric number="1" name="verse"><syllabic>end</syllabic><text>and</text></lyric></note><note><pitch><step>A</step><octave>4</octave></pitch><duration>384</duration><voice>1</voice><type>eighth</type><beam number="1">begin</beam><lyric number="1" name="verse"><syllabic>middle</syllabic><text>un</text></lyric></note><note><pitch><step>G</step><octave>4</octave></pitch><duration>768</duration><voice>1</voice><type>quarter</type><lyric number="1" name="verse"><syllabic>middle</syllabic><text>der</text></lyric></note><note><pitch><step>B</step><alter>-1</alter><octave>4</octave></pitch><duration>384</duration><tie type="start"/><voice>1</voice><type>eighth</type><beam number="1">continue</beam><notations><tied type="start"/></notations><lyric number="1" name="verse"><syllabic>middle</syllabic><text>stand</text><extend/></lyric></note></measure><measure number="33"><harmony relative-x="3" default-y="9" print-frame="no"><root><root-step>F</root-step></root><kind text="">major</kind></harmony><note><pitch><step>B</step><alter>-1</alter><octave>4</octave></pitch><duration>384</duration><voice>1</voice><type>eighth</type><beam number="1">begin</beam></note><note><pitch><step>A</step><octave>4</octave></pitch><duration>1152</duration><voice>1</voice><type>quarter</type><dot/><lyric number="1" name="verse"><syllabic>end</syllabic><text>ing,</text></lyric></note><note><rest/><duration>1536</duration><voice>1</voice><type>half</type></note></measure><measure number="34"><harmony default-y="10" print-frame="no"><root><root-step>C</root-step></root><kind text="7">dominant</kind></harmony><note><pitch><step>B</step><alter>-1</alter><octave>4</octave></pitch><duration>384</duration><voice>1</voice><type>eighth</type><beam number="1">begin</beam><lyric number="1" name="verse"><syllabic>middle</syllabic><text>Sym</text></lyric></note><note><pitch><step>C</step><octave>5</octave></pitch><duration>384</duration><voice>1</voice><type>eighth</type><beam number="1">continue</beam><lyric number="1" name="verse"><syllabic>middle</syllabic><text>pa</text></lyric></note><note><pitch><step>B</step><alter>-1</alter><octave>4</octave></pitch><duration>384</duration><voice>1</voice><type>eighth</type><beam number="1">continue</beam><lyric number="1" name="verse"><syllabic>end</syllabic><text>thy</text></lyric></note><note><pitch><step>A</step><octave>4</octave></pitch><duration>384</duration><voice>1</voice><type>eighth</type><beam number="1">continue</beam><lyric number="1" name="verse"><syllabic>end</syllabic><text>and</text></lyric></note><note><pitch><step>G</step><octave>4</octave></pitch><duration>768</duration><voice>1</voice><type>quarter</type><lyric number="1" name="verse"><syllabic>end</syllabic><text>trust</text></lyric></note><note><pitch><step>F</step><octave>4</octave></pitch><duration>384</duration><voice>1</voice><type>eighth</type><beam number="1">begin</beam><lyric number="1" name="verse"><syllabic>middle</syllabic><text>a</text></lyric></note><note><pitch><step>G</step><octave>4</octave></pitch><duration>384</duration><tie type="start"/><voice>1</voice><type>eighth</type><beam number="1">continue</beam><notations><tied type="start"/></notations><lyric number="1" name="verse"><syllabic>end</syllabic><text>bound</text><extend/></lyric></note></measure><measure number="35"><harmony relative-x="-4" default-y="13" print-frame="no"><root><root-step>F</root-step></root><kind text="">major</kind></harmony><note><pitch><step>G</step><octave>4</octave></pitch><duration>384</duration><voice>1</voice><type>eighth</type><beam number="1">begin</beam></note><note><pitch><step>F</step><octave>4</octave></pitch><duration>384</duration><voice>1</voice><type>eighth</type><beam number="1">continue</beam></note><note><pitch><step>D</step><octave>4</octave></pitch><duration>384</duration><voice>1</voice><type>eighth</type><beam number="1">continue</beam></note><note><pitch><step>F</step><octave>4</octave></pitch><duration>384</duration><tie type="start"/><voice>1</voice><type>eighth</type><beam number="1">continue</beam><notations><tied type="start"/></notations><lyric number="1" name="verse"><syllabic>end</syllabic><text>ing.</text><extend/></lyric></note><note><pitch><step>F</step><octave>4</octave></pitch><duration>1536</duration><voice>1</voice><type>half</type></note></measure><measure number="36"><harmony relative-x="-2" default-y="18" print-frame="no"><root><root-step>C</root-step></root><kind text="7">dominant</kind></harmony><note><pitch><step>C</step><octave>5</octave></pitch><duration>384</duration><voice>1</voice><type>eighth</type><beam number="1">begin</beam><lyric number="1" name="verse"><syllabic>end</syllabic><text>No</text></lyric></note><note><pitch><step>D</step><octave>5</octave></pitch><duration>384</duration><voice>1</voice><type>eighth</type><beam number="1">continue</beam><lyric number="1" name="verse"><syllabic>end</syllabic><text>more</text></lyric></note><note><pitch><step>C</step><octave>5</octave></pitch><duration>384</duration><voice>1</voice><type>eighth</type><beam number="1">continue</beam><lyric number="1" name="verse"><syllabic>middle</syllabic><text>false</text></lyric></note><note><pitch><step>B</step><alter>-1</alter><octave>4</octave></pitch><duration>384</duration><voice>1</voice><type>eighth</type><beam number="1">continue</beam><lyric number="1" name="verse"><syllabic>end</syllabic><text>hoods</text></lyric></note><note><pitch><step>A</step><octave>4</octave></pitch><duration>768</duration><voice>1</voice><type>quarter</type><lyric number="1" name="verse"><syllabic>end</syllabic><text>or</text></lyric></note><note><pitch><step>G</step><octave>4</octave></pitch><duration>384</duration><voice>1</voice><type>eighth</type><beam number="1">begin</beam><lyric number="1" name="verse"><syllabic>middle</syllabic><text>de</text></lyric></note><note><pitch><step>B</step><alter>-1</alter><octave>4</octave></pitch><duration>384</duration><tie type="start"/><voice>1</voice><type>eighth</type><beam number="1">continue</beam><notations><tied type="start"/></notations><lyric number="1" name="verse"><syllabic>middle</syllabic><text>ri</text><extend/></lyric></note></measure><measure number="37"><harmony default-y="16" print-frame="no"><root><root-step>F</root-step></root><kind text="">major</kind></harmony><note><pitch><step>B</step><alter>-1</alter><octave>4</octave></pitch><duration>384</duration><voice>1</voice><type>eighth</type><beam number="1">begin</beam></note><note><pitch><step>A</step><octave>4</octave></pitch><duration>1152</duration><voice>1</voice><type>quarter</type><dot/><lyric number="1" name="verse"><syllabic>end</syllabic><text>sions</text></lyric></note><note><pitch><step>B</step><alter>-1</alter><octave>4</octave></pitch><duration>768</duration><voice>1</voice><type>quarter</type><lyric number="1" name="verse"><syllabic>middle</syllabic><text>Gold</text></lyric></note><note><pitch><step>A</step><octave>4</octave></pitch><duration>768</duration><voice>1</voice><type>quarter</type><lyric number="1" name="verse"><syllabic>end</syllabic><text>en</text></lyric></note></measure><measure number="38"><harmony relative-x="9" default-y="17" print-frame="no"><root><root-step>D</root-step></root><kind text="m">minor</kind></harmony><note><pitch><step>B</step><alter>-1</alter><octave>4</octave></pitch><duration>384</duration><voice>1</voice><type>eighth</type><beam number="1">begin</beam><lyric number="1" name="verse"><syllabic>middle</syllabic><text>liv</text></lyric></note><note><pitch><step>A</step><octave>4</octave></pitch><duration>768</duration><voice>1</voice><type>quarter</type><lyric number="1" name="verse"><syllabic>end</syllabic><text>ing</text></lyric></note><note><pitch><step>C</step><octave>5</octave></pitch><duration>384</duration><tie type="start"/><voice>1</voice><type>eighth</type><beam number="1">continue</beam><notations><tied type="start"/></notations><lyric number="1" name="verse"><syllabic>end</syllabic><text>dreams</text><extend/></lyric></note><harmony relative-x="-1" default-y="15" print-frame="no"><root><root-step>E</root-step></root><kind text="dim">diminished</kind></harmony><note><pitch><step>C</step><octave>5</octave></pitch><duration>384</duration><voice>1</voice><type>eighth</type><beam number="1">begin</beam></note><note><pitch><step>B</step><alter>-1</alter><octave>4</octave></pitch><duration>1152</duration><voice>1</voice><type>quarter</type><dot/><lyric number="1" name="verse"><syllabic>end</syllabic><text>of</text></lyric></note></measure><measure number="39"><harmony relative-x="-6" default-y="10" print-frame="no"><root><root-step>F</root-step></root><kind text="">major</kind></harmony><note><pitch><step>A</step><octave>4</octave></pitch><duration>384</duration><voice>1</voice><type>eighth</type><beam number="1">begin</beam><lyric number="1" name="verse"><syllabic>middle</syllabic><text>vi</text></lyric></note><note><pitch><step>G</step><octave>4</octave></pitch><duration>1152</duration><voice>1</voice><type>quarter</type><dot/><lyric number="1" name="verse"><syllabic>end</syllabic><text>sions</text></lyric></note><note><pitch><step>A</step><octave>4</octave></pitch><duration>768</duration><voice>1</voice><type>quarter</type><lyric number="1" name="verse"><syllabic>middle</syllabic><text>mys</text></lyric></note><note><pitch><step>G</step><octave>4</octave></pitch><duration>768</duration><voice>1</voice><type>quarter</type><lyric number="1" name="verse"><syllabic>end</syllabic><text>tic</text></lyric></note></measure><measure number="40"><note><pitch><step>A</step><octave>4</octave></pitch><duration>768</duration><voice>1</voice><type>quarter</type><lyric number="1" name="verse"><syllabic>middle</syllabic><text>crys</text></lyric></note><note><pitch><step>G</step><octave>4</octave></pitch><duration>768</duration><voice>1</voice><type>quarter</type><lyric number="1" name="verse"><syllabic>end</syllabic><text>tal</text></lyric></note><harmony relative-x="7" default-y="17" print-frame="no"><root><root-step>A</root-step></root><kind text="7">dominant</kind><bass><bass-step>E</bass-step></bass></harmony><note><pitch><step>B</step><alter>-1</alter><octave>4</octave></pitch><duration>768</duration><voice>1</voice><type>quarter</type><lyric number="1" name="verse"><syllabic>middle</syllabic><text>rev</text></lyric></note><note><pitch><step>A</step><octave>4</octave></pitch><duration>384</duration><voice>1</voice><type>eighth</type><beam number="1">begin</beam><lyric number="1" name="verse"><syllabic>middle</syllabic><text>e</text></lyric></note><note><pitch><step>G</step><octave>4</octave></pitch><duration>384</duration><tie type="start"/><voice>1</voice><type>eighth</type><beam number="1">continue</beam><notations><tied type="start"/></notations><lyric number="1" name="verse"><syllabic>middle</syllabic><text>la</text><extend/></lyric></note></measure><measure number="41"><harmony relative-x="-1" default-y="18" print-frame="no"><root><root-step>D</root-step></root><kind text="m">minor</kind></harmony><note><pitch><step>G</step><octave>4</octave></pitch><duration>384</duration><voice>1</voice><type>eighth</type><beam number="1">begin</beam></note><note><pitch><step>F</step><octave>4</octave></pitch><duration>1152</duration><voice>1</voice><type>quarter</type><dot/><lyric number="1" name="verse"><syllabic>end</syllabic><text>tions</text></lyric></note><note><pitch><step>G</step><octave>4</octave></pitch><duration>768</duration><voice>1</voice><type>quarter</type><lyric number="1" name="verse"><syllabic>end</syllabic><text>and</text></lyric></note><note><pitch><step>F</step><octave>4</octave></pitch><duration>384</duration><voice>1</voice><type>eighth</type><beam number="1">begin</beam><lyric number="1" name="verse"><syllabic>end</syllabic><text>the</text></lyric></note><note><pitch><step>G</step><octave>4</octave></pitch><duration>384</duration><tie type="start"/><voice>1</voice><type>eighth</type><beam number="1">continue</beam><notations><tied type="start"/></notations><lyric number="1" name="verse"><syllabic>end</syllabic><text>minds</text><extend/></lyric></note></measure><measure number="42"><harmony relative-x="4" default-y="21" print-frame="no"><root><root-step>D</root-step></root><kind text="m7">minor-seventh</kind></harmony><note><pitch><step>G</step><octave>4</octave></pitch><duration>768</duration><voice>1</voice><type>quarter</type></note><note><pitch><step>F</step><octave>4</octave></pitch><duration>768</duration><voice>1</voice><type>quarter</type><lyric number="1" name="verse"><syllabic>end</syllabic><text>true</text></lyric></note><harmony relative-x="3" default-y="22" print-frame="no"><root><root-step>G</root-step></root><kind text="m">minor</kind></harmony><note><pitch><step>A</step><octave>4</octave></pitch><duration>384</duration><voice>1</voice><type>eighth</type><beam number="1">begin</beam><lyric number="1" name="verse"><syllabic>middle</syllabic><text>lib</text></lyric></note><note><pitch><step>G</step><octave>4</octave></pitch><duration>768</duration><voice>1</voice><type>quarter</type><lyric number="1" name="verse"><syllabic>middle</syllabic><text>er</text></lyric></note><note><pitch><step>F</step><octave>4</octave></pitch><duration>384</duration><tie type="start"/><voice>1</voice><type>eighth</type><beam number="1">continue</beam><notations><tied type="start"/></notations><lyric number="1" name="verse"><syllabic>end</syllabic><text>a</text><extend/></lyric></note></measure><measure number="43"><harmony relative-x="1" default-y="6" print-frame="no"><root><root-step>A</root-step></root><kind text="m">minor</kind></harmony><note><pitch><step>F</step><octave>4</octave></pitch><duration>384</duration><voice>1</voice><type>eighth</type><beam number="1">begin</beam></note><note><pitch><step>E</step><octave>4</octave></pitch><duration>768</duration><voice>1</voice><type>quarter</type><lyric number="1" name="verse"><syllabic>end</syllabic><text>tion.</text><extend/></lyric></note><note><pitch><step>D</step><octave>4</octave></pitch><duration>1152</duration><voice>1</voice><type>quarter</type><dot/></note><note><pitch><step>C</step><octave>4</octave></pitch><duration>768</duration><voice>1</voice><type>quarter</type><lyric number="1" name="verse"><syllabic>end</syllabic><text>A</text></lyric></note></measure><measure number="44"><harmony relative-x="5" default-y="1" print-frame="no"><root><root-step>G</root-step></root><kind text="m">minor</kind></harmony><note><pitch><step>D</step><octave>4</octave></pitch><duration>1152</duration><voice>1</voice><type>quarter</type><dot/><lyric number="1" name="verse"><syllabic>end</syllabic><text>quarius</text></lyric></note><note><pitch><step>F</step><octave>4</octave></pitch><duration>384</duration><voice>1</voice><type>eighth</type><beam number="1">continue</beam></note><note><pitch><step>G</step><octave>4</octave></pitch><duration>1536</duration><voice>1</voice><type>half</type></note></measure><measure number="45"><note><pitch><step>B</step><alter>-1</alter><octave>4</octave></pitch><duration>3072</duration><voice>1</voice><type>whole</type></note></measure><measure number="46"><note><pitch><step>D</step><octave>5</octave></pitch><duration>3072</duration><voice>1</voice><type>whole</type></note></measure><measure number="47"><note><pitch><step>G</step><octave>5</octave></pitch><duration>1536</duration><voice>1</voice><type>half</type></note><note><rest/><duration>768</duration><voice>1</voice><type>quarter</type></note><note><pitch><step>F</step><octave>5</octave></pitch><duration>768</duration><voice>1</voice><type>quarter</type><lyric number="1" name="verse"><syllabic>end</syllabic><text>A</text></lyric></note></measure><measure number="48"><harmony relative-x="5" default-y="22" print-frame="no"><root><root-step>D</root-step></root><kind text="m">minor</kind></harmony><note><pitch><step>G</step><octave>5</octave></pitch><duration>1536</duration><voice>1</voice><type>half</type><lyric number="1" name="verse"><syllabic>end</syllabic><text>quarius</text></lyric></note><note><pitch><step>F</step><octave>5</octave></pitch><duration>768</duration><voice>1</voice><type>quarter</type></note><note><pitch><step>D</step><octave>5</octave></pitch><duration>768</duration><tie type="start"/><voice>1</voice><type>quarter</type><notations><tied type="start"/></notations></note></measure><measure number="49"><note><pitch><step>D</step><octave>5</octave></pitch><duration>3072</duration><tie type="start"/><voice>1</voice><type>whole</type><notations><tied type="start"/></notations></note></measure><measure number="50"><note><pitch><step>D</step><octave>5</octave></pitch><duration>3072</duration><tie type="start"/><voice>1</voice><type>whole</type><notations><tied type="start"/></notations></note></measure><measure number="51"><note><pitch><step>D</step><octave>5</octave></pitch><duration>768</duration><voice>1</voice><type>quarter</type></note><direction><direction-type><words relative-x="-1" default-y="20">D.S.al fine </words></direction-type></direction><note><rest/><duration>768</duration><voice>1</voice><type>quarter</type></note><note><pitch><step>A</step><octave>4</octave></pitch><duration>768</duration><voice>1</voice><type>quarter</type><lyric number="1" name="verse"><syllabic>end</syllabic><text>When</text></lyric></note><direction><direction-type><segno relative-x="10" default-y="14"/></direction-type></direction><note><pitch><step>B</step><octave>4</octave></pitch><duration>768</duration><voice>1</voice><type>quarter</type><lyric number="1" name="verse"><syllabic>end</syllabic><text>the</text></lyric></note><barline location="right"><bar-style>light-heavy</bar-style></barline></measure></part></score-partwise>