<score-partwise version="2.0"><work><work-number/><work-title/></work><movement-number/><movement-title>Bewitched</movement-title><identification><creator type="composer">Richard Rodgers</creator><creator type="poet">Lorenz Hart</creator><rights>All Rights Reserved</rights><encoding><software>MuseScore 0.9.6</software><encoding-date>2009-09-29</encoding-date><software>ProxyMusic 2.0 c</software></encoding><source>http://www.wikifonia.org/node/2830/revisions/3571/view</source></identification><defaults><scaling><millimeters>7.056</millimeters><tenths>40</tenths></scaling><page-layout><page-height>1683.67</page-height><page-width>1190.48</page-width><page-margins type="both"><left-margin>56.6893</left-margin><right-margin>56.6893</right-margin><top-margin>56.6893</top-margin><bottom-margin>113.379</bottom-margin></page-margins></page-layout></defaults><credit page="1"><credit-words font-size="24" default-y="1626.98" default-x="595.238" justify="center" valign="top">Bewitched</credit-words></credit><credit page="1"><credit-words font-size="12" default-y="1556.5" default-x="1133.79" justify="right" valign="top">Richard Rodgers</credit-words></credit><credit page="1"><credit-words font-size="12" default-y="1556.5" default-x="56.6893" justify="left" valign="top">Lorenz  Hart</credit-words></credit><part-list><score-part id="P1"><part-name>Piano</part-name><score-instrument id="P1-I3"><instrument-name>Piano</instrument-name></score-instrument><midi-instrument id="P1-I3"><midi-channel>1</midi-channel><midi-program>1</midi-program></midi-instrument></score-part></part-list><part id="P1"><measure width="153.46" number="1"><print><system-layout><system-margins><left-margin>68.23</left-margin><right-margin>-0.00</right-margin></system-margins><top-system-distance>204.31</top-system-distance></system-layout></print><attributes><divisions>2</divisions><key><fifths>0</fifths><mode>major</mode></key><time><beats>4</beats><beat-type>4</beat-type></time><clef><sign>G</sign><line>2</line></clef></attributes><note default-y="-30.00" default-x="89.77"><pitch><step>G</step><octave>4</octave></pitch><duration>2</duration><voice>1</voice><type>quarter</type><stem>up</stem><lyric number="1"><syllabic>single</syllabic><text>I'm</text></lyric></note></measure><measure width="249.89" number="2"><barline location="left"><bar-style>heavy-light</bar-style><repeat direction="forward"/></barline><harmony print-frame="no"><root><root-step>C</root-step></root><kind text="">major</kind></harmony><note default-y="-40.00" default-x="28.50"><pitch><step>E</step><octave>4</octave></pitch><duration>1</duration><voice>1</voice><type>eighth</type><stem>up</stem><beam number="1">begin</beam><lyric number="1"><syllabic>single</syllabic><text>wild</text></lyric></note><note default-y="-20.00" default-x="66.40"><pitch><step>B</step><octave>4</octave></pitch><duration>1</duration><voice>1</voice><type>eighth</type><stem>up</stem><beam number="1">end</beam><lyric number="1"><syllabic>begin</syllabic><text>a</text></lyric></note><note default-y="-15.00" default-x="104.29"><pitch><step>C</step><octave>5</octave></pitch><duration>4</duration><voice>1</voice><type>half</type><stem>down</stem><lyric number="1"><syllabic>end</syllabic><text>gain</text></lyric></note><note default-y="-40.00" default-x="187.66"><pitch><step>E</step><octave>4</octave></pitch><duration>2</duration><voice>1</voice><type>quarter</type><stem>up</stem><lyric number="1"><syllabic>begin</syllabic><text>be</text></lyric></note></measure><measure width="263.67" number="3"><harmony print-frame="no"><root><root-step>G</root-step></root><kind text="7">dominant</kind></harmony><note default-y="-35.00" default-x="36.64"><pitch><step>F</step><octave>4</octave></pitch><duration>1</duration><voice>1</voice><type>eighth</type><stem>up</stem><beam number="1">begin</beam><lyric number="1"><syllabic>end</syllabic><text>guiled</text></lyric></note><note default-y="-20.00" default-x="75.75"><pitch><step>B</step><octave>4</octave></pitch><duration>1</duration><voice>1</voice><type>eighth</type><stem>up</stem><beam number="1">end</beam><lyric number="1"><syllabic>begin</syllabic><text>a</text></lyric></note><note default-y="-15.00" default-x="114.57"><pitch><step>C</step><octave>5</octave></pitch><duration>4</duration><voice>1</voice><type>half</type><stem>down</stem><lyric number="1"><syllabic>end</syllabic><text>gain</text></lyric></note><note default-y="-35.00" default-x="199.97"><pitch><step>F</step><octave>4</octave></pitch><duration>2</duration><voice>1</voice><type>quarter</type><stem>up</stem><lyric number="1"><syllabic>single</syllabic><text>A</text></lyric></note></measure><measure width="341.84" number="4"><harmony print-frame="no"><root><root-step>C</root-step></root><kind text="">major</kind></harmony><note default-y="-30.00" default-x="24.75"><pitch><step>G</step><octave>4</octave></pitch><duration>1</duration><voice>1</voice><type>eighth</type><stem>up</stem><beam number="1">begin</beam><lyric number="1"><syllabic>begin</syllabic><text>sim</text></lyric></note><note default-y="-20.00" default-x="68.22"><pitch><step>B</step><octave>4</octave></pitch><duration>1</duration><voice>1</voice><type>eighth</type><stem>up</stem><beam number="1">end</beam><lyric number="1"><syllabic>middle</syllabic><text>per</text></lyric></note><note default-y="-15.00" default-x="111.68"><pitch><step>C</step><octave>5</octave></pitch><duration>2</duration><voice>1</voice><type>quarter</type><stem>down</stem><lyric number="1"><syllabic>end</syllabic><text>ing</text></lyric></note><note default-y="-30.00" default-x="181.23"><pitch><step>G</step><alter>1</alter><octave>4</octave></pitch><duration>1</duration><voice>1</voice><type>eighth</type><accidental>sharp</accidental><stem>up</stem><beam number="1">begin</beam><lyric number="1"><syllabic>begin</syllabic><text>whim</text></lyric></note><note default-y="-20.00" default-x="227.22"><pitch><step>B</step><octave>4</octave></pitch><duration>1</duration><voice>1</voice><type>eighth</type><stem>up</stem><beam number="1">end</beam><lyric number="1"><syllabic>middle</syllabic><text>per</text></lyric></note><note default-y="-15.00" default-x="270.69"><pitch><step>C</step><octave>5</octave></pitch><duration>2</duration><voice>1</voice><type>quarter</type><stem>down</stem><lyric number="1"><syllabic>end</syllabic><text>ing</text></lyric></note></measure><measure width="290.45" number="5"><print new-system="yes"><system-layout><system-margins><left-margin>0.00</left-margin><right-margin>-0.00</right-margin></system-margins><system-distance>129.51</system-distance></system-layout></print><harmony print-frame="no"><root><root-step>F</root-step></root><kind text="">major</kind></harmony><note default-y="-25.00" default-x="76.69"><pitch><step>A</step><octave>4</octave></pitch><duration>1</duration><voice>1</voice><type>eighth</type><stem>up</stem><beam number="1">begin</beam><lyric number="1"><syllabic>single</syllabic><text>child</text></lyric></note><note default-y="-20.00" default-x="112.47"><pitch><step>B</step><octave>4</octave></pitch><duration>1</duration><voice>1</voice><type>eighth</type><stem>up</stem><beam number="1">end</beam><lyric number="1"><syllabic>begin</syllabic><text>a</text></lyric></note><note default-y="-15.00" default-x="152.86"><pitch><step>C</step><octave>5</octave></pitch><duration>4</duration><voice>1</voice><type>half</type><stem>down</stem><lyric number="1"><syllabic>end</syllabic><text>gain,</text></lyric></note><note default-y="-20.00" default-x="231.59"><pitch><step>B</step><octave>4</octave></pitch><duration>2</duration><voice>1</voice><type>quarter</type><stem>down</stem><lyric number="1"><syllabic>begin</syllabic><text>Be</text></lyric></note></measure><measure width="331.84" number="6"><harmony print-frame="no"><root><root-step>C</root-step></root><kind text="">major</kind></harmony><note default-y="-15.00" default-x="46.96"><pitch><step>C</step><octave>5</octave></pitch><duration>4</duration><voice>1</voice><type>half</type><stem>down</stem><lyric number="1"><syllabic>end</syllabic><text>witched,</text></lyric></note><note default-y="-20.00" default-x="147.48"><pitch><step>B</step><octave>4</octave></pitch><duration>1</duration><voice>1</voice><type>eighth</type><stem>up</stem><beam number="1">begin</beam><lyric number="1"><syllabic>begin</syllabic><text>both</text></lyric></note><note default-y="-25.00" default-x="193.17"><pitch><step>A</step><octave>4</octave></pitch><duration>1</duration><voice>1</voice><type>eighth</type><stem>up</stem><beam number="1">continue</beam><lyric number="1"><syllabic>end</syllabic><text>ered</text></lyric></note><note default-y="-30.00" default-x="238.86"><pitch><step>G</step><octave>4</octave></pitch><duration>1</duration><voice>1</voice><type>eighth</type><stem>up</stem><beam number="1">continue</beam><lyric number="1"><syllabic>single</syllabic><text>and</text></lyric></note><note default-y="-35.00" default-x="284.55"><pitch><step>F</step><alter>1</alter><octave>4</octave></pitch><duration>1</duration><voice>1</voice><type>eighth</type><accidental>sharp</accidental><stem>up</stem><beam number="1">end</beam><lyric number="1"><syllabic>begin</syllabic><text>be</text></lyric></note></measure><measure width="213.44" number="7"><harmony print-frame="no"><root><root-step>G</root-step></root><kind text="7">dominant</kind></harmony><note default-y="-30.00" default-x="28.50"><pitch><step>G</step><octave>4</octave></pitch><duration>2</duration><voice>1</voice><type>quarter</type><stem>up</stem><lyric number="1"><syllabic>middle</syllabic><text>wild</text></lyric></note><note default-y="-45.00" default-x="79.43"><pitch><step>D</step><octave>4</octave></pitch><duration>4</duration><voice>1</voice><type>half</type><stem>up</stem><lyric number="1"><syllabic>end</syllabic><text>ered</text></lyric></note><note default-y="-40.00" default-x="160.91"><pitch><step>E</step><octave>4</octave></pitch><duration>2</duration><voice>1</voice><type>quarter</type><stem>up</stem><lyric number="1"><syllabic>single</syllabic><text>am</text></lyric></note></measure><measure width="120.68" number="8"><harmony print-frame="no"><root><root-step>D</root-step></root><kind text="m">minor</kind></harmony><note default-y="-35.00" default-x="15.00"><pitch><step>F</step><octave>4</octave></pitch><duration>8</duration><tie type="start"/><voice>1</voice><type>whole</type><notations><tied type="start"/></notations><lyric number="1"><syllabic>single</syllabic><text>I</text><extend/></lyric></note></measure><measure width="120.68" number="9"><harmony print-frame="no"><root><root-step>G</root-step></root><kind text="7">dominant</kind></harmony><note default-y="-35.00" default-x="15.00"><pitch><step>F</step><octave>4</octave></pitch><duration>8</duration><tie type="stop"/><voice>1</voice><type>whole</type><notations><tied type="stop"/></notations></note></measure><measure width="369.96" number="10"><print new-system="yes"><system-layout><system-margins><left-margin>0.00</left-margin><right-margin>-0.00</right-margin></system-margins><system-distance>129.51</system-distance></system-layout></print><harmony print-frame="no"><root><root-step>C</root-step></root><kind text="">major</kind></harmony><note default-y="-40.00" default-x="81.70"><pitch><step>E</step><octave>4</octave></pitch><duration>1</duration><voice>1</voice><type>eighth</type><stem>up</stem><beam number="1">begin</beam><lyric number="1"><syllabic>begin</syllabic><text>Could</text></lyric></note><note default-y="-20.00" default-x="131.12"><pitch><step>B</step><octave>4</octave></pitch><duration>1</duration><voice>1</voice><type>eighth</type><stem>up</stem><beam number="1">end</beam><lyric number="1"><syllabic>end</syllabic><text>n't</text></lyric></note><note default-y="-15.00" default-x="180.55"><pitch><step>C</step><octave>5</octave></pitch><duration>4</duration><voice>1</voice><type>half</type><stem>down</stem><lyric number="1"><syllabic>single</syllabic><text>sleep,</text></lyric></note><note default-y="-40.00" default-x="289.28"><pitch><step>E</step><octave>4</octave></pitch><duration>2</duration><voice>1</voice><type>quarter</type><stem>up</stem><lyric number="1"><syllabic>single</syllabic><text>and</text></lyric></note></measure><measure width="336.16" number="11"><harmony print-frame="no"><root><root-step>G</root-step></root><kind text="7">dominant</kind></harmony><note default-y="-35.00" default-x="36.64"><pitch><step>F</step><octave>4</octave></pitch><duration>1</duration><voice>1</voice><type>eighth</type><stem>up</stem><beam number="1">begin</beam><lyric number="1"><syllabic>begin</syllabic><text>would</text></lyric></note><note default-y="-20.00" default-x="88.01"><pitch><step>B</step><octave>4</octave></pitch><duration>1</duration><voice>1</voice><type>eighth</type><stem>up</stem><beam number="1">end</beam><lyric number="1"><syllabic>end</syllabic><text>n't</text></lyric></note><note default-y="-15.00" default-x="139.37"><pitch><step>C</step><octave>5</octave></pitch><duration>4</duration><voice>1</voice><type>half</type><stem>down</stem><lyric number="1"><syllabic>single</syllabic><text>sleep</text></lyric></note><note default-y="-35.00" default-x="252.38"><pitch><step>F</step><octave>4</octave></pitch><duration>2</duration><voice>1</voice><type>quarter</type><stem>up</stem><lyric number="1"><syllabic>single</syllabic><text>when</text></lyric></note></measure><measure width="370.98" number="12"><harmony print-frame="no"><root><root-step>C</root-step></root><kind text="">major</kind></harmony><note default-y="-30.00" default-x="27.87"><pitch><step>G</step><octave>4</octave></pitch><duration>1</duration><voice>1</voice><type>eighth</type><stem>up</stem><beam number="1">begin</beam><lyric number="1"><syllabic>single</syllabic><text>love</text></lyric></note><note default-y="-20.00" default-x="76.98"><pitch><step>B</step><octave>4</octave></pitch><duration>1</duration><voice>1</voice><type>eighth</type><stem>up</stem><beam number="1">end</beam><lyric number="1"><syllabic>single</syllabic><text>came</text></lyric></note><note default-y="-15.00" default-x="124.14"><pitch><step>C</step><octave>5</octave></pitch><duration>2</duration><voice>1</voice><type>quarter</type><stem>down</stem><lyric number="1"><syllabic>single</syllabic><text>and</text></lyric></note><note default-y="-30.00" default-x="199.60"><pitch><step>G</step><alter>1</alter><octave>4</octave></pitch><duration>1</duration><voice>1</voice><type>eighth</type><accidental>sharp</accidental><stem>up</stem><beam number="1">begin</beam><lyric number="1"><syllabic>single</syllabic><text>told</text></lyric></note><note default-y="-20.00" default-x="246.76"><pitch><step>B</step><octave>4</octave></pitch><duration>1</duration><voice>1</voice><type>eighth</type><stem>up</stem><beam number="1">end</beam><lyric number="1"><syllabic>single</syllabic><text>me</text></lyric></note><note default-y="-15.00" default-x="293.92"><pitch><step>C</step><octave>5</octave></pitch><duration>2</duration><voice>1</voice><type>quarter</type><stem>down</stem><lyric number="1"><syllabic>single</syllabic><text>I</text></lyric></note></measure><measure width="309.76" number="13"><print new-system="yes"><system-layout><system-margins><left-margin>0.00</left-margin><right-margin>-0.00</right-margin></system-margins><system-distance>129.51</system-distance></system-layout></print><harmony print-frame="no"><root><root-step>F</root-step></root><kind text="">major</kind></harmony><note default-y="-25.00" default-x="84.21"><pitch><step>A</step><octave>4</octave></pitch><duration>1</duration><voice>1</voice><type>eighth</type><stem>up</stem><beam number="1">begin</beam><lyric number="1"><syllabic>begin</syllabic><text>should</text></lyric></note><note default-y="-20.00" default-x="131.01"><pitch><step>B</step><octave>4</octave></pitch><duration>1</duration><voice>1</voice><type>eighth</type><stem>up</stem><beam number="1">end</beam><lyric number="1"><syllabic>end</syllabic><text>n't</text></lyric></note><note default-y="-15.00" default-x="172.34"><pitch><step>C</step><octave>5</octave></pitch><duration>4</duration><voice>1</voice><type>half</type><stem>down</stem><lyric number="1"><syllabic>single</syllabic><text>sleep</text></lyric></note><note default-y="-20.00" default-x="250.97"><pitch><step>B</step><octave>4</octave></pitch><duration>2</duration><voice>1</voice><type>quarter</type><stem>down</stem><lyric number="1"><syllabic>begin</syllabic><text>Be</text></lyric></note></measure><measure width="322.79" number="14"><harmony print-frame="no"><root><root-step>C</root-step></root><kind text="">major</kind></harmony><note default-y="-15.00" default-x="44.15"><pitch><step>C</step><octave>5</octave></pitch><duration>4</duration><voice>1</voice><type>half</type><stem>down</stem><lyric number="1"><syllabic>end</syllabic><text>witched</text></lyric></note><note default-y="-20.00" default-x="142.16"><pitch><step>B</step><octave>4</octave></pitch><duration>1</duration><voice>1</voice><type>eighth</type><stem>up</stem><beam number="1">begin</beam><lyric number="1"><syllabic>begin</syllabic><text>both</text></lyric></note><note default-y="-25.00" default-x="187.53"><pitch><step>A</step><octave>4</octave></pitch><duration>1</duration><voice>1</voice><type>eighth</type><stem>up</stem><beam number="1">continue</beam><lyric number="1"><syllabic>end</syllabic><text>ered</text></lyric></note><note default-y="-30.00" default-x="232.08"><pitch><step>G</step><octave>4</octave></pitch><duration>1</duration><voice>1</voice><type>eighth</type><stem>up</stem><beam number="1">continue</beam><lyric number="1"><syllabic>single</syllabic><text>and</text></lyric></note><note default-y="-35.00" default-x="276.63"><pitch><step>F</step><alter>1</alter><octave>4</octave></pitch><duration>1</duration><voice>1</voice><type>eighth</type><accidental>sharp</accidental><stem>up</stem><beam number="1">end</beam><lyric number="1"><syllabic>begin</syllabic><text>be</text></lyric></note></measure><measure width="210.02" number="15"><harmony print-frame="no"><root><root-step>G</root-step></root><kind text="7">dominant</kind></harmony><note default-y="-30.00" default-x="28.50"><pitch><step>G</step><octave>4</octave></pitch><duration>2</duration><voice>1</voice><type>quarter</type><stem>up</stem><lyric number="1"><syllabic>middle</syllabic><text>wild</text></lyric></note><note default-y="-45.00" default-x="78.48"><pitch><step>D</step><octave>4</octave></pitch><duration>4</duration><voice>1</voice><type>half</type><stem>up</stem><lyric number="1"><syllabic>end</syllabic><text>ered</text></lyric></note><harmony print-frame="no"><root><root-step>C</root-step></root><kind text="7">dominant</kind></harmony><note default-y="-40.00" default-x="158.44"><pitch><step>E</step><octave>4</octave></pitch><duration>2</duration><voice>1</voice><type>quarter</type><stem>up</stem><lyric number="1"><syllabic>single</syllabic><text>am</text></lyric></note></measure><measure width="117.26" number="16"><harmony print-frame="no"><root><root-step>A</root-step></root><kind text="">major</kind></harmony><note default-y="-25.00" default-x="15.00"><pitch><step>A</step><octave>4</octave></pitch><duration>8</duration><tie type="start"/><voice>1</voice><type>whole</type><notations><tied type="start"/></notations><lyric number="1"><syllabic>single</syllabic><text>I</text><extend/></lyric></note></measure><measure width="117.26" number="17"><harmony print-frame="no"><root><root-step>A</root-step></root><kind text="7">dominant</kind></harmony><note default-y="-25.00" default-x="15.00"><pitch><step>A</step><octave>4</octave></pitch><duration>8</duration><tie type="stop"/><voice>1</voice><type>whole</type><notations><tied type="stop"/></notations></note></measure><measure width="343.66" number="18"><print new-system="yes"><system-layout><system-margins><left-margin>0.00</left-margin><right-margin>-0.00</right-margin></system-margins><system-distance>129.51</system-distance></system-layout></print><harmony print-frame="no"><root><root-step>D</root-step></root><kind text="m">minor</kind></harmony><note default-y="-20.00" default-x="74.18"><pitch><step>B</step><octave>4</octave></pitch><duration>1</duration><voice>1</voice><type>eighth</type><stem>up</stem><beam number="1">begin</beam><lyric number="1"><syllabic>single</syllabic><text>Lost</text></lyric></note><note default-y="-25.00" default-x="116.91"><pitch><step>A</step><octave>4</octave></pitch><duration>1</duration><voice>1</voice><type>eighth</type><stem>up</stem><beam number="1">end</beam><lyric number="1"><syllabic>single</syllabic><text>my</text></lyric></note><note default-y="-35.00" default-x="162.58"><pitch><step>F</step><octave>4</octave></pitch><duration>4</duration><voice>1</voice><type>half</type><stem>up</stem><lyric number="1"><syllabic>single</syllabic><text>heart,</text></lyric></note><note default-y="-20.00" default-x="256.60"><pitch><step>B</step><octave>4</octave></pitch><duration>1</duration><voice>1</voice><type>eighth</type><stem>up</stem><beam number="1">begin</beam><lyric number="1"><syllabic>single</syllabic><text>but</text></lyric></note><note default-y="-25.00" default-x="299.33"><pitch><step>A</step><octave>4</octave></pitch><duration>1</duration><voice>1</voice><type>eighth</type><stem>up</stem><beam number="1">end</beam><lyric number="1"><syllabic>single</syllabic><text>what</text></lyric></note></measure><measure width="133.86" number="19"><note default-y="-35.00" default-x="17.85"><pitch><step>F</step><octave>4</octave></pitch><duration>2</duration><voice>1</voice><type>quarter</type><stem>up</stem><lyric number="1"><syllabic>single</syllabic><text>of</text></lyric></note><note default-y="-35.00" default-x="56.62"><pitch><step>F</step><octave>4</octave></pitch><duration>6</duration><voice>1</voice><type>half</type><dot/><stem>up</stem><lyric number="1"><syllabic>single</syllabic><text>it?</text></lyric></note></measure><measure width="220.46" number="20"><harmony print-frame="no"><root><root-step>A</root-step></root><kind text="m">minor</kind></harmony><note default-y="-20.00" default-x="19.10"><pitch><step>B</step><octave>4</octave></pitch><duration>1</duration><voice>1</voice><type>eighth</type><stem>up</stem><beam number="1">begin</beam><lyric number="1"><syllabic>single</syllabic><text>he</text></lyric></note><note default-y="-25.00" default-x="50.29"><pitch><step>A</step><octave>4</octave></pitch><duration>1</duration><voice>1</voice><type>eighth</type><stem>up</stem><beam number="1">end</beam><lyric number="1"><syllabic>single</syllabic><text>is</text></lyric></note><note default-y="-40.00" default-x="87.86"><pitch><step>E</step><octave>4</octave></pitch><duration>4</duration><voice>1</voice><type>half</type><stem>up</stem><lyric number="1"><syllabic>single</syllabic><text>cold</text></lyric></note><note default-y="-20.00" default-x="156.48"><pitch><step>B</step><octave>4</octave></pitch><duration>1</duration><voice>1</voice><type>eighth</type><stem>up</stem><beam number="1">begin</beam><lyric number="1"><syllabic>single</syllabic><text>I</text></lyric></note><note default-y="-25.00" default-x="187.67"><pitch><step>A</step><octave>4</octave></pitch><duration>1</duration><voice>1</voice><type>eighth</type><stem>up</stem><beam number="1">end</beam><lyric number="1"><syllabic>begin</syllabic><text>a</text></lyric></note></measure><measure width="120.88" number="21"><note default-y="-40.00" default-x="27.86"><pitch><step>E</step><octave>4</octave></pitch><duration>8</duration><voice>1</voice><type>whole</type><lyric number="1"><syllabic>end</syllabic><text>gree</text></lyric></note></measure><measure width="258.24" number="22"><harmony print-frame="no"><root><root-step>G</root-step></root><kind text="7">dominant</kind></harmony><note default-y="-15.00" default-x="21.60"><pitch><step>C</step><octave>5</octave></pitch><duration>1</duration><voice>1</voice><type>eighth</type><stem>down</stem><beam number="1">begin</beam><lyric number="1"><syllabic>single</syllabic><text>He</text></lyric></note><note default-y="-20.00" default-x="57.84"><pitch><step>B</step><octave>4</octave></pitch><duration>1</duration><voice>1</voice><type>eighth</type><stem>down</stem><beam number="1">end</beam><lyric number="1"><syllabic>single</syllabic><text>can</text></lyric></note><note default-y="-30.00" default-x="104.45"><pitch><step>G</step><octave>4</octave></pitch><duration>4</duration><voice>1</voice><type>half</type><stem>up</stem><lyric number="1"><syllabic>single</syllabic><text>laugh</text></lyric></note><note default-y="-15.00" default-x="184.17"><pitch><step>C</step><octave>5</octave></pitch><duration>1</duration><voice>1</voice><type>eighth</type><stem>down</stem><beam number="1">begin</beam><lyric number="1"><syllabic>single</syllabic><text>but</text></lyric></note><note default-y="-20.00" default-x="220.41"><pitch><step>B</step><octave>4</octave></pitch><duration>1</duration><voice>1</voice><type>eighth</type><stem>down</stem><beam number="1">end</beam><lyric number="1"><syllabic>single</syllabic><text>I</text></lyric></note></measure><measure width="373.05" number="23"><print new-system="yes"><system-layout><system-margins><left-margin>0.00</left-margin><right-margin>-0.00</right-margin></system-margins><system-distance>129.51</system-distance></system-layout></print><note default-y="-30.00" default-x="73.55"><pitch><step>G</step><octave>4</octave></pitch><duration>2</duration><voice>1</voice><type>quarter</type><stem>up</stem><lyric number="1"><syllabic>single</syllabic><text>love</text></lyric></note><note default-y="-30.00" default-x="139.35"><pitch><step>G</step><octave>4</octave></pitch><duration>2</duration><voice>1</voice><type>quarter</type><stem>up</stem><lyric number="1"><syllabic>single</syllabic><text>it,</text></lyric></note><note default-y="-25.00" default-x="205.15"><pitch><step>A</step><octave>4</octave></pitch><duration>1</duration><voice>1</voice><type>eighth</type><stem>up</stem><beam number="1">begin</beam><lyric number="1"><syllabic>begin</syllabic><text>Al</text></lyric></note><note default-y="-20.00" default-x="254.63"><pitch><step>B</step><octave>4</octave></pitch><duration>1</duration><voice>1</voice><type>eighth</type><stem>up</stem><beam number="1">end</beam><lyric number="1"><syllabic>end</syllabic><text>though</text></lyric></note><note default-y="-15.00" default-x="305.65"><pitch><step>C</step><octave>5</octave></pitch><duration>2</duration><voice>1</voice><type>quarter</type><stem>down</stem><lyric number="1"><syllabic>single</syllabic><text>the</text></lyric></note></measure><measure width="218.87" number="24"><harmony print-frame="no"><root><root-step>D</root-step></root><kind text="7">dominant</kind></harmony><note default-y="-5.00" default-x="37.90"><pitch><step>E</step><octave>5</octave></pitch><duration>4</duration><voice>1</voice><type>half</type><stem>down</stem><lyric number="1"><syllabic>single</syllabic><text>laughs</text></lyric></note><note default-y="-15.00" default-x="127.59"><pitch><step>C</step><octave>5</octave></pitch><duration>4</duration><voice>1</voice><type>half</type><stem>down</stem><lyric number="1"><syllabic>single</syllabic><text>on</text></lyric></note></measure><measure width="193.22" number="25"><harmony print-frame="no"><root><root-step>G</root-step></root><kind text="7">dominant</kind></harmony><note default-y="-35.00" default-x="25.05"><pitch><step>F</step><octave>4</octave></pitch><duration>6</duration><voice>1</voice><type>half</type><dot/><stem>up</stem><lyric number="1"><syllabic>single</syllabic><text>me.</text></lyric></note><note default-y="-30.00" default-x="135.17"><pitch><step>G</step><octave>4</octave></pitch><duration>2</duration><voice>1</voice><type>quarter</type><stem>up</stem><lyric number="1"><syllabic>single</syllabic><text>I'll</text></lyric></note></measure><measure width="291.96" number="26"><harmony print-frame="no"><root><root-step>C</root-step></root><kind text="">major</kind></harmony><note default-y="-40.00" default-x="27.26"><pitch><step>E</step><octave>4</octave></pitch><duration>1</duration><voice>1</voice><type>eighth</type><stem>up</stem><beam number="1">begin</beam><lyric number="1"><syllabic>single</syllabic><text>sing</text></lyric></note><note default-y="-20.00" default-x="72.62"><pitch><step>B</step><octave>4</octave></pitch><duration>1</duration><voice>1</voice><type>eighth</type><stem>up</stem><beam number="1">end</beam><lyric number="1"><syllabic>single</syllabic><text>to</text></lyric></note><note default-y="-15.00" default-x="117.98"><pitch><step>C</step><octave>5</octave></pitch><duration>4</duration><voice>1</voice><type>half</type><stem>down</stem><lyric number="1"><syllabic>single</syllabic><text>him,</text></lyric></note><note default-y="-40.00" default-x="217.78"><pitch><step>E</step><octave>4</octave></pitch><duration>2</duration><voice>1</voice><type>quarter</type><stem>up</stem><lyric number="1"><syllabic>single</syllabic><text>Each</text></lyric></note></measure><measure width="379.67" number="27"><print new-system="yes"><system-layout><system-margins><left-margin>0.00</left-margin><right-margin>-0.00</right-margin></system-margins><system-distance>129.51</system-distance></system-layout></print><harmony print-frame="no"><root><root-step>G</root-step></root><kind text="7">dominant</kind></harmony><note default-y="-35.00" default-x="82.33"><pitch><step>F</step><octave>4</octave></pitch><duration>1</duration><voice>1</voice><type>eighth</type><stem>up</stem><beam number="1">begin</beam><lyric number="1"><syllabic>single</syllabic><text>spring</text></lyric></note><note default-y="-20.00" default-x="133.32"><pitch><step>B</step><octave>4</octave></pitch><duration>1</duration><voice>1</voice><type>eighth</type><stem>up</stem><beam number="1">end</beam><lyric number="1"><syllabic>single</syllabic><text>to</text></lyric></note><note default-y="-15.00" default-x="184.31"><pitch><step>C</step><octave>5</octave></pitch><duration>4</duration><voice>1</voice><type>half</type><stem>down</stem><lyric number="1"><syllabic>single</syllabic><text>him,</text></lyric></note><note default-y="-35.00" default-x="296.48"><pitch><step>F</step><octave>4</octave></pitch><duration>2</duration><voice>1</voice><type>quarter</type><stem>up</stem><lyric number="1"><syllabic>single</syllabic><text>And</text></lyric></note></measure><measure width="388.52" number="28"><harmony print-frame="no"><root><root-step>C</root-step></root><kind text="">major</kind></harmony><note default-y="-30.00" default-x="28.51"><pitch><step>G</step><octave>4</octave></pitch><duration>1</duration><voice>1</voice><type>eighth</type><stem>up</stem><beam number="1">begin</beam><lyric number="1"><syllabic>single</syllabic><text>long</text></lyric></note><note default-y="-20.00" default-x="78.29"><pitch><step>B</step><octave>4</octave></pitch><duration>1</duration><voice>1</voice><type>eighth</type><stem>up</stem><beam number="1">end</beam><lyric number="1"><syllabic>single</syllabic><text>for</text></lyric></note><note default-y="-15.00" default-x="128.07"><pitch><step>C</step><octave>5</octave></pitch><duration>2</duration><voice>1</voice><type>quarter</type><stem>down</stem><lyric number="1"><syllabic>single</syllabic><text>the</text></lyric></note><note default-y="-30.00" default-x="207.71"><pitch><step>G</step><alter>1</alter><octave>4</octave></pitch><duration>1</duration><voice>1</voice><type>eighth</type><accidental>sharp</accidental><stem>up</stem><beam number="1">begin</beam><lyric number="1"><syllabic>single</syllabic><text>day</text></lyric></note><note default-y="-20.00" default-x="257.49"><pitch><step>B</step><octave>4</octave></pitch><duration>1</duration><voice>1</voice><type>eighth</type><stem>up</stem><beam number="1">end</beam><lyric number="1"><syllabic>single</syllabic><text>when</text></lyric></note><note default-y="-15.00" default-x="307.27"><pitch><step>C</step><octave>5</octave></pitch><duration>2</duration><voice>1</voice><type>quarter</type><stem>down</stem><lyric number="1"><syllabic>single</syllabic><text>I'll</text></lyric></note></measure><measure width="308.91" number="29"><harmony print-frame="no"><root><root-step>F</root-step></root><kind text="">major</kind></harmony><note default-y="-25.00" default-x="31.01"><pitch><step>A</step><octave>4</octave></pitch><duration>1</duration><voice>1</voice><type>eighth</type><stem>up</stem><beam number="1">begin</beam><lyric number="1"><syllabic>single</syllabic><text>cling</text></lyric></note><note default-y="-20.00" default-x="78.64"><pitch><step>B</step><octave>4</octave></pitch><duration>1</duration><voice>1</voice><type>eighth</type><stem>up</stem><beam number="1">end</beam><lyric number="1"><syllabic>single</syllabic><text>to</text></lyric></note><note default-y="-15.00" default-x="126.28"><pitch><step>C</step><octave>5</octave></pitch><duration>4</duration><voice>1</voice><type>half</type><stem>down</stem><lyric number="1"><syllabic>single</syllabic><text>him,</text></lyric></note><note default-y="-20.00" default-x="231.09"><pitch><step>B</step><octave>4</octave></pitch><duration>2</duration><voice>1</voice><type>quarter</type><stem>down</stem><lyric number="1"><syllabic>begin</syllabic><text>Be</text></lyric></note></measure><measure width="359.41" number="30"><print new-system="yes"><system-layout><system-margins><left-margin>0.00</left-margin><right-margin>-0.00</right-margin></system-margins><system-distance>129.51</system-distance></system-layout></print><harmony print-frame="no"><root><root-step>C</root-step></root><kind text="">major</kind></harmony><note default-y="-15.00" default-x="89.83"><pitch><step>C</step><octave>5</octave></pitch><duration>4</duration><voice>1</voice><type>half</type><stem>down</stem><lyric number="1"><syllabic>end</syllabic><text>witched</text></lyric></note><note default-y="-20.00" default-x="184.01"><pitch><step>B</step><octave>4</octave></pitch><duration>1</duration><voice>1</voice><type>eighth</type><stem>up</stem><beam number="1">begin</beam><lyric number="1"><syllabic>begin</syllabic><text>both</text></lyric></note><note default-y="-25.00" default-x="229.38"><pitch><step>A</step><octave>4</octave></pitch><duration>1</duration><voice>1</voice><type>eighth</type><stem>up</stem><beam number="1">continue</beam><lyric number="1"><syllabic>end</syllabic><text>ered</text></lyric></note><note default-y="-30.00" default-x="272.19"><pitch><step>G</step><octave>4</octave></pitch><duration>1</duration><voice>1</voice><type>eighth</type><stem>up</stem><beam number="1">continue</beam><lyric number="1"><syllabic>single</syllabic><text>and</text></lyric></note><note default-y="-35.00" default-x="315.00"><pitch><step>F</step><alter>1</alter><octave>4</octave></pitch><duration>1</duration><voice>1</voice><type>eighth</type><accidental>sharp</accidental><stem>up</stem><beam number="1">end</beam><lyric number="1"><syllabic>begin</syllabic><text>be</text></lyric></note></measure><measure width="200.97" number="31"><harmony print-frame="no"><root><root-step>G</root-step></root><kind text="7">dominant</kind></harmony><note default-y="-30.00" default-x="28.50"><pitch><step>G</step><octave>4</octave></pitch><duration>2</duration><voice>1</voice><type>quarter</type><stem>up</stem><lyric number="1"><syllabic>middle</syllabic><text>wild</text></lyric></note><note default-y="-10.00" default-x="75.96"><pitch><step>D</step><octave>5</octave></pitch><duration>4</duration><voice>1</voice><type>half</type><stem>down</stem><lyric number="1"><syllabic>end</syllabic><text>ered</text></lyric></note><note default-y="-30.00" default-x="151.90"><pitch><step>G</step><octave>4</octave></pitch><duration>2</duration><voice>1</voice><type>quarter</type><stem>up</stem><lyric number="1"><syllabic>single</syllabic><text>am</text></lyric></note></measure><measure width="108.24" number="32"><barline location="left"><ending type="start" number="1"/></barline><harmony print-frame="no"><root><root-step>C</root-step></root><kind text="">major</kind></harmony><note default-y="-15.00" default-x="15.03"><pitch><step>C</step><octave>5</octave></pitch><duration>8</duration><voice>1</voice><type>whole</type><lyric number="1"><syllabic>single</syllabic><text>I.</text></lyric></note></measure><measure width="177.26" number="33"><harmony print-frame="no"><root><root-step>G</root-step></root><kind text="7">dominant</kind></harmony><note><rest/><duration>2</duration><voice>1</voice><type>quarter</type></note><note><rest/><duration>2</duration><voice>1</voice><type>quarter</type></note><note><rest/><duration>2</duration><voice>1</voice><type>quarter</type></note><note default-y="-30.00" default-x="125.33"><pitch><step>G</step><octave>4</octave></pitch><duration>2</duration><voice>1</voice><type>quarter</type><stem>up</stem><lyric number="1"><syllabic>single</syllabic><text>I'm</text></lyric></note><barline location="right"><bar-style>light-heavy</bar-style><ending type="stop" number="1"/><repeat direction="backward"/></barline></measure><measure width="108.21" number="34"><barline location="left"><ending type="start" number="2"/></barline><harmony print-frame="no"><root><root-step>C</root-step></root><kind text="">major</kind></harmony><note default-y="-15.00" default-x="15.00"><pitch><step>C</step><octave>5</octave></pitch><duration>8</duration><tie type="start"/><voice>1</voice><type>whole</type><notations><tied type="start"/></notations><lyric number="1"><syllabic>single</syllabic><text>I</text><extend/></lyric></note></measure><measure width="123.01" number="35"><note default-y="-15.00" default-x="15.00"><pitch><step>C</step><octave>5</octave></pitch><duration>6</duration><tie type="stop"/><voice>1</voice><type>half</type><dot/><stem>down</stem><notations><tied type="stop"/></notations></note><note><rest/><duration>2</duration><voice>1</voice><type>quarter</type></note><barline location="right"><bar-style>light-heavy</bar-style><ending type="stop" number="2"/></barline></measure></part></score-partwise>