<score-partwise version="2.0"><work><work-number/><work-title/></work><movement-number/><movement-title>The Old Lamplighter</movement-title><identification><creator type="composer">Nat Simon</creator><creator type="poet"/><rights>All Rights Reserved</rights><encoding><software>MuseScore 0.9.5</software><encoding-date>2009-10-01</encoding-date><software>ProxyMusic 2.0 c</software></encoding><source>http://www.wikifonia.org/node/2845/revisions/3592/view</source></identification><defaults><scaling><millimeters>7.056</millimeters><tenths>40</tenths></scaling><page-layout><page-height>1683.67</page-height><page-width>1190.48</page-width><page-margins type="both"><left-margin>56.6893</left-margin><right-margin>56.6893</right-margin><top-margin>56.6893</top-margin><bottom-margin>113.379</bottom-margin></page-margins></page-layout></defaults><credit page="1"><credit-words font-size="24" default-y="1626.98" default-x="595.238" justify="center" valign="top">The Old Lamplighter</credit-words></credit><credit page="1"><credit-words font-size="12" default-y="1556.5" default-x="1133.79" justify="right" valign="top">Nat Simon</credit-words></credit><credit page="1"><credit-words font-size="12" default-y="1556.5" default-x="56.6893" justify="left" valign="top">Charles Tobias</credit-words></credit><part-list><part-group type="start" number="1"><group-symbol>brace</group-symbol></part-group><score-part id="P1"><part-name>Piano</part-name><score-instrument id="P1-I3"><instrument-name>Piano</instrument-name></score-instrument><midi-instrument id="P1-I3"><midi-channel>1</midi-channel><midi-program>1</midi-program></midi-instrument></score-part></part-list><part id="P1"><measure width="302.12" number="1"><print><system-layout><system-margins><left-margin>86.73</left-margin><right-margin>0.00</right-margin></system-margins><top-system-distance>213.58</top-system-distance></system-layout></print><attributes><divisions>4</divisions><key><fifths>-1</fifths><mode>major</mode></key><time><beats>4</beats><beat-type>4</beat-type></time><clef><sign>G</sign><line>2</line></clef></attributes><direction><direction-type><words default-y="100">Swing</words></direction-type></direction><note default-y="-50.00" default-x="102.48"><pitch><step>C</step><octave>4</octave></pitch><duration>4</duration><voice>1</voice><type>quarter</type><stem>up</stem><lyric number="1"><syllabic>single</syllabic><text>He</text></lyric></note><note default-y="-35.00" default-x="150.84"><pitch><step>F</step><octave>4</octave></pitch><duration>4</duration><voice>1</voice><type>quarter</type><stem>up</stem><lyric number="1"><syllabic>single</syllabic><text>made</text></lyric></note><note default-y="-25.00" default-x="199.20"><pitch><step>A</step><octave>4</octave></pitch><duration>4</duration><voice>1</voice><type>quarter</type><stem>up</stem><lyric number="1"><syllabic>single</syllabic><text>the</text></lyric></note><note><rest/><duration>4</duration><voice>1</voice><type>quarter</type></note><barline location="right"><bar-style>light-light</bar-style></barline></measure><measure width="231.06" number="2"><harmony print-frame="no"><root><root-step>B</root-step><root-alter>-1</root-alter></root><kind text="">major</kind></harmony><note default-y="-10.00" default-x="31.64"><pitch><step>D</step><octave>5</octave></pitch><duration>8</duration><tie type="start"/><voice>1</voice><type>half</type><stem>down</stem><notations><tied type="start"/></notations><lyric number="1"><syllabic>single</syllabic><text>night</text></lyric></note><note default-y="-10.00" default-x="101.83"><pitch><step>D</step><octave>5</octave></pitch><duration>2</duration><tie type="stop"/><voice>1</voice><type>eighth</type><stem>down</stem><beam number="1">begin</beam><notations><tied type="stop"/></notations></note><note default-y="-15.00" default-x="133.74"><pitch><step>C</step><octave>5</octave></pitch><duration>2</duration><voice>1</voice><type>eighth</type><stem>down</stem><beam number="1">continue</beam><lyric number="1"><syllabic>single</syllabic><text>a</text></lyric></note><harmony print-frame="no"><root><root-step>C</root-step></root><kind text="7">dominant</kind></harmony><note default-y="-15.00" default-x="165.65"><pitch><step>C</step><octave>5</octave></pitch><duration>2</duration><voice>1</voice><type>eighth</type><stem>down</stem><beam number="1">continue</beam><lyric number="1"><syllabic>begin</syllabic><text>lit</text></lyric></note><note default-y="-20.00" default-x="197.55"><pitch><step>B</step><alter>-1</alter><octave>4</octave></pitch><duration>2</duration><voice>1</voice><type>eighth</type><stem>down</stem><beam number="1">end</beam><lyric number="1"><syllabic>end</syllabic><text>tle</text></lyric></note></measure><measure width="219.83" number="3"><harmony print-frame="no"><root><root-step>F</root-step></root><kind text="">major</kind></harmony><note default-y="-20.00" default-x="35.39"><pitch><step>B</step><alter>-1</alter><octave>4</octave></pitch><duration>6</duration><voice>1</voice><type>quarter</type><dot/><stem>down</stem><lyric number="1"><syllabic>begin</syllabic><text>bright</text></lyric></note><note default-y="-25.00" default-x="104.65"><pitch><step>A</step><octave>4</octave></pitch><duration>8</duration><voice>1</voice><type>half</type><stem>up</stem><lyric number="1"><syllabic>middle</syllabic><text>er</text></lyric></note><note default-y="-25.00" default-x="182.74"><pitch><step>A</step><octave>4</octave></pitch><duration>2</duration><voice>1</voice><type>eighth</type><stem>up</stem><lyric number="1"><syllabic>begin</syllabic><text>wher</text></lyric></note></measure><measure width="237.35" number="4"><harmony print-frame="no"><root><root-step>A</root-step></root><kind text="7">dominant</kind></harmony><note default-y="-25.00" default-x="19.10"><pitch><step>A</step><octave>4</octave></pitch><duration>6</duration><voice>1</voice><type>quarter</type><dot/><stem>up</stem><lyric number="1"><syllabic>middle</syllabic><text>ev</text></lyric></note><note default-y="-40.00" default-x="86.80"><pitch><step>E</step><octave>4</octave></pitch><duration>2</duration><voice>1</voice><type>eighth</type><stem>up</stem><lyric number="1"><syllabic>end</syllabic><text>er</text></lyric></note><note default-y="-25.00" default-x="124.72"><pitch><step>A</step><octave>4</octave></pitch><duration>4</duration><voice>1</voice><type>quarter</type><stem>up</stem><lyric number="1"><syllabic>single</syllabic><text>he</text></lyric></note><note default-y="-30.00" default-x="180.24"><pitch><step>G</step><octave>4</octave></pitch><duration>4</duration><voice>1</voice><type>quarter</type><stem>up</stem><lyric number="1"><syllabic>single</syllabic><text>would</text></lyric></note></measure><measure width="239.45" number="5"><print new-system="yes"><system-layout><system-margins><left-margin>75.06</left-margin><right-margin>0.00</right-margin></system-margins><system-distance>138.78</system-distance></system-layout></print><harmony print-frame="no"><root><root-step>D</root-step></root><kind text="m">minor</kind></harmony><note default-y="-35.00" default-x="79.54"><pitch><step>F</step><octave>4</octave></pitch><duration>8</duration><tie type="start"/><voice>1</voice><type>half</type><stem>up</stem><notations><tied type="start"/></notations><lyric number="1"><syllabic>single</syllabic><text>go</text></lyric></note><harmony print-frame="no"><root><root-step>F</root-step></root><kind text="7">dominant</kind></harmony><note default-y="-35.00" default-x="133.49"><pitch><step>F</step><octave>4</octave></pitch><duration>4</duration><tie type="stop"/><voice>1</voice><type>quarter</type><stem>up</stem><notations><tied type="stop"/></notations></note><note><rest/><duration>2</duration><voice>1</voice><type>eighth</type></note><note default-y="-35.00" default-x="205.53"><pitch><step>F</step><octave>4</octave></pitch><duration>2</duration><voice>1</voice><type>eighth</type><stem>up</stem><lyric number="1"><syllabic>single</syllabic><text>The</text></lyric></note></measure><measure width="158.91" number="6"><harmony print-frame="no"><root><root-step>B</root-step><root-alter>-1</root-alter></root><kind text="">major</kind></harmony><note default-y="-45.00" default-x="22.87"><pitch><step>D</step><octave>4</octave></pitch><duration>8</duration><voice>1</voice><type>half</type><stem>up</stem><lyric number="1"><syllabic>single</syllabic><text>old</text></lyric></note><note default-y="-35.00" default-x="90.09"><pitch><step>F</step><octave>4</octave></pitch><duration>8</duration><voice>1</voice><type>half</type><stem>up</stem><lyric number="1"><syllabic>single</syllabic><text>lamp</text></lyric></note></measure><measure width="175.63" number="7"><harmony print-frame="no"><root><root-step>F</root-step></root><kind text="">major</kind></harmony><note default-y="-50.00" default-x="29.13"><pitch><step>C</step><octave>4</octave></pitch><duration>4</duration><voice>1</voice><type>quarter</type><stem>up</stem><lyric number="1"><syllabic>begin</syllabic><text>light</text></lyric></note><note default-y="-35.00" default-x="69.38"><pitch><step>F</step><octave>4</octave></pitch><duration>8</duration><voice>1</voice><type>half</type><stem>up</stem><lyric number="1"><syllabic>end</syllabic><text>er</text></lyric></note><harmony print-frame="no"><root><root-step>B</root-step><root-alter>-1</root-alter></root><kind text="">major</kind></harmony><note default-y="-20.00" default-x="133.78"><pitch><step>B</step><alter>-1</alter><octave>4</octave></pitch><duration>4</duration><voice>1</voice><type>quarter</type><stem>down</stem><lyric number="1"><syllabic>single</syllabic><text>of</text></lyric></note></measure><measure width="188.36" number="8"><harmony print-frame="no"><root><root-step>F</root-step></root><kind text="">major</kind></harmony><note default-y="-25.00" default-x="28.51"><pitch><step>A</step><octave>4</octave></pitch><duration>8</duration><voice>1</voice><type>half</type><stem>up</stem><lyric number="1"><syllabic>single</syllabic><text>long</text></lyric></note><note default-y="-25.00" default-x="98.84"><pitch><step>A</step><octave>4</octave></pitch><duration>4</duration><voice>1</voice><type>quarter</type><stem>up</stem><lyric number="1"><syllabic>single</syllabic><text>long</text></lyric></note><harmony print-frame="no"><root><root-step>G</root-step></root><kind text="7">dominant</kind></harmony><note default-y="-35.00" default-x="142.80"><pitch><step>F</step><octave>4</octave></pitch><duration>4</duration><voice>1</voice><type>quarter</type><stem>up</stem><lyric number="1"><syllabic>begin</syllabic><text>a</text></lyric></note></measure><measure width="239.69" number="9"><harmony print-frame="no"><root><root-step>C</root-step></root><kind text="7">dominant</kind></harmony><note default-y="-30.00" default-x="19.74"><pitch><step>G</step><octave>4</octave></pitch><duration>8</duration><tie type="start"/><voice>1</voice><type>half</type><stem>up</stem><notations><tied type="start"/></notations><lyric number="1"><syllabic>end</syllabic><text>go</text></lyric></note><note default-y="-30.00" default-x="87.93"><pitch><step>G</step><octave>4</octave></pitch><duration>2</duration><tie type="stop"/><voice>1</voice><type>eighth</type><stem>up</stem><beam number="1">begin</beam><notations><tied type="stop"/></notations></note><note default-y="-50.00" default-x="121.75"><pitch><step>C</step><octave>4</octave></pitch><duration>2</duration><voice>1</voice><type>eighth</type><stem>up</stem><beam number="1">continue</beam><lyric number="1"><syllabic>single</syllabic><text>His</text></lyric></note><note default-y="-35.00" default-x="167.13"><pitch><step>F</step><octave>4</octave></pitch><duration>2</duration><voice>1</voice><type>eighth</type><stem>up</stem><beam number="1">continue</beam><lyric number="1"><syllabic>begin</syllabic><text>snow</text></lyric></note><note default-y="-25.00" default-x="202.49"><pitch><step>A</step><octave>4</octave></pitch><duration>2</duration><voice>1</voice><type>eighth</type><stem>up</stem><beam number="1">end</beam><lyric number="1"><syllabic>middle</syllabic><text>y</text></lyric></note><barline location="right"><bar-style>light-light</bar-style></barline></measure><measure width="344.29" number="10"><print new-system="yes"><system-layout><system-margins><left-margin>75.06</left-margin><right-margin>0.00</right-margin></system-margins><system-distance>138.78</system-distance></system-layout></print><barline location="left"><bar-style>heavy-light</bar-style><repeat direction="forward"/></barline><harmony print-frame="no"><root><root-step>B</root-step><root-alter>-1</root-alter></root><kind text="">major</kind></harmony><note default-y="-10.00" default-x="116.60"><pitch><step>D</step><octave>5</octave></pitch><duration>8</duration><tie type="start"/><voice>1</voice><type>half</type><stem>down</stem><notations><tied type="start"/></notations><lyric number="1"><syllabic>single</syllabic><text>hair</text></lyric><lyric number="2"><syllabic>single</syllabic><text>night</text></lyric></note><note default-y="-10.00" default-x="193.04"><pitch><step>D</step><octave>5</octave></pitch><duration>2</duration><tie type="stop"/><voice>1</voice><type>eighth</type><stem>down</stem><beam number="1">begin</beam><notations><tied type="stop"/></notations><lyric number="2"><syllabic>single</syllabic><text>a</text></lyric></note><note default-y="-15.00" default-x="228.73"><pitch><step>C</step><octave>5</octave></pitch><duration>2</duration><voice>1</voice><type>eighth</type><stem>down</stem><beam number="1">continue</beam><lyric number="1"><syllabic>single</syllabic><text>was</text></lyric><lyric number="2"><syllabic>single</syllabic><text>a</text></lyric></note><harmony print-frame="no"><root><root-step>C</root-step></root><kind text="7">dominant</kind></harmony><note default-y="-15.00" default-x="263.48"><pitch><step>C</step><octave>5</octave></pitch><duration>2</duration><voice>1</voice><type>eighth</type><stem>down</stem><beam number="1">continue</beam><lyric number="1"><syllabic>single</syllabic><text>so</text></lyric><lyric number="2"><syllabic>begin</syllabic><text>lit</text></lyric></note><note default-y="-20.00" default-x="306.68"><pitch><step>B</step><alter>-1</alter><octave>4</octave></pitch><duration>2</duration><voice>1</voice><type>eighth</type><stem>down</stem><beam number="1">end</beam><lyric number="1"><syllabic>single</syllabic><text>much</text></lyric><lyric number="2"><syllabic>end</syllabic><text>tle</text></lyric></note></measure><measure width="221.44" number="11"><harmony print-frame="no"><root><root-step>F</root-step></root><kind text="">major</kind></harmony><note default-y="-20.00" default-x="35.39"><pitch><step>B</step><alter>-1</alter><octave>4</octave></pitch><duration>2</duration><voice>1</voice><type>eighth</type><stem>down</stem><lyric number="1"><syllabic>begin</syllabic><text>white</text></lyric><lyric number="2"><syllabic>begin</syllabic><text>bright</text></lyric></note><note default-y="-25.00" default-x="77.00"><pitch><step>A</step><octave>4</octave></pitch><duration>8</duration><voice>1</voice><type>half</type><stem>up</stem><lyric number="1"><syllabic>end</syllabic><text>er</text></lyric><lyric number="2"><syllabic>end</syllabic><text>er</text></lyric></note><note default-y="-25.00" default-x="142.47"><pitch><step>A</step><octave>4</octave></pitch><duration>4</duration><voice>1</voice><type>quarter</type><stem>up</stem><lyric number="1"><syllabic>begin</syllabic><text>be</text></lyric><lyric number="2"><syllabic>begin</syllabic><text>where</text></lyric></note><note><rest/><duration>2</duration><voice>1</voice><type>eighth</type></note></measure><measure width="254.01" number="12"><harmony print-frame="no"><root><root-step>A</root-step></root><kind text="7">dominant</kind></harmony><note default-y="-25.00" default-x="32.88"><pitch><step>A</step><octave>4</octave></pitch><duration>6</duration><voice>1</voice><type>quarter</type><dot/><stem>up</stem><lyric number="1"><syllabic>end</syllabic><text>neath</text></lyric><lyric number="2"><syllabic>middle</syllabic><text>ev</text></lyric></note><note default-y="-40.00" default-x="99.77"><pitch><step>E</step><octave>4</octave></pitch><duration>2</duration><voice>1</voice><type>eighth</type><stem>up</stem><lyric number="1"><syllabic>single</syllabic><text>the</text></lyric><lyric number="2"><syllabic>end</syllabic><text>er</text></lyric></note><note default-y="-25.00" default-x="142.70"><pitch><step>A</step><octave>4</octave></pitch><duration>4</duration><voice>1</voice><type>quarter</type><stem>up</stem><lyric number="1"><syllabic>begin</syllabic><text>can</text></lyric><lyric number="2"><syllabic>single</syllabic><text>he</text></lyric></note><note default-y="-30.00" default-x="197.55"><pitch><step>G</step><octave>4</octave></pitch><duration>4</duration><voice>1</voice><type>quarter</type><stem>up</stem><lyric number="1"><syllabic>end</syllabic><text>dle</text></lyric><lyric number="2"><syllabic>single</syllabic><text>would</text></lyric></note></measure><measure width="182.29" number="13"><harmony print-frame="no"><root><root-step>D</root-step></root><kind text="m">minor</kind></harmony><note default-y="-35.00" default-x="31.01"><pitch><step>F</step><octave>4</octave></pitch><duration>8</duration><tie type="start"/><voice>1</voice><type>half</type><stem>up</stem><notations><tied type="start"/></notations><lyric number="1"><syllabic>single</syllabic><text>glow</text></lyric><lyric number="2"><syllabic>single</syllabic><text>go</text></lyric></note><harmony print-frame="no"><root><root-step>F</root-step></root><kind text="7">dominant</kind></harmony><note default-y="-35.00" default-x="82.13"><pitch><step>F</step><octave>4</octave></pitch><duration>4</duration><tie type="stop"/><voice>1</voice><type>quarter</type><stem>up</stem><notations><tied type="stop"/></notations></note><note><rest/><duration>2</duration><voice>1</voice><type>eighth</type></note><note default-y="-35.00" default-x="148.37"><pitch><step>F</step><octave>4</octave></pitch><duration>2</duration><voice>1</voice><type>eighth</type><stem>up</stem><lyric number="1"><syllabic>single</syllabic><text>the</text></lyric><lyric number="2"><syllabic>single</syllabic><text>the</text></lyric></note></measure><measure width="258.08" number="14"><print new-system="yes"><system-layout><system-margins><left-margin>75.06</left-margin><right-margin>0.00</right-margin></system-margins><system-distance>164.94</system-distance></system-layout></print><harmony print-frame="no"><root><root-step>B</root-step><root-alter>-1</root-alter></root><kind text="">major</kind></harmony><note default-y="-45.00" default-x="82.67"><pitch><step>D</step><octave>4</octave></pitch><duration>8</duration><voice>1</voice><type>half</type><stem>up</stem><lyric number="1"><syllabic>single</syllabic><text>old</text></lyric><lyric number="2"><syllabic>single</syllabic><text>old</text></lyric></note><note default-y="-35.00" default-x="169.57"><pitch><step>F</step><octave>4</octave></pitch><duration>8</duration><voice>1</voice><type>half</type><stem>up</stem><lyric number="1"><syllabic>begin</syllabic><text>lamp</text></lyric><lyric number="2"><syllabic>single</syllabic><text>lamp</text></lyric></note></measure><measure width="214.28" number="15"><harmony print-frame="no"><root><root-step>F</root-step></root><kind text="">major</kind></harmony><note default-y="-50.00" default-x="29.13"><pitch><step>C</step><octave>4</octave></pitch><duration>8</duration><voice>1</voice><type>half</type><stem>up</stem><lyric number="1"><syllabic>middle</syllabic><text>light</text></lyric><lyric number="2"><syllabic>begin</syllabic><text>light</text></lyric></note><note default-y="-35.00" default-x="110.71"><pitch><step>F</step><octave>4</octave></pitch><duration>4</duration><voice>1</voice><type>quarter</type><stem>up</stem><lyric number="1"><syllabic>end</syllabic><text>er</text></lyric><lyric number="2"><syllabic>end</syllabic><text>er</text></lyric></note><harmony print-frame="no"><root><root-step>B</root-step><root-alter>-1</root-alter></root><kind text="">major</kind></harmony><note default-y="-20.00" default-x="161.69"><pitch><step>B</step><alter>-1</alter><octave>4</octave></pitch><duration>4</duration><voice>1</voice><type>quarter</type><stem>down</stem><lyric number="1"><syllabic>single</syllabic><text>of</text></lyric><lyric number="2"><syllabic>single</syllabic><text>of</text></lyric></note></measure><measure width="227.73" number="16"><harmony print-frame="no"><root><root-step>F</root-step></root><kind text="">major</kind></harmony><note default-y="-25.00" default-x="28.51"><pitch><step>A</step><octave>4</octave></pitch><duration>8</duration><voice>1</voice><type>half</type><stem>up</stem><lyric number="1"><syllabic>single</syllabic><text>long</text></lyric><lyric number="2"><syllabic>single</syllabic><text>long</text></lyric></note><harmony print-frame="no"><root><root-step>C</root-step></root><kind text="7">dominant</kind></harmony><note default-y="-25.00" default-x="116.34"><pitch><step>A</step><octave>4</octave></pitch><duration>4</duration><voice>1</voice><type>quarter</type><stem>up</stem><lyric number="1"><syllabic>single</syllabic><text>long</text></lyric><lyric number="2"><syllabic>single</syllabic><text>long</text></lyric></note><note default-y="-30.00" default-x="171.23"><pitch><step>G</step><octave>4</octave></pitch><duration>4</duration><voice>1</voice><type>quarter</type><stem>up</stem><lyric number="1"><syllabic>begin</syllabic><text>a</text></lyric><lyric number="2"><syllabic>begin</syllabic><text>a</text></lyric></note></measure><measure width="301.95" number="17"><harmony print-frame="no"><root><root-step>F</root-step></root><kind text="">major</kind></harmony><note default-y="-35.00" default-x="19.74"><pitch><step>F</step><octave>4</octave></pitch><duration>8</duration><tie type="start"/><voice>1</voice><type>half</type><stem>up</stem><notations><tied type="start"/></notations><lyric number="1"><syllabic>end</syllabic><text>go</text></lyric><lyric number="2"><syllabic>end</syllabic><text>go</text></lyric></note><note default-y="-35.00" default-x="107.11"><pitch><step>F</step><octave>4</octave></pitch><duration>4</duration><tie type="stop"/><voice>1</voice><type>quarter</type><stem>up</stem><notations><tied type="stop"/></notations></note><note default-y="-50.00" default-x="175.76"><pitch><step>C</step><octave>4</octave></pitch><duration>2</duration><voice>1</voice><type>eighth</type><stem>up</stem><beam number="1">begin</beam><lyric number="1"><syllabic>single</syllabic><text>You'd</text></lyric><lyric number="2"><syllabic>single</syllabic><text>Now</text></lyric></note><note default-y="-35.00" default-x="226.91"><pitch><step>F</step><octave>4</octave></pitch><duration>1</duration><voice>1</voice><type>16th</type><stem>up</stem><beam number="1">continue</beam><lyric number="1"><syllabic>single</syllabic><text>hear</text></lyric><lyric number="2"><syllabic>single</syllabic><text>if</text></lyric></note><note default-y="-30.00" default-x="269.14"><pitch><step>G</step><alter>-1</alter><octave>4</octave></pitch><duration>1</duration><voice>1</voice><type>16th</type><accidental>flat</accidental><stem>up</stem><beam number="1">end</beam><lyric number="1"><syllabic>single</syllabic><text>the</text></lyric><lyric number="2"><syllabic>single</syllabic><text>you</text></lyric></note></measure><measure width="541.50" number="18"><print new-system="yes"><system-layout><system-margins><left-margin>75.06</left-margin><right-margin>0.00</right-margin></system-margins><system-distance>164.94</system-distance></system-layout></print><harmony print-frame="no"><root><root-step>F</root-step></root><kind text="">major</kind></harmony><note default-y="-25.00" default-x="88.31"><pitch><step>A</step><octave>4</octave></pitch><duration>2</duration><voice>1</voice><type>eighth</type><stem>up</stem><beam number="1">begin</beam><lyric number="1"><syllabic>begin</syllabic><text>pat</text></lyric><lyric number="2"><syllabic>single</syllabic><text>look</text></lyric></note><note default-y="-15.00" default-x="144.76"><pitch><step>C</step><octave>5</octave></pitch><duration>2</duration><voice>1</voice><type>eighth</type><stem>up</stem><beam number="1">continue</beam><lyric number="1"><syllabic>end</syllabic><text>ter</text></lyric><lyric number="2"><syllabic>single</syllabic><text>up</text></lyric></note><note default-y="-25.00" default-x="201.20"><pitch><step>A</step><octave>4</octave></pitch><duration>2</duration><voice>1</voice><type>eighth</type><stem>up</stem><beam number="1">continue</beam><lyric number="1"><syllabic>single</syllabic><text>of</text></lyric><lyric number="2"><syllabic>single</syllabic><text>at</text></lyric></note><note default-y="-30.00" default-x="257.65"><pitch><step>G</step><octave>4</octave></pitch><duration>2</duration><voice>1</voice><type>eighth</type><stem>up</stem><beam number="1">end</beam><lyric number="1"><syllabic>single</syllabic><text>his</text></lyric><lyric number="2"><syllabic>single</syllabic><text>the</text></lyric></note><note default-y="-35.00" default-x="314.10"><pitch><step>F</step><octave>4</octave></pitch><duration>2</duration><voice>1</voice><type>eighth</type><stem>up</stem><beam number="1">begin</beam><lyric number="1"><syllabic>single</syllabic><text>feet</text></lyric><lyric number="2"><syllabic>single</syllabic><text>sky</text></lyric></note><note default-y="-50.00" default-x="370.55"><pitch><step>C</step><octave>4</octave></pitch><duration>2</duration><voice>1</voice><type>eighth</type><stem>up</stem><beam number="1">continue</beam><lyric number="1"><syllabic>single</syllabic><text>as</text></lyric><lyric number="2"><syllabic>single</syllabic><text>you'll</text></lyric></note><note default-y="-35.00" default-x="427.00"><pitch><step>F</step><octave>4</octave></pitch><duration>2</duration><voice>1</voice><type>eighth</type><stem>up</stem><beam number="1">continue</beam><lyric number="1"><syllabic>single</syllabic><text>he</text></lyric><lyric number="2"><syllabic>begin</syllabic><text>un</text></lyric></note><note default-y="-30.00" default-x="483.45"><pitch><step>G</step><octave>4</octave></pitch><duration>2</duration><voice>1</voice><type>eighth</type><stem>up</stem><beam number="1">end</beam><lyric number="1"><syllabic>single</syllabic><text>came</text></lyric><lyric number="2"><syllabic>middle</syllabic><text>der</text></lyric></note></measure><measure width="460.54" number="19"><note default-y="-25.00" default-x="32.26"><pitch><step>A</step><octave>4</octave></pitch><duration>2</duration><voice>1</voice><type>eighth</type><stem>up</stem><beam number="1">begin</beam><lyric number="1"><syllabic>begin</syllabic><text>tod</text></lyric><lyric number="2"><syllabic>end</syllabic><text>stand</text></lyric></note><note default-y="-15.00" default-x="93.64"><pitch><step>C</step><octave>5</octave></pitch><duration>2</duration><voice>1</voice><type>eighth</type><stem>up</stem><beam number="1">continue</beam><lyric number="1"><syllabic>end</syllabic><text>dling</text></lyric><lyric number="2"><syllabic>single</syllabic><text>the</text></lyric></note><note default-y="-25.00" default-x="155.03"><pitch><step>A</step><octave>4</octave></pitch><duration>2</duration><voice>1</voice><type>eighth</type><stem>up</stem><beam number="1">continue</beam><lyric number="1"><syllabic>single</syllabic><text>down</text></lyric><lyric number="2"><syllabic>begin</syllabic><text>rea</text></lyric></note><note default-y="-30.00" default-x="216.41"><pitch><step>G</step><octave>4</octave></pitch><duration>2</duration><voice>1</voice><type>eighth</type><stem>up</stem><beam number="1">end</beam><lyric number="1"><syllabic>single</syllabic><text>the</text></lyric><lyric number="2"><syllabic>end</syllabic><text>son</text></lyric></note><note default-y="-35.00" default-x="277.79"><pitch><step>F</step><octave>4</octave></pitch><duration>6</duration><voice>1</voice><type>quarter</type><dot/><stem>up</stem><lyric number="1"><syllabic>single</syllabic><text>street</text></lyric><lyric number="2"><syllabic>single</syllabic><text>why</text></lyric></note><note default-y="-30.00" default-x="397.55"><pitch><step>G</step><octave>4</octave></pitch><duration>2</duration><voice>1</voice><type>eighth</type><stem>up</stem><lyric number="1"><syllabic>single</syllabic><text>his</text></lyric><lyric number="2"><syllabic>single</syllabic><text>the</text></lyric></note></measure><measure width="616.59" number="20"><print new-system="yes"><system-layout><system-margins><left-margin>75.06</left-margin><right-margin>0.00</right-margin></system-margins><system-distance>164.94</system-distance></system-layout></print><note default-y="-25.00" default-x="92.68"><pitch><step>A</step><octave>4</octave></pitch><duration>2</duration><voice>1</voice><type>eighth</type><stem>up</stem><beam number="1">begin</beam><lyric number="1"><syllabic>single</syllabic><text>smile</text></lyric><lyric number="2"><syllabic>begin</syllabic><text>lit</text></lyric></note><note default-y="-15.00" default-x="157.97"><pitch><step>C</step><octave>5</octave></pitch><duration>2</duration><voice>1</voice><type>eighth</type><stem>up</stem><beam number="1">continue</beam><lyric number="1"><syllabic>single</syllabic><text>would</text></lyric><lyric number="2"><syllabic>end</syllabic><text>tle</text></lyric></note><note default-y="-25.00" default-x="223.26"><pitch><step>A</step><octave>4</octave></pitch><duration>2</duration><voice>1</voice><type>eighth</type><stem>up</stem><beam number="1">continue</beam><lyric number="1"><syllabic>single</syllabic><text>hide</text></lyric><lyric number="2"><syllabic>single</syllabic><text>stars</text></lyric></note><note default-y="-30.00" default-x="288.55"><pitch><step>G</step><octave>4</octave></pitch><duration>2</duration><voice>1</voice><type>eighth</type><stem>up</stem><beam number="1">end</beam><lyric number="1"><syllabic>single</syllabic><text>a</text></lyric><lyric number="2"><syllabic>single</syllabic><text>at</text></lyric></note><note default-y="-35.00" default-x="353.84"><pitch><step>F</step><octave>4</octave></pitch><duration>2</duration><voice>1</voice><type>eighth</type><stem>up</stem><beam number="1">begin</beam><lyric number="1"><syllabic>begin</syllabic><text>lone</text></lyric><lyric number="2"><syllabic>single</syllabic><text>night</text></lyric></note><note default-y="-50.00" default-x="419.13"><pitch><step>C</step><octave>4</octave></pitch><duration>2</duration><voice>1</voice><type>eighth</type><stem>up</stem><beam number="1">continue</beam><lyric number="1"><syllabic>end</syllabic><text>ly</text></lyric><lyric number="2"><syllabic>single</syllabic><text>are</text></lyric></note><note default-y="-35.00" default-x="484.41"><pitch><step>F</step><octave>4</octave></pitch><duration>2</duration><voice>1</voice><type>eighth</type><stem>up</stem><beam number="1">continue</beam><lyric number="1"><syllabic>single</syllabic><text>heart</text></lyric><lyric number="2"><syllabic>single</syllabic><text>all</text></lyric></note><note default-y="-30.00" default-x="549.70"><pitch><step>G</step><octave>4</octave></pitch><duration>2</duration><voice>1</voice><type>eighth</type><stem>up</stem><beam number="1">end</beam><lyric number="1"><syllabic>single</syllabic><text>you</text></lyric><lyric number="2"><syllabic>begin</syllabic><text>a</text></lyric></note></measure><measure width="385.44" number="21"><note default-y="-25.00" default-x="33.01"><pitch><step>A</step><octave>4</octave></pitch><duration>8</duration><tie type="start"/><voice>1</voice><type>half</type><stem>up</stem><notations><tied type="start"/></notations><lyric number="1"><syllabic>single</syllabic><text>see</text></lyric><lyric number="2"><syllabic>middle</syllabic><text>glow.</text></lyric></note><note><rest/><duration>2</duration><voice>1</voice><type>eighth</type></note><note default-y="-45.00" default-x="214.09"><pitch><step>D</step><octave>4</octave></pitch><duration>2</duration><voice>1</voice><type>eighth</type><stem>up</stem><beam number="1">begin</beam><lyric number="1"><syllabic>single</syllabic><text>If</text></lyric></note><note default-y="-30.00" default-x="270.67"><pitch><step>G</step><octave>4</octave></pitch><duration>2</duration><voice>1</voice><type>eighth</type><stem>up</stem><beam number="1">continue</beam><lyric number="1"><syllabic>single</syllabic><text>there</text></lyric></note><note default-y="-25.00" default-x="327.26"><pitch><step>A</step><octave>4</octave></pitch><duration>2</duration><tie type="stop"/><voice>1</voice><type>eighth</type><stem>up</stem><beam number="1">end</beam><notations><tied type="stop"/></notations><lyric number="1"><syllabic>single</syllabic><text>were</text></lyric></note></measure><measure width="571.26" number="22"><print new-system="yes"><system-layout><system-margins><left-margin>75.06</left-margin><right-margin>0.00</right-margin></system-margins><system-distance>164.94</system-distance></system-layout></print><harmony print-frame="no"><root><root-step>G</root-step></root><kind text="m">minor</kind></harmony><note default-y="-20.00" default-x="93.93"><pitch><step>B</step><alter>-1</alter><octave>4</octave></pitch><duration>2</duration><voice>1</voice><type>eighth</type><stem>down</stem><beam number="1">begin</beam><lyric number="1"><syllabic>begin</syllabic><text>sweet</text></lyric></note><note default-y="-10.00" default-x="153.39"><pitch><step>D</step><octave>5</octave></pitch><duration>2</duration><voice>1</voice><type>eighth</type><stem>down</stem><beam number="1">continue</beam><lyric number="1"><syllabic>end</syllabic><text>hearts</text></lyric></note><note default-y="-20.00" default-x="212.86"><pitch><step>B</step><alter>-1</alter><octave>4</octave></pitch><duration>2</duration><voice>1</voice><type>eighth</type><stem>down</stem><beam number="1">continue</beam><lyric number="1"><syllabic>single</syllabic><text>in</text></lyric></note><note default-y="-25.00" default-x="272.33"><pitch><step>A</step><octave>4</octave></pitch><duration>2</duration><voice>1</voice><type>eighth</type><stem>down</stem><beam number="1">end</beam><lyric number="1"><syllabic>single</syllabic><text>the</text></lyric></note><note default-y="-30.00" default-x="331.79"><pitch><step>G</step><octave>4</octave></pitch><duration>2</duration><voice>1</voice><type>eighth</type><stem>up</stem><beam number="1">begin</beam><lyric number="1"><syllabic>single</syllabic><text>park</text></lyric></note><note default-y="-45.00" default-x="391.26"><pitch><step>D</step><octave>4</octave></pitch><duration>2</duration><voice>1</voice><type>eighth</type><stem>up</stem><beam number="1">continue</beam><lyric number="1"><syllabic>single</syllabic><text>he'd</text></lyric></note><note default-y="-30.00" default-x="450.73"><pitch><step>G</step><octave>4</octave></pitch><duration>2</duration><voice>1</voice><type>eighth</type><stem>up</stem><beam number="1">continue</beam><lyric number="1"><syllabic>single</syllabic><text>pass</text></lyric></note><note default-y="-25.00" default-x="510.20"><pitch><step>A</step><octave>4</octave></pitch><duration>2</duration><voice>1</voice><type>eighth</type><stem>up</stem><beam number="1">end</beam><lyric number="1"><syllabic>single</syllabic><text>a</text></lyric></note></measure><measure width="430.77" number="23"><note default-y="-20.00" default-x="31.00"><pitch><step>B</step><alter>-1</alter><octave>4</octave></pitch><duration>2</duration><voice>1</voice><type>eighth</type><stem>down</stem><beam number="1">begin</beam><lyric number="1"><syllabic>single</syllabic><text>lamp</text></lyric></note><note default-y="-10.00" default-x="88.28"><pitch><step>D</step><octave>5</octave></pitch><duration>2</duration><voice>1</voice><type>eighth</type><stem>down</stem><beam number="1">continue</beam><lyric number="1"><syllabic>single</syllabic><text>and</text></lyric></note><note default-y="-20.00" default-x="145.57"><pitch><step>B</step><alter>-1</alter><octave>4</octave></pitch><duration>2</duration><voice>1</voice><type>eighth</type><stem>down</stem><beam number="1">continue</beam><lyric number="1"><syllabic>single</syllabic><text>leave</text></lyric></note><note default-y="-25.00" default-x="202.85"><pitch><step>A</step><octave>4</octave></pitch><duration>2</duration><voice>1</voice><type>eighth</type><stem>down</stem><beam number="1">end</beam><lyric number="1"><syllabic>single</syllabic><text>it</text></lyric></note><note default-y="-30.00" default-x="260.13"><pitch><step>G</step><octave>4</octave></pitch><duration>6</duration><voice>1</voice><type>quarter</type><dot/><stem>up</stem><lyric number="1"><syllabic>single</syllabic><text>dark</text></lyric></note><note default-y="-25.00" default-x="371.89"><pitch><step>A</step><octave>4</octave></pitch><duration>2</duration><voice>1</voice><type>eighth</type><stem>up</stem><lyric number="1"><syllabic>begin</syllabic><text>Re</text></lyric></note></measure><measure width="621.13" number="24"><print new-page="yes"><system-layout><system-margins><left-margin>75.06</left-margin><right-margin>0.00</right-margin></system-margins><top-system-distance>70.00</top-system-distance></system-layout></print><note default-y="-20.00" default-x="90.79"><pitch><step>B</step><alter>-1</alter><octave>4</octave></pitch><duration>2</duration><voice>1</voice><type>eighth</type><stem>down</stem><beam number="1">begin</beam><lyric number="1"><syllabic>middle</syllabic><text>mem</text></lyric></note><note default-y="-10.00" default-x="156.89"><pitch><step>D</step><octave>5</octave></pitch><duration>2</duration><voice>1</voice><type>eighth</type><stem>down</stem><beam number="1">continue</beam><lyric number="1"><syllabic>middle</syllabic><text>ber</text></lyric></note><note default-y="-20.00" default-x="222.98"><pitch><step>B</step><alter>-1</alter><octave>4</octave></pitch><duration>2</duration><voice>1</voice><type>eighth</type><stem>down</stem><beam number="1">continue</beam><lyric number="1"><syllabic>end</syllabic><text>ing</text></lyric></note><note default-y="-25.00" default-x="289.07"><pitch><step>A</step><octave>4</octave></pitch><duration>2</duration><voice>1</voice><type>eighth</type><stem>down</stem><beam number="1">end</beam><lyric number="1"><syllabic>single</syllabic><text>the</text></lyric></note><note default-y="-30.00" default-x="355.16"><pitch><step>G</step><octave>4</octave></pitch><duration>2</duration><voice>1</voice><type>eighth</type><stem>up</stem><beam number="1">begin</beam><lyric number="1"><syllabic>single</syllabic><text>days</text></lyric></note><note default-y="-45.00" default-x="421.26"><pitch><step>D</step><octave>4</octave></pitch><duration>2</duration><voice>1</voice><type>eighth</type><stem>up</stem><beam number="1">continue</beam><lyric number="1"><syllabic>single</syllabic><text>that</text></lyric></note><note default-y="-30.00" default-x="487.35"><pitch><step>G</step><octave>4</octave></pitch><duration>2</duration><voice>1</voice><type>eighth</type><stem>up</stem><beam number="1">continue</beam><lyric number="1"><syllabic>single</syllabic><text>used</text></lyric></note><note default-y="-25.00" default-x="553.44"><pitch><step>A</step><octave>4</octave></pitch><duration>2</duration><voice>1</voice><type>eighth</type><stem>up</stem><beam number="1">end</beam><lyric number="1"><syllabic>single</syllabic><text>to</text></lyric></note></measure><measure width="380.90" number="25"><note default-y="-20.00" default-x="19.10"><pitch><step>B</step><alter>-1</alter><octave>4</octave></pitch><duration>8</duration><voice>1</voice><type>half</type><stem>down</stem><lyric number="1"><syllabic>single</syllabic><text>be</text></lyric></note><note default-y="-20.00" default-x="146.91"><pitch><step>B</step><alter>-1</alter><octave>4</octave></pitch><duration>2</duration><voice>1</voice><type>eighth</type><stem>up</stem><beam number="1">begin</beam></note><note default-y="-50.00" default-x="205.01"><pitch><step>C</step><octave>4</octave></pitch><duration>2</duration><voice>1</voice><type>eighth</type><stem>up</stem><beam number="1">continue</beam><lyric number="1"><syllabic>single</syllabic><text>for</text></lyric></note><note default-y="-35.00" default-x="263.11"><pitch><step>F</step><octave>4</octave></pitch><duration>2</duration><voice>1</voice><type>eighth</type><stem>up</stem><beam number="1">continue</beam><lyric number="1"><syllabic>single</syllabic><text>he</text></lyric></note><note default-y="-30.00" default-x="321.20"><pitch><step>G</step><octave>4</octave></pitch><duration>2</duration><voice>1</voice><type>eighth</type><stem>up</stem><beam number="1">end</beam><lyric number="1"><syllabic>begin</syllabic><text>re</text></lyric></note></measure><measure width="604.37" number="26"><print new-system="yes"><system-layout><system-margins><left-margin>75.06</left-margin><right-margin>0.00</right-margin></system-margins><system-distance>105.20</system-distance></system-layout></print><harmony print-frame="no"><root><root-step>F</root-step></root><kind text="">major</kind></harmony><note default-y="-25.00" default-x="88.92"><pitch><step>A</step><octave>4</octave></pitch><duration>2</duration><voice>1</voice><type>eighth</type><stem>up</stem><beam number="1">begin</beam><lyric number="1"><syllabic>end</syllabic><text>calls</text></lyric></note><note default-y="-15.00" default-x="153.15"><pitch><step>C</step><octave>5</octave></pitch><duration>2</duration><voice>1</voice><type>eighth</type><stem>up</stem><beam number="1">continue</beam><lyric number="1"><syllabic>single</syllabic><text>when</text></lyric></note><note default-y="-25.00" default-x="217.38"><pitch><step>A</step><octave>4</octave></pitch><duration>2</duration><voice>1</voice><type>eighth</type><stem>up</stem><beam number="1">continue</beam><lyric number="1"><syllabic>single</syllabic><text>dreams</text></lyric></note><note default-y="-30.00" default-x="281.61"><pitch><step>G</step><octave>4</octave></pitch><duration>2</duration><voice>1</voice><type>eighth</type><stem>up</stem><beam number="1">end</beam><lyric number="1"><syllabic>single</syllabic><text>were</text></lyric></note><note default-y="-35.00" default-x="345.85"><pitch><step>F</step><octave>4</octave></pitch><duration>2</duration><voice>1</voice><type>eighth</type><stem>up</stem><beam number="1">begin</beam><lyric number="1"><syllabic>single</syllabic><text>new,</text></lyric></note><note default-y="-50.00" default-x="410.08"><pitch><step>C</step><octave>4</octave></pitch><duration>2</duration><voice>1</voice><type>eighth</type><stem>up</stem><beam number="1">continue</beam><lyric number="1"><syllabic>single</syllabic><text>he</text></lyric></note><note default-y="-35.00" default-x="474.31"><pitch><step>F</step><octave>4</octave></pitch><duration>2</duration><voice>1</voice><type>eighth</type><stem>up</stem><beam number="1">continue</beam><lyric number="1"><syllabic>single</syllabic><text>loved</text></lyric></note><note default-y="-30.00" default-x="538.54"><pitch><step>G</step><octave>4</octave></pitch><duration>2</duration><voice>1</voice><type>eighth</type><stem>up</stem><beam number="1">end</beam><lyric number="1"><syllabic>begin</syllabic><text>some</text></lyric></note></measure><measure width="397.67" number="27"><harmony print-frame="no"><root><root-step>F</root-step></root><kind text="">major</kind></harmony><note default-y="-25.00" default-x="24.74"><pitch><step>A</step><octave>4</octave></pitch><duration>2</duration><voice>1</voice><type>eighth</type><stem>up</stem><beam number="1">begin</beam><lyric number="1"><syllabic>end</syllabic><text>one</text></lyric></note><note default-y="-15.00" default-x="78.16"><pitch><step>C</step><octave>5</octave></pitch><duration>2</duration><voice>1</voice><type>eighth</type><stem>up</stem><beam number="1">continue</beam><lyric number="1"><syllabic>single</syllabic><text>who</text></lyric></note><note default-y="-25.00" default-x="131.58"><pitch><step>A</step><octave>4</octave></pitch><duration>2</duration><voice>1</voice><type>eighth</type><stem>up</stem><beam number="1">continue</beam><lyric number="1"><syllabic>single</syllabic><text>loved</text></lyric></note><note default-y="-30.00" default-x="185.00"><pitch><step>G</step><octave>4</octave></pitch><duration>2</duration><voice>1</voice><type>eighth</type><stem>up</stem><beam number="1">end</beam><lyric number="1"><syllabic>single</syllabic><text>him</text></lyric></note><note default-y="-35.00" default-x="238.42"><pitch><step>F</step><octave>4</octave></pitch><duration>6</duration><voice>1</voice><type>quarter</type><dot/><stem>up</stem><lyric number="1"><syllabic>single</syllabic><text>too</text></lyric></note><note default-y="-30.00" default-x="342.64"><pitch><step>G</step><octave>4</octave></pitch><duration>2</duration><voice>1</voice><type>eighth</type><stem>up</stem><lyric number="1"><syllabic>single</syllabic><text>who</text></lyric></note></measure><measure width="604.54" number="28"><print new-system="yes"><system-layout><system-margins><left-margin>75.06</left-margin><right-margin>0.00</right-margin></system-margins><system-distance>105.20</system-distance></system-layout></print><note default-y="-25.00" default-x="94.56"><pitch><step>A</step><octave>4</octave></pitch><duration>2</duration><voice>1</voice><type>eighth</type><stem>up</stem><beam number="1">begin</beam><lyric number="1"><syllabic>single</syllabic><text>walks</text></lyric></note><note default-y="-15.00" default-x="158.11"><pitch><step>C</step><octave>5</octave></pitch><duration>2</duration><voice>1</voice><type>eighth</type><stem>up</stem><beam number="1">continue</beam><lyric number="1"><syllabic>single</syllabic><text>with</text></lyric></note><note default-y="-25.00" default-x="221.66"><pitch><step>A</step><octave>4</octave></pitch><duration>2</duration><voice>1</voice><type>eighth</type><stem>up</stem><beam number="1">continue</beam><lyric number="1"><syllabic>single</syllabic><text>him</text></lyric></note><note default-y="-30.00" default-x="285.20"><pitch><step>G</step><octave>4</octave></pitch><duration>2</duration><voice>1</voice><type>eighth</type><stem>up</stem><beam number="1">end</beam><lyric number="1"><syllabic>begin</syllabic><text>a</text></lyric></note><harmony print-frame="no"><root><root-step>B</root-step><root-alter>-1</root-alter></root><kind text="">major</kind></harmony><note default-y="-35.00" default-x="348.75"><pitch><step>F</step><octave>4</octave></pitch><duration>2</duration><voice>1</voice><type>eighth</type><stem>up</stem><beam number="1">begin</beam><lyric number="1"><syllabic>end</syllabic><text>lone</text></lyric></note><note default-y="-50.00" default-x="412.30"><pitch><step>C</step><octave>4</octave></pitch><duration>2</duration><voice>1</voice><type>eighth</type><stem>up</stem><beam number="1">continue</beam><lyric number="1"><syllabic>single</syllabic><text>in</text></lyric></note><harmony print-frame="no"><root><root-step>C</root-step></root><kind text="7">dominant</kind></harmony><note default-y="-40.00" default-x="475.85"><pitch><step>E</step><octave>4</octave></pitch><duration>2</duration><voice>1</voice><type>eighth</type><stem>up</stem><beam number="1">continue</beam><lyric number="1"><syllabic>begin</syllabic><text>mem</text></lyric></note><note default-y="-30.00" default-x="539.39"><pitch><step>G</step><octave>4</octave></pitch><duration>2</duration><voice>1</voice><type>eighth</type><stem>up</stem><beam number="1">end</beam><lyric number="1"><syllabic>middle</syllabic><text>o</text></lyric></note></measure><measure width="397.49" number="29"><harmony print-frame="no"><root><root-step>F</root-step></root><kind text="">major</kind></harmony><note default-y="-35.00" default-x="19.86"><pitch><step>F</step><octave>4</octave></pitch><duration>8</duration><voice>1</voice><type>half</type><stem>up</stem><lyric number="1"><syllabic>end</syllabic><text>ry.</text></lyric></note><note default-y="-35.00" default-x="148.48"><pitch><step>F</step><octave>4</octave></pitch><duration>2</duration><voice>1</voice><type>eighth</type><stem>up</stem><beam number="1">begin</beam></note><note default-y="-50.00" default-x="206.94"><pitch><step>C</step><octave>4</octave></pitch><duration>2</duration><voice>1</voice><type>eighth</type><stem>up</stem><beam number="1">continue</beam><lyric number="1"><syllabic>single</syllabic><text>He</text></lyric></note><note default-y="-35.00" default-x="265.40"><pitch><step>F</step><octave>4</octave></pitch><duration>2</duration><voice>1</voice><type>eighth</type><stem>up</stem><beam number="1">continue</beam><lyric number="1"><syllabic>single</syllabic><text>made</text></lyric></note><note default-y="-25.00" default-x="323.87"><pitch><step>A</step><octave>4</octave></pitch><duration>2</duration><voice>1</voice><type>eighth</type><stem>up</stem><beam number="1">end</beam><lyric number="1"><syllabic>single</syllabic><text>the</text></lyric></note><barline location="right"><bar-style>light-heavy</bar-style><repeat direction="backward"/></barline></measure></part></score-partwise>