<score-partwise version="2.0"><work><work-number/><work-title/></work><movement-number/><movement-title>You Raise Me Up</movement-title><identification><creator type="composer">Rolf Løvland</creator><creator type="poet">Brendan Graham</creator><rights>All Rights Reserved</rights><encoding><software>MuseScore 0.9.5</software><encoding-date>2009-10-05</encoding-date><software>ProxyMusic 2.0 c</software></encoding><source>http://www.wikifonia.org/node/2923/revisions/3694/view</source></identification><defaults><scaling><millimeters>7.056</millimeters><tenths>40</tenths></scaling><page-layout><page-height>1683.67</page-height><page-width>1190.48</page-width><page-margins type="both"><left-margin>56.6893</left-margin><right-margin>56.6893</right-margin><top-margin>56.6893</top-margin><bottom-margin>113.379</bottom-margin></page-margins></page-layout></defaults><credit page="1"><credit-words font-size="24" default-y="1626.98" default-x="595.238" justify="center" valign="top">You raised me up</credit-words></credit><credit page="1"><credit-words font-size="12" default-y="1556.5" default-x="1133.79" justify="right" valign="top">Rolf Lovland and Brendan Graham</credit-words></credit><credit page="1"><credit-words font-size="12" default-y="1556.5" default-x="56.6893" justify="left" valign="top">Ballad</credit-words></credit><part-list><score-part id="P1"><part-name>Piano</part-name><score-instrument id="P1-I3"><instrument-name>Piano</instrument-name></score-instrument><midi-instrument id="P1-I3"><midi-channel>1</midi-channel><midi-program>1</midi-program></midi-instrument></score-part></part-list><part id="P1"><measure width="267.04" number="1"><print><system-layout><system-margins><left-margin>68.23</left-margin><right-margin>-0.00</right-margin></system-margins><top-system-distance>260.82</top-system-distance></system-layout></print><attributes><divisions>480</divisions><key><fifths>2</fifths><mode>major</mode></key><time><beats>4</beats><beat-type>4</beat-type></time><clef><sign>G</sign><line>2</line></clef></attributes><harmony print-frame="no"><root><root-step>D</root-step></root><kind text="">major</kind></harmony><note default-y="-60.00" default-x="128.17"><pitch><step>A</step><octave>3</octave></pitch><duration>240</duration><voice>1</voice><type>eighth</type><stem>up</stem><lyric number="1"><syllabic>single</syllabic><text>When</text></lyric></note><note default-y="-60.00" default-x="173.93"><pitch><step>A</step><octave>3</octave></pitch><duration>240</duration><voice>1</voice><type>eighth</type><stem>up</stem><beam number="1">begin</beam><lyric number="1"><syllabic>single</syllabic><text>I</text></lyric></note><note default-y="-45.00" default-x="219.69"><pitch><step>D</step><octave>4</octave></pitch><duration>240</duration><voice>1</voice><type>eighth</type><stem>up</stem><beam number="1">end</beam><lyric number="1"><syllabic>single</syllabic><text>am</text></lyric></note></measure><measure width="367.93" number="2"><note default-y="-35.00" default-x="33.51"><pitch><step>F</step><alter>1</alter><octave>4</octave></pitch><duration>720</duration><voice>1</voice><type>quarter</type><dot/><stem>up</stem><lyric number="1"><syllabic>single</syllabic><text>down</text></lyric></note><note default-y="-45.00" default-x="126.93"><pitch><step>D</step><octave>4</octave></pitch><duration>240</duration><voice>1</voice><type>eighth</type><stem>up</stem><lyric number="1"><syllabic>single</syllabic><text>and</text></lyric></note><harmony print-frame="no"><root><root-step>G</root-step></root><kind text="">major</kind></harmony><note default-y="-40.00" default-x="174.81"><pitch><step>E</step><octave>4</octave></pitch><duration>240</duration><voice>1</voice><type>eighth</type><stem>up</stem><beam number="1">begin</beam><lyric number="1"><syllabic>single</syllabic><text>oh</text></lyric></note><note default-y="-45.00" default-x="222.69"><pitch><step>D</step><octave>4</octave></pitch><duration>240</duration><voice>1</voice><type>eighth</type><stem>up</stem><beam number="1">continue</beam><lyric number="1"><syllabic>single</syllabic><text>my</text></lyric></note><note default-y="-45.00" default-x="270.57"><pitch><step>D</step><octave>4</octave></pitch><duration>240</duration><voice>1</voice><type>eighth</type><stem>up</stem><beam number="1">continue</beam><lyric number="1"><syllabic>single</syllabic><text>soul</text></lyric></note><note default-y="-55.00" default-x="318.45"><pitch><step>B</step><octave>3</octave></pitch><duration>240</duration><voice>1</voice><type>eighth</type><stem>up</stem><beam number="1">end</beam><lyric number="1"><syllabic>single</syllabic><text>so</text></lyric></note></measure><measure width="373.89" number="3"><harmony print-frame="no"><root><root-step>D</root-step></root><kind text="">major</kind></harmony><note default-y="-60.00" default-x="30.36"><pitch><step>A</step><octave>3</octave></pitch><duration>240</duration><voice>1</voice><type>eighth</type><stem>up</stem><lyric number="1"><syllabic>begin</syllabic><text>wear</text></lyric></note><note default-y="-45.00" default-x="74.82"><pitch><step>D</step><octave>4</octave></pitch><duration>480</duration><voice>1</voice><type>quarter</type><stem>up</stem><lyric number="1"><syllabic>end</syllabic><text>y</text></lyric></note><note><rest/><duration>240</duration><voice>1</voice><type>eighth</type></note><note><rest/><duration>240</duration><voice>1</voice><type>eighth</type></note><note default-y="-45.00" default-x="234.87"><pitch><step>D</step><octave>4</octave></pitch><duration>240</duration><voice>1</voice><type>eighth</type><stem>up</stem><lyric number="1"><syllabic>single</syllabic><text>when</text></lyric></note><note default-y="-45.00" default-x="283.37"><pitch><step>D</step><octave>4</octave></pitch><duration>240</duration><voice>1</voice><type>eighth</type><stem>up</stem><beam number="1">begin</beam><lyric number="1"><syllabic>begin</syllabic><text>trou</text></lyric></note><note default-y="-35.00" default-x="327.83"><pitch><step>F</step><alter>1</alter><octave>4</octave></pitch><duration>240</duration><voice>1</voice><type>eighth</type><stem>up</stem><beam number="1">end</beam><lyric number="1"><syllabic>end</syllabic><text>bles</text></lyric></note></measure><measure width="475.47" number="4"><print new-system="yes"><system-layout><system-margins><left-margin>0.00</left-margin><right-margin>-0.00</right-margin></system-margins><system-distance>186.02</system-distance></system-layout></print><note default-y="-25.00" default-x="104.59"><pitch><step>A</step><octave>4</octave></pitch><duration>720</duration><voice>1</voice><type>quarter</type><dot/><stem>up</stem><lyric number="1"><syllabic>single</syllabic><text>come</text></lyric></note><note default-y="-45.00" default-x="208.24"><pitch><step>D</step><octave>4</octave></pitch><duration>240</duration><voice>1</voice><type>eighth</type><stem>up</stem><lyric number="1"><syllabic>single</syllabic><text>and</text></lyric></note><harmony print-frame="no"><root><root-step>G</root-step></root><kind text="">major</kind></harmony><note default-y="-20.00" default-x="261.37"><pitch><step>B</step><octave>4</octave></pitch><duration>240</duration><voice>1</voice><type>eighth</type><stem>up</stem><beam number="1">begin</beam><lyric number="1"><syllabic>single</syllabic><text>my</text></lyric></note><note default-y="-25.00" default-x="314.49"><pitch><step>A</step><octave>4</octave></pitch><duration>240</duration><voice>1</voice><type>eighth</type><stem>up</stem><beam number="1">continue</beam><lyric number="1"><syllabic>single</syllabic><text>heart</text></lyric></note><note default-y="-25.00" default-x="367.62"><pitch><step>A</step><octave>4</octave></pitch><duration>240</duration><voice>1</voice><type>eighth</type><stem>up</stem><beam number="1">continue</beam><lyric number="1"><syllabic>begin</syllabic><text>bur</text></lyric></note><note default-y="-35.00" default-x="420.75"><pitch><step>F</step><alter>1</alter><octave>4</octave></pitch><duration>240</duration><voice>1</voice><type>eighth</type><stem>up</stem><beam number="1">end</beam><lyric number="1"><syllabic>end</syllabic><text>dened</text></lyric></note></measure><measure width="249.53" number="5"><harmony print-frame="no"><root><root-step>A</root-step></root><kind text="">major</kind></harmony><note default-y="-40.00" default-x="19.10"><pitch><step>E</step><octave>4</octave></pitch><duration>960</duration><voice>1</voice><type>half</type><stem>up</stem><lyric number="1"><syllabic>single</syllabic><text>be</text></lyric></note><note><rest/><duration>240</duration><voice>1</voice><type>eighth</type></note><note default-y="-25.00" default-x="137.21"><pitch><step>A</step><octave>4</octave></pitch><duration>240</duration><voice>1</voice><type>eighth</type><stem>up</stem></note><note default-y="-25.00" default-x="174.12"><pitch><step>A</step><octave>4</octave></pitch><duration>240</duration><voice>1</voice><type>eighth</type><stem>up</stem><beam number="1">begin</beam><lyric number="1"><syllabic>single</syllabic><text>I</text></lyric></note><note default-y="-15.00" default-x="211.02"><pitch><step>C</step><alter>1</alter><octave>5</octave></pitch><duration>240</duration><voice>1</voice><type>eighth</type><stem>up</stem><beam number="1">end</beam><lyric number="1"><syllabic>single</syllabic><text>am</text></lyric></note></measure><measure width="352.09" number="6"><harmony print-frame="no"><root><root-step>G</root-step></root><kind text="">major</kind></harmony><note default-y="-10.00" default-x="25.38"><pitch><step>D</step><octave>5</octave></pitch><duration>720</duration><voice>1</voice><type>quarter</type><dot/><stem>down</stem><lyric number="1"><syllabic>single</syllabic><text>still</text></lyric></note><note default-y="-15.00" default-x="116.63"><pitch><step>C</step><alter>1</alter><octave>5</octave></pitch><duration>240</duration><voice>1</voice><type>eighth</type><stem>down</stem><lyric number="1"><syllabic>single</syllabic><text>and</text></lyric></note><note default-y="-15.00" default-x="163.40"><pitch><step>C</step><alter>1</alter><octave>5</octave></pitch><duration>240</duration><voice>1</voice><type>eighth</type><stem>up</stem><beam number="1">begin</beam><lyric number="1"><syllabic>single</syllabic><text>wait</text></lyric></note><note default-y="-20.00" default-x="210.18"><pitch><step>B</step><octave>4</octave></pitch><duration>240</duration><voice>1</voice><type>eighth</type><stem>up</stem><beam number="1">continue</beam><lyric number="1"><syllabic>single</syllabic><text>here</text></lyric></note><note default-y="-25.00" default-x="256.95"><pitch><step>A</step><octave>4</octave></pitch><duration>240</duration><voice>1</voice><type>eighth</type><stem>up</stem><beam number="1">continue</beam><lyric number="1"><syllabic>single</syllabic><text>in</text></lyric></note><note default-y="-30.00" default-x="303.72"><pitch><step>G</step><octave>4</octave></pitch><duration>240</duration><voice>1</voice><type>eighth</type><stem>up</stem><beam number="1">end</beam><lyric number="1"><syllabic>single</syllabic><text>the</text></lyric></note></measure><measure width="393.55" number="7"><print new-system="yes"><system-layout><system-margins><left-margin>0.00</left-margin><right-margin>-0.00</right-margin></system-margins><system-distance>186.02</system-distance></system-layout></print><harmony print-frame="no"><root><root-step>D</root-step></root><kind text="">major</kind></harmony><note default-y="-25.00" default-x="87.70"><pitch><step>A</step><octave>4</octave></pitch><duration>480</duration><voice>1</voice><type>quarter</type><stem>up</stem><lyric number="1"><syllabic>begin</syllabic><text>si</text></lyric></note><note default-y="-35.00" default-x="155.31"><pitch><step>F</step><alter>1</alter><octave>4</octave></pitch><duration>480</duration><voice>1</voice><type>quarter</type><stem>up</stem><lyric number="1"><syllabic>end</syllabic><text>lence</text></lyric></note><harmony print-frame="no"><root><root-step>G</root-step></root><kind text="">major</kind></harmony><note><rest/><duration>240</duration><voice>1</voice><type>eighth</type></note><note default-y="-45.00" default-x="265.18"><pitch><step>D</step><octave>4</octave></pitch><duration>240</duration><voice>1</voice><type>eighth</type><stem>up</stem><lyric number="1"><syllabic>begin</syllabic><text>un</text></lyric></note><note default-y="-25.00" default-x="307.44"><pitch><step>A</step><octave>4</octave></pitch><duration>240</duration><voice>1</voice><type>eighth</type><stem>up</stem><beam number="1">begin</beam><lyric number="1"><syllabic>end</syllabic><text>til</text></lyric></note><note default-y="-30.00" default-x="349.69"><pitch><step>G</step><octave>4</octave></pitch><duration>240</duration><voice>1</voice><type>eighth</type><stem>up</stem><beam number="1">end</beam><lyric number="1"><syllabic>single</syllabic><text>you</text></lyric></note></measure><measure width="389.09" number="8"><harmony print-frame="no"><root><root-step>D</root-step></root><kind text="">major</kind></harmony><note default-y="-35.00" default-x="32.87"><pitch><step>F</step><alter>1</alter><octave>4</octave></pitch><duration>480</duration><voice>1</voice><type>quarter</type><stem>up</stem><lyric number="1"><syllabic>single</syllabic><text>come</text></lyric></note><note><rest/><duration>240</duration><voice>1</voice><type>eighth</type></note><note default-y="-30.00" default-x="152.48"><pitch><step>G</step><octave>4</octave></pitch><duration>240</duration><voice>1</voice><type>eighth</type><stem>up</stem><lyric number="1"><syllabic>single</syllabic><text>and</text></lyric></note><harmony print-frame="no"><root><root-step>A</root-step></root><kind text="">major</kind></harmony><note default-y="-35.00" default-x="198.48"><pitch><step>F</step><alter>1</alter><octave>4</octave></pitch><duration>240</duration><voice>1</voice><type>eighth</type><stem>up</stem><beam number="1">begin</beam><lyric number="1"><syllabic>single</syllabic><text>sit</text></lyric></note><note default-y="-40.00" default-x="244.48"><pitch><step>E</step><octave>4</octave></pitch><duration>240</duration><voice>1</voice><type>eighth</type><stem>up</stem><beam number="1">continue</beam><lyric number="1"><syllabic>begin</syllabic><text>a</text></lyric></note><note default-y="-45.00" default-x="290.49"><pitch><step>D</step><octave>4</octave></pitch><duration>240</duration><voice>1</voice><type>eighth</type><stem>up</stem><beam number="1">continue</beam><lyric number="1"><syllabic>end</syllabic><text>while</text></lyric></note><note default-y="-50.00" default-x="341.49"><pitch><step>C</step><alter>1</alter><octave>4</octave></pitch><duration>240</duration><voice>1</voice><type>eighth</type><stem>up</stem><beam number="1">end</beam><lyric number="1"><syllabic>single</syllabic><text>with</text></lyric></note></measure><measure width="294.45" number="9"><harmony print-frame="no"><root><root-step>D</root-step></root><kind text="">major</kind></harmony><note default-y="-45.00" default-x="22.23"><pitch><step>D</step><octave>4</octave></pitch><duration>960</duration><voice>1</voice><type>half</type><stem>up</stem><lyric number="1"><syllabic>single</syllabic><text>me</text></lyric></note><note><rest/><duration>240</duration><voice>1</voice><type>eighth</type></note><note default-y="-25.00" default-x="160.85"><pitch><step>A</step><octave>4</octave></pitch><duration>240</duration><voice>1</voice><type>eighth</type><stem>down</stem><lyric number="1"><syllabic>single</syllabic><text>You</text></lyric></note><note default-y="-20.00" default-x="206.22"><pitch><step>B</step><octave>4</octave></pitch><duration>240</duration><voice>1</voice><type>eighth</type><stem>down</stem><beam number="1">begin</beam><lyric number="1"><syllabic>single</syllabic><text>raise</text></lyric></note><note default-y="-15.00" default-x="249.53"><pitch><step>C</step><alter>1</alter><octave>5</octave></pitch><duration>240</duration><voice>1</voice><type>eighth</type><stem>down</stem><beam number="1">end</beam><lyric number="1"><syllabic>single</syllabic><text>me</text></lyric></note></measure><measure width="388.54" number="10"><print new-system="yes"><system-layout><system-margins><left-margin>0.00</left-margin><right-margin>-0.00</right-margin></system-margins><system-distance>186.02</system-distance></system-layout></print><harmony print-frame="no"><root><root-step>B</root-step></root><kind text="m">minor</kind></harmony><note default-y="-10.00" default-x="91.46"><pitch><step>D</step><octave>5</octave></pitch><duration>720</duration><voice>1</voice><type>quarter</type><dot/><stem>down</stem><lyric number="1"><syllabic>single</syllabic><text>up</text></lyric></note><note default-y="-10.00" default-x="173.46"><pitch><step>D</step><octave>5</octave></pitch><duration>240</duration><voice>1</voice><type>eighth</type><stem>down</stem><lyric number="1"><syllabic>single</syllabic><text>so</text></lyric></note><harmony print-frame="no"><root><root-step>G</root-step></root><kind text="">major</kind></harmony><note default-y="-15.00" default-x="215.49"><pitch><step>C</step><alter>1</alter><octave>5</octave></pitch><duration>240</duration><voice>1</voice><type>eighth</type><stem>up</stem><beam number="1">begin</beam><lyric number="1"><syllabic>single</syllabic><text>I</text></lyric></note><note default-y="-20.00" default-x="257.52"><pitch><step>B</step><octave>4</octave></pitch><duration>240</duration><voice>1</voice><type>eighth</type><stem>up</stem><beam number="1">continue</beam><lyric number="1"><syllabic>single</syllabic><text>can</text></lyric></note><note default-y="-25.00" default-x="302.88"><pitch><step>A</step><octave>4</octave></pitch><duration>240</duration><voice>1</voice><type>eighth</type><stem>up</stem><beam number="1">continue</beam><lyric number="1"><syllabic>single</syllabic><text>stand</text></lyric></note><note default-y="-30.00" default-x="344.91"><pitch><step>G</step><octave>4</octave></pitch><duration>240</duration><voice>1</voice><type>eighth</type><stem>up</stem><beam number="1">end</beam><lyric number="1"><syllabic>single</syllabic><text>on</text></lyric></note></measure><measure width="361.42" number="11"><harmony print-frame="no"><root><root-step>D</root-step></root><kind text="">major</kind></harmony><note default-y="-25.00" default-x="34.14"><pitch><step>A</step><octave>4</octave></pitch><duration>480</duration><voice>1</voice><type>quarter</type><stem>up</stem><lyric number="1"><syllabic>begin</syllabic><text>moun</text></lyric></note><note default-y="-35.00" default-x="106.48"><pitch><step>F</step><alter>1</alter><octave>4</octave></pitch><duration>480</duration><voice>1</voice><type>quarter</type><stem>up</stem><lyric number="1"><syllabic>end</syllabic><text>tains</text></lyric></note><harmony print-frame="no"><root><root-step>A</root-step></root><kind text="">major</kind></harmony><note><rest/><duration>240</duration><voice>1</voice><type>eighth</type></note><note default-y="-25.00" default-x="224.03"><pitch><step>A</step><octave>4</octave></pitch><duration>240</duration><voice>1</voice><type>eighth</type><stem>down</stem><lyric number="1"><syllabic>single</syllabic><text>You</text></lyric></note><note default-y="-5.00" default-x="269.40"><pitch><step>E</step><octave>5</octave></pitch><duration>240</duration><voice>1</voice><type>eighth</type><stem>down</stem><beam number="1">begin</beam><lyric number="1"><syllabic>single</syllabic><text>raise</text></lyric></note><note default-y="-10.00" default-x="314.61"><pitch><step>D</step><octave>5</octave></pitch><duration>240</duration><voice>1</voice><type>eighth</type><stem>down</stem><beam number="1">end</beam><lyric number="1"><syllabic>single</syllabic><text>me</text></lyric></note></measure><measure width="327.13" number="12"><harmony print-frame="no"><root><root-step>B</root-step></root><kind text="m">minor</kind></harmony><note default-y="-10.00" default-x="19.74"><pitch><step>D</step><octave>5</octave></pitch><duration>720</duration><voice>1</voice><type>quarter</type><dot/><stem>down</stem><lyric number="1"><syllabic>single</syllabic><text>up</text></lyric></note><note default-y="-10.00" default-x="105.57"><pitch><step>D</step><octave>5</octave></pitch><duration>240</duration><voice>1</voice><type>eighth</type><stem>down</stem><lyric number="1"><syllabic>single</syllabic><text>to</text></lyric></note><harmony print-frame="no"><root><root-step>G</root-step></root><kind text="">major</kind></harmony><note default-y="-15.00" default-x="149.56"><pitch><step>C</step><alter>1</alter><octave>5</octave></pitch><duration>240</duration><voice>1</voice><type>eighth</type><stem>up</stem><beam number="1">begin</beam><lyric number="1"><syllabic>single</syllabic><text>walk</text></lyric></note><note default-y="-20.00" default-x="193.55"><pitch><step>B</step><octave>4</octave></pitch><duration>240</duration><voice>1</voice><type>eighth</type><stem>up</stem><beam number="1">continue</beam><lyric number="1"><syllabic>single</syllabic><text>on</text></lyric></note><note default-y="-25.00" default-x="237.55"><pitch><step>A</step><octave>4</octave></pitch><duration>240</duration><voice>1</voice><type>eighth</type><stem>up</stem><beam number="1">continue</beam><lyric number="1"><syllabic>begin</syllabic><text>stor</text></lyric></note><note default-y="-30.00" default-x="281.54"><pitch><step>G</step><octave>4</octave></pitch><duration>240</duration><voice>1</voice><type>eighth</type><stem>up</stem><beam number="1">end</beam><lyric number="1"><syllabic>end</syllabic><text>my</text></lyric></note></measure><measure width="320.01" number="13"><print new-system="yes"><system-layout><system-margins><left-margin>0.00</left-margin><right-margin>-0.00</right-margin></system-margins><system-distance>186.02</system-distance></system-layout></print><harmony print-frame="no"><root><root-step>D</root-step></root><kind text="">major</kind></harmony><note default-y="-25.00" default-x="98.97"><pitch><step>A</step><octave>4</octave></pitch><duration>960</duration><voice>1</voice><type>half</type><stem>up</stem><lyric number="1"><syllabic>single</syllabic><text>seas</text></lyric></note><harmony print-frame="no"><root><root-step>A</root-step></root><kind text="">major</kind></harmony><note><rest/><duration>480</duration><voice>1</voice><type>quarter</type></note><note default-y="-25.00" default-x="242.74"><pitch><step>A</step><octave>4</octave></pitch><duration>240</duration><voice>1</voice><type>eighth</type><stem>up</stem><beam number="1">begin</beam><lyric number="1"><syllabic>single</syllabic><text>I</text></lyric></note><note default-y="-15.00" default-x="280.57"><pitch><step>C</step><alter>1</alter><octave>5</octave></pitch><duration>240</duration><voice>1</voice><type>eighth</type><stem>up</stem><beam number="1">end</beam><lyric number="1"><syllabic>single</syllabic><text>am</text></lyric></note></measure><measure width="383.73" number="14"><harmony print-frame="no"><root><root-step>D</root-step></root><kind text="">major</kind></harmony><note default-y="-10.00" default-x="36.65"><pitch><step>D</step><octave>5</octave></pitch><duration>720</duration><voice>1</voice><type>quarter</type><dot/><stem>down</stem><lyric number="1"><syllabic>single</syllabic><text>strong</text></lyric></note><note default-y="-10.00" default-x="133.62"><pitch><step>D</step><octave>5</octave></pitch><duration>240</duration><voice>1</voice><type>eighth</type><stem>down</stem><lyric number="1"><syllabic>single</syllabic><text>when</text></lyric></note><harmony print-frame="no"><root><root-step>G</root-step></root><kind text="">major</kind></harmony><note default-y="-15.00" default-x="183.32"><pitch><step>C</step><alter>1</alter><octave>5</octave></pitch><duration>240</duration><voice>1</voice><type>eighth</type><stem>up</stem><beam number="1">begin</beam><lyric number="1"><syllabic>single</syllabic><text>I</text></lyric></note><note default-y="-20.00" default-x="233.02"><pitch><step>B</step><octave>4</octave></pitch><duration>240</duration><voice>1</voice><type>eighth</type><stem>up</stem><beam number="1">continue</beam><lyric number="1"><syllabic>single</syllabic><text>am</text></lyric></note><note default-y="-25.00" default-x="282.73"><pitch><step>A</step><octave>4</octave></pitch><duration>240</duration><voice>1</voice><type>eighth</type><stem>up</stem><beam number="1">continue</beam><lyric number="1"><syllabic>single</syllabic><text>on</text></lyric></note><note default-y="-30.00" default-x="332.43"><pitch><step>G</step><octave>4</octave></pitch><duration>240</duration><voice>1</voice><type>eighth</type><stem>up</stem><beam number="1">end</beam><lyric number="1"><syllabic>single</syllabic><text>your</text></lyric></note></measure><measure width="373.36" number="15"><harmony print-frame="no"><root><root-step>D</root-step></root><kind text="">major</kind></harmony><note default-y="-25.00" default-x="32.90"><pitch><step>A</step><octave>4</octave></pitch><duration>480</duration><voice>1</voice><type>quarter</type><stem>up</stem><lyric number="1"><syllabic>begin</syllabic><text>shoul</text></lyric></note><note default-y="-35.00" default-x="107.81"><pitch><step>F</step><alter>1</alter><octave>4</octave></pitch><duration>480</duration><voice>1</voice><type>quarter</type><stem>up</stem><lyric number="1"><syllabic>end</syllabic><text>ders</text></lyric></note><harmony print-frame="no"><root><root-step>G</root-step></root><kind text="">major</kind></harmony><note><rest/><duration>240</duration><voice>1</voice><type>eighth</type></note><note default-y="-45.00" default-x="229.55"><pitch><step>D</step><octave>4</octave></pitch><duration>240</duration><voice>1</voice><type>eighth</type><stem>up</stem><lyric number="1"><syllabic>single</syllabic><text>you</text></lyric></note><note default-y="-25.00" default-x="278.11"><pitch><step>A</step><octave>4</octave></pitch><duration>240</duration><voice>1</voice><type>eighth</type><stem>up</stem><beam number="1">begin</beam><lyric number="1"><syllabic>single</syllabic><text>raise</text></lyric></note><note default-y="-30.00" default-x="324.94"><pitch><step>G</step><octave>4</octave></pitch><duration>240</duration><voice>1</voice><type>eighth</type><stem>up</stem><beam number="1">end</beam><lyric number="1"><syllabic>single</syllabic><text>me</text></lyric></note></measure><measure width="527.83" number="16"><print new-system="yes"><system-layout><system-margins><left-margin>0.00</left-margin><right-margin>-0.00</right-margin></system-margins><system-distance>186.02</system-distance></system-layout></print><harmony print-frame="no"><root><root-step>D</root-step></root><kind text="">major</kind></harmony><note default-y="-35.00" default-x="91.46"><pitch><step>F</step><alter>1</alter><octave>4</octave></pitch><duration>720</duration><voice>1</voice><type>quarter</type><dot/><stem>up</stem><lyric number="1"><syllabic>single</syllabic><text>up</text></lyric></note><note default-y="-35.00" default-x="213.49"><pitch><step>F</step><alter>1</alter><octave>4</octave></pitch><duration>240</duration><voice>1</voice><type>eighth</type><stem>up</stem><lyric number="1"><syllabic>single</syllabic><text>to</text></lyric></note><harmony print-frame="no"><root><root-step>A</root-step></root><kind text="">major</kind></harmony><note default-y="-35.00" default-x="276.03"><pitch><step>F</step><alter>1</alter><octave>4</octave></pitch><duration>240</duration><voice>1</voice><type>eighth</type><stem>up</stem><beam number="1">begin</beam><lyric number="1"><syllabic>single</syllabic><text>more</text></lyric></note><note default-y="-40.00" default-x="338.58"><pitch><step>E</step><octave>4</octave></pitch><duration>240</duration><voice>1</voice><type>eighth</type><stem>up</stem><beam number="1">continue</beam><lyric number="1"><syllabic>single</syllabic><text>than</text></lyric></note><note default-y="-45.00" default-x="401.13"><pitch><step>D</step><octave>4</octave></pitch><duration>240</duration><voice>1</voice><type>eighth</type><stem>up</stem><beam number="1">continue</beam><lyric number="1"><syllabic>single</syllabic><text>I</text></lyric></note><note default-y="-50.00" default-x="463.68"><pitch><step>C</step><alter>1</alter><octave>4</octave></pitch><duration>240</duration><voice>1</voice><type>eighth</type><stem>up</stem><beam number="1">end</beam><lyric number="1"><syllabic>single</syllabic><text>can</text></lyric></note></measure><measure width="282.14" number="17"><harmony print-frame="no"><root><root-step>D</root-step></root><kind text="">major</kind></harmony><note default-y="-45.00" default-x="21.92"><pitch><step>D</step><octave>4</octave></pitch><duration>1440</duration><voice>1</voice><type>half</type><dot/><stem>up</stem><lyric number="1"><syllabic>single</syllabic><text>be.</text></lyric></note><note><rest/><duration>480</duration><voice>1</voice><type>quarter</type></note></measure><measure width="267.13" number="18"><note><rest/><duration>1920</duration><voice>1</voice></note><barline location="right"><bar-style>light-heavy</bar-style></barline></measure></part></score-partwise>