<score-partwise version="2.0"><work><work-number/><work-title/></work><movement-number/><movement-title>From This Moment On</movement-title><identification><creator type="composer">Cole Porter</creator><creator type="poet">Cole Porter</creator><rights>All Rights Reserved</rights><encoding><software>MuseScore 0.9.5</software><encoding-date>2010-01-05</encoding-date><software>ProxyMusic 2.0 c</software></encoding><source>http://wikifonia.org/node/2929/revisions/5508/view</source></identification><defaults><scaling><millimeters>7.056</millimeters><tenths>40</tenths></scaling><page-layout><page-height>1683.67</page-height><page-width>1190.48</page-width><page-margins type="both"><left-margin>56.6893</left-margin><right-margin>56.6893</right-margin><top-margin>56.6893</top-margin><bottom-margin>113.379</bottom-margin></page-margins></page-layout></defaults><credit page="1"><credit-words font-size="24" default-y="1626.98" default-x="595.238" justify="center" valign="top">From This Moment On</credit-words></credit><part-list><score-part id="P1"><part-name>Voice</part-name><score-instrument id="P1-I3"><instrument-name>Voice</instrument-name></score-instrument><midi-instrument id="P1-I3"><midi-channel>1</midi-channel><midi-program>53</midi-program></midi-instrument></score-part></part-list><part id="P1"><measure width="248.23" number="1"><print><system-layout><system-margins><left-margin>69.92</left-margin><right-margin>-0.00</right-margin></system-margins><top-system-distance>204.31</top-system-distance></system-layout></print><attributes><divisions>2</divisions><key><fifths>-4</fifths><mode>major</mode></key><time symbol="cut"><beats>2</beats><beat-type>2</beat-type></time><clef><sign>G</sign><line>2</line></clef></attributes><harmony print-frame="no"><root><root-step>F</root-step></root><kind text="m">minor</kind></harmony><note default-y="-40.00" default-x="119.58"><pitch><step>E</step><alter>-1</alter><octave>4</octave></pitch><duration>2</duration><voice>1</voice><type>quarter</type><stem>up</stem></note><note default-y="-50.00" default-x="162.16"><pitch><step>C</step><octave>4</octave></pitch><duration>4</duration><voice>1</voice><type>half</type><stem>up</stem><lyric number="1"><syllabic>single</syllabic><text>From</text></lyric></note><note default-y="-45.00" default-x="214.14"><pitch><step>D</step><octave>4</octave></pitch><duration>2</duration><voice>1</voice><type>quarter</type><accidental>natural</accidental><stem>up</stem><lyric number="1"><syllabic>single</syllabic><text>this</text></lyric></note></measure><measure width="145.51" number="2"><harmony print-frame="no"><root><root-step>D</root-step></root><kind text="m7b5">half-diminished</kind></harmony><note default-y="-35.00" default-x="22.86"><pitch><step>F</step><octave>4</octave></pitch><duration>4</duration><voice>1</voice><type>half</type><stem>up</stem><lyric number="1"><syllabic>begin</syllabic><text>mo</text></lyric></note><note default-y="-25.00" default-x="71.17"><pitch><step>A</step><alter>-1</alter><octave>4</octave></pitch><duration>2</duration><voice>1</voice><type>quarter</type><stem>up</stem><lyric number="1"><syllabic>end</syllabic><text>ment</text></lyric></note><note default-y="-15.00" default-x="113.72"><pitch><step>C</step><octave>5</octave></pitch><duration>2</duration><tie type="start"/><voice>1</voice><type>quarter</type><stem>down</stem><notations><tied type="start"/></notations><lyric number="1"><syllabic>single</syllabic><text>on,</text></lyric></note></measure><measure width="57.10" number="3"><harmony print-frame="no"><root><root-step>G</root-step></root><kind text="m7">minor-seventh</kind></harmony><note default-y="-15.00" default-x="15.00"><pitch><step>C</step><octave>5</octave></pitch><duration>8</duration><tie type="stop"/><tie type="start"/><voice>1</voice><type>whole</type><notations><tied type="stop"/><tied type="start"/></notations></note></measure><measure width="65.90" number="4"><harmony print-frame="no"><root><root-step>C</root-step></root><kind text="7">dominant</kind></harmony><note default-y="-15.00" default-x="15.00"><pitch><step>C</step><octave>5</octave></pitch><duration>6</duration><tie type="stop"/><voice>1</voice><type>half</type><dot/><stem>down</stem><notations><tied type="stop"/></notations></note><note><rest/><duration>2</duration><voice>1</voice><type>quarter</type></note></measure><measure width="67.47" number="5"><harmony print-frame="no"><root><root-step>B</root-step></root><kind text="m6">minor-sixth</kind></harmony><note default-y="-10.00" default-x="25.37"><pitch><step>D</step><alter>-1</alter><octave>5</octave></pitch><duration>8</duration><voice>1</voice><type>whole</type><lyric number="1"><syllabic>single</syllabic><text>you</text></lyric></note></measure><measure width="63.71" number="6"><harmony print-frame="no"><root><root-step>F</root-step></root><kind text="m">minor</kind></harmony><note default-y="-15.00" default-x="21.60"><pitch><step>C</step><octave>5</octave></pitch><duration>8</duration><voice>1</voice><type>whole</type><lyric number="1"><syllabic>single</syllabic><text>for</text></lyric></note></measure><measure width="64.33" number="7"><harmony print-frame="no"><root><root-step>E</root-step><root-alter>-1</root-alter></root><kind text="m7">minor-seventh</kind></harmony><note default-y="-10.00" default-x="22.23"><pitch><step>D</step><alter>-1</alter><octave>5</octave></pitch><duration>8</duration><voice>1</voice><type>whole</type><lyric number="1"><syllabic>single</syllabic><text>me</text></lyric></note></measure><measure width="89.83" number="8"><harmony print-frame="no"><root><root-step>A</root-step><root-alter>-1</root-alter></root><kind text="7">dominant</kind></harmony><note default-y="-15.00" default-x="30.17"><pitch><step>C</step><octave>5</octave></pitch><duration>6</duration><voice>1</voice><type>half</type><dot/><stem>down</stem><lyric number="1"><syllabic>single</syllabic><text>dear,</text></lyric></note><note><rest/><duration>2</duration><voice>1</voice><type>quarter</type></note></measure><measure width="82.77" number="9"><harmony print-frame="no"><root><root-step>D</root-step><root-alter>-1</root-alter></root><kind text="Maj7">major-seventh</kind></harmony><note default-y="-15.00" default-x="19.74"><pitch><step>C</step><octave>5</octave></pitch><duration>6</duration><voice>1</voice><type>half</type><dot/><stem>down</stem><lyric number="1"><syllabic>begin</syllabic><text>on</text></lyric></note><note default-y="-20.00" default-x="57.97"><pitch><step>B</step><alter>-1</alter><octave>4</octave></pitch><duration>2</duration><tie type="start"/><voice>1</voice><type>quarter</type><stem>down</stem><notations><tied type="start"/></notations><lyric number="1"><syllabic>end</syllabic><text>ly</text></lyric></note></measure><measure width="122.33" number="10"><note default-y="-20.00" default-x="15.00"><pitch><step>B</step><alter>-1</alter><octave>4</octave></pitch><duration>2</duration><tie type="stop"/><voice>1</voice><type>quarter</type><stem>down</stem><notations><tied type="stop"/></notations></note><note default-y="-15.00" default-x="50.07"><pitch><step>C</step><octave>5</octave></pitch><duration>4</duration><voice>1</voice><type>half</type><stem>down</stem><lyric number="1"><syllabic>single</syllabic><text>two</text></lyric></note><note default-y="-20.00" default-x="93.55"><pitch><step>B</step><alter>-1</alter><octave>4</octave></pitch><duration>2</duration><voice>1</voice><type>quarter</type><stem>down</stem><lyric number="1"><syllabic>single</syllabic><text>for</text></lyric></note></measure><measure width="152.04" number="11"><print new-system="yes"><system-layout><system-margins><left-margin>47.28</left-margin><right-margin>0.00</right-margin></system-margins><system-distance>129.51</system-distance></system-layout></print><harmony print-frame="no"><root><root-step>G</root-step><root-alter>-1</root-alter></root><kind text="9">dominant-ninth</kind></harmony><note default-y="-15.00" default-x="111.40"><pitch><step>C</step><octave>5</octave></pitch><duration>8</duration><voice>1</voice><type>whole</type><lyric number="1"><syllabic>single</syllabic><text>tea</text></lyric></note></measure><measure width="88.37" number="12"><note default-y="-20.00" default-x="30.17"><pitch><step>B</step><alter>-1</alter><octave>4</octave></pitch><duration>6</duration><voice>1</voice><type>half</type><dot/><stem>down</stem><lyric number="1"><syllabic>single</syllabic><text>dear,</text></lyric></note><note><rest/><duration>2</duration><voice>1</voice><type>quarter</type></note></measure><measure width="134.77" number="13"><harmony print-frame="no"><root><root-step>A</root-step><root-alter>-1</root-alter></root><kind text="">major</kind></harmony><note><rest/><duration>2</duration><voice>1</voice><type>quarter</type></note><note default-y="-20.00" default-x="52.67"><pitch><step>B</step><alter>-1</alter><octave>4</octave></pitch><duration>4</duration><voice>1</voice><type>half</type><stem>down</stem><lyric number="1"><syllabic>single</syllabic><text>from</text></lyric></note><note default-y="-25.00" default-x="102.21"><pitch><step>A</step><alter>-1</alter><octave>4</octave></pitch><duration>2</duration><voice>1</voice><type>quarter</type><stem>up</stem><lyric number="1"><syllabic>single</syllabic><text>this</text></lyric></note></measure><measure width="144.05" number="14"><harmony print-frame="no"><root><root-step>A</root-step><root-alter>-1</root-alter></root><kind text="dim7">diminished-seventh</kind></harmony><note default-y="-35.00" default-x="22.86"><pitch><step>F</step><octave>4</octave></pitch><duration>4</duration><voice>1</voice><type>half</type><stem>up</stem><lyric number="1"><syllabic>begin</syllabic><text>mo</text></lyric></note><note default-y="-40.00" default-x="70.27"><pitch><step>E</step><alter>-1</alter><octave>4</octave></pitch><duration>2</duration><voice>1</voice><type>quarter</type><stem>up</stem><lyric number="1"><syllabic>end</syllabic><text>ment</text></lyric></note><note default-y="-50.00" default-x="112.82"><pitch><step>C</step><octave>4</octave></pitch><duration>2</duration><tie type="start"/><voice>1</voice><type>quarter</type><stem>up</stem><notations><tied type="start"/></notations><lyric number="1"><syllabic>single</syllabic><text>on.</text></lyric></note></measure><measure width="55.64" number="15"><harmony print-frame="no"><root><root-step>G</root-step></root><kind text="m7">minor-seventh</kind></harmony><note default-y="-50.00" default-x="15.00"><pitch><step>C</step><octave>4</octave></pitch><duration>8</duration><tie type="stop"/><tie type="start"/><voice>1</voice><type>whole</type><notations><tied type="stop"/><tied type="start"/></notations></note></measure><measure width="64.44" number="16"><harmony print-frame="no"><root><root-step>C</root-step></root><kind text="7">dominant</kind></harmony><note default-y="-50.00" default-x="15.00"><pitch><step>C</step><octave>4</octave></pitch><duration>6</duration><tie type="stop"/><voice>1</voice><type>half</type><dot/><stem>up</stem><notations><tied type="stop"/></notations></note><note><rest/><duration>2</duration><voice>1</voice><type>quarter</type></note></measure><measure width="139.79" number="17"><harmony print-frame="no"><root><root-step>F</root-step></root><kind text="m">minor</kind></harmony><note><rest/><duration>2</duration><voice>1</voice><type>quarter</type></note><note default-y="-50.00" default-x="55.18"><pitch><step>C</step><octave>4</octave></pitch><duration>4</duration><voice>1</voice><type>half</type><stem>up</stem><lyric number="1"><syllabic>single</syllabic><text>From</text></lyric></note><note default-y="-45.00" default-x="106.27"><pitch><step>D</step><octave>4</octave></pitch><duration>2</duration><voice>1</voice><type>quarter</type><accidental>natural</accidental><stem>up</stem><lyric number="1"><syllabic>single</syllabic><text>this</text></lyric></note></measure><measure width="130.62" number="18"><harmony print-frame="no"><root><root-step>D</root-step></root><kind text="m7b5">half-diminished</kind></harmony><note default-y="-35.00" default-x="24.74"><pitch><step>F</step><octave>4</octave></pitch><duration>4</duration><voice>1</voice><type>half</type><stem>up</stem><lyric number="1"><syllabic>begin</syllabic><text>hap</text></lyric></note><note default-y="-25.00" default-x="67.34"><pitch><step>A</step><alter>-1</alter><octave>4</octave></pitch><duration>2</duration><voice>1</voice><type>quarter</type><stem>up</stem><lyric number="1"><syllabic>end</syllabic><text>py</text></lyric></note><note default-y="-15.00" default-x="101.78"><pitch><step>C</step><octave>5</octave></pitch><duration>2</duration><tie type="start"/><voice>1</voice><type>quarter</type><stem>down</stem><notations><tied type="start"/></notations><lyric number="1"><syllabic>single</syllabic><text>day</text></lyric></note></measure><measure width="55.64" number="19"><harmony print-frame="no"><root><root-step>G</root-step></root><kind text="m7">minor-seventh</kind></harmony><note default-y="-15.00" default-x="15.00"><pitch><step>C</step><octave>5</octave></pitch><duration>8</duration><tie type="stop"/><tie type="start"/><voice>1</voice><type>whole</type><notations><tied type="stop"/><tied type="start"/></notations></note></measure><measure width="64.44" number="20"><harmony print-frame="no"><root><root-step>C</root-step></root><kind text="7">dominant</kind></harmony><note default-y="-15.00" default-x="15.00"><pitch><step>C</step><octave>5</octave></pitch><duration>6</duration><tie type="stop"/><voice>1</voice><type>half</type><dot/><stem>down</stem><notations><tied type="stop"/></notations></note><note><rest/><duration>2</duration><voice>1</voice><type>quarter</type></note></measure><measure width="161.33" number="21"><print new-system="yes"><system-layout><system-margins><left-margin>47.28</left-margin><right-margin>-0.00</right-margin></system-margins><system-distance>129.51</system-distance></system-layout></print><harmony print-frame="no"><root><root-step>B</root-step><root-alter>-1</root-alter></root><kind text="m6">minor-sixth</kind></harmony><note default-y="-10.00" default-x="109.54"><pitch><step>D</step><alter>-1</alter><octave>5</octave></pitch><duration>8</duration><voice>1</voice><type>whole</type><lyric number="1"><syllabic>single</syllabic><text>no</text></lyric></note></measure><measure width="87.62" number="22"><harmony print-frame="no"><root><root-step>F</root-step></root><kind text="m">minor</kind></harmony><note default-y="-15.00" default-x="31.62"><pitch><step>C</step><octave>5</octave></pitch><duration>8</duration><voice>1</voice><type>whole</type><lyric number="1"><syllabic>single</syllabic><text>more</text></lyric></note></measure><measure width="80.12" number="23"><harmony print-frame="no"><root><root-step>E</root-step><root-alter>-1</root-alter></root><kind text="m7">minor-seventh</kind></harmony><note default-y="-10.00" default-x="27.87"><pitch><step>D</step><alter>-1</alter><octave>5</octave></pitch><duration>8</duration><voice>1</voice><type>whole</type><lyric number="1"><syllabic>single</syllabic><text>blue</text></lyric></note></measure><measure width="113.11" number="24"><harmony print-frame="no"><root><root-step>A</root-step><root-alter>-1</root-alter></root><kind text="7">dominant</kind></harmony><note default-y="-15.00" default-x="36.97"><pitch><step>C</step><octave>5</octave></pitch><duration>6</duration><voice>1</voice><type>half</type><dot/><stem>down</stem><lyric number="1"><syllabic>single</syllabic><text>songs,</text></lyric></note><note><rest/><duration>2</duration><voice>1</voice><type>quarter</type></note></measure><measure width="92.47" number="25"><harmony print-frame="no"><root><root-step>D</root-step><root-alter>-1</root-alter></root><kind text="Maj7">major-seventh</kind></harmony><note default-y="-15.00" default-x="19.74"><pitch><step>C</step><octave>5</octave></pitch><duration>6</duration><voice>1</voice><type>half</type><dot/><stem>down</stem><lyric number="1"><syllabic>begin</syllabic><text>on</text></lyric></note><note default-y="-20.00" default-x="66.76"><pitch><step>B</step><alter>-1</alter><octave>4</octave></pitch><duration>2</duration><tie type="start"/><voice>1</voice><type>quarter</type><stem>down</stem><notations><tied type="start"/></notations><lyric number="1"><syllabic>end</syllabic><text>ly</text></lyric></note></measure><measure width="164.59" number="26"><note default-y="-20.00" default-x="15.00"><pitch><step>B</step><alter>-1</alter><octave>4</octave></pitch><duration>2</duration><tie type="stop"/><voice>1</voice><type>quarter</type><stem>down</stem><notations><tied type="stop"/></notations></note><note default-y="-15.00" default-x="63.85"><pitch><step>C</step><octave>5</octave></pitch><duration>4</duration><voice>1</voice><type>half</type><stem>down</stem><lyric number="1"><syllabic>begin</syllabic><text>whoop</text></lyric></note><note default-y="-20.00" default-x="124.86"><pitch><step>B</step><alter>-1</alter><octave>4</octave></pitch><duration>2</duration><voice>1</voice><type>quarter</type><stem>down</stem><lyric number="1"><syllabic>begin</syllabic><text>dee</text></lyric></note></measure><measure width="77.17" number="27"><harmony print-frame="no"><root><root-step>G</root-step><root-alter>-1</root-alter></root><kind text="9">dominant-ninth</kind></harmony><note default-y="-15.00" default-x="25.37"><pitch><step>C</step><octave>5</octave></pitch><duration>8</duration><voice>1</voice><type>whole</type><lyric number="1"><syllabic>end</syllabic><text>doo</text></lyric></note></measure><measure width="107.48" number="28"><note default-y="-20.00" default-x="34.15"><pitch><step>B</step><alter>-1</alter><octave>4</octave></pitch><duration>6</duration><voice>1</voice><type>half</type><dot/><stem>down</stem><lyric number="1"><syllabic>single</syllabic><text>songs</text></lyric></note><note><rest/><duration>2</duration><voice>1</voice><type>quarter</type></note></measure><measure width="145.92" number="29"><harmony print-frame="no"><root><root-step>A</root-step><root-alter>-1</root-alter></root><kind text="">major</kind></harmony><note><rest/><duration>2</duration><voice>1</voice><type>quarter</type></note><note default-y="-20.00" default-x="52.67"><pitch><step>B</step><alter>-1</alter><octave>4</octave></pitch><duration>4</duration><voice>1</voice><type>half</type><stem>down</stem><lyric number="1"><syllabic>single</syllabic><text>from</text></lyric></note><note default-y="-25.00" default-x="109.07"><pitch><step>A</step><alter>-1</alter><octave>4</octave></pitch><duration>2</duration><voice>1</voice><type>quarter</type><stem>up</stem><lyric number="1"><syllabic>single</syllabic><text>this</text></lyric></note></measure><measure width="251.02" number="30"><print new-system="yes"><system-layout><system-margins><left-margin>47.28</left-margin><right-margin>-0.00</right-margin></system-margins><system-distance>129.51</system-distance></system-layout></print><harmony print-frame="no"><root><root-step>B</root-step><root-alter>-1</root-alter></root><kind text="m7">minor-seventh</kind></harmony><note default-y="-35.00" default-x="112.66"><pitch><step>F</step><octave>4</octave></pitch><duration>4</duration><voice>1</voice><type>half</type><stem>up</stem><lyric number="1"><syllabic>begin</syllabic><text>mo</text></lyric></note><harmony print-frame="no"><root><root-step>E</root-step><root-alter>-1</root-alter></root><kind text="7">dominant</kind></harmony><note default-y="-40.00" default-x="170.63"><pitch><step>E</step><alter>-1</alter><octave>4</octave></pitch><duration>2</duration><voice>1</voice><type>quarter</type><stem>up</stem><lyric number="1"><syllabic>end</syllabic><text>ment</text></lyric></note><note default-y="-35.00" default-x="213.19"><pitch><step>F</step><octave>4</octave></pitch><duration>2</duration><tie type="start"/><voice>1</voice><type>quarter</type><stem>up</stem><notations><tied type="start"/></notations><lyric number="1"><syllabic>single</syllabic><text>on.</text></lyric></note></measure><measure width="72.81" number="31"><harmony print-frame="no"><root><root-step>A</root-step><root-alter>-1</root-alter></root><kind text="7">dominant</kind></harmony><note default-y="-35.00" default-x="15.00"><pitch><step>F</step><octave>4</octave></pitch><duration>8</duration><tie type="stop"/><tie type="start"/><voice>1</voice><type>whole</type><notations><tied type="stop"/><tied type="start"/></notations></note></measure><measure width="183.21" number="32"><note default-y="-35.00" default-x="15.00"><pitch><step>F</step><octave>4</octave></pitch><duration>2</duration><tie type="stop"/><voice>1</voice><type>quarter</type><stem>up</stem><notations><tied type="stop"/></notations></note><note><rest/><duration>2</duration><voice>1</voice><type>quarter</type></note><note default-y="-40.00" default-x="89.91"><pitch><step>E</step><alter>-1</alter><octave>4</octave></pitch><duration>2</duration><voice>1</voice><type>quarter</type><stem>up</stem><lyric number="1"><syllabic>single</syllabic><text>For</text></lyric></note><note default-y="-35.00" default-x="141.07"><pitch><step>F</step><octave>4</octave></pitch><duration>2</duration><voice>1</voice><type>quarter</type><stem>up</stem><lyric number="1"><syllabic>single</syllabic><text>you've</text></lyric></note></measure><measure width="154.34" number="33"><harmony print-frame="no"><root><root-step>D</root-step><root-alter>-1</root-alter></root><kind text="">major</kind></harmony><note default-y="-25.00" default-x="22.87"><pitch><step>A</step><alter>-1</alter><octave>4</octave></pitch><duration>4</duration><voice>1</voice><type>half</type><stem>up</stem><lyric number="1"><syllabic>single</syllabic><text>got</text></lyric></note><note default-y="-25.00" default-x="78.72"><pitch><step>A</step><alter>-1</alter><octave>4</octave></pitch><duration>2</duration><voice>1</voice><type>quarter</type><stem>up</stem><lyric number="1"><syllabic>single</syllabic><text>the</text></lyric></note><note default-y="-25.00" default-x="117.83"><pitch><step>A</step><alter>-1</alter><octave>4</octave></pitch><duration>2</duration><tie type="start"/><voice>1</voice><type>quarter</type><stem>up</stem><notations><tied type="start"/></notations><lyric number="1"><syllabic>single</syllabic><text>love</text></lyric></note></measure><measure width="88.72" number="34"><note default-y="-25.00" default-x="15.00"><pitch><step>A</step><alter>-1</alter><octave>4</octave></pitch><duration>6</duration><tie type="stop"/><voice>1</voice><type>half</type><dot/><stem>up</stem><notations><tied type="stop"/></notations></note><note default-y="-35.00" default-x="62.68"><pitch><step>F</step><octave>4</octave></pitch><duration>2</duration><voice>1</voice><type>quarter</type><stem>up</stem><lyric number="1"><syllabic>single</syllabic><text>I</text></lyric></note></measure><measure width="179.71" number="35"><harmony print-frame="no"><root><root-step>G</root-step></root><kind text="m7">minor-seventh</kind></harmony><note default-y="-25.00" default-x="29.74"><pitch><step>A</step><alter>-1</alter><octave>4</octave></pitch><duration>4</duration><voice>1</voice><type>half</type><stem>up</stem><lyric number="1"><syllabic>single</syllabic><text>need</text></lyric></note><note default-y="-25.00" default-x="92.72"><pitch><step>A</step><alter>-1</alter><octave>4</octave></pitch><duration>2</duration><voice>1</voice><type>quarter</type><stem>up</stem><lyric number="1"><syllabic>single</syllabic><text>so</text></lyric></note><note default-y="-25.00" default-x="138.74"><pitch><step>A</step><alter>-1</alter><octave>4</octave></pitch><duration>2</duration><tie type="start"/><voice>1</voice><type>quarter</type><stem>up</stem><notations><tied type="start"/></notations><lyric number="1"><syllabic>single</syllabic><text>much,</text></lyric></note></measure><measure width="100.01" number="36"><note default-y="-25.00" default-x="15.00"><pitch><step>A</step><alter>-1</alter><octave>4</octave></pitch><duration>2</duration><tie type="stop"/><voice>1</voice><type>quarter</type><stem>up</stem><notations><tied type="stop"/></notations></note><note><rest/><duration>2</duration><voice>1</voice><type>quarter</type></note><note><rest/><duration>4</duration><voice>1</voice><type>half</type></note></measure><measure width="237.70" number="37"><print new-system="yes"><system-layout><system-margins><left-margin>47.28</left-margin><right-margin>0.00</right-margin></system-margins><system-distance>129.51</system-distance></system-layout></print><harmony print-frame="no"><root><root-step>A</root-step><root-alter>-1</root-alter></root><kind text="">major</kind></harmony><note default-y="-35.00" default-x="112.67"><pitch><step>F</step><octave>4</octave></pitch><duration>4</duration><voice>1</voice><type>half</type><stem>up</stem><lyric number="1"><syllabic>single</syllabic><text>got</text></lyric></note><note default-y="-35.00" default-x="164.94"><pitch><step>F</step><octave>4</octave></pitch><duration>2</duration><voice>1</voice><type>quarter</type><stem>up</stem><lyric number="1"><syllabic>single</syllabic><text>the</text></lyric></note><note default-y="-35.00" default-x="203.43"><pitch><step>F</step><octave>4</octave></pitch><duration>2</duration><tie type="start"/><voice>1</voice><type>quarter</type><stem>up</stem><notations><tied type="start"/></notations><lyric number="1"><syllabic>single</syllabic><text>skin</text></lyric></note></measure><measure width="111.62" number="38"><note default-y="-35.00" default-x="15.00"><pitch><step>F</step><octave>4</octave></pitch><duration>6</duration><tie type="stop"/><voice>1</voice><type>half</type><dot/><stem>up</stem><notations><tied type="stop"/></notations></note><harmony print-frame="no"><root><root-step>E</root-step><root-alter>-1</root-alter></root><kind text="m7">minor-seventh</kind><bass><bass-step>G</bass-step></bass></harmony><note default-y="-40.00" default-x="77.82"><pitch><step>E</step><alter>-1</alter><octave>4</octave></pitch><duration>2</duration><voice>1</voice><type>quarter</type><stem>up</stem><lyric number="1"><syllabic>single</syllabic><text>I</text></lyric></note></measure><measure width="169.51" number="39"><harmony print-frame="no"><root><root-step>F</root-step></root><kind text="7">dominant</kind></harmony><note default-y="-35.00" default-x="27.87"><pitch><step>F</step><octave>4</octave></pitch><duration>4</duration><voice>1</voice><type>half</type><stem>up</stem><lyric number="1"><syllabic>single</syllabic><text>love</text></lyric></note><note default-y="-35.00" default-x="83.05"><pitch><step>F</step><octave>4</octave></pitch><duration>2</duration><voice>1</voice><type>quarter</type><stem>up</stem><lyric number="1"><syllabic>single</syllabic><text>to</text></lyric></note><note default-y="-35.00" default-x="129.08"><pitch><step>F</step><octave>4</octave></pitch><duration>2</duration><tie type="start"/><voice>1</voice><type>quarter</type><stem>up</stem><notations><tied type="start"/></notations><lyric number="1"><syllabic>single</syllabic><text>touch.</text></lyric></note></measure><measure width="94.80" number="40"><note default-y="-35.00" default-x="15.00"><pitch><step>F</step><octave>4</octave></pitch><duration>2</duration><tie type="stop"/><voice>1</voice><type>quarter</type><stem>up</stem><notations><tied type="stop"/></notations></note><note><rest/><duration>2</duration><voice>1</voice><type>quarter</type></note><note><rest/><duration>4</duration><voice>1</voice><type>half</type></note></measure><measure width="159.13" number="41"><harmony print-frame="no"><root><root-step>E</root-step><root-alter>-1</root-alter></root><kind text="7">dominant</kind><bass><bass-step>B</bass-step><bass-alter>-1</bass-alter></bass></harmony><note default-y="-20.00" default-x="25.37"><pitch><step>B</step><alter>-1</alter><octave>4</octave></pitch><duration>4</duration><voice>1</voice><type>half</type><stem>down</stem><lyric number="1"><syllabic>single</syllabic><text>Got</text></lyric></note><note default-y="-20.00" default-x="81.09"><pitch><step>B</step><alter>-1</alter><octave>4</octave></pitch><duration>2</duration><voice>1</voice><type>quarter</type><stem>down</stem><lyric number="1"><syllabic>single</syllabic><text>the</text></lyric></note><note default-y="-20.00" default-x="122.70"><pitch><step>B</step><alter>-1</alter><octave>4</octave></pitch><duration>2</duration><tie type="start"/><voice>1</voice><type>quarter</type><stem>down</stem><notations><tied type="start"/></notations><lyric number="1"><syllabic>single</syllabic><text>arms</text></lyric></note></measure><measure width="88.53" number="42"><note default-y="-20.00" default-x="15.00"><pitch><step>B</step><alter>-1</alter><octave>4</octave></pitch><duration>6</duration><tie type="stop"/><voice>1</voice><type>half</type><dot/><stem>down</stem><notations><tied type="stop"/></notations></note><note default-y="-30.00" default-x="62.55"><pitch><step>G</step><octave>4</octave></pitch><duration>2</duration><voice>1</voice><type>quarter</type><stem>up</stem><lyric number="1"><syllabic>single</syllabic><text>to</text></lyric></note></measure><measure width="168.55" number="43"><harmony print-frame="no"><root><root-step>B</root-step><root-alter>-1</root-alter></root><kind text="7">dominant</kind></harmony><note default-y="-20.00" default-x="28.51"><pitch><step>B</step><alter>-1</alter><octave>4</octave></pitch><duration>4</duration><voice>1</voice><type>half</type><stem>down</stem><lyric number="1"><syllabic>single</syllabic><text>hold</text></lyric></note><note default-y="-20.00" default-x="87.13"><pitch><step>B</step><alter>-1</alter><octave>4</octave></pitch><duration>2</duration><voice>1</voice><type>quarter</type><stem>down</stem><lyric number="1"><syllabic>single</syllabic><text>me</text></lyric></note><note default-y="-20.00" default-x="130.31"><pitch><step>B</step><alter>-1</alter><octave>4</octave></pitch><duration>2</duration><tie type="start"/><voice>1</voice><type>quarter</type><stem>down</stem><notations><tied type="start"/></notations><lyric number="1"><syllabic>single</syllabic><text>tight,</text></lyric></note></measure><measure width="191.16" number="44"><print new-system="yes"><system-layout><system-margins><left-margin>47.28</left-margin><right-margin>0.00</right-margin></system-margins><system-distance>129.51</system-distance></system-layout></print><note default-y="-20.00" default-x="97.30"><pitch><step>B</step><alter>-1</alter><octave>4</octave></pitch><duration>2</duration><tie type="stop"/><voice>1</voice><type>quarter</type><stem>down</stem><notations><tied type="stop"/></notations></note><note><rest/><duration>2</duration><voice>1</voice><type>quarter</type></note><note><rest/><duration>4</duration><voice>1</voice><type>half</type></note></measure><measure width="140.75" number="45"><harmony print-frame="no"><root><root-step>E</root-step><root-alter>-1</root-alter></root><kind text="">major</kind></harmony><note><rest/><duration>2</duration><voice>1</voice><type>quarter</type></note><note default-y="-40.00" default-x="49.49"><pitch><step>E</step><alter>-1</alter><octave>4</octave></pitch><duration>4</duration><voice>1</voice><type>half</type><stem>up</stem><lyric number="1"><syllabic>single</syllabic><text>got</text></lyric></note><note default-y="-40.00" default-x="104.67"><pitch><step>E</step><alter>-1</alter><octave>4</octave></pitch><duration>2</duration><voice>1</voice><type>quarter</type><stem>up</stem><lyric number="1"><syllabic>single</syllabic><text>the</text></lyric></note></measure><measure width="195.20" number="46"><harmony print-frame="no"><root><root-step>E</root-step><root-alter>-1</root-alter></root><kind text="dim7">diminished-seventh</kind></harmony><note default-y="-40.00" default-x="34.13"><pitch><step>E</step><alter>-1</alter><octave>4</octave></pitch><duration>3</duration><voice>1</voice><type>quarter</type><dot/><stem>up</stem><lyric number="1"><syllabic>single</syllabic><text>sweet</text></lyric></note><note default-y="-40.00" default-x="84.56"><pitch><step>E</step><alter>-1</alter><octave>4</octave></pitch><duration>1</duration><tie type="start"/><voice>1</voice><type>eighth</type><stem>up</stem><notations><tied type="start"/></notations><lyric number="1"><syllabic>single</syllabic><text>lips</text></lyric></note><note default-y="-40.00" default-x="110.88"><pitch><step>E</step><alter>-1</alter><octave>4</octave></pitch><duration>2</duration><tie type="stop"/><voice>1</voice><type>quarter</type><stem>up</stem><notations><tied type="stop"/></notations></note><note default-y="-40.00" default-x="152.24"><pitch><step>E</step><alter>-1</alter><octave>4</octave></pitch><duration>2</duration><voice>1</voice><type>quarter</type><stem>up</stem><lyric number="1"><syllabic>single</syllabic><text>to</text></lyric></note></measure><measure width="228.02" number="47"><harmony print-frame="no"><root><root-step>E</root-step><root-alter>-1</root-alter></root><kind text="7">dominant</kind></harmony><note default-y="-40.00" default-x="26.01"><pitch><step>E</step><alter>-1</alter><octave>4</octave></pitch><duration>2</duration><voice>1</voice><type>quarter</type><stem>up</stem><lyric number="1"><syllabic>single</syllabic><text>kiss</text></lyric></note><note default-y="-40.00" default-x="75.60"><pitch><step>E</step><alter>-1</alter><octave>4</octave></pitch><duration>2</duration><voice>1</voice><type>quarter</type><stem>up</stem><lyric number="1"><syllabic>single</syllabic><text>me</text></lyric></note><note default-y="-40.00" default-x="125.18"><pitch><step>E</step><alter>-1</alter><octave>4</octave></pitch><duration>2</duration><voice>1</voice><type>quarter</type><stem>up</stem><lyric number="1"><syllabic>begin</syllabic><text>good</text></lyric></note><note default-y="-40.00" default-x="176.83"><pitch><step>E</step><alter>-1</alter><octave>4</octave></pitch><duration>2</duration><tie type="start"/><voice>1</voice><type>quarter</type><stem>up</stem><notations><tied type="start"/></notations><lyric number="1"><syllabic>middle</syllabic><text>night</text></lyric></note></measure><measure width="108.86" number="48"><harmony print-frame="no"><root><root-step>C</root-step></root><kind text="7#9">dominant</kind><degree><degree-value>9</degree-value><degree-alter>1</degree-alter><degree-type>add</degree-type></degree></harmony><note default-y="-40.00" default-x="15.00"><pitch><step>E</step><alter>-1</alter><octave>4</octave></pitch><duration>2</duration><tie type="stop"/><voice>1</voice><type>quarter</type><stem>up</stem><notations><tied type="stop"/></notations></note><note><rest/><duration>2</duration><voice>1</voice><type>quarter</type></note><note><rest/><duration>4</duration><voice>1</voice><type>half</type></note></measure><measure width="165.82" number="49"><harmony print-frame="no"><root><root-step>F</root-step></root><kind text="m">minor</kind></harmony><note><rest/><duration>2</duration><voice>1</voice><type>quarter</type></note><note default-y="-50.00" default-x="56.45"><pitch><step>C</step><octave>4</octave></pitch><duration>4</duration><voice>1</voice><type>half</type><stem>up</stem><lyric number="1"><syllabic>single</syllabic><text>From</text></lyric></note><note default-y="-45.00" default-x="122.77"><pitch><step>D</step><octave>4</octave></pitch><duration>2</duration><voice>1</voice><type>quarter</type><accidental>natural</accidental><stem>up</stem><lyric number="1"><syllabic>single</syllabic><text>this</text></lyric></note></measure><measure width="235.78" number="50"><print new-system="yes"><system-layout><system-margins><left-margin>47.28</left-margin><right-margin>-0.00</right-margin></system-margins><system-distance>129.51</system-distance></system-layout></print><harmony print-frame="no"><root><root-step>D</root-step></root><kind text="m7b5">half-diminished</kind></harmony><note default-y="-35.00" default-x="112.66"><pitch><step>F</step><octave>4</octave></pitch><duration>4</duration><voice>1</voice><type>half</type><stem>up</stem><lyric number="1"><syllabic>begin</syllabic><text>mo</text></lyric></note><note default-y="-25.00" default-x="161.26"><pitch><step>A</step><alter>-1</alter><octave>4</octave></pitch><duration>2</duration><voice>1</voice><type>quarter</type><stem>up</stem><lyric number="1"><syllabic>end</syllabic><text>ment</text></lyric></note><note default-y="-15.00" default-x="203.81"><pitch><step>C</step><octave>5</octave></pitch><duration>2</duration><tie type="start"/><voice>1</voice><type>quarter</type><stem>down</stem><notations><tied type="start"/></notations><lyric number="1"><syllabic>single</syllabic><text>on,</text></lyric></note></measure><measure width="57.57" number="51"><harmony print-frame="no"><root><root-step>G</root-step></root><kind text="m7">minor-seventh</kind></harmony><note default-y="-15.00" default-x="15.00"><pitch><step>C</step><octave>5</octave></pitch><duration>8</duration><tie type="stop"/><tie type="start"/><voice>1</voice><type>whole</type><notations><tied type="stop"/><tied type="start"/></notations></note></measure><measure width="66.37" number="52"><harmony print-frame="no"><root><root-step>C</root-step></root><kind text="7">dominant</kind></harmony><note default-y="-15.00" default-x="15.00"><pitch><step>C</step><octave>5</octave></pitch><duration>6</duration><tie type="stop"/><voice>1</voice><type>half</type><dot/><stem>down</stem><notations><tied type="stop"/></notations></note><note><rest/><duration>2</duration><voice>1</voice><type>quarter</type></note></measure><measure width="67.95" number="53"><harmony print-frame="no"><root><root-step>B</root-step><root-alter>-1</root-alter></root><kind text="m6">minor-sixth</kind></harmony><note default-y="-10.00" default-x="25.37"><pitch><step>D</step><alter>-1</alter><octave>5</octave></pitch><duration>8</duration><voice>1</voice><type>whole</type><lyric number="1"><syllabic>single</syllabic><text>you</text></lyric></note></measure><measure width="67.31" number="54"><harmony print-frame="no"><root><root-step>F</root-step></root><kind text="m">minor</kind></harmony><note default-y="-15.00" default-x="24.74"><pitch><step>C</step><octave>5</octave></pitch><duration>8</duration><voice>1</voice><type>whole</type><lyric number="1"><syllabic>single</syllabic><text>and</text></lyric></note></measure><measure width="57.57" number="55"><harmony print-frame="no"><root><root-step>E</root-step><root-alter>-1</root-alter></root><kind text="m7">minor-seventh</kind></harmony><note default-y="-10.00" default-x="15.00"><pitch><step>D</step><alter>-1</alter><octave>5</octave></pitch><duration>8</duration><voice>1</voice><type>whole</type><lyric number="1"><syllabic>single</syllabic><text>I</text></lyric></note></measure><measure width="95.07" number="56"><harmony print-frame="no"><root><root-step>A</root-step><root-alter>-1</root-alter></root><kind text="7">dominant</kind></harmony><note default-y="-15.00" default-x="32.56"><pitch><step>C</step><octave>5</octave></pitch><duration>6</duration><voice>1</voice><type>half</type><dot/><stem>down</stem><lyric number="1"><syllabic>single</syllabic><text>babe,</text></lyric></note><note><rest/><duration>2</duration><voice>1</voice><type>quarter</type></note></measure><measure width="103.75" number="57"><harmony print-frame="no"><root><root-step>D</root-step><root-alter>-1</root-alter></root><kind text="">major</kind></harmony><note default-y="-15.00" default-x="29.90"><pitch><step>C</step><octave>5</octave></pitch><duration>6</duration><voice>1</voice><type>half</type><dot/><stem>down</stem><lyric number="1"><syllabic>single</syllabic><text>we'll</text></lyric></note><note default-y="-20.00" default-x="77.66"><pitch><step>B</step><alter>-1</alter><octave>4</octave></pitch><duration>2</duration><tie type="start"/><voice>1</voice><type>quarter</type><stem>down</stem><notations><tied type="start"/></notations><lyric number="1"><syllabic>single</syllabic><text>be</text></lyric></note></measure><measure width="111.22" number="58"><note default-y="-20.00" default-x="15.00"><pitch><step>B</step><alter>-1</alter><octave>4</octave></pitch><duration>2</duration><tie type="stop"/><voice>1</voice><type>quarter</type><stem>down</stem><notations><tied type="stop"/></notations></note><note default-y="-15.00" default-x="45.68"><pitch><step>C</step><octave>5</octave></pitch><duration>4</duration><voice>1</voice><type>half</type><stem>down</stem><lyric number="1"><syllabic>begin</syllabic><text>rid</text></lyric></note><note default-y="-20.00" default-x="85.03"><pitch><step>B</step><alter>-1</alter><octave>4</octave></pitch><duration>2</duration><voice>1</voice><type>quarter</type><stem>down</stem><lyric number="1"><syllabic>single</syllabic><text>in'</text></lyric></note></measure><measure width="72.16" number="59"><harmony print-frame="no"><root><root-step>D</root-step><root-alter>-1</root-alter></root><kind text="m7">minor-seventh</kind></harmony><note default-y="-5.00" default-x="28.51"><pitch><step>E</step><alter>-1</alter><octave>5</octave></pitch><duration>8</duration><voice>1</voice><type>whole</type><lyric number="1"><syllabic>single</syllabic><text>high</text></lyric></note></measure><measure width="95.07" number="60"><harmony print-frame="no"><root><root-step>G</root-step><root-alter>-1</root-alter></root><kind text="9">dominant-ninth</kind></harmony><note default-y="-10.00" default-x="32.56"><pitch><step>D</step><alter>-1</alter><octave>5</octave></pitch><duration>6</duration><voice>1</voice><type>half</type><dot/><stem>down</stem><lyric number="1"><syllabic>single</syllabic><text>babe.</text></lyric></note><note><rest/><duration>2</duration><voice>1</voice><type>quarter</type></note></measure><measure width="212.43" number="61"><print new-system="yes"><system-layout><system-margins><left-margin>47.28</left-margin><right-margin>-0.00</right-margin></system-margins><system-distance>129.51</system-distance></system-layout></print><harmony print-frame="no"><root><root-step>A</root-step><root-alter>-1</root-alter></root><kind text="">major</kind></harmony><note><rest/><duration>2</duration><voice>1</voice><type>quarter</type></note><note default-y="-15.00" default-x="128.84"><pitch><step>C</step><octave>5</octave></pitch><duration>4</duration><voice>1</voice><type>half</type><stem>down</stem><lyric number="1"><syllabic>begin</syllabic><text>Ev</text></lyric></note><note default-y="-20.00" default-x="179.30"><pitch><step>B</step><alter>-1</alter><octave>4</octave></pitch><duration>2</duration><voice>1</voice><type>quarter</type><stem>down</stem><lyric number="1"><syllabic>end</syllabic><text>'ry</text></lyric></note></measure><measure width="165.74" number="62"><harmony print-frame="no"><root><root-step>B</root-step><root-alter>-1</root-alter></root><kind text="dim7">diminished-seventh</kind></harmony><note default-y="-25.00" default-x="27.23"><pitch><step>A</step><alter>-1</alter><octave>4</octave></pitch><duration>4</duration><voice>1</voice><type>half</type><stem>up</stem><lyric number="1"><syllabic>single</syllabic><text>care</text></lyric></note><note default-y="-35.00" default-x="86.82"><pitch><step>F</step><octave>4</octave></pitch><duration>2</duration><voice>1</voice><type>quarter</type><stem>up</stem><lyric number="1"><syllabic>single</syllabic><text>is</text></lyric></note><note default-y="-40.00" default-x="126.90"><pitch><step>E</step><alter>-1</alter><octave>4</octave></pitch><duration>2</duration><tie type="start"/><voice>1</voice><type>quarter</type><stem>up</stem><notations><tied type="start"/></notations><lyric number="1"><syllabic>single</syllabic><text>gone</text></lyric></note></measure><measure width="78.27" number="63"><harmony print-frame="no"><root><root-step>C</root-step></root><kind text="m7">minor-seventh</kind></harmony><note default-y="-40.00" default-x="15.00"><pitch><step>E</step><alter>-1</alter><octave>4</octave></pitch><duration>8</duration><tie type="stop"/><tie type="start"/><voice>1</voice><type>whole</type><notations><tied type="stop"/><tied type="start"/></notations></note></measure><measure width="141.12" number="64"><note default-y="-40.00" default-x="15.00"><pitch><step>E</step><alter>-1</alter><octave>4</octave></pitch><duration>2</duration><tie type="stop"/><voice>1</voice><type>quarter</type><stem>up</stem><notations><tied type="stop"/></notations></note><note><rest/><duration>2</duration><voice>1</voice><type>quarter</type></note><harmony print-frame="no"><root><root-step>F</root-step></root><kind text="7">dominant</kind></harmony><note default-y="-35.00" default-x="87.62"><pitch><step>F</step><octave>4</octave></pitch><duration>4</duration><voice>1</voice><type>half</type><stem>up</stem><lyric number="1"><syllabic>single</syllabic><text>From</text></lyric></note></measure><measure width="130.09" number="65"><harmony print-frame="no"><root><root-step>B</root-step><root-alter>-1</root-alter></root><kind text="7">dominant</kind></harmony><note default-y="-25.00" default-x="28.50"><pitch><step>A</step><alter>-1</alter><octave>4</octave></pitch><duration>6</duration><voice>1</voice><type>half</type><dot/><stem>up</stem><lyric number="1"><syllabic>single</syllabic><text>This</text></lyric></note><harmony print-frame="no"><root><root-step>B</root-step><root-alter>-1</root-alter></root><kind text="m7">minor-seventh</kind><bass><bass-step>E</bass-step><bass-alter>-1</bass-alter></bass></harmony><note default-y="-15.00" default-x="94.61"><pitch><step>C</step><octave>5</octave></pitch><duration>2</duration><tie type="start"/><voice>1</voice><type>quarter</type><stem>down</stem><notations><tied type="start"/></notations><lyric number="1"><syllabic>begin</syllabic><text>Mo</text></lyric></note></measure><measure width="123.27" number="66"><note default-y="-15.00" default-x="15.00"><pitch><step>C</step><octave>5</octave></pitch><duration>6</duration><tie type="stop"/><voice>1</voice><type>half</type><dot/><stem>down</stem><notations><tied type="stop"/></notations></note><harmony print-frame="no"><root><root-step>E</root-step><root-alter>-1</root-alter></root><kind text="7">dominant</kind></harmony><note default-y="-20.00" default-x="85.52"><pitch><step>B</step><alter>-1</alter><octave>4</octave></pitch><duration>2</duration><voice>1</voice><type>quarter</type><stem>down</stem><lyric number="1"><syllabic>single</syllabic><text>ment</text></lyric></note></measure><measure width="85.82" number="67"><harmony print-frame="no"><root><root-step>A</root-step><root-alter>-1</root-alter></root><kind text="">major</kind></harmony><note default-y="-25.00" default-x="22.55"><pitch><step>A</step><alter>-1</alter><octave>4</octave></pitch><duration>8</duration><tie type="start"/><voice>1</voice><type>whole</type><notations><tied type="start"/></notations><lyric number="1"><syllabic>single</syllabic><text>on.</text></lyric></note></measure><measure width="93.07" number="68"><note default-y="-25.00" default-x="15.00"><pitch><step>A</step><alter>-1</alter><octave>4</octave></pitch><duration>6</duration><tie type="stop"/><voice>1</voice><type>half</type><dot/><stem>up</stem><notations><tied type="stop"/></notations></note><note><rest/><duration>2</duration><voice>1</voice><type>quarter</type></note><barline location="right"><bar-style>light-heavy</bar-style></barline></measure></part></score-partwise>