<score-partwise version="2.0"><work><work-number/><work-title/></work><movement-number/><movement-title>My Way </movement-title><identification><creator type="composer">Claude Francois, Jacques Revaux </creator><creator type="poet">Paul Anka</creator><rights>All Rights Reserved</rights><encoding><software>MuseScore 0.9.5</software><encoding-date>2009-10-09</encoding-date><software>ProxyMusic 2.0 c</software></encoding><source>http://www.wikifonia.org/node/2975/revisions/3763/view</source></identification><defaults><scaling><millimeters>6.256</millimeters><tenths>40</tenths></scaling><page-layout><page-height>1898.98</page-height><page-width>1342.71</page-width><page-margins type="both"><left-margin>63.9386</left-margin><right-margin>63.9386</right-margin><top-margin>63.9386</top-margin><bottom-margin>127.877</bottom-margin></page-margins></page-layout></defaults><credit page="1"><credit-words font-size="24" default-y="1835.04" default-x="671.355" justify="center" valign="top">My way</credit-words></credit><credit page="1"><credit-words font-size="12" default-y="1768.33" default-x="1278.77" justify="right" valign="top">Claude Francois and Jacques Revaux </credit-words></credit><credit page="1"><credit-words font-size="12" default-y="1768.33" default-x="63.9386" justify="left" valign="top">French:  Giles Thibaut /  English: Paul Anka</credit-words></credit><part-list><score-part id="P1"><part-name>Piano</part-name><score-instrument id="P1-I3"><instrument-name>Piano</instrument-name></score-instrument><midi-instrument id="P1-I3"><midi-channel>1</midi-channel><midi-program>1</midi-program></midi-instrument></score-part></part-list><part id="P1"><measure width="184.07" number="1"><print><system-layout><system-margins><left-margin>68.43</left-margin><right-margin>0.00</right-margin></system-margins><top-system-distance>202.55</top-system-distance></system-layout></print><attributes><divisions>6</divisions><key><fifths>-1</fifths><mode>major</mode></key><time><beats>4</beats><beat-type>4</beat-type></time><clef><sign>G</sign><line>2</line></clef></attributes><note default-y="-50.00" default-x="110.89"><pitch><step>C</step><octave>4</octave></pitch><duration>6</duration><voice>1</voice><type>quarter</type><stem>up</stem><lyric number="1"><syllabic>single</syllabic><text>And</text></lyric></note></measure><measure width="353.74" number="2"><barline location="left"><bar-style>heavy-light</bar-style><repeat direction="forward"/></barline><harmony print-frame="no"><root><root-step>F</root-step></root><kind text="">major</kind></harmony><note default-y="-25.00" default-x="33.58"><pitch><step>A</step><octave>4</octave></pitch><duration>12</duration><tie type="start"/><voice>1</voice><type>half</type><stem>up</stem><notations><tied type="start"/></notations><lyric number="1"><syllabic>single</syllabic><text>now</text><extend/></lyric><lyric number="2"><syllabic>single</syllabic><text>loved</text><extend/></lyric></note><note default-y="-25.00" default-x="139.57"><pitch><step>A</step><octave>4</octave></pitch><duration>3</duration><tie type="stop"/><voice>1</voice><type>eighth</type><stem>up</stem><beam number="1">begin</beam><notations><tied type="stop"/></notations></note><note default-y="-50.00" default-x="187.74"><pitch><step>C</step><octave>4</octave></pitch><duration>3</duration><voice>1</voice><type>eighth</type><stem>up</stem><beam number="1">continue</beam><lyric number="1"><syllabic>single</syllabic><text>the</text></lyric><lyric number="2"><syllabic>single</syllabic><text>I've</text></lyric></note><note default-y="-25.00" default-x="245.92"><pitch><step>A</step><octave>4</octave></pitch><duration>3</duration><voice>1</voice><type>eighth</type><stem>up</stem><beam number="1">continue</beam><lyric number="1"><syllabic>single</syllabic><text>end</text></lyric><lyric number="2"><syllabic>single</syllabic><text>laughed</text></lyric></note><note default-y="-30.00" default-x="303.96"><pitch><step>G</step><octave>4</octave></pitch><duration>3</duration><voice>1</voice><type>eighth</type><stem>up</stem><beam number="1">end</beam><lyric number="1"><syllabic>single</syllabic><text>is</text></lyric><lyric number="2"><syllabic>single</syllabic><text>and</text></lyric></note></measure><measure width="306.21" number="3"><harmony print-frame="no"><root><root-step>F</root-step></root><kind text="m">minor</kind></harmony><note default-y="-25.00" default-x="31.07"><pitch><step>A</step><octave>4</octave></pitch><duration>12</duration><tie type="start"/><voice>1</voice><type>half</type><stem>up</stem><notations><tied type="start"/></notations><lyric number="1"><syllabic>single</syllabic><text>near</text><extend/></lyric><lyric number="2"><syllabic>single</syllabic><text>cried</text><extend/></lyric></note><note default-y="-25.00" default-x="128.13"><pitch><step>A</step><octave>4</octave></pitch><duration>3</duration><tie type="stop"/><voice>1</voice><type>eighth</type><stem>up</stem><beam number="1">begin</beam><notations><tied type="stop"/></notations></note><note default-y="-50.00" default-x="172.25"><pitch><step>C</step><octave>4</octave></pitch><duration>3</duration><voice>1</voice><type>eighth</type><stem>up</stem><beam number="1">continue</beam><lyric number="1"><syllabic>single</syllabic><text>and</text></lyric><lyric number="2"><syllabic>single</syllabic><text>I've</text></lyric></note><note default-y="-25.00" default-x="216.37"><pitch><step>A</step><octave>4</octave></pitch><duration>3</duration><voice>1</voice><type>eighth</type><stem>up</stem><beam number="1">continue</beam><lyric number="1"><syllabic>single</syllabic><text>so</text></lyric><lyric number="2"><syllabic>single</syllabic><text>had</text></lyric></note><note default-y="-30.00" default-x="260.49"><pitch><step>G</step><octave>4</octave></pitch><duration>3</duration><voice>1</voice><type>eighth</type><stem>up</stem><beam number="1">end</beam><lyric number="1"><syllabic>single</syllabic><text>I</text></lyric><lyric number="2"><syllabic>single</syllabic><text>my</text></lyric></note></measure><measure width="302.39" number="4"><harmony print-frame="no"><root><root-step>C</root-step></root><kind text="m">minor</kind></harmony><note default-y="-25.00" default-x="27.31"><pitch><step>A</step><octave>4</octave></pitch><duration>12</duration><tie type="start"/><voice>1</voice><type>half</type><stem>up</stem><notations><tied type="start"/></notations><lyric number="1"><syllabic>single</syllabic><text>face</text><extend/></lyric><lyric number="2"><syllabic>single</syllabic><text>fill</text><extend/></lyric></note><note default-y="-25.00" default-x="124.28"><pitch><step>A</step><octave>4</octave></pitch><duration>3</duration><tie type="stop"/><voice>1</voice><type>eighth</type><stem>up</stem><beam number="1">begin</beam><notations><tied type="stop"/></notations></note><note default-y="-50.00" default-x="168.35"><pitch><step>C</step><octave>4</octave></pitch><duration>3</duration><voice>1</voice><type>eighth</type><stem>up</stem><beam number="1">continue</beam><lyric number="1"><syllabic>single</syllabic><text>the</text></lyric><lyric number="2"><syllabic>single</syllabic><text>my</text></lyric></note><note default-y="-25.00" default-x="212.64"><pitch><step>A</step><octave>4</octave></pitch><duration>3</duration><voice>1</voice><type>eighth</type><stem>up</stem><beam number="1">continue</beam><lyric number="1"><syllabic>begin</syllabic><text>fin</text></lyric><lyric number="2"><syllabic>single</syllabic><text>share</text></lyric></note><note default-y="-30.00" default-x="256.71"><pitch><step>G</step><octave>4</octave></pitch><duration>3</duration><voice>1</voice><type>eighth</type><stem>up</stem><beam number="1">end</beam><lyric number="1"><syllabic>end</syllabic><text>al</text></lyric><lyric number="2"><syllabic>single</syllabic><text>of</text></lyric></note></measure><measure width="305.98" number="5"><print new-system="yes"><system-layout><system-margins><left-margin>0.00</left-margin><right-margin>0.00</right-margin></system-margins><system-distance>153.71</system-distance></system-layout></print><harmony print-frame="no"><root><root-step>D</root-step></root><kind text="7">dominant</kind></harmony><note default-y="-30.00" default-x="82.75"><pitch><step>G</step><octave>4</octave></pitch><duration>6</duration><voice>1</voice><type>quarter</type><stem>up</stem><lyric number="1"><syllabic>begin</syllabic><text>cur</text></lyric><lyric number="2"><syllabic>begin</syllabic><text>los</text></lyric></note><note default-y="-35.00" default-x="138.16"><pitch><step>F</step><alter>1</alter><octave>4</octave></pitch><duration>6</duration><voice>1</voice><type>quarter</type><accidental>sharp</accidental><stem>up</stem><lyric number="1"><syllabic>end</syllabic><text>tain</text></lyric><lyric number="2"><syllabic>single</syllabic><text>ing</text></lyric></note><note><rest/><duration>6</duration><voice>1</voice><type>quarter</type></note><note default-y="-45.00" default-x="248.97"><pitch><step>D</step><octave>4</octave></pitch><duration>6</duration><voice>1</voice><type>quarter</type><stem>up</stem><lyric number="1"><syllabic>single</syllabic><text>my</text></lyric><lyric number="2"><syllabic>single</syllabic><text>and</text></lyric></note></measure><measure width="310.01" number="6"><harmony print-frame="no"><root><root-step>G</root-step></root><kind text="m7">minor-seventh</kind></harmony><note default-y="-20.00" default-x="35.45"><pitch><step>B</step><alter>-1</alter><octave>4</octave></pitch><duration>12</duration><tie type="start"/><voice>1</voice><type>half</type><stem>down</stem><notations><tied type="start"/></notations><lyric number="1"><syllabic>single</syllabic><text>friend</text><extend/></lyric><lyric number="2"><syllabic>single</syllabic><text>now</text><extend/></lyric></note><note default-y="-20.00" default-x="132.31"><pitch><step>B</step><alter>-1</alter><octave>4</octave></pitch><duration>3</duration><tie type="stop"/><voice>1</voice><type>eighth</type><stem>up</stem><beam number="1">begin</beam><notations><tied type="stop"/></notations></note><note default-y="-45.00" default-x="176.33"><pitch><step>D</step><octave>4</octave></pitch><duration>3</duration><voice>1</voice><type>eighth</type><stem>up</stem><beam number="1">continue</beam><lyric number="1"><syllabic>single</syllabic><text>I'll</text></lyric><lyric number="2"><syllabic>single</syllabic><text>as</text></lyric></note><note default-y="-20.00" default-x="220.36"><pitch><step>B</step><alter>-1</alter><octave>4</octave></pitch><duration>3</duration><voice>1</voice><type>eighth</type><stem>up</stem><beam number="1">continue</beam><lyric number="1"><syllabic>single</syllabic><text>say</text></lyric><lyric number="2"><syllabic>single</syllabic><text>tears</text></lyric></note><note default-y="-25.00" default-x="264.38"><pitch><step>A</step><octave>4</octave></pitch><duration>3</duration><voice>1</voice><type>eighth</type><stem>up</stem><beam number="1">end</beam><lyric number="1"><syllabic>single</syllabic><text>it</text></lyric><lyric number="2"><syllabic>begin</syllabic><text>sub</text></lyric></note></measure><measure width="296.22" number="7"><harmony print-frame="no"><root><root-step>G</root-step></root><kind text="m7">minor-seventh</kind></harmony><note default-y="-20.00" default-x="30.44"><pitch><step>B</step><alter>-1</alter><octave>4</octave></pitch><duration>12</duration><tie type="start"/><voice>1</voice><type>half</type><stem>down</stem><notations><tied type="start"/></notations><lyric number="1"><syllabic>single</syllabic><text>clear</text><extend/></lyric><lyric number="2"><syllabic>single</syllabic><text>side</text><extend/></lyric></note><harmony print-frame="no"><root><root-step>F</root-step></root><kind text="">major</kind></harmony><note default-y="-20.00" default-x="124.18"><pitch><step>B</step><alter>-1</alter><octave>4</octave></pitch><duration>3</duration><tie type="stop"/><voice>1</voice><type>eighth</type><stem>up</stem><beam number="1">begin</beam><notations><tied type="stop"/></notations></note><note default-y="-45.00" default-x="166.79"><pitch><step>D</step><octave>4</octave></pitch><duration>3</duration><voice>1</voice><type>eighth</type><stem>up</stem><beam number="1">continue</beam><lyric number="1"><syllabic>single</syllabic><text>I'll</text></lyric><lyric number="2"><syllabic>single</syllabic><text>I</text></lyric></note><note default-y="-20.00" default-x="209.40"><pitch><step>B</step><alter>-1</alter><octave>4</octave></pitch><duration>3</duration><voice>1</voice><type>eighth</type><stem>up</stem><beam number="1">continue</beam><lyric number="1"><syllabic>single</syllabic><text>state</text></lyric><lyric number="2"><syllabic>single</syllabic><text>find</text></lyric></note><note default-y="-25.00" default-x="252.01"><pitch><step>A</step><octave>4</octave></pitch><duration>3</duration><voice>1</voice><type>eighth</type><stem>up</stem><beam number="1">end</beam><lyric number="1"><syllabic>single</syllabic><text>my</text></lyric><lyric number="2"><syllabic>single</syllabic><text>it</text></lyric></note></measure><measure width="302.63" number="8"><note default-y="-20.00" default-x="27.95"><pitch><step>B</step><alter>-1</alter><octave>4</octave></pitch><duration>12</duration><tie type="start"/><voice>1</voice><type>half</type><stem>down</stem><notations><tied type="start"/></notations><lyric number="1"><syllabic>single</syllabic><text>case</text><extend/></lyric><lyric number="2"><syllabic>single</syllabic><text>all</text><extend/></lyric></note><note default-y="-20.00" default-x="121.77"><pitch><step>B</step><alter>-1</alter><octave>4</octave></pitch><duration>3</duration><tie type="stop"/><voice>1</voice><type>eighth</type><stem>up</stem><beam number="1">begin</beam><notations><tied type="stop"/></notations></note><note default-y="-15.00" default-x="164.42"><pitch><step>C</step><octave>5</octave></pitch><duration>3</duration><voice>1</voice><type>eighth</type><stem>up</stem><beam number="1">continue</beam><lyric number="1"><syllabic>single</syllabic><text>of</text></lyric></note><note default-y="-30.00" default-x="210.20"><pitch><step>G</step><octave>4</octave></pitch><duration>3</duration><voice>1</voice><type>eighth</type><stem>up</stem><beam number="1">continue</beam><lyric number="1"><syllabic>single</syllabic><text>which</text></lyric><lyric number="2"><syllabic>single</syllabic><text>so</text></lyric></note><note default-y="-30.00" default-x="258.38"><pitch><step>G</step><octave>4</octave></pitch><duration>3</duration><voice>1</voice><type>eighth</type><stem>up</stem><beam number="1">end</beam><lyric number="1"><syllabic>single</syllabic><text>I'm</text></lyric><lyric number="2"><syllabic>begin</syllabic><text>a</text></lyric></note></measure><measure width="306.91" number="9"><print new-system="yes"><system-layout><system-margins><left-margin>0.00</left-margin><right-margin>0.00</right-margin></system-margins><system-distance>153.71</system-distance></system-layout></print><harmony print-frame="no"><root><root-step>C</root-step></root><kind text="7">dominant</kind></harmony><note default-y="-20.00" default-x="87.14"><pitch><step>B</step><alter>-1</alter><octave>4</octave></pitch><duration>6</duration><voice>1</voice><type>quarter</type><stem>down</stem><lyric number="1"><syllabic>begin</syllabic><text>cer</text></lyric><lyric number="2"><syllabic>middle</syllabic><text>mus</text></lyric></note><harmony print-frame="no"><root><root-step>E</root-step></root><kind text="">major</kind></harmony><note default-y="-25.00" default-x="147.74"><pitch><step>A</step><octave>4</octave></pitch><duration>12</duration><voice>1</voice><type>half</type><stem>up</stem><lyric number="1"><syllabic>end</syllabic><text>tain</text></lyric><lyric number="2"><syllabic>end</syllabic><text>ing</text></lyric></note><note default-y="-20.00" default-x="244.71"><pitch><step>B</step><alter>-1</alter><octave>4</octave></pitch><duration>6</duration><voice>1</voice><type>quarter</type><stem>down</stem><lyric number="1"><syllabic>single</syllabic><text>I've</text></lyric><lyric number="2"><syllabic>single</syllabic><text>To</text></lyric></note></measure><measure width="306.36" number="10"><harmony print-frame="no"><root><root-step>F</root-step></root><kind text="">major</kind></harmony><note default-y="-15.00" default-x="31.71"><pitch><step>C</step><octave>5</octave></pitch><duration>12</duration><tie type="start"/><voice>1</voice><type>half</type><stem>down</stem><notations><tied type="start"/></notations><lyric number="1"><syllabic>single</syllabic><text>lived</text><extend/></lyric><lyric number="2"><syllabic>single</syllabic><text>think</text><extend/></lyric></note><note default-y="-15.00" default-x="128.43"><pitch><step>C</step><octave>5</octave></pitch><duration>3</duration><tie type="stop"/><voice>1</voice><type>eighth</type><stem>down</stem><beam number="1">begin</beam><notations><tied type="stop"/></notations></note><note default-y="-20.00" default-x="172.39"><pitch><step>B</step><alter>-1</alter><octave>4</octave></pitch><duration>3</duration><voice>1</voice><type>eighth</type><stem>down</stem><beam number="1">continue</beam><lyric number="1"><syllabic>single</syllabic><text>a</text></lyric><lyric number="2"><syllabic>single</syllabic><text>I</text></lyric></note><note default-y="-15.00" default-x="216.36"><pitch><step>C</step><octave>5</octave></pitch><duration>3</duration><voice>1</voice><type>eighth</type><stem>down</stem><beam number="1">continue</beam><lyric number="1"><syllabic>single</syllabic><text>life</text></lyric><lyric number="2"><syllabic>single</syllabic><text>did</text></lyric></note><note default-y="-10.00" default-x="260.79"><pitch><step>D</step><octave>5</octave></pitch><duration>3</duration><voice>1</voice><type>eighth</type><stem>down</stem><beam number="1">end</beam><lyric number="1"><syllabic>single</syllabic><text>that's</text></lyric><lyric number="2"><syllabic>single</syllabic><text>all</text></lyric></note></measure><measure width="315.15" number="11"><harmony print-frame="no"><root><root-step>F</root-step></root><kind text="7">dominant</kind></harmony><note default-y="-15.00" default-x="25.46"><pitch><step>C</step><octave>5</octave></pitch><duration>12</duration><tie type="start"/><voice>1</voice><type>half</type><stem>down</stem><notations><tied type="start"/></notations><lyric number="1"><syllabic>single</syllabic><text>full</text><extend/></lyric><lyric number="2"><syllabic>single</syllabic><text>that</text><extend/></lyric></note><note default-y="-15.00" default-x="127.29"><pitch><step>C</step><octave>5</octave></pitch><duration>3</duration><tie type="stop"/><voice>1</voice><type>eighth</type><stem>down</stem><beam number="1">begin</beam><notations><tied type="stop"/></notations></note><note default-y="-10.00" default-x="173.58"><pitch><step>D</step><octave>5</octave></pitch><duration>3</duration><voice>1</voice><type>eighth</type><stem>down</stem><beam number="1">continue</beam><lyric number="1"><syllabic>single</syllabic><text>I</text></lyric><lyric number="2"><syllabic>single</syllabic><text>and</text></lyric></note><note default-y="-25.00" default-x="219.86"><pitch><step>A</step><octave>4</octave></pitch><duration>3</duration><voice>1</voice><type>eighth</type><stem>down</stem><beam number="1">continue</beam><lyric number="1"><syllabic>begin</syllabic><text>trav</text></lyric><lyric number="2"><syllabic>single</syllabic><text>may</text></lyric></note><note default-y="-15.00" default-x="267.26"><pitch><step>C</step><octave>5</octave></pitch><duration>3</duration><voice>1</voice><type>eighth</type><stem>down</stem><beam number="1">end</beam><lyric number="1"><syllabic>end</syllabic><text>elled</text></lyric><lyric number="2"><syllabic>single</syllabic><text>I</text></lyric></note></measure><measure width="286.41" number="12"><harmony print-frame="no"><root><root-step>B</root-step><root-alter>-1</root-alter></root><kind text="">major</kind></harmony><note default-y="-20.00" default-x="29.19"><pitch><step>B</step><alter>-1</alter><octave>4</octave></pitch><duration>12</duration><tie type="start"/><voice>1</voice><type>half</type><stem>down</stem><notations><tied type="start"/></notations><lyric number="1"><syllabic>single</syllabic><text>each</text><extend/></lyric><lyric number="2"><syllabic>single</syllabic><text>say</text><extend/></lyric></note><note default-y="-20.00" default-x="119.90"><pitch><step>B</step><alter>-1</alter><octave>4</octave></pitch><duration>3</duration><tie type="stop"/><voice>1</voice><type>eighth</type><stem>down</stem><beam number="1">begin</beam><notations><tied type="stop"/></notations></note><note default-y="-20.00" default-x="161.13"><pitch><step>B</step><alter>-1</alter><octave>4</octave></pitch><duration>3</duration><voice>1</voice><type>eighth</type><stem>down</stem><beam number="1">continue</beam><lyric number="1"><syllabic>single</syllabic><text>and</text></lyric><lyric number="2"><syllabic>single</syllabic><text>not</text></lyric></note><note default-y="-20.00" default-x="202.36"><pitch><step>B</step><alter>-1</alter><octave>4</octave></pitch><duration>3</duration><voice>1</voice><type>eighth</type><stem>down</stem><beam number="1">continue</beam><lyric number="1"><syllabic>begin</syllabic><text>ev</text></lyric><lyric number="2"><syllabic>single</syllabic><text>in</text></lyric></note><note default-y="-25.00" default-x="243.59"><pitch><step>A</step><octave>4</octave></pitch><duration>3</duration><voice>1</voice><type>eighth</type><stem>down</stem><beam number="1">end</beam><lyric number="1"><syllabic>end</syllabic><text>'ry</text></lyric><lyric number="2"><syllabic>single</syllabic><text>a</text></lyric></note></measure><measure width="344.98" number="13"><print new-system="yes"><system-layout><system-margins><left-margin>0.00</left-margin><right-margin>-0.00</right-margin></system-margins><system-distance>153.71</system-distance></system-layout></print><harmony print-frame="no"><root><root-step>B</root-step><root-alter>-1</root-alter></root><kind text="m">minor</kind></harmony><note default-y="-15.00" default-x="88.39"><pitch><step>C</step><octave>5</octave></pitch><duration>6</duration><voice>1</voice><type>quarter</type><stem>down</stem><lyric number="1"><syllabic>begin</syllabic><text>high</text></lyric><lyric number="2"><syllabic>single</syllabic><text>shy</text></lyric></note><note default-y="-20.00" default-x="159.22"><pitch><step>B</step><alter>-1</alter><octave>4</octave></pitch><duration>12</duration><voice>1</voice><type>half</type><stem>down</stem><lyric number="1"><syllabic>end</syllabic><text>way</text></lyric><lyric number="2"><syllabic>single</syllabic><text>way</text></lyric></note><note default-y="-15.00" default-x="272.55"><pitch><step>C</step><octave>5</octave></pitch><duration>6</duration><voice>1</voice><type>quarter</type><stem>down</stem><lyric number="1"><syllabic>single</syllabic><text>and</text></lyric><lyric number="2"><syllabic>single</syllabic><text>Oh</text></lyric></note></measure><measure width="379.75" number="14"><harmony print-frame="no"><root><root-step>F</root-step></root><kind text="">major</kind></harmony><note default-y="-25.00" default-x="31.70"><pitch><step>A</step><octave>4</octave></pitch><duration>12</duration><tie type="start"/><voice>1</voice><type>half</type><stem>up</stem><notations><tied type="start"/></notations><lyric number="1"><syllabic>single</syllabic><text>more</text><extend/></lyric><lyric number="2"><syllabic>single</syllabic><text>no,</text><extend/></lyric></note><note default-y="-25.00" default-x="154.63"><pitch><step>A</step><octave>4</octave></pitch><duration>3</duration><tie type="stop"/><voice>1</voice><type>eighth</type><stem>up</stem><beam number="1">begin</beam><notations><tied type="stop"/></notations></note><note default-y="-50.00" default-x="210.51"><pitch><step>C</step><octave>4</octave></pitch><duration>3</duration><voice>1</voice><type>eighth</type><stem>up</stem><beam number="1">continue</beam><lyric number="1"><syllabic>single</syllabic><text>much</text></lyric><lyric number="2"><syllabic>single</syllabic><text>oh</text></lyric></note><note default-y="-20.00" default-x="266.39"><pitch><step>B</step><alter>-1</alter><octave>4</octave></pitch><duration>3</duration><voice>1</voice><type>eighth</type><stem>up</stem><beam number="1">continue</beam><lyric number="1"><syllabic>single</syllabic><text>more</text></lyric><lyric number="2"><syllabic>single</syllabic><text>no</text></lyric></note><note default-y="-25.00" default-x="322.27"><pitch><step>A</step><octave>4</octave></pitch><duration>3</duration><voice>1</voice><type>eighth</type><stem>up</stem><beam number="1">end</beam><lyric number="1"><syllabic>single</syllabic><text>than</text></lyric><lyric number="2"><syllabic>single</syllabic><text>not</text></lyric></note></measure><measure width="294.05" number="15"><harmony print-frame="no"><root><root-step>C</root-step></root><kind text="7">dominant</kind></harmony><note default-y="-30.00" default-x="24.84"><pitch><step>G</step><octave>4</octave></pitch><duration>12</duration><tie type="start"/><voice>1</voice><type>half</type><stem>up</stem><notations><tied type="start"/></notations><lyric number="1"><syllabic>single</syllabic><text>this</text><extend/></lyric><lyric number="2"><syllabic>single</syllabic><text>me</text><extend/></lyric></note><note default-y="-30.00" default-x="119.80"><pitch><step>G</step><octave>4</octave></pitch><duration>3</duration><tie type="stop"/><voice>1</voice><type>eighth</type><stem>up</stem><beam number="1">begin</beam><notations><tied type="stop"/></notations></note><note default-y="-40.00" default-x="162.96"><pitch><step>E</step><octave>4</octave></pitch><duration>3</duration><voice>1</voice><type>eighth</type><stem>up</stem><beam number="1">continue</beam><lyric number="1"><syllabic>single</syllabic><text>I</text></lyric><lyric number="2"><syllabic>single</syllabic><text>I</text></lyric></note><note default-y="-35.00" default-x="206.13"><pitch><step>F</step><octave>4</octave></pitch><duration>3</duration><voice>1</voice><type>eighth</type><stem>up</stem><beam number="1">continue</beam><lyric number="1"><syllabic>single</syllabic><text>did</text></lyric><lyric number="2"><syllabic>single</syllabic><text>did</text></lyric></note><note default-y="-30.00" default-x="249.29"><pitch><step>G</step><octave>4</octave></pitch><duration>3</duration><voice>1</voice><type>eighth</type><stem>up</stem><beam number="1">end</beam><lyric number="1"><syllabic>single</syllabic><text>it</text></lyric><lyric number="2"><syllabic>single</syllabic><text>it</text></lyric></note></measure><measure width="196.06" number="16"><harmony print-frame="no"><root><root-step>B</root-step><root-alter>-1</root-alter></root><kind text="">major</kind></harmony><note default-y="-30.00" default-x="22.96"><pitch><step>G</step><octave>4</octave></pitch><duration>24</duration><voice>1</voice><type>whole</type><lyric number="1"><syllabic>single</syllabic><text>my</text></lyric><lyric number="2"><syllabic>single</syllabic><text>my</text></lyric></note></measure><measure width="462.47" number="17"><print new-system="yes"><system-layout><system-margins><left-margin>0.00</left-margin><right-margin>-0.00</right-margin></system-margins><system-distance>153.71</system-distance></system-layout></print><harmony print-frame="no"><root><root-step>F</root-step></root><kind text="">major</kind></harmony><note default-y="-35.00" default-x="87.12"><pitch><step>F</step><octave>4</octave></pitch><duration>12</duration><voice>1</voice><type>half</type><stem>up</stem><lyric number="1"><syllabic>single</syllabic><text>way</text></lyric><lyric number="2"><syllabic>single</syllabic><text>way</text></lyric></note><note><rest/><duration>3</duration><voice>1</voice><type>eighth</type></note><note><rest/><duration>2</duration><voice>1</voice><type>eighth</type><time-modification><actual-notes>3</actual-notes><normal-notes>2</normal-notes></time-modification><notations><tuplet type="start" bracket="yes"/></notations></note><note default-y="-25.00" default-x="298.96"><pitch><step>A</step><octave>4</octave></pitch><duration>2</duration><voice>1</voice><type>eighth</type><time-modification><actual-notes>3</actual-notes><normal-notes>2</normal-notes></time-modification><stem>up</stem><beam number="1">begin</beam><lyric number="1"><syllabic>single</syllabic><text>Yes</text></lyric><lyric number="2"><syllabic>single</syllabic><text>What</text></lyric></note><note default-y="-20.00" default-x="351.98"><pitch><step>B</step><alter>-1</alter><octave>4</octave></pitch><duration>2</duration><voice>1</voice><type>eighth</type><time-modification><actual-notes>3</actual-notes><normal-notes>2</normal-notes></time-modification><stem>up</stem><beam number="1">end</beam><notations><tuplet type="stop"/></notations><lyric number="1"><syllabic>single</syllabic><text>there</text></lyric><lyric number="2"><syllabic>single</syllabic><text>is</text></lyric></note><note default-y="-15.00" default-x="402.49"><pitch><step>C</step><octave>5</octave></pitch><duration>3</duration><voice>1</voice><type>eighth</type><stem>down</stem><lyric number="1"><syllabic>single</syllabic><text>were</text></lyric><lyric number="2"><syllabic>single</syllabic><text>a</text></lyric></note></measure><measure width="377.43" number="18"><harmony print-frame="no"><root><root-step>F</root-step></root><kind text="">major</kind></harmony><note default-y="-15.00" default-x="32.95"><pitch><step>C</step><octave>5</octave></pitch><duration>12</duration><tie type="start"/><voice>1</voice><type>half</type><stem>down</stem><notations><tied type="start"/></notations><lyric number="1"><syllabic>single</syllabic><text>times</text><extend/></lyric><lyric number="2"><syllabic>single</syllabic><text>man</text><extend/></lyric></note><note default-y="-15.00" default-x="154.62"><pitch><step>C</step><octave>5</octave></pitch><duration>3</duration><tie type="stop"/><voice>1</voice><type>eighth</type><stem>down</stem><beam number="1">begin</beam><notations><tied type="stop"/></notations></note><note default-y="-10.00" default-x="209.92"><pitch><step>D</step><octave>5</octave></pitch><duration>3</duration><voice>1</voice><type>eighth</type><stem>down</stem><beam number="1">continue</beam><lyric number="1"><syllabic>single</syllabic><text>I'm</text></lyric><lyric number="2"><syllabic>single</syllabic><text>what</text></lyric></note><note default-y="-15.00" default-x="265.23"><pitch><step>C</step><octave>5</octave></pitch><duration>3</duration><voice>1</voice><type>eighth</type><stem>down</stem><beam number="1">continue</beam><lyric number="1"><syllabic>single</syllabic><text>sure</text></lyric><lyric number="2"><syllabic>single</syllabic><text>has</text></lyric></note><note default-y="-20.00" default-x="320.53"><pitch><step>B</step><alter>-1</alter><octave>4</octave></pitch><duration>3</duration><voice>1</voice><type>eighth</type><stem>down</stem><beam number="1">end</beam><lyric number="1"><syllabic>single</syllabic><text>you</text></lyric><lyric number="2"><syllabic>single</syllabic><text>he</text></lyric></note></measure><measure width="374.93" number="19"><harmony print-frame="no"><root><root-step>F</root-step></root><kind text="7">dominant</kind></harmony><note default-y="-15.00" default-x="32.95"><pitch><step>C</step><octave>5</octave></pitch><duration>12</duration><tie type="start"/><voice>1</voice><type>half</type><stem>down</stem><notations><tied type="start"/></notations><lyric number="1"><syllabic>single</syllabic><text>knew</text><extend/></lyric><lyric number="2"><syllabic>single</syllabic><text>got</text><extend/></lyric></note><note default-y="-15.00" default-x="153.73"><pitch><step>C</step><octave>5</octave></pitch><duration>3</duration><tie type="stop"/><voice>1</voice><type>eighth</type><stem>down</stem><beam number="1">begin</beam><notations><tied type="stop"/></notations></note><note default-y="-20.00" default-x="208.63"><pitch><step>B</step><alter>-1</alter><octave>4</octave></pitch><duration>3</duration><voice>1</voice><type>eighth</type><stem>down</stem><beam number="1">continue</beam><lyric number="1"><syllabic>single</syllabic><text>when</text></lyric><lyric number="2"><syllabic>single</syllabic><text>if</text></lyric></note><note default-y="-15.00" default-x="263.53"><pitch><step>C</step><octave>5</octave></pitch><duration>3</duration><voice>1</voice><type>eighth</type><stem>down</stem><beam number="1">continue</beam><lyric number="1"><syllabic>single</syllabic><text>I</text></lyric><lyric number="2"><syllabic>single</syllabic><text>not</text></lyric></note><note default-y="-10.00" default-x="318.43"><pitch><step>D</step><octave>5</octave></pitch><duration>3</duration><voice>1</voice><type>eighth</type><stem>down</stem><beam number="1">end</beam><lyric number="1"><syllabic>single</syllabic><text>bit</text></lyric><lyric number="2"><syllabic>begin</syllabic><text>him</text></lyric></note></measure><measure width="456.88" number="20"><print new-system="yes"><system-layout><system-margins><left-margin>0.00</left-margin><right-margin>0.00</right-margin></system-margins><system-distance>153.71</system-distance></system-layout></print><harmony print-frame="no"><root><root-step>B</root-step><root-alter>-1</root-alter></root><kind text="">major</kind></harmony><note default-y="-10.00" default-x="84.63"><pitch><step>D</step><octave>5</octave></pitch><duration>12</duration><voice>1</voice><type>half</type><stem>down</stem><lyric number="1"><syllabic>single</syllabic><text>off</text></lyric><lyric number="2"><syllabic>end</syllabic><text>self</text></lyric></note><note default-y="-15.00" default-x="216.15"><pitch><step>C</step><octave>5</octave></pitch><duration>3</duration><voice>1</voice><type>eighth</type><stem>down</stem><beam number="1">begin</beam><lyric number="1"><syllabic>single</syllabic><text>more</text></lyric></note><note default-y="-15.00" default-x="275.93"><pitch><step>C</step><octave>5</octave></pitch><duration>3</duration><voice>1</voice><type>eighth</type><stem>down</stem><beam number="1">continue</beam><lyric number="1"><syllabic>single</syllabic><text>than</text></lyric><lyric number="2"><syllabic>single</syllabic><text>then</text></lyric></note><note default-y="-10.00" default-x="335.72"><pitch><step>D</step><octave>5</octave></pitch><duration>3</duration><voice>1</voice><type>eighth</type><stem>down</stem><beam number="1">continue</beam><lyric number="1"><syllabic>single</syllabic><text>I</text></lyric><lyric number="2"><syllabic>single</syllabic><text>he</text></lyric></note><note default-y="-15.00" default-x="395.50"><pitch><step>C</step><octave>5</octave></pitch><duration>3</duration><voice>1</voice><type>eighth</type><stem>down</stem><beam number="1">end</beam><lyric number="1"><syllabic>single</syllabic><text>could</text></lyric><lyric number="2"><syllabic>single</syllabic><text>has</text></lyric></note></measure><measure width="356.32" number="21"><note default-y="-10.00" default-x="32.32"><pitch><step>D</step><octave>5</octave></pitch><duration>12</duration><voice>1</voice><type>half</type><stem>down</stem><lyric number="1"><syllabic>single</syllabic><text>chew</text></lyric><lyric number="2"><syllabic>single</syllabic><text>not</text></lyric></note><note><rest/><duration>3</duration><voice>1</voice><type>eighth</type></note><note default-y="-10.00" default-x="198.72"><pitch><step>D</step><octave>5</octave></pitch><duration>3</duration><voice>1</voice><type>eighth</type><stem>down</stem><beam number="1">begin</beam><lyric number="1"><syllabic>single</syllabic><text>but</text></lyric><lyric number="2"><syllabic>single</syllabic><text>to</text></lyric></note><note default-y="-5.00" default-x="250.72"><pitch><step>E</step><octave>5</octave></pitch><duration>3</duration><voice>1</voice><type>eighth</type><stem>down</stem><beam number="1">continue</beam><lyric number="1"><syllabic>single</syllabic><text>thru</text></lyric><lyric number="2"><syllabic>single</syllabic><text>say</text></lyric></note><note default-y="0.00" default-x="302.72"><pitch><step>F</step><octave>5</octave></pitch><duration>3</duration><voice>1</voice><type>eighth</type><stem>down</stem><beam number="1">end</beam><lyric number="1"><syllabic>single</syllabic><text>it</text></lyric><lyric number="2"><syllabic>single</syllabic><text>the</text></lyric></note></measure><measure width="401.63" number="22"><harmony print-frame="no"><root><root-step>G</root-step></root><kind text="m7">minor-seventh</kind></harmony><note default-y="0.00" default-x="36.09"><pitch><step>F</step><octave>5</octave></pitch><duration>12</duration><tie type="start"/><voice>1</voice><type>half</type><stem>down</stem><notations><tied type="start"/></notations><lyric number="1"><syllabic>single</syllabic><text>all</text><extend/></lyric><lyric number="2"><syllabic>single</syllabic><text>things</text><extend/></lyric></note><note default-y="0.00" default-x="165.23"><pitch><step>F</step><octave>5</octave></pitch><duration>3</duration><tie type="stop"/><voice>1</voice><type>eighth</type><stem>down</stem><beam number="1">begin</beam><notations><tied type="stop"/></notations></note><note default-y="-10.00" default-x="223.93"><pitch><step>D</step><octave>5</octave></pitch><duration>3</duration><voice>1</voice><type>eighth</type><stem>down</stem><beam number="1">continue</beam><lyric number="1"><syllabic>single</syllabic><text>when</text></lyric><lyric number="2"><syllabic>single</syllabic><text>he</text></lyric></note><note default-y="0.00" default-x="282.63"><pitch><step>F</step><octave>5</octave></pitch><duration>3</duration><voice>1</voice><type>eighth</type><stem>down</stem><beam number="1">continue</beam><lyric number="1"><syllabic>single</syllabic><text>there</text></lyric><lyric number="2"><syllabic>begin</syllabic><text>tru</text></lyric></note><note default-y="-10.00" default-x="341.33"><pitch><step>D</step><octave>5</octave></pitch><duration>3</duration><voice>1</voice><type>eighth</type><stem>down</stem><beam number="1">end</beam><lyric number="1"><syllabic>single</syllabic><text>was</text></lyric><lyric number="2"><syllabic>end</syllabic><text>ly</text></lyric></note></measure><measure width="424.32" number="23"><print new-system="yes"><system-layout><system-margins><left-margin>0.00</left-margin><right-margin>0.00</right-margin></system-margins><system-distance>153.71</system-distance></system-layout></print><harmony print-frame="no"><root><root-step>C</root-step></root><kind text="7">dominant</kind></harmony><note default-y="-5.00" default-x="94.02"><pitch><step>E</step><octave>5</octave></pitch><duration>12</duration><voice>1</voice><type>half</type><stem>down</stem><lyric number="1"><syllabic>single</syllabic><text>doubt</text></lyric><lyric number="2"><syllabic>single</syllabic><text>feels</text></lyric></note><note><rest/><duration>3</duration><voice>1</voice><type>eighth</type></note><note default-y="-5.00" default-x="263.67"><pitch><step>E</step><octave>5</octave></pitch><duration>3</duration><voice>1</voice><type>eighth</type><stem>down</stem><beam number="1">begin</beam><lyric number="1"><syllabic>single</syllabic><text>I</text></lyric><lyric number="2"><syllabic>single</syllabic><text>and</text></lyric></note><note default-y="0.00" default-x="316.69"><pitch><step>F</step><octave>5</octave></pitch><duration>3</duration><voice>1</voice><type>eighth</type><stem>down</stem><beam number="1">continue</beam><lyric number="1"><syllabic>single</syllabic><text>ate</text></lyric><lyric number="2"><syllabic>single</syllabic><text>not</text></lyric></note><note default-y="5.00" default-x="369.70"><pitch><step>G</step><octave>5</octave></pitch><duration>3</duration><voice>1</voice><type>eighth</type><stem>down</stem><beam number="1">end</beam><lyric number="1"><syllabic>single</syllabic><text>it</text></lyric><lyric number="2"><syllabic>single</syllabic><text>the</text></lyric></note></measure><measure width="384.83" number="24"><harmony print-frame="no"><root><root-step>A</root-step></root><kind text="m7">minor-seventh</kind></harmony><note default-y="5.00" default-x="36.08"><pitch><step>G</step><octave>5</octave></pitch><duration>12</duration><tie type="start"/><voice>1</voice><type>half</type><stem>down</stem><notations><tied type="start"/></notations><lyric number="1"><syllabic>single</syllabic><text>up</text><extend/></lyric><lyric number="2"><syllabic>single</syllabic><text>words</text><extend/></lyric></note><note default-y="5.00" default-x="159.26"><pitch><step>G</step><octave>5</octave></pitch><duration>3</duration><tie type="stop"/><voice>1</voice><type>eighth</type><stem>down</stem><beam number="1">begin</beam><notations><tied type="stop"/></notations></note><note default-y="10.00" default-x="215.25"><pitch><step>A</step><octave>5</octave></pitch><duration>3</duration><voice>1</voice><type>eighth</type><stem>down</stem><beam number="1">continue</beam><lyric number="1"><syllabic>single</syllabic><text>and</text></lyric><lyric number="2"><syllabic>single</syllabic><text>of</text></lyric></note><note default-y="-5.00" default-x="271.25"><pitch><step>E</step><octave>5</octave></pitch><duration>3</duration><voice>1</voice><type>eighth</type><stem>down</stem><beam number="1">continue</beam><lyric number="1"><syllabic>single</syllabic><text>spit</text></lyric><lyric number="2"><syllabic>single</syllabic><text>one</text></lyric></note><note default-y="5.00" default-x="327.24"><pitch><step>G</step><octave>5</octave></pitch><duration>3</duration><voice>1</voice><type>eighth</type><stem>down</stem><beam number="1">end</beam><lyric number="1"><syllabic>single</syllabic><text>it</text></lyric><lyric number="2"><syllabic>single</syllabic><text>who</text></lyric></note></measure><measure width="405.69" number="25"><harmony print-frame="no"><root><root-step>D</root-step></root><kind text="m7">minor-seventh</kind></harmony><note default-y="0.00" default-x="37.33"><pitch><step>F</step><octave>5</octave></pitch><duration>12</duration><voice>1</voice><type>half</type><stem>down</stem><lyric number="1"><syllabic>single</syllabic><text>out</text></lyric><lyric number="2"><syllabic>single</syllabic><text>kneels</text></lyric></note><note><rest/><duration>3</duration><voice>1</voice><type>eighth</type></note><note default-y="-10.00" default-x="226.62"><pitch><step>D</step><octave>5</octave></pitch><duration>3</duration><voice>1</voice><type>eighth</type><stem>down</stem><beam number="1">begin</beam><lyric number="1"><syllabic>single</syllabic><text>I</text></lyric><lyric number="2"><syllabic>single</syllabic><text>The</text></lyric></note><note default-y="-5.00" default-x="285.78"><pitch><step>E</step><octave>5</octave></pitch><duration>3</duration><voice>1</voice><type>eighth</type><stem>down</stem><beam number="1">continue</beam><lyric number="1"><syllabic>single</syllabic><text>faced</text></lyric><lyric number="2"><syllabic>begin</syllabic><text>re</text></lyric></note><note default-y="0.00" default-x="344.93"><pitch><step>F</step><octave>5</octave></pitch><duration>3</duration><voice>1</voice><type>eighth</type><stem>down</stem><beam number="1">end</beam><lyric number="1"><syllabic>single</syllabic><text>it</text></lyric><lyric number="2"><syllabic>end</syllabic><text>cord</text></lyric></note></measure><measure width="391.23" number="26"><print new-system="yes"><system-layout><system-margins><left-margin>0.00</left-margin><right-margin>-0.00</right-margin></system-margins><system-distance>153.71</system-distance></system-layout></print><harmony print-frame="no"><root><root-step>G</root-step></root><kind text="m7">minor-seventh</kind></harmony><note default-y="0.00" default-x="96.52"><pitch><step>F</step><octave>5</octave></pitch><duration>12</duration><tie type="start"/><voice>1</voice><type>half</type><stem>down</stem><notations><tied type="start"/></notations><lyric number="1"><syllabic>single</syllabic><text>all</text><extend/></lyric><lyric number="2"><syllabic>single</syllabic><text>shows</text><extend/></lyric></note><note default-y="0.00" default-x="197.79"><pitch><step>F</step><octave>5</octave></pitch><duration>3</duration><tie type="stop"/><voice>1</voice><type>eighth</type><stem>down</stem><beam number="1">begin</beam><notations><tied type="stop"/></notations></note><note default-y="-10.00" default-x="243.83"><pitch><step>D</step><octave>5</octave></pitch><duration>3</duration><voice>1</voice><type>eighth</type><stem>down</stem><beam number="1">continue</beam><lyric number="1"><syllabic>single</syllabic><text>and</text></lyric><lyric number="2"><syllabic>single</syllabic><text>I</text></lyric></note><note default-y="5.00" default-x="289.86"><pitch><step>G</step><octave>5</octave></pitch><duration>3</duration><voice>1</voice><type>eighth</type><stem>down</stem><beam number="1">continue</beam><lyric number="1"><syllabic>single</syllabic><text>I</text></lyric><lyric number="2"><syllabic>single</syllabic><text>took</text></lyric></note><note default-y="0.00" default-x="343.59"><pitch><step>F</step><octave>5</octave></pitch><duration>3</duration><voice>1</voice><type>eighth</type><stem>down</stem><beam number="1">end</beam><lyric number="1"><syllabic>single</syllabic><text>stood</text></lyric><lyric number="2"><syllabic>single</syllabic><text>the</text></lyric></note></measure><measure width="280.17" number="27"><harmony print-frame="no"><root><root-step>C</root-step></root><kind text="7">dominant</kind></harmony><note default-y="-5.00" default-x="35.46"><pitch><step>E</step><octave>5</octave></pitch><duration>12</duration><voice>1</voice><type>half</type><stem>down</stem><lyric number="1"><syllabic>single</syllabic><text>tall</text></lyric><lyric number="2"><syllabic>single</syllabic><text>blows</text></lyric></note><note><rest/><duration>3</duration><voice>1</voice><type>eighth</type></note><note default-y="-5.00" default-x="160.94"><pitch><step>E</step><octave>5</octave></pitch><duration>3</duration><voice>1</voice><type>eighth</type><stem>down</stem><beam number="1">begin</beam><lyric number="1"><syllabic>single</syllabic><text>and</text></lyric><lyric number="2"><syllabic>single</syllabic><text>and</text></lyric></note><note default-y="0.00" default-x="200.15"><pitch><step>F</step><octave>5</octave></pitch><duration>3</duration><voice>1</voice><type>eighth</type><stem>down</stem><beam number="1">continue</beam><lyric number="1"><syllabic>single</syllabic><text>did</text></lyric><lyric number="2"><syllabic>single</syllabic><text>did</text></lyric></note><note default-y="5.00" default-x="239.36"><pitch><step>G</step><octave>5</octave></pitch><duration>3</duration><voice>1</voice><type>eighth</type><stem>down</stem><beam number="1">end</beam><lyric number="1"><syllabic>single</syllabic><text>it</text></lyric><lyric number="2"><syllabic>single</syllabic><text>it</text></lyric></note></measure><measure width="145.05" number="28"><harmony print-frame="no"><root><root-step>B</root-step><root-alter>-1</root-alter></root><kind text="">major</kind></harmony><note default-y="5.00" default-x="22.96"><pitch><step>G</step><octave>5</octave></pitch><duration>24</duration><voice>1</voice><type>whole</type><lyric number="1"><syllabic>single</syllabic><text>my</text></lyric><lyric number="2"><syllabic>single</syllabic><text>my</text></lyric></note></measure><measure width="218.02" number="29"><barline location="left"><ending type="start" number="1"/></barline><harmony print-frame="no"><root><root-step>F</root-step></root><kind text="">major</kind></harmony><note default-y="0.00" default-x="27.32"><pitch><step>F</step><octave>5</octave></pitch><duration>12</duration><voice>1</voice><type>half</type><stem>down</stem><lyric number="1"><syllabic>single</syllabic><text>way</text></lyric></note><note><rest/><duration>6</duration><voice>1</voice><type>quarter</type></note><note default-y="-50.00" default-x="154.10"><pitch><step>C</step><octave>4</octave></pitch><duration>6</duration><voice>1</voice><type>quarter</type><stem>up</stem><lyric number="1"><syllabic>single</syllabic><text>I've</text></lyric></note><barline location="right"><bar-style>light-heavy</bar-style><ending type="stop" number="1"/><repeat direction="backward"/></barline></measure><measure width="180.37" number="30"><barline location="left"><ending type="start" number="2"/></barline><harmony print-frame="no"><root><root-step>F</root-step></root><kind text="">major</kind></harmony><note default-y="0.00" default-x="29.33"><pitch><step>F</step><octave>5</octave></pitch><duration>12</duration><voice>1</voice><type>half</type><stem>down</stem><lyric number="2"><syllabic>single</syllabic><text>way.</text></lyric></note><note><rest/><duration>12</duration><voice>1</voice><type>half</type></note><barline location="right"><bar-style>light-heavy</bar-style><ending type="stop" number="2"/></barline></measure></part></score-partwise>