<score-partwise version="2.0"><work><work-number/><work-title/></work><movement-number/><movement-title>Rockin' Around the Christmas Tree</movement-title><identification><creator type="composer">Johnny Marks</creator><creator type="poet"/><rights>Public Domain</rights><encoding><software>MuseScore 0.9.5</software><encoding-date>2009-11-08</encoding-date><software>ProxyMusic 2.0 c</software></encoding><source>http://wikifonia.org/node/3229/revisions/4101/view</source></identification><defaults><scaling><millimeters>5.7</millimeters><tenths>40</tenths></scaling><page-layout><page-height>2084.21</page-height><page-width>1473.68</page-width><page-margins type="both"><left-margin>70.1754</left-margin><right-margin>70.1754</right-margin><top-margin>70.1754</top-margin><bottom-margin>140.351</bottom-margin></page-margins></page-layout></defaults><credit page="1"><credit-words font-size="30" default-y="2014.04" default-x="736.842" justify="center" valign="top">Rockin' Around the Christmas Tree</credit-words></credit><credit page="1"><credit-words font-size="16" default-y="1960.51" default-x="1403.51" justify="right" valign="top">Johnny Marks</credit-words></credit><part-list><score-part id="P1"><part-name/><score-instrument id="P1-I3"><instrument-name/></score-instrument><midi-instrument id="P1-I3"><midi-channel>1</midi-channel><midi-program>41</midi-program></midi-instrument></score-part></part-list><part id="P1"><measure width="438.22" number="1"><print><system-layout><system-margins><left-margin>3.00</left-margin><right-margin>-0.00</right-margin></system-margins><top-system-distance>262.68</top-system-distance></system-layout></print><barline location="left"><bar-style>heavy-light</bar-style><repeat direction="forward"/></barline><attributes><divisions>2</divisions><key><fifths>0</fifths><mode>major</mode></key><time><beats>4</beats><beat-type>4</beat-type></time><clef><sign>G</sign><line>2</line></clef></attributes><harmony print-frame="no"><root><root-step>C</root-step></root><kind text="">major</kind></harmony><note default-y="-30.00" default-x="129.83"><pitch><step>G</step><octave>4</octave></pitch><duration>1</duration><voice>1</voice><type>eighth</type><stem>up</stem><beam number="1">begin</beam><lyric number="1"><syllabic>begin</syllabic><text>Rock</text></lyric></note><note default-y="-30.00" default-x="174.94"><pitch><step>G</step><octave>4</octave></pitch><duration>1</duration><voice>1</voice><type>eighth</type><stem>up</stem><beam number="1">end</beam><lyric number="1"><syllabic>end</syllabic><text>in'</text></lyric></note><note default-y="-30.00" default-x="220.06"><pitch><step>G</step><octave>4</octave></pitch><duration>2</duration><voice>1</voice><type>quarter</type><stem>up</stem><lyric number="1"><syllabic>begin</syllabic><text>a</text></lyric></note><note default-y="-25.00" default-x="292.25"><pitch><step>A</step><octave>4</octave></pitch><duration>2</duration><voice>1</voice><type>quarter</type><stem>up</stem><lyric number="1"><syllabic>end</syllabic><text>round</text></lyric></note><note default-y="-25.00" default-x="364.43"><pitch><step>A</step><octave>4</octave></pitch><duration>2</duration><voice>1</voice><type>quarter</type><stem>up</stem><lyric number="1"><syllabic>single</syllabic><text>the</text></lyric></note></measure><measure width="387.87" number="2"><note default-y="-30.00" default-x="44.56"><pitch><step>G</step><octave>4</octave></pitch><duration>2</duration><voice>1</voice><type>quarter</type><stem>up</stem><lyric number="1"><syllabic>begin</syllabic><text>Christ</text></lyric></note><note default-y="-30.00" default-x="118.86"><pitch><step>G</step><octave>4</octave></pitch><duration>1</duration><voice>1</voice><type>eighth</type><stem>up</stem><beam number="1">begin</beam><lyric number="1"><syllabic>end</syllabic><text>mas</text></lyric></note><note default-y="-25.00" default-x="172.63"><pitch><step>A</step><octave>4</octave></pitch><duration>1</duration><tie type="start"/><voice>1</voice><type>eighth</type><stem>up</stem><beam number="1">end</beam><notations><tied type="start"/></notations><lyric number="1"><syllabic>single</syllabic><text>tree</text><extend/></lyric></note><note default-y="-25.00" default-x="219.08"><pitch><step>A</step><octave>4</octave></pitch><duration>2</duration><tie type="stop"/><voice>1</voice><type>quarter</type><stem>up</stem><notations><tied type="stop"/></notations></note><note default-y="-30.00" default-x="293.38"><pitch><step>G</step><octave>4</octave></pitch><duration>1</duration><voice>1</voice><type>eighth</type><stem>up</stem><beam number="1">begin</beam><lyric number="1"><syllabic>single</syllabic><text>at</text></lyric></note><note default-y="-30.00" default-x="339.83"><pitch><step>G</step><octave>4</octave></pitch><duration>1</duration><voice>1</voice><type>eighth</type><stem>up</stem><beam number="1">end</beam><lyric number="1"><syllabic>single</syllabic><text>the</text></lyric></note></measure><measure width="312.26" number="3"><harmony print-frame="no"><root><root-step>G</root-step></root><kind text="7">dominant</kind></harmony><note default-y="-20.00" default-x="44.72"><pitch><step>B</step><octave>4</octave></pitch><duration>2</duration><voice>1</voice><type>quarter</type><stem>down</stem><lyric number="1"><syllabic>begin</syllabic><text>christ</text></lyric></note><note default-y="-25.00" default-x="111.21"><pitch><step>A</step><octave>4</octave></pitch><duration>2</duration><voice>1</voice><type>quarter</type><stem>up</stem><lyric number="1"><syllabic>end</syllabic><text>mas</text></lyric></note><note default-y="-35.00" default-x="177.69"><pitch><step>F</step><octave>4</octave></pitch><duration>2</duration><voice>1</voice><type>quarter</type><stem>up</stem><lyric number="1"><syllabic>begin</syllabic><text>par</text></lyric></note><note default-y="-45.00" default-x="244.17"><pitch><step>D</step><octave>4</octave></pitch><duration>2</duration><voice>1</voice><type>quarter</type><stem>up</stem><lyric number="1"><syllabic>end</syllabic><text>ty</text></lyric></note></measure><measure width="191.99" number="4"><note default-y="-55.00" default-x="26.70"><pitch><step>B</step><octave>3</octave></pitch><duration>2</duration><voice>1</voice><type>quarter</type><stem>up</stem><lyric number="1"><syllabic>single</syllabic><text>hop</text></lyric></note><note><rest/><duration>2</duration><voice>1</voice><type>quarter</type></note><note><rest/><duration>4</duration><voice>1</voice><type>half</type></note></measure><measure width="408.44" number="5"><print new-system="yes"><system-layout><system-margins><left-margin>3.00</left-margin><right-margin>-0.00</right-margin></system-margins><system-distance>143.96</system-distance></system-layout></print><harmony print-frame="no"><root><root-step>D</root-step></root><kind text="m7">minor-seventh</kind></harmony><note default-y="-25.00" default-x="27.33"><pitch><step>A</step><octave>4</octave></pitch><duration>1</duration><voice>1</voice><type>eighth</type><stem>up</stem><beam number="1">begin</beam><lyric number="1"><syllabic>begin</syllabic><text>Mis</text></lyric></note><note default-y="-25.00" default-x="83.14"><pitch><step>A</step><octave>4</octave></pitch><duration>1</duration><voice>1</voice><type>eighth</type><stem>up</stem><beam number="1">end</beam><lyric number="1"><syllabic>middle</syllabic><text>tle</text></lyric></note><note default-y="-25.00" default-x="138.95"><pitch><step>A</step><octave>4</octave></pitch><duration>2</duration><voice>1</voice><type>quarter</type><stem>up</stem><lyric number="1"><syllabic>end</syllabic><text>toe</text></lyric></note><harmony print-frame="no"><root><root-step>G</root-step></root><kind text="7">dominant</kind></harmony><note default-y="-20.00" default-x="228.24"><pitch><step>B</step><octave>4</octave></pitch><duration>2</duration><voice>1</voice><type>quarter</type><stem>down</stem><lyric number="1"><syllabic>single</syllabic><text>hung</text></lyric></note><note default-y="-20.00" default-x="317.54"><pitch><step>B</step><octave>4</octave></pitch><duration>2</duration><voice>1</voice><type>quarter</type><stem>down</stem><lyric number="1"><syllabic>single</syllabic><text>where</text></lyric></note></measure><measure width="362.21" number="6"><harmony print-frame="no"><root><root-step>D</root-step></root><kind text="m7">minor-seventh</kind></harmony><note default-y="-25.00" default-x="28.98"><pitch><step>A</step><octave>4</octave></pitch><duration>2</duration><voice>1</voice><type>quarter</type><stem>up</stem><lyric number="1"><syllabic>single</syllabic><text>you</text></lyric></note><note default-y="-25.00" default-x="102.62"><pitch><step>A</step><octave>4</octave></pitch><duration>1</duration><voice>1</voice><type>eighth</type><stem>up</stem><beam number="1">begin</beam><lyric number="1"><syllabic>single</syllabic><text>can</text></lyric></note><note default-y="-20.00" default-x="148.91"><pitch><step>B</step><octave>4</octave></pitch><duration>1</duration><tie type="start"/><voice>1</voice><type>eighth</type><stem>up</stem><beam number="1">end</beam><notations><tied type="start"/></notations><lyric number="1"><syllabic>end</syllabic><text>see</text><extend/></lyric></note><harmony print-frame="no"><root><root-step>G</root-step></root><kind text="7">dominant</kind></harmony><note default-y="-20.00" default-x="194.93"><pitch><step>B</step><octave>4</octave></pitch><duration>2</duration><tie type="stop"/><voice>1</voice><type>quarter</type><stem>down</stem><notations><tied type="stop"/></notations></note><note default-y="-25.00" default-x="268.57"><pitch><step>A</step><octave>4</octave></pitch><duration>1</duration><voice>1</voice><type>eighth</type><stem>up</stem><beam number="1">begin</beam><lyric number="1"><syllabic>begin</syllabic><text>Ev</text></lyric></note><note default-y="-25.00" default-x="314.59"><pitch><step>A</step><octave>4</octave></pitch><duration>1</duration><voice>1</voice><type>eighth</type><stem>up</stem><beam number="1">end</beam><lyric number="1"><syllabic>end</syllabic><text>'ry</text></lyric></note></measure><measure width="323.51" number="7"><note default-y="-30.00" default-x="28.80"><pitch><step>G</step><octave>4</octave></pitch><duration>2</duration><voice>1</voice><type>quarter</type><stem>up</stem><lyric number="1"><syllabic>begin</syllabic><text>cou</text></lyric></note><note default-y="-30.00" default-x="102.08"><pitch><step>G</step><alter>1</alter><octave>4</octave></pitch><duration>2</duration><voice>1</voice><type>quarter</type><accidental>sharp</accidental><stem>up</stem><lyric number="1"><syllabic>end</syllabic><text>ple</text></lyric></note><note default-y="-25.00" default-x="175.36"><pitch><step>A</step><octave>4</octave></pitch><duration>2</duration><voice>1</voice><type>quarter</type><stem>up</stem><lyric number="1"><syllabic>single</syllabic><text>tries</text></lyric></note><note default-y="-35.00" default-x="248.63"><pitch><step>F</step><octave>4</octave></pitch><duration>2</duration><voice>1</voice><type>quarter</type><stem>up</stem><lyric number="1"><syllabic>single</syllabic><text>to</text></lyric></note></measure><measure width="236.17" number="8"><harmony print-frame="no"><root><root-step>C</root-step></root><kind text="">major</kind></harmony><note default-y="-40.00" default-x="35.21"><pitch><step>E</step><octave>4</octave></pitch><duration>2</duration><voice>1</voice><type>quarter</type><stem>up</stem><lyric number="1"><syllabic>single</syllabic><text>stop</text></lyric></note><note><rest/><duration>2</duration><voice>1</voice><type>quarter</type></note><note><rest/><duration>4</duration><voice>1</voice><type>half</type></note></measure><measure width="359.92" number="9"><print new-system="yes"><system-layout><system-margins><left-margin>3.00</left-margin><right-margin>-0.00</right-margin></system-margins><system-distance>143.96</system-distance></system-layout></print><harmony print-frame="no"><root><root-step>C</root-step></root><kind text="">major</kind></harmony><note default-y="-30.00" default-x="34.14"><pitch><step>G</step><octave>4</octave></pitch><duration>1</duration><voice>1</voice><type>eighth</type><stem>up</stem><beam number="1">begin</beam><lyric number="1"><syllabic>begin</syllabic><text>Rock</text></lyric></note><note default-y="-30.00" default-x="81.82"><pitch><step>G</step><octave>4</octave></pitch><duration>1</duration><voice>1</voice><type>eighth</type><stem>up</stem><beam number="1">end</beam><lyric number="1"><syllabic>end</syllabic><text>in'</text></lyric></note><note default-y="-30.00" default-x="129.49"><pitch><step>G</step><octave>4</octave></pitch><duration>2</duration><voice>1</voice><type>quarter</type><stem>up</stem><lyric number="1"><syllabic>begin</syllabic><text>a</text></lyric></note><note default-y="-25.00" default-x="205.76"><pitch><step>A</step><octave>4</octave></pitch><duration>2</duration><voice>1</voice><type>quarter</type><stem>up</stem><lyric number="1"><syllabic>end</syllabic><text>round</text></lyric></note><note default-y="-25.00" default-x="282.04"><pitch><step>A</step><octave>4</octave></pitch><duration>2</duration><voice>1</voice><type>quarter</type><stem>up</stem><lyric number="1"><syllabic>single</syllabic><text>the</text></lyric></note></measure><measure width="417.90" number="10"><note default-y="-30.00" default-x="44.56"><pitch><step>G</step><octave>4</octave></pitch><duration>2</duration><voice>1</voice><type>quarter</type><stem>up</stem><lyric number="1"><syllabic>begin</syllabic><text>Christ</text></lyric></note><note default-y="-30.00" default-x="126.62"><pitch><step>G</step><octave>4</octave></pitch><duration>1</duration><voice>1</voice><type>eighth</type><stem>up</stem><beam number="1">begin</beam><lyric number="1"><syllabic>end</syllabic><text>mas</text></lyric></note><note default-y="-25.00" default-x="180.38"><pitch><step>A</step><octave>4</octave></pitch><duration>1</duration><tie type="start"/><voice>1</voice><type>eighth</type><stem>up</stem><beam number="1">end</beam><notations><tied type="start"/></notations><lyric number="1"><syllabic>single</syllabic><text>tree</text><extend/></lyric></note><note default-y="-25.00" default-x="231.67"><pitch><step>A</step><octave>4</octave></pitch><duration>2</duration><tie type="stop"/><voice>1</voice><type>quarter</type><stem>up</stem><notations><tied type="stop"/></notations></note><note default-y="-30.00" default-x="313.73"><pitch><step>G</step><octave>4</octave></pitch><duration>1</duration><voice>1</voice><type>eighth</type><stem>up</stem><beam number="1">begin</beam><lyric number="1"><syllabic>single</syllabic><text>let</text></lyric></note><note default-y="-30.00" default-x="365.02"><pitch><step>G</step><octave>4</octave></pitch><duration>1</duration><voice>1</voice><type>eighth</type><stem>up</stem><beam number="1">end</beam><lyric number="1"><syllabic>single</syllabic><text>the</text></lyric></note></measure><measure width="331.98" number="11"><harmony print-frame="no"><root><root-step>G</root-step></root><kind text="7">dominant</kind></harmony><note default-y="-20.00" default-x="44.56"><pitch><step>B</step><octave>4</octave></pitch><duration>2</duration><voice>1</voice><type>quarter</type><stem>down</stem><lyric number="1"><syllabic>begin</syllabic><text>Christ</text></lyric></note><note default-y="-25.00" default-x="116.01"><pitch><step>A</step><octave>4</octave></pitch><duration>2</duration><voice>1</voice><type>quarter</type><stem>up</stem><lyric number="1"><syllabic>end</syllabic><text>mas</text></lyric></note><note default-y="-35.00" default-x="187.47"><pitch><step>F</step><octave>4</octave></pitch><duration>2</duration><voice>1</voice><type>quarter</type><stem>up</stem><lyric number="1"><syllabic>begin</syllabic><text>spir</text></lyric></note><note default-y="-45.00" default-x="258.92"><pitch><step>D</step><octave>4</octave></pitch><duration>2</duration><voice>1</voice><type>quarter</type><stem>up</stem><lyric number="1"><syllabic>end</syllabic><text>it</text></lyric></note></measure><measure width="220.53" number="12"><note default-y="-55.00" default-x="32.28"><pitch><step>B</step><octave>3</octave></pitch><duration>2</duration><voice>1</voice><type>quarter</type><stem>up</stem><lyric number="1"><syllabic>single</syllabic><text>ring</text></lyric></note><note><rest/><duration>2</duration><voice>1</voice><type>quarter</type></note><note><rest/><duration>4</duration><voice>1</voice><type>half</type></note></measure><measure width="401.55" number="13"><print new-system="yes"><system-layout><system-margins><left-margin>3.00</left-margin><right-margin>-0.00</right-margin></system-margins><system-distance>143.96</system-distance></system-layout></print><harmony print-frame="no"><root><root-step>D</root-step></root><kind text="m7">minor-seventh</kind></harmony><note default-y="-25.00" default-x="26.81"><pitch><step>A</step><octave>4</octave></pitch><duration>1</duration><voice>1</voice><type>eighth</type><stem>up</stem><beam number="1">begin</beam><lyric number="1"><syllabic>begin</syllabic><text>lat</text></lyric></note><note default-y="-25.00" default-x="81.69"><pitch><step>A</step><octave>4</octave></pitch><duration>1</duration><voice>1</voice><type>eighth</type><stem>up</stem><beam number="1">end</beam><lyric number="1"><syllabic>end</syllabic><text>er</text></lyric></note><note default-y="-25.00" default-x="136.56"><pitch><step>A</step><octave>4</octave></pitch><duration>2</duration><voice>1</voice><type>quarter</type><stem>up</stem><lyric number="1"><syllabic>single</syllabic><text>we'll</text></lyric></note><harmony print-frame="no"><root><root-step>G</root-step></root><kind text="7">dominant</kind></harmony><note default-y="-20.00" default-x="224.35"><pitch><step>B</step><octave>4</octave></pitch><duration>2</duration><voice>1</voice><type>quarter</type><stem>down</stem><lyric number="1"><syllabic>single</syllabic><text>have</text></lyric></note><note default-y="-20.00" default-x="312.15"><pitch><step>B</step><octave>4</octave></pitch><duration>2</duration><voice>1</voice><type>quarter</type><stem>down</stem><lyric number="1"><syllabic>single</syllabic><text>some</text></lyric></note></measure><measure width="411.98" number="14"><harmony print-frame="no"><root><root-step>D</root-step></root><kind text="m7">minor-seventh</kind></harmony><note default-y="-25.00" default-x="36.32"><pitch><step>A</step><octave>4</octave></pitch><duration>2</duration><voice>1</voice><type>quarter</type><stem>up</stem><lyric number="1"><syllabic>begin</syllabic><text>pump</text></lyric></note><note default-y="-25.00" default-x="118.12"><pitch><step>A</step><octave>4</octave></pitch><duration>1</duration><voice>1</voice><type>eighth</type><stem>up</stem><beam number="1">begin</beam><lyric number="1"><syllabic>end</syllabic><text>kin</text></lyric></note><note default-y="-20.00" default-x="169.25"><pitch><step>B</step><octave>4</octave></pitch><duration>1</duration><tie type="start"/><voice>1</voice><type>eighth</type><stem>up</stem><beam number="1">end</beam><notations><tied type="start"/></notations><lyric number="1"><syllabic>single</syllabic><text>pie</text><extend/></lyric></note><harmony print-frame="no"><root><root-step>G</root-step></root><kind text="7">dominant</kind></harmony><note default-y="-20.00" default-x="220.37"><pitch><step>B</step><octave>4</octave></pitch><duration>2</duration><tie type="stop"/><voice>1</voice><type>quarter</type><stem>down</stem><notations><tied type="stop"/></notations></note><note default-y="-25.00" default-x="302.17"><pitch><step>A</step><octave>4</octave></pitch><duration>1</duration><voice>1</voice><type>eighth</type><stem>up</stem><beam number="1">begin</beam><lyric number="1"><syllabic>single</syllabic><text>and</text></lyric></note><note default-y="-25.00" default-x="359.25"><pitch><step>A</step><octave>4</octave></pitch><duration>1</duration><voice>1</voice><type>eighth</type><stem>up</stem><beam number="1">end</beam><lyric number="1"><syllabic>single</syllabic><text>we'll</text></lyric></note></measure><measure width="314.53" number="15"><note default-y="-30.00" default-x="22.10"><pitch><step>G</step><octave>4</octave></pitch><duration>2</duration><voice>1</voice><type>quarter</type><stem>up</stem><lyric number="1"><syllabic>single</syllabic><text>do</text></lyric></note><note default-y="-30.00" default-x="94.81"><pitch><step>G</step><alter>1</alter><octave>4</octave></pitch><duration>2</duration><voice>1</voice><type>quarter</type><accidental>sharp</accidental><stem>up</stem><lyric number="1"><syllabic>single</syllabic><text>some</text></lyric></note><note default-y="-25.00" default-x="167.52"><pitch><step>A</step><octave>4</octave></pitch><duration>2</duration><voice>1</voice><type>quarter</type><stem>up</stem><lyric number="1"><syllabic>begin</syllabic><text>car</text></lyric></note><note default-y="-55.00" default-x="240.23"><pitch><step>B</step><octave>3</octave></pitch><duration>2</duration><voice>1</voice><type>quarter</type><stem>up</stem><lyric number="1"><syllabic>middle</syllabic><text>ol</text></lyric></note></measure><measure width="202.28" number="16"><harmony print-frame="no"><root><root-step>C</root-step></root><kind text="">major</kind></harmony><note default-y="-50.00" default-x="25.94"><pitch><step>C</step><octave>4</octave></pitch><duration>6</duration><voice>1</voice><type>half</type><dot/><stem>up</stem><lyric number="1"><syllabic>end</syllabic><text>ing</text></lyric></note><note><rest/><duration>2</duration><voice>1</voice><type>quarter</type></note></measure><measure width="355.65" number="17"><print new-system="yes"><system-layout><system-margins><left-margin>3.00</left-margin><right-margin>-0.00</right-margin></system-margins><system-distance>143.96</system-distance></system-layout></print><harmony print-frame="no"><root><root-step>F</root-step></root><kind text="">major</kind></harmony><note default-y="-25.00" default-x="29.70"><pitch><step>A</step><octave>4</octave></pitch><duration>2</duration><voice>1</voice><type>quarter</type><stem>up</stem><lyric number="1"><syllabic>single</syllabic><text>You</text></lyric></note><note default-y="-30.00" default-x="110.79"><pitch><step>G</step><octave>4</octave></pitch><duration>2</duration><voice>1</voice><type>quarter</type><stem>up</stem><lyric number="1"><syllabic>single</syllabic><text>will</text></lyric></note><note default-y="-25.00" default-x="191.88"><pitch><step>A</step><octave>4</octave></pitch><duration>2</duration><voice>1</voice><type>quarter</type><stem>up</stem><lyric number="1"><syllabic>single</syllabic><text>get</text></lyric></note><note default-y="-30.00" default-x="272.97"><pitch><step>G</step><octave>4</octave></pitch><duration>2</duration><voice>1</voice><type>quarter</type><stem>up</stem><lyric number="1"><syllabic>single</syllabic><text>a</text></lyric></note></measure><measure width="351.31" number="18"><note default-y="-25.00" default-x="29.35"><pitch><step>A</step><octave>4</octave></pitch><duration>2</duration><voice>1</voice><type>quarter</type><stem>up</stem><lyric number="1"><syllabic>begin</syllabic><text>sen</text></lyric></note><note default-y="-50.00" default-x="109.44"><pitch><step>C</step><octave>4</octave></pitch><duration>2</duration><voice>1</voice><type>quarter</type><stem>up</stem><lyric number="1"><syllabic>middle</syllabic><text>ti</text></lyric></note><note default-y="-35.00" default-x="189.53"><pitch><step>F</step><octave>4</octave></pitch><duration>2</duration><voice>1</voice><type>quarter</type><stem>up</stem><lyric number="1"><syllabic>middle</syllabic><text>men</text></lyric></note><note default-y="-25.00" default-x="269.62"><pitch><step>A</step><octave>4</octave></pitch><duration>2</duration><voice>1</voice><type>quarter</type><stem>up</stem><lyric number="1"><syllabic>end</syllabic><text>tal</text></lyric></note></measure><measure width="389.46" number="19"><harmony print-frame="no"><root><root-step>E</root-step></root><kind text="m">minor</kind></harmony><note default-y="-20.00" default-x="32.34"><pitch><step>B</step><octave>4</octave></pitch><duration>2</duration><voice>1</voice><type>quarter</type><stem>down</stem><lyric number="1"><syllabic>begin</syllabic><text>feel</text></lyric></note><note default-y="-30.00" default-x="121.22"><pitch><step>G</step><octave>4</octave></pitch><duration>2</duration><voice>1</voice><type>quarter</type><stem>up</stem><lyric number="1"><syllabic>end</syllabic><text>ing</text></lyric></note><note default-y="-40.00" default-x="210.10"><pitch><step>E</step><octave>4</octave></pitch><duration>2</duration><voice>1</voice><type>quarter</type><stem>up</stem><lyric number="1"><syllabic>single</syllabic><text>when</text></lyric></note><note default-y="-30.00" default-x="298.98"><pitch><step>G</step><octave>4</octave></pitch><duration>2</duration><voice>1</voice><type>quarter</type><stem>up</stem><lyric number="1"><syllabic>single</syllabic><text>you</text></lyric></note></measure><measure width="233.92" number="20"><note default-y="-20.00" default-x="32.37"><pitch><step>B</step><octave>4</octave></pitch><duration>8</duration><voice>1</voice><type>whole</type><lyric number="1"><syllabic>single</syllabic><text>haer</text></lyric></note></measure><measure width="312.83" number="21"><print new-system="yes"><system-layout><system-margins><left-margin>3.00</left-margin><right-margin>-0.00</right-margin></system-margins><system-distance>143.96</system-distance></system-layout></print><harmony print-frame="no"><root><root-step>A</root-step></root><kind text="m">minor</kind></harmony><note default-y="-15.00" default-x="30.63"><pitch><step>C</step><octave>5</octave></pitch><duration>2</duration><voice>1</voice><type>quarter</type><stem>down</stem><lyric number="1"><syllabic>begin</syllabic><text>voic</text></lyric></note><note default-y="-20.00" default-x="100.78"><pitch><step>B</step><octave>4</octave></pitch><duration>2</duration><voice>1</voice><type>quarter</type><stem>down</stem><lyric number="1"><syllabic>end</syllabic><text>es</text></lyric></note><harmony print-frame="no"><root><root-step>A</root-step></root><kind text="m+">minor</kind><degree><degree-value>5</degree-value><degree-alter>1</degree-alter><degree-type>alter</degree-type></degree></harmony><note default-y="-15.00" default-x="170.93"><pitch><step>C</step><octave>5</octave></pitch><duration>2</duration><voice>1</voice><type>quarter</type><stem>down</stem><lyric number="1"><syllabic>begin</syllabic><text>sing</text></lyric></note><note default-y="-20.00" default-x="241.08"><pitch><step>B</step><octave>4</octave></pitch><duration>2</duration><voice>1</voice><type>quarter</type><stem>down</stem><lyric number="1"><syllabic>end</syllabic><text>ing</text></lyric></note></measure><measure width="306.87" number="22"><harmony print-frame="no"><root><root-step>A</root-step></root><kind text="m7">minor-seventh</kind></harmony><note default-y="-15.00" default-x="39.61"><pitch><step>C</step><octave>5</octave></pitch><duration>2</duration><voice>1</voice><type>quarter</type><stem>down</stem><lyric number="1"><syllabic>single</syllabic><text>"let's</text></lyric></note><note default-y="-25.00" default-x="106.03"><pitch><step>A</step><octave>4</octave></pitch><duration>2</duration><voice>1</voice><type>quarter</type><stem>up</stem><lyric number="1"><syllabic>single</syllabic><text>be</text></lyric></note><note default-y="-20.00" default-x="172.44"><pitch><step>B</step><octave>4</octave></pitch><duration>2</duration><voice>1</voice><type>quarter</type><stem>down</stem><lyric number="1"><syllabic>begin</syllabic><text>jol</text></lyric></note><note default-y="-15.00" default-x="238.86"><pitch><step>C</step><octave>5</octave></pitch><duration>2</duration><voice>1</voice><type>quarter</type><stem>down</stem><lyric number="1"><syllabic>end</syllabic><text>ly</text></lyric></note></measure><measure width="379.33" number="23"><harmony print-frame="no"><root><root-step>D</root-step></root><kind text="7">dominant</kind></harmony><note default-y="-10.00" default-x="35.49"><pitch><step>D</step><octave>5</octave></pitch><duration>2</duration><voice>1</voice><type>quarter</type><stem>down</stem><lyric number="1"><syllabic>single</syllabic><text>Deck</text></lyric></note><direction><direction-type><words default-y="100">N.C.</words></direction-type></direction><note><rest/><duration>1</duration><voice>1</voice><type>eighth</type></note><note default-y="-15.00" default-x="163.55"><pitch><step>C</step><octave>5</octave></pitch><duration>1</duration><voice>1</voice><type>eighth</type><stem>down</stem><lyric number="1"><syllabic>single</syllabic><text>the</text></lyric></note><note default-y="-20.00" default-x="220.12"><pitch><step>B</step><octave>4</octave></pitch><duration>2</duration><voice>1</voice><type>quarter</type><stem>down</stem><lyric number="1"><syllabic>single</syllabic><text>halls</text></lyric></note><note default-y="-25.00" default-x="298.92"><pitch><step>A</step><octave>4</octave></pitch><duration>2</duration><voice>1</voice><type>quarter</type><stem>up</stem><lyric number="1"><syllabic>single</syllabic><text>with</text></lyric></note></measure><measure width="331.30" number="24"><harmony print-frame="no"><root><root-step>G</root-step></root><kind text="7">dominant</kind></harmony><note default-y="-30.00" default-x="49.14"><pitch><step>G</step><octave>4</octave></pitch><duration>2</duration><voice>1</voice><type>quarter</type><stem>up</stem><lyric number="1"><syllabic>single</syllabic><text>boughs</text></lyric></note><note default-y="-25.00" default-x="119.28"><pitch><step>A</step><octave>4</octave></pitch><duration>2</duration><voice>1</voice><type>quarter</type><stem>up</stem><lyric number="1"><syllabic>single</syllabic><text>of</text></lyric></note><note default-y="-20.00" default-x="189.42"><pitch><step>B</step><octave>4</octave></pitch><duration>2</duration><voice>1</voice><type>quarter</type><stem>down</stem><lyric number="1"><syllabic>begin</syllabic><text>hol</text></lyric></note><note default-y="-30.00" default-x="259.56"><pitch><step>G</step><octave>4</octave></pitch><duration>2</duration><voice>1</voice><type>quarter</type><stem>up</stem><lyric number="1"><syllabic>end</syllabic><text>ly"</text></lyric></note></measure><measure width="396.69" number="25"><print new-system="yes"><system-layout><system-margins><left-margin>3.00</left-margin><right-margin>-0.00</right-margin></system-margins><system-distance>143.96</system-distance></system-layout></print><harmony print-frame="no"><root><root-step>C</root-step></root><kind text="">major</kind></harmony><note default-y="-30.00" default-x="36.79"><pitch><step>G</step><octave>4</octave></pitch><duration>1</duration><voice>1</voice><type>eighth</type><stem>up</stem><beam number="1">begin</beam><lyric number="1"><syllabic>begin</syllabic><text>Rocki</text></lyric></note><note default-y="-30.00" default-x="89.48"><pitch><step>G</step><octave>4</octave></pitch><duration>1</duration><voice>1</voice><type>eighth</type><stem>up</stem><beam number="1">end</beam><lyric number="1"><syllabic>end</syllabic><text>in'</text></lyric></note><note default-y="-30.00" default-x="142.17"><pitch><step>G</step><octave>4</octave></pitch><duration>2</duration><voice>1</voice><type>quarter</type><stem>up</stem><lyric number="1"><syllabic>begin</syllabic><text>a</text></lyric></note><note default-y="-25.00" default-x="226.48"><pitch><step>A</step><octave>4</octave></pitch><duration>2</duration><voice>1</voice><type>quarter</type><stem>up</stem><lyric number="1"><syllabic>end</syllabic><text>round</text></lyric></note><note default-y="-25.00" default-x="310.78"><pitch><step>A</step><octave>4</octave></pitch><duration>2</duration><voice>1</voice><type>quarter</type><stem>up</stem><lyric number="1"><syllabic>single</syllabic><text>the</text></lyric></note></measure><measure width="437.88" number="26"><note default-y="-30.00" default-x="44.56"><pitch><step>G</step><octave>4</octave></pitch><duration>2</duration><voice>1</voice><type>quarter</type><stem>up</stem><lyric number="1"><syllabic>begin</syllabic><text>Christ</text></lyric></note><note default-y="-30.00" default-x="131.61"><pitch><step>G</step><octave>4</octave></pitch><duration>1</duration><voice>1</voice><type>eighth</type><stem>up</stem><beam number="1">begin</beam><lyric number="1"><syllabic>end</syllabic><text>mas</text></lyric></note><note default-y="-25.00" default-x="186.01"><pitch><step>A</step><octave>4</octave></pitch><duration>1</duration><tie type="start"/><voice>1</voice><type>eighth</type><stem>up</stem><beam number="1">end</beam><notations><tied type="start"/></notations><lyric number="1"><syllabic>single</syllabic><text>tree</text><extend/></lyric></note><note default-y="-25.00" default-x="240.42"><pitch><step>A</step><octave>4</octave></pitch><duration>2</duration><tie type="stop"/><voice>1</voice><type>quarter</type><stem>up</stem><notations><tied type="stop"/></notations></note><note default-y="-30.00" default-x="327.47"><pitch><step>G</step><octave>4</octave></pitch><duration>1</duration><voice>1</voice><type>eighth</type><stem>up</stem><beam number="1">begin</beam><lyric number="1"><syllabic>single</syllabic><text>have</text></lyric></note><note default-y="-30.00" default-x="381.87"><pitch><step>G</step><octave>4</octave></pitch><duration>1</duration><voice>1</voice><type>eighth</type><stem>up</stem><beam number="1">end</beam><lyric number="1"><syllabic>single</syllabic><text>a</text></lyric></note></measure><measure width="293.37" number="27"><harmony print-frame="no"><root><root-step>G</root-step></root><kind text="7">dominant</kind></harmony><note default-y="-20.00" default-x="25.90"><pitch><step>B</step><octave>4</octave></pitch><duration>2</duration><voice>1</voice><type>quarter</type><stem>down</stem><lyric number="1"><syllabic>begin</syllabic><text>hap</text></lyric></note><note default-y="-25.00" default-x="92.37"><pitch><step>A</step><octave>4</octave></pitch><duration>2</duration><voice>1</voice><type>quarter</type><stem>up</stem><lyric number="1"><syllabic>end</syllabic><text>py</text></lyric></note><note default-y="-35.00" default-x="158.84"><pitch><step>F</step><octave>4</octave></pitch><duration>2</duration><voice>1</voice><type>quarter</type><stem>up</stem><lyric number="1"><syllabic>begin</syllabic><text>hol</text></lyric></note><note default-y="-45.00" default-x="225.30"><pitch><step>D</step><octave>4</octave></pitch><duration>2</duration><voice>1</voice><type>quarter</type><stem>up</stem><lyric number="1"><syllabic>middle</syllabic><text>i</text></lyric></note></measure><measure width="202.40" number="28"><note default-y="-55.00" default-x="28.48"><pitch><step>B</step><octave>3</octave></pitch><duration>8</duration><voice>1</voice><type>whole</type><lyric number="1"><syllabic>end</syllabic><text>day</text></lyric></note></measure><measure width="370.99" number="29"><print new-system="yes"><system-layout><system-margins><left-margin>3.00</left-margin><right-margin>-0.00</right-margin></system-margins><system-distance>143.96</system-distance></system-layout></print><harmony print-frame="no"><root><root-step>D</root-step></root><kind text="m7">minor-seventh</kind></harmony><note default-y="-25.00" default-x="20.66"><pitch><step>A</step><octave>4</octave></pitch><duration>1</duration><voice>1</voice><type>eighth</type><stem>up</stem><beam number="1">begin</beam><lyric number="1"><syllabic>begin</syllabic><text>er</text></lyric></note><note default-y="-25.00" default-x="71.94"><pitch><step>A</step><octave>4</octave></pitch><duration>1</duration><voice>1</voice><type>eighth</type><stem>up</stem><beam number="1">end</beam><lyric number="1"><syllabic>begin</syllabic><text>'ry</text></lyric></note><note default-y="-25.00" default-x="123.22"><pitch><step>A</step><octave>4</octave></pitch><duration>2</duration><voice>1</voice><type>quarter</type><stem>up</stem><lyric number="1"><syllabic>end</syllabic><text>one</text></lyric></note><harmony print-frame="no"><root><root-step>G</root-step></root><kind text="7">dominant</kind></harmony><note default-y="-20.00" default-x="205.28"><pitch><step>B</step><octave>4</octave></pitch><duration>2</duration><voice>1</voice><type>quarter</type><stem>down</stem><lyric number="1"><syllabic>begin</syllabic><text>danc</text></lyric></note><note default-y="-20.00" default-x="287.33"><pitch><step>B</step><octave>4</octave></pitch><duration>2</duration><voice>1</voice><type>quarter</type><stem>down</stem><lyric number="1"><syllabic>end</syllabic><text>ing</text></lyric></note></measure><measure width="351.44" number="30"><harmony print-frame="no"><root><root-step>D</root-step></root><kind text="m7">minor-seventh</kind></harmony><note default-y="-25.00" default-x="29.22"><pitch><step>A</step><octave>4</octave></pitch><duration>2</duration><voice>1</voice><type>quarter</type><stem>up</stem><lyric number="1"><syllabic>begin</syllabic><text>mer</text></lyric></note><note default-y="-25.00" default-x="100.47"><pitch><step>A</step><octave>4</octave></pitch><duration>1</duration><voice>1</voice><type>eighth</type><stem>up</stem><beam number="1">begin</beam><lyric number="1"><syllabic>middle</syllabic><text>ri</text></lyric></note><note default-y="-20.00" default-x="145.00"><pitch><step>B</step><octave>4</octave></pitch><duration>1</duration><tie type="start"/><voice>1</voice><type>eighth</type><stem>up</stem><beam number="1">end</beam><notations><tied type="start"/></notations><lyric number="1"><syllabic>end</syllabic><text>ly</text><extend/></lyric></note><harmony print-frame="no"><root><root-step>G</root-step></root><kind text="7">dominant</kind></harmony><note default-y="-20.00" default-x="189.53"><pitch><step>B</step><octave>4</octave></pitch><duration>2</duration><tie type="stop"/><voice>1</voice><type>quarter</type><stem>down</stem><notations><tied type="stop"/></notations></note><note default-y="-25.00" default-x="260.78"><pitch><step>A</step><octave>4</octave></pitch><duration>1</duration><voice>1</voice><type>eighth</type><stem>up</stem><beam number="1">begin</beam><lyric number="1"><syllabic>single</syllabic><text>in</text></lyric></note><note default-y="-25.00" default-x="305.31"><pitch><step>A</step><octave>4</octave></pitch><duration>1</duration><voice>1</voice><type>eighth</type><stem>up</stem><beam number="1">end</beam><lyric number="1"><syllabic>single</syllabic><text>the</text></lyric></note></measure><measure width="373.22" number="31"><barline location="left"><ending type="start" number="1"/></barline><note default-y="-30.00" default-x="31.09"><pitch><step>G</step><octave>4</octave></pitch><duration>2</duration><voice>1</voice><type>quarter</type><stem>up</stem><lyric number="1"><syllabic>single</syllabic><text>new</text></lyric></note><note default-y="-30.00" default-x="116.22"><pitch><step>G</step><alter>1</alter><octave>4</octave></pitch><duration>2</duration><voice>1</voice><type>quarter</type><accidental>sharp</accidental><stem>up</stem><lyric number="1"><syllabic>begin</syllabic><text>old</text></lyric></note><note default-y="-25.00" default-x="201.35"><pitch><step>A</step><octave>4</octave></pitch><duration>2</duration><voice>1</voice><type>quarter</type><stem>up</stem><lyric number="1"><syllabic>middle</syllabic><text>fash</text></lyric></note><note default-y="-20.00" default-x="286.49"><pitch><step>B</step><octave>4</octave></pitch><duration>2</duration><voice>1</voice><type>quarter</type><stem>down</stem><lyric number="1"><syllabic>end</syllabic><text>ioned</text></lyric></note></measure><measure width="234.68" number="32"><harmony print-frame="no"><root><root-step>C</root-step></root><kind text="">major</kind></harmony><note default-y="-15.00" default-x="30.59"><pitch><step>C</step><octave>5</octave></pitch><duration>6</duration><voice>1</voice><type>half</type><dot/><stem>down</stem><lyric number="1"><syllabic>single</syllabic><text>way</text></lyric></note><note><rest/><duration>2</duration><voice>1</voice><type>quarter</type></note><barline location="right"><bar-style>light-heavy</bar-style><ending type="stop" number="1"/><repeat direction="backward"/></barline></measure><measure width="273.65" number="33"><print new-system="yes"><system-layout><system-margins><left-margin>3.00</left-margin><right-margin>-0.00</right-margin></system-margins><system-distance>143.96</system-distance></system-layout></print><barline location="left"><ending type="start" number="2"/></barline><note default-y="-30.00" default-x="32.09"><pitch><step>G</step><octave>4</octave></pitch><duration>2</duration><voice>1</voice><type>quarter</type><stem>up</stem><lyric number="1"><syllabic>single</syllabic><text>New</text></lyric></note><note><rest/><duration>2</duration><voice>1</voice><type>quarter</type></note><note default-y="-30.00" default-x="152.07"><pitch><step>G</step><alter>1</alter><octave>4</octave></pitch><duration>2</duration><voice>1</voice><type>quarter</type><accidental>sharp</accidental><stem>up</stem><lyric number="1"><syllabic>single</syllabic><text>old</text></lyric></note><note><rest/><duration>2</duration><voice>1</voice><type>quarter</type></note></measure><measure width="296.72" number="34"><harmony print-frame="no"><root><root-step>D</root-step></root><kind text="m7">minor-seventh</kind></harmony><note default-y="-25.00" default-x="32.82"><pitch><step>A</step><octave>4</octave></pitch><duration>2</duration><voice>1</voice><type>quarter</type><stem>up</stem><lyric number="1"><syllabic>begin</syllabic><text>fash</text></lyric></note><note><rest/><duration>2</duration><voice>1</voice><type>quarter</type></note><harmony print-frame="no"><root><root-step>G</root-step></root><kind text="7">dominant</kind></harmony><note default-y="-20.00" default-x="163.97"><pitch><step>B</step><octave>4</octave></pitch><duration>2</duration><voice>1</voice><type>quarter</type><stem>down</stem><lyric number="1"><syllabic>end</syllabic><text>ioned</text></lyric></note><note><rest/><duration>2</duration><voice>1</voice><type>quarter</type></note></measure><measure width="211.47" number="35"><harmony print-frame="no"><root><root-step>C</root-step></root><kind text="">major</kind></harmony><note default-y="-10.00" default-x="10.50"><pitch><step>D</step><octave>5</octave></pitch><duration>1</duration><voice>1</voice><type>eighth</type><stem>up</stem></note><harmony print-frame="no"><root><root-step>C</root-step></root><kind text="">major</kind></harmony><backup><duration>1</duration></backup><note default-y="-15.00" default-x="54.18"><pitch><step>C</step><octave>5</octave></pitch><duration>8</duration><tie type="start"/><voice>1</voice><type>whole</type><notations><tied type="start"/></notations><lyric number="1"><syllabic>single</syllabic><text>way</text><extend/></lyric></note></measure><measure width="169.06" number="36"><note default-y="-15.00" default-x="15.00"><pitch><step>C</step><octave>5</octave></pitch><duration>8</duration><tie type="stop"/><tie type="start"/><voice>1</voice><type>whole</type><notations><tied type="stop"/><tied type="start"/></notations></note></measure><measure width="169.06" number="37"><note default-y="-15.00" default-x="15.00"><pitch><step>C</step><octave>5</octave></pitch><duration>8</duration><tie type="stop"/><voice>1</voice><type>whole</type><notations><tied type="stop"/></notations></note><barline location="right"><ending type="discontinue" number="2"/></barline></measure><measure width="210.38" number="38"><note default-y="20.00" default-x="15.00"><pitch><step>C</step><octave>6</octave></pitch><duration>2</duration><voice>1</voice><type>quarter</type><stem>down</stem><notations><articulations><strong-accent type="up"/></articulations></notations></note><note><rest/><duration>2</duration><voice>1</voice><type>quarter</type></note><note><rest/><duration>4</duration><voice>1</voice><type>half</type></note><barline location="right"><bar-style>light-heavy</bar-style></barline></measure></part></score-partwise>