<score-partwise version="2.0"><work><work-number/><work-title/></work><movement-number/><movement-title>Ladybird</movement-title><identification><creator type="composer">Tadd Dameron</creator><creator type="poet"/><rights>All Rights Reserved</rights><encoding><software>MuseScore 0.9.5</software><encoding-date>2009-11-09</encoding-date><software>ProxyMusic 2.0 c</software></encoding><source>http://wikifonia.org/node/3237/revisions/4115/view</source></identification><defaults><scaling><millimeters>5.7</millimeters><tenths>40</tenths></scaling><page-layout><page-height>2084.21</page-height><page-width>1473.68</page-width><page-margins type="both"><left-margin>70.1754</left-margin><right-margin>70.1754</right-margin><top-margin>70.1754</top-margin><bottom-margin>140.351</bottom-margin></page-margins></page-layout></defaults><credit page="1"><credit-words font-size="24" default-y="2014.04" default-x="736.842" justify="center" valign="top">LADYBIRD</credit-words></credit><credit page="1"><credit-words font-size="12" default-y="1950.13" default-x="1403.51" justify="right" valign="top">Tadd Dameron</credit-words></credit><part-list><score-part id="P1"><part-name/><score-instrument id="P1-I3"><instrument-name/></score-instrument><midi-instrument id="P1-I3"><midi-channel>1</midi-channel><midi-program>74</midi-program></midi-instrument></score-part></part-list><part id="P1"><measure width="398.98" number="1"><print><system-layout><system-margins><left-margin>3.00</left-margin><right-margin>-0.00</right-margin></system-margins><top-system-distance>240.00</top-system-distance></system-layout></print><barline location="left"><bar-style>heavy-light</bar-style><repeat direction="forward"/></barline><attributes><divisions>6</divisions><key><fifths>0</fifths><mode>major</mode></key><time><beats>4</beats><beat-type>4</beat-type></time><clef><sign>G</sign><line>2</line></clef></attributes><harmony print-frame="no"><root><root-step>C</root-step></root><kind text="Maj7">major-seventh</kind></harmony><note><rest/><duration>3</duration><voice>1</voice><type>eighth</type></note><note default-y="-30.00" default-x="150.86"><pitch><step>G</step><octave>4</octave></pitch><duration>9</duration><voice>1</voice><type>quarter</type><dot/><stem>up</stem></note><note default-y="-30.00" default-x="244.24"><pitch><step>G</step><octave>4</octave></pitch><duration>6</duration><voice>1</voice><type>quarter</type><stem>up</stem></note><note default-y="-30.00" default-x="320.81"><pitch><step>G</step><octave>4</octave></pitch><duration>6</duration><voice>1</voice><type>quarter</type><stem>up</stem></note></measure><measure width="319.98" number="2"><note default-y="-30.00" default-x="15.00"><pitch><step>G</step><octave>4</octave></pitch><duration>9</duration><voice>1</voice><type>quarter</type><dot/><stem>up</stem></note><note default-y="-30.00" default-x="115.29"><pitch><step>G</step><octave>4</octave></pitch><duration>3</duration><voice>1</voice><type>eighth</type><stem>up</stem></note><note><rest/><duration>3</duration><voice>1</voice><type>eighth</type></note><note default-y="-30.00" default-x="218.09"><pitch><step>G</step><octave>4</octave></pitch><duration>9</duration><voice>1</voice><type>quarter</type><dot/><stem>up</stem></note></measure><measure width="335.49" number="3"><harmony print-frame="no"><root><root-step>F</root-step></root><kind text="m7">minor-seventh</kind></harmony><note default-y="-20.00" default-x="17.74"><pitch><step>B</step><alter>-1</alter><octave>4</octave></pitch><duration>12</duration><voice>1</voice><type>half</type><accidental>flat</accidental><stem>down</stem></note><note default-y="-25.00" default-x="142.32"><pitch><step>A</step><alter>-1</alter><octave>4</octave></pitch><duration>4</duration><voice>1</voice><type>quarter</type><accidental>flat</accidental><time-modification><actual-notes>3</actual-notes><normal-notes>2</normal-notes></time-modification><stem>up</stem><notations><tuplet type="start" bracket="yes"/></notations></note><note default-y="-40.00" default-x="206.18"><pitch><step>E</step><alter>-1</alter><octave>4</octave></pitch><duration>4</duration><voice>1</voice><type>quarter</type><accidental>flat</accidental><time-modification><actual-notes>3</actual-notes><normal-notes>2</normal-notes></time-modification><stem>up</stem></note><note default-y="-50.00" default-x="270.04"><pitch><step>C</step><octave>4</octave></pitch><duration>4</duration><voice>1</voice><type>quarter</type><time-modification><actual-notes>3</actual-notes><normal-notes>2</normal-notes></time-modification><stem>up</stem><notations><tuplet type="stop"/></notations></note></measure><measure width="275.87" number="4"><harmony print-frame="no"><root><root-step>B</root-step><root-alter>-1</root-alter></root><kind text="7">dominant</kind></harmony><note default-y="-30.00" default-x="15.00"><pitch><step>G</step><octave>4</octave></pitch><duration>6</duration><voice>1</voice><type>quarter</type><stem>up</stem></note><note default-y="-35.00" default-x="102.86"><pitch><step>F</step><octave>4</octave></pitch><duration>18</duration><voice>1</voice><type>half</type><dot/><stem>up</stem></note></measure><measure width="326.88" number="5"><print new-system="yes"><system-layout><system-margins><left-margin>3.00</left-margin><right-margin>-0.00</right-margin></system-margins><system-distance>92.00</system-distance></system-layout></print><harmony print-frame="no"><root><root-step>C</root-step></root><kind text="Maj7">major-seventh</kind></harmony><note><rest/><duration>3</duration><voice>1</voice><type>eighth</type></note><note default-y="-30.00" default-x="65.44"><pitch><step>G</step><octave>4</octave></pitch><duration>9</duration><voice>1</voice><type>quarter</type><dot/><stem>up</stem></note><note default-y="-30.00" default-x="163.86"><pitch><step>G</step><octave>4</octave></pitch><duration>6</duration><voice>1</voice><type>quarter</type><stem>up</stem></note><note default-y="-30.00" default-x="244.57"><pitch><step>G</step><octave>4</octave></pitch><duration>6</duration><voice>1</voice><type>quarter</type><stem>up</stem></note></measure><measure width="335.88" number="6"><note default-y="-30.00" default-x="15.00"><pitch><step>G</step><octave>4</octave></pitch><duration>9</duration><voice>1</voice><type>quarter</type><dot/><stem>up</stem></note><note default-y="-30.00" default-x="120.54"><pitch><step>G</step><octave>4</octave></pitch><duration>3</duration><voice>1</voice><type>eighth</type><stem>up</stem></note><note><rest/><duration>3</duration><voice>1</voice><type>eighth</type></note><note default-y="-30.00" default-x="228.74"><pitch><step>G</step><octave>4</octave></pitch><duration>9</duration><voice>1</voice><type>quarter</type><dot/><stem>up</stem></note></measure><measure width="348.66" number="7"><harmony print-frame="no"><root><root-step>B</root-step><root-alter>-1</root-alter></root><kind text="m7">minor-seventh</kind></harmony><note default-y="-15.00" default-x="15.00"><pitch><step>C</step><octave>5</octave></pitch><duration>12</duration><voice>1</voice><type>half</type><stem>down</stem></note><note default-y="-25.00" default-x="145.85"><pitch><step>A</step><alter>-1</alter><octave>4</octave></pitch><duration>4</duration><voice>1</voice><type>quarter</type><accidental>flat</accidental><time-modification><actual-notes>3</actual-notes><normal-notes>2</normal-notes></time-modification><stem>up</stem><notations><tuplet type="start" bracket="yes"/></notations></note><note default-y="-35.00" default-x="212.92"><pitch><step>F</step><octave>4</octave></pitch><duration>4</duration><voice>1</voice><type>quarter</type><time-modification><actual-notes>3</actual-notes><normal-notes>2</normal-notes></time-modification><stem>up</stem></note><note default-y="-45.00" default-x="279.99"><pitch><step>D</step><alter>-1</alter><octave>4</octave></pitch><duration>4</duration><voice>1</voice><type>quarter</type><accidental>flat</accidental><time-modification><actual-notes>3</actual-notes><normal-notes>2</normal-notes></time-modification><stem>up</stem><notations><tuplet type="stop"/></notations></note></measure><measure width="318.92" number="8"><harmony print-frame="no"><root><root-step>E</root-step><root-alter>-1</root-alter></root><kind text="7">dominant</kind></harmony><note default-y="-15.00" default-x="15.00"><pitch><step>C</step><octave>5</octave></pitch><duration>6</duration><voice>1</voice><type>quarter</type><stem>down</stem></note><note default-y="-20.00" default-x="98.98"><pitch><step>B</step><octave>4</octave></pitch><duration>12</duration><voice>1</voice><type>half</type><accidental>natural</accidental><stem>down</stem></note><note><rest/><duration>6</duration><voice>1</voice><type>quarter</type></note></measure><measure width="338.58" number="9"><print new-system="yes"><system-layout><system-margins><left-margin>3.00</left-margin><right-margin>-0.00</right-margin></system-margins><system-distance>92.00</system-distance></system-layout></print><harmony print-frame="no"><root><root-step>A</root-step><root-alter>-1</root-alter></root><kind text="Maj7">major-seventh</kind></harmony><note><rest/><duration>3</duration><voice>1</voice><type>eighth</type></note><note default-y="-20.00" default-x="67.35"><pitch><step>B</step><alter>-1</alter><octave>4</octave></pitch><duration>9</duration><voice>1</voice><type>quarter</type><dot/><accidental>flat</accidental><stem>down</stem></note><note default-y="-25.00" default-x="169.47"><pitch><step>A</step><octave>4</octave></pitch><duration>6</duration><voice>1</voice><type>quarter</type><stem>up</stem></note><note default-y="-25.00" default-x="253.22"><pitch><step>A</step><alter>-1</alter><octave>4</octave></pitch><duration>6</duration><voice>1</voice><type>quarter</type><accidental>flat</accidental><stem>up</stem></note></measure><measure width="332.37" number="10"><note default-y="-20.00" default-x="17.74"><pitch><step>B</step><alter>-1</alter><octave>4</octave></pitch><duration>6</duration><voice>1</voice><type>quarter</type><accidental>flat</accidental><stem>down</stem></note><note default-y="-25.00" default-x="104.09"><pitch><step>A</step><octave>4</octave></pitch><duration>3</duration><voice>1</voice><type>eighth</type><stem>up</stem><beam number="1">begin</beam></note><note default-y="-25.00" default-x="158.06"><pitch><step>A</step><alter>-1</alter><octave>4</octave></pitch><duration>3</duration><tie type="start"/><voice>1</voice><type>eighth</type><accidental>flat</accidental><stem>up</stem><beam number="1">end</beam><notations><tied type="start"/></notations></note><note default-y="-25.00" default-x="212.03"><pitch><step>A</step><alter>-1</alter><octave>4</octave></pitch><duration>12</duration><tie type="stop"/><voice>1</voice><type>half</type><stem>up</stem><notations><tied type="stop"/></notations></note></measure><measure width="328.34" number="11"><harmony print-frame="no"><root><root-step>A</root-step></root><kind text="m7">minor-seventh</kind></harmony><note><rest/><duration>3</duration><voice>1</voice><type>eighth</type></note><note default-y="-20.00" default-x="65.68"><pitch><step>B</step><octave>4</octave></pitch><duration>9</duration><voice>1</voice><type>quarter</type><dot/><stem>down</stem></note><note default-y="-20.00" default-x="164.56"><pitch><step>B</step><alter>-1</alter><octave>4</octave></pitch><duration>6</duration><voice>1</voice><type>quarter</type><accidental>flat</accidental><stem>down</stem></note><note default-y="-25.00" default-x="245.65"><pitch><step>A</step><octave>4</octave></pitch><duration>6</duration><voice>1</voice><type>quarter</type><stem>up</stem></note></measure><measure width="331.05" number="12"><harmony print-frame="no"><root><root-step>D</root-step></root><kind text="7">dominant</kind></harmony><note default-y="-20.00" default-x="16.42"><pitch><step>B</step><octave>4</octave></pitch><duration>6</duration><voice>1</voice><type>quarter</type><accidental>natural</accidental><stem>down</stem></note><note default-y="-20.00" default-x="102.77"><pitch><step>B</step><alter>-1</alter><octave>4</octave></pitch><duration>3</duration><voice>1</voice><type>eighth</type><accidental>flat</accidental><stem>up</stem><beam number="1">begin</beam></note><note default-y="-25.00" default-x="156.74"><pitch><step>A</step><octave>4</octave></pitch><duration>3</duration><tie type="start"/><voice>1</voice><type>eighth</type><stem>up</stem><beam number="1">end</beam><notations><tied type="start"/></notations></note><note default-y="-25.00" default-x="210.71"><pitch><step>A</step><octave>4</octave></pitch><duration>12</duration><tie type="stop"/><voice>1</voice><type>half</type><stem>up</stem><notations><tied type="stop"/></notations></note></measure><measure width="326.50" number="13"><print new-system="yes"><system-layout><system-margins><left-margin>3.00</left-margin><right-margin>-0.00</right-margin></system-margins><system-distance>92.00</system-distance></system-layout></print><harmony print-frame="no"><root><root-step>D</root-step></root><kind text="m7">minor-seventh</kind></harmony><note default-y="-15.00" default-x="15.00"><pitch><step>C</step><octave>5</octave></pitch><duration>12</duration><tie type="start"/><voice>1</voice><type>half</type><stem>down</stem><notations><tied type="start"/></notations></note><note default-y="-15.00" default-x="137.12"><pitch><step>C</step><octave>5</octave></pitch><duration>4</duration><tie type="stop"/><voice>1</voice><type>quarter</type><time-modification><actual-notes>3</actual-notes><normal-notes>2</normal-notes></time-modification><stem>up</stem><notations><tied type="stop"/><tuplet type="start" bracket="yes"/></notations></note><note default-y="-25.00" default-x="199.71"><pitch><step>A</step><octave>4</octave></pitch><duration>4</duration><voice>1</voice><type>quarter</type><time-modification><actual-notes>3</actual-notes><normal-notes>2</normal-notes></time-modification><stem>up</stem></note><note default-y="-35.00" default-x="262.31"><pitch><step>F</step><octave>4</octave></pitch><duration>4</duration><voice>1</voice><type>quarter</type><time-modification><actual-notes>3</actual-notes><normal-notes>2</normal-notes></time-modification><stem>up</stem><notations><tuplet type="stop"/></notations></note></measure><measure width="321.54" number="14"><harmony print-frame="no"><root><root-step>G</root-step></root><kind text="7">dominant</kind></harmony><note default-y="-40.00" default-x="15.00"><pitch><step>E</step><octave>4</octave></pitch><duration>12</duration><voice>1</voice><type>half</type><stem>up</stem></note><note default-y="-50.00" default-x="150.53"><pitch><step>C</step><alter>1</alter><octave>4</octave></pitch><duration>6</duration><voice>1</voice><type>quarter</type><accidental>sharp</accidental><stem>up</stem></note><note default-y="-45.00" default-x="235.24"><pitch><step>D</step><octave>4</octave></pitch><duration>6</duration><voice>1</voice><type>quarter</type><stem>up</stem></note></measure><measure width="336.02" number="15"><harmony print-frame="no"><root><root-step>C</root-step></root><kind text="Maj7">major-seventh</kind></harmony><note default-y="-30.00" default-x="15.00"><pitch><step>G</step><octave>4</octave></pitch><duration>6</duration><voice>1</voice><type>quarter</type><stem>up</stem></note><note default-y="-30.00" default-x="94.86"><pitch><step>G</step><octave>4</octave></pitch><duration>6</duration><voice>1</voice><type>quarter</type><stem>up</stem></note><harmony print-frame="no"><root><root-step>E</root-step><root-alter>-1</root-alter></root><kind text="7">dominant</kind></harmony><note default-y="-35.00" default-x="174.71"><pitch><step>F</step><octave>4</octave></pitch><duration>6</duration><voice>1</voice><type>quarter</type><stem>up</stem></note><note default-y="-40.00" default-x="254.57"><pitch><step>E</step><alter>-1</alter><octave>4</octave></pitch><duration>6</duration><voice>1</voice><type>quarter</type><accidental>flat</accidental><stem>up</stem></note></measure><measure width="346.26" number="16"><harmony print-frame="no"><root><root-step>A</root-step><root-alter>-1</root-alter></root><kind text="Maj7">major-seventh</kind></harmony><note default-y="-35.00" default-x="15.00"><pitch><step>F</step><octave>4</octave></pitch><duration>6</duration><voice>1</voice><type>quarter</type><stem>up</stem></note><note default-y="-35.00" default-x="94.06"><pitch><step>F</step><octave>4</octave></pitch><duration>6</duration><voice>1</voice><type>quarter</type><stem>up</stem></note><harmony print-frame="no"><root><root-step>G</root-step></root><kind text="7#5">augmented-seventh</kind></harmony><note default-y="-40.00" default-x="173.11"><pitch><step>E</step><alter>-1</alter><octave>4</octave></pitch><duration>6</duration><voice>1</voice><type>quarter</type><accidental>flat</accidental><stem>up</stem></note><note default-y="-45.00" default-x="252.17"><pitch><step>D</step><alter>-1</alter><octave>4</octave></pitch><duration>6</duration><voice>1</voice><type>quarter</type><accidental>flat</accidental><stem>up</stem></note><barline location="right"><bar-style>light-heavy</bar-style><repeat direction="backward"/></barline></measure></part></score-partwise>