<score-partwise version="2.0"><work><work-number/><work-title/></work><movement-number/><movement-title>Mary in the morning</movement-title><identification><creator type="composer">Johnny Cymbal, Mike Lendell</creator><creator type="poet">Johnny Cymbal, Mike Lendell</creator><rights>All Rights Reserved</rights><encoding><software>MuseScore 0.9.5</software><encoding-date>2009-11-15</encoding-date><software>ProxyMusic 2.0 c</software></encoding><source>http://wikifonia.org/node/3312/revisions/4225/view</source></identification><defaults><scaling><millimeters>7.056</millimeters><tenths>40</tenths></scaling><page-layout><page-height>1683.67</page-height><page-width>1190.48</page-width><page-margins type="both"><left-margin>56.6893</left-margin><right-margin>56.6893</right-margin><top-margin>56.6893</top-margin><bottom-margin>113.379</bottom-margin></page-margins></page-layout></defaults><credit page="1"><credit-words font-size="24" default-y="1626.98" default-x="595.238" justify="center" valign="top">Mary in the morning</credit-words></credit><credit page="1"><credit-words font-size="12" default-y="1556.5" default-x="1133.79" justify="right" valign="top">Johnny Cymbal and Mike Lendell</credit-words></credit><part-list><score-part id="P1"><part-name>Electric Piano</part-name><score-instrument id="P1-I3"><instrument-name>Electric Piano</instrument-name></score-instrument><midi-instrument id="P1-I3"><midi-channel>1</midi-channel><midi-program>5</midi-program></midi-instrument></score-part></part-list><part id="P1"><measure width="338.54" number="1"><print><system-layout><system-margins><left-margin>151.27</left-margin><right-margin>-0.00</right-margin></system-margins><top-system-distance>217.22</top-system-distance></system-layout></print><barline location="left"><bar-style>heavy-light</bar-style><repeat direction="forward"/></barline><attributes><divisions>2</divisions><key><fifths>0</fifths><mode>major</mode></key><time><beats>4</beats><beat-type>4</beat-type></time><clef><sign>G</sign><line>2</line></clef></attributes><harmony print-frame="no"><root><root-step>C</root-step></root><kind text="">major</kind></harmony><note default-y="-30.00" default-x="122.92"><pitch><step>G</step><octave>4</octave></pitch><duration>1</duration><voice>1</voice><type>eighth</type><stem>up</stem><lyric number="1"><syllabic>begin</syllabic><text>Noth</text></lyric><lyric number="2"><syllabic>begin</syllabic><text>Noth</text></lyric><lyric number="3"><syllabic>begin</syllabic><text>Noth</text></lyric></note><note default-y="-30.00" default-x="170.19"><pitch><step>G</step><octave>4</octave></pitch><duration>3</duration><voice>1</voice><type>quarter</type><dot/><stem>up</stem><lyric number="1"><syllabic>end</syllabic><text>ings</text></lyric><lyric number="2"><syllabic>end</syllabic><text>ings</text></lyric><lyric number="3"><syllabic>end</syllabic><text>ings</text></lyric></note><note default-y="-30.00" default-x="233.35"><pitch><step>G</step><octave>4</octave></pitch><duration>2</duration><voice>1</voice><type>quarter</type><stem>up</stem><lyric number="1"><syllabic>single</syllabic><text>quite</text></lyric><lyric number="2"><syllabic>single</syllabic><text>quite</text></lyric><lyric number="3"><syllabic>single</syllabic><text>quite</text></lyric></note><note default-y="-30.00" default-x="285.14"><pitch><step>G</step><octave>4</octave></pitch><duration>2</duration><voice>1</voice><type>quarter</type><stem>up</stem><lyric number="1"><syllabic>single</syllabic><text>as</text></lyric><lyric number="2"><syllabic>single</syllabic><text>as</text></lyric><lyric number="3"><syllabic>single</syllabic><text>as</text></lyric></note></measure><measure width="163.19" number="2"><harmony print-frame="no"><root><root-step>F</root-step></root><kind text="">major</kind></harmony><note default-y="-30.00" default-x="25.99"><pitch><step>G</step><octave>4</octave></pitch><duration>1</duration><voice>1</voice><type>eighth</type><stem>up</stem><lyric number="1"><syllabic>begin</syllabic><text>pret</text></lyric><lyric number="2"><syllabic>begin</syllabic><text>pret</text></lyric><lyric number="3"><syllabic>begin</syllabic><text>pret</text></lyric></note><note default-y="-30.00" default-x="62.04"><pitch><step>G</step><octave>4</octave></pitch><duration>3</duration><tie type="start"/><voice>1</voice><type>quarter</type><dot/><stem>up</stem><notations><tied type="start"/></notations><lyric number="1"><syllabic>end</syllabic><text>ty</text></lyric><lyric number="2"><syllabic>end</syllabic><text>ty</text></lyric><lyric number="3"><syllabic>end</syllabic><text>ty</text></lyric></note><note default-y="-30.00" default-x="108.83"><pitch><step>G</step><octave>4</octave></pitch><duration>4</duration><tie type="stop"/><voice>1</voice><type>half</type><stem>up</stem><notations><tied type="stop"/></notations></note></measure><measure width="190.65" number="3"><harmony print-frame="no"><root><root-step>C</root-step></root><kind text="">major</kind></harmony><note><rest/><duration>2</duration><voice>1</voice><type>quarter</type></note><note default-y="-30.00" default-x="58.51"><pitch><step>G</step><octave>4</octave></pitch><duration>2</duration><voice>1</voice><type>quarter</type><stem>up</stem><lyric number="1"><syllabic>single</syllabic><text>as</text></lyric><lyric number="2"><syllabic>single</syllabic><text>as</text></lyric><lyric number="3"><syllabic>single</syllabic><text>as</text></lyric></note><note default-y="-30.00" default-x="102.03"><pitch><step>G</step><octave>4</octave></pitch><duration>2</duration><voice>1</voice><type>quarter</type><stem>up</stem><lyric number="1"><syllabic>begin</syllabic><text>Mar</text></lyric><lyric number="2"><syllabic>begin</syllabic><text>Mar</text></lyric><lyric number="3"><syllabic>begin</syllabic><text>Mar</text></lyric></note><note default-y="-30.00" default-x="145.54"><pitch><step>G</step><octave>4</octave></pitch><duration>2</duration><voice>1</voice><type>quarter</type><stem>up</stem><lyric number="1"><syllabic>end</syllabic><text>y</text></lyric><lyric number="2"><syllabic>end</syllabic><text>y</text></lyric><lyric number="3"><syllabic>end</syllabic><text>y</text></lyric></note></measure><measure width="233.45" number="4"><harmony print-frame="no"><root><root-step>G</root-step></root><kind text="7">dominant</kind></harmony><note default-y="-30.00" default-x="17.23"><pitch><step>G</step><octave>4</octave></pitch><duration>2</duration><voice>1</voice><type>quarter</type><stem>up</stem><lyric number="1"><syllabic>single</syllabic><text>in</text></lyric><lyric number="2"><syllabic>single</syllabic><text>in</text></lyric><lyric number="3"><syllabic>single</syllabic><text>in</text></lyric></note><note default-y="-35.00" default-x="70.89"><pitch><step>F</step><octave>4</octave></pitch><duration>2</duration><voice>1</voice><type>quarter</type><stem>up</stem><lyric number="1"><syllabic>single</syllabic><text>the</text></lyric><lyric number="2"><syllabic>single</syllabic><text>the</text></lyric><lyric number="3"><syllabic>single</syllabic><text>the</text></lyric></note><note default-y="-40.00" default-x="124.54"><pitch><step>E</step><octave>4</octave></pitch><duration>2</duration><voice>1</voice><type>quarter</type><stem>up</stem><lyric number="1"><syllabic>begin</syllabic><text>morn</text></lyric><lyric number="2"><syllabic>begin</syllabic><text>morn</text></lyric><lyric number="3"><syllabic>begin</syllabic><text>eve</text></lyric></note><note default-y="-45.00" default-x="178.19"><pitch><step>D</step><octave>4</octave></pitch><duration>2</duration><voice>1</voice><type>quarter</type><stem>up</stem><lyric number="1"><syllabic>end</syllabic><text>ing</text></lyric><lyric number="2"><syllabic>end</syllabic><text>ing</text></lyric><lyric number="3"><syllabic>end</syllabic><text>ning</text></lyric></note></measure><measure width="334.39" number="5"><print new-system="yes"><system-layout><system-margins><left-margin>0.00</left-margin><right-margin>-0.00</right-margin></system-margins><system-distance>194.74</system-distance></system-layout></print><harmony print-frame="no"><root><root-step>A</root-step></root><kind text="m">minor</kind></harmony><note><rest/><duration>2</duration><voice>1</voice><type>quarter</type></note><note default-y="-40.00" default-x="123.08"><pitch><step>E</step><octave>4</octave></pitch><duration>2</duration><voice>1</voice><type>quarter</type><stem>up</stem><lyric number="1"><syllabic>single</syllabic><text>when</text></lyric><lyric number="2"><syllabic>begin</syllabic><text>chas</text></lyric><lyric number="3"><syllabic>single</syllabic><text>kissed</text></lyric></note><note default-y="-40.00" default-x="192.98"><pitch><step>E</step><octave>4</octave></pitch><duration>2</duration><voice>1</voice><type>quarter</type><stem>up</stem><lyric number="1"><syllabic>single</syllabic><text>through</text></lyric><lyric number="2"><syllabic>end</syllabic><text>ing</text></lyric><lyric number="3"><syllabic>single</syllabic><text>by</text></lyric></note><note default-y="-40.00" default-x="262.89"><pitch><step>E</step><octave>4</octave></pitch><duration>2</duration><voice>1</voice><type>quarter</type><stem>up</stem><lyric number="1"><syllabic>single</syllabic><text>a</text></lyric><lyric number="2"><syllabic>single</syllabic><text>a</text></lyric><lyric number="3"><syllabic>single</syllabic><text>the</text></lyric></note></measure><measure width="303.61" number="6"><harmony print-frame="no"><root><root-step>F</root-step></root><kind text="">major</kind></harmony><note default-y="-35.00" default-x="38.52"><pitch><step>F</step><octave>4</octave></pitch><duration>1</duration><voice>1</voice><type>eighth</type><stem>up</stem><lyric number="1"><syllabic>begin</syllabic><text>sleep</text></lyric><lyric number="2"><syllabic>begin</syllabic><text>rain</text></lyric><lyric number="3"><syllabic>single</syllabic><text>shades</text></lyric></note><note default-y="-35.00" default-x="93.92"><pitch><step>F</step><octave>4</octave></pitch><duration>3</duration><voice>1</voice><type>quarter</type><dot/><stem>up</stem><lyric number="1"><syllabic>end</syllabic><text>y</text></lyric><lyric number="2"><syllabic>end</syllabic><text>bow</text></lyric><lyric number="3"><syllabic>single</syllabic><text>of</text></lyric></note><note default-y="-50.00" default-x="172.73"><pitch><step>C</step><octave>4</octave></pitch><duration>2</duration><voice>1</voice><type>quarter</type><stem>up</stem><lyric number="1"><syllabic>single</syllabic><text>haze</text></lyric><lyric number="2"><syllabic>single</syllabic><text>in</text></lyric><lyric number="3"><syllabic>single</syllabic><text>night</text></lyric></note><note default-y="-50.00" default-x="237.37"><pitch><step>C</step><octave>4</octave></pitch><duration>2</duration><voice>1</voice><type>quarter</type><stem>up</stem><lyric number="1"><syllabic>single</syllabic><text>I</text></lyric><lyric number="2"><syllabic>single</syllabic><text>her</text></lyric><lyric number="3"><syllabic>single</syllabic><text>and</text></lyric></note></measure><measure width="286.04" number="7"><harmony print-frame="no"><root><root-step>D</root-step></root><kind text="7">dominant</kind></harmony><note default-y="-45.00" default-x="41.01"><pitch><step>D</step><octave>4</octave></pitch><duration>2</duration><voice>1</voice><type>quarter</type><stem>up</stem><lyric number="1"><syllabic>single</syllabic><text>see</text></lyric><lyric number="2"><syllabic>single</syllabic><text>dreams</text></lyric><lyric number="3"><syllabic>begin</syllabic><text>star</text></lyric></note><note default-y="-45.00" default-x="101.87"><pitch><step>D</step><octave>4</octave></pitch><duration>2</duration><voice>1</voice><type>quarter</type><stem>up</stem><lyric number="1"><syllabic>single</syllabic><text>her</text></lyric><lyric number="2"><syllabic>single</syllabic><text>so</text></lyric><lyric number="3"><syllabic>end</syllabic><text>light</text></lyric></note><note default-y="-60.00" default-x="162.73"><pitch><step>A</step><octave>3</octave></pitch><duration>2</duration><voice>1</voice><type>quarter</type><stem>up</stem><lyric number="1"><syllabic>begin</syllabic><text>ly</text></lyric><lyric number="2"><syllabic>single</syllabic><text>far</text></lyric><lyric number="3"><syllabic>single</syllabic><text>in</text></lyric></note><note default-y="-60.00" default-x="223.59"><pitch><step>A</step><octave>3</octave></pitch><duration>2</duration><voice>1</voice><type>quarter</type><stem>up</stem><lyric number="1"><syllabic>end</syllabic><text>ing</text></lyric><lyric number="2"><syllabic>begin</syllabic><text>a</text></lyric><lyric number="3"><syllabic>single</syllabic><text>her</text></lyric></note></measure><measure width="153.05" number="8"><harmony print-frame="no"><root><root-step>G</root-step></root><kind text="7">dominant</kind></harmony><note default-y="-55.00" default-x="30.99"><pitch><step>B</step><octave>3</octave></pitch><duration>8</duration><voice>1</voice><type>whole</type><lyric number="1"><syllabic>single</syllabic><text>there</text></lyric><lyric number="2"><syllabic>single</syllabic><text>way</text></lyric><lyric number="3"><syllabic>single</syllabic><text>hair</text></lyric></note></measure><measure width="262.85" number="9"><print new-system="yes"><system-layout><system-margins><left-margin>0.00</left-margin><right-margin>-0.00</right-margin></system-margins><system-distance>194.74</system-distance></system-layout></print><harmony print-frame="no"><root><root-step>C</root-step></root><kind text="">major</kind></harmony><note><rest/><duration>2</duration><voice>1</voice><type>quarter</type></note><note default-y="-30.00" default-x="105.20"><pitch><step>G</step><octave>4</octave></pitch><duration>2</duration><voice>1</voice><type>quarter</type><stem>up</stem><lyric number="1"><syllabic>single</syllabic><text>soft</text></lyric><lyric number="2"><syllabic>single</syllabic><text>and</text></lyric><lyric number="3"><syllabic>single</syllabic><text>and</text></lyric></note><note default-y="-30.00" default-x="157.21"><pitch><step>G</step><octave>4</octave></pitch><duration>2</duration><voice>1</voice><type>quarter</type><stem>up</stem><lyric number="1"><syllabic>single</syllabic><text>as</text></lyric><lyric number="2"><syllabic>single</syllabic><text>when</text></lyric><lyric number="3"><syllabic>single</syllabic><text>as</text></lyric></note><note default-y="-30.00" default-x="209.23"><pitch><step>G</step><octave>4</octave></pitch><duration>2</duration><voice>1</voice><type>quarter</type><stem>up</stem><lyric number="1"><syllabic>single</syllabic><text>the</text></lyric><lyric number="2"><syllabic>single</syllabic><text>she</text></lyric><lyric number="3"><syllabic>single</syllabic><text>we</text></lyric></note></measure><measure width="122.91" number="10"><harmony print-frame="no"><root><root-step>F</root-step></root><kind text="">major</kind></harmony><note default-y="-30.00" default-x="31.01"><pitch><step>G</step><octave>4</octave></pitch><duration>8</duration><voice>1</voice><type>whole</type><lyric number="1"><syllabic>single</syllabic><text>rain</text></lyric><lyric number="2"><syllabic>single</syllabic><text>turns</text></lyric><lyric number="3"><syllabic>single</syllabic><text>walk</text></lyric></note></measure><measure width="214.64" number="11"><harmony print-frame="no"><root><root-step>C</root-step></root><kind text="">major</kind></harmony><note><rest/><duration>2</duration><voice>1</voice><type>quarter</type></note><note default-y="-30.00" default-x="64.51"><pitch><step>G</step><octave>4</octave></pitch><duration>2</duration><voice>1</voice><type>quarter</type><stem>up</stem><lyric number="1"><syllabic>single</syllabic><text>that</text></lyric><lyric number="2"><syllabic>single</syllabic><text>I</text></lyric><lyric number="3"><syllabic>single</syllabic><text>I</text></lyric></note><note default-y="-30.00" default-x="114.02"><pitch><step>G</step><octave>4</octave></pitch><duration>2</duration><voice>1</voice><type>quarter</type><stem>up</stem><lyric number="1"><syllabic>single</syllabic><text>falls</text></lyric><lyric number="2"><syllabic>single</syllabic><text>kiss</text></lyric><lyric number="3"><syllabic>single</syllabic><text>hold</text></lyric></note><note default-y="-30.00" default-x="163.53"><pitch><step>G</step><octave>4</octave></pitch><duration>2</duration><voice>1</voice><type>quarter</type><stem>up</stem><lyric number="1"><syllabic>single</syllabic><text>on</text></lyric><lyric number="2"><syllabic>single</syllabic><text>her</text></lyric><lyric number="3"><syllabic>single</syllabic><text>her</text></lyric></note></measure><measure width="245.81" number="12"><harmony print-frame="no"><root><root-step>G</root-step></root><kind text="7">dominant</kind></harmony><note default-y="-30.00" default-x="31.63"><pitch><step>G</step><octave>4</octave></pitch><duration>2</duration><voice>1</voice><type>quarter</type><stem>up</stem><lyric number="1"><syllabic>begin</syllabic><text>sum</text></lyric><lyric number="2"><syllabic>single</syllabic><text>face</text></lyric><lyric number="3"><syllabic>single</syllabic><text>close</text></lyric></note><note default-y="-35.00" default-x="84.77"><pitch><step>F</step><octave>4</octave></pitch><duration>2</duration><voice>1</voice><type>quarter</type><stem>up</stem><lyric number="1"><syllabic>end</syllabic><text>mer</text></lyric><lyric number="2"><syllabic>single</syllabic><text>so</text></lyric><lyric number="3"><syllabic>begin</syllabic><text>be</text></lyric></note><note default-y="-40.00" default-x="137.92"><pitch><step>E</step><octave>4</octave></pitch><duration>2</duration><voice>1</voice><type>quarter</type><stem>up</stem><lyric number="1"><syllabic>begin</syllabic><text>flow</text></lyric><lyric number="2"><syllabic>begin</syllabic><text>soft</text></lyric><lyric number="3"><syllabic>end</syllabic><text>side</text></lyric></note><note default-y="-45.00" default-x="191.06"><pitch><step>D</step><octave>4</octave></pitch><duration>2</duration><voice>1</voice><type>quarter</type><stem>up</stem><lyric number="1"><syllabic>end</syllabic><text>ers</text></lyric><lyric number="2"><syllabic>end</syllabic><text>ly</text></lyric><lyric number="3"><syllabic>single</syllabic><text>me</text></lyric></note></measure><measure width="230.89" number="13"><harmony print-frame="no"><root><root-step>A</root-step></root><kind text="m">minor</kind></harmony><note><rest/><duration>2</duration><voice>1</voice><type>quarter</type></note><note default-y="-40.00" default-x="68.57"><pitch><step>E</step><octave>4</octave></pitch><duration>2</duration><voice>1</voice><type>quarter</type><stem>up</stem><lyric number="1"><syllabic>single</syllabic><text>warm</text></lyric><lyric number="2"><syllabic>single</syllabic><text>and</text></lyric><lyric number="3"><syllabic>single</syllabic><text>all</text></lyric></note><note default-y="-40.00" default-x="122.15"><pitch><step>E</step><octave>4</octave></pitch><duration>2</duration><voice>1</voice><type>quarter</type><stem>up</stem><lyric number="1"><syllabic>single</syllabic><text>as</text></lyric><lyric number="2"><syllabic>single</syllabic><text>then</text></lyric><lyric number="3"><syllabic>single</syllabic><text>our</text></lyric></note><note default-y="-40.00" default-x="175.72"><pitch><step>E</step><octave>4</octave></pitch><duration>2</duration><voice>1</voice><type>quarter</type><stem>up</stem><lyric number="1"><syllabic>single</syllabic><text>the</text></lyric><lyric number="2"><syllabic>single</syllabic><text>my</text></lyric><lyric number="3"><syllabic>begin</syllabic><text>to</text></lyric></note></measure><measure width="298.63" number="14"><print new-system="yes"><system-layout><system-margins><left-margin>0.00</left-margin><right-margin>-0.00</right-margin></system-margins><system-distance>194.74</system-distance></system-layout></print><harmony print-frame="no"><root><root-step>F</root-step></root><kind text="">major</kind></harmony><note default-y="-35.00" default-x="72.92"><pitch><step>F</step><octave>4</octave></pitch><duration>1</duration><voice>1</voice><type>eighth</type><stem>up</stem><lyric number="1"><syllabic>begin</syllabic><text>sun</text></lyric><lyric number="2"><syllabic>begin</syllabic><text>Mar</text></lyric><lyric number="3"><syllabic>middle</syllabic><text>mor</text></lyric></note><note default-y="-35.00" default-x="122.11"><pitch><step>F</step><octave>4</octave></pitch><duration>3</duration><voice>1</voice><type>quarter</type><dot/><stem>up</stem><lyric number="1"><syllabic>end</syllabic><text>light</text></lyric><lyric number="2"><syllabic>end</syllabic><text>y</text></lyric><lyric number="3"><syllabic>end</syllabic><text>rows</text></lyric></note><note default-y="-50.00" default-x="188.37"><pitch><step>C</step><octave>4</octave></pitch><duration>2</duration><voice>1</voice><type>quarter</type><stem>up</stem><lyric number="1"><syllabic>begin</syllabic><text>shin</text></lyric><lyric number="2"><syllabic>single</syllabic><text>wakes</text></lyric><lyric number="3"><syllabic>single</syllabic><text>for</text></lyric></note><note default-y="-50.00" default-x="242.70"><pitch><step>C</step><octave>4</octave></pitch><duration>2</duration><voice>1</voice><type>quarter</type><stem>up</stem><lyric number="1"><syllabic>end</syllabic><text>ing</text></lyric><lyric number="2"><syllabic>single</syllabic><text>to</text></lyric><lyric number="3"><syllabic>single</syllabic><text>a</text></lyric></note></measure><measure width="237.88" number="15"><harmony print-frame="no"><root><root-step>D</root-step></root><kind text="7">dominant</kind></harmony><note default-y="-45.00" default-x="27.87"><pitch><step>D</step><octave>4</octave></pitch><duration>2</duration><voice>1</voice><type>quarter</type><stem>up</stem><lyric number="1"><syllabic>single</syllabic><text>on</text></lyric><lyric number="2"><syllabic>single</syllabic><text>love</text></lyric><lyric number="3"><syllabic>begin</syllabic><text>life</text></lyric></note><note default-y="-45.00" default-x="79.97"><pitch><step>D</step><octave>4</octave></pitch><duration>2</duration><voice>1</voice><type>quarter</type><stem>up</stem><lyric number="1"><syllabic>single</syllabic><text>her</text></lyric><lyric number="2"><syllabic>begin</syllabic><text>an</text></lyric><lyric number="3"><syllabic>end</syllabic><text>time</text></lyric></note><note default-y="-60.00" default-x="132.08"><pitch><step>A</step><octave>3</octave></pitch><duration>2</duration><voice>1</voice><type>quarter</type><stem>up</stem><lyric number="1"><syllabic>begin</syllabic><text>gold</text></lyric><lyric number="2"><syllabic>middle</syllabic><text>oth</text></lyric><lyric number="3"><syllabic>single</syllabic><text>we</text></lyric></note><note default-y="-60.00" default-x="184.18"><pitch><step>A</step><octave>3</octave></pitch><duration>2</duration><voice>1</voice><type>quarter</type><stem>up</stem><lyric number="1"><syllabic>end</syllabic><text>en</text></lyric><lyric number="2"><syllabic>end</syllabic><text>er</text></lyric><lyric number="3"><syllabic>single</syllabic><text>will</text></lyric></note></measure><measure width="119.27" number="16"><harmony print-frame="no"><root><root-step>G</root-step></root><kind text="7">dominant</kind></harmony><note default-y="-55.00" default-x="35.06"><pitch><step>B</step><octave>3</octave></pitch><duration>8</duration><tie type="start"/><voice>1</voice><type>whole</type><notations><tied type="start"/></notations><lyric number="1"><syllabic>single</syllabic><text>hair</text></lyric><lyric number="2"><syllabic>single</syllabic><text>day.</text></lyric><lyric number="3"><syllabic>single</syllabic><text>share.</text></lyric></note></measure><measure width="91.56" number="17"><note default-y="-55.00" default-x="15.00"><pitch><step>B</step><octave>3</octave></pitch><duration>8</duration><tie type="stop"/><voice>1</voice><type>whole</type><notations><tied type="stop"/></notations></note></measure><measure width="119.96" number="18"><harmony print-frame="no"><root><root-step>C</root-step></root><kind text="">major</kind></harmony><note default-y="-40.00" default-x="15.00"><pitch><step>E</step><octave>4</octave></pitch><duration>4</duration><voice>1</voice><type>half</type><stem>up</stem></note><harmony print-frame="no"><root><root-step>F</root-step></root><kind text="">major</kind></harmony><note default-y="-40.00" default-x="60.94"><pitch><step>E</step><octave>4</octave></pitch><duration>2</duration><voice>1</voice><type>quarter</type><stem>up</stem></note><note default-y="-45.00" default-x="89.65"><pitch><step>D</step><octave>4</octave></pitch><duration>2</duration><voice>1</voice><type>quarter</type><stem>up</stem></note></measure><measure width="104.68" number="19"><barline location="left"><ending type="start" number="1"/></barline><harmony print-frame="no"><root><root-step>C</root-step></root><kind text="">major</kind></harmony><note default-y="-40.00" default-x="15.00"><pitch><step>E</step><octave>4</octave></pitch><duration>4</duration><voice>1</voice><type>half</type><stem>up</stem></note><note><rest/><duration>4</duration><voice>1</voice><type>half</type></note><barline location="right"><ending type="stop" number="1"/></barline></measure><measure width="105.12" number="20"><barline location="left"><ending type="start" number="3"/></barline><harmony print-frame="no"><root><root-step>C</root-step></root><kind text="">major</kind></harmony><note default-y="-40.00" default-x="15.00"><pitch><step>E</step><octave>4</octave></pitch><duration>8</duration><voice>1</voice><type>whole</type></note><barline location="right"><bar-style>light-heavy</bar-style><ending type="stop" number="3"/><repeat direction="backward"/></barline></measure><measure width="257.89" number="21"><print new-system="yes"><system-layout><system-margins><left-margin>0.00</left-margin><right-margin>-0.00</right-margin></system-margins><system-distance>194.74</system-distance></system-layout></print><harmony print-frame="no"><root><root-step>A</root-step></root><kind text="m">minor</kind></harmony><note><rest/><duration>2</duration><voice>1</voice><type>quarter</type></note><note default-y="-25.00" default-x="103.68"><pitch><step>A</step><octave>4</octave></pitch><duration>2</duration><voice>1</voice><type>quarter</type><stem>up</stem><lyric number="1"><syllabic>single</syllabic><text>When</text></lyric><lyric number="2"><syllabic>single</syllabic><text>And</text></lyric></note><note default-y="-25.00" default-x="155.29"><pitch><step>A</step><octave>4</octave></pitch><duration>2</duration><voice>1</voice><type>quarter</type><stem>up</stem><lyric number="1"><syllabic>single</syllabic><text>I</text></lyric><lyric number="2"><syllabic>begin</syllabic><text>Mar</text></lyric></note><note default-y="-20.00" default-x="205.79"><pitch><step>B</step><octave>4</octave></pitch><duration>2</duration><voice>1</voice><type>quarter</type><stem>down</stem><lyric number="1"><syllabic>begin</syllabic><text>a</text></lyric><lyric number="2"><syllabic>end</syllabic><text>ys</text></lyric></note></measure><measure width="119.48" number="22"><note default-y="-15.00" default-x="32.24"><pitch><step>C</step><octave>5</octave></pitch><duration>8</duration><voice>1</voice><type>whole</type><lyric number="1"><syllabic>end</syllabic><text>wake</text></lyric><lyric number="2"><syllabic>single</syllabic><text>there</text></lyric></note></measure><measure width="198.74" number="23"><note><rest/><duration>2</duration><voice>1</voice><type>quarter</type></note><note default-y="-25.00" default-x="60.53"><pitch><step>A</step><octave>4</octave></pitch><duration>2</duration><voice>1</voice><type>quarter</type><stem>up</stem><lyric number="1"><syllabic>single</syllabic><text>and</text></lyric><lyric number="2"><syllabic>single</syllabic><text>in</text></lyric></note><note default-y="-25.00" default-x="106.07"><pitch><step>A</step><octave>4</octave></pitch><duration>2</duration><voice>1</voice><type>quarter</type><stem>up</stem><lyric number="1"><syllabic>single</syllabic><text>see</text></lyric><lyric number="2"><syllabic>begin</syllabic><text>sun</text></lyric></note><note default-y="-20.00" default-x="151.60"><pitch><step>B</step><octave>4</octave></pitch><duration>2</duration><voice>1</voice><type>quarter</type><stem>down</stem><lyric number="1"><syllabic>single</syllabic><text>her</text></lyric><lyric number="2"><syllabic>end</syllabic><text>ny</text></lyric></note></measure><measure width="231.25" number="24"><note default-y="-15.00" default-x="30.99"><pitch><step>C</step><octave>5</octave></pitch><duration>2</duration><voice>1</voice><type>quarter</type><stem>down</stem><lyric number="1"><syllabic>single</syllabic><text>there</text></lyric><lyric number="2"><syllabic>single</syllabic><text>days</text></lyric></note><note default-y="-20.00" default-x="80.66"><pitch><step>B</step><octave>4</octave></pitch><duration>2</duration><voice>1</voice><type>quarter</type><stem>down</stem><lyric number="1"><syllabic>single</syllabic><text>so</text></lyric><lyric number="2"><syllabic>single</syllabic><text>or</text></lyric></note><note default-y="-15.00" default-x="130.32"><pitch><step>C</step><octave>5</octave></pitch><duration>2</duration><voice>1</voice><type>quarter</type><stem>down</stem><lyric number="1"><syllabic>single</syllabic><text>close</text></lyric><lyric number="2"><syllabic>begin</syllabic><text>storm</text></lyric></note><note default-y="-10.00" default-x="179.98"><pitch><step>D</step><octave>5</octave></pitch><duration>2</duration><voice>1</voice><type>quarter</type><stem>down</stem><lyric number="1"><syllabic>begin</syllabic><text>be</text></lyric><lyric number="2"><syllabic>end</syllabic><text>y</text></lyric></note></measure><measure width="159.21" number="25"><harmony print-frame="no"><root><root-step>G</root-step></root><kind text="">major</kind></harmony><note default-y="-20.00" default-x="35.38"><pitch><step>B</step><octave>4</octave></pitch><duration>2</duration><voice>1</voice><type>quarter</type><stem>down</stem><lyric number="1"><syllabic>end</syllabic><text>side</text></lyric><lyric number="2"><syllabic>begin</syllabic><text>weath</text></lyric></note><note default-y="-30.00" default-x="81.98"><pitch><step>G</step><octave>4</octave></pitch><duration>6</duration><tie type="start"/><voice>1</voice><type>half</type><dot/><stem>up</stem><notations><tied type="start"/></notations><lyric number="1"><syllabic>single</syllabic><text>me</text></lyric><lyric number="2"><syllabic>end</syllabic><text>er</text></lyric></note></measure><measure width="110.54" number="26"><note default-y="-30.00" default-x="15.00"><pitch><step>G</step><octave>4</octave></pitch><duration>4</duration><tie type="stop"/><voice>1</voice><type>half</type><stem>up</stem><notations><tied type="stop"/></notations></note><note><rest/><duration>4</duration><voice>1</voice><type>half</type></note></measure><measure width="199.63" number="27"><print new-system="yes"><system-layout><system-margins><left-margin>0.00</left-margin><right-margin>-0.00</right-margin></system-margins><system-distance>168.58</system-distance></system-layout></print><harmony print-frame="no"><root><root-step>A</root-step></root><kind text="m">minor</kind></harmony><note><rest/><duration>2</duration><voice>1</voice><type>quarter</type></note><note default-y="-25.00" default-x="85.85"><pitch><step>A</step><octave>4</octave></pitch><duration>2</duration><voice>1</voice><type>quarter</type><stem>up</stem><lyric number="1"><syllabic>single</syllabic><text>I</text></lyric><lyric number="2"><syllabic>single</syllabic><text>She</text></lyric></note><note default-y="-25.00" default-x="130.59"><pitch><step>A</step><octave>4</octave></pitch><duration>2</duration><voice>1</voice><type>quarter</type><stem>up</stem><lyric number="1"><syllabic>single</syllabic><text>want</text></lyric><lyric number="2"><syllabic>begin</syllabic><text>does</text></lyric></note><note default-y="-20.00" default-x="167.19"><pitch><step>B</step><octave>4</octave></pitch><duration>2</duration><voice>1</voice><type>quarter</type><stem>down</stem><lyric number="1"><syllabic>single</syllabic><text>to</text></lyric><lyric number="2"><syllabic>end</syllabic><text>nt</text></lyric></note></measure><measure width="69.68" number="28"><note default-y="-15.00" default-x="27.24"><pitch><step>C</step><octave>5</octave></pitch><duration>8</duration><voice>1</voice><type>whole</type><lyric number="1"><syllabic>single</syllabic><text>take</text></lyric><lyric number="2"><syllabic>single</syllabic><text>care</text></lyric></note></measure><measure width="187.25" number="29"><harmony print-frame="no"><root><root-step>F</root-step></root><kind text="">major</kind></harmony><note><rest/><duration>2</duration><voice>1</voice><type>quarter</type></note><note default-y="-25.00" default-x="57.83"><pitch><step>A</step><octave>4</octave></pitch><duration>2</duration><voice>1</voice><type>quarter</type><stem>up</stem><lyric number="1"><syllabic>single</syllabic><text>her</text></lyric><lyric number="2"><syllabic>single</syllabic><text>'cause</text></lyric></note><note default-y="-25.00" default-x="112.11"><pitch><step>A</step><octave>4</octave></pitch><duration>2</duration><voice>1</voice><type>quarter</type><stem>up</stem><lyric number="1"><syllabic>single</syllabic><text>in</text></lyric><lyric number="2"><syllabic>single</syllabic><text>right</text></lyric></note><note default-y="-20.00" default-x="153.73"><pitch><step>B</step><octave>4</octave></pitch><duration>2</duration><voice>1</voice><type>quarter</type><stem>down</stem><lyric number="1"><syllabic>single</syllabic><text>my</text></lyric><lyric number="2"><syllabic>single</syllabic><text>or</text></lyric></note></measure><measure width="202.44" number="30"><note default-y="-15.00" default-x="37.26"><pitch><step>C</step><octave>5</octave></pitch><duration>2</duration><voice>1</voice><type>quarter</type><stem>down</stem><lyric number="1"><syllabic>single</syllabic><text>arms</text></lyric><lyric number="2"><syllabic>single</syllabic><text>wrong</text></lyric></note><note default-y="-25.00" default-x="85.76"><pitch><step>A</step><octave>4</octave></pitch><duration>2</duration><voice>1</voice><type>quarter</type><stem>up</stem><lyric number="1"><syllabic>single</syllabic><text>the</text></lyric><lyric number="2"><syllabic>single</syllabic><text>the</text></lyric></note><note default-y="-20.00" default-x="126.11"><pitch><step>B</step><octave>4</octave></pitch><duration>2</duration><voice>1</voice><type>quarter</type><stem>down</stem><lyric number="1"><syllabic>single</syllabic><text>ache</text></lyric><lyric number="2"><syllabic>single</syllabic><text>love</text></lyric></note><note default-y="-15.00" default-x="165.82"><pitch><step>C</step><octave>5</octave></pitch><duration>2</duration><voice>1</voice><type>quarter</type><stem>down</stem><lyric number="1"><syllabic>single</syllabic><text>is</text></lyric><lyric number="2"><syllabic>single</syllabic><text>we</text></lyric></note></measure><measure width="79.52" number="31"><harmony print-frame="no"><root><root-step>D</root-step></root><kind text="7">dominant</kind></harmony><note default-y="-10.00" default-x="32.25"><pitch><step>D</step><octave>5</octave></pitch><duration>8</duration><tie type="start"/><voice>1</voice><type>whole</type><notations><tied type="start"/></notations><lyric number="1"><syllabic>single</syllabic><text>there</text></lyric><lyric number="2"><syllabic>single</syllabic><text>share</text></lyric></note></measure><measure width="163.35" number="32"><note default-y="-10.00" default-x="15.00"><pitch><step>D</step><octave>5</octave></pitch><duration>2</duration><tie type="stop"/><voice>1</voice><type>quarter</type><stem>down</stem><notations><tied type="stop"/></notations></note><note default-y="-25.00" default-x="47.71"><pitch><step>A</step><octave>4</octave></pitch><duration>2</duration><voice>1</voice><type>quarter</type><stem>up</stem><lyric number="1"><syllabic>single</syllabic><text>so</text></lyric><lyric number="2"><syllabic>single</syllabic><text>we</text></lyric></note><note default-y="-20.00" default-x="90.56"><pitch><step>B</step><octave>4</octave></pitch><duration>2</duration><voice>1</voice><type>quarter</type><stem>down</stem><lyric number="1"><syllabic>single</syllabic><text>deep</text></lyric><lyric number="2"><syllabic>begin</syllabic><text>share</text></lyric></note><note default-y="-15.00" default-x="129.04"><pitch><step>C</step><octave>5</octave></pitch><duration>2</duration><voice>1</voice><type>quarter</type><stem>down</stem><lyric number="1"><syllabic>begin</syllabic><text>in</text></lyric><lyric number="2"><syllabic>middle</syllabic><text>to</text></lyric></note></measure><measure width="104.22" number="33"><harmony print-frame="no"><root><root-step>G</root-step></root><kind text="7">dominant</kind></harmony><note default-y="-20.00" default-x="27.87"><pitch><step>B</step><octave>4</octave></pitch><duration>2</duration><voice>1</voice><type>quarter</type><stem>down</stem><lyric number="1"><syllabic>end</syllabic><text>side</text></lyric><lyric number="2"><syllabic>middle</syllabic><text>geth</text></lyric></note><harmony print-frame="no"><root><root-step>C</root-step></root><kind text="">major</kind></harmony><note default-y="-30.00" default-x="66.97"><pitch><step>G</step><octave>4</octave></pitch><duration>6</duration><tie type="start"/><voice>1</voice><type>half</type><dot/><stem>up</stem><notations><tied type="start"/></notations><lyric number="1"><syllabic>single</syllabic><text>me</text></lyric><lyric number="2"><syllabic>middle</syllabic><text>er.</text></lyric></note></measure><measure width="71.00" number="34"><note default-y="-30.00" default-x="15.00"><pitch><step>G</step><octave>4</octave></pitch><duration>8</duration><tie type="stop"/><voice>1</voice><type>whole</type><notations><tied type="stop"/></notations></note><direction placement="above"><direction-type><words>D.C. al Fine</words></direction-type><sound dacapo="yes"/></direction><barline location="right"><bar-style>light-heavy</bar-style><repeat direction="backward"/></barline></measure></part></score-partwise>