<score-partwise version="2.0"><work><work-number/><work-title/></work><movement-number/><movement-title>I've Got My Love To Keep me Warm</movement-title><identification><creator type="composer">Irving Berlin</creator><creator type="poet">Irving Berlin</creator><rights>All Rights Reserved</rights><encoding><software>MuseScore 0.9.5</software><encoding-date>2009-11-15</encoding-date><software>ProxyMusic 2.0 c</software></encoding><source>http://wikifonia.org/node/3326/revisions/4242/view</source></identification><defaults><scaling><millimeters>5.7</millimeters><tenths>40</tenths></scaling><page-layout><page-height>1960.7</page-height><page-width>1515.09</page-width><page-margins type="both"><left-margin>70.1754</left-margin><right-margin>70.1754</right-margin><top-margin>70.1754</top-margin><bottom-margin>140.351</bottom-margin></page-margins></page-layout></defaults><credit page="1"><credit-words font-size="24" default-y="1890.53" default-x="757.544" justify="center" valign="top">I've Got My Love To Keep Me Warm</credit-words></credit><credit page="1"><credit-words font-size="12" default-y="1871.33" default-x="1444.91" justify="right" valign="top">Words and Music
 by IRVING BERLIN</credit-words></credit><credit page="1"><credit-words font-size="12" default-y="1820.35" default-x="757.544" justify="center" valign="top">from the 20th Century Fox Motion Picture "ON THE AVENUE"</credit-words></credit><credit page="1"><credit-words font-size="8" default-y="140.351" default-x="757.544" justify="center" valign="bottom">(c) 1936, 1937 by Irving Berlin</credit-words></credit><part-list><score-part id="P1"><part-name/><score-instrument id="P1-I3"><instrument-name/></score-instrument><midi-instrument id="P1-I3"><midi-channel>1</midi-channel><midi-program>41</midi-program></midi-instrument></score-part></part-list><part id="P1"><measure width="242.27" number="1"><print><system-layout><system-margins><left-margin>3.00</left-margin><right-margin>0.00</right-margin></system-margins><top-system-distance>253.11</top-system-distance></system-layout></print><attributes><divisions>2</divisions><key><fifths>-3</fifths><mode>major</mode></key><time><beats>4</beats><beat-type>4</beat-type></time><clef><sign>G</sign><line>2</line></clef></attributes><note default-y="-55.00" default-x="132.59"><pitch><step>B</step><alter>-1</alter><octave>3</octave></pitch><duration>2</duration><voice>1</voice><type>quarter</type><stem>up</stem><lyric number="1"><syllabic>single</syllabic><text>The</text></lyric></note></measure><measure width="354.50" number="2"><barline location="left"><bar-style>heavy-light</bar-style><repeat direction="forward"/></barline><harmony print-frame="no"><root><root-step>E</root-step><root-alter>-1</root-alter></root><kind text="">major</kind><bass><bass-step>G</bass-step></bass></harmony><note default-y="-40.00" default-x="32.48"><pitch><step>E</step><alter>-1</alter><octave>4</octave></pitch><duration>4</duration><voice>1</voice><type>half</type><stem>up</stem><lyric number="1"><syllabic>single</syllabic><text>snow</text></lyric><lyric number="2"><syllabic>single</syllabic><text>can't</text></lyric></note><note default-y="-40.00" default-x="192.69"><pitch><step>E</step><alter>-1</alter><octave>4</octave></pitch><duration>4</duration><voice>1</voice><type>half</type><stem>up</stem><lyric number="1"><syllabic>single</syllabic><text>is</text></lyric><lyric number="2"><syllabic>begin</syllabic><text>re</text></lyric></note></measure><measure width="406.93" number="3"><harmony print-frame="no"><root><root-step>G</root-step><root-alter>-1</root-alter></root><kind text="dim">diminished</kind></harmony><note default-y="-45.00" default-x="34.76"><pitch><step>D</step><octave>4</octave></pitch><duration>2</duration><voice>1</voice><type>quarter</type><stem>up</stem><lyric number="1"><syllabic>begin</syllabic><text>snow</text></lyric><lyric number="2"><syllabic>middle</syllabic><text>mem</text></lyric></note><harmony print-frame="no"><root><root-step>G</root-step><root-alter>-1</root-alter></root><kind text="m6">minor-sixth</kind></harmony><note default-y="-45.00" default-x="137.70"><pitch><step>D</step><alter>-1</alter><octave>4</octave></pitch><duration>4</duration><voice>1</voice><type>half</type><accidental>flat</accidental><stem>up</stem><lyric number="1"><syllabic>end</syllabic><text>ing,</text></lyric><lyric number="2"><syllabic>end</syllabic><text>ber</text></lyric></note><harmony print-frame="no"><root><root-step>G</root-step><root-alter>-1</root-alter></root><kind text="dim">diminished</kind></harmony><note default-y="-50.00" default-x="302.39"><pitch><step>C</step><octave>4</octave></pitch><duration>2</duration><voice>1</voice><type>quarter</type><stem>up</stem><lyric number="1"><syllabic>single</syllabic><text>the</text></lyric><lyric number="2"><syllabic>single</syllabic><text>a</text></lyric></note></measure><measure width="368.04" number="4"><harmony print-frame="no"><root><root-step>F</root-step></root><kind text="m">minor</kind></harmony><note default-y="-35.00" default-x="35.60"><pitch><step>F</step><octave>4</octave></pitch><duration>4</duration><voice>1</voice><type>half</type><stem>up</stem><lyric number="1"><syllabic>single</syllabic><text>wind</text></lyric><lyric number="2"><syllabic>single</syllabic><text>worse</text></lyric></note><note default-y="-35.00" default-x="201.02"><pitch><step>F</step><octave>4</octave></pitch><duration>4</duration><voice>1</voice><type>half</type><stem>up</stem><lyric number="1"><syllabic>single</syllabic><text>is</text></lyric><lyric number="2"><syllabic>begin</syllabic><text>De</text></lyric></note></measure><measure width="284.51" number="5"><print new-system="yes"><system-layout><system-margins><left-margin>3.00</left-margin><right-margin>0.00</right-margin></system-margins><system-distance>149.25</system-distance></system-layout></print><harmony print-frame="no"><root><root-step>B</root-step><root-alter>-1</root-alter></root><kind text="7b5">dominant</kind><degree><degree-value>5</degree-value><degree-alter>-1</degree-alter><degree-type>alter</degree-type></degree></harmony><note default-y="-40.00" default-x="31.23"><pitch><step>E</step><octave>4</octave></pitch><duration>2</duration><voice>1</voice><type>quarter</type><accidental>natural</accidental><stem>up</stem><lyric number="1"><syllabic>begin</syllabic><text>blow</text></lyric><lyric number="2"><syllabic>middle</syllabic><text>cem</text></lyric></note><harmony print-frame="no"><root><root-step>A</root-step><root-alter>-1</root-alter></root><kind text="">major</kind><bass><bass-step>B</bass-step><bass-alter>-1</bass-alter></bass></harmony><note default-y="-40.00" default-x="101.14"><pitch><step>E</step><alter>-1</alter><octave>4</octave></pitch><duration>4</duration><voice>1</voice><type>half</type><accidental>flat</accidental><stem>up</stem><lyric number="1"><syllabic>end</syllabic><text>ing,</text></lyric><lyric number="2"><syllabic>end</syllabic><text>ber,</text></lyric></note><harmony print-frame="no"><root><root-step>B</root-step><root-alter>-1</root-alter></root><kind text="9">dominant-ninth</kind></harmony><note default-y="-45.00" default-x="213.00"><pitch><step>D</step><octave>4</octave></pitch><duration>2</duration><voice>1</voice><type>quarter</type><stem>up</stem><lyric number="1"><syllabic>single</syllabic><text>but</text></lyric><lyric number="2"><syllabic>single</syllabic><text>just</text></lyric></note></measure><measure width="266.44" number="6"><harmony print-frame="no"><root><root-step>A</root-step></root><kind text="m7b5">half-diminished</kind></harmony><note default-y="-30.00" default-x="35.60"><pitch><step>G</step><octave>4</octave></pitch><duration>4</duration><voice>1</voice><type>half</type><stem>up</stem><lyric number="1"><syllabic>single</syllabic><text>I</text></lyric><lyric number="2"><syllabic>single</syllabic><text>watch</text></lyric></note><note default-y="-30.00" default-x="150.22"><pitch><step>G</step><octave>4</octave></pitch><duration>4</duration><voice>1</voice><type>half</type><stem>up</stem><lyric number="1"><syllabic>single</syllabic><text>can</text></lyric><lyric number="2"><syllabic>single</syllabic><text>those</text></lyric></note></measure><measure width="346.40" number="7"><harmony print-frame="no"><root><root-step>D</root-step></root><kind text="7">dominant</kind></harmony><note default-y="-35.00" default-x="35.60"><pitch><step>F</step><alter>1</alter><octave>4</octave></pitch><duration>2</duration><voice>1</voice><type>quarter</type><accidental>sharp</accidental><stem>up</stem><lyric number="1"><syllabic>begin</syllabic><text>weath</text></lyric><lyric number="2"><syllabic>begin</syllabic><text>i</text></lyric></note><note default-y="-25.00" default-x="112.90"><pitch><step>A</step><octave>4</octave></pitch><duration>2</duration><voice>1</voice><type>quarter</type><accidental>natural</accidental><stem>up</stem><lyric number="1"><syllabic>end</syllabic><text>er</text></lyric><lyric number="2"><syllabic>middle</syllabic><text>ci</text></lyric></note><harmony print-frame="no"><root><root-step>D</root-step></root><kind text="7b9">dominant</kind><degree><degree-value>9</degree-value><degree-alter>-1</degree-alter><degree-type>add</degree-type></degree></harmony><note default-y="-15.00" default-x="190.20"><pitch><step>C</step><octave>5</octave></pitch><duration>2</duration><voice>1</voice><type>quarter</type><stem>down</stem><lyric number="1"><syllabic>single</syllabic><text>the</text></lyric><lyric number="2"><syllabic>end</syllabic><text>cles</text></lyric></note><note default-y="-5.00" default-x="267.50"><pitch><step>E</step><alter>-1</alter><octave>5</octave></pitch><duration>2</duration><tie type="start"/><voice>1</voice><type>quarter</type><stem>down</stem><notations><tied type="start"/></notations><lyric number="1"><syllabic>single</syllabic><text>storm.</text><extend/></lyric><lyric number="2"><syllabic>single</syllabic><text>form,</text><extend/></lyric></note></measure><measure width="182.69" number="8"><note default-y="-5.00" default-x="15.00"><pitch><step>E</step><alter>-1</alter><octave>5</octave></pitch><duration>8</duration><tie type="stop"/><tie type="start"/><voice>1</voice><type>whole</type><notations><tied type="stop"/><tied type="start"/></notations></note></measure><measure width="291.70" number="9"><note default-y="-5.00" default-x="15.00"><pitch><step>E</step><alter>-1</alter><octave>5</octave></pitch><duration>4</duration><tie type="stop"/><voice>1</voice><type>half</type><stem>down</stem><notations><tied type="stop"/></notations></note><harmony print-frame="no"><root><root-step>F</root-step><root-alter>1</root-alter></root><kind text="dim">diminished</kind></harmony><note default-y="-10.00" default-x="119.35"><pitch><step>D</step><octave>5</octave></pitch><duration>1</duration><voice>1</voice><type>eighth</type><stem>down</stem><beam number="1">begin</beam><lyric number="1"><syllabic>single</syllabic><text>What</text></lyric><lyric number="2"><syllabic>single</syllabic><text>What</text></lyric></note><note default-y="-5.00" default-x="166.78"><pitch><step>E</step><alter>-1</alter><octave>5</octave></pitch><duration>1</duration><voice>1</voice><type>eighth</type><stem>down</stem><beam number="1">end</beam><lyric number="1"><syllabic>single</syllabic><text>do</text></lyric><lyric number="2"><syllabic>single</syllabic><text>do</text></lyric></note><note default-y="-15.00" default-x="214.21"><pitch><step>C</step><octave>5</octave></pitch><duration>2</duration><voice>1</voice><type>quarter</type><stem>down</stem><lyric number="1"><syllabic>single</syllabic><text>I</text></lyric><lyric number="2"><syllabic>single</syllabic><text>I</text></lyric></note></measure><measure width="345.07" number="10"><print new-system="yes"><system-layout><system-margins><left-margin>3.00</left-margin><right-margin>-0.00</right-margin></system-margins><system-distance>149.25</system-distance></system-layout></print><harmony print-frame="no"><root><root-step>F</root-step></root><kind text="m7">minor-seventh</kind></harmony><note default-y="-20.00" default-x="27.45"><pitch><step>B</step><alter>-1</alter><octave>4</octave></pitch><duration>4</duration><voice>1</voice><type>half</type><stem>down</stem><lyric number="1"><syllabic>single</syllabic><text>care</text></lyric><lyric number="2"><syllabic>single</syllabic><text>care</text></lyric></note><harmony print-frame="no"><root><root-step>B</root-step><root-alter>-1</root-alter></root><kind text="7">dominant</kind></harmony><note default-y="-20.00" default-x="185.46"><pitch><step>B</step><alter>-1</alter><octave>4</octave></pitch><duration>4</duration><voice>1</voice><type>half</type><stem>down</stem><lyric number="1"><syllabic>single</syllabic><text>how</text></lyric><lyric number="2"><syllabic>single</syllabic><text>if</text></lyric></note></measure><measure width="453.88" number="11"><note default-y="-25.00" default-x="33.73"><pitch><step>A</step><octave>4</octave></pitch><duration>2</duration><voice>1</voice><type>quarter</type><accidental>natural</accidental><stem>up</stem><lyric number="1"><syllabic>single</syllabic><text>much</text></lyric><lyric number="2"><syllabic>begin</syllabic><text>i</text></lyric></note><note default-y="-20.00" default-x="138.37"><pitch><step>B</step><alter>-1</alter><octave>4</octave></pitch><duration>2</duration><voice>1</voice><type>quarter</type><stem>down</stem><lyric number="1"><syllabic>single</syllabic><text>it</text></lyric><lyric number="2"><syllabic>middle</syllabic><text>ci</text></lyric></note><note default-y="-30.00" default-x="243.00"><pitch><step>G</step><octave>4</octave></pitch><duration>2</duration><voice>1</voice><type>quarter</type><stem>up</stem><lyric number="1"><syllabic>single</syllabic><text>may</text></lyric><lyric number="2"><syllabic>end</syllabic><text>cles</text></lyric></note><note default-y="-35.00" default-x="347.64"><pitch><step>F</step><octave>4</octave></pitch><duration>2</duration><tie type="start"/><voice>1</voice><type>quarter</type><stem>up</stem><notations><tied type="start"/></notations><lyric number="1"><syllabic>single</syllabic><text>storm?</text><extend/></lyric><lyric number="2"><syllabic>single</syllabic><text>form?</text><extend/></lyric></note></measure><measure width="286.39" number="12"><harmony print-frame="no"><root><root-step>B</root-step><root-alter>-1</root-alter></root><kind text="9sus">suspended-fourth</kind><degree><degree-value>7</degree-value><degree-alter>0</degree-alter><degree-type>add</degree-type></degree><degree><degree-value>9</degree-value><degree-alter>0</degree-alter><degree-type>add</degree-type></degree></harmony><note default-y="-35.00" default-x="15.00"><pitch><step>F</step><octave>4</octave></pitch><duration>8</duration><tie type="stop"/><tie type="start"/><voice>1</voice><type>whole</type><notations><tied type="stop"/><tied type="start"/></notations></note></measure><measure width="286.39" number="13"><harmony print-frame="no"><root><root-step>B</root-step><root-alter>-1</root-alter></root><kind text="9">dominant-ninth</kind></harmony><note default-y="-35.00" default-x="15.00"><pitch><step>F</step><octave>4</octave></pitch><duration>8</duration><tie type="stop"/><voice>1</voice><type>whole</type><notations><tied type="stop"/></notations></note></measure><measure width="230.25" number="14"><print new-system="yes"><system-layout><system-margins><left-margin>3.00</left-margin><right-margin>-0.00</right-margin></system-margins><system-distance>149.25</system-distance></system-layout></print><harmony print-frame="no"><root><root-step>E</root-step><root-alter>-1</root-alter></root><kind text="">major</kind><bass><bass-step>G</bass-step></bass></harmony><note><rest/><duration>1</duration><voice>1</voice><type>eighth</type></note><note default-y="-20.00" default-x="51.96"><pitch><step>B</step><alter>-1</alter><octave>4</octave></pitch><duration>3</duration><voice>1</voice><type>quarter</type><dot/><stem>down</stem><lyric number="1"><syllabic>single</syllabic><text>I've</text></lyric></note><note default-y="-20.00" default-x="118.88"><pitch><step>B</step><alter>-1</alter><octave>4</octave></pitch><duration>2</duration><voice>1</voice><type>quarter</type><stem>down</stem><lyric number="1"><syllabic>single</syllabic><text>Got</text></lyric></note><harmony print-frame="no"><root><root-step>B</root-step></root><kind text="7">dominant</kind><bass><bass-step>F</bass-step><bass-alter>1</bass-alter></bass></harmony><note default-y="-20.00" default-x="173.76"><pitch><step>B</step><octave>4</octave></pitch><duration>2</duration><voice>1</voice><type>quarter</type><accidental>natural</accidental><stem>down</stem><lyric number="1"><syllabic>single</syllabic><text>My</text></lyric></note></measure><measure width="339.34" number="15"><barline location="left"><ending type="start" number="1"/></barline><harmony print-frame="no"><root><root-step>F</root-step></root><kind text="m7">minor-seventh</kind></harmony><note default-y="-15.00" default-x="34.06"><pitch><step>C</step><octave>5</octave></pitch><duration>2</duration><voice>1</voice><type>quarter</type><stem>down</stem><lyric number="1"><syllabic>single</syllabic><text>Love</text></lyric></note><note default-y="-25.00" default-x="101.72"><pitch><step>A</step><alter>-1</alter><octave>4</octave></pitch><duration>2</duration><voice>1</voice><type>quarter</type><stem>up</stem><lyric number="1"><syllabic>single</syllabic><text>To</text></lyric></note><harmony print-frame="no"><root><root-step>B</root-step><root-alter>-1</root-alter></root><kind text="9">dominant-ninth</kind></harmony><note default-y="-35.00" default-x="169.39"><pitch><step>F</step><octave>4</octave></pitch><duration>2</duration><voice>1</voice><type>quarter</type><stem>up</stem><lyric number="1"><syllabic>single</syllabic><text>Keep</text></lyric></note><note default-y="-45.00" default-x="237.05"><pitch><step>D</step><octave>4</octave></pitch><duration>1</duration><voice>1</voice><type>eighth</type><stem>up</stem><beam number="1">begin</beam><lyric number="1"><syllabic>single</syllabic><text>Me</text></lyric></note><note default-y="-40.00" default-x="293.72"><pitch><step>E</step><alter>-1</alter><octave>4</octave></pitch><duration>1</duration><tie type="start"/><voice>1</voice><type>eighth</type><stem>up</stem><beam number="1">end</beam><notations><tied type="start"/></notations><lyric number="1"><syllabic>single</syllabic><text>Warm.</text><extend/></lyric></note></measure><measure width="107.94" number="16"><harmony print-frame="no"><root><root-step>E</root-step><root-alter>-1</root-alter></root><kind text="6">major-sixth</kind></harmony><harmony relative-x="1187.50" print-frame="no"><root><root-step>G</root-step><root-alter>-1</root-alter></root><kind text="dim">diminished</kind></harmony><note default-y="-40.00" default-x="15.00"><pitch><step>E</step><alter>-1</alter><octave>4</octave></pitch><duration>8</duration><tie type="stop"/><tie type="start"/><voice>1</voice><type>whole</type><notations><tied type="stop"/><tied type="start"/></notations></note></measure><measure width="139.00" number="17"><harmony print-frame="no"><root><root-step>F</root-step></root><kind text="m7">minor-seventh</kind></harmony><note default-y="-40.00" default-x="15.00"><pitch><step>E</step><alter>-1</alter><octave>4</octave></pitch><duration>6</duration><tie type="stop"/><voice>1</voice><type>half</type><dot/><stem>up</stem><notations><tied type="stop"/></notations></note><harmony print-frame="no"><root><root-step>B</root-step><root-alter>-1</root-alter></root><kind text="7">dominant</kind></harmony><note default-y="-55.00" default-x="86.96"><pitch><step>B</step><alter>-1</alter><octave>3</octave></pitch><duration>2</duration><voice>1</voice><type>quarter</type><stem>up</stem><lyric number="1"><syllabic>single</syllabic><text>I</text></lyric></note><barline location="right"><bar-style>light-heavy</bar-style><ending type="stop" number="1"/><repeat direction="backward"/></barline></measure><measure width="339.34" number="18"><barline location="left"><ending type="start" number="2"/></barline><harmony print-frame="no"><root><root-step>F</root-step></root><kind text="m7">minor-seventh</kind></harmony><note default-y="-15.00" default-x="34.06"><pitch><step>C</step><octave>5</octave></pitch><duration>2</duration><voice>1</voice><type>quarter</type><stem>down</stem><lyric number="1"><syllabic>single</syllabic><text>Love</text></lyric></note><note default-y="-25.00" default-x="101.72"><pitch><step>A</step><alter>-1</alter><octave>4</octave></pitch><duration>2</duration><voice>1</voice><type>quarter</type><stem>up</stem><lyric number="1"><syllabic>single</syllabic><text>To</text></lyric></note><harmony print-frame="no"><root><root-step>B</root-step><root-alter>-1</root-alter></root><kind text="9">dominant-ninth</kind></harmony><note default-y="-35.00" default-x="169.39"><pitch><step>F</step><octave>4</octave></pitch><duration>2</duration><voice>1</voice><type>quarter</type><stem>up</stem><lyric number="1"><syllabic>single</syllabic><text>Keep</text></lyric></note><note default-y="-45.00" default-x="237.05"><pitch><step>D</step><octave>4</octave></pitch><duration>1</duration><voice>1</voice><type>eighth</type><stem>up</stem><beam number="1">begin</beam><lyric number="1"><syllabic>single</syllabic><text>Me</text></lyric></note><note default-y="-40.00" default-x="293.72"><pitch><step>E</step><alter>-1</alter><octave>4</octave></pitch><duration>1</duration><tie type="start"/><voice>1</voice><type>eighth</type><stem>up</stem><beam number="1">end</beam><notations><tied type="start"/></notations><lyric number="1"><syllabic>single</syllabic><text>Warm.</text><extend/></lyric></note><barline location="right"><ending type="discontinue" number="2"/></barline></measure><measure width="107.94" number="19"><harmony print-frame="no"><root><root-step>E</root-step><root-alter>-1</root-alter></root><kind text="6">major-sixth</kind></harmony><note default-y="-40.00" default-x="15.00"><pitch><step>E</step><alter>-1</alter><octave>4</octave></pitch><duration>8</duration><tie type="stop"/><tie type="start"/><voice>1</voice><type>whole</type><notations><tied type="stop"/><tied type="start"/></notations></note></measure><measure width="107.94" number="20"><harmony print-frame="no"><root><root-step>D</root-step></root><kind text="7b9">dominant</kind><degree><degree-value>9</degree-value><degree-alter>-1</degree-alter><degree-type>add</degree-type></degree></harmony><note default-y="-40.00" default-x="15.00"><pitch><step>E</step><alter>-1</alter><octave>4</octave></pitch><duration>8</duration><tie type="stop"/><voice>1</voice><type>whole</type><notations><tied type="stop"/></notations></note></measure><measure width="347.51" number="21"><print new-system="yes"><system-layout><system-margins><left-margin>3.00</left-margin><right-margin>0.00</right-margin></system-margins><system-distance>120.74</system-distance></system-layout></print><harmony print-frame="no"><root><root-step>G</root-step></root><kind text="m">minor</kind></harmony><note default-y="-45.00" default-x="25.58"><pitch><step>D</step><octave>4</octave></pitch><duration>4</duration><voice>1</voice><type>half</type><stem>up</stem><lyric number="1"><syllabic>single</syllabic><text>Off</text></lyric></note><note default-y="-30.00" default-x="167.95"><pitch><step>G</step><octave>4</octave></pitch><duration>2</duration><voice>1</voice><type>quarter</type><stem>up</stem><lyric number="1"><syllabic>single</syllabic><text>with</text></lyric></note><note default-y="-20.00" default-x="256.93"><pitch><step>B</step><alter>-1</alter><octave>4</octave></pitch><duration>2</duration><voice>1</voice><type>quarter</type><stem>down</stem><lyric number="1"><syllabic>single</syllabic><text>my</text></lyric></note></measure><measure width="354.06" number="22"><note default-y="-10.00" default-x="15.00"><pitch><step>D</step><octave>5</octave></pitch><duration>1</duration><voice>1</voice><type>eighth</type><stem>down</stem><lyric number="1"><syllabic>begin</syllabic><text>o</text></lyric></note><note default-y="-10.00" default-x="73.18"><pitch><step>D</step><octave>5</octave></pitch><duration>2</duration><voice>1</voice><type>quarter</type><stem>down</stem><lyric number="1"><syllabic>middle</syllabic><text>ver</text></lyric></note><harmony print-frame="no"><root><root-step>D</root-step></root><kind text="+">augmented</kind></harmony><note default-y="-10.00" default-x="166.28"><pitch><step>D</step><octave>5</octave></pitch><duration>1</duration><tie type="start"/><voice>1</voice><type>eighth</type><stem>down</stem><notations><tied type="start"/></notations><lyric number="1"><syllabic>end</syllabic><text>coat,</text><extend/></lyric></note><note default-y="-10.00" default-x="224.46"><pitch><step>D</step><octave>5</octave></pitch><duration>4</duration><tie type="stop"/><voice>1</voice><type>half</type><stem>down</stem><notations><tied type="stop"/></notations></note></measure><measure width="402.67" number="23"><harmony print-frame="no"><root><root-step>G</root-step></root><kind text="m7">minor-seventh</kind></harmony><note default-y="-10.00" default-x="21.61"><pitch><step>D</step><octave>5</octave></pitch><duration>4</duration><voice>1</voice><type>half</type><stem>down</stem><lyric number="1"><syllabic>single</syllabic><text>off</text></lyric></note><note default-y="-10.00" default-x="165.54"><pitch><step>D</step><octave>5</octave></pitch><duration>1</duration><voice>1</voice><type>eighth</type><stem>down</stem><lyric number="1"><syllabic>single</syllabic><text>with</text></lyric></note><note default-y="-45.00" default-x="230.96"><pitch><step>D</step><octave>4</octave></pitch><duration>2</duration><voice>1</voice><type>quarter</type><stem>up</stem><lyric number="1"><syllabic>single</syllabic><text>my</text></lyric></note><note default-y="-40.00" default-x="335.64"><pitch><step>E</step><octave>4</octave></pitch><duration>1</duration><tie type="start"/><voice>1</voice><type>eighth</type><accidental>natural</accidental><stem>up</stem><notations><tied type="start"/></notations><lyric number="1"><syllabic>single</syllabic><text>glove,</text><extend/></lyric></note></measure><measure width="267.50" number="24"><harmony print-frame="no"><root><root-step>C</root-step></root><kind text="7">dominant</kind></harmony><note default-y="-40.00" default-x="15.00"><pitch><step>E</step><octave>4</octave></pitch><duration>6</duration><tie type="stop"/><voice>1</voice><type>half</type><dot/><accidental>natural</accidental><stem>up</stem><notations><tied type="stop"/></notations></note><note><rest/><duration>2</duration><voice>1</voice><type>quarter</type></note></measure><measure width="315.49" number="25"><print new-system="yes"><system-layout><system-margins><left-margin>3.00</left-margin><right-margin>0.00</right-margin></system-margins><system-distance>120.74</system-distance></system-layout></print><harmony print-frame="no"><root><root-step>F</root-step></root><kind text="m">minor</kind></harmony><note default-y="-15.00" default-x="15.00"><pitch><step>C</step><octave>5</octave></pitch><duration>4</duration><voice>1</voice><type>half</type><stem>down</stem><lyric number="1"><syllabic>single</syllabic><text>I</text></lyric></note><note default-y="-15.00" default-x="142.66"><pitch><step>C</step><octave>5</octave></pitch><duration>1</duration><voice>1</voice><type>eighth</type><stem>down</stem><lyric number="1"><syllabic>single</syllabic><text>need</text></lyric></note><note default-y="-50.00" default-x="200.68"><pitch><step>C</step><octave>4</octave></pitch><duration>3</duration><voice>1</voice><type>quarter</type><dot/><stem>up</stem><lyric number="1"><syllabic>single</syllabic><text>no</text></lyric></note></measure><measure width="348.93" number="26"><harmony print-frame="no"><root><root-step>G</root-step></root><kind text="7">dominant</kind></harmony><note default-y="-45.00" default-x="15.00"><pitch><step>D</step><octave>4</octave></pitch><duration>1</duration><voice>1</voice><type>eighth</type><stem>up</stem><lyric number="1"><syllabic>begin</syllabic><text>o</text></lyric></note><note default-y="-45.00" default-x="72.30"><pitch><step>D</step><octave>4</octave></pitch><duration>2</duration><voice>1</voice><type>quarter</type><stem>up</stem><lyric number="1"><syllabic>middle</syllabic><text>ver</text></lyric></note><harmony print-frame="no"><root><root-step>C</root-step></root><kind text="7">dominant</kind></harmony><note default-y="-40.00" default-x="163.98"><pitch><step>E</step><octave>4</octave></pitch><duration>1</duration><tie type="start"/><voice>1</voice><type>eighth</type><accidental>natural</accidental><stem>up</stem><notations><tied type="start"/></notations><lyric number="1"><syllabic>end</syllabic><text>coat,</text><extend/></lyric></note><note default-y="-40.00" default-x="221.28"><pitch><step>E</step><octave>4</octave></pitch><duration>4</duration><tie type="stop"/><voice>1</voice><type>half</type><stem>up</stem><notations><tied type="stop"/></notations></note></measure><measure width="405.34" number="27"><harmony print-frame="no"><root><root-step>F</root-step></root><kind text="m">minor</kind></harmony><note><rest/><duration>1</duration><voice>1</voice><type>eighth</type></note><note default-y="-35.00" default-x="74.34"><pitch><step>F</step><octave>4</octave></pitch><duration>3</duration><voice>1</voice><type>quarter</type><dot/><stem>up</stem><lyric number="1"><syllabic>single</syllabic><text>I'm</text></lyric></note><harmony print-frame="no"><root><root-step>F</root-step></root><kind text="m7b5">half-diminished</kind></harmony><note default-y="-35.00" default-x="190.11"><pitch><step>F</step><octave>4</octave></pitch><duration>1</duration><voice>1</voice><type>eighth</type><stem>up</stem><beam number="1">begin</beam><lyric number="1"><syllabic>begin</syllabic><text>burn</text></lyric></note><note default-y="-30.00" default-x="249.45"><pitch><step>G</step><octave>4</octave></pitch><duration>1</duration><voice>1</voice><type>eighth</type><stem>up</stem><beam number="1">end</beam><lyric number="1"><syllabic>end</syllabic><text>ing</text></lyric></note><note default-y="-35.00" default-x="308.79"><pitch><step>F</step><octave>4</octave></pitch><duration>2</duration><voice>1</voice><type>quarter</type><stem>up</stem><lyric number="1"><syllabic>single</syllabic><text>with</text></lyric></note></measure><measure width="301.97" number="28"><harmony print-frame="no"><root><root-step>B</root-step><root-alter>-1</root-alter></root><kind text="7">dominant</kind></harmony><harmony relative-x="2125.00" print-frame="no"><root><root-step>F</root-step></root><kind text="m7">minor-seventh</kind><bass><bass-step>C</bass-step></bass></harmony><note default-y="-20.00" default-x="30.92"><pitch><step>B</step><alter>-1</alter><octave>4</octave></pitch><duration>6</duration><voice>1</voice><type>half</type><dot/><stem>down</stem><lyric number="1"><syllabic>single</syllabic><text>love.</text></lyric></note><direction><direction-type><words default-y="100">Bb 7/D</words></direction-type></direction><note default-y="-55.00" default-x="209.06"><pitch><step>B</step><alter>-1</alter><octave>3</octave></pitch><duration>2</duration><voice>1</voice><type>quarter</type><stem>up</stem><lyric number="1"><syllabic>single</syllabic><text>My</text></lyric></note></measure><measure width="329.78" number="29"><print new-system="yes"><system-layout><system-margins><left-margin>3.00</left-margin><right-margin>0.00</right-margin></system-margins><system-distance>120.74</system-distance></system-layout></print><harmony print-frame="no"><root><root-step>E</root-step><root-alter>-1</root-alter></root><kind text="">major</kind><bass><bass-step>G</bass-step></bass></harmony><note default-y="-40.00" default-x="37.63"><pitch><step>E</step><alter>-1</alter><octave>4</octave></pitch><duration>4</duration><voice>1</voice><type>half</type><stem>up</stem><lyric number="1"><syllabic>single</syllabic><text>heart's</text></lyric></note><note default-y="-40.00" default-x="182.91"><pitch><step>E</step><alter>-1</alter><octave>4</octave></pitch><duration>4</duration><voice>1</voice><type>half</type><stem>up</stem><lyric number="1"><syllabic>single</syllabic><text>on</text></lyric></note></measure><measure width="341.38" number="30"><harmony print-frame="no"><root><root-step>G</root-step><root-alter>-1</root-alter></root><kind text="dim">diminished</kind></harmony><note default-y="-45.00" default-x="27.15"><pitch><step>D</step><octave>4</octave></pitch><duration>2</duration><voice>1</voice><type>quarter</type><stem>up</stem><lyric number="1"><syllabic>single</syllabic><text>fire,</text><extend/></lyric></note><harmony print-frame="no"><root><root-step>G</root-step><root-alter>-1</root-alter></root><kind text="m6">minor-sixth</kind></harmony><note default-y="-45.00" default-x="113.99"><pitch><step>D</step><alter>-1</alter><octave>4</octave></pitch><duration>4</duration><voice>1</voice><type>half</type><accidental>flat</accidental><stem>up</stem></note><harmony print-frame="no"><root><root-step>G</root-step><root-alter>-1</root-alter></root><kind text="dim">diminished</kind></harmony><note default-y="-50.00" default-x="252.94"><pitch><step>C</step><octave>4</octave></pitch><duration>2</duration><voice>1</voice><type>quarter</type><stem>up</stem><lyric number="1"><syllabic>single</syllabic><text>the</text></lyric></note></measure><measure width="354.29" number="31"><harmony print-frame="no"><root><root-step>F</root-step></root><kind text="m">minor</kind></harmony><note default-y="-35.00" default-x="34.35"><pitch><step>F</step><octave>4</octave></pitch><duration>4</duration><voice>1</voice><type>half</type><stem>up</stem><lyric number="1"><syllabic>single</syllabic><text>flame</text></lyric></note><note default-y="-35.00" default-x="193.52"><pitch><step>F</step><octave>4</octave></pitch><duration>4</duration><voice>1</voice><type>half</type><stem>up</stem><lyric number="1"><syllabic>single</syllabic><text>grows</text></lyric></note></measure><measure width="346.29" number="32"><harmony print-frame="no"><root><root-step>B</root-step><root-alter>-1</root-alter></root><kind text="7b5">dominant</kind><degree><degree-value>5</degree-value><degree-alter>-1</degree-alter><degree-type>alter</degree-type></degree></harmony><note default-y="-40.00" default-x="28.73"><pitch><step>E</step><octave>4</octave></pitch><duration>2</duration><voice>1</voice><type>quarter</type><accidental>natural</accidental><stem>up</stem><lyric number="1"><syllabic>begin</syllabic><text>high</text></lyric></note><harmony print-frame="no"><root><root-step>A</root-step><root-alter>-1</root-alter></root><kind text="">major</kind><bass><bass-step>B</bass-step><bass-alter>-1</bass-alter></bass></harmony><note default-y="-40.00" default-x="116.50"><pitch><step>E</step><alter>-1</alter><octave>4</octave></pitch><duration>4</duration><voice>1</voice><type>half</type><accidental>flat</accidental><stem>up</stem><lyric number="1"><syllabic>end</syllabic><text>er,</text></lyric></note><harmony print-frame="no"><root><root-step>B</root-step><root-alter>-1</root-alter></root><kind text="9">dominant-ninth</kind></harmony><note default-y="-45.00" default-x="256.92"><pitch><step>D</step><octave>4</octave></pitch><duration>2</duration><voice>1</voice><type>quarter</type><stem>up</stem><lyric number="1"><syllabic>single</syllabic><text>So</text></lyric></note></measure><measure width="303.96" number="33"><print new-system="yes"><system-layout><system-margins><left-margin>3.00</left-margin><right-margin>0.00</right-margin></system-margins><system-distance>120.74</system-distance></system-layout></print><harmony print-frame="no"><root><root-step>A</root-step></root><kind text="m7b5">half-diminished</kind></harmony><note default-y="-30.00" default-x="15.00"><pitch><step>G</step><octave>4</octave></pitch><duration>4</duration><voice>1</voice><type>half</type><stem>up</stem><lyric number="1"><syllabic>single</syllabic><text>I</text></lyric></note><note default-y="-30.00" default-x="158.68"><pitch><step>G</step><octave>4</octave></pitch><duration>4</duration><voice>1</voice><type>half</type><stem>up</stem><lyric number="1"><syllabic>single</syllabic><text>will</text></lyric></note></measure><measure width="423.73" number="34"><harmony print-frame="no"><root><root-step>D</root-step></root><kind text="7">dominant</kind></harmony><note default-y="-35.00" default-x="35.60"><pitch><step>F</step><alter>1</alter><octave>4</octave></pitch><duration>2</duration><voice>1</voice><type>quarter</type><accidental>sharp</accidental><stem>up</stem><lyric number="1"><syllabic>begin</syllabic><text>weath</text></lyric></note><note default-y="-25.00" default-x="132.23"><pitch><step>A</step><octave>4</octave></pitch><duration>2</duration><voice>1</voice><type>quarter</type><accidental>natural</accidental><stem>up</stem><lyric number="1"><syllabic>end</syllabic><text>er</text></lyric></note><harmony print-frame="no"><root><root-step>D</root-step></root><kind text="7b9">dominant</kind><degree><degree-value>9</degree-value><degree-alter>-1</degree-alter><degree-type>add</degree-type></degree></harmony><note default-y="-15.00" default-x="228.86"><pitch><step>C</step><octave>5</octave></pitch><duration>2</duration><voice>1</voice><type>quarter</type><stem>down</stem><lyric number="1"><syllabic>single</syllabic><text>the</text></lyric></note><note default-y="-5.00" default-x="325.49"><pitch><step>E</step><alter>-1</alter><octave>5</octave></pitch><duration>2</duration><tie type="start"/><voice>1</voice><type>quarter</type><stem>down</stem><notations><tied type="start"/></notations><lyric number="1"><syllabic>single</syllabic><text>storm,</text><extend/></lyric></note></measure><measure width="267.52" number="35"><note default-y="-5.00" default-x="15.00"><pitch><step>E</step><alter>-1</alter><octave>5</octave></pitch><duration>8</duration><tie type="stop"/><tie type="start"/><voice>1</voice><type>whole</type><notations><tied type="stop"/><tied type="start"/></notations></note></measure><measure width="376.53" number="36"><note default-y="-5.00" default-x="15.00"><pitch><step>E</step><alter>-1</alter><octave>5</octave></pitch><duration>4</duration><tie type="stop"/><voice>1</voice><type>half</type><stem>down</stem><notations><tied type="stop"/></notations></note><harmony print-frame="no"><root><root-step>F</root-step><root-alter>1</root-alter></root><kind text="dim">diminished</kind></harmony><note default-y="-10.00" default-x="151.53"><pitch><step>D</step><octave>5</octave></pitch><duration>1</duration><voice>1</voice><type>eighth</type><stem>down</stem><beam number="1">begin</beam><lyric number="1"><syllabic>single</syllabic><text>What</text></lyric></note><note default-y="-5.00" default-x="213.58"><pitch><step>E</step><alter>-1</alter><octave>5</octave></pitch><duration>1</duration><voice>1</voice><type>eighth</type><stem>down</stem><beam number="1">end</beam><lyric number="1"><syllabic>single</syllabic><text>do</text></lyric></note><note default-y="-15.00" default-x="275.64"><pitch><step>C</step><octave>5</octave></pitch><duration>2</duration><voice>1</voice><type>quarter</type><stem>down</stem><lyric number="1"><syllabic>single</syllabic><text>I</text></lyric></note></measure><measure width="345.54" number="37"><print new-system="yes"><system-layout><system-margins><left-margin>3.00</left-margin><right-margin>-0.00</right-margin></system-margins><system-distance>120.74</system-distance></system-layout></print><harmony print-frame="no"><root><root-step>F</root-step></root><kind text="m7">minor-seventh</kind></harmony><note default-y="-20.00" default-x="27.45"><pitch><step>B</step><alter>-1</alter><octave>4</octave></pitch><duration>4</duration><voice>1</voice><type>half</type><stem>down</stem><lyric number="1"><syllabic>single</syllabic><text>care</text></lyric></note><harmony print-frame="no"><root><root-step>B</root-step><root-alter>-1</root-alter></root><kind text="7">dominant</kind></harmony><note default-y="-20.00" default-x="185.70"><pitch><step>B</step><alter>-1</alter><octave>4</octave></pitch><duration>4</duration><voice>1</voice><type>half</type><stem>down</stem><lyric number="1"><syllabic>single</syllabic><text>how</text></lyric></note></measure><measure width="452.48" number="38"><note default-y="-25.00" default-x="33.73"><pitch><step>A</step><octave>4</octave></pitch><duration>2</duration><voice>1</voice><type>quarter</type><accidental>natural</accidental><stem>up</stem><lyric number="1"><syllabic>single</syllabic><text>much</text></lyric></note><note default-y="-20.00" default-x="138.02"><pitch><step>B</step><alter>-1</alter><octave>4</octave></pitch><duration>2</duration><voice>1</voice><type>quarter</type><stem>down</stem><lyric number="1"><syllabic>single</syllabic><text>it</text></lyric></note><note default-y="-30.00" default-x="242.30"><pitch><step>G</step><octave>4</octave></pitch><duration>2</duration><voice>1</voice><type>quarter</type><stem>up</stem><lyric number="1"><syllabic>single</syllabic><text>may</text></lyric></note><note default-y="-35.00" default-x="346.59"><pitch><step>F</step><octave>4</octave></pitch><duration>2</duration><tie type="start"/><voice>1</voice><type>quarter</type><stem>up</stem><notations><tied type="start"/></notations><lyric number="1"><syllabic>single</syllabic><text>storm?</text><extend/></lyric></note></measure><measure width="286.86" number="39"><harmony print-frame="no"><root><root-step>B</root-step><root-alter>-1</root-alter></root><kind text="9sus">suspended-fourth</kind><degree><degree-value>7</degree-value><degree-alter>0</degree-alter><degree-type>add</degree-type></degree><degree><degree-value>9</degree-value><degree-alter>0</degree-alter><degree-type>add</degree-type></degree></harmony><note default-y="-35.00" default-x="15.00"><pitch><step>F</step><octave>4</octave></pitch><duration>8</duration><tie type="stop"/><tie type="start"/><voice>1</voice><type>whole</type><notations><tied type="stop"/><tied type="start"/></notations></note></measure><measure width="286.86" number="40"><harmony print-frame="no"><root><root-step>B</root-step><root-alter>-1</root-alter></root><kind text="9">dominant-ninth</kind></harmony><note default-y="-35.00" default-x="15.00"><pitch><step>F</step><octave>4</octave></pitch><duration>8</duration><tie type="stop"/><voice>1</voice><type>whole</type><notations><tied type="stop"/></notations></note></measure><measure width="372.23" number="41"><print new-page="yes"><system-layout><system-margins><left-margin>3.00</left-margin><right-margin>0.00</right-margin></system-margins><top-system-distance>70.00</top-system-distance></system-layout></print><harmony print-frame="no"><root><root-step>E</root-step><root-alter>-1</root-alter></root><kind text="">major</kind><bass><bass-step>G</bass-step></bass></harmony><note><rest/><duration>1</duration><voice>1</voice><type>eighth</type></note><note default-y="-20.00" default-x="72.82"><pitch><step>B</step><alter>-1</alter><octave>4</octave></pitch><duration>3</duration><voice>1</voice><type>quarter</type><dot/><stem>down</stem><lyric number="1"><syllabic>single</syllabic><text>I've</text></lyric></note><note default-y="-20.00" default-x="185.61"><pitch><step>B</step><alter>-1</alter><octave>4</octave></pitch><duration>2</duration><voice>1</voice><type>quarter</type><stem>down</stem><lyric number="1"><syllabic>single</syllabic><text>Got</text></lyric></note><harmony print-frame="no"><root><root-step>B</root-step></root><kind text="7">dominant</kind><bass><bass-step>F</bass-step><bass-alter>1</bass-alter></bass></harmony><note default-y="-20.00" default-x="278.12"><pitch><step>B</step><octave>4</octave></pitch><duration>2</duration><voice>1</voice><type>quarter</type><accidental>natural</accidental><stem>down</stem><lyric number="1"><syllabic>single</syllabic><text>My</text></lyric></note></measure><measure width="481.32" number="42"><harmony print-frame="no"><root><root-step>F</root-step></root><kind text="m7">minor-seventh</kind></harmony><note default-y="-15.00" default-x="34.06"><pitch><step>C</step><octave>5</octave></pitch><duration>2</duration><voice>1</voice><type>quarter</type><stem>down</stem><lyric number="1"><syllabic>single</syllabic><text>Love</text></lyric></note><note default-y="-25.00" default-x="138.92"><pitch><step>A</step><alter>-1</alter><octave>4</octave></pitch><duration>2</duration><voice>1</voice><type>quarter</type><stem>up</stem><lyric number="1"><syllabic>single</syllabic><text>To</text></lyric></note><harmony relative-x="62.50" print-frame="no"><root><root-step>B</root-step><root-alter>-1</root-alter></root><kind text="9">dominant-ninth</kind></harmony><note default-y="-35.00" default-x="243.78"><pitch><step>F</step><octave>4</octave></pitch><duration>2</duration><voice>1</voice><type>quarter</type><stem>up</stem><lyric number="1"><syllabic>single</syllabic><text>Keep</text></lyric></note><note default-y="-45.00" default-x="348.64"><pitch><step>D</step><octave>4</octave></pitch><duration>1</duration><voice>1</voice><type>eighth</type><stem>up</stem><beam number="1">begin</beam><lyric number="1"><syllabic>single</syllabic><text>Me</text></lyric></note><note default-y="-40.00" default-x="414.18"><pitch><step>E</step><alter>-1</alter><octave>4</octave></pitch><duration>1</duration><tie type="start"/><voice>1</voice><type>eighth</type><stem>up</stem><beam number="1">end</beam><notations><tied type="start"/></notations><lyric number="1"><syllabic>single</syllabic><text>Warm.</text><extend/></lyric></note></measure><measure width="249.91" number="43"><harmony relative-x="62.50" print-frame="no"><root><root-step>E</root-step><root-alter>-1</root-alter></root><kind text="">major</kind></harmony><harmony relative-x="3625.00" print-frame="no"><root><root-step>D</root-step><root-alter>-1</root-alter></root><kind text="6">major-sixth</kind><bass><bass-step>D</bass-step></bass></harmony><note default-y="-40.00" default-x="15.00"><pitch><step>E</step><alter>-1</alter><octave>4</octave></pitch><duration>8</duration><tie type="stop"/><tie type="start"/><voice>1</voice><type>whole</type><notations><tied type="stop"/><tied type="start"/></notations></note></measure><measure width="268.28" number="44"><harmony print-frame="no"><root><root-step>E</root-step><root-alter>-1</root-alter></root><kind text="6">major-sixth</kind></harmony><note default-y="-40.00" default-x="15.00"><pitch><step>E</step><alter>-1</alter><octave>4</octave></pitch><duration>6</duration><tie type="stop"/><voice>1</voice><type>half</type><dot/><stem>up</stem><notations><tied type="stop"/></notations></note><note><rest/><duration>2</duration><voice>1</voice><type>quarter</type></note><barline location="right"><bar-style>light-heavy</bar-style></barline></measure></part></score-partwise>