<score-partwise version="2.0"><work><work-number/><work-title/></work><movement-number/><movement-title>Mood Indigo</movement-title><identification><creator type="composer">Duke Ellington</creator><creator type="poet"/><rights>All Rights Reserved</rights><encoding><software>Sibelius 4.0</software><software>Dolet 3.3 for Sibelius</software><supports type="no" element="accidental"/><supports type="no" element="transpose"/><software>ProxyMusic 2.0 c</software></encoding><source>http://wikifonia.org/node/345/revisions/433/view</source></identification><defaults><scaling><millimeters>6</millimeters><tenths>40</tenths></scaling><page-layout><page-height>1980</page-height><page-width>1400</page-width></page-layout></defaults><part-list><score-part id="P1"><part-name>Alto Saxophone</part-name><part-abbreviation>A. Sax.</part-abbreviation><score-instrument id="P1-I1"><instrument-name>Alto Saxophone</instrument-name></score-instrument><midi-instrument id="P1-I1"><midi-channel>1</midi-channel><midi-program>6</midi-program></midi-instrument></score-part></part-list><part id="P1"><measure number="1"><attributes><divisions>768</divisions><key><fifths>-2</fifths><mode>major</mode></key><time><beats>4</beats><beat-type>4</beat-type></time><clef><sign>G</sign><line>2</line></clef></attributes><harmony relative-x="8" default-y="25" print-frame="no"><root><root-step>B</root-step><root-alter>-1</root-alter></root><kind text="">major</kind></harmony><note><pitch><step>D</step><octave>5</octave></pitch><duration>1536</duration><voice>1</voice><type>half</type><lyric number="1" name="verse"><syllabic>end</syllabic><text>You</text></lyric></note><note><pitch><step>C</step><alter>1</alter><octave>5</octave></pitch><duration>384</duration><voice>1</voice><type>eighth</type><beam number="1">begin</beam><lyric number="1" name="verse"><syllabic>end</syllabic><text>ain't</text></lyric></note><note><pitch><step>D</step><octave>5</octave></pitch><duration>768</duration><voice>1</voice><type>quarter</type><lyric number="1" name="verse"><syllabic>end</syllabic><text>been</text></lyric></note><note><pitch><step>D</step><octave>5</octave></pitch><duration>384</duration><tie type="start"/><voice>1</voice><type>eighth</type><beam number="1">continue</beam><notations><tied type="start"/></notations><lyric number="1" name="verse"><syllabic>end</syllabic><text>blue,</text><extend/></lyric></note></measure><measure number="2"><harmony relative-x="8" default-y="25" print-frame="no"><root><root-step>C</root-step></root><kind text="7">dominant</kind></harmony><note><pitch><step>D</step><octave>5</octave></pitch><duration>3072</duration><voice>1</voice><type>whole</type></note></measure><measure number="3"><harmony relative-x="8" default-y="25" print-frame="no"><root><root-step>C</root-step></root><kind text="m">minor</kind></harmony><note><pitch><step>F</step><octave>5</octave></pitch><duration>1536</duration><voice>1</voice><type>half</type><lyric number="1" name="verse"><syllabic>end</syllabic><text>No,</text></lyric></note><harmony relative-x="8" default-y="25" print-frame="no"><root><root-step>F</root-step></root><kind text="7">dominant</kind></harmony><note><pitch><step>C</step><alter>1</alter><octave>5</octave></pitch><duration>1536</duration><voice>1</voice><type>half</type><lyric number="1" name="verse"><syllabic>end</syllabic><text>no,</text></lyric></note></measure><measure number="4"><harmony relative-x="8" default-y="25" print-frame="no"><root><root-step>B</root-step><root-alter>-1</root-alter></root><kind text="">major</kind></harmony><note><pitch><step>D</step><octave>5</octave></pitch><duration>3072</duration><voice>1</voice><type>whole</type><lyric number="1" name="verse"><syllabic>end</syllabic><text>no,</text></lyric></note></measure><measure number="5"><print new-system="yes"/><harmony relative-x="8" default-y="25" print-frame="no"><root><root-step>B</root-step><root-alter>-1</root-alter></root><kind text="">major</kind></harmony><note><pitch><step>D</step><octave>5</octave></pitch><duration>1536</duration><voice>1</voice><type>half</type><lyric number="1" name="verse"><syllabic>end</syllabic><text>You</text></lyric></note><note><pitch><step>C</step><alter>1</alter><octave>5</octave></pitch><duration>384</duration><voice>1</voice><type>eighth</type><beam number="1">begin</beam><lyric number="1" name="verse"><syllabic>end</syllabic><text>ain't</text></lyric></note><note><pitch><step>D</step><octave>5</octave></pitch><duration>768</duration><voice>1</voice><type>quarter</type><lyric number="1" name="verse"><syllabic>end</syllabic><text>been</text></lyric></note><note><pitch><step>D</step><octave>5</octave></pitch><duration>384</duration><tie type="start"/><voice>1</voice><type>eighth</type><beam number="1">continue</beam><notations><tied type="start"/></notations><lyric number="1" name="verse"><syllabic>end</syllabic><text>blue</text><extend/></lyric></note></measure><measure number="6"><harmony relative-x="8" default-y="25" print-frame="no"><root><root-step>C</root-step></root><kind text="7">dominant</kind></harmony><note><pitch><step>D</step><octave>5</octave></pitch><duration>3072</duration><voice>1</voice><type>whole</type></note></measure><measure number="7"><harmony relative-x="8" default-y="25" print-frame="no"><root><root-step>G</root-step><root-alter>-1</root-alter></root><kind text="7">dominant</kind></harmony><note><pitch><step>D</step><alter>-1</alter><octave>5</octave></pitch><duration>384</duration><voice>1</voice><type>eighth</type><beam number="1">begin</beam><lyric number="1" name="verse"><syllabic>end</syllabic><text>till</text></lyric></note><note><pitch><step>D</step><alter>-1</alter><octave>5</octave></pitch><duration>768</duration><voice>1</voice><type>quarter</type><lyric number="1" name="verse"><syllabic>end</syllabic><text>you've</text></lyric></note><note><pitch><step>C</step><octave>5</octave></pitch><duration>384</duration><tie type="start"/><voice>1</voice><type>eighth</type><beam number="1">continue</beam><notations><tied type="start"/></notations><lyric number="1" name="verse"><syllabic>end</syllabic><text>had</text><extend/></lyric></note><note><pitch><step>C</step><octave>5</octave></pitch><duration>768</duration><voice>1</voice><type>quarter</type></note><note><pitch><step>B</step><alter>-1</alter><octave>4</octave></pitch><duration>768</duration><voice>1</voice><type>quarter</type><lyric number="1" name="verse"><syllabic>end</syllabic><text>that</text></lyric></note></measure><measure number="8"><harmony relative-x="8" default-y="25" print-frame="no"><root><root-step>F</root-step></root><kind text="7">dominant</kind></harmony><note><pitch><step>A</step><octave>4</octave></pitch><duration>1536</duration><voice>1</voice><type>half</type><lyric number="1" name="verse"><syllabic>end</syllabic><text>mood</text></lyric></note><note><pitch><step>G</step><octave>4</octave></pitch><duration>384</duration><voice>1</voice><type>eighth</type><beam number="1">begin</beam><lyric number="1" name="verse"><syllabic>middle</syllabic><text>in</text></lyric></note><note><pitch><step>G</step><alter>1</alter><octave>4</octave></pitch><duration>384</duration><voice>1</voice><type>eighth</type><beam number="1">continue</beam><lyric number="1" name="verse"><syllabic>middle</syllabic><text>di</text></lyric></note><note><pitch><step>A</step><octave>4</octave></pitch><duration>768</duration><voice>1</voice><type>quarter</type><lyric number="1" name="verse"><syllabic>end</syllabic><text>go</text></lyric></note><barline location="right"><bar-style>light-light</bar-style></barline></measure><measure number="9"><print new-system="yes"/><harmony relative-x="8" default-y="25" print-frame="no"><root><root-step>B</root-step><root-alter>-1</root-alter></root><kind text="7">dominant</kind></harmony><note><rest/><duration>768</duration><voice>1</voice><type>quarter</type></note><note><pitch><step>B</step><alter>-1</alter><octave>4</octave></pitch><duration>768</duration><voice>1</voice><type>quarter</type><lyric number="1" name="verse"><syllabic>end</syllabic><text>That</text></lyric></note><note><pitch><step>B</step><alter>-1</alter><octave>4</octave></pitch><duration>768</duration><voice>1</voice><type>quarter</type><lyric number="1" name="verse"><syllabic>middle</syllabic><text>feel</text></lyric></note><note><pitch><step>A</step><octave>4</octave></pitch><duration>768</duration><voice>1</voice><type>quarter</type><lyric number="1" name="verse"><syllabic>end</syllabic><text>in'</text></lyric></note></measure><measure number="10"><harmony relative-x="8" default-y="25" print-frame="no"><root><root-step>F</root-step></root><kind text="m">minor</kind></harmony><note><rest/><duration>768</duration><voice>1</voice><type>quarter</type></note><note><pitch><step>F</step><octave>5</octave></pitch><duration>768</duration><tie type="start"/><voice>1</voice><type>quarter</type><notations><tied type="start"/></notations><lyric number="1" name="verse"><syllabic>end</syllabic><text>goes</text><extend/></lyric></note><harmony relative-x="8" default-y="25" print-frame="no"><root><root-step>B</root-step><root-alter>-1</root-alter></root><kind text="7">dominant</kind></harmony><note><pitch><step>F</step><octave>5</octave></pitch><duration>384</duration><voice>1</voice><type>eighth</type><beam number="1">begin</beam></note><note><pitch><step>G</step><octave>5</octave></pitch><duration>384</duration><voice>1</voice><type>eighth</type><beam number="1">continue</beam><lyric number="1" name="verse"><syllabic>middle</syllabic><text>steal</text></lyric></note><note><pitch><step>F</step><octave>5</octave></pitch><duration>768</duration><voice>1</voice><type>quarter</type><lyric number="1" name="verse"><syllabic>end</syllabic><text>in'</text></lyric></note></measure><measure number="11"><harmony relative-x="8" default-y="25" print-frame="no"><root><root-step>E</root-step><root-alter>-1</root-alter></root><kind text="">major</kind></harmony><note><pitch><step>E</step><alter>-1</alter><octave>5</octave></pitch><duration>1536</duration><voice>1</voice><type>half</type><lyric number="1" name="verse"><syllabic>end</syllabic><text>down</text></lyric></note><note><pitch><step>E</step><alter>-1</alter><octave>5</octave></pitch><duration>768</duration><voice>1</voice><type>quarter</type><lyric number="1" name="verse"><syllabic>end</syllabic><text>to</text></lyric></note><note><pitch><step>E</step><alter>-1</alter><octave>5</octave></pitch><duration>768</duration><voice>1</voice><type>quarter</type><lyric number="1" name="verse"><syllabic>end</syllabic><text>my</text></lyric></note></measure><measure number="12"><harmony relative-x="8" default-y="25" print-frame="no"><root><root-step>A</root-step><root-alter>-1</root-alter></root><kind text="7">dominant</kind></harmony><note><pitch><step>C</step><octave>5</octave></pitch><duration>2304</duration><voice>1</voice><type>half</type><dot/><lyric number="1" name="verse"><syllabic>end</syllabic><text>shoes,</text></lyric></note><harmony relative-x="8" default-y="25" print-frame="no"><root><root-step>F</root-step></root><kind text="7">dominant</kind></harmony><note><pitch><step>C</step><alter>1</alter><octave>5</octave></pitch><duration>768</duration><voice>1</voice><type>quarter</type><lyric number="1" name="verse"><syllabic>end</syllabic><text>While</text></lyric></note></measure><measure number="13"><print new-system="yes"/><harmony relative-x="8" default-y="25" print-frame="no"><root><root-step>B</root-step><root-alter>-1</root-alter></root><kind text="">major</kind></harmony><note><pitch><step>D</step><octave>5</octave></pitch><duration>1536</duration><voice>1</voice><type>half</type><lyric number="1" name="verse"><syllabic>end</syllabic><text>I</text></lyric></note><note><pitch><step>C</step><alter>1</alter><octave>5</octave></pitch><duration>384</duration><voice>1</voice><type>eighth</type><beam number="1">begin</beam><lyric number="1" name="verse"><syllabic>end</syllabic><text>sit</text></lyric></note><note><pitch><step>D</step><octave>5</octave></pitch><duration>768</duration><voice>1</voice><type>quarter</type><lyric number="1" name="verse"><syllabic>end</syllabic><text>and</text></lyric></note><note><pitch><step>D</step><octave>5</octave></pitch><duration>384</duration><tie type="start"/><voice>1</voice><type>eighth</type><beam number="1">continue</beam><notations><tied type="start"/></notations><lyric number="1" name="verse"><syllabic>end</syllabic><text>sigh:</text><extend/></lyric></note></measure><measure number="14"><harmony relative-x="8" default-y="25" print-frame="no"><root><root-step>C</root-step></root><kind text="7">dominant</kind></harmony><note><pitch><step>D</step><octave>5</octave></pitch><duration>3072</duration><voice>1</voice><type>whole</type></note></measure><measure number="15"><harmony relative-x="8" default-y="25" print-frame="no"><root><root-step>C</root-step></root><kind text="m">minor</kind></harmony><note><pitch><step>F</step><octave>5</octave></pitch><duration>1536</duration><voice>1</voice><type>half</type><lyric number="1" name="verse"><syllabic>end</syllabic><text>"Go</text></lyric></note><harmony relative-x="8" default-y="25" print-frame="no"><root><root-step>F</root-step></root><kind text="7">dominant</kind></harmony><note><pitch><step>C</step><alter>1</alter><octave>5</octave></pitch><duration>1536</duration><voice>1</voice><type>half</type><lyric number="1" name="verse"><syllabic>end</syllabic><text>'long</text></lyric></note></measure><measure number="16"><harmony relative-x="8" default-y="25" print-frame="no"><root><root-step>B</root-step><root-alter>-1</root-alter></root><kind text="">major</kind></harmony><note><pitch><step>D</step><octave>5</octave></pitch><duration>3072</duration><voice>1</voice><type>whole</type><lyric number="1" name="verse"><syllabic>end</syllabic><text>blues."</text></lyric></note><barline location="right"><bar-style>light-light</bar-style></barline></measure><measure number="17"><print new-system="yes"/><harmony relative-x="8" default-y="25" print-frame="no"><root><root-step>B</root-step><root-alter>-1</root-alter></root><kind text="">major</kind></harmony><note><rest/><duration>768</duration><voice>1</voice><type>quarter</type></note><note><pitch><step>F</step><octave>4</octave></pitch><duration>384</duration><voice>1</voice><type>eighth</type><beam number="1">begin</beam><lyric number="1" name="verse"><syllabic>middle</syllabic><text>Al</text></lyric></note><note><pitch><step>F</step><alter>1</alter><octave>4</octave></pitch><duration>384</duration><voice>1</voice><type>eighth</type><beam number="1">continue</beam><lyric number="1" name="verse"><syllabic>end</syllabic><text>ways</text></lyric></note><note><pitch><step>G</step><octave>4</octave></pitch><duration>1152</duration><voice>1</voice><type>quarter</type><dot/><lyric number="1" name="verse"><syllabic>end</syllabic><text>get</text></lyric></note><note><pitch><step>F</step><octave>4</octave></pitch><duration>384</duration><voice>1</voice><type>eighth</type><beam number="1">continue</beam><lyric number="1" name="verse"><syllabic>end</syllabic><text>that</text></lyric></note></measure><measure number="18"><harmony relative-x="8" default-y="25" print-frame="no"><root><root-step>C</root-step></root><kind text="7">dominant</kind></harmony><note><pitch><step>E</step><octave>4</octave></pitch><duration>384</duration><voice>1</voice><type>eighth</type><beam number="1">begin</beam><lyric number="1" name="verse"><syllabic>end</syllabic><text>mood</text></lyric></note><note><pitch><step>D</step><octave>5</octave></pitch><duration>384</duration><voice>1</voice><type>eighth</type><beam number="1">continue</beam><lyric number="1" name="verse"><syllabic>middle</syllabic><text>in</text></lyric></note><note><pitch><step>D</step><alter>-1</alter><octave>5</octave></pitch><duration>384</duration><voice>1</voice><type>eighth</type><beam number="1">continue</beam><lyric number="1" name="verse"><syllabic>middle</syllabic><text>di</text></lyric></note><note><pitch><step>C</step><octave>5</octave></pitch><duration>384</duration><tie type="start"/><voice>1</voice><type>eighth</type><beam number="1">continue</beam><notations><tied type="start"/></notations><lyric number="1" name="verse"><syllabic>end</syllabic><text>go</text><extend/></lyric></note><note><pitch><step>C</step><octave>5</octave></pitch><duration>1536</duration><voice>1</voice><type>half</type></note></measure><measure number="19"><harmony relative-x="8" default-y="25" print-frame="no"><root><root-step>C</root-step></root><kind text="m">minor</kind></harmony><note><pitch><step>D</step><octave>5</octave></pitch><duration>384</duration><voice>1</voice><type>eighth</type><beam number="1">begin</beam><lyric number="1" name="verse"><syllabic>end</syllabic><text>since</text></lyric></note><note><pitch><step>C</step><octave>5</octave></pitch><duration>384</duration><voice>1</voice><type>eighth</type><beam number="1">continue</beam><lyric number="1" name="verse"><syllabic>end</syllabic><text>my</text></lyric></note><note><pitch><step>B</step><alter>-1</alter><octave>4</octave></pitch><duration>384</duration><voice>1</voice><type>eighth</type><beam number="1">continue</beam><lyric number="1" name="verse"><syllabic>middle</syllabic><text>ba</text></lyric></note><note><pitch><step>G</step><octave>4</octave></pitch><duration>384</duration><voice>1</voice><type>eighth</type><beam number="1">continue</beam><lyric number="1" name="verse"><syllabic>end</syllabic><text>by</text></lyric></note><harmony relative-x="8" default-y="25" print-frame="no"><root><root-step>F</root-step></root><kind text="7">dominant</kind></harmony><note><pitch><step>A</step><octave>4</octave></pitch><duration>768</duration><voice>1</voice><type>quarter</type><lyric number="1" name="verse"><syllabic>end</syllabic><text>said</text></lyric></note><note><pitch><step>C</step><octave>5</octave></pitch><duration>768</duration><voice>1</voice><type>quarter</type><lyric number="1" name="verse"><syllabic>middle</syllabic><text>good</text></lyric></note></measure><measure number="20"><harmony relative-x="8" default-y="25" print-frame="no"><root><root-step>B</root-step><root-alter>-1</root-alter></root><kind text="">major</kind></harmony><harmony relative-x="8" default-y="25" print-frame="no"><root><root-step>G</root-step></root><kind text="7">dominant</kind><offset>768</offset></harmony><note><pitch><step>F</step><octave>4</octave></pitch><duration>3072</duration><voice>1</voice><type>whole</type><lyric number="1" name="verse"><syllabic>end</syllabic><text>bye.</text></lyric></note><harmony relative-x="8" default-y="25" print-frame="no"><root><root-step>C</root-step></root><kind text="m">minor</kind><offset>-1536</offset></harmony><harmony relative-x="8" default-y="25" print-frame="no"><root><root-step>F</root-step></root><kind text="7">dominant</kind><offset>-768</offset></harmony></measure><measure number="21"><print new-system="yes"/><harmony relative-x="8" default-y="25" print-frame="no"><root><root-step>B</root-step><root-alter>-1</root-alter></root><kind text="">major</kind></harmony><note><rest/><duration>768</duration><voice>1</voice><type>quarter</type></note><note><pitch><step>F</step><octave>4</octave></pitch><duration>384</duration><voice>1</voice><type>eighth</type><beam number="1">begin</beam><lyric number="1" name="verse"><syllabic>end</syllabic><text>In</text></lyric></note><note><pitch><step>F</step><alter>1</alter><octave>4</octave></pitch><duration>384</duration><voice>1</voice><type>eighth</type><beam number="1">continue</beam><lyric number="1" name="verse"><syllabic>end</syllabic><text>the</text></lyric></note><note><pitch><step>G</step><octave>4</octave></pitch><duration>1152</duration><voice>1</voice><type>quarter</type><dot/><lyric number="1" name="verse"><syllabic>middle</syllabic><text>eve</text></lyric></note><note><pitch><step>F</step><octave>4</octave></pitch><duration>384</duration><voice>1</voice><type>eighth</type><beam number="1">continue</beam><lyric number="1" name="verse"><syllabic>end</syllabic><text>ning</text></lyric></note></measure><measure number="22"><harmony relative-x="8" default-y="25" print-frame="no"><root><root-step>C</root-step></root><kind text="7">dominant</kind></harmony><note><pitch><step>E</step><octave>4</octave></pitch><duration>384</duration><voice>1</voice><type>eighth</type><beam number="1">begin</beam><lyric number="1" name="verse"><syllabic>end</syllabic><text>when</text></lyric></note><note><pitch><step>D</step><octave>5</octave></pitch><duration>384</duration><voice>1</voice><type>eighth</type><beam number="1">continue</beam><lyric number="1" name="verse"><syllabic>end</syllabic><text>lights</text></lyric></note><note><pitch><step>D</step><alter>-1</alter><octave>5</octave></pitch><duration>384</duration><voice>1</voice><type>eighth</type><beam number="1">continue</beam><lyric number="1" name="verse"><syllabic>end</syllabic><text>are</text></lyric></note><note><pitch><step>C</step><octave>5</octave></pitch><duration>384</duration><tie type="start"/><voice>1</voice><type>eighth</type><beam number="1">continue</beam><notations><tied type="start"/></notations><lyric number="1" name="verse"><syllabic>end</syllabic><text>low,</text><extend/></lyric></note><note><pitch><step>C</step><octave>5</octave></pitch><duration>1536</duration><voice>1</voice><type>half</type></note></measure><measure number="23"><harmony relative-x="8" default-y="25" print-frame="no"><root><root-step>G</root-step><root-alter>-1</root-alter></root><kind text="7">dominant</kind></harmony><note><pitch><step>D</step><alter>-1</alter><octave>5</octave></pitch><duration>384</duration><voice>1</voice><type>eighth</type><beam number="1">begin</beam><lyric number="1" name="verse"><syllabic>end</syllabic><text>I'm</text></lyric></note><note><pitch><step>C</step><octave>5</octave></pitch><duration>384</duration><voice>1</voice><type>eighth</type><beam number="1">continue</beam><lyric number="1" name="verse"><syllabic>end</syllabic><text>so</text></lyric></note><note><pitch><step>D</step><alter>-1</alter><octave>5</octave></pitch><duration>384</duration><voice>1</voice><type>eighth</type><beam number="1">continue</beam><lyric number="1" name="verse"><syllabic>middle</syllabic><text>lone</text></lyric></note><note><pitch><step>C</step><octave>5</octave></pitch><duration>384</duration><voice>1</voice><type>eighth</type><beam number="1">continue</beam><lyric number="1" name="verse"><syllabic>end</syllabic><text>some</text></lyric></note><note><pitch><step>D</step><alter>-1</alter><octave>5</octave></pitch><duration>384</duration><voice>1</voice><type>eighth</type><beam number="1">begin</beam><lyric number="1" name="verse"><syllabic>end</syllabic><text>I</text></lyric></note><note><pitch><step>C</step><octave>5</octave></pitch><duration>768</duration><voice>1</voice><type>quarter</type><lyric number="1" name="verse"><syllabic>end</syllabic><text>could</text></lyric></note><note><pitch><step>C</step><octave>5</octave></pitch><duration>384</duration><tie type="start"/><voice>1</voice><type>eighth</type><beam number="1">continue</beam><notations><tied type="start"/></notations><lyric number="1" name="verse"><syllabic>end</syllabic><text>cry.</text><extend/></lyric></note></measure><measure number="24"><harmony relative-x="8" default-y="25" print-frame="no"><root><root-step>F</root-step></root><kind text="7">dominant</kind></harmony><note><pitch><step>C</step><octave>5</octave></pitch><duration>3072</duration><voice>1</voice><type>whole</type></note><barline location="right"><bar-style>light-light</bar-style></barline></measure><measure number="25"><harmony relative-x="8" default-y="25" print-frame="no"><root><root-step>B</root-step><root-alter>-1</root-alter></root><kind text="7">dominant</kind></harmony><note><rest/><duration>384</duration><voice>1</voice><type>eighth</type></note><note><pitch><step>B</step><alter>-1</alter><octave>4</octave></pitch><duration>384</duration><voice>1</voice><type>eighth</type><beam number="1">continue</beam><lyric number="1" name="verse"><syllabic>end</syllabic><text>'Cause</text></lyric></note><note><pitch><step>C</step><octave>5</octave></pitch><duration>384</duration><voice>1</voice><type>eighth</type><beam number="1">begin</beam><lyric number="1" name="verse"><syllabic>end</syllabic><text>there's</text></lyric></note><note><pitch><step>F</step><octave>4</octave></pitch><duration>384</duration><voice>1</voice><type>eighth</type><beam number="1">continue</beam><lyric number="1" name="verse"><syllabic>middle</syllabic><text>no</text></lyric></note><note><pitch><step>B</step><alter>-1</alter><octave>4</octave></pitch><duration>384</duration><voice>1</voice><type>eighth</type><beam number="1">begin</beam><lyric number="1" name="verse"><syllabic>middle</syllabic><text>bo</text></lyric></note><note><pitch><step>C</step><octave>5</octave></pitch><duration>768</duration><voice>1</voice><type>quarter</type><lyric number="1" name="verse"><syllabic>end</syllabic><text>dy</text></lyric></note><note><pitch><step>F</step><octave>4</octave></pitch><duration>384</duration><voice>1</voice><type>eighth</type><beam number="1">continue</beam><lyric number="1" name="verse"><syllabic>end</syllabic><text>who</text></lyric></note></measure><measure number="26"><harmony relative-x="8" default-y="25" print-frame="no"><root><root-step>F</root-step></root><kind text="m">minor</kind></harmony><note><pitch><step>B</step><alter>-1</alter><octave>4</octave></pitch><duration>384</duration><voice>1</voice><type>eighth</type><beam number="1">begin</beam><lyric number="1" name="verse"><syllabic>end</syllabic><text>cares</text></lyric></note><note><pitch><step>C</step><octave>5</octave></pitch><duration>384</duration><voice>1</voice><type>eighth</type><beam number="1">continue</beam><lyric number="1" name="verse"><syllabic>middle</syllabic><text>a</text></lyric></note><note><pitch><step>F</step><octave>4</octave></pitch><duration>384</duration><voice>1</voice><type>eighth</type><beam number="1">continue</beam><lyric number="1" name="verse"><syllabic>end</syllabic><text>bout</text></lyric></note><note><pitch><step>B</step><alter>-1</alter><octave>4</octave></pitch><duration>384</duration><tie type="start"/><voice>1</voice><type>eighth</type><beam number="1">continue</beam><notations><tied type="start"/></notations><lyric number="1" name="verse"><syllabic>end</syllabic><text>me,</text><extend/></lyric></note><harmony relative-x="8" default-y="25" print-frame="no"><root><root-step>B</root-step><root-alter>-1</root-alter></root><kind text="7">dominant</kind></harmony><note><pitch><step>B</step><alter>-1</alter><octave>4</octave></pitch><duration>1536</duration><voice>1</voice><type>half</type></note></measure><measure number="27"><harmony relative-x="8" default-y="25" print-frame="no"><root><root-step>E</root-step><root-alter>-1</root-alter></root><kind text="">major</kind></harmony><note><rest/><duration>384</duration><voice>1</voice><type>eighth</type></note><note><pitch><step>B</step><alter>-1</alter><octave>4</octave></pitch><duration>384</duration><voice>1</voice><type>eighth</type><beam number="1">continue</beam><lyric number="1" name="verse"><syllabic>end</syllabic><text>I'm</text></lyric></note><note><pitch><step>C</step><octave>5</octave></pitch><duration>384</duration><voice>1</voice><type>eighth</type><beam number="1">begin</beam><lyric number="1" name="verse"><syllabic>end</syllabic><text>just</text></lyric></note><note><pitch><step>B</step><alter>-1</alter><octave>4</octave></pitch><duration>384</duration><voice>1</voice><type>eighth</type><beam number="1">continue</beam><lyric number="1" name="verse"><syllabic>end</syllabic><text>a</text></lyric></note><harmony relative-x="8" default-y="25" print-frame="no"><root><root-step>E</root-step><root-alter>-1</root-alter></root><kind text="7">dominant</kind></harmony><note><pitch><step>D</step><alter>-1</alter><octave>5</octave></pitch><duration>1152</duration><voice>1</voice><type>quarter</type><dot/><lyric number="1" name="verse"><syllabic>end</syllabic><text>soul</text></lyric></note><note><pitch><step>B</step><alter>-1</alter><octave>4</octave></pitch><duration>384</duration><voice>1</voice><type>eighth</type><beam number="1">continue</beam><lyric number="1" name="verse"><syllabic>end</syllabic><text>who's</text></lyric></note></measure><measure number="28"><harmony relative-x="8" default-y="25" print-frame="no"><root><root-step>A</root-step><root-alter>-1</root-alter></root><kind text="7">dominant</kind></harmony><note><pitch><step>D</step><alter>-1</alter><octave>5</octave></pitch><duration>384</duration><voice>1</voice><type>eighth</type><beam number="1">begin</beam><lyric number="1" name="verse"><syllabic>middle</syllabic><text>blu</text></lyric></note><note><pitch><step>B</step><alter>-1</alter><octave>4</octave></pitch><duration>384</duration><voice>1</voice><type>eighth</type><beam number="1">continue</beam><lyric number="1" name="verse"><syllabic>end</syllabic><text>er</text></lyric></note><note><pitch><step>C</step><octave>5</octave></pitch><duration>384</duration><voice>1</voice><type>eighth</type><beam number="1">continue</beam><lyric number="1" name="verse"><syllabic>end</syllabic><text>than</text></lyric></note><note><pitch><step>B</step><alter>-1</alter><octave>4</octave></pitch><duration>384</duration><tie type="start"/><voice>1</voice><type>eighth</type><beam number="1">continue</beam><notations><tied type="start"/></notations><lyric number="1" name="verse"><syllabic>end</syllabic><text>blue</text><extend/></lyric></note><note><pitch><step>B</step><alter>-1</alter><octave>4</octave></pitch><duration>384</duration><voice>1</voice><type>eighth</type><beam number="1">begin</beam></note><note><pitch><step>G</step><alter>-1</alter><octave>4</octave></pitch><duration>768</duration><voice>1</voice><type>quarter</type><lyric number="1" name="verse"><syllabic>end</syllabic><text>can</text></lyric></note><harmony relative-x="8" default-y="25" print-frame="no"><root><root-step>F</root-step></root><kind text="7">dominant</kind><offset>-384</offset></harmony><note><pitch><step>F</step><octave>4</octave></pitch><duration>384</duration><tie type="start"/><voice>1</voice><type>eighth</type><beam number="1">continue</beam><notations><tied type="start"/></notations><lyric number="1" name="verse"><syllabic>end</syllabic><text>be.</text></lyric></note></measure><measure number="29"><print new-system="yes"/><harmony relative-x="8" default-y="25" print-frame="no"><root><root-step>B</root-step><root-alter>-1</root-alter></root><kind text="">major</kind></harmony><note><pitch><step>F</step><octave>4</octave></pitch><duration>768</duration><voice>1</voice><type>quarter</type></note><note><pitch><step>F</step><octave>4</octave></pitch><duration>384</duration><voice>1</voice><type>eighth</type><beam number="1">begin</beam><lyric number="1" name="verse"><syllabic>end</syllabic><text>When</text></lyric></note><note><pitch><step>F</step><alter>1</alter><octave>4</octave></pitch><duration>384</duration><voice>1</voice><type>eighth</type><beam number="1">continue</beam><lyric number="1" name="verse"><syllabic>end</syllabic><text>I</text></lyric></note><note><pitch><step>G</step><octave>4</octave></pitch><duration>1152</duration><voice>1</voice><type>quarter</type><dot/><lyric number="1" name="verse"><syllabic>end</syllabic><text>get</text></lyric></note><note><pitch><step>F</step><octave>4</octave></pitch><duration>384</duration><voice>1</voice><type>eighth</type><beam number="1">continue</beam><lyric number="1" name="verse"><syllabic>end</syllabic><text>that</text></lyric></note></measure><measure number="30"><harmony relative-x="8" default-y="25" print-frame="no"><root><root-step>C</root-step></root><kind text="7">dominant</kind></harmony><note><pitch><step>E</step><octave>4</octave></pitch><duration>384</duration><voice>1</voice><type>eighth</type><beam number="1">begin</beam><lyric number="1" name="verse"><syllabic>end</syllabic><text>mood</text></lyric></note><note><pitch><step>D</step><octave>5</octave></pitch><duration>384</duration><voice>1</voice><type>eighth</type><beam number="1">continue</beam><lyric number="1" name="verse"><syllabic>middle</syllabic><text>in</text></lyric></note><note><pitch><step>D</step><alter>-1</alter><octave>5</octave></pitch><duration>384</duration><voice>1</voice><type>eighth</type><beam number="1">continue</beam><lyric number="1" name="verse"><syllabic>middle</syllabic><text>di</text></lyric></note><note><pitch><step>C</step><octave>5</octave></pitch><duration>384</duration><tie type="start"/><voice>1</voice><type>eighth</type><beam number="1">continue</beam><notations><tied type="start"/></notations><lyric number="1" name="verse"><syllabic>end</syllabic><text>go,</text><extend/></lyric></note><note><pitch><step>C</step><octave>5</octave></pitch><duration>1536</duration><voice>1</voice><type>half</type></note></measure><measure number="31"><harmony relative-x="8" default-y="25" print-frame="no"><root><root-step>C</root-step></root><kind text="m">minor</kind></harmony><note><pitch><step>D</step><octave>5</octave></pitch><duration>576</duration><voice>1</voice><type>eighth</type><dot/><beam number="1">begin</beam><lyric number="1" name="verse"><syllabic>end</syllabic><text>I</text></lyric></note><note><pitch><step>C</step><octave>5</octave></pitch><duration>192</duration><voice>1</voice><type>16th</type><beam number="1">continue</beam><beam number="2">continue</beam><lyric number="1" name="verse"><syllabic>end</syllabic><text>could</text></lyric></note><note><pitch><step>B</step><alter>-1</alter><octave>4</octave></pitch><duration>576</duration><voice>1</voice><type>eighth</type><dot/><beam number="1">begin</beam><lyric number="1" name="verse"><syllabic>end</syllabic><text>lay</text></lyric></note><note><pitch><step>G</step><octave>4</octave></pitch><duration>192</duration><voice>1</voice><type>16th</type><beam number="1">continue</beam><beam number="2">continue</beam><lyric number="1" name="verse"><syllabic>end</syllabic><text>me</text></lyric></note><harmony relative-x="8" default-y="25" print-frame="no"><root><root-step>F</root-step></root><kind text="7">dominant</kind></harmony><note><pitch><step>A</step><octave>4</octave></pitch><duration>768</duration><voice>1</voice><type>quarter</type><lyric number="1" name="verse"><syllabic>end</syllabic><text>down</text></lyric></note><note><pitch><step>C</step><octave>5</octave></pitch><duration>768</duration><voice>1</voice><type>quarter</type><lyric number="1" name="verse"><syllabic>end</syllabic><text>and</text></lyric></note></measure><measure number="32"><harmony relative-x="8" default-y="25" print-frame="no"><root><root-step>B</root-step><root-alter>-1</root-alter></root><kind text="">major</kind></harmony><note><pitch><step>B</step><alter>-1</alter><octave>4</octave></pitch><duration>1536</duration><voice>1</voice><type>half</type><lyric number="1" name="verse"><syllabic>end</syllabic><text>die.</text></lyric></note><harmony relative-x="8" default-y="25" print-frame="no"><root><root-step>G</root-step></root><kind text="7">dominant</kind><offset>-768</offset></harmony><harmony relative-x="8" default-y="25" print-frame="no"><root><root-step>C</root-step></root><kind text="m">minor</kind></harmony><note><rest/><duration>1536</duration><voice>1</voice><type>half</type></note><harmony relative-x="8" default-y="25" print-frame="no"><root><root-step>F</root-step></root><kind text="7">dominant</kind><offset>-768</offset></harmony><barline location="right"><bar-style>light-heavy</bar-style></barline></measure></part></score-partwise>