<score-partwise version="2.0"><work><work-number/><work-title/></work><movement-number/><movement-title>I'll Get By (As Long As I Have You)</movement-title><identification><creator type="composer">Fred E. Alhert</creator><creator type="poet">Roy Turk</creator><rights>All Rights Reserved</rights><encoding><software>MuseScore 0.9.5</software><encoding-date>2009-12-13</encoding-date><software>ProxyMusic 2.0 c</software></encoding><source>http://wikifonia.org/node/3509/revisions/4909/view</source></identification><defaults><scaling><millimeters>7.056</millimeters><tenths>40</tenths></scaling><page-layout><page-height>1683.67</page-height><page-width>1190.48</page-width><page-margins type="both"><left-margin>56.6893</left-margin><right-margin>56.6893</right-margin><top-margin>56.6893</top-margin><bottom-margin>113.379</bottom-margin></page-margins></page-layout></defaults><credit page="1"><credit-words font-size="24" default-y="1626.98" default-x="595.238" justify="center" valign="top">I'll Get By (As Long As I Have You)</credit-words></credit><part-list><score-part id="P1"><part-name>Voice</part-name><score-instrument id="P1-I3"><instrument-name>Voice</instrument-name></score-instrument><midi-instrument id="P1-I3"><midi-channel>1</midi-channel><midi-program>53</midi-program></midi-instrument></score-part></part-list><part id="P1"><measure width="316.91" number="1"><print><system-layout><system-margins><left-margin>67.42</left-margin><right-margin>-0.00</right-margin></system-margins><top-system-distance>180.00</top-system-distance></system-layout></print><attributes><divisions>1</divisions><key><fifths>0</fifths><mode>major</mode></key><time><beats>4</beats><beat-type>4</beat-type></time><clef><sign>G</sign><line>2</line></clef></attributes><harmony print-frame="no"><root><root-step>C</root-step></root><kind text="Maj7">major-seventh</kind></harmony><note default-y="-50.00" default-x="87.27"><pitch><step>C</step><octave>4</octave></pitch><duration>1</duration><voice>1</voice><type>quarter</type><stem>up</stem><lyric number="1"><syllabic>single</syllabic><text>I'll</text></lyric></note><note default-y="-45.00" default-x="150.61"><pitch><step>D</step><octave>4</octave></pitch><duration>1</duration><voice>1</voice><type>quarter</type><stem>up</stem><lyric number="1"><syllabic>single</syllabic><text>get</text></lyric></note><note default-y="-50.00" default-x="213.96"><pitch><step>C</step><octave>4</octave></pitch><duration>2</duration><tie type="start"/><voice>1</voice><type>half</type><stem>up</stem><notations><tied type="start"/></notations><lyric number="1"><syllabic>single</syllabic><text>by</text></lyric></note></measure><measure width="210.01" number="2"><harmony print-frame="no"><root><root-step>D</root-step></root><kind text="m7">minor-seventh</kind></harmony><note default-y="-50.00" default-x="15.00"><pitch><step>C</step><octave>4</octave></pitch><duration>2</duration><tie type="stop"/><voice>1</voice><type>half</type><stem>up</stem><notations><tied type="stop"/></notations></note><harmony print-frame="no"><root><root-step>G</root-step></root><kind text="7b9">dominant</kind><degree><degree-value>9</degree-value><degree-alter>-1</degree-alter><degree-type>add</degree-type></degree></harmony><note default-y="-45.00" default-x="111.71"><pitch><step>D</step><octave>4</octave></pitch><duration>2</duration><voice>1</voice><type>half</type><stem>up</stem><lyric number="1"><syllabic>single</syllabic><text>as</text></lyric></note></measure><measure width="252.52" number="3"><harmony print-frame="no"><root><root-step>C</root-step></root><kind text="Maj7">major-seventh</kind></harmony><note default-y="-40.00" default-x="28.51"><pitch><step>E</step><octave>4</octave></pitch><duration>1</duration><voice>1</voice><type>quarter</type><stem>up</stem><lyric number="1"><syllabic>single</syllabic><text>long</text></lyric></note><note default-y="-30.00" default-x="90.29"><pitch><step>G</step><octave>4</octave></pitch><duration>1</duration><voice>1</voice><type>quarter</type><stem>up</stem><lyric number="1"><syllabic>single</syllabic><text>as</text></lyric></note><harmony print-frame="no"><root><root-step>B</root-step></root><kind text="m7">minor-seventh</kind></harmony><note default-y="-10.00" default-x="152.07"><pitch><step>D</step><octave>5</octave></pitch><duration>2</duration><tie type="start"/><voice>1</voice><type>half</type><stem>down</stem><notations><tied type="start"/></notations><lyric number="1"><syllabic>single</syllabic><text>I</text></lyric></note></measure><measure width="230.23" number="4"><harmony print-frame="no"><root><root-step>E</root-step></root><kind text="7">dominant</kind></harmony><note default-y="-10.00" default-x="15.00"><pitch><step>D</step><octave>5</octave></pitch><duration>2</duration><tie type="stop"/><voice>1</voice><type>half</type><stem>down</stem><notations><tied type="stop"/></notations></note><harmony print-frame="no"><root><root-step>E</root-step></root><kind text="7+">augmented-seventh</kind></harmony><note default-y="-15.00" default-x="121.81"><pitch><step>C</step><octave>5</octave></pitch><duration>2</duration><voice>1</voice><type>half</type><stem>down</stem><lyric number="1"><syllabic>single</syllabic><text>have</text></lyric></note></measure><measure width="175.94" number="5"><print new-system="yes"><system-layout><system-margins><left-margin>0.00</left-margin><right-margin>-0.00</right-margin></system-margins><system-distance>105.20</system-distance></system-layout></print><harmony print-frame="no"><root><root-step>F</root-step></root><kind text="6">major-sixth</kind></harmony><note default-y="-45.00" default-x="73.87"><pitch><step>D</step><octave>4</octave></pitch><duration>4</duration><tie type="start"/><voice>1</voice><type>whole</type><notations><tied type="start"/></notations><lyric number="1"><syllabic>single</syllabic><text>you.</text></lyric></note></measure><measure width="186.36" number="6"><note default-y="-45.00" default-x="15.00"><pitch><step>D</step><octave>4</octave></pitch><duration>2</duration><tie type="stop"/><voice>1</voice><type>half</type><stem>up</stem><notations><tied type="stop"/></notations></note><harmony print-frame="no"><root><root-step>A</root-step></root><kind text="7">dominant</kind></harmony><note default-y="-40.00" default-x="99.88"><pitch><step>E</step><octave>4</octave></pitch><duration>2</duration><voice>1</voice><type>half</type><stem>up</stem><lyric number="1"><syllabic>single</syllabic><text>Though</text></lyric></note></measure><measure width="205.64" number="7"><harmony print-frame="no"><root><root-step>D</root-step></root><kind text="m7">minor-seventh</kind></harmony><note default-y="-35.00" default-x="30.99"><pitch><step>F</step><octave>4</octave></pitch><duration>1</duration><voice>1</voice><type>quarter</type><stem>up</stem><lyric number="1"><syllabic>single</syllabic><text>there</text></lyric></note><note default-y="-25.00" default-x="79.06"><pitch><step>A</step><octave>4</octave></pitch><duration>1</duration><voice>1</voice><type>quarter</type><stem>up</stem><lyric number="1"><syllabic>single</syllabic><text>be</text></lyric></note><harmony print-frame="no"><root><root-step>D</root-step></root><kind text="9">dominant-ninth</kind></harmony><note default-y="-5.00" default-x="127.13"><pitch><step>E</step><octave>5</octave></pitch><duration>2</duration><tie type="start"/><voice>1</voice><type>half</type><stem>down</stem><notations><tied type="start"/></notations><lyric number="1"><syllabic>single</syllabic><text>rain</text></lyric></note></measure><measure width="148.78" number="8"><note default-y="-5.00" default-x="15.00"><pitch><step>E</step><octave>5</octave></pitch><duration>2</duration><tie type="stop"/><voice>1</voice><type>half</type><stem>down</stem><notations><tied type="stop"/></notations></note><note default-y="-10.00" default-x="81.09"><pitch><step>D</step><octave>5</octave></pitch><duration>2</duration><voice>1</voice><type>half</type><stem>down</stem><lyric number="1"><syllabic>single</syllabic><text>and</text></lyric></note></measure><measure width="216.00" number="9"><harmony print-frame="no"><root><root-step>G</root-step></root><kind text="7">dominant</kind></harmony><note default-y="-15.00" default-x="28.49"><pitch><step>C</step><octave>5</octave></pitch><duration>1</duration><voice>1</voice><type>quarter</type><stem>down</stem><lyric number="1"><syllabic>begin</syllabic><text>dark</text></lyric></note><note default-y="-20.00" default-x="80.13"><pitch><step>B</step><octave>4</octave></pitch><duration>1</duration><voice>1</voice><type>quarter</type><stem>down</stem><lyric number="1"><syllabic>end</syllabic><text>ness</text></lyric></note><note default-y="-20.00" default-x="131.77"><pitch><step>B</step><octave>4</octave></pitch><duration>2</duration><tie type="start"/><voice>1</voice><type>half</type><stem>down</stem><notations><tied type="start"/></notations><lyric number="1"><syllabic>single</syllabic><text>too,</text></lyric></note></measure><measure width="144.38" number="10"><harmony print-frame="no"><root><root-step>G</root-step></root><kind text="7">dominant</kind></harmony><note default-y="-20.00" default-x="15.00"><pitch><step>B</step><octave>4</octave></pitch><duration>2</duration><tie type="stop"/><voice>1</voice><type>half</type><stem>down</stem><notations><tied type="stop"/></notations></note><harmony print-frame="no"><root><root-step>E</root-step><root-alter>-1</root-alter></root><kind text="dim">diminished</kind></harmony><note default-y="-15.00" default-x="78.89"><pitch><step>C</step><octave>5</octave></pitch><duration>2</duration><voice>1</voice><type>half</type><stem>down</stem><lyric number="1"><syllabic>single</syllabic><text>I''ll</text></lyric></note></measure><measure width="296.02" number="11"><print new-system="yes"><system-layout><system-margins><left-margin>0.00</left-margin><right-margin>-0.00</right-margin></system-margins><system-distance>105.20</system-distance></system-layout></print><harmony print-frame="no"><root><root-step>G</root-step></root><kind text="7">dominant</kind><bass><bass-step>D</bass-step></bass></harmony><note default-y="-20.00" default-x="68.55"><pitch><step>B</step><octave>4</octave></pitch><duration>1</duration><voice>1</voice><type>quarter</type><stem>down</stem><lyric number="1"><syllabic>single</syllabic><text>not</text></lyric></note><note default-y="-25.00" default-x="131.29"><pitch><step>A</step><octave>4</octave></pitch><duration>1</duration><voice>1</voice><type>quarter</type><stem>up</stem><lyric number="1"><syllabic>begin</syllabic><text>com</text></lyric></note><note default-y="-25.00" default-x="194.03"><pitch><step>A</step><octave>4</octave></pitch><duration>2</duration><tie type="start"/><voice>1</voice><type>half</type><stem>up</stem><notations><tied type="start"/></notations><lyric number="1"><syllabic>single</syllabic><text>plain,</text></lyric></note></measure><measure width="170.57" number="12"><note default-y="-25.00" default-x="15.00"><pitch><step>A</step><octave>4</octave></pitch><duration>2</duration><tie type="stop"/><voice>1</voice><type>half</type><stem>up</stem><notations><tied type="stop"/></notations></note><harmony print-frame="no"><root><root-step>G</root-step></root><kind text="7+">augmented-seventh</kind></harmony><note default-y="-20.00" default-x="91.99"><pitch><step>B</step><octave>4</octave></pitch><duration>2</duration><voice>1</voice><type>half</type><stem>down</stem><lyric number="1"><syllabic>single</syllabic><text>I'll</text></lyric></note></measure><measure width="255.07" number="13"><harmony print-frame="no"><root><root-step>C</root-step></root><kind text="Maj7">major-seventh</kind></harmony><note default-y="-25.00" default-x="22.86"><pitch><step>A</step><octave>4</octave></pitch><duration>1</duration><voice>1</voice><type>quarter</type><stem>up</stem><lyric number="1"><syllabic>single</syllabic><text>see</text></lyric></note><note default-y="-30.00" default-x="86.92"><pitch><step>G</step><octave>4</octave></pitch><duration>1</duration><voice>1</voice><type>quarter</type><stem>up</stem><lyric number="1"><syllabic>single</syllabic><text>it</text></lyric></note><harmony print-frame="no"><root><root-step>C</root-step><root-alter>1</root-alter></root><kind text="dim7">diminished-seventh</kind></harmony><note default-y="-30.00" default-x="150.97"><pitch><step>G</step><octave>4</octave></pitch><duration>2</duration><tie type="start"/><voice>1</voice><type>half</type><stem>up</stem><notations><tied type="start"/></notations><lyric number="1"><syllabic>single</syllabic><text>through.</text></lyric></note></measure><measure width="145.64" number="14"><harmony print-frame="no"><root><root-step>D</root-step></root><kind text="m7">minor-seventh</kind></harmony><harmony relative-x="2700.00" print-frame="no"><root><root-step>G</root-step></root><kind text="7">dominant</kind></harmony><note default-y="-30.00" default-x="15.00"><pitch><step>G</step><octave>4</octave></pitch><duration>4</duration><tie type="stop"/><voice>1</voice><type>whole</type><notations><tied type="stop"/></notations></note></measure><measure width="209.79" number="15"><harmony print-frame="no"><root><root-step>C</root-step></root><kind text="Maj7">major-seventh</kind></harmony><note default-y="-50.00" default-x="26.00"><pitch><step>C</step><octave>4</octave></pitch><duration>1</duration><voice>1</voice><type>quarter</type><stem>up</stem><lyric number="1"><syllabic>begin</syllabic><text>Pov</text></lyric></note><note default-y="-45.00" default-x="76.61"><pitch><step>D</step><octave>4</octave></pitch><duration>1</duration><voice>1</voice><type>quarter</type><stem>up</stem><lyric number="1"><syllabic>middle</syllabic><text>er</text></lyric></note><note default-y="-50.00" default-x="127.22"><pitch><step>C</step><octave>4</octave></pitch><duration>2</duration><tie type="start"/><voice>1</voice><type>half</type><stem>up</stem><notations><tied type="start"/></notations><lyric number="1"><syllabic>single</syllabic><text>ty</text></lyric></note></measure><measure width="198.47" number="16"><print new-system="yes"><system-layout><system-margins><left-margin>0.00</left-margin><right-margin>-0.00</right-margin></system-margins><system-distance>105.20</system-distance></system-layout></print><harmony print-frame="no"><root><root-step>D</root-step></root><kind text="m7">minor-seventh</kind></harmony><note default-y="-50.00" default-x="53.18"><pitch><step>C</step><octave>4</octave></pitch><duration>2</duration><tie type="stop"/><voice>1</voice><type>half</type><stem>up</stem><notations><tied type="stop"/></notations></note><harmony print-frame="no"><root><root-step>G</root-step></root><kind text="7b9">dominant</kind><degree><degree-value>9</degree-value><degree-alter>-1</degree-alter><degree-type>add</degree-type></degree></harmony><note default-y="-45.00" default-x="125.03"><pitch><step>D</step><octave>4</octave></pitch><duration>2</duration><voice>1</voice><type>half</type><stem>up</stem><lyric number="1"><syllabic>single</syllabic><text>may</text></lyric></note></measure><measure width="210.90" number="17"><harmony print-frame="no"><root><root-step>C</root-step></root><kind text="Maj7">major-seventh</kind></harmony><note default-y="-40.00" default-x="32.87"><pitch><step>E</step><octave>4</octave></pitch><duration>1</duration><voice>1</voice><type>quarter</type><stem>up</stem><lyric number="1"><syllabic>single</syllabic><text>come</text></lyric></note><note default-y="-30.00" default-x="81.88"><pitch><step>G</step><octave>4</octave></pitch><duration>1</duration><voice>1</voice><type>quarter</type><stem>up</stem><lyric number="1"><syllabic>end</syllabic><text>to</text></lyric></note><harmony print-frame="no"><root><root-step>B</root-step></root><kind text="m7">minor-seventh</kind></harmony><note default-y="-10.00" default-x="130.89"><pitch><step>D</step><octave>5</octave></pitch><duration>2</duration><tie type="start"/><voice>1</voice><type>half</type><stem>down</stem><notations><tied type="start"/></notations><lyric number="1"><syllabic>single</syllabic><text>me,</text></lyric></note></measure><measure width="168.14" number="18"><harmony print-frame="no"><root><root-step>E</root-step></root><kind text="7">dominant</kind></harmony><note default-y="-10.00" default-x="15.00"><pitch><step>D</step><octave>5</octave></pitch><duration>2</duration><tie type="stop"/><voice>1</voice><type>half</type><stem>down</stem><notations><tied type="stop"/></notations></note><harmony print-frame="no"><root><root-step>E</root-step></root><kind text="7+">augmented-seventh</kind></harmony><note default-y="-15.00" default-x="90.77"><pitch><step>C</step><octave>5</octave></pitch><duration>2</duration><voice>1</voice><type>half</type><stem>down</stem><lyric number="1"><syllabic>single</syllabic><text>that's</text></lyric></note></measure><measure width="136.75" number="19"><harmony print-frame="no"><root><root-step>F</root-step></root><kind text="6">major-sixth</kind></harmony><note default-y="-45.00" default-x="28.80"><pitch><step>D</step><octave>4</octave></pitch><duration>4</duration><tie type="start"/><voice>1</voice><type>whole</type><notations><tied type="start"/></notations><lyric number="1"><syllabic>single</syllabic><text>true,</text></lyric></note></measure><measure width="154.05" number="20"><note default-y="-45.00" default-x="15.00"><pitch><step>D</step><octave>4</octave></pitch><duration>2</duration><tie type="stop"/><voice>1</voice><type>half</type><stem>up</stem><notations><tied type="stop"/></notations></note><harmony print-frame="no"><root><root-step>A</root-step></root><kind text="7b9">dominant</kind><degree><degree-value>9</degree-value><degree-alter>-1</degree-alter><degree-type>add</degree-type></degree></harmony><note default-y="-40.00" default-x="83.73"><pitch><step>E</step><octave>4</octave></pitch><duration>2</duration><voice>1</voice><type>half</type><stem>up</stem><lyric number="1"><syllabic>single</syllabic><text>But</text></lyric></note></measure><measure width="208.78" number="21"><harmony print-frame="no"><root><root-step>D</root-step></root><kind text="m7">minor-seventh</kind></harmony><note default-y="-35.00" default-x="30.37"><pitch><step>F</step><octave>4</octave></pitch><duration>1</duration><voice>1</voice><type>quarter</type><stem>up</stem><lyric number="1"><syllabic>single</syllabic><text>what</text></lyric></note><note default-y="-25.00" default-x="79.49"><pitch><step>A</step><octave>4</octave></pitch><duration>1</duration><voice>1</voice><type>quarter</type><stem>up</stem><lyric number="1"><syllabic>single</syllabic><text>care</text></lyric></note><note default-y="-5.00" default-x="128.60"><pitch><step>E</step><octave>5</octave></pitch><duration>2</duration><tie type="start"/><voice>1</voice><type>half</type><stem>down</stem><notations><tied type="start"/></notations><lyric number="1"><syllabic>single</syllabic><text>I,</text></lyric></note></measure><measure width="204.34" number="22"><print new-system="yes"><system-layout><system-margins><left-margin>0.00</left-margin><right-margin>-0.00</right-margin></system-margins><system-distance>105.20</system-distance></system-layout></print><harmony print-frame="no"><root><root-step>F</root-step></root><kind text="m6">minor-sixth</kind></harmony><note default-y="-5.00" default-x="53.18"><pitch><step>E</step><octave>5</octave></pitch><duration>2</duration><tie type="stop"/><voice>1</voice><type>half</type><stem>down</stem><notations><tied type="stop"/></notations></note><note default-y="-10.00" default-x="127.96"><pitch><step>D</step><octave>5</octave></pitch><duration>2</duration><voice>1</voice><type>half</type><stem>down</stem><lyric number="1"><syllabic>single</syllabic><text>say,</text></lyric></note></measure><measure width="194.58" number="23"><harmony print-frame="no"><root><root-step>A</root-step></root><kind text="m">minor</kind></harmony><note default-y="-15.00" default-x="20.51"><pitch><step>C</step><octave>5</octave></pitch><duration>1</duration><voice>1</voice><type>quarter</type><stem>down</stem><lyric number="1"><syllabic>single</syllabic><text>I'll</text></lyric></note><note default-y="-40.00" default-x="68.42"><pitch><step>E</step><octave>4</octave></pitch><duration>1</duration><voice>1</voice><type>quarter</type><stem>up</stem><lyric number="1"><syllabic>single</syllabic><text>get</text></lyric></note><harmony print-frame="no"><root><root-step>A</root-step></root><kind text="9">dominant-ninth</kind></harmony><note default-y="-20.00" default-x="116.33"><pitch><step>B</step><octave>4</octave></pitch><duration>2</duration><tie type="start"/><voice>1</voice><type>half</type><stem>down</stem><notations><tied type="start"/></notations><lyric number="1"><syllabic>single</syllabic><text>by</text></lyric></note></measure><measure width="154.44" number="24"><note default-y="-20.00" default-x="15.00"><pitch><step>B</step><octave>4</octave></pitch><duration>2</duration><tie type="stop"/><voice>1</voice><type>half</type><stem>down</stem><notations><tied type="stop"/></notations></note><harmony print-frame="no"><root><root-step>A</root-step></root><kind text="7+">augmented-seventh</kind></harmony><note default-y="-25.00" default-x="83.92"><pitch><step>A</step><octave>4</octave></pitch><duration>2</duration><voice>1</voice><type>half</type><stem>up</stem><lyric number="1"><syllabic>single</syllabic><text>as</text></lyric></note></measure><measure width="196.95" number="25"><harmony print-frame="no"><root><root-step>D</root-step></root><kind text="m7">minor-seventh</kind></harmony><note default-y="-30.00" default-x="28.51"><pitch><step>G</step><octave>4</octave></pitch><duration>1</duration><voice>1</voice><type>quarter</type><stem>up</stem><lyric number="1"><syllabic>single</syllabic><text>long</text></lyric></note><note default-y="-35.00" default-x="74.85"><pitch><step>F</step><octave>4</octave></pitch><duration>1</duration><voice>1</voice><type>quarter</type><stem>up</stem><lyric number="1"><syllabic>single</syllabic><text>as</text></lyric></note><note default-y="-25.00" default-x="121.20"><pitch><step>A</step><octave>4</octave></pitch><duration>2</duration><tie type="start"/><voice>1</voice><type>half</type><stem>up</stem><notations><tied type="start"/></notations><lyric number="1"><syllabic>single</syllabic><text>I</text></lyric></note></measure><measure width="174.66" number="26"><note default-y="-25.00" default-x="15.00"><pitch><step>A</step><octave>4</octave></pitch><duration>2</duration><tie type="stop"/><voice>1</voice><type>half</type><stem>up</stem><notations><tied type="stop"/></notations></note><harmony print-frame="no"><root><root-step>G</root-step></root><kind text="7b9">dominant</kind><degree><degree-value>9</degree-value><degree-alter>-1</degree-alter><degree-type>add</degree-type></degree></harmony><note default-y="-5.00" default-x="94.03"><pitch><step>E</step><octave>5</octave></pitch><duration>2</duration><voice>1</voice><type>half</type><stem>down</stem><lyric number="1"><syllabic>single</syllabic><text>have</text></lyric></note></measure><measure width="152.13" number="27"><harmony print-frame="no"><root><root-step>C</root-step></root><kind text="">major</kind></harmony><note default-y="-15.00" default-x="28.19"><pitch><step>C</step><octave>5</octave></pitch><duration>4</duration><voice>1</voice><type>whole</type><lyric number="1"><syllabic>single</syllabic><text>you.</text></lyric></note><barline location="right"><bar-style>light-heavy</bar-style></barline></measure></part></score-partwise>