<score-partwise version="2.0"><work><work-number/><work-title/></work><movement-number/><movement-title>Where Or When</movement-title><identification><creator type="composer">Richard Rodgers</creator><creator type="poet">Lorenz Hart</creator><rights>All Rights Reserved</rights><encoding><software>MuseScore 0.9.5</software><encoding-date>2009-12-01</encoding-date><software>ProxyMusic 2.0 c</software></encoding><source>http://wikifonia.org/node/3530/revisions/4564/view</source></identification><defaults><scaling><millimeters>7.056</millimeters><tenths>40</tenths></scaling><page-layout><page-height>1683.67</page-height><page-width>1190.48</page-width><page-margins type="both"><left-margin>56.6893</left-margin><right-margin>56.6893</right-margin><top-margin>56.6893</top-margin><bottom-margin>113.379</bottom-margin></page-margins></page-layout></defaults><credit page="1"><credit-words font-size="24" default-y="1626.98" default-x="595.238" justify="center" valign="top">Where Or When</credit-words></credit><part-list><score-part id="P1"><part-name>Voice</part-name><score-instrument id="P1-I3"><instrument-name>Voice</instrument-name></score-instrument><midi-instrument id="P1-I3"><midi-channel>1</midi-channel><midi-program>53</midi-program></midi-instrument></score-part></part-list><part id="P1"><measure width="342.06" number="1"><print><system-layout><system-margins><left-margin>69.92</left-margin><right-margin>-0.00</right-margin></system-margins><top-system-distance>204.31</top-system-distance></system-layout></print><attributes><divisions>2</divisions><key><fifths>-3</fifths><mode>major</mode></key><time symbol="cut"><beats>2</beats><beat-type>2</beat-type></time><clef><sign>G</sign><line>2</line></clef></attributes><harmony print-frame="no"><root><root-step>E</root-step><root-alter>-1</root-alter></root><kind text="">major</kind></harmony><note><rest/><duration>2</duration><voice>1</voice><type>quarter</type></note><note default-y="-55.00" default-x="167.30"><pitch><step>B</step><alter>-1</alter><octave>3</octave></pitch><duration>2</duration><voice>1</voice><type>quarter</type><stem>up</stem><lyric number="1"><syllabic>single</syllabic><text>It</text></lyric></note><note default-y="-55.00" default-x="225.02"><pitch><step>B</step><alter>-1</alter><octave>3</octave></pitch><duration>2</duration><voice>1</voice><type>quarter</type><stem>up</stem><lyric number="1"><syllabic>single</syllabic><text>seems</text></lyric></note><note default-y="-55.00" default-x="282.74"><pitch><step>B</step><alter>-1</alter><octave>3</octave></pitch><duration>2</duration><voice>1</voice><type>quarter</type><stem>up</stem><lyric number="1"><syllabic>single</syllabic><text>we</text></lyric></note></measure><measure width="300.93" number="2"><harmony print-frame="no"><root><root-step>E</root-step><root-alter>-1</root-alter></root><kind text="6">major-sixth</kind></harmony><note default-y="-50.00" default-x="32.90"><pitch><step>C</step><octave>4</octave></pitch><duration>2</duration><voice>1</voice><type>quarter</type><stem>up</stem><lyric number="1"><syllabic>single</syllabic><text>stood</text></lyric></note><note default-y="-50.00" default-x="99.51"><pitch><step>C</step><octave>4</octave></pitch><duration>2</duration><voice>1</voice><type>quarter</type><stem>up</stem><lyric number="1"><syllabic>single</syllabic><text>and</text></lyric></note><note default-y="-50.00" default-x="166.12"><pitch><step>C</step><octave>4</octave></pitch><duration>2</duration><voice>1</voice><type>quarter</type><stem>up</stem><lyric number="1"><syllabic>single</syllabic><text>talked</text></lyric></note><note default-y="-50.00" default-x="232.73"><pitch><step>C</step><octave>4</octave></pitch><duration>2</duration><voice>1</voice><type>quarter</type><stem>up</stem><lyric number="1"><syllabic>single</syllabic><text>like</text></lyric></note></measure><measure width="174.22" number="3"><harmony print-frame="no"><root><root-step>E</root-step><root-alter>-1</root-alter></root><kind text="Maj7">major-seventh</kind></harmony><note default-y="-45.00" default-x="24.75"><pitch><step>D</step><octave>4</octave></pitch><duration>6</duration><voice>1</voice><type>half</type><dot/><stem>up</stem><lyric number="1"><syllabic>single</syllabic><text>this</text></lyric></note><note default-y="-55.00" default-x="122.51"><pitch><step>B</step><alter>-1</alter><octave>3</octave></pitch><duration>2</duration><voice>1</voice><type>quarter</type><stem>up</stem><lyric number="1"><syllabic>begin</syllabic><text>be</text></lyric></note></measure><measure width="189.96" number="4"><note default-y="-45.00" default-x="29.42"><pitch><step>D</step><octave>4</octave></pitch><duration>6</duration><voice>1</voice><type>half</type><dot/><stem>up</stem><lyric number="1"><syllabic>single</syllabic><text>fore.</text></lyric></note><note default-y="-55.00" default-x="134.50"><pitch><step>B</step><alter>-1</alter><octave>3</octave></pitch><duration>2</duration><voice>1</voice><type>quarter</type><stem>up</stem><lyric number="1"><syllabic>single</syllabic><text>We</text></lyric></note></measure><measure width="450.75" number="5"><print new-system="yes"><system-layout><system-margins><left-margin>47.28</left-margin><right-margin>-0.00</right-margin></system-margins><system-distance>129.51</system-distance></system-layout></print><harmony print-frame="no"><root><root-step>F</root-step></root><kind text="m7">minor-seventh</kind></harmony><note default-y="-40.00" default-x="118.95"><pitch><step>E</step><alter>-1</alter><octave>4</octave></pitch><duration>2</duration><voice>1</voice><type>quarter</type><stem>up</stem><lyric number="1"><syllabic>single</syllabic><text>looked</text></lyric></note><note default-y="-40.00" default-x="188.46"><pitch><step>E</step><alter>-1</alter><octave>4</octave></pitch><duration>1</duration><voice>1</voice><type>eighth</type><stem>up</stem><beam number="1">begin</beam><lyric number="1"><syllabic>single</syllabic><text>at</text></lyric></note><note default-y="-40.00" default-x="231.91"><pitch><step>E</step><alter>-1</alter><octave>4</octave></pitch><duration>1</duration><voice>1</voice><type>eighth</type><stem>up</stem><beam number="1">end</beam><lyric number="1"><syllabic>single</syllabic><text>each</text></lyric></note><note default-y="-40.00" default-x="275.36"><pitch><step>E</step><alter>-1</alter><octave>4</octave></pitch><duration>1</duration><voice>1</voice><type>eighth</type><stem>up</stem><beam number="1">begin</beam><lyric number="1"><syllabic>begin</syllabic><text>oth</text></lyric></note><note default-y="-40.00" default-x="318.81"><pitch><step>E</step><alter>-1</alter><octave>4</octave></pitch><duration>1</duration><voice>1</voice><type>eighth</type><stem>up</stem><beam number="1">continue</beam><lyric number="1"><syllabic>end</syllabic><text>er</text></lyric></note><note default-y="-40.00" default-x="362.26"><pitch><step>E</step><alter>-1</alter><octave>4</octave></pitch><duration>1</duration><voice>1</voice><type>eighth</type><stem>up</stem><beam number="1">continue</beam><lyric number="1"><syllabic>single</syllabic><text>in</text></lyric></note><note default-y="-40.00" default-x="405.70"><pitch><step>E</step><alter>-1</alter><octave>4</octave></pitch><duration>1</duration><voice>1</voice><type>eighth</type><stem>up</stem><beam number="1">end</beam><lyric number="1"><syllabic>single</syllabic><text>the</text></lyric></note></measure><measure width="254.18" number="6"><note default-y="-40.00" default-x="31.62"><pitch><step>E</step><alter>-1</alter><octave>4</octave></pitch><duration>2</duration><voice>1</voice><type>quarter</type><stem>up</stem><lyric number="1"><syllabic>single</syllabic><text>same</text></lyric></note><note default-y="-30.00" default-x="93.00"><pitch><step>G</step><octave>4</octave></pitch><duration>2</duration><voice>1</voice><type>quarter</type><stem>up</stem><lyric number="1"><syllabic>single</syllabic><text>way</text></lyric></note><note default-y="-50.00" default-x="154.38"><pitch><step>C</step><octave>4</octave></pitch><duration>4</duration><voice>1</voice><type>half</type><stem>up</stem><lyric number="1"><syllabic>single</syllabic><text>then,</text></lyric></note></measure><measure width="324.89" number="7"><note default-y="-40.00" default-x="22.87"><pitch><step>E</step><alter>-1</alter><octave>4</octave></pitch><duration>1</duration><voice>1</voice><type>eighth</type><stem>up</stem><beam number="1">begin</beam><lyric number="1"><syllabic>single</syllabic><text>but</text></lyric></note><note default-y="-40.00" default-x="64.59"><pitch><step>E</step><alter>-1</alter><octave>4</octave></pitch><duration>1</duration><voice>1</voice><type>eighth</type><stem>up</stem><beam number="1">continue</beam><lyric number="1"><syllabic>single</syllabic><text>I</text></lyric></note><note default-y="-40.00" default-x="106.32"><pitch><step>E</step><alter>-1</alter><octave>4</octave></pitch><duration>1</duration><voice>1</voice><type>eighth</type><stem>up</stem><beam number="1">continue</beam><lyric number="1"><syllabic>single</syllabic><text>can't</text></lyric></note><note default-y="-40.00" default-x="148.04"><pitch><step>E</step><alter>-1</alter><octave>4</octave></pitch><duration>1</duration><voice>1</voice><type>eighth</type><stem>up</stem><beam number="1">end</beam><lyric number="1"><syllabic>begin</syllabic><text>re</text></lyric></note><note default-y="-40.00" default-x="189.77"><pitch><step>E</step><alter>-1</alter><octave>4</octave></pitch><duration>2</duration><voice>1</voice><type>quarter</type><stem>up</stem><lyric number="1"><syllabic>middle</syllabic><text>mem</text></lyric></note><note default-y="-25.00" default-x="256.53"><pitch><step>A</step><alter>-1</alter><octave>4</octave></pitch><duration>2</duration><voice>1</voice><type>quarter</type><stem>up</stem><lyric number="1"><syllabic>end</syllabic><text>ber</text></lyric></note></measure><measure width="248.33" number="8"><print new-system="yes"><system-layout><system-margins><left-margin>47.28</left-margin><right-margin>0.00</right-margin></system-margins><system-distance>129.51</system-distance></system-layout></print><note default-y="-50.00" default-x="118.30"><pitch><step>C</step><octave>4</octave></pitch><duration>6</duration><voice>1</voice><type>half</type><dot/><stem>up</stem><lyric number="1"><syllabic>single</syllabic><text>Where</text></lyric></note><direction><direction-type><words default-y="100">F m7/Bb</words></direction-type></direction><note default-y="-40.00" default-x="203.21"><pitch><step>E</step><alter>-1</alter><octave>4</octave></pitch><duration>2</duration><voice>1</voice><type>quarter</type><stem>up</stem><lyric number="1"><syllabic>single</syllabic><text>Or</text></lyric></note></measure><measure width="178.05" number="9"><harmony print-frame="no"><root><root-step>E</root-step><root-alter>-1</root-alter></root><kind text="Maj7">major-seventh</kind></harmony><harmony relative-x="3000.00" print-frame="no"><root><root-step>C</root-step></root><kind text="m7">minor-seventh</kind></harmony><note default-y="-30.00" default-x="38.19"><pitch><step>G</step><octave>4</octave></pitch><duration>8</duration><tie type="start"/><voice>1</voice><type>whole</type><notations><tied type="start"/></notations><lyric number="1"><syllabic>single</syllabic><text>When.</text></lyric></note></measure><measure width="112.71" number="10"><harmony print-frame="no"><root><root-step>F</root-step></root><kind text="m7">minor-seventh</kind></harmony><note default-y="-30.00" default-x="15.00"><pitch><step>G</step><octave>4</octave></pitch><duration>6</duration><tie type="stop"/><voice>1</voice><type>half</type><dot/><stem>up</stem><notations><tied type="stop"/></notations></note><harmony print-frame="no"><root><root-step>B</root-step><root-alter>-1</root-alter></root><kind text="7">dominant</kind></harmony><note><rest/><duration>2</duration><voice>1</voice><type>quarter</type></note></measure><measure width="266.87" number="11"><harmony print-frame="no"><root><root-step>E</root-step><root-alter>-1</root-alter></root><kind text="">major</kind></harmony><note><rest/><duration>2</duration><voice>1</voice><type>quarter</type></note><note default-y="-55.00" default-x="76.57"><pitch><step>B</step><alter>-1</alter><octave>3</octave></pitch><duration>2</duration><voice>1</voice><type>quarter</type><stem>up</stem><lyric number="1"><syllabic>single</syllabic><text>The</text></lyric></note><note default-y="-55.00" default-x="138.14"><pitch><step>B</step><alter>-1</alter><octave>3</octave></pitch><duration>2</duration><voice>1</voice><type>quarter</type><stem>up</stem><lyric number="1"><syllabic>single</syllabic><text>clothes</text></lyric></note><note default-y="-55.00" default-x="203.70"><pitch><step>B</step><alter>-1</alter><octave>3</octave></pitch><duration>2</duration><voice>1</voice><type>quarter</type><stem>up</stem><lyric number="1"><syllabic>single</syllabic><text>you're</text></lyric></note></measure><measure width="223.86" number="12"><harmony print-frame="no"><root><root-step>E</root-step><root-alter>-1</root-alter></root><kind text="6">major-sixth</kind></harmony><note default-y="-50.00" default-x="30.36"><pitch><step>C</step><octave>4</octave></pitch><duration>2</duration><voice>1</voice><type>quarter</type><stem>up</stem><lyric number="1"><syllabic>begin</syllabic><text>wear</text></lyric></note><note default-y="-50.00" default-x="78.33"><pitch><step>C</step><octave>4</octave></pitch><duration>2</duration><voice>1</voice><type>quarter</type><stem>up</stem><lyric number="1"><syllabic>end</syllabic><text>ing</text></lyric></note><note default-y="-50.00" default-x="126.31"><pitch><step>C</step><octave>4</octave></pitch><duration>2</duration><voice>1</voice><type>quarter</type><stem>up</stem><lyric number="1"><syllabic>single</syllabic><text>are</text></lyric></note><note default-y="-50.00" default-x="174.28"><pitch><step>C</step><octave>4</octave></pitch><duration>2</duration><voice>1</voice><type>quarter</type><stem>up</stem><lyric number="1"><syllabic>single</syllabic><text>the</text></lyric></note></measure><measure width="268.37" number="13"><print new-system="yes"><system-layout><system-margins><left-margin>47.28</left-margin><right-margin>0.00</right-margin></system-margins><system-distance>129.51</system-distance></system-layout></print><harmony print-frame="no"><root><root-step>E</root-step><root-alter>-1</root-alter></root><kind text="Maj7">major-seventh</kind></harmony><note default-y="-45.00" default-x="120.20"><pitch><step>D</step><octave>4</octave></pitch><duration>6</duration><voice>1</voice><type>half</type><dot/><stem>up</stem><lyric number="1"><syllabic>single</syllabic><text>clothes</text></lyric></note><note default-y="-55.00" default-x="217.10"><pitch><step>B</step><alter>-1</alter><octave>3</octave></pitch><duration>2</duration><voice>1</voice><type>quarter</type><stem>up</stem><lyric number="1"><syllabic>single</syllabic><text>you</text></lyric></note></measure><measure width="176.61" number="14"><note default-y="-45.00" default-x="33.81"><pitch><step>D</step><octave>4</octave></pitch><duration>6</duration><voice>1</voice><type>half</type><dot/><stem>up</stem><lyric number="1"><syllabic>single</syllabic><text>wore.</text></lyric></note><note default-y="-55.00" default-x="127.16"><pitch><step>B</step><alter>-1</alter><octave>3</octave></pitch><duration>2</duration><voice>1</voice><type>quarter</type><stem>up</stem><lyric number="1"><syllabic>single</syllabic><text>The</text></lyric></note></measure><measure width="375.94" number="15"><harmony print-frame="no"><root><root-step>F</root-step></root><kind text="m7">minor-seventh</kind></harmony><note default-y="-40.00" default-x="32.88"><pitch><step>E</step><alter>-1</alter><octave>4</octave></pitch><duration>2</duration><voice>1</voice><type>quarter</type><stem>up</stem><lyric number="1"><syllabic>single</syllabic><text>smile</text></lyric></note><note default-y="-40.00" default-x="104.77"><pitch><step>E</step><alter>-1</alter><octave>4</octave></pitch><duration>1</duration><voice>1</voice><type>eighth</type><stem>up</stem><beam number="1">begin</beam><lyric number="1"><syllabic>single</syllabic><text>you</text></lyric></note><note default-y="-40.00" default-x="149.70"><pitch><step>E</step><alter>-1</alter><octave>4</octave></pitch><duration>1</duration><voice>1</voice><type>eighth</type><stem>up</stem><beam number="1">end</beam><lyric number="1"><syllabic>single</syllabic><text>are</text></lyric></note><note default-y="-40.00" default-x="194.63"><pitch><step>E</step><alter>-1</alter><octave>4</octave></pitch><duration>1</duration><voice>1</voice><type>eighth</type><stem>up</stem><beam number="1">begin</beam><lyric number="1"><syllabic>begin</syllabic><text>smil</text></lyric></note><note default-y="-40.00" default-x="239.56"><pitch><step>E</step><alter>-1</alter><octave>4</octave></pitch><duration>1</duration><voice>1</voice><type>eighth</type><stem>up</stem><beam number="1">continue</beam><lyric number="1"><syllabic>end</syllabic><text>ing</text></lyric></note><note default-y="-40.00" default-x="284.49"><pitch><step>E</step><alter>-1</alter><octave>4</octave></pitch><duration>1</duration><voice>1</voice><type>eighth</type><stem>up</stem><beam number="1">continue</beam><lyric number="1"><syllabic>single</syllabic><text>you</text></lyric></note><note default-y="-40.00" default-x="329.42"><pitch><step>E</step><alter>-1</alter><octave>4</octave></pitch><duration>1</duration><voice>1</voice><type>eighth</type><stem>up</stem><beam number="1">end</beam><lyric number="1"><syllabic>single</syllabic><text>were</text></lyric></note></measure><measure width="208.90" number="16"><note default-y="-40.00" default-x="27.88"><pitch><step>E</step><alter>-1</alter><octave>4</octave></pitch><duration>2</duration><voice>1</voice><type>quarter</type><stem>up</stem><lyric number="1"><syllabic>begin</syllabic><text>smil</text></lyric></note><note default-y="-30.00" default-x="77.72"><pitch><step>G</step><octave>4</octave></pitch><duration>2</duration><voice>1</voice><type>quarter</type><stem>up</stem><lyric number="1"><syllabic>end</syllabic><text>ing</text></lyric></note><note default-y="-50.00" default-x="127.56"><pitch><step>C</step><octave>4</octave></pitch><duration>4</duration><voice>1</voice><type>half</type><stem>up</stem><lyric number="1"><syllabic>single</syllabic><text>then,</text></lyric></note></measure><measure width="369.00" number="17"><print new-system="yes"><system-layout><system-margins><left-margin>47.28</left-margin><right-margin>-0.00</right-margin></system-margins><system-distance>129.51</system-distance></system-layout></print><note default-y="-40.00" default-x="102.67"><pitch><step>E</step><alter>-1</alter><octave>4</octave></pitch><duration>1</duration><voice>1</voice><type>eighth</type><stem>up</stem><beam number="1">begin</beam><lyric number="1"><syllabic>single</syllabic><text>but</text></lyric></note><note default-y="-40.00" default-x="138.26"><pitch><step>E</step><alter>-1</alter><octave>4</octave></pitch><duration>1</duration><voice>1</voice><type>eighth</type><stem>up</stem><beam number="1">continue</beam><lyric number="1"><syllabic>single</syllabic><text>I</text></lyric></note><note default-y="-40.00" default-x="177.23"><pitch><step>E</step><alter>-1</alter><octave>4</octave></pitch><duration>1</duration><voice>1</voice><type>eighth</type><stem>up</stem><beam number="1">continue</beam><lyric number="1"><syllabic>single</syllabic><text>can't</text></lyric></note><note default-y="-40.00" default-x="212.82"><pitch><step>E</step><alter>-1</alter><octave>4</octave></pitch><duration>1</duration><voice>1</voice><type>eighth</type><stem>up</stem><beam number="1">end</beam><lyric number="1"><syllabic>begin</syllabic><text>re</text></lyric></note><note default-y="-40.00" default-x="253.51"><pitch><step>E</step><alter>-1</alter><octave>4</octave></pitch><duration>2</duration><voice>1</voice><type>quarter</type><stem>up</stem><lyric number="1"><syllabic>middle</syllabic><text>mem</text></lyric></note><note default-y="-25.00" default-x="310.45"><pitch><step>A</step><alter>-1</alter><octave>4</octave></pitch><duration>2</duration><voice>1</voice><type>quarter</type><stem>up</stem><lyric number="1"><syllabic>end</syllabic><text>ber</text></lyric></note></measure><measure width="168.43" number="18"><note default-y="-50.00" default-x="38.50"><pitch><step>C</step><octave>4</octave></pitch><duration>6</duration><voice>1</voice><type>half</type><dot/><stem>up</stem><lyric number="1"><syllabic>single</syllabic><text>Where</text></lyric></note><harmony print-frame="no"><root><root-step>F</root-step></root><kind text="m7">minor-seventh</kind><bass><bass-step>B</bass-step><bass-alter>-1</bass-alter></bass></harmony><note default-y="-40.00" default-x="123.34"><pitch><step>E</step><alter>-1</alter><octave>4</octave></pitch><duration>2</duration><voice>1</voice><type>quarter</type><stem>up</stem><lyric number="1"><syllabic>single</syllabic><text>Or</text></lyric></note></measure><measure width="132.14" number="19"><harmony print-frame="no"><root><root-step>E</root-step><root-alter>-1</root-alter></root><kind text="Maj7">major-seventh</kind></harmony><note default-y="-30.00" default-x="35.38"><pitch><step>G</step><octave>4</octave></pitch><duration>8</duration><tie type="start"/><voice>1</voice><type>whole</type><notations><tied type="start"/></notations><lyric number="1"><syllabic>single</syllabic><text>When</text></lyric></note></measure><measure width="129.80" number="20"><harmony print-frame="no"><root><root-step>D</root-step></root><kind text="m7b5">half-diminished</kind></harmony><note default-y="-30.00" default-x="15.00"><pitch><step>G</step><octave>4</octave></pitch><duration>6</duration><tie type="stop"/><voice>1</voice><type>half</type><dot/><stem>up</stem><notations><tied type="stop"/></notations></note><harmony print-frame="no"><root><root-step>G</root-step></root><kind text="7">dominant</kind></harmony><note><rest/><duration>2</duration><voice>1</voice><type>quarter</type></note></measure><measure width="230.45" number="21"><harmony print-frame="no"><root><root-step>C</root-step></root><kind text="m">minor</kind></harmony><note default-y="-30.00" default-x="34.13"><pitch><step>G</step><octave>4</octave></pitch><duration>4</duration><voice>1</voice><type>half</type><stem>up</stem><lyric number="1"><syllabic>single</syllabic><text>Some</text></lyric></note><note default-y="-35.00" default-x="120.67"><pitch><step>F</step><alter>1</alter><octave>4</octave></pitch><duration>2</duration><voice>1</voice><type>quarter</type><accidental>sharp</accidental><stem>up</stem><lyric number="1"><syllabic>single</syllabic><text>things</text></lyric></note><note default-y="-30.00" default-x="174.76"><pitch><step>G</step><octave>4</octave></pitch><duration>2</duration><voice>1</voice><type>quarter</type><stem>up</stem><lyric number="1"><syllabic>single</syllabic><text>that</text></lyric></note></measure><measure width="280.47" number="22"><print new-system="yes"><system-layout><system-margins><left-margin>47.28</left-margin><right-margin>0.00</right-margin></system-margins><system-distance>129.51</system-distance></system-layout></print><harmony print-frame="no"><root><root-step>F</root-step></root><kind text="m7">minor-seventh</kind></harmony><note default-y="-20.00" default-x="104.54"><pitch><step>B</step><alter>-1</alter><octave>4</octave></pitch><duration>2</duration><voice>1</voice><type>quarter</type><stem>down</stem><lyric number="1"><syllabic>begin</syllabic><text>hap</text></lyric></note><note default-y="-25.00" default-x="148.65"><pitch><step>A</step><alter>-1</alter><octave>4</octave></pitch><duration>2</duration><voice>1</voice><type>quarter</type><stem>up</stem><lyric number="1"><syllabic>end</syllabic><text>pen</text></lyric></note><note default-y="-50.00" default-x="192.76"><pitch><step>C</step><octave>4</octave></pitch><duration>3</duration><voice>1</voice><type>quarter</type><dot/><stem>up</stem><lyric number="1"><syllabic>single</syllabic><text>for</text></lyric></note><note default-y="-40.00" default-x="246.55"><pitch><step>E</step><alter>-1</alter><octave>4</octave></pitch><duration>1</duration><voice>1</voice><type>eighth</type><stem>up</stem><lyric number="1"><syllabic>single</syllabic><text>the</text></lyric></note></measure><measure width="159.11" number="23"><harmony print-frame="no"><root><root-step>D</root-step></root><kind text="m7">minor-seventh</kind></harmony><note default-y="-30.00" default-x="26.62"><pitch><step>G</step><octave>4</octave></pitch><duration>2</duration><voice>1</voice><type>quarter</type><stem>up</stem><lyric number="1"><syllabic>single</syllabic><text>first</text></lyric></note><note><rest/><duration>2</duration><voice>1</voice><type>quarter</type></note><harmony print-frame="no"><root><root-step>G</root-step></root><kind text="7">dominant</kind></harmony><note default-y="-30.00" default-x="100.72"><pitch><step>G</step><octave>4</octave></pitch><duration>4</duration><tie type="start"/><voice>1</voice><type>half</type><stem>up</stem><notations><tied type="start"/></notations><lyric number="1"><syllabic>single</syllabic><text>time,</text></lyric></note></measure><measure width="133.07" number="24"><harmony print-frame="no"><root><root-step>D</root-step></root><kind text="m7">minor-seventh</kind></harmony><note default-y="-30.00" default-x="15.00"><pitch><step>G</step><octave>4</octave></pitch><duration>6</duration><tie type="stop"/><voice>1</voice><type>half</type><dot/><stem>up</stem><notations><tied type="stop"/></notations></note><harmony print-frame="no"><root><root-step>G</root-step></root><kind text="7">dominant</kind></harmony><note><rest/><duration>2</duration><voice>1</voice><type>quarter</type></note></measure><measure width="161.93" number="25"><harmony print-frame="no"><root><root-step>C</root-step></root><kind text="m">minor</kind></harmony><note default-y="-30.00" default-x="31.62"><pitch><step>G</step><octave>4</octave></pitch><duration>4</duration><voice>1</voice><type>half</type><stem>up</stem><lyric number="1"><syllabic>single</syllabic><text>seem</text></lyric></note><note default-y="-35.00" default-x="88.83"><pitch><step>F</step><alter>1</alter><octave>4</octave></pitch><duration>2</duration><voice>1</voice><type>quarter</type><accidental>sharp</accidental><stem>up</stem><lyric number="1"><syllabic>single</syllabic><text>to</text></lyric></note><note default-y="-30.00" default-x="124.58"><pitch><step>G</step><octave>4</octave></pitch><duration>2</duration><voice>1</voice><type>quarter</type><stem>up</stem><lyric number="1"><syllabic>single</syllabic><text>be</text></lyric></note></measure><measure width="194.42" number="26"><harmony print-frame="no"><root><root-step>F</root-step></root><kind text="m7">minor-seventh</kind></harmony><note default-y="-15.00" default-x="24.74"><pitch><step>C</step><octave>5</octave></pitch><duration>2</duration><voice>1</voice><type>quarter</type><stem>down</stem><lyric number="1"><syllabic>begin</syllabic><text>hap</text></lyric></note><note default-y="-25.00" default-x="66.91"><pitch><step>A</step><alter>-1</alter><octave>4</octave></pitch><duration>2</duration><voice>1</voice><type>quarter</type><stem>up</stem><lyric number="1"><syllabic>middle</syllabic><text>pen</text></lyric></note><note default-y="-50.00" default-x="109.08"><pitch><step>C</step><octave>4</octave></pitch><duration>3</duration><voice>1</voice><type>quarter</type><dot/><stem>up</stem><lyric number="1"><syllabic>end</syllabic><text>ing</text></lyric></note><note default-y="-40.00" default-x="160.50"><pitch><step>E</step><alter>-1</alter><octave>4</octave></pitch><duration>1</duration><voice>1</voice><type>eighth</type><stem>up</stem><lyric number="1"><syllabic>begin</syllabic><text>a</text></lyric></note></measure><measure width="100.82" number="27"><harmony print-frame="no"><root><root-step>C</root-step></root><kind text="m7">minor-seventh</kind></harmony><harmony relative-x="1600.00" print-frame="no"><root><root-step>F</root-step></root><kind text="7">dominant</kind></harmony><note default-y="-35.00" default-x="30.69"><pitch><step>F</step><octave>4</octave></pitch><duration>8</duration><tie type="start"/><voice>1</voice><type>whole</type><notations><tied type="start"/></notations><lyric number="1"><syllabic>single</syllabic><text>gain.</text></lyric></note></measure><measure width="185.11" number="28"><print new-system="yes"><system-layout><system-margins><left-margin>47.28</left-margin><right-margin>-0.00</right-margin></system-margins><system-distance>129.51</system-distance></system-layout></print><harmony print-frame="no"><root><root-step>F</root-step></root><kind text="m7">minor-seventh</kind></harmony><harmony relative-x="800.00" print-frame="no"><root><root-step>B</root-step><root-alter>-1</root-alter></root><kind text="7">dominant</kind></harmony><note default-y="-35.00" default-x="87.30"><pitch><step>F</step><octave>4</octave></pitch><duration>8</duration><tie type="stop"/><voice>1</voice><type>whole</type><notations><tied type="stop"/></notations></note></measure><measure width="176.19" number="29"><harmony print-frame="no"><root><root-step>E</root-step><root-alter>-1</root-alter></root><kind text="">major</kind></harmony><note><rest/><duration>2</duration><voice>1</voice><type>quarter</type></note><note default-y="-55.00" default-x="54.90"><pitch><step>B</step><alter>-1</alter><octave>3</octave></pitch><duration>2</duration><voice>1</voice><type>quarter</type><stem>up</stem><lyric number="1"><syllabic>single</syllabic><text>And</text></lyric></note><note default-y="-55.00" default-x="94.79"><pitch><step>B</step><alter>-1</alter><octave>3</octave></pitch><duration>2</duration><voice>1</voice><type>quarter</type><stem>up</stem><lyric number="1"><syllabic>single</syllabic><text>so</text></lyric></note><note default-y="-55.00" default-x="134.69"><pitch><step>B</step><alter>-1</alter><octave>3</octave></pitch><duration>2</duration><voice>1</voice><type>quarter</type><stem>up</stem><lyric number="1"><syllabic>single</syllabic><text>it</text></lyric></note></measure><measure width="237.98" number="30"><harmony print-frame="no"><root><root-step>E</root-step><root-alter>-1</root-alter></root><kind text="6">major-sixth</kind></harmony><note default-y="-50.00" default-x="36.01"><pitch><step>C</step><octave>4</octave></pitch><duration>2</duration><voice>1</voice><type>quarter</type><stem>up</stem><lyric number="1"><syllabic>single</syllabic><text>seems</text></lyric></note><note default-y="-50.00" default-x="86.39"><pitch><step>C</step><octave>4</octave></pitch><duration>2</duration><voice>1</voice><type>quarter</type><stem>up</stem><lyric number="1"><syllabic>single</syllabic><text>that</text></lyric></note><note default-y="-50.00" default-x="136.39"><pitch><step>C</step><octave>4</octave></pitch><duration>2</duration><voice>1</voice><type>quarter</type><stem>up</stem><lyric number="1"><syllabic>single</syllabic><text>we</text></lyric></note><note default-y="-50.00" default-x="186.38"><pitch><step>C</step><octave>4</octave></pitch><duration>2</duration><voice>1</voice><type>quarter</type><stem>up</stem><lyric number="1"><syllabic>single</syllabic><text>have</text></lyric></note></measure><measure width="125.06" number="31"><harmony print-frame="no"><root><root-step>E</root-step><root-alter>-1</root-alter></root><kind text="Maj7">major-seventh</kind></harmony><note default-y="-45.00" default-x="25.36"><pitch><step>D</step><octave>4</octave></pitch><duration>6</duration><voice>1</voice><type>half</type><dot/><stem>up</stem><lyric number="1"><syllabic>single</syllabic><text>met</text></lyric></note><note default-y="-45.00" default-x="90.21"><pitch><step>D</step><octave>4</octave></pitch><duration>2</duration><voice>1</voice><type>quarter</type><stem>up</stem><lyric number="1"><syllabic>begin</syllabic><text>be</text></lyric></note></measure><measure width="142.86" number="32"><harmony print-frame="no"><root><root-step>E</root-step><root-alter>-1</root-alter></root><kind text="7#5">augmented-seventh</kind></harmony><note default-y="-40.00" default-x="29.42"><pitch><step>E</step><alter>-1</alter><octave>4</octave></pitch><duration>6</duration><voice>1</voice><type>half</type><dot/><stem>up</stem><lyric number="1"><syllabic>single</syllabic><text>fore,</text></lyric></note><note default-y="-40.00" default-x="103.36"><pitch><step>E</step><alter>-1</alter><octave>4</octave></pitch><duration>2</duration><voice>1</voice><type>quarter</type><stem>up</stem><lyric number="1"><syllabic>single</syllabic><text>and</text></lyric></note></measure><measure width="162.64" number="33"><harmony print-frame="no"><root><root-step>A</root-step><root-alter>-1</root-alter></root><kind text="6">major-sixth</kind></harmony><note default-y="-35.00" default-x="44.15"><pitch><step>F</step><octave>4</octave></pitch><duration>6</duration><voice>1</voice><type>half</type><dot/><stem>up</stem><lyric number="1"><syllabic>single</syllabic><text>laughed</text></lyric></note><note default-y="-35.00" default-x="121.43"><pitch><step>F</step><octave>4</octave></pitch><duration>2</duration><voice>1</voice><type>quarter</type><stem>up</stem><lyric number="1"><syllabic>begin</syllabic><text>be</text></lyric></note></measure><measure width="203.19" number="34"><print new-system="yes"><system-layout><system-margins><left-margin>47.28</left-margin><right-margin>0.00</right-margin></system-margins><system-distance>129.51</system-distance></system-layout></print><harmony print-frame="no"><root><root-step>G</root-step></root><kind text="m7">minor-seventh</kind></harmony><note default-y="-30.00" default-x="109.22"><pitch><step>G</step><octave>4</octave></pitch><duration>6</duration><voice>1</voice><type>half</type><dot/><stem>up</stem><lyric number="1"><syllabic>single</syllabic><text>fore,</text></lyric></note><note default-y="-30.00" default-x="170.29"><pitch><step>G</step><octave>4</octave></pitch><duration>2</duration><voice>1</voice><type>quarter</type><stem>up</stem><lyric number="1"><syllabic>single</syllabic><text>and</text></lyric></note></measure><measure width="136.52" number="35"><harmony print-frame="no"><root><root-step>F</root-step></root><kind text="m7">minor-seventh</kind></harmony><note default-y="-25.00" default-x="33.51"><pitch><step>A</step><alter>-1</alter><octave>4</octave></pitch><duration>6</duration><voice>1</voice><type>half</type><dot/><stem>up</stem><lyric number="1"><syllabic>single</syllabic><text>loved</text></lyric></note><note default-y="-25.00" default-x="100.55"><pitch><step>A</step><alter>-1</alter><octave>4</octave></pitch><duration>2</duration><voice>1</voice><type>quarter</type><stem>up</stem><lyric number="1"><syllabic>begin</syllabic><text>be</text></lyric></note></measure><measure width="145.26" number="36"><harmony print-frame="no"><root><root-step>G</root-step></root><kind text="m7">minor-seventh</kind></harmony><note default-y="-20.00" default-x="29.42"><pitch><step>B</step><alter>-1</alter><octave>4</octave></pitch><duration>6</duration><voice>1</voice><type>half</type><dot/><stem>down</stem><lyric number="1"><syllabic>end</syllabic><text>fore,</text></lyric></note><harmony print-frame="no"><root><root-step>C</root-step></root><kind text="7">dominant</kind></harmony><note default-y="-20.00" default-x="104.95"><pitch><step>B</step><alter>-1</alter><octave>4</octave></pitch><duration>2</duration><voice>1</voice><type>quarter</type><stem>down</stem><lyric number="1"><syllabic>single</syllabic><text>but</text></lyric></note></measure><measure width="142.94" number="37"><harmony print-frame="no"><root><root-step>F</root-step></root><kind text="m7">minor-seventh</kind></harmony><note default-y="-15.00" default-x="27.87"><pitch><step>C</step><octave>5</octave></pitch><duration>4</duration><voice>1</voice><type>half</type><stem>down</stem><lyric number="1"><syllabic>single</syllabic><text>who</text></lyric></note><note default-y="-15.00" default-x="84.61"><pitch><step>C</step><octave>5</octave></pitch><duration>4</duration><voice>1</voice><type>half</type><stem>down</stem><lyric number="1"><syllabic>single</syllabic><text>knows</text></lyric></note></measure><measure width="174.07" number="38"><harmony print-frame="no"><root><root-step>B</root-step><root-alter>-1</root-alter></root><kind text="7">dominant</kind></harmony><note default-y="-10.00" default-x="38.50"><pitch><step>D</step><octave>5</octave></pitch><duration>4</duration><voice>1</voice><type>half</type><stem>down</stem><lyric number="1"><syllabic>single</syllabic><text>Where</text></lyric></note><harmony print-frame="no"><root><root-step>B</root-step><root-alter>-1</root-alter></root><kind text="7b9">dominant</kind><degree><degree-value>9</degree-value><degree-alter>-1</degree-alter><degree-type>add</degree-type></degree></harmony><note default-y="-10.00" default-x="105.48"><pitch><step>D</step><octave>5</octave></pitch><duration>4</duration><voice>1</voice><type>half</type><stem>down</stem><lyric number="1"><syllabic>single</syllabic><text>Or</text></lyric></note></measure><measure width="129.93" number="39"><harmony print-frame="no"><root><root-step>E</root-step><root-alter>-1</root-alter></root><kind text="6">major-sixth</kind></harmony><harmony relative-x="1300.00" print-frame="no"><root><root-step>A</root-step><root-alter>-1</root-alter></root><kind text="m">minor</kind></harmony><note default-y="-5.00" default-x="39.13"><pitch><step>E</step><alter>-1</alter><octave>5</octave></pitch><duration>8</duration><tie type="start"/><voice>1</voice><type>whole</type><notations><tied type="start"/></notations><lyric number="1"><syllabic>single</syllabic><text>When!</text></lyric></note></measure><measure width="97.91" number="40"><harmony print-frame="no"><root><root-step>E</root-step><root-alter>-1</root-alter></root><kind text="">major</kind></harmony><note default-y="-5.00" default-x="15.00"><pitch><step>E</step><alter>-1</alter><octave>5</octave></pitch><duration>6</duration><tie type="stop"/><voice>1</voice><type>half</type><dot/><stem>down</stem><notations><tied type="stop"/></notations></note><note><rest/><duration>2</duration><voice>1</voice><type>quarter</type></note><barline location="right"><bar-style>light-heavy</bar-style></barline></measure></part></score-partwise>