<score-partwise version="2.0"><work><work-number/><work-title/></work><movement-number/><movement-title>Can't Help Lovin' Dat Man</movement-title><identification><creator type="composer">Jerome Kern</creator><creator type="poet">Oscar Hammerstein II</creator><rights>All Rights Reserved</rights><encoding><software>MuseScore 0.9.5</software><encoding-date>2010-01-24</encoding-date><software>ProxyMusic 2.0 c</software></encoding><source>http://wikifonia.org/node/3535/revisions/5771/view</source></identification><defaults><scaling><millimeters>7.056</millimeters><tenths>40</tenths></scaling><page-layout><page-height>1683.67</page-height><page-width>1190.48</page-width><page-margins type="both"><left-margin>56.6893</left-margin><right-margin>56.6893</right-margin><top-margin>56.6893</top-margin><bottom-margin>113.379</bottom-margin></page-margins></page-layout></defaults><credit page="1"><credit-words font-size="24" default-y="1626.98" default-x="595.238" justify="center" valign="top">Cant help lovin 'dat man</credit-words></credit><credit page="1"><credit-words font-size="14" default-y="1570.29" default-x="595.238" justify="center" valign="top">(from Show Boat)</credit-words></credit><credit page="1"><credit-words font-size="12" default-y="1553.14" default-x="1133.79" justify="right" valign="top">Jerome Kern</credit-words></credit><credit page="1"><credit-words font-size="12" default-y="1553.14" default-x="56.6893" justify="left" valign="top">Oscar Hammerstein II</credit-words></credit><part-list><score-part id="P1"><part-name/><score-instrument id="P1-I3"><instrument-name/></score-instrument><midi-instrument id="P1-I3"><midi-channel>1</midi-channel><midi-program>5</midi-program></midi-instrument></score-part></part-list><part id="P1"><measure width="362.36" number="1"><print><system-layout><system-margins><left-margin>0.00</left-margin><right-margin>0.00</right-margin></system-margins><top-system-distance>207.19</top-system-distance></system-layout></print><attributes><divisions>2</divisions><key><fifths>0</fifths><mode>major</mode></key><time><beats>4</beats><beat-type>4</beat-type></time><clef><sign>G</sign><line>2</line></clef></attributes><harmony print-frame="no"><root><root-step>C</root-step></root><kind text="">major</kind></harmony><note default-y="-30.00" default-x="96.31"><pitch><step>G</step><octave>4</octave></pitch><duration>1</duration><voice>1</voice><type>eighth</type><stem>up</stem><beam number="1">begin</beam><lyric number="1"><syllabic>single</syllabic><text>Fish</text></lyric></note><note default-y="-30.00" default-x="138.43"><pitch><step>G</step><octave>4</octave></pitch><duration>1</duration><voice>1</voice><type>eighth</type><stem>up</stem><beam number="1">continue</beam><lyric number="1"><syllabic>single</syllabic><text>got</text></lyric></note><note default-y="-30.00" default-x="172.86"><pitch><step>G</step><octave>4</octave></pitch><duration>1</duration><voice>1</voice><type>eighth</type><stem>up</stem><beam number="1">continue</beam><lyric number="1"><syllabic>single</syllabic><text>to</text></lyric></note><note default-y="-15.00" default-x="216.15"><pitch><step>C</step><octave>5</octave></pitch><duration>1</duration><tie type="start"/><voice>1</voice><type>eighth</type><stem>up</stem><beam number="1">end</beam><notations><tied type="start"/></notations><lyric number="1"><syllabic>single</syllabic><text>swim</text></lyric></note><harmony print-frame="no"><root><root-step>A</root-step></root><kind text="m7">minor-seventh</kind></harmony><note default-y="-15.00" default-x="250.59"><pitch><step>C</step><octave>5</octave></pitch><duration>2</duration><tie type="stop"/><voice>1</voice><type>quarter</type><stem>down</stem><notations><tied type="stop"/></notations></note><note default-y="-15.00" default-x="305.67"><pitch><step>C</step><octave>5</octave></pitch><duration>2</duration><voice>1</voice><type>quarter</type><stem>down</stem><lyric number="1"><syllabic>single</syllabic><text>and</text></lyric></note></measure><measure width="232.48" number="2"><harmony print-frame="no"><root><root-step>D</root-step></root><kind text="m7">minor-seventh</kind></harmony><note default-y="-15.00" default-x="32.38"><pitch><step>C</step><octave>5</octave></pitch><duration>1</duration><voice>1</voice><type>eighth</type><stem>up</stem><beam number="1">begin</beam><lyric number="1"><syllabic>single</syllabic><text>birds</text></lyric></note><note default-y="-30.00" default-x="77.57"><pitch><step>G</step><octave>4</octave></pitch><duration>1</duration><voice>1</voice><type>eighth</type><stem>up</stem><beam number="1">continue</beam><lyric number="1"><syllabic>single</syllabic><text>got</text></lyric></note><note default-y="-30.00" default-x="108.03"><pitch><step>G</step><octave>4</octave></pitch><duration>1</duration><voice>1</voice><type>eighth</type><stem>up</stem><beam number="1">continue</beam><lyric number="1"><syllabic>single</syllabic><text>to</text></lyric></note><note default-y="-30.00" default-x="137.28"><pitch><step>G</step><octave>4</octave></pitch><duration>1</duration><tie type="start"/><voice>1</voice><type>eighth</type><stem>up</stem><beam number="1">end</beam><notations><tied type="start"/></notations><lyric number="1"><syllabic>single</syllabic><text>fly</text></lyric></note><harmony print-frame="no"><root><root-step>G</root-step></root><kind text="7">dominant</kind></harmony><note default-y="-30.00" default-x="166.53"><pitch><step>G</step><octave>4</octave></pitch><duration>4</duration><tie type="stop"/><voice>1</voice><type>half</type><stem>down</stem><notations><tied type="stop"/></notations></note></measure><measure width="262.66" number="3"><harmony print-frame="no"><root><root-step>C</root-step></root><kind text="Maj7">major-seventh</kind></harmony><note default-y="-40.00" default-x="15.00"><pitch><step>E</step><octave>4</octave></pitch><duration>1</duration><voice>1</voice><type>eighth</type><stem>up</stem><beam number="1">begin</beam><lyric number="1"><syllabic>single</syllabic><text>I</text></lyric></note><note default-y="-40.00" default-x="48.50"><pitch><step>E</step><octave>4</octave></pitch><duration>1</duration><voice>1</voice><type>eighth</type><stem>up</stem><beam number="1">continue</beam><lyric number="1"><syllabic>single</syllabic><text>got</text></lyric></note><note default-y="-40.00" default-x="81.99"><pitch><step>E</step><octave>4</octave></pitch><duration>1</duration><voice>1</voice><type>eighth</type><stem>up</stem><beam number="1">continue</beam><lyric number="1"><syllabic>single</syllabic><text>to</text></lyric></note><note default-y="-25.00" default-x="120.40"><pitch><step>A</step><octave>4</octave></pitch><duration>1</duration><tie type="start"/><voice>1</voice><type>eighth</type><stem>up</stem><beam number="1">end</beam><notations><tied type="start"/></notations><lyric number="1"><syllabic>single</syllabic><text>love</text></lyric></note><harmony print-frame="no"><root><root-step>G</root-step></root><kind text="m9">minor-ninth</kind></harmony><note default-y="-25.00" default-x="153.89"><pitch><step>A</step><octave>4</octave></pitch><duration>2</duration><tie type="stop"/><voice>1</voice><type>quarter</type><stem>down</stem><notations><tied type="stop"/></notations></note><harmony print-frame="no"><root><root-step>C</root-step></root><kind text="7b9">dominant</kind><degree><degree-value>9</degree-value><degree-alter>-1</degree-alter><degree-type>add</degree-type></degree></harmony><note default-y="-25.00" default-x="207.48"><pitch><step>A</step><octave>4</octave></pitch><duration>2</duration><voice>1</voice><type>quarter</type><stem>down</stem><lyric number="1"><syllabic>single</syllabic><text>one</text></lyric></note></measure><measure width="219.59" number="4"><harmony print-frame="no"><root><root-step>F</root-step></root><kind text="6">major-sixth</kind></harmony><note default-y="-25.00" default-x="29.93"><pitch><step>A</step><octave>4</octave></pitch><duration>1</duration><voice>1</voice><type>eighth</type><stem>up</stem><beam number="1">begin</beam><lyric number="1"><syllabic>single</syllabic><text>man</text></lyric></note><note default-y="-45.00" default-x="67.74"><pitch><step>D</step><octave>4</octave></pitch><duration>1</duration><voice>1</voice><type>eighth</type><stem>up</stem><beam number="1">continue</beam><lyric number="1"><syllabic>single</syllabic><text>till</text></lyric></note><note default-y="-45.00" default-x="95.69"><pitch><step>D</step><octave>4</octave></pitch><duration>1</duration><voice>1</voice><type>eighth</type><stem>up</stem><beam number="1">continue</beam><lyric number="1"><syllabic>single</syllabic><text>I</text></lyric></note><note default-y="-45.00" default-x="128.58"><pitch><step>D</step><octave>4</octave></pitch><duration>1</duration><tie type="start"/><voice>1</voice><type>eighth</type><stem>up</stem><beam number="1">end</beam><notations><tied type="start"/></notations><lyric number="1"><syllabic>single</syllabic><text>die</text></lyric></note><harmony print-frame="no"><root><root-step>B</root-step><root-alter>-1</root-alter></root><kind text="9">dominant-ninth</kind></harmony><note default-y="-45.00" default-x="156.52"><pitch><step>D</step><octave>4</octave></pitch><duration>4</duration><tie type="stop"/><voice>1</voice><type>half</type><stem>up</stem><notations><tied type="stop"/></notations></note></measure><measure width="307.48" number="5"><print new-system="yes"><system-layout><system-margins><left-margin>0.00</left-margin><right-margin>0.00</right-margin></system-margins><system-distance>129.51</system-distance></system-layout></print><harmony print-frame="no"><root><root-step>E</root-step></root><kind text="m7">minor-seventh</kind></harmony><note default-y="-30.00" default-x="79.56"><pitch><step>G</step><octave>4</octave></pitch><duration>4</duration><voice>1</voice><type>half</type><stem>down</stem><lyric number="1"><syllabic>single</syllabic><text>Can't</text></lyric></note><harmony print-frame="no"><root><root-step>A</root-step></root><kind text="m7">minor-seventh</kind></harmony><note default-y="-50.00" default-x="192.72"><pitch><step>C</step><octave>4</octave></pitch><duration>4</duration><voice>1</voice><type>half</type><stem>up</stem><lyric number="1"><syllabic>single</syllabic><text>help</text></lyric></note></measure><measure width="350.41" number="6"><harmony print-frame="no"><root><root-step>A</root-step><root-alter>-1</root-alter></root><kind text="7">dominant</kind></harmony><note default-y="-60.00" default-x="22.57"><pitch><step>A</step><alter>-1</alter><octave>3</octave></pitch><duration>1</duration><voice>1</voice><type>eighth</type><accidental>flat</accidental><stem>up</stem><beam number="1">begin</beam><lyric number="1"><syllabic>single</syllabic><text>lov</text></lyric></note><note default-y="-50.00" default-x="67.88"><pitch><step>C</step><octave>4</octave></pitch><duration>1</duration><voice>1</voice><type>eighth</type><stem>up</stem><beam number="1">continue</beam><lyric number="1"><syllabic>single</syllabic><text>in'</text></lyric></note><note default-y="-50.00" default-x="113.19"><pitch><step>C</step><octave>4</octave></pitch><duration>1</duration><voice>1</voice><type>eighth</type><stem>up</stem><beam number="1">continue</beam><lyric number="1"><syllabic>single</syllabic><text>dat</text></lyric></note><note default-y="-40.00" default-x="158.50"><pitch><step>E</step><alter>-1</alter><octave>4</octave></pitch><duration>1</duration><tie type="start"/><voice>1</voice><type>eighth</type><accidental>flat</accidental><stem>up</stem><beam number="1">end</beam><notations><tied type="start"/></notations><lyric number="1"><syllabic>single</syllabic><text>man</text></lyric></note><harmony print-frame="no"><root><root-step>D</root-step></root><kind text="7b9">dominant</kind><degree><degree-value>9</degree-value><degree-alter>-1</degree-alter><degree-type>add</degree-type></degree></harmony><note default-y="-40.00" default-x="203.82"><pitch><step>E</step><alter>-1</alter><octave>4</octave></pitch><duration>2</duration><tie type="stop"/><voice>1</voice><type>quarter</type><stem>up</stem><notations><tied type="stop"/></notations></note><harmony print-frame="no"><root><root-step>G</root-step></root><kind text="7b9">dominant</kind><degree><degree-value>9</degree-value><degree-alter>-1</degree-alter><degree-type>add</degree-type></degree></harmony><note default-y="-45.00" default-x="276.31"><pitch><step>D</step><octave>4</octave></pitch><duration>2</duration><voice>1</voice><type>quarter</type><stem>up</stem><lyric number="1"><syllabic>single</syllabic><text>of</text></lyric></note></measure><measure width="217.28" number="7"><harmony print-frame="no"><root><root-step>C</root-step></root><kind text="">major</kind></harmony><harmony relative-x="2800.00" print-frame="no"><root><root-step>E</root-step><root-alter>-1</root-alter></root><kind text="dim">diminished</kind></harmony><note default-y="-50.00" default-x="35.45"><pitch><step>C</step><octave>4</octave></pitch><duration>8</duration><tie type="start"/><voice>1</voice><type>whole</type><notations><tied type="start"/></notations><lyric number="1"><syllabic>single</syllabic><text>mine.</text></lyric></note></measure><measure width="201.92" number="8"><harmony print-frame="no"><root><root-step>D</root-step></root><kind text="m7">minor-seventh</kind></harmony><note default-y="-50.00" default-x="15.00"><pitch><step>C</step><octave>4</octave></pitch><duration>4</duration><tie type="stop"/><voice>1</voice><type>half</type><stem>up</stem><notations><tied type="stop"/></notations></note><harmony print-frame="no"><root><root-step>G</root-step></root><kind text="7+">augmented-seventh</kind></harmony><note><rest/><duration>4</duration><voice>1</voice><type>half</type></note></measure><measure width="310.07" number="9"><print new-system="yes"><system-layout><system-margins><left-margin>0.00</left-margin><right-margin>0.00</right-margin></system-margins><system-distance>129.51</system-distance></system-layout></print><harmony print-frame="no"><root><root-step>C</root-step></root><kind text="Maj7">major-seventh</kind></harmony><note default-y="-30.00" default-x="70.70"><pitch><step>G</step><octave>4</octave></pitch><duration>1</duration><voice>1</voice><type>eighth</type><stem>up</stem><beam number="1">begin</beam><lyric number="1"><syllabic>single</syllabic><text>Tell</text></lyric></note><note default-y="-30.00" default-x="108.52"><pitch><step>G</step><octave>4</octave></pitch><duration>1</duration><voice>1</voice><type>eighth</type><stem>up</stem><beam number="1">continue</beam><lyric number="1"><syllabic>single</syllabic><text>me</text></lyric></note><note default-y="-30.00" default-x="149.67"><pitch><step>G</step><octave>4</octave></pitch><duration>1</duration><voice>1</voice><type>eighth</type><stem>up</stem><beam number="1">continue</beam><lyric number="1"><syllabic>single</syllabic><text>he's</text></lyric></note><note default-y="-15.00" default-x="184.09"><pitch><step>C</step><octave>5</octave></pitch><duration>1</duration><tie type="start"/><voice>1</voice><type>eighth</type><stem>up</stem><beam number="1">end</beam><notations><tied type="start"/></notations><lyric number="1"><syllabic>single</syllabic><text>la</text></lyric></note><harmony print-frame="no"><root><root-step>A</root-step></root><kind text="m7">minor-seventh</kind></harmony><note default-y="-15.00" default-x="213.70"><pitch><step>C</step><octave>5</octave></pitch><duration>2</duration><tie type="stop"/><voice>1</voice><type>quarter</type><stem>down</stem><notations><tied type="stop"/></notations></note><note default-y="-15.00" default-x="261.09"><pitch><step>C</step><octave>5</octave></pitch><duration>2</duration><voice>1</voice><type>quarter</type><stem>down</stem><lyric number="1"><syllabic>single</syllabic><text>zy</text></lyric></note></measure><measure width="259.26" number="10"><harmony print-frame="no"><root><root-step>D</root-step></root><kind text="m7">minor-seventh</kind></harmony><note default-y="-15.00" default-x="22.57"><pitch><step>C</step><octave>5</octave></pitch><duration>1</duration><voice>1</voice><type>eighth</type><stem>up</stem><beam number="1">begin</beam><lyric number="1"><syllabic>single</syllabic><text>tell</text></lyric></note><note default-y="-30.00" default-x="57.93"><pitch><step>G</step><octave>4</octave></pitch><duration>1</duration><voice>1</voice><type>eighth</type><stem>up</stem><beam number="1">continue</beam><lyric number="1"><syllabic>single</syllabic><text>me</text></lyric></note><note default-y="-30.00" default-x="99.09"><pitch><step>G</step><octave>4</octave></pitch><duration>1</duration><voice>1</voice><type>eighth</type><stem>up</stem><beam number="1">continue</beam><lyric number="1"><syllabic>single</syllabic><text>he's</text></lyric></note><note default-y="-30.00" default-x="149.45"><pitch><step>G</step><octave>4</octave></pitch><duration>1</duration><tie type="start"/><voice>1</voice><type>eighth</type><stem>up</stem><beam number="1">end</beam><notations><tied type="start"/></notations><lyric number="1"><syllabic>single</syllabic><text>slow,</text></lyric></note><harmony print-frame="no"><root><root-step>G</root-step></root><kind text="7">dominant</kind></harmony><note default-y="-30.00" default-x="183.27"><pitch><step>G</step><octave>4</octave></pitch><duration>4</duration><tie type="stop"/><voice>1</voice><type>half</type><stem>down</stem><notations><tied type="stop"/></notations></note></measure><measure width="258.25" number="11"><harmony print-frame="no"><root><root-step>C</root-step></root><kind text="Maj7">major-seventh</kind></harmony><note default-y="-40.00" default-x="22.57"><pitch><step>E</step><octave>4</octave></pitch><duration>1</duration><voice>1</voice><type>eighth</type><stem>up</stem><beam number="1">begin</beam><lyric number="1"><syllabic>single</syllabic><text>tell</text></lyric></note><note default-y="-40.00" default-x="57.93"><pitch><step>E</step><octave>4</octave></pitch><duration>1</duration><voice>1</voice><type>eighth</type><stem>up</stem><beam number="1">continue</beam><lyric number="1"><syllabic>single</syllabic><text>me</text></lyric></note><note default-y="-40.00" default-x="93.55"><pitch><step>E</step><octave>4</octave></pitch><duration>1</duration><voice>1</voice><type>eighth</type><stem>up</stem><beam number="1">continue</beam><lyric number="1"><syllabic>single</syllabic><text>I'm</text></lyric></note><note default-y="-25.00" default-x="129.17"><pitch><step>A</step><octave>4</octave></pitch><duration>1</duration><tie type="start"/><voice>1</voice><type>eighth</type><stem>up</stem><beam number="1">end</beam><notations><tied type="start"/></notations><lyric number="1"><syllabic>single</syllabic><text>cra</text></lyric></note><harmony print-frame="no"><root><root-step>G</root-step></root><kind text="m9">minor-ninth</kind></harmony><note default-y="-25.00" default-x="159.52"><pitch><step>A</step><octave>4</octave></pitch><duration>2</duration><tie type="stop"/><voice>1</voice><type>quarter</type><stem>down</stem><notations><tied type="stop"/></notations></note><harmony print-frame="no"><root><root-step>C</root-step></root><kind text="7b9">dominant</kind><degree><degree-value>9</degree-value><degree-alter>-1</degree-alter><degree-type>add</degree-type></degree></harmony><note default-y="-25.00" default-x="208.08"><pitch><step>A</step><octave>4</octave></pitch><duration>2</duration><voice>1</voice><type>quarter</type><stem>down</stem><lyric number="1"><syllabic>single</syllabic><text>zy</text></lyric></note></measure><measure width="249.51" number="12"><harmony print-frame="no"><root><root-step>F</root-step></root><kind text="6">major-sixth</kind></harmony><note default-y="-25.00" default-x="29.31"><pitch><step>A</step><octave>4</octave></pitch><duration>1</duration><voice>1</voice><type>eighth</type><stem>up</stem><beam number="1">begin</beam><lyric number="1"><syllabic>single</syllabic><text>may</text></lyric></note><note default-y="-45.00" default-x="68.36"><pitch><step>D</step><octave>4</octave></pitch><duration>1</duration><voice>1</voice><type>eighth</type><stem>up</stem><beam number="1">continue</beam><lyric number="1"><syllabic>single</syllabic><text>be</text></lyric></note><note default-y="-45.00" default-x="99.60"><pitch><step>D</step><octave>4</octave></pitch><duration>1</duration><voice>1</voice><type>eighth</type><stem>up</stem><beam number="1">continue</beam><lyric number="1"><syllabic>single</syllabic><text>I</text></lyric></note><note default-y="-45.00" default-x="145.99"><pitch><step>D</step><octave>4</octave></pitch><duration>1</duration><tie type="start"/><voice>1</voice><type>eighth</type><stem>up</stem><beam number="1">end</beam><notations><tied type="start"/></notations><lyric number="1"><syllabic>single</syllabic><text>know,</text></lyric></note><harmony print-frame="no"><root><root-step>B</root-step><root-alter>-1</root-alter></root><kind text="9">dominant-ninth</kind></harmony><note default-y="-45.00" default-x="179.18"><pitch><step>D</step><octave>4</octave></pitch><duration>4</duration><tie type="stop"/><voice>1</voice><type>half</type><stem>up</stem><notations><tied type="stop"/></notations></note></measure><measure width="308.56" number="13"><print new-system="yes"><system-layout><system-margins><left-margin>0.00</left-margin><right-margin>0.00</right-margin></system-margins><system-distance>129.51</system-distance></system-layout></print><harmony print-frame="no"><root><root-step>E</root-step></root><kind text="m7">minor-seventh</kind></harmony><note default-y="-30.00" default-x="79.56"><pitch><step>G</step><octave>4</octave></pitch><duration>4</duration><voice>1</voice><type>half</type><stem>down</stem><lyric number="1"><syllabic>single</syllabic><text>Can't</text></lyric></note><harmony print-frame="no"><root><root-step>A</root-step></root><kind text="m7">minor-seventh</kind></harmony><note default-y="-50.00" default-x="193.26"><pitch><step>C</step><octave>4</octave></pitch><duration>4</duration><voice>1</voice><type>half</type><stem>up</stem><lyric number="1"><syllabic>single</syllabic><text>help</text></lyric></note></measure><measure width="351.49" number="14"><harmony print-frame="no"><root><root-step>A</root-step><root-alter>-1</root-alter></root><kind text="7">dominant</kind></harmony><note default-y="-60.00" default-x="22.57"><pitch><step>A</step><alter>-1</alter><octave>3</octave></pitch><duration>1</duration><voice>1</voice><type>eighth</type><accidental>flat</accidental><stem>up</stem><beam number="1">begin</beam><lyric number="1"><syllabic>single</syllabic><text>lov</text></lyric></note><note default-y="-50.00" default-x="68.03"><pitch><step>C</step><octave>4</octave></pitch><duration>1</duration><voice>1</voice><type>eighth</type><stem>up</stem><beam number="1">continue</beam><lyric number="1"><syllabic>single</syllabic><text>in'</text></lyric></note><note default-y="-50.00" default-x="113.49"><pitch><step>C</step><octave>4</octave></pitch><duration>1</duration><voice>1</voice><type>eighth</type><stem>up</stem><beam number="1">continue</beam><lyric number="1"><syllabic>single</syllabic><text>dat</text></lyric></note><note default-y="-40.00" default-x="158.95"><pitch><step>E</step><alter>-1</alter><octave>4</octave></pitch><duration>1</duration><tie type="start"/><voice>1</voice><type>eighth</type><accidental>flat</accidental><stem>up</stem><beam number="1">end</beam><notations><tied type="start"/></notations><lyric number="1"><syllabic>single</syllabic><text>man</text></lyric></note><harmony print-frame="no"><root><root-step>D</root-step></root><kind text="7b9">dominant</kind><degree><degree-value>9</degree-value><degree-alter>-1</degree-alter><degree-type>add</degree-type></degree></harmony><note default-y="-40.00" default-x="204.42"><pitch><step>E</step><alter>-1</alter><octave>4</octave></pitch><duration>2</duration><tie type="stop"/><voice>1</voice><type>quarter</type><stem>up</stem><notations><tied type="stop"/></notations></note><harmony print-frame="no"><root><root-step>G</root-step></root><kind text="7b9">dominant</kind><degree><degree-value>9</degree-value><degree-alter>-1</degree-alter><degree-type>add</degree-type></degree></harmony><note default-y="-45.00" default-x="277.15"><pitch><step>D</step><octave>4</octave></pitch><duration>2</duration><voice>1</voice><type>quarter</type><stem>up</stem><lyric number="1"><syllabic>single</syllabic><text>of</text></lyric></note></measure><measure width="218.36" number="15"><harmony print-frame="no"><root><root-step>C</root-step></root><kind text="">major</kind></harmony><harmony relative-x="1300.00" print-frame="no"><root><root-step>D</root-step></root><kind text="m7">minor-seventh</kind></harmony><note default-y="-50.00" default-x="35.45"><pitch><step>C</step><octave>4</octave></pitch><duration>8</duration><tie type="start"/><voice>1</voice><type>whole</type><notations><tied type="start"/></notations><lyric number="1"><syllabic>single</syllabic><text>mine.</text></lyric></note></measure><measure width="198.68" number="16"><harmony print-frame="no"><root><root-step>G</root-step></root><kind text="m7">minor-seventh</kind></harmony><note default-y="-50.00" default-x="15.00"><pitch><step>C</step><octave>4</octave></pitch><duration>6</duration><tie type="stop"/><voice>1</voice><type>half</type><dot/><stem>up</stem><notations><tied type="stop"/></notations></note><harmony print-frame="no"><root><root-step>C</root-step></root><kind text="7b9">dominant</kind><degree><degree-value>9</degree-value><degree-alter>-1</degree-alter><degree-type>add</degree-type></degree></harmony><note><rest/><duration>2</duration><voice>1</voice><type>quarter</type></note></measure><measure width="403.68" number="17"><print new-system="yes"><system-layout><system-margins><left-margin>0.00</left-margin><right-margin>0.00</right-margin></system-margins><system-distance>129.51</system-distance></system-layout></print><harmony print-frame="no"><root><root-step>F</root-step></root><kind text="6">major-sixth</kind></harmony><note default-y="-45.00" default-x="82.97"><pitch><step>D</step><octave>4</octave></pitch><duration>2</duration><voice>1</voice><type>quarter</type><stem>up</stem><lyric number="1"><syllabic>single</syllabic><text>When</text></lyric></note><note default-y="-45.00" default-x="158.06"><pitch><step>D</step><octave>4</octave></pitch><duration>2</duration><voice>1</voice><type>quarter</type><stem>up</stem><lyric number="1"><syllabic>single</syllabic><text>he</text></lyric></note><note default-y="-45.00" default-x="233.14"><pitch><step>D</step><octave>4</octave></pitch><duration>2</duration><voice>1</voice><type>quarter</type><stem>up</stem><lyric number="1"><syllabic>single</syllabic><text>goes</text></lyric></note><note default-y="-45.00" default-x="308.22"><pitch><step>D</step><octave>4</octave></pitch><duration>1</duration><voice>1</voice><type>eighth</type><stem>up</stem><beam number="1">begin</beam><lyric number="1"><syllabic>single</syllabic><text>a</text></lyric></note><note default-y="-40.00" default-x="355.15"><pitch><step>E</step><alter>-1</alter><octave>4</octave></pitch><duration>1</duration><tie type="start"/><voice>1</voice><type>eighth</type><accidental>flat</accidental><stem>up</stem><beam number="1">end</beam><notations><tied type="start"/></notations><lyric number="1"><syllabic>single</syllabic><text>way</text></lyric></note></measure><measure width="172.09" number="18"><harmony print-frame="no"><root><root-step>F</root-step><root-alter>1</root-alter></root><kind text="dim">diminished</kind></harmony><note default-y="-40.00" default-x="15.00"><pitch><step>E</step><alter>-1</alter><octave>4</octave></pitch><duration>8</duration><tie type="stop"/><voice>1</voice><type>whole</type><accidental>flat</accidental><notations><tied type="stop"/></notations></note></measure><measure width="329.24" number="19"><harmony print-frame="no"><root><root-step>C</root-step></root><kind text="Maj7">major-seventh</kind></harmony><note default-y="-40.00" default-x="31.43"><pitch><step>E</step><octave>4</octave></pitch><duration>2</duration><voice>1</voice><type>quarter</type><stem>up</stem><lyric number="1"><syllabic>single</syllabic><text>dat's</text></lyric></note><note default-y="-40.00" default-x="101.13"><pitch><step>E</step><octave>4</octave></pitch><duration>2</duration><voice>1</voice><type>quarter</type><stem>up</stem><lyric number="1"><syllabic>single</syllabic><text>a</text></lyric></note><note default-y="-40.00" default-x="170.82"><pitch><step>E</step><octave>4</octave></pitch><duration>2</duration><voice>1</voice><type>quarter</type><stem>up</stem><lyric number="1"><syllabic>begin</syllabic><text>rain</text></lyric></note><note default-y="-40.00" default-x="240.52"><pitch><step>E</step><octave>4</octave></pitch><duration>1</duration><voice>1</voice><type>eighth</type><stem>up</stem><beam number="1">begin</beam><lyric number="1"><syllabic>end</syllabic><text>y</text></lyric></note><note default-y="-35.00" default-x="284.08"><pitch><step>F</step><alter>1</alter><octave>4</octave></pitch><duration>1</duration><tie type="start"/><voice>1</voice><type>eighth</type><accidental>sharp</accidental><stem>up</stem><beam number="1">end</beam><notations><tied type="start"/></notations><lyric number="1"><syllabic>single</syllabic><text>day,</text></lyric></note></measure><measure width="172.09" number="20"><harmony print-frame="no"><root><root-step>D</root-step></root><kind text="9">dominant-ninth</kind></harmony><note default-y="-35.00" default-x="15.00"><pitch><step>F</step><alter>1</alter><octave>4</octave></pitch><duration>8</duration><tie type="stop"/><voice>1</voice><type>whole</type><accidental>sharp</accidental><notations><tied type="stop"/></notations></note></measure><measure width="356.92" number="21"><print new-system="yes"><system-layout><system-margins><left-margin>0.00</left-margin><right-margin>0.00</right-margin></system-margins><system-distance>129.51</system-distance></system-layout></print><harmony print-frame="no"><root><root-step>E</root-step></root><kind text="m7">minor-seventh</kind></harmony><note default-y="-30.00" default-x="72.56"><pitch><step>G</step><octave>4</octave></pitch><duration>2</duration><voice>1</voice><type>quarter</type><stem>down</stem><lyric number="1"><syllabic>single</syllabic><text>and</text></lyric></note><note default-y="-30.00" default-x="143.25"><pitch><step>G</step><octave>4</octave></pitch><duration>2</duration><voice>1</voice><type>quarter</type><stem>down</stem><lyric number="1"><syllabic>single</syllabic><text>when</text></lyric></note><harmony print-frame="no"><root><root-step>E</root-step><root-alter>-1</root-alter></root><kind text="Maj7">major-seventh</kind></harmony><note default-y="-30.00" default-x="213.94"><pitch><step>G</step><octave>4</octave></pitch><duration>2</duration><voice>1</voice><type>quarter</type><stem>down</stem><lyric number="1"><syllabic>single</syllabic><text>he</text></lyric></note><note default-y="-30.00" default-x="284.63"><pitch><step>G</step><octave>4</octave></pitch><duration>2</duration><voice>1</voice><type>quarter</type><stem>down</stem><lyric number="1"><syllabic>single</syllabic><text>comes</text></lyric></note></measure><measure width="265.18" number="22"><harmony print-frame="no"><root><root-step>D</root-step></root><kind text="m7">minor-seventh</kind></harmony><note default-y="-25.00" default-x="31.78"><pitch><step>A</step><octave>4</octave></pitch><duration>2</duration><voice>1</voice><type>quarter</type><stem>down</stem><lyric number="1"><syllabic>single</syllabic><text>back</text></lyric></note><note default-y="-25.00" default-x="89.73"><pitch><step>A</step><octave>4</octave></pitch><duration>2</duration><voice>1</voice><type>quarter</type><stem>down</stem><lyric number="1"><syllabic>single</syllabic><text>dat</text></lyric></note><harmony print-frame="no"><root><root-step>D</root-step></root><kind text="9">dominant-ninth</kind></harmony><note default-y="-25.00" default-x="147.68"><pitch><step>A</step><octave>4</octave></pitch><duration>2</duration><voice>1</voice><type>quarter</type><stem>down</stem><lyric number="1"><syllabic>single</syllabic><text>day</text></lyric></note><note default-y="-25.00" default-x="205.63"><pitch><step>A</step><octave>4</octave></pitch><duration>2</duration><voice>1</voice><type>quarter</type><stem>down</stem><lyric number="1"><syllabic>single</syllabic><text>is</text></lyric></note></measure><measure width="287.92" number="23"><harmony print-frame="no"><root><root-step>D</root-step></root><kind text="m7">minor-seventh</kind><bass><bass-step>G</bass-step></bass></harmony><note default-y="-10.00" default-x="29.32"><pitch><step>D</step><octave>5</octave></pitch><duration>4</duration><tie type="start"/><voice>1</voice><type>half</type><stem>down</stem><notations><tied type="start"/></notations><lyric number="1"><syllabic>single</syllabic><text>fine,</text></lyric></note><note default-y="-10.00" default-x="120.51"><pitch><step>D</step><octave>5</octave></pitch><duration>1</duration><tie type="stop"/><voice>1</voice><type>eighth</type><stem>down</stem><beam number="1">begin</beam><notations><tied type="stop"/></notations></note><note default-y="-15.00" default-x="161.97"><pitch><step>C</step><octave>5</octave></pitch><duration>1</duration><voice>1</voice><type>eighth</type><stem>down</stem><beam number="1">continue</beam><lyric number="1"><syllabic>single</syllabic><text>the</text></lyric></note><note default-y="-20.00" default-x="203.42"><pitch><step>B</step><octave>4</octave></pitch><duration>1</duration><voice>1</voice><type>eighth</type><stem>down</stem><beam number="1">continue</beam><lyric number="1"><syllabic>single</syllabic><text>sun</text></lyric></note><note default-y="-25.00" default-x="244.87"><pitch><step>A</step><octave>4</octave></pitch><duration>1</duration><voice>1</voice><type>eighth</type><stem>down</stem><beam number="1">end</beam><lyric number="1"><syllabic>single</syllabic><text>will</text></lyric></note></measure><measure width="167.08" number="24"><harmony print-frame="no"><root><root-step>G</root-step></root><kind text="7">dominant</kind></harmony><harmony relative-x="1600.00" print-frame="no"><root><root-step>G</root-step></root><kind text="7+">augmented-seventh</kind></harmony><note default-y="-30.00" default-x="34.85"><pitch><step>G</step><octave>4</octave></pitch><duration>8</duration><voice>1</voice><type>whole</type><lyric number="1"><syllabic>single</syllabic><text>shine</text></lyric></note></measure><measure width="338.79" number="25"><print new-system="yes"><system-layout><system-margins><left-margin>0.00</left-margin><right-margin>0.00</right-margin></system-margins><system-distance>129.51</system-distance></system-layout></print><harmony print-frame="no"><root><root-step>C</root-step></root><kind text="Maj7">major-seventh</kind></harmony><note default-y="-30.00" default-x="68.25"><pitch><step>G</step><octave>4</octave></pitch><duration>1</duration><voice>1</voice><type>eighth</type><stem>up</stem><beam number="1">begin</beam><lyric number="1"><syllabic>single</syllabic><text>He</text></lyric></note><note default-y="-30.00" default-x="106.08"><pitch><step>G</step><octave>4</octave></pitch><duration>1</duration><voice>1</voice><type>eighth</type><stem>up</stem><beam number="1">continue</beam><lyric number="1"><syllabic>single</syllabic><text>can</text></lyric></note><note default-y="-30.00" default-x="156.78"><pitch><step>G</step><octave>4</octave></pitch><duration>1</duration><voice>1</voice><type>eighth</type><stem>up</stem><beam number="1">continue</beam><lyric number="1"><syllabic>single</syllabic><text>come</text></lyric></note><note default-y="-15.00" default-x="217.30"><pitch><step>C</step><octave>5</octave></pitch><duration>1</duration><tie type="start"/><voice>1</voice><type>eighth</type><stem>up</stem><beam number="1">end</beam><notations><tied type="start"/></notations><lyric number="1"><syllabic>single</syllabic><text>home</text></lyric></note><harmony print-frame="no"><root><root-step>A</root-step></root><kind text="m7">minor-seventh</kind></harmony><note default-y="-15.00" default-x="249.87"><pitch><step>C</step><octave>5</octave></pitch><duration>2</duration><tie type="stop"/><voice>1</voice><type>quarter</type><stem>down</stem><notations><tied type="stop"/></notations></note><note default-y="-15.00" default-x="293.53"><pitch><step>C</step><octave>5</octave></pitch><duration>2</duration><voice>1</voice><type>quarter</type><stem>down</stem><lyric number="1"><syllabic>single</syllabic><text>as</text></lyric></note></measure><measure width="216.77" number="26"><harmony print-frame="no"><root><root-step>D</root-step></root><kind text="m7">minor-seventh</kind></harmony><note default-y="-15.00" default-x="26.25"><pitch><step>C</step><octave>5</octave></pitch><duration>1</duration><voice>1</voice><type>eighth</type><stem>up</stem><beam number="1">begin</beam><lyric number="1"><syllabic>single</syllabic><text>late</text></lyric></note><note default-y="-30.00" default-x="61.63"><pitch><step>G</step><octave>4</octave></pitch><duration>1</duration><voice>1</voice><type>eighth</type><stem>up</stem><beam number="1">continue</beam><lyric number="1"><syllabic>single</syllabic><text>as</text></lyric></note><note default-y="-30.00" default-x="97.58"><pitch><step>G</step><octave>4</octave></pitch><duration>1</duration><voice>1</voice><type>eighth</type><stem>up</stem><beam number="1">continue</beam><lyric number="1"><syllabic>single</syllabic><text>can</text></lyric></note><note default-y="-30.00" default-x="136.64"><pitch><step>G</step><octave>4</octave></pitch><duration>1</duration><tie type="start"/><voice>1</voice><type>eighth</type><stem>up</stem><beam number="1">end</beam><notations><tied type="start"/></notations><lyric number="1"><syllabic>single</syllabic><text>be,</text></lyric></note><harmony print-frame="no"><root><root-step>G</root-step></root><kind text="7">dominant</kind></harmony><note default-y="-30.00" default-x="161.18"><pitch><step>G</step><octave>4</octave></pitch><duration>4</duration><tie type="stop"/><voice>1</voice><type>half</type><stem>down</stem><notations><tied type="stop"/></notations></note></measure><measure width="292.52" number="27"><harmony print-frame="no"><root><root-step>C</root-step></root><kind text="Maj7">major-seventh</kind></harmony><note default-y="-40.00" default-x="36.07"><pitch><step>E</step><octave>4</octave></pitch><duration>1</duration><voice>1</voice><type>eighth</type><stem>up</stem><beam number="1">begin</beam><lyric number="1"><syllabic>single</syllabic><text>home</text></lyric></note><note default-y="-40.00" default-x="89.23"><pitch><step>E</step><octave>4</octave></pitch><duration>1</duration><voice>1</voice><type>eighth</type><stem>up</stem><beam number="1">continue</beam><lyric number="1"><syllabic>begin</syllabic><text>with</text></lyric></note><note default-y="-40.00" default-x="130.12"><pitch><step>E</step><octave>4</octave></pitch><duration>1</duration><voice>1</voice><type>eighth</type><stem>up</stem><beam number="1">continue</beam><lyric number="1"><syllabic>end</syllabic><text>out</text></lyric></note><note default-y="-25.00" default-x="169.16"><pitch><step>A</step><octave>4</octave></pitch><duration>1</duration><tie type="start"/><voice>1</voice><type>eighth</type><stem>up</stem><beam number="1">end</beam><notations><tied type="start"/></notations><lyric number="1"><syllabic>single</syllabic><text>him</text></lyric></note><harmony print-frame="no"><root><root-step>G</root-step></root><kind text="m9">minor-ninth</kind></harmony><note default-y="-25.00" default-x="198.15"><pitch><step>A</step><octave>4</octave></pitch><duration>2</duration><tie type="stop"/><voice>1</voice><type>quarter</type><stem>down</stem><notations><tied type="stop"/></notations></note><harmony print-frame="no"><root><root-step>C</root-step></root><kind text="7b9">dominant</kind><degree><degree-value>9</degree-value><degree-alter>-1</degree-alter><degree-type>add</degree-type></degree></harmony><note default-y="-25.00" default-x="244.54"><pitch><step>A</step><octave>4</octave></pitch><duration>2</duration><voice>1</voice><type>quarter</type><stem>down</stem><lyric number="1"><syllabic>single</syllabic><text>aint</text></lyric></note></measure><measure width="229.02" number="28"><harmony print-frame="no"><root><root-step>F</root-step></root><kind text="6">major-sixth</kind></harmony><note default-y="-25.00" default-x="20.74"><pitch><step>A</step><octave>4</octave></pitch><duration>1</duration><voice>1</voice><type>eighth</type><stem>up</stem><beam number="1">begin</beam><lyric number="1"><syllabic>single</syllabic><text>no</text></lyric></note><note default-y="-45.00" default-x="66.54"><pitch><step>D</step><octave>4</octave></pitch><duration>1</duration><voice>1</voice><type>eighth</type><stem>up</stem><beam number="1">continue</beam><lyric number="1"><syllabic>single</syllabic><text>home</text></lyric></note><note default-y="-45.00" default-x="109.28"><pitch><step>D</step><octave>4</octave></pitch><duration>1</duration><voice>1</voice><type>eighth</type><stem>up</stem><beam number="1">continue</beam><lyric number="1"><syllabic>single</syllabic><text>to</text></lyric></note><note default-y="-45.00" default-x="145.83"><pitch><step>D</step><octave>4</octave></pitch><duration>1</duration><tie type="start"/><voice>1</voice><type>eighth</type><stem>up</stem><beam number="1">end</beam><notations><tied type="start"/></notations><lyric number="1"><syllabic>single</syllabic><text>me,</text></lyric></note><harmony print-frame="no"><root><root-step>B</root-step><root-alter>-1</root-alter></root><kind text="9">dominant-ninth</kind></harmony><note default-y="-45.00" default-x="171.33"><pitch><step>D</step><octave>4</octave></pitch><duration>4</duration><tie type="stop"/><voice>1</voice><type>half</type><stem>up</stem><notations><tied type="stop"/></notations></note></measure><measure width="307.06" number="29"><print new-system="yes"><system-layout><system-margins><left-margin>0.00</left-margin><right-margin>0.00</right-margin></system-margins><system-distance>129.51</system-distance></system-layout></print><harmony print-frame="no"><root><root-step>E</root-step></root><kind text="m7">minor-seventh</kind></harmony><note default-y="-30.00" default-x="79.56"><pitch><step>G</step><octave>4</octave></pitch><duration>4</duration><voice>1</voice><type>half</type><stem>down</stem><lyric number="1"><syllabic>single</syllabic><text>Can't</text></lyric></note><harmony print-frame="no"><root><root-step>A</root-step></root><kind text="m7">minor-seventh</kind></harmony><note default-y="-50.00" default-x="192.51"><pitch><step>C</step><octave>4</octave></pitch><duration>4</duration><voice>1</voice><type>half</type><stem>up</stem><lyric number="1"><syllabic>single</syllabic><text>help</text></lyric></note></measure><measure width="349.99" number="30"><harmony print-frame="no"><root><root-step>A</root-step><root-alter>-1</root-alter></root><kind text="7">dominant</kind></harmony><note default-y="-5.00" default-x="22.57"><pitch><step>E</step><alter>-1</alter><octave>5</octave></pitch><duration>1</duration><voice>1</voice><type>eighth</type><accidental>flat</accidental><stem>up</stem><beam number="1">begin</beam><lyric number="1"><syllabic>begin</syllabic><text>lov</text></lyric></note><note default-y="-15.00" default-x="67.82"><pitch><step>C</step><octave>5</octave></pitch><duration>1</duration><voice>1</voice><type>eighth</type><stem>up</stem><beam number="1">continue</beam><lyric number="1"><syllabic>end</syllabic><text>in'</text></lyric></note><note default-y="-10.00" default-x="113.08"><pitch><step>D</step><octave>5</octave></pitch><duration>1</duration><voice>1</voice><type>eighth</type><stem>up</stem><beam number="1">continue</beam><lyric number="1"><syllabic>single</syllabic><text>dat</text></lyric></note><note default-y="-5.00" default-x="158.33"><pitch><step>E</step><alter>-1</alter><octave>5</octave></pitch><duration>1</duration><tie type="start"/><voice>1</voice><type>eighth</type><stem>up</stem><beam number="1">end</beam><notations><tied type="start"/></notations><lyric number="1"><syllabic>single</syllabic><text>man</text></lyric></note><harmony print-frame="no"><root><root-step>D</root-step></root><kind text="7b9">dominant</kind><degree><degree-value>9</degree-value><degree-alter>-1</degree-alter><degree-type>add</degree-type></degree></harmony><note default-y="-5.00" default-x="203.58"><pitch><step>E</step><alter>-1</alter><octave>5</octave></pitch><duration>2</duration><tie type="stop"/><voice>1</voice><type>quarter</type><stem>up</stem><notations><tied type="stop"/></notations></note><harmony print-frame="no"><root><root-step>G</root-step></root><kind text="7b9">dominant</kind><degree><degree-value>9</degree-value><degree-alter>-1</degree-alter><degree-type>add</degree-type></degree></harmony><note default-y="-10.00" default-x="275.99"><pitch><step>D</step><octave>5</octave></pitch><duration>2</duration><voice>1</voice><type>quarter</type><stem>up</stem><lyric number="1"><syllabic>single</syllabic><text>of</text></lyric></note></measure><measure width="216.86" number="31"><harmony print-frame="no"><root><root-step>C</root-step></root><kind text="">major</kind></harmony><harmony relative-x="2183.33" print-frame="no"><root><root-step>E</root-step><root-alter>-1</root-alter></root><kind text="6">major-sixth</kind></harmony><harmony relative-x="4483.33" print-frame="no"><root><root-step>D</root-step><root-alter>-1</root-alter></root><kind text="Maj7">major-seventh</kind></harmony><note default-y="-15.00" default-x="35.45"><pitch><step>C</step><octave>5</octave></pitch><duration>8</duration><tie type="start"/><voice>1</voice><type>whole</type><notations><tied type="start"/></notations><lyric number="1"><syllabic>single</syllabic><text>mine.</text></lyric></note></measure><measure width="203.18" number="32"><harmony relative-x="750.00" print-frame="no"><root><root-step>C</root-step></root><kind text="">major</kind></harmony><note default-y="-15.00" default-x="15.00"><pitch><step>C</step><octave>5</octave></pitch><duration>6</duration><tie type="stop"/><voice>1</voice><type>half</type><dot/><stem>up</stem><notations><tied type="stop"/></notations></note><note><rest/><duration>2</duration><voice>1</voice><type>quarter</type></note><barline location="right"><bar-style>light-heavy</bar-style></barline></measure></part></score-partwise>