<score-partwise version="2.0"><work><work-number/><work-title/></work><movement-number/><movement-title>Smoke Gets In Your Eyes</movement-title><identification><creator type="composer">Jerome Kern</creator><creator type="poet">Otto Harbach</creator><rights>All Rights Reserved</rights><encoding><software>MuseScore 0.9.5</software><encoding-date>2009-12-01</encoding-date><software>ProxyMusic 2.0 c</software></encoding><source>http://wikifonia.org/node/3543/revisions/4579/view</source></identification><defaults><scaling><millimeters>7.056</millimeters><tenths>40</tenths></scaling><page-layout><page-height>1683.67</page-height><page-width>1190.48</page-width><page-margins type="both"><left-margin>56.6893</left-margin><right-margin>56.6893</right-margin><top-margin>56.6893</top-margin><bottom-margin>113.379</bottom-margin></page-margins></page-layout></defaults><credit page="1"><credit-words font-size="24" default-y="1626.98" default-x="595.238" justify="center" valign="top">Smoke Gets In Your Eyes</credit-words></credit><part-list><score-part id="P1"><part-name>Voice</part-name><score-instrument id="P1-I3"><instrument-name>Voice</instrument-name></score-instrument><midi-instrument id="P1-I3"><midi-channel>1</midi-channel><midi-program>53</midi-program></midi-instrument></score-part></part-list><part id="P1"><measure width="409.50" number="1"><print><system-layout><system-margins><left-margin>69.92</left-margin><right-margin>0.00</right-margin></system-margins><top-system-distance>252.10</top-system-distance></system-layout></print><barline location="left"><bar-style>heavy-light</bar-style><repeat direction="forward"/></barline><attributes><divisions>6</divisions><key><fifths>-3</fifths><mode>major</mode></key><time><beats>4</beats><beat-type>4</beat-type></time><clef><sign>G</sign><line>2</line></clef></attributes><harmony print-frame="no"><root><root-step>E</root-step><root-alter>-1</root-alter></root><kind text="">major</kind></harmony><note default-y="-40.00" default-x="157.66"><pitch><step>E</step><alter>-1</alter><octave>4</octave></pitch><duration>12</duration><voice>1</voice><type>half</type><stem>up</stem><lyric number="1"><syllabic>single</syllabic><text>They</text></lyric><lyric number="2"><syllabic>single</syllabic><text>They</text></lyric></note><harmony print-frame="no"><root><root-step>G</root-step></root><kind text="m7">minor-seventh</kind></harmony><note default-y="-45.00" default-x="216.67"><pitch><step>D</step><octave>4</octave></pitch><duration>3</duration><voice>1</voice><type>eighth</type><stem>up</stem><beam number="1">begin</beam><lyric number="1"><syllabic>single</syllabic><text>asked</text></lyric><lyric number="2"><syllabic>single</syllabic><text>said</text></lyric></note><note default-y="-35.00" default-x="272.06"><pitch><step>F</step><octave>4</octave></pitch><duration>3</duration><voice>1</voice><type>eighth</type><stem>up</stem><beam number="1">continue</beam><lyric number="1"><syllabic>single</syllabic><text>me</text></lyric><lyric number="2"><syllabic>begin</syllabic><text>some</text></lyric></note><harmony print-frame="no"><root><root-step>G</root-step><root-alter>-1</root-alter></root><kind text="dim">diminished</kind></harmony><note default-y="-40.00" default-x="321.19"><pitch><step>E</step><alter>-1</alter><octave>4</octave></pitch><duration>3</duration><voice>1</voice><type>eighth</type><stem>up</stem><beam number="1">continue</beam><lyric number="1"><syllabic>single</syllabic><text>how</text></lyric><lyric number="2"><syllabic>end</syllabic><text>day</text></lyric></note><note default-y="-50.00" default-x="371.73"><pitch><step>C</step><octave>4</octave></pitch><duration>3</duration><voice>1</voice><type>eighth</type><stem>up</stem><beam number="1">end</beam><lyric number="1"><syllabic>single</syllabic><text>I</text></lyric><lyric number="2"><syllabic>single</syllabic><text>you'll</text></lyric></note></measure><measure width="242.50" number="2"><harmony print-frame="no"><root><root-step>F</root-step></root><kind text="m7">minor-seventh</kind></harmony><note default-y="-25.00" default-x="32.88"><pitch><step>A</step><alter>-1</alter><octave>4</octave></pitch><duration>12</duration><voice>1</voice><type>half</type><stem>up</stem><lyric number="1"><syllabic>single</syllabic><text>knew</text></lyric><lyric number="2"><syllabic>single</syllabic><text>find,</text></lyric></note><harmony print-frame="no"><root><root-step>B</root-step><root-alter>-1</root-alter></root><kind text="7">dominant</kind></harmony><note default-y="-30.00" default-x="85.07"><pitch><step>G</step><octave>4</octave></pitch><duration>3</duration><voice>1</voice><type>eighth</type><stem>up</stem><beam number="1">begin</beam><lyric number="1"><syllabic>single</syllabic><text>my</text></lyric><lyric number="2"><syllabic>single</syllabic><text>all</text></lyric></note><note default-y="-20.00" default-x="124.80"><pitch><step>B</step><alter>-1</alter><octave>4</octave></pitch><duration>3</duration><voice>1</voice><type>eighth</type><stem>up</stem><beam number="1">continue</beam><lyric number="1"><syllabic>single</syllabic><text>true</text></lyric><lyric number="2"><syllabic>single</syllabic><text>who</text></lyric></note><note default-y="-25.00" default-x="169.55"><pitch><step>A</step><alter>-1</alter><octave>4</octave></pitch><duration>3</duration><voice>1</voice><type>eighth</type><stem>up</stem><beam number="1">continue</beam><lyric number="1"><syllabic>single</syllabic><text>love</text></lyric><lyric number="2"><syllabic>single</syllabic><text>love</text></lyric></note><note default-y="-35.00" default-x="212.41"><pitch><step>F</step><octave>4</octave></pitch><duration>3</duration><voice>1</voice><type>eighth</type><stem>up</stem><beam number="1">end</beam><lyric number="1"><syllabic>single</syllabic><text>was</text></lyric><lyric number="2"><syllabic>single</syllabic><text>are</text></lyric></note></measure><measure width="101.74" number="3"><harmony print-frame="no"><root><root-step>E</root-step><root-alter>-1</root-alter></root><kind text="">major</kind></harmony><harmony print-frame="no"><root><root-step>G</root-step></root><kind text="7#5">augmented-seventh</kind></harmony><note default-y="-5.00" default-x="34.46"><pitch><step>E</step><alter>-1</alter><octave>5</octave></pitch><duration>24</duration><tie type="start"/><voice>1</voice><type>whole</type><notations><tied type="start"/></notations><lyric number="1"><syllabic>single</syllabic><text>true?</text></lyric><lyric number="2"><syllabic>single</syllabic><text>blind,</text></lyric></note></measure><measure width="253.44" number="4"><harmony print-frame="no"><root><root-step>A</root-step><root-alter>-1</root-alter></root><kind text="m7">minor-seventh</kind></harmony><note default-y="-5.00" default-x="15.00"><pitch><step>E</step><alter>-1</alter><octave>5</octave></pitch><duration>12</duration><tie type="stop"/><voice>1</voice><type>half</type><stem>down</stem><notations><tied type="stop"/></notations></note><harmony print-frame="no"><root><root-step>A</root-step></root><kind text="dim7">diminished-seventh</kind></harmony><note default-y="0.00" default-x="70.48"><pitch><step>F</step><octave>5</octave></pitch><duration>3</duration><voice>1</voice><type>eighth</type><stem>down</stem><beam number="1">begin</beam><lyric number="1"><syllabic>single</syllabic><text>I</text></lyric><lyric number="2"><syllabic>single</syllabic><text>When</text></lyric></note><note default-y="-5.00" default-x="123.98"><pitch><step>E</step><alter>-1</alter><octave>5</octave></pitch><duration>3</duration><voice>1</voice><type>eighth</type><stem>down</stem><beam number="1">continue</beam><lyric number="1"><syllabic>single</syllabic><text>of</text></lyric><lyric number="2"><syllabic>single</syllabic><text>your</text></lyric></note><note default-y="-20.00" default-x="180.00"><pitch><step>B</step><octave>4</octave></pitch><duration>3</duration><voice>1</voice><type>eighth</type><accidental>natural</accidental><stem>down</stem><beam number="1">continue</beam><lyric number="1"><syllabic>single</syllabic><text>course</text></lyric><lyric number="2"><syllabic>single</syllabic><text>hearts</text></lyric></note><note default-y="-15.00" default-x="226.62"><pitch><step>C</step><octave>5</octave></pitch><duration>3</duration><voice>1</voice><type>eighth</type><stem>down</stem><beam number="1">end</beam><lyric number="1"><syllabic>begin</syllabic><text>re</text></lyric><lyric number="2"><syllabic>single</syllabic><text>on</text></lyric></note></measure><measure width="353.58" number="5"><print new-system="yes"><system-layout><system-margins><left-margin>47.28</left-margin><right-margin>-0.00</right-margin></system-margins><system-distance>203.46</system-distance></system-layout></print><harmony print-frame="no"><root><root-step>G</root-step></root><kind text="m7">minor-seventh</kind></harmony><note default-y="-10.00" default-x="110.81"><pitch><step>D</step><octave>5</octave></pitch><duration>12</duration><voice>1</voice><type>half</type><stem>down</stem><lyric number="1"><syllabic>end</syllabic><text>plied</text></lyric><lyric number="2"><syllabic>single</syllabic><text>fire,</text></lyric></note><harmony print-frame="no"><root><root-step>C</root-step></root><kind text="m7">minor-seventh</kind></harmony><note default-y="-15.00" default-x="179.02"><pitch><step>C</step><octave>5</octave></pitch><duration>3</duration><voice>1</voice><type>eighth</type><stem>up</stem><beam number="1">begin</beam><lyric number="1"><syllabic>begin</syllabic><text>"Some</text></lyric><lyric number="2"><syllabic>single</syllabic><text>you</text></lyric></note><note default-y="-20.00" default-x="238.39"><pitch><step>B</step><alter>-1</alter><octave>4</octave></pitch><duration>3</duration><voice>1</voice><type>eighth</type><stem>up</stem><beam number="1">continue</beam><lyric number="1"><syllabic>end</syllabic><text>thing</text></lyric><lyric number="2"><syllabic>single</syllabic><text>must</text></lyric></note><note default-y="-50.00" default-x="286.89"><pitch><step>C</step><octave>4</octave></pitch><duration>3</duration><voice>1</voice><type>eighth</type><stem>up</stem><beam number="1">continue</beam><lyric number="1"><syllabic>single</syllabic><text>here</text></lyric><lyric number="2"><syllabic>begin</syllabic><text>re</text></lyric></note><note default-y="-40.00" default-x="320.98"><pitch><step>E</step><alter>-1</alter><octave>4</octave></pitch><duration>3</duration><voice>1</voice><type>eighth</type><stem>up</stem><beam number="1">end</beam><lyric number="1"><syllabic>begin</syllabic><text>in</text></lyric><lyric number="2"><syllabic>middle</syllabic><text>a</text></lyric></note></measure><measure width="268.97" number="6"><harmony print-frame="no"><root><root-step>F</root-step></root><kind text="m7">minor-seventh</kind></harmony><note default-y="-20.00" default-x="26.62"><pitch><step>B</step><alter>-1</alter><octave>4</octave></pitch><duration>12</duration><voice>1</voice><type>half</type><stem>down</stem><lyric number="1"><syllabic>end</syllabic><text>side</text></lyric><lyric number="2"><syllabic>end</syllabic><text>lize</text></lyric></note><harmony print-frame="no"><root><root-step>B</root-step><root-alter>-1</root-alter></root><kind text="7">dominant</kind></harmony><note default-y="-15.00" default-x="99.19"><pitch><step>C</step><octave>5</octave></pitch><duration>3</duration><voice>1</voice><type>eighth</type><stem>up</stem><beam number="1">begin</beam><lyric number="1"><syllabic>begin</syllabic><text>can</text></lyric><lyric number="2"><syllabic>single</syllabic><text>Smoke</text></lyric></note><note default-y="-20.00" default-x="157.08"><pitch><step>B</step><alter>-1</alter><octave>4</octave></pitch><duration>3</duration><voice>1</voice><type>eighth</type><stem>up</stem><beam number="1">continue</beam><lyric number="1"><syllabic>end</syllabic><text>not</text></lyric><lyric number="2"><syllabic>single</syllabic><text>Gets</text></lyric></note><note default-y="-55.00" default-x="194.31"><pitch><step>B</step><alter>-1</alter><octave>3</octave></pitch><duration>3</duration><voice>1</voice><type>eighth</type><stem>up</stem><beam number="1">continue</beam><lyric number="1"><syllabic>single</syllabic><text>be</text></lyric><lyric number="2"><syllabic>single</syllabic><text>In</text></lyric></note><note default-y="-50.00" default-x="234.39"><pitch><step>C</step><octave>4</octave></pitch><duration>3</duration><voice>1</voice><type>eighth</type><stem>up</stem><beam number="1">end</beam><lyric number="1"><syllabic>begin</syllabic><text>de</text></lyric><lyric number="2"><syllabic>single</syllabic><text>Your</text></lyric></note></measure><measure width="112.69" number="7"><barline location="left"><ending type="start" number="1"/></barline><harmony print-frame="no"><root><root-step>G</root-step></root><kind text="7">dominant</kind></harmony><harmony relative-x="1775.00" print-frame="no"><root><root-step>C</root-step></root><kind text="7">dominant</kind></harmony><note default-y="-30.00" default-x="35.29"><pitch><step>G</step><octave>4</octave></pitch><duration>24</duration><voice>1</voice><type>whole</type><lyric number="1"><syllabic>end</syllabic><text>nied."</text></lyric></note><barline location="right"><ending type="stop" number="1"/></barline></measure><measure width="111.92" number="8"><harmony print-frame="no"><root><root-step>F</root-step></root><kind text="m7">minor-seventh</kind></harmony><harmony relative-x="2512.50" print-frame="no"><root><root-step>B</root-step><root-alter>-1</root-alter></root><kind text="7">dominant</kind></harmony><note default-y="-35.00" default-x="15.00"><pitch><step>F</step><octave>4</octave></pitch><duration>24</duration><voice>1</voice><type>whole</type></note><barline location="right"><bar-style>light-heavy</bar-style><repeat direction="backward"/></barline></measure><measure width="118.86" number="9"><barline location="left"><ending type="start" number="2"/></barline><harmony print-frame="no"><root><root-step>E</root-step><root-alter>-1</root-alter></root><kind text="">major</kind></harmony><note default-y="-40.00" default-x="33.19"><pitch><step>E</step><alter>-1</alter><octave>4</octave></pitch><duration>24</duration><tie type="start"/><voice>1</voice><type>whole</type><notations><tied type="start"/></notations><lyric number="1"><syllabic>single</syllabic><text>Eyes.</text></lyric></note><barline location="right"><ending type="discontinue" number="2"/></barline></measure><measure width="63.80" number="10"><note default-y="-40.00" default-x="15.00"><pitch><step>E</step><alter>-1</alter><octave>4</octave></pitch><duration>24</duration><tie type="stop"/><voice>1</voice><type>whole</type><notations><tied type="stop"/></notations></note></measure><measure width="401.66" number="11"><print new-system="yes"><system-layout><system-margins><left-margin>47.28</left-margin><right-margin>0.00</right-margin></system-margins><system-distance>203.46</system-distance></system-layout></print><attributes><key><fifths>5</fifths><mode>major</mode></key></attributes><harmony print-frame="no"><root><root-step>B</root-step></root><kind text="Maj7">major-seventh</kind></harmony><note default-y="-45.00" default-x="122.08"><pitch><step>D</step><alter>1</alter><octave>4</octave></pitch><duration>3</duration><voice>1</voice><type>eighth</type><stem>up</stem><beam number="1">begin</beam><lyric number="1"><syllabic>single</syllabic><text>So</text></lyric></note><note default-y="-35.00" default-x="152.69"><pitch><step>F</step><alter>1</alter><octave>4</octave></pitch><duration>3</duration><voice>1</voice><type>eighth</type><stem>up</stem><beam number="1">end</beam><lyric number="1"><syllabic>single</syllabic><text>I</text></lyric></note><note default-y="-10.00" default-x="204.42"><pitch><step>D</step><alter>1</alter><octave>5</octave></pitch><duration>6</duration><tie type="start"/><voice>1</voice><type>quarter</type><stem>down</stem><notations><tied type="start"/></notations><lyric number="1"><syllabic>single</syllabic><text>chaffed</text></lyric></note><note default-y="-10.00" default-x="253.40"><pitch><step>D</step><alter>1</alter><octave>5</octave></pitch><duration>3</duration><tie type="stop"/><voice>1</voice><type>eighth</type><stem>down</stem><beam number="1">begin</beam><notations><tied type="stop"/></notations></note><note default-y="-25.00" default-x="294.10"><pitch><step>A</step><alter>1</alter><octave>4</octave></pitch><duration>3</duration><voice>1</voice><type>eighth</type><stem>down</stem><beam number="1">continue</beam><lyric number="1"><syllabic>single</syllabic><text>them</text></lyric></note><note default-y="-15.00" default-x="338.84"><pitch><step>C</step><alter>1</alter><octave>5</octave></pitch><duration>3</duration><voice>1</voice><type>eighth</type><stem>down</stem><beam number="1">continue</beam><lyric number="1"><syllabic>single</syllabic><text>and</text></lyric></note><note default-y="-20.00" default-x="369.45"><pitch><step>B</step><octave>4</octave></pitch><duration>3</duration><voice>1</voice><type>eighth</type><stem>down</stem><beam number="1">end</beam><lyric number="1"><syllabic>single</syllabic><text>I</text></lyric></note></measure><measure width="386.20" number="12"><harmony print-frame="no"><root><root-step>G</root-step><root-alter>1</root-alter></root><kind text="m7">minor-seventh</kind></harmony><note default-y="-45.00" default-x="24.74"><pitch><step>D</step><alter>1</alter><octave>4</octave></pitch><duration>3</duration><voice>1</voice><type>eighth</type><stem>up</stem><beam number="1">begin</beam><lyric number="1"><syllabic>single</syllabic><text>gay</text></lyric></note><note default-y="-35.00" default-x="62.42"><pitch><step>F</step><alter>1</alter><octave>4</octave></pitch><duration>3</duration><voice>1</voice><type>eighth</type><stem>up</stem><beam number="1">end</beam><lyric number="1"><syllabic>single</syllabic><text>ly</text></lyric></note><note default-y="-25.00" default-x="116.27"><pitch><step>A</step><alter>1</alter><octave>4</octave></pitch><duration>6</duration><tie type="start"/><voice>1</voice><type>quarter</type><stem>up</stem><notations><tied type="start"/></notations><lyric number="1"><syllabic>single</syllabic><text>laughed</text></lyric></note><note default-y="-25.00" default-x="170.68"><pitch><step>A</step><alter>1</alter><octave>4</octave></pitch><duration>3</duration><tie type="stop"/><voice>1</voice><type>eighth</type><stem>up</stem><beam number="1">begin</beam><notations><tied type="stop"/></notations></note><note default-y="-30.00" default-x="208.36"><pitch><step>G</step><alter>1</alter><octave>4</octave></pitch><duration>3</duration><voice>1</voice><type>eighth</type><stem>up</stem><beam number="1">end</beam><lyric number="1"><syllabic>single</syllabic><text>to</text></lyric></note><note default-y="-35.00" default-x="249.70"><pitch><step>F</step><alter>1</alter><octave>4</octave></pitch><duration>2</duration><voice>1</voice><type>eighth</type><time-modification><actual-notes>3</actual-notes><normal-notes>2</normal-notes></time-modification><stem>up</stem><beam number="1">begin</beam><notations><tuplet type="start" bracket="no"/></notations><lyric number="1"><syllabic>single</syllabic><text>think</text></lyric></note><note default-y="-65.00" default-x="298.21"><pitch><step>G</step><alter>1</alter><octave>3</octave></pitch><duration>2</duration><voice>1</voice><type>eighth</type><time-modification><actual-notes>3</actual-notes><normal-notes>2</normal-notes></time-modification><stem>up</stem><beam number="1">continue</beam><lyric number="1"><syllabic>single</syllabic><text>they</text></lyric></note><note default-y="-55.00" default-x="348.59"><pitch><step>B</step><octave>3</octave></pitch><duration>2</duration><voice>1</voice><type>eighth</type><time-modification><actual-notes>3</actual-notes><normal-notes>2</normal-notes></time-modification><stem>up</stem><beam number="1">end</beam><notations><tuplet type="stop"/></notations><lyric number="1"><syllabic>single</syllabic><text>could</text></lyric></note></measure><measure width="138.33" number="13"><harmony print-frame="no"><root><root-step>C</root-step></root><kind text="">major</kind></harmony><note default-y="-35.00" default-x="34.14"><pitch><step>F</step><alter>1</alter><octave>4</octave></pitch><duration>12</duration><voice>1</voice><type>half</type><stem>up</stem><lyric number="1"><syllabic>single</syllabic><text>doubt</text></lyric></note><harmony print-frame="no"><root><root-step>C</root-step></root><kind text="dim7">diminished-seventh</kind></harmony><note default-y="-35.00" default-x="85.44"><pitch><step>F</step><alter>1</alter><octave>4</octave></pitch><duration>12</duration><voice>1</voice><type>half</type><stem>up</stem><lyric number="1"><syllabic>single</syllabic><text>my</text></lyric></note></measure><measure width="103.63" number="14"><harmony print-frame="no"><root><root-step>C</root-step><root-alter>1</root-alter></root><kind text="m7">minor-seventh</kind></harmony><harmony relative-x="1587.50" print-frame="no"><root><root-step>F</root-step><root-alter>1</root-alter></root><kind text="7">dominant</kind></harmony><note default-y="-35.00" default-x="30.69"><pitch><step>F</step><alter>1</alter><octave>4</octave></pitch><duration>24</duration><voice>1</voice><type>whole</type><lyric number="1"><syllabic>single</syllabic><text>love.</text></lyric></note></measure><measure width="417.19" number="15"><print new-system="yes"><system-layout><system-margins><left-margin>47.28</left-margin><right-margin>-0.00</right-margin></system-margins><system-distance>177.30</system-distance></system-layout></print><harmony print-frame="no"><root><root-step>B</root-step></root><kind text="Maj7">major-seventh</kind></harmony><note default-y="-45.00" default-x="125.21"><pitch><step>D</step><alter>1</alter><octave>4</octave></pitch><duration>3</duration><voice>1</voice><type>eighth</type><stem>up</stem><beam number="1">begin</beam><lyric number="1"><syllabic>single</syllabic><text>Yet</text></lyric></note><note default-y="-35.00" default-x="162.53"><pitch><step>F</step><alter>1</alter><octave>4</octave></pitch><duration>3</duration><voice>1</voice><type>eighth</type><stem>up</stem><beam number="1">end</beam><lyric number="1"><syllabic>begin</syllabic><text>to</text></lyric></note><note default-y="-10.00" default-x="199.86"><pitch><step>D</step><alter>1</alter><octave>5</octave></pitch><duration>6</duration><tie type="start"/><voice>1</voice><type>quarter</type><stem>down</stem><notations><tied type="start"/></notations><lyric number="1"><syllabic>end</syllabic><text>day</text></lyric></note><note default-y="-10.00" default-x="259.58"><pitch><step>D</step><alter>1</alter><octave>5</octave></pitch><duration>3</duration><tie type="stop"/><voice>1</voice><type>eighth</type><stem>down</stem><beam number="1">begin</beam><notations><tied type="stop"/></notations></note><note default-y="-25.00" default-x="296.91"><pitch><step>A</step><alter>1</alter><octave>4</octave></pitch><duration>3</duration><voice>1</voice><type>eighth</type><stem>down</stem><beam number="1">continue</beam><lyric number="1"><syllabic>single</syllabic><text>my</text></lyric></note><note default-y="-15.00" default-x="336.65"><pitch><step>C</step><alter>1</alter><octave>5</octave></pitch><duration>3</duration><voice>1</voice><type>eighth</type><stem>down</stem><beam number="1">continue</beam><lyric number="1"><syllabic>single</syllabic><text>love</text></lyric></note><note default-y="-20.00" default-x="378.26"><pitch><step>B</step><octave>4</octave></pitch><duration>3</duration><voice>1</voice><type>eighth</type><stem>down</stem><beam number="1">end</beam><lyric number="1"><syllabic>single</syllabic><text>had</text></lyric></note></measure><measure width="314.82" number="16"><harmony print-frame="no"><root><root-step>A</root-step><root-alter>-1</root-alter></root><kind text="m7">minor-seventh</kind></harmony><note default-y="-40.00" default-x="34.76"><pitch><step>E</step><alter>-1</alter><octave>4</octave></pitch><duration>3</duration><voice>1</voice><type>eighth</type><accidental>flat</accidental><stem>up</stem><beam number="1">begin</beam><lyric number="1"><syllabic>single</syllabic><text>flown</text></lyric></note><note default-y="-30.00" default-x="76.14"><pitch><step>G</step><alter>-1</alter><octave>4</octave></pitch><duration>3</duration><voice>1</voice><type>eighth</type><accidental>flat</accidental><stem>up</stem><beam number="1">end</beam><lyric number="1"><syllabic>begin</syllabic><text>a</text></lyric></note><note default-y="-20.00" default-x="113.08"><pitch><step>B</step><alter>-1</alter><octave>4</octave></pitch><duration>6</duration><tie type="start"/><voice>1</voice><type>quarter</type><accidental>flat</accidental><stem>down</stem><notations><tied type="start"/></notations><lyric number="1"><syllabic>end</syllabic><text>way</text></lyric></note><harmony print-frame="no"><root><root-step>F</root-step></root><kind text="m7">minor-seventh</kind><bass><bass-step>B</bass-step><bass-alter>-1</bass-alter></bass></harmony><note default-y="-20.00" default-x="168.87"><pitch><step>B</step><alter>-1</alter><octave>4</octave></pitch><duration>3</duration><tie type="stop"/><voice>1</voice><type>eighth</type><stem>up</stem><beam number="1">begin</beam><notations><tied type="stop"/></notations></note><note default-y="-25.00" default-x="203.75"><pitch><step>A</step><alter>-1</alter><octave>4</octave></pitch><duration>3</duration><voice>1</voice><type>eighth</type><accidental>flat</accidental><stem>up</stem><beam number="1">continue</beam><lyric number="1"><syllabic>single</syllabic><text>I</text></lyric></note><harmony print-frame="no"><root><root-step>B</root-step><root-alter>-1</root-alter></root><kind text="7">dominant</kind></harmony><note default-y="-30.00" default-x="238.62"><pitch><step>G</step><octave>4</octave></pitch><duration>3</duration><voice>1</voice><type>eighth</type><accidental>natural</accidental><stem>up</stem><beam number="1">continue</beam><lyric number="1"><syllabic>single</syllabic><text>am</text></lyric></note><note default-y="-35.00" default-x="278.35"><pitch><step>F</step><octave>4</octave></pitch><duration>3</duration><voice>1</voice><type>eighth</type><accidental>natural</accidental><stem>up</stem><beam number="1">end</beam><lyric number="1"><syllabic>single</syllabic><text>with</text></lyric></note></measure><measure width="191.72" number="17"><attributes><key><fifths>-3</fifths><mode>major</mode></key></attributes><harmony print-frame="no"><root><root-step>E</root-step><root-alter>-1</root-alter></root><kind text="Maj7">major-seventh</kind></harmony><note default-y="-30.00" default-x="71.99"><pitch><step>G</step><octave>4</octave></pitch><duration>12</duration><voice>1</voice><type>half</type><stem>up</stem><lyric number="1"><syllabic>single</syllabic><text>out</text></lyric></note><harmony print-frame="no"><root><root-step>C</root-step></root><kind text="7b9">dominant</kind><degree><degree-value>9</degree-value><degree-alter>-1</degree-alter><degree-type>add</degree-type></degree></harmony><note default-y="-30.00" default-x="131.05"><pitch><step>G</step><octave>4</octave></pitch><duration>12</duration><voice>1</voice><type>half</type><stem>up</stem><lyric number="1"><syllabic>single</syllabic><text>my</text></lyric></note></measure><measure width="106.10" number="18"><harmony print-frame="no"><root><root-step>F</root-step></root><kind text="m7">minor-seventh</kind></harmony><harmony relative-x="1425.00" print-frame="no"><root><root-step>B</root-step><root-alter>-1</root-alter></root><kind text="9">dominant-ninth</kind></harmony><note default-y="-35.00" default-x="30.69"><pitch><step>F</step><octave>4</octave></pitch><duration>24</duration><voice>1</voice><type>whole</type><lyric number="1"><syllabic>single</syllabic><text>love.</text></lyric></note></measure><measure width="392.17" number="19"><print new-system="yes"><system-layout><system-margins><left-margin>47.28</left-margin><right-margin>0.00</right-margin></system-margins><system-distance>177.30</system-distance></system-layout></print><harmony print-frame="no"><root><root-step>E</root-step><root-alter>-1</root-alter></root><kind text="">major</kind></harmony><note default-y="-40.00" default-x="110.17"><pitch><step>E</step><alter>-1</alter><octave>4</octave></pitch><duration>12</duration><voice>1</voice><type>half</type><stem>up</stem><lyric number="1"><syllabic>single</syllabic><text>Now</text></lyric></note><harmony print-frame="no"><root><root-step>G</root-step></root><kind text="m7">minor-seventh</kind></harmony><note default-y="-45.00" default-x="203.34"><pitch><step>D</step><octave>4</octave></pitch><duration>3</duration><voice>1</voice><type>eighth</type><stem>up</stem><beam number="1">begin</beam><lyric number="1"><syllabic>begin</syllabic><text>laugh</text></lyric></note><note default-y="-35.00" default-x="248.72"><pitch><step>F</step><octave>4</octave></pitch><duration>3</duration><voice>1</voice><type>eighth</type><stem>up</stem><beam number="1">continue</beam><lyric number="1"><syllabic>end</syllabic><text>ing</text></lyric></note><harmony print-frame="no"><root><root-step>G</root-step><root-alter>-1</root-alter></root><kind text="dim7">diminished-seventh</kind></harmony><note default-y="-40.00" default-x="300.35"><pitch><step>E</step><alter>-1</alter><octave>4</octave></pitch><duration>3</duration><voice>1</voice><type>eighth</type><stem>up</stem><beam number="1">continue</beam><lyric number="1"><syllabic>single</syllabic><text>friends</text></lyric></note><note default-y="-50.00" default-x="348.23"><pitch><step>C</step><octave>4</octave></pitch><duration>3</duration><voice>1</voice><type>eighth</type><stem>up</stem><beam number="1">end</beam><lyric number="1"><syllabic>begin</syllabic><text>de</text></lyric></note></measure><measure width="251.61" number="20"><harmony print-frame="no"><root><root-step>F</root-step></root><kind text="m7">minor-seventh</kind></harmony><note default-y="-25.00" default-x="28.80"><pitch><step>A</step><alter>-1</alter><octave>4</octave></pitch><duration>12</duration><voice>1</voice><type>half</type><stem>up</stem><lyric number="1"><syllabic>single</syllabic><text>ride,</text></lyric></note><harmony print-frame="no"><root><root-step>B</root-step><root-alter>-1</root-alter></root><kind text="7">dominant</kind></harmony><note default-y="-30.00" default-x="107.17"><pitch><step>G</step><octave>4</octave></pitch><duration>3</duration><voice>1</voice><type>eighth</type><stem>up</stem><beam number="1">begin</beam><lyric number="1"><syllabic>single</syllabic><text>tears</text></lyric></note><note default-y="-20.00" default-x="142.79"><pitch><step>B</step><alter>-1</alter><octave>4</octave></pitch><duration>3</duration><voice>1</voice><type>eighth</type><stem>up</stem><beam number="1">continue</beam><lyric number="1"><syllabic>single</syllabic><text>I</text></lyric></note><note default-y="-25.00" default-x="178.41"><pitch><step>A</step><alter>-1</alter><octave>4</octave></pitch><duration>3</duration><voice>1</voice><type>eighth</type><stem>up</stem><beam number="1">continue</beam><lyric number="1"><syllabic>begin</syllabic><text>can</text></lyric></note><note default-y="-35.00" default-x="214.38"><pitch><step>F</step><octave>4</octave></pitch><duration>3</duration><voice>1</voice><type>eighth</type><stem>up</stem><beam number="1">end</beam><lyric number="1"><syllabic>end</syllabic><text>not</text></lyric></note></measure><measure width="124.91" number="21"><harmony print-frame="no"><root><root-step>E</root-step><root-alter>-1</root-alter></root><kind text="">major</kind></harmony><harmony relative-x="1287.50" print-frame="no"><root><root-step>G</root-step></root><kind text="7#5">augmented-seventh</kind></harmony><note default-y="-5.00" default-x="30.69"><pitch><step>E</step><alter>-1</alter><octave>5</octave></pitch><duration>24</duration><tie type="start"/><voice>1</voice><type>whole</type><notations><tied type="start"/></notations><lyric number="1"><syllabic>single</syllabic><text>hide,</text></lyric></note></measure><measure width="261.13" number="22"><harmony print-frame="no"><root><root-step>A</root-step><root-alter>-1</root-alter></root><kind text="Maj7">major-seventh</kind></harmony><note default-y="-5.00" default-x="15.00"><pitch><step>E</step><alter>-1</alter><octave>5</octave></pitch><duration>12</duration><tie type="stop"/><voice>1</voice><type>half</type><stem>down</stem><notations><tied type="stop"/></notations></note><harmony print-frame="no"><root><root-step>A</root-step></root><kind text="dim7">diminished-seventh</kind></harmony><note default-y="0.00" default-x="96.36"><pitch><step>F</step><octave>5</octave></pitch><duration>3</duration><voice>1</voice><type>eighth</type><stem>down</stem><beam number="1">begin</beam><lyric number="1"><syllabic>single</syllabic><text>so</text></lyric></note><note default-y="-5.00" default-x="133.34"><pitch><step>E</step><alter>-1</alter><octave>5</octave></pitch><duration>3</duration><voice>1</voice><type>eighth</type><stem>down</stem><beam number="1">continue</beam><lyric number="1"><syllabic>single</syllabic><text>I</text></lyric></note><note default-y="-20.00" default-x="175.93"><pitch><step>B</step><octave>4</octave></pitch><duration>3</duration><voice>1</voice><type>eighth</type><accidental>natural</accidental><stem>down</stem><beam number="1">continue</beam><lyric number="1"><syllabic>single</syllabic><text>smile</text></lyric></note><note default-y="-15.00" default-x="222.55"><pitch><step>C</step><octave>5</octave></pitch><duration>3</duration><voice>1</voice><type>eighth</type><stem>down</stem><beam number="1">end</beam><lyric number="1"><syllabic>single</syllabic><text>and</text></lyric></note></measure><measure width="413.13" number="23"><print new-system="yes"><system-layout><system-margins><left-margin>47.28</left-margin><right-margin>0.00</right-margin></system-margins><system-distance>177.30</system-distance></system-layout></print><harmony print-frame="no"><root><root-step>G</root-step></root><kind text="m7">minor-seventh</kind></harmony><note default-y="-10.00" default-x="105.30"><pitch><step>D</step><octave>5</octave></pitch><duration>12</duration><voice>1</voice><type>half</type><stem>down</stem><lyric number="1"><syllabic>single</syllabic><text>say,</text></lyric></note><harmony print-frame="no"><root><root-step>C</root-step></root><kind text="m7">minor-seventh</kind></harmony><note default-y="-15.00" default-x="197.41"><pitch><step>C</step><octave>5</octave></pitch><duration>3</duration><voice>1</voice><type>eighth</type><stem>down</stem><beam number="1">begin</beam><lyric number="1"><syllabic>single</syllabic><text>"When</text></lyric></note><note default-y="-20.00" default-x="246.20"><pitch><step>B</step><alter>-1</alter><octave>4</octave></pitch><duration>3</duration><voice>1</voice><type>eighth</type><stem>down</stem><beam number="1">end</beam><lyric number="1"><syllabic>single</syllabic><text>a</text></lyric></note><note default-y="-50.00" default-x="294.98"><pitch><step>C</step><octave>4</octave></pitch><duration>2</duration><voice>1</voice><type>eighth</type><time-modification><actual-notes>3</actual-notes><normal-notes>2</normal-notes></time-modification><stem>up</stem><beam number="1">begin</beam><notations><tuplet type="start" bracket="no"/></notations><lyric number="1"><syllabic>begin</syllabic><text>love</text></lyric></note><note default-y="-40.00" default-x="331.09"><pitch><step>E</step><alter>-1</alter><octave>4</octave></pitch><duration>2</duration><voice>1</voice><type>eighth</type><time-modification><actual-notes>3</actual-notes><normal-notes>2</normal-notes></time-modification><stem>up</stem><beam number="1">continue</beam><lyric number="1"><syllabic>end</syllabic><text>ly</text></lyric></note><note default-y="-30.00" default-x="374.91"><pitch><step>G</step><octave>4</octave></pitch><duration>2</duration><voice>1</voice><type>eighth</type><time-modification><actual-notes>3</actual-notes><normal-notes>2</normal-notes></time-modification><stem>up</stem><beam number="1">end</beam><notations><tuplet type="stop"/></notations><lyric number="1"><syllabic>single</syllabic><text>flame</text></lyric></note></measure><measure width="313.28" number="24"><harmony print-frame="no"><root><root-step>F</root-step></root><kind text="m7">minor-seventh</kind></harmony><note default-y="-20.00" default-x="29.44"><pitch><step>B</step><alter>-1</alter><octave>4</octave></pitch><duration>12</duration><voice>1</voice><type>half</type><stem>down</stem><lyric number="1"><syllabic>single</syllabic><text>dies,</text></lyric></note><harmony print-frame="no"><root><root-step>B</root-step><root-alter>-1</root-alter></root><kind text="7">dominant</kind></harmony><note default-y="-15.00" default-x="124.36"><pitch><step>C</step><octave>5</octave></pitch><duration>3</duration><voice>1</voice><type>eighth</type><stem>up</stem><beam number="1">begin</beam><lyric number="1"><syllabic>single</syllabic><text>Smoke</text></lyric></note><note default-y="-20.00" default-x="182.25"><pitch><step>B</step><alter>-1</alter><octave>4</octave></pitch><duration>3</duration><voice>1</voice><type>eighth</type><stem>up</stem><beam number="1">continue</beam><lyric number="1"><syllabic>single</syllabic><text>Gets</text></lyric></note><note default-y="-55.00" default-x="225.39"><pitch><step>B</step><alter>-1</alter><octave>3</octave></pitch><duration>3</duration><voice>1</voice><type>eighth</type><stem>up</stem><beam number="1">continue</beam><lyric number="1"><syllabic>single</syllabic><text>In</text></lyric></note><note default-y="-50.00" default-x="268.54"><pitch><step>C</step><octave>4</octave></pitch><duration>3</duration><voice>1</voice><type>eighth</type><stem>up</stem><beam number="1">end</beam><lyric number="1"><syllabic>single</syllabic><text>Your</text></lyric></note></measure><measure width="149.13" number="25"><harmony print-frame="no"><root><root-step>E</root-step><root-alter>-1</root-alter></root><kind text="6">major-sixth</kind></harmony><harmony relative-x="825.00" print-frame="no"><root><root-step>D</root-step><root-alter>-1</root-alter></root><kind text="6">major-sixth</kind></harmony><harmony relative-x="3162.50" print-frame="no"><root><root-step>D</root-step></root><kind text="6">major-sixth</kind></harmony><note default-y="-40.00" default-x="33.19"><pitch><step>E</step><alter>-1</alter><octave>4</octave></pitch><duration>24</duration><tie type="start"/><voice>1</voice><type>whole</type><notations><tied type="start"/></notations><lyric number="1"><syllabic>single</syllabic><text>Eyes.</text></lyric></note></measure><measure width="154.28" number="26"><harmony relative-x="125.00" print-frame="no"><root><root-step>E</root-step><root-alter>-1</root-alter></root><kind text="6">major-sixth</kind></harmony><note default-y="-40.00" default-x="15.00"><pitch><step>E</step><alter>-1</alter><octave>4</octave></pitch><duration>18</duration><tie type="stop"/><voice>1</voice><type>half</type><dot/><stem>up</stem><notations><tied type="stop"/></notations></note><note><rest/><duration>6</duration><voice>1</voice><type>quarter</type></note><barline location="right"><bar-style>light-heavy</bar-style></barline></measure></part></score-partwise>