<score-partwise version="2.0"><work><work-number/><work-title/></work><movement-number/><movement-title>How High the Moon</movement-title><identification><creator type="composer">Morgan Lewis</creator><creator type="poet">Nancy Hamilton</creator><rights>All Rights Reserved</rights><encoding><software>MuseScore 0.9.5</software><encoding-date>2009-12-13</encoding-date><software>ProxyMusic 2.0 c</software></encoding><source>http://wikifonia.org/node/3675/revisions/4907/view</source></identification><defaults><scaling><millimeters>7.056</millimeters><tenths>40</tenths></scaling><page-layout><page-height>1683.67</page-height><page-width>1190.48</page-width><page-margins type="both"><left-margin>56.6893</left-margin><right-margin>56.6893</right-margin><top-margin>56.6893</top-margin><bottom-margin>113.379</bottom-margin></page-margins></page-layout></defaults><credit page="1"><credit-words font-size="24" default-y="1626.98" default-x="595.238" justify="center" valign="top">How High the Moon</credit-words></credit><part-list><score-part id="P1"><part-name>Voice</part-name><score-instrument id="P1-I3"><instrument-name>Voice</instrument-name></score-instrument><midi-instrument id="P1-I3"><midi-channel>1</midi-channel><midi-program>53</midi-program></midi-instrument></score-part></part-list><part id="P1"><measure width="404.31" number="1"><print><system-layout><system-margins><left-margin>67.42</left-margin><right-margin>-0.00</right-margin></system-margins><top-system-distance>204.31</top-system-distance></system-layout></print><attributes><divisions>2</divisions><key><fifths>1</fifths><mode>major</mode></key><time symbol="cut"><beats>2</beats><beat-type>2</beat-type></time><clef><sign>G</sign><line>2</line></clef></attributes><note><rest/><duration>2</duration><voice>1</voice><type>quarter</type></note><note default-y="-45.00" default-x="165.91"><pitch><step>D</step><octave>4</octave></pitch><duration>2</duration><voice>1</voice><type>quarter</type><stem>up</stem><lyric number="1"><syllabic>begin</syllabic><text>Some</text></lyric></note><note default-y="-30.00" default-x="240.33"><pitch><step>G</step><octave>4</octave></pitch><duration>2</duration><voice>1</voice><type>quarter</type><stem>up</stem><lyric number="1"><syllabic>end</syllabic><text>where</text></lyric></note><note default-y="-25.00" default-x="314.74"><pitch><step>A</step><octave>4</octave></pitch><duration>2</duration><voice>1</voice><type>quarter</type><stem>up</stem><lyric number="1"><syllabic>single</syllabic><text>there's</text></lyric></note></measure><measure width="183.21" number="2"><barline location="left"><bar-style>heavy-light</bar-style><repeat direction="forward"/></barline><harmony print-frame="no"><root><root-step>G</root-step></root><kind text="Maj7">major-seventh</kind></harmony><note default-y="-25.00" default-x="27.25"><pitch><step>A</step><octave>4</octave></pitch><duration>4</duration><voice>1</voice><type>half</type><stem>up</stem><lyric number="1"><syllabic>begin</syllabic><text>mus</text></lyric></note><note default-y="-20.00" default-x="104.43"><pitch><step>B</step><octave>4</octave></pitch><duration>4</duration><tie type="start"/><voice>1</voice><type>half</type><stem>down</stem><notations><tied type="start"/></notations><lyric number="1"><syllabic>end</syllabic><text>ic,</text></lyric></note></measure><measure width="260.03" number="3"><note default-y="-20.00" default-x="15.00"><pitch><step>B</step><octave>4</octave></pitch><duration>2</duration><tie type="stop"/><voice>1</voice><type>quarter</type><stem>down</stem><notations><tied type="stop"/></notations></note><note default-y="-45.00" default-x="75.86"><pitch><step>D</step><octave>4</octave></pitch><duration>2</duration><voice>1</voice><type>quarter</type><stem>up</stem><lyric number="1"><syllabic>single</syllabic><text>how</text></lyric></note><note default-y="-30.00" default-x="136.71"><pitch><step>G</step><octave>4</octave></pitch><duration>2</duration><voice>1</voice><type>quarter</type><stem>up</stem><lyric number="1"><syllabic>single</syllabic><text>faint</text></lyric></note><note default-y="-25.00" default-x="197.57"><pitch><step>A</step><octave>4</octave></pitch><duration>2</duration><voice>1</voice><type>quarter</type><stem>up</stem><lyric number="1"><syllabic>single</syllabic><text>the</text></lyric></note></measure><measure width="162.12" number="4"><harmony print-frame="no"><root><root-step>G</root-step></root><kind text="m7">minor-seventh</kind></harmony><note default-y="-20.00" default-x="31.63"><pitch><step>B</step><alter>-1</alter><octave>4</octave></pitch><duration>8</duration><tie type="start"/><voice>1</voice><type>whole</type><accidental>flat</accidental><notations><tied type="start"/></notations><lyric number="1"><syllabic>single</syllabic><text>tune!</text></lyric></note></measure><measure width="337.23" number="5"><print new-system="yes"><system-layout><system-margins><left-margin>0.00</left-margin><right-margin>-0.00</right-margin></system-margins><system-distance>129.51</system-distance></system-layout></print><harmony print-frame="no"><root><root-step>C</root-step></root><kind text="7">dominant</kind></harmony><note default-y="-20.00" default-x="69.22"><pitch><step>B</step><alter>-1</alter><octave>4</octave></pitch><duration>2</duration><tie type="stop"/><voice>1</voice><type>quarter</type><accidental>flat</accidental><stem>down</stem><notations><tied type="stop"/></notations></note><note default-y="-50.00" default-x="135.82"><pitch><step>C</step><octave>4</octave></pitch><duration>2</duration><voice>1</voice><type>quarter</type><stem>up</stem><lyric number="1"><syllabic>begin</syllabic><text>Some</text></lyric></note><note default-y="-35.00" default-x="202.42"><pitch><step>F</step><octave>4</octave></pitch><duration>2</duration><voice>1</voice><type>quarter</type><accidental>natural</accidental><stem>up</stem><lyric number="1"><syllabic>end</syllabic><text>where</text></lyric></note><note default-y="-30.00" default-x="269.03"><pitch><step>G</step><octave>4</octave></pitch><duration>2</duration><voice>1</voice><type>quarter</type><stem>up</stem><lyric number="1"><syllabic>single</syllabic><text>there's</text></lyric></note></measure><measure width="157.55" number="6"><harmony print-frame="no"><root><root-step>F</root-step></root><kind text="Maj7">major-seventh</kind></harmony><note default-y="-30.00" default-x="29.74"><pitch><step>G</step><octave>4</octave></pitch><duration>4</duration><voice>1</voice><type>half</type><stem>up</stem><lyric number="1"><syllabic>begin</syllabic><text>heav</text></lyric></note><note default-y="-25.00" default-x="92.85"><pitch><step>A</step><octave>4</octave></pitch><duration>4</duration><tie type="start"/><voice>1</voice><type>half</type><stem>up</stem><notations><tied type="start"/></notations><lyric number="1"><syllabic>end</syllabic><text>en,</text></lyric></note></measure><measure width="225.15" number="7"><note default-y="-25.00" default-x="15.00"><pitch><step>A</step><octave>4</octave></pitch><duration>2</duration><tie type="stop"/><voice>1</voice><type>quarter</type><stem>up</stem><notations><tied type="stop"/></notations></note><note default-y="-50.00" default-x="67.14"><pitch><step>C</step><octave>4</octave></pitch><duration>2</duration><voice>1</voice><type>quarter</type><stem>up</stem><lyric number="1"><syllabic>single</syllabic><text>how</text></lyric></note><note default-y="-35.00" default-x="119.28"><pitch><step>F</step><octave>4</octave></pitch><duration>2</duration><voice>1</voice><type>quarter</type><accidental>natural</accidental><stem>up</stem><lyric number="1"><syllabic>single</syllabic><text>high</text></lyric></note><note default-y="-30.00" default-x="171.41"><pitch><step>G</step><octave>4</octave></pitch><duration>2</duration><voice>1</voice><type>quarter</type><stem>up</stem><lyric number="1"><syllabic>single</syllabic><text>the</text></lyric></note></measure><measure width="141.01" number="8"><harmony print-frame="no"><root><root-step>F</root-step></root><kind text="m7">minor-seventh</kind></harmony><note default-y="-25.00" default-x="37.89"><pitch><step>A</step><alter>-1</alter><octave>4</octave></pitch><duration>8</duration><tie type="start"/><voice>1</voice><type>whole</type><accidental>flat</accidental><notations><tied type="start"/></notations><lyric number="1"><syllabic>single</syllabic><text>moon!</text></lyric></note></measure><measure width="216.16" number="9"><harmony print-frame="no"><root><root-step>B</root-step><root-alter>-1</root-alter></root><kind text="7">dominant</kind></harmony><note default-y="-25.00" default-x="15.00"><pitch><step>A</step><alter>-1</alter><octave>4</octave></pitch><duration>2</duration><tie type="stop"/><voice>1</voice><type>quarter</type><accidental>flat</accidental><stem>up</stem><notations><tied type="stop"/></notations></note><note default-y="-45.00" default-x="64.89"><pitch><step>D</step><octave>4</octave></pitch><duration>2</duration><voice>1</voice><type>quarter</type><stem>up</stem><lyric number="1"><syllabic>single</syllabic><text>There</text></lyric></note><note default-y="-40.00" default-x="114.78"><pitch><step>E</step><alter>-1</alter><octave>4</octave></pitch><duration>2</duration><voice>1</voice><type>quarter</type><accidental>flat</accidental><stem>up</stem><lyric number="1"><syllabic>single</syllabic><text>is</text></lyric></note><note default-y="-35.00" default-x="164.67"><pitch><step>F</step><octave>4</octave></pitch><duration>2</duration><voice>1</voice><type>quarter</type><accidental>natural</accidental><stem>up</stem><lyric number="1"><syllabic>single</syllabic><text>no</text></lyric></note></measure><measure width="354.52" number="10"><print new-system="yes"><system-layout><system-margins><left-margin>0.00</left-margin><right-margin>-0.00</right-margin></system-margins><system-distance>129.51</system-distance></system-layout></print><harmony print-frame="no"><root><root-step>E</root-step><root-alter>-1</root-alter></root><kind text="Maj7">major-seventh</kind></harmony><note default-y="-30.00" default-x="95.86"><pitch><step>G</step><octave>4</octave></pitch><duration>2</duration><voice>1</voice><type>quarter</type><stem>up</stem><lyric number="1"><syllabic>single</syllabic><text>moon</text></lyric></note><note default-y="-30.00" default-x="160.12"><pitch><step>G</step><octave>4</octave></pitch><duration>2</duration><voice>1</voice><type>quarter</type><stem>up</stem><lyric number="1"><syllabic>begin</syllabic><text>a</text></lyric></note><note default-y="-30.00" default-x="224.39"><pitch><step>G</step><octave>4</octave></pitch><duration>2</duration><voice>1</voice><type>quarter</type><stem>up</stem><lyric number="1"><syllabic>end</syllabic><text>bove</text></lyric></note><note default-y="-30.00" default-x="288.66"><pitch><step>G</step><octave>4</octave></pitch><duration>2</duration><voice>1</voice><type>quarter</type><stem>up</stem><lyric number="1"><syllabic>single</syllabic><text>when</text></lyric></note></measure><measure width="293.07" number="11"><harmony print-frame="no"><root><root-step>A</root-step></root><kind text="m7b5">half-diminished</kind></harmony><note default-y="-30.00" default-x="27.87"><pitch><step>G</step><octave>4</octave></pitch><duration>2</duration><voice>1</voice><type>quarter</type><stem>up</stem><lyric number="1"><syllabic>single</syllabic><text>love</text></lyric></note><note default-y="-30.00" default-x="86.36"><pitch><step>G</step><octave>4</octave></pitch><duration>1</duration><voice>1</voice><type>eighth</type><stem>up</stem><beam number="1">begin</beam><lyric number="1"><syllabic>single</syllabic><text>is</text></lyric></note><note default-y="-25.00" default-x="122.92"><pitch><step>A</step><octave>4</octave></pitch><duration>1</duration><tie type="start"/><voice>1</voice><type>eighth</type><stem>up</stem><beam number="1">end</beam><notations><tied type="start"/></notations><lyric number="1"><syllabic>begin</syllabic><text>far</text></lyric></note><harmony print-frame="no"><root><root-step>D</root-step></root><kind text="7">dominant</kind></harmony><note default-y="-25.00" default-x="159.48"><pitch><step>A</step><octave>4</octave></pitch><duration>1</duration><tie type="stop"/><voice>1</voice><type>eighth</type><stem>up</stem><beam number="1">begin</beam><notations><tied type="stop"/></notations></note><note default-y="-30.00" default-x="196.04"><pitch><step>G</step><octave>4</octave></pitch><duration>1</duration><voice>1</voice><type>eighth</type><stem>up</stem><beam number="1">end</beam><lyric number="1"><syllabic>middle</syllabic><text>a</text></lyric></note><note default-y="-25.00" default-x="232.98"><pitch><step>A</step><octave>4</octave></pitch><duration>2</duration><voice>1</voice><type>quarter</type><stem>up</stem><lyric number="1"><syllabic>end</syllabic><text>way</text></lyric></note></measure><measure width="149.96" number="12"><harmony print-frame="no"><root><root-step>G</root-step></root><kind text="m7">minor-seventh</kind></harmony><note default-y="-20.00" default-x="25.68"><pitch><step>B</step><alter>-1</alter><octave>4</octave></pitch><duration>8</duration><tie type="start"/><voice>1</voice><type>whole</type><accidental>flat</accidental><notations><tied type="start"/></notations><lyric number="1"><syllabic>single</syllabic><text>too,</text></lyric></note></measure><measure width="279.54" number="13"><harmony print-frame="no"><root><root-step>A</root-step></root><kind text="m7b5">half-diminished</kind></harmony><note default-y="-20.00" default-x="15.00"><pitch><step>B</step><alter>-1</alter><octave>4</octave></pitch><duration>3</duration><tie type="stop"/><voice>1</voice><type>quarter</type><dot/><accidental>flat</accidental><stem>down</stem><notations><tied type="stop"/></notations></note><note default-y="-25.00" default-x="90.91"><pitch><step>A</step><octave>4</octave></pitch><duration>1</duration><tie type="start"/><voice>1</voice><type>eighth</type><stem>up</stem><notations><tied type="start"/></notations><lyric number="1"><syllabic>single</syllabic><text>'till</text></lyric></note><harmony print-frame="no"><root><root-step>D</root-step></root><kind text="7">dominant</kind></harmony><note default-y="-25.00" default-x="129.82"><pitch><step>A</step><octave>4</octave></pitch><duration>1</duration><tie type="stop"/><voice>1</voice><type>eighth</type><stem>up</stem><beam number="1">begin</beam><notations><tied type="stop"/></notations></note><note default-y="-30.00" default-x="168.73"><pitch><step>G</step><octave>4</octave></pitch><duration>1</duration><voice>1</voice><type>eighth</type><stem>up</stem><beam number="1">end</beam><lyric number="1"><syllabic>single</syllabic><text>it</text></lyric></note><note default-y="-25.00" default-x="215.69"><pitch><step>A</step><octave>4</octave></pitch><duration>2</duration><voice>1</voice><type>quarter</type><stem>up</stem><lyric number="1"><syllabic>single</syllabic><text>comes</text></lyric></note></measure><measure width="183.24" number="14"><print new-system="yes"><system-layout><system-margins><left-margin>0.00</left-margin><right-margin>-0.00</right-margin></system-margins><system-distance>129.51</system-distance></system-layout></print><harmony print-frame="no"><root><root-step>G</root-step></root><kind text="Maj9">major-ninth</kind></harmony><note default-y="-20.00" default-x="87.71"><pitch><step>B</step><octave>4</octave></pitch><duration>8</duration><tie type="start"/><voice>1</voice><type>whole</type><notations><tied type="start"/></notations><lyric number="1"><syllabic>single</syllabic><text>true</text></lyric></note></measure><measure width="228.04" number="15"><harmony print-frame="no"><root><root-step>A</root-step></root><kind text="m">minor</kind></harmony><note default-y="-20.00" default-x="15.00"><pitch><step>B</step><octave>4</octave></pitch><duration>2</duration><tie type="stop"/><voice>1</voice><type>quarter</type><stem>down</stem><notations><tied type="stop"/></notations></note><note default-y="-25.00" default-x="67.86"><pitch><step>A</step><octave>4</octave></pitch><duration>2</duration><voice>1</voice><type>quarter</type><stem>up</stem><lyric number="1"><syllabic>single</syllabic><text>that</text></lyric></note><harmony print-frame="no"><root><root-step>D</root-step></root><kind text="7">dominant</kind></harmony><note default-y="-20.00" default-x="120.72"><pitch><step>B</step><octave>4</octave></pitch><duration>2</duration><voice>1</voice><type>quarter</type><stem>down</stem><lyric number="1"><syllabic>single</syllabic><text>you</text></lyric></note><note default-y="-15.00" default-x="173.58"><pitch><step>C</step><octave>5</octave></pitch><duration>2</duration><voice>1</voice><type>quarter</type><stem>down</stem><lyric number="1"><syllabic>single</syllabic><text>love</text></lyric></note></measure><measure width="206.78" number="16"><harmony print-frame="no"><root><root-step>B</root-step></root><kind text="m7">minor-seventh</kind></harmony><note default-y="-10.00" default-x="22.23"><pitch><step>D</step><octave>5</octave></pitch><duration>2</duration><voice>1</voice><type>quarter</type><stem>down</stem><lyric number="1"><syllabic>single</syllabic><text>me</text></lyric></note><note default-y="-10.00" default-x="67.97"><pitch><step>D</step><octave>5</octave></pitch><duration>2</duration><voice>1</voice><type>quarter</type><stem>down</stem><lyric number="1"><syllabic>single</syllabic><text>as</text></lyric></note><harmony print-frame="no"><root><root-step>B</root-step><root-alter>-1</root-alter></root><kind text="7">dominant</kind></harmony><note default-y="-10.00" default-x="113.71"><pitch><step>D</step><octave>5</octave></pitch><duration>2</duration><voice>1</voice><type>quarter</type><stem>down</stem><lyric number="1"><syllabic>single</syllabic><text>I</text></lyric></note><note default-y="-10.00" default-x="159.45"><pitch><step>D</step><octave>5</octave></pitch><duration>2</duration><voice>1</voice><type>quarter</type><stem>down</stem><lyric number="1"><syllabic>single</syllabic><text>love</text></lyric></note></measure><measure width="306.58" number="17"><harmony print-frame="no"><root><root-step>A</root-step></root><kind text="m7">minor-seventh</kind></harmony><note default-y="-10.00" default-x="28.19"><pitch><step>D</step><octave>5</octave></pitch><duration>2</duration><voice>1</voice><type>quarter</type><stem>down</stem><lyric number="1"><syllabic>single</syllabic><text>you.</text></lyric></note><note default-y="-45.00" default-x="97.39"><pitch><step>D</step><octave>4</octave></pitch><duration>2</duration><voice>1</voice><type>quarter</type><stem>up</stem><lyric number="1"><syllabic>begin</syllabic><text>Some</text></lyric></note><harmony print-frame="no"><root><root-step>A</root-step></root><kind text="m7">minor-seventh</kind><bass><bass-step>D</bass-step></bass></harmony><note default-y="-30.00" default-x="166.58"><pitch><step>G</step><octave>4</octave></pitch><duration>2</duration><voice>1</voice><type>quarter</type><stem>up</stem><lyric number="1"><syllabic>end</syllabic><text>where</text></lyric></note><harmony print-frame="no"><root><root-step>D</root-step></root><kind text="7">dominant</kind></harmony><note default-y="-25.00" default-x="235.78"><pitch><step>A</step><octave>4</octave></pitch><duration>2</duration><voice>1</voice><type>quarter</type><stem>up</stem><lyric number="1"><syllabic>single</syllabic><text>there's</text></lyric></note></measure><measure width="152.45" number="18"><harmony print-frame="no"><root><root-step>G</root-step></root><kind text="Maj7">major-seventh</kind></harmony><note default-y="-25.00" default-x="27.25"><pitch><step>A</step><octave>4</octave></pitch><duration>4</duration><voice>1</voice><type>half</type><stem>up</stem><lyric number="1"><syllabic>begin</syllabic><text>mus</text></lyric></note><note default-y="-20.00" default-x="89.05"><pitch><step>B</step><octave>4</octave></pitch><duration>4</duration><tie type="start"/><voice>1</voice><type>half</type><stem>down</stem><notations><tied type="start"/></notations><lyric number="1"><syllabic>end</syllabic><text>ic,</text></lyric></note></measure><measure width="285.56" number="19"><print new-system="yes"><system-layout><system-margins><left-margin>0.00</left-margin><right-margin>-0.00</right-margin></system-margins><system-distance>129.51</system-distance></system-layout></print><note default-y="-20.00" default-x="69.22"><pitch><step>B</step><octave>4</octave></pitch><duration>2</duration><tie type="stop"/><voice>1</voice><type>quarter</type><stem>down</stem><notations><tied type="stop"/></notations></note><note default-y="-45.00" default-x="122.90"><pitch><step>D</step><octave>4</octave></pitch><duration>2</duration><voice>1</voice><type>quarter</type><stem>up</stem><lyric number="1"><syllabic>single</syllabic><text>it's</text></lyric></note><note default-y="-30.00" default-x="176.59"><pitch><step>G</step><octave>4</octave></pitch><duration>2</duration><voice>1</voice><type>quarter</type><stem>up</stem><lyric number="1"><syllabic>single</syllabic><text>where</text></lyric></note><note default-y="-25.00" default-x="230.27"><pitch><step>A</step><octave>4</octave></pitch><duration>2</duration><voice>1</voice><type>quarter</type><stem>up</stem><lyric number="1"><syllabic>single</syllabic><text>you</text></lyric></note></measure><measure width="116.07" number="20"><harmony print-frame="no"><root><root-step>G</root-step></root><kind text="m7">minor-seventh</kind></harmony><note default-y="-20.00" default-x="25.04"><pitch><step>B</step><alter>-1</alter><octave>4</octave></pitch><duration>8</duration><tie type="start"/><voice>1</voice><type>whole</type><accidental>flat</accidental><notations><tied type="start"/></notations><lyric number="1"><syllabic>single</syllabic><text>are.</text></lyric></note></measure><measure width="281.39" number="21"><harmony print-frame="no"><root><root-step>C</root-step></root><kind text="7">dominant</kind></harmony><note default-y="-20.00" default-x="15.00"><pitch><step>B</step><alter>-1</alter><octave>4</octave></pitch><duration>2</duration><tie type="stop"/><voice>1</voice><type>quarter</type><accidental>flat</accidental><stem>down</stem><notations><tied type="stop"/></notations></note><note default-y="-50.00" default-x="81.20"><pitch><step>C</step><octave>4</octave></pitch><duration>2</duration><voice>1</voice><type>quarter</type><stem>up</stem><lyric number="1"><syllabic>begin</syllabic><text>Some</text></lyric></note><note default-y="-35.00" default-x="147.40"><pitch><step>F</step><octave>4</octave></pitch><duration>2</duration><voice>1</voice><type>quarter</type><accidental>natural</accidental><stem>up</stem><lyric number="1"><syllabic>end</syllabic><text>where</text></lyric></note><note default-y="-30.00" default-x="213.59"><pitch><step>G</step><octave>4</octave></pitch><duration>2</duration><voice>1</voice><type>quarter</type><stem>up</stem><lyric number="1"><syllabic>single</syllabic><text>there's</text></lyric></note></measure><measure width="155.93" number="22"><harmony print-frame="no"><root><root-step>F</root-step></root><kind text="Maj7">major-seventh</kind></harmony><note default-y="-30.00" default-x="24.11"><pitch><step>G</step><octave>4</octave></pitch><duration>4</duration><voice>1</voice><type>half</type><stem>up</stem><lyric number="1"><syllabic>begin</syllabic><text>hea</text></lyric></note><note default-y="-25.00" default-x="89.22"><pitch><step>A</step><octave>4</octave></pitch><duration>4</duration><tie type="start"/><voice>1</voice><type>half</type><stem>up</stem><notations><tied type="start"/></notations><lyric number="1"><syllabic>single</syllabic><text>ven,</text></lyric></note></measure><measure width="238.15" number="23"><note default-y="-25.00" default-x="15.00"><pitch><step>A</step><octave>4</octave></pitch><duration>2</duration><tie type="stop"/><voice>1</voice><type>quarter</type><stem>up</stem><notations><tied type="stop"/></notations></note><note default-y="-50.00" default-x="70.39"><pitch><step>C</step><octave>4</octave></pitch><duration>2</duration><voice>1</voice><type>quarter</type><stem>up</stem><lyric number="1"><syllabic>single</syllabic><text>how</text></lyric></note><note default-y="-35.00" default-x="125.77"><pitch><step>F</step><octave>4</octave></pitch><duration>2</duration><voice>1</voice><type>quarter</type><accidental>natural</accidental><stem>up</stem><lyric number="1"><syllabic>single</syllabic><text>near,</text></lyric></note><note default-y="-30.00" default-x="181.16"><pitch><step>G</step><octave>4</octave></pitch><duration>2</duration><voice>1</voice><type>quarter</type><stem>up</stem><lyric number="1"><syllabic>single</syllabic><text>how</text></lyric></note></measure><measure width="203.89" number="24"><print new-system="yes"><system-layout><system-margins><left-margin>0.00</left-margin><right-margin>-0.00</right-margin></system-margins><system-distance>129.51</system-distance></system-layout></print><harmony print-frame="no"><root><root-step>F</root-step></root><kind text="m7">minor-seventh</kind></harmony><note default-y="-25.00" default-x="86.44"><pitch><step>A</step><alter>-1</alter><octave>4</octave></pitch><duration>8</duration><tie type="start"/><voice>1</voice><type>whole</type><accidental>flat</accidental><notations><tied type="start"/></notations><lyric number="1"><syllabic>single</syllabic><text>far!</text></lyric></note></measure><measure width="243.65" number="25"><harmony print-frame="no"><root><root-step>B</root-step><root-alter>-1</root-alter></root><kind text="7">dominant</kind></harmony><note default-y="-25.00" default-x="15.00"><pitch><step>A</step><alter>-1</alter><octave>4</octave></pitch><duration>2</duration><tie type="stop"/><voice>1</voice><type>quarter</type><accidental>flat</accidental><stem>up</stem><notations><tied type="stop"/></notations></note><note default-y="-45.00" default-x="71.76"><pitch><step>D</step><octave>4</octave></pitch><duration>2</duration><voice>1</voice><type>quarter</type><stem>up</stem><lyric number="1"><syllabic>single</syllabic><text>The</text></lyric></note><note default-y="-40.00" default-x="128.53"><pitch><step>E</step><alter>-1</alter><octave>4</octave></pitch><duration>2</duration><voice>1</voice><type>quarter</type><accidental>flat</accidental><stem>up</stem><lyric number="1"><syllabic>begin</syllabic><text>dark</text></lyric></note><note default-y="-35.00" default-x="185.29"><pitch><step>F</step><octave>4</octave></pitch><duration>2</duration><voice>1</voice><type>quarter</type><accidental>natural</accidental><stem>up</stem><lyric number="1"><syllabic>end</syllabic><text>est</text></lyric></note></measure><measure width="294.16" number="26"><harmony print-frame="no"><root><root-step>E</root-step><root-alter>-1</root-alter></root><kind text="Maj7">major-seventh</kind></harmony><note default-y="-30.00" default-x="31.64"><pitch><step>G</step><octave>4</octave></pitch><duration>2</duration><voice>1</voice><type>quarter</type><stem>up</stem><lyric number="1"><syllabic>single</syllabic><text>night</text></lyric></note><note default-y="-30.00" default-x="96.87"><pitch><step>G</step><octave>4</octave></pitch><duration>2</duration><voice>1</voice><type>quarter</type><stem>up</stem><lyric number="1"><syllabic>single</syllabic><text>would</text></lyric></note><note default-y="-30.00" default-x="162.10"><pitch><step>G</step><octave>4</octave></pitch><duration>2</duration><voice>1</voice><type>quarter</type><stem>up</stem><lyric number="1"><syllabic>single</syllabic><text>shine</text></lyric></note><note default-y="-30.00" default-x="227.33"><pitch><step>G</step><octave>4</octave></pitch><duration>2</duration><voice>1</voice><type>quarter</type><stem>up</stem><lyric number="1"><syllabic>single</syllabic><text>if</text></lyric></note></measure><measure width="335.39" number="27"><harmony print-frame="no"><root><root-step>A</root-step></root><kind text="m7b5">half-diminished</kind></harmony><note default-y="-30.00" default-x="25.37"><pitch><step>G</step><octave>4</octave></pitch><duration>2</duration><voice>1</voice><type>quarter</type><stem>up</stem><lyric number="1"><syllabic>single</syllabic><text>you</text></lyric></note><note default-y="-30.00" default-x="93.91"><pitch><step>G</step><octave>4</octave></pitch><duration>1</duration><voice>1</voice><type>eighth</type><stem>up</stem><beam number="1">begin</beam><lyric number="1"><syllabic>single</syllabic><text>would</text></lyric></note><note default-y="-25.00" default-x="136.75"><pitch><step>A</step><octave>4</octave></pitch><duration>1</duration><tie type="start"/><voice>1</voice><type>eighth</type><stem>up</stem><beam number="1">end</beam><notations><tied type="start"/></notations></note><harmony print-frame="no"><root><root-step>D</root-step></root><kind text="7">dominant</kind></harmony><note default-y="-25.00" default-x="179.58"><pitch><step>A</step><octave>4</octave></pitch><duration>1</duration><tie type="stop"/><voice>1</voice><type>eighth</type><stem>up</stem><beam number="1">begin</beam><notations><tied type="stop"/></notations><lyric number="1"><syllabic>single</syllabic><text>come</text></lyric></note><note default-y="-30.00" default-x="222.42"><pitch><step>G</step><octave>4</octave></pitch><duration>1</duration><voice>1</voice><type>eighth</type><stem>up</stem><beam number="1">end</beam><lyric number="1"><syllabic>single</syllabic><text>to</text></lyric></note><note default-y="-25.00" default-x="265.25"><pitch><step>A</step><octave>4</octave></pitch><duration>2</duration><voice>1</voice><type>quarter</type><stem>up</stem><lyric number="1"><syllabic>single</syllabic><text>me</text></lyric></note></measure><measure width="238.14" number="28"><print new-system="yes"><system-layout><system-margins><left-margin>0.00</left-margin><right-margin>-0.00</right-margin></system-margins><system-distance>129.51</system-distance></system-layout></print><harmony print-frame="no"><root><root-step>G</root-step></root><kind text="Maj7">major-seventh</kind></harmony><note default-y="-20.00" default-x="94.30"><pitch><step>B</step><octave>4</octave></pitch><duration>8</duration><tie type="start"/><voice>1</voice><type>whole</type><notations><tied type="start"/></notations><lyric number="1"><syllabic>single</syllabic><text>soon.</text></lyric></note></measure><measure width="247.74" number="29"><harmony print-frame="no"><root><root-step>A</root-step></root><kind text="m7">minor-seventh</kind></harmony><note default-y="-20.00" default-x="15.00"><pitch><step>B</step><octave>4</octave></pitch><duration>2</duration><tie type="stop"/><voice>1</voice><type>quarter</type><stem>down</stem><notations><tied type="stop"/></notations></note><note default-y="-25.00" default-x="72.78"><pitch><step>A</step><octave>4</octave></pitch><duration>2</duration><voice>1</voice><type>quarter</type><stem>up</stem><lyric number="1"><syllabic>begin</syllabic><text>Un</text></lyric></note><harmony print-frame="no"><root><root-step>D</root-step></root><kind text="7b9">dominant</kind><degree><degree-value>9</degree-value><degree-alter>-1</degree-alter><degree-type>add</degree-type></degree></harmony><note default-y="-20.00" default-x="130.57"><pitch><step>B</step><octave>4</octave></pitch><duration>2</duration><voice>1</voice><type>quarter</type><stem>down</stem><lyric number="1"><syllabic>end</syllabic><text>til</text></lyric></note><note default-y="-15.00" default-x="188.35"><pitch><step>C</step><octave>5</octave></pitch><duration>2</duration><voice>1</voice><type>quarter</type><stem>down</stem><lyric number="1"><syllabic>single</syllabic><text>you</text></lyric></note></measure><measure width="288.12" number="30"><harmony print-frame="no"><root><root-step>B</root-step></root><kind text="m7">minor-seventh</kind></harmony><note default-y="-10.00" default-x="28.81"><pitch><step>D</step><octave>5</octave></pitch><duration>2</duration><voice>1</voice><type>quarter</type><stem>down</stem><lyric number="1"><syllabic>single</syllabic><text>will,</text></lyric></note><note default-y="-10.00" default-x="93.24"><pitch><step>D</step><octave>5</octave></pitch><duration>2</duration><voice>1</voice><type>quarter</type><stem>down</stem><lyric number="1"><syllabic>single</syllabic><text>how</text></lyric></note><harmony print-frame="no"><root><root-step>B</root-step><root-alter>-1</root-alter></root><kind text="7">dominant</kind></harmony><note default-y="-10.00" default-x="157.66"><pitch><step>D</step><octave>5</octave></pitch><duration>2</duration><voice>1</voice><type>quarter</type><stem>down</stem><lyric number="1"><syllabic>single</syllabic><text>still</text></lyric></note><note default-y="-10.00" default-x="222.09"><pitch><step>D</step><octave>5</octave></pitch><duration>2</duration><voice>1</voice><type>quarter</type><stem>down</stem><lyric number="1"><syllabic>single</syllabic><text>my</text></lyric></note></measure><measure width="303.11" number="31"><harmony print-frame="no"><root><root-step>A</root-step></root><kind text="m7">minor-seventh</kind></harmony><note default-y="-10.00" default-x="33.81"><pitch><step>D</step><octave>5</octave></pitch><duration>2</duration><voice>1</voice><type>quarter</type><stem>down</stem><lyric number="1"><syllabic>single</syllabic><text>heart,</text></lyric></note><note default-y="-45.00" default-x="100.73"><pitch><step>D</step><octave>4</octave></pitch><duration>2</duration><voice>1</voice><type>quarter</type><stem>up</stem><lyric number="1"><syllabic>single</syllabic><text>how</text></lyric></note><harmony print-frame="no"><root><root-step>A</root-step></root><kind text="m7">minor-seventh</kind><bass><bass-step>D</bass-step></bass></harmony><note default-y="-30.00" default-x="167.66"><pitch><step>G</step><octave>4</octave></pitch><duration>2</duration><voice>1</voice><type>quarter</type><stem>up</stem><lyric number="1"><syllabic>single</syllabic><text>high</text></lyric></note><harmony print-frame="no"><root><root-step>D</root-step></root><kind text="7b9">dominant</kind><degree><degree-value>9</degree-value><degree-alter>-1</degree-alter><degree-type>add</degree-type></degree></harmony><note default-y="-25.00" default-x="234.58"><pitch><step>A</step><octave>4</octave></pitch><duration>2</duration><voice>1</voice><type>quarter</type><stem>up</stem><lyric number="1"><syllabic>single</syllabic><text>the</text></lyric></note></measure><measure width="278.22" number="32"><print new-system="yes"><system-layout><system-margins><left-margin>0.00</left-margin><right-margin>-0.00</right-margin></system-margins><system-distance>129.51</system-distance></system-layout></print><barline location="left"><ending type="start" number="1"/></barline><harmony print-frame="no"><root><root-step>G</root-step></root><kind text="6">major-sixth</kind></harmony><note default-y="-30.00" default-x="99.61"><pitch><step>G</step><octave>4</octave></pitch><duration>8</duration><voice>1</voice><type>whole</type><lyric number="1"><syllabic>single</syllabic><text>moon!</text></lyric></note></measure><measure width="369.65" number="33"><harmony print-frame="no"><root><root-step>D</root-step></root><kind text="7">dominant</kind></harmony><note><rest/><duration>2</duration><voice>1</voice><type>quarter</type></note><note default-y="-45.00" default-x="99.87"><pitch><step>D</step><octave>4</octave></pitch><duration>2</duration><voice>1</voice><type>quarter</type><stem>up</stem><lyric number="1"><syllabic>begin</syllabic><text>Some</text></lyric></note><harmony print-frame="no"><root><root-step>A</root-step></root><kind text="m7">minor-seventh</kind><bass><bass-step>D</bass-step></bass></harmony><note default-y="-30.00" default-x="184.75"><pitch><step>G</step><octave>4</octave></pitch><duration>2</duration><voice>1</voice><type>quarter</type><stem>up</stem><lyric number="1"><syllabic>end</syllabic><text>where</text></lyric></note><harmony print-frame="no"><root><root-step>D</root-step></root><kind text="7">dominant</kind></harmony><note default-y="-25.00" default-x="269.62"><pitch><step>A</step><octave>4</octave></pitch><duration>2</duration><voice>1</voice><type>quarter</type><stem>up</stem><lyric number="1"><syllabic>single</syllabic><text>there's</text></lyric></note><barline location="right"><bar-style>light-heavy</bar-style><ending type="stop" number="1"/><repeat direction="backward"/></barline></measure><measure width="216.50" number="34"><barline location="left"><ending type="start" number="2"/></barline><harmony print-frame="no"><root><root-step>G</root-step></root><kind text="">major</kind></harmony><note default-y="-30.00" default-x="37.89"><pitch><step>G</step><octave>4</octave></pitch><duration>8</duration><tie type="start"/><voice>1</voice><type>whole</type><notations><tied type="start"/></notations><lyric number="1"><syllabic>single</syllabic><text>moon!</text></lyric></note></measure><measure width="212.73" number="35"><note default-y="-30.00" default-x="15.00"><pitch><step>G</step><octave>4</octave></pitch><duration>4</duration><tie type="stop"/><voice>1</voice><type>half</type><stem>up</stem><notations><tied type="stop"/></notations></note><note><rest/><duration>2</duration><voice>1</voice><type>quarter</type></note><note><rest/><duration>2</duration><voice>1</voice><type>quarter</type></note><barline location="right"><bar-style>light-heavy</bar-style><ending type="stop" number="2"/></barline></measure></part></score-partwise>