<score-partwise version="2.0"><work><work-number/><work-title/></work><movement-number/><movement-title>That's Life</movement-title><identification><creator type="composer">Dan Kay, Kelly Gordon</creator><creator type="poet">Dan Kay, Kelly Gordon</creator><rights>All Rights Reserved</rights><encoding><software>MuseScore 0.9.5</software><encoding-date>2009-12-15</encoding-date><software>ProxyMusic 2.0 c</software></encoding><source>http://wikifonia.org/node/3798/revisions/4985/view</source></identification><defaults><scaling><millimeters>6.8</millimeters><tenths>40</tenths></scaling><page-layout><page-height>1747.06</page-height><page-width>1235.29</page-width><page-margins type="both"><left-margin>58.8235</left-margin><right-margin>58.8235</right-margin><top-margin>58.8235</top-margin><bottom-margin>117.647</bottom-margin></page-margins></page-layout></defaults><credit page="1"><credit-words font-size="24" default-y="1688.24" default-x="617.647" justify="center" valign="top">That's Life</credit-words></credit><part-list><score-part id="P1"><part-name>Voice</part-name><score-instrument id="P1-I3"><instrument-name>Voice</instrument-name></score-instrument><midi-instrument id="P1-I3"><midi-channel>1</midi-channel><midi-program>53</midi-program></midi-instrument></score-part></part-list><part id="P1"><measure width="243.34" number="1"><print><system-layout><system-margins><left-margin>69.54</left-margin><right-margin>0.00</right-margin></system-margins><top-system-distance>191.86</top-system-distance></system-layout></print><attributes><divisions>12</divisions><key><fifths>1</fifths><mode>major</mode></key><time symbol="common"><beats>4</beats><beat-type>4</beat-type></time><clef><sign>G</sign><line>2</line></clef></attributes><note><rest/><duration>24</duration><voice>1</voice><type>half</type></note><note><rest/><duration>18</duration><voice>1</voice><type>quarter</type><dot/></note><note default-y="-20.00" default-x="203.72"><pitch><step>B</step><octave>4</octave></pitch><duration>6</duration><voice>1</voice><type>eighth</type><stem>down</stem><lyric number="1"><syllabic>single</syllabic><text>That's</text></lyric></note></measure><measure width="142.32" number="2"><harmony print-frame="no"><root><root-step>G</root-step></root><kind text="">major</kind></harmony><note default-y="-20.00" default-x="27.01"><pitch><step>B</step><octave>4</octave></pitch><duration>12</duration><voice>1</voice><type>quarter</type><stem>down</stem><lyric number="1"><syllabic>single</syllabic><text>life,</text></lyric></note><note><rest/><duration>12</duration><voice>1</voice><type>quarter</type></note><note><rest/><duration>24</duration><voice>1</voice><type>half</type></note></measure><measure width="309.66" number="3"><harmony print-frame="no"><root><root-step>B</root-step></root><kind text="7">dominant</kind></harmony><note><rest/><duration>6</duration><voice>1</voice><type>eighth</type></note><note default-y="-20.00" default-x="57.72"><pitch><step>B</step><octave>4</octave></pitch><duration>6</duration><voice>1</voice><type>eighth</type><stem>down</stem><lyric number="1"><syllabic>single</syllabic><text>That's</text></lyric></note><note default-y="-20.00" default-x="113.47"><pitch><step>B</step><octave>4</octave></pitch><duration>4</duration><voice>1</voice><type>eighth</type><time-modification><actual-notes>3</actual-notes><normal-notes>2</normal-notes></time-modification><stem>up</stem><beam number="1">begin</beam><notations><tuplet type="start" bracket="no"/></notations><lyric number="1"><syllabic>single</syllabic><text>what</text></lyric></note><note default-y="-20.00" default-x="159.09"><pitch><step>B</step><octave>4</octave></pitch><duration>4</duration><voice>1</voice><type>eighth</type><time-modification><actual-notes>3</actual-notes><normal-notes>2</normal-notes></time-modification><stem>up</stem><beam number="1">continue</beam><lyric number="1"><syllabic>begin</syllabic><text>peo</text></lyric></note><note default-y="-20.00" default-x="196.27"><pitch><step>B</step><octave>4</octave></pitch><duration>4</duration><voice>1</voice><type>eighth</type><time-modification><actual-notes>3</actual-notes><normal-notes>2</normal-notes></time-modification><stem>up</stem><beam number="1">end</beam><notations><tuplet type="stop"/></notations><lyric number="1"><syllabic>end</syllabic><text>ple</text></lyric></note><note default-y="-25.00" default-x="232.15"><pitch><step>A</step><octave>4</octave></pitch><duration>24</duration><voice>1</voice><type>half</type><stem>up</stem><lyric number="1"><syllabic>single</syllabic><text>say</text></lyric></note></measure><measure width="352.79" number="4"><harmony print-frame="no"><root><root-step>E</root-step></root><kind text="m7">minor-seventh</kind></harmony><note><rest/><duration>6</duration><voice>1</voice><type>eighth</type></note><note default-y="-40.00" default-x="59.60"><pitch><step>E</step><octave>4</octave></pitch><duration>6</duration><voice>1</voice><type>eighth</type><stem>up</stem><lyric number="1"><syllabic>single</syllabic><text>You're</text></lyric></note><note default-y="-30.00" default-x="107.48"><pitch><step>G</step><octave>4</octave></pitch><duration>3</duration><voice>1</voice><type>16th</type><stem>up</stem><beam number="1">begin</beam><lyric number="1"><syllabic>begin</syllabic><text>rid</text></lyric></note><note default-y="-40.00" default-x="137.67"><pitch><step>E</step><octave>4</octave></pitch><duration>3</duration><voice>1</voice><type>16th</type><stem>up</stem><beam number="1">continue</beam><lyric number="1"><syllabic>end</syllabic><text>'in</text></lyric></note><note default-y="-30.00" default-x="176.67"><pitch><step>G</step><octave>4</octave></pitch><duration>3</duration><voice>1</voice><type>16th</type><stem>up</stem><beam number="1">continue</beam><lyric number="1"><syllabic>single</syllabic><text>high</text></lyric></note><note default-y="-40.00" default-x="212.56"><pitch><step>E</step><octave>4</octave></pitch><duration>3</duration><voice>1</voice><type>16th</type><stem>up</stem><beam number="1">end</beam><lyric number="1"><syllabic>single</syllabic><text>in</text></lyric></note><note default-y="-20.00" default-x="244.51"><pitch><step>B</step><octave>4</octave></pitch><duration>6</duration><voice>1</voice><type>eighth</type><stem>down</stem><lyric number="1"><syllabic>begin</syllabic><text>Ap</text></lyric></note><harmony relative-x="578.23" print-frame="no"><root><root-step>B</root-step><root-alter>-1</root-alter></root><kind text="7">dominant</kind></harmony><note default-y="-40.00" default-x="285.63"><pitch><step>E</step><octave>4</octave></pitch><duration>18</duration><voice>1</voice><type>quarter</type><dot/><stem>up</stem><lyric number="1"><syllabic>end</syllabic><text>ril,</text></lyric></note></measure><measure width="436.48" number="5"><print new-system="yes"><system-layout><system-margins><left-margin>47.08</left-margin><right-margin>-0.00</right-margin></system-margins><system-distance>117.01</system-distance></system-layout></print><harmony print-frame="no"><root><root-step>A</root-step></root><kind text="7">dominant</kind></harmony><note><rest/><duration>6</duration><voice>1</voice><type>eighth</type></note><note default-y="-20.00" default-x="114.30"><pitch><step>B</step><octave>4</octave></pitch><duration>6</duration><voice>1</voice><type>eighth</type><stem>down</stem><beam number="1">begin</beam><lyric number="1"><syllabic>single</syllabic><text>shot</text></lyric></note><note default-y="-20.00" default-x="165.79"><pitch><step>B</step><octave>4</octave></pitch><duration>9</duration><voice>1</voice><type>eighth</type><dot/><stem>down</stem><beam number="1">continue</beam><lyric number="1"><syllabic>single</syllabic><text>down</text></lyric></note><note default-y="-20.00" default-x="220.76"><pitch><step>B</step><octave>4</octave></pitch><duration>3</duration><voice>1</voice><type>16th</type><stem>down</stem><beam number="1">end</beam><lyric number="1"><syllabic>single</syllabic><text>in</text></lyric></note><note default-y="-30.00" default-x="261.58"><pitch><step>G</step><octave>4</octave></pitch><duration>6</duration><voice>1</voice><type>eighth</type><stem>up</stem><lyric number="1"><syllabic>single</syllabic><text>May.</text></lyric></note><note><rest/><duration>6</duration><voice>1</voice><type>eighth</type></note><harmony print-frame="no"><root><root-step>C</root-step></root><kind text="m6">minor-sixth</kind></harmony><note default-y="-30.00" default-x="351.73"><pitch><step>G</step><octave>4</octave></pitch><duration>9</duration><voice>1</voice><type>eighth</type><dot/><stem>up</stem><beam number="1">begin</beam><lyric number="1"><syllabic>single</syllabic><text>But</text></lyric></note><note default-y="-25.00" default-x="406.70"><pitch><step>A</step><octave>4</octave></pitch><duration>3</duration><voice>1</voice><type>16th</type><stem>up</stem><beam number="1">end</beam><lyric number="1"><syllabic>single</syllabic><text>I</text></lyric></note></measure><measure width="386.89" number="6"><harmony print-frame="no"><root><root-step>G</root-step></root><kind text="">major</kind></harmony><note default-y="-20.00" default-x="34.49"><pitch><step>B</step><octave>4</octave></pitch><duration>9</duration><voice>1</voice><type>eighth</type><dot/><stem>up</stem><beam number="1">begin</beam><lyric number="1"><syllabic>single</syllabic><text>know</text></lyric></note><note default-y="-10.00" default-x="97.59"><pitch><step>D</step><octave>5</octave></pitch><duration>3</duration><voice>1</voice><type>16th</type><stem>up</stem><beam number="1">continue</beam><lyric number="1"><syllabic>single</syllabic><text>I'm</text></lyric></note><note default-y="-20.00" default-x="135.65"><pitch><step>B</step><octave>4</octave></pitch><duration>9</duration><voice>1</voice><type>eighth</type><dot/><stem>up</stem><beam number="1">continue</beam><lyric number="1"><syllabic>begin</syllabic><text>gon</text></lyric></note><note default-y="-10.00" default-x="198.76"><pitch><step>D</step><octave>5</octave></pitch><duration>3</duration><voice>1</voice><type>16th</type><stem>up</stem><beam number="1">end</beam><lyric number="1"><syllabic>end</syllabic><text>'na</text></lyric></note><harmony print-frame="no"><root><root-step>C</root-step></root><kind text="Maj7">major-seventh</kind></harmony><note default-y="-20.00" default-x="251.03"><pitch><step>B</step><octave>4</octave></pitch><duration>18</duration><voice>1</voice><type>quarter</type><dot/><stem>down</stem><lyric number="1"><syllabic>single</syllabic><text>change</text></lyric></note><harmony print-frame="no"><root><root-step>B</root-step></root><kind text="7#5">augmented-seventh</kind></harmony><note default-y="-30.00" default-x="333.54"><pitch><step>G</step><octave>4</octave></pitch><duration>6</duration><voice>1</voice><type>eighth</type><stem>up</stem><lyric number="1"><syllabic>single</syllabic><text>that</text></lyric></note></measure><measure width="247.20" number="7"><harmony print-frame="no"><root><root-step>E</root-step></root><kind text="m7">minor-seventh</kind></harmony><note default-y="-40.00" default-x="31.56"><pitch><step>E</step><octave>4</octave></pitch><duration>36</duration><voice>1</voice><type>half</type><dot/><stem>up</stem><lyric number="1"><syllabic>single</syllabic><text>tune,</text></lyric></note><note default-y="-30.00" default-x="151.54"><pitch><step>G</step><octave>4</octave></pitch><duration>6</duration><voice>1</voice><type>eighth</type><stem>up</stem><beam number="1">begin</beam><lyric number="1"><syllabic>single</syllabic><text>when</text></lyric></note><note default-y="-25.00" default-x="198.57"><pitch><step>A</step><octave>4</octave></pitch><duration>6</duration><voice>1</voice><type>eighth</type><stem>up</stem><beam number="1">end</beam><lyric number="1"><syllabic>single</syllabic><text>I'm</text></lyric></note></measure><measure width="317.07" number="8"><print new-system="yes"><system-layout><system-margins><left-margin>47.08</left-margin><right-margin>0.00</right-margin></system-margins><system-distance>117.01</system-distance></system-layout></print><harmony print-frame="no"><root><root-step>A</root-step></root><kind text="9">dominant-ninth</kind></harmony><note default-y="-20.00" default-x="92.30"><pitch><step>B</step><octave>4</octave></pitch><duration>12</duration><voice>1</voice><type>quarter</type><stem>down</stem><lyric number="1"><syllabic>single</syllabic><text>back</text></lyric></note><note default-y="-5.00" default-x="150.35"><pitch><step>E</step><octave>5</octave></pitch><duration>12</duration><voice>1</voice><type>quarter</type><stem>down</stem><lyric number="1"><syllabic>single</syllabic><text>on</text></lyric></note><note default-y="-20.00" default-x="208.41"><pitch><step>B</step><octave>4</octave></pitch><duration>18</duration><voice>1</voice><type>quarter</type><dot/><stem>down</stem><lyric number="1"><syllabic>single</syllabic><text>top</text></lyric></note><note default-y="-20.00" default-x="279.19"><pitch><step>B</step><octave>4</octave></pitch><duration>6</duration><voice>1</voice><type>eighth</type><stem>down</stem><lyric number="1"><syllabic>single</syllabic><text>in</text></lyric></note></measure><measure width="239.71" number="9"><harmony print-frame="no"><root><root-step>A</root-step></root><kind text="m7">minor-seventh</kind></harmony><note default-y="-25.00" default-x="31.93"><pitch><step>A</step><octave>4</octave></pitch><duration>36</duration><voice>1</voice><type>half</type><dot/><stem>up</stem><lyric number="1"><syllabic>single</syllabic><text>June,</text></lyric></note><harmony print-frame="no"><root><root-step>D</root-step></root><kind text="9">dominant-ninth</kind></harmony><note><rest/><duration>6</duration><voice>1</voice><type>eighth</type></note><note default-y="-20.00" default-x="192.81"><pitch><step>B</step><octave>4</octave></pitch><duration>6</duration><voice>1</voice><type>eighth</type><stem>down</stem><lyric number="1"><syllabic>single</syllabic><text>That's</text></lyric></note></measure><measure width="196.08" number="10"><harmony print-frame="no"><root><root-step>G</root-step></root><kind text="">major</kind></harmony><note default-y="-20.00" default-x="30.04"><pitch><step>B</step><octave>4</octave></pitch><duration>12</duration><voice>1</voice><type>quarter</type><stem>down</stem><lyric number="1"><syllabic>single</syllabic><text>Life,</text></lyric></note><note><rest/><duration>12</duration><voice>1</voice><type>quarter</type></note><note><rest/><duration>24</duration><voice>1</voice><type>half</type></note></measure><measure width="317.70" number="11"><harmony print-frame="no"><root><root-step>B</root-step></root><kind text="7">dominant</kind></harmony><note><rest/><duration>12</duration><voice>1</voice><type>quarter</type></note><note default-y="-20.00" default-x="84.47"><pitch><step>B</step><octave>4</octave></pitch><duration>3</duration><voice>1</voice><type>16th</type><stem>up</stem><beam number="1">begin</beam><lyric number="1"><syllabic>begin</syllabic><text>fun</text></lyric></note><note default-y="-20.00" default-x="117.75"><pitch><step>B</step><octave>4</octave></pitch><duration>3</duration><voice>1</voice><type>16th</type><stem>up</stem><beam number="1">continue</beam><lyric number="1"><syllabic>end</syllabic><text>ny</text></lyric></note><note default-y="-20.00" default-x="149.33"><pitch><step>B</step><octave>4</octave></pitch><duration>3</duration><voice>1</voice><type>16th</type><stem>up</stem><beam number="1">continue</beam><lyric number="1"><syllabic>single</syllabic><text>as</text></lyric></note><note default-y="-20.00" default-x="180.90"><pitch><step>B</step><octave>4</octave></pitch><duration>3</duration><voice>1</voice><type>16th</type><stem>up</stem><beam number="1">end</beam><lyric number="1"><syllabic>single</syllabic><text>it</text></lyric></note><note default-y="-25.00" default-x="227.69"><pitch><step>A</step><octave>4</octave></pitch><duration>24</duration><voice>1</voice><type>half</type><stem>up</stem><lyric number="1"><syllabic>single</syllabic><text>seems</text></lyric></note></measure><measure width="581.02" number="12"><print new-system="yes"><system-layout><system-margins><left-margin>47.08</left-margin><right-margin>-0.00</right-margin></system-margins><system-distance>117.01</system-distance></system-layout></print><harmony print-frame="no"><root><root-step>E</root-step></root><kind text="m7">minor-seventh</kind></harmony><note><rest/><duration>6</duration><voice>1</voice><type>eighth</type></note><note default-y="-40.00" default-x="150.65"><pitch><step>E</step><octave>4</octave></pitch><duration>6</duration><voice>1</voice><type>eighth</type><stem>up</stem><lyric number="1"><syllabic>single</syllabic><text>some</text></lyric></note><note default-y="-30.00" default-x="232.09"><pitch><step>G</step><octave>4</octave></pitch><duration>3</duration><voice>1</voice><type>16th</type><stem>up</stem><beam number="1">begin</beam><lyric number="1"><syllabic>begin</syllabic><text>peo</text></lyric></note><note default-y="-25.00" default-x="282.99"><pitch><step>A</step><octave>4</octave></pitch><duration>3</duration><voice>1</voice><type>16th</type><stem>up</stem><beam number="1">continue</beam><lyric number="1"><syllabic>end</syllabic><text>ple</text></lyric></note><note default-y="-20.00" default-x="333.88"><pitch><step>B</step><octave>4</octave></pitch><duration>3</duration><voice>1</voice><type>16th</type><stem>up</stem><beam number="1">continue</beam><lyric number="1"><syllabic>single</syllabic><text>get</text></lyric></note><note default-y="-25.00" default-x="384.78"><pitch><step>A</step><octave>4</octave></pitch><duration>3</duration><voice>1</voice><type>16th</type><stem>up</stem><beam number="1">end</beam><lyric number="1"><syllabic>single</syllabic><text>their</text></lyric></note><harmony relative-x="867.35" print-frame="no"><root><root-step>B</root-step><root-alter>-1</root-alter></root><kind text="7">dominant</kind></harmony><note default-y="-30.00" default-x="436.91"><pitch><step>G</step><octave>4</octave></pitch><duration>24</duration><voice>1</voice><type>half</type><stem>up</stem><lyric number="1"><syllabic>single</syllabic><text>kicks</text></lyric></note></measure><measure width="489.55" number="13"><harmony print-frame="no"><root><root-step>A</root-step></root><kind text="7">dominant</kind></harmony><note default-y="-20.00" default-x="27.34"><pitch><step>B</step><octave>4</octave></pitch><duration>6</duration><voice>1</voice><type>eighth</type><stem>down</stem><beam number="1">begin</beam><lyric number="1"><syllabic>begin</syllabic><text>step</text></lyric></note><note default-y="-20.00" default-x="101.40"><pitch><step>B</step><octave>4</octave></pitch><duration>6</duration><voice>1</voice><type>eighth</type><stem>down</stem><beam number="1">end</beam><lyric number="1"><syllabic>end</syllabic><text>'pin</text></lyric></note><note default-y="-20.00" default-x="175.46"><pitch><step>B</step><octave>4</octave></pitch><duration>12</duration><voice>1</voice><type>quarter</type><stem>down</stem><lyric number="1"><syllabic>single</syllabic><text>on</text></lyric></note><note default-y="-25.00" default-x="277.30"><pitch><step>A</step><octave>4</octave></pitch><duration>18</duration><voice>1</voice><type>quarter</type><dot/><stem>up</stem><lyric number="1"><syllabic>single</syllabic><text>dreams,</text></lyric></note><note default-y="-30.00" default-x="395.37"><pitch><step>G</step><octave>4</octave></pitch><duration>3</duration><voice>1</voice><type>16th</type><stem>up</stem><beam number="1">begin</beam><lyric number="1"><syllabic>single</syllabic><text>But</text></lyric></note><note default-y="-25.00" default-x="441.66"><pitch><step>A</step><octave>4</octave></pitch><duration>3</duration><voice>1</voice><type>16th</type><stem>up</stem><beam number="1">end</beam><lyric number="1"><syllabic>single</syllabic><text>I</text></lyric></note></measure><measure width="413.26" number="14"><print new-system="yes"><system-layout><system-margins><left-margin>47.08</left-margin><right-margin>-0.00</right-margin></system-margins><system-distance>117.01</system-distance></system-layout></print><harmony print-frame="no"><root><root-step>G</root-step></root><kind text="">major</kind></harmony><note default-y="-20.00" default-x="93.12"><pitch><step>B</step><octave>4</octave></pitch><duration>12</duration><voice>1</voice><type>quarter</type><stem>down</stem><lyric number="1"><syllabic>single</syllabic><text>don't</text></lyric></note><note default-y="-20.00" default-x="168.46"><pitch><step>B</step><octave>4</octave></pitch><duration>9</duration><voice>1</voice><type>eighth</type><dot/><stem>down</stem><beam number="1">begin</beam><lyric number="1"><syllabic>single</syllabic><text>let</text></lyric></note><note default-y="-10.00" default-x="235.27"><pitch><step>D</step><octave>5</octave></pitch><duration>3</duration><voice>1</voice><type>16th</type><stem>down</stem><beam number="1">end</beam><lyric number="1"><syllabic>single</syllabic><text>it</text></lyric></note><harmony print-frame="no"><root><root-step>F</root-step><root-alter>1</root-alter></root><kind text="m7">minor-seventh</kind></harmony><note default-y="-20.00" default-x="269.52"><pitch><step>B</step><octave>4</octave></pitch><duration>18</duration><voice>1</voice><type>quarter</type><dot/><stem>down</stem><lyric number="1"><syllabic>single</syllabic><text>get</text></lyric></note><harmony print-frame="no"><root><root-step>F</root-step></root><kind text="7">dominant</kind></harmony><note default-y="-20.00" default-x="356.87"><pitch><step>B</step><octave>4</octave></pitch><duration>6</duration><voice>1</voice><type>eighth</type><stem>down</stem><lyric number="1"><syllabic>single</syllabic><text>me</text></lyric></note></measure><measure width="286.01" number="15"><harmony print-frame="no"><root><root-step>E</root-step></root><kind text="m7">minor-seventh</kind></harmony><note default-y="-40.00" default-x="37.41"><pitch><step>E</step><octave>4</octave></pitch><duration>36</duration><voice>1</voice><type>half</type><dot/><stem>up</stem><lyric number="1"><syllabic>single</syllabic><text>down,</text></lyric></note><note default-y="-30.00" default-x="175.86"><pitch><step>G</step><octave>4</octave></pitch><duration>6</duration><voice>1</voice><type>eighth</type><stem>up</stem><beam number="1">begin</beam><lyric number="1"><syllabic>single</syllabic><text>'cause</text></lyric></note><note default-y="-25.00" default-x="230.14"><pitch><step>A</step><octave>4</octave></pitch><duration>6</duration><voice>1</voice><type>eighth</type><stem>up</stem><beam number="1">end</beam><lyric number="1"><syllabic>single</syllabic><text>this</text></lyric></note></measure><measure width="371.29" number="16"><harmony print-frame="no"><root><root-step>A</root-step></root><kind text="9">dominant-ninth</kind></harmony><note default-y="-20.00" default-x="19.70"><pitch><step>B</step><octave>4</octave></pitch><duration>6</duration><voice>1</voice><type>eighth</type><stem>down</stem><lyric number="1"><syllabic>single</syllabic><text>ol'</text></lyric></note><note default-y="-20.00" default-x="68.94"><pitch><step>B</step><octave>4</octave></pitch><duration>12</duration><voice>1</voice><type>quarter</type><stem>down</stem><lyric number="1"><syllabic>single</syllabic><text>word</text></lyric></note><harmony print-frame="no"><root><root-step>D</root-step></root><kind text="9">dominant-ninth</kind></harmony><note default-y="-20.00" default-x="140.03"><pitch><step>B</step><octave>4</octave></pitch><duration>6</duration><tie type="start"/><voice>1</voice><type>eighth</type><stem>down</stem><notations><tied type="start"/></notations><lyric number="1"><syllabic>single</syllabic><text>keeps</text></lyric></note><note default-y="-20.00" default-x="189.27"><pitch><step>B</step><octave>4</octave></pitch><duration>12</duration><tie type="stop"/><voice>1</voice><type>quarter</type><stem>down</stem><notations><tied type="stop"/></notations></note><note default-y="-20.00" default-x="260.36"><pitch><step>B</step><octave>4</octave></pitch><duration>4</duration><voice>1</voice><type>eighth</type><time-modification><actual-notes>3</actual-notes><normal-notes>2</normal-notes></time-modification><stem>up</stem><beam number="1">begin</beam><notations><tuplet type="start" bracket="no"/></notations><lyric number="1"><syllabic>begin</syllabic><text>go</text></lyric></note><note default-y="-30.00" default-x="296.81"><pitch><step>G</step><octave>4</octave></pitch><duration>4</duration><voice>1</voice><type>eighth</type><time-modification><actual-notes>3</actual-notes><normal-notes>2</normal-notes></time-modification><stem>up</stem><beam number="1">continue</beam><lyric number="1"><syllabic>end</syllabic><text>ing</text></lyric></note><note default-y="-30.00" default-x="333.25"><pitch><step>G</step><octave>4</octave></pitch><duration>4</duration><voice>1</voice><type>eighth</type><time-modification><actual-notes>3</actual-notes><normal-notes>2</normal-notes></time-modification><stem>up</stem><beam number="1">end</beam><notations><tuplet type="stop"/></notations><lyric number="1"><syllabic>begin</syllabic><text>a</text></lyric></note></measure><measure width="488.81" number="17"><print new-system="yes"><system-layout><system-margins><left-margin>47.08</left-margin><right-margin>0.00</right-margin></system-margins><system-distance>117.01</system-distance></system-layout></print><harmony print-frame="no"><root><root-step>G</root-step></root><kind text="">major</kind></harmony><note default-y="-30.00" default-x="100.43"><pitch><step>G</step><octave>4</octave></pitch><duration>24</duration><voice>1</voice><type>half</type><stem>up</stem><lyric number="1"><syllabic>end</syllabic><text>round.</text></lyric></note><note><rest/><duration>6</duration><voice>1</voice><type>eighth</type></note><note default-y="-35.00" default-x="290.56"><pitch><step>F</step><alter>1</alter><octave>4</octave></pitch><duration>6</duration><voice>1</voice><type>eighth</type><stem>up</stem><beam number="1">begin</beam><lyric number="1"><syllabic>single</syllabic><text>I've</text></lyric></note><note default-y="-30.00" default-x="359.69"><pitch><step>G</step><octave>4</octave></pitch><duration>9</duration><voice>1</voice><type>eighth</type><dot/><stem>up</stem><beam number="1">continue</beam><lyric number="1"><syllabic>single</syllabic><text>been</text></lyric></note><note default-y="-30.00" default-x="444.00"><pitch><step>G</step><alter>1</alter><octave>4</octave></pitch><duration>3</duration><voice>1</voice><type>16th</type><accidental>sharp</accidental><stem>up</stem><beam number="1">end</beam><lyric number="1"><syllabic>single</syllabic><text>a</text></lyric></note></measure><measure width="581.76" number="18"><harmony print-frame="no"><root><root-step>G</root-step></root><kind text="7">dominant</kind></harmony><note default-y="-25.00" default-x="26.05"><pitch><step>A</step><octave>4</octave></pitch><duration>4</duration><voice>1</voice><type>eighth</type><time-modification><actual-notes>3</actual-notes><normal-notes>2</normal-notes></time-modification><stem>up</stem><beam number="1">begin</beam><notations><tuplet type="start" bracket="no"/></notations><lyric number="1"><syllabic>begin</syllabic><text>pup</text></lyric></note><note default-y="-25.00" default-x="72.22"><pitch><step>A</step><octave>4</octave></pitch><duration>4</duration><voice>1</voice><type>eighth</type><time-modification><actual-notes>3</actual-notes><normal-notes>2</normal-notes></time-modification><stem>up</stem><beam number="1">continue</beam><lyric number="1"><syllabic>end</syllabic><text>et</text></lyric></note><note default-y="-30.00" default-x="118.40"><pitch><step>G</step><octave>4</octave></pitch><duration>4</duration><voice>1</voice><type>eighth</type><time-modification><actual-notes>3</actual-notes><normal-notes>2</normal-notes></time-modification><stem>up</stem><beam number="1">end</beam><notations><tuplet type="stop"/></notations><lyric number="1"><syllabic>single</syllabic><text>a</text></lyric></note><note default-y="-25.00" default-x="164.57"><pitch><step>A</step><octave>4</octave></pitch><duration>4</duration><voice>1</voice><type>eighth</type><time-modification><actual-notes>3</actual-notes><normal-notes>2</normal-notes></time-modification><stem>up</stem><beam number="1">begin</beam><notations><tuplet type="start" bracket="no"/></notations><lyric number="1"><syllabic>begin</syllabic><text>pau</text></lyric></note><note default-y="-25.00" default-x="210.75"><pitch><step>A</step><octave>4</octave></pitch><duration>4</duration><voice>1</voice><type>eighth</type><time-modification><actual-notes>3</actual-notes><normal-notes>2</normal-notes></time-modification><stem>up</stem><beam number="1">continue</beam><lyric number="1"><syllabic>end</syllabic><text>per</text></lyric></note><note default-y="-30.00" default-x="256.93"><pitch><step>G</step><octave>4</octave></pitch><duration>4</duration><voice>1</voice><type>eighth</type><time-modification><actual-notes>3</actual-notes><normal-notes>2</normal-notes></time-modification><stem>up</stem><beam number="1">end</beam><notations><tuplet type="stop"/></notations><lyric number="1"><syllabic>single</syllabic><text>a</text></lyric></note><note default-y="-25.00" default-x="303.10"><pitch><step>A</step><octave>4</octave></pitch><duration>4</duration><voice>1</voice><type>eighth</type><time-modification><actual-notes>3</actual-notes><normal-notes>2</normal-notes></time-modification><stem>up</stem><beam number="1">begin</beam><notations><tuplet type="start" bracket="no"/></notations><lyric number="1"><syllabic>begin</syllabic><text>pir</text></lyric></note><note default-y="-25.00" default-x="349.28"><pitch><step>A</step><octave>4</octave></pitch><duration>4</duration><voice>1</voice><type>eighth</type><time-modification><actual-notes>3</actual-notes><normal-notes>2</normal-notes></time-modification><stem>up</stem><beam number="1">continue</beam><lyric number="1"><syllabic>end</syllabic><text>ate</text></lyric></note><note default-y="-30.00" default-x="395.46"><pitch><step>G</step><octave>4</octave></pitch><duration>4</duration><voice>1</voice><type>eighth</type><time-modification><actual-notes>3</actual-notes><normal-notes>2</normal-notes></time-modification><stem>up</stem><beam number="1">end</beam><notations><tuplet type="stop"/></notations><lyric number="1"><syllabic>single</syllabic><text>a</text></lyric></note><note default-y="-25.00" default-x="441.63"><pitch><step>A</step><octave>4</octave></pitch><duration>4</duration><voice>1</voice><type>eighth</type><time-modification><actual-notes>3</actual-notes><normal-notes>2</normal-notes></time-modification><stem>up</stem><beam number="1">begin</beam><notations><tuplet type="start" bracket="no"/></notations><lyric number="1"><syllabic>begin</syllabic><text>po</text></lyric></note><note default-y="-25.00" default-x="487.81"><pitch><step>A</step><octave>4</octave></pitch><duration>4</duration><voice>1</voice><type>eighth</type><time-modification><actual-notes>3</actual-notes><normal-notes>2</normal-notes></time-modification><stem>up</stem><beam number="1">continue</beam><lyric number="1"><syllabic>end</syllabic><text>et</text></lyric></note><note default-y="-30.00" default-x="533.98"><pitch><step>G</step><octave>4</octave></pitch><duration>4</duration><voice>1</voice><type>eighth</type><time-modification><actual-notes>3</actual-notes><normal-notes>2</normal-notes></time-modification><stem>up</stem><beam number="1">end</beam><notations><tuplet type="stop"/></notations><lyric number="1"><syllabic>single</syllabic><text>a</text></lyric></note></measure><measure width="536.43" number="19"><print new-system="yes"><system-layout><system-margins><left-margin>47.08</left-margin><right-margin>-0.00</right-margin></system-margins><system-distance>117.01</system-distance></system-layout></print><note default-y="-20.00" default-x="95.55"><pitch><step>B</step><octave>4</octave></pitch><duration>9</duration><voice>1</voice><type>eighth</type><dot/><stem>up</stem><beam number="1">begin</beam><lyric number="1"><syllabic>single</syllabic><text>pawn</text></lyric></note><note default-y="-30.00" default-x="166.39"><pitch><step>G</step><octave>4</octave></pitch><duration>3</duration><voice>1</voice><type>16th</type><stem>up</stem><beam number="1">continue</beam><lyric number="1"><syllabic>single</syllabic><text>and</text></lyric></note><note default-y="-20.00" default-x="202.70"><pitch><step>B</step><octave>4</octave></pitch><duration>6</duration><voice>1</voice><type>eighth</type><stem>up</stem><beam number="1">continue</beam><lyric number="1"><syllabic>single</syllabic><text>a</text></lyric></note><note default-y="-25.00" default-x="260.80"><pitch><step>A</step><octave>4</octave></pitch><duration>6</duration><tie type="start"/><voice>1</voice><type>eighth</type><stem>up</stem><beam number="1">end</beam><notations><tied type="start"/></notations><lyric number="1"><syllabic>single</syllabic><text>king.</text></lyric></note><note default-y="-25.00" default-x="318.89"><pitch><step>A</step><octave>4</octave></pitch><duration>12</duration><tie type="stop"/><voice>1</voice><type>quarter</type><stem>up</stem><notations><tied type="stop"/></notations></note><note><rest/><duration>4</duration><voice>1</voice><type>eighth</type><time-modification><actual-notes>3</actual-notes><normal-notes>2</normal-notes></time-modification><notations><tuplet type="start" bracket="yes"/></notations></note><note default-y="-30.00" default-x="444.12"><pitch><step>G</step><octave>4</octave></pitch><duration>4</duration><voice>1</voice><type>eighth</type><time-modification><actual-notes>3</actual-notes><normal-notes>2</normal-notes></time-modification><stem>up</stem><beam number="1">begin</beam><lyric number="1"><syllabic>single</syllabic><text>I've</text></lyric></note><note default-y="-30.00" default-x="489.48"><pitch><step>G</step><alter>1</alter><octave>4</octave></pitch><duration>4</duration><voice>1</voice><type>eighth</type><accidental>sharp</accidental><time-modification><actual-notes>3</actual-notes><normal-notes>2</normal-notes></time-modification><stem>up</stem><beam number="1">end</beam><notations><tuplet type="stop"/></notations><lyric number="1"><syllabic>single</syllabic><text>been</text></lyric></note></measure><measure width="534.14" number="20"><harmony print-frame="no"><root><root-step>C</root-step></root><kind text="6">major-sixth</kind></harmony><note default-y="-25.00" default-x="20.20"><pitch><step>A</step><octave>4</octave></pitch><duration>8</duration><voice>1</voice><type>quarter</type><time-modification><actual-notes>3</actual-notes><normal-notes>2</normal-notes></time-modification><stem>up</stem><notations><tuplet type="start" bracket="yes"/></notations><lyric number="1"><syllabic>single</syllabic><text>up</text></lyric></note><note default-y="-30.00" default-x="95.14"><pitch><step>G</step><octave>4</octave></pitch><duration>4</duration><voice>1</voice><type>eighth</type><time-modification><actual-notes>3</actual-notes><normal-notes>2</normal-notes></time-modification><stem>up</stem><notations><tuplet type="stop"/></notations><lyric number="1"><syllabic>single</syllabic><text>and</text></lyric></note><note default-y="-25.00" default-x="148.45"><pitch><step>A</step><octave>4</octave></pitch><duration>8</duration><voice>1</voice><type>quarter</type><time-modification><actual-notes>3</actual-notes><normal-notes>2</normal-notes></time-modification><stem>up</stem><notations><tuplet type="start" bracket="yes"/></notations><lyric number="1"><syllabic>single</syllabic><text>down</text></lyric></note><note default-y="-30.00" default-x="223.39"><pitch><step>G</step><octave>4</octave></pitch><duration>4</duration><voice>1</voice><type>eighth</type><time-modification><actual-notes>3</actual-notes><normal-notes>2</normal-notes></time-modification><stem>up</stem><notations><tuplet type="stop"/></notations><lyric number="1"><syllabic>single</syllabic><text>and</text></lyric></note><note default-y="-25.00" default-x="270.24"><pitch><step>A</step><octave>4</octave></pitch><duration>4</duration><voice>1</voice><type>eighth</type><time-modification><actual-notes>3</actual-notes><normal-notes>2</normal-notes></time-modification><stem>up</stem><beam number="1">begin</beam><notations><tuplet type="start" bracket="no"/></notations><lyric number="1"><syllabic>begin</syllabic><text>ov</text></lyric></note><note default-y="-25.00" default-x="317.08"><pitch><step>A</step><octave>4</octave></pitch><duration>4</duration><voice>1</voice><type>eighth</type><time-modification><actual-notes>3</actual-notes><normal-notes>2</normal-notes></time-modification><stem>up</stem><beam number="1">continue</beam><lyric number="1"><syllabic>end</syllabic><text>er</text></lyric></note><note default-y="-30.00" default-x="363.92"><pitch><step>G</step><octave>4</octave></pitch><duration>4</duration><voice>1</voice><type>eighth</type><time-modification><actual-notes>3</actual-notes><normal-notes>2</normal-notes></time-modification><stem>up</stem><beam number="1">end</beam><notations><tuplet type="stop"/></notations><lyric number="1"><syllabic>single</syllabic><text>and</text></lyric></note><note default-y="-25.00" default-x="410.76"><pitch><step>A</step><octave>4</octave></pitch><duration>8</duration><voice>1</voice><type>quarter</type><time-modification><actual-notes>3</actual-notes><normal-notes>2</normal-notes></time-modification><stem>up</stem><notations><tuplet type="start" bracket="yes"/></notations><lyric number="1"><syllabic>single</syllabic><text>out</text></lyric></note><note default-y="-30.00" default-x="485.70"><pitch><step>G</step><octave>4</octave></pitch><duration>4</duration><voice>1</voice><type>eighth</type><time-modification><actual-notes>3</actual-notes><normal-notes>2</normal-notes></time-modification><stem>up</stem><notations><tuplet type="stop"/></notations><lyric number="1"><syllabic>single</syllabic><text>and</text></lyric></note></measure><measure width="387.33" number="21"><print new-system="yes"><system-layout><system-margins><left-margin>47.08</left-margin><right-margin>-0.00</right-margin></system-margins><system-distance>117.01</system-distance></system-layout></print><note default-y="-20.00" default-x="73.96"><pitch><step>B</step><octave>4</octave></pitch><duration>9</duration><voice>1</voice><type>eighth</type><dot/><stem>up</stem><beam number="1">begin</beam><lyric number="1"><syllabic>single</syllabic><text>I</text></lyric></note><note default-y="-30.00" default-x="126.15"><pitch><step>G</step><octave>4</octave></pitch><duration>3</duration><voice>1</voice><type>16th</type><stem>up</stem><beam number="1">continue</beam><lyric number="1"><syllabic>single</syllabic><text>know</text></lyric></note><note default-y="-20.00" default-x="175.03"><pitch><step>B</step><octave>4</octave></pitch><duration>6</duration><voice>1</voice><type>eighth</type><stem>up</stem><beam number="1">continue</beam><lyric number="1"><syllabic>single</syllabic><text>one</text></lyric></note><note default-y="-25.00" default-x="225.22"><pitch><step>A</step><octave>4</octave></pitch><duration>6</duration><tie type="start"/><voice>1</voice><type>eighth</type><stem>up</stem><beam number="1">end</beam><notations><tied type="start"/></notations><lyric number="1"><syllabic>single</syllabic><text>thing:</text></lyric></note><note default-y="-25.00" default-x="268.02"><pitch><step>A</step><octave>4</octave></pitch><duration>12</duration><tie type="stop"/><voice>1</voice><type>quarter</type><stem>up</stem><notations><tied type="stop"/></notations></note><harmony print-frame="no"><root><root-step>B</root-step><root-alter>-1</root-alter></root><kind text="7">dominant</kind></harmony><note><rest/><duration>12</duration><voice>1</voice><type>quarter</type></note></measure><measure width="366.11" number="22"><harmony print-frame="no"><root><root-step>A</root-step></root><kind text="7">dominant</kind></harmony><note default-y="-15.00" default-x="29.92"><pitch><step>C</step><alter>1</alter><octave>5</octave></pitch><duration>12</duration><voice>1</voice><type>quarter</type><accidental>sharp</accidental><stem>down</stem><lyric number="1"><syllabic>single</syllabic><text>each</text></lyric></note><note default-y="-15.00" default-x="97.01"><pitch><step>C</step><alter>1</alter><octave>5</octave></pitch><duration>8</duration><voice>1</voice><type>quarter</type><time-modification><actual-notes>3</actual-notes><normal-notes>2</normal-notes></time-modification><stem>up</stem><notations><tuplet type="start" bracket="yes"/></notations><lyric number="1"><syllabic>single</syllabic><text>time</text></lyric></note><note default-y="-25.00" default-x="152.03"><pitch><step>A</step><octave>4</octave></pitch><duration>4</duration><voice>1</voice><type>eighth</type><time-modification><actual-notes>3</actual-notes><normal-notes>2</normal-notes></time-modification><stem>up</stem><notations><tuplet type="stop"/></notations><lyric number="1"><syllabic>single</syllabic><text>I</text></lyric></note><note default-y="-20.00" default-x="198.19"><pitch><step>B</step><octave>4</octave></pitch><duration>8</duration><voice>1</voice><type>quarter</type><time-modification><actual-notes>3</actual-notes><normal-notes>2</normal-notes></time-modification><stem>up</stem><notations><tuplet type="start" bracket="yes"/></notations><lyric number="1"><syllabic>single</syllabic><text>find</text></lyric></note><note default-y="-25.00" default-x="253.21"><pitch><step>A</step><octave>4</octave></pitch><duration>4</duration><voice>1</voice><type>eighth</type><time-modification><actual-notes>3</actual-notes><normal-notes>2</normal-notes></time-modification><stem>up</stem><notations><tuplet type="stop"/></notations><lyric number="1"><syllabic>begin</syllabic><text>my</text></lyric></note><note default-y="-20.00" default-x="297.42"><pitch><step>B</step><octave>4</octave></pitch><duration>12</duration><voice>1</voice><type>quarter</type><stem>down</stem><lyric number="1"><syllabic>end</syllabic><text>self</text></lyric></note></measure><measure width="317.13" number="23"><note default-y="-15.00" default-x="24.09"><pitch><step>C</step><alter>1</alter><octave>5</octave></pitch><duration>9</duration><voice>1</voice><type>eighth</type><dot/><accidental>sharp</accidental><stem>up</stem><beam number="1">begin</beam><lyric number="1"><syllabic>single</syllabic><text>flat</text></lyric></note><note default-y="-25.00" default-x="72.94"><pitch><step>A</step><octave>4</octave></pitch><duration>3</duration><voice>1</voice><type>16th</type><stem>up</stem><beam number="1">continue</beam><lyric number="1"><syllabic>single</syllabic><text>on</text></lyric></note><note default-y="-15.00" default-x="106.08"><pitch><step>C</step><alter>1</alter><octave>5</octave></pitch><duration>6</duration><voice>1</voice><type>eighth</type><stem>up</stem><beam number="1">continue</beam><lyric number="1"><syllabic>single</syllabic><text>my</text></lyric></note><note default-y="-20.00" default-x="146.49"><pitch><step>B</step><octave>4</octave></pitch><duration>6</duration><tie type="start"/><voice>1</voice><type>eighth</type><stem>up</stem><beam number="1">end</beam><notations><tied type="start"/></notations><lyric number="1"><syllabic>single</syllabic><text>face</text></lyric></note><note default-y="-20.00" default-x="186.55"><pitch><step>B</step><octave>4</octave></pitch><duration>12</duration><tie type="stop"/><tie type="start"/><voice>1</voice><type>quarter</type><stem>down</stem><notations><tied type="stop"/><tied type="start"/></notations></note><note default-y="-20.00" default-x="241.64"><pitch><step>B</step><octave>4</octave></pitch><duration>9</duration><tie type="stop"/><voice>1</voice><type>eighth</type><dot/><stem>up</stem><beam number="1">begin</beam><notations><tied type="stop"/></notations></note><note default-y="-25.00" default-x="290.49"><pitch><step>A</step><octave>4</octave></pitch><duration>3</duration><voice>1</voice><type>16th</type><stem>up</stem><beam number="1">end</beam><lyric number="1"><syllabic>single</syllabic><text>I</text></lyric></note></measure><measure width="451.82" number="24"><print new-system="yes"><system-layout><system-margins><left-margin>47.08</left-margin><right-margin>0.00</right-margin></system-margins><system-distance>117.01</system-distance></system-layout></print><harmony print-frame="no"><root><root-step>D</root-step></root><kind text="7">dominant</kind></harmony><note default-y="-10.00" default-x="90.36"><pitch><step>D</step><octave>5</octave></pitch><duration>8</duration><voice>1</voice><type>quarter</type><time-modification><actual-notes>3</actual-notes><normal-notes>2</normal-notes></time-modification><stem>up</stem><notations><tuplet type="start" bracket="yes"/></notations><lyric number="1"><syllabic>single</syllabic><text>pick</text></lyric></note><note default-y="-20.00" default-x="152.10"><pitch><step>B</step><octave>4</octave></pitch><duration>4</duration><voice>1</voice><type>eighth</type><time-modification><actual-notes>3</actual-notes><normal-notes>2</normal-notes></time-modification><stem>up</stem><notations><tuplet type="stop"/></notations><lyric number="1"><syllabic>begin</syllabic><text>my</text></lyric></note><note default-y="-10.00" default-x="196.31"><pitch><step>D</step><octave>5</octave></pitch><duration>12</duration><voice>1</voice><type>quarter</type><stem>down</stem><lyric number="1"><syllabic>single</syllabic><text>self</text></lyric></note><note default-y="-10.00" default-x="271.59"><pitch><step>D</step><octave>5</octave></pitch><duration>8</duration><voice>1</voice><type>quarter</type><time-modification><actual-notes>3</actual-notes><normal-notes>2</normal-notes></time-modification><stem>up</stem><notations><tuplet type="start" bracket="yes"/></notations><lyric number="1"><syllabic>single</syllabic><text>up</text></lyric></note><note default-y="-10.00" default-x="333.33"><pitch><step>D</step><octave>5</octave></pitch><duration>4</duration><voice>1</voice><type>eighth</type><time-modification><actual-notes>3</actual-notes><normal-notes>2</normal-notes></time-modification><stem>up</stem><notations><tuplet type="stop"/></notations><lyric number="1"><syllabic>single</syllabic><text>and</text></lyric></note><note default-y="-5.00" default-x="374.94"><pitch><step>E</step><octave>5</octave></pitch><duration>12</duration><voice>1</voice><type>quarter</type><stem>down</stem><lyric number="1"><syllabic>single</syllabic><text>get</text></lyric></note></measure><measure width="387.30" number="25"><note default-y="0.00" default-x="30.58"><pitch><step>F</step><alter>1</alter><octave>5</octave></pitch><duration>6</duration><voice>1</voice><type>eighth</type><stem>down</stem><beam number="1">begin</beam><lyric number="1"><syllabic>single</syllabic><text>back</text></lyric></note><note default-y="-10.00" default-x="79.90"><pitch><step>D</step><octave>5</octave></pitch><duration>6</duration><voice>1</voice><type>eighth</type><stem>down</stem><beam number="1">continue</beam><lyric number="1"><syllabic>single</syllabic><text>in</text></lyric></note><note default-y="0.00" default-x="129.23"><pitch><step>F</step><alter>1</alter><octave>5</octave></pitch><duration>6</duration><voice>1</voice><type>eighth</type><stem>down</stem><beam number="1">continue</beam><lyric number="1"><syllabic>single</syllabic><text>the</text></lyric></note><note default-y="-10.00" default-x="178.55"><pitch><step>D</step><octave>5</octave></pitch><duration>6</duration><tie type="start"/><voice>1</voice><type>eighth</type><stem>down</stem><beam number="1">end</beam><notations><tied type="start"/></notations><lyric number="1"><syllabic>single</syllabic><text>race</text></lyric></note><note default-y="-10.00" default-x="227.87"><pitch><step>D</step><octave>5</octave></pitch><duration>12</duration><tie type="stop"/><voice>1</voice><type>quarter</type><stem>down</stem><notations><tied type="stop"/></notations></note><harmony print-frame="no"><root><root-step>D</root-step></root><kind text="9">dominant-ninth</kind></harmony><note default-y="-5.00" default-x="306.78"><pitch><step>E</step><octave>5</octave></pitch><duration>12</duration><voice>1</voice><type>quarter</type><stem>down</stem><lyric number="1"><syllabic>single</syllabic><text>That's</text></lyric></note></measure><measure width="231.45" number="26"><harmony print-frame="no"><root><root-step>G</root-step></root><kind text="">major</kind></harmony><note default-y="-20.00" default-x="27.23"><pitch><step>B</step><octave>4</octave></pitch><duration>12</duration><voice>1</voice><type>quarter</type><stem>down</stem><lyric number="1"><syllabic>single</syllabic><text>Life</text></lyric></note><note><rest/><duration>12</duration><voice>1</voice><type>quarter</type></note><note><rest/><duration>24</duration><voice>1</voice><type>half</type></note></measure><measure width="502.29" number="27"><print new-page="yes"><system-layout><system-margins><left-margin>47.08</left-margin><right-margin>0.00</right-margin></system-margins><top-system-distance>70.00</top-system-distance></system-layout></print><harmony print-frame="no"><root><root-step>B</root-step></root><kind text="7">dominant</kind></harmony><note><rest/><duration>6</duration><voice>1</voice><type>eighth</type></note><note default-y="-20.00" default-x="128.99"><pitch><step>B</step><octave>4</octave></pitch><duration>6</duration><voice>1</voice><type>eighth</type><stem>up</stem><beam number="1">begin</beam><lyric number="1"><syllabic>single</syllabic><text>I</text></lyric></note><note default-y="-20.00" default-x="188.75"><pitch><step>B</step><octave>4</octave></pitch><duration>9</duration><voice>1</voice><type>eighth</type><dot/><stem>up</stem><beam number="1">continue</beam><lyric number="1"><syllabic>single</syllabic><text>can't</text></lyric></note><note default-y="-20.00" default-x="261.63"><pitch><step>B</step><octave>4</octave></pitch><duration>3</duration><voice>1</voice><type>16th</type><stem>up</stem><beam number="1">end</beam><lyric number="1"><syllabic>begin</syllabic><text>den</text></lyric></note><note default-y="-20.00" default-x="298.98"><pitch><step>B</step><octave>4</octave></pitch><duration>6</duration><voice>1</voice><type>eighth</type><stem>down</stem><lyric number="1"><syllabic>end</syllabic><text>y</text></lyric></note><note default-y="-25.00" default-x="358.74"><pitch><step>A</step><octave>4</octave></pitch><duration>12</duration><voice>1</voice><type>quarter</type><stem>up</stem><lyric number="1"><syllabic>single</syllabic><text>it,</text></lyric></note><note><rest/><duration>6</duration><voice>1</voice><type>eighth</type></note></measure><measure width="568.28" number="28"><harmony print-frame="no"><root><root-step>E</root-step></root><kind text="m7">minor-seventh</kind></harmony><note><rest/><duration>6</duration><voice>1</voice><type>eighth</type></note><note default-y="-40.00" default-x="82.11"><pitch><step>E</step><octave>4</octave></pitch><duration>6</duration><voice>1</voice><type>eighth</type><stem>up</stem><beam number="1">begin</beam><lyric number="1"><syllabic>single</syllabic><text>I</text></lyric></note><note default-y="-30.00" default-x="149.22"><pitch><step>G</step><octave>4</octave></pitch><duration>6</duration><voice>1</voice><type>eighth</type><stem>up</stem><beam number="1">continue</beam><lyric number="1"><syllabic>single</syllabic><text>thought</text></lyric></note><note default-y="-25.00" default-x="216.33"><pitch><step>A</step><octave>4</octave></pitch><duration>6</duration><voice>1</voice><type>eighth</type><stem>up</stem><beam number="1">end</beam><lyric number="1"><syllabic>single</syllabic><text>of</text></lyric></note><note default-y="-20.00" default-x="283.44"><pitch><step>B</step><octave>4</octave></pitch><duration>6</duration><voice>1</voice><type>eighth</type><stem>up</stem><beam number="1">begin</beam><lyric number="1"><syllabic>single</syllabic><text>quit</text></lyric></note><note default-y="-25.00" default-x="350.55"><pitch><step>A</step><octave>4</octave></pitch><duration>6</duration><voice>1</voice><type>eighth</type><stem>up</stem><beam number="1">end</beam><lyric number="1"><syllabic>single</syllabic><text>ting</text></lyric></note><note><rest/><duration>4</duration><voice>1</voice><type>eighth</type><time-modification><actual-notes>3</actual-notes><normal-notes>2</normal-notes></time-modification><notations><tuplet type="start" bracket="yes"/></notations></note><note default-y="-30.00" default-x="467.33"><pitch><step>G</step><octave>4</octave></pitch><duration>4</duration><voice>1</voice><type>eighth</type><time-modification><actual-notes>3</actual-notes><normal-notes>2</normal-notes></time-modification><stem>up</stem><beam number="1">begin</beam><lyric number="1"><syllabic>single</syllabic><text>but</text></lyric></note><note default-y="-40.00" default-x="517.01"><pitch><step>E</step><octave>4</octave></pitch><duration>4</duration><voice>1</voice><type>eighth</type><time-modification><actual-notes>3</actual-notes><normal-notes>2</normal-notes></time-modification><stem>up</stem><beam number="1">end</beam><notations><tuplet type="stop"/></notations><lyric number="1"><syllabic>single</syllabic><text>my</text></lyric></note></measure><measure width="560.97" number="29"><print new-system="yes"><system-layout><system-margins><left-margin>47.08</left-margin><right-margin>-0.00</right-margin></system-margins><system-distance>105.15</system-distance></system-layout></print><harmony print-frame="no"><root><root-step>A</root-step></root><kind text="7">dominant</kind></harmony><note default-y="-20.00" default-x="93.60"><pitch><step>B</step><octave>4</octave></pitch><duration>8</duration><voice>1</voice><type>quarter</type><time-modification><actual-notes>3</actual-notes><normal-notes>2</normal-notes></time-modification><stem>up</stem><notations><tuplet type="start" bracket="yes"/></notations><lyric number="1"><syllabic>single</syllabic><text>heart</text></lyric></note><note default-y="-20.00" default-x="169.50"><pitch><step>B</step><octave>4</octave></pitch><duration>8</duration><voice>1</voice><type>quarter</type><time-modification><actual-notes>3</actual-notes><normal-notes>2</normal-notes></time-modification><stem>up</stem><lyric number="1"><syllabic>single</syllabic><text>just</text></lyric></note><note default-y="-20.00" default-x="245.39"><pitch><step>B</step><octave>4</octave></pitch><duration>8</duration><voice>1</voice><type>quarter</type><time-modification><actual-notes>3</actual-notes><normal-notes>2</normal-notes></time-modification><stem>up</stem><notations><tuplet type="stop"/></notations><lyric number="1"><syllabic>single</syllabic><text>won't</text></lyric></note><note default-y="-25.00" default-x="321.29"><pitch><step>A</step><octave>4</octave></pitch><duration>6</duration><voice>1</voice><type>eighth</type><stem>up</stem><lyric number="1"><syllabic>single</syllabic><text>buy</text></lyric></note><note default-y="-30.00" default-x="386.97"><pitch><step>G</step><octave>4</octave></pitch><duration>12</duration><voice>1</voice><type>quarter</type><stem>up</stem><lyric number="1"><syllabic>single</syllabic><text>it.</text></lyric></note><harmony print-frame="no"><root><root-step>C</root-step></root><kind text="m6">minor-sixth</kind></harmony><note default-y="-30.00" default-x="477.28"><pitch><step>G</step><octave>4</octave></pitch><duration>3</duration><voice>1</voice><type>16th</type><stem>up</stem><beam number="1">begin</beam><lyric number="1"><syllabic>single</syllabic><text>If</text></lyric></note><note default-y="-25.00" default-x="518.32"><pitch><step>A</step><octave>4</octave></pitch><duration>3</duration><voice>1</voice><type>16th</type><stem>up</stem><beam number="1">end</beam><lyric number="1"><syllabic>single</syllabic><text>I</text></lyric></note></measure><measure width="509.60" number="30"><harmony print-frame="no"><root><root-step>G</root-step></root><kind text="">major</kind></harmony><note default-y="-20.00" default-x="23.45"><pitch><step>B</step><octave>4</octave></pitch><duration>6</duration><voice>1</voice><type>eighth</type><stem>up</stem><beam number="1">begin</beam><lyric number="1"><syllabic>begin</syllabic><text>did</text></lyric></note><note default-y="-20.00" default-x="93.42"><pitch><step>B</step><octave>4</octave></pitch><duration>6</duration><voice>1</voice><type>eighth</type><stem>up</stem><beam number="1">end</beam><lyric number="1"><syllabic>end</syllabic><text>n't</text></lyric></note><note default-y="-20.00" default-x="163.40"><pitch><step>B</step><octave>4</octave></pitch><duration>4</duration><voice>1</voice><type>eighth</type><time-modification><actual-notes>3</actual-notes><normal-notes>2</normal-notes></time-modification><stem>up</stem><beam number="1">begin</beam><notations><tuplet type="start" bracket="no"/></notations><lyric number="1"><syllabic>single</syllabic><text>think</text></lyric></note><note default-y="-20.00" default-x="215.19"><pitch><step>B</step><octave>4</octave></pitch><duration>4</duration><voice>1</voice><type>eighth</type><time-modification><actual-notes>3</actual-notes><normal-notes>2</normal-notes></time-modification><stem>up</stem><beam number="1">continue</beam><lyric number="1"><syllabic>single</syllabic><text>it</text></lyric></note><note default-y="-20.00" default-x="266.99"><pitch><step>B</step><octave>4</octave></pitch><duration>4</duration><voice>1</voice><type>eighth</type><time-modification><actual-notes>3</actual-notes><normal-notes>2</normal-notes></time-modification><stem>up</stem><beam number="1">end</beam><notations><tuplet type="stop"/></notations><lyric number="1"><syllabic>single</syllabic><text>was</text></lyric></note><harmony print-frame="no"><root><root-step>F</root-step></root><kind text="m7b5">half-diminished</kind></harmony><note default-y="-20.00" default-x="318.79"><pitch><step>B</step><octave>4</octave></pitch><duration>18</duration><voice>1</voice><type>quarter</type><dot/><stem>down</stem><lyric number="1"><syllabic>single</syllabic><text>worth</text></lyric></note><harmony print-frame="no"><root><root-step>B</root-step></root><kind text="7">dominant</kind></harmony><note default-y="-25.00" default-x="438.02"><pitch><step>A</step><octave>4</octave></pitch><duration>6</duration><voice>1</voice><type>eighth</type><stem>up</stem><lyric number="1"><syllabic>single</syllabic><text>a</text></lyric></note></measure><measure width="278.38" number="31"><print new-system="yes"><system-layout><system-margins><left-margin>47.08</left-margin><right-margin>0.00</right-margin></system-margins><system-distance>105.15</system-distance></system-layout></print><harmony print-frame="no"><root><root-step>E</root-step></root><kind text="m7">minor-seventh</kind></harmony><note default-y="-30.00" default-x="83.21"><pitch><step>G</step><octave>4</octave></pitch><duration>6</duration><voice>1</voice><type>eighth</type><stem>up</stem><beam number="1">begin</beam><notations><slur type="start" number="1"/></notations><lyric number="1"><syllabic>single</syllabic><text>try</text></lyric></note><note default-y="-40.00" default-x="116.59"><pitch><step>E</step><octave>4</octave></pitch><duration>6</duration><tie type="start"/><voice>1</voice><type>eighth</type><stem>up</stem><beam number="1">end</beam><notations><tied type="start"/><slur type="stop" number="1"/></notations></note><note default-y="-40.00" default-x="149.96"><pitch><step>E</step><octave>4</octave></pitch><duration>24</duration><tie type="stop"/><voice>1</voice><type>half</type><stem>up</stem><notations><tied type="stop"/></notations></note><note default-y="-40.00" default-x="223.38"><pitch><step>E</step><octave>4</octave></pitch><duration>12</duration><voice>1</voice><type>quarter</type><stem>up</stem><lyric number="1"><syllabic>single</syllabic><text>I'd</text></lyric></note></measure><measure width="430.10" number="32"><harmony print-frame="no"><root><root-step>A</root-step></root><kind text="7b9">dominant</kind><degree><degree-value>9</degree-value><degree-alter>-1</degree-alter><degree-type>add</degree-type></degree></harmony><note default-y="-20.00" default-x="24.74"><pitch><step>B</step><alter>-1</alter><octave>4</octave></pitch><duration>9</duration><voice>1</voice><type>eighth</type><dot/><accidental>flat</accidental><stem>up</stem><beam number="1">begin</beam><lyric number="1"><syllabic>single</syllabic><text>roll</text></lyric></note><note default-y="-25.00" default-x="84.04"><pitch><step>A</step><octave>4</octave></pitch><duration>3</duration><voice>1</voice><type>16th</type><stem>up</stem><beam number="1">continue</beam><lyric number="1"><syllabic>begin</syllabic><text>my</text></lyric></note><note default-y="-30.00" default-x="121.29"><pitch><step>G</step><octave>4</octave></pitch><duration>9</duration><voice>1</voice><type>eighth</type><dot/><stem>up</stem><beam number="1">continue</beam><lyric number="1"><syllabic>end</syllabic><text>self</text></lyric></note><note default-y="-40.00" default-x="180.59"><pitch><step>E</step><octave>4</octave></pitch><duration>3</duration><voice>1</voice><type>16th</type><stem>up</stem><beam number="1">end</beam><lyric number="1"><syllabic>single</syllabic><text>up</text></lyric></note><note default-y="-20.00" default-x="210.98"><pitch><step>B</step><alter>-1</alter><octave>4</octave></pitch><duration>6</duration><voice>1</voice><type>eighth</type><stem>up</stem><beam number="1">begin</beam><lyric number="1"><syllabic>single</syllabic><text>in</text></lyric></note><note default-y="-25.00" default-x="259.61"><pitch><step>A</step><octave>4</octave></pitch><duration>3</duration><voice>1</voice><type>16th</type><stem>up</stem><beam number="1">continue</beam><lyric number="1"><syllabic>single</syllabic><text>a</text></lyric></note><note default-y="-30.00" default-x="292.76"><pitch><step>G</step><octave>4</octave></pitch><duration>3</duration><voice>1</voice><type>16th</type><stem>up</stem><beam number="1">continue</beam><lyric number="1"><syllabic>single</syllabic><text>big</text></lyric></note><note default-y="-30.00" default-x="331.24"><pitch><step>G</step><octave>4</octave></pitch><duration>6</duration><voice>1</voice><type>eighth</type><stem>up</stem><beam number="1">continue</beam><lyric number="1"><syllabic>single</syllabic><text>ball</text></lyric></note><harmony print-frame="no"><root><root-step>D</root-step></root><kind text="7">dominant</kind></harmony><note default-y="-40.00" default-x="379.87"><pitch><step>E</step><octave>4</octave></pitch><duration>6</duration><voice>1</voice><type>eighth</type><stem>up</stem><beam number="1">end</beam><lyric number="1"><syllabic>single</syllabic><text>and</text></lyric></note></measure><measure width="195.50" number="33"><harmony print-frame="no"><root><root-step>G</root-step></root><kind text="">major</kind></harmony><note default-y="-25.00" default-x="25.71"><pitch><step>A</step><octave>4</octave></pitch><duration>6</duration><voice>1</voice><type>eighth</type><stem>up</stem><beam number="1">begin</beam><notations><slur type="start" number="1"/></notations><lyric number="1"><syllabic>single</syllabic><text>die.</text></lyric></note><note default-y="-30.00" default-x="62.67"><pitch><step>G</step><octave>4</octave></pitch><duration>6</duration><tie type="start"/><voice>1</voice><type>eighth</type><stem>up</stem><beam number="1">end</beam><notations><tied type="start"/><slur type="stop" number="1"/></notations></note><note default-y="-30.00" default-x="99.63"><pitch><step>G</step><octave>4</octave></pitch><duration>36</duration><tie type="stop"/><tie type="start"/><voice>1</voice><type>half</type><dot/><stem>up</stem><notations><tied type="stop"/><tied type="start"/></notations></note></measure><measure width="166.59" number="34"><note default-y="-30.00" default-x="15.00"><pitch><step>G</step><octave>4</octave></pitch><duration>36</duration><tie type="stop"/><voice>1</voice><type>half</type><dot/><stem>up</stem><notations><tied type="stop"/></notations></note><note><rest/><duration>12</duration><voice>1</voice><type>quarter</type></note><barline location="right"><bar-style>light-heavy</bar-style></barline></measure></part></score-partwise>