<score-partwise version="2.0"><work><work-number/><work-title/></work><movement-number/><movement-title>Beer Barrel Polka</movement-title><identification><creator type="composer">Lew Brown: Wladimir A.</creator><creator type="poet"/><rights>All Rights Reserved</rights><encoding><software>MuseScore 0.9.5</software><encoding-date>2009-12-20</encoding-date><software>ProxyMusic 2.0 c</software></encoding><source>http://wikifonia.org/node/3868/revisions/5084/view</source></identification><defaults><scaling><millimeters>7.056</millimeters><tenths>40</tenths></scaling><page-layout><page-height>1683.67</page-height><page-width>1190.48</page-width><page-margins type="both"><left-margin>56.6893</left-margin><right-margin>56.6893</right-margin><top-margin>56.6893</top-margin><bottom-margin>113.379</bottom-margin></page-margins></page-layout></defaults><credit page="1"><credit-words font-size="24" default-y="1626.98" default-x="595.238" justify="center" valign="top">Beer Barrel Polka</credit-words></credit><credit page="1"><credit-words font-size="14" default-y="1570.29" default-x="595.238" justify="center" valign="top">(Roll out the barrel) </credit-words></credit><credit page="1"><credit-words font-size="12" default-y="1556.5" default-x="1133.79" justify="right" valign="top">Lew Brown: Wladimir A. Tim Jaromir Vejvoda and Vasek Zem</credit-words></credit><credit page="1"><credit-words font-size="12" default-y="1523.5" default-x="56.6893" justify="left" valign="top">(Based on the European success "Skoda Lasky"</credit-words></credit><part-list><part-group type="start" number="1"><group-symbol>brace</group-symbol></part-group><score-part id="P1"><part-name>Electric Piano</part-name><score-instrument id="P1-I3"><instrument-name>Electric Piano</instrument-name></score-instrument><midi-instrument id="P1-I3"><midi-channel>1</midi-channel><midi-program>5</midi-program></midi-instrument></score-part></part-list><part id="P1"><measure width="133.35" number="1"><print><system-layout><system-margins><left-margin>169.77</left-margin><right-margin>0.00</right-margin></system-margins><top-system-distance>194.51</top-system-distance></system-layout></print><attributes><divisions>480</divisions><key><fifths>0</fifths><mode>major</mode></key><time><beats>4</beats><beat-type>4</beat-type></time><clef><sign>G</sign><line>2</line></clef></attributes><note><rest/><duration>1920</duration><voice>1</voice></note></measure><measure width="186.59" number="2"><note><rest/><duration>960</duration><voice>1</voice><type>half</type></note><note><rest/><duration>480</duration><voice>1</voice><type>quarter</type></note><direction><direction-type><words default-y="100">N.C.</words></direction-type></direction><note default-y="-30.00" default-x="112.78"><pitch><step>G</step><octave>4</octave></pitch><duration>240</duration><voice>1</voice><type>eighth</type><stem>up</stem><beam number="1">begin</beam><lyric number="1"><syllabic>single</syllabic><text>Theres</text></lyric></note><note default-y="-35.00" default-x="161.65"><pitch><step>F</step><alter>1</alter><octave>4</octave></pitch><duration>240</duration><voice>1</voice><type>eighth</type><accidental>sharp</accidental><stem>up</stem><beam number="1">end</beam><lyric number="1"><syllabic>single</syllabic><text>a</text></lyric></note></measure><measure width="215.65" number="3"><harmony print-frame="no"><root><root-step>C</root-step></root><kind text="">major</kind></harmony><note default-y="-30.00" default-x="22.86"><pitch><step>G</step><octave>4</octave></pitch><duration>480</duration><voice>1</voice><type>quarter</type><stem>up</stem><lyric number="1"><syllabic>begin</syllabic><text>gar</text></lyric></note><note default-y="-40.00" default-x="64.53"><pitch><step>E</step><octave>4</octave></pitch><duration>480</duration><voice>1</voice><type>quarter</type><stem>up</stem><lyric number="1"><syllabic>end</syllabic><text>den</text></lyric></note><note><rest/><duration>480</duration><voice>1</voice><type>quarter</type></note><note default-y="-30.00" default-x="147.89"><pitch><step>G</step><octave>4</octave></pitch><duration>240</duration><voice>1</voice><type>eighth</type><stem>up</stem><beam number="1">begin</beam><lyric number="1"><syllabic>single</syllabic><text>what</text></lyric></note><note default-y="-35.00" default-x="188.00"><pitch><step>F</step><alter>1</alter><octave>4</octave></pitch><duration>240</duration><voice>1</voice><type>eighth</type><accidental>sharp</accidental><stem>up</stem><beam number="1">end</beam><lyric number="1"><syllabic>single</syllabic><text>a</text></lyric></note></measure><measure width="195.34" number="4"><note default-y="-30.00" default-x="22.86"><pitch><step>G</step><octave>4</octave></pitch><duration>480</duration><voice>1</voice><type>quarter</type><stem>up</stem><lyric number="1"><syllabic>begin</syllabic><text>gar</text></lyric></note><note default-y="-40.00" default-x="61.60"><pitch><step>E</step><octave>4</octave></pitch><duration>480</duration><voice>1</voice><type>quarter</type><stem>up</stem><lyric number="1"><syllabic>end</syllabic><text>den</text></lyric></note><note><rest/><duration>480</duration><voice>1</voice><type>quarter</type></note><note default-y="-30.00" default-x="139.09"><pitch><step>G</step><octave>4</octave></pitch><duration>240</duration><voice>1</voice><type>eighth</type><stem>up</stem><beam number="1">begin</beam><lyric number="1"><syllabic>begin</syllabic><text>on</text></lyric></note><note default-y="-35.00" default-x="169.53"><pitch><step>F</step><alter>1</alter><octave>4</octave></pitch><duration>240</duration><voice>1</voice><type>eighth</type><accidental>sharp</accidental><stem>up</stem><beam number="1">end</beam><lyric number="1"><syllabic>end</syllabic><text>ly</text></lyric></note></measure><measure width="176.39" number="5"><note default-y="-30.00" default-x="24.74"><pitch><step>G</step><octave>4</octave></pitch><duration>480</duration><voice>1</voice><type>quarter</type><stem>up</stem><lyric number="1"><syllabic>begin</syllabic><text>hap</text></lyric></note><note default-y="-15.00" default-x="62.25"><pitch><step>C</step><octave>5</octave></pitch><duration>480</duration><voice>1</voice><type>quarter</type><stem>down</stem><lyric number="1"><syllabic>end</syllabic><text>py</text></lyric></note><note default-y="-10.00" default-x="99.76"><pitch><step>D</step><octave>5</octave></pitch><duration>480</duration><voice>1</voice><type>quarter</type><stem>down</stem><lyric number="1"><syllabic>begin</syllabic><text>fac</text></lyric></note><note default-y="-15.00" default-x="137.28"><pitch><step>C</step><octave>5</octave></pitch><duration>480</duration><voice>1</voice><type>quarter</type><stem>down</stem><lyric number="1"><syllabic>end</syllabic><text>es</text></lyric></note></measure><measure width="343.24" number="6"><print new-system="yes"><system-layout><system-margins><left-margin>109.38</left-margin><right-margin>0.00</right-margin></system-margins><system-distance>119.70</system-distance></system-layout></print><harmony print-frame="no"><root><root-step>G</root-step></root><kind text="7">dominant</kind></harmony><note default-y="-15.00" default-x="82.95"><pitch><step>C</step><octave>5</octave></pitch><duration>480</duration><voice>1</voice><type>quarter</type><stem>down</stem><lyric number="1"><syllabic>single</syllabic><text>bloom</text></lyric></note><note default-y="-20.00" default-x="140.21"><pitch><step>B</step><octave>4</octave></pitch><duration>480</duration><voice>1</voice><type>quarter</type><stem>down</stem><lyric number="1"><syllabic>single</syllabic><text>there</text></lyric></note><note><rest/><duration>480</duration><voice>1</voice><type>quarter</type></note><note default-y="-20.00" default-x="250.57"><pitch><step>B</step><octave>4</octave></pitch><duration>240</duration><voice>1</voice><type>eighth</type><stem>down</stem><beam number="1">begin</beam><lyric number="1"><syllabic>single</syllabic><text>and</text></lyric></note><note default-y="-15.00" default-x="301.72"><pitch><step>C</step><octave>5</octave></pitch><duration>240</duration><voice>1</voice><type>eighth</type><stem>down</stem><beam number="1">end</beam><lyric number="1"><syllabic>single</syllabic><text>there's</text></lyric></note></measure><measure width="183.92" number="7"><note default-y="-20.00" default-x="24.74"><pitch><step>B</step><octave>4</octave></pitch><duration>480</duration><voice>1</voice><type>quarter</type><stem>down</stem><lyric number="1"><syllabic>begin</syllabic><text>nev</text></lyric></note><note default-y="-15.00" default-x="64.14"><pitch><step>C</step><octave>5</octave></pitch><duration>480</duration><voice>1</voice><type>quarter</type><stem>down</stem><lyric number="1"><syllabic>end</syllabic><text>er</text></lyric></note><note default-y="-10.00" default-x="103.53"><pitch><step>D</step><octave>5</octave></pitch><duration>480</duration><voice>1</voice><type>quarter</type><stem>down</stem><lyric number="1"><syllabic>begin</syllabic><text>an</text></lyric></note><note default-y="-15.00" default-x="142.93"><pitch><step>C</step><octave>5</octave></pitch><duration>480</duration><voice>1</voice><type>quarter</type><stem>down</stem><lyric number="1"><syllabic>end</syllabic><text>y</text></lyric></note></measure><measure width="240.59" number="8"><note default-y="-15.00" default-x="32.25"><pitch><step>C</step><octave>5</octave></pitch><duration>480</duration><voice>1</voice><type>quarter</type><stem>down</stem><lyric number="1"><syllabic>single</syllabic><text>room</text></lyric></note><note default-y="-15.00" default-x="84.50"><pitch><step>C</step><octave>5</octave></pitch><duration>480</duration><voice>1</voice><type>quarter</type><stem>down</stem><lyric number="1"><syllabic>single</syllabic><text>there</text></lyric></note><note><rest/><duration>480</duration><voice>1</voice><type>quarter</type></note><note default-y="-20.00" default-x="179.57"><pitch><step>B</step><octave>4</octave></pitch><duration>240</duration><voice>1</voice><type>eighth</type><stem>down</stem><beam number="1">begin</beam><lyric number="1"><syllabic>single</syllabic><text>for</text></lyric></note><note default-y="-15.00" default-x="209.28"><pitch><step>C</step><octave>5</octave></pitch><duration>240</duration><voice>1</voice><type>eighth</type><stem>down</stem><beam number="1">end</beam><lyric number="1"><syllabic>single</syllabic><text>a</text></lyric></note></measure><measure width="199.97" number="9"><note default-y="-20.00" default-x="25.99"><pitch><step>B</step><octave>4</octave></pitch><duration>480</duration><voice>1</voice><type>quarter</type><stem>down</stem><lyric number="1"><syllabic>begin</syllabic><text>wor</text></lyric></note><note default-y="-25.00" default-x="66.55"><pitch><step>A</step><octave>4</octave></pitch><duration>480</duration><voice>1</voice><type>quarter</type><stem>up</stem><lyric number="1"><syllabic>end</syllabic><text>ry</text></lyric></note><note><rest/><duration>480</duration><voice>1</voice><type>quarter</type></note><note default-y="-25.00" default-x="147.67"><pitch><step>A</step><octave>4</octave></pitch><duration>240</duration><voice>1</voice><type>eighth</type><stem>up</stem><beam number="1">begin</beam><lyric number="1"><syllabic>single</syllabic><text>or</text></lyric></note><note default-y="-20.00" default-x="173.02"><pitch><step>B</step><octave>4</octave></pitch><duration>240</duration><voice>1</voice><type>eighth</type><stem>up</stem><beam number="1">end</beam><lyric number="1"><syllabic>single</syllabic><text>a</text></lyric></note></measure><measure width="383.48" number="10"><print new-system="yes"><system-layout><system-margins><left-margin>109.38</left-margin><right-margin>0.00</right-margin></system-margins><system-distance>119.70</system-distance></system-layout></print><harmony print-frame="no"><root><root-step>C</root-step></root><kind text="">major</kind></harmony><note default-y="-25.00" default-x="82.95"><pitch><step>A</step><octave>4</octave></pitch><duration>480</duration><voice>1</voice><type>quarter</type><stem>up</stem><lyric number="1"><syllabic>single</syllabic><text>gloom</text></lyric></note><note default-y="-30.00" default-x="152.98"><pitch><step>G</step><octave>4</octave></pitch><duration>480</duration><voice>1</voice><type>quarter</type><stem>up</stem><lyric number="1"><syllabic>single</syllabic><text>there</text></lyric></note><note><rest/><duration>480</duration><voice>1</voice><type>quarter</type></note><note default-y="-30.00" default-x="293.03"><pitch><step>G</step><octave>4</octave></pitch><duration>240</duration><voice>1</voice><type>eighth</type><stem>up</stem><beam number="1">begin</beam><lyric number="1"><syllabic>single</syllabic><text>oh</text></lyric></note><note default-y="-35.00" default-x="338.12"><pitch><step>F</step><alter>1</alter><octave>4</octave></pitch><duration>240</duration><voice>1</voice><type>eighth</type><accidental>sharp</accidental><stem>up</stem><beam number="1">end</beam><lyric number="1"><syllabic>single</syllabic><text>theres</text></lyric></note></measure><measure width="298.02" number="11"><note default-y="-30.00" default-x="22.86"><pitch><step>G</step><octave>4</octave></pitch><duration>480</duration><voice>1</voice><type>quarter</type><stem>up</stem><lyric number="1"><syllabic>begin</syllabic><text>mu</text></lyric></note><note default-y="-40.00" default-x="84.78"><pitch><step>E</step><octave>4</octave></pitch><duration>480</duration><voice>1</voice><type>quarter</type><stem>up</stem><lyric number="1"><syllabic>end</syllabic><text>sic</text></lyric></note><note><rest/><duration>480</duration><voice>1</voice><type>quarter</type></note><note default-y="-30.00" default-x="208.60"><pitch><step>G</step><octave>4</octave></pitch><duration>240</duration><voice>1</voice><type>eighth</type><stem>up</stem><beam number="1">begin</beam><lyric number="1"><syllabic>single</syllabic><text>and</text></lyric></note><note default-y="-35.00" default-x="257.72"><pitch><step>F</step><alter>1</alter><octave>4</octave></pitch><duration>240</duration><voice>1</voice><type>eighth</type><accidental>sharp</accidental><stem>up</stem><beam number="1">end</beam><lyric number="1"><syllabic>single</syllabic><text>theres</text></lyric></note></measure><measure width="286.22" number="12"><note default-y="-30.00" default-x="29.74"><pitch><step>G</step><octave>4</octave></pitch><duration>480</duration><voice>1</voice><type>quarter</type><stem>up</stem><lyric number="1"><syllabic>begin</syllabic><text>danc</text></lyric></note><note default-y="-40.00" default-x="89.71"><pitch><step>E</step><octave>4</octave></pitch><duration>480</duration><voice>1</voice><type>quarter</type><stem>up</stem><lyric number="1"><syllabic>end</syllabic><text>ing</text></lyric></note><note><rest/><duration>480</duration><voice>1</voice><type>quarter</type></note><note default-y="-30.00" default-x="209.66"><pitch><step>G</step><octave>4</octave></pitch><duration>240</duration><voice>1</voice><type>eighth</type><stem>up</stem><beam number="1">begin</beam><lyric number="1"><syllabic>single</syllabic><text>and</text></lyric></note><note default-y="-35.00" default-x="247.14"><pitch><step>F</step><alter>1</alter><octave>4</octave></pitch><duration>240</duration><voice>1</voice><type>eighth</type><accidental>sharp</accidental><stem>up</stem><beam number="1">end</beam><lyric number="1"><syllabic>single</syllabic><text>a</text></lyric></note></measure><measure width="240.41" number="13"><print new-system="yes"><system-layout><system-margins><left-margin>109.38</left-margin><right-margin>0.00</right-margin></system-margins><system-distance>119.70</system-distance></system-layout></print><note default-y="-30.00" default-x="66.04"><pitch><step>G</step><octave>4</octave></pitch><duration>480</duration><voice>1</voice><type>quarter</type><stem>up</stem><lyric number="1"><syllabic>single</syllabic><text>lot</text></lyric></note><note default-y="-15.00" default-x="109.02"><pitch><step>C</step><octave>5</octave></pitch><duration>480</duration><voice>1</voice><type>quarter</type><stem>down</stem><lyric number="1"><syllabic>single</syllabic><text>of</text></lyric></note><note default-y="-10.00" default-x="152.85"><pitch><step>D</step><octave>5</octave></pitch><duration>480</duration><voice>1</voice><type>quarter</type><stem>down</stem><lyric number="1"><syllabic>single</syllabic><text>sweet</text></lyric></note><note default-y="-15.00" default-x="195.83"><pitch><step>C</step><octave>5</octave></pitch><duration>480</duration><voice>1</voice><type>quarter</type><stem>down</stem><lyric number="1"><syllabic>begin</syllabic><text>ro</text></lyric></note></measure><measure width="156.59" number="14"><harmony print-frame="no"><root><root-step>G</root-step></root><kind text="7">dominant</kind></harmony><note default-y="-15.00" default-x="32.87"><pitch><step>C</step><octave>5</octave></pitch><duration>480</duration><voice>1</voice><type>quarter</type><stem>down</stem><lyric number="1"><syllabic>middle</syllabic><text>manc</text></lyric></note><note default-y="-20.00" default-x="77.61"><pitch><step>B</step><octave>4</octave></pitch><duration>960</duration><voice>1</voice><type>half</type><stem>down</stem><lyric number="1"><syllabic>end</syllabic><text>ing</text></lyric></note><note><rest/><duration>480</duration><voice>1</voice><type>quarter</type></note></measure><measure width="219.72" number="15"><note default-y="-10.00" default-x="32.88"><pitch><step>D</step><octave>5</octave></pitch><duration>720</duration><voice>1</voice><type>quarter</type><dot/><stem>down</stem><lyric number="1"><syllabic>single</syllabic><text>when</text></lyric></note><note default-y="-15.00" default-x="88.79"><pitch><step>C</step><alter>1</alter><octave>5</octave></pitch><duration>240</duration><voice>1</voice><type>eighth</type><accidental>sharp</accidental><stem>down</stem><lyric number="1"><syllabic>single</syllabic><text>they</text></lyric></note><note default-y="-10.00" default-x="133.54"><pitch><step>D</step><octave>5</octave></pitch><duration>720</duration><voice>1</voice><type>quarter</type><dot/><stem>down</stem><lyric number="1"><syllabic>single</syllabic><text>play</text></lyric></note><note default-y="-15.00" default-x="189.46"><pitch><step>C</step><alter>1</alter><octave>5</octave></pitch><duration>240</duration><voice>1</voice><type>eighth</type><stem>down</stem><lyric number="1"><syllabic>single</syllabic><text>a</text></lyric></note></measure><measure width="175.39" number="16"><note default-y="-15.00" default-x="22.87"><pitch><step>C</step><octave>5</octave></pitch><duration>480</duration><voice>1</voice><type>quarter</type><stem>down</stem><lyric number="1"><syllabic>begin</syllabic><text>pol</text></lyric></note><note default-y="-20.00" default-x="60.60"><pitch><step>B</step><octave>4</octave></pitch><duration>480</duration><voice>1</voice><type>quarter</type><stem>down</stem><lyric number="1"><syllabic>end</syllabic><text>ka</text></lyric></note><note><rest/><duration>480</duration><voice>1</voice><type>quarter</type></note><note default-y="-25.00" default-x="136.06"><pitch><step>A</step><octave>4</octave></pitch><duration>480</duration><voice>1</voice><type>quarter</type><stem>up</stem><lyric number="1"><syllabic>single</syllabic><text>they</text></lyric></note></measure><measure width="175.61" number="17"><note default-y="-30.00" default-x="19.73"><pitch><step>G</step><octave>4</octave></pitch><duration>480</duration><voice>1</voice><type>quarter</type><stem>up</stem><lyric number="1"><syllabic>single</syllabic><text>all</text></lyric></note><note default-y="-30.00" default-x="58.30"><pitch><step>G</step><alter>1</alter><octave>4</octave></pitch><duration>480</duration><voice>1</voice><type>quarter</type><accidental>sharp</accidental><stem>up</stem><lyric number="1"><syllabic>single</syllabic><text>get</text></lyric></note><note default-y="-25.00" default-x="96.87"><pitch><step>A</step><octave>4</octave></pitch><duration>480</duration><voice>1</voice><type>quarter</type><stem>up</stem><lyric number="1"><syllabic>single</syllabic><text>in</text></lyric></note><note default-y="-20.00" default-x="135.44"><pitch><step>B</step><octave>4</octave></pitch><duration>480</duration><voice>1</voice><type>quarter</type><stem>down</stem><lyric number="1"><syllabic>single</syllabic><text>the</text></lyric></note></measure><measure width="239.13" number="18"><print new-system="yes"><system-layout><system-margins><left-margin>109.38</left-margin><right-margin>0.00</right-margin></system-margins><system-distance>119.70</system-distance></system-layout></print><harmony print-frame="no"><root><root-step>C</root-step></root><kind text="">major</kind></harmony><note default-y="-15.00" default-x="81.07"><pitch><step>C</step><octave>5</octave></pitch><duration>960</duration><voice>1</voice><type>half</type><stem>down</stem><lyric number="1"><syllabic>single</syllabic><text>swing</text></lyric></note><direction><direction-type><words default-y="100">N.C.</words></direction-type></direction><note default-y="-30.00" default-x="144.59"><pitch><step>G</step><octave>4</octave></pitch><duration>480</duration><voice>1</voice><type>quarter</type><stem>up</stem><lyric number="1"><syllabic>begin</syllabic><text>ev</text></lyric></note><note default-y="-30.00" default-x="184.28"><pitch><step>G</step><alter>1</alter><octave>4</octave></pitch><duration>480</duration><voice>1</voice><type>quarter</type><accidental>sharp</accidental><stem>up</stem><lyric number="1"><syllabic>end</syllabic><text>ry</text></lyric></note></measure><measure width="209.88" number="19"><barline location="left"><bar-style>heavy-light</bar-style><repeat direction="forward"/></barline><harmony print-frame="no"><root><root-step>G</root-step></root><kind text="7">dominant</kind></harmony><note default-y="-25.00" default-x="28.49"><pitch><step>A</step><octave>4</octave></pitch><duration>960</duration><voice>1</voice><type>half</type><stem>up</stem><lyric number="1"><syllabic>single</syllabic><text>time</text></lyric><lyric number="2"><syllabic>single</syllabic><text>hear</text></lyric></note><note default-y="-30.00" default-x="108.40"><pitch><step>G</step><alter>1</alter><octave>4</octave></pitch><duration>480</duration><voice>1</voice><type>quarter</type><accidental>sharp</accidental><stem>up</stem><lyric number="1"><syllabic>single</syllabic><text>they</text></lyric><lyric number="2"><syllabic>single</syllabic><text>a</text></lyric></note><note default-y="-25.00" default-x="158.34"><pitch><step>A</step><octave>4</octave></pitch><duration>480</duration><tie type="start"/><voice>1</voice><type>quarter</type><stem>up</stem><notations><tied type="start"/></notations><lyric number="1"><syllabic>single</syllabic><text>hear</text></lyric><lyric number="2"><syllabic>end</syllabic><text>rum</text></lyric></note></measure><measure width="218.33" number="20"><note default-y="-25.00" default-x="15.00"><pitch><step>A</step><octave>4</octave></pitch><duration>480</duration><tie type="stop"/><voice>1</voice><type>quarter</type><stem>up</stem><notations><tied type="stop"/></notations></note><note default-y="-35.00" default-x="65.43"><pitch><step>F</step><octave>4</octave></pitch><duration>480</duration><voice>1</voice><type>quarter</type><stem>up</stem><lyric number="1"><syllabic>single</syllabic><text>that</text></lyric><lyric number="2"><syllabic>single</syllabic><text>ble</text></lyric></note><note default-y="-40.00" default-x="115.86"><pitch><step>E</step><octave>4</octave></pitch><duration>480</duration><voice>1</voice><type>quarter</type><stem>up</stem><lyric number="1"><syllabic>begin</syllabic><text>oom</text></lyric><lyric number="2"><syllabic>single</syllabic><text>on</text></lyric></note><note default-y="-45.00" default-x="166.30"><pitch><step>D</step><octave>4</octave></pitch><duration>480</duration><voice>1</voice><type>quarter</type><stem>up</stem><lyric number="1"><syllabic>middle</syllabic><text>pa</text></lyric><lyric number="2"><syllabic>single</syllabic><text>the</text></lyric></note></measure><measure width="124.17" number="21"><note default-y="-25.00" default-x="30.38"><pitch><step>A</step><octave>4</octave></pitch><duration>1920</duration><tie type="start"/><voice>1</voice><type>whole</type><notations><tied type="start"/></notations><lyric number="1"><syllabic>end</syllabic><text>pa</text></lyric><lyric number="2"><syllabic>single</syllabic><text>floor</text></lyric></note></measure><measure width="176.21" number="22"><note default-y="-25.00" default-x="15.00"><pitch><step>A</step><octave>4</octave></pitch><duration>480</duration><tie type="stop"/><voice>1</voice><type>quarter</type><stem>up</stem><notations><tied type="stop"/></notations></note><note><rest/><duration>480</duration><voice>1</voice><type>quarter</type></note><note default-y="-35.00" default-x="94.80"><pitch><step>F</step><octave>4</octave></pitch><duration>480</duration><voice>1</voice><type>quarter</type><stem>up</stem><lyric number="1"><syllabic>begin</syllabic><text>ev</text></lyric><lyric number="2"><syllabic>single</syllabic><text>its</text></lyric></note><note default-y="-35.00" default-x="134.70"><pitch><step>F</step><alter>1</alter><octave>4</octave></pitch><duration>480</duration><voice>1</voice><type>quarter</type><accidental>sharp</accidental><stem>up</stem><lyric number="1"><syllabic>end</syllabic><text>ry</text></lyric><lyric number="2"><syllabic>single</syllabic><text>the</text></lyric></note></measure><measure width="211.45" number="23"><print new-system="yes"><system-layout><system-margins><left-margin>109.38</left-margin><right-margin>0.00</right-margin></system-margins><system-distance>145.86</system-distance></system-layout></print><harmony print-frame="no"><root><root-step>C</root-step></root><kind text="">major</kind></harmony><note default-y="-30.00" default-x="71.05"><pitch><step>G</step><octave>4</octave></pitch><duration>960</duration><voice>1</voice><type>half</type><stem>up</stem><lyric number="1"><syllabic>begin</syllabic><text>bod</text></lyric><lyric number="2"><syllabic>single</syllabic><text>big</text></lyric></note><note default-y="-35.00" default-x="130.86"><pitch><step>F</step><alter>1</alter><octave>4</octave></pitch><duration>480</duration><voice>1</voice><type>quarter</type><accidental>sharp</accidental><stem>up</stem><lyric number="1"><syllabic>end</syllabic><text>y</text></lyric><lyric number="2"><syllabic>begin</syllabic><text>sur</text></lyric></note><note default-y="-30.00" default-x="172.47"><pitch><step>G</step><octave>4</octave></pitch><duration>480</duration><tie type="start"/><voice>1</voice><type>quarter</type><stem>up</stem><notations><tied type="start"/></notations><lyric number="1"><syllabic>single</syllabic><text>feels</text></lyric><lyric number="2"><syllabic>end</syllabic><text>prise</text></lyric></note></measure><measure width="213.28" number="24"><note default-y="-30.00" default-x="15.00"><pitch><step>G</step><octave>4</octave></pitch><duration>480</duration><tie type="stop"/><voice>1</voice><type>quarter</type><stem>up</stem><notations><tied type="stop"/></notations></note><note default-y="-40.00" default-x="63.36"><pitch><step>E</step><octave>4</octave></pitch><duration>480</duration><voice>1</voice><type>quarter</type><stem>up</stem><lyric number="1"><syllabic>single</syllabic><text>so</text></lyric><lyric number="2"><syllabic>single</syllabic><text>they're</text></lyric></note><note default-y="-45.00" default-x="118.89"><pitch><step>D</step><octave>4</octave></pitch><duration>480</duration><voice>1</voice><type>quarter</type><stem>up</stem><lyric number="1"><syllabic>begin</syllabic><text>tra</text></lyric><lyric number="2"><syllabic>begin</syllabic><text>wait</text></lyric></note><note default-y="-50.00" default-x="165.28"><pitch><step>C</step><octave>4</octave></pitch><duration>480</duration><voice>1</voice><type>quarter</type><stem>up</stem><lyric number="1"><syllabic>middle</syllabic><text>la</text></lyric><lyric number="2"><syllabic>end</syllabic><text>ing</text></lyric></note></measure><measure width="80.81" number="25"><note default-y="-30.00" default-x="21.60"><pitch><step>G</step><octave>4</octave></pitch><duration>1920</duration><tie type="start"/><voice>1</voice><type>whole</type><notations><tied type="start"/></notations><lyric number="1"><syllabic>end</syllabic><text>la</text></lyric><lyric number="2"><syllabic>single</syllabic><text>for</text></lyric></note></measure><measure width="195.45" number="26"><note default-y="-30.00" default-x="15.00"><pitch><step>G</step><octave>4</octave></pitch><duration>480</duration><tie type="stop"/><voice>1</voice><type>quarter</type><stem>up</stem><notations><tied type="stop"/></notations></note><note default-y="-15.00" default-x="58.87"><pitch><step>C</step><octave>5</octave></pitch><duration>480</duration><voice>1</voice><type>quarter</type><stem>down</stem><lyric number="1"><syllabic>single</syllabic><text>they</text></lyric><lyric number="2"><syllabic>single</syllabic><text>and</text></lyric></note><note default-y="-10.00" default-x="106.11"><pitch><step>D</step><octave>5</octave></pitch><duration>480</duration><voice>1</voice><type>quarter</type><stem>down</stem><lyric number="1"><syllabic>single</syllabic><text>want</text></lyric><lyric number="2"><syllabic>single</syllabic><text>all</text></lyric></note><note default-y="-15.00" default-x="149.98"><pitch><step>C</step><octave>5</octave></pitch><duration>480</duration><voice>1</voice><type>quarter</type><stem>down</stem><lyric number="1"><syllabic>single</syllabic><text>to</text></lyric><lyric number="2"><syllabic>single</syllabic><text>the</text></lyric></note></measure><measure width="148.55" number="27"><harmony print-frame="no"><root><root-step>G</root-step></root><kind text="7">dominant</kind></harmony><note default-y="-20.00" default-x="34.76"><pitch><step>B</step><octave>4</octave></pitch><duration>1440</duration><voice>1</voice><type>half</type><dot/><stem>down</stem><lyric number="1"><syllabic>single</syllabic><text>throw</text></lyric><lyric number="2"><syllabic>begin</syllabic><text>cou</text></lyric></note><note default-y="-10.00" default-x="108.93"><pitch><step>D</step><octave>5</octave></pitch><duration>480</duration><voice>1</voice><type>quarter</type><stem>down</stem><lyric number="1"><syllabic>single</syllabic><text>their</text></lyric><lyric number="2"><syllabic>end</syllabic><text>ples</text></lyric></note></measure><measure width="118.18" number="28"><note default-y="-25.00" default-x="31.61"><pitch><step>A</step><octave>4</octave></pitch><duration>1440</duration><voice>1</voice><type>half</type><dot/><stem>up</stem><lyric number="1"><syllabic>single</syllabic><text>cares</text></lyric><lyric number="2"><syllabic>single</syllabic><text>form</text></lyric></note><note default-y="-30.00" default-x="87.79"><pitch><step>G</step><octave>4</octave></pitch><duration>480</duration><voice>1</voice><type>quarter</type><stem>up</stem><lyric number="1"><syllabic>begin</syllabic><text>a</text></lyric><lyric number="2"><syllabic>single</syllabic><text>a</text></lyric></note></measure><measure width="130.95" number="29"><print new-system="yes"><system-layout><system-margins><left-margin>109.38</left-margin><right-margin>0.00</right-margin></system-margins><system-distance>145.86</system-distance></system-layout></print><note default-y="-20.00" default-x="72.92"><pitch><step>B</step><octave>4</octave></pitch><duration>1920</duration><tie type="start"/><voice>1</voice><type>whole</type><notations><tied type="start"/></notations><lyric number="1"><syllabic>end</syllabic><text>way</text></lyric><lyric number="2"><syllabic>single</syllabic><text>ring</text></lyric></note></measure><measure width="195.26" number="30"><note default-y="-20.00" default-x="15.00"><pitch><step>B</step><octave>4</octave></pitch><duration>480</duration><tie type="stop"/><voice>1</voice><type>quarter</type><stem>down</stem><notations><tied type="stop"/></notations></note><note default-y="-15.00" default-x="57.97"><pitch><step>C</step><octave>5</octave></pitch><duration>480</duration><voice>1</voice><type>quarter</type><stem>down</stem><lyric number="1"><syllabic>single</syllabic><text>they</text></lyric><lyric number="2"><syllabic>single</syllabic><text>for</text></lyric></note><note default-y="-10.00" default-x="107.73"><pitch><step>D</step><octave>5</octave></pitch><duration>480</duration><voice>1</voice><type>quarter</type><stem>down</stem><lyric number="1"><syllabic>single</syllabic><text>all</text></lyric><lyric number="2"><syllabic>single</syllabic><text>miles</text></lyric></note><note default-y="-15.00" default-x="150.70"><pitch><step>C</step><octave>5</octave></pitch><duration>480</duration><voice>1</voice><type>quarter</type><stem>down</stem><lyric number="1"><syllabic>single</syllabic><text>go</text></lyric><lyric number="2"><syllabic>begin</syllabic><text>a</text></lyric></note></measure><measure width="156.48" number="31"><note default-y="-20.00" default-x="34.76"><pitch><step>B</step><octave>4</octave></pitch><duration>1440</duration><voice>1</voice><type>half</type><dot/><stem>down</stem><lyric number="1"><syllabic>begin</syllabic><text>lah</text></lyric><lyric number="2"><syllabic>end</syllabic><text>round</text></lyric></note><note default-y="-10.00" default-x="114.18"><pitch><step>D</step><octave>5</octave></pitch><duration>480</duration><voice>1</voice><type>quarter</type><stem>down</stem><lyric number="1"><syllabic>end</syllabic><text>de</text></lyric><lyric number="2"><syllabic>single</syllabic><text>you'll</text></lyric></note></measure><measure width="99.94" number="32"><barline location="left"><ending type="start" number="1"/></barline><note default-y="-25.00" default-x="19.10"><pitch><step>A</step><octave>4</octave></pitch><duration>1440</duration><voice>1</voice><type>half</type><dot/><stem>up</stem><lyric number="1"><syllabic>single</syllabic><text>ah</text></lyric></note><note default-y="-25.00" default-x="71.49"><pitch><step>A</step><alter>-1</alter><octave>4</octave></pitch><duration>480</duration><voice>1</voice><type>quarter</type><accidental>flat</accidental><stem>up</stem><lyric number="1"><syllabic>begin</syllabic><text>de</text></lyric></note><barline location="right"><ending type="stop" number="1"/></barline></measure><measure width="77.14" number="33"><harmony print-frame="no"><root><root-step>C</root-step></root><kind text="">major</kind></harmony><note default-y="-30.00" default-x="19.10"><pitch><step>G</step><octave>4</octave></pitch><duration>1920</duration><tie type="start"/><voice>1</voice><type>whole</type><notations><tied type="start"/></notations><lyric number="1"><syllabic>end</syllabic><text>ay</text></lyric></note></measure><measure width="170.60" number="34"><note default-y="-30.00" default-x="15.00"><pitch><step>G</step><octave>4</octave></pitch><duration>480</duration><tie type="stop"/><voice>1</voice><type>quarter</type><stem>up</stem><notations><tied type="stop"/></notations></note><note><rest/><duration>480</duration><voice>1</voice><type>quarter</type></note><direction><direction-type><words default-y="100">N.C.</words></direction-type></direction><note default-y="-30.00" default-x="80.33"><pitch><step>G</step><octave>4</octave></pitch><duration>480</duration><voice>1</voice><type>quarter</type><stem>up</stem><lyric number="1"><syllabic>single</syllabic><text>then</text></lyric></note><note default-y="-30.00" default-x="125.07"><pitch><step>G</step><alter>1</alter><octave>4</octave></pitch><duration>480</duration><voice>1</voice><type>quarter</type><accidental>sharp</accidental><stem>up</stem><lyric number="1"><syllabic>single</syllabic><text>they</text></lyric></note><barline location="right"><bar-style>light-heavy</bar-style><repeat direction="backward"/></barline></measure><measure width="137.33" number="35"><barline location="left"><ending type="start" number="2"/></barline><note default-y="-25.00" default-x="27.86"><pitch><step>A</step><octave>4</octave></pitch><duration>1440</duration><voice>1</voice><type>half</type><dot/><stem>up</stem><lyric number="1"><syllabic>single</syllabic><text>hear</text></lyric></note><note default-y="-30.00" default-x="99.18"><pitch><step>G</step><octave>4</octave></pitch><duration>480</duration><voice>1</voice><type>quarter</type><stem>up</stem><lyric number="1"><syllabic>single</syllabic><text>them</text></lyric></note><barline location="right"><ending type="discontinue" number="2"/></barline></measure><measure width="123.69" number="36"><print new-system="yes"><system-layout><system-margins><left-margin>109.38</left-margin><right-margin>0.00</right-margin></system-margins><system-distance>145.86</system-distance></system-layout></print><harmony print-frame="no"><root><root-step>C</root-step></root><kind text="">major</kind></harmony><note default-y="-15.00" default-x="72.94"><pitch><step>C</step><octave>5</octave></pitch><duration>1920</duration><tie type="start"/><voice>1</voice><type>whole</type><notations><tied type="start"/></notations><lyric number="1"><syllabic>single</syllabic><text>sing</text></lyric></note></measure><measure width="78.88" number="37"><note default-y="-15.00" default-x="15.00"><pitch><step>C</step><octave>5</octave></pitch><duration>960</duration><tie type="stop"/><voice>1</voice><type>half</type><stem>down</stem><notations><tied type="stop"/></notations></note><note><rest/><duration>960</duration><voice>1</voice><type>half</type></note></measure><measure width="74.87" number="38"><barline location="left"><bar-style>heavy-light</bar-style><repeat direction="forward"/></barline><harmony print-frame="no"><root><root-step>F</root-step></root><kind text="">major</kind></harmony><note default-y="-15.00" default-x="24.12"><pitch><step>C</step><octave>5</octave></pitch><duration>1920</duration><voice>1</voice><type>whole</type><lyric number="1"><syllabic>single</syllabic><text>roll</text></lyric></note></measure><measure width="102.54" number="39"><note default-y="-15.00" default-x="22.87"><pitch><step>C</step><octave>5</octave></pitch><duration>1440</duration><voice>1</voice><type>half</type><dot/><stem>down</stem><lyric number="1"><syllabic>single</syllabic><text>out</text></lyric></note><note default-y="-20.00" default-x="74.49"><pitch><step>B</step><octave>4</octave></pitch><duration>480</duration><voice>1</voice><type>quarter</type><stem>down</stem><lyric number="1"><syllabic>single</syllabic><text>the</text></lyric></note></measure><measure width="99.82" number="40"><note default-y="-15.00" default-x="22.86"><pitch><step>C</step><octave>5</octave></pitch><duration>480</duration><voice>1</voice><type>quarter</type><stem>down</stem><lyric number="1"><syllabic>begin</syllabic><text>bar</text></lyric></note><note default-y="-10.00" default-x="55.06"><pitch><step>D</step><octave>5</octave></pitch><duration>1440</duration><tie type="start"/><voice>1</voice><type>half</type><dot/><stem>down</stem><notations><tied type="start"/></notations><lyric number="1"><syllabic>end</syllabic><text>rel</text></lyric></note></measure><measure width="65.76" number="41"><note default-y="-10.00" default-x="15.00"><pitch><step>D</step><octave>5</octave></pitch><duration>1920</duration><tie type="stop"/><voice>1</voice><type>whole</type><notations><tied type="stop"/></notations></note></measure><measure width="154.78" number="42"><note default-y="-15.00" default-x="29.90"><pitch><step>C</step><octave>5</octave></pitch><duration>480</duration><voice>1</voice><type>quarter</type><stem>down</stem><lyric number="1"><syllabic>single</syllabic><text>we'll</text></lyric></note><note default-y="-10.00" default-x="78.54"><pitch><step>D</step><octave>5</octave></pitch><duration>960</duration><voice>1</voice><type>half</type><stem>down</stem><lyric number="1"><syllabic>single</syllabic><text>have</text></lyric></note><note default-y="-15.00" default-x="124.47"><pitch><step>C</step><octave>5</octave></pitch><duration>480</duration><voice>1</voice><type>quarter</type><stem>down</stem><lyric number="1"><syllabic>single</syllabic><text>a</text></lyric></note></measure><measure width="127.37" number="43"><note default-y="-10.00" default-x="22.86"><pitch><step>D</step><octave>5</octave></pitch><duration>480</duration><voice>1</voice><type>quarter</type><stem>down</stem><lyric number="1"><syllabic>begin</syllabic><text>bar</text></lyric></note><note default-y="-15.00" default-x="55.06"><pitch><step>C</step><octave>5</octave></pitch><duration>960</duration><voice>1</voice><type>half</type><stem>down</stem><lyric number="1"><syllabic>end</syllabic><text>rel</text></lyric></note><note default-y="-20.00" default-x="98.57"><pitch><step>B</step><octave>4</octave></pitch><duration>480</duration><voice>1</voice><type>quarter</type><stem>down</stem><lyric number="1"><syllabic>single</syllabic><text>of</text></lyric></note></measure><measure width="74.25" number="44"><harmony print-frame="no"><root><root-step>C</root-step></root><kind text="7">dominant</kind></harmony><note default-y="-20.00" default-x="23.49"><pitch><step>B</step><alter>-1</alter><octave>4</octave></pitch><duration>1920</duration><tie type="start"/><voice>1</voice><type>whole</type><accidental>flat</accidental><notations><tied type="start"/></notations><lyric number="1"><syllabic>single</syllabic><text>fun</text></lyric></note></measure><measure width="65.76" number="45"><note default-y="-20.00" default-x="15.00"><pitch><step>B</step><alter>-1</alter><octave>4</octave></pitch><duration>1920</duration><tie type="stop"/><voice>1</voice><type>whole</type><accidental>flat</accidental><notations><tied type="stop"/></notations></note></measure><measure width="124.68" number="46"><print new-page="yes"><system-layout><system-margins><left-margin>109.38</left-margin><right-margin>0.00</right-margin></system-margins><top-system-distance>70.00</top-system-distance></system-layout></print><note default-y="-10.00" default-x="69.80"><pitch><step>D</step><octave>5</octave></pitch><duration>1920</duration><voice>1</voice><type>whole</type><lyric number="1"><syllabic>single</syllabic><text>roll</text></lyric></note></measure><measure width="106.67" number="47"><note default-y="-10.00" default-x="22.87"><pitch><step>D</step><octave>5</octave></pitch><duration>1440</duration><voice>1</voice><type>half</type><dot/><stem>down</stem><lyric number="1"><syllabic>single</syllabic><text>out</text></lyric></note><note default-y="-15.00" default-x="77.21"><pitch><step>C</step><alter>1</alter><octave>5</octave></pitch><duration>480</duration><voice>1</voice><type>quarter</type><accidental>sharp</accidental><stem>down</stem><lyric number="1"><syllabic>single</syllabic><text>the</text></lyric></note></measure><measure width="103.94" number="48"><note default-y="-10.00" default-x="22.86"><pitch><step>D</step><octave>5</octave></pitch><duration>480</duration><voice>1</voice><type>quarter</type><stem>down</stem><lyric number="1"><syllabic>begin</syllabic><text>bar</text></lyric></note><note default-y="-5.00" default-x="55.06"><pitch><step>E</step><octave>5</octave></pitch><duration>1440</duration><tie type="start"/><voice>1</voice><type>half</type><dot/><stem>down</stem><notations><tied type="start"/></notations><lyric number="1"><syllabic>end</syllabic><text>rel</text></lyric></note></measure><measure width="69.88" number="49"><note default-y="-5.00" default-x="15.00"><pitch><step>E</step><octave>5</octave></pitch><duration>1920</duration><tie type="stop"/><voice>1</voice><type>whole</type><notations><tied type="stop"/></notations></note></measure><measure width="164.21" number="50"><note default-y="-10.00" default-x="34.27"><pitch><step>D</step><octave>5</octave></pitch><duration>480</duration><voice>1</voice><type>quarter</type><stem>down</stem><lyric number="1"><syllabic>single</syllabic><text>we've</text></lyric></note><note default-y="-5.00" default-x="80.42"><pitch><step>E</step><octave>5</octave></pitch><duration>960</duration><voice>1</voice><type>half</type><stem>down</stem><lyric number="1"><syllabic>single</syllabic><text>got</text></lyric></note><note default-y="-10.00" default-x="131.00"><pitch><step>D</step><octave>5</octave></pitch><duration>480</duration><voice>1</voice><type>quarter</type><stem>down</stem><lyric number="1"><syllabic>single</syllabic><text>the</text></lyric></note></measure><measure width="155.61" number="51"><note default-y="-5.00" default-x="32.26"><pitch><step>E</step><octave>5</octave></pitch><duration>480</duration><voice>1</voice><type>quarter</type><stem>down</stem><lyric number="1"><syllabic>single</syllabic><text>blues</text></lyric></note><note default-y="-10.00" default-x="73.26"><pitch><step>D</step><octave>5</octave></pitch><duration>960</duration><voice>1</voice><type>half</type><stem>down</stem><lyric number="1"><syllabic>single</syllabic><text>on</text></lyric></note><note default-y="-10.00" default-x="122.95"><pitch><step>D</step><alter>-1</alter><octave>5</octave></pitch><duration>480</duration><voice>1</voice><type>quarter</type><accidental>flat</accidental><stem>down</stem><lyric number="1"><syllabic>single</syllabic><text>the</text></lyric></note></measure><measure width="78.37" number="52"><harmony print-frame="no"><root><root-step>F</root-step></root><kind text="">major</kind></harmony><note default-y="-15.00" default-x="23.49"><pitch><step>C</step><octave>5</octave></pitch><duration>1920</duration><tie type="start"/><voice>1</voice><type>whole</type><notations><tied type="start"/></notations><lyric number="1"><syllabic>single</syllabic><text>run</text></lyric></note></measure><measure width="69.88" number="53"><note default-y="-15.00" default-x="15.00"><pitch><step>C</step><octave>5</octave></pitch><duration>1920</duration><tie type="stop"/><voice>1</voice><type>whole</type><notations><tied type="stop"/></notations></note></measure><measure width="94.47" number="54"><note default-y="-15.00" default-x="33.50"><pitch><step>C</step><octave>5</octave></pitch><duration>1920</duration><voice>1</voice><type>whole</type><lyric number="1"><syllabic>single</syllabic><text>Zing!</text></lyric></note></measure><measure width="201.16" number="55"><print new-system="yes"><system-layout><system-margins><left-margin>109.38</left-margin><right-margin>0.00</right-margin></system-margins><system-distance>105.20</system-distance></system-layout></print><note default-y="-15.00" default-x="85.45"><pitch><step>C</step><octave>5</octave></pitch><duration>1440</duration><voice>1</voice><type>half</type><dot/><stem>down</stem><lyric number="1"><syllabic>single</syllabic><text>Boom!</text></lyric></note><note default-y="-20.00" default-x="160.89"><pitch><step>B</step><octave>4</octave></pitch><duration>480</duration><voice>1</voice><type>quarter</type><stem>down</stem><lyric number="1"><syllabic>begin</syllabic><text>Ta</text></lyric></note></measure><measure width="132.18" number="56"><note default-y="-15.00" default-x="20.97"><pitch><step>C</step><octave>5</octave></pitch><duration>480</duration><voice>1</voice><type>quarter</type><stem>down</stem><lyric number="1"><syllabic>middle</syllabic><text>rar</text></lyric></note><note default-y="-10.00" default-x="58.18"><pitch><step>D</step><octave>5</octave></pitch><duration>1440</duration><tie type="start"/><voice>1</voice><type>half</type><dot/><stem>down</stem><notations><tied type="start"/></notations><lyric number="1"><syllabic>end</syllabic><text>rell!</text></lyric></note></measure><measure width="89.19" number="57"><note default-y="-10.00" default-x="15.00"><pitch><step>D</step><octave>5</octave></pitch><duration>1920</duration><tie type="stop"/><voice>1</voice><type>whole</type><notations><tied type="stop"/></notations></note></measure><measure width="157.91" number="58"><note default-y="-15.00" default-x="26.62"><pitch><step>C</step><octave>5</octave></pitch><duration>480</duration><voice>1</voice><type>quarter</type><stem>down</stem><lyric number="1"><syllabic>single</syllabic><text>ring</text></lyric></note><note default-y="-10.00" default-x="65.11"><pitch><step>D</step><octave>5</octave></pitch><duration>960</duration><voice>1</voice><type>half</type><stem>down</stem><lyric number="1"><syllabic>single</syllabic><text>out</text></lyric></note><note default-y="-15.00" default-x="121.24"><pitch><step>C</step><octave>5</octave></pitch><duration>480</duration><voice>1</voice><type>quarter</type><stem>down</stem><lyric number="1"><syllabic>single</syllabic><text>a</text></lyric></note></measure><measure width="185.59" number="59"><note default-y="-10.00" default-x="29.76"><pitch><step>D</step><octave>5</octave></pitch><duration>480</duration><voice>1</voice><type>quarter</type><stem>down</stem><lyric number="1"><syllabic>single</syllabic><text>song</text></lyric></note><note default-y="-15.00" default-x="72.60"><pitch><step>C</step><octave>5</octave></pitch><duration>960</duration><voice>1</voice><type>half</type><stem>down</stem><lyric number="1"><syllabic>single</syllabic><text>of</text></lyric></note><note default-y="-35.00" default-x="141.15"><pitch><step>F</step><octave>4</octave></pitch><duration>480</duration><voice>1</voice><type>quarter</type><stem>up</stem><lyric number="1"><syllabic>single</syllabic><text>good</text></lyric></note></measure><measure width="112.50" number="60"><harmony print-frame="no"><root><root-step>B</root-step><root-alter>-1</root-alter></root><kind text="">major</kind></harmony><note default-y="-10.00" default-x="32.86"><pitch><step>D</step><octave>5</octave></pitch><duration>1920</duration><tie type="start"/><voice>1</voice><type>whole</type><notations><tied type="start"/></notations><lyric number="1"><syllabic>single</syllabic><text>cheer</text></lyric></note></measure><measure width="89.19" number="61"><note default-y="-10.00" default-x="15.00"><pitch><step>D</step><octave>5</octave></pitch><duration>1920</duration><tie type="stop"/><voice>1</voice><type>whole</type><notations><tied type="stop"/></notations></note></measure><measure width="247.87" number="62"><print new-system="yes"><system-layout><system-margins><left-margin>109.38</left-margin><right-margin>0.00</right-margin></system-margins><system-distance>105.20</system-distance></system-layout></print><harmony print-frame="no"><root><root-step>G</root-step></root><kind text="m">minor</kind></harmony><note default-y="-30.00" default-x="82.47"><pitch><step>G</step><octave>4</octave></pitch><duration>480</duration><voice>1</voice><type>quarter</type><stem>up</stem><lyric number="1"><syllabic>single</syllabic><text>Now's</text></lyric></note><note default-y="-25.00" default-x="130.50"><pitch><step>A</step><octave>4</octave></pitch><duration>480</duration><voice>1</voice><type>quarter</type><stem>up</stem><lyric number="1"><syllabic>single</syllabic><text>the</text></lyric></note><note default-y="-20.00" default-x="170.23"><pitch><step>B</step><alter>-1</alter><octave>4</octave></pitch><duration>480</duration><voice>1</voice><type>quarter</type><accidental>flat</accidental><stem>down</stem><lyric number="1"><syllabic>single</syllabic><text>time</text></lyric></note><note default-y="-15.00" default-x="208.25"><pitch><step>C</step><octave>5</octave></pitch><duration>480</duration><voice>1</voice><type>quarter</type><stem>down</stem><lyric number="1"><syllabic>single</syllabic><text>to</text></lyric></note></measure><measure width="103.92" number="63"><harmony print-frame="no"><root><root-step>E</root-step></root><kind text="7">dominant</kind></harmony><note default-y="-5.00" default-x="24.12"><pitch><step>E</step><octave>5</octave></pitch><duration>1440</duration><voice>1</voice><type>half</type><dot/><stem>down</stem><lyric number="1"><syllabic>single</syllabic><text>roll</text></lyric></note><note default-y="-10.00" default-x="75.82"><pitch><step>D</step><octave>5</octave></pitch><duration>480</duration><voice>1</voice><type>quarter</type><stem>down</stem><lyric number="1"><syllabic>single</syllabic><text>the</text></lyric></note></measure><measure width="98.70" number="64"><harmony print-frame="no"><root><root-step>F</root-step></root><kind text="">major</kind></harmony><note default-y="-10.00" default-x="22.86"><pitch><step>D</step><octave>5</octave></pitch><duration>480</duration><voice>1</voice><type>quarter</type><stem>down</stem><lyric number="1"><syllabic>begin</syllabic><text>bar</text></lyric></note><note default-y="-15.00" default-x="55.06"><pitch><step>C</step><octave>5</octave></pitch><duration>1440</duration><tie type="start"/><voice>1</voice><type>half</type><dot/><stem>down</stem><notations><tied type="start"/></notations><lyric number="1"><syllabic>end</syllabic><text>rel</text></lyric></note></measure><measure width="124.32" number="65"><note default-y="-15.00" default-x="15.00"><pitch><step>C</step><octave>5</octave></pitch><duration>960</duration><tie type="stop"/><voice>1</voice><type>half</type><stem>down</stem><notations><tied type="stop"/></notations></note><note default-y="-20.00" default-x="61.08"><pitch><step>B</step><octave>4</octave></pitch><duration>480</duration><voice>1</voice><type>quarter</type><stem>down</stem><lyric number="1"><syllabic>single</syllabic><text>for</text></lyric></note><note default-y="-15.00" default-x="93.92"><pitch><step>C</step><octave>5</octave></pitch><duration>480</duration><voice>1</voice><type>quarter</type><stem>down</stem><lyric number="1"><syllabic>single</syllabic><text>the</text></lyric></note></measure><measure width="91.75" number="66"><harmony print-frame="no"><root><root-step>G</root-step></root><kind text="7">dominant</kind></harmony><note default-y="-10.00" default-x="34.77"><pitch><step>D</step><octave>5</octave></pitch><duration>1920</duration><voice>1</voice><type>whole</type><lyric number="1"><syllabic>single</syllabic><text>gangs</text></lyric></note></measure><measure width="69.37" number="67"><harmony print-frame="no"><root><root-step>C</root-step></root><kind text="7">dominant</kind></harmony><note default-y="-5.00" default-x="19.73"><pitch><step>E</step><octave>5</octave></pitch><duration>1920</duration><voice>1</voice><type>whole</type><lyric number="1"><syllabic>single</syllabic><text>all</text></lyric></note></measure><measure width="83.57" number="68"><barline location="left"><ending type="start" number="1"/></barline><harmony print-frame="no"><root><root-step>F</root-step></root><kind text="">major</kind></harmony><note default-y="0.00" default-x="30.68"><pitch><step>F</step><octave>5</octave></pitch><duration>1920</duration><tie type="start"/><voice>1</voice><type>whole</type><notations><tied type="start"/></notations><lyric number="1"><syllabic>single</syllabic><text>here.</text></lyric></note><barline location="right"><ending type="stop" number="1"/></barline></measure><measure width="64.64" number="69"><note default-y="0.00" default-x="15.00"><pitch><step>F</step><octave>5</octave></pitch><duration>1920</duration><tie type="stop"/><voice>1</voice><type>whole</type><notations><tied type="stop"/></notations></note><barline location="right"><bar-style>light-heavy</bar-style><repeat direction="backward"/></barline></measure><measure width="83.57" number="70"><barline location="left"><ending type="start" number="2"/></barline><harmony print-frame="no"><root><root-step>F</root-step></root><kind text="">major</kind></harmony><note default-y="0.00" default-x="30.68"><pitch><step>F</step><octave>5</octave></pitch><duration>1920</duration><tie type="start"/><voice>1</voice><type>whole</type><notations><tied type="start"/></notations><lyric number="1"><syllabic>single</syllabic><text>here.</text></lyric></note><barline location="right"><ending type="stop" number="2"/></barline></measure><measure width="103.82" number="71"><print new-system="yes"><system-layout><system-margins><left-margin>109.38</left-margin><right-margin>863.90</right-margin></system-margins><system-distance>105.20</system-distance></system-layout></print><note default-y="0.00" default-x="53.18"><pitch><step>F</step><octave>5</octave></pitch><duration>960</duration><tie type="stop"/><voice>1</voice><type>half</type><stem>down</stem><notations><tied type="stop"/></notations></note><note><rest/><duration>960</duration><voice>1</voice><type>half</type></note><barline location="right"><bar-style>light-heavy</bar-style></barline></measure></part></score-partwise>