<score-partwise version="2.0"><work><work-number/><work-title/></work><movement-number/><movement-title>Az ősi jóslat</movement-title><identification><creator type="composer">S. Sourire</creator><creator type="poet"/><rights>Public Domain</rights><encoding><software>MuseScore 0.9.5</software><encoding-date>2009-12-21</encoding-date><software>ProxyMusic 2.0 c</software></encoding><source>http://wikifonia.org/node/3873/revisions/5101/view</source></identification><defaults><scaling><millimeters>7.2319</millimeters><tenths>40</tenths></scaling><page-layout><page-height>1545.38</page-height><page-width>1194.15</page-width><page-margins type="both"><left-margin>70</left-margin><right-margin>70</right-margin><top-margin>88</top-margin><bottom-margin>88</bottom-margin></page-margins></page-layout></defaults><part-list><score-part id="P1"><part-name/><score-instrument id="P1-I3"><instrument-name/></score-instrument><midi-instrument id="P1-I3"><midi-channel>1</midi-channel><midi-program>1</midi-program></midi-instrument></score-part></part-list><part id="P1"><measure width="224.98" number="1"><print><system-layout><system-margins><left-margin>0.00</left-margin><right-margin>0.00</right-margin></system-margins><top-system-distance>70.00</top-system-distance></system-layout></print><attributes><divisions>2</divisions><key><fifths>1</fifths><mode>major</mode></key><time><beats>2</beats><beat-type>4</beat-type></time><clef><sign>G</sign><line>2</line></clef></attributes><harmony print-frame="no"><root><root-step>G</root-step></root><kind text="">major</kind></harmony><note default-y="-20.00" default-x="104.37"><pitch><step>B</step><octave>4</octave></pitch><duration>1</duration><voice>1</voice><type>eighth</type><stem>down</stem><lyric number="1"><syllabic>single</syllabic><text>Az</text></lyric></note><note default-y="-20.00" default-x="137.43"><pitch><step>B</step><octave>4</octave></pitch><duration>2</duration><voice>1</voice><type>quarter</type><stem>down</stem><lyric number="1"><syllabic>begin</syllabic><text>ő</text></lyric></note><note default-y="-25.00" default-x="190.32"><pitch><step>A</step><octave>4</octave></pitch><duration>1</duration><voice>1</voice><type>eighth</type><stem>up</stem><lyric number="1"><syllabic>end</syllabic><text>si</text></lyric></note></measure><measure width="113.84" number="2"><note default-y="-30.00" default-x="22.46"><pitch><step>G</step><octave>4</octave></pitch><duration>2</duration><voice>1</voice><type>quarter</type><stem>up</stem><lyric number="1"><syllabic>begin</syllabic><text>jós</text></lyric></note><note default-y="-30.00" default-x="67.35"><pitch><step>G</step><octave>4</octave></pitch><duration>2</duration><voice>1</voice><type>quarter</type><stem>up</stem><lyric number="1"><syllabic>end</syllabic><text>lat</text></lyric></note></measure><measure width="153.55" number="3"><harmony print-frame="no"><root><root-step>C</root-step></root><kind text="">major</kind></harmony><note default-y="-30.00" default-x="19.95"><pitch><step>G</step><octave>4</octave></pitch><duration>1</duration><voice>1</voice><type>eighth</type><stem>up</stem><lyric number="1"><syllabic>begin</syllabic><text>be</text></lyric></note><note default-y="-30.00" default-x="58.63"><pitch><step>G</step><octave>4</octave></pitch><duration>2</duration><voice>1</voice><type>quarter</type><stem>up</stem><lyric number="1"><syllabic>middle</syllabic><text>tel</text></lyric></note><note default-y="-35.00" default-x="116.06"><pitch><step>F</step><alter>1</alter><octave>4</octave></pitch><duration>1</duration><voice>1</voice><type>eighth</type><stem>up</stem><lyric number="1"><syllabic>middle</syllabic><text>je</text></lyric></note></measure><measure width="95.52" number="4"><note default-y="-40.00" default-x="28.37"><pitch><step>E</step><octave>4</octave></pitch><duration>4</duration><voice>1</voice><type>half</type><stem>up</stem><lyric number="1"><syllabic>end</syllabic><text>sült,</text></lyric></note></measure><measure width="162.89" number="5"><harmony print-frame="no"><root><root-step>G</root-step></root><kind text="">major</kind></harmony><note default-y="-45.00" default-x="22.45"><pitch><step>D</step><octave>4</octave></pitch><duration>1</duration><voice>1</voice><type>eighth</type><stem>up</stem><lyric number="1"><syllabic>begin</syllabic><text>Mi</text></lyric></note><note default-y="-45.00" default-x="66.11"><pitch><step>D</step><octave>4</octave></pitch><duration>2</duration><voice>1</voice><type>quarter</type><stem>up</stem><lyric number="1"><syllabic>single</syllabic><text>énk</text></lyric></note><note default-y="-55.00" default-x="124.68"><pitch><step>B</step><octave>3</octave></pitch><duration>1</duration><voice>1</voice><type>eighth</type><stem>up</stem><lyric number="1"><syllabic>single</syllabic><text>a</text></lyric></note></measure><measure width="133.75" number="6"><note default-y="-45.00" default-x="29.92"><pitch><step>D</step><octave>4</octave></pitch><duration>2</duration><voice>1</voice><type>quarter</type><stem>up</stem><lyric number="1"><syllabic>begin</syllabic><text>Meg</text></lyric></note><note default-y="-30.00" default-x="81.03"><pitch><step>G</step><octave>4</octave></pitch><duration>2</duration><voice>1</voice><type>quarter</type><stem>up</stem><lyric number="1"><syllabic>middle</syllabic><text>vál</text></lyric></note></measure><measure width="81.09" number="7"><harmony print-frame="no"><root><root-step>D</root-step></root><kind text="">major</kind></harmony><note default-y="-25.00" default-x="20.89"><pitch><step>A</step><octave>4</octave></pitch><duration>4</duration><tie type="start"/><voice>1</voice><type>half</type><stem>up</stem><notations><tied type="start"/></notations><lyric number="1"><syllabic>end</syllabic><text>tó,</text></lyric></note></measure><measure width="88.54" number="8"><note default-y="-25.00" default-x="15.00"><pitch><step>A</step><octave>4</octave></pitch><duration>2</duration><tie type="stop"/><voice>1</voice><type>quarter</type><stem>up</stem><notations><tied type="stop"/></notations></note><note><rest/><duration>2</duration><voice>1</voice><type>quarter</type></note></measure><measure width="205.80" number="9"><print new-system="yes"><system-layout><system-margins><left-margin>0.00</left-margin><right-margin>-0.00</right-margin></system-margins><system-distance>121.00</system-distance></system-layout></print><harmony print-frame="no"><root><root-step>G</root-step></root><kind text="">major</kind></harmony><note default-y="-20.00" default-x="78.94"><pitch><step>B</step><octave>4</octave></pitch><duration>1</duration><voice>1</voice><type>eighth</type><stem>down</stem><lyric number="1"><syllabic>begin</syllabic><text>Ö</text></lyric></note><note default-y="-20.00" default-x="113.74"><pitch><step>B</step><octave>4</octave></pitch><duration>2</duration><voice>1</voice><type>quarter</type><stem>down</stem><lyric number="1"><syllabic>end</syllabic><text>vé</text></lyric></note><note default-y="-25.00" default-x="169.40"><pitch><step>A</step><octave>4</octave></pitch><duration>1</duration><voice>1</voice><type>eighth</type><stem>up</stem><lyric number="1"><syllabic>single</syllabic><text>az</text></lyric></note></measure><measure width="108.15" number="10"><note default-y="-30.00" default-x="19.95"><pitch><step>G</step><octave>4</octave></pitch><duration>2</duration><voice>1</voice><type>quarter</type><stem>up</stem><lyric number="1"><syllabic>single</syllabic><text>ég</text></lyric></note><note default-y="-30.00" default-x="63.25"><pitch><step>G</step><octave>4</octave></pitch><duration>2</duration><voice>1</voice><type>quarter</type><stem>up</stem><lyric number="1"><syllabic>single</syllabic><text>és</text></lyric></note></measure><measure width="145.52" number="11"><harmony print-frame="no"><root><root-step>C</root-step></root><kind text="">major</kind></harmony><note default-y="-30.00" default-x="15.00"><pitch><step>G</step><octave>4</octave></pitch><duration>1</duration><voice>1</voice><type>eighth</type><stem>up</stem><lyric number="1"><syllabic>begin</syllabic><text>ö</text></lyric></note><note default-y="-30.00" default-x="53.05"><pitch><step>G</step><octave>4</octave></pitch><duration>2</duration><voice>1</voice><type>quarter</type><stem>up</stem><lyric number="1"><syllabic>end</syllabic><text>vé</text></lyric></note><note default-y="-35.00" default-x="108.97"><pitch><step>F</step><alter>1</alter><octave>4</octave></pitch><duration>1</duration><voice>1</voice><type>eighth</type><stem>up</stem><lyric number="1"><syllabic>single</syllabic><text>a</text></lyric></note></measure><measure width="100.01" number="12"><note default-y="-40.00" default-x="30.23"><pitch><step>E</step><octave>4</octave></pitch><duration>4</duration><voice>1</voice><type>half</type><stem>up</stem><lyric number="1"><syllabic>single</syllabic><text>föld,</text></lyric></note></measure><measure width="156.23" number="13"><harmony print-frame="no"><root><root-step>G</root-step></root><kind text="">major</kind></harmony><note default-y="-45.00" default-x="15.00"><pitch><step>D</step><octave>4</octave></pitch><duration>1</duration><voice>1</voice><type>eighth</type><stem>up</stem><lyric number="1"><syllabic>begin</syllabic><text>a</text></lyric></note><note default-y="-45.00" default-x="54.30"><pitch><step>D</step><octave>4</octave></pitch><duration>2</duration><voice>1</voice><type>quarter</type><stem>up</stem><lyric number="1"><syllabic>end</syllabic><text>kit</text></lyric></note><note default-y="-55.00" default-x="116.04"><pitch><step>B</step><octave>3</octave></pitch><duration>1</duration><voice>1</voice><type>eighth</type><stem>up</stem><lyric number="1"><syllabic>single</syllabic><text>ma</text></lyric></note></measure><measure width="118.34" number="14"><note default-y="-45.00" default-x="21.82"><pitch><step>D</step><octave>4</octave></pitch><duration>2</duration><voice>1</voice><type>quarter</type><stem>up</stem><lyric number="1"><syllabic>begin</syllabic><text>hir</text></lyric></note><note default-y="-30.00" default-x="69.28"><pitch><step>G</step><octave>4</octave></pitch><duration>2</duration><voice>1</voice><type>quarter</type><stem>up</stem><lyric number="1"><syllabic>end</syllabic><text>det</text></lyric></note></measure><measure width="126.32" number="15"><harmony print-frame="no"><root><root-step>D</root-step></root><kind text="">major</kind></harmony><note default-y="-25.00" default-x="19.95"><pitch><step>A</step><octave>4</octave></pitch><duration>2</duration><voice>1</voice><type>quarter</type><stem>up</stem><lyric number="1"><syllabic>begin</syllabic><text>an</text></lyric></note><note default-y="-20.00" default-x="72.33"><pitch><step>B</step><octave>4</octave></pitch><duration>2</duration><voice>1</voice><type>quarter</type><stem>up</stem><lyric number="1"><syllabic>middle</syllabic><text>gyal</text></lyric></note></measure><measure width="93.79" number="16"><harmony print-frame="no"><root><root-step>G</root-step></root><kind text="">major</kind></harmony><note default-y="-30.00" default-x="27.12"><pitch><step>G</step><octave>4</octave></pitch><duration>4</duration><tie type="start"/><voice>1</voice><type>half</type><stem>up</stem><notations><tied type="start"/></notations><lyric number="1"><syllabic>single</syllabic><text>szó.</text></lyric></note></measure><measure width="205.08" number="17"><print new-system="yes"><system-layout><system-margins><left-margin>0.00</left-margin><right-margin>-0.00</right-margin></system-margins><system-distance>121.00</system-distance></system-layout></print><note default-y="-30.00" default-x="68.98"><pitch><step>G</step><octave>4</octave></pitch><duration>1</duration><tie type="stop"/><voice>1</voice><type>eighth</type><stem>up</stem><notations><tied type="stop"/></notations></note><note><rest/><duration>1</duration><voice>1</voice><type>eighth</type></note><note default-y="-45.00" default-x="136.23"><pitch><step>D</step><octave>4</octave></pitch><duration>1</duration><voice>1</voice><type>eighth</type><stem>up</stem><beam number="1">begin</beam><lyric number="1"><syllabic>begin</syllabic><text>Fa</text></lyric></note><note default-y="-50.00" default-x="169.85"><pitch><step>C</step><octave>4</octave></pitch><duration>1</duration><voice>1</voice><type>eighth</type><stem>up</stem><beam number="1">end</beam><lyric number="1"><syllabic>end</syllabic><text>lu</text></lyric></note></measure><measure width="123.56" number="18"><harmony print-frame="no"><root><root-step>G</root-step></root><kind text="">major</kind></harmony><note default-y="-55.00" default-x="23.69"><pitch><step>B</step><octave>3</octave></pitch><duration>2</duration><voice>1</voice><type>quarter</type><stem>up</stem><lyric number="1"><syllabic>begin</syllabic><text>szé</text></lyric></note><note default-y="-55.00" default-x="72.83"><pitch><step>B</step><octave>3</octave></pitch><duration>2</duration><voice>1</voice><type>quarter</type><stem>up</stem><lyric number="1"><syllabic>end</syllabic><text>lén,</text></lyric></note></measure><measure width="129.17" number="19"><note default-y="-55.00" default-x="23.69"><pitch><step>B</step><octave>3</octave></pitch><duration>2</duration><voice>1</voice><type>quarter</type><stem>up</stem><lyric number="1"><syllabic>begin</syllabic><text>bar</text></lyric></note><note default-y="-60.00" default-x="75.63"><pitch><step>A</step><octave>3</octave></pitch><duration>2</duration><voice>1</voice><type>quarter</type><stem>up</stem><lyric number="1"><syllabic>end</syllabic><text>lang</text></lyric></note></measure><measure width="133.52" number="20"><harmony print-frame="no"><root><root-step>G</root-step></root><kind text="">major</kind></harmony><note default-y="-55.00" default-x="23.06"><pitch><step>B</step><octave>3</octave></pitch><duration>2</duration><voice>1</voice><type>quarter</type><stem>up</stem><lyric number="1"><syllabic>begin</syllabic><text>mé</text></lyric></note><note default-y="-45.00" default-x="77.49"><pitch><step>D</step><octave>4</octave></pitch><duration>2</duration><tie type="start"/><voice>1</voice><type>quarter</type><stem>up</stem><notations><tied type="start"/></notations><lyric number="1"><syllabic>end</syllabic><text>lyén,</text></lyric></note></measure><measure width="134.21" number="21"><note default-y="-45.00" default-x="15.00"><pitch><step>D</step><octave>4</octave></pitch><duration>2</duration><tie type="stop"/><voice>1</voice><type>quarter</type><stem>up</stem><notations><tied type="stop"/></notations></note><note default-y="-45.00" default-x="67.27"><pitch><step>D</step><octave>4</octave></pitch><duration>1</duration><voice>1</voice><type>eighth</type><stem>up</stem><beam number="1">begin</beam><lyric number="1"><syllabic>begin</syllabic><text>Má</text></lyric></note><note default-y="-50.00" default-x="99.94"><pitch><step>C</step><octave>4</octave></pitch><duration>1</duration><voice>1</voice><type>eighth</type><stem>up</stem><beam number="1">end</beam><lyric number="1"><syllabic>middle</syllabic><text>ri</text></lyric></note></measure><measure width="111.03" number="22"><harmony print-frame="no"><root><root-step>G</root-step></root><kind text="">major</kind></harmony><note default-y="-55.00" default-x="15.00"><pitch><step>B</step><octave>3</octave></pitch><duration>2</duration><voice>1</voice><type>quarter</type><stem>up</stem><lyric number="1"><syllabic>middle</syllabic><text>á</text></lyric></note><note default-y="-55.00" default-x="62.21"><pitch><step>B</step><octave>3</octave></pitch><duration>2</duration><voice>1</voice><type>quarter</type><stem>up</stem><lyric number="1"><syllabic>end</syllabic><text>nak</text></lyric></note></measure><measure width="130.41" number="23"><note default-y="-55.00" default-x="29.29"><pitch><step>B</step><octave>3</octave></pitch><duration>2</duration><voice>1</voice><type>quarter</type><stem>up</stem><lyric number="1"><syllabic>single</syllabic><text>szűz</text></lyric></note><note default-y="-45.00" default-x="79.05"><pitch><step>D</step><octave>4</octave></pitch><duration>2</duration><voice>1</voice><type>quarter</type><stem>up</stem><lyric number="1"><syllabic>begin</syllabic><text>kar</text></lyric></note></measure><measure width="87.18" number="24"><harmony print-frame="no"><root><root-step>D</root-step></root><kind text="">major</kind></harmony><note default-y="-60.00" default-x="25.87"><pitch><step>A</step><octave>3</octave></pitch><duration>4</duration><tie type="start"/><voice>1</voice><type>half</type><stem>up</stem><notations><tied type="start"/></notations><lyric number="1"><syllabic>end</syllabic><text>ján,</text></lyric></note></measure><measure width="187.71" number="25"><print new-system="yes"><system-layout><system-margins><left-margin>0.00</left-margin><right-margin>-0.00</right-margin></system-margins><system-distance>121.00</system-distance></system-layout></print><note default-y="-60.00" default-x="68.98"><pitch><step>A</step><octave>3</octave></pitch><duration>2</duration><tie type="stop"/><voice>1</voice><type>quarter</type><stem>up</stem><notations><tied type="stop"/></notations></note><note default-y="-45.00" default-x="121.04"><pitch><step>D</step><octave>4</octave></pitch><duration>1</duration><voice>1</voice><type>eighth</type><stem>up</stem><beam number="1">begin</beam><lyric number="1"><syllabic>begin</syllabic><text>Ki</text></lyric></note><note default-y="-50.00" default-x="153.57"><pitch><step>C</step><octave>4</octave></pitch><duration>1</duration><voice>1</voice><type>eighth</type><stem>up</stem><beam number="1">end</beam><lyric number="1"><syllabic>end</syllabic><text>csi</text></lyric></note></measure><measure width="140.38" number="26"><harmony print-frame="no"><root><root-step>G</root-step></root><kind text="">major</kind></harmony><note default-y="-55.00" default-x="29.29"><pitch><step>B</step><octave>3</octave></pitch><duration>2</duration><voice>1</voice><type>quarter</type><stem>up</stem><lyric number="1"><syllabic>begin</syllabic><text>gyer</text></lyric></note><note default-y="-55.00" default-x="84.04"><pitch><step>B</step><octave>3</octave></pitch><duration>2</duration><voice>1</voice><type>quarter</type><stem>up</stem><lyric number="1"><syllabic>end</syllabic><text>mek</text></lyric></note></measure><measure width="142.91" number="27"><note default-y="-55.00" default-x="31.79"><pitch><step>B</step><octave>3</octave></pitch><duration>2</duration><voice>1</voice><type>quarter</type><stem>up</stem><lyric number="1"><syllabic>begin</syllabic><text>nyug</text></lyric></note><note default-y="-45.00" default-x="86.55"><pitch><step>D</step><octave>4</octave></pitch><duration>2</duration><voice>1</voice><type>quarter</type><stem>up</stem><lyric number="1"><syllabic>end</syllabic><text>szik</text></lyric></note></measure><measure width="121.59" number="28"><harmony print-frame="no"><root><root-step>C</root-step></root><kind text="">major</kind></harmony><note default-y="-40.00" default-x="19.95"><pitch><step>E</step><octave>4</octave></pitch><duration>2</duration><voice>1</voice><type>quarter</type><stem>up</stem><lyric number="1"><syllabic>begin</syllabic><text>bé</text></lyric></note><note default-y="-30.00" default-x="69.97"><pitch><step>G</step><octave>4</octave></pitch><duration>2</duration><tie type="start"/><voice>1</voice><type>quarter</type><stem>up</stem><notations><tied type="start"/></notations><lyric number="1"><syllabic>end</syllabic><text>kén,</text></lyric></note></measure><measure width="140.46" number="29"><note default-y="-30.00" default-x="15.00"><pitch><step>G</step><octave>4</octave></pitch><duration>2</duration><tie type="stop"/><voice>1</voice><type>quarter</type><stem>up</stem><notations><tied type="stop"/></notations></note><note default-y="-30.00" default-x="68.90"><pitch><step>G</step><octave>4</octave></pitch><duration>1</duration><voice>1</voice><type>eighth</type><stem>up</stem><beam number="1">begin</beam><lyric number="1"><syllabic>begin</syllabic><text>A</text></lyric></note><note default-y="-25.00" default-x="105.17"><pitch><step>A</step><octave>4</octave></pitch><duration>1</duration><voice>1</voice><type>eighth</type><stem>up</stem><beam number="1">end</beam><lyric number="1"><syllabic>end</syllabic><text>ludj</text></lyric></note></measure><measure width="108.56" number="30"><harmony print-frame="no"><root><root-step>G</root-step></root><kind text="">major</kind></harmony><note default-y="-20.00" default-x="15.00"><pitch><step>B</step><octave>4</octave></pitch><duration>2</duration><voice>1</voice><type>quarter</type><stem>down</stem><lyric number="1"><syllabic>begin</syllabic><text>é</text></lyric></note><note default-y="-45.00" default-x="60.98"><pitch><step>D</step><octave>4</octave></pitch><duration>2</duration><voice>1</voice><type>quarter</type><stem>up</stem><lyric number="1"><syllabic>end</syllabic><text>des</text></lyric></note></measure><measure width="112.27" number="31"><harmony print-frame="no"><root><root-step>D</root-step></root><kind text="">major</kind></harmony><note default-y="-50.00" default-x="18.71"><pitch><step>C</step><octave>4</octave></pitch><duration>2</duration><voice>1</voice><type>quarter</type><stem>up</stem><lyric number="1"><syllabic>begin</syllabic><text>Jé</text></lyric></note><note default-y="-25.00" default-x="64.69"><pitch><step>A</step><octave>4</octave></pitch><duration>2</duration><voice>1</voice><type>quarter</type><stem>up</stem><lyric number="1"><syllabic>middle</syllabic><text>zus</text></lyric></note></measure><measure width="100.26" number="32"><harmony print-frame="no"><root><root-step>G</root-step></root><kind text="">major</kind></harmony><note default-y="-30.00" default-x="32.40"><pitch><step>G</step><octave>4</octave></pitch><duration>4</duration><tie type="start"/><voice>1</voice><type>half</type><stem>up</stem><notations><tied type="start"/></notations><lyric number="1"><syllabic>end</syllabic><text>kám!</text></lyric></note></measure><measure width="136.32" number="33"><print new-system="yes"><system-layout><system-margins><left-margin>0.00</left-margin><right-margin>917.84</right-margin></system-margins><system-distance>121.00</system-distance></system-layout></print><note default-y="-30.00" default-x="68.98"><pitch><step>G</step><octave>4</octave></pitch><duration>1</duration><tie type="stop"/><voice>1</voice><type>eighth</type><stem>up</stem><notations><tied type="stop"/></notations></note><note><rest/><duration>1</duration><voice>1</voice><type>eighth</type></note><note><rest/><duration>2</duration><voice>1</voice><type>quarter</type></note><barline location="right"><bar-style>light-heavy</bar-style></barline></measure></part></score-partwise>