<score-partwise version="2.0"><work><work-number/><work-title/></work><movement-number/><movement-title>My Melancholy Baby</movement-title><identification><creator type="composer">Ernie Burnett</creator><creator type="poet">George A Norton</creator><rights>All Rights Reserved</rights><encoding><software>MuseScore 0.9.5</software><encoding-date>2009-12-31</encoding-date><software>ProxyMusic 2.0 c</software></encoding><source>http://wikifonia.org/node/3991/revisions/5296/view</source></identification><defaults><scaling><millimeters>6.256</millimeters><tenths>40</tenths></scaling><page-layout><page-height>1898.98</page-height><page-width>1342.71</page-width><page-margins type="both"><left-margin>63.9386</left-margin><right-margin>63.9386</right-margin><top-margin>63.9386</top-margin><bottom-margin>127.877</bottom-margin></page-margins></page-layout></defaults><credit page="1"><credit-words font-size="24" default-y="1835.04" default-x="671.355" justify="center" valign="top">My Melancholy Baby</credit-words></credit><credit page="1"><credit-words font-size="12" default-y="1768.33" default-x="1278.77" justify="right" valign="top">Ernie Burnett</credit-words></credit><credit page="1"><credit-words font-size="12" default-y="1768.33" default-x="63.9386" justify="left" valign="top">George A.Norton</credit-words></credit><part-list><score-part id="P1"><part-name/><score-instrument id="P1-I3"><instrument-name/></score-instrument><midi-instrument id="P1-I3"><midi-channel>1</midi-channel><midi-program>5</midi-program></midi-instrument></score-part></part-list><part id="P1"><measure width="334.00" number="1"><print><system-layout><system-margins><left-margin>0.00</left-margin><right-margin>0.00</right-margin></system-margins><top-system-distance>215.54</top-system-distance></system-layout></print><attributes><divisions>2</divisions><key><fifths>0</fifths><mode>major</mode></key><time><beats>4</beats><beat-type>4</beat-type></time><clef><sign>G</sign><line>2</line></clef></attributes><harmony print-frame="no"><root><root-step>F</root-step></root><kind text="">major</kind></harmony><note default-y="-25.00" default-x="104.27"><pitch><step>A</step><octave>4</octave></pitch><duration>1</duration><voice>1</voice><type>eighth</type><stem>up</stem><beam number="1">begin</beam><lyric number="1"><syllabic>single</syllabic><text>Come</text></lyric><lyric number="2"><syllabic>single</syllabic><text>birds</text></lyric></note><note default-y="-15.00" default-x="162.91"><pitch><step>C</step><octave>5</octave></pitch><duration>1</duration><voice>1</voice><type>eighth</type><stem>up</stem><beam number="1">end</beam><lyric number="1"><syllabic>begin</syllabic><text>sweet</text></lyric><lyric number="2"><syllabic>single</syllabic><text>in</text></lyric></note><note default-y="-25.00" default-x="217.18"><pitch><step>A</step><octave>4</octave></pitch><duration>2</duration><voice>1</voice><type>quarter</type><stem>up</stem><lyric number="1"><syllabic>end</syllabic><text>heart</text></lyric><lyric number="2"><syllabic>single</syllabic><text>the</text></lyric></note><harmony print-frame="no"><root><root-step>C</root-step></root><kind text="7">dominant</kind></harmony><note default-y="-30.00" default-x="268.33"><pitch><step>G</step><alter>1</alter><octave>4</octave></pitch><duration>4</duration><voice>1</voice><type>half</type><accidental>sharp</accidental><stem>up</stem><lyric number="1"><syllabic>single</syllabic><text>mine</text></lyric><lyric number="2"><syllabic>single</syllabic><text>trees</text></lyric></note></measure><measure width="245.77" number="2"><harmony print-frame="no"><root><root-step>F</root-step></root><kind text="">major</kind></harmony><note default-y="-25.00" default-x="29.83"><pitch><step>A</step><octave>4</octave></pitch><duration>1</duration><voice>1</voice><type>eighth</type><stem>up</stem><beam number="1">begin</beam><lyric number="1"><syllabic>single</syllabic><text>dont</text></lyric><lyric number="2"><syllabic>begin</syllabic><text>whis</text></lyric></note><note default-y="-15.00" default-x="71.62"><pitch><step>C</step><octave>5</octave></pitch><duration>1</duration><voice>1</voice><type>eighth</type><stem>up</stem><beam number="1">end</beam><lyric number="1"><syllabic>single</syllabic><text>sit</text></lyric><lyric number="2"><syllabic>middle</syllabic><text>per</text></lyric></note><note default-y="-25.00" default-x="108.40"><pitch><step>A</step><octave>4</octave></pitch><duration>2</duration><voice>1</voice><type>quarter</type><stem>up</stem><lyric number="1"><syllabic>single</syllabic><text>and</text></lyric><lyric number="2"><syllabic>end</syllabic><text>ing</text></lyric></note><harmony print-frame="no"><root><root-step>C</root-step></root><kind text="7">dominant</kind></harmony><note default-y="-30.00" default-x="165.57"><pitch><step>G</step><alter>1</alter><octave>4</octave></pitch><duration>4</duration><voice>1</voice><type>half</type><accidental>sharp</accidental><stem>up</stem><lyric number="1"><syllabic>single</syllabic><text>pine</text></lyric><lyric number="2"><syllabic>single</syllabic><text>breeze</text></lyric></note></measure><measure width="416.72" number="3"><harmony print-frame="no"><root><root-step>F</root-step></root><kind text="">major</kind></harmony><note default-y="-25.00" default-x="38.60"><pitch><step>A</step><octave>4</octave></pitch><duration>1</duration><voice>1</voice><type>eighth</type><stem>down</stem><beam number="1">begin</beam><lyric number="1"><syllabic>single</syllabic><text>tell</text></lyric><lyric number="2"><syllabic>single</syllabic><text>should</text></lyric></note><note default-y="-15.00" default-x="89.15"><pitch><step>C</step><octave>5</octave></pitch><duration>1</duration><voice>1</voice><type>eighth</type><stem>down</stem><beam number="1">continue</beam><lyric number="1"><syllabic>single</syllabic><text>me</text></lyric><lyric number="2"><syllabic>single</syllabic><text>not</text></lyric></note><note default-y="-10.00" default-x="135.38"><pitch><step>D</step><octave>5</octave></pitch><duration>1</duration><voice>1</voice><type>eighth</type><stem>down</stem><beam number="1">continue</beam><lyric number="1"><syllabic>single</syllabic><text>of</text></lyric><lyric number="2"><syllabic>single</syllabic><text>fail</text></lyric></note><note default-y="-5.00" default-x="181.61"><pitch><step>E</step><octave>5</octave></pitch><duration>1</duration><voice>1</voice><type>eighth</type><stem>down</stem><beam number="1">end</beam><lyric number="1"><syllabic>single</syllabic><text>the</text></lyric><lyric number="2"><syllabic>single</syllabic><text>to</text></lyric></note><note default-y="5.00" default-x="227.84"><pitch><step>G</step><octave>5</octave></pitch><duration>1</duration><voice>1</voice><type>eighth</type><stem>down</stem><beam number="1">begin</beam><lyric number="1"><syllabic>single</syllabic><text>cares</text></lyric><lyric number="2"><syllabic>single</syllabic><text>lull</text></lyric></note><note default-y="-5.00" default-x="274.07"><pitch><step>E</step><octave>5</octave></pitch><duration>1</duration><voice>1</voice><type>eighth</type><stem>down</stem><beam number="1">continue</beam><lyric number="1"><syllabic>single</syllabic><text>that</text></lyric><lyric number="2"><syllabic>single</syllabic><text>you</text></lyric></note><note default-y="-15.00" default-x="321.48"><pitch><step>C</step><octave>5</octave></pitch><duration>1</duration><voice>1</voice><type>eighth</type><stem>down</stem><beam number="1">continue</beam><lyric number="1"><syllabic>single</syllabic><text>make</text></lyric><lyric number="2"><syllabic>begin</syllabic><text>in</text></lyric></note><note default-y="-25.00" default-x="368.89"><pitch><step>A</step><octave>4</octave></pitch><duration>1</duration><voice>1</voice><type>eighth</type><stem>down</stem><beam number="1">end</beam><lyric number="1"><syllabic>single</syllabic><text>you</text></lyric><lyric number="2"><syllabic>end</syllabic><text>to</text></lyric></note></measure><measure width="218.35" number="4"><note default-y="-15.00" default-x="34.19"><pitch><step>C</step><octave>5</octave></pitch><duration>2</duration><voice>1</voice><type>quarter</type><stem>down</stem><lyric number="1"><syllabic>single</syllabic><text>feel</text></lyric><lyric number="2"><syllabic>begin</syllabic><text>peace</text></lyric></note><note default-y="-20.00" default-x="84.73"><pitch><step>B</step><octave>4</octave></pitch><duration>2</duration><voice>1</voice><type>quarter</type><stem>down</stem><lyric number="1"><syllabic>single</syllabic><text>so</text></lyric><lyric number="2"><syllabic>end</syllabic><text>ful</text></lyric></note><harmony print-frame="no"><root><root-step>C</root-step></root><kind text="7">dominant</kind></harmony><note default-y="-20.00" default-x="135.88"><pitch><step>B</step><alter>-1</alter><octave>4</octave></pitch><duration>4</duration><voice>1</voice><type>half</type><accidental>flat</accidental><stem>down</stem><lyric number="1"><syllabic>single</syllabic><text>blue</text></lyric><lyric number="2"><syllabic>single</syllabic><text>dreams</text></lyric></note></measure><measure width="309.81" number="5"><print new-system="yes"><system-layout><system-margins><left-margin>0.00</left-margin><right-margin>0.00</right-margin></system-margins><system-distance>166.70</system-distance></system-layout></print><harmony print-frame="no"><root><root-step>G</root-step></root><kind text="m">minor</kind></harmony><note default-y="-20.00" default-x="76.13"><pitch><step>B</step><alter>-1</alter><octave>4</octave></pitch><duration>1</duration><voice>1</voice><type>eighth</type><accidental>flat</accidental><stem>down</stem><beam number="1">begin</beam><lyric number="1"><syllabic>single</syllabic><text>what</text></lyric><lyric number="2"><syllabic>single</syllabic><text>so</text></lyric></note><note default-y="-10.00" default-x="125.41"><pitch><step>D</step><octave>5</octave></pitch><duration>1</duration><voice>1</voice><type>eighth</type><stem>down</stem><beam number="1">end</beam><lyric number="1"><syllabic>single</syllabic><text>have</text></lyric><lyric number="2"><syllabic>single</syllabic><text>tell</text></lyric></note><note default-y="-20.00" default-x="166.56"><pitch><step>B</step><alter>-1</alter><octave>4</octave></pitch><duration>2</duration><voice>1</voice><type>quarter</type><stem>down</stem><lyric number="1"><syllabic>single</syllabic><text>I</text></lyric><lyric number="2"><syllabic>single</syllabic><text>me</text></lyric></note><harmony print-frame="no"><root><root-step>D</root-step></root><kind text="7">dominant</kind></harmony><note default-y="-25.00" default-x="226.20"><pitch><step>A</step><octave>4</octave></pitch><duration>4</duration><voice>1</voice><type>half</type><stem>up</stem><lyric number="1"><syllabic>single</syllabic><text>done?</text></lyric><lyric number="2"><syllabic>single</syllabic><text>why</text></lyric></note></measure><measure width="240.45" number="6"><harmony print-frame="no"><root><root-step>G</root-step></root><kind text="m">minor</kind></harmony><note default-y="-20.00" default-x="23.58"><pitch><step>B</step><alter>-1</alter><octave>4</octave></pitch><duration>1</duration><voice>1</voice><type>eighth</type><accidental>flat</accidental><stem>down</stem><beam number="1">begin</beam><lyric number="1"><syllabic>begin</syllabic><text>an</text></lyric><lyric number="2"><syllabic>begin</syllabic><text>sad</text></lyric></note><note default-y="-10.00" default-x="65.99"><pitch><step>D</step><octave>5</octave></pitch><duration>1</duration><voice>1</voice><type>eighth</type><stem>down</stem><beam number="1">end</beam><lyric number="1"><syllabic>single</syllabic><text>swer</text></lyric><lyric number="2"><syllabic>end</syllabic><text>ly</text></lyric></note><note default-y="-20.00" default-x="110.28"><pitch><step>B</step><alter>-1</alter><octave>4</octave></pitch><duration>2</duration><voice>1</voice><type>quarter</type><stem>down</stem><lyric number="1"><syllabic>single</syllabic><text>me</text></lyric><lyric number="2"><syllabic>single</syllabic><text>you</text></lyric></note><harmony print-frame="no"><root><root-step>D</root-step></root><kind text="7">dominant</kind></harmony><note default-y="-25.00" default-x="164.42"><pitch><step>A</step><octave>4</octave></pitch><duration>4</duration><voice>1</voice><type>half</type><stem>up</stem><lyric number="1"><syllabic>single</syllabic><text>hon</text></lyric><lyric number="2"><syllabic>single</syllabic><text>sigh</text></lyric></note></measure><measure width="419.06" number="7"><harmony print-frame="no"><root><root-step>G</root-step></root><kind text="7">dominant</kind></harmony><note default-y="-30.00" default-x="29.83"><pitch><step>G</step><octave>4</octave></pitch><duration>1</duration><voice>1</voice><type>eighth</type><stem>up</stem><beam number="1">begin</beam><lyric number="1"><syllabic>single</syllabic><text>have</text></lyric><lyric number="2"><syllabic>begin</syllabic><text>sit</text></lyric></note><note default-y="-25.00" default-x="76.65"><pitch><step>A</step><octave>4</octave></pitch><duration>1</duration><voice>1</voice><type>eighth</type><stem>up</stem><beam number="1">continue</beam><lyric number="1"><syllabic>single</syllabic><text>I</text></lyric><lyric number="2"><syllabic>end</syllabic><text>ting</text></lyric></note><note default-y="-20.00" default-x="123.48"><pitch><step>B</step><octave>4</octave></pitch><duration>1</duration><voice>1</voice><type>eighth</type><stem>up</stem><beam number="1">continue</beam><lyric number="1"><syllabic>begin</syllabic><text>ev</text></lyric><lyric number="2"><syllabic>single</syllabic><text>at</text></lyric></note><note default-y="-15.00" default-x="170.30"><pitch><step>C</step><octave>5</octave></pitch><duration>1</duration><voice>1</voice><type>eighth</type><stem>up</stem><beam number="1">end</beam><lyric number="1"><syllabic>end</syllabic><text>er</text></lyric><lyric number="2"><syllabic>single</syllabic><text>the</text></lyric></note><note default-y="-10.00" default-x="217.13"><pitch><step>D</step><octave>5</octave></pitch><duration>1</duration><voice>1</voice><type>eighth</type><stem>down</stem><beam number="1">begin</beam><lyric number="1"><syllabic>single</syllabic><text>said</text></lyric><lyric number="2"><syllabic>begin</syllabic><text>win</text></lyric></note><note default-y="-15.00" default-x="263.96"><pitch><step>C</step><alter>1</alter><octave>5</octave></pitch><duration>1</duration><voice>1</voice><type>eighth</type><accidental>sharp</accidental><stem>down</stem><beam number="1">continue</beam><lyric number="1"><syllabic>single</syllabic><text>an</text></lyric><lyric number="2"><syllabic>end</syllabic><text>dow</text></lyric></note><note default-y="-10.00" default-x="316.98"><pitch><step>D</step><octave>5</octave></pitch><duration>1</duration><voice>1</voice><type>eighth</type><stem>down</stem><beam number="1">continue</beam><lyric number="1"><syllabic>begin</syllabic><text>un</text></lyric><lyric number="2"><syllabic>single</syllabic><text>where</text></lyric></note><note default-y="-5.00" default-x="370.64"><pitch><step>E</step><octave>5</octave></pitch><duration>1</duration><voice>1</voice><type>eighth</type><stem>down</stem><beam number="1">end</beam><lyric number="1"><syllabic>end</syllabic><text>king</text></lyric><lyric number="2"><syllabic>single</syllabic><text>the</text></lyric></note></measure><measure width="245.50" number="8"><harmony print-frame="no"><root><root-step>C</root-step></root><kind text="7">dominant</kind></harmony><note default-y="-10.00" default-x="31.70"><pitch><step>D</step><octave>5</octave></pitch><duration>2</duration><voice>1</voice><type>quarter</type><stem>down</stem><lyric number="1"><syllabic>single</syllabic><text>word</text></lyric><lyric number="2"><syllabic>single</syllabic><text>pale</text></lyric></note><note default-y="-10.00" default-x="90.04"><pitch><step>D</step><alter>-1</alter><octave>5</octave></pitch><duration>2</duration><voice>1</voice><type>quarter</type><accidental>flat</accidental><stem>down</stem><lyric number="1"><syllabic>single</syllabic><text>to</text></lyric><lyric number="2"><syllabic>single</syllabic><text>moon</text></lyric></note><note default-y="-15.00" default-x="150.57"><pitch><step>C</step><octave>5</octave></pitch><duration>4</duration><voice>1</voice><type>half</type><stem>down</stem><lyric number="1"><syllabic>single</syllabic><text>you?</text></lyric><lyric number="2"><syllabic>single</syllabic><text>beams</text></lyric></note></measure><measure width="326.25" number="9"><print new-system="yes"><system-layout><system-margins><left-margin>0.00</left-margin><right-margin>0.00</right-margin></system-margins><system-distance>166.70</system-distance></system-layout></print><harmony print-frame="no"><root><root-step>F</root-step></root><kind text="">major</kind></harmony><note default-y="-25.00" default-x="71.14"><pitch><step>A</step><octave>4</octave></pitch><duration>1</duration><voice>1</voice><type>eighth</type><stem>up</stem><beam number="1">begin</beam><lyric number="1"><syllabic>single</syllabic><text>my</text></lyric><lyric number="2"><syllabic>single</syllabic><text>you</text></lyric></note><note default-y="-15.00" default-x="124.20"><pitch><step>C</step><octave>5</octave></pitch><duration>1</duration><voice>1</voice><type>eighth</type><stem>up</stem><beam number="1">end</beam><lyric number="1"><syllabic>single</syllabic><text>love</text></lyric><lyric number="2"><syllabic>begin</syllabic><text>should</text></lyric></note><note default-y="-25.00" default-x="169.13"><pitch><step>A</step><octave>4</octave></pitch><duration>2</duration><voice>1</voice><type>quarter</type><stem>up</stem><lyric number="1"><syllabic>single</syllabic><text>is</text></lyric><lyric number="2"><syllabic>middle</syllabic><text>nt</text></lyric></note><harmony print-frame="no"><root><root-step>C</root-step></root><kind text="7">dominant</kind></harmony><note default-y="-30.00" default-x="234.62"><pitch><step>G</step><alter>1</alter><octave>4</octave></pitch><duration>4</duration><voice>1</voice><type>half</type><accidental>sharp</accidental><stem>up</stem><lyric number="1"><syllabic>single</syllabic><text>true</text></lyric><lyric number="2"><syllabic>single</syllabic><text>grieve</text></lyric></note></measure><measure width="244.67" number="10"><harmony print-frame="no"><root><root-step>F</root-step></root><kind text="">major</kind></harmony><note default-y="-25.00" default-x="24.83"><pitch><step>A</step><octave>4</octave></pitch><duration>1</duration><voice>1</voice><type>eighth</type><stem>up</stem><beam number="1">begin</beam><lyric number="1"><syllabic>single</syllabic><text>and</text></lyric><lyric number="2"><syllabic>single</syllabic><text>try</text></lyric></note><note default-y="-15.00" default-x="63.50"><pitch><step>C</step><octave>5</octave></pitch><duration>1</duration><voice>1</voice><type>eighth</type><stem>up</stem><beam number="1">end</beam><lyric number="1"><syllabic>single</syllabic><text>just</text></lyric><lyric number="2"><syllabic>single</syllabic><text>and</text></lyric></note><note default-y="-25.00" default-x="100.91"><pitch><step>A</step><octave>4</octave></pitch><duration>2</duration><voice>1</voice><type>quarter</type><stem>up</stem><lyric number="1"><syllabic>single</syllabic><text>for</text></lyric><lyric number="2"><syllabic>begin</syllabic><text>be</text></lyric></note><harmony print-frame="no"><root><root-step>C</root-step></root><kind text="7">dominant</kind></harmony><note default-y="-30.00" default-x="160.77"><pitch><step>G</step><alter>1</alter><octave>4</octave></pitch><duration>4</duration><voice>1</voice><type>half</type><accidental>sharp</accidental><stem>up</stem><lyric number="1"><syllabic>single</syllabic><text>you</text></lyric><lyric number="2"><syllabic>end</syllabic><text>lieve</text></lyric></note></measure><measure width="409.19" number="11"><harmony print-frame="no"><root><root-step>F</root-step></root><kind text="">major</kind></harmony><note default-y="-25.00" default-x="23.58"><pitch><step>A</step><octave>4</octave></pitch><duration>1</duration><voice>1</voice><type>eighth</type><stem>down</stem><beam number="1">begin</beam><lyric number="1"><syllabic>single</syllabic><text>I'd</text></lyric><lyric number="2"><syllabic>single</syllabic><text>life</text></lyric></note><note default-y="-15.00" default-x="70.68"><pitch><step>C</step><octave>5</octave></pitch><duration>1</duration><voice>1</voice><type>eighth</type><stem>down</stem><beam number="1">continue</beam><lyric number="1"><syllabic>single</syllabic><text>do</text></lyric><lyric number="2"><syllabic>single</syllabic><text>is</text></lyric></note><note default-y="-10.00" default-x="117.78"><pitch><step>D</step><octave>5</octave></pitch><duration>1</duration><voice>1</voice><type>eighth</type><stem>down</stem><beam number="1">continue</beam><lyric number="1"><syllabic>begin</syllabic><text>al</text></lyric><lyric number="2"><syllabic>begin</syllabic><text>al</text></lyric></note><note default-y="-5.00" default-x="164.89"><pitch><step>E</step><octave>5</octave></pitch><duration>1</duration><voice>1</voice><type>eighth</type><stem>down</stem><beam number="1">end</beam><lyric number="1"><syllabic>end</syllabic><text>most</text></lyric><lyric number="2"><syllabic>end</syllabic><text>ways</text></lyric></note><note default-y="5.00" default-x="211.99"><pitch><step>G</step><octave>5</octave></pitch><duration>1</duration><voice>1</voice><type>eighth</type><stem>down</stem><beam number="1">begin</beam><lyric number="1"><syllabic>begin</syllabic><text>an</text></lyric><lyric number="2"><syllabic>begin</syllabic><text>sun</text></lyric></note><note default-y="0.00" default-x="259.09"><pitch><step>F</step><octave>5</octave></pitch><duration>1</duration><voice>1</voice><type>eighth</type><stem>down</stem><beam number="1">continue</beam><lyric number="1"><syllabic>middle</syllabic><text>y</text></lyric><lyric number="2"><syllabic>end</syllabic><text>shine</text></lyric></note><note default-y="-15.00" default-x="313.38"><pitch><step>C</step><octave>5</octave></pitch><duration>1</duration><voice>1</voice><type>eighth</type><stem>down</stem><beam number="1">continue</beam><lyric number="1"><syllabic>end</syllabic><text>thing</text></lyric><lyric number="2"><syllabic>single</syllabic><text>when</text></lyric></note><note default-y="-25.00" default-x="360.48"><pitch><step>A</step><octave>4</octave></pitch><duration>1</duration><voice>1</voice><type>eighth</type><stem>down</stem><beam number="1">end</beam><lyric number="1"><syllabic>single</syllabic><text>at</text></lyric><lyric number="2"><syllabic>single</syllabic><text>the</text></lyric></note></measure><measure width="234.72" number="12"><harmony print-frame="no"><root><root-step>C</root-step></root><kind text="7">dominant</kind></harmony><note default-y="-15.00" default-x="31.07"><pitch><step>C</step><octave>5</octave></pitch><duration>2</duration><voice>1</voice><type>quarter</type><stem>down</stem><lyric number="1"><syllabic>begin</syllabic><text>an</text></lyric><lyric number="2"><syllabic>single</syllabic><text>heart</text></lyric></note><note default-y="-20.00" default-x="87.20"><pitch><step>B</step><octave>4</octave></pitch><duration>2</duration><voice>1</voice><type>quarter</type><stem>down</stem><lyric number="1"><syllabic>end</syllabic><text>y</text></lyric><lyric number="2"><syllabic>single</syllabic><text>beats</text></lyric></note><note default-y="-20.00" default-x="143.32"><pitch><step>B</step><alter>-1</alter><octave>4</octave></pitch><duration>4</duration><voice>1</voice><type>half</type><accidental>flat</accidental><stem>down</stem><lyric number="1"><syllabic>single</syllabic><text>time</text></lyric><lyric number="2"><syllabic>single</syllabic><text>true</text></lyric></note></measure><measure width="295.12" number="13"><print new-system="yes"><system-layout><system-margins><left-margin>0.00</left-margin><right-margin>0.00</right-margin></system-margins><system-distance>166.70</system-distance></system-layout></print><harmony print-frame="no"><root><root-step>G</root-step></root><kind text="7">dominant</kind></harmony><note default-y="-20.00" default-x="73.63"><pitch><step>B</step><octave>4</octave></pitch><duration>1</duration><voice>1</voice><type>eighth</type><stem>down</stem><beam number="1">begin</beam><lyric number="1"><syllabic>single</syllabic><text>dear</text></lyric><lyric number="2"><syllabic>single</syllabic><text>Be</text></lyric></note><note default-y="-15.00" default-x="123.52"><pitch><step>C</step><octave>5</octave></pitch><duration>1</duration><voice>1</voice><type>eighth</type><stem>down</stem><beam number="1">end</beam><lyric number="1"><syllabic>single</syllabic><text>when</text></lyric><lyric number="2"><syllabic>single</syllabic><text>of</text></lyric></note><note default-y="-15.00" default-x="176.57"><pitch><step>C</step><alter>1</alter><octave>5</octave></pitch><duration>2</duration><voice>1</voice><type>quarter</type><accidental>sharp</accidental><stem>down</stem><lyric number="1"><syllabic>single</syllabic><text>you</text></lyric><lyric number="2"><syllabic>single</syllabic><text>good</text></lyric></note><note default-y="-10.00" default-x="229.60"><pitch><step>D</step><octave>5</octave></pitch><duration>4</duration><voice>1</voice><type>half</type><stem>down</stem><lyric number="1"><syllabic>single</syllabic><text>sigh</text></lyric><lyric number="2"><syllabic>single</syllabic><text>cheer</text></lyric></note></measure><measure width="282.94" number="14"><harmony print-frame="no"><root><root-step>C</root-step></root><kind text="">major</kind></harmony><note default-y="-15.00" default-x="32.95"><pitch><step>C</step><octave>5</octave></pitch><duration>1</duration><voice>1</voice><type>eighth</type><stem>down</stem><beam number="1">begin</beam><lyric number="1"><syllabic>single</syllabic><text>or</text></lyric><lyric number="2"><syllabic>single</syllabic><text>smile</text></lyric></note><note default-y="-10.00" default-x="98.50"><pitch><step>D</step><octave>5</octave></pitch><duration>1</duration><voice>1</voice><type>eighth</type><stem>down</stem><beam number="1">end</beam><lyric number="1"><syllabic>single</syllabic><text>when</text></lyric><lyric number="2"><syllabic>single</syllabic><text>through</text></lyric></note><note default-y="-10.00" default-x="160.30"><pitch><step>D</step><alter>1</alter><octave>5</octave></pitch><duration>2</duration><voice>1</voice><type>quarter</type><accidental>sharp</accidental><stem>down</stem><lyric number="1"><syllabic>single</syllabic><text>you</text></lyric><lyric number="2"><syllabic>single</syllabic><text>your</text></lyric></note><harmony print-frame="no"><root><root-step>A</root-step></root><kind text="7">dominant</kind></harmony><note default-y="-5.00" default-x="211.27"><pitch><step>E</step><octave>5</octave></pitch><duration>4</duration><voice>1</voice><type>half</type><stem>down</stem><lyric number="1"><syllabic>single</syllabic><text>cry</text></lyric><lyric number="2"><syllabic>single</syllabic><text>tears</text></lyric></note></measure><measure width="436.22" number="15"><harmony print-frame="no"><root><root-step>D</root-step></root><kind text="7">dominant</kind></harmony><note default-y="-10.00" default-x="32.95"><pitch><step>D</step><octave>5</octave></pitch><duration>1</duration><voice>1</voice><type>eighth</type><stem>down</stem><beam number="1">begin</beam><lyric number="1"><syllabic>begin</syllabic><text>some</text></lyric><lyric number="2"><syllabic>single</syllabic><text>when</text></lyric></note><note default-y="-5.00" default-x="91.14"><pitch><step>E</step><octave>5</octave></pitch><duration>1</duration><voice>1</voice><type>eighth</type><stem>down</stem><beam number="1">continue</beam><lyric number="1"><syllabic>end</syllabic><text>thing</text></lyric><lyric number="2"><syllabic>single</syllabic><text>you're</text></lyric></note><note default-y="-10.00" default-x="152.44"><pitch><step>D</step><octave>5</octave></pitch><duration>1</duration><voice>1</voice><type>eighth</type><stem>down</stem><beam number="1">continue</beam><lyric number="1"><syllabic>single</syllabic><text>seems</text></lyric><lyric number="2"><syllabic>single</syllabic><text>sad</text></lyric></note><note default-y="-5.00" default-x="198.44"><pitch><step>E</step><octave>5</octave></pitch><duration>1</duration><voice>1</voice><type>eighth</type><stem>down</stem><beam number="1">end</beam><lyric number="1"><syllabic>single</syllabic><text>to</text></lyric><lyric number="2"><syllabic>single</syllabic><text>it</text></lyric></note><harmony print-frame="no"><root><root-step>G</root-step></root><kind text="7">dominant</kind></harmony><note default-y="-10.00" default-x="245.47"><pitch><step>D</step><octave>5</octave></pitch><duration>1</duration><voice>1</voice><type>eighth</type><stem>up</stem><beam number="1">begin</beam><lyric number="1"><syllabic>single</syllabic><text>grip</text></lyric><lyric number="2"><syllabic>single</syllabic><text>makes</text></lyric></note><note default-y="-20.00" default-x="296.63"><pitch><step>B</step><octave>4</octave></pitch><duration>1</duration><voice>1</voice><type>eighth</type><stem>up</stem><beam number="1">continue</beam><lyric number="1"><syllabic>single</syllabic><text>this</text></lyric><lyric number="2"><syllabic>single</syllabic><text>me</text></lyric></note><note default-y="-25.00" default-x="342.63"><pitch><step>A</step><octave>4</octave></pitch><duration>1</duration><voice>1</voice><type>eighth</type><stem>up</stem><beam number="1">continue</beam><lyric number="1"><syllabic>begin</syllabic><text>ver</text></lyric><lyric number="2"><syllabic>single</syllabic><text>feel</text></lyric></note><note default-y="-30.00" default-x="388.62"><pitch><step>G</step><octave>4</octave></pitch><duration>1</duration><voice>1</voice><type>eighth</type><stem>up</stem><beam number="1">end</beam><lyric number="1"><syllabic>end</syllabic><text>y</text></lyric><lyric number="2"><syllabic>single</syllabic><text>the</text></lyric></note></measure><measure width="200.55" number="16"><harmony print-frame="no"><root><root-step>C</root-step></root><kind text="7">dominant</kind></harmony><note default-y="-10.00" default-x="31.70"><pitch><step>D</step><octave>5</octave></pitch><duration>2</duration><voice>1</voice><type>quarter</type><stem>down</stem><lyric number="1"><syllabic>single</syllabic><text>heart</text></lyric><lyric number="2"><syllabic>single</syllabic><text>same</text></lyric></note><note default-y="-10.00" default-x="74.39"><pitch><step>D</step><alter>-1</alter><octave>5</octave></pitch><duration>2</duration><voice>1</voice><type>quarter</type><accidental>flat</accidental><stem>down</stem><lyric number="1"><syllabic>single</syllabic><text>of</text></lyric><lyric number="2"><syllabic>single</syllabic><text>as</text></lyric></note><note default-y="-15.00" default-x="117.08"><pitch><step>C</step><octave>5</octave></pitch><duration>4</duration><voice>1</voice><type>half</type><stem>down</stem><lyric number="1"><syllabic>single</syllabic><text>mine</text></lyric><lyric number="2"><syllabic>single</syllabic><text>you</text></lyric></note><barline location="right"><bar-style>light-heavy</bar-style><repeat direction="backward"/></barline></measure><measure width="492.52" number="17"><print new-system="yes"><system-layout><system-margins><left-margin>0.00</left-margin><right-margin>-0.00</right-margin></system-margins><system-distance>166.70</system-distance></system-layout></print><barline location="left"><bar-style>heavy-light</bar-style><repeat direction="forward"/></barline><harmony print-frame="no"><root><root-step>F</root-step></root><kind text="">major</kind></harmony><note default-y="-25.00" default-x="106.29"><pitch><step>A</step><octave>4</octave></pitch><duration>1</duration><voice>1</voice><type>eighth</type><stem>down</stem><beam number="1">begin</beam><lyric number="1"><syllabic>single</syllabic><text>Come</text></lyric></note><note default-y="-20.00" default-x="154.37"><pitch><step>B</step><alter>-1</alter><octave>4</octave></pitch><duration>1</duration><voice>1</voice><type>eighth</type><accidental>flat</accidental><stem>down</stem><beam number="1">continue</beam><lyric number="1"><syllabic>single</syllabic><text>to</text></lyric></note><note default-y="-20.00" default-x="202.45"><pitch><step>B</step><alter>-1</alter><octave>4</octave></pitch><duration>1</duration><voice>1</voice><type>eighth</type><stem>down</stem><beam number="1">continue</beam><lyric number="1"><syllabic>single</syllabic><text>me</text></lyric></note><note default-y="-15.00" default-x="250.53"><pitch><step>C</step><octave>5</octave></pitch><duration>1</duration><voice>1</voice><type>eighth</type><stem>down</stem><beam number="1">end</beam><lyric number="1"><syllabic>single</syllabic><text>my</text></lyric></note><note default-y="5.00" default-x="298.61"><pitch><step>G</step><octave>5</octave></pitch><duration>1</duration><voice>1</voice><type>eighth</type><stem>down</stem><beam number="1">begin</beam><lyric number="1"><syllabic>begin</syllabic><text>mel</text></lyric></note><note default-y="0.00" default-x="346.69"><pitch><step>F</step><octave>5</octave></pitch><duration>1</duration><voice>1</voice><type>eighth</type><stem>down</stem><beam number="1">continue</beam><lyric number="1"><syllabic>middle</syllabic><text>an</text></lyric></note><note default-y="-15.00" default-x="394.77"><pitch><step>C</step><octave>5</octave></pitch><duration>1</duration><voice>1</voice><type>eighth</type><stem>down</stem><beam number="1">continue</beam><lyric number="1"><syllabic>middle</syllabic><text>chol</text></lyric></note><note default-y="-20.00" default-x="442.84"><pitch><step>B</step><alter>-1</alter><octave>4</octave></pitch><duration>1</duration><voice>1</voice><type>eighth</type><stem>down</stem><beam number="1">end</beam><lyric number="1"><syllabic>end</syllabic><text>y</text></lyric></note></measure><measure width="188.16" number="18"><harmony print-frame="no"><root><root-step>D</root-step></root><kind text="7">dominant</kind></harmony><note default-y="-20.00" default-x="19.20"><pitch><step>B</step><alter>-1</alter><octave>4</octave></pitch><duration>4</duration><voice>1</voice><type>half</type><accidental>flat</accidental><stem>down</stem><lyric number="1"><syllabic>begin</syllabic><text>ba</text></lyric></note><note default-y="-25.00" default-x="102.88"><pitch><step>A</step><octave>4</octave></pitch><duration>4</duration><voice>1</voice><type>half</type><stem>up</stem><lyric number="1"><syllabic>end</syllabic><text>by</text></lyric></note></measure><measure width="344.78" number="19"><harmony print-frame="no"><root><root-step>G</root-step></root><kind text="m">minor</kind></harmony><note default-y="-25.00" default-x="24.83"><pitch><step>A</step><octave>4</octave></pitch><duration>1</duration><voice>1</voice><type>eighth</type><stem>up</stem><beam number="1">begin</beam><lyric number="1"><syllabic>begin</syllabic><text>cud</text></lyric></note><note default-y="-30.00" default-x="69.05"><pitch><step>G</step><octave>4</octave></pitch><duration>1</duration><voice>1</voice><type>eighth</type><stem>up</stem><beam number="1">continue</beam><lyric number="1"><syllabic>end</syllabic><text>dle</text></lyric></note><note default-y="-35.00" default-x="113.26"><pitch><step>F</step><alter>1</alter><octave>4</octave></pitch><duration>1</duration><voice>1</voice><type>eighth</type><accidental>sharp</accidental><stem>up</stem><beam number="1">continue</beam><lyric number="1"><syllabic>single</syllabic><text>up</text></lyric></note><note default-y="-30.00" default-x="157.48"><pitch><step>G</step><octave>4</octave></pitch><duration>1</duration><voice>1</voice><type>eighth</type><stem>up</stem><beam number="1">end</beam><lyric number="1"><syllabic>single</syllabic><text>and</text></lyric></note><note default-y="-20.00" default-x="201.69"><pitch><step>B</step><alter>-1</alter><octave>4</octave></pitch><duration>2</duration><voice>1</voice><type>quarter</type><accidental>flat</accidental><stem>down</stem><lyric number="1"><syllabic>single</syllabic><text>dont</text></lyric></note><note default-y="-5.00" default-x="272.44"><pitch><step>E</step><octave>5</octave></pitch><duration>2</duration><voice>1</voice><type>quarter</type><stem>down</stem><lyric number="1"><syllabic>single</syllabic><text>be</text></lyric></note></measure><measure width="189.37" number="20"><note default-y="-10.00" default-x="27.96"><pitch><step>D</step><octave>5</octave></pitch><duration>6</duration><voice>1</voice><type>half</type><dot/><stem>down</stem><lyric number="1"><syllabic>single</syllabic><text>blue</text></lyric></note><note><rest/><duration>2</duration><voice>1</voice><type>quarter</type></note></measure><measure width="446.11" number="21"><print new-system="yes"><system-layout><system-margins><left-margin>0.00</left-margin><right-margin>0.00</right-margin></system-margins><system-distance>140.72</system-distance></system-layout></print><harmony print-frame="no"><root><root-step>C</root-step></root><kind text="7">dominant</kind></harmony><note default-y="-30.00" default-x="65.51"><pitch><step>G</step><octave>4</octave></pitch><duration>1</duration><voice>1</voice><type>eighth</type><stem>up</stem><beam number="1">begin</beam><lyric number="1"><syllabic>single</syllabic><text>all</text></lyric></note><note default-y="-25.00" default-x="112.70"><pitch><step>A</step><octave>4</octave></pitch><duration>1</duration><voice>1</voice><type>eighth</type><stem>up</stem><beam number="1">continue</beam><lyric number="1"><syllabic>single</syllabic><text>your</text></lyric></note><note default-y="-20.00" default-x="161.36"><pitch><step>B</step><alter>-1</alter><octave>4</octave></pitch><duration>1</duration><voice>1</voice><type>eighth</type><accidental>flat</accidental><stem>up</stem><beam number="1">continue</beam><lyric number="1"><syllabic>single</syllabic><text>fears</text></lyric></note><note default-y="-15.00" default-x="208.55"><pitch><step>C</step><octave>5</octave></pitch><duration>1</duration><voice>1</voice><type>eighth</type><stem>up</stem><beam number="1">end</beam><lyric number="1"><syllabic>single</syllabic><text>are</text></lyric></note><note default-y="-10.00" default-x="255.74"><pitch><step>D</step><octave>5</octave></pitch><duration>1</duration><voice>1</voice><type>eighth</type><stem>down</stem><beam number="1">begin</beam><lyric number="1"><syllabic>begin</syllabic><text>fool</text></lyric></note><note default-y="0.00" default-x="302.93"><pitch><step>F</step><octave>5</octave></pitch><duration>1</duration><voice>1</voice><type>eighth</type><stem>down</stem><beam number="1">continue</beam><lyric number="1"><syllabic>end</syllabic><text>ish</text></lyric></note><note default-y="-5.00" default-x="350.13"><pitch><step>E</step><octave>5</octave></pitch><duration>1</duration><voice>1</voice><type>eighth</type><stem>down</stem><beam number="1">continue</beam><lyric number="1"><syllabic>begin</syllabic><text>fan</text></lyric></note><note default-y="-10.00" default-x="397.32"><pitch><step>D</step><octave>5</octave></pitch><duration>1</duration><voice>1</voice><type>eighth</type><stem>down</stem><beam number="1">end</beam><lyric number="1"><syllabic>end</syllabic><text>cy</text></lyric></note></measure><measure width="175.82" number="22"><note default-y="-25.00" default-x="27.95"><pitch><step>A</step><octave>4</octave></pitch><duration>4</duration><voice>1</voice><type>half</type><stem>up</stem><lyric number="1"><syllabic>begin</syllabic><text>may</text></lyric></note><note default-y="-30.00" default-x="101.08"><pitch><step>G</step><octave>4</octave></pitch><duration>4</duration><voice>1</voice><type>half</type><stem>up</stem><lyric number="1"><syllabic>end</syllabic><text>be</text></lyric></note></measure><measure width="435.51" number="23"><harmony print-frame="no"><root><root-step>F</root-step></root><kind text="">major</kind></harmony><note default-y="-30.00" default-x="25.46"><pitch><step>G</step><octave>4</octave></pitch><duration>1</duration><voice>1</voice><type>eighth</type><stem>up</stem><beam number="1">begin</beam><lyric number="1"><syllabic>single</syllabic><text>you</text></lyric></note><note default-y="-35.00" default-x="76.52"><pitch><step>F</step><octave>4</octave></pitch><duration>1</duration><voice>1</voice><type>eighth</type><stem>up</stem><beam number="1">continue</beam><lyric number="1"><syllabic>single</syllabic><text>know</text></lyric></note><note default-y="-40.00" default-x="127.57"><pitch><step>E</step><octave>4</octave></pitch><duration>1</duration><voice>1</voice><type>eighth</type><stem>up</stem><beam number="1">continue</beam><lyric number="1"><syllabic>single</syllabic><text>dear</text></lyric></note><note default-y="-35.00" default-x="178.63"><pitch><step>F</step><octave>4</octave></pitch><duration>1</duration><voice>1</voice><type>eighth</type><stem>up</stem><beam number="1">end</beam><lyric number="1"><syllabic>single</syllabic><text>that</text></lyric></note><note default-y="-30.00" default-x="229.68"><pitch><step>G</step><octave>4</octave></pitch><duration>1</duration><voice>1</voice><type>eighth</type><stem>up</stem><beam number="1">begin</beam><lyric number="1"><syllabic>single</syllabic><text>I'm</text></lyric></note><note default-y="-35.00" default-x="280.74"><pitch><step>F</step><octave>4</octave></pitch><duration>1</duration><voice>1</voice><type>eighth</type><stem>up</stem><beam number="1">continue</beam><lyric number="1"><syllabic>single</syllabic><text>in</text></lyric></note><note default-y="-30.00" default-x="331.80"><pitch><step>G</step><octave>4</octave></pitch><duration>1</duration><voice>1</voice><type>eighth</type><stem>up</stem><beam number="1">continue</beam><lyric number="1"><syllabic>single</syllabic><text>love</text></lyric></note><note default-y="-25.00" default-x="382.85"><pitch><step>A</step><octave>4</octave></pitch><duration>1</duration><voice>1</voice><type>eighth</type><stem>up</stem><beam number="1">end</beam><lyric number="1"><syllabic>single</syllabic><text>with</text></lyric></note></measure><measure width="157.40" number="24"><note default-y="-15.00" default-x="25.46"><pitch><step>C</step><octave>5</octave></pitch><duration>6</duration><voice>1</voice><type>half</type><dot/><stem>down</stem><lyric number="1"><syllabic>single</syllabic><text>you</text></lyric></note><note><rest/><duration>2</duration><voice>1</voice><type>quarter</type></note></measure><measure width="462.63" number="25"><print new-system="yes"><system-layout><system-margins><left-margin>0.00</left-margin><right-margin>0.00</right-margin></system-margins><system-distance>140.72</system-distance></system-layout></print><note default-y="-25.00" default-x="64.88"><pitch><step>A</step><octave>4</octave></pitch><duration>1</duration><voice>1</voice><type>eighth</type><stem>down</stem><beam number="1">begin</beam><lyric number="1"><syllabic>begin</syllabic><text>ev</text></lyric></note><note default-y="-20.00" default-x="113.85"><pitch><step>B</step><alter>-1</alter><octave>4</octave></pitch><duration>1</duration><voice>1</voice><type>eighth</type><accidental>flat</accidental><stem>down</stem><beam number="1">continue</beam><lyric number="1"><syllabic>end</syllabic><text>ry</text></lyric></note><note default-y="-20.00" default-x="162.82"><pitch><step>B</step><alter>-1</alter><octave>4</octave></pitch><duration>1</duration><voice>1</voice><type>eighth</type><stem>down</stem><beam number="1">continue</beam><lyric number="1"><syllabic>single</syllabic><text>cloud</text></lyric></note><note default-y="-15.00" default-x="215.87"><pitch><step>C</step><octave>5</octave></pitch><duration>1</duration><voice>1</voice><type>eighth</type><stem>down</stem><beam number="1">end</beam><lyric number="1"><syllabic>single</syllabic><text>must</text></lyric></note><note default-y="5.00" default-x="265.15"><pitch><step>G</step><octave>5</octave></pitch><duration>1</duration><voice>1</voice><type>eighth</type><stem>down</stem><beam number="1">begin</beam><lyric number="1"><syllabic>single</syllabic><text>have</text></lyric></note><note default-y="0.00" default-x="314.12"><pitch><step>F</step><octave>5</octave></pitch><duration>1</duration><voice>1</voice><type>eighth</type><stem>down</stem><beam number="1">continue</beam><lyric number="1"><syllabic>single</syllabic><text>a</text></lyric></note><note default-y="-15.00" default-x="363.09"><pitch><step>C</step><octave>5</octave></pitch><duration>1</duration><voice>1</voice><type>eighth</type><stem>down</stem><beam number="1">continue</beam><lyric number="1"><syllabic>begin</syllabic><text>sil</text></lyric></note><note default-y="-20.00" default-x="412.06"><pitch><step>B</step><alter>-1</alter><octave>4</octave></pitch><duration>1</duration><voice>1</voice><type>eighth</type><stem>down</stem><beam number="1">end</beam><lyric number="1"><syllabic>end</syllabic><text>ver</text></lyric></note></measure><measure width="184.35" number="26"><harmony print-frame="no"><root><root-step>D</root-step></root><kind text="7">dominant</kind></harmony><note default-y="-20.00" default-x="20.46"><pitch><step>B</step><alter>-1</alter><octave>4</octave></pitch><duration>4</duration><voice>1</voice><type>half</type><accidental>flat</accidental><stem>down</stem><lyric number="1"><syllabic>begin</syllabic><text>lin</text></lyric></note><note default-y="-25.00" default-x="101.61"><pitch><step>A</step><octave>4</octave></pitch><duration>4</duration><voice>1</voice><type>half</type><stem>up</stem><lyric number="1"><syllabic>end</syllabic><text>ing</text></lyric></note></measure><measure width="356.95" number="27"><harmony print-frame="no"><root><root-step>G</root-step></root><kind text="m">minor</kind></harmony><note default-y="-25.00" default-x="27.95"><pitch><step>A</step><octave>4</octave></pitch><duration>1</duration><voice>1</voice><type>eighth</type><stem>up</stem><beam number="1">begin</beam><lyric number="1"><syllabic>single</syllabic><text>wait</text></lyric></note><note default-y="-30.00" default-x="73.42"><pitch><step>G</step><octave>4</octave></pitch><duration>1</duration><voice>1</voice><type>eighth</type><stem>up</stem><beam number="1">continue</beam><lyric number="1"><syllabic>begin</syllabic><text>un</text></lyric></note><note default-y="-35.00" default-x="118.89"><pitch><step>F</step><alter>1</alter><octave>4</octave></pitch><duration>1</duration><voice>1</voice><type>eighth</type><accidental>sharp</accidental><stem>up</stem><beam number="1">continue</beam><lyric number="1"><syllabic>end</syllabic><text>til</text></lyric></note><note default-y="-30.00" default-x="164.36"><pitch><step>G</step><octave>4</octave></pitch><duration>1</duration><voice>1</voice><type>eighth</type><stem>up</stem><beam number="1">end</beam><lyric number="1"><syllabic>single</syllabic><text>the</text></lyric></note><note default-y="-20.00" default-x="209.84"><pitch><step>B</step><alter>-1</alter><octave>4</octave></pitch><duration>2</duration><voice>1</voice><type>quarter</type><accidental>flat</accidental><stem>down</stem><lyric number="1"><syllabic>single</syllabic><text>sun</text></lyric></note><note default-y="-5.00" default-x="282.59"><pitch><step>E</step><octave>5</octave></pitch><duration>2</duration><voice>1</voice><type>quarter</type><stem>down</stem><lyric number="1"><syllabic>single</syllabic><text>shines</text></lyric></note></measure><measure width="210.91" number="28"><note default-y="-10.00" default-x="43.59"><pitch><step>D</step><octave>5</octave></pitch><duration>6</duration><voice>1</voice><type>half</type><dot/><stem>down</stem><lyric number="1"><syllabic>single</syllabic><text>through</text></lyric></note><note><rest/><duration>2</duration><voice>1</voice><type>quarter</type></note></measure><measure width="349.92" number="29"><print new-system="yes"><system-layout><system-margins><left-margin>0.00</left-margin><right-margin>0.00</right-margin></system-margins><system-distance>140.72</system-distance></system-layout></print><harmony print-frame="no"><root><root-step>B</root-step><root-alter>-1</root-alter></root><kind text="">major</kind></harmony><note default-y="-10.00" default-x="80.51"><pitch><step>D</step><octave>5</octave></pitch><duration>1</duration><voice>1</voice><type>eighth</type><stem>down</stem><beam number="1">begin</beam><lyric number="1"><syllabic>single</syllabic><text>Smile</text></lyric></note><note default-y="-15.00" default-x="127.29"><pitch><step>C</step><alter>1</alter><octave>5</octave></pitch><duration>1</duration><voice>1</voice><type>eighth</type><accidental>sharp</accidental><stem>down</stem><beam number="1">continue</beam><lyric number="1"><syllabic>single</syllabic><text>my</text></lyric></note><note default-y="-10.00" default-x="164.71"><pitch><step>D</step><octave>5</octave></pitch><duration>1</duration><voice>1</voice><type>eighth</type><stem>down</stem><beam number="1">continue</beam><lyric number="1"><syllabic>begin</syllabic><text>hon</text></lyric></note><note default-y="-5.00" default-x="198.38"><pitch><step>E</step><octave>5</octave></pitch><duration>1</duration><voice>1</voice><type>eighth</type><stem>down</stem><beam number="1">end</beam><lyric number="1"><syllabic>end</syllabic><text>ey</text></lyric></note><note default-y="0.00" default-x="236.03"><pitch><step>F</step><octave>5</octave></pitch><duration>2</duration><voice>1</voice><type>quarter</type><stem>down</stem><lyric number="1"><syllabic>single</syllabic><text>dear</text></lyric></note><note default-y="-5.00" default-x="286.55"><pitch><step>E</step><octave>5</octave></pitch><duration>1</duration><voice>1</voice><type>eighth</type><stem>down</stem><beam number="1">begin</beam><lyric number="1"><syllabic>single</syllabic><text>while</text></lyric></note><note default-y="-10.00" default-x="321.45"><pitch><step>D</step><octave>5</octave></pitch><duration>1</duration><voice>1</voice><type>eighth</type><stem>down</stem><beam number="1">end</beam><lyric number="1"><syllabic>single</syllabic><text>I</text></lyric></note></measure><measure width="256.44" number="30"><harmony print-frame="no"><root><root-step>F</root-step></root><kind text="">major</kind></harmony><note default-y="-15.00" default-x="26.09"><pitch><step>C</step><octave>5</octave></pitch><duration>1</duration><voice>1</voice><type>eighth</type><stem>down</stem><beam number="1">begin</beam><lyric number="1"><syllabic>single</syllabic><text>kiss</text></lyric></note><note default-y="-20.00" default-x="54.77"><pitch><step>B</step><octave>4</octave></pitch><duration>1</duration><voice>1</voice><type>eighth</type><stem>down</stem><beam number="1">continue</beam><lyric number="1"><syllabic>begin</syllabic><text>a</text></lyric></note><note default-y="-15.00" default-x="91.79"><pitch><step>C</step><octave>5</octave></pitch><duration>1</duration><voice>1</voice><type>eighth</type><stem>down</stem><beam number="1">continue</beam><lyric number="1"><syllabic>end</syllabic><text>way</text></lyric></note><note default-y="-15.00" default-x="137.31"><pitch><step>C</step><alter>1</alter><octave>5</octave></pitch><duration>1</duration><voice>1</voice><type>eighth</type><accidental>sharp</accidental><stem>down</stem><beam number="1">end</beam><lyric number="1"><syllabic>single</syllabic><text>each</text></lyric></note><harmony print-frame="no"><root><root-step>D</root-step></root><kind text="7">dominant</kind></harmony><note default-y="-10.00" default-x="180.95"><pitch><step>D</step><octave>5</octave></pitch><duration>3</duration><voice>1</voice><type>quarter</type><dot/><stem>down</stem><lyric number="1"><syllabic>single</syllabic><text>tear</text></lyric></note><note default-y="-25.00" default-x="222.52"><pitch><step>A</step><octave>4</octave></pitch><duration>1</duration><voice>1</voice><type>eighth</type><stem>up</stem><lyric number="1"><syllabic>single</syllabic><text>or</text></lyric></note></measure><measure width="302.66" number="31"><harmony print-frame="no"><root><root-step>C</root-step></root><kind text="7">dominant</kind></harmony><note default-y="-20.00" default-x="26.08"><pitch><step>B</step><alter>-1</alter><octave>4</octave></pitch><duration>1</duration><voice>1</voice><type>eighth</type><accidental>flat</accidental><stem>down</stem><beam number="1">begin</beam><lyric number="1"><syllabic>single</syllabic><text>else</text></lyric></note><note default-y="-15.00" default-x="55.97"><pitch><step>C</step><octave>5</octave></pitch><duration>1</duration><voice>1</voice><type>eighth</type><stem>down</stem><beam number="1">continue</beam><lyric number="1"><syllabic>single</syllabic><text>I</text></lyric></note><note default-y="-15.00" default-x="95.50"><pitch><step>C</step><alter>1</alter><octave>5</octave></pitch><duration>1</duration><voice>1</voice><type>eighth</type><accidental>sharp</accidental><stem>down</stem><beam number="1">continue</beam><lyric number="1"><syllabic>single</syllabic><text>shall</text></lyric></note><note default-y="-10.00" default-x="133.54"><pitch><step>D</step><octave>5</octave></pitch><duration>1</duration><voice>1</voice><type>eighth</type><stem>down</stem><beam number="1">end</beam><lyric number="1"><syllabic>single</syllabic><text>be</text></lyric></note><note default-y="-25.00" default-x="168.69"><pitch><step>A</step><octave>4</octave></pitch><duration>1</duration><voice>1</voice><type>eighth</type><stem>up</stem><beam number="1">begin</beam><lyric number="1"><syllabic>begin</syllabic><text>mel</text></lyric></note><note default-y="-15.00" default-x="202.34"><pitch><step>C</step><alter>1</alter><octave>5</octave></pitch><duration>1</duration><voice>1</voice><type>eighth</type><stem>up</stem><beam number="1">continue</beam><lyric number="1"><syllabic>middle</syllabic><text>an</text></lyric></note><note default-y="-25.00" default-x="240.00"><pitch><step>A</step><octave>4</octave></pitch><duration>1</duration><voice>1</voice><type>eighth</type><stem>up</stem><beam number="1">continue</beam><lyric number="1"><syllabic>middle</syllabic><text>chol</text></lyric></note><note default-y="-30.00" default-x="271.17"><pitch><step>G</step><octave>4</octave></pitch><duration>1</duration><voice>1</voice><type>eighth</type><stem>up</stem><beam number="1">end</beam><lyric number="1"><syllabic>end</syllabic><text>y</text></lyric></note></measure><measure width="223.42" number="32"><barline location="left"><ending type="start" number="1"/></barline><harmony print-frame="no"><root><root-step>F</root-step></root><kind text="">major</kind></harmony><note default-y="-35.00" default-x="25.77"><pitch><step>F</step><octave>4</octave></pitch><duration>2</duration><voice>1</voice><type>quarter</type><stem>up</stem><lyric number="1"><syllabic>single</syllabic><text>too.</text></lyric></note><note default-y="-15.00" default-x="71.00"><pitch><step>C</step><octave>5</octave></pitch><duration>2</duration><voice>1</voice><type>quarter</type><stem>down</stem><lyric number="1"><syllabic>single</syllabic><text>Now</text></lyric></note><note default-y="-10.00" default-x="123.55"><pitch><step>D</step><octave>5</octave></pitch><duration>2</duration><voice>1</voice><type>quarter</type><stem>down</stem><lyric number="1"><syllabic>single</syllabic><text>won't</text></lyric></note><note default-y="-15.00" default-x="171.13"><pitch><step>C</step><octave>5</octave></pitch><duration>2</duration><voice>1</voice><type>quarter</type><stem>down</stem><lyric number="1"><syllabic>single</syllabic><text>you</text></lyric></note><barline location="right"><bar-style>light-heavy</bar-style><ending type="stop" number="1"/><repeat direction="backward"/></barline></measure><measure width="82.40" number="33"><barline location="left"><ending type="start" number="2"/></barline><harmony print-frame="no"><root><root-step>F</root-step></root><kind text="">major</kind></harmony><note default-y="-35.00" default-x="22.96"><pitch><step>F</step><octave>4</octave></pitch><duration>6</duration><voice>1</voice><type>half</type><dot/><stem>up</stem><lyric number="1"><syllabic>single</syllabic><text>too</text></lyric></note><note default-y="0.00" default-x="51.60"><pitch><step>F</step><octave>5</octave></pitch><duration>2</duration><voice>1</voice><type>quarter</type><stem>down</stem></note><barline location="right"><bar-style>light-heavy</bar-style><ending type="stop" number="2"/></barline></measure></part></score-partwise>