<score-partwise version="2.0"><work><work-number/><work-title/></work><movement-number/><movement-title>You're Nobody 'Till Somebody Loves You</movement-title><identification><creator type="composer">James Cavanaugh, Larry Stock, Russ Morgan</creator><creator type="poet"/><rights>All Rights Reserved</rights><encoding><software>MuseScore 0.9.5</software><encoding-date>2010-01-02</encoding-date><software>ProxyMusic 2.0 c</software></encoding><source>http://wikifonia.org/node/4032/revisions/5354/view</source></identification><defaults><scaling><millimeters>7.056</millimeters><tenths>40</tenths></scaling><page-layout><page-height>1683.67</page-height><page-width>1190.48</page-width><page-margins type="both"><left-margin>56.6893</left-margin><right-margin>56.6893</right-margin><top-margin>56.6893</top-margin><bottom-margin>113.379</bottom-margin></page-margins></page-layout></defaults><credit page="1"><credit-words font-size="24" default-y="1626.98" default-x="595.238" justify="center" valign="top">You're Nobody 'Till Somebody Loves You</credit-words></credit><part-list><score-part id="P1"><part-name>Voice</part-name><score-instrument id="P1-I3"><instrument-name>Voice</instrument-name></score-instrument><midi-instrument id="P1-I3"><midi-channel>1</midi-channel><midi-program>53</midi-program></midi-instrument></score-part></part-list><part id="P1"><measure width="269.54" number="1"><print><system-layout><system-margins><left-margin>69.92</left-margin><right-margin>0.00</right-margin></system-margins><top-system-distance>228.53</top-system-distance></system-layout></print><attributes><divisions>2</divisions><key><fifths>1</fifths><mode>major</mode></key><time><beats>4</beats><beat-type>4</beat-type></time><clef><sign>G</sign><line>2</line></clef></attributes><note><rest/><duration>4</duration><voice>1</voice><type>half</type></note><note><rest/><duration>2</duration><voice>1</voice><type>quarter</type></note><harmony print-frame="no"><root><root-step>D</root-step></root><kind text="9">dominant-ninth</kind></harmony><note default-y="-45.00" default-x="208.80"><pitch><step>D</step><octave>4</octave></pitch><duration>2</duration><voice>1</voice><type>quarter</type><stem>up</stem><lyric number="1"><syllabic>single</syllabic><text>You're</text></lyric></note></measure><measure width="204.18" number="2"><barline location="left"><bar-style>heavy-light</bar-style><repeat direction="forward"/></barline><harmony print-frame="no"><root><root-step>G</root-step></root><kind text="">major</kind></harmony><note default-y="-20.00" default-x="19.74"><pitch><step>B</step><octave>4</octave></pitch><duration>4</duration><voice>1</voice><type>half</type><stem>down</stem><lyric number="1"><syllabic>begin</syllabic><text>no</text></lyric></note><note default-y="-45.00" default-x="88.54"><pitch><step>D</step><octave>4</octave></pitch><duration>1</duration><voice>1</voice><type>eighth</type><stem>up</stem><beam number="1">begin</beam><lyric number="1"><syllabic>middle</syllabic><text>bod</text></lyric></note><note default-y="-30.00" default-x="119.82"><pitch><step>G</step><octave>4</octave></pitch><duration>1</duration><voice>1</voice><type>eighth</type><stem>up</stem><beam number="1">end</beam><lyric number="1"><syllabic>end</syllabic><text>y</text></lyric></note><note default-y="-20.00" default-x="152.54"><pitch><step>B</step><octave>4</octave></pitch><duration>2</duration><voice>1</voice><type>quarter</type><stem>down</stem><lyric number="1"><syllabic>single</syllabic><text>'till</text></lyric></note></measure><measure width="196.94" number="3"><harmony print-frame="no"><root><root-step>B</root-step></root><kind text="7">dominant</kind></harmony><note default-y="-25.00" default-x="32.26"><pitch><step>A</step><octave>4</octave></pitch><duration>4</duration><voice>1</voice><type>half</type><stem>up</stem><lyric number="1"><syllabic>begin</syllabic><text>some</text></lyric></note><note default-y="-35.00" default-x="101.24"><pitch><step>F</step><alter>1</alter><octave>4</octave></pitch><duration>1</duration><voice>1</voice><type>eighth</type><stem>up</stem><lyric number="1"><syllabic>middle</syllabic><text>bod</text></lyric></note><note default-y="-25.00" default-x="134.16"><pitch><step>A</step><octave>4</octave></pitch><duration>3</duration><voice>1</voice><type>quarter</type><dot/><stem>up</stem><lyric number="1"><syllabic>end</syllabic><text>y</text></lyric></note></measure><measure width="174.34" number="4"><harmony print-frame="no"><root><root-step>E</root-step></root><kind text="7b9">dominant</kind><degree><degree-value>9</degree-value><degree-alter>-1</degree-alter><degree-type>add</degree-type></degree></harmony><note default-y="-30.00" default-x="32.26"><pitch><step>G</step><alter>1</alter><octave>4</octave></pitch><duration>4</duration><voice>1</voice><type>half</type><accidental>sharp</accidental><stem>up</stem><lyric number="1"><syllabic>single</syllabic><text>loves</text></lyric></note><harmony print-frame="no"><root><root-step>E</root-step></root><kind text="7">dominant</kind></harmony><note default-y="-20.00" default-x="102.50"><pitch><step>B</step><octave>4</octave></pitch><duration>4</duration><tie type="start"/><voice>1</voice><type>half</type><stem>down</stem><notations><tied type="start"/></notations><lyric number="1"><syllabic>single</syllabic><text>you,</text></lyric></note></measure><measure width="162.18" number="5"><harmony relative-x="637.50" print-frame="no"><root><root-step>B</root-step></root><kind text="7">dominant</kind><bass><bass-step>F</bass-step><bass-alter>1</bass-alter></bass></harmony><note default-y="-20.00" default-x="15.00"><pitch><step>B</step><octave>4</octave></pitch><duration>6</duration><tie type="stop"/><voice>1</voice><type>half</type><dot/><stem>down</stem><notations><tied type="stop"/></notations></note><harmony print-frame="no"><root><root-step>E</root-step></root><kind text="7">dominant</kind><bass><bass-step>G</bass-step><bass-alter>1</bass-alter></bass></harmony><note default-y="-40.00" default-x="111.25"><pitch><step>E</step><octave>4</octave></pitch><duration>2</duration><voice>1</voice><type>quarter</type><stem>up</stem><lyric number="1"><syllabic>single</syllabic><text>you're</text></lyric></note></measure><measure width="264.94" number="6"><print new-system="yes"><system-layout><system-margins><left-margin>47.28</left-margin><right-margin>-0.00</right-margin></system-margins><system-distance>153.73</system-distance></system-layout></print><harmony print-frame="no"><root><root-step>A</root-step></root><kind text="m">minor</kind></harmony><note default-y="-15.00" default-x="81.46"><pitch><step>C</step><octave>5</octave></pitch><duration>4</duration><voice>1</voice><type>half</type><stem>down</stem><lyric number="1"><syllabic>begin</syllabic><text>no</text></lyric></note><note default-y="-40.00" default-x="149.82"><pitch><step>E</step><octave>4</octave></pitch><duration>1</duration><voice>1</voice><type>eighth</type><stem>up</stem><beam number="1">begin</beam><lyric number="1"><syllabic>middle</syllabic><text>bod</text></lyric></note><note default-y="-25.00" default-x="180.90"><pitch><step>A</step><octave>4</octave></pitch><duration>1</duration><voice>1</voice><type>eighth</type><stem>up</stem><beam number="1">end</beam><lyric number="1"><syllabic>end</syllabic><text>y</text></lyric></note><note default-y="-15.00" default-x="213.62"><pitch><step>C</step><octave>5</octave></pitch><duration>2</duration><voice>1</voice><type>quarter</type><stem>down</stem><lyric number="1"><syllabic>single</syllabic><text>'till</text></lyric></note></measure><measure width="253.84" number="7"><harmony print-frame="no"><root><root-step>D</root-step></root><kind text="7">dominant</kind></harmony><note default-y="-20.00" default-x="32.26"><pitch><step>B</step><octave>4</octave></pitch><duration>4</duration><voice>1</voice><type>half</type><stem>down</stem><lyric number="1"><syllabic>begin</syllabic><text>some</text></lyric></note><note default-y="-25.00" default-x="115.70"><pitch><step>A</step><octave>4</octave></pitch><duration>1</duration><voice>1</voice><type>eighth</type><stem>up</stem><lyric number="1"><syllabic>middle</syllabic><text>bod</text></lyric></note><note default-y="-35.00" default-x="153.63"><pitch><step>F</step><alter>1</alter><octave>4</octave></pitch><duration>2</duration><voice>1</voice><type>quarter</type><stem>up</stem><lyric number="1"><syllabic>end</syllabic><text>y</text></lyric></note><note default-y="-40.00" default-x="214.31"><pitch><step>E</step><octave>4</octave></pitch><duration>1</duration><tie type="start"/><voice>1</voice><type>eighth</type><stem>up</stem><notations><tied type="start"/></notations><lyric number="1"><syllabic>single</syllabic><text>cares.</text></lyric></note></measure><measure width="105.90" number="8"><harmony print-frame="no"><root><root-step>G</root-step></root><kind text="6">major-sixth</kind></harmony><note default-y="-40.00" default-x="15.00"><pitch><step>E</step><octave>4</octave></pitch><duration>8</duration><tie type="stop"/><tie type="start"/><voice>1</voice><type>whole</type><notations><tied type="stop"/><tied type="start"/></notations></note></measure><measure width="142.14" number="9"><note default-y="-40.00" default-x="15.00"><pitch><step>E</step><octave>4</octave></pitch><duration>6</duration><tie type="stop"/><voice>1</voice><type>half</type><dot/><stem>up</stem><notations><tied type="stop"/></notations></note><harmony print-frame="no"><root><root-step>D</root-step></root><kind text="7#5">augmented-seventh</kind></harmony><note default-y="-45.00" default-x="98.00"><pitch><step>D</step><octave>4</octave></pitch><duration>2</duration><voice>1</voice><type>quarter</type><stem>up</stem><lyric number="1"><syllabic>single</syllabic><text>You</text></lyric></note></measure><measure width="263.00" number="10"><harmony print-frame="no"><root><root-step>B</root-step></root><kind text="m7">minor-seventh</kind></harmony><note default-y="-25.00" default-x="27.87"><pitch><step>A</step><octave>4</octave></pitch><duration>1</duration><voice>1</voice><type>eighth</type><stem>up</stem><lyric number="1"><syllabic>single</syllabic><text>may</text></lyric></note><note default-y="-25.00" default-x="65.79"><pitch><step>A</step><octave>4</octave></pitch><duration>2</duration><voice>1</voice><type>quarter</type><stem>up</stem><lyric number="1"><syllabic>single</syllabic><text>be</text></lyric></note><note default-y="-25.00" default-x="122.17"><pitch><step>A</step><octave>4</octave></pitch><duration>1</duration><tie type="start"/><voice>1</voice><type>eighth</type><stem>up</stem><notations><tied type="start"/></notations><lyric number="1"><syllabic>single</syllabic><text>king,</text></lyric></note><note default-y="-25.00" default-x="157.41"><pitch><step>A</step><octave>4</octave></pitch><duration>3</duration><tie type="stop"/><voice>1</voice><type>quarter</type><dot/><stem>up</stem><notations><tied type="stop"/></notations></note><note default-y="-30.00" default-x="226.16"><pitch><step>G</step><octave>4</octave></pitch><duration>1</duration><voice>1</voice><type>eighth</type><stem>up</stem><lyric number="1"><syllabic>single</syllabic><text>you</text></lyric></note></measure><measure width="330.20" number="11"><print new-system="yes"><system-layout><system-margins><left-margin>47.28</left-margin><right-margin>-0.00</right-margin></system-margins><system-distance>153.73</system-distance></system-layout></print><harmony print-frame="no"><root><root-step>B</root-step><root-alter>-1</root-alter></root><kind text="dim">diminished</kind></harmony><note default-y="-25.00" default-x="89.59"><pitch><step>A</step><octave>4</octave></pitch><duration>1</duration><voice>1</voice><type>eighth</type><stem>up</stem><lyric number="1"><syllabic>single</syllabic><text>may</text></lyric></note><note default-y="-25.00" default-x="132.53"><pitch><step>A</step><octave>4</octave></pitch><duration>2</duration><voice>1</voice><type>quarter</type><stem>up</stem><lyric number="1"><syllabic>begin</syllabic><text>pos</text></lyric></note><note default-y="-25.00" default-x="189.05"><pitch><step>A</step><octave>4</octave></pitch><duration>1</duration><tie type="start"/><voice>1</voice><type>eighth</type><stem>up</stem><notations><tied type="start"/></notations><lyric number="1"><syllabic>end</syllabic><text>sess</text></lyric></note><note default-y="-25.00" default-x="224.37"><pitch><step>A</step><octave>4</octave></pitch><duration>3</duration><tie type="stop"/><voice>1</voice><type>quarter</type><dot/><stem>up</stem><notations><tied type="stop"/></notations></note><note default-y="-30.00" default-x="293.28"><pitch><step>G</step><octave>4</octave></pitch><duration>1</duration><voice>1</voice><type>eighth</type><stem>up</stem><lyric number="1"><syllabic>single</syllabic><text>the</text></lyric></note></measure><measure width="265.85" number="12"><harmony print-frame="no"><root><root-step>A</root-step></root><kind text="m7">minor-seventh</kind></harmony><note default-y="-30.00" default-x="34.76"><pitch><step>G</step><octave>4</octave></pitch><duration>4</duration><voice>1</voice><type>half</type><stem>up</stem><lyric number="1"><syllabic>single</syllabic><text>world</text></lyric></note><note default-y="-40.00" default-x="121.63"><pitch><step>E</step><octave>4</octave></pitch><duration>1</duration><voice>1</voice><type>eighth</type><stem>up</stem><lyric number="1"><syllabic>single</syllabic><text>and</text></lyric></note><note default-y="-30.00" default-x="161.59"><pitch><step>G</step><octave>4</octave></pitch><duration>2</duration><voice>1</voice><type>quarter</type><stem>up</stem><lyric number="1"><syllabic>single</syllabic><text>it's</text></lyric></note><note default-y="-40.00" default-x="224.77"><pitch><step>E</step><octave>4</octave></pitch><duration>1</duration><tie type="start"/><voice>1</voice><type>eighth</type><stem>up</stem><notations><tied type="start"/></notations><lyric number="1"><syllabic>single</syllabic><text>gold,</text></lyric></note></measure><measure width="141.00" number="13"><note default-y="-40.00" default-x="15.00"><pitch><step>E</step><octave>4</octave></pitch><duration>6</duration><tie type="stop"/><voice>1</voice><type>half</type><dot/><stem>up</stem><notations><tied type="stop"/></notations></note><note default-y="-40.00" default-x="97.24"><pitch><step>E</step><octave>4</octave></pitch><duration>2</duration><voice>1</voice><type>quarter</type><stem>up</stem><lyric number="1"><syllabic>single</syllabic><text>but</text></lyric></note></measure><measure width="292.77" number="14"><note default-y="-20.00" default-x="28.51"><pitch><step>B</step><octave>4</octave></pitch><duration>1</duration><voice>1</voice><type>eighth</type><stem>down</stem><lyric number="1"><syllabic>single</syllabic><text>gold</text></lyric></note><note default-y="-20.00" default-x="77.02"><pitch><step>B</step><octave>4</octave></pitch><duration>2</duration><voice>1</voice><type>quarter</type><stem>down</stem><lyric number="1"><syllabic>single</syllabic><text>wont</text></lyric></note><note default-y="-20.00" default-x="138.75"><pitch><step>B</step><octave>4</octave></pitch><duration>1</duration><tie type="start"/><voice>1</voice><type>eighth</type><stem>down</stem><notations><tied type="start"/></notations><lyric number="1"><syllabic>single</syllabic><text>bring</text></lyric></note><note default-y="-20.00" default-x="177.33"><pitch><step>B</step><octave>4</octave></pitch><duration>3</duration><tie type="stop"/><voice>1</voice><type>quarter</type><dot/><stem>down</stem><notations><tied type="stop"/></notations></note><note default-y="-40.00" default-x="252.59"><pitch><step>E</step><octave>4</octave></pitch><duration>1</duration><voice>1</voice><type>eighth</type><stem>up</stem><lyric number="1"><syllabic>single</syllabic><text>you</text></lyric></note></measure><measure width="332.50" number="15"><print new-system="yes"><system-layout><system-margins><left-margin>47.28</left-margin><right-margin>-0.00</right-margin></system-margins><system-distance>153.73</system-distance></system-layout></print><harmony print-frame="no"><root><root-step>A</root-step></root><kind text="13">dominant-13th</kind></harmony><note default-y="-20.00" default-x="86.46"><pitch><step>B</step><octave>4</octave></pitch><duration>1</duration><voice>1</voice><type>eighth</type><stem>down</stem><lyric number="1"><syllabic>begin</syllabic><text>hap</text></lyric></note><harmony print-frame="no"><root><root-step>A</root-step></root><kind text="9#5">dominant-ninth</kind><degree><degree-value>5</degree-value><degree-alter>1</degree-alter><degree-type>alter</degree-type></degree></harmony><note default-y="-20.00" default-x="123.77"><pitch><step>B</step><octave>4</octave></pitch><duration>2</duration><voice>1</voice><type>quarter</type><stem>down</stem><lyric number="1"><syllabic>middle</syllabic><text>pi</text></lyric></note><harmony print-frame="no"><root><root-step>A</root-step></root><kind text="9">dominant-ninth</kind></harmony><note default-y="-20.00" default-x="183.48"><pitch><step>B</step><octave>4</octave></pitch><duration>1</duration><tie type="start"/><voice>1</voice><type>eighth</type><stem>down</stem><notations><tied type="start"/></notations><lyric number="1"><syllabic>end</syllabic><text>ness</text></lyric></note><note default-y="-20.00" default-x="220.79"><pitch><step>B</step><octave>4</octave></pitch><duration>3</duration><tie type="stop"/><voice>1</voice><type>quarter</type><dot/><stem>down</stem><notations><tied type="stop"/></notations></note><note default-y="-40.00" default-x="293.59"><pitch><step>E</step><octave>4</octave></pitch><duration>1</duration><voice>1</voice><type>eighth</type><stem>up</stem><lyric number="1"><syllabic>single</syllabic><text>when</text></lyric></note></measure><measure width="281.47" number="16"><harmony print-frame="no"><root><root-step>A</root-step></root><kind text="m7">minor-seventh</kind></harmony><note default-y="-30.00" default-x="36.16"><pitch><step>G</step><octave>4</octave></pitch><duration>4</duration><voice>1</voice><type>half</type><stem>up</stem><lyric number="1"><syllabic>single</syllabic><text>you're</text></lyric></note><harmony print-frame="no"><root><root-step>D</root-step></root><kind text="7">dominant</kind></harmony><note default-y="-35.00" default-x="127.93"><pitch><step>F</step><alter>1</alter><octave>4</octave></pitch><duration>1</duration><voice>1</voice><type>eighth</type><stem>up</stem><lyric number="1"><syllabic>begin</syllabic><text>grow</text></lyric></note><note default-y="-25.00" default-x="171.42"><pitch><step>A</step><octave>4</octave></pitch><duration>2</duration><voice>1</voice><type>quarter</type><stem>up</stem><lyric number="1"><syllabic>end</syllabic><text>ing</text></lyric></note><note default-y="-40.00" default-x="238.16"><pitch><step>E</step><octave>4</octave></pitch><duration>1</duration><tie type="start"/><voice>1</voice><type>eighth</type><stem>up</stem><notations><tied type="start"/></notations><lyric number="1"><syllabic>single</syllabic><text>old.</text></lyric></note></measure><measure width="169.76" number="17"><harmony print-frame="no"><root><root-step>A</root-step></root><kind text="m7">minor-seventh</kind></harmony><note default-y="-40.00" default-x="15.00"><pitch><step>E</step><octave>4</octave></pitch><duration>6</duration><tie type="stop"/><voice>1</voice><type>half</type><dot/><stem>up</stem><notations><tied type="stop"/></notations></note><harmony print-frame="no"><root><root-step>D</root-step></root><kind text="7">dominant</kind></harmony><harmony print-frame="no"><root><root-step>D</root-step></root><kind text="7#5">augmented-seventh</kind></harmony><note default-y="-45.00" default-x="116.26"><pitch><step>D</step><octave>4</octave></pitch><duration>2</duration><voice>1</voice><type>quarter</type><stem>up</stem><lyric number="1"><syllabic>single</syllabic><text>The</text></lyric></note></measure><measure width="246.09" number="18"><harmony print-frame="no"><root><root-step>G</root-step></root><kind text="">major</kind></harmony><note default-y="-20.00" default-x="34.76"><pitch><step>B</step><octave>4</octave></pitch><duration>4</duration><voice>1</voice><type>half</type><stem>down</stem><lyric number="1"><syllabic>single</syllabic><text>world</text></lyric></note><note default-y="-45.00" default-x="114.31"><pitch><step>D</step><octave>4</octave></pitch><duration>1</duration><voice>1</voice><type>eighth</type><stem>up</stem><beam number="1">begin</beam><lyric number="1"><syllabic>single</syllabic><text>still</text></lyric></note><note default-y="-30.00" default-x="150.47"><pitch><step>G</step><octave>4</octave></pitch><duration>1</duration><voice>1</voice><type>eighth</type><stem>up</stem><beam number="1">end</beam><lyric number="1"><syllabic>single</syllabic><text>is</text></lyric></note><note default-y="-20.00" default-x="186.63"><pitch><step>B</step><octave>4</octave></pitch><duration>2</duration><voice>1</voice><type>quarter</type><stem>down</stem><lyric number="1"><syllabic>single</syllabic><text>the</text></lyric></note></measure><measure width="335.02" number="19"><print new-system="yes"><system-layout><system-margins><left-margin>47.28</left-margin><right-margin>0.00</right-margin></system-margins><system-distance>153.73</system-distance></system-layout></print><harmony print-frame="no"><root><root-step>B</root-step></root><kind text="7">dominant</kind></harmony><note default-y="-25.00" default-x="96.16"><pitch><step>A</step><octave>4</octave></pitch><duration>4</duration><voice>1</voice><type>half</type><stem>up</stem><lyric number="1"><syllabic>single</syllabic><text>same,</text></lyric></note><note default-y="-45.00" default-x="183.17"><pitch><step>D</step><alter>1</alter><octave>4</octave></pitch><duration>1</duration><voice>1</voice><type>eighth</type><accidental>sharp</accidental><stem>up</stem><beam number="1">begin</beam><lyric number="1"><syllabic>single</syllabic><text>you'll</text></lyric></note><note default-y="-35.00" default-x="230.58"><pitch><step>F</step><alter>1</alter><octave>4</octave></pitch><duration>1</duration><voice>1</voice><type>eighth</type><stem>up</stem><beam number="1">end</beam><lyric number="1"><syllabic>begin</syllabic><text>nev</text></lyric></note><note default-y="-25.00" default-x="270.13"><pitch><step>A</step><octave>4</octave></pitch><duration>2</duration><voice>1</voice><type>quarter</type><stem>up</stem><lyric number="1"><syllabic>end</syllabic><text>er</text></lyric></note></measure><measure width="191.42" number="20"><harmony print-frame="no"><root><root-step>E</root-step></root><kind text="7b9">dominant</kind><degree><degree-value>9</degree-value><degree-alter>-1</degree-alter><degree-type>add</degree-type></degree></harmony><note default-y="-30.00" default-x="40.39"><pitch><step>G</step><alter>1</alter><octave>4</octave></pitch><duration>4</duration><voice>1</voice><type>half</type><accidental>sharp</accidental><stem>up</stem><lyric number="1"><syllabic>single</syllabic><text>change</text></lyric></note><harmony print-frame="no"><root><root-step>E</root-step></root><kind text="7">dominant</kind></harmony><note default-y="-20.00" default-x="115.10"><pitch><step>B</step><octave>4</octave></pitch><duration>4</duration><tie type="start"/><voice>1</voice><type>half</type><stem>down</stem><notations><tied type="start"/></notations><lyric number="1"><syllabic>single</syllabic><text>it,</text></lyric></note></measure><measure width="248.82" number="21"><harmony relative-x="200.00" print-frame="no"><root><root-step>B</root-step></root><kind text="7">dominant</kind><bass><bass-step>F</bass-step><bass-alter>1</bass-alter></bass></harmony><note default-y="-20.00" default-x="15.00"><pitch><step>B</step><octave>4</octave></pitch><duration>6</duration><tie type="stop"/><voice>1</voice><type>half</type><dot/><stem>down</stem><notations><tied type="stop"/></notations></note><harmony print-frame="no"><root><root-step>E</root-step></root><kind text="7">dominant</kind><bass><bass-step>G</bass-step><bass-alter>1</bass-alter></bass></harmony><note default-y="-40.00" default-x="168.53"><pitch><step>E</step><octave>4</octave></pitch><duration>2</duration><voice>1</voice><type>quarter</type><stem>up</stem><lyric number="1"><syllabic>single</syllabic><text>as</text></lyric></note></measure><measure width="254.57" number="22"><harmony print-frame="no"><root><root-step>A</root-step></root><kind text="m">minor</kind></harmony><note default-y="-15.00" default-x="27.24"><pitch><step>C</step><octave>5</octave></pitch><duration>4</duration><voice>1</voice><type>half</type><stem>down</stem><lyric number="1"><syllabic>single</syllabic><text>sure</text></lyric></note><note default-y="-40.00" default-x="111.89"><pitch><step>E</step><octave>4</octave></pitch><duration>1</duration><voice>1</voice><type>eighth</type><stem>up</stem><lyric number="1"><syllabic>single</syllabic><text>as</text></lyric></note><note default-y="-15.00" default-x="152.94"><pitch><step>C</step><octave>5</octave></pitch><duration>2</duration><voice>1</voice><type>quarter</type><stem>down</stem><lyric number="1"><syllabic>single</syllabic><text>the</text></lyric></note><note default-y="-20.00" default-x="214.50"><pitch><step>B</step><octave>4</octave></pitch><duration>1</duration><tie type="start"/><voice>1</voice><type>eighth</type><stem>down</stem><notations><tied type="start"/></notations><lyric number="1"><syllabic>single</syllabic><text>stars</text></lyric></note></measure><measure width="253.96" number="23"><print new-system="yes"><system-layout><system-margins><left-margin>47.28</left-margin><right-margin>0.00</right-margin></system-margins><system-distance>153.73</system-distance></system-layout></print><harmony print-frame="no"><root><root-step>E</root-step></root><kind text="7">dominant</kind></harmony><note default-y="-20.00" default-x="69.22"><pitch><step>B</step><octave>4</octave></pitch><duration>4</duration><tie type="stop"/><voice>1</voice><type>half</type><stem>down</stem><notations><tied type="stop"/></notations></note><note default-y="-30.00" default-x="135.89"><pitch><step>G</step><alter>1</alter><octave>4</octave></pitch><duration>1</duration><voice>1</voice><type>eighth</type><accidental>sharp</accidental><stem>up</stem><lyric number="1"><syllabic>single</syllabic><text>up</text></lyric></note><note default-y="-40.00" default-x="168.18"><pitch><step>E</step><octave>4</octave></pitch><duration>2</duration><voice>1</voice><type>quarter</type><stem>up</stem><lyric number="1"><syllabic>begin</syllabic><text>a</text></lyric></note><note default-y="-5.00" default-x="216.66"><pitch><step>E</step><octave>5</octave></pitch><duration>1</duration><tie type="start"/><voice>1</voice><type>eighth</type><stem>down</stem><notations><tied type="start"/></notations><lyric number="1"><syllabic>end</syllabic><text>bove.</text></lyric></note></measure><measure width="112.29" number="24"><harmony print-frame="no"><root><root-step>A</root-step></root><kind text="m">minor</kind></harmony><harmony relative-x="1900.00" print-frame="no"><root><root-step>E</root-step></root><kind text="7">dominant</kind><bass><bass-step>B</bass-step></bass></harmony><note default-y="-5.00" default-x="15.00"><pitch><step>E</step><octave>5</octave></pitch><duration>8</duration><tie type="stop"/><tie type="start"/><voice>1</voice><type>whole</type><notations><tied type="stop"/><tied type="start"/></notations></note></measure><measure width="159.77" number="25"><harmony print-frame="no"><root><root-step>A</root-step></root><kind text="m">minor</kind><bass><bass-step>C</bass-step></bass></harmony><note default-y="-5.00" default-x="15.00"><pitch><step>E</step><octave>5</octave></pitch><duration>4</duration><tie type="stop"/><voice>1</voice><type>half</type><stem>down</stem><notations><tied type="stop"/></notations></note><note><rest/><duration>1</duration><voice>1</voice><type>eighth</type></note><note default-y="-40.00" default-x="111.67"><pitch><step>E</step><octave>4</octave></pitch><duration>3</duration><voice>1</voice><type>quarter</type><dot/><stem>up</stem><lyric number="1"><syllabic>single</syllabic><text>You're</text></lyric></note></measure><measure width="184.95" number="26"><harmony print-frame="no"><root><root-step>C</root-step></root><kind text="">major</kind></harmony><note default-y="-40.00" default-x="19.74"><pitch><step>E</step><octave>4</octave></pitch><duration>4</duration><voice>1</voice><type>half</type><stem>up</stem><lyric number="1"><syllabic>begin</syllabic><text>no</text></lyric></note><note default-y="-45.00" default-x="79.03"><pitch><step>D</step><alter>1</alter><octave>4</octave></pitch><duration>1</duration><voice>1</voice><type>eighth</type><accidental>sharp</accidental><stem>up</stem><beam number="1">begin</beam><lyric number="1"><syllabic>middle</syllabic><text>bod</text></lyric></note><note default-y="-40.00" default-x="107.50"><pitch><step>E</step><octave>4</octave></pitch><duration>1</duration><voice>1</voice><type>eighth</type><stem>up</stem><beam number="1">end</beam><lyric number="1"><syllabic>end</syllabic><text>y</text></lyric></note><note default-y="-35.00" default-x="140.23"><pitch><step>F</step><alter>1</alter><octave>4</octave></pitch><duration>2</duration><voice>1</voice><type>quarter</type><stem>up</stem><lyric number="1"><syllabic>single</syllabic><text>'till</text></lyric></note></measure><measure width="231.23" number="27"><harmony print-frame="no"><root><root-step>C</root-step><root-alter>1</root-alter></root><kind text="dim">diminished</kind></harmony><note default-y="-25.00" default-x="32.26"><pitch><step>A</step><octave>4</octave></pitch><duration>4</duration><voice>1</voice><type>half</type><stem>up</stem><lyric number="1"><syllabic>begin</syllabic><text>some</text></lyric></note><note default-y="-35.00" default-x="106.79"><pitch><step>F</step><alter>1</alter><octave>4</octave></pitch><duration>1</duration><voice>1</voice><type>eighth</type><stem>up</stem><lyric number="1"><syllabic>middle</syllabic><text>bod</text></lyric></note><note default-y="-30.00" default-x="140.67"><pitch><step>G</step><octave>4</octave></pitch><duration>2</duration><voice>1</voice><type>quarter</type><stem>up</stem><lyric number="1"><syllabic>end</syllabic><text>y</text></lyric></note><note default-y="-10.00" default-x="194.87"><pitch><step>D</step><octave>5</octave></pitch><duration>1</duration><tie type="start"/><voice>1</voice><type>eighth</type><stem>down</stem><notations><tied type="start"/></notations><lyric number="1"><syllabic>single</syllabic><text>loves</text></lyric></note></measure><measure width="87.63" number="28"><harmony print-frame="no"><root><root-step>G</root-step></root><kind text="">major</kind></harmony><note default-y="-10.00" default-x="15.00"><pitch><step>D</step><octave>5</octave></pitch><duration>8</duration><tie type="stop"/><voice>1</voice><type>whole</type><notations><tied type="stop"/></notations></note></measure><measure width="181.07" number="29"><print new-system="yes"><system-layout><system-margins><left-margin>47.28</left-margin><right-margin>0.00</right-margin></system-margins><system-distance>153.73</system-distance></system-layout></print><harmony print-frame="no"><root><root-step>E</root-step></root><kind text="7">dominant</kind></harmony><note default-y="-20.00" default-x="89.91"><pitch><step>B</step><octave>4</octave></pitch><duration>6</duration><voice>1</voice><type>half</type><dot/><stem>down</stem><lyric number="1"><syllabic>single</syllabic><text>you,</text></lyric></note><note default-y="-40.00" default-x="149.12"><pitch><step>E</step><octave>4</octave></pitch><duration>2</duration><voice>1</voice><type>quarter</type><stem>up</stem><lyric number="1"><syllabic>single</syllabic><text>so</text></lyric></note></measure><measure width="227.27" number="30"><harmony print-frame="no"><root><root-step>A</root-step></root><kind text="m">minor</kind></harmony><note default-y="-15.00" default-x="26.62"><pitch><step>C</step><octave>5</octave></pitch><duration>2</duration><voice>1</voice><type>quarter</type><stem>down</stem><lyric number="1"><syllabic>single</syllabic><text>find</text></lyric></note><note default-y="-15.00" default-x="76.38"><pitch><step>C</step><octave>5</octave></pitch><duration>2</duration><voice>1</voice><type>quarter</type><stem>down</stem><lyric number="1"><syllabic>begin</syllabic><text>your</text></lyric></note><harmony print-frame="no"><root><root-step>E</root-step></root><kind text="7">dominant</kind><bass><bass-step>B</bass-step></bass></harmony><note default-y="-20.00" default-x="126.15"><pitch><step>B</step><octave>4</octave></pitch><duration>2</duration><voice>1</voice><type>quarter</type><stem>down</stem><lyric number="1"><syllabic>end</syllabic><text>self</text></lyric></note><harmony print-frame="no"><root><root-step>A</root-step></root><kind text="m">minor</kind><bass><bass-step>C</bass-step></bass></harmony><note default-y="-25.00" default-x="175.91"><pitch><step>A</step><octave>4</octave></pitch><duration>2</duration><voice>1</voice><type>quarter</type><stem>up</stem><lyric number="1"><syllabic>begin</syllabic><text>some</text></lyric></note></measure><measure width="136.97" number="31"><harmony print-frame="no"><root><root-step>A</root-step></root><kind text="7">dominant</kind></harmony><note default-y="-40.00" default-x="25.37"><pitch><step>E</step><octave>4</octave></pitch><duration>2</duration><voice>1</voice><type>quarter</type><stem>up</stem><lyric number="1"><syllabic>middle</syllabic><text>bod</text></lyric></note><note default-y="-35.00" default-x="55.93"><pitch><step>F</step><alter>1</alter><octave>4</octave></pitch><duration>4</duration><voice>1</voice><type>half</type><stem>up</stem><lyric number="1"><syllabic>end</syllabic><text>y</text></lyric></note><harmony print-frame="no"><root><root-step>D</root-step></root><kind text="7">dominant</kind></harmony><note default-y="-20.00" default-x="104.82"><pitch><step>B</step><octave>4</octave></pitch><duration>2</duration><voice>1</voice><type>quarter</type><stem>down</stem><lyric number="1"><syllabic>single</syllabic><text>to</text></lyric></note></measure><measure width="114.57" number="32"><barline location="left"><ending type="start" number="1"/></barline><harmony print-frame="no"><root><root-step>G</root-step></root><kind text="">major</kind></harmony><harmony relative-x="1700.00" print-frame="no"><root><root-step>F</root-step></root><kind text="9">dominant-ninth</kind></harmony><note default-y="-30.00" default-x="30.69"><pitch><step>G</step><octave>4</octave></pitch><duration>8</duration><tie type="start"/><voice>1</voice><type>whole</type><notations><tied type="start"/></notations><lyric number="1"><syllabic>single</syllabic><text>love.</text></lyric></note><barline location="right"><ending type="stop" number="1"/></barline></measure><measure width="163.38" number="33"><harmony print-frame="no"><root><root-step>E</root-step><root-alter>-1</root-alter></root><kind text="7">dominant</kind></harmony><note default-y="-30.00" default-x="15.00"><pitch><step>G</step><octave>4</octave></pitch><duration>4</duration><tie type="stop"/><voice>1</voice><type>half</type><stem>up</stem><notations><tied type="stop"/></notations></note><harmony print-frame="no"><root><root-step>D</root-step></root><kind text="9">dominant-ninth</kind></harmony><note><rest/><duration>2</duration><voice>1</voice><type>quarter</type></note><note default-y="-45.00" default-x="108.31"><pitch><step>D</step><octave>4</octave></pitch><duration>2</duration><voice>1</voice><type>quarter</type><stem>up</stem><lyric number="1"><syllabic>single</syllabic><text>You're</text></lyric></note><barline location="right"><bar-style>light-heavy</bar-style><repeat direction="backward"/></barline></measure><measure width="114.57" number="34"><barline location="left"><ending type="start" number="2"/></barline><harmony print-frame="no"><root><root-step>G</root-step></root><kind text="">major</kind></harmony><harmony relative-x="900.00" print-frame="no"><root><root-step>C</root-step></root><kind text="m7">minor-seventh</kind></harmony><note default-y="-30.00" default-x="30.69"><pitch><step>G</step><octave>4</octave></pitch><duration>8</duration><tie type="start"/><voice>1</voice><type>whole</type><notations><tied type="start"/></notations><lyric number="1"><syllabic>single</syllabic><text>love.</text></lyric></note><barline location="right"><ending type="stop" number="2"/></barline></measure><measure width="92.00" number="35"><harmony print-frame="no"><root><root-step>G</root-step></root><kind text="6">major-sixth</kind></harmony><note default-y="-30.00" default-x="15.00"><pitch><step>G</step><octave>4</octave></pitch><duration>6</duration><tie type="stop"/><voice>1</voice><type>half</type><dot/><stem>up</stem><notations><tied type="stop"/></notations></note><note><rest/><duration>2</duration><voice>1</voice><type>quarter</type></note><barline location="right"><bar-style>light-heavy</bar-style></barline></measure></part></score-partwise>