<score-partwise version="2.0"><work><work-number/><work-title/></work><movement-number/><movement-title>April In Paris</movement-title><identification><creator type="composer">Vernon Duke</creator><creator type="poet">E. Y. Harburg</creator><rights>All Rights Reserved</rights><encoding><software>MuseScore 0.9.5</software><encoding-date>2010-01-11</encoding-date><software>ProxyMusic 2.0 c</software></encoding><source>http://wikifonia.org/node/4150/revisions/5504/view</source></identification><defaults><scaling><millimeters>7.056</millimeters><tenths>40</tenths></scaling><page-layout><page-height>1683.67</page-height><page-width>1190.48</page-width><page-margins type="both"><left-margin>56.6893</left-margin><right-margin>56.6893</right-margin><top-margin>56.6893</top-margin><bottom-margin>113.379</bottom-margin></page-margins></page-layout></defaults><credit page="1"><credit-words font-size="24" default-y="1626.98" default-x="595.238" justify="center" valign="top">April In Paris</credit-words></credit><part-list><score-part id="P1"><part-name>Voice</part-name><score-instrument id="P1-I3"><instrument-name>Voice</instrument-name></score-instrument><midi-instrument id="P1-I3"><midi-channel>1</midi-channel><midi-program>53</midi-program></midi-instrument></score-part></part-list><part id="P1"><measure width="366.13" number="1"><print><system-layout><system-margins><left-margin>69.92</left-margin><right-margin>0.00</right-margin></system-margins><top-system-distance>228.53</top-system-distance></system-layout></print><barline location="left"><bar-style>heavy-light</bar-style><repeat direction="forward"/></barline><attributes><divisions>480</divisions><key><fifths>0</fifths><mode>major</mode></key><time><beats>4</beats><beat-type>4</beat-type></time><clef><sign>G</sign><line>2</line></clef></attributes><harmony print-frame="no"><root><root-step>E</root-step></root><kind text="m6">minor-sixth</kind><bass><bass-step>C</bass-step></bass></harmony><note default-y="-35.00" default-x="108.52"><pitch><step>F</step><octave>4</octave></pitch><duration>320</duration><voice>1</voice><type>quarter</type><time-modification><actual-notes>3</actual-notes><normal-notes>2</normal-notes></time-modification><stem>up</stem><notations><tuplet type="start" bracket="yes"/></notations><lyric number="1"><syllabic>begin</syllabic><text>A</text></lyric></note><note default-y="-35.00" default-x="153.41"><pitch><step>F</step><octave>4</octave></pitch><duration>320</duration><voice>1</voice><type>quarter</type><time-modification><actual-notes>3</actual-notes><normal-notes>2</normal-notes></time-modification><stem>up</stem><lyric number="1"><syllabic>end</syllabic><text>pril</text></lyric></note><note default-y="-35.00" default-x="198.31"><pitch><step>F</step><octave>4</octave></pitch><duration>320</duration><voice>1</voice><type>quarter</type><time-modification><actual-notes>3</actual-notes><normal-notes>2</normal-notes></time-modification><stem>up</stem><notations><tuplet type="stop"/></notations><lyric number="1"><syllabic>single</syllabic><text>in</text></lyric></note><harmony relative-x="100.00" print-frame="no"><root><root-step>B</root-step></root><kind text="">major</kind></harmony><note default-y="-45.00" default-x="243.21"><pitch><step>D</step><alter>1</alter><octave>4</octave></pitch><duration>480</duration><voice>1</voice><type>quarter</type><accidental>sharp</accidental><stem>up</stem><lyric number="1"><syllabic>begin</syllabic><text>Par</text></lyric></note><harmony print-frame="no"><root><root-step>C</root-step></root><kind text="">major</kind></harmony><note default-y="-40.00" default-x="303.87"><pitch><step>E</step><octave>4</octave></pitch><duration>480</duration><tie type="start"/><voice>1</voice><type>quarter</type><stem>up</stem><notations><tied type="start"/></notations><lyric number="1"><syllabic>end</syllabic><text>is,</text></lyric></note></measure><measure width="150.70" number="2"><note default-y="-40.00" default-x="15.00"><pitch><step>E</step><octave>4</octave></pitch><duration>1920</duration><tie type="stop"/><voice>1</voice><type>whole</type><notations><tied type="stop"/></notations></note></measure><measure width="339.65" number="3"><harmony print-frame="no"><root><root-step>D</root-step></root><kind text="m7b5">half-diminished</kind></harmony><note default-y="-35.00" default-x="34.14"><pitch><step>F</step><octave>4</octave></pitch><duration>320</duration><voice>1</voice><type>quarter</type><time-modification><actual-notes>3</actual-notes><normal-notes>2</normal-notes></time-modification><stem>up</stem><notations><tuplet type="start" bracket="yes"/></notations><lyric number="1"><syllabic>begin</syllabic><text>Chest</text></lyric></note><note default-y="-35.00" default-x="87.44"><pitch><step>F</step><octave>4</octave></pitch><duration>320</duration><voice>1</voice><type>quarter</type><time-modification><actual-notes>3</actual-notes><normal-notes>2</normal-notes></time-modification><stem>up</stem><lyric number="1"><syllabic>end</syllabic><text>nuts</text></lyric></note><note default-y="-35.00" default-x="140.74"><pitch><step>F</step><octave>4</octave></pitch><duration>320</duration><voice>1</voice><type>quarter</type><time-modification><actual-notes>3</actual-notes><normal-notes>2</normal-notes></time-modification><stem>up</stem><notations><tuplet type="stop"/></notations><lyric number="1"><syllabic>single</syllabic><text>in</text></lyric></note><harmony print-frame="no"><root><root-step>E</root-step><root-alter>-1</root-alter></root><kind text="m">minor</kind></harmony><note default-y="-45.00" default-x="194.04"><pitch><step>D</step><alter>1</alter><octave>4</octave></pitch><duration>480</duration><voice>1</voice><type>quarter</type><accidental>sharp</accidental><stem>up</stem><lyric number="1"><syllabic>begin</syllabic><text>blos</text></lyric></note><harmony print-frame="no"><root><root-step>G</root-step></root><kind text="13">dominant-13th</kind></harmony><note default-y="-40.00" default-x="266.05"><pitch><step>E</step><octave>4</octave></pitch><duration>480</duration><tie type="start"/><voice>1</voice><type>quarter</type><stem>up</stem><notations><tied type="start"/></notations><lyric number="1"><syllabic>end</syllabic><text>som,</text></lyric></note></measure><measure width="150.70" number="4"><note default-y="-40.00" default-x="15.00"><pitch><step>E</step><octave>4</octave></pitch><duration>1920</duration><tie type="stop"/><voice>1</voice><type>whole</type><notations><tied type="stop"/></notations></note></measure><measure width="277.32" number="5"><print new-system="yes"><system-layout><system-margins><left-margin>47.28</left-margin><right-margin>0.00</right-margin></system-margins><system-distance>153.73</system-distance></system-layout></print><harmony print-frame="no"><root><root-step>C</root-step></root><kind text="Maj7">major-seventh</kind></harmony><note default-y="-45.00" default-x="71.05"><pitch><step>D</step><octave>4</octave></pitch><duration>320</duration><voice>1</voice><type>quarter</type><time-modification><actual-notes>3</actual-notes><normal-notes>2</normal-notes></time-modification><stem>up</stem><notations><tuplet type="start" bracket="yes"/></notations><lyric number="1"><syllabic>begin</syllabic><text>Hol</text></lyric></note><note default-y="-45.00" default-x="106.93"><pitch><step>D</step><octave>4</octave></pitch><duration>320</duration><voice>1</voice><type>quarter</type><time-modification><actual-notes>3</actual-notes><normal-notes>2</normal-notes></time-modification><stem>up</stem><lyric number="1"><syllabic>begin</syllabic><text>i</text></lyric></note><note default-y="-45.00" default-x="142.80"><pitch><step>D</step><octave>4</octave></pitch><duration>320</duration><voice>1</voice><type>quarter</type><time-modification><actual-notes>3</actual-notes><normal-notes>2</normal-notes></time-modification><stem>up</stem><notations><tuplet type="stop"/></notations><lyric number="1"><syllabic>end</syllabic><text>day</text></lyric></note><harmony print-frame="no"><root><root-step>B</root-step></root><kind text="">major</kind></harmony><note default-y="-55.00" default-x="178.78"><pitch><step>B</step><octave>3</octave></pitch><duration>480</duration><voice>1</voice><type>quarter</type><stem>up</stem><lyric number="1"><syllabic>begin</syllabic><text>tab</text></lyric></note><harmony print-frame="no"><root><root-step>C</root-step></root><kind text="">major</kind></harmony><note default-y="-50.00" default-x="227.25"><pitch><step>C</step><octave>4</octave></pitch><duration>480</duration><voice>1</voice><type>quarter</type><stem>up</stem><lyric number="1"><syllabic>end</syllabic><text>les</text></lyric></note></measure><measure width="219.43" number="6"><harmony print-frame="no"><root><root-step>C</root-step></root><kind text="Maj7">major-seventh</kind></harmony><note default-y="-40.00" default-x="19.74"><pitch><step>E</step><octave>4</octave></pitch><duration>480</duration><voice>1</voice><type>quarter</type><stem>up</stem><lyric number="1"><syllabic>begin</syllabic><text>un</text></lyric></note><note default-y="-30.00" default-x="69.26"><pitch><step>G</step><octave>4</octave></pitch><duration>480</duration><voice>1</voice><type>quarter</type><stem>up</stem><lyric number="1"><syllabic>end</syllabic><text>der</text></lyric></note><note default-y="-20.00" default-x="118.78"><pitch><step>B</step><octave>4</octave></pitch><duration>480</duration><voice>1</voice><type>quarter</type><stem>down</stem><lyric number="1"><syllabic>single</syllabic><text>the</text></lyric></note><harmony print-frame="no"><root><root-step>G</root-step></root><kind text="m7">minor-seventh</kind></harmony><note default-y="-10.00" default-x="168.30"><pitch><step>D</step><octave>5</octave></pitch><duration>480</duration><tie type="start"/><voice>1</voice><type>quarter</type><stem>down</stem><notations><tied type="start"/></notations><lyric number="1"><syllabic>single</syllabic><text>trees.</text></lyric></note></measure><measure width="99.11" number="7"><note default-y="-10.00" default-x="15.00"><pitch><step>D</step><octave>5</octave></pitch><duration>1920</duration><tie type="stop"/><voice>1</voice><type>whole</type><notations><tied type="stop"/></notations></note></measure><measure width="112.23" number="8"><harmony print-frame="no"><root><root-step>C</root-step></root><kind text="9">dominant-ninth</kind></harmony><note default-y="-10.00" default-x="15.00"><pitch><step>D</step><octave>5</octave></pitch><duration>960</duration><voice>1</voice><type>half</type><stem>down</stem></note><note><rest/><duration>960</duration><voice>1</voice><type>half</type></note></measure><measure width="222.62" number="9"><harmony print-frame="no"><root><root-step>F</root-step></root><kind text="6">major-sixth</kind></harmony><note default-y="-10.00" default-x="16.60"><pitch><step>D</step><octave>5</octave></pitch><duration>320</duration><voice>1</voice><type>quarter</type><time-modification><actual-notes>3</actual-notes><normal-notes>2</normal-notes></time-modification><stem>up</stem><notations><tuplet type="start" bracket="yes"/></notations><lyric number="1"><syllabic>begin</syllabic><text>A</text></lyric></note><note default-y="-10.00" default-x="52.45"><pitch><step>D</step><octave>5</octave></pitch><duration>320</duration><voice>1</voice><type>quarter</type><time-modification><actual-notes>3</actual-notes><normal-notes>2</normal-notes></time-modification><stem>up</stem><lyric number="1"><syllabic>end</syllabic><text>pril</text></lyric></note><note default-y="-10.00" default-x="88.30"><pitch><step>D</step><octave>5</octave></pitch><duration>320</duration><voice>1</voice><type>quarter</type><time-modification><actual-notes>3</actual-notes><normal-notes>2</normal-notes></time-modification><stem>up</stem><notations><tuplet type="stop"/></notations><lyric number="1"><syllabic>single</syllabic><text>in</text></lyric></note><harmony print-frame="no"><root><root-step>F</root-step></root><kind text="dim">diminished</kind></harmony><note default-y="-20.00" default-x="124.15"><pitch><step>B</step><octave>4</octave></pitch><duration>480</duration><voice>1</voice><type>quarter</type><stem>down</stem><lyric number="1"><syllabic>begin</syllabic><text>Par</text></lyric></note><harmony print-frame="no"><root><root-step>F</root-step></root><kind text="">major</kind></harmony><note default-y="-15.00" default-x="172.58"><pitch><step>C</step><octave>5</octave></pitch><duration>480</duration><tie type="start"/><voice>1</voice><type>quarter</type><stem>down</stem><notations><tied type="start"/></notations><lyric number="1"><syllabic>end</syllabic><text>is,</text></lyric></note></measure><measure width="99.11" number="10"><note default-y="-15.00" default-x="15.00"><pitch><step>C</step><octave>5</octave></pitch><duration>1920</duration><tie type="stop"/><voice>1</voice><type>whole</type><notations><tied type="stop"/></notations></note></measure><measure width="295.43" number="11"><print new-system="yes"><system-layout><system-margins><left-margin>47.28</left-margin><right-margin>-0.00</right-margin></system-margins><system-distance>153.73</system-distance></system-layout></print><harmony print-frame="no"><root><root-step>E</root-step></root><kind text="m7">minor-seventh</kind></harmony><note default-y="-10.00" default-x="74.18"><pitch><step>D</step><octave>5</octave></pitch><duration>320</duration><voice>1</voice><type>quarter</type><time-modification><actual-notes>3</actual-notes><normal-notes>2</normal-notes></time-modification><stem>up</stem><notations><tuplet type="start" bracket="yes"/></notations><lyric number="1"><syllabic>single</syllabic><text>This</text></lyric></note><note default-y="-10.00" default-x="112.70"><pitch><step>D</step><octave>5</octave></pitch><duration>320</duration><voice>1</voice><type>quarter</type><time-modification><actual-notes>3</actual-notes><normal-notes>2</normal-notes></time-modification><stem>up</stem><lyric number="1"><syllabic>single</syllabic><text>is</text></lyric></note><note default-y="-10.00" default-x="151.22"><pitch><step>D</step><octave>5</octave></pitch><duration>320</duration><voice>1</voice><type>quarter</type><time-modification><actual-notes>3</actual-notes><normal-notes>2</normal-notes></time-modification><stem>up</stem><notations><tuplet type="stop"/></notations><lyric number="1"><syllabic>single</syllabic><text>a</text></lyric></note><harmony print-frame="no"><root><root-step>G</root-step><root-alter>1</root-alter></root><kind text="dim">diminished</kind></harmony><note default-y="-20.00" default-x="189.74"><pitch><step>B</step><octave>4</octave></pitch><duration>480</duration><voice>1</voice><type>quarter</type><stem>down</stem><lyric number="1"><syllabic>begin</syllabic><text>feel</text></lyric></note><harmony print-frame="no"><root><root-step>A</root-step></root><kind text="m">minor</kind></harmony><note default-y="-15.00" default-x="241.78"><pitch><step>C</step><octave>5</octave></pitch><duration>480</duration><tie type="start"/><voice>1</voice><type>quarter</type><stem>down</stem><notations><tied type="start"/></notations><lyric number="1"><syllabic>end</syllabic><text>ing</text></lyric></note></measure><measure width="111.87" number="12"><harmony print-frame="no"><root><root-step>A</root-step></root><kind text="m">minor</kind><bass><bass-step>G</bass-step></bass></harmony><note default-y="-15.00" default-x="15.00"><pitch><step>C</step><octave>5</octave></pitch><duration>1920</duration><tie type="stop"/><voice>1</voice><type>whole</type><notations><tied type="stop"/></notations></note></measure><measure width="241.30" number="13"><harmony print-frame="no"><root><root-step>F</root-step><root-alter>1</root-alter></root><kind text="m7b5">half-diminished</kind></harmony><note default-y="-15.00" default-x="19.74"><pitch><step>C</step><octave>5</octave></pitch><duration>320</duration><voice>1</voice><type>quarter</type><time-modification><actual-notes>3</actual-notes><normal-notes>2</normal-notes></time-modification><stem>up</stem><notations><tuplet type="start" bracket="yes"/></notations><lyric number="1"><syllabic>begin</syllabic><text>no</text></lyric></note><note default-y="-15.00" default-x="58.31"><pitch><step>C</step><octave>5</octave></pitch><duration>320</duration><voice>1</voice><type>quarter</type><time-modification><actual-notes>3</actual-notes><normal-notes>2</normal-notes></time-modification><stem>up</stem><lyric number="1"><syllabic>end</syllabic><text>one</text></lyric></note><note default-y="-15.00" default-x="96.89"><pitch><step>C</step><octave>5</octave></pitch><duration>320</duration><voice>1</voice><type>quarter</type><time-modification><actual-notes>3</actual-notes><normal-notes>2</normal-notes></time-modification><stem>up</stem><notations><tuplet type="stop"/></notations><lyric number="1"><syllabic>single</syllabic><text>can</text></lyric></note><note default-y="-25.00" default-x="135.47"><pitch><step>A</step><octave>4</octave></pitch><duration>480</duration><voice>1</voice><type>quarter</type><stem>up</stem><lyric number="1"><syllabic>begin</syllabic><text>ev</text></lyric></note><note default-y="-20.00" default-x="187.58"><pitch><step>B</step><octave>4</octave></pitch><duration>480</duration><tie type="start"/><voice>1</voice><type>quarter</type><stem>down</stem><notations><tied type="start"/></notations><lyric number="1"><syllabic>end</syllabic><text>er</text></lyric></note></measure><measure width="133.51" number="14"><harmony print-frame="no"><root><root-step>B</root-step></root><kind text="7#5">augmented-seventh</kind></harmony><note default-y="-20.00" default-x="15.00"><pitch><step>B</step><octave>4</octave></pitch><duration>960</duration><tie type="stop"/><voice>1</voice><type>half</type><stem>down</stem><notations><tied type="stop"/></notations></note><harmony relative-x="600.00" print-frame="no"><root><root-step>F</root-step></root><kind text="9">dominant-ninth</kind></harmony><note default-y="-15.00" default-x="73.46"><pitch><step>C</step><octave>5</octave></pitch><duration>960</duration><voice>1</voice><type>half</type><stem>down</stem><lyric number="1"><syllabic>begin</syllabic><text>re</text></lyric></note></measure><measure width="135.84" number="15"><harmony print-frame="no"><root><root-step>E</root-step></root><kind text="7#5">augmented-seventh</kind></harmony><harmony relative-x="2000.00" print-frame="no"><root><root-step>E</root-step></root><kind text="7">dominant</kind></harmony><note default-y="-5.00" default-x="33.19"><pitch><step>E</step><octave>5</octave></pitch><duration>1920</duration><tie type="start"/><voice>1</voice><type>whole</type><notations><tied type="start"/></notations><lyric number="1"><syllabic>end</syllabic><text>prise.</text></lyric></note></measure><measure width="111.87" number="16"><harmony print-frame="no"><root><root-step>G</root-step></root><kind text="m6">minor-sixth</kind></harmony><harmony relative-x="1700.00" print-frame="no"><root><root-step>A</root-step></root><kind text="7">dominant</kind></harmony><note default-y="-5.00" default-x="15.00"><pitch><step>E</step><octave>5</octave></pitch><duration>1920</duration><tie type="stop"/><voice>1</voice><type>whole</type><notations><tied type="stop"/></notations></note></measure><measure width="325.39" number="17"><print new-system="yes"><system-layout><system-margins><left-margin>47.28</left-margin><right-margin>-0.00</right-margin></system-margins><system-distance>153.73</system-distance></system-layout></print><harmony print-frame="no"><root><root-step>F</root-step></root><kind text="Maj7">major-seventh</kind></harmony><note default-y="-5.00" default-x="57.89"><pitch><step>E</step><octave>5</octave></pitch><duration>960</duration><voice>1</voice><type>half</type><stem>down</stem><lyric number="1"><syllabic>single</syllabic><text>I</text></lyric></note><harmony print-frame="no"><root><root-step>F</root-step></root><kind text="dim">diminished</kind></harmony><note default-y="-10.00" default-x="151.73"><pitch><step>D</step><octave>5</octave></pitch><duration>240</duration><voice>1</voice><type>eighth</type><stem>down</stem><beam number="1">begin</beam><lyric number="1"><syllabic>begin</syllabic><text>nev</text></lyric></note><note default-y="-25.00" default-x="194.38"><pitch><step>A</step><alter>1</alter><octave>4</octave></pitch><duration>240</duration><voice>1</voice><type>eighth</type><accidental>sharp</accidental><stem>down</stem><beam number="1">continue</beam><lyric number="1"><syllabic>end</syllabic><text>er</text></lyric></note><note default-y="-20.00" default-x="237.03"><pitch><step>B</step><octave>4</octave></pitch><duration>240</duration><voice>1</voice><type>eighth</type><stem>down</stem><beam number="1">continue</beam><lyric number="1"><syllabic>single</syllabic><text>knew</text></lyric></note><note default-y="-10.00" default-x="281.14"><pitch><step>D</step><octave>5</octave></pitch><duration>240</duration><voice>1</voice><type>eighth</type><stem>down</stem><beam number="1">end</beam><lyric number="1"><syllabic>single</syllabic><text>the</text></lyric></note></measure><measure width="252.03" number="18"><harmony print-frame="no"><root><root-step>C</root-step></root><kind text="">major</kind><bass><bass-step>E</bass-step></bass></harmony><note default-y="-15.00" default-x="36.62"><pitch><step>C</step><octave>5</octave></pitch><duration>480</duration><voice>1</voice><type>quarter</type><stem>down</stem><lyric number="1"><syllabic>single</syllabic><text>charm</text></lyric></note><note default-y="-15.00" default-x="96.02"><pitch><step>C</step><octave>5</octave></pitch><duration>480</duration><voice>1</voice><type>quarter</type><stem>down</stem><lyric number="1"><syllabic>single</syllabic><text>of</text></lyric></note><note default-y="-15.00" default-x="155.41"><pitch><step>C</step><octave>5</octave></pitch><duration>960</duration><voice>1</voice><type>half</type><stem>down</stem><lyric number="1"><syllabic>single</syllabic><text>spring</text></lyric></note></measure><measure width="303.38" number="19"><harmony print-frame="no"><root><root-step>F</root-step></root><kind text="dim">diminished</kind></harmony><note default-y="-10.00" default-x="24.74"><pitch><step>D</step><octave>5</octave></pitch><duration>240</duration><voice>1</voice><type>eighth</type><stem>down</stem><beam number="1">begin</beam><lyric number="1"><syllabic>begin</syllabic><text>nev</text></lyric></note><note default-y="-25.00" default-x="63.22"><pitch><step>A</step><alter>1</alter><octave>4</octave></pitch><duration>240</duration><voice>1</voice><type>eighth</type><accidental>sharp</accidental><stem>down</stem><beam number="1">continue</beam><lyric number="1"><syllabic>end</syllabic><text>er</text></lyric></note><note default-y="-20.00" default-x="101.70"><pitch><step>B</step><octave>4</octave></pitch><duration>240</duration><voice>1</voice><type>eighth</type><stem>down</stem><beam number="1">continue</beam><lyric number="1"><syllabic>single</syllabic><text>met</text></lyric></note><note default-y="-10.00" default-x="140.17"><pitch><step>D</step><octave>5</octave></pitch><duration>240</duration><voice>1</voice><type>eighth</type><stem>down</stem><beam number="1">end</beam><lyric number="1"><syllabic>single</syllabic><text>it</text></lyric></note><harmony print-frame="no"><root><root-step>F</root-step></root><kind text="m">minor</kind></harmony><note default-y="-15.00" default-x="178.65"><pitch><step>C</step><octave>5</octave></pitch><duration>480</duration><voice>1</voice><type>quarter</type><stem>down</stem><lyric number="1"><syllabic>single</syllabic><text>face</text></lyric></note><note default-y="-15.00" default-x="240.22"><pitch><step>C</step><octave>5</octave></pitch><duration>480</duration><voice>1</voice><type>quarter</type><stem>down</stem><lyric number="1"><syllabic>single</syllabic><text>to</text></lyric></note></measure><measure width="149.02" number="20"><harmony print-frame="no"><root><root-step>C</root-step></root><kind text="">major</kind><bass><bass-step>E</bass-step></bass></harmony><note default-y="-15.00" default-x="30.04"><pitch><step>C</step><octave>5</octave></pitch><duration>1920</duration><voice>1</voice><type>whole</type><lyric number="1"><syllabic>single</syllabic><text>face.</text></lyric></note></measure><measure width="359.43" number="21"><print new-system="yes"><system-layout><system-margins><left-margin>47.28</left-margin><right-margin>0.00</right-margin></system-margins><system-distance>153.73</system-distance></system-layout></print><harmony print-frame="no"><root><root-step>B</root-step></root><kind text="m7b5">half-diminished</kind></harmony><note default-y="-5.00" default-x="57.89"><pitch><step>E</step><octave>5</octave></pitch><duration>960</duration><voice>1</voice><type>half</type><stem>down</stem><lyric number="1"><syllabic>single</syllabic><text>I</text></lyric></note><harmony print-frame="no"><root><root-step>E</root-step></root><kind text="7b9">dominant</kind><degree><degree-value>9</degree-value><degree-alter>-1</degree-alter><degree-type>add</degree-type></degree></harmony><note default-y="-10.00" default-x="164.32"><pitch><step>D</step><octave>5</octave></pitch><duration>240</duration><voice>1</voice><type>eighth</type><stem>down</stem><beam number="1">begin</beam><lyric number="1"><syllabic>begin</syllabic><text>nev</text></lyric></note><note default-y="-25.00" default-x="212.70"><pitch><step>A</step><alter>1</alter><octave>4</octave></pitch><duration>240</duration><voice>1</voice><type>eighth</type><accidental>sharp</accidental><stem>down</stem><beam number="1">continue</beam><lyric number="1"><syllabic>end</syllabic><text>er</text></lyric></note><note default-y="-20.00" default-x="261.08"><pitch><step>B</step><octave>4</octave></pitch><duration>240</duration><voice>1</voice><type>eighth</type><stem>down</stem><beam number="1">continue</beam><lyric number="1"><syllabic>single</syllabic><text>know</text></lyric></note><note default-y="-10.00" default-x="309.45"><pitch><step>D</step><octave>5</octave></pitch><duration>240</duration><voice>1</voice><type>eighth</type><stem>down</stem><beam number="1">end</beam><lyric number="1"><syllabic>single</syllabic><text>my</text></lyric></note></measure><measure width="287.60" number="22"><harmony print-frame="no"><root><root-step>A</root-step></root><kind text="m">minor</kind></harmony><note default-y="-15.00" default-x="30.99"><pitch><step>C</step><octave>5</octave></pitch><duration>480</duration><voice>1</voice><type>quarter</type><stem>down</stem><lyric number="1"><syllabic>single</syllabic><text>heart</text></lyric></note><note default-y="-15.00" default-x="101.83"><pitch><step>C</step><octave>5</octave></pitch><duration>480</duration><voice>1</voice><type>quarter</type><stem>down</stem><lyric number="1"><syllabic>single</syllabic><text>could</text></lyric></note><harmony print-frame="no"><root><root-step>A</root-step></root><kind text="m">minor</kind><bass><bass-step>G</bass-step></bass></harmony><note default-y="-15.00" default-x="172.67"><pitch><step>C</step><octave>5</octave></pitch><duration>960</duration><voice>1</voice><type>half</type><stem>down</stem><lyric number="1"><syllabic>single</syllabic><text>sing,</text></lyric></note></measure><measure width="382.79" number="23"><harmony print-frame="no"><root><root-step>F</root-step><root-alter>1</root-alter></root><kind text="m7b5">half-diminished</kind></harmony><note default-y="-10.00" default-x="24.74"><pitch><step>D</step><octave>5</octave></pitch><duration>240</duration><voice>1</voice><type>eighth</type><stem>down</stem><beam number="1">begin</beam><lyric number="1"><syllabic>begin</syllabic><text>nev</text></lyric></note><note default-y="-25.00" default-x="74.25"><pitch><step>A</step><alter>1</alter><octave>4</octave></pitch><duration>240</duration><voice>1</voice><type>eighth</type><accidental>sharp</accidental><stem>down</stem><beam number="1">continue</beam><lyric number="1"><syllabic>end</syllabic><text>er</text></lyric></note><note default-y="-20.00" default-x="123.75"><pitch><step>B</step><octave>4</octave></pitch><duration>240</duration><voice>1</voice><type>eighth</type><stem>down</stem><beam number="1">continue</beam><lyric number="1"><syllabic>single</syllabic><text>missed</text></lyric></note><note default-y="-10.00" default-x="173.26"><pitch><step>D</step><octave>5</octave></pitch><duration>240</duration><voice>1</voice><type>eighth</type><stem>down</stem><beam number="1">end</beam><lyric number="1"><syllabic>single</syllabic><text>a</text></lyric></note><harmony print-frame="no"><root><root-step>B</root-step></root><kind text="7#5">augmented-seventh</kind></harmony><note default-y="-20.00" default-x="222.77"><pitch><step>B</step><octave>4</octave></pitch><duration>480</duration><voice>1</voice><type>quarter</type><stem>down</stem><lyric number="1"><syllabic>single</syllabic><text>warm</text></lyric></note><note default-y="-20.00" default-x="301.98"><pitch><step>B</step><octave>4</octave></pitch><duration>480</duration><voice>1</voice><type>quarter</type><stem>down</stem><lyric number="1"><syllabic>begin</syllabic><text>em</text></lyric></note></measure><measure width="250.84" number="24"><print new-system="yes"><system-layout><system-margins><left-margin>47.28</left-margin><right-margin>-0.00</right-margin></system-margins><system-distance>153.73</system-distance></system-layout></print><harmony print-frame="no"><root><root-step>E</root-step></root><kind text="Maj7">major-seventh</kind></harmony><note default-y="-30.00" default-x="81.36"><pitch><step>G</step><alter>1</alter><octave>4</octave></pitch><duration>960</duration><voice>1</voice><type>half</type><accidental>sharp</accidental><stem>up</stem><lyric number="1"><syllabic>single</syllabic><text>brace,</text></lyric></note><harmony print-frame="no"><root><root-step>D</root-step></root><kind text="m7">minor-seventh</kind></harmony><harmony relative-x="2000.00" print-frame="no"><root><root-step>G</root-step></root><kind text="7">dominant</kind></harmony><note default-y="-30.00" default-x="165.30"><pitch><step>G</step><octave>4</octave></pitch><duration>960</duration><voice>1</voice><type>half</type><accidental>natural</accidental><stem>up</stem><lyric number="1"><syllabic>single</syllabic><text>till</text></lyric></note></measure><measure width="268.32" number="25"><harmony print-frame="no"><root><root-step>F</root-step></root><kind text="m6">minor-sixth</kind><bass><bass-step>C</bass-step></bass></harmony><note default-y="-35.00" default-x="16.60"><pitch><step>F</step><octave>4</octave></pitch><duration>320</duration><voice>1</voice><type>quarter</type><time-modification><actual-notes>3</actual-notes><normal-notes>2</normal-notes></time-modification><stem>up</stem><notations><tuplet type="start" bracket="yes"/></notations><lyric number="1"><syllabic>begin</syllabic><text>A</text></lyric></note><note default-y="-35.00" default-x="60.46"><pitch><step>F</step><octave>4</octave></pitch><duration>320</duration><voice>1</voice><type>quarter</type><time-modification><actual-notes>3</actual-notes><normal-notes>2</normal-notes></time-modification><stem>up</stem><lyric number="1"><syllabic>end</syllabic><text>pril</text></lyric></note><note default-y="-35.00" default-x="104.33"><pitch><step>F</step><octave>4</octave></pitch><duration>320</duration><voice>1</voice><type>quarter</type><time-modification><actual-notes>3</actual-notes><normal-notes>2</normal-notes></time-modification><stem>up</stem><notations><tuplet type="stop"/></notations><lyric number="1"><syllabic>single</syllabic><text>in</text></lyric></note><harmony print-frame="no"><root><root-step>B</root-step></root><kind text="">major</kind></harmony><note default-y="-45.00" default-x="148.19"><pitch><step>D</step><alter>1</alter><octave>4</octave></pitch><duration>480</duration><voice>1</voice><type>quarter</type><accidental>sharp</accidental><stem>up</stem><lyric number="1"><syllabic>begin</syllabic><text>Par</text></lyric></note><harmony print-frame="no"><root><root-step>C</root-step></root><kind text="">major</kind></harmony><note default-y="-40.00" default-x="207.46"><pitch><step>E</step><octave>4</octave></pitch><duration>480</duration><tie type="start"/><voice>1</voice><type>quarter</type><stem>up</stem><notations><tied type="start"/></notations><lyric number="1"><syllabic>single</syllabic><text>is,</text></lyric></note></measure><measure width="157.93" number="26"><note default-y="-40.00" default-x="15.00"><pitch><step>E</step><octave>4</octave></pitch><duration>960</duration><tie type="stop"/><voice>1</voice><type>half</type><stem>up</stem><notations><tied type="stop"/></notations></note><note><rest/><duration>960</duration><voice>1</voice><type>half</type></note></measure><measure width="352.73" number="27"><harmony print-frame="no"><root><root-step>E</root-step></root><kind text="m7b5">half-diminished</kind></harmony><note default-y="-20.00" default-x="39.14"><pitch><step>B</step><alter>-1</alter><octave>4</octave></pitch><duration>320</duration><voice>1</voice><type>quarter</type><accidental>flat</accidental><time-modification><actual-notes>3</actual-notes><normal-notes>2</normal-notes></time-modification><stem>up</stem><notations><tuplet type="start" bracket="yes"/></notations><lyric number="1"><syllabic>single</syllabic><text>Whom</text></lyric></note><note default-y="-20.00" default-x="93.85"><pitch><step>B</step><alter>-1</alter><octave>4</octave></pitch><duration>320</duration><voice>1</voice><type>quarter</type><time-modification><actual-notes>3</actual-notes><normal-notes>2</normal-notes></time-modification><stem>up</stem><lyric number="1"><syllabic>single</syllabic><text>can</text></lyric></note><note default-y="-20.00" default-x="148.57"><pitch><step>B</step><alter>-1</alter><octave>4</octave></pitch><duration>320</duration><voice>1</voice><type>quarter</type><time-modification><actual-notes>3</actual-notes><normal-notes>2</normal-notes></time-modification><stem>up</stem><notations><tuplet type="stop"/></notations><lyric number="1"><syllabic>single</syllabic><text>I</text></lyric></note><harmony print-frame="no"><root><root-step>B</root-step><root-alter>-1</root-alter></root><kind text="7b5">dominant</kind><degree><degree-value>5</degree-value><degree-alter>-1</degree-alter><degree-type>alter</degree-type></degree></harmony><note default-y="-30.00" default-x="203.29"><pitch><step>G</step><alter>1</alter><octave>4</octave></pitch><duration>480</duration><voice>1</voice><type>quarter</type><accidental>sharp</accidental><stem>up</stem><lyric number="1"><syllabic>single</syllabic><text>turn</text></lyric></note><harmony print-frame="no"><root><root-step>A</root-step></root><kind text="7#5">augmented-seventh</kind></harmony><note default-y="-25.00" default-x="277.21"><pitch><step>A</step><octave>4</octave></pitch><duration>480</duration><tie type="start"/><voice>1</voice><type>quarter</type><stem>up</stem><notations><tied type="start"/></notations><lyric number="1"><syllabic>single</syllabic><text>to,</text></lyric></note></measure><measure width="140.97" number="28"><print new-system="yes"><system-layout><system-margins><left-margin>47.28</left-margin><right-margin>0.00</right-margin></system-margins><system-distance>153.73</system-distance></system-layout></print><harmony relative-x="2700.00" print-frame="no"><root><root-step>E</root-step><root-alter>-1</root-alter></root><kind text="9">dominant-ninth</kind></harmony><note default-y="-25.00" default-x="53.18"><pitch><step>A</step><octave>4</octave></pitch><duration>1920</duration><tie type="stop"/><voice>1</voice><type>whole</type><notations><tied type="stop"/></notations></note></measure><measure width="291.03" number="29"><harmony print-frame="no"><root><root-step>D</root-step></root><kind text="7">dominant</kind></harmony><note default-y="-10.00" default-x="32.87"><pitch><step>D</step><octave>5</octave></pitch><duration>320</duration><voice>1</voice><type>quarter</type><time-modification><actual-notes>3</actual-notes><normal-notes>2</normal-notes></time-modification><stem>up</stem><notations><tuplet type="start" bracket="yes"/></notations><lyric number="1"><syllabic>single</syllabic><text>What</text></lyric></note><note default-y="-10.00" default-x="84.49"><pitch><step>D</step><octave>5</octave></pitch><duration>320</duration><voice>1</voice><type>quarter</type><time-modification><actual-notes>3</actual-notes><normal-notes>2</normal-notes></time-modification><stem>up</stem><lyric number="1"><syllabic>single</syllabic><text>have</text></lyric></note><note default-y="-10.00" default-x="128.60"><pitch><step>D</step><octave>5</octave></pitch><duration>320</duration><voice>1</voice><type>quarter</type><time-modification><actual-notes>3</actual-notes><normal-notes>2</normal-notes></time-modification><stem>up</stem><notations><tuplet type="stop"/></notations><lyric number="1"><syllabic>single</syllabic><text>you</text></lyric></note><harmony print-frame="no"><root><root-step>C</root-step><root-alter>1</root-alter></root><kind text="9">dominant-ninth</kind><bass><bass-step>D</bass-step></bass></harmony><note default-y="-20.00" default-x="173.35"><pitch><step>B</step><octave>4</octave></pitch><duration>480</duration><voice>1</voice><type>quarter</type><stem>down</stem><lyric number="1"><syllabic>single</syllabic><text>done</text></lyric></note><harmony print-frame="no"><root><root-step>D</root-step></root><kind text="9">dominant-ninth</kind></harmony><note default-y="-15.00" default-x="231.39"><pitch><step>C</step><octave>5</octave></pitch><duration>480</duration><tie type="start"/><voice>1</voice><type>quarter</type><stem>down</stem><notations><tied type="start"/></notations><lyric number="1"><syllabic>single</syllabic><text>to</text></lyric></note></measure><measure width="131.52" number="30"><note default-y="-15.00" default-x="15.00"><pitch><step>C</step><octave>5</octave></pitch><duration>960</duration><tie type="stop"/><voice>1</voice><type>half</type><stem>down</stem><notations><tied type="stop"/></notations></note><harmony print-frame="no"><root><root-step>G</root-step></root><kind text="7b9">dominant</kind><degree><degree-value>9</degree-value><degree-alter>-1</degree-alter><degree-type>add</degree-type></degree></harmony><note default-y="-10.00" default-x="72.46"><pitch><step>D</step><octave>5</octave></pitch><duration>960</duration><voice>1</voice><type>half</type><stem>down</stem><lyric number="1"><syllabic>single</syllabic><text>my</text></lyric></note></measure><measure width="122.98" number="31"><harmony print-frame="no"><root><root-step>C</root-step></root><kind text="">major</kind></harmony><note default-y="-15.00" default-x="36.00"><pitch><step>C</step><octave>5</octave></pitch><duration>1920</duration><voice>1</voice><type>whole</type><lyric number="1"><syllabic>single</syllabic><text>heart?</text></lyric></note></measure><measure width="102.17" number="32"><barline location="left"><ending type="start" number="1"/></barline><harmony print-frame="no"><root><root-step>G</root-step></root><kind text="7">dominant</kind></harmony><note><rest/><duration>1920</duration><voice>1</voice></note><barline location="right"><bar-style>light-heavy</bar-style><ending type="stop" number="1"/><repeat direction="backward"/></barline></measure><measure width="132.36" number="33"><barline location="left"><ending type="start" number="2"/></barline><harmony relative-x="100.00" print-frame="no"><root><root-step>C</root-step></root><kind text="6">major-sixth</kind></harmony><note default-y="-15.00" default-x="36.00"><pitch><step>C</step><octave>5</octave></pitch><duration>1920</duration><tie type="start"/><voice>1</voice><type>whole</type><notations><tied type="start"/></notations><lyric number="1"><syllabic>single</syllabic><text>heart?</text></lyric></note><barline location="right"><ending type="discontinue" number="2"/></barline></measure><measure width="108.79" number="34"><note default-y="-15.00" default-x="15.00"><pitch><step>C</step><octave>5</octave></pitch><duration>1920</duration><tie type="stop"/><voice>1</voice><type>whole</type><notations><tied type="stop"/></notations></note><barline location="right"><bar-style>light-heavy</bar-style></barline></measure></part></score-partwise>