<score-partwise version="2.0"><work><work-number/><work-title/></work><movement-number/><movement-title>Softly as in a Morning Sunrise</movement-title><identification><creator type="composer">Oscar Hammerstein, Sigmund Romberg</creator><creator type="poet"/><rights>All Rights Reserved</rights><encoding><software>Finale 2009 for Windows</software><software>Dolet Light for Finale 2009</software><encoding-date>2010-01-14</encoding-date><supports value="yes" type="yes" element="print" attribute="new-system"/><supports value="yes" type="yes" element="print" attribute="new-page"/><software>ProxyMusic 2.0 c</software></encoding><source>http://wikifonia.org/node/4202/revisions/5602/view</source></identification><defaults><scaling><millimeters>7.1967</millimeters><tenths>40</tenths></scaling><page-layout><page-height>1553</page-height><page-width>1200</page-width><page-margins type="both"><left-margin>141</left-margin><right-margin>71</right-margin><top-margin>71</top-margin><bottom-margin>71</bottom-margin></page-margins></page-layout><system-layout><system-margins><left-margin>21</left-margin><right-margin>0</right-margin></system-margins><system-distance>118</system-distance><top-system-distance>75</top-system-distance></system-layout><appearance><line-width type="stem">0.8135</line-width><line-width type="beam">4.2832</line-width><line-width type="staff">0.8135</line-width><line-width type="light barline">0.8135</line-width><line-width type="heavy barline">4.2832</line-width><line-width type="leger">0.8135</line-width><line-width type="ending">0.8135</line-width><line-width type="wedge">0.8135</line-width><line-width type="enclosure">0.8135</line-width><line-width type="tuplet bracket">0.8135</line-width><note-size type="grace">50</note-size><note-size type="cue">50</note-size></appearance><music-font font-size="20.4" font-family="Maestro"/><word-font font-style="italic" font-size="10.2" font-family="Times New Roman"/></defaults><credit page="1"><credit-words font-size="20.4" default-y="1442" default-x="629" halign="center" valign="top">SOFTLY, AS IN A MORNING SUNRISE</credit-words></credit><credit page="1"><credit-words default-y="1377" default-x="1129" halign="right" valign="top">OSCAR HAMMERSTEIN
SIGMUND ROMBERG</credit-words></credit><credit page="1"><credit-words font-style="italic" default-y="1321" default-x="190" valign="top">Tempo: 240</credit-words></credit><part-list><score-part id="P1"><part-name print-object="no">MusicXML Part</part-name><score-instrument id="P1-I1"><instrument-name>Acoustic Grand Piano</instrument-name></score-instrument><midi-instrument id="P1-I1"><midi-channel>1</midi-channel><midi-program>1</midi-program><volume>80</volume><pan>0</pan></midi-instrument></score-part></part-list><part id="P1"><measure width="283" number="0" implicit="yes"><print><system-layout><system-margins><left-margin>19</left-margin><right-margin>0</right-margin></system-margins><top-system-distance>277</top-system-distance></system-layout></print><attributes><divisions>6</divisions><key><fifths>-3</fifths><mode>major</mode></key><time symbol="common"><beats>4</beats><beat-type>4</beat-type></time><clef><sign>G</sign><line>2</line></clef></attributes><sound tempo="120"/><harmony font-style="normal" font-family="Arial" default-y="37"><root><root-step>C</root-step></root><kind halign="center" text="m">minor</kind></harmony><note default-x="126"><pitch><step>C</step><octave>5</octave></pitch><duration>9</duration><voice>1</voice><type>quarter</type><dot/><stem default-y="-50.5">down</stem></note><note default-x="176"><pitch><step>G</step><octave>4</octave></pitch><duration>3</duration><tie type="start"/><voice>1</voice><type>eighth</type><stem default-y="5.5">up</stem><notations><tied type="start"/></notations></note><note default-x="221"><pitch><step>G</step><octave>4</octave></pitch><duration>12</duration><tie type="stop"/><voice>1</voice><type>half</type><stem default-y="5.5">up</stem><notations><tied type="stop"/></notations></note></measure><measure width="176" number="X1" implicit="yes"><harmony font-style="normal" font-family="Arial" default-y="37"><root><root-step>D</root-step></root><kind halign="center">minor-seventh</kind><degree><degree-value>5</degree-value><degree-alter>-1</degree-alter><degree-type>alter</degree-type></degree></harmony><note default-x="10"><rest/><duration>3</duration><voice>1</voice><type>eighth</type></note><note default-x="33"><pitch><step>F</step><octave>4</octave></pitch><duration>3</duration><voice>1</voice><type>eighth</type><stem default-y="5">up</stem><beam number="1">begin</beam></note><note default-x="55"><pitch><step>G</step><octave>4</octave></pitch><duration>3</duration><voice>1</voice><type>eighth</type><stem default-y="5">up</stem><beam number="1">continue</beam></note><note default-x="78"><pitch><step>F</step><octave>4</octave></pitch><duration>3</duration><voice>1</voice><type>eighth</type><stem default-y="5">up</stem><beam number="1">end</beam></note><direction><direction-type><words font-style="normal" font-family="Arial" default-y="37" justify="center">G7-9</words></direction-type></direction><note default-x="101"><pitch><step>G</step><octave>4</octave></pitch><duration>6</duration><voice>1</voice><type>quarter</type><stem default-y="5.5">up</stem></note><note default-x="138"><pitch><step>F</step><octave>4</octave></pitch><duration>6</duration><voice>1</voice><type>quarter</type><stem default-y="0.5">up</stem></note></measure><measure width="167" number="X2" implicit="yes"><harmony font-style="normal" font-family="Arial" default-y="37"><root><root-step>C</root-step></root><kind halign="center" text="m">minor</kind></harmony><note default-x="10"><pitch><step>C</step><octave>5</octave></pitch><duration>9</duration><voice>1</voice><type>quarter</type><dot/><stem default-y="-50.5">down</stem></note><note default-x="60"><pitch><step>E</step><alter>-1</alter><octave>4</octave></pitch><duration>3</duration><tie type="start"/><voice>1</voice><type>eighth</type><stem default-y="-4">up</stem><notations><tied type="start"/></notations></note><note default-x="105"><pitch><step>E</step><alter>-1</alter><octave>4</octave></pitch><duration>12</duration><tie type="stop"/><voice>1</voice><type>half</type><stem default-y="-4">up</stem><notations><tied type="stop"/></notations></note></measure><measure width="176" number="X3" implicit="yes"><harmony font-style="normal" font-family="Arial" default-y="37"><root><root-step>D</root-step></root><kind halign="center">minor-seventh</kind><degree><degree-value>5</degree-value><degree-alter>-1</degree-alter><degree-type>alter</degree-type></degree></harmony><note default-x="10"><rest/><duration>3</duration><voice>1</voice><type>eighth</type></note><note default-x="33"><pitch><step>D</step><octave>4</octave></pitch><duration>3</duration><voice>1</voice><type>eighth</type><stem default-y="-5">up</stem><beam number="1">begin</beam></note><note default-x="56"><pitch><step>E</step><alter>-1</alter><octave>4</octave></pitch><duration>3</duration><voice>1</voice><type>eighth</type><stem default-y="-5">up</stem><beam number="1">continue</beam></note><note default-x="78"><pitch><step>D</step><octave>4</octave></pitch><duration>3</duration><voice>1</voice><type>eighth</type><stem default-y="-5">up</stem><beam number="1">end</beam></note><direction><direction-type><words font-style="normal" font-family="Arial" default-y="37" justify="center">G7-9</words></direction-type></direction><note default-x="101"><pitch><step>E</step><alter>-1</alter><octave>4</octave></pitch><duration>6</duration><voice>1</voice><type>quarter</type><stem default-y="-4">up</stem></note><note default-x="138"><pitch><step>D</step><octave>4</octave></pitch><duration>6</duration><voice>1</voice><type>quarter</type><stem default-y="-9">up</stem></note></measure><measure width="168" number="X4" implicit="yes"><harmony font-style="normal" font-family="Arial" default-y="37"><root><root-step>C</root-step></root><kind halign="center" text="m">minor</kind></harmony><note default-x="10"><pitch><step>G</step><octave>4</octave></pitch><duration>9</duration><voice>1</voice><type>quarter</type><dot/><stem default-y="5.5">up</stem></note><note default-x="60"><pitch><step>C</step><octave>4</octave></pitch><duration>3</duration><tie type="start"/><voice>1</voice><type>eighth</type><stem default-y="-14.5">up</stem><notations><tied type="start"/></notations></note><note default-x="107"><pitch><step>C</step><octave>4</octave></pitch><duration>12</duration><tie type="stop"/><voice>1</voice><type>half</type><stem default-y="-14.5">up</stem><notations><tied type="stop"/></notations></note></measure><measure width="270" number="X5" implicit="yes"><print new-system="yes"><system-layout><system-distance>147</system-distance></system-layout></print><harmony font-style="normal" font-family="Arial" default-y="37"><root><root-step>D</root-step></root><kind halign="center">minor-seventh</kind><degree><degree-value>5</degree-value><degree-alter>-1</degree-alter><degree-type>alter</degree-type></degree></harmony><note default-x="94"><rest/><duration>3</duration><voice>1</voice><type>eighth</type></note><note default-x="118"><pitch><step>G</step><octave>4</octave></pitch><duration>3</duration><voice>1</voice><type>eighth</type><stem default-y="10">up</stem><beam number="1">begin</beam></note><note default-x="142"><pitch><step>A</step><alter>-1</alter><octave>4</octave></pitch><duration>3</duration><voice>1</voice><type>eighth</type><stem default-y="10">up</stem><beam number="1">continue</beam></note><note default-x="167"><pitch><step>G</step><octave>4</octave></pitch><duration>3</duration><voice>1</voice><type>eighth</type><stem default-y="10">up</stem><beam number="1">end</beam></note><direction><direction-type><words font-style="normal" font-family="Arial" default-y="37" justify="center">G7-9</words></direction-type></direction><note default-x="191"><pitch><step>E</step><alter>-1</alter><octave>4</octave></pitch><duration>6</duration><voice>1</voice><type>quarter</type><stem default-y="-4.5">up</stem></note><note default-x="230"><pitch><step>D</step><octave>4</octave></pitch><duration>6</duration><voice>1</voice><type>quarter</type><stem default-y="-9">up</stem></note></measure><measure width="168" number="X6" implicit="yes"><harmony font-style="normal" font-family="Arial" default-y="37"><root><root-step>C</root-step></root><kind halign="center" text="m">minor</kind></harmony><note default-x="12"><pitch><step>C</step><octave>4</octave></pitch><duration>24</duration><voice>1</voice><type>whole</type></note></measure><measure width="168" number="X7" implicit="yes"><harmony font-style="normal" font-family="Arial" default-y="37"><root><root-step>D</root-step></root><kind halign="center">minor-seventh</kind><degree><degree-value>5</degree-value><degree-alter>-1</degree-alter><degree-type>alter</degree-type></degree></harmony><note default-x="10"><pitch><step>G</step><octave>4</octave></pitch><duration>12</duration><tie type="start"/><voice>1</voice><type>half</type><stem default-y="5.5">up</stem><notations><tied type="start"/></notations></note><direction><direction-type><words font-style="normal" font-family="Arial" default-y="37" justify="center">G7-9</words></direction-type></direction><note default-x="88"><pitch><step>G</step><octave>4</octave></pitch><duration>12</duration><tie type="stop"/><voice>1</voice><type>half</type><stem default-y="5.5">up</stem><notations><tied type="stop"/></notations></note></measure><measure width="177" number="X8" implicit="yes"><harmony font-style="normal" font-family="Arial" default-y="37"><root><root-step>C</root-step></root><kind halign="center" text="m">minor</kind></harmony><note default-x="10"><pitch><step>C</step><octave>5</octave></pitch><duration>9</duration><voice>1</voice><type>quarter</type><dot/><stem default-y="-50.5">down</stem></note><note default-x="64"><pitch><step>G</step><octave>4</octave></pitch><duration>3</duration><tie type="start"/><voice>1</voice><type>eighth</type><stem default-y="5.5">up</stem><notations><tied type="start"/></notations></note><note default-x="109"><pitch><step>G</step><octave>4</octave></pitch><duration>12</duration><tie type="stop"/><voice>1</voice><type>half</type><stem default-y="5.5">up</stem><notations><tied type="stop"/></notations></note></measure><measure width="186" number="X9" implicit="yes"><harmony font-style="normal" font-family="Arial" default-y="37"><root><root-step>D</root-step></root><kind halign="center">minor-seventh</kind><degree><degree-value>5</degree-value><degree-alter>-1</degree-alter><degree-type>alter</degree-type></degree></harmony><note default-x="10"><rest/><duration>3</duration><voice>1</voice><type>eighth</type></note><note default-x="34"><pitch><step>F</step><octave>4</octave></pitch><duration>3</duration><voice>1</voice><type>eighth</type><stem default-y="5">up</stem><beam number="1">begin</beam></note><note default-x="58"><pitch><step>G</step><octave>4</octave></pitch><duration>3</duration><voice>1</voice><type>eighth</type><stem default-y="5">up</stem><beam number="1">continue</beam></note><note default-x="83"><pitch><step>F</step><octave>4</octave></pitch><duration>3</duration><voice>1</voice><type>eighth</type><stem default-y="5">up</stem><beam number="1">end</beam></note><direction><direction-type><words font-style="normal" font-family="Arial" default-y="37" justify="center">G7-9</words></direction-type></direction><note default-x="107"><pitch><step>G</step><octave>4</octave></pitch><duration>6</duration><voice>1</voice><type>quarter</type><stem default-y="5.5">up</stem></note><note default-x="146"><pitch><step>F</step><octave>4</octave></pitch><duration>6</duration><voice>1</voice><type>quarter</type><stem default-y="0.5">up</stem></note></measure><measure width="258" number="X10" implicit="yes"><print new-system="yes"><system-layout><system-distance>147</system-distance></system-layout></print><harmony font-style="normal" font-family="Arial" default-y="37"><root><root-step>C</root-step></root><kind halign="center" text="m">minor</kind></harmony><note default-x="94"><pitch><step>C</step><octave>5</octave></pitch><duration>9</duration><voice>1</voice><type>quarter</type><dot/><stem default-y="-50.5">down</stem></note><note default-x="147"><pitch><step>E</step><alter>-1</alter><octave>4</octave></pitch><duration>3</duration><tie type="start"/><voice>1</voice><type>eighth</type><stem default-y="-4.5">up</stem><notations><tied type="start"/></notations></note><note default-x="192"><pitch><step>E</step><alter>-1</alter><octave>4</octave></pitch><duration>12</duration><tie type="stop"/><voice>1</voice><type>half</type><stem default-y="-4.5">up</stem><notations><tied type="stop"/></notations></note></measure><measure width="184" number="X11" implicit="yes"><harmony font-style="normal" font-family="Arial" default-y="37"><root><root-step>D</root-step></root><kind halign="center">minor-seventh</kind><degree><degree-value>5</degree-value><degree-alter>-1</degree-alter><degree-type>alter</degree-type></degree></harmony><note default-x="10"><rest/><duration>3</duration><voice>1</voice><type>eighth</type></note><note default-x="34"><pitch><step>D</step><octave>4</octave></pitch><duration>3</duration><voice>1</voice><type>eighth</type><stem default-y="-5">up</stem><beam number="1">begin</beam></note><note default-x="58"><pitch><step>E</step><alter>-1</alter><octave>4</octave></pitch><duration>3</duration><voice>1</voice><type>eighth</type><stem default-y="-5">up</stem><beam number="1">continue</beam></note><note default-x="81"><pitch><step>D</step><octave>4</octave></pitch><duration>3</duration><voice>1</voice><type>eighth</type><stem default-y="-5">up</stem><beam number="1">end</beam></note><direction><direction-type><words font-style="normal" font-family="Arial" default-y="37" justify="center">G7-9</words></direction-type></direction><note default-x="106"><pitch><step>E</step><alter>-1</alter><octave>4</octave></pitch><duration>6</duration><voice>1</voice><type>quarter</type><stem default-y="-4.5">up</stem></note><note default-x="144"><pitch><step>D</step><octave>4</octave></pitch><duration>6</duration><voice>1</voice><type>quarter</type><stem default-y="-9.5">up</stem></note></measure><measure width="177" number="X12" implicit="yes"><harmony font-style="normal" font-family="Arial" default-y="37"><root><root-step>C</root-step></root><kind halign="center" text="m">minor</kind></harmony><note default-x="10"><pitch><step>G</step><octave>4</octave></pitch><duration>9</duration><voice>1</voice><type>quarter</type><dot/><stem default-y="6">up</stem></note><note default-x="63"><pitch><step>C</step><octave>4</octave></pitch><duration>3</duration><tie type="start"/><voice>1</voice><type>eighth</type><stem default-y="-14">up</stem><notations><tied type="start"/></notations></note><note default-x="111"><pitch><step>C</step><octave>4</octave></pitch><duration>12</duration><tie type="stop"/><voice>1</voice><type>half</type><stem default-y="-14">up</stem><notations><tied type="stop"/></notations></note></measure><measure width="184" number="X13" implicit="yes"><harmony font-style="normal" font-family="Arial" default-y="37"><root><root-step>D</root-step></root><kind halign="center">minor-seventh</kind><degree><degree-value>5</degree-value><degree-alter>-1</degree-alter><degree-type>alter</degree-type></degree></harmony><note default-x="10"><rest/><duration>3</duration><voice>1</voice><type>eighth</type></note><note default-x="34"><pitch><step>G</step><octave>4</octave></pitch><duration>3</duration><voice>1</voice><type>eighth</type><stem default-y="10">up</stem><beam number="1">begin</beam></note><note default-x="58"><pitch><step>A</step><alter>-1</alter><octave>4</octave></pitch><duration>3</duration><voice>1</voice><type>eighth</type><stem default-y="10">up</stem><beam number="1">continue</beam></note><note default-x="82"><pitch><step>G</step><octave>4</octave></pitch><duration>3</duration><voice>1</voice><type>eighth</type><stem default-y="10">up</stem><beam number="1">end</beam></note><direction><direction-type><words font-style="normal" font-family="Arial" default-y="37" justify="center">G7-9</words></direction-type></direction><note default-x="106"><pitch><step>E</step><alter>-1</alter><octave>4</octave></pitch><duration>6</duration><voice>1</voice><type>quarter</type><stem default-y="-4.5">up</stem></note><note default-x="144"><pitch><step>D</step><octave>4</octave></pitch><duration>6</duration><voice>1</voice><type>quarter</type><stem default-y="-9.5">up</stem></note></measure><measure width="165" number="X14" implicit="yes"><harmony font-style="normal" font-family="Arial" default-y="37"><root><root-step>C</root-step></root><kind halign="center" text="m">minor</kind></harmony><note default-x="12"><pitch><step>C</step><octave>4</octave></pitch><duration>24</duration><voice>1</voice><type>whole</type></note></measure><measure width="264" number="X15" implicit="yes"><print new-system="yes"><system-layout><system-distance>147</system-distance></system-layout></print><note default-x="94"><rest/><duration>4</duration><voice>1</voice><type>quarter</type><time-modification><actual-notes>3</actual-notes><normal-notes>2</normal-notes></time-modification><notations><tuplet placement="above" type="start" number="1" bracket="yes"/></notations></note><harmony font-style="normal" font-family="Arial" default-y="37"><root><root-step>F</root-step></root><kind halign="center" text="m7">minor-seventh</kind></harmony><note default-x="122"><pitch><step>D</step><octave>4</octave></pitch><duration>4</duration><voice>1</voice><type>quarter</type><time-modification><actual-notes>3</actual-notes><normal-notes>2</normal-notes></time-modification><stem default-y="-9.5">up</stem></note><note default-x="151"><pitch><step>E</step><alter>-1</alter><octave>4</octave></pitch><duration>4</duration><voice>1</voice><type>quarter</type><time-modification><actual-notes>3</actual-notes><normal-notes>2</normal-notes></time-modification><stem default-y="-4.5">up</stem><notations><tuplet type="stop" number="1"/></notations></note><harmony font-style="normal" font-family="Arial" default-y="37"><root><root-step>B</root-step><root-alter>-1</root-alter></root><kind halign="center" text="7">dominant</kind></harmony><note default-x="179"><pitch><step>F</step><octave>4</octave></pitch><duration>4</duration><voice>1</voice><type>quarter</type><time-modification><actual-notes>3</actual-notes><normal-notes>2</normal-notes></time-modification><stem default-y="1">up</stem><notations><tuplet placement="above" type="start" number="1" bracket="yes"/></notations></note><note default-x="207"><pitch><step>G</step><octave>4</octave></pitch><duration>4</duration><voice>1</voice><type>quarter</type><time-modification><actual-notes>3</actual-notes><normal-notes>2</normal-notes></time-modification><stem default-y="6">up</stem></note><note default-x="235"><pitch><step>A</step><alter>-1</alter><octave>4</octave></pitch><duration>4</duration><voice>1</voice><type>quarter</type><time-modification><actual-notes>3</actual-notes><normal-notes>2</normal-notes></time-modification><stem default-y="10.5">up</stem><notations><tuplet type="stop" number="1"/></notations></note></measure><measure width="170" number="X16" implicit="yes"><harmony font-style="normal" font-family="Arial" default-y="37"><root><root-step>E</root-step><root-alter>-1</root-alter></root><kind halign="center" text="">major</kind></harmony><note default-x="10"><pitch><step>B</step><alter>-1</alter><octave>4</octave></pitch><duration>9</duration><voice>1</voice><type>quarter</type><dot/><stem default-y="-55.5">down</stem></note><note default-x="61"><pitch><step>E</step><alter>-1</alter><octave>4</octave></pitch><duration>3</duration><tie type="start"/><voice>1</voice><type>eighth</type><stem default-y="-4.5">up</stem><notations><tied type="start"/></notations></note><note default-x="106"><pitch><step>E</step><alter>-1</alter><octave>4</octave></pitch><duration>12</duration><tie type="stop"/><voice>1</voice><type>half</type><stem default-y="-4.5">up</stem><notations><tied type="stop"/></notations></note></measure><measure width="180" number="X17" implicit="yes"><note default-x="10"><rest/><duration>3</duration><voice>1</voice><type>eighth</type></note><note default-x="33"><pitch><step>B</step><alter>-1</alter><octave>4</octave></pitch><duration>3</duration><voice>1</voice><type>eighth</type><stem default-y="-55">down</stem><beam number="1">begin</beam></note><note default-x="57"><pitch><step>C</step><octave>5</octave></pitch><duration>3</duration><voice>1</voice><type>eighth</type><stem default-y="-55">down</stem><beam number="1">continue</beam></note><note default-x="80"><pitch><step>B</step><alter>-1</alter><octave>4</octave></pitch><duration>3</duration><voice>1</voice><type>eighth</type><stem default-y="-55">down</stem><beam number="1">end</beam></note><note default-x="103"><pitch><step>C</step><octave>5</octave></pitch><duration>6</duration><voice>1</voice><type>quarter</type><stem default-y="-50">down</stem></note><note default-x="141"><pitch><step>B</step><alter>-1</alter><octave>4</octave></pitch><duration>6</duration><voice>1</voice><type>quarter</type><stem default-y="-55.5">down</stem></note></measure><measure width="170" number="X18" implicit="yes"><harmony font-style="normal" font-family="Arial" default-y="37"><root><root-step>C</root-step></root><kind halign="center" text="7">dominant</kind></harmony><note default-x="10"><pitch><step>B</step><alter>-1</alter><octave>4</octave></pitch><duration>9</duration><voice>1</voice><type>quarter</type><dot/><stem default-y="-55.5">down</stem></note><note default-x="61"><pitch><step>E</step><octave>4</octave></pitch><duration>3</duration><tie type="start"/><voice>1</voice><type>eighth</type><accidental>natural</accidental><stem default-y="-4.5">up</stem><notations><tied type="start"/></notations></note><note default-x="106"><pitch><step>E</step><alter>-1</alter><octave>4</octave></pitch><duration>12</duration><tie type="start"/><voice>1</voice><type>half</type><stem default-y="-4.5">up</stem><notations><tied type="start"/></notations></note></measure><measure width="183" number="X19" implicit="yes"><note default-x="10"><pitch><step>E</step><alter>-1</alter><octave>4</octave></pitch><duration>4</duration><tie type="stop"/><voice>1</voice><type>quarter</type><time-modification><actual-notes>3</actual-notes><normal-notes>2</normal-notes></time-modification><stem default-y="-4.5">up</stem><notations><tied type="stop"/><tuplet placement="above" type="start" number="1" bracket="yes"/></notations></note><note default-x="39"><pitch><step>E</step><octave>4</octave></pitch><duration>4</duration><voice>1</voice><type>quarter</type><accidental>natural</accidental><time-modification><actual-notes>3</actual-notes><normal-notes>2</normal-notes></time-modification><stem default-y="-4.5">up</stem></note><note default-x="68"><pitch><step>F</step><octave>4</octave></pitch><duration>4</duration><voice>1</voice><type>quarter</type><time-modification><actual-notes>3</actual-notes><normal-notes>2</normal-notes></time-modification><stem default-y="1">up</stem><notations><tuplet type="stop" number="1"/></notations></note><note default-x="96"><pitch><step>G</step><octave>4</octave></pitch><duration>4</duration><voice>1</voice><type>quarter</type><time-modification><actual-notes>3</actual-notes><normal-notes>2</normal-notes></time-modification><stem default-y="6">up</stem><notations><tuplet placement="above" type="start" number="1" bracket="yes"/></notations></note><note default-x="125"><pitch><step>A</step><alter>-1</alter><octave>4</octave></pitch><duration>4</duration><voice>1</voice><type>quarter</type><time-modification><actual-notes>3</actual-notes><normal-notes>2</normal-notes></time-modification><stem default-y="10.5">up</stem></note><note default-x="153"><pitch><step>B</step><alter>-1</alter><octave>4</octave></pitch><duration>4</duration><voice>1</voice><type>quarter</type><time-modification><actual-notes>3</actual-notes><normal-notes>2</normal-notes></time-modification><stem default-y="-55.5">down</stem><notations><tuplet type="stop" number="1"/></notations></note></measure><measure width="254" number="X20" implicit="yes"><print new-system="yes"><system-layout><system-distance>147</system-distance></system-layout></print><harmony font-style="normal" font-family="Arial" default-y="37"><root><root-step>F</root-step></root><kind halign="center" text="m">minor</kind></harmony><note default-x="94"><pitch><step>C</step><octave>5</octave></pitch><duration>9</duration><voice>1</voice><type>quarter</type><dot/><stem default-y="-50">down</stem></note><note default-x="145"><pitch><step>F</step><octave>4</octave></pitch><duration>3</duration><tie type="start"/><voice>1</voice><type>eighth</type><stem default-y="1">up</stem><notations><tied type="start"/></notations></note><note default-x="190"><pitch><step>F</step><octave>4</octave></pitch><duration>12</duration><tie type="stop"/><voice>1</voice><type>half</type><stem default-y="1">up</stem><notations><tied type="stop"/></notations></note></measure><measure width="179" number="X21" implicit="yes"><harmony font-style="normal" font-family="Arial" default-y="37"><root><root-step>F</root-step><root-alter>1</root-alter></root><kind halign="center" text="dim">diminished</kind></harmony><note default-x="10"><rest/><duration>3</duration><voice>1</voice><type>eighth</type></note><note default-x="33"><pitch><step>C</step><octave>5</octave></pitch><duration>3</duration><voice>1</voice><type>eighth</type><stem default-y="-50">down</stem><beam number="1">begin</beam></note><note default-x="57"><pitch><step>D</step><octave>5</octave></pitch><duration>3</duration><voice>1</voice><type>eighth</type><stem default-y="-50">down</stem><beam number="1">continue</beam></note><note default-x="80"><pitch><step>C</step><octave>5</octave></pitch><duration>3</duration><voice>1</voice><type>eighth</type><stem default-y="-50">down</stem><beam number="1">end</beam></note><note default-x="103"><pitch><step>D</step><octave>5</octave></pitch><duration>6</duration><voice>1</voice><type>quarter</type><stem default-y="-45.5">down</stem></note><note default-x="141"><pitch><step>C</step><octave>5</octave></pitch><duration>6</duration><voice>1</voice><type>quarter</type><stem default-y="-50">down</stem></note></measure><measure width="114" number="X22" implicit="yes"><harmony font-style="normal" font-family="Arial" default-y="37"><root><root-step>D</root-step></root><kind halign="center">minor-seventh</kind><degree><degree-value>5</degree-value><degree-alter>-1</degree-alter><degree-type>alter</degree-type></degree></harmony><note default-x="10"><pitch><step>D</step><octave>5</octave></pitch><duration>18</duration><voice>1</voice><type>half</type><dot/><stem default-y="-45.5">down</stem></note><note default-x="80"><pitch><step>D</step><octave>5</octave></pitch><duration>6</duration><voice>1</voice><type>quarter</type><stem default-y="-45.5">down</stem></note></measure><measure width="149" number="X23" implicit="yes"><harmony font-style="normal" font-family="Arial" default-y="37"><root><root-step>G</root-step></root><kind halign="center" text="7">dominant</kind></harmony><note default-x="10"><pitch><step>F</step><octave>5</octave></pitch><duration>6</duration><voice>1</voice><type>quarter</type><stem default-y="-35.5">down</stem></note><note default-x="45"><pitch><step>F</step><octave>5</octave></pitch><duration>6</duration><voice>1</voice><type>quarter</type><stem default-y="-35.5">down</stem></note><note default-x="79"><pitch><step>E</step><alter>-1</alter><octave>5</octave></pitch><duration>6</duration><voice>1</voice><type>quarter</type><stem default-y="-40.5">down</stem></note><note default-x="114"><pitch><step>D</step><octave>5</octave></pitch><duration>6</duration><voice>1</voice><type>quarter</type><stem default-y="-45.5">down</stem></note></measure><measure width="135" number="X24" implicit="yes"><harmony font-style="normal" font-family="Arial" default-y="37"><root><root-step>C</root-step></root><kind halign="center" text="m">minor</kind></harmony><note default-x="10"><pitch><step>C</step><octave>5</octave></pitch><duration>9</duration><voice>1</voice><type>quarter</type><dot/><stem default-y="-50">down</stem></note><note default-x="48"><pitch><step>G</step><octave>4</octave></pitch><duration>3</duration><tie type="start"/><voice>1</voice><type>eighth</type><stem default-y="5.5">up</stem><notations><tied type="start"/></notations></note><note default-x="93"><pitch><step>G</step><octave>4</octave></pitch><duration>12</duration><tie type="stop"/><voice>1</voice><type>half</type><stem default-y="5.5">up</stem><notations><tied type="stop"/></notations></note></measure><measure width="136" number="X25" implicit="yes"><harmony font-style="normal" font-family="Arial" default-y="37"><root><root-step>D</root-step></root><kind halign="center">minor-seventh</kind><degree><degree-value>5</degree-value><degree-alter>-1</degree-alter><degree-type>alter</degree-type></degree></harmony><note default-x="10"><rest/><duration>3</duration><voice>1</voice><type>eighth</type></note><note default-x="29"><pitch><step>F</step><octave>4</octave></pitch><duration>3</duration><voice>1</voice><type>eighth</type><stem default-y="5">up</stem><beam number="1">begin</beam></note><note default-x="48"><pitch><step>G</step><octave>4</octave></pitch><duration>3</duration><voice>1</voice><type>eighth</type><stem default-y="5">up</stem><beam number="1">continue</beam></note><note default-x="67"><pitch><step>F</step><octave>4</octave></pitch><duration>3</duration><voice>1</voice><type>eighth</type><stem default-y="5">up</stem><beam number="1">end</beam></note><harmony font-style="normal" font-family="Arial" default-y="37"><root><root-step>G</root-step></root><kind halign="center" text="7">dominant</kind></harmony><note default-x="86"><pitch><step>G</step><octave>4</octave></pitch><duration>6</duration><voice>1</voice><type>quarter</type><stem default-y="5.5">up</stem></note><note default-x="111"><pitch><step>F</step><octave>4</octave></pitch><duration>6</duration><voice>1</voice><type>quarter</type><stem default-y="1">up</stem></note></measure><measure width="223" number="X26" implicit="yes"><print new-system="yes"/><harmony font-style="normal" font-family="Arial" default-y="37"><root><root-step>C</root-step></root><kind halign="center" text="m">minor</kind></harmony><note default-x="94"><pitch><step>C</step><octave>5</octave></pitch><duration>9</duration><voice>1</voice><type>quarter</type><dot/><stem default-y="-50">down</stem></note><note default-x="134"><pitch><step>E</step><alter>-1</alter><octave>4</octave></pitch><duration>3</duration><tie type="start"/><voice>1</voice><type>eighth</type><stem default-y="-4">up</stem><notations><tied type="start"/></notations></note><note default-x="179"><pitch><step>E</step><alter>-1</alter><octave>4</octave></pitch><duration>12</duration><tie type="stop"/><voice>1</voice><type>half</type><stem default-y="-4">up</stem><notations><tied type="stop"/></notations></note></measure><measure width="202" number="X27" implicit="yes"><harmony font-style="normal" font-family="Arial" default-y="37"><root><root-step>D</root-step></root><kind halign="center">minor-seventh</kind><degree><degree-value>5</degree-value><degree-alter>-1</degree-alter><degree-type>alter</degree-type></degree></harmony><note default-x="10"><rest/><duration>3</duration><voice>1</voice><type>eighth</type></note><note default-x="36"><pitch><step>D</step><octave>4</octave></pitch><duration>3</duration><voice>1</voice><type>eighth</type><stem default-y="-5">up</stem><beam number="1">begin</beam></note><note default-x="63"><pitch><step>E</step><alter>-1</alter><octave>4</octave></pitch><duration>3</duration><voice>1</voice><type>eighth</type><stem default-y="-5">up</stem><beam number="1">continue</beam></note><note default-x="89"><pitch><step>D</step><octave>4</octave></pitch><duration>3</duration><voice>1</voice><type>eighth</type><stem default-y="-5">up</stem><beam number="1">end</beam></note><harmony font-style="normal" font-family="Arial" default-y="37"><root><root-step>G</root-step></root><kind halign="center" text="7">dominant</kind></harmony><note default-x="116"><pitch><step>E</step><alter>-1</alter><octave>4</octave></pitch><duration>6</duration><voice>1</voice><type>quarter</type><stem default-y="-4">up</stem></note><note default-x="158"><pitch><step>D</step><octave>4</octave></pitch><duration>6</duration><voice>1</voice><type>quarter</type><stem default-y="-9.5">up</stem></note></measure><measure width="170" number="X28" implicit="yes"><harmony font-style="normal" font-family="Arial" default-y="37"><root><root-step>C</root-step></root><kind halign="center" text="m">minor</kind></harmony><note default-x="10"><pitch><step>G</step><octave>4</octave></pitch><duration>9</duration><voice>1</voice><type>quarter</type><dot/><stem default-y="5.5">up</stem></note><note default-x="60"><pitch><step>C</step><octave>4</octave></pitch><duration>3</duration><tie type="start"/><voice>1</voice><type>eighth</type><stem default-y="-14.5">up</stem><notations><tied type="start"/></notations></note><note default-x="108"><pitch><step>C</step><octave>4</octave></pitch><duration>12</duration><tie type="stop"/><voice>1</voice><type>half</type><stem default-y="-14.5">up</stem><notations><tied type="stop"/></notations></note></measure><measure width="164" number="X29" implicit="yes"><harmony font-style="normal" font-family="Arial" default-y="37"><root><root-step>D</root-step></root><kind halign="center">minor-seventh</kind><degree><degree-value>5</degree-value><degree-alter>-1</degree-alter><degree-type>alter</degree-type></degree></harmony><note default-x="10"><rest/><duration>3</duration><voice>1</voice><type>eighth</type></note><note default-x="30"><pitch><step>G</step><octave>4</octave></pitch><duration>3</duration><voice>1</voice><type>eighth</type><stem default-y="10">up</stem><beam number="1">begin</beam></note><note default-x="51"><pitch><step>A</step><alter>-1</alter><octave>4</octave></pitch><duration>3</duration><voice>1</voice><type>eighth</type><stem default-y="10">up</stem><beam number="1">continue</beam></note><note default-x="71"><pitch><step>G</step><octave>4</octave></pitch><duration>3</duration><voice>1</voice><type>eighth</type><stem default-y="10">up</stem><beam number="1">end</beam></note><harmony font-style="normal" font-family="Arial" default-y="37"><root><root-step>G</root-step></root><kind halign="center" text="7">dominant</kind></harmony><note default-x="91"><pitch><step>E</step><alter>-1</alter><octave>4</octave></pitch><duration>6</duration><voice>1</voice><type>quarter</type><stem default-y="-4">up</stem></note><note default-x="124"><pitch><step>D</step><octave>4</octave></pitch><duration>6</duration><voice>1</voice><type>quarter</type><stem default-y="-9.5">up</stem></note><barline location="right"><bar-style>light-light</bar-style></barline></measure><measure width="92" number="X30" implicit="yes"><harmony font-style="normal" font-family="Arial" default-y="37"><root><root-step>C</root-step></root><kind halign="center" text="m">minor</kind></harmony><note default-x="11"><pitch><step>C</step><octave>4</octave></pitch><duration>24</duration><tie type="start"/><voice>1</voice><type>whole</type><notations><tied type="start"/></notations></note></measure><measure width="116" number="X31" implicit="yes"><direction placement="above"><direction-type><words relative-x="-32" default-y="43">(</words></direction-type></direction><direction placement="above"><direction-type><words relative-x="82" default-y="44">)</words></direction-type></direction><harmony font-style="normal" font-family="Arial" default-y="37"><root><root-step>D</root-step></root><kind halign="center">minor-seventh</kind><degree><degree-value>5</degree-value><degree-alter>-1</degree-alter><degree-type>alter</degree-type></degree></harmony><note default-x="13"><pitch><step>C</step><octave>4</octave></pitch><duration>6</duration><tie type="stop"/><voice>1</voice><type>quarter</type><stem default-y="-14.5">up</stem><notations><tied type="stop"/></notations></note><note default-x="40"><rest/><duration>6</duration><voice>1</voice><type>quarter</type></note><direction><direction-type><words font-style="normal" font-family="Arial" default-y="37" justify="center">G7-9</words></direction-type></direction><note default-x="65"><rest/><duration>12</duration><voice>1</voice><type>half</type></note><barline location="right"><bar-style>light-light</bar-style></barline></measure></part></score-partwise>