<score-partwise version="2.0"><work><work-number/><work-title/></work><movement-number/><movement-title>The Pink Panther Theme (Clarinet)</movement-title><identification><creator type="composer">Someone</creator><creator type="poet"/><rights>All Rights Reserved</rights><encoding><software>MuseScore 0.9.5</software><encoding-date>2010-01-27</encoding-date><software>ProxyMusic 2.0 c</software></encoding><source>http://wikifonia.org/node/4352/revisions/5835/view</source></identification><defaults><scaling><millimeters>7.05556</millimeters><tenths>40</tenths></scaling><page-layout><page-height>1683.78</page-height><page-width>1190.55</page-width><page-margins type="both"><left-margin>56.6929</left-margin><right-margin>56.6929</right-margin><top-margin>56.6929</top-margin><bottom-margin>113.386</bottom-margin></page-margins></page-layout></defaults><credit page="1"><credit-words font-size="24" default-y="1627.09" default-x="595.276" justify="center" valign="top">The Pink Panther Theme (Clarinet)</credit-words></credit><part-list><score-part id="P1"><part-name>B Clarinet</part-name><score-instrument id="P1-I3"><instrument-name>B Clarinet</instrument-name></score-instrument><midi-instrument id="P1-I3"><midi-channel>1</midi-channel><midi-program>72</midi-program></midi-instrument></score-part></part-list><part id="P1"><measure width="266.93" number="1"><print><system-layout><system-margins><left-margin>121.55</left-margin><right-margin>0.00</right-margin></system-margins><top-system-distance>180.00</top-system-distance></system-layout></print><attributes><divisions>2</divisions><key><fifths>1</fifths><mode>major</mode></key><time><beats>4</beats><beat-type>4</beat-type></time><clef><sign>G</sign><line>2</line></clef></attributes><note default-y="-60.00" default-x="100.42"><pitch><step>A</step><alter>-1</alter><octave>3</octave></pitch><duration>1</duration><voice>1</voice><type>eighth</type><accidental>flat</accidental><stem>up</stem></note><note default-y="-60.00" default-x="135.90"><pitch><step>A</step><octave>3</octave></pitch><duration>2</duration><voice>1</voice><type>quarter</type><accidental>natural</accidental><stem>up</stem></note><note><rest/><duration>2</duration><voice>1</voice><type>quarter</type></note><note default-y="-55.00" default-x="204.64"><pitch><step>B</step><octave>3</octave></pitch><duration>1</duration><voice>1</voice><type>eighth</type><stem>up</stem></note><note default-y="-50.00" default-x="230.96"><pitch><step>C</step><octave>4</octave></pitch><duration>2</duration><voice>1</voice><type>quarter</type><stem>up</stem></note></measure><measure width="202.03" number="2"><note><rest/><duration>2</duration><voice>1</voice><type>quarter</type></note><note default-y="-60.00" default-x="53.56"><pitch><step>A</step><alter>-1</alter><octave>3</octave></pitch><duration>1</duration><voice>1</voice><type>eighth</type><accidental>flat</accidental><stem>up</stem><beam number="1">begin</beam></note><note default-y="-60.00" default-x="79.92"><pitch><step>A</step><octave>3</octave></pitch><duration>1</duration><voice>1</voice><type>eighth</type><accidental>natural</accidental><stem>up</stem><beam number="1">end</beam></note><note><rest/><duration>1</duration><voice>1</voice><type>eighth</type></note><note default-y="-55.00" default-x="128.13"><pitch><step>B</step><octave>3</octave></pitch><duration>1</duration><voice>1</voice><type>eighth</type><stem>up</stem><beam number="1">begin</beam></note><note default-y="-50.00" default-x="152.23"><pitch><step>C</step><octave>4</octave></pitch><duration>1</duration><voice>1</voice><type>eighth</type><stem>up</stem><beam number="1">end</beam></note><note><rest/><duration>1</duration><voice>1</voice><type>eighth</type></note></measure><measure width="232.37" number="3"><note default-y="-35.00" default-x="16.66"><pitch><step>F</step><octave>4</octave></pitch><duration>1</duration><voice>1</voice><type>eighth</type><accidental>natural</accidental><stem>up</stem><beam number="1">begin</beam></note><note default-y="-40.00" default-x="43.34"><pitch><step>E</step><octave>4</octave></pitch><duration>1</duration><voice>1</voice><type>eighth</type><stem>up</stem><beam number="1">end</beam></note><note><rest/><duration>1</duration><voice>1</voice><type>eighth</type></note><note default-y="-60.00" default-x="96.71"><pitch><step>A</step><octave>3</octave></pitch><duration>1</duration><voice>1</voice><type>eighth</type><stem>up</stem></note><note default-y="-50.00" default-x="123.40"><pitch><step>C</step><octave>4</octave></pitch><duration>1</duration><voice>1</voice><type>eighth</type><stem>up</stem></note><note><rest/><duration>1</duration><voice>1</voice><type>eighth</type></note><note default-y="-40.00" default-x="176.77"><pitch><step>E</step><octave>4</octave></pitch><duration>1</duration><voice>1</voice><type>eighth</type><stem>up</stem><beam number="1">begin</beam></note><note default-y="-40.00" default-x="204.09"><pitch><step>E</step><alter>-1</alter><octave>4</octave></pitch><duration>1</duration><voice>1</voice><type>eighth</type><accidental>flat</accidental><stem>up</stem><beam number="1">end</beam><notations><slur type="start" number="1"/></notations></note></measure><measure width="159.85" number="4"><note default-y="-40.00" default-x="17.62"><pitch><step>E</step><alter>-1</alter><octave>4</octave></pitch><duration>4</duration><voice>1</voice><type>half</type><accidental>flat</accidental><stem>up</stem><notations><slur type="stop" number="1"/></notations></note><note default-y="-45.00" default-x="67.30"><pitch><step>D</step><octave>4</octave></pitch><duration>1</duration><voice>1</voice><type>eighth</type><stem>up</stem><beam number="1">begin</beam></note><note default-y="-50.00" default-x="89.88"><pitch><step>C</step><octave>4</octave></pitch><duration>1</duration><voice>1</voice><type>eighth</type><stem>up</stem><beam number="1">continue</beam></note><note default-y="-60.00" default-x="112.47"><pitch><step>A</step><octave>3</octave></pitch><duration>1</duration><voice>1</voice><type>eighth</type><stem>up</stem><beam number="1">continue</beam></note><note default-y="-65.00" default-x="135.05"><pitch><step>G</step><octave>3</octave></pitch><duration>1</duration><voice>1</voice><type>eighth</type><stem>up</stem><beam number="1">end</beam></note></measure><measure width="94.43" number="5"><note default-y="-60.00" default-x="15.00"><pitch><step>A</step><octave>3</octave></pitch><duration>8</duration><voice>1</voice><type>whole</type></note></measure><measure width="228.94" number="6"><print new-system="yes"><system-layout><system-margins><left-margin>71.44</left-margin><right-margin>-0.00</right-margin></system-margins><system-distance>92.50</system-distance></system-layout></print><note default-y="-60.00" default-x="79.34"><pitch><step>A</step><alter>-1</alter><octave>3</octave></pitch><duration>1</duration><voice>1</voice><type>eighth</type><accidental>flat</accidental><stem>up</stem></note><note default-y="-60.00" default-x="114.82"><pitch><step>A</step><octave>3</octave></pitch><duration>2</duration><voice>1</voice><type>quarter</type><accidental>natural</accidental><stem>up</stem></note><note><rest/><duration>2</duration><voice>1</voice><type>quarter</type></note><note default-y="-55.00" default-x="172.29"><pitch><step>B</step><octave>3</octave></pitch><duration>1</duration><voice>1</voice><type>eighth</type><stem>up</stem></note><note default-y="-50.00" default-x="198.61"><pitch><step>C</step><octave>4</octave></pitch><duration>2</duration><voice>1</voice><type>quarter</type><stem>up</stem></note></measure><measure width="185.12" number="7"><note><rest/><duration>2</duration><voice>1</voice><type>quarter</type></note><note default-y="-60.00" default-x="49.46"><pitch><step>A</step><alter>-1</alter><octave>3</octave></pitch><duration>1</duration><voice>1</voice><type>eighth</type><accidental>flat</accidental><stem>up</stem><beam number="1">begin</beam></note><note default-y="-60.00" default-x="75.82"><pitch><step>A</step><octave>3</octave></pitch><duration>1</duration><voice>1</voice><type>eighth</type><accidental>natural</accidental><stem>up</stem><beam number="1">end</beam></note><note><rest/><duration>1</duration><voice>1</voice><type>eighth</type></note><note default-y="-55.00" default-x="118.90"><pitch><step>B</step><octave>3</octave></pitch><duration>1</duration><voice>1</voice><type>eighth</type><stem>up</stem><beam number="1">begin</beam></note><note default-y="-50.00" default-x="140.44"><pitch><step>C</step><octave>4</octave></pitch><duration>1</duration><voice>1</voice><type>eighth</type><stem>up</stem><beam number="1">end</beam></note><note><rest/><duration>1</duration><voice>1</voice><type>eighth</type></note></measure><measure width="215.46" number="8"><note default-y="-35.00" default-x="16.66"><pitch><step>F</step><octave>4</octave></pitch><duration>1</duration><voice>1</voice><type>eighth</type><accidental>natural</accidental><stem>up</stem><beam number="1">begin</beam></note><note default-y="-40.00" default-x="40.11"><pitch><step>E</step><octave>4</octave></pitch><duration>1</duration><voice>1</voice><type>eighth</type><stem>up</stem><beam number="1">end</beam></note><note><rest/><duration>1</duration><voice>1</voice><type>eighth</type></note><note default-y="-60.00" default-x="87.00"><pitch><step>A</step><octave>3</octave></pitch><duration>1</duration><voice>1</voice><type>eighth</type><stem>up</stem></note><note default-y="-50.00" default-x="113.32"><pitch><step>C</step><octave>4</octave></pitch><duration>1</duration><voice>1</voice><type>eighth</type><stem>up</stem></note><note><rest/><duration>1</duration><voice>1</voice><type>eighth</type></note><note default-y="-25.00" default-x="163.09"><pitch><step>A</step><octave>4</octave></pitch><duration>1</duration><voice>1</voice><type>eighth</type><stem>up</stem><beam number="1">begin</beam></note><note default-y="-25.00" default-x="190.41"><pitch><step>A</step><alter>-1</alter><octave>4</octave></pitch><duration>1</duration><tie type="start"/><voice>1</voice><type>eighth</type><accidental>flat</accidental><stem>up</stem><beam number="1">end</beam><notations><tied type="start"/></notations></note></measure><measure width="77.52" number="9"><note default-y="-25.00" default-x="15.00"><pitch><step>A</step><alter>-1</alter><octave>4</octave></pitch><duration>8</duration><tie type="stop"/><tie type="start"/><voice>1</voice><type>whole</type><accidental>flat</accidental><notations><tied type="stop"/><tied type="start"/></notations></note></measure><measure width="97.84" number="10"><note default-y="-25.00" default-x="15.00"><pitch><step>A</step><alter>-1</alter><octave>4</octave></pitch><duration>7</duration><tie type="stop"/><voice>1</voice><type>half</type><dot/><dot/><accidental>flat</accidental><stem>up</stem><notations><tied type="stop"/></notations></note><note default-y="-25.00" default-x="63.92"><pitch><step>A</step><octave>4</octave></pitch><duration>1</duration><voice>1</voice><type>eighth</type><stem>up</stem></note></measure><measure width="200.84" number="11"><note><rest/><duration>1</duration><voice>1</voice><type>eighth</type></note><note default-y="-30.00" default-x="35.93"><pitch><step>G</step><octave>4</octave></pitch><duration>1</duration><voice>1</voice><type>eighth</type><stem>up</stem><beam number="1">begin</beam></note><note default-y="-35.00" default-x="62.29"><pitch><step>F</step><octave>4</octave></pitch><duration>1</duration><voice>1</voice><type>eighth</type><accidental>natural</accidental><stem>up</stem><beam number="1">end</beam></note><note><rest/><duration>1</duration><voice>1</voice><type>eighth</type></note><note default-y="-40.00" default-x="104.14"><pitch><step>E</step><octave>4</octave></pitch><duration>1</duration><voice>1</voice><type>eighth</type><stem>up</stem><beam number="1">begin</beam></note><note default-y="-45.00" default-x="125.07"><pitch><step>D</step><octave>4</octave></pitch><duration>1</duration><voice>1</voice><type>eighth</type><stem>up</stem><beam number="1">end</beam></note><note><rest/><duration>1</duration><voice>1</voice><type>eighth</type></note><note default-y="-50.00" default-x="166.92"><pitch><step>C</step><octave>4</octave></pitch><duration>1</duration><voice>1</voice><type>eighth</type><stem>up</stem></note></measure><measure width="1005.73" number="12"><print new-system="yes"><system-layout><system-margins><left-margin>71.44</left-margin><right-margin>-0.00</right-margin></system-margins><system-distance>92.50</system-distance></system-layout></print><note default-y="-40.00" default-x="69.22"><pitch><step>E</step><octave>4</octave></pitch><duration>1</duration><voice>1</voice><type>eighth</type><stem>up</stem></note><note default-y="-40.00" default-x="198.23"><pitch><step>E</step><alter>-1</alter><octave>4</octave></pitch><duration>2</duration><voice>1</voice><type>quarter</type><accidental>flat</accidental><stem>up</stem></note><note><rest/><duration>1</duration><voice>1</voice><type>eighth</type></note><note default-y="-40.00" default-x="533.67"><pitch><step>E</step><octave>4</octave></pitch><duration>1</duration><voice>1</voice><type>eighth</type><accidental>natural</accidental><stem>up</stem></note><note default-y="-40.00" default-x="662.69"><pitch><step>E</step><alter>-1</alter><octave>4</octave></pitch><duration>2</duration><voice>1</voice><type>quarter</type><accidental>flat</accidental><stem>up</stem></note><note><rest/><duration>1</duration><voice>1</voice><type>eighth</type></note><barline location="right"><bar-style>light-heavy</bar-style></barline></measure></part></score-partwise>