<score-partwise version="2.0"><work><work-number/><work-title/></work><movement-number/><movement-title>Night And Day</movement-title><identification><creator type="composer">Cole Porter</creator><creator type="poet">Cole Porter</creator><rights/><encoding><software>Sibelius 5.1</software><software>Dolet 3.2 for Sibelius</software><supports type="no" element="accidental"/><supports type="no" element="transpose"/><software>ProxyMusic 2.0 c</software></encoding><source>http://wikifonia.org/node/468/revisions/5251/view</source></identification><defaults><scaling><millimeters>6</millimeters><tenths>40</tenths></scaling><page-layout><page-height>1980</page-height><page-width>1400</page-width></page-layout></defaults><part-list><score-part id="P1"><part-name> </part-name><part-abbreviation> </part-abbreviation><score-instrument id="P1-I1"><instrument-name> </instrument-name></score-instrument><midi-instrument id="P1-I1"><midi-channel>1</midi-channel><midi-program>1</midi-program></midi-instrument></score-part></part-list><part id="P1"><measure number="1"><attributes><divisions>768</divisions><key><fifths>0</fifths><mode>major</mode></key><time><beats>4</beats><beat-type>4</beat-type></time><clef><sign>G</sign><line>2</line></clef></attributes><note><pitch><step>G</step><octave>4</octave></pitch><duration>768</duration><voice>1</voice><type>quarter</type><lyric number="1" name="verse"><syllabic>end</syllabic><text>Night</text></lyric></note><note><pitch><step>G</step><octave>4</octave></pitch><duration>384</duration><voice>1</voice><type>eighth</type><beam number="1">begin</beam><lyric number="1" name="verse"><syllabic>end</syllabic><text>and</text></lyric></note><note><pitch><step>G</step><octave>4</octave></pitch><duration>384</duration><tie type="start"/><voice>1</voice><type>eighth</type><beam number="1">continue</beam><notations><tied type="start"/></notations><lyric number="1" name="verse"><syllabic>end</syllabic><text>day</text></lyric></note><barline location="right"><bar-style>light-light</bar-style></barline></measure><measure number="2"><print new-system="no"/><harmony relative-x="8" default-y="16" print-frame="no"><root><root-step>A</root-step><root-alter>-1</root-alter></root><kind text="maj7">major-seventh</kind></harmony><note><pitch><step>G</step><octave>4</octave></pitch><duration>3072</duration><tie type="start"/><voice>1</voice><type>whole</type><notations><tied type="start"/></notations></note></measure><measure number="3"><print new-system="no"/><harmony relative-x="8" default-y="16" print-frame="no"><root><root-step>G</root-step></root><kind text="7sus">suspended-fourth</kind><degree print-object="no"><degree-value>7</degree-value><degree-alter>0</degree-alter><degree-type>add</degree-type></degree></harmony><note><pitch><step>G</step><octave>4</octave></pitch><duration>1536</duration><voice>1</voice><type>half</type></note><note><pitch><step>F</step><octave>4</octave></pitch><duration>512</duration><voice>1</voice><type>quarter</type><time-modification><actual-notes>3</actual-notes><normal-notes>2</normal-notes></time-modification><notations><tuplet type="start"/></notations><lyric number="1" name="verse"><syllabic>end</syllabic><text>you</text></lyric></note><note><pitch><step>E</step><octave>4</octave></pitch><duration>512</duration><voice>1</voice><type>quarter</type><time-modification><actual-notes>3</actual-notes><normal-notes>2</normal-notes></time-modification><lyric number="1" name="verse"><syllabic>end</syllabic><text>are</text></lyric></note><note><pitch><step>D</step><alter>1</alter><octave>4</octave></pitch><duration>512</duration><voice>1</voice><type>quarter</type><time-modification><actual-notes>3</actual-notes><normal-notes>2</normal-notes></time-modification><notations><tuplet type="stop"/></notations><lyric number="1" name="verse"><syllabic>end</syllabic><text>the</text></lyric></note></measure><measure number="4"><print new-system="no"/><harmony relative-x="8" default-y="16" print-frame="no"><root><root-step>C</root-step></root><kind text="maj7">major-seventh</kind></harmony><note><pitch><step>E</step><octave>4</octave></pitch><duration>3072</duration><tie type="start"/><voice>1</voice><type>whole</type><notations><tied type="start"/></notations><lyric number="1" name="verse"><syllabic>end</syllabic><text>one,</text></lyric></note></measure><measure number="5"><print new-system="no"/><note><pitch><step>E</step><octave>4</octave></pitch><duration>1536</duration><voice>1</voice><type>half</type></note><note><pitch><step>G</step><octave>4</octave></pitch><duration>768</duration><voice>1</voice><type>quarter</type><lyric number="1" name="verse"><syllabic>middle</syllabic><text>on</text><extend/></lyric></note><note><pitch><step>G</step><octave>4</octave></pitch><duration>384</duration><voice>1</voice><type>eighth</type><beam number="1">begin</beam><lyric number="1" name="verse"><syllabic>end</syllabic><text>ly</text></lyric></note><note><pitch><step>G</step><octave>4</octave></pitch><duration>384</duration><tie type="start"/><voice>1</voice><type>eighth</type><beam number="1">continue</beam><notations><tied type="start"/></notations><lyric number="1" name="verse"><syllabic>end</syllabic><text>you</text></lyric></note></measure><measure number="6"><print new-system="yes"/><harmony relative-x="8" default-y="16" print-frame="no"><root><root-step>A</root-step><root-alter>-1</root-alter></root><kind text="maj7">major-seventh</kind></harmony><note><pitch><step>G</step><octave>4</octave></pitch><duration>768</duration><voice>1</voice><type>quarter</type></note><note><pitch><step>G</step><octave>4</octave></pitch><duration>768</duration><voice>1</voice><type>quarter</type><lyric number="1" name="verse"><syllabic>middle</syllabic><text>be</text><extend/></lyric></note><note><pitch><step>G</step><octave>4</octave></pitch><duration>768</duration><voice>1</voice><type>quarter</type><lyric number="1" name="verse"><syllabic>end</syllabic><text>neath</text></lyric></note><note><pitch><step>G</step><octave>4</octave></pitch><duration>768</duration><voice>1</voice><type>quarter</type><lyric number="1" name="verse"><syllabic>end</syllabic><text>the</text></lyric></note></measure><measure number="7"><print new-system="no"/><harmony relative-x="8" default-y="16" print-frame="no"><root><root-step>G</root-step></root><kind text="7sus">suspended-fourth</kind><degree print-object="no"><degree-value>7</degree-value><degree-alter>0</degree-alter><degree-type>add</degree-type></degree></harmony><note><pitch><step>G</step><octave>4</octave></pitch><duration>768</duration><voice>1</voice><type>quarter</type><lyric number="1" name="verse"><syllabic>end</syllabic><text>moon</text></lyric></note><note><pitch><step>F</step><octave>4</octave></pitch><duration>768</duration><voice>1</voice><type>quarter</type><lyric number="1" name="verse"><syllabic>end</syllabic><text>and</text></lyric></note><note><pitch><step>F</step><octave>4</octave></pitch><duration>512</duration><voice>1</voice><type>quarter</type><time-modification><actual-notes>3</actual-notes><normal-notes>2</normal-notes></time-modification><notations><tuplet type="start"/></notations><lyric number="1" name="verse"><syllabic>middle</syllabic><text>un</text><extend/></lyric></note><note><pitch><step>E</step><octave>4</octave></pitch><duration>512</duration><voice>1</voice><type>quarter</type><time-modification><actual-notes>3</actual-notes><normal-notes>2</normal-notes></time-modification><lyric number="1" name="verse"><syllabic>end</syllabic><text>der</text></lyric></note><note><pitch><step>D</step><alter>1</alter><octave>4</octave></pitch><duration>512</duration><voice>1</voice><type>quarter</type><time-modification><actual-notes>3</actual-notes><normal-notes>2</normal-notes></time-modification><notations><tuplet type="stop"/></notations><lyric number="1" name="verse"><syllabic>end</syllabic><text>the</text></lyric></note></measure><measure number="8"><print new-system="no"/><harmony relative-x="8" default-y="16" print-frame="no"><root><root-step>C</root-step></root><kind text="maj7">major-seventh</kind></harmony><note><pitch><step>E</step><octave>4</octave></pitch><duration>3072</duration><tie type="start"/><voice>1</voice><type>whole</type><notations><tied type="start"/></notations><lyric number="1" name="verse"><syllabic>end</syllabic><text>sun.</text></lyric></note></measure><measure number="9"><print new-system="no"/><note><pitch><step>E</step><octave>4</octave></pitch><duration>1536</duration><voice>1</voice><type>half</type></note><note><pitch><step>E</step><octave>4</octave></pitch><duration>1152</duration><voice>1</voice><type>quarter</type><dot/><lyric number="1" name="verse"><syllabic>middle</syllabic><text>Wheth</text><extend/></lyric></note><note><pitch><step>E</step><octave>4</octave></pitch><duration>384</duration><voice>1</voice><type>eighth</type><beam number="1">end</beam><lyric number="1" name="verse"><syllabic>end</syllabic><text>er</text></lyric></note></measure><measure number="10"><print new-system="yes"/><direction><direction-type><words relative-x="8" default-y="16">F#m7(b5)</words></direction-type></direction><note><pitch><step>E</step><octave>4</octave></pitch><duration>768</duration><voice>1</voice><type>quarter</type><notations><articulations><accent/></articulations></notations><lyric number="1" name="verse"><syllabic>end</syllabic><text>near</text></lyric></note><note><pitch><step>E</step><octave>4</octave></pitch><duration>768</duration><voice>1</voice><type>quarter</type><lyric number="1" name="verse"><syllabic>end</syllabic><text>to</text></lyric></note><note><pitch><step>E</step><octave>4</octave></pitch><duration>768</duration><voice>1</voice><type>quarter</type><lyric number="1" name="verse"><syllabic>end</syllabic><text>me</text></lyric></note><note><pitch><step>E</step><octave>4</octave></pitch><duration>768</duration><voice>1</voice><type>quarter</type><lyric number="1" name="verse"><syllabic>end</syllabic><text>or</text></lyric></note></measure><measure number="11"><print new-system="no"/><harmony relative-x="8" default-y="16" print-frame="no"><root><root-step>F</root-step></root><kind text="m7">minor-seventh</kind></harmony><note><pitch><step>E</step><alter>-1</alter><octave>4</octave></pitch><duration>1536</duration><tie type="start"/><voice>1</voice><type>half</type><notations><tied type="start"/></notations><lyric number="1" name="verse"><syllabic>end</syllabic><text>far,</text></lyric></note><note><pitch><step>E</step><alter>-1</alter><octave>4</octave></pitch><duration>384</duration><voice>1</voice><type>eighth</type><beam number="1">end</beam></note><note><pitch><step>E</step><alter>-1</alter><octave>4</octave></pitch><duration>768</duration><voice>1</voice><type>quarter</type><lyric number="1" name="verse"><syllabic>end</syllabic><text>it’s</text></lyric></note><note><pitch><step>E</step><alter>-1</alter><octave>4</octave></pitch><duration>384</duration><voice>1</voice><type>eighth</type><beam number="1">end</beam><lyric number="1" name="verse"><syllabic>end</syllabic><text>no</text></lyric></note></measure><measure number="12"><print new-system="no"/><harmony relative-x="8" default-y="16" print-frame="no"><root><root-step>E</root-step></root><kind text="m7">minor-seventh</kind></harmony><note><pitch><step>D</step><octave>4</octave></pitch><duration>768</duration><voice>1</voice><type>quarter</type><lyric number="1" name="verse"><syllabic>middle</syllabic><text>mat</text><extend/></lyric></note><note><pitch><step>D</step><octave>4</octave></pitch><duration>768</duration><voice>1</voice><type>quarter</type><lyric number="1" name="verse"><syllabic>end</syllabic><text>ter,</text></lyric></note><note><pitch><step>D</step><octave>4</octave></pitch><duration>768</duration><voice>1</voice><type>quarter</type><lyric number="1" name="verse"><syllabic>middle</syllabic><text>dar</text><extend/></lyric></note><note><pitch><step>D</step><octave>4</octave></pitch><duration>768</duration><voice>1</voice><type>quarter</type><lyric number="1" name="verse"><syllabic>end</syllabic><text>ling,</text></lyric></note></measure><measure number="13"><print new-system="no"/><harmony relative-x="8" default-y="16" print-frame="no"><root><root-step>E</root-step></root><kind text="dim7">diminished-seventh</kind></harmony><note><pitch><step>D</step><octave>4</octave></pitch><duration>768</duration><voice>1</voice><type>quarter</type><lyric number="1" name="verse"><syllabic>end</syllabic><text>where</text></lyric></note><note><pitch><step>D</step><alter>-1</alter><octave>4</octave></pitch><duration>384</duration><voice>1</voice><type>eighth</type><beam number="1">begin</beam><lyric number="1" name="verse"><syllabic>end</syllabic><text>you</text></lyric></note><note><pitch><step>C</step><octave>4</octave></pitch><duration>384</duration><tie type="start"/><voice>1</voice><type>eighth</type><beam number="1">continue</beam><notations><tied type="start"/></notations><lyric number="1" name="verse"><syllabic>end</syllabic><text>are</text></lyric></note><note><pitch><step>C</step><octave>4</octave></pitch><duration>768</duration><voice>1</voice><type>quarter</type></note><note><pitch><step>B</step><octave>3</octave></pitch><duration>768</duration><voice>1</voice><type>quarter</type><lyric number="1" name="verse"><syllabic>end</syllabic><text>I</text></lyric></note></measure><measure number="14"><print new-system="yes"/><harmony relative-x="8" default-y="16" print-frame="no"><root><root-step>D</root-step></root><kind text="m7">minor-seventh</kind></harmony><note><pitch><step>A</step><octave>3</octave></pitch><duration>768</duration><voice>1</voice><type>quarter</type><lyric number="2" name="verse"><syllabic>end</syllabic><text>think</text></lyric></note><note><pitch><step>A</step><alter>-1</alter><octave>3</octave></pitch><duration>384</duration><voice>1</voice><type>eighth</type><beam number="1">begin</beam><lyric number="2" name="verse"><syllabic>end</syllabic><text>of</text></lyric></note><note><pitch><step>G</step><octave>3</octave></pitch><duration>384</duration><tie type="start"/><voice>1</voice><type>eighth</type><beam number="1">continue</beam><notations><tied type="start"/></notations><lyric number="2" name="verse"><syllabic>end</syllabic><text>you</text></lyric></note><note><pitch><step>G</step><octave>3</octave></pitch><duration>1536</duration><tie type="start"/><voice>1</voice><type>half</type><notations><tied type="start"/></notations></note></measure><measure number="15"><print new-system="no"/><harmony relative-x="8" default-y="16" print-frame="no"><root><root-step>G</root-step></root><kind text="7">dominant</kind></harmony><note><pitch><step>G</step><octave>3</octave></pitch><duration>1536</duration><voice>1</voice><type>half</type></note><note><pitch><step>G</step><octave>4</octave></pitch><duration>768</duration><voice>1</voice><type>quarter</type><lyric number="2" name="verse"><syllabic>end</syllabic><text>night</text></lyric></note><note><pitch><step>G</step><octave>4</octave></pitch><duration>384</duration><voice>1</voice><type>eighth</type><beam number="1">begin</beam><lyric number="2" name="verse"><syllabic>end</syllabic><text>and</text></lyric></note><note><pitch><step>G</step><octave>4</octave></pitch><duration>384</duration><tie type="start"/><voice>1</voice><type>eighth</type><beam number="1">continue</beam><notations><tied type="start"/></notations><lyric number="2" name="verse"><syllabic>end</syllabic><text>day.</text></lyric></note></measure><measure number="16"><print new-system="no"/><harmony relative-x="8" default-y="16" print-frame="no"><root><root-step>C</root-step></root><kind text="maj7">major-seventh</kind></harmony><note><pitch><step>G</step><octave>4</octave></pitch><duration>3072</duration><tie type="start"/><voice>1</voice><type>whole</type><notations><tied type="start"/></notations></note></measure><measure number="17"><print new-system="no"/><note><pitch><step>G</step><octave>4</octave></pitch><duration>1536</duration><voice>1</voice><type>half</type></note><note><pitch><step>G</step><octave>4</octave></pitch><duration>768</duration><voice>1</voice><type>quarter</type><lyric number="2" name="verse"><syllabic>end</syllabic><text>Day</text></lyric></note><note><pitch><step>G</step><octave>4</octave></pitch><duration>384</duration><voice>1</voice><type>eighth</type><beam number="1">begin</beam><lyric number="2" name="verse"><syllabic>end</syllabic><text>and</text></lyric></note><note><pitch><step>G</step><octave>4</octave></pitch><duration>384</duration><tie type="start"/><voice>1</voice><type>eighth</type><beam number="1">continue</beam><notations><tied type="start"/></notations><lyric number="2" name="verse"><syllabic>end</syllabic><text>night</text></lyric></note></measure><measure number="18"><print new-system="yes"/><harmony relative-x="8" default-y="16" print-frame="no"><root><root-step>A</root-step><root-alter>-1</root-alter></root><kind text="maj7">major-seventh</kind></harmony><note><pitch><step>G</step><octave>4</octave></pitch><duration>3072</duration><tie type="start"/><voice>1</voice><type>whole</type><notations><tied type="start"/></notations></note></measure><measure number="19"><print new-system="no"/><harmony relative-x="8" default-y="16" print-frame="no"><root><root-step>G</root-step></root><kind text="7">dominant</kind></harmony><note><pitch><step>G</step><octave>4</octave></pitch><duration>1536</duration><voice>1</voice><type>half</type></note><note><pitch><step>F</step><octave>4</octave></pitch><duration>512</duration><voice>1</voice><type>quarter</type><time-modification><actual-notes>3</actual-notes><normal-notes>2</normal-notes></time-modification><notations><tuplet type="start"/></notations><lyric number="1" name="verse"><syllabic>end</syllabic><text>why</text></lyric></note><note><pitch><step>E</step><octave>4</octave></pitch><duration>512</duration><voice>1</voice><type>quarter</type><time-modification><actual-notes>3</actual-notes><normal-notes>2</normal-notes></time-modification><lyric number="1" name="verse"><syllabic>end</syllabic><text>is</text></lyric></note><note><pitch><step>D</step><octave>4</octave></pitch><duration>512</duration><voice>1</voice><type>quarter</type><time-modification><actual-notes>3</actual-notes><normal-notes>2</normal-notes></time-modification><notations><tuplet type="stop"/></notations><lyric number="1" name="verse"><syllabic>end</syllabic><text>it</text></lyric></note></measure><measure number="20"><print new-system="no"/><harmony relative-x="8" default-y="16" print-frame="no"><root><root-step>C</root-step></root><kind text="maj7">major-seventh</kind></harmony><note><pitch><step>E</step><octave>4</octave></pitch><duration>3072</duration><tie type="start"/><voice>1</voice><type>whole</type><notations><tied type="start"/></notations><lyric number="1" name="verse"><syllabic>end</syllabic><text>so,</text></lyric></note></measure><measure number="21"><print new-system="no"/><note><pitch><step>E</step><octave>4</octave></pitch><duration>1536</duration><voice>1</voice><type>half</type></note><note><pitch><step>G</step><octave>4</octave></pitch><duration>768</duration><voice>1</voice><type>quarter</type><lyric number="1" name="verse"><syllabic>end</syllabic><text>that</text></lyric></note><note><pitch><step>G</step><octave>4</octave></pitch><duration>384</duration><voice>1</voice><type>eighth</type><beam number="1">begin</beam><lyric number="1" name="verse"><syllabic>end</syllabic><text>this</text></lyric></note><note><pitch><step>G</step><octave>4</octave></pitch><duration>384</duration><tie type="start"/><voice>1</voice><type>eighth</type><beam number="1">continue</beam><notations><tied type="start"/></notations><lyric number="1" name="verse"><syllabic>middle</syllabic><text>long</text><extend/></lyric></note></measure><measure number="22"><print new-system="yes"/><harmony relative-x="8" default-y="37" print-frame="no"><root><root-step>A</root-step><root-alter>-1</root-alter></root><kind text="maj7">major-seventh</kind></harmony><note><pitch><step>G</step><octave>4</octave></pitch><duration>768</duration><voice>1</voice><type>quarter</type></note><note><pitch><step>G</step><octave>4</octave></pitch><duration>768</duration><voice>1</voice><type>quarter</type><lyric number="1" name="verse"><syllabic>end</syllabic><text>ing</text></lyric></note><note><pitch><step>G</step><octave>4</octave></pitch><duration>768</duration><voice>1</voice><type>quarter</type><lyric number="1" name="verse"><syllabic>end</syllabic><text>for</text></lyric></note><note><pitch><step>G</step><octave>4</octave></pitch><duration>768</duration><voice>1</voice><type>quarter</type><lyric number="1" name="verse"><syllabic>end</syllabic><text>you</text></lyric></note></measure><measure number="23"><print new-system="no"/><harmony relative-x="8" default-y="37" print-frame="no"><root><root-step>G</root-step></root><kind text="7">dominant</kind></harmony><note><pitch><step>G</step><octave>4</octave></pitch><duration>512</duration><voice>1</voice><type>quarter</type><time-modification><actual-notes>3</actual-notes><normal-notes>2</normal-notes></time-modification><notations><tuplet type="start"/></notations><lyric number="1" name="verse"><syllabic>middle</syllabic><text>fol</text><extend/></lyric></note><note><pitch><step>A</step><octave>4</octave></pitch><duration>512</duration><voice>1</voice><type>quarter</type><time-modification><actual-notes>3</actual-notes><normal-notes>2</normal-notes></time-modification><lyric number="1" name="verse"><syllabic>end</syllabic><text>lows</text></lyric></note><note><pitch><step>G</step><octave>4</octave></pitch><duration>512</duration><voice>1</voice><type>quarter</type><time-modification><actual-notes>3</actual-notes><normal-notes>2</normal-notes></time-modification><notations><tuplet type="stop"/></notations><lyric number="1" name="verse"><syllabic>middle</syllabic><text>wher</text><extend/></lyric></note><note><pitch><step>F</step><octave>4</octave></pitch><duration>512</duration><voice>1</voice><type>quarter</type><time-modification><actual-notes>3</actual-notes><normal-notes>2</normal-notes></time-modification><notations><tuplet type="start"/></notations><lyric number="1" name="verse"><syllabic>middle</syllabic><text>ev</text><extend/></lyric></note><note><pitch><step>E</step><octave>4</octave></pitch><duration>512</duration><voice>1</voice><type>quarter</type><time-modification><actual-notes>3</actual-notes><normal-notes>2</normal-notes></time-modification><lyric number="1" name="verse"><syllabic>end</syllabic><text>er</text></lyric></note><note><pitch><step>D</step><octave>4</octave></pitch><duration>512</duration><voice>1</voice><type>quarter</type><time-modification><actual-notes>3</actual-notes><normal-notes>2</normal-notes></time-modification><notations><tuplet type="stop"/></notations><lyric number="1" name="verse"><syllabic>end</syllabic><text>I</text></lyric></note></measure><measure number="24"><print new-system="no"/><harmony relative-x="8" default-y="37" print-frame="no"><root><root-step>C</root-step></root><kind text="maj7">major-seventh</kind></harmony><note><pitch><step>E</step><octave>4</octave></pitch><duration>3072</duration><tie type="start"/><voice>1</voice><type>whole</type><notations><tied type="start"/></notations><lyric number="1" name="verse"><syllabic>end</syllabic><text>go?</text></lyric></note></measure><measure number="25"><print new-system="no"/><note><pitch><step>E</step><octave>4</octave></pitch><duration>1536</duration><voice>1</voice><type>half</type></note><note><pitch><step>E</step><octave>4</octave></pitch><duration>1152</duration><voice>1</voice><type>quarter</type><dot/><lyric number="1" name="verse"><syllabic>end</syllabic><text>In</text></lyric></note><note><pitch><step>E</step><octave>4</octave></pitch><duration>384</duration><voice>1</voice><type>eighth</type><beam number="1">end</beam><lyric number="1" name="verse"><syllabic>end</syllabic><text>the</text></lyric></note></measure><measure number="26"><print new-system="yes"/><direction><direction-type><words relative-x="8" default-y="21">F#m7(b5)</words></direction-type></direction><note><pitch><step>E</step><octave>4</octave></pitch><duration>768</duration><voice>1</voice><type>quarter</type><notations><articulations><accent/></articulations></notations><lyric number="1" name="verse"><syllabic>middle</syllabic><text>roar</text><extend/></lyric></note><note><pitch><step>E</step><octave>4</octave></pitch><duration>768</duration><voice>1</voice><type>quarter</type><lyric number="1" name="verse"><syllabic>end</syllabic><text>ing</text></lyric></note><note><pitch><step>E</step><octave>4</octave></pitch><duration>384</duration><voice>1</voice><type>eighth</type><beam number="1">end</beam><lyric number="1" name="verse"><syllabic>middle</syllabic><text>traf</text><extend/></lyric></note><note><pitch><step>E</step><octave>4</octave></pitch><duration>1152</duration><voice>1</voice><type>quarter</type><dot/><lyric number="1" name="verse"><syllabic>end</syllabic><text>fic’s</text></lyric></note></measure><measure number="27"><print new-system="no"/><harmony relative-x="8" default-y="16" print-frame="no"><root><root-step>F</root-step></root><kind text="m7">minor-seventh</kind></harmony><note><pitch><step>E</step><alter>-1</alter><octave>4</octave></pitch><duration>1536</duration><tie type="start"/><voice>1</voice><type>half</type><notations><tied type="start"/></notations><lyric number="1" name="verse"><syllabic>end</syllabic><text>boom,</text></lyric></note><note><pitch><step>E</step><alter>-1</alter><octave>4</octave></pitch><duration>384</duration><voice>1</voice><type>eighth</type><beam number="1">end</beam></note><note><pitch><step>E</step><alter>-1</alter><octave>4</octave></pitch><duration>768</duration><voice>1</voice><type>quarter</type><lyric number="1" name="verse"><syllabic>end</syllabic><text>in</text></lyric></note><note><pitch><step>E</step><alter>-1</alter><octave>4</octave></pitch><duration>384</duration><voice>1</voice><type>eighth</type><beam number="1">end</beam><lyric number="1" name="verse"><syllabic>end</syllabic><text>the</text></lyric></note></measure><measure number="28"><print new-system="no"/><harmony relative-x="8" default-y="16" print-frame="no"><root><root-step>E</root-step></root><kind text="m7">minor-seventh</kind></harmony><note><pitch><step>D</step><octave>4</octave></pitch><duration>768</duration><voice>1</voice><type>quarter</type><lyric number="1" name="verse"><syllabic>middle</syllabic><text>si</text><extend/></lyric></note><note><pitch><step>D</step><octave>4</octave></pitch><duration>768</duration><voice>1</voice><type>quarter</type><lyric number="1" name="verse"><syllabic>end</syllabic><text>lence</text></lyric></note><note><pitch><step>D</step><octave>4</octave></pitch><duration>768</duration><voice>1</voice><type>quarter</type><lyric number="1" name="verse"><syllabic>end</syllabic><text>of</text></lyric></note><note><pitch><step>D</step><octave>4</octave></pitch><duration>768</duration><voice>1</voice><type>quarter</type><lyric number="1" name="verse"><syllabic>end</syllabic><text>my</text></lyric></note></measure><measure number="29"><print new-system="no"/><harmony relative-x="8" default-y="16" print-frame="no"><root><root-step>E</root-step></root><kind text="dim7">diminished-seventh</kind></harmony><note><pitch><step>D</step><octave>4</octave></pitch><duration>768</duration><voice>1</voice><type>quarter</type><lyric number="1" name="verse"><syllabic>middle</syllabic><text>lone</text><extend/></lyric></note><note><pitch><step>D</step><octave>4</octave></pitch><duration>384</duration><voice>1</voice><type>eighth</type><beam number="1">begin</beam><lyric number="1" name="verse"><syllabic>end</syllabic><text>ly</text></lyric></note><note><pitch><step>C</step><octave>4</octave></pitch><duration>384</duration><tie type="start"/><voice>1</voice><type>eighth</type><beam number="1">continue</beam><notations><tied type="start"/></notations><lyric number="1" name="verse"><syllabic>end</syllabic><text>room,</text></lyric></note><note><pitch><step>C</step><octave>4</octave></pitch><duration>768</duration><voice>1</voice><type>quarter</type></note><note><pitch><step>B</step><octave>3</octave></pitch><duration>768</duration><voice>1</voice><type>quarter</type><lyric number="1" name="verse"><syllabic>end</syllabic><text>I</text></lyric></note></measure><measure number="30"><print new-system="yes"/><harmony relative-x="8" default-y="16" print-frame="no"><root><root-step>D</root-step></root><kind text="m7">minor-seventh</kind></harmony><note><pitch><step>A</step><octave>3</octave></pitch><duration>768</duration><voice>1</voice><type>quarter</type><lyric number="2" name="verse"><syllabic>end</syllabic><text>think</text></lyric></note><note><pitch><step>A</step><alter>-1</alter><octave>3</octave></pitch><duration>384</duration><voice>1</voice><type>eighth</type><beam number="1">begin</beam><lyric number="2" name="verse"><syllabic>end</syllabic><text>of</text></lyric></note><note><pitch><step>G</step><octave>3</octave></pitch><duration>384</duration><tie type="start"/><voice>1</voice><type>eighth</type><beam number="1">continue</beam><notations><tied type="start"/></notations><lyric number="2" name="verse"><syllabic>end</syllabic><text>you,</text></lyric></note><note><pitch><step>G</step><octave>3</octave></pitch><duration>1536</duration><tie type="start"/><voice>1</voice><type>half</type><notations><tied type="start"/></notations></note></measure><measure number="31"><print new-system="no"/><harmony relative-x="8" default-y="16" print-frame="no"><root><root-step>G</root-step></root><kind text="7">dominant</kind></harmony><note><pitch><step>G</step><octave>3</octave></pitch><duration>1536</duration><voice>1</voice><type>half</type></note><note><pitch><step>G</step><octave>4</octave></pitch><duration>768</duration><voice>1</voice><type>quarter</type><lyric number="2" name="verse"><syllabic>end</syllabic><text>night</text></lyric></note><note><pitch><step>G</step><octave>4</octave></pitch><duration>384</duration><voice>1</voice><type>eighth</type><beam number="1">begin</beam><lyric number="2" name="verse"><syllabic>end</syllabic><text>and</text></lyric></note><note><pitch><step>G</step><octave>4</octave></pitch><duration>384</duration><tie type="start"/><voice>1</voice><type>eighth</type><beam number="1">continue</beam><notations><tied type="start"/></notations><lyric number="2" name="verse"><syllabic>end</syllabic><text>day.</text></lyric></note></measure><measure number="32"><print new-system="no"/><harmony relative-x="8" default-y="16" print-frame="no"><root><root-step>C</root-step></root><kind text="maj7">major-seventh</kind></harmony><note><pitch><step>G</step><octave>4</octave></pitch><duration>3072</duration><tie type="start"/><voice>1</voice><type>whole</type><notations><tied type="start"/></notations></note></measure><measure number="33"><print new-system="no"/><harmony relative-x="8" default-y="25" print-frame="no"><root><root-step>B</root-step><root-alter>-1</root-alter></root><kind text="7">dominant</kind></harmony><note><pitch><step>G</step><octave>4</octave></pitch><duration>1536</duration><voice>1</voice><type>half</type></note><note><pitch><step>G</step><octave>4</octave></pitch><duration>768</duration><voice>1</voice><type>quarter</type><lyric number="2" name="verse"><syllabic>end</syllabic><text>Night</text></lyric></note><note><pitch><step>G</step><octave>4</octave></pitch><duration>768</duration><voice>1</voice><type>quarter</type><lyric number="2" name="verse"><syllabic>end</syllabic><text>and</text></lyric></note></measure><measure number="34"><print new-system="yes"/><harmony relative-x="8" default-y="16" print-frame="no"><root><root-step>E</root-step><root-alter>-1</root-alter></root><kind text="maj7">major-seventh</kind></harmony><note><pitch><step>B</step><alter>-1</alter><octave>4</octave></pitch><duration>3072</duration><tie type="start"/><voice>1</voice><type>whole</type><notations><tied type="start"/></notations><lyric number="1" name="verse"><syllabic>end</syllabic><text>day</text></lyric></note></measure><measure number="35"><print new-system="no"/><note><pitch><step>B</step><alter>-1</alter><octave>4</octave></pitch><duration>1536</duration><voice>1</voice><type>half</type></note><note><pitch><step>G</step><octave>4</octave></pitch><duration>512</duration><voice>1</voice><type>quarter</type><time-modification><actual-notes>3</actual-notes><normal-notes>2</normal-notes></time-modification><notations><tuplet type="start"/></notations><lyric number="1" name="verse"><syllabic>middle</syllabic><text>un</text><extend/></lyric></note><note><pitch><step>F</step><octave>4</octave></pitch><duration>512</duration><voice>1</voice><type>quarter</type><time-modification><actual-notes>3</actual-notes><normal-notes>2</normal-notes></time-modification><lyric number="1" name="verse"><syllabic>end</syllabic><text>der</text></lyric></note><note><pitch><step>E</step><alter>-1</alter><octave>4</octave></pitch><duration>512</duration><voice>1</voice><type>quarter</type><time-modification><actual-notes>3</actual-notes><normal-notes>2</normal-notes></time-modification><notations><tuplet type="stop"/></notations><lyric number="1" name="verse"><syllabic>end</syllabic><text>the</text></lyric></note></measure><measure number="36"><print new-system="no"/><harmony relative-x="8" default-y="16" print-frame="no"><root><root-step>C</root-step></root><kind text="maj7">major-seventh</kind></harmony><note><pitch><step>G</step><octave>4</octave></pitch><duration>768</duration><voice>1</voice><type>quarter</type><lyric number="1" name="verse"><syllabic>end</syllabic><text>hide</text></lyric></note><note><pitch><step>G</step><octave>4</octave></pitch><duration>384</duration><voice>1</voice><type>eighth</type><beam number="1">begin</beam><lyric number="1" name="verse"><syllabic>end</syllabic><text>of</text></lyric></note><note><pitch><step>G</step><octave>4</octave></pitch><duration>384</duration><tie type="start"/><voice>1</voice><type>eighth</type><beam number="1">continue</beam><notations><tied type="start"/></notations><lyric number="1" name="verse"><syllabic>end</syllabic><text>me</text></lyric></note><note><pitch><step>G</step><octave>4</octave></pitch><duration>1536</duration><tie type="start"/><voice>1</voice><type>half</type><notations><tied type="start"/></notations></note></measure><measure number="37"><print new-system="no"/><note><pitch><step>G</step><octave>4</octave></pitch><duration>1536</duration><voice>1</voice><type>half</type></note><note><pitch><step>G</step><octave>4</octave></pitch><duration>1152</duration><voice>1</voice><type>quarter</type><dot/><lyric number="1" name="verse"><syllabic>end</syllabic><text>there’s</text></lyric></note><note><pitch><step>G</step><octave>4</octave></pitch><duration>384</duration><voice>1</voice><type>eighth</type><beam number="1">end</beam><lyric number="1" name="verse"><syllabic>end</syllabic><text>an</text></lyric></note></measure><measure number="38"><print new-system="yes"/><harmony relative-x="8" default-y="22" print-frame="no"><root><root-step>E</root-step><root-alter>-1</root-alter></root><kind text="maj7">major-seventh</kind></harmony><note><pitch><step>B</step><alter>-1</alter><octave>4</octave></pitch><duration>384</duration><voice>1</voice><type>eighth</type><beam number="1">end</beam><lyric number="1" name="verse"><syllabic>end</syllabic><text>oh,</text></lyric></note><note><pitch><step>C</step><octave>5</octave></pitch><duration>768</duration><voice>1</voice><type>quarter</type><lyric number="1" name="verse"><syllabic>end</syllabic><text>such</text></lyric></note><note><pitch><step>B</step><alter>-1</alter><octave>4</octave></pitch><duration>384</duration><voice>1</voice><type>eighth</type><beam number="1">end</beam><lyric number="1" name="verse"><syllabic>end</syllabic><text>a</text></lyric></note><note><pitch><step>C</step><octave>5</octave></pitch><duration>768</duration><voice>1</voice><type>quarter</type><lyric number="1" name="verse"><syllabic>middle</syllabic><text>hun</text><extend/></lyric></note><note><pitch><step>B</step><alter>-1</alter><octave>4</octave></pitch><duration>384</duration><voice>1</voice><type>eighth</type><beam number="1">begin</beam><lyric number="1" name="verse"><syllabic>end</syllabic><text>gry</text></lyric></note><note><pitch><step>C</step><octave>5</octave></pitch><duration>384</duration><tie type="start"/><voice>1</voice><type>eighth</type><beam number="1">continue</beam><notations><tied type="start"/></notations><lyric number="1" name="verse"><syllabic>middle</syllabic><text>yearn</text><extend/></lyric></note></measure><measure number="39"><print new-system="no"/><note><pitch><step>C</step><octave>5</octave></pitch><duration>384</duration><voice>1</voice><type>eighth</type><beam number="1">end</beam></note><note><pitch><step>B</step><alter>-1</alter><octave>4</octave></pitch><duration>768</duration><voice>1</voice><type>quarter</type><lyric number="1" name="verse"><syllabic>end</syllabic><text>ing,</text></lyric></note><note><pitch><step>G</step><octave>4</octave></pitch><duration>384</duration><tie type="start"/><voice>1</voice><type>eighth</type><beam number="1">end</beam><notations><tied type="start"/></notations><lyric number="1" name="verse"><syllabic>middle</syllabic><text>burn</text><extend/></lyric></note><note><pitch><step>G</step><octave>4</octave></pitch><duration>512</duration><voice>1</voice><type>quarter</type><time-modification><actual-notes>3</actual-notes><normal-notes>2</normal-notes></time-modification><notations><tuplet type="start"/></notations></note><note><pitch><step>F</step><octave>4</octave></pitch><duration>512</duration><voice>1</voice><type>quarter</type><time-modification><actual-notes>3</actual-notes><normal-notes>2</normal-notes></time-modification><lyric number="1" name="verse"><syllabic>end</syllabic><text>ing</text></lyric></note><note><pitch><step>E</step><alter>-1</alter><octave>4</octave></pitch><duration>512</duration><voice>1</voice><type>quarter</type><time-modification><actual-notes>3</actual-notes><normal-notes>2</normal-notes></time-modification><notations><tuplet type="stop"/></notations><lyric number="1" name="verse"><syllabic>middle</syllabic><text>in</text><extend/></lyric></note></measure><measure number="40"><print new-system="no"/><harmony relative-x="8" default-y="22" print-frame="no"><root><root-step>C</root-step></root><kind text="maj7">major-seventh</kind></harmony><note><pitch><step>G</step><octave>4</octave></pitch><duration>768</duration><voice>1</voice><type>quarter</type><lyric number="1" name="verse"><syllabic>end</syllabic><text>side</text></lyric></note><note><pitch><step>G</step><octave>4</octave></pitch><duration>384</duration><voice>1</voice><type>eighth</type><beam number="1">begin</beam><lyric number="1" name="verse"><syllabic>end</syllabic><text>of</text></lyric></note><note><pitch><step>G</step><octave>4</octave></pitch><duration>384</duration><tie type="start"/><voice>1</voice><type>eighth</type><beam number="1">continue</beam><notations><tied type="start"/></notations><lyric number="1" name="verse"><syllabic>end</syllabic><text>me.</text></lyric></note><note><pitch><step>G</step><octave>4</octave></pitch><duration>1536</duration><tie type="start"/><voice>1</voice><type>half</type><notations><tied type="start"/></notations></note></measure><measure number="41"><print new-system="no"/><note><pitch><step>G</step><octave>4</octave></pitch><duration>1536</duration><voice>1</voice><type>half</type></note><note><pitch><step>E</step><octave>4</octave></pitch><duration>1152</duration><voice>1</voice><type>quarter</type><dot/><lyric number="1" name="verse"><syllabic>end</syllabic><text>And</text></lyric></note><note><pitch><step>E</step><octave>4</octave></pitch><duration>384</duration><voice>1</voice><type>eighth</type><beam number="1">end</beam><lyric number="1" name="verse"><syllabic>end</syllabic><text>its</text></lyric></note></measure><measure number="42"><print new-system="yes"/><direction><direction-type><words relative-x="8" default-y="16">F#m7(b5)</words></direction-type></direction><note><pitch><step>E</step><octave>4</octave></pitch><duration>768</duration><voice>1</voice><type>quarter</type><notations><articulations><accent/></articulations></notations><lyric number="1" name="verse"><syllabic>middle</syllabic><text>tor</text><extend/></lyric></note><note><pitch><step>E</step><octave>4</octave></pitch><duration>768</duration><voice>1</voice><type>quarter</type><lyric number="1" name="verse"><syllabic>end</syllabic><text>ment</text></lyric></note><note><pitch><step>E</step><octave>4</octave></pitch><duration>768</duration><voice>1</voice><type>quarter</type><lyric number="1" name="verse"><syllabic>end</syllabic><text>won’t</text></lyric></note><note><pitch><step>E</step><octave>4</octave></pitch><duration>768</duration><voice>1</voice><type>quarter</type><lyric number="1" name="verse"><syllabic>end</syllabic><text>be</text></lyric></note></measure><measure number="43"><print new-system="no"/><harmony relative-x="8" default-y="16" print-frame="no"><root><root-step>F</root-step></root><kind text="m7">minor-seventh</kind></harmony><note><pitch><step>E</step><alter>-1</alter><octave>4</octave></pitch><duration>1536</duration><tie type="start"/><voice>1</voice><type>half</type><notations><tied type="start"/></notations><lyric number="1" name="verse"><syllabic>end</syllabic><text>through</text></lyric></note><note><pitch><step>E</step><alter>-1</alter><octave>4</octave></pitch><duration>384</duration><voice>1</voice><type>eighth</type><beam number="1">end</beam></note><note><pitch><step>E</step><alter>-1</alter><octave>4</octave></pitch><duration>768</duration><voice>1</voice><type>quarter</type><lyric number="1" name="verse"><syllabic>end</syllabic><text>’til</text></lyric></note><note><pitch><step>E</step><alter>-1</alter><octave>4</octave></pitch><duration>384</duration><voice>1</voice><type>eighth</type><beam number="1">end</beam><lyric number="1" name="verse"><syllabic>end</syllabic><text>you</text></lyric></note></measure><measure number="44"><print new-system="no"/><harmony relative-x="8" default-y="16" print-frame="no"><root><root-step>E</root-step></root><kind text="m7">minor-seventh</kind></harmony><note><pitch><step>D</step><octave>4</octave></pitch><duration>768</duration><voice>1</voice><type>quarter</type><lyric number="1" name="verse"><syllabic>end</syllabic><text>let</text></lyric></note><note><pitch><step>D</step><octave>4</octave></pitch><duration>768</duration><voice>1</voice><type>quarter</type><lyric number="1" name="verse"><syllabic>end</syllabic><text>me</text></lyric></note><note><pitch><step>D</step><octave>4</octave></pitch><duration>768</duration><voice>1</voice><type>quarter</type><lyric number="1" name="verse"><syllabic>end</syllabic><text>spend</text></lyric></note><note><pitch><step>D</step><octave>4</octave></pitch><duration>768</duration><voice>1</voice><type>quarter</type><lyric number="1" name="verse"><syllabic>end</syllabic><text>my</text></lyric></note></measure><measure number="45"><print new-system="no"/><harmony relative-x="8" default-y="16" print-frame="no"><root><root-step>E</root-step></root><kind text="dim7">diminished-seventh</kind></harmony><note><pitch><step>D</step><octave>4</octave></pitch><duration>384</duration><voice>1</voice><type>eighth</type><beam number="1">begin</beam><lyric number="1" name="verse"><syllabic>end</syllabic><text>life</text></lyric></note><note><pitch><step>D</step><alter>-1</alter><octave>4</octave></pitch><duration>384</duration><voice>1</voice><type>eighth</type><beam number="1">continue</beam><lyric number="1" name="verse"><syllabic>middle</syllabic><text>mak</text><extend/></lyric></note><note><pitch><step>C</step><octave>4</octave></pitch><duration>384</duration><voice>1</voice><type>eighth</type><beam number="1">continue</beam><lyric number="1" name="verse"><syllabic>end</syllabic><text>ing</text></lyric></note><note><pitch><step>B</step><octave>4</octave></pitch><duration>384</duration><tie type="start"/><voice>1</voice><type>eighth</type><beam number="1">continue</beam><notations><tied type="start"/></notations><lyric number="1" name="verse"><syllabic>end</syllabic><text>love</text></lyric></note><note><pitch><step>B</step><octave>4</octave></pitch><duration>384</duration><voice>1</voice><type>eighth</type><beam number="1">begin</beam></note><note><pitch><step>B</step><alter>-1</alter><octave>4</octave></pitch><duration>384</duration><voice>1</voice><type>eighth</type><beam number="1">continue</beam><lyric number="1" name="verse"><syllabic>end</syllabic><text>to</text></lyric></note><note><pitch><step>A</step><octave>4</octave></pitch><duration>768</duration><voice>1</voice><type>quarter</type><lyric number="1" name="verse"><syllabic>end</syllabic><text>you,</text></lyric></note></measure><measure number="46"><print new-system="yes"/><harmony relative-x="8" default-y="16" print-frame="no"><root><root-step>D</root-step></root><kind text="m7">minor-seventh</kind></harmony><note><pitch><step>G</step><octave>4</octave></pitch><duration>768</duration><voice>1</voice><type>quarter</type><lyric number="1" name="verse"><syllabic>end</syllabic><text>day</text></lyric></note><note><pitch><step>G</step><octave>4</octave></pitch><duration>384</duration><voice>1</voice><type>eighth</type><beam number="1">begin</beam><lyric number="1" name="verse"><syllabic>end</syllabic><text>and</text></lyric></note><note><pitch><step>G</step><octave>4</octave></pitch><duration>384</duration><tie type="start"/><voice>1</voice><type>eighth</type><beam number="1">continue</beam><notations><tied type="start"/></notations><lyric number="1" name="verse"><syllabic>end</syllabic><text>night,</text></lyric></note><note><pitch><step>G</step><octave>4</octave></pitch><duration>1536</duration><tie type="start"/><voice>1</voice><type>half</type><notations><tied type="start"/></notations></note></measure><measure number="47"><harmony relative-x="8" default-y="16" print-frame="no"><root><root-step>G</root-step></root><kind text="7sus">suspended-fourth</kind><degree print-object="no"><degree-value>7</degree-value><degree-alter>0</degree-alter><degree-type>add</degree-type></degree></harmony><note><pitch><step>G</step><octave>4</octave></pitch><duration>1536</duration><voice>1</voice><type>half</type></note><note><pitch><step>C</step><octave>5</octave></pitch><duration>768</duration><voice>1</voice><type>quarter</type><lyric number="1" name="verse"><syllabic>end</syllabic><text>night</text></lyric></note><note><pitch><step>C</step><octave>5</octave></pitch><duration>384</duration><voice>1</voice><type>eighth</type><beam number="1">begin</beam><lyric number="1" name="verse"><syllabic>end</syllabic><text>and</text></lyric></note><note><pitch><step>C</step><octave>5</octave></pitch><duration>384</duration><tie type="start"/><voice>1</voice><type>eighth</type><beam number="1">continue</beam><notations><tied type="start"/></notations><lyric number="1" name="verse"><syllabic>end</syllabic><text>day.</text></lyric></note></measure><measure number="48"><harmony relative-x="8" default-y="16" print-frame="no"><root><root-step>C</root-step></root><kind text="6">major-sixth</kind></harmony><note><pitch><step>C</step><octave>5</octave></pitch><duration>3072</duration><voice>1</voice><type>whole</type></note></measure><measure number="49"><note><rest/><duration>3072</duration><voice>1</voice></note><barline location="right"><bar-style>light-heavy</bar-style></barline></measure></part></score-partwise>