<score-partwise version="2.0"><work><work-number/><work-title/></work><movement-number/><movement-title>Be like the kettle and sing</movement-title><identification><creator type="composer">Tommie Connor :  Walter Ridley :  </creator><creator type="poet"/><rights>All Rights Reserved</rights><encoding><software>MuseScore 0.9.5</software><encoding-date>2010-03-06</encoding-date><software>ProxyMusic 2.0 c</software></encoding><source>http://wikifonia.org/node/4894/revisions/6630/view</source></identification><defaults><scaling><millimeters>7.056</millimeters><tenths>40</tenths></scaling><page-layout><page-height>1683.67</page-height><page-width>1190.48</page-width><page-margins type="both"><left-margin>56.6893</left-margin><right-margin>56.6893</right-margin><top-margin>56.6893</top-margin><bottom-margin>113.379</bottom-margin></page-margins></page-layout></defaults><credit page="1"><credit-words font-size="24" default-y="1626.98" default-x="595.238" justify="center" valign="top">Be like the kettle and sing</credit-words></credit><credit page="1"><credit-words font-size="12" default-y="1556.5" default-x="1133.79" justify="right" valign="top">Tommie Connor: Desmond O'Connor and Walter Ridley</credit-words></credit><part-list><part-group type="start" number="1"><group-symbol>brace</group-symbol></part-group><score-part id="P1"><part-name>Electric Piano</part-name><score-instrument id="P1-I3"><instrument-name>Electric Piano</instrument-name></score-instrument><midi-instrument id="P1-I3"><midi-channel>1</midi-channel><midi-program>5</midi-program></midi-instrument></score-part></part-list><part id="P1"><measure width="302.45" number="1"><print><system-layout><system-margins><left-margin>169.77</left-margin><right-margin>0.00</right-margin></system-margins><top-system-distance>204.31</top-system-distance></system-layout></print><attributes><divisions>1</divisions><key><fifths>-2</fifths><mode>major</mode></key><time><beats>4</beats><beat-type>4</beat-type></time><clef><sign>G</sign><line>2</line></clef></attributes><harmony print-frame="no"><root><root-step>B</root-step><root-alter>-1</root-alter></root><kind text="">major</kind></harmony><note default-y="-35.00" default-x="126.25"><pitch><step>F</step><octave>4</octave></pitch><duration>2</duration><voice>1</voice><type>half</type><stem>up</stem><lyric number="1"><syllabic>single</syllabic><text>When</text></lyric></note><note default-y="-45.00" default-x="202.69"><pitch><step>D</step><octave>4</octave></pitch><duration>1</duration><voice>1</voice><type>quarter</type><stem>up</stem><lyric number="1"><syllabic>single</syllabic><text>your</text></lyric></note><harmony print-frame="no"><root><root-step>F</root-step></root><kind text="7">dominant</kind></harmony><note default-y="-40.00" default-x="253.07"><pitch><step>E</step><alter>-1</alter><octave>4</octave></pitch><duration>1</duration><voice>1</voice><type>quarter</type><stem>up</stem><lyric number="1"><syllabic>begin</syllabic><text>troub</text></lyric></note></measure><measure width="151.43" number="2"><note default-y="-40.00" default-x="15.00"><pitch><step>E</step><alter>-1</alter><octave>4</octave></pitch><duration>1</duration><voice>1</voice><type>quarter</type><stem>up</stem></note><note default-y="-35.00" default-x="52.30"><pitch><step>F</step><octave>4</octave></pitch><duration>1</duration><voice>1</voice><type>quarter</type><stem>up</stem><lyric number="1"><syllabic>end</syllabic><text>bles</text></lyric></note><note default-y="-30.00" default-x="90.15"><pitch><step>G</step><octave>4</octave></pitch><duration>2</duration><voice>1</voice><type>half</type><stem>up</stem><lyric number="1"><syllabic>single</syllabic><text>are</text></lyric></note></measure><measure width="156.22" number="3"><harmony print-frame="no"><root><root-step>B</root-step><root-alter>-1</root-alter></root><kind text="">major</kind></harmony><note default-y="-35.00" default-x="26.00"><pitch><step>F</step><octave>4</octave></pitch><duration>2</duration><voice>1</voice><type>half</type><stem>up</stem><lyric number="1"><syllabic>begin</syllabic><text>boil</text></lyric></note><note default-y="-20.00" default-x="83.16"><pitch><step>B</step><alter>-1</alter><octave>4</octave></pitch><duration>1</duration><voice>1</voice><type>quarter</type><stem>down</stem><lyric number="1"><syllabic>end</syllabic><text>ing</text></lyric></note><harmony print-frame="no"><root><root-step>B</root-step><root-alter>-1</root-alter></root><kind text="7">dominant</kind></harmony><note default-y="-10.00" default-x="118.89"><pitch><step>D</step><octave>5</octave></pitch><duration>1</duration><voice>1</voice><type>quarter</type><stem>down</stem><lyric number="1"><syllabic>begin</syllabic><text>ov</text></lyric></note></measure><measure width="103.38" number="4"><note default-y="-10.00" default-x="15.00"><pitch><step>D</step><octave>5</octave></pitch><duration>1</duration><voice>1</voice><type>quarter</type><stem>down</stem></note><note default-y="-15.00" default-x="44.41"><pitch><step>C</step><octave>5</octave></pitch><duration>3</duration><voice>1</voice><type>half</type><dot/><stem>down</stem><lyric number="1"><syllabic>end</syllabic><text>er</text></lyric></note></measure><measure width="193.85" number="5"><harmony print-frame="no"><root><root-step>E</root-step><root-alter>-1</root-alter></root><kind text="">major</kind></harmony><note><rest/><duration>1</duration><voice>1</voice><type>quarter</type></note><note default-y="-20.00" default-x="59.31"><pitch><step>B</step><alter>-1</alter><octave>4</octave></pitch><duration>1</duration><voice>1</voice><type>quarter</type><stem>down</stem><lyric number="1"><syllabic>begin</syllabic><text>Con</text></lyric></note><harmony print-frame="no"><root><root-step>A</root-step></root><kind text="">major</kind></harmony><note default-y="-25.00" default-x="103.63"><pitch><step>A</step><octave>4</octave></pitch><duration>1</duration><voice>1</voice><type>quarter</type><stem>up</stem><lyric number="1"><syllabic>single</syllabic><text>sult</text></lyric></note><harmony print-frame="no"><root><root-step>E</root-step><root-alter>-1</root-alter></root><kind text="">major</kind></harmony><note default-y="-20.00" default-x="147.94"><pitch><step>B</step><alter>-1</alter><octave>4</octave></pitch><duration>1</duration><voice>1</voice><type>quarter</type><stem>down</stem><lyric number="1"><syllabic>single</syllabic><text>this</text></lyric></note></measure><measure width="157.65" number="6"><print new-system="yes"><system-layout><system-margins><left-margin>109.38</left-margin><right-margin>0.00</right-margin></system-margins><system-distance>129.51</system-distance></system-layout></print><harmony print-frame="no"><root><root-step>E</root-step></root><kind text="">major</kind></harmony><note default-y="-15.00" default-x="87.02"><pitch><step>C</step><octave>5</octave></pitch><duration>3</duration><voice>1</voice><type>half</type><dot/><stem>down</stem><lyric number="1"><syllabic>begin</syllabic><text>re</text></lyric></note><note default-y="-20.00" default-x="132.66"><pitch><step>B</step><alter>-1</alter><octave>4</octave></pitch><duration>1</duration><voice>1</voice><type>quarter</type><stem>down</stem><lyric number="1"><syllabic>middle</syllabic><text>ci</text></lyric></note></measure><measure width="69.44" number="7"><harmony print-frame="no"><root><root-step>B</root-step><root-alter>-1</root-alter></root><kind text="">major</kind></harmony><note default-y="-35.00" default-x="19.10"><pitch><step>F</step><octave>4</octave></pitch><duration>4</duration><tie type="start"/><voice>1</voice><type>whole</type><notations><tied type="start"/></notations><lyric number="1"><syllabic>end</syllabic><text>pe</text></lyric></note></measure><measure width="65.34" number="8"><harmony print-frame="no"><root><root-step>F</root-step></root><kind text="7">dominant</kind></harmony><note default-y="-35.00" default-x="15.00"><pitch><step>F</step><octave>4</octave></pitch><duration>4</duration><tie type="stop"/><voice>1</voice><type>whole</type><notations><tied type="stop"/></notations></note></measure><measure width="125.92" number="9"><harmony print-frame="no"><root><root-step>E</root-step><root-alter>-1</root-alter></root><kind text="">major</kind></harmony><note default-y="-20.00" default-x="23.01"><pitch><step>B</step><alter>-1</alter><octave>4</octave></pitch><duration>2</duration><voice>1</voice><type>half</type><stem>down</stem><lyric number="1"><syllabic>single</syllabic><text>Ev'</text></lyric></note><note default-y="-25.00" default-x="67.24"><pitch><step>A</step><octave>4</octave></pitch><duration>1</duration><voice>1</voice><type>quarter</type><stem>up</stem><lyric number="1"><syllabic>single</syllabic><text>ry</text></lyric></note><note default-y="-15.00" default-x="96.68"><pitch><step>C</step><octave>5</octave></pitch><duration>1</duration><voice>1</voice><type>quarter</type><stem>down</stem><lyric number="1"><syllabic>begin</syllabic><text>bo</text></lyric></note></measure><measure width="125.26" number="10"><note default-y="-15.00" default-x="15.00"><pitch><step>C</step><octave>5</octave></pitch><duration>1</duration><voice>1</voice><type>quarter</type><stem>down</stem></note><note default-y="-20.00" default-x="44.44"><pitch><step>B</step><alter>-1</alter><octave>4</octave></pitch><duration>1</duration><voice>1</voice><type>quarter</type><stem>down</stem><lyric number="1"><syllabic>end</syllabic><text>dy</text></lyric></note><note default-y="-30.00" default-x="78.24"><pitch><step>G</step><octave>4</octave></pitch><duration>2</duration><voice>1</voice><type>half</type><stem>up</stem><lyric number="1"><syllabic>single</syllabic><text>can</text></lyric></note></measure><measure width="123.84" number="11"><harmony print-frame="no"><root><root-step>B</root-step><root-alter>-1</root-alter></root><kind text="">major</kind></harmony><note default-y="-35.00" default-x="19.10"><pitch><step>F</step><octave>4</octave></pitch><duration>2</duration><voice>1</voice><type>half</type><stem>up</stem><lyric number="1"><syllabic>single</syllabic><text>be</text></lyric></note><note default-y="-45.00" default-x="62.92"><pitch><step>D</step><octave>4</octave></pitch><duration>1</duration><voice>1</voice><type>quarter</type><stem>up</stem><lyric number="1"><syllabic>single</syllabic><text>in</text></lyric></note><harmony print-frame="no"><root><root-step>G</root-step></root><kind text="7">dominant</kind></harmony><note default-y="-25.00" default-x="94.85"><pitch><step>A</step><octave>4</octave></pitch><duration>1</duration><voice>1</voice><type>quarter</type><stem>up</stem><lyric number="1"><syllabic>begin</syllabic><text>clo</text></lyric></note></measure><measure width="93.33" number="12"><note default-y="-25.00" default-x="15.00"><pitch><step>A</step><octave>4</octave></pitch><duration>1</duration><voice>1</voice><type>quarter</type><stem>up</stem></note><note default-y="-30.00" default-x="47.56"><pitch><step>G</step><octave>4</octave></pitch><duration>3</duration><voice>1</voice><type>half</type><dot/><stem>up</stem><lyric number="1"><syllabic>end</syllabic><text>ver</text></lyric></note></measure><measure width="107.55" number="13"><harmony print-frame="no"><root><root-step>C</root-step></root><kind text="7">dominant</kind></harmony><note default-y="-20.00" default-x="27.24"><pitch><step>B</step><alter>-1</alter><octave>4</octave></pitch><duration>2</duration><voice>1</voice><type>half</type><stem>down</stem><lyric number="1"><syllabic>begin</syllabic><text>Hap</text></lyric></note><note default-y="-30.00" default-x="66.59"><pitch><step>G</step><octave>4</octave></pitch><duration>2</duration><voice>1</voice><type>half</type><stem>up</stem><lyric number="1"><syllabic>single</syllabic><text>py</text></lyric></note></measure><measure width="99.40" number="14"><note default-y="-25.00" default-x="17.85"><pitch><step>A</step><octave>4</octave></pitch><duration>2</duration><voice>1</voice><type>half</type><stem>up</stem><lyric number="1"><syllabic>single</syllabic><text>as</text></lyric></note><note default-y="-20.00" default-x="57.83"><pitch><step>B</step><alter>-1</alter><octave>4</octave></pitch><duration>2</duration><voice>1</voice><type>half</type><stem>down</stem><lyric number="1"><syllabic>single</syllabic><text>can</text></lyric></note></measure><measure width="144.46" number="15"><print new-system="yes"><system-layout><system-margins><left-margin>109.38</left-margin><right-margin>0.00</right-margin></system-margins><system-distance>129.51</system-distance></system-layout></print><harmony print-frame="no"><root><root-step>F</root-step></root><kind text="7">dominant</kind></harmony><note default-y="-15.00" default-x="88.90"><pitch><step>C</step><octave>5</octave></pitch><duration>4</duration><tie type="start"/><voice>1</voice><type>whole</type><notations><tied type="start"/></notations><lyric number="1"><syllabic>single</syllabic><text>be</text></lyric></note></measure><measure width="102.35" number="16"><note default-y="-15.00" default-x="15.00"><pitch><step>C</step><octave>5</octave></pitch><duration>1</duration><tie type="stop"/><voice>1</voice><type>quarter</type><stem>down</stem><notations><tied type="stop"/></notations></note><note><rest/><duration>1</duration><voice>1</voice><type>quarter</type></note><note><rest/><duration>2</duration><voice>1</voice><type>half</type></note><barline location="right"><bar-style>light-light</bar-style></barline></measure><measure width="184.08" number="17"><harmony print-frame="no"><root><root-step>F</root-step></root><kind text="">major</kind></harmony><note><rest/><duration>1</duration><voice>1</voice><type>quarter</type></note><note default-y="-35.00" default-x="57.68"><pitch><step>F</step><octave>4</octave></pitch><duration>1</duration><voice>1</voice><type>quarter</type><stem>up</stem><lyric number="1"><syllabic>single</syllabic><text>When</text></lyric></note><note default-y="-35.00" default-x="101.78"><pitch><step>F</step><octave>4</octave></pitch><duration>1</duration><voice>1</voice><type>quarter</type><stem>up</stem><lyric number="1"><syllabic>single</syllabic><text>all</text></lyric></note><note default-y="-35.00" default-x="135.35"><pitch><step>F</step><octave>4</octave></pitch><duration>1</duration><voice>1</voice><type>quarter</type><stem>up</stem><lyric number="1"><syllabic>single</syllabic><text>the</text></lyric></note></measure><measure width="169.59" number="18"><barline location="left"><bar-style>heavy-light</bar-style><repeat direction="forward"/></barline><harmony print-frame="no"><root><root-step>B</root-step><root-alter>-1</root-alter></root><kind text="">major</kind></harmony><note default-y="-35.00" default-x="31.01"><pitch><step>F</step><octave>4</octave></pitch><duration>2</duration><voice>1</voice><type>half</type><stem>up</stem><lyric number="1"><syllabic>single</syllabic><text>skies</text></lyric></note><note default-y="-45.00" default-x="90.87"><pitch><step>D</step><octave>4</octave></pitch><duration>1</duration><voice>1</voice><type>quarter</type><stem>up</stem><lyric number="1"><syllabic>single</syllabic><text>are</text></lyric></note><note default-y="-35.00" default-x="130.58"><pitch><step>F</step><octave>4</octave></pitch><duration>1</duration><tie type="start"/><voice>1</voice><type>quarter</type><stem>up</stem><notations><tied type="start"/></notations><lyric number="1"><syllabic>single</syllabic><text>grey</text></lyric></note></measure><measure width="154.29" number="19"><note default-y="-35.00" default-x="15.00"><pitch><step>F</step><octave>4</octave></pitch><duration>1</duration><tie type="stop"/><voice>1</voice><type>quarter</type><stem>up</stem><notations><tied type="stop"/></notations></note><note default-y="-20.00" default-x="49.44"><pitch><step>B</step><alter>-1</alter><octave>4</octave></pitch><duration>1</duration><voice>1</voice><type>quarter</type><stem>down</stem><lyric number="1"><syllabic>single</syllabic><text>and</text></lyric></note><note default-y="-20.00" default-x="83.86"><pitch><step>B</step><alter>-1</alter><octave>4</octave></pitch><duration>1</duration><voice>1</voice><type>quarter</type><stem>down</stem><lyric number="1"><syllabic>single</syllabic><text>its</text></lyric></note><note default-y="-20.00" default-x="118.27"><pitch><step>B</step><alter>-1</alter><octave>4</octave></pitch><duration>1</duration><voice>1</voice><type>quarter</type><stem>down</stem><lyric number="1"><syllabic>single</syllabic><text>a</text></lyric></note></measure><measure width="142.39" number="20"><harmony print-frame="no"><root><root-step>E</root-step><root-alter>-1</root-alter></root><kind text="">major</kind></harmony><note default-y="-20.00" default-x="25.99"><pitch><step>B</step><alter>-1</alter><octave>4</octave></pitch><duration>2</duration><voice>1</voice><type>half</type><stem>down</stem><lyric number="1"><syllabic>begin</syllabic><text>rain</text></lyric></note><note default-y="-30.00" default-x="75.44"><pitch><step>G</step><octave>4</octave></pitch><duration>1</duration><voice>1</voice><type>quarter</type><stem>up</stem><lyric number="1"><syllabic>end</syllabic><text>y</text></lyric></note><note default-y="-20.00" default-x="109.88"><pitch><step>B</step><alter>-1</alter><octave>4</octave></pitch><duration>1</duration><tie type="start"/><voice>1</voice><type>quarter</type><stem>down</stem><notations><tied type="start"/></notations><lyric number="1"><syllabic>single</syllabic><text>day</text></lyric></note></measure><measure width="70.55" number="21"><note default-y="-20.00" default-x="15.00"><pitch><step>B</step><alter>-1</alter><octave>4</octave></pitch><duration>4</duration><tie type="stop"/><voice>1</voice><type>whole</type><notations><tied type="stop"/></notations></note></measure><measure width="290.36" number="22"><print new-system="yes"><system-layout><system-margins><left-margin>109.38</left-margin><right-margin>0.00</right-margin></system-margins><system-distance>129.51</system-distance></system-layout></print><harmony print-frame="no"><root><root-step>B</root-step><root-alter>-1</root-alter></root><kind text="">major</kind></harmony><note default-y="-35.00" default-x="105.19"><pitch><step>F</step><octave>4</octave></pitch><duration>1</duration><voice>1</voice><type>quarter</type><stem>up</stem><lyric number="1"><syllabic>single</syllabic><text>Think</text></lyric></note><note default-y="-30.00" default-x="151.08"><pitch><step>G</step><octave>4</octave></pitch><duration>1</duration><voice>1</voice><type>quarter</type><stem>up</stem><lyric number="1"><syllabic>single</syllabic><text>of</text></lyric></note><note default-y="-35.00" default-x="196.98"><pitch><step>F</step><octave>4</octave></pitch><duration>1</duration><voice>1</voice><type>quarter</type><stem>up</stem><lyric number="1"><syllabic>single</syllabic><text>the</text></lyric></note><note default-y="-45.00" default-x="242.87"><pitch><step>D</step><octave>4</octave></pitch><duration>1</duration><tie type="start"/><voice>1</voice><type>quarter</type><stem>up</stem><notations><tied type="start"/></notations><lyric number="1"><syllabic>single</syllabic><text>bird</text></lyric></note></measure><measure width="140.85" number="23"><harmony print-frame="no"><root><root-step>G</root-step></root><kind text="m7">minor-seventh</kind></harmony><note default-y="-45.00" default-x="15.00"><pitch><step>D</step><octave>4</octave></pitch><duration>1</duration><tie type="stop"/><voice>1</voice><type>quarter</type><stem>up</stem><notations><tied type="stop"/></notations></note><note default-y="-35.00" default-x="49.51"><pitch><step>F</step><octave>4</octave></pitch><duration>1</duration><voice>1</voice><type>quarter</type><stem>up</stem><lyric number="1"><syllabic>single</syllabic><text>ies</text></lyric></note><note default-y="-20.00" default-x="84.03"><pitch><step>B</step><alter>-1</alter><octave>4</octave></pitch><duration>2</duration><voice>1</voice><type>half</type><stem>down</stem><lyric number="1"><syllabic>single</syllabic><text>in</text></lyric></note></measure><measure width="123.58" number="24"><harmony print-frame="no"><root><root-step>C</root-step></root><kind text="7">dominant</kind></harmony><note default-y="-15.00" default-x="38.53"><pitch><step>C</step><octave>5</octave></pitch><duration>4</duration><tie type="start"/><voice>1</voice><type>whole</type><notations><tied type="start"/></notations><lyric number="1"><syllabic>single</syllabic><text>Spring</text></lyric></note></measure><measure width="203.30" number="25"><note default-y="-15.00" default-x="15.00"><pitch><step>C</step><octave>5</octave></pitch><duration>1</duration><tie type="stop"/><voice>1</voice><type>quarter</type><stem>down</stem><notations><tied type="stop"/></notations></note><harmony print-frame="no"><root><root-step>A</root-step></root><kind text="">major</kind></harmony><note default-y="-10.00" default-x="66.86"><pitch><step>D</step><octave>5</octave></pitch><duration>2</duration><voice>1</voice><type>half</type><stem>down</stem><lyric number="1"><syllabic>single</syllabic><text>When</text></lyric></note><note default-y="-15.00" default-x="149.84"><pitch><step>C</step><octave>5</octave></pitch><duration>1</duration><voice>1</voice><type>quarter</type><stem>down</stem><lyric number="1"><syllabic>single</syllabic><text>you're</text></lyric></note></measure><measure width="209.63" number="26"><harmony print-frame="no"><root><root-step>B</root-step><root-alter>-1</root-alter></root><kind text="">major</kind></harmony><note default-y="-20.00" default-x="19.74"><pitch><step>B</step><alter>-1</alter><octave>4</octave></pitch><duration>1</duration><voice>1</voice><type>quarter</type><stem>down</stem><lyric number="1"><syllabic>single</syllabic><text>up</text></lyric></note><note default-y="-25.00" default-x="66.54"><pitch><step>A</step><octave>4</octave></pitch><duration>1</duration><voice>1</voice><type>quarter</type><stem>up</stem><lyric number="1"><syllabic>single</syllabic><text>to</text></lyric></note><note default-y="-20.00" default-x="113.35"><pitch><step>B</step><alter>-1</alter><octave>4</octave></pitch><duration>1</duration><voice>1</voice><type>quarter</type><stem>down</stem><lyric number="1"><syllabic>single</syllabic><text>your</text></lyric></note><harmony print-frame="no"><root><root-step>A</root-step></root><kind text="7">dominant</kind></harmony><note default-y="-30.00" default-x="161.22"><pitch><step>G</step><octave>4</octave></pitch><duration>1</duration><tie type="start"/><voice>1</voice><type>quarter</type><stem>up</stem><notations><tied type="start"/></notations><lyric number="1"><syllabic>single</syllabic><text>neck</text></lyric></note></measure><measure width="197.04" number="27"><print new-system="yes"><system-layout><system-margins><left-margin>109.38</left-margin><right-margin>0.00</right-margin></system-margins><system-distance>129.51</system-distance></system-layout></print><note default-y="-30.00" default-x="77.30"><pitch><step>G</step><octave>4</octave></pitch><duration>1</duration><tie type="stop"/><voice>1</voice><type>quarter</type><stem>up</stem><notations><tied type="stop"/></notations></note><note default-y="-25.00" default-x="110.12"><pitch><step>A</step><octave>4</octave></pitch><duration>1</duration><voice>1</voice><type>quarter</type><stem>up</stem><lyric number="1"><syllabic>single</syllabic><text>in</text></lyric></note><note default-y="-30.00" default-x="142.93"><pitch><step>G</step><octave>4</octave></pitch><duration>2</duration><voice>1</voice><type>half</type><stem>up</stem><lyric number="1"><syllabic>single</syllabic><text>hot</text></lyric></note></measure><measure width="86.39" number="28"><harmony print-frame="no"><root><root-step>A</root-step><root-alter>-1</root-alter></root><kind text="">major</kind></harmony><note default-y="-35.00" default-x="21.60"><pitch><step>F</step><octave>4</octave></pitch><duration>4</duration><voice>1</voice><type>whole</type><lyric number="1"><syllabic>begin</syllabic><text>wa</text></lyric></note></measure><measure width="85.14" number="29"><harmony print-frame="no"><root><root-step>G</root-step></root><kind text="7">dominant</kind></harmony><note default-y="-30.00" default-x="20.35"><pitch><step>G</step><octave>4</octave></pitch><duration>4</duration><voice>1</voice><type>whole</type><lyric number="1"><syllabic>end</syllabic><text>ter</text></lyric></note></measure><measure width="183.85" number="30"><harmony print-frame="no"><root><root-step>C</root-step></root><kind text="7">dominant</kind></harmony><note default-y="-20.00" default-x="19.10"><pitch><step>B</step><alter>-1</alter><octave>4</octave></pitch><duration>1</duration><voice>1</voice><type>quarter</type><stem>down</stem><lyric number="1"><syllabic>single</syllabic><text>be</text></lyric></note><note default-y="-25.00" default-x="59.89"><pitch><step>A</step><octave>4</octave></pitch><duration>1</duration><voice>1</voice><type>quarter</type><stem>up</stem><lyric number="1"><syllabic>single</syllabic><text>like</text></lyric></note><note default-y="-30.00" default-x="100.68"><pitch><step>G</step><octave>4</octave></pitch><duration>1</duration><voice>1</voice><type>quarter</type><stem>up</stem><lyric number="1"><syllabic>single</syllabic><text>the</text></lyric></note><note default-y="-30.00" default-x="141.46"><pitch><step>G</step><octave>4</octave></pitch><duration>1</duration><tie type="start"/><voice>1</voice><type>quarter</type><stem>up</stem><notations><tied type="start"/></notations><lyric number="1"><syllabic>end</syllabic><text>ket</text></lyric></note></measure><measure width="140.98" number="31"><note default-y="-30.00" default-x="15.00"><pitch><step>G</step><octave>4</octave></pitch><duration>1</duration><tie type="stop"/><voice>1</voice><type>quarter</type><stem>up</stem><notations><tied type="stop"/></notations></note><note default-y="-25.00" default-x="49.55"><pitch><step>A</step><octave>4</octave></pitch><duration>1</duration><voice>1</voice><type>quarter</type><stem>up</stem><lyric number="1"><syllabic>single</syllabic><text>tle</text></lyric></note><note default-y="-20.00" default-x="84.10"><pitch><step>B</step><alter>-1</alter><octave>4</octave></pitch><duration>2</duration><voice>1</voice><type>half</type><stem>down</stem><lyric number="1"><syllabic>single</syllabic><text>and</text></lyric></note></measure><measure width="92.05" number="32"><harmony print-frame="no"><root><root-step>F</root-step></root><kind text="7">dominant</kind></harmony><note default-y="-15.00" default-x="27.26"><pitch><step>C</step><octave>5</octave></pitch><duration>4</duration><tie type="start"/><voice>1</voice><type>whole</type><notations><tied type="start"/></notations><lyric number="1"><syllabic>single</syllabic><text>sing</text></lyric></note></measure><measure width="182.26" number="33"><harmony print-frame="no"><root><root-step>A</root-step><root-alter>-1</root-alter></root><kind text="7">dominant</kind></harmony><note default-y="-15.00" default-x="15.00"><pitch><step>C</step><octave>5</octave></pitch><duration>1</duration><tie type="stop"/><voice>1</voice><type>quarter</type><stem>down</stem><notations><tied type="stop"/></notations></note><harmony print-frame="no"><root><root-step>F</root-step></root><kind text="7">dominant</kind></harmony><note default-y="-35.00" default-x="56.41"><pitch><step>F</step><octave>4</octave></pitch><duration>1</duration><voice>1</voice><type>quarter</type><stem>up</stem><lyric number="1"><syllabic>single</syllabic><text>tell</text></lyric></note><note default-y="-35.00" default-x="97.83"><pitch><step>F</step><octave>4</octave></pitch><duration>1</duration><voice>1</voice><type>quarter</type><stem>up</stem><lyric number="1"><syllabic>single</syllabic><text>that</text></lyric></note><note default-y="-35.00" default-x="139.24"><pitch><step>F</step><octave>4</octave></pitch><duration>1</duration><voice>1</voice><type>quarter</type><stem>up</stem><lyric number="1"><syllabic>begin</syllabic><text>um</text></lyric></note></measure><measure width="233.02" number="34"><print new-system="yes"><system-layout><system-margins><left-margin>109.38</left-margin><right-margin>0.00</right-margin></system-margins><system-distance>129.51</system-distance></system-layout></print><harmony print-frame="no"><root><root-step>B</root-step><root-alter>-1</root-alter></root><kind text="">major</kind></harmony><note default-y="-35.00" default-x="95.79"><pitch><step>F</step><octave>4</octave></pitch><duration>2</duration><voice>1</voice><type>half</type><stem>up</stem><lyric number="1"><syllabic>middle</syllabic><text>brel</text></lyric></note><note default-y="-45.00" default-x="156.07"><pitch><step>D</step><octave>4</octave></pitch><duration>1</duration><voice>1</voice><type>quarter</type><stem>up</stem><lyric number="1"><syllabic>end</syllabic><text>la</text></lyric></note><note default-y="-35.00" default-x="193.74"><pitch><step>F</step><octave>4</octave></pitch><duration>1</duration><tie type="start"/><voice>1</voice><type>quarter</type><stem>up</stem><notations><tied type="start"/></notations><lyric number="1"><syllabic>single</syllabic><text>man</text></lyric></note></measure><measure width="183.26" number="35"><note default-y="-35.00" default-x="15.00"><pitch><step>F</step><octave>4</octave></pitch><duration>1</duration><tie type="stop"/><voice>1</voice><type>quarter</type><stem>up</stem><notations><tied type="stop"/></notations></note><note default-y="-20.00" default-x="56.66"><pitch><step>B</step><alter>-1</alter><octave>4</octave></pitch><duration>1</duration><voice>1</voice><type>quarter</type><stem>down</stem><lyric number="1"><syllabic>single</syllabic><text>he's</text></lyric></note><note default-y="-20.00" default-x="98.33"><pitch><step>B</step><alter>-1</alter><octave>4</octave></pitch><duration>1</duration><voice>1</voice><type>quarter</type><stem>down</stem><lyric number="1"><syllabic>single</syllabic><text>just</text></lyric></note><note default-y="-20.00" default-x="139.99"><pitch><step>B</step><alter>-1</alter><octave>4</octave></pitch><duration>1</duration><voice>1</voice><type>quarter</type><stem>down</stem><lyric number="1"><syllabic>single</syllabic><text>an</text></lyric></note></measure><measure width="143.15" number="36"><harmony print-frame="no"><root><root-step>E</root-step><root-alter>-1</root-alter></root><kind text="">major</kind></harmony><note default-y="-20.00" default-x="18.63"><pitch><step>B</step><alter>-1</alter><octave>4</octave></pitch><duration>2</duration><voice>1</voice><type>half</type><stem>down</stem><lyric number="1"><syllabic>single</syllabic><text>'al</text></lyric></note><note default-y="-30.00" default-x="73.26"><pitch><step>G</step><octave>4</octave></pitch><duration>1</duration><voice>1</voice><type>quarter</type><stem>up</stem><lyric number="1"><syllabic>single</syllabic><text>so</text></lyric></note><note default-y="-20.00" default-x="107.41"><pitch><step>B</step><alter>-1</alter><octave>4</octave></pitch><duration>1</duration><tie type="start"/><voice>1</voice><type>quarter</type><stem>down</stem><notations><tied type="start"/></notations><lyric number="1"><syllabic>single</syllabic><text>ran</text></lyric></note></measure><measure width="82.63" number="37"><note default-y="-20.00" default-x="15.00"><pitch><step>B</step><alter>-1</alter><octave>4</octave></pitch><duration>4</duration><tie type="stop"/><voice>1</voice><type>whole</type><notations><tied type="stop"/></notations></note></measure><measure width="196.43" number="38"><harmony print-frame="no"><root><root-step>B</root-step><root-alter>-1</root-alter></root><kind text="">major</kind></harmony><note default-y="-35.00" default-x="35.39"><pitch><step>F</step><octave>4</octave></pitch><duration>1</duration><voice>1</voice><type>quarter</type><stem>up</stem><lyric number="1"><syllabic>single</syllabic><text>Think</text></lyric></note><note default-y="-30.00" default-x="77.63"><pitch><step>G</step><octave>4</octave></pitch><duration>1</duration><voice>1</voice><type>quarter</type><stem>up</stem><lyric number="1"><syllabic>single</syllabic><text>of</text></lyric></note><note default-y="-35.00" default-x="116.70"><pitch><step>F</step><octave>4</octave></pitch><duration>1</duration><voice>1</voice><type>quarter</type><stem>up</stem><lyric number="1"><syllabic>single</syllabic><text>a</text></lyric></note><note default-y="-45.00" default-x="155.76"><pitch><step>D</step><octave>4</octave></pitch><duration>1</duration><tie type="start"/><voice>1</voice><type>quarter</type><stem>up</stem><notations><tied type="start"/></notations><lyric number="1"><syllabic>single</syllabic><text>kid</text></lyric></note></measure><measure width="129.23" number="39"><harmony print-frame="no"><root><root-step>G</root-step></root><kind text="m7">minor-seventh</kind></harmony><note default-y="-45.00" default-x="15.00"><pitch><step>D</step><octave>4</octave></pitch><duration>1</duration><tie type="stop"/><voice>1</voice><type>quarter</type><stem>up</stem><notations><tied type="stop"/></notations></note><note default-y="-35.00" default-x="46.29"><pitch><step>F</step><octave>4</octave></pitch><duration>1</duration><voice>1</voice><type>quarter</type><stem>up</stem><lyric number="1"><syllabic>single</syllabic><text>on</text></lyric></note><note default-y="-20.00" default-x="77.57"><pitch><step>B</step><alter>-1</alter><octave>4</octave></pitch><duration>2</duration><voice>1</voice><type>half</type><stem>down</stem><lyric number="1"><syllabic>single</syllabic><text>a</text></lyric></note></measure><measure width="193.60" number="40"><print new-system="yes"><system-layout><system-margins><left-margin>109.38</left-margin><right-margin>0.00</right-margin></system-margins><system-distance>129.51</system-distance></system-layout></print><harmony print-frame="no"><root><root-step>C</root-step></root><kind text="7">dominant</kind></harmony><note default-y="-15.00" default-x="105.19"><pitch><step>C</step><octave>5</octave></pitch><duration>4</duration><tie type="start"/><voice>1</voice><type>whole</type><notations><tied type="start"/></notations><lyric number="1"><syllabic>single</syllabic><text>swing</text></lyric></note></measure><measure width="204.79" number="41"><note default-y="-15.00" default-x="15.00"><pitch><step>C</step><octave>5</octave></pitch><duration>1</duration><tie type="stop"/><voice>1</voice><type>quarter</type><stem>down</stem><notations><tied type="stop"/></notations></note><harmony print-frame="no"><root><root-step>F</root-step></root><kind text="7">dominant</kind></harmony><note default-y="-10.00" default-x="67.28"><pitch><step>D</step><octave>5</octave></pitch><duration>2</duration><voice>1</voice><type>half</type><stem>down</stem><lyric number="1"><syllabic>single</syllabic><text>when</text></lyric></note><note default-y="-15.00" default-x="150.92"><pitch><step>C</step><octave>5</octave></pitch><duration>1</duration><voice>1</voice><type>quarter</type><stem>down</stem><lyric number="1"><syllabic>single</syllabic><text>you're</text></lyric></note></measure><measure width="216.12" number="42"><harmony print-frame="no"><root><root-step>B</root-step><root-alter>-1</root-alter></root><kind text="">major</kind></harmony><note default-y="-20.00" default-x="19.74"><pitch><step>B</step><alter>-1</alter><octave>4</octave></pitch><duration>1</duration><voice>1</voice><type>quarter</type><stem>down</stem><lyric number="1"><syllabic>single</syllabic><text>up</text></lyric></note><note default-y="-25.00" default-x="68.43"><pitch><step>A</step><octave>4</octave></pitch><duration>1</duration><voice>1</voice><type>quarter</type><stem>up</stem><lyric number="1"><syllabic>single</syllabic><text>to</text></lyric></note><note default-y="-20.00" default-x="117.13"><pitch><step>B</step><alter>-1</alter><octave>4</octave></pitch><duration>1</duration><voice>1</voice><type>quarter</type><stem>down</stem><lyric number="1"><syllabic>single</syllabic><text>your</text></lyric></note><harmony print-frame="no"><root><root-step>A</root-step></root><kind text="7">dominant</kind></harmony><note default-y="-30.00" default-x="165.83"><pitch><step>G</step><octave>4</octave></pitch><duration>1</duration><tie type="start"/><voice>1</voice><type>quarter</type><stem>up</stem><notations><tied type="start"/></notations><lyric number="1"><syllabic>single</syllabic><text>neck</text></lyric></note></measure><measure width="150.38" number="43"><note default-y="-30.00" default-x="15.00"><pitch><step>G</step><octave>4</octave></pitch><duration>1</duration><tie type="stop"/><voice>1</voice><type>quarter</type><stem>up</stem><notations><tied type="stop"/></notations></note><note default-y="-25.00" default-x="52.16"><pitch><step>A</step><octave>4</octave></pitch><duration>1</duration><voice>1</voice><type>quarter</type><stem>up</stem><lyric number="1"><syllabic>single</syllabic><text>in</text></lyric></note><note default-y="-30.00" default-x="89.32"><pitch><step>G</step><octave>4</octave></pitch><duration>2</duration><voice>1</voice><type>half</type><stem>up</stem><lyric number="1"><syllabic>single</syllabic><text>hot</text></lyric></note></measure><measure width="102.04" number="44"><harmony print-frame="no"><root><root-step>A</root-step><root-alter>-1</root-alter></root><kind text="">major</kind></harmony><note default-y="-35.00" default-x="21.60"><pitch><step>F</step><octave>4</octave></pitch><duration>4</duration><voice>1</voice><type>whole</type><lyric number="1"><syllabic>single</syllabic><text>wa</text></lyric></note></measure><measure width="100.79" number="45"><harmony print-frame="no"><root><root-step>G</root-step></root><kind text="7">dominant</kind></harmony><note default-y="-10.00" default-x="20.35"><pitch><step>D</step><octave>5</octave></pitch><duration>4</duration><voice>1</voice><type>whole</type><lyric number="1"><syllabic>single</syllabic><text>ter</text></lyric></note></measure><measure width="281.94" number="46"><print new-system="yes"><system-layout><system-margins><left-margin>109.38</left-margin><right-margin>0.00</right-margin></system-margins><system-distance>129.51</system-distance></system-layout></print><harmony print-frame="no"><root><root-step>C</root-step></root><kind text="7">dominant</kind></harmony><note default-y="-10.00" default-x="88.90"><pitch><step>D</step><octave>5</octave></pitch><duration>1</duration><voice>1</voice><type>quarter</type><stem>down</stem><lyric number="1"><syllabic>single</syllabic><text>be</text></lyric></note><note default-y="-15.00" default-x="136.76"><pitch><step>C</step><octave>5</octave></pitch><duration>1</duration><voice>1</voice><type>quarter</type><stem>down</stem><lyric number="1"><syllabic>single</syllabic><text>like</text></lyric></note><harmony print-frame="no"><root><root-step>F</root-step></root><kind text="7">dominant</kind></harmony><note default-y="-20.00" default-x="184.62"><pitch><step>B</step><alter>-1</alter><octave>4</octave></pitch><duration>1</duration><voice>1</voice><type>quarter</type><stem>down</stem><lyric number="1"><syllabic>single</syllabic><text>the</text></lyric></note><note default-y="-25.00" default-x="232.48"><pitch><step>A</step><octave>4</octave></pitch><duration>1</duration><tie type="start"/><voice>1</voice><type>quarter</type><stem>up</stem><notations><tied type="start"/></notations><lyric number="1"><syllabic>single</syllabic><text>ket</text></lyric></note></measure><measure width="169.27" number="47"><note default-y="-25.00" default-x="15.00"><pitch><step>A</step><octave>4</octave></pitch><duration>1</duration><tie type="stop"/><voice>1</voice><type>quarter</type><stem>up</stem><notations><tied type="stop"/></notations></note><note default-y="-20.00" default-x="57.41"><pitch><step>B</step><alter>-1</alter><octave>4</octave></pitch><duration>1</duration><voice>1</voice><type>quarter</type><stem>down</stem><lyric number="1"><syllabic>single</syllabic><text>tle</text></lyric></note><note default-y="-15.00" default-x="99.82"><pitch><step>C</step><octave>5</octave></pitch><duration>2</duration><voice>1</voice><type>half</type><stem>down</stem><lyric number="1"><syllabic>single</syllabic><text>and</text></lyric></note></measure><measure width="120.34" number="48"><harmony print-frame="no"><root><root-step>B</root-step><root-alter>-1</root-alter></root><kind text="">major</kind></harmony><note default-y="-20.00" default-x="27.26"><pitch><step>B</step><alter>-1</alter><octave>4</octave></pitch><duration>4</duration><tie type="start"/><voice>1</voice><type>whole</type><notations><tied type="start"/></notations><lyric number="1"><syllabic>single</syllabic><text>sing</text></lyric></note></measure><measure width="248.45" number="49"><harmony print-frame="no"><root><root-step>E</root-step><root-alter>-1</root-alter></root><kind text="">major</kind></harmony><note default-y="-20.00" default-x="15.00"><pitch><step>B</step><alter>-1</alter><octave>4</octave></pitch><duration>1</duration><tie type="stop"/><voice>1</voice><type>quarter</type><stem>down</stem><notations><tied type="stop"/></notations></note><harmony print-frame="no"><root><root-step>B</root-step><root-alter>-1</root-alter></root><kind text="">major</kind></harmony><note default-y="-20.00" default-x="72.96"><pitch><step>B</step><alter>-1</alter><octave>4</octave></pitch><duration>1</duration><voice>1</voice><type>quarter</type><stem>down</stem><lyric number="1"><syllabic>single</syllabic><text>You';ll</text></lyric></note><note default-y="-20.00" default-x="130.93"><pitch><step>B</step><alter>-1</alter><octave>4</octave></pitch><duration>1</duration><voice>1</voice><type>quarter</type><stem>down</stem><lyric number="1"><syllabic>single</syllabic><text>find</text></lyric></note><note default-y="-20.00" default-x="188.89"><pitch><step>B</step><alter>-1</alter><octave>4</octave></pitch><duration>1</duration><voice>1</voice><type>quarter</type><stem>down</stem><lyric number="1"><syllabic>single</syllabic><text>that</text></lyric></note></measure><measure width="147.71" number="50"><harmony print-frame="no"><root><root-step>A</root-step><root-alter>-1</root-alter></root><kind text="7">dominant</kind></harmony><note default-y="-20.00" default-x="27.87"><pitch><step>B</step><alter>-1</alter><octave>4</octave></pitch><duration>3</duration><voice>1</voice><type>half</type><dot/><stem>down</stem><lyric number="1"><syllabic>single</syllabic><text>lifes</text></lyric></note><note default-y="-50.00" default-x="106.04"><pitch><step>C</step><octave>4</octave></pitch><duration>1</duration><tie type="start"/><voice>1</voice><type>quarter</type><stem>up</stem><notations><tied type="start"/></notations><lyric number="1"><syllabic>begin</syllabic><text>al</text></lyric></note></measure><measure width="246.01" number="51"><print new-page="yes"><system-layout><system-margins><left-margin>109.38</left-margin><right-margin>0.00</right-margin></system-margins><top-system-distance>70.00</top-system-distance></system-layout></print><note default-y="-50.00" default-x="77.30"><pitch><step>C</step><octave>4</octave></pitch><duration>1</duration><tie type="stop"/><voice>1</voice><type>quarter</type><stem>up</stem><notations><tied type="stop"/></notations></note><note default-y="-40.00" default-x="118.63"><pitch><step>E</step><alter>-1</alter><octave>4</octave></pitch><duration>1</duration><voice>1</voice><type>quarter</type><stem>up</stem><lyric number="1"><syllabic>end</syllabic><text>ways</text></lyric></note><note default-y="-30.00" default-x="162.12"><pitch><step>G</step><alter>-1</alter><octave>4</octave></pitch><duration>1</duration><voice>1</voice><type>quarter</type><accidental>flat</accidental><stem>up</stem><lyric number="1"><syllabic>single</syllabic><text>got</text></lyric></note><note default-y="-20.00" default-x="203.27"><pitch><step>B</step><alter>-1</alter><octave>4</octave></pitch><duration>1</duration><voice>1</voice><type>quarter</type><stem>down</stem><lyric number="1"><syllabic>single</syllabic><text>a</text></lyric></note></measure><measure width="156.52" number="52"><harmony print-frame="no"><root><root-step>D</root-step><root-alter>-1</root-alter></root><kind text="">major</kind></harmony><note default-y="-25.00" default-x="23.49"><pitch><step>A</step><alter>-1</alter><octave>4</octave></pitch><duration>2</duration><voice>1</voice><type>half</type><accidental>flat</accidental><stem>up</stem><lyric number="1"><syllabic>begin</syllabic><text>fun</text></lyric></note><note default-y="-35.00" default-x="81.90"><pitch><step>F</step><octave>4</octave></pitch><duration>1</duration><voice>1</voice><type>quarter</type><stem>up</stem><lyric number="1"><syllabic>end</syllabic><text>ny</text></lyric></note><note default-y="-25.00" default-x="118.41"><pitch><step>A</step><alter>-1</alter><octave>4</octave></pitch><duration>1</duration><tie type="start"/><voice>1</voice><type>quarter</type><stem>up</stem><notations><tied type="start"/></notations><lyric number="1"><syllabic>single</syllabic><text>side</text></lyric></note></measure><measure width="103.19" number="53"><note default-y="-25.00" default-x="15.00"><pitch><step>A</step><alter>-1</alter><octave>4</octave></pitch><duration>2</duration><tie type="stop"/><voice>1</voice><type>half</type><accidental>flat</accidental><stem>up</stem><notations><tied type="stop"/></notations></note><note default-y="-25.00" default-x="58.29"><pitch><step>A</step><alter>-1</alter><octave>4</octave></pitch><duration>2</duration><voice>1</voice><type>half</type><accidental>flat</accidental><stem>up</stem><lyric number="1"><syllabic>single</syllabic><text>so</text></lyric></note></measure><measure width="133.04" number="54"><harmony print-frame="no"><root><root-step>E</root-step><root-alter>-1</root-alter></root><kind text="">major</kind></harmony><note default-y="-30.00" default-x="32.87"><pitch><step>G</step><octave>4</octave></pitch><duration>3</duration><voice>1</voice><type>half</type><dot/><stem>up</stem><lyric number="1"><syllabic>single</syllabic><text>come</text></lyric></note><note default-y="-50.00" default-x="98.03"><pitch><step>C</step><octave>4</octave></pitch><duration>1</duration><tie type="start"/><voice>1</voice><type>quarter</type><stem>up</stem><notations><tied type="start"/></notations><lyric number="1"><syllabic>begin</syllabic><text>ov</text></lyric></note></measure><measure width="171.17" number="55"><note default-y="-50.00" default-x="15.00"><pitch><step>C</step><octave>4</octave></pitch><duration>1</duration><tie type="stop"/><voice>1</voice><type>quarter</type><stem>up</stem><notations><tied type="stop"/></notations></note><note default-y="-45.00" default-x="53.64"><pitch><step>D</step><alter>-1</alter><octave>4</octave></pitch><duration>1</duration><voice>1</voice><type>quarter</type><accidental>flat</accidental><stem>up</stem><lyric number="1"><syllabic>end</syllabic><text>ver</text></lyric></note><note default-y="-40.00" default-x="92.29"><pitch><step>E</step><alter>-1</alter><octave>4</octave></pitch><duration>1</duration><voice>1</voice><type>quarter</type><stem>up</stem><lyric number="1"><syllabic>single</syllabic><text>on</text></lyric></note><note default-y="-30.00" default-x="130.93"><pitch><step>G</step><alter>-1</alter><octave>4</octave></pitch><duration>1</duration><voice>1</voice><type>quarter</type><accidental>flat</accidental><stem>up</stem><lyric number="1"><syllabic>single</syllabic><text>the</text></lyric></note></measure><measure width="157.79" number="56"><harmony print-frame="no"><root><root-step>F</root-step></root><kind text="7">dominant</kind></harmony><note default-y="-35.00" default-x="24.12"><pitch><step>F</step><octave>4</octave></pitch><duration>2</duration><voice>1</voice><type>half</type><stem>up</stem><lyric number="1"><syllabic>begin</syllabic><text>sun</text></lyric></note><harmony print-frame="no"><root><root-step>E</root-step><root-alter>-1</root-alter></root><kind text="">major</kind></harmony><note default-y="-50.00" default-x="82.82"><pitch><step>C</step><octave>4</octave></pitch><duration>1</duration><voice>1</voice><type>quarter</type><stem>up</stem><lyric number="1"><syllabic>end</syllabic><text>ny</text></lyric></note><harmony print-frame="no"><root><root-step>F</root-step></root><kind text="7">dominant</kind></harmony><note default-y="-35.00" default-x="119.51"><pitch><step>F</step><octave>4</octave></pitch><duration>1</duration><tie type="start"/><voice>1</voice><type>quarter</type><stem>up</stem><notations><tied type="start"/></notations><lyric number="1"><syllabic>single</syllabic><text>side</text></lyric></note></measure><measure width="252.58" number="57"><print new-system="yes"><system-layout><system-margins><left-margin>109.38</left-margin><right-margin>0.00</right-margin></system-margins><system-distance>105.20</system-distance></system-layout></print><note default-y="-35.00" default-x="77.30"><pitch><step>F</step><octave>4</octave></pitch><duration>1</duration><tie type="stop"/><voice>1</voice><type>quarter</type><stem>up</stem><notations><tied type="stop"/></notations></note><note default-y="-35.00" default-x="120.49"><pitch><step>F</step><octave>4</octave></pitch><duration>1</duration><voice>1</voice><type>quarter</type><stem>up</stem><lyric number="1"><syllabic>single</syllabic><text>and</text></lyric></note><note default-y="-35.00" default-x="164.59"><pitch><step>F</step><octave>4</octave></pitch><duration>1</duration><voice>1</voice><type>quarter</type><stem>up</stem><lyric number="1"><syllabic>single</syllabic><text>wear</text></lyric></note><note default-y="-35.00" default-x="207.79"><pitch><step>F</step><octave>4</octave></pitch><duration>1</duration><voice>1</voice><type>quarter</type><stem>up</stem><lyric number="1"><syllabic>single</syllabic><text>a</text></lyric></note></measure><measure width="194.71" number="58"><harmony print-frame="no"><root><root-step>B</root-step><root-alter>-1</root-alter></root><kind text="">major</kind></harmony><note default-y="-35.00" default-x="30.99"><pitch><step>F</step><octave>4</octave></pitch><duration>2</duration><voice>1</voice><type>half</type><stem>up</stem><lyric number="1"><syllabic>single</syllabic><text>great</text></lyric></note><note default-y="-45.00" default-x="103.04"><pitch><step>D</step><octave>4</octave></pitch><duration>1</duration><voice>1</voice><type>quarter</type><stem>up</stem><lyric number="1"><syllabic>single</syllabic><text>big</text></lyric></note><note default-y="-35.00" default-x="148.08"><pitch><step>F</step><octave>4</octave></pitch><duration>1</duration><tie type="start"/><voice>1</voice><type>quarter</type><stem>up</stem><notations><tied type="start"/></notations><lyric number="1"><syllabic>single</syllabic><text>smile</text></lyric></note></measure><measure width="217.24" number="59"><note default-y="-35.00" default-x="15.00"><pitch><step>F</step><octave>4</octave></pitch><duration>1</duration><tie type="stop"/><voice>1</voice><type>quarter</type><stem>up</stem><notations><tied type="stop"/></notations></note><note default-y="-20.00" default-x="65.16"><pitch><step>B</step><alter>-1</alter><octave>4</octave></pitch><duration>1</duration><voice>1</voice><type>quarter</type><stem>down</stem><lyric number="1"><syllabic>single</syllabic><text>you'll</text></lyric></note><note default-y="-20.00" default-x="115.32"><pitch><step>B</step><alter>-1</alter><octave>4</octave></pitch><duration>1</duration><voice>1</voice><type>quarter</type><stem>down</stem><lyric number="1"><syllabic>single</syllabic><text>find</text></lyric></note><note default-y="-20.00" default-x="165.48"><pitch><step>B</step><alter>-1</alter><octave>4</octave></pitch><duration>1</duration><voice>1</voice><type>quarter</type><stem>down</stem><lyric number="1"><syllabic>single</syllabic><text>that</text></lyric></note></measure><measure width="217.55" number="60"><harmony print-frame="no"><root><root-step>E</root-step><root-alter>-1</root-alter></root><kind text="">major</kind></harmony><note default-y="-20.00" default-x="29.90"><pitch><step>B</step><alter>-1</alter><octave>4</octave></pitch><duration>2</duration><voice>1</voice><type>half</type><stem>down</stem><lyric number="1"><syllabic>single</syllabic><text>life's</text></lyric></note><note default-y="-30.00" default-x="109.16"><pitch><step>G</step><octave>4</octave></pitch><duration>1</duration><voice>1</voice><type>quarter</type><stem>up</stem><lyric number="1"><syllabic>single</syllabic><text>worth</text></lyric></note><note default-y="-20.00" default-x="166.42"><pitch><step>B</step><alter>-1</alter><octave>4</octave></pitch><duration>1</duration><tie type="start"/><voice>1</voice><type>quarter</type><stem>down</stem><notations><tied type="start"/></notations><lyric number="1"><syllabic>single</syllabic><text>while</text></lyric></note></measure><measure width="85.64" number="61"><note default-y="-20.00" default-x="15.00"><pitch><step>B</step><alter>-1</alter><octave>4</octave></pitch><duration>4</duration><tie type="stop"/><voice>1</voice><type>whole</type><notations><tied type="stop"/></notations></note></measure><measure width="323.20" number="62"><print new-system="yes"><system-layout><system-margins><left-margin>109.38</left-margin><right-margin>0.00</right-margin></system-margins><system-distance>105.20</system-distance></system-layout></print><harmony print-frame="no"><root><root-step>B</root-step><root-alter>-1</root-alter></root><kind text="">major</kind></harmony><note default-y="-35.00" default-x="104.72"><pitch><step>F</step><octave>4</octave></pitch><duration>1</duration><voice>1</voice><type>quarter</type><stem>up</stem><lyric number="1"><syllabic>single</syllabic><text>You'll</text></lyric></note><note default-y="-30.00" default-x="158.94"><pitch><step>G</step><octave>4</octave></pitch><duration>1</duration><voice>1</voice><type>quarter</type><stem>up</stem><lyric number="1"><syllabic>single</syllabic><text>have</text></lyric></note><note default-y="-35.00" default-x="213.16"><pitch><step>F</step><octave>4</octave></pitch><duration>1</duration><voice>1</voice><type>quarter</type><stem>up</stem><lyric number="1"><syllabic>single</syllabic><text>the</text></lyric></note><note default-y="-45.00" default-x="267.38"><pitch><step>D</step><octave>4</octave></pitch><duration>1</duration><tie type="start"/><voice>1</voice><type>quarter</type><stem>up</stem><notations><tied type="start"/></notations><lyric number="1"><syllabic>single</syllabic><text>world</text></lyric></note></measure><measure width="132.10" number="63"><harmony print-frame="no"><root><root-step>G</root-step></root><kind text="m7">minor-seventh</kind></harmony><note default-y="-45.00" default-x="15.00"><pitch><step>D</step><octave>4</octave></pitch><duration>1</duration><tie type="stop"/><voice>1</voice><type>quarter</type><stem>up</stem><notations><tied type="stop"/></notations></note><note default-y="-35.00" default-x="47.08"><pitch><step>F</step><octave>4</octave></pitch><duration>1</duration><voice>1</voice><type>quarter</type><stem>up</stem><lyric number="1"><syllabic>single</syllabic><text>on</text></lyric></note><note default-y="-20.00" default-x="79.17"><pitch><step>B</step><alter>-1</alter><octave>4</octave></pitch><duration>2</duration><voice>1</voice><type>half</type><stem>down</stem><lyric number="1"><syllabic>single</syllabic><text>a</text></lyric></note></measure><measure width="111.37" number="64"><harmony print-frame="no"><root><root-step>C</root-step></root><kind text="7">dominant</kind></harmony><note default-y="-15.00" default-x="34.14"><pitch><step>C</step><octave>5</octave></pitch><duration>4</duration><tie type="start"/><voice>1</voice><type>whole</type><notations><tied type="start"/></notations><lyric number="1"><syllabic>single</syllabic><text>string</text></lyric></note></measure><measure width="194.86" number="65"><note default-y="-15.00" default-x="15.00"><pitch><step>C</step><octave>5</octave></pitch><duration>1</duration><tie type="stop"/><voice>1</voice><type>quarter</type><stem>down</stem><notations><tied type="stop"/></notations></note><harmony print-frame="no"><root><root-step>A</root-step></root><kind text="">major</kind></harmony><note default-y="-10.00" default-x="64.52"><pitch><step>D</step><octave>5</octave></pitch><duration>2</duration><voice>1</voice><type>half</type><stem>down</stem><lyric number="1"><syllabic>single</syllabic><text>when</text></lyric></note><note default-y="-15.00" default-x="143.74"><pitch><step>C</step><octave>5</octave></pitch><duration>1</duration><voice>1</voice><type>quarter</type><stem>down</stem><lyric number="1"><syllabic>single</syllabic><text>you're</text></lyric></note></measure><measure width="206.19" number="66"><harmony print-frame="no"><root><root-step>B</root-step><root-alter>-1</root-alter></root><kind text="">major</kind></harmony><note default-y="-20.00" default-x="19.74"><pitch><step>B</step><alter>-1</alter><octave>4</octave></pitch><duration>1</duration><voice>1</voice><type>quarter</type><stem>down</stem><lyric number="1"><syllabic>single</syllabic><text>up</text></lyric></note><note default-y="-25.00" default-x="65.40"><pitch><step>A</step><octave>4</octave></pitch><duration>1</duration><voice>1</voice><type>quarter</type><stem>up</stem><lyric number="1"><syllabic>single</syllabic><text>to</text></lyric></note><note default-y="-20.00" default-x="111.06"><pitch><step>B</step><alter>-1</alter><octave>4</octave></pitch><duration>1</duration><voice>1</voice><type>quarter</type><stem>down</stem><lyric number="1"><syllabic>single</syllabic><text>your</text></lyric></note><note default-y="-30.00" default-x="158.93"><pitch><step>G</step><octave>4</octave></pitch><duration>1</duration><tie type="start"/><voice>1</voice><type>quarter</type><stem>up</stem><notations><tied type="start"/></notations><lyric number="1"><syllabic>single</syllabic><text>neck</text></lyric></note></measure><measure width="184.21" number="67"><print new-system="yes"><system-layout><system-margins><left-margin>109.38</left-margin><right-margin>0.00</right-margin></system-margins><system-distance>105.20</system-distance></system-layout></print><harmony print-frame="no"><root><root-step>A</root-step></root><kind text="7">dominant</kind></harmony><note default-y="-30.00" default-x="77.30"><pitch><step>G</step><octave>4</octave></pitch><duration>1</duration><tie type="stop"/><voice>1</voice><type>quarter</type><stem>up</stem><notations><tied type="stop"/></notations></note><note default-y="-25.00" default-x="105.28"><pitch><step>A</step><octave>4</octave></pitch><duration>1</duration><voice>1</voice><type>quarter</type><stem>up</stem><lyric number="1"><syllabic>single</syllabic><text>in</text></lyric></note><note default-y="-30.00" default-x="137.84"><pitch><step>G</step><octave>4</octave></pitch><duration>2</duration><voice>1</voice><type>half</type><stem>up</stem><lyric number="1"><syllabic>single</syllabic><text>hot</text></lyric></note></measure><measure width="73.56" number="68"><harmony print-frame="no"><root><root-step>A</root-step><root-alter>-1</root-alter></root><kind text="">major</kind></harmony><note default-y="-35.00" default-x="21.60"><pitch><step>F</step><octave>4</octave></pitch><duration>4</duration><voice>1</voice><type>whole</type><lyric number="1"><syllabic>begin</syllabic><text>wa</text></lyric></note></measure><measure width="72.31" number="69"><harmony print-frame="no"><root><root-step>G</root-step></root><kind text="7">dominant</kind></harmony><note default-y="-10.00" default-x="20.35"><pitch><step>D</step><octave>5</octave></pitch><duration>4</duration><voice>1</voice><type>whole</type><lyric number="1"><syllabic>end</syllabic><text>ter</text></lyric></note></measure><measure width="173.17" number="70"><harmony print-frame="no"><root><root-step>C</root-step></root><kind text="7">dominant</kind></harmony><note default-y="-10.00" default-x="20.98"><pitch><step>D</step><octave>5</octave></pitch><duration>1</duration><voice>1</voice><type>quarter</type><stem>down</stem><lyric number="1"><syllabic>single</syllabic><text>Be</text></lyric></note><note default-y="-15.00" default-x="58.63"><pitch><step>C</step><octave>5</octave></pitch><duration>1</duration><voice>1</voice><type>quarter</type><stem>down</stem><lyric number="1"><syllabic>single</syllabic><text>like</text></lyric></note><note default-y="-20.00" default-x="96.27"><pitch><step>B</step><alter>-1</alter><octave>4</octave></pitch><duration>1</duration><voice>1</voice><type>quarter</type><stem>down</stem><lyric number="1"><syllabic>single</syllabic><text>the</text></lyric></note><harmony print-frame="no"><root><root-step>F</root-step></root><kind text="7">dominant</kind></harmony><note default-y="-25.00" default-x="133.92"><pitch><step>A</step><octave>4</octave></pitch><duration>1</duration><tie type="start"/><voice>1</voice><type>quarter</type><stem>up</stem><notations><tied type="start"/></notations><lyric number="1"><syllabic>end</syllabic><text>ket</text></lyric></note></measure><measure width="128.15" number="71"><note default-y="-25.00" default-x="15.00"><pitch><step>A</step><octave>4</octave></pitch><duration>1</duration><tie type="stop"/><voice>1</voice><type>quarter</type><stem>up</stem><notations><tied type="stop"/></notations></note><note default-y="-20.00" default-x="44.66"><pitch><step>B</step><alter>-1</alter><octave>4</octave></pitch><duration>1</duration><voice>1</voice><type>quarter</type><stem>down</stem><lyric number="1"><syllabic>single</syllabic><text>tle</text></lyric></note><note default-y="-15.00" default-x="79.10"><pitch><step>C</step><octave>5</octave></pitch><duration>2</duration><voice>1</voice><type>half</type><stem>down</stem><lyric number="1"><syllabic>single</syllabic><text>and</text></lyric></note></measure><measure width="79.22" number="72"><barline location="left"><ending type="start" number="1"/></barline><harmony print-frame="no"><root><root-step>B</root-step><root-alter>-1</root-alter></root><kind text="">major</kind></harmony><note default-y="-20.00" default-x="27.26"><pitch><step>B</step><alter>-1</alter><octave>4</octave></pitch><duration>4</duration><tie type="start"/><voice>1</voice><type>whole</type><notations><tied type="start"/></notations><lyric number="1"><syllabic>single</syllabic><text>sing</text></lyric></note><barline location="right"><ending type="stop" number="1"/></barline></measure><measure width="177.89" number="73"><harmony print-frame="no"><root><root-step>E</root-step><root-alter>-1</root-alter></root><kind text="">major</kind></harmony><note default-y="-20.00" default-x="15.00"><pitch><step>B</step><alter>-1</alter><octave>4</octave></pitch><duration>1</duration><tie type="stop"/><voice>1</voice><type>quarter</type><stem>down</stem><notations><tied type="stop"/></notations></note><harmony print-frame="no"><root><root-step>F</root-step></root><kind text="">major</kind></harmony><note default-y="-35.00" default-x="57.58"><pitch><step>F</step><octave>4</octave></pitch><duration>1</duration><voice>1</voice><type>quarter</type><stem>up</stem><lyric number="1"><syllabic>single</syllabic><text>when</text></lyric></note><note default-y="-35.00" default-x="99.18"><pitch><step>F</step><octave>4</octave></pitch><duration>1</duration><voice>1</voice><type>quarter</type><stem>up</stem><lyric number="1"><syllabic>single</syllabic><text>all</text></lyric></note><note default-y="-35.00" default-x="131.12"><pitch><step>F</step><octave>4</octave></pitch><duration>1</duration><voice>1</voice><type>quarter</type><stem>up</stem><lyric number="1"><syllabic>single</syllabic><text>the</text></lyric></note><barline location="right"><bar-style>light-heavy</bar-style><repeat direction="backward"/></barline></measure><measure width="79.22" number="74"><barline location="left"><ending type="start" number="2"/></barline><harmony print-frame="no"><root><root-step>B</root-step><root-alter>-1</root-alter></root><kind text="">major</kind></harmony><note default-y="-20.00" default-x="27.26"><pitch><step>B</step><alter>-1</alter><octave>4</octave></pitch><duration>4</duration><tie type="start"/><voice>1</voice><type>whole</type><notations><tied type="start"/></notations><lyric number="1"><syllabic>single</syllabic><text>sing</text></lyric></note><barline location="right"><ending type="stop" number="2"/></barline></measure><measure width="123.62" number="75"><print new-system="yes"><system-layout><system-margins><left-margin>109.38</left-margin><right-margin>844.10</right-margin></system-margins><system-distance>105.20</system-distance></system-layout></print><harmony print-frame="no"><root><root-step>E</root-step><root-alter>-1</root-alter></root><kind text="">major</kind></harmony><note default-y="-20.00" default-x="77.30"><pitch><step>B</step><alter>-1</alter><octave>4</octave></pitch><duration>3</duration><tie type="stop"/><voice>1</voice><type>half</type><dot/><stem>down</stem><notations><tied type="stop"/></notations></note><direction><direction-type><words default-y="100">Bb.</words></direction-type></direction><note><rest/><duration>1</duration><voice>1</voice><type>quarter</type></note><barline location="right"><bar-style>light-heavy</bar-style></barline></measure></part></score-partwise>