<score-partwise version="2.0"><work><work-number/><work-title/></work><movement-number/><movement-title>It's Christmas In New York</movement-title><identification><creator type="composer">Billy Butt</creator><creator type="poet"/><rights>All Rights Reserved</rights><encoding><software>MuseScore 0.9.5</software><encoding-date>2010-03-13</encoding-date><software>ProxyMusic 2.0 c</software></encoding><source>http://wikifonia.org/node/5005/revisions/6787/view</source></identification><defaults><scaling><millimeters>7.056</millimeters><tenths>40</tenths></scaling><page-layout><page-height>1683.67</page-height><page-width>1190.48</page-width><page-margins type="both"><left-margin>56.6893</left-margin><right-margin>56.6893</right-margin><top-margin>56.6893</top-margin><bottom-margin>113.379</bottom-margin></page-margins></page-layout></defaults><credit page="1"><credit-words font-size="24" default-y="1626.98" default-x="595.238" justify="center" valign="top">It's Christmas In New York</credit-words></credit><part-list><score-part id="P1"><part-name>Voice</part-name><score-instrument id="P1-I3"><instrument-name>Voice</instrument-name></score-instrument><midi-instrument id="P1-I3"><midi-channel>1</midi-channel><midi-program>53</midi-program></midi-instrument></score-part></part-list><part id="P1"><measure width="382.49" number="1"><print><system-layout><system-margins><left-margin>69.92</left-margin><right-margin>-0.00</right-margin></system-margins><top-system-distance>206.11</top-system-distance></system-layout></print><barline location="left"><bar-style>heavy-light</bar-style><repeat direction="forward"/></barline><attributes><divisions>6</divisions><key><fifths>-1</fifths><mode>major</mode></key><time><beats>4</beats><beat-type>4</beat-type></time><clef><sign>G</sign><line>2</line></clef></attributes><harmony print-frame="no"><root><root-step>F</root-step></root><kind text="">major</kind></harmony><note><rest/><duration>12</duration><voice>1</voice><type>half</type></note><note default-y="-25.00" default-x="215.73"><pitch><step>A</step><octave>4</octave></pitch><duration>4</duration><voice>1</voice><type>quarter</type><time-modification><actual-notes>3</actual-notes><normal-notes>2</normal-notes></time-modification><stem>up</stem><notations><tuplet type="start" bracket="yes"/></notations><lyric number="1"><syllabic>begin</syllabic><text>Church</text></lyric><lyric number="2"><syllabic>begin</syllabic><text>Rest</text></lyric></note><note default-y="-20.00" default-x="276.13"><pitch><step>B</step><alter>-1</alter><octave>4</octave></pitch><duration>4</duration><voice>1</voice><type>quarter</type><time-modification><actual-notes>3</actual-notes><normal-notes>2</normal-notes></time-modification><stem>up</stem><lyric number="1"><syllabic>single</syllabic><text>bells</text></lyric><lyric number="2"><syllabic>end</syllabic><text>'rant</text></lyric></note><note default-y="-15.00" default-x="328.51"><pitch><step>C</step><octave>5</octave></pitch><duration>4</duration><voice>1</voice><type>quarter</type><time-modification><actual-notes>3</actual-notes><normal-notes>2</normal-notes></time-modification><stem>up</stem><notations><tuplet type="stop"/></notations><lyric number="1"><syllabic>single</syllabic><text>are</text></lyric><lyric number="2"><syllabic>single</syllabic><text>signs</text></lyric></note></measure><measure width="194.78" number="2"><harmony print-frame="no"><root><root-step>C</root-step></root><kind text="">major</kind><bass><bass-step>E</bass-step></bass></harmony><note default-y="-15.00" default-x="31.63"><pitch><step>C</step><octave>5</octave></pitch><duration>3</duration><voice>1</voice><type>eighth</type><stem>down</stem><lyric number="1"><syllabic>begin</syllabic><text>ring</text></lyric><lyric number="2"><syllabic>begin</syllabic><text>sway</text></lyric></note><note default-y="-30.00" default-x="77.94"><pitch><step>G</step><octave>4</octave></pitch><duration>9</duration><tie type="start"/><voice>1</voice><type>quarter</type><dot/><stem>up</stem><notations><tied type="start"/></notations><lyric number="1"><syllabic>single</syllabic><text>ing,</text></lyric><lyric number="2"><syllabic>end</syllabic><text>ing,</text></lyric></note><note default-y="-30.00" default-x="132.10"><pitch><step>G</step><octave>4</octave></pitch><duration>12</duration><tie type="stop"/><voice>1</voice><type>half</type><stem>up</stem><notations><tied type="stop"/></notations></note></measure><measure width="240.07" number="3"><harmony print-frame="no"><root><root-step>D</root-step></root><kind text="m7">minor-seventh</kind></harmony><note><rest/><duration>12</duration><voice>1</voice><type>half</type></note><note default-y="-35.00" default-x="101.70"><pitch><step>F</step><octave>4</octave></pitch><duration>4</duration><voice>1</voice><type>quarter</type><time-modification><actual-notes>3</actual-notes><normal-notes>2</normal-notes></time-modification><stem>up</stem><notations><tuplet type="start" bracket="yes"/></notations><lyric number="1"><syllabic>begin</syllabic><text>cho</text></lyric><lyric number="2"><syllabic>single</syllabic><text>blue</text></lyric></note><note default-y="-30.00" default-x="149.59"><pitch><step>G</step><octave>4</octave></pitch><duration>4</duration><voice>1</voice><type>quarter</type><time-modification><actual-notes>3</actual-notes><normal-notes>2</normal-notes></time-modification><stem>up</stem><lyric number="1"><syllabic>end</syllabic><text>irs</text></lyric><lyric number="2"><syllabic>single</syllabic><text>skies</text></lyric></note><note default-y="-25.00" default-x="194.03"><pitch><step>A</step><octave>4</octave></pitch><duration>4</duration><voice>1</voice><type>quarter</type><time-modification><actual-notes>3</actual-notes><normal-notes>2</normal-notes></time-modification><stem>up</stem><notations><tuplet type="stop"/></notations><lyric number="1"><syllabic>single</syllabic><text>are</text></lyric><lyric number="2"><syllabic>single</syllabic><text>are</text></lyric></note></measure><measure width="189.84" number="4"><harmony print-frame="no"><root><root-step>A</root-step></root><kind text="m">minor</kind><bass><bass-step>C</bass-step></bass></harmony><note default-y="-25.00" default-x="28.49"><pitch><step>A</step><octave>4</octave></pitch><duration>3</duration><voice>1</voice><type>eighth</type><stem>up</stem><lyric number="1"><syllabic>begin</syllabic><text>sing</text></lyric><lyric number="2"><syllabic>begin</syllabic><text>gray</text></lyric></note><note default-y="-40.00" default-x="73.00"><pitch><step>E</step><octave>4</octave></pitch><duration>9</duration><tie type="start"/><voice>1</voice><type>quarter</type><dot/><stem>up</stem><notations><tied type="start"/></notations><lyric number="1"><syllabic>end</syllabic><text>ing,</text></lyric><lyric number="2"><syllabic>end</syllabic><text>ing,</text></lyric></note><note default-y="-40.00" default-x="127.16"><pitch><step>E</step><octave>4</octave></pitch><duration>12</duration><tie type="stop"/><voice>1</voice><type>half</type><stem>up</stem><notations><tied type="stop"/></notations></note></measure><measure width="311.93" number="5"><print new-system="yes"><system-layout><system-margins><left-margin>47.28</left-margin><right-margin>-0.00</right-margin></system-margins><system-distance>157.47</system-distance></system-layout></print><harmony print-frame="no"><root><root-step>B</root-step><root-alter>-1</root-alter></root><kind text="">major</kind></harmony><note><rest/><duration>12</duration><voice>1</voice><type>half</type></note><note default-y="-45.00" default-x="163.07"><pitch><step>D</step><octave>4</octave></pitch><duration>4</duration><voice>1</voice><type>quarter</type><time-modification><actual-notes>3</actual-notes><normal-notes>2</normal-notes></time-modification><stem>up</stem><notations><tuplet type="start" bracket="yes"/></notations><lyric number="1"><syllabic>single</syllabic><text>joy</text></lyric><lyric number="2"><syllabic>begin</syllabic><text>ev</text></lyric></note><note default-y="-40.00" default-x="212.16"><pitch><step>E</step><octave>4</octave></pitch><duration>4</duration><voice>1</voice><type>quarter</type><time-modification><actual-notes>3</actual-notes><normal-notes>2</normal-notes></time-modification><stem>up</stem><lyric number="1"><syllabic>single</syllabic><text>they</text></lyric><lyric number="2"><syllabic>middle</syllabic><text>'ry</text></lyric></note><note default-y="-35.00" default-x="261.24"><pitch><step>F</step><octave>4</octave></pitch><duration>4</duration><voice>1</voice><type>quarter</type><time-modification><actual-notes>3</actual-notes><normal-notes>2</normal-notes></time-modification><stem>up</stem><notations><tuplet type="stop"/></notations><lyric number="1"><syllabic>single</syllabic><text>are</text></lyric><lyric number="2"><syllabic>end</syllabic><text>ones</text></lyric></note></measure><measure width="218.08" number="6"><harmony print-frame="no"><root><root-step>F</root-step></root><kind text="">major</kind><bass><bass-step>A</bass-step></bass></harmony><note default-y="-35.00" default-x="32.26"><pitch><step>F</step><octave>4</octave></pitch><duration>3</duration><voice>1</voice><type>eighth</type><stem>up</stem><lyric number="1"><syllabic>begin</syllabic><text>bring</text></lyric><lyric number="2"><syllabic>begin</syllabic><text>say</text></lyric></note><note default-y="-50.00" default-x="79.20"><pitch><step>C</step><octave>4</octave></pitch><duration>9</duration><tie type="start"/><voice>1</voice><type>quarter</type><dot/><stem>up</stem><notations><tied type="start"/></notations><lyric number="1"><syllabic>single</syllabic><text>ing,</text></lyric><lyric number="2"><syllabic>end</syllabic><text>ing,</text></lyric></note><note default-y="-50.00" default-x="143.72"><pitch><step>C</step><octave>4</octave></pitch><duration>12</duration><tie type="stop"/><voice>1</voice><type>half</type><stem>up</stem><notations><tied type="stop"/></notations></note></measure><measure width="338.15" number="7"><harmony print-frame="no"><root><root-step>G</root-step></root><kind text="7">dominant</kind></harmony><note><rest/><duration>3</duration><voice>1</voice><type>eighth</type></note><note default-y="-45.00" default-x="60.19"><pitch><step>D</step><octave>4</octave></pitch><duration>3</duration><voice>1</voice><type>eighth</type><stem>up</stem><beam number="1">begin</beam><lyric number="1"><syllabic>single</syllabic><text>it's</text></lyric><lyric number="2"><syllabic>single</syllabic><text>it's</text></lyric></note><note default-y="-25.00" default-x="106.36"><pitch><step>A</step><octave>4</octave></pitch><duration>3</duration><voice>1</voice><type>eighth</type><stem>up</stem><beam number="1">continue</beam><lyric number="1"><syllabic>begin</syllabic><text>Christ</text></lyric><lyric number="2"><syllabic>begin</syllabic><text>Christ</text></lyric></note><note default-y="-25.00" default-x="158.00"><pitch><step>A</step><octave>4</octave></pitch><duration>3</duration><voice>1</voice><type>eighth</type><stem>up</stem><beam number="1">end</beam><lyric number="1"><syllabic>end</syllabic><text>mas</text></lyric><lyric number="2"><syllabic>end</syllabic><text>mas</text></lyric></note><note default-y="-30.00" default-x="203.19"><pitch><step>G</step><octave>4</octave></pitch><duration>9</duration><voice>1</voice><type>quarter</type><dot/><stem>up</stem><lyric number="1"><syllabic>single</syllabic><text>in</text></lyric><lyric number="2"><syllabic>single</syllabic><text>in</text></lyric></note><note default-y="-35.00" default-x="291.36"><pitch><step>F</step><octave>4</octave></pitch><duration>3</duration><voice>1</voice><type>eighth</type><stem>up</stem><lyric number="1"><syllabic>single</syllabic><text>New</text></lyric><lyric number="2"><syllabic>single</syllabic><text>New</text></lyric></note></measure><measure width="161.66" number="8"><harmony print-frame="no"><root><root-step>G</root-step></root><kind text="m7">minor-seventh</kind></harmony><harmony relative-x="1700.00" print-frame="no"><root><root-step>C</root-step></root><kind text="7">dominant</kind></harmony><note default-y="-30.00" default-x="33.19"><pitch><step>G</step><octave>4</octave></pitch><duration>24</duration><voice>1</voice><type>whole</type><lyric number="1"><syllabic>single</syllabic><text>York.</text></lyric><lyric number="2"><syllabic>single</syllabic><text>York.</text></lyric></note></measure><measure width="324.04" number="9"><print new-system="yes"><system-layout><system-margins><left-margin>47.28</left-margin><right-margin>-0.00</right-margin></system-margins><system-distance>157.47</system-distance></system-layout></print><harmony print-frame="no"><root><root-step>F</root-step></root><kind text="">major</kind></harmony><note><rest/><duration>12</duration><voice>1</voice><type>half</type></note><note default-y="-25.00" default-x="165.00"><pitch><step>A</step><octave>4</octave></pitch><duration>4</duration><voice>1</voice><type>quarter</type><time-modification><actual-notes>3</actual-notes><normal-notes>2</normal-notes></time-modification><stem>up</stem><notations><tuplet type="start" bracket="yes"/></notations><lyric number="1"><syllabic>begin</syllabic><text>Street</text></lyric><lyric number="2"><syllabic>begin</syllabic><text>Sky</text></lyric></note><note default-y="-20.00" default-x="222.28"><pitch><step>B</step><alter>-1</alter><octave>4</octave></pitch><duration>4</duration><voice>1</voice><type>quarter</type><time-modification><actual-notes>3</actual-notes><normal-notes>2</normal-notes></time-modification><stem>up</stem><lyric number="1"><syllabic>end</syllabic><text>lights</text></lyric><lyric number="2"><syllabic>begin</syllabic><text>scra</text></lyric></note><note default-y="-15.00" default-x="272.36"><pitch><step>C</step><octave>5</octave></pitch><duration>4</duration><voice>1</voice><type>quarter</type><time-modification><actual-notes>3</actual-notes><normal-notes>2</normal-notes></time-modification><stem>up</stem><notations><tuplet type="stop"/></notations><lyric number="1"><syllabic>single</syllabic><text>are</text></lyric><lyric number="2"><syllabic>end</syllabic><text>pers</text></lyric></note></measure><measure width="206.37" number="10"><harmony print-frame="no"><root><root-step>C</root-step></root><kind text="">major</kind><bass><bass-step>E</bass-step></bass></harmony><note default-y="-15.00" default-x="36.00"><pitch><step>C</step><octave>5</octave></pitch><duration>3</duration><voice>1</voice><type>eighth</type><stem>down</stem><lyric number="1"><syllabic>begin</syllabic><text>pleas</text></lyric><lyric number="2"><syllabic>begin</syllabic><text>gleam</text></lyric></note><note default-y="-30.00" default-x="86.69"><pitch><step>G</step><octave>4</octave></pitch><duration>9</duration><tie type="start"/><voice>1</voice><type>quarter</type><dot/><stem>up</stem><notations><tied type="start"/></notations><lyric number="1"><syllabic>end</syllabic><text>ing,</text></lyric><lyric number="2"><syllabic>end</syllabic><text>ing,</text></lyric></note><note default-y="-30.00" default-x="142.19"><pitch><step>G</step><octave>4</octave></pitch><duration>12</duration><tie type="stop"/><voice>1</voice><type>half</type><stem>up</stem><notations><tied type="stop"/></notations></note></measure><measure width="290.52" number="11"><harmony print-frame="no"><root><root-step>D</root-step></root><kind text="m7">minor-seventh</kind></harmony><note><rest/><duration>12</duration><voice>1</voice><type>half</type></note><note default-y="-35.00" default-x="117.89"><pitch><step>F</step><octave>4</octave></pitch><duration>4</duration><voice>1</voice><type>quarter</type><time-modification><actual-notes>3</actual-notes><normal-notes>2</normal-notes></time-modification><stem>up</stem><notations><tuplet type="start" bracket="yes"/></notations><lyric number="1"><syllabic>begin</syllabic><text>snow</text></lyric><lyric number="2"><syllabic>begin</syllabic><text>Broad</text></lyric></note><note default-y="-30.00" default-x="178.28"><pitch><step>G</step><octave>4</octave></pitch><duration>4</duration><voice>1</voice><type>quarter</type><time-modification><actual-notes>3</actual-notes><normal-notes>2</normal-notes></time-modification><stem>up</stem><lyric number="1"><syllabic>end</syllabic><text>flakes</text></lyric><lyric number="2"><syllabic>end</syllabic><text>way</text></lyric></note><note default-y="-25.00" default-x="236.18"><pitch><step>A</step><octave>4</octave></pitch><duration>4</duration><voice>1</voice><type>quarter</type><time-modification><actual-notes>3</actual-notes><normal-notes>2</normal-notes></time-modification><stem>up</stem><notations><tuplet type="stop"/></notations><lyric number="1"><syllabic>single</syllabic><text>are</text></lyric><lyric number="2"><syllabic>single</syllabic><text>lights</text></lyric></note></measure><measure width="208.89" number="12"><harmony print-frame="no"><root><root-step>A</root-step></root><kind text="m7">minor-seventh</kind></harmony><note default-y="-25.00" default-x="32.87"><pitch><step>A</step><octave>4</octave></pitch><duration>3</duration><voice>1</voice><type>eighth</type><stem>up</stem><lyric number="1"><syllabic>begin</syllabic><text>tea</text></lyric><lyric number="2"><syllabic>begin</syllabic><text>beam</text></lyric></note><note default-y="-40.00" default-x="84.82"><pitch><step>E</step><octave>4</octave></pitch><duration>9</duration><tie type="start"/><voice>1</voice><type>quarter</type><dot/><stem>up</stem><notations><tied type="start"/></notations><lyric number="1"><syllabic>end</syllabic><text>sing,</text></lyric><lyric number="2"><syllabic>end</syllabic><text>ing,</text></lyric></note><note default-y="-40.00" default-x="142.38"><pitch><step>E</step><octave>4</octave></pitch><duration>12</duration><tie type="stop"/><voice>1</voice><type>half</type><stem>up</stem><notations><tied type="stop"/></notations></note></measure><measure width="310.21" number="13"><print new-system="yes"><system-layout><system-margins><left-margin>47.28</left-margin><right-margin>-0.00</right-margin></system-margins><system-distance>157.47</system-distance></system-layout></print><harmony print-frame="no"><root><root-step>B</root-step><root-alter>-1</root-alter></root><kind text="">major</kind></harmony><note><rest/><duration>12</duration><voice>1</voice><type>half</type></note><note default-y="-45.00" default-x="162.39"><pitch><step>D</step><octave>4</octave></pitch><duration>4</duration><voice>1</voice><type>quarter</type><time-modification><actual-notes>3</actual-notes><normal-notes>2</normal-notes></time-modification><stem>up</stem><notations><tuplet type="start" bracket="yes"/></notations><lyric number="1"><syllabic>begin</syllabic><text>Cen</text></lyric><lyric number="2"><syllabic>begin</syllabic><text>child</text></lyric></note><note default-y="-40.00" default-x="211.13"><pitch><step>E</step><octave>4</octave></pitch><duration>4</duration><voice>1</voice><type>quarter</type><time-modification><actual-notes>3</actual-notes><normal-notes>2</normal-notes></time-modification><stem>up</stem><lyric number="1"><syllabic>end</syllabic><text>tral</text></lyric><lyric number="2"><syllabic>end</syllabic><text>ren</text></lyric></note><note default-y="-35.00" default-x="259.87"><pitch><step>F</step><octave>4</octave></pitch><duration>4</duration><voice>1</voice><type>quarter</type><time-modification><actual-notes>3</actual-notes><normal-notes>2</normal-notes></time-modification><stem>up</stem><notations><tuplet type="stop"/></notations><lyric number="1"><syllabic>single</syllabic><text>Park's</text></lyric><lyric number="2"><syllabic>single</syllabic><text>are</text></lyric></note></measure><measure width="204.77" number="14"><harmony print-frame="no"><root><root-step>F</root-step></root><kind text="">major</kind><bass><bass-step>C</bass-step></bass></harmony><note default-y="-35.00" default-x="36.62"><pitch><step>F</step><octave>4</octave></pitch><duration>3</duration><voice>1</voice><type>eighth</type><stem>up</stem><lyric number="1"><syllabic>begin</syllabic><text>freez</text></lyric><lyric number="2"><syllabic>begin</syllabic><text>dream</text></lyric></note><note default-y="-50.00" default-x="87.93"><pitch><step>C</step><octave>4</octave></pitch><duration>9</duration><tie type="start"/><voice>1</voice><type>quarter</type><dot/><stem>up</stem><notations><tied type="start"/></notations><lyric number="1"><syllabic>end</syllabic><text>ing,</text></lyric><lyric number="2"><syllabic>single</syllabic><text>ing,</text></lyric></note><note default-y="-50.00" default-x="142.09"><pitch><step>C</step><octave>4</octave></pitch><duration>12</duration><tie type="stop"/><voice>1</voice><type>half</type><stem>up</stem><notations><tied type="stop"/></notations></note></measure><measure width="316.11" number="15"><harmony print-frame="no"><root><root-step>G</root-step></root><kind text="m7">minor-seventh</kind></harmony><note><rest/><duration>3</duration><voice>1</voice><type>eighth</type></note><note default-y="-45.00" default-x="55.74"><pitch><step>D</step><octave>4</octave></pitch><duration>3</duration><voice>1</voice><type>eighth</type><stem>up</stem><beam number="1">begin</beam><lyric number="1"><syllabic>single</syllabic><text>it's</text></lyric><lyric number="2"><syllabic>single</syllabic><text>it's</text></lyric></note><note default-y="-45.00" default-x="101.91"><pitch><step>D</step><octave>4</octave></pitch><duration>3</duration><voice>1</voice><type>eighth</type><stem>up</stem><beam number="1">continue</beam><lyric number="1"><syllabic>begin</syllabic><text>Christ</text></lyric><lyric number="2"><syllabic>begin</syllabic><text>Christ</text></lyric></note><note default-y="-40.00" default-x="153.54"><pitch><step>E</step><octave>4</octave></pitch><duration>3</duration><voice>1</voice><type>eighth</type><stem>up</stem><beam number="1">end</beam><lyric number="1"><syllabic>end</syllabic><text>mas</text></lyric><lyric number="2"><syllabic>end</syllabic><text>mas</text></lyric></note><harmony print-frame="no"><root><root-step>C</root-step></root><kind text="7">dominant</kind></harmony><note default-y="-25.00" default-x="194.28"><pitch><step>A</step><octave>4</octave></pitch><duration>9</duration><voice>1</voice><type>quarter</type><dot/><stem>up</stem><lyric number="1"><syllabic>single</syllabic><text>in</text></lyric><lyric number="2"><syllabic>single</syllabic><text>in</text></lyric></note><note default-y="-30.00" default-x="273.77"><pitch><step>G</step><octave>4</octave></pitch><duration>3</duration><voice>1</voice><type>eighth</type><stem>up</stem><lyric number="1"><syllabic>single</syllabic><text>New</text></lyric><lyric number="2"><syllabic>single</syllabic><text>New</text></lyric></note></measure><measure width="198.74" number="16"><harmony print-frame="no"><root><root-step>F</root-step></root><kind text="">major</kind></harmony><note default-y="-35.00" default-x="33.19"><pitch><step>F</step><octave>4</octave></pitch><duration>18</duration><voice>1</voice><type>half</type><dot/><stem>up</stem><lyric number="1"><syllabic>single</syllabic><text>York.</text></lyric><lyric number="2"><syllabic>single</syllabic><text>York.</text></lyric></note><note><rest/><duration>3</duration><voice>1</voice><type>eighth</type></note><note default-y="-35.00" default-x="161.11"><pitch><step>F</step><octave>4</octave></pitch><duration>3</duration><voice>1</voice><type>eighth</type><stem>up</stem><lyric number="1"><syllabic>single</syllabic><text>The</text></lyric><lyric number="2"><syllabic>single</syllabic><text>The</text></lyric></note></measure><measure width="226.07" number="17"><print new-system="yes"><system-layout><system-margins><left-margin>47.28</left-margin><right-margin>-0.00</right-margin></system-margins><system-distance>157.47</system-distance></system-layout></print><harmony print-frame="no"><root><root-step>B</root-step><root-alter>-1</root-alter></root><kind text="m">minor</kind></harmony><harmony relative-x="1200.00" print-frame="no"><root><root-step>B</root-step><root-alter>-1</root-alter></root><kind text="m7">minor-seventh</kind></harmony><note default-y="-10.00" default-x="93.32"><pitch><step>D</step><alter>-1</alter><octave>5</octave></pitch><duration>24</duration><tie type="start"/><voice>1</voice><type>whole</type><accidental>flat</accidental><notations><tied type="start"/></notations><lyric number="1"><syllabic>single</syllabic><text>stars</text></lyric><lyric number="2"><syllabic>single</syllabic><text>lights</text></lyric></note></measure><measure width="309.11" number="18"><harmony print-frame="no"><root><root-step>E</root-step><root-alter>-1</root-alter></root><kind text="7">dominant</kind></harmony><note default-y="-15.00" default-x="15.00"><pitch><step>C</step><alter>1</alter><octave>5</octave></pitch><duration>6</duration><tie type="stop"/><voice>1</voice><type>quarter</type><accidental>sharp</accidental><stem>down</stem><notations><tied type="stop"/></notations></note><note default-y="-20.00" default-x="73.15"><pitch><step>B</step><alter>-1</alter><octave>4</octave></pitch><duration>3</duration><voice>1</voice><type>eighth</type><stem>down</stem><beam number="1">begin</beam><lyric number="1"><syllabic>single</syllabic><text>in</text></lyric><lyric number="2"><syllabic>single</syllabic><text>on</text></lyric></note><note default-y="-15.00" default-x="109.49"><pitch><step>C</step><octave>5</octave></pitch><duration>3</duration><voice>1</voice><type>eighth</type><stem>down</stem><beam number="1">end</beam><lyric number="1"><syllabic>single</syllabic><text>the</text></lyric><lyric number="2"><syllabic>single</syllabic><text>the</text></lyric></note><note default-y="-10.00" default-x="156.75"><pitch><step>D</step><alter>-1</alter><octave>5</octave></pitch><duration>3</duration><voice>1</voice><type>eighth</type><accidental>flat</accidental><stem>down</stem><beam number="1">begin</beam><lyric number="1"><syllabic>begin</syllabic><text>heav</text></lyric><lyric number="2"><syllabic>begin</syllabic><text>Christ</text></lyric></note><note default-y="-10.00" default-x="208.39"><pitch><step>D</step><octave>5</octave></pitch><duration>3</duration><voice>1</voice><type>eighth</type><accidental>natural</accidental><stem>down</stem><beam number="1">end</beam><lyric number="1"><syllabic>end</syllabic><text>ens</text></lyric><lyric number="2"><syllabic>end</syllabic><text>mas</text></lyric></note><note default-y="-5.00" default-x="249.36"><pitch><step>E</step><alter>-1</alter><octave>5</octave></pitch><duration>6</duration><voice>1</voice><type>quarter</type><accidental>flat</accidental><stem>down</stem><lyric number="1"><syllabic>single</syllabic><text>are</text></lyric><lyric number="2"><syllabic>single</syllabic><text>tree</text></lyric></note></measure><measure width="194.58" number="19"><harmony print-frame="no"><root><root-step>A</root-step><root-alter>-1</root-alter></root><kind text="Maj7">major-seventh</kind></harmony><note default-y="-20.00" default-x="22.22"><pitch><step>B</step><alter>-1</alter><octave>4</octave></pitch><duration>3</duration><voice>1</voice><type>eighth</type><stem>up</stem><beam number="1">begin</beam><notations><slur type="start" number="1"/></notations><lyric number="1"><syllabic>single</syllabic><text>so</text></lyric><lyric number="2"><syllabic>single</syllabic><text>are</text></lyric></note><note default-y="-15.00" default-x="56.82"><pitch><step>C</step><octave>5</octave></pitch><duration>3</duration><voice>1</voice><type>eighth</type><stem>up</stem><beam number="1">end</beam><notations><slur type="stop" number="1"/></notations></note><note default-y="-15.00" default-x="104.72"><pitch><step>C</step><octave>5</octave></pitch><duration>18</duration><tie type="start"/><voice>1</voice><type>half</type><dot/><stem>down</stem><notations><tied type="start"/></notations><lyric number="1"><syllabic>single</syllabic><text>bright,</text></lyric><lyric number="2"><syllabic>single</syllabic><text>fine,</text></lyric></note></measure><measure width="163.00" number="20"><harmony print-frame="no"><root><root-step>D</root-step><root-alter>-1</root-alter></root><kind text="Maj7">major-seventh</kind></harmony><note default-y="-15.00" default-x="15.00"><pitch><step>C</step><octave>5</octave></pitch><duration>18</duration><tie type="stop"/><voice>1</voice><type>half</type><dot/><stem>down</stem><notations><tied type="stop"/></notations></note><note><rest/><duration>3</duration><voice>1</voice><type>eighth</type></note><note default-y="-15.00" default-x="129.94"><pitch><step>C</step><octave>5</octave></pitch><duration>3</duration><voice>1</voice><type>eighth</type><stem>down</stem><lyric number="1"><syllabic>single</syllabic><text>they</text></lyric><lyric number="2"><syllabic>single</syllabic><text>the</text></lyric></note></measure><measure width="137.07" number="21"><harmony print-frame="no"><root><root-step>G</root-step></root><kind text="7">dominant</kind></harmony><note default-y="-20.00" default-x="34.78"><pitch><step>B</step><octave>4</octave></pitch><duration>24</duration><tie type="start"/><voice>1</voice><type>whole</type><accidental>natural</accidental><notations><tied type="start"/></notations><lyric number="1"><syllabic>single</syllabic><text>tell</text></lyric><lyric number="2"><syllabic>single</syllabic><text>sights</text></lyric></note></measure><measure width="401.71" number="22"><print new-system="yes"><system-layout><system-margins><left-margin>47.28</left-margin><right-margin>-0.00</right-margin></system-margins><system-distance>157.47</system-distance></system-layout></print><note default-y="-20.00" default-x="67.30"><pitch><step>B</step><octave>4</octave></pitch><duration>6</duration><tie type="stop"/><voice>1</voice><type>quarter</type><accidental>natural</accidental><stem>down</stem><notations><tied type="stop"/></notations></note><note default-y="-20.00" default-x="126.47"><pitch><step>B</step><octave>4</octave></pitch><duration>3</duration><voice>1</voice><type>eighth</type><accidental>natural</accidental><stem>down</stem><beam number="1">begin</beam><lyric number="1"><syllabic>single</syllabic><text>of</text></lyric><lyric number="2"><syllabic>single</syllabic><text>of</text></lyric></note><note default-y="-15.00" default-x="163.46"><pitch><step>C</step><octave>5</octave></pitch><duration>3</duration><voice>1</voice><type>eighth</type><stem>down</stem><beam number="1">end</beam><lyric number="1"><syllabic>single</syllabic><text>a</text></lyric><lyric number="2"><syllabic>single</syllabic><text>the</text></lyric></note><note default-y="-10.00" default-x="204.45"><pitch><step>D</step><octave>5</octave></pitch><duration>3</duration><voice>1</voice><type>eighth</type><stem>down</stem><beam number="1">begin</beam><lyric number="1"><syllabic>begin</syllabic><text>bab</text></lyric><lyric number="2"><syllabic>begin</syllabic><text>shop</text></lyric></note><note default-y="-10.00" default-x="251.72"><pitch><step>D</step><octave>5</octave></pitch><duration>3</duration><voice>1</voice><type>eighth</type><stem>down</stem><beam number="1">continue</beam><lyric number="1"><syllabic>end</syllabic><text>y</text></lyric><lyric number="2"><syllabic>end</syllabic><text>ping</text></lyric></note><note default-y="-15.00" default-x="308.68"><pitch><step>C</step><octave>5</octave></pitch><duration>3</duration><voice>1</voice><type>eighth</type><stem>down</stem><beam number="1">continue</beam><lyric number="1"><syllabic>single</syllabic><text>that</text></lyric><lyric number="2"><syllabic>single</syllabic><text>sprees,</text></lyric></note><note default-y="-20.00" default-x="363.12"><pitch><step>B</step><octave>4</octave></pitch><duration>3</duration><voice>1</voice><type>eighth</type><stem>down</stem><beam number="1">end</beam><lyric number="1"><syllabic>single</syllabic><text>was</text></lyric><lyric number="2"><syllabic>single</syllabic><text>the</text></lyric></note></measure><measure width="223.64" number="23"><harmony print-frame="no"><root><root-step>G</root-step></root><kind text="m7">minor-seventh</kind></harmony><note default-y="-10.00" default-x="31.32"><pitch><step>D</step><octave>5</octave></pitch><duration>12</duration><tie type="start"/><voice>1</voice><type>half</type><stem>down</stem><notations><tied type="start"/></notations><lyric number="1"><syllabic>single</syllabic><text>born</text></lyric><lyric number="2"><syllabic>single</syllabic><text>gifts,</text></lyric></note><note default-y="-10.00" default-x="97.59"><pitch><step>D</step><octave>5</octave></pitch><duration>4</duration><tie type="stop"/><voice>1</voice><type>quarter</type><time-modification><actual-notes>3</actual-notes><normal-notes>2</normal-notes></time-modification><stem>up</stem><notations><tied type="stop"/><tuplet type="start" bracket="yes"/></notations></note><note default-y="-15.00" default-x="140.81"><pitch><step>C</step><octave>5</octave></pitch><duration>4</duration><voice>1</voice><type>quarter</type><time-modification><actual-notes>3</actual-notes><normal-notes>2</normal-notes></time-modification><stem>up</stem><lyric number="1"><syllabic>single</syllabic><text>on</text></lyric><lyric number="2"><syllabic>single</syllabic><text>yours</text></lyric></note><note default-y="-20.00" default-x="188.08"><pitch><step>B</step><alter>-1</alter><octave>4</octave></pitch><duration>4</duration><voice>1</voice><type>quarter</type><time-modification><actual-notes>3</actual-notes><normal-notes>2</normal-notes></time-modification><stem>up</stem><notations><tuplet type="stop"/></notations><lyric number="1"><syllabic>single</syllabic><text>this</text></lyric><lyric number="2"><syllabic>single</syllabic><text>and</text></lyric></note></measure><measure width="131.73" number="24"><harmony print-frame="no"><root><root-step>C</root-step></root><kind text="7sus">suspended-fourth</kind><degree><degree-value>7</degree-value><degree-alter>0</degree-alter><degree-type>add</degree-type></degree></harmony><harmony relative-x="1600.00" print-frame="no"><root><root-step>C</root-step></root><kind text="7">dominant</kind></harmony><note default-y="-15.00" default-x="34.46"><pitch><step>C</step><octave>5</octave></pitch><duration>24</duration><voice>1</voice><type>whole</type><lyric number="1"><syllabic>single</syllabic><text>night.</text></lyric><lyric number="2"><syllabic>single</syllabic><text>mine.</text></lyric></note><barline location="right"><bar-style>light-heavy</bar-style><repeat direction="backward"/></barline></measure><measure width="272.74" number="25"><attributes><key><fifths>-4</fifths><mode>major</mode></key></attributes><harmony print-frame="no"><root><root-step>A</root-step><root-alter>-1</root-alter></root><kind text="">major</kind></harmony><note><rest/><duration>12</duration><voice>1</voice><type>half</type></note><note default-y="-15.00" default-x="142.72"><pitch><step>C</step><octave>5</octave></pitch><duration>4</duration><voice>1</voice><type>quarter</type><time-modification><actual-notes>3</actual-notes><normal-notes>2</normal-notes></time-modification><stem>up</stem><notations><tuplet type="start" bracket="yes"/></notations><lyric number="1"><syllabic>begin</syllabic><text>Stock</text></lyric></note><note default-y="-10.00" default-x="193.12"><pitch><step>D</step><alter>-1</alter><octave>5</octave></pitch><duration>4</duration><voice>1</voice><type>quarter</type><time-modification><actual-notes>3</actual-notes><normal-notes>2</normal-notes></time-modification><stem>up</stem><lyric number="1"><syllabic>single</syllabic><text>ings</text></lyric></note><note default-y="-5.00" default-x="232.13"><pitch><step>E</step><alter>-1</alter><octave>5</octave></pitch><duration>4</duration><voice>1</voice><type>quarter</type><time-modification><actual-notes>3</actual-notes><normal-notes>2</normal-notes></time-modification><stem>up</stem><notations><tuplet type="stop"/></notations><lyric number="1"><syllabic>single</syllabic><text>are</text></lyric></note></measure><measure width="246.86" number="26"><print new-system="yes"><system-layout><system-margins><left-margin>47.28</left-margin><right-margin>0.00</right-margin></system-margins><system-distance>157.47</system-distance></system-layout></print><harmony print-frame="no"><root><root-step>E</root-step><root-alter>-1</root-alter></root><kind text="">major</kind><bass><bass-step>G</bass-step></bass></harmony><note default-y="-5.00" default-x="108.28"><pitch><step>E</step><alter>-1</alter><octave>5</octave></pitch><duration>3</duration><voice>1</voice><type>eighth</type><stem>down</stem><lyric number="1"><syllabic>begin</syllabic><text>fil</text></lyric></note><note default-y="-20.00" default-x="146.80"><pitch><step>B</step><alter>-1</alter><octave>4</octave></pitch><duration>9</duration><tie type="start"/><voice>1</voice><type>quarter</type><dot/><stem>down</stem><notations><tied type="start"/></notations><lyric number="1"><syllabic>end</syllabic><text>ling,</text></lyric></note><harmony print-frame="no"><root><root-step>E</root-step></root><kind text="dim7">diminished-seventh</kind></harmony><note default-y="-20.00" default-x="193.07"><pitch><step>B</step><alter>-1</alter><octave>4</octave></pitch><duration>12</duration><tie type="stop"/><voice>1</voice><type>half</type><stem>down</stem><notations><tied type="stop"/></notations></note></measure><measure width="237.39" number="27"><harmony print-frame="no"><root><root-step>F</root-step></root><kind text="m7">minor-seventh</kind></harmony><note><rest/><duration>12</duration><voice>1</voice><type>half</type></note><note default-y="-25.00" default-x="92.29"><pitch><step>A</step><alter>-1</alter><octave>4</octave></pitch><duration>4</duration><voice>1</voice><type>quarter</type><time-modification><actual-notes>3</actual-notes><normal-notes>2</normal-notes></time-modification><stem>up</stem><notations><tuplet type="start" bracket="yes"/></notations><lyric number="1"><syllabic>begin</syllabic><text>cham</text></lyric></note><note default-y="-20.00" default-x="152.68"><pitch><step>B</step><alter>-1</alter><octave>4</octave></pitch><duration>4</duration><voice>1</voice><type>quarter</type><time-modification><actual-notes>3</actual-notes><normal-notes>2</normal-notes></time-modification><stem>up</stem><lyric number="1"><syllabic>end</syllabic><text>paigne</text></lyric></note><note default-y="-15.00" default-x="196.18"><pitch><step>C</step><octave>5</octave></pitch><duration>4</duration><voice>1</voice><type>quarter</type><time-modification><actual-notes>3</actual-notes><normal-notes>2</normal-notes></time-modification><stem>up</stem><notations><tuplet type="stop"/></notations><lyric number="1"><syllabic>single</syllabic><text>is</text></lyric></note></measure><measure width="168.61" number="28"><harmony print-frame="no"><root><root-step>C</root-step></root><kind text="m7">minor-seventh</kind></harmony><note default-y="-15.00" default-x="25.37"><pitch><step>C</step><octave>5</octave></pitch><duration>3</duration><voice>1</voice><type>eighth</type><stem>down</stem><lyric number="1"><syllabic>begin</syllabic><text>chil</text></lyric></note><note default-y="-30.00" default-x="68.55"><pitch><step>G</step><octave>4</octave></pitch><duration>9</duration><tie type="start"/><voice>1</voice><type>quarter</type><dot/><stem>up</stem><notations><tied type="start"/></notations><lyric number="1"><syllabic>end</syllabic><text>ling,</text></lyric></note><note default-y="-30.00" default-x="114.83"><pitch><step>G</step><octave>4</octave></pitch><duration>12</duration><tie type="stop"/><voice>1</voice><type>half</type><stem>up</stem><notations><tied type="stop"/></notations></note></measure><measure width="207.64" number="29"><harmony print-frame="no"><root><root-step>D</root-step><root-alter>-1</root-alter></root><kind text="Maj7">major-seventh</kind></harmony><note><rest/><duration>6</duration><voice>1</voice><type>quarter</type></note><note><rest/><duration>3</duration><voice>1</voice><type>eighth</type></note><note default-y="-35.00" default-x="84.51"><pitch><step>F</step><octave>4</octave></pitch><duration>3</duration><voice>1</voice><type>eighth</type><stem>up</stem><lyric number="1"><syllabic>single</syllabic><text>it's</text></lyric></note><note default-y="-30.00" default-x="123.06"><pitch><step>G</step><octave>4</octave></pitch><duration>9</duration><voice>1</voice><type>quarter</type><dot/><stem>up</stem><lyric number="1"><syllabic>single</syllabic><text>all</text></lyric></note><note default-y="-25.00" default-x="173.72"><pitch><step>A</step><alter>-1</alter><octave>4</octave></pitch><duration>3</duration><voice>1</voice><type>eighth</type><stem>up</stem><lyric number="1"><syllabic>single</syllabic><text>so</text></lyric></note></measure><measure width="169.32" number="30"><harmony print-frame="no"><root><root-step>A</root-step><root-alter>-1</root-alter></root><kind text="">major</kind><bass><bass-step>C</bass-step></bass></harmony><note default-y="-25.00" default-x="27.25"><pitch><step>A</step><alter>-1</alter><octave>4</octave></pitch><duration>3</duration><voice>1</voice><type>eighth</type><stem>up</stem><lyric number="1"><syllabic>begin</syllabic><text>thril</text></lyric></note><note default-y="-40.00" default-x="72.07"><pitch><step>E</step><alter>-1</alter><octave>4</octave></pitch><duration>9</duration><tie type="start"/><voice>1</voice><type>quarter</type><dot/><stem>up</stem><notations><tied type="start"/></notations><lyric number="1"><syllabic>end</syllabic><text>ling</text></lyric></note><note default-y="-40.00" default-x="117.02"><pitch><step>E</step><alter>-1</alter><octave>4</octave></pitch><duration>12</duration><tie type="stop"/><voice>1</voice><type>half</type><stem>up</stem><notations><tied type="stop"/></notations></note></measure><measure width="405.73" number="31"><print new-page="yes"><system-layout><system-margins><left-margin>47.28</left-margin><right-margin>0.00</right-margin></system-margins><top-system-distance>70.00</top-system-distance></system-layout></print><harmony print-frame="no"><root><root-step>B</root-step><root-alter>-1</root-alter></root><kind text="7">dominant</kind></harmony><note><rest/><duration>3</duration><voice>1</voice><type>eighth</type></note><note default-y="-35.00" default-x="139.52"><pitch><step>F</step><octave>4</octave></pitch><duration>3</duration><voice>1</voice><type>eighth</type><stem>up</stem><beam number="1">begin</beam><lyric number="1"><syllabic>single</syllabic><text>it's</text></lyric></note><note default-y="-15.00" default-x="185.68"><pitch><step>C</step><octave>5</octave></pitch><duration>3</duration><voice>1</voice><type>eighth</type><stem>up</stem><beam number="1">continue</beam><lyric number="1"><syllabic>begin</syllabic><text>Christ</text></lyric></note><note default-y="-15.00" default-x="237.32"><pitch><step>C</step><octave>5</octave></pitch><duration>3</duration><voice>1</voice><type>eighth</type><stem>up</stem><beam number="1">end</beam><lyric number="1"><syllabic>end</syllabic><text>mas</text></lyric></note><note default-y="-20.00" default-x="279.54"><pitch><step>B</step><alter>-1</alter><octave>4</octave></pitch><duration>9</duration><voice>1</voice><type>quarter</type><dot/><stem>down</stem><lyric number="1"><syllabic>single</syllabic><text>in</text></lyric></note><note default-y="-25.00" default-x="361.91"><pitch><step>A</step><alter>-1</alter><octave>4</octave></pitch><duration>3</duration><voice>1</voice><type>eighth</type><stem>up</stem><lyric number="1"><syllabic>single</syllabic><text>New</text></lyric></note></measure><measure width="192.81" number="32"><harmony print-frame="no"><root><root-step>B</root-step><root-alter>-1</root-alter></root><kind text="m7">minor-seventh</kind></harmony><harmony relative-x="1900.00" print-frame="no"><root><root-step>E</root-step><root-alter>-1</root-alter></root><kind text="7">dominant</kind></harmony><note default-y="-20.00" default-x="33.19"><pitch><step>B</step><alter>-1</alter><octave>4</octave></pitch><duration>24</duration><voice>1</voice><type>whole</type><lyric number="1"><syllabic>single</syllabic><text>York.</text></lyric></note></measure><measure width="239.83" number="33"><harmony print-frame="no"><root><root-step>A</root-step><root-alter>-1</root-alter></root><kind text="">major</kind></harmony><note><rest/><duration>12</duration><voice>1</voice><type>half</type></note><note default-y="-15.00" default-x="102.97"><pitch><step>C</step><octave>5</octave></pitch><duration>4</duration><voice>1</voice><type>quarter</type><time-modification><actual-notes>3</actual-notes><normal-notes>2</normal-notes></time-modification><stem>up</stem><notations><tuplet type="start" bracket="yes"/></notations><lyric number="1"><syllabic>single</syllabic><text>Log</text></lyric></note><note default-y="-10.00" default-x="148.05"><pitch><step>D</step><alter>-1</alter><octave>5</octave></pitch><duration>4</duration><voice>1</voice><type>quarter</type><time-modification><actual-notes>3</actual-notes><normal-notes>2</normal-notes></time-modification><stem>up</stem><lyric number="1"><syllabic>single</syllabic><text>fires</text></lyric></note><note default-y="-5.00" default-x="193.14"><pitch><step>E</step><alter>-1</alter><octave>5</octave></pitch><duration>4</duration><voice>1</voice><type>quarter</type><time-modification><actual-notes>3</actual-notes><normal-notes>2</normal-notes></time-modification><stem>up</stem><notations><tuplet type="stop"/></notations><lyric number="1"><syllabic>single</syllabic><text>are</text></lyric></note></measure><measure width="191.46" number="34"><harmony print-frame="no"><root><root-step>E</root-step><root-alter>-1</root-alter></root><kind text="">major</kind><bass><bass-step>G</bass-step></bass></harmony><note default-y="-5.00" default-x="29.13"><pitch><step>E</step><alter>-1</alter><octave>5</octave></pitch><duration>3</duration><voice>1</voice><type>eighth</type><stem>down</stem><lyric number="1"><syllabic>begin</syllabic><text>burn</text></lyric></note><note default-y="-20.00" default-x="70.12"><pitch><step>B</step><alter>-1</alter><octave>4</octave></pitch><duration>9</duration><tie type="start"/><voice>1</voice><type>quarter</type><dot/><stem>down</stem><notations><tied type="start"/></notations><lyric number="1"><syllabic>end</syllabic><text>ing</text></lyric></note><note default-y="-20.00" default-x="126.40"><pitch><step>B</step><alter>-1</alter><octave>4</octave></pitch><duration>12</duration><tie type="stop"/><voice>1</voice><type>half</type><stem>down</stem><notations><tied type="stop"/></notations></note></measure><measure width="325.95" number="35"><print new-system="yes"><system-layout><system-margins><left-margin>47.28</left-margin><right-margin>-0.00</right-margin></system-margins><system-distance>180.15</system-distance></system-layout></print><harmony print-frame="no"><root><root-step>F</root-step></root><kind text="m">minor</kind></harmony><note><rest/><duration>12</duration><voice>1</voice><type>half</type></note><note default-y="-25.00" default-x="186.77"><pitch><step>A</step><alter>-1</alter><octave>4</octave></pitch><duration>4</duration><voice>1</voice><type>quarter</type><time-modification><actual-notes>3</actual-notes><normal-notes>2</normal-notes></time-modification><stem>up</stem><notations><tuplet type="start" bracket="yes"/></notations><lyric number="1"><syllabic>begin</syllabic><text>San</text></lyric></note><note default-y="-20.00" default-x="232.63"><pitch><step>B</step><alter>-1</alter><octave>4</octave></pitch><duration>4</duration><voice>1</voice><type>quarter</type><time-modification><actual-notes>3</actual-notes><normal-notes>2</normal-notes></time-modification><stem>up</stem><lyric number="1"><syllabic>end</syllabic><text>ta's</text></lyric></note><note default-y="-15.00" default-x="278.49"><pitch><step>C</step><octave>5</octave></pitch><duration>4</duration><voice>1</voice><type>quarter</type><time-modification><actual-notes>3</actual-notes><normal-notes>2</normal-notes></time-modification><stem>up</stem><notations><tuplet type="stop"/></notations><lyric number="1"><syllabic>begin</syllabic><text>re</text></lyric></note></measure><measure width="215.88" number="36"><harmony print-frame="no"><root><root-step>C</root-step></root><kind text="m">minor</kind><bass><bass-step>E</bass-step><bass-alter>-1</bass-alter></bass></harmony><note default-y="-15.00" default-x="26.62"><pitch><step>C</step><octave>5</octave></pitch><duration>3</duration><voice>1</voice><type>eighth</type><stem>down</stem><lyric number="1"><syllabic>middle</syllabic><text>turn</text></lyric></note><note default-y="-30.00" default-x="67.93"><pitch><step>G</step><octave>4</octave></pitch><duration>9</duration><tie type="start"/><voice>1</voice><type>quarter</type><dot/><stem>up</stem><notations><tied type="start"/></notations><lyric number="1"><syllabic>end</syllabic><text>ing,</text></lyric></note><note default-y="-30.00" default-x="136.71"><pitch><step>G</step><octave>4</octave></pitch><duration>12</duration><tie type="stop"/><voice>1</voice><type>half</type><stem>up</stem><notations><tied type="stop"/></notations></note></measure><measure width="258.37" number="37"><harmony print-frame="no"><root><root-step>D</root-step><root-alter>-1</root-alter></root><kind text="">major</kind></harmony><note><rest/><duration>12</duration><voice>1</voice><type>half</type></note><note default-y="-35.00" default-x="110.27"><pitch><step>F</step><octave>4</octave></pitch><duration>4</duration><voice>1</voice><type>quarter</type><time-modification><actual-notes>3</actual-notes><normal-notes>2</normal-notes></time-modification><stem>up</stem><notations><tuplet type="start" bracket="yes"/></notations><lyric number="1"><syllabic>begin</syllabic><text>fil</text></lyric></note><note default-y="-30.00" default-x="159.10"><pitch><step>G</step><octave>4</octave></pitch><duration>4</duration><voice>1</voice><type>quarter</type><time-modification><actual-notes>3</actual-notes><normal-notes>2</normal-notes></time-modification><stem>up</stem><lyric number="1"><syllabic>end</syllabic><text>ling</text></lyric></note><note default-y="-25.00" default-x="207.93"><pitch><step>A</step><alter>-1</alter><octave>4</octave></pitch><duration>4</duration><voice>1</voice><type>quarter</type><time-modification><actual-notes>3</actual-notes><normal-notes>2</normal-notes></time-modification><stem>up</stem><notations><tuplet type="stop"/></notations><lyric number="1"><syllabic>single</syllabic><text>each</text></lyric></note></measure><measure width="229.63" number="38"><harmony print-frame="no"><root><root-step>A</root-step><root-alter>-1</root-alter></root><kind text="">major</kind><bass><bass-step>E</bass-step></bass></harmony><note default-y="-25.00" default-x="33.50"><pitch><step>A</step><alter>-1</alter><octave>4</octave></pitch><duration>3</duration><voice>1</voice><type>eighth</type><stem>up</stem><lyric number="1"><syllabic>begin</syllabic><text>yearn</text></lyric></note><note default-y="-40.00" default-x="81.68"><pitch><step>E</step><alter>-1</alter><octave>4</octave></pitch><duration>9</duration><tie type="start"/><voice>1</voice><type>quarter</type><dot/><stem>up</stem><notations><tied type="start"/></notations><lyric number="1"><syllabic>single</syllabic><text>ing,</text></lyric></note><note default-y="-40.00" default-x="150.46"><pitch><step>E</step><alter>-1</alter><octave>4</octave></pitch><duration>12</duration><tie type="stop"/><voice>1</voice><type>half</type><stem>up</stem><notations><tied type="stop"/></notations></note></measure><measure width="375.47" number="39"><print new-system="yes"><system-layout><system-margins><left-margin>47.28</left-margin><right-margin>-0.00</right-margin></system-margins><system-distance>180.15</system-distance></system-layout></print><harmony print-frame="no"><root><root-step>B</root-step><root-alter>-1</root-alter></root><kind text="m7">minor-seventh</kind></harmony><note><rest/><duration>3</duration><voice>1</voice><type>eighth</type></note><note default-y="-35.00" default-x="133.41"><pitch><step>F</step><octave>4</octave></pitch><duration>3</duration><voice>1</voice><type>eighth</type><stem>up</stem><beam number="1">begin</beam><lyric number="1"><syllabic>single</syllabic><text>it's</text></lyric></note><note default-y="-35.00" default-x="179.57"><pitch><step>F</step><octave>4</octave></pitch><duration>3</duration><voice>1</voice><type>eighth</type><stem>up</stem><beam number="1">continue</beam><lyric number="1"><syllabic>begin</syllabic><text>Christ</text></lyric></note><note default-y="-25.00" default-x="231.21"><pitch><step>A</step><alter>-1</alter><octave>4</octave></pitch><duration>3</duration><voice>1</voice><type>eighth</type><stem>up</stem><beam number="1">end</beam><lyric number="1"><syllabic>end</syllabic><text>mas</text></lyric></note><harmony print-frame="no"><root><root-step>E</root-step><root-alter>-1</root-alter></root><kind text="7">dominant</kind></harmony><note default-y="-15.00" default-x="267.32"><pitch><step>C</step><octave>5</octave></pitch><duration>9</duration><voice>1</voice><type>quarter</type><dot/><stem>down</stem><lyric number="1"><syllabic>single</syllabic><text>in</text></lyric></note><note default-y="-20.00" default-x="337.76"><pitch><step>B</step><alter>-1</alter><octave>4</octave></pitch><duration>3</duration><voice>1</voice><type>eighth</type><stem>down</stem><lyric number="1"><syllabic>single</syllabic><text>New</text></lyric></note></measure><measure width="111.13" number="40"><harmony print-frame="no"><root><root-step>A</root-step><root-alter>-1</root-alter></root><kind text="">major</kind></harmony><note default-y="-25.00" default-x="30.38"><pitch><step>A</step><alter>-1</alter><octave>4</octave></pitch><duration>24</duration><voice>1</voice><type>whole</type><lyric number="1"><syllabic>single</syllabic><text>York</text></lyric></note></measure><measure width="254.68" number="41"><harmony print-frame="no"><root><root-step>A</root-step><root-alter>-1</root-alter></root><kind text="">major</kind></harmony><note><rest/><duration>12</duration><voice>1</voice><type>half</type></note><note default-y="-15.00" default-x="98.91"><pitch><step>C</step><octave>5</octave></pitch><duration>4</duration><voice>1</voice><type>quarter</type><time-modification><actual-notes>3</actual-notes><normal-notes>2</normal-notes></time-modification><stem>up</stem><notations><tuplet type="start" bracket="yes"/></notations><lyric number="1"><syllabic>single</syllabic><text>Instrumental</text><extend/></lyric></note><note default-y="-10.00" default-x="167.06"><pitch><step>D</step><alter>-1</alter><octave>5</octave></pitch><duration>4</duration><voice>1</voice><type>quarter</type><time-modification><actual-notes>3</actual-notes><normal-notes>2</normal-notes></time-modification><stem>up</stem></note><note default-y="-5.00" default-x="210.07"><pitch><step>E</step><alter>-1</alter><octave>5</octave></pitch><duration>4</duration><voice>1</voice><type>quarter</type><time-modification><actual-notes>3</actual-notes><normal-notes>2</normal-notes></time-modification><stem>up</stem><notations><tuplet type="stop"/></notations></note></measure><measure width="148.96" number="42"><harmony print-frame="no"><root><root-step>E</root-step><root-alter>-1</root-alter></root><kind text="">major</kind><bass><bass-step>G</bass-step></bass></harmony><note default-y="-5.00" default-x="15.00"><pitch><step>E</step><alter>-1</alter><octave>5</octave></pitch><duration>3</duration><voice>1</voice><type>eighth</type><stem>down</stem></note><note default-y="-20.00" default-x="40.70"><pitch><step>B</step><alter>-1</alter><octave>4</octave></pitch><duration>9</duration><tie type="start"/><voice>1</voice><type>quarter</type><dot/><stem>down</stem><notations><tied type="start"/></notations></note><harmony print-frame="no"><root><root-step>E</root-step></root><kind text="dim7">diminished-seventh</kind></harmony><note default-y="-20.00" default-x="90.83"><pitch><step>B</step><alter>-1</alter><octave>4</octave></pitch><duration>12</duration><tie type="stop"/><voice>1</voice><type>half</type><stem>down</stem><notations><tied type="stop"/></notations></note></measure><measure width="139.59" number="43"><harmony print-frame="no"><root><root-step>F</root-step></root><kind text="m7">minor-seventh</kind></harmony><note><rest/><duration>12</duration><voice>1</voice><type>half</type></note><note default-y="-25.00" default-x="63.47"><pitch><step>A</step><alter>-1</alter><octave>4</octave></pitch><duration>4</duration><voice>1</voice><type>quarter</type><time-modification><actual-notes>3</actual-notes><normal-notes>2</normal-notes></time-modification><stem>up</stem><notations><tuplet type="start" bracket="yes"/></notations></note><note default-y="-20.00" default-x="88.31"><pitch><step>B</step><alter>-1</alter><octave>4</octave></pitch><duration>4</duration><voice>1</voice><type>quarter</type><time-modification><actual-notes>3</actual-notes><normal-notes>2</normal-notes></time-modification><stem>up</stem></note><note default-y="-15.00" default-x="113.15"><pitch><step>C</step><octave>5</octave></pitch><duration>4</duration><voice>1</voice><type>quarter</type><time-modification><actual-notes>3</actual-notes><normal-notes>2</normal-notes></time-modification><stem>up</stem><notations><tuplet type="stop"/></notations></note></measure><measure width="338.98" number="44"><print new-system="yes"><system-layout><system-margins><left-margin>47.28</left-margin><right-margin>-0.00</right-margin></system-margins><system-distance>180.15</system-distance></system-layout></print><harmony print-frame="no"><root><root-step>C</root-step></root><kind text="m7">minor-seventh</kind></harmony><note default-y="-15.00" default-x="161.44"><pitch><step>C</step><octave>5</octave></pitch><duration>3</duration><voice>1</voice><type>eighth</type><stem>down</stem><lyric number="1"><syllabic>single</syllabic><text>Instrumental</text><extend/></lyric></note><note default-y="-30.00" default-x="229.59"><pitch><step>G</step><octave>4</octave></pitch><duration>9</duration><tie type="start"/><voice>1</voice><type>quarter</type><dot/><stem>up</stem><notations><tied type="start"/></notations></note><note default-y="-30.00" default-x="280.25"><pitch><step>G</step><octave>4</octave></pitch><duration>12</duration><tie type="stop"/><voice>1</voice><type>half</type><stem>up</stem><notations><tied type="stop"/></notations></note></measure><measure width="188.23" number="45"><harmony print-frame="no"><root><root-step>D</root-step><root-alter>-1</root-alter></root><kind text="Maj7">major-seventh</kind></harmony><note><rest/><duration>6</duration><voice>1</voice><type>quarter</type></note><note><rest/><duration>3</duration><voice>1</voice><type>eighth</type></note><note default-y="-35.00" default-x="79.55"><pitch><step>F</step><octave>4</octave></pitch><duration>3</duration><voice>1</voice><type>eighth</type><stem>up</stem></note><note default-y="-30.00" default-x="105.87"><pitch><step>G</step><octave>4</octave></pitch><duration>9</duration><voice>1</voice><type>quarter</type><dot/><stem>up</stem></note><note default-y="-25.00" default-x="154.31"><pitch><step>A</step><alter>-1</alter><octave>4</octave></pitch><duration>3</duration><voice>1</voice><type>eighth</type><stem>up</stem></note></measure><measure width="150.71" number="46"><harmony print-frame="no"><root><root-step>A</root-step><root-alter>-1</root-alter></root><kind text="">major</kind><bass><bass-step>C</bass-step></bass></harmony><note default-y="-25.00" default-x="15.00"><pitch><step>A</step><alter>-1</alter><octave>4</octave></pitch><duration>3</duration><voice>1</voice><type>eighth</type><stem>up</stem></note><note default-y="-40.00" default-x="41.32"><pitch><step>E</step><alter>-1</alter><octave>4</octave></pitch><duration>9</duration><tie type="start"/><voice>1</voice><type>quarter</type><dot/><stem>up</stem><notations><tied type="start"/></notations></note><note default-y="-40.00" default-x="91.98"><pitch><step>E</step><alter>-1</alter><octave>4</octave></pitch><duration>12</duration><tie type="stop"/><voice>1</voice><type>half</type><stem>up</stem><notations><tied type="stop"/></notations></note></measure><measure width="198.71" number="47"><harmony print-frame="no"><root><root-step>B</root-step><root-alter>-1</root-alter></root><kind text="7">dominant</kind></harmony><note><rest/><duration>3</duration><voice>1</voice><type>eighth</type></note><note default-y="-35.00" default-x="40.17"><pitch><step>F</step><octave>4</octave></pitch><duration>3</duration><voice>1</voice><type>eighth</type><stem>down</stem><beam number="1">begin</beam></note><note default-y="-15.00" default-x="65.34"><pitch><step>C</step><octave>5</octave></pitch><duration>3</duration><voice>1</voice><type>eighth</type><stem>down</stem><beam number="1">continue</beam></note><note default-y="-15.00" default-x="90.51"><pitch><step>C</step><octave>5</octave></pitch><duration>3</duration><voice>1</voice><type>eighth</type><stem>down</stem><beam number="1">end</beam></note><note default-y="-20.00" default-x="115.68"><pitch><step>B</step><alter>-1</alter><octave>4</octave></pitch><duration>9</duration><voice>1</voice><type>quarter</type><dot/><stem>down</stem></note><note default-y="-25.00" default-x="164.79"><pitch><step>A</step><alter>-1</alter><octave>4</octave></pitch><duration>3</duration><voice>1</voice><type>eighth</type><stem>up</stem></note></measure><measure width="153.19" number="48"><harmony print-frame="no"><root><root-step>B</root-step><root-alter>-1</root-alter></root><kind text="m7">minor-seventh</kind></harmony><harmony relative-x="2900.00" print-frame="no"><root><root-step>E</root-step><root-alter>-1</root-alter></root><kind text="7">dominant</kind></harmony><note default-y="-20.00" default-x="15.00"><pitch><step>B</step><alter>-1</alter><octave>4</octave></pitch><duration>24</duration><voice>1</voice><type>whole</type></note></measure><measure width="323.65" number="49"><print new-system="yes"><system-layout><system-margins><left-margin>47.28</left-margin><right-margin>-0.00</right-margin></system-margins><system-distance>180.15</system-distance></system-layout></print><harmony print-frame="no"><root><root-step>A</root-step><root-alter>-1</root-alter></root><kind text="">major</kind></harmony><note><rest/><duration>12</duration><voice>1</voice><type>half</type></note><note default-y="-15.00" default-x="178.46"><pitch><step>C</step><octave>5</octave></pitch><duration>4</duration><voice>1</voice><type>quarter</type><time-modification><actual-notes>3</actual-notes><normal-notes>2</normal-notes></time-modification><stem>up</stem><notations><tuplet type="start" bracket="yes"/></notations><lyric number="1"><syllabic>single</syllabic><text>Church</text></lyric></note><note default-y="-10.00" default-x="238.86"><pitch><step>D</step><alter>-1</alter><octave>5</octave></pitch><duration>4</duration><voice>1</voice><type>quarter</type><time-modification><actual-notes>3</actual-notes><normal-notes>2</normal-notes></time-modification><stem>up</stem><lyric number="1"><syllabic>end</syllabic><text>bells</text></lyric></note><note default-y="-5.00" default-x="280.46"><pitch><step>E</step><alter>-1</alter><octave>5</octave></pitch><duration>4</duration><voice>1</voice><type>quarter</type><time-modification><actual-notes>3</actual-notes><normal-notes>2</normal-notes></time-modification><stem>up</stem><notations><tuplet type="stop"/></notations><lyric number="1"><syllabic>single</syllabic><text>are</text></lyric></note></measure><measure width="161.02" number="50"><harmony print-frame="no"><root><root-step>E</root-step><root-alter>-1</root-alter></root><kind text="">major</kind><bass><bass-step>G</bass-step></bass></harmony><note default-y="-5.00" default-x="26.62"><pitch><step>E</step><alter>-1</alter><octave>5</octave></pitch><duration>3</duration><voice>1</voice><type>eighth</type><stem>down</stem><lyric number="1"><syllabic>begin</syllabic><text>ring</text></lyric></note><note default-y="-20.00" default-x="67.93"><pitch><step>B</step><alter>-1</alter><octave>4</octave></pitch><duration>9</duration><tie type="start"/><voice>1</voice><type>quarter</type><dot/><stem>down</stem><notations><tied type="start"/></notations><lyric number="1"><syllabic>end</syllabic><text>ing,</text></lyric></note><note default-y="-20.00" default-x="110.93"><pitch><step>B</step><alter>-1</alter><octave>4</octave></pitch><duration>12</duration><tie type="stop"/><voice>1</voice><type>half</type><stem>down</stem><notations><tied type="stop"/></notations></note></measure><measure width="188.46" number="51"><harmony print-frame="no"><root><root-step>F</root-step></root><kind text="m7">minor-seventh</kind></harmony><note><rest/><duration>12</duration><voice>1</voice><type>half</type></note><note default-y="-25.00" default-x="82.72"><pitch><step>A</step><alter>-1</alter><octave>4</octave></pitch><duration>4</duration><voice>1</voice><type>quarter</type><time-modification><actual-notes>3</actual-notes><normal-notes>2</normal-notes></time-modification><stem>up</stem><notations><tuplet type="start" bracket="yes"/></notations><lyric number="1"><syllabic>begin</syllabic><text>cho</text></lyric></note><note default-y="-20.00" default-x="117.44"><pitch><step>B</step><alter>-1</alter><octave>4</octave></pitch><duration>4</duration><voice>1</voice><type>quarter</type><time-modification><actual-notes>3</actual-notes><normal-notes>2</normal-notes></time-modification><stem>up</stem><lyric number="1"><syllabic>end</syllabic><text>irs</text></lyric></note><note default-y="-15.00" default-x="152.15"><pitch><step>C</step><octave>5</octave></pitch><duration>4</duration><voice>1</voice><type>quarter</type><time-modification><actual-notes>3</actual-notes><normal-notes>2</normal-notes></time-modification><stem>up</stem><notations><tuplet type="stop"/></notations><lyric number="1"><syllabic>single</syllabic><text>are</text></lyric></note></measure><measure width="156.66" number="52"><harmony print-frame="no"><root><root-step>C</root-step></root><kind text="m7">minor-seventh</kind></harmony><note default-y="-15.00" default-x="27.26"><pitch><step>C</step><octave>5</octave></pitch><duration>3</duration><voice>1</voice><type>eighth</type><stem>down</stem><lyric number="1"><syllabic>begin</syllabic><text>sing</text></lyric></note><note default-y="-30.00" default-x="66.38"><pitch><step>G</step><octave>4</octave></pitch><duration>9</duration><tie type="start"/><voice>1</voice><type>quarter</type><dot/><stem>up</stem><notations><tied type="start"/></notations><lyric number="1"><syllabic>end</syllabic><text>ing</text></lyric></note><note default-y="-30.00" default-x="108.06"><pitch><step>G</step><octave>4</octave></pitch><duration>12</duration><tie type="stop"/><voice>1</voice><type>half</type><stem>up</stem><notations><tied type="stop"/></notations></note></measure><measure width="200.03" number="53"><harmony print-frame="no"><root><root-step>D</root-step><root-alter>-1</root-alter></root><kind text="Maj7">major-seventh</kind></harmony><note><rest/><duration>12</duration><voice>1</voice><type>half</type></note><note default-y="-35.00" default-x="84.15"><pitch><step>F</step><octave>4</octave></pitch><duration>4</duration><voice>1</voice><type>quarter</type><time-modification><actual-notes>3</actual-notes><normal-notes>2</normal-notes></time-modification><stem>up</stem><notations><tuplet type="start" bracket="yes"/></notations><lyric number="1"><syllabic>single</syllabic><text>joy</text></lyric></note><note default-y="-30.00" default-x="123.89"><pitch><step>G</step><octave>4</octave></pitch><duration>4</duration><voice>1</voice><type>quarter</type><time-modification><actual-notes>3</actual-notes><normal-notes>2</normal-notes></time-modification><stem>up</stem><lyric number="1"><syllabic>single</syllabic><text>they</text></lyric></note><note default-y="-25.00" default-x="162.99"><pitch><step>A</step><alter>-1</alter><octave>4</octave></pitch><duration>4</duration><voice>1</voice><type>quarter</type><time-modification><actual-notes>3</actual-notes><normal-notes>2</normal-notes></time-modification><stem>up</stem><notations><tuplet type="stop"/></notations><lyric number="1"><syllabic>single</syllabic><text>are</text></lyric></note></measure><measure width="252.13" number="54"><print new-system="yes"><system-layout><system-margins><left-margin>47.28</left-margin><right-margin>-0.00</right-margin></system-margins><system-distance>180.15</system-distance></system-layout></print><harmony print-frame="no"><root><root-step>A</root-step><root-alter>-1</root-alter></root><kind text="">major</kind><bass><bass-step>C</bass-step></bass></harmony><note default-y="-25.00" default-x="122.06"><pitch><step>A</step><alter>-1</alter><octave>4</octave></pitch><duration>3</duration><voice>1</voice><type>eighth</type><stem>up</stem><lyric number="1"><syllabic>begin</syllabic><text>bring</text></lyric></note><note default-y="-40.00" default-x="169.00"><pitch><step>E</step><alter>-1</alter><octave>4</octave></pitch><duration>9</duration><tie type="start"/><voice>1</voice><type>quarter</type><dot/><stem>up</stem><notations><tied type="start"/></notations><lyric number="1"><syllabic>single</syllabic><text>ing,</text></lyric></note><note default-y="-40.00" default-x="207.32"><pitch><step>E</step><alter>-1</alter><octave>4</octave></pitch><duration>12</duration><tie type="stop"/><voice>1</voice><type>half</type><stem>up</stem><notations><tied type="stop"/></notations></note></measure><measure width="282.32" number="55"><harmony print-frame="no"><root><root-step>B</root-step><root-alter>-1</root-alter></root><kind text="m7">minor-seventh</kind></harmony><note><rest/><duration>3</duration><voice>1</voice><type>eighth</type></note><note default-y="-35.00" default-x="48.91"><pitch><step>F</step><octave>4</octave></pitch><duration>3</duration><voice>1</voice><type>eighth</type><stem>up</stem><beam number="1">begin</beam><lyric number="1"><syllabic>single</syllabic><text>it's</text></lyric></note><note default-y="-35.00" default-x="95.08"><pitch><step>F</step><octave>4</octave></pitch><duration>3</duration><voice>1</voice><type>eighth</type><stem>up</stem><beam number="1">continue</beam><lyric number="1"><syllabic>begin</syllabic><text>Christ</text></lyric></note><note default-y="-25.00" default-x="146.72"><pitch><step>A</step><alter>-1</alter><octave>4</octave></pitch><duration>3</duration><voice>1</voice><type>eighth</type><stem>up</stem><beam number="1">end</beam><lyric number="1"><syllabic>end</syllabic><text>mas</text></lyric></note><harmony print-frame="no"><root><root-step>E</root-step><root-alter>-1</root-alter></root><kind text="7">dominant</kind></harmony><note default-y="-15.00" default-x="180.63"><pitch><step>C</step><octave>5</octave></pitch><duration>9</duration><voice>1</voice><type>quarter</type><dot/><stem>down</stem><lyric number="1"><syllabic>single</syllabic><text>in</text></lyric></note><note default-y="-20.00" default-x="246.80"><pitch><step>B</step><alter>-1</alter><octave>4</octave></pitch><duration>3</duration><voice>1</voice><type>eighth</type><stem>down</stem><lyric number="1"><syllabic>single</syllabic><text>New</text></lyric></note></measure><measure width="105.91" number="56"><harmony print-frame="no"><root><root-step>A</root-step><root-alter>-1</root-alter></root><kind text="6">major-sixth</kind></harmony><note default-y="-25.00" default-x="33.19"><pitch><step>A</step><alter>-1</alter><octave>4</octave></pitch><duration>24</duration><voice>1</voice><type>whole</type><lyric number="1"><syllabic>single</syllabic><text>York.</text></lyric></note></measure><measure width="283.56" number="57"><harmony print-frame="no"><root><root-step>B</root-step><root-alter>-1</root-alter></root><kind text="m7">minor-seventh</kind></harmony><note><rest/><duration>3</duration><voice>1</voice><type>eighth</type></note><note default-y="-45.00" default-x="49.04"><pitch><step>D</step><alter>-1</alter><octave>4</octave></pitch><duration>3</duration><voice>1</voice><type>eighth</type><stem>up</stem><beam number="1">begin</beam><lyric number="1"><syllabic>single</syllabic><text>It's</text></lyric></note><note default-y="-35.00" default-x="95.83"><pitch><step>F</step><octave>4</octave></pitch><duration>3</duration><voice>1</voice><type>eighth</type><stem>up</stem><beam number="1">continue</beam><lyric number="1"><syllabic>begin</syllabic><text>Christ</text></lyric></note><note default-y="-25.00" default-x="147.47"><pitch><step>A</step><alter>-1</alter><octave>4</octave></pitch><duration>3</duration><voice>1</voice><type>eighth</type><stem>up</stem><beam number="1">end</beam><lyric number="1"><syllabic>end</syllabic><text>mas</text></lyric></note><harmony print-frame="no"><root><root-step>E</root-step><root-alter>-1</root-alter></root><kind text="7">dominant</kind></harmony><note default-y="-15.00" default-x="181.51"><pitch><step>C</step><octave>5</octave></pitch><duration>9</duration><voice>1</voice><type>quarter</type><dot/><stem>down</stem><lyric number="1"><syllabic>single</syllabic><text>in</text></lyric></note><note default-y="-20.00" default-x="247.92"><pitch><step>B</step><alter>-1</alter><octave>4</octave></pitch><duration>3</duration><voice>1</voice><type>eighth</type><stem>down</stem><lyric number="1"><syllabic>single</syllabic><text>New</text></lyric></note></measure><measure width="105.91" number="58"><harmony print-frame="no"><root><root-step>A</root-step><root-alter>-1</root-alter></root><kind text="">major</kind></harmony><note default-y="-25.00" default-x="33.19"><pitch><step>A</step><alter>-1</alter><octave>4</octave></pitch><duration>24</duration><voice>1</voice><type>whole</type><lyric number="1"><syllabic>single</syllabic><text>York.</text></lyric></note></measure><measure width="507.92" number="59"><print new-system="yes"><system-layout><system-margins><left-margin>47.28</left-margin><right-margin>-0.00</right-margin></system-margins><system-distance>180.15</system-distance></system-layout></print><harmony print-frame="no"><root><root-step>B</root-step><root-alter>-1</root-alter></root><kind text="m7">minor-seventh</kind></harmony><note><rest/><duration>3</duration><voice>1</voice><type>eighth</type></note><note default-y="-45.00" default-x="154.11"><pitch><step>D</step><alter>-1</alter><octave>4</octave></pitch><duration>3</duration><voice>1</voice><type>eighth</type><stem>up</stem><beam number="1">begin</beam><lyric number="1"><syllabic>single</syllabic><text>It's</text></lyric></note><note default-y="-35.00" default-x="210.92"><pitch><step>F</step><octave>4</octave></pitch><duration>3</duration><voice>1</voice><type>eighth</type><stem>up</stem><beam number="1">continue</beam><lyric number="1"><syllabic>begin</syllabic><text>Christ</text></lyric></note><note default-y="-25.00" default-x="267.73"><pitch><step>A</step><alter>-1</alter><octave>4</octave></pitch><duration>3</duration><voice>1</voice><type>eighth</type><stem>up</stem><beam number="1">end</beam><lyric number="1"><syllabic>end</syllabic><text>mas</text></lyric></note><harmony print-frame="no"><root><root-step>E</root-step><root-alter>-1</root-alter></root><kind text="7">dominant</kind></harmony><note default-y="-15.00" default-x="324.53"><pitch><step>C</step><octave>5</octave></pitch><duration>6</duration><voice>1</voice><type>quarter</type><stem>down</stem><lyric number="1"><syllabic>single</syllabic><text>in</text></lyric></note><note default-y="-5.00" default-x="415.43"><pitch><step>E</step><alter>-1</alter><octave>5</octave></pitch><duration>6</duration><voice>1</voice><type>quarter</type><stem>down</stem><lyric number="1"><syllabic>single</syllabic><text>New</text></lyric></note></measure><measure width="283.09" number="60"><harmony print-frame="no"><root><root-step>A</root-step><root-alter>-1</root-alter></root><kind text="">major</kind></harmony><note default-y="-20.00" default-x="33.19"><pitch><step>B</step><alter>-1</alter><octave>4</octave></pitch><duration>3</duration><voice>1</voice><type>eighth</type><stem>down</stem><lyric number="1"><syllabic>single</syllabic><text>York.</text></lyric></note><note default-y="-25.00" default-x="81.40"><pitch><step>A</step><alter>-1</alter><octave>4</octave></pitch><duration>9</duration><tie type="start"/><voice>1</voice><type>quarter</type><dot/><stem>up</stem><notations><tied type="start"/></notations></note><note default-y="-25.00" default-x="175.44"><pitch><step>A</step><alter>-1</alter><octave>4</octave></pitch><duration>12</duration><tie type="stop"/><tie type="start"/><voice>1</voice><type>half</type><stem>up</stem><notations><tied type="stop"/><tied type="start"/></notations></note></measure><measure width="238.81" number="61"><note default-y="-25.00" default-x="15.00"><pitch><step>A</step><alter>-1</alter><octave>4</octave></pitch><duration>18</duration><tie type="stop"/><voice>1</voice><type>half</type><dot/><stem>up</stem><notations><tied type="stop"/></notations></note><note><rest/><duration>6</duration><voice>1</voice><type>quarter</type></note><barline location="right"><bar-style>light-heavy</bar-style></barline></measure></part></score-partwise>