<score-partwise version="2.0"><work><work-number/><work-title/></work><movement-number/><movement-title>This Masquerade</movement-title><identification><creator type="composer">Leon Russell</creator><creator type="poet"/><rights>All Rights Reserved</rights><encoding><software>MuseScore 0.9.5</software><encoding-date>2010-03-27</encoding-date><software>ProxyMusic 2.0 c</software></encoding><source>http://wikifonia.org/node/5197/revisions/7041/view</source></identification><defaults><scaling><millimeters>5.7</millimeters><tenths>40</tenths></scaling><page-layout><page-height>2084.21</page-height><page-width>1473.68</page-width><page-margins type="both"><left-margin>70.1754</left-margin><right-margin>70.1754</right-margin><top-margin>70.1754</top-margin><bottom-margin>140.351</bottom-margin></page-margins></page-layout></defaults><credit page="1"><credit-words font-size="24" default-y="2014.04" default-x="736.842" justify="center" valign="top">This Masquerade</credit-words></credit><credit page="1"><credit-words font-size="12" default-y="1944.92" default-x="1403.51" justify="right" valign="top">Leon Russell</credit-words></credit><credit page="1"><credit-words font-size="14" default-y="1943.86" default-x="736.842" justify="center" valign="top">(As sung by George Benson)</credit-words></credit><credit page="1"><credit-words font-size="8" default-y="140.351" default-x="736.842" justify="center" valign="bottom">1977 Skyhill Music</credit-words></credit><part-list><score-part id="P1"><part-name/><score-instrument id="P1-I3"><instrument-name/></score-instrument><midi-instrument id="P1-I3"><midi-channel>1</midi-channel><midi-program>41</midi-program></midi-instrument></score-part></part-list><part id="P1"><measure width="286.31" number="1"><print><system-layout><system-margins><left-margin>3.00</left-margin><right-margin>876.56</right-margin></system-margins><top-system-distance>258.85</top-system-distance></system-layout></print><barline location="left"><bar-style>heavy-light</bar-style><repeat direction="forward"/></barline><attributes><divisions>480</divisions><key><fifths>-4</fifths><mode>major</mode></key><time><beats>4</beats><beat-type>4</beat-type></time><clef><sign>G</sign><line>2</line></clef></attributes><harmony print-frame="no"><root><root-step>F</root-step></root><kind text="m7">minor-seventh</kind></harmony><direction placement="above"><direction-type><words>Med-Slow Latin/Rock =91</words></direction-type><sound tempo="91.0002"/></direction><direction placement="below"><direction-type><words>(voice/gtr solo)</words></direction-type></direction><note default-y="-20.00" default-x="147.33"><pitch><step>B</step><alter>-1</alter><octave>4</octave></pitch><duration>480</duration><voice>1</voice><type>quarter</type><stem>down</stem><notehead>slash</notehead></note><note default-y="-20.00" default-x="181.67"><pitch><step>B</step><alter>-1</alter><octave>4</octave></pitch><duration>480</duration><voice>1</voice><type>quarter</type><stem>down</stem><notehead>slash</notehead></note><note default-y="-20.00" default-x="216.02"><pitch><step>B</step><alter>-1</alter><octave>4</octave></pitch><duration>480</duration><voice>1</voice><type>quarter</type><stem>down</stem><notehead>slash</notehead></note><note default-y="-20.00" default-x="250.36"><pitch><step>B</step><alter>-1</alter><octave>4</octave></pitch><duration>480</duration><voice>1</voice><type>quarter</type><stem>down</stem><notehead>slash</notehead></note></measure><measure width="167.47" number="2"><harmony print-frame="no"><root><root-step>B</root-step><root-alter>-1</root-alter></root><kind text="13">dominant-13th</kind></harmony><note default-y="-20.00" default-x="15.00"><pitch><step>B</step><alter>-1</alter><octave>4</octave></pitch><duration>480</duration><voice>1</voice><type>quarter</type><stem>down</stem><notehead>slash</notehead></note><direction placement="below"><direction-type><words>(vamp till cue)</words></direction-type></direction><note default-y="-20.00" default-x="49.34"><pitch><step>B</step><alter>-1</alter><octave>4</octave></pitch><duration>480</duration><voice>1</voice><type>quarter</type><stem>down</stem><notehead>slash</notehead></note><note default-y="-20.00" default-x="83.69"><pitch><step>B</step><alter>-1</alter><octave>4</octave></pitch><duration>480</duration><voice>1</voice><type>quarter</type><stem>down</stem><notehead>slash</notehead></note><note default-y="-20.00" default-x="118.03"><pitch><step>B</step><alter>-1</alter><octave>4</octave></pitch><duration>480</duration><voice>1</voice><type>quarter</type><stem>down</stem><notehead>slash</notehead></note><barline location="right"><bar-style>light-heavy</bar-style><repeat direction="backward"/></barline></measure><measure width="482.76" number="3"><print new-system="yes"><system-layout><system-margins><left-margin>3.00</left-margin><right-margin>0.00</right-margin></system-margins><system-distance>110.85</system-distance></system-layout></print><direction placement="above"><direction-type><segno/></direction-type><sound segno="segno"/></direction><harmony print-frame="no"><root><root-step>F</root-step></root><kind text="m">minor</kind></harmony><direction placement="above"><direction-type><rehearsal>A</rehearsal></direction-type></direction><direction placement="above"><direction-type><words>(On Cue)</words></direction-type></direction><note><rest/><duration>480</duration><voice>1</voice><type>quarter</type></note><note default-y="-35.00" default-x="179.31"><pitch><step>F</step><octave>4</octave></pitch><duration>240</duration><voice>1</voice><type>eighth</type><stem>up</stem><beam number="1">begin</beam><lyric number="1"><syllabic>single</syllabic><text>Are</text></lyric><lyric number="2"><syllabic>single</syllabic><text>Thoughts</text></lyric></note><note default-y="-30.00" default-x="245.18"><pitch><step>G</step><octave>4</octave></pitch><duration>240</duration><voice>1</voice><type>eighth</type><stem>up</stem><beam number="1">end</beam><lyric number="1"><syllabic>single</syllabic><text>we</text></lyric><lyric number="2"><syllabic>single</syllabic><text>of</text></lyric></note><note default-y="-25.00" default-x="296.48"><pitch><step>A</step><alter>-1</alter><octave>4</octave></pitch><duration>240</duration><voice>1</voice><type>eighth</type><stem>up</stem><lyric number="1"><syllabic>begin</syllabic><text>real</text></lyric><lyric number="2"><syllabic>begin</syllabic><text>leav</text></lyric></note><note default-y="-20.00" default-x="347.78"><pitch><step>B</step><alter>-1</alter><octave>4</octave></pitch><duration>480</duration><voice>1</voice><type>quarter</type><stem>down</stem><lyric number="1"><syllabic>end</syllabic><text>ly</text></lyric><lyric number="2"><syllabic>end</syllabic><text>ing</text></lyric></note><note default-y="-15.00" default-x="429.86"><pitch><step>C</step><octave>5</octave></pitch><duration>240</duration><tie type="start"/><voice>1</voice><type>eighth</type><stem>down</stem><notations><tied type="start"/></notations><lyric number="1"><syllabic>end</syllabic><text>hap</text></lyric><lyric number="2"><syllabic>begin</syllabic><text>dis</text></lyric></note></measure><measure width="327.05" number="4"><harmony print-frame="no"><root><root-step>F</root-step></root><kind text="mMaj7">minor-major</kind></harmony><note default-y="-15.00" default-x="15.00"><pitch><step>C</step><octave>5</octave></pitch><duration>240</duration><tie type="stop"/><voice>1</voice><type>eighth</type><stem>down</stem><notations><tied type="stop"/></notations></note><note default-y="5.00" default-x="58.12"><pitch><step>G</step><octave>5</octave></pitch><duration>480</duration><voice>1</voice><type>quarter</type><stem>down</stem><lyric number="1"><syllabic>single</syllabic><text>py</text></lyric><lyric number="2"><syllabic>middle</syllabic><text>ap</text></lyric></note><note default-y="0.00" default-x="127.11"><pitch><step>F</step><octave>5</octave></pitch><duration>240</duration><tie type="start"/><voice>1</voice><type>eighth</type><stem>down</stem><notations><tied type="start"/></notations><lyric number="1"><syllabic>single</syllabic><text>here</text></lyric><lyric number="2"><syllabic>end</syllabic><text>pear</text></lyric></note><note default-y="0.00" default-x="170.22"><pitch><step>F</step><octave>5</octave></pitch><duration>480</duration><tie type="stop"/><voice>1</voice><type>quarter</type><stem>down</stem><notations><tied type="stop"/></notations></note><note default-y="-15.00" default-x="239.21"><pitch><step>C</step><octave>5</octave></pitch><duration>240</duration><voice>1</voice><type>eighth</type><stem>down</stem><beam number="1">begin</beam><lyric number="1"><syllabic>single</syllabic><text>with</text></lyric><lyric number="2"><syllabic>begin</syllabic><text>ev</text></lyric></note><note default-y="-20.00" default-x="282.33"><pitch><step>B</step><alter>-1</alter><octave>4</octave></pitch><duration>240</duration><voice>1</voice><type>eighth</type><stem>down</stem><beam number="1">end</beam><lyric number="1"><syllabic>single</syllabic><text>this</text></lyric><lyric number="2"><syllabic>end</syllabic><text>ry</text></lyric></note></measure><measure width="353.36" number="5"><harmony print-frame="no"><root><root-step>F</root-step></root><kind text="m7">minor-seventh</kind></harmony><note default-y="-25.00" default-x="28.78"><pitch><step>A</step><alter>-1</alter><octave>4</octave></pitch><duration>720</duration><voice>1</voice><type>quarter</type><dot/><stem>up</stem><lyric number="1"><syllabic>begin</syllabic><text>lone</text></lyric><lyric number="2"><syllabic>single</syllabic><text>time</text></lyric></note><note default-y="-20.00" default-x="124.51"><pitch><step>B</step><alter>-1</alter><octave>4</octave></pitch><duration>240</duration><voice>1</voice><type>eighth</type><stem>down</stem><lyric number="1"><syllabic>end</syllabic><text>ly</text></lyric><lyric number="2"><syllabic>single</syllabic><text>I</text></lyric></note><note default-y="-15.00" default-x="173.58"><pitch><step>C</step><octave>5</octave></pitch><duration>480</duration><voice>1</voice><type>quarter</type><stem>down</stem><lyric number="1"><syllabic>single</syllabic><text>game</text></lyric><lyric number="2"><syllabic>single</syllabic><text>see</text></lyric></note><note default-y="-25.00" default-x="252.10"><pitch><step>A</step><alter>-1</alter><octave>4</octave></pitch><duration>240</duration><voice>1</voice><type>eighth</type><stem>up</stem><beam number="1">begin</beam><lyric number="1"><syllabic>single</syllabic><text>we</text></lyric><lyric number="2"><syllabic>single</syllabic><text>your</text></lyric></note><note default-y="-35.00" default-x="302.69"><pitch><step>F</step><octave>4</octave></pitch><duration>240</duration><tie type="start"/><voice>1</voice><type>eighth</type><stem>up</stem><beam number="1">end</beam><notations><tied type="start"/></notations><lyric number="1"><syllabic>single</syllabic><text>play</text></lyric><lyric number="2"><syllabic>single</syllabic><text>eyes</text></lyric></note></measure><measure width="167.16" number="6"><harmony print-frame="no"><root><root-step>B</root-step><root-alter>-1</root-alter></root><kind text="13">dominant-13th</kind></harmony><note default-y="-35.00" default-x="15.00"><pitch><step>F</step><octave>4</octave></pitch><duration>960</duration><tie type="stop"/><voice>1</voice><type>half</type><stem>up</stem><notations><tied type="stop"/></notations></note><note><rest/><duration>960</duration><voice>1</voice><type>half</type></note></measure><measure width="555.72" number="7"><print new-system="yes"><system-layout><system-margins><left-margin>3.00</left-margin><right-margin>0.00</right-margin></system-margins><system-distance>143.07</system-distance></system-layout></print><harmony print-frame="no"><root><root-step>F</root-step></root><kind text="m7">minor-seventh</kind></harmony><note><rest/><duration>480</duration><voice>1</voice><type>quarter</type></note><note><rest/><duration>240</duration><voice>1</voice><type>eighth</type></note><note default-y="-25.00" default-x="253.53"><pitch><step>A</step><alter>-1</alter><octave>4</octave></pitch><duration>240</duration><voice>1</voice><type>eighth</type><stem>up</stem><lyric number="2"><syllabic>single</syllabic><text>No</text></lyric></note><note default-y="-25.00" default-x="313.65"><pitch><step>A</step><alter>-1</alter><octave>4</octave></pitch><duration>240</duration><voice>1</voice><type>eighth</type><stem>up</stem><beam number="1">begin</beam><lyric number="1"><syllabic>begin</syllabic><text>look</text></lyric><lyric number="2"><syllabic>begin</syllabic><text>mat</text></lyric></note><note default-y="-30.00" default-x="373.77"><pitch><step>G</step><octave>4</octave></pitch><duration>240</duration><voice>1</voice><type>eighth</type><stem>up</stem><beam number="1">continue</beam><lyric number="1"><syllabic>end</syllabic><text>ing</text></lyric><lyric number="2"><syllabic>end</syllabic><text>ter</text></lyric></note><note default-y="-25.00" default-x="433.89"><pitch><step>A</step><alter>-1</alter><octave>4</octave></pitch><duration>240</duration><voice>1</voice><type>eighth</type><stem>up</stem><beam number="1">continue</beam><lyric number="1"><syllabic>single</syllabic><text>for</text></lyric><lyric number="2"><syllabic>single</syllabic><text>how</text></lyric></note><note default-y="-5.00" default-x="494.00"><pitch><step>E</step><alter>-1</alter><octave>5</octave></pitch><duration>240</duration><tie type="start"/><voice>1</voice><type>eighth</type><stem>up</stem><beam number="1">end</beam><notations><tied type="start"/></notations><lyric number="1"><syllabic>single</syllabic><text>words</text></lyric><lyric number="2"><syllabic>single</syllabic><text>hard</text></lyric></note></measure><measure width="302.27" number="8"><harmony print-frame="no"><root><root-step>D</root-step><root-alter>-1</root-alter></root><kind text="9">dominant-ninth</kind></harmony><note default-y="-5.00" default-x="15.00"><pitch><step>E</step><alter>-1</alter><octave>5</octave></pitch><duration>1440</duration><tie type="stop"/><voice>1</voice><type>half</type><dot/><stem>down</stem><notations><tied type="stop"/></notations></note><note default-y="-5.00" default-x="175.13"><pitch><step>E</step><alter>-1</alter><octave>5</octave></pitch><duration>240</duration><voice>1</voice><type>eighth</type><stem>down</stem><beam number="1">begin</beam><lyric number="1"><syllabic>single</syllabic><text>to</text></lyric><lyric number="2"><syllabic>single</syllabic><text>I</text></lyric></note><note default-y="-15.00" default-x="237.90"><pitch><step>C</step><octave>5</octave></pitch><duration>240</duration><tie type="start"/><voice>1</voice><type>eighth</type><stem>down</stem><beam number="1">end</beam><notations><tied type="start"/></notations><lyric number="1"><syllabic>single</syllabic><text>say?</text></lyric><lyric number="2"><syllabic>single</syllabic><text>try</text></lyric></note></measure><measure width="245.66" number="9"><harmony print-frame="no"><root><root-step>G</root-step></root><kind text="m7add11">minor-seventh</kind><degree><degree-value>11</degree-value><degree-alter>0</degree-alter><degree-type>add</degree-type></degree></harmony><note default-y="-15.00" default-x="15.00"><pitch><step>C</step><octave>5</octave></pitch><duration>960</duration><tie type="stop"/><voice>1</voice><type>half</type><stem>down</stem><notations><tied type="stop"/></notations></note><note><rest/><duration>960</duration><voice>1</voice><type>half</type></note></measure><measure width="226.69" number="10"><direction><direction-type><words default-y="100">C7#9#5</words></direction-type></direction><note><rest/><duration>1920</duration><voice>1</voice></note></measure><measure width="459.94" number="11"><print new-system="yes"><system-layout><system-margins><left-margin>3.00</left-margin><right-margin>0.00</right-margin></system-margins><system-distance>143.07</system-distance></system-layout></print><harmony print-frame="no"><root><root-step>F</root-step></root><kind text="m">minor</kind></harmony><note><rest/><duration>240</duration><voice>1</voice><type>eighth</type></note><note default-y="-50.00" default-x="141.02"><pitch><step>C</step><octave>4</octave></pitch><duration>240</duration><voice>1</voice><type>eighth</type><stem>up</stem><beam number="1">begin</beam><lyric number="2"><syllabic>single</syllabic><text>to</text></lyric></note><note default-y="-35.00" default-x="192.68"><pitch><step>F</step><octave>4</octave></pitch><duration>240</duration><voice>1</voice><type>eighth</type><stem>up</stem><beam number="1">continue</beam><lyric number="1"><syllabic>begin</syllabic><text>search</text></lyric><lyric number="2"><syllabic>begin</syllabic><text>un</text></lyric></note><note default-y="-30.00" default-x="247.55"><pitch><step>G</step><octave>4</octave></pitch><duration>240</duration><voice>1</voice><type>eighth</type><stem>up</stem><beam number="1">end</beam><lyric number="1"><syllabic>end</syllabic><text>ing</text></lyric><lyric number="2"><syllabic>middle</syllabic><text>der</text></lyric></note><note default-y="-25.00" default-x="296.32"><pitch><step>A</step><alter>-1</alter><octave>4</octave></pitch><duration>240</duration><voice>1</voice><type>eighth</type><stem>up</stem><lyric number="1"><syllabic>single</syllabic><text>but</text></lyric><lyric number="2"><syllabic>end</syllabic><text>stand</text></lyric></note><note default-y="-20.00" default-x="344.48"><pitch><step>B</step><alter>-1</alter><octave>4</octave></pitch><duration>480</duration><voice>1</voice><type>quarter</type><stem>down</stem><lyric number="1"><syllabic>single</syllabic><text>not</text></lyric><lyric number="2"><syllabic>single</syllabic><text>the</text></lyric></note><note default-y="-15.00" default-x="414.55"><pitch><step>C</step><octave>5</octave></pitch><duration>240</duration><tie type="start"/><voice>1</voice><type>eighth</type><stem>down</stem><notations><tied type="start"/></notations><lyric number="1"><syllabic>begin</syllabic><text>find</text></lyric><lyric number="2"><syllabic>end</syllabic><text>rea</text></lyric></note></measure><measure width="357.16" number="12"><harmony print-frame="no"><root><root-step>F</root-step></root><kind text="mMaj7">minor-major</kind></harmony><note default-y="-15.00" default-x="15.00"><pitch><step>C</step><octave>5</octave></pitch><duration>240</duration><tie type="stop"/><voice>1</voice><type>eighth</type><stem>down</stem><notations><tied type="stop"/></notations></note><note default-y="5.00" default-x="58.51"><pitch><step>G</step><octave>5</octave></pitch><duration>480</duration><voice>1</voice><type>quarter</type><stem>down</stem><lyric number="1"><syllabic>end</syllabic><text>ing</text></lyric><lyric number="2"><syllabic>single</syllabic><text>sons</text></lyric></note><note default-y="0.00" default-x="128.12"><pitch><step>F</step><octave>5</octave></pitch><duration>240</duration><tie type="start"/><voice>1</voice><type>eighth</type><stem>down</stem><notations><tied type="start"/></notations><lyric number="1"><syllabic>end</syllabic><text>un</text></lyric><lyric number="2"><syllabic>single</syllabic><text>that</text></lyric></note><note default-y="0.00" default-x="171.63"><pitch><step>F</step><octave>5</octave></pitch><duration>240</duration><tie type="stop"/><voice>1</voice><type>eighth</type><stem>down</stem><beam number="1">begin</beam><notations><tied type="stop"/></notations></note><note default-y="-15.00" default-x="215.14"><pitch><step>C</step><alter>-1</alter><octave>5</octave></pitch><duration>240</duration><voice>1</voice><type>eighth</type><accidental>flat</accidental><stem>down</stem><beam number="1">continue</beam><lyric number="1"><syllabic>begin</syllabic><text>der</text></lyric><lyric number="2"><syllabic>single</syllabic><text>we</text></lyric></note><note default-y="-20.00" default-x="263.90"><pitch><step>B</step><alter>-1</alter><octave>4</octave></pitch><duration>240</duration><voice>1</voice><type>eighth</type><stem>down</stem><beam number="1">continue</beam><lyric number="1"><syllabic>middle</syllabic><text>stand</text></lyric></note><note default-y="-25.00" default-x="312.06"><pitch><step>A</step><alter>-1</alter><octave>4</octave></pitch><duration>240</duration><tie type="start"/><voice>1</voice><type>eighth</type><stem>down</stem><beam number="1">end</beam><notations><tied type="start"/></notations><lyric number="2"><syllabic>begin</syllabic><text>car</text></lyric></note></measure><measure width="281.73" number="13"><harmony print-frame="no"><root><root-step>F</root-step></root><kind text="m7">minor-seventh</kind></harmony><note default-y="-25.00" default-x="15.00"><pitch><step>A</step><alter>-1</alter><octave>4</octave></pitch><duration>480</duration><tie type="stop"/><voice>1</voice><type>quarter</type><stem>up</stem><notations><tied type="stop"/></notations></note><note default-y="-20.00" default-x="73.92"><pitch><step>B</step><alter>-1</alter><octave>4</octave></pitch><duration>240</duration><voice>1</voice><type>eighth</type><stem>down</stem><beam number="1">begin</beam><lyric number="1"><syllabic>end</syllabic><text>ing</text></lyric><lyric number="2"><syllabic>end</syllabic><text>ry</text></lyric></note><note default-y="-15.00" default-x="110.74"><pitch><step>C</step><octave>5</octave></pitch><duration>240</duration><tie type="start"/><voice>1</voice><type>eighth</type><stem>down</stem><beam number="1">end</beam><notations><tied type="start"/></notations><lyric number="1"><syllabic>begin</syllabic><text>an</text></lyric><lyric number="2"><syllabic>single</syllabic><text>on</text></lyric></note><note default-y="-15.00" default-x="147.56"><pitch><step>C</step><octave>5</octave></pitch><duration>240</duration><tie type="stop"/><voice>1</voice><type>eighth</type><stem>down</stem><notations><tied type="stop"/></notations></note><note default-y="-25.00" default-x="184.39"><pitch><step>A</step><alter>-1</alter><octave>4</octave></pitch><duration>480</duration><voice>1</voice><type>quarter</type><stem>up</stem><lyric number="1"><syllabic>end</syllabic><text>y</text></lyric><lyric number="2"><syllabic>single</syllabic><text>this</text></lyric></note><note default-y="-35.00" default-x="243.30"><pitch><step>F</step><octave>4</octave></pitch><duration>240</duration><tie type="start"/><voice>1</voice><type>eighth</type><stem>up</stem><notations><tied type="start"/></notations><lyric number="1"><syllabic>single</syllabic><text>way</text></lyric><lyric number="2"><syllabic>single</syllabic><text>way</text></lyric></note></measure><measure width="231.50" number="14"><harmony print-frame="no"><root><root-step>B</root-step><root-alter>-1</root-alter></root><kind text="13">dominant-13th</kind></harmony><note default-y="-35.00" default-x="15.00"><pitch><step>F</step><octave>4</octave></pitch><duration>960</duration><tie type="stop"/><voice>1</voice><type>half</type><stem>up</stem><notations><tied type="stop"/></notations></note><note><rest/><duration>480</duration><voice>1</voice><type>quarter</type></note><note default-y="-50.00" default-x="144.55"><pitch><step>C</step><octave>4</octave></pitch><duration>240</duration><voice>1</voice><type>eighth</type><stem>up</stem><beam number="1">begin</beam><lyric number="1"><syllabic>single</syllabic><text>We're</text></lyric></note><note default-y="-35.00" default-x="195.81"><pitch><step>F</step><octave>4</octave></pitch><duration>240</duration><tie type="start"/><voice>1</voice><type>eighth</type><stem>up</stem><beam number="1">end</beam><notations><tied type="start"/></notations><lyric number="1"><syllabic>single</syllabic><text>lost</text></lyric></note></measure><measure width="436.98" number="15"><print new-system="yes"><system-layout><system-margins><left-margin>3.00</left-margin><right-margin>0.00</right-margin></system-margins><system-distance>143.07</system-distance></system-layout></print><harmony print-frame="no"><root><root-step>D</root-step><root-alter>-1</root-alter></root><kind text="7">dominant</kind></harmony><note default-y="-35.00" default-x="97.23"><pitch><step>F</step><octave>4</octave></pitch><duration>960</duration><tie type="stop"/><voice>1</voice><type>half</type><stem>up</stem><notations><tied type="stop"/></notations></note><note><rest/><duration>240</duration><voice>1</voice><type>eighth</type></note><note default-y="-25.00" default-x="271.76"><pitch><step>A</step><alter>-1</alter><octave>4</octave></pitch><duration>240</duration><voice>1</voice><type>eighth</type><stem>down</stem><beam number="1">begin</beam><lyric number="1"><syllabic>single</syllabic><text>in</text></lyric></note><note default-y="-20.00" default-x="326.30"><pitch><step>B</step><alter>-1</alter><octave>4</octave></pitch><duration>240</duration><voice>1</voice><type>eighth</type><stem>down</stem><beam number="1">continue</beam><lyric number="1"><syllabic>single</syllabic><text>a</text></lyric></note><note default-y="-15.00" default-x="380.84"><pitch><step>C</step><alter>-1</alter><octave>5</octave></pitch><duration>240</duration><tie type="start"/><voice>1</voice><type>eighth</type><accidental>flat</accidental><stem>down</stem><beam number="1">end</beam><notations><tied type="start"/><slur type="start" number="1"/></notations><lyric number="1"><syllabic>begin</syllabic><text>mas</text></lyric></note></measure><measure width="366.50" number="16"><harmony print-frame="no"><root><root-step>C</root-step></root><kind text="7#5">augmented-seventh</kind></harmony><note default-y="-15.00" default-x="15.00"><pitch><step>C</step><alter>-1</alter><octave>5</octave></pitch><duration>240</duration><tie type="stop"/><voice>1</voice><type>eighth</type><accidental>flat</accidental><stem>down</stem><beam number="1">begin</beam><notations><tied type="stop"/></notations></note><note default-y="-20.00" default-x="71.44"><pitch><step>B</step><alter>-1</alter><octave>4</octave></pitch><duration>240</duration><tie type="start"/><voice>1</voice><type>eighth</type><stem>down</stem><beam number="1">end</beam><notations><tied type="start"/></notations></note><note default-y="-20.00" default-x="127.87"><pitch><step>B</step><alter>-1</alter><octave>4</octave></pitch><duration>960</duration><tie type="stop"/><voice>1</voice><type>half</type><stem>down</stem><notations><tied type="stop"/><slur type="stop" number="1"/></notations></note><note default-y="-25.00" default-x="252.03"><pitch><step>A</step><alter>-1</alter><octave>4</octave></pitch><duration>240</duration><voice>1</voice><type>eighth</type><stem>up</stem><beam number="1">begin</beam><lyric number="1"><syllabic>middle</syllabic><text>quer</text></lyric></note><note default-y="-35.00" default-x="308.47"><pitch><step>F</step><octave>4</octave></pitch><duration>240</duration><tie type="start"/><voice>1</voice><type>eighth</type><stem>up</stem><beam number="1">end</beam><notations><tied type="start"/></notations><lyric number="1"><syllabic>single</syllabic><text>ade</text></lyric></note></measure><measure width="243.39" number="17"><harmony print-frame="no"><root><root-step>F</root-step></root><kind text="m7">minor-seventh</kind></harmony><note default-y="-35.00" default-x="15.00"><pitch><step>F</step><octave>4</octave></pitch><duration>1920</duration><tie type="stop"/><voice>1</voice><type>whole</type><notations><tied type="stop"/></notations></note></measure><measure width="283.46" number="18"><note><rest/><duration>960</duration><voice>1</voice><type>half</type></note><harmony print-frame="no"><root><root-step>E</root-step></root><kind text="m7">minor-seventh</kind></harmony><note><rest/><duration>480</duration><voice>1</voice><type>quarter</type></note><harmony print-frame="no"><root><root-step>A</root-step></root><kind text="7">dominant</kind></harmony><note><rest/><duration>480</duration><voice>1</voice><type>quarter</type></note><barline location="right"><bar-style>light-light</bar-style></barline></measure><measure width="463.38" number="19"><print new-system="yes"><system-layout><system-margins><left-margin>3.00</left-margin><right-margin>0.00</right-margin></system-margins><system-distance>120.96</system-distance></system-layout></print><harmony print-frame="no"><root><root-step>E</root-step><root-alter>-1</root-alter></root><kind text="m7">minor-seventh</kind></harmony><direction placement="above"><direction-type><rehearsal>B</rehearsal></direction-type></direction><note><rest/><duration>480</duration><voice>1</voice><type>quarter</type></note><note default-y="-10.00" default-x="178.24"><pitch><step>D</step><alter>-1</alter><octave>5</octave></pitch><duration>240</duration><voice>1</voice><type>eighth</type><stem>down</stem><beam number="1">begin</beam><lyric number="1"><syllabic>single</syllabic><text>both</text></lyric></note><note default-y="-5.00" default-x="228.87"><pitch><step>E</step><alter>-1</alter><octave>5</octave></pitch><duration>240</duration><voice>1</voice><type>eighth</type><stem>down</stem><beam number="1">end</beam><lyric number="1"><syllabic>begin</syllabic><text>a</text></lyric></note><note default-y="0.00" default-x="279.51"><pitch><step>F</step><octave>5</octave></pitch><duration>480</duration><voice>1</voice><type>quarter</type><stem>down</stem><lyric number="1"><syllabic>end</syllabic><text>fraid</text></lyric></note><note default-y="5.00" default-x="360.52"><pitch><step>G</step><alter>-1</alter><octave>5</octave></pitch><duration>240</duration><voice>1</voice><type>eighth</type><accidental>flat</accidental><stem>down</stem><beam number="1">begin</beam><lyric number="1"><syllabic>single</syllabic><text>to</text></lyric></note><note default-y="0.00" default-x="411.15"><pitch><step>F</step><octave>5</octave></pitch><duration>240</duration><tie type="start"/><voice>1</voice><type>eighth</type><stem>down</stem><beam number="1">end</beam><notations><tied type="start"/></notations><lyric number="1"><syllabic>single</syllabic><text>say</text></lyric></note></measure><measure width="374.42" number="20"><harmony print-frame="no"><root><root-step>A</root-step><root-alter>-1</root-alter></root><kind text="13b9">dominant-13th</kind><degree><degree-value>9</degree-value><degree-alter>-1</degree-alter><degree-type>alter</degree-type></degree></harmony><note default-y="0.00" default-x="15.00"><pitch><step>F</step><octave>5</octave></pitch><duration>480</duration><tie type="stop"/><voice>1</voice><type>quarter</type><stem>down</stem><notations><tied type="stop"/></notations></note><note default-y="-5.00" default-x="94.52"><pitch><step>E</step><alter>-1</alter><octave>5</octave></pitch><duration>240</duration><voice>1</voice><type>eighth</type><stem>down</stem><beam number="1">begin</beam><lyric number="1"><syllabic>single</syllabic><text>we're</text></lyric></note><note default-y="-10.00" default-x="144.21"><pitch><step>D</step><alter>-1</alter><octave>5</octave></pitch><duration>240</duration><tie type="start"/><voice>1</voice><type>eighth</type><stem>down</stem><beam number="1">end</beam><notations><tied type="start"/></notations><lyric number="1"><syllabic>single</syllabic><text>just</text></lyric></note><note default-y="-10.00" default-x="193.91"><pitch><step>D</step><alter>-1</alter><octave>5</octave></pitch><duration>480</duration><tie type="stop"/><voice>1</voice><type>quarter</type><stem>down</stem><notations><tied type="stop"/></notations></note><note default-y="-5.00" default-x="273.43"><pitch><step>E</step><alter>-1</alter><octave>5</octave></pitch><duration>240</duration><voice>1</voice><type>eighth</type><stem>down</stem><beam number="1">begin</beam><lyric number="1"><syllabic>single</syllabic><text>too</text></lyric></note><note default-y="0.00" default-x="323.13"><pitch><step>F</step><octave>5</octave></pitch><duration>240</duration><tie type="start"/><voice>1</voice><type>eighth</type><stem>down</stem><beam number="1">end</beam><notations><tied type="start"/></notations><lyric number="1"><syllabic>single</syllabic><text>far</text></lyric></note></measure><measure width="297.03" number="21"><harmony print-frame="no"><root><root-step>D</root-step><root-alter>-1</root-alter></root><kind text="Maj7">major-seventh</kind></harmony><note default-y="0.00" default-x="15.00"><pitch><step>F</step><octave>5</octave></pitch><duration>240</duration><tie type="stop"/><voice>1</voice><type>eighth</type><stem>up</stem><beam number="1">begin</beam><notations><tied type="stop"/></notations></note><note default-y="-25.00" default-x="60.23"><pitch><step>A</step><alter>-1</alter><octave>4</octave></pitch><duration>240</duration><voice>1</voice><type>eighth</type><stem>up</stem><beam number="1">continue</beam><notations><slur type="start" number="1"/></notations><lyric number="1"><syllabic>begin</syllabic><text>a</text></lyric></note><note default-y="-35.00" default-x="105.46"><pitch><step>F</step><octave>4</octave></pitch><duration>240</duration><voice>1</voice><type>eighth</type><stem>up</stem><beam number="1">continue</beam><notations><slur type="stop" number="1"/></notations></note><note default-y="-25.00" default-x="150.69"><pitch><step>A</step><alter>-1</alter><octave>4</octave></pitch><duration>240</duration><tie type="start"/><voice>1</voice><type>eighth</type><stem>up</stem><beam number="1">end</beam><notations><tied type="start"/></notations><lyric number="1"><syllabic>end</syllabic><text>way</text></lyric></note><note default-y="-25.00" default-x="195.92"><pitch><step>A</step><alter>-1</alter><octave>4</octave></pitch><duration>960</duration><tie type="stop"/><voice>1</voice><type>half</type><stem>up</stem><notations><tied type="stop"/></notations></note></measure><measure width="195.50" number="22"><note><rest/><duration>1920</duration><voice>1</voice></note></measure><measure width="519.33" number="23"><print new-system="yes"><system-layout><system-margins><left-margin>3.00</left-margin><right-margin>0.00</right-margin></system-margins><system-distance>120.96</system-distance></system-layout></print><harmony print-frame="no"><root><root-step>E</root-step><root-alter>-1</root-alter></root><kind text="m7">minor-seventh</kind></harmony><note><rest/><duration>240</duration><voice>1</voice><type>eighth</type></note><note default-y="-25.00" default-x="152.56"><pitch><step>A</step><alter>-1</alter><octave>4</octave></pitch><duration>240</duration><voice>1</voice><type>eighth</type><stem>down</stem><beam number="1">begin</beam><lyric number="1"><syllabic>single</syllabic><text>from</text></lyric></note><note default-y="-10.00" default-x="207.89"><pitch><step>D</step><alter>-1</alter><octave>5</octave></pitch><duration>240</duration><voice>1</voice><type>eighth</type><stem>down</stem><beam number="1">continue</beam><lyric number="1"><syllabic>begin</syllabic><text>be</text></lyric></note><note default-y="-5.00" default-x="263.22"><pitch><step>E</step><alter>-1</alter><octave>5</octave></pitch><duration>240</duration><voice>1</voice><type>eighth</type><stem>down</stem><beam number="1">end</beam><lyric number="1"><syllabic>end</syllabic><text>ing</text></lyric></note><note default-y="0.00" default-x="318.55"><pitch><step>F</step><octave>5</octave></pitch><duration>480</duration><voice>1</voice><type>quarter</type><stem>down</stem><lyric number="1"><syllabic>single</syllabic><text>close</text></lyric></note><note default-y="5.00" default-x="407.07"><pitch><step>G</step><alter>-1</alter><octave>5</octave></pitch><duration>240</duration><voice>1</voice><type>eighth</type><accidental>flat</accidental><stem>down</stem><beam number="1">begin</beam><lyric number="1"><syllabic>begin</syllabic><text>to</text></lyric></note><note default-y="0.00" default-x="462.40"><pitch><step>F</step><octave>5</octave></pitch><duration>240</duration><tie type="start"/><voice>1</voice><type>eighth</type><stem>down</stem><beam number="1">end</beam><notations><tied type="start"/></notations><lyric number="1"><syllabic>middle</syllabic><text>geth</text></lyric></note></measure><measure width="350.53" number="24"><harmony print-frame="no"><root><root-step>A</root-step><root-alter>-1</root-alter></root><kind text="13b9">dominant-13th</kind><degree><degree-value>9</degree-value><degree-alter>-1</degree-alter><degree-type>alter</degree-type></degree></harmony><note default-y="0.00" default-x="15.00"><pitch><step>F</step><octave>5</octave></pitch><duration>240</duration><tie type="stop"/><voice>1</voice><type>eighth</type><stem>down</stem><notations><tied type="stop"/></notations></note><note default-y="-5.00" default-x="65.97"><pitch><step>E</step><alter>-1</alter><octave>5</octave></pitch><duration>720</duration><voice>1</voice><type>quarter</type><dot/><stem>down</stem><lyric number="1"><syllabic>end</syllabic><text>er</text></lyric></note><note default-y="-10.00" default-x="165.42"><pitch><step>D</step><alter>-1</alter><octave>5</octave></pitch><duration>480</duration><voice>1</voice><type>quarter</type><stem>down</stem><lyric number="1"><syllabic>single</syllabic><text>from</text></lyric></note><note default-y="10.00" default-x="246.98"><pitch><step>A</step><alter>-1</alter><octave>5</octave></pitch><duration>240</duration><voice>1</voice><type>eighth</type><stem>down</stem><beam number="1">begin</beam><lyric number="1"><syllabic>single</syllabic><text>the</text></lyric></note><note default-y="10.00" default-x="297.95"><pitch><step>A</step><alter>-1</alter><octave>5</octave></pitch><duration>240</duration><voice>1</voice><type>eighth</type><stem>down</stem><beam number="1">end</beam><notations><slur type="start" number="1"/></notations><lyric number="1"><syllabic>single</syllabic><text>start</text></lyric></note></measure><measure width="193.52" number="25"><harmony print-frame="no"><root><root-step>D</root-step><root-alter>-1</root-alter></root><kind text="Maj7">major-seventh</kind></harmony><note default-y="0.00" default-x="15.00"><pitch><step>F</step><octave>5</octave></pitch><duration>1920</duration><voice>1</voice><type>whole</type><notations><slur type="stop" number="1"/></notations></note></measure><measure width="266.96" number="26"><note><rest/><duration>960</duration><voice>1</voice><type>half</type></note><note><rest/><duration>480</duration><voice>1</voice><type>quarter</type></note><note><rest/><duration>240</duration><voice>1</voice><type>eighth</type></note><note default-y="0.00" default-x="222.19"><pitch><step>F</step><octave>5</octave></pitch><duration>240</duration><voice>1</voice><type>eighth</type><stem>down</stem><lyric number="1"><syllabic>single</syllabic><text>We</text></lyric></note></measure><measure width="393.53" number="27"><print new-system="yes"><system-layout><system-margins><left-margin>3.00</left-margin><right-margin>0.00</right-margin></system-margins><system-distance>120.96</system-distance></system-layout></print><harmony print-frame="no"><root><root-step>D</root-step></root><kind text="m7">minor-seventh</kind></harmony><note default-y="-10.00" default-x="119.10"><pitch><step>D</step><octave>5</octave></pitch><duration>480</duration><voice>1</voice><type>quarter</type><accidental>natural</accidental><stem>down</stem><lyric number="1"><syllabic>single</syllabic><text>tried</text></lyric></note><note default-y="-5.00" default-x="179.73"><pitch><step>E</step><octave>5</octave></pitch><duration>240</duration><voice>1</voice><type>eighth</type><accidental>natural</accidental><stem>down</stem><beam number="1">begin</beam><lyric number="1"><syllabic>single</syllabic><text>to</text></lyric></note><note default-y="0.00" default-x="217.62"><pitch><step>F</step><octave>5</octave></pitch><duration>240</duration><tie type="start"/><voice>1</voice><type>eighth</type><stem>down</stem><beam number="1">end</beam><notations><tied type="start"/></notations><lyric number="1"><syllabic>single</syllabic><text>talk</text></lyric></note><note default-y="0.00" default-x="255.52"><pitch><step>F</step><octave>5</octave></pitch><duration>480</duration><tie type="stop"/><voice>1</voice><type>quarter</type><stem>down</stem><notations><tied type="stop"/></notations></note><note default-y="5.00" default-x="316.14"><pitch><step>G</step><octave>5</octave></pitch><duration>240</duration><voice>1</voice><type>eighth</type><stem>down</stem><beam number="1">begin</beam><lyric number="1"><syllabic>single</syllabic><text>it</text></lyric></note><note default-y="10.00" default-x="354.04"><pitch><step>A</step><alter>-1</alter><octave>5</octave></pitch><duration>240</duration><tie type="start"/><voice>1</voice><type>eighth</type><stem>down</stem><beam number="1">end</beam><notations><tied type="start"/></notations><lyric number="1"><syllabic>single</syllabic><text>o</text></lyric></note></measure><measure width="337.56" number="28"><harmony print-frame="no"><root><root-step>G</root-step></root><kind text="13">dominant-13th</kind></harmony><note default-y="10.00" default-x="15.00"><pitch><step>A</step><alter>-1</alter><octave>5</octave></pitch><duration>240</duration><tie type="stop"/><voice>1</voice><type>eighth</type><stem>down</stem><notations><tied type="stop"/></notations></note><note default-y="5.00" default-x="60.43"><pitch><step>G</step><octave>5</octave></pitch><duration>720</duration><voice>1</voice><type>quarter</type><dot/><stem>down</stem><lyric number="1"><syllabic>single</syllabic><text>ver</text></lyric></note><harmony print-frame="no"><root><root-step>G</root-step></root><kind text="7#5">augmented-seventh</kind></harmony><note><rest/><duration>240</duration><voice>1</voice><type>eighth</type></note><note default-y="5.00" default-x="194.50"><pitch><step>G</step><octave>5</octave></pitch><duration>240</duration><voice>1</voice><type>eighth</type><stem>down</stem><beam number="1">begin</beam><lyric number="1"><syllabic>single</syllabic><text>but</text></lyric></note><note default-y="0.00" default-x="239.93"><pitch><step>F</step><octave>5</octave></pitch><duration>240</duration><voice>1</voice><type>eighth</type><stem>down</stem><beam number="1">continue</beam><lyric number="1"><syllabic>single</syllabic><text>the</text></lyric></note><note default-y="5.00" default-x="290.52"><pitch><step>G</step><octave>5</octave></pitch><duration>240</duration><tie type="start"/><voice>1</voice><type>eighth</type><stem>down</stem><beam number="1">end</beam><notations><tied type="start"/></notations><lyric number="1"><syllabic>single</syllabic><text>words</text></lyric></note></measure><measure width="336.51" number="29"><harmony print-frame="no"><root><root-step>C</root-step></root><kind text="Maj7">major-seventh</kind></harmony><note default-y="5.00" default-x="15.00"><pitch><step>G</step><octave>5</octave></pitch><duration>480</duration><tie type="stop"/><voice>1</voice><type>quarter</type><stem>down</stem><notations><tied type="stop"/></notations></note><note default-y="-30.00" default-x="82.35"><pitch><step>G</step><octave>4</octave></pitch><duration>240</duration><voice>1</voice><type>eighth</type><stem>up</stem><beam number="1">begin</beam><lyric number="1"><syllabic>single</syllabic><text>got</text></lyric></note><note default-y="-30.00" default-x="124.44"><pitch><step>G</step><octave>4</octave></pitch><duration>240</duration><tie type="start"/><voice>1</voice><type>eighth</type><stem>up</stem><beam number="1">end</beam><notations><tied type="start"/></notations><lyric number="1"><syllabic>single</syllabic><text>in</text></lyric></note><note default-y="-30.00" default-x="166.54"><pitch><step>G</step><octave>4</octave></pitch><duration>240</duration><tie type="stop"/><voice>1</voice><type>eighth</type><stem>up</stem><beam number="1">begin</beam><notations><tied type="stop"/></notations></note><note default-y="-30.00" default-x="208.63"><pitch><step>G</step><octave>4</octave></pitch><duration>240</duration><voice>1</voice><type>eighth</type><stem>up</stem><beam number="1">continue</beam><notations><slur type="start" number="1"/></notations><lyric number="1"><syllabic>single</syllabic><text>the</text></lyric></note><note default-y="-40.00" default-x="250.72"><pitch><step>E</step><octave>4</octave></pitch><duration>240</duration><voice>1</voice><type>eighth</type><accidental>natural</accidental><stem>up</stem><beam number="1">continue</beam><notations><slur type="stop" number="1"/></notations></note><note default-y="-30.00" default-x="292.81"><pitch><step>G</step><octave>4</octave></pitch><duration>240</duration><tie type="start"/><voice>1</voice><type>eighth</type><stem>up</stem><beam number="1">end</beam><notations><tied type="start"/></notations><lyric number="1"><syllabic>single</syllabic><text>way</text></lyric></note></measure><measure width="262.74" number="30"><note default-y="-30.00" default-x="15.00"><pitch><step>G</step><octave>4</octave></pitch><duration>960</duration><tie type="stop"/><voice>1</voice><type>half</type><stem>up</stem><notations><tied type="stop"/></notations></note><note><rest/><duration>480</duration><voice>1</voice><type>quarter</type></note><note default-y="-30.00" default-x="171.06"><pitch><step>G</step><octave>4</octave></pitch><duration>240</duration><voice>1</voice><type>eighth</type><stem>up</stem><beam number="1">begin</beam><lyric number="1"><syllabic>single</syllabic><text>we're</text></lyric></note><note default-y="-20.00" default-x="220.08"><pitch><step>B</step><alter>-1</alter><octave>4</octave></pitch><duration>240</duration><tie type="start"/><voice>1</voice><type>eighth</type><stem>up</stem><beam number="1">end</beam><notations><tied type="start"/></notations><lyric number="1"><syllabic>single</syllabic><text>lost</text></lyric></note></measure><measure width="378.31" number="31"><print new-system="yes"><system-layout><system-margins><left-margin>3.00</left-margin><right-margin>0.00</right-margin></system-margins><system-distance>120.96</system-distance></system-layout></print><harmony print-frame="no"><root><root-step>G</root-step></root><kind text="m7">minor-seventh</kind></harmony><note default-y="-20.00" default-x="97.23"><pitch><step>B</step><alter>-1</alter><octave>4</octave></pitch><duration>960</duration><tie type="stop"/><voice>1</voice><type>half</type><stem>down</stem><notations><tied type="stop"/></notations></note><note><rest/><duration>480</duration><voice>1</voice><type>quarter</type></note><note default-y="-30.00" default-x="280.34"><pitch><step>G</step><octave>4</octave></pitch><duration>240</duration><voice>1</voice><type>eighth</type><stem>up</stem><beam number="1">begin</beam><lyric number="1"><syllabic>begin</syllabic><text>in</text></lyric></note><note default-y="-20.00" default-x="328.52"><pitch><step>B</step><octave>4</octave></pitch><duration>240</duration><tie type="start"/><voice>1</voice><type>eighth</type><accidental>natural</accidental><stem>up</stem><beam number="1">end</beam><notations><tied type="start"/></notations><lyric number="1"><syllabic>end</syllabic><text>side</text></lyric></note></measure><measure width="310.30" number="32"><harmony print-frame="no"><root><root-step>G</root-step></root><kind text="13">dominant-13th</kind></harmony><note default-y="-20.00" default-x="15.00"><pitch><step>B</step><octave>4</octave></pitch><duration>960</duration><tie type="stop"/><voice>1</voice><type>half</type><accidental>natural</accidental><stem>down</stem><notations><tied type="stop"/></notations></note><harmony print-frame="no"><root><root-step>G</root-step></root><kind text="7#5">augmented-seventh</kind></harmony><note><rest/><duration>480</duration><voice>1</voice><type>quarter</type></note><note default-y="-30.00" default-x="207.42"><pitch><step>G</step><octave>4</octave></pitch><duration>240</duration><voice>1</voice><type>eighth</type><stem>up</stem><beam number="1">begin</beam><lyric number="1"><syllabic>single</syllabic><text>this</text></lyric></note><note default-y="-15.00" default-x="258.06"><pitch><step>C</step><octave>5</octave></pitch><duration>240</duration><tie type="start"/><voice>1</voice><type>eighth</type><stem>up</stem><beam number="1">end</beam><notations><tied type="start"/></notations><lyric number="1"><syllabic>begin</syllabic><text>lone</text></lyric></note></measure><measure width="390.33" number="33"><harmony print-frame="no"><root><root-step>C</root-step></root><kind text="9sus">suspended-fourth</kind><degree><degree-value>7</degree-value><degree-alter>0</degree-alter><degree-type>add</degree-type></degree><degree><degree-value>9</degree-value><degree-alter>0</degree-alter><degree-type>add</degree-type></degree></harmony><note default-y="-15.00" default-x="15.00"><pitch><step>C</step><octave>5</octave></pitch><duration>480</duration><tie type="stop"/><voice>1</voice><type>quarter</type><stem>down</stem><notations><tied type="stop"/></notations></note><note default-y="-10.00" default-x="98.05"><pitch><step>D</step><octave>5</octave></pitch><duration>240</duration><voice>1</voice><type>eighth</type><accidental>natural</accidental><stem>down</stem><beam number="1">begin</beam><lyric number="1"><syllabic>end</syllabic><text>ly</text></lyric></note><note default-y="-20.00" default-x="149.96"><pitch><step>B</step><alter>-1</alter><octave>4</octave></pitch><duration>240</duration><tie type="start"/><voice>1</voice><type>eighth</type><stem>down</stem><beam number="1">end</beam><notations><tied type="start"/></notations><lyric number="1"><syllabic>single</syllabic><text>game</text></lyric></note><note default-y="-20.00" default-x="201.86"><pitch><step>B</step><alter>-1</alter><octave>4</octave></pitch><duration>480</duration><tie type="stop"/><voice>1</voice><type>quarter</type><stem>down</stem><notations><tied type="stop"/></notations></note><note default-y="-15.00" default-x="284.92"><pitch><step>C</step><octave>5</octave></pitch><duration>240</duration><voice>1</voice><type>eighth</type><stem>up</stem><beam number="1">begin</beam><lyric number="1"><syllabic>single</syllabic><text>we</text></lyric></note><note default-y="-30.00" default-x="336.82"><pitch><step>G</step><octave>4</octave></pitch><duration>240</duration><tie type="start"/><voice>1</voice><type>eighth</type><stem>up</stem><beam number="1">end</beam><notations><tied type="start"/></notations><lyric number="1"><syllabic>single</syllabic><text>play</text></lyric></note></measure><measure width="251.40" number="34"><note default-y="-30.00" default-x="15.00"><pitch><step>G</step><octave>4</octave></pitch><duration>480</duration><tie type="stop"/><voice>1</voice><type>quarter</type><stem>up</stem><notations><tied type="stop"/></notations></note><harmony print-frame="no"><root><root-step>G</root-step><root-alter>-1</root-alter></root><kind text="13#11">dominant-13th</kind><degree><degree-value>11</degree-value><degree-alter>1</degree-alter><degree-type>add</degree-type></degree></harmony><note><rest/><duration>480</duration><voice>1</voice><type>quarter</type></note><note><rest/><duration>960</duration><voice>1</voice><type>half</type></note><direction placement="above"><direction-type><words>D.S. al Coda</words></direction-type><sound dalsegno="segno"/></direction><barline location="right"><bar-style>light-heavy</bar-style></barline></measure><measure width="355.91" number="35"><print new-system="yes"><system-layout><system-margins><left-margin>3.00</left-margin><right-margin>0.00</right-margin></system-margins><system-distance>120.96</system-distance></system-layout></print><direction placement="above"><direction-type><coda/></direction-type><sound coda="coda"/></direction><harmony print-frame="no"><root><root-step>F</root-step></root><kind text="m7">minor-seventh</kind></harmony><note default-y="0.00" default-x="97.23"><pitch><step>F</step><octave>5</octave></pitch><duration>1920</duration><voice>1</voice><type>whole</type></note></measure><measure width="285.97" number="36"><harmony print-frame="no"><root><root-step>B</root-step><root-alter>-1</root-alter></root><kind text="13">dominant-13th</kind></harmony><note><rest/><duration>1920</duration><voice>1</voice></note></measure><measure width="337.48" number="37"><barline location="left"><bar-style>heavy-light</bar-style><repeat direction="forward"/></barline><harmony print-frame="no"><root><root-step>F</root-step></root><kind text="m7">minor-seventh</kind></harmony><direction placement="above"><direction-type><words>(Solo - Funkier)</words></direction-type></direction><direction placement="below"><direction-type><words>Solo on vamp or on head (ABA); after 
solos, play head, take Coda, vamp, solo &amp; fade</words></direction-type></direction><note default-y="-20.00" default-x="15.00"><pitch><step>B</step><alter>-1</alter><octave>4</octave></pitch><duration>480</duration><voice>1</voice><type>quarter</type><stem>down</stem><notehead>slash</notehead></note><note default-y="-20.00" default-x="95.22"><pitch><step>B</step><alter>-1</alter><octave>4</octave></pitch><duration>480</duration><voice>1</voice><type>quarter</type><stem>down</stem><notehead>slash</notehead></note><note default-y="-20.00" default-x="175.44"><pitch><step>B</step><alter>-1</alter><octave>4</octave></pitch><duration>480</duration><voice>1</voice><type>quarter</type><stem>down</stem><notehead>slash</notehead></note><note default-y="-20.00" default-x="255.66"><pitch><step>B</step><alter>-1</alter><octave>4</octave></pitch><duration>480</duration><voice>1</voice><type>quarter</type><stem>down</stem><notehead>slash</notehead></note></measure><measure width="350.97" number="38"><harmony print-frame="no"><root><root-step>B</root-step><root-alter>-1</root-alter></root><kind text="13">dominant-13th</kind></harmony><direction placement="above"><direction-type><words>(Vamp till cue)</words></direction-type></direction><note default-y="-20.00" default-x="15.00"><pitch><step>B</step><alter>-1</alter><octave>4</octave></pitch><duration>480</duration><voice>1</voice><type>quarter</type><stem>down</stem><notehead>slash</notehead></note><note default-y="-20.00" default-x="95.22"><pitch><step>B</step><alter>-1</alter><octave>4</octave></pitch><duration>480</duration><voice>1</voice><type>quarter</type><stem>down</stem><notehead>slash</notehead></note><note default-y="-20.00" default-x="175.44"><pitch><step>B</step><alter>-1</alter><octave>4</octave></pitch><duration>480</duration><voice>1</voice><type>quarter</type><stem>down</stem><notehead>slash</notehead></note><note default-y="-20.00" default-x="255.66"><pitch><step>B</step><alter>-1</alter><octave>4</octave></pitch><duration>480</duration><voice>1</voice><type>quarter</type><stem>down</stem><notehead>slash</notehead></note><barline location="right"><bar-style>light-heavy</bar-style><repeat direction="backward"/></barline></measure></part></score-partwise>