<score-partwise version="2.0"><work><work-number/><work-title/></work><movement-number/><movement-title>Christmas Eve In My Home Town</movement-title><identification><creator type="composer">Don Upton</creator><creator type="poet">Stan Zabka</creator><rights>All Rights Reserved</rights><encoding><software>MuseScore 0.9.5</software><encoding-date>2010-03-31</encoding-date><software>ProxyMusic 2.0 c</software></encoding><source>http://wikifonia.org/node/5238/revisions/7099/view</source></identification><defaults><scaling><millimeters>7.056</millimeters><tenths>40</tenths></scaling><page-layout><page-height>1683.67</page-height><page-width>1190.48</page-width><page-margins type="both"><left-margin>56.6893</left-margin><right-margin>56.6893</right-margin><top-margin>56.6893</top-margin><bottom-margin>113.379</bottom-margin></page-margins></page-layout></defaults><credit page="1"><credit-words font-size="24" default-y="1626.98" default-x="595.238" justify="center" valign="top">Christmas Eve In My Home Town</credit-words></credit><part-list><score-part id="P1"><part-name>Voice</part-name><score-instrument id="P1-I3"><instrument-name>Voice</instrument-name></score-instrument><midi-instrument id="P1-I3"><midi-channel>1</midi-channel><midi-program>53</midi-program></midi-instrument></score-part></part-list><part id="P1"><measure width="295.55" number="1"><print><system-layout><system-margins><left-margin>69.92</left-margin><right-margin>0.00</right-margin></system-margins><top-system-distance>204.31</top-system-distance></system-layout></print><attributes><divisions>6</divisions><key><fifths>-1</fifths><mode>major</mode></key><time><beats>4</beats><beat-type>4</beat-type></time><clef><sign>G</sign><line>2</line></clef></attributes><note><rest/><duration>12</duration><voice>1</voice><type>half</type></note><note><rest/><duration>6</duration><voice>1</voice><type>quarter</type></note><note default-y="-50.00" default-x="215.29"><pitch><step>C</step><octave>4</octave></pitch><duration>3</duration><voice>1</voice><type>eighth</type><stem>up</stem><beam number="1">begin</beam><lyric number="1"><syllabic>single</syllabic><text>'Twas</text></lyric></note><note default-y="-50.00" default-x="260.56"><pitch><step>C</step><octave>4</octave></pitch><duration>3</duration><voice>1</voice><type>eighth</type><stem>up</stem><beam number="1">end</beam><lyric number="1"><syllabic>single</syllabic><text>the</text></lyric></note></measure><measure width="360.36" number="2"><harmony print-frame="no"><root><root-step>F</root-step></root><kind text="">major</kind></harmony><note default-y="-25.00" default-x="31.64"><pitch><step>A</step><octave>4</octave></pitch><duration>3</duration><voice>1</voice><type>eighth</type><stem>up</stem><beam number="1">begin</beam><lyric number="1"><syllabic>single</syllabic><text>night</text></lyric></note><note default-y="-25.00" default-x="76.07"><pitch><step>A</step><octave>4</octave></pitch><duration>3</duration><voice>1</voice><type>eighth</type><stem>up</stem><beam number="1">end</beam><lyric number="1"><syllabic>begin</syllabic><text>be</text></lyric></note><note default-y="-25.00" default-x="120.50"><pitch><step>A</step><octave>4</octave></pitch><duration>6</duration><voice>1</voice><type>quarter</type><stem>up</stem><lyric number="1"><syllabic>end</syllabic><text>fore</text></lyric></note><harmony print-frame="no"><root><root-step>B</root-step><root-alter>-1</root-alter></root><kind text="">major</kind></harmony><note default-y="-35.00" default-x="191.60"><pitch><step>F</step><octave>4</octave></pitch><duration>3</duration><voice>1</voice><type>eighth</type><stem>up</stem><lyric number="1"><syllabic>begin</syllabic><text>Christ</text></lyric></note><note default-y="-35.00" default-x="243.24"><pitch><step>F</step><octave>4</octave></pitch><duration>6</duration><voice>1</voice><type>quarter</type><stem>up</stem><lyric number="1"><syllabic>end</syllabic><text>mas</text></lyric></note><note default-y="-35.00" default-x="314.33"><pitch><step>F</step><octave>4</octave></pitch><duration>3</duration><voice>1</voice><type>eighth</type><stem>up</stem><lyric number="1"><syllabic>single</syllabic><text>and</text></lyric></note></measure><measure width="351.26" number="3"><harmony print-frame="no"><root><root-step>F</root-step></root><kind text="">major</kind></harmony><note default-y="-25.00" default-x="19.73"><pitch><step>A</step><octave>4</octave></pitch><duration>6</duration><voice>1</voice><type>quarter</type><stem>up</stem><lyric number="1"><syllabic>single</syllabic><text>all</text></lyric></note><note default-y="-25.00" default-x="89.37"><pitch><step>A</step><octave>4</octave></pitch><duration>3</duration><voice>1</voice><type>eighth</type><stem>up</stem><beam number="1">begin</beam><lyric number="1"><syllabic>single</syllabic><text>through</text></lyric></note><note default-y="-25.00" default-x="144.14"><pitch><step>A</step><octave>4</octave></pitch><duration>3</duration><voice>1</voice><type>eighth</type><stem>up</stem><beam number="1">end</beam><lyric number="1"><syllabic>single</syllabic><text>the</text></lyric></note><harmony print-frame="no"><root><root-step>B</root-step><root-alter>-1</root-alter></root><kind text="m">minor</kind></harmony><note default-y="-35.00" default-x="192.96"><pitch><step>F</step><octave>4</octave></pitch><duration>6</duration><voice>1</voice><type>quarter</type><stem>up</stem><lyric number="1"><syllabic>single</syllabic><text>house,</text></lyric></note><note default-y="-50.00" default-x="262.61"><pitch><step>C</step><octave>4</octave></pitch><duration>3</duration><voice>1</voice><type>eighth</type><stem>up</stem><beam number="1">begin</beam><lyric number="1"><syllabic>single</syllabic><text>not</text></lyric></note><note default-y="-50.00" default-x="306.13"><pitch><step>C</step><octave>4</octave></pitch><duration>3</duration><voice>1</voice><type>eighth</type><stem>up</stem><beam number="1">end</beam><lyric number="1"><syllabic>single</syllabic><text>a</text></lyric></note></measure><measure width="580.13" number="4"><print new-system="yes"><system-layout><system-margins><left-margin>47.28</left-margin><right-margin>0.00</right-margin></system-margins><system-distance>129.51</system-distance></system-layout></print><harmony print-frame="no"><root><root-step>F</root-step></root><kind text="">major</kind></harmony><note default-y="-25.00" default-x="87.03"><pitch><step>A</step><octave>4</octave></pitch><duration>2</duration><voice>1</voice><type>eighth</type><time-modification><actual-notes>3</actual-notes><normal-notes>2</normal-notes></time-modification><stem>up</stem><beam number="1">begin</beam><notations><tuplet type="start" bracket="no"/></notations><lyric number="1"><syllabic>begin</syllabic><text>crea</text></lyric></note><note default-y="-25.00" default-x="133.16"><pitch><step>A</step><octave>4</octave></pitch><duration>2</duration><voice>1</voice><type>eighth</type><time-modification><actual-notes>3</actual-notes><normal-notes>2</normal-notes></time-modification><stem>up</stem><beam number="1">continue</beam><lyric number="1"><syllabic>end</syllabic><text>ture</text></lyric></note><note default-y="-25.00" default-x="179.30"><pitch><step>A</step><octave>4</octave></pitch><duration>2</duration><voice>1</voice><type>eighth</type><time-modification><actual-notes>3</actual-notes><normal-notes>2</normal-notes></time-modification><stem>up</stem><beam number="1">end</beam><notations><tuplet type="stop"/></notations><lyric number="1"><syllabic>single</syllabic><text>was</text></lyric></note><harmony print-frame="no"><root><root-step>D</root-step></root><kind text="m">minor</kind></harmony><note default-y="-25.00" default-x="225.44"><pitch><step>A</step><octave>4</octave></pitch><duration>2</duration><voice>1</voice><type>eighth</type><time-modification><actual-notes>3</actual-notes><normal-notes>2</normal-notes></time-modification><stem>up</stem><beam number="1">begin</beam><notations><tuplet type="start" bracket="no"/></notations><lyric number="1"><syllabic>begin</syllabic><text>stir</text></lyric></note><note default-y="-30.00" default-x="271.58"><pitch><step>G</step><octave>4</octave></pitch><duration>2</duration><voice>1</voice><type>eighth</type><time-modification><actual-notes>3</actual-notes><normal-notes>2</normal-notes></time-modification><stem>up</stem><beam number="1">continue</beam><lyric number="1"><syllabic>end</syllabic><text>ring</text></lyric></note><note default-y="-35.00" default-x="317.71"><pitch><step>F</step><octave>4</octave></pitch><duration>2</duration><voice>1</voice><type>eighth</type><time-modification><actual-notes>3</actual-notes><normal-notes>2</normal-notes></time-modification><stem>up</stem><beam number="1">end</beam><notations><tuplet type="stop"/></notations><lyric number="1"><syllabic>single</syllabic><text>nor</text></lyric></note><harmony print-frame="no"><root><root-step>G</root-step></root><kind text="7">dominant</kind></harmony><note default-y="-55.00" default-x="363.85"><pitch><step>B</step><octave>3</octave></pitch><duration>3</duration><voice>1</voice><type>eighth</type><accidental>natural</accidental><stem>up</stem><beam number="1">begin</beam><lyric number="1"><syllabic>begin</syllabic><text>ev</text></lyric></note><note default-y="-45.00" default-x="426.18"><pitch><step>D</step><octave>4</octave></pitch><duration>3</duration><voice>1</voice><type>eighth</type><stem>up</stem><beam number="1">end</beam><lyric number="1"><syllabic>end</syllabic><text>en</text></lyric></note><note default-y="-25.00" default-x="488.51"><pitch><step>A</step><octave>4</octave></pitch><duration>6</duration><voice>1</voice><type>quarter</type><stem>up</stem><lyric number="1"><syllabic>single</syllabic><text>a</text></lyric></note></measure><measure width="449.69" number="5"><harmony print-frame="no"><root><root-step>C</root-step></root><kind text="7">dominant</kind></harmony><note default-y="-30.00" default-x="41.65"><pitch><step>G</step><octave>4</octave></pitch><duration>12</duration><tie type="start"/><voice>1</voice><type>half</type><stem>up</stem><notations><tied type="start"/></notations><lyric number="1"><syllabic>single</syllabic><text>mouse!</text></lyric></note><note default-y="-30.00" default-x="185.87"><pitch><step>G</step><octave>4</octave></pitch><duration>3</duration><tie type="stop"/><voice>1</voice><type>eighth</type><stem>up</stem><beam number="1">begin</beam><notations><tied type="stop"/></notations></note><note default-y="-35.00" default-x="251.43"><pitch><step>F</step><octave>4</octave></pitch><duration>3</duration><voice>1</voice><type>eighth</type><stem>up</stem><beam number="1">continue</beam><lyric number="1"><syllabic>single</syllabic><text>And</text></lyric></note><note default-y="-40.00" default-x="316.98"><pitch><step>E</step><octave>4</octave></pitch><duration>3</duration><voice>1</voice><type>eighth</type><stem>up</stem><beam number="1">continue</beam><lyric number="1"><syllabic>single</syllabic><text>there</text></lyric></note><note default-y="-45.00" default-x="382.54"><pitch><step>D</step><octave>4</octave></pitch><duration>3</duration><voice>1</voice><type>eighth</type><stem>up</stem><beam number="1">end</beam><lyric number="1"><syllabic>single</syllabic><text>were</text></lyric></note></measure><measure width="351.25" number="6"><print new-system="yes"><system-layout><system-margins><left-margin>47.28</left-margin><right-margin>0.00</right-margin></system-margins><system-distance>129.51</system-distance></system-layout></print><barline location="left"><bar-style>heavy-light</bar-style><repeat direction="forward"/></barline><harmony print-frame="no"><root><root-step>F</root-step></root><kind text="">major</kind></harmony><note default-y="-50.00" default-x="107.18"><pitch><step>C</step><octave>4</octave></pitch><duration>3</duration><voice>1</voice><type>eighth</type><stem>up</stem><beam number="1">begin</beam><lyric number="1"><syllabic>begin</syllabic><text>car</text></lyric></note><note default-y="-25.00" default-x="143.82"><pitch><step>A</step><octave>4</octave></pitch><duration>3</duration><voice>1</voice><type>eighth</type><stem>up</stem><beam number="1">continue</beam><lyric number="1"><syllabic>end</syllabic><text>ols</text></lyric></note><note default-y="-50.00" default-x="180.46"><pitch><step>C</step><octave>4</octave></pitch><duration>3</duration><voice>1</voice><type>eighth</type><stem>up</stem><beam number="1">continue</beam><lyric number="1"><syllabic>single</syllabic><text>in</text></lyric></note><note default-y="-50.00" default-x="217.10"><pitch><step>C</step><alter>1</alter><octave>4</octave></pitch><duration>3</duration><voice>1</voice><type>eighth</type><accidental>sharp</accidental><stem>up</stem><beam number="1">end</beam><lyric number="1"><syllabic>single</syllabic><text>the</text></lyric></note><harmony print-frame="no"><root><root-step>D</root-step></root><kind text="7">dominant</kind></harmony><note default-y="-45.00" default-x="269.04"><pitch><step>D</step><octave>4</octave></pitch><duration>12</duration><voice>1</voice><type>half</type><stem>up</stem><lyric number="1"><syllabic>single</syllabic><text>square,</text></lyric></note></measure><measure width="281.74" number="7"><harmony print-frame="no"><root><root-step>G</root-step></root><kind text="m">minor</kind></harmony><note default-y="-45.00" default-x="33.51"><pitch><step>D</step><octave>4</octave></pitch><duration>3</duration><voice>1</voice><type>eighth</type><stem>up</stem><beam number="1">begin</beam><lyric number="1"><syllabic>begin</syllabic><text>laugh</text></lyric></note><note default-y="-20.00" default-x="76.37"><pitch><step>B</step><alter>-1</alter><octave>4</octave></pitch><duration>3</duration><voice>1</voice><type>eighth</type><stem>up</stem><beam number="1">continue</beam><lyric number="1"><syllabic>end</syllabic><text>ter</text></lyric></note><note default-y="-45.00" default-x="113.34"><pitch><step>D</step><octave>4</octave></pitch><duration>3</duration><voice>1</voice><type>eighth</type><stem>up</stem><beam number="1">continue</beam><lyric number="1"><syllabic>begin</syllabic><text>ev</text></lyric></note><note default-y="-45.00" default-x="150.30"><pitch><step>D</step><alter>1</alter><octave>4</octave></pitch><duration>3</duration><voice>1</voice><type>eighth</type><accidental>sharp</accidental><stem>up</stem><beam number="1">end</beam><lyric number="1"><syllabic>middle</syllabic><text>'ry</text></lyric></note><harmony print-frame="no"><root><root-step>C</root-step></root><kind text="7">dominant</kind></harmony><note default-y="-40.00" default-x="198.81"><pitch><step>E</step><octave>4</octave></pitch><duration>12</duration><voice>1</voice><type>half</type><stem>up</stem><lyric number="1"><syllabic>end</syllabic><text>where,</text></lyric></note></measure><measure width="396.84" number="8"><harmony print-frame="no"><root><root-step>A</root-step></root><kind text="m7">minor-seventh</kind></harmony><note default-y="-40.00" default-x="32.89"><pitch><step>E</step><octave>4</octave></pitch><duration>3</duration><voice>1</voice><type>eighth</type><stem>up</stem><beam number="1">begin</beam><lyric number="1"><syllabic>begin</syllabic><text>Coup</text></lyric></note><note default-y="-15.00" default-x="76.18"><pitch><step>C</step><octave>5</octave></pitch><duration>3</duration><voice>1</voice><type>eighth</type><stem>up</stem><beam number="1">continue</beam><lyric number="1"><syllabic>end</syllabic><text>les</text></lyric></note><note default-y="-40.00" default-x="119.46"><pitch><step>E</step><octave>4</octave></pitch><duration>3</duration><voice>1</voice><type>eighth</type><stem>up</stem><beam number="1">continue</beam><lyric number="1"><syllabic>begin</syllabic><text>kiss</text></lyric></note><note default-y="-30.00" default-x="162.75"><pitch><step>G</step><octave>4</octave></pitch><duration>3</duration><voice>1</voice><type>eighth</type><stem>up</stem><beam number="1">end</beam><lyric number="1"><syllabic>end</syllabic><text>ing</text></lyric></note><harmony print-frame="no"><root><root-step>F</root-step></root><kind text="">major</kind></harmony><note default-y="-35.00" default-x="206.04"><pitch><step>F</step><octave>4</octave></pitch><duration>2</duration><voice>1</voice><type>eighth</type><time-modification><actual-notes>3</actual-notes><normal-notes>2</normal-notes></time-modification><stem>up</stem><beam number="1">begin</beam><notations><tuplet type="start" bracket="no"/></notations><lyric number="1"><syllabic>begin</syllabic><text>un</text></lyric></note><note default-y="-25.00" default-x="238.59"><pitch><step>A</step><octave>4</octave></pitch><duration>2</duration><voice>1</voice><type>eighth</type><time-modification><actual-notes>3</actual-notes><normal-notes>2</normal-notes></time-modification><stem>up</stem><beam number="1">continue</beam><lyric number="1"><syllabic>end</syllabic><text>der</text></lyric></note><note default-y="-30.00" default-x="272.68"><pitch><step>G</step><octave>4</octave></pitch><duration>2</duration><voice>1</voice><type>eighth</type><time-modification><actual-notes>3</actual-notes><normal-notes>2</normal-notes></time-modification><stem>up</stem><beam number="1">end</beam><notations><tuplet type="stop"/></notations><lyric number="1"><syllabic>single</syllabic><text>the</text></lyric></note><harmony print-frame="no"><root><root-step>D</root-step></root><kind text="m">minor</kind></harmony><note default-y="-35.00" default-x="308.67"><pitch><step>F</step><octave>4</octave></pitch><duration>3</duration><voice>1</voice><type>eighth</type><stem>up</stem><beam number="1">begin</beam><lyric number="1"><syllabic>begin</syllabic><text>mis</text></lyric></note><note default-y="-40.00" default-x="351.95"><pitch><step>E</step><octave>4</octave></pitch><duration>3</duration><voice>1</voice><type>eighth</type><stem>up</stem><beam number="1">end</beam><lyric number="1"><syllabic>end</syllabic><text>tle</text></lyric></note></measure><measure width="290.00" number="9"><print new-system="yes"><system-layout><system-margins><left-margin>47.28</left-margin><right-margin>0.00</right-margin></system-margins><system-distance>129.51</system-distance></system-layout></print><harmony print-frame="no"><root><root-step>C</root-step></root><kind text="m7">minor-seventh</kind></harmony><note default-y="-40.00" default-x="85.17"><pitch><step>E</step><alter>-1</alter><octave>4</octave></pitch><duration>12</duration><tie type="start"/><voice>1</voice><type>half</type><accidental>flat</accidental><stem>up</stem><notations><tied type="start"/></notations><lyric number="1"><syllabic>single</syllabic><text>toe;</text></lyric></note><harmony print-frame="no"><root><root-step>F</root-step></root><kind text="7">dominant</kind></harmony><note default-y="-40.00" default-x="171.97"><pitch><step>E</step><alter>-1</alter><octave>4</octave></pitch><duration>9</duration><tie type="stop"/><voice>1</voice><type>quarter</type><dot/><stem>up</stem><notations><tied type="stop"/></notations></note><note default-y="-50.00" default-x="248.95"><pitch><step>C</step><alter>1</alter><octave>4</octave></pitch><duration>3</duration><voice>1</voice><type>eighth</type><accidental>sharp</accidental><stem>up</stem><lyric number="1"><syllabic>single</syllabic><text>I</text></lyric></note></measure><measure width="363.47" number="10"><harmony print-frame="no"><root><root-step>B</root-step><root-alter>-1</root-alter></root><kind text="">major</kind></harmony><note default-y="-45.00" default-x="29.27"><pitch><step>D</step><octave>4</octave></pitch><duration>3</duration><voice>1</voice><type>eighth</type><stem>up</stem><beam number="1">begin</beam><lyric number="1"><syllabic>single</syllabic><text>can't</text></lyric></note><note default-y="-45.00" default-x="75.46"><pitch><step>D</step><octave>4</octave></pitch><duration>3</duration><voice>1</voice><type>eighth</type><stem>up</stem><beam number="1">continue</beam><lyric number="1"><syllabic>single</syllabic><text>help</text></lyric></note><note default-y="-50.00" default-x="121.66"><pitch><step>C</step><alter>1</alter><octave>4</octave></pitch><duration>3</duration><voice>1</voice><type>eighth</type><accidental>sharp</accidental><stem>up</stem><beam number="1">continue</beam><lyric number="1"><syllabic>begin</syllabic><text>re</text></lyric></note><note default-y="-45.00" default-x="167.85"><pitch><step>D</step><octave>4</octave></pitch><duration>3</duration><voice>1</voice><type>eighth</type><stem>up</stem><beam number="1">end</beam><lyric number="1"><syllabic>middle</syllabic><text>mi</text></lyric></note><harmony print-frame="no"><root><root-step>B</root-step><root-alter>-1</root-alter></root><kind text="m6">minor-sixth</kind></harmony><note default-y="-15.00" default-x="214.05"><pitch><step>C</step><octave>5</octave></pitch><duration>6</duration><voice>1</voice><type>quarter</type><stem>down</stem><lyric number="1"><syllabic>middle</syllabic><text>nis</text></lyric></note><note default-y="-20.00" default-x="287.96"><pitch><step>B</step><alter>-1</alter><octave>4</octave></pitch><duration>6</duration><voice>1</voice><type>quarter</type><stem>down</stem><lyric number="1"><syllabic>end</syllabic><text>cing</text></lyric></note></measure><measure width="376.35" number="11"><harmony print-frame="no"><root><root-step>F</root-step></root><kind text="">major</kind></harmony><note default-y="-25.00" default-x="36.01"><pitch><step>A</step><octave>4</octave></pitch><duration>3</duration><voice>1</voice><type>eighth</type><stem>up</stem><beam number="1">begin</beam><lyric number="1"><syllabic>begin</syllabic><text>Know</text></lyric></note><note default-y="-25.00" default-x="83.89"><pitch><step>A</step><octave>4</octave></pitch><duration>3</duration><voice>1</voice><type>eighth</type><stem>up</stem><beam number="1">continue</beam><lyric number="1"><syllabic>end</syllabic><text>ing</text></lyric></note><note default-y="-30.00" default-x="130.80"><pitch><step>G</step><alter>1</alter><octave>4</octave></pitch><duration>3</duration><voice>1</voice><type>eighth</type><accidental>sharp</accidental><stem>up</stem><beam number="1">continue</beam><lyric number="1"><syllabic>single</syllabic><text>I'll</text></lyric></note><note default-y="-25.00" default-x="177.71"><pitch><step>A</step><octave>4</octave></pitch><duration>3</duration><voice>1</voice><type>eighth</type><stem>up</stem><beam number="1">end</beam><lyric number="1"><syllabic>single</syllabic><text>be</text></lyric></note><harmony print-frame="no"><root><root-step>D</root-step></root><kind text="7">dominant</kind></harmony><note default-y="-20.00" default-x="224.63"><pitch><step>B</step><alter>-1</alter><octave>4</octave></pitch><duration>6</duration><voice>1</voice><type>quarter</type><stem>down</stem><lyric number="1"><syllabic>begin</syllabic><text>miss</text></lyric></note><note default-y="-25.00" default-x="299.69"><pitch><step>A</step><octave>4</octave></pitch><duration>6</duration><voice>1</voice><type>quarter</type><stem>up</stem><lyric number="1"><syllabic>end</syllabic><text>ing,</text></lyric></note></measure><measure width="373.52" number="12"><print new-system="yes"><system-layout><system-margins><left-margin>47.28</left-margin><right-margin>0.00</right-margin></system-margins><system-distance>129.51</system-distance></system-layout></print><harmony print-frame="no"><root><root-step>G</root-step></root><kind text="7">dominant</kind></harmony><note default-y="-30.00" default-x="95.82"><pitch><step>G</step><octave>4</octave></pitch><duration>3</duration><voice>1</voice><type>eighth</type><stem>up</stem><beam number="1">begin</beam><lyric number="1"><syllabic>begin</syllabic><text>Christ</text></lyric></note><note default-y="-45.00" default-x="147.46"><pitch><step>D</step><octave>4</octave></pitch><duration>3</duration><voice>1</voice><type>eighth</type><stem>up</stem><beam number="1">continue</beam><lyric number="1"><syllabic>end</syllabic><text>mas</text></lyric></note><note default-y="-50.00" default-x="189.06"><pitch><step>C</step><alter>1</alter><octave>4</octave></pitch><duration>3</duration><voice>1</voice><type>eighth</type><accidental>sharp</accidental><stem>up</stem><beam number="1">continue</beam><lyric number="1"><syllabic>single</syllabic><text>Eve</text></lyric></note><note default-y="-45.00" default-x="224.23"><pitch><step>D</step><octave>4</octave></pitch><duration>3</duration><voice>1</voice><type>eighth</type><stem>up</stem><beam number="1">end</beam><lyric number="1"><syllabic>single</syllabic><text>in</text></lyric></note><harmony print-frame="no"><root><root-step>G</root-step></root><kind text="9">dominant-ninth</kind></harmony><note default-y="-25.00" default-x="259.39"><pitch><step>A</step><octave>4</octave></pitch><duration>6</duration><voice>1</voice><type>quarter</type><stem>up</stem><lyric number="1"><syllabic>single</syllabic><text>my</text></lyric></note><harmony print-frame="no"><root><root-step>B</root-step><root-alter>-1</root-alter></root><kind text="m7">minor-seventh</kind></harmony><note default-y="-30.00" default-x="315.66"><pitch><step>G</step><alter>1</alter><octave>4</octave></pitch><duration>6</duration><voice>1</voice><type>quarter</type><accidental>sharp</accidental><stem>up</stem><lyric number="1"><syllabic>begin</syllabic><text>home</text></lyric></note></measure><measure width="108.45" number="13"><harmony print-frame="no"><root><root-step>G</root-step></root><kind text="m7">minor-seventh</kind></harmony><harmony relative-x="3000.00" print-frame="no"><root><root-step>C</root-step></root><kind text="7">dominant</kind></harmony><note default-y="-30.00" default-x="33.82"><pitch><step>G</step><octave>4</octave></pitch><duration>24</duration><voice>1</voice><type>whole</type><lyric number="1"><syllabic>end</syllabic><text>town.</text></lyric></note></measure><measure width="286.78" number="14"><harmony print-frame="no"><root><root-step>F</root-step></root><kind text="">major</kind></harmony><note default-y="-50.00" default-x="31.01"><pitch><step>C</step><octave>4</octave></pitch><duration>3</duration><voice>1</voice><type>eighth</type><stem>up</stem><beam number="1">begin</beam><lyric number="1"><syllabic>begin</syllabic><text>Noth</text></lyric></note><note default-y="-25.00" default-x="73.88"><pitch><step>A</step><octave>4</octave></pitch><duration>3</duration><voice>1</voice><type>eighth</type><stem>up</stem><beam number="1">continue</beam><lyric number="1"><syllabic>end</syllabic><text>ing</text></lyric></note><note default-y="-50.00" default-x="109.85"><pitch><step>C</step><octave>4</octave></pitch><duration>3</duration><voice>1</voice><type>eighth</type><stem>up</stem><beam number="1">continue</beam><lyric number="1"><syllabic>single</syllabic><text>can</text></lyric></note><note default-y="-50.00" default-x="144.33"><pitch><step>C</step><alter>1</alter><octave>4</octave></pitch><duration>3</duration><voice>1</voice><type>eighth</type><accidental>sharp</accidental><stem>up</stem><beam number="1">end</beam><lyric number="1"><syllabic>begin</syllabic><text>e</text></lyric></note><harmony print-frame="no"><root><root-step>D</root-step></root><kind text="7">dominant</kind></harmony><note default-y="-45.00" default-x="183.45"><pitch><step>D</step><octave>4</octave></pitch><duration>9</duration><voice>1</voice><type>quarter</type><dot/><stem>up</stem><lyric number="1"><syllabic>end</syllabic><text>rase,</text></lyric></note><note default-y="-45.00" default-x="250.71"><pitch><step>D</step><octave>4</octave></pitch><duration>3</duration><voice>1</voice><type>eighth</type><stem>up</stem><lyric number="1"><syllabic>single</syllabic><text>the</text></lyric></note></measure><measure width="261.07" number="15"><harmony print-frame="no"><root><root-step>G</root-step></root><kind text="m">minor</kind></harmony><note default-y="-45.00" default-x="30.99"><pitch><step>D</step><octave>4</octave></pitch><duration>3</duration><voice>1</voice><type>eighth</type><stem>up</stem><beam number="1">begin</beam><lyric number="1"><syllabic>begin</syllabic><text>mem</text></lyric></note><note default-y="-20.00" default-x="77.76"><pitch><step>B</step><alter>-1</alter><octave>4</octave></pitch><duration>3</duration><voice>1</voice><type>eighth</type><stem>up</stem><beam number="1">continue</beam><lyric number="1"><syllabic>end</syllabic><text>'ries</text></lyric></note><note default-y="-45.00" default-x="109.85"><pitch><step>D</step><octave>4</octave></pitch><duration>3</duration><voice>1</voice><type>eighth</type><stem>up</stem><beam number="1">continue</beam><lyric number="1"><syllabic>single</syllabic><text>I</text></lyric></note><note default-y="-45.00" default-x="141.95"><pitch><step>D</step><alter>1</alter><octave>4</octave></pitch><duration>3</duration><voice>1</voice><type>eighth</type><accidental>sharp</accidental><stem>up</stem><beam number="1">end</beam><lyric number="1"><syllabic>begin</syllabic><text>em</text></lyric></note><harmony print-frame="no"><root><root-step>C</root-step></root><kind text="7">dominant</kind></harmony><note default-y="-40.00" default-x="188.86"><pitch><step>E</step><octave>4</octave></pitch><duration>12</duration><voice>1</voice><type>half</type><stem>up</stem><lyric number="1"><syllabic>end</syllabic><text>brace,</text></lyric></note></measure><measure width="481.51" number="16"><print new-system="yes"><system-layout><system-margins><left-margin>47.28</left-margin><right-margin>-0.00</right-margin></system-margins><system-distance>129.51</system-distance></system-layout></print><harmony print-frame="no"><root><root-step>A</root-step></root><kind text="m7">minor-seventh</kind></harmony><note default-y="-40.00" default-x="95.81"><pitch><step>E</step><octave>4</octave></pitch><duration>3</duration><voice>1</voice><type>eighth</type><stem>up</stem><beam number="1">begin</beam><lyric number="1"><syllabic>single</syllabic><text>Those</text></lyric></note><note default-y="-15.00" default-x="146.80"><pitch><step>C</step><octave>5</octave></pitch><duration>3</duration><voice>1</voice><type>eighth</type><stem>up</stem><beam number="1">continue</beam><lyric number="1"><syllabic>begin</syllabic><text>fam</text></lyric></note><note default-y="-40.00" default-x="188.69"><pitch><step>E</step><octave>4</octave></pitch><duration>3</duration><voice>1</voice><type>eighth</type><stem>up</stem><beam number="1">continue</beam><lyric number="1"><syllabic>begin</syllabic><text>il</text></lyric></note><note default-y="-30.00" default-x="230.58"><pitch><step>G</step><octave>4</octave></pitch><duration>3</duration><voice>1</voice><type>eighth</type><stem>up</stem><beam number="1">end</beam><lyric number="1"><syllabic>end</syllabic><text>iar</text></lyric></note><harmony print-frame="no"><root><root-step>F</root-step></root><kind text="">major</kind></harmony><note default-y="-35.00" default-x="272.48"><pitch><step>F</step><octave>4</octave></pitch><duration>2</duration><voice>1</voice><type>eighth</type><time-modification><actual-notes>3</actual-notes><normal-notes>2</normal-notes></time-modification><stem>up</stem><beam number="1">begin</beam><notations><tuplet type="start" bracket="no"/></notations><lyric number="1"><syllabic>begin</syllabic><text>foot</text></lyric></note><note default-y="-25.00" default-x="322.24"><pitch><step>A</step><octave>4</octave></pitch><duration>2</duration><voice>1</voice><type>eighth</type><time-modification><actual-notes>3</actual-notes><normal-notes>2</normal-notes></time-modification><stem>up</stem><beam number="1">continue</beam><lyric number="1"><syllabic>end</syllabic><text>prints</text></lyric></note><note default-y="-30.00" default-x="365.12"><pitch><step>G</step><octave>4</octave></pitch><duration>2</duration><voice>1</voice><type>eighth</type><time-modification><actual-notes>3</actual-notes><normal-notes>2</normal-notes></time-modification><stem>up</stem><beam number="1">end</beam><notations><tuplet type="stop"/></notations><lyric number="1"><syllabic>begin</syllabic><text>up</text></lyric></note><harmony print-frame="no"><root><root-step>D</root-step></root><kind text="m">minor</kind></harmony><note default-y="-35.00" default-x="396.13"><pitch><step>F</step><octave>4</octave></pitch><duration>3</duration><voice>1</voice><type>eighth</type><stem>up</stem><beam number="1">begin</beam><lyric number="1"><syllabic>end</syllabic><text>on</text></lyric></note><note default-y="-40.00" default-x="438.02"><pitch><step>E</step><octave>4</octave></pitch><duration>3</duration><voice>1</voice><type>eighth</type><stem>up</stem><beam number="1">end</beam><lyric number="1"><syllabic>single</syllabic><text>the</text></lyric></note></measure><measure width="213.61" number="17"><harmony print-frame="no"><root><root-step>C</root-step></root><kind text="m7">minor-seventh</kind></harmony><note default-y="-40.00" default-x="34.27"><pitch><step>E</step><alter>-1</alter><octave>4</octave></pitch><duration>12</duration><tie type="start"/><voice>1</voice><type>half</type><accidental>flat</accidental><stem>up</stem><notations><tied type="start"/></notations><lyric number="1"><syllabic>single</syllabic><text>snow.</text></lyric></note><harmony print-frame="no"><root><root-step>F</root-step></root><kind text="7">dominant</kind></harmony><note default-y="-40.00" default-x="105.33"><pitch><step>E</step><alter>-1</alter><octave>4</octave></pitch><duration>9</duration><tie type="stop"/><voice>1</voice><type>quarter</type><dot/><stem>up</stem><notations><tied type="stop"/></notations></note><note default-y="-50.00" default-x="168.35"><pitch><step>C</step><alter>1</alter><octave>4</octave></pitch><duration>3</duration><voice>1</voice><type>eighth</type><accidental>sharp</accidental><stem>up</stem><lyric number="1"><syllabic>single</syllabic><text>There's</text></lyric></note></measure><measure width="334.70" number="18"><harmony print-frame="no"><root><root-step>B</root-step><root-alter>-1</root-alter></root><kind text="">major</kind></harmony><note default-y="-45.00" default-x="18.49"><pitch><step>D</step><octave>4</octave></pitch><duration>3</duration><voice>1</voice><type>eighth</type><stem>up</stem><beam number="1">begin</beam><lyric number="1"><syllabic>single</syllabic><text>so</text></lyric></note><note default-y="-45.00" default-x="61.69"><pitch><step>D</step><octave>4</octave></pitch><duration>3</duration><voice>1</voice><type>eighth</type><stem>up</stem><beam number="1">continue</beam><lyric number="1"><syllabic>single</syllabic><text>much</text></lyric></note><note default-y="-50.00" default-x="104.94"><pitch><step>C</step><alter>1</alter><octave>4</octave></pitch><duration>3</duration><voice>1</voice><type>eighth</type><accidental>sharp</accidental><stem>up</stem><beam number="1">continue</beam><lyric number="1"><syllabic>single</syllabic><text>to</text></lyric></note><note default-y="-45.00" default-x="144.47"><pitch><step>D</step><octave>4</octave></pitch><duration>3</duration><voice>1</voice><type>eighth</type><stem>up</stem><beam number="1">end</beam><lyric number="1"><syllabic>begin</syllabic><text>re</text></lyric></note><harmony print-frame="no"><root><root-step>B</root-step><root-alter>-1</root-alter></root><kind text="m6">minor-sixth</kind></harmony><note default-y="-15.00" default-x="185.16"><pitch><step>C</step><octave>5</octave></pitch><duration>3</duration><voice>1</voice><type>eighth</type><stem>down</stem><lyric number="1"><syllabic>middle</syllabic><text>mem</text></lyric></note><note default-y="-20.00" default-x="230.32"><pitch><step>B</step><alter>-1</alter><octave>4</octave></pitch><duration>6</duration><voice>1</voice><type>quarter</type><stem>down</stem><lyric number="1"><syllabic>single</syllabic><text>ber,</text></lyric></note><note default-y="-20.00" default-x="293.57"><pitch><step>B</step><alter>-1</alter><octave>4</octave></pitch><duration>3</duration><voice>1</voice><type>eighth</type><stem>down</stem><lyric number="1"><syllabic>single</syllabic><text>no</text></lyric></note></measure><measure width="340.98" number="19"><print new-system="yes"><system-layout><system-margins><left-margin>47.28</left-margin><right-margin>0.00</right-margin></system-margins><system-distance>129.51</system-distance></system-layout></print><harmony print-frame="no"><root><root-step>F</root-step></root><kind text="">major</kind></harmony><note default-y="-25.00" default-x="87.67"><pitch><step>A</step><octave>4</octave></pitch><duration>3</duration><voice>1</voice><type>eighth</type><stem>up</stem><beam number="1">begin</beam><lyric number="1"><syllabic>begin</syllabic><text>won</text></lyric></note><note default-y="-25.00" default-x="127.40"><pitch><step>A</step><octave>4</octave></pitch><duration>3</duration><voice>1</voice><type>eighth</type><stem>up</stem><beam number="1">continue</beam><lyric number="1"><syllabic>end</syllabic><text>der</text></lyric></note><note default-y="-30.00" default-x="160.34"><pitch><step>G</step><alter>1</alter><octave>4</octave></pitch><duration>3</duration><voice>1</voice><type>eighth</type><accidental>sharp</accidental><stem>up</stem><beam number="1">continue</beam><lyric number="1"><syllabic>single</syllabic><text>I</text></lyric></note><note default-y="-25.00" default-x="193.28"><pitch><step>A</step><octave>4</octave></pitch><duration>3</duration><voice>1</voice><type>eighth</type><stem>up</stem><beam number="1">end</beam><lyric number="1"><syllabic>begin</syllabic><text>re</text></lyric></note><note default-y="-20.00" default-x="233.97"><pitch><step>B</step><alter>-1</alter><octave>4</octave></pitch><duration>6</duration><voice>1</voice><type>quarter</type><stem>down</stem><lyric number="1"><syllabic>middle</syllabic><text>mem</text></lyric></note><harmony print-frame="no"><root><root-step>D</root-step></root><kind text="7">dominant</kind></harmony><note default-y="-25.00" default-x="286.68"><pitch><step>A</step><octave>4</octave></pitch><duration>6</duration><voice>1</voice><type>quarter</type><stem>up</stem><lyric number="1"><syllabic>single</syllabic><text>ber</text></lyric></note></measure><measure width="320.58" number="20"><harmony print-frame="no"><root><root-step>G</root-step></root><kind text="7">dominant</kind></harmony><note default-y="-30.00" default-x="36.02"><pitch><step>G</step><octave>4</octave></pitch><duration>3</duration><voice>1</voice><type>eighth</type><stem>up</stem><beam number="1">begin</beam><lyric number="1"><syllabic>begin</syllabic><text>Christ</text></lyric></note><note default-y="-45.00" default-x="87.66"><pitch><step>D</step><octave>4</octave></pitch><duration>3</duration><voice>1</voice><type>eighth</type><stem>up</stem><beam number="1">continue</beam><lyric number="1"><syllabic>end</syllabic><text>mas</text></lyric></note><note default-y="-50.00" default-x="129.26"><pitch><step>C</step><alter>1</alter><octave>4</octave></pitch><duration>3</duration><voice>1</voice><type>eighth</type><accidental>sharp</accidental><stem>up</stem><beam number="1">continue</beam><lyric number="1"><syllabic>single</syllabic><text>Eve</text></lyric></note><note default-y="-45.00" default-x="165.74"><pitch><step>D</step><octave>4</octave></pitch><duration>3</duration><voice>1</voice><type>eighth</type><stem>up</stem><beam number="1">end</beam><lyric number="1"><syllabic>single</syllabic><text>in</text></lyric></note><harmony print-frame="no"><root><root-step>B</root-step><root-alter>-1</root-alter></root><kind text="Maj7">major-seventh</kind></harmony><note default-y="-25.00" default-x="202.23"><pitch><step>A</step><octave>4</octave></pitch><duration>6</duration><voice>1</voice><type>quarter</type><stem>up</stem><lyric number="1"><syllabic>single</syllabic><text>my</text></lyric></note><harmony print-frame="no"><root><root-step>C</root-step></root><kind text="7">dominant</kind></harmony><note default-y="-25.00" default-x="260.60"><pitch><step>A</step><octave>4</octave></pitch><duration>6</duration><voice>1</voice><type>quarter</type><stem>up</stem><lyric number="1"><syllabic>begin</syllabic><text>home</text></lyric></note></measure><measure width="115.31" number="21"><harmony print-frame="no"><root><root-step>F</root-step></root><kind text="6">major-sixth</kind></harmony><note default-y="-35.00" default-x="33.82"><pitch><step>F</step><octave>4</octave></pitch><duration>24</duration><voice>1</voice><type>whole</type><lyric number="1"><syllabic>end</syllabic><text>town.</text></lyric></note></measure><measure width="252.95" number="22"><harmony print-frame="no"><root><root-step>F</root-step></root><kind text="7">dominant</kind></harmony><note default-y="-40.00" default-x="19.88"><pitch><step>E</step><alter>-1</alter><octave>4</octave></pitch><duration>3</duration><voice>1</voice><type>eighth</type><accidental>flat</accidental><stem>up</stem><lyric number="1"><syllabic>single</syllabic><text>I'd</text></lyric></note><note default-y="-35.00" default-x="64.07"><pitch><step>F</step><octave>4</octave></pitch><duration>6</duration><voice>1</voice><type>quarter</type><stem>up</stem><lyric number="1"><syllabic>single</syllabic><text>like</text></lyric></note><note default-y="-25.00" default-x="113.03"><pitch><step>A</step><octave>4</octave></pitch><duration>3</duration><voice>1</voice><type>eighth</type><stem>up</stem><lyric number="1"><syllabic>single</syllabic><text>to</text></lyric></note><note default-y="-10.00" default-x="150.95"><pitch><step>D</step><octave>5</octave></pitch><duration>3</duration><voice>1</voice><type>eighth</type><stem>down</stem><lyric number="1"><syllabic>single</syllabic><text>be</text></lyric></note><note default-y="-15.00" default-x="191.64"><pitch><step>C</step><octave>5</octave></pitch><duration>9</duration><voice>1</voice><type>quarter</type><dot/><stem>down</stem><lyric number="1"><syllabic>single</syllabic><text>there</text></lyric></note></measure><measure width="435.72" number="23"><print new-system="yes"><system-layout><system-margins><left-margin>47.28</left-margin><right-margin>0.00</right-margin></system-margins><system-distance>129.51</system-distance></system-layout></print><harmony print-frame="no"><root><root-step>F</root-step></root><kind text="7">dominant</kind></harmony><note default-y="-40.00" default-x="87.04"><pitch><step>E</step><alter>-1</alter><octave>4</octave></pitch><duration>3</duration><voice>1</voice><type>eighth</type><accidental>flat</accidental><stem>up</stem><lyric number="1"><syllabic>begin</syllabic><text>trim</text></lyric></note><note default-y="-35.00" default-x="140.02"><pitch><step>F</step><octave>4</octave></pitch><duration>6</duration><voice>1</voice><type>quarter</type><stem>up</stem><lyric number="1"><syllabic>end</syllabic><text>ming</text></lyric></note><note default-y="-25.00" default-x="224.79"><pitch><step>A</step><octave>4</octave></pitch><duration>3</duration><voice>1</voice><type>eighth</type><stem>up</stem><lyric number="1"><syllabic>single</syllabic><text>the</text></lyric></note><note default-y="-10.00" default-x="277.77"><pitch><step>D</step><octave>5</octave></pitch><duration>3</duration><voice>1</voice><type>eighth</type><stem>down</stem><lyric number="1"><syllabic>single</syllabic><text>tree</text></lyric></note><note default-y="-15.00" default-x="330.75"><pitch><step>C</step><octave>5</octave></pitch><duration>9</duration><voice>1</voice><type>quarter</type><dot/><stem>down</stem><lyric number="1"><syllabic>single</syllabic><text>there,</text></lyric></note></measure><measure width="414.62" number="24"><harmony print-frame="no"><root><root-step>B</root-step><root-alter>-1</root-alter></root><kind text="">major</kind></harmony><note default-y="-20.00" default-x="24.74"><pitch><step>B</step><alter>-1</alter><octave>4</octave></pitch><duration>3</duration><voice>1</voice><type>eighth</type><stem>down</stem><lyric number="1"><syllabic>single</syllabic><text>and</text></lyric></note><note default-y="-10.00" default-x="78.67"><pitch><step>D</step><octave>5</octave></pitch><duration>6</duration><voice>1</voice><type>quarter</type><stem>down</stem><lyric number="1"><syllabic>single</syllabic><text>there's</text></lyric></note><note default-y="-20.00" default-x="164.95"><pitch><step>B</step><alter>-1</alter><octave>4</octave></pitch><duration>3</duration><voice>1</voice><type>eighth</type><stem>down</stem><lyric number="1"><syllabic>single</syllabic><text>a</text></lyric></note><harmony print-frame="no"><root><root-step>B</root-step><root-alter>-1</root-alter></root><kind text="Maj7">major-seventh</kind></harmony><note default-y="-25.00" default-x="218.88"><pitch><step>A</step><octave>4</octave></pitch><duration>3</duration><voice>1</voice><type>eighth</type><stem>up</stem><lyric number="1"><syllabic>single</syllabic><text>chance</text></lyric></note><note default-y="-10.00" default-x="272.81"><pitch><step>D</step><octave>5</octave></pitch><duration>6</duration><voice>1</voice><type>quarter</type><stem>down</stem><lyric number="1"><syllabic>single</syllabic><text>I</text></lyric></note><note default-y="-25.00" default-x="359.09"><pitch><step>A</step><octave>4</octave></pitch><duration>3</duration><voice>1</voice><type>eighth</type><stem>up</stem><lyric number="1"><syllabic>single</syllabic><text>might</text></lyric></note></measure><measure width="179.48" number="25"><harmony print-frame="no"><root><root-step>B</root-step><root-alter>-1</root-alter></root><kind text="6">major-sixth</kind></harmony><note default-y="-30.00" default-x="22.86"><pitch><step>G</step><octave>4</octave></pitch><duration>24</duration><voice>1</voice><type>whole</type><lyric number="1"><syllabic>single</syllabic><text>be!</text></lyric></note></measure><measure width="393.90" number="26"><print new-page="yes"><system-layout><system-margins><left-margin>47.28</left-margin><right-margin>0.00</right-margin></system-margins><top-system-distance>70.00</top-system-distance></system-layout></print><harmony print-frame="no"><root><root-step>G</root-step></root><kind text="7">dominant</kind></harmony><note default-y="-30.00" default-x="72.01"><pitch><step>G</step><octave>4</octave></pitch><duration>3</duration><voice>1</voice><type>eighth</type><stem>up</stem><lyric number="1"><syllabic>single</syllabic><text>I</text></lyric></note><note default-y="-30.00" default-x="120.90"><pitch><step>G</step><octave>4</octave></pitch><duration>6</duration><voice>1</voice><type>quarter</type><stem>up</stem><lyric number="1"><syllabic>single</syllabic><text>can</text></lyric></note><note default-y="-45.00" default-x="199.13"><pitch><step>D</step><octave>4</octave></pitch><duration>3</duration><voice>1</voice><type>eighth</type><stem>up</stem><lyric number="1"><syllabic>single</syllabic><text>hear</text></lyric></note><harmony print-frame="no"><root><root-step>D</root-step></root><kind text="m7">minor-seventh</kind></harmony><note default-y="-25.00" default-x="248.02"><pitch><step>A</step><octave>4</octave></pitch><duration>3</duration><voice>1</voice><type>eighth</type><stem>up</stem><lyric number="1"><syllabic>begin</syllabic><text>sing</text></lyric></note><note default-y="-25.00" default-x="296.91"><pitch><step>A</step><octave>4</octave></pitch><duration>9</duration><voice>1</voice><type>quarter</type><dot/><stem>up</stem><lyric number="1"><syllabic>end</syllabic><text>ing,</text></lyric></note></measure><measure width="322.86" number="27"><harmony print-frame="no"><root><root-step>G</root-step></root><kind text="7">dominant</kind></harmony><note default-y="-20.00" default-x="31.63"><pitch><step>B</step><octave>4</octave></pitch><duration>3</duration><voice>1</voice><type>eighth</type><accidental>natural</accidental><stem>down</stem><lyric number="1"><syllabic>begin</syllabic><text>steep</text></lyric></note><note default-y="-20.00" default-x="75.62"><pitch><step>B</step><octave>4</octave></pitch><duration>6</duration><voice>1</voice><type>quarter</type><stem>down</stem><lyric number="1"><syllabic>end</syllabic><text>le</text></lyric></note><note default-y="-30.00" default-x="146.00"><pitch><step>G</step><octave>4</octave></pitch><duration>3</duration><voice>1</voice><type>eighth</type><stem>up</stem><lyric number="1"><syllabic>single</syllabic><text>bells</text></lyric></note><note default-y="-10.00" default-x="191.45"><pitch><step>D</step><octave>5</octave></pitch><duration>3</duration><voice>1</voice><type>eighth</type><stem>down</stem><lyric number="1"><syllabic>begin</syllabic><text>ring</text></lyric></note><note default-y="-10.00" default-x="235.44"><pitch><step>D</step><octave>5</octave></pitch><duration>9</duration><voice>1</voice><type>quarter</type><dot/><stem>down</stem><lyric number="1"><syllabic>end</syllabic><text>ing,</text></lyric></note></measure><measure width="313.06" number="28"><harmony print-frame="no"><root><root-step>C</root-step></root><kind text="7">dominant</kind></harmony><note default-y="-10.00" default-x="22.23"><pitch><step>D</step><octave>5</octave></pitch><duration>3</duration><voice>1</voice><type>eighth</type><stem>down</stem><beam number="1">begin</beam><lyric number="1"><syllabic>begin</syllabic><text>No</text></lyric></note><note default-y="-15.00" default-x="60.29"><pitch><step>C</step><octave>5</octave></pitch><duration>3</duration><voice>1</voice><type>eighth</type><stem>down</stem><beam number="1">continue</beam></note><note default-y="-20.00" default-x="98.35"><pitch><step>B</step><alter>-1</alter><octave>4</octave></pitch><duration>3</duration><voice>1</voice><type>eighth</type><stem>down</stem><beam number="1">continue</beam><lyric number="1"><syllabic>single</syllabic><text>el</text></lyric></note><note default-y="-25.00" default-x="136.40"><pitch><step>A</step><octave>4</octave></pitch><duration>3</duration><voice>1</voice><type>eighth</type><stem>down</stem><beam number="1">end</beam><lyric number="1"><syllabic>single</syllabic><text>and</text></lyric></note><harmony print-frame="no"><root><root-step>C</root-step></root><kind text="dim">diminished</kind></harmony><note default-y="-20.00" default-x="174.46"><pitch><step>B</step><alter>-1</alter><octave>4</octave></pitch><duration>3</duration><voice>1</voice><type>eighth</type><stem>down</stem><lyric number="1"><syllabic>begin</syllabic><text>Si</text></lyric></note><note default-y="-15.00" default-x="212.52"><pitch><step>C</step><octave>5</octave></pitch><duration>6</duration><voice>1</voice><type>quarter</type><stem>down</stem></note><note default-y="-20.00" default-x="273.41"><pitch><step>B</step><alter>-1</alter><octave>4</octave></pitch><duration>3</duration><voice>1</voice><type>eighth</type><stem>down</stem><lyric number="1"><syllabic>end</syllabic><text>lent</text></lyric></note></measure><measure width="313.48" number="29"><print new-system="yes"><system-layout><system-margins><left-margin>47.28</left-margin><right-margin>0.00</right-margin></system-margins><system-distance>105.20</system-distance></system-layout></print><harmony print-frame="no"><root><root-step>G</root-step></root><kind text="m7">minor-seventh</kind></harmony><harmony relative-x="1700.00" print-frame="no"><root><root-step>C</root-step></root><kind text="7">dominant</kind></harmony><note default-y="-30.00" default-x="96.75"><pitch><step>G</step><octave>4</octave></pitch><duration>24</duration><voice>1</voice><type>whole</type><lyric number="1"><syllabic>single</syllabic><text>Night.</text></lyric></note></measure><measure width="359.00" number="30"><harmony print-frame="no"><root><root-step>F</root-step></root><kind text="">major</kind></harmony><note default-y="-50.00" default-x="31.12"><pitch><step>C</step><octave>4</octave></pitch><duration>3</duration><voice>1</voice><type>eighth</type><stem>up</stem><beam number="1">begin</beam><lyric number="1"><syllabic>begin</syllabic><text>Wise</text></lyric></note><note default-y="-25.00" default-x="83.34"><pitch><step>A</step><octave>4</octave></pitch><duration>3</duration><voice>1</voice><type>eighth</type><stem>up</stem><beam number="1">continue</beam><lyric number="1"><syllabic>end</syllabic><text>men</text></lyric></note><note default-y="-50.00" default-x="138.10"><pitch><step>C</step><octave>4</octave></pitch><duration>3</duration><voice>1</voice><type>eighth</type><stem>up</stem><beam number="1">continue</beam><lyric number="1"><syllabic>begin</syllabic><text>journy</text></lyric></note><note default-y="-50.00" default-x="190.32"><pitch><step>C</step><alter>1</alter><octave>4</octave></pitch><duration>3</duration><voice>1</voice><type>eighth</type><accidental>sharp</accidental><stem>up</stem><beam number="1">end</beam><lyric number="1"><syllabic>middle</syllabic><text>ed</text></lyric></note><harmony print-frame="no"><root><root-step>D</root-step></root><kind text="7">dominant</kind></harmony><note default-y="-45.00" default-x="242.53"><pitch><step>D</step><octave>4</octave></pitch><duration>12</duration><voice>1</voice><type>half</type><stem>up</stem><lyric number="1"><syllabic>single</syllabic><text>far,</text></lyric></note></measure><measure width="357.34" number="31"><harmony print-frame="no"><root><root-step>G</root-step></root><kind text="m">minor</kind></harmony><note default-y="-45.00" default-x="28.51"><pitch><step>D</step><octave>4</octave></pitch><duration>3</duration><voice>1</voice><type>eighth</type><stem>up</stem><beam number="1">begin</beam><lyric number="1"><syllabic>begin</syllabic><text>guid</text></lyric></note><note default-y="-20.00" default-x="75.58"><pitch><step>B</step><alter>-1</alter><octave>4</octave></pitch><duration>3</duration><voice>1</voice><type>eighth</type><stem>up</stem><beam number="1">continue</beam><lyric number="1"><syllabic>end</syllabic><text>ed</text></lyric></note><note default-y="-45.00" default-x="122.66"><pitch><step>D</step><octave>4</octave></pitch><duration>3</duration><voice>1</voice><type>eighth</type><stem>up</stem><beam number="1">continue</beam><lyric number="1"><syllabic>single</syllabic><text>by</text></lyric></note><note default-y="-45.00" default-x="169.74"><pitch><step>D</step><alter>1</alter><octave>4</octave></pitch><duration>3</duration><voice>1</voice><type>eighth</type><accidental>sharp</accidental><stem>up</stem><beam number="1">end</beam><lyric number="1"><syllabic>single</syllabic><text>a</text></lyric></note><harmony print-frame="no"><root><root-step>C</root-step></root><kind text="7">dominant</kind></harmony><note default-y="-40.00" default-x="216.81"><pitch><step>E</step><octave>4</octave></pitch><duration>9</duration><voice>1</voice><type>quarter</type><dot/><stem>up</stem><lyric number="1"><syllabic>single</syllabic><text>Star,</text></lyric></note><note default-y="-45.00" default-x="308.66"><pitch><step>D</step><alter>1</alter><octave>4</octave></pitch><duration>3</duration><voice>1</voice><type>eighth</type><stem>up</stem><lyric number="1"><syllabic>single</syllabic><text>But</text></lyric></note></measure><measure width="433.98" number="32"><print new-system="yes"><system-layout><system-margins><left-margin>47.28</left-margin><right-margin>0.00</right-margin></system-margins><system-distance>105.20</system-distance></system-layout></print><harmony print-frame="no"><root><root-step>A</root-step></root><kind text="m7">minor-seventh</kind></harmony><note default-y="-40.00" default-x="99.58"><pitch><step>E</step><octave>4</octave></pitch><duration>3</duration><voice>1</voice><type>eighth</type><stem>up</stem><beam number="1">begin</beam><lyric number="1"><syllabic>single</syllabic><text>though</text></lyric></note><note default-y="-15.00" default-x="151.37"><pitch><step>C</step><octave>5</octave></pitch><duration>3</duration><voice>1</voice><type>eighth</type><stem>up</stem><beam number="1">continue</beam><lyric number="1"><syllabic>single</syllabic><text>I'm</text></lyric></note><note default-y="-40.00" default-x="190.02"><pitch><step>E</step><octave>4</octave></pitch><duration>3</duration><voice>1</voice><type>eighth</type><stem>up</stem><beam number="1">continue</beam><lyric number="1"><syllabic>single</syllabic><text>not</text></lyric></note><note default-y="-30.00" default-x="228.66"><pitch><step>G</step><octave>4</octave></pitch><duration>3</duration><voice>1</voice><type>eighth</type><stem>up</stem><beam number="1">end</beam><lyric number="1"><syllabic>single</syllabic><text>a</text></lyric></note><harmony print-frame="no"><root><root-step>D</root-step></root><kind text="m7">minor-seventh</kind></harmony><note default-y="-35.00" default-x="267.48"><pitch><step>F</step><octave>4</octave></pitch><duration>3</duration><voice>1</voice><type>eighth</type><stem>up</stem><beam number="1">begin</beam><lyric number="1"><syllabic>begin</syllabic><text>wise</text></lyric></note><note default-y="-25.00" default-x="313.47"><pitch><step>A</step><octave>4</octave></pitch><duration>3</duration><voice>1</voice><type>eighth</type><stem>up</stem><beam number="1">continue</beam><lyric number="1"><syllabic>end</syllabic><text>man</text></lyric></note><note default-y="-15.00" default-x="355.09"><pitch><step>C</step><octave>5</octave></pitch><duration>3</duration><voice>1</voice><type>eighth</type><stem>up</stem><beam number="1">continue</beam><lyric number="1"><syllabic>single</syllabic><text>this</text></lyric></note><note default-y="-10.00" default-x="393.73"><pitch><step>D</step><octave>5</octave></pitch><duration>3</duration><voice>1</voice><type>eighth</type><stem>up</stem><beam number="1">end</beam><lyric number="1"><syllabic>single</syllabic><text>I</text></lyric></note></measure><measure width="220.86" number="33"><harmony print-frame="no"><root><root-step>C</root-step></root><kind text="m7">minor-seventh</kind></harmony><note default-y="-5.00" default-x="36.64"><pitch><step>E</step><alter>-1</alter><octave>5</octave></pitch><duration>12</duration><tie type="start"/><voice>1</voice><type>half</type><accidental>flat</accidental><stem>down</stem><notations><tied type="start"/></notations><lyric number="1"><syllabic>single</syllabic><text>know;</text></lyric></note><harmony print-frame="no"><root><root-step>F</root-step></root><kind text="7">dominant</kind></harmony><note default-y="-5.00" default-x="109.04"><pitch><step>E</step><alter>-1</alter><octave>5</octave></pitch><duration>9</duration><tie type="stop"/><voice>1</voice><type>quarter</type><dot/><stem>down</stem><notations><tied type="stop"/></notations></note><note default-y="-10.00" default-x="173.23"><pitch><step>D</step><alter>-1</alter><octave>5</octave></pitch><duration>3</duration><voice>1</voice><type>eighth</type><accidental>flat</accidental><stem>down</stem><lyric number="1"><syllabic>single</syllabic><text>Though</text></lyric></note></measure><measure width="374.98" number="34"><harmony print-frame="no"><root><root-step>B</root-step><root-alter>-1</root-alter></root><kind text="">major</kind></harmony><note default-y="-10.00" default-x="41.01"><pitch><step>D</step><octave>5</octave></pitch><duration>3</duration><voice>1</voice><type>eighth</type><stem>down</stem><beam number="1">begin</beam><lyric number="1"><syllabic>single</syllabic><text>dreams</text></lyric></note><note default-y="-10.00" default-x="95.77"><pitch><step>D</step><octave>5</octave></pitch><duration>3</duration><voice>1</voice><type>eighth</type><stem>down</stem><beam number="1">continue</beam><lyric number="1"><syllabic>single</syllabic><text>and</text></lyric></note><note default-y="-15.00" default-x="137.74"><pitch><step>C</step><alter>1</alter><octave>5</octave></pitch><duration>3</duration><voice>1</voice><type>eighth</type><accidental>sharp</accidental><stem>down</stem><beam number="1">continue</beam><lyric number="1"><syllabic>single</syllabic><text>just</text></lyric></note><note default-y="-10.00" default-x="179.72"><pitch><step>D</step><octave>5</octave></pitch><duration>3</duration><voice>1</voice><type>eighth</type><stem>down</stem><beam number="1">end</beam><lyric number="1"><syllabic>begin</syllabic><text>pre</text></lyric></note><harmony print-frame="no"><root><root-step>B</root-step><root-alter>-1</root-alter></root><kind text="m6">minor-sixth</kind></harmony><note default-y="-15.00" default-x="221.69"><pitch><step>C</step><octave>5</octave></pitch><duration>3</duration><voice>1</voice><type>eighth</type><accidental>natural</accidental><stem>down</stem><lyric number="1"><syllabic>middle</syllabic><text>tend</text></lyric></note><note default-y="-20.00" default-x="264.25"><pitch><step>B</step><alter>-1</alter><octave>4</octave></pitch><duration>6</duration><voice>1</voice><type>quarter</type><stem>down</stem><lyric number="1"><syllabic>end</syllabic><text>ing,</text></lyric></note><note default-y="-50.00" default-x="331.41"><pitch><step>C</step><octave>4</octave></pitch><duration>3</duration><voice>1</voice><type>eighth</type><stem>up</stem><lyric number="1"><syllabic>single</syllabic><text>I'm</text></lyric></note></measure><measure width="343.45" number="35"><print new-system="yes"><system-layout><system-margins><left-margin>47.28</left-margin><right-margin>0.00</right-margin></system-margins><system-distance>105.20</system-distance></system-layout></print><harmony print-frame="no"><root><root-step>F</root-step></root><kind text="">major</kind></harmony><note default-y="-25.00" default-x="90.79"><pitch><step>A</step><octave>4</octave></pitch><duration>3</duration><voice>1</voice><type>eighth</type><stem>up</stem><beam number="1">begin</beam><lyric number="1"><syllabic>single</syllabic><text>there</text></lyric></note><note default-y="-25.00" default-x="135.52"><pitch><step>A</step><octave>4</octave></pitch><duration>3</duration><voice>1</voice><type>eighth</type><stem>up</stem><beam number="1">continue</beam><lyric number="1"><syllabic>single</syllabic><text>and</text></lyric></note><harmony print-frame="no"><root><root-step>F</root-step></root><kind text="7">dominant</kind><bass><bass-step>E</bass-step><bass-alter>-1</bass-alter></bass></harmony><note default-y="-30.00" default-x="170.00"><pitch><step>G</step><alter>1</alter><octave>4</octave></pitch><duration>3</duration><voice>1</voice><type>eighth</type><accidental>sharp</accidental><stem>up</stem><beam number="1">continue</beam><lyric number="1"><syllabic>single</syllabic><text>I'll</text></lyric></note><note default-y="-25.00" default-x="200.33"><pitch><step>A</step><octave>4</octave></pitch><duration>3</duration><voice>1</voice><type>eighth</type><stem>up</stem><beam number="1">end</beam><lyric number="1"><syllabic>single</syllabic><text>be</text></lyric></note><harmony print-frame="no"><root><root-step>D</root-step></root><kind text="7">dominant</kind></harmony><note default-y="-20.00" default-x="244.80"><pitch><step>B</step><alter>-1</alter><octave>4</octave></pitch><duration>6</duration><voice>1</voice><type>quarter</type><stem>down</stem><lyric number="1"><syllabic>begin</syllabic><text>spend</text></lyric></note><note default-y="-25.00" default-x="293.32"><pitch><step>A</step><octave>4</octave></pitch><duration>6</duration><voice>1</voice><type>quarter</type><stem>up</stem><lyric number="1"><syllabic>end</syllabic><text>ing</text></lyric></note></measure><measure width="295.61" number="36"><harmony print-frame="no"><root><root-step>G</root-step></root><kind text="7">dominant</kind></harmony><note default-y="-30.00" default-x="36.02"><pitch><step>G</step><octave>4</octave></pitch><duration>3</duration><voice>1</voice><type>eighth</type><stem>up</stem><beam number="1">begin</beam><lyric number="1"><syllabic>begin</syllabic><text>Christ</text></lyric></note><note default-y="-45.00" default-x="87.66"><pitch><step>D</step><octave>4</octave></pitch><duration>3</duration><voice>1</voice><type>eighth</type><stem>up</stem><beam number="1">continue</beam><lyric number="1"><syllabic>end</syllabic><text>mas</text></lyric></note><note default-y="-50.00" default-x="129.26"><pitch><step>C</step><alter>1</alter><octave>4</octave></pitch><duration>3</duration><voice>1</voice><type>eighth</type><accidental>sharp</accidental><stem>up</stem><beam number="1">continue</beam><lyric number="1"><syllabic>single</syllabic><text>Eve</text></lyric></note><note default-y="-45.00" default-x="161.47"><pitch><step>D</step><octave>4</octave></pitch><duration>3</duration><voice>1</voice><type>eighth</type><stem>up</stem><beam number="1">end</beam><lyric number="1"><syllabic>single</syllabic><text>in</text></lyric></note><harmony print-frame="no"><root><root-step>B</root-step><root-alter>-1</root-alter></root><kind text="Maj7">major-seventh</kind></harmony><note default-y="-25.00" default-x="194.04"><pitch><step>A</step><octave>4</octave></pitch><duration>6</duration><voice>1</voice><type>quarter</type><stem>up</stem><lyric number="1"><syllabic>single</syllabic><text>my</text></lyric></note><harmony print-frame="no"><root><root-step>C</root-step></root><kind text="7">dominant</kind></harmony><note default-y="-25.00" default-x="244.02"><pitch><step>A</step><octave>4</octave></pitch><duration>6</duration><voice>1</voice><type>quarter</type><stem>up</stem><lyric number="1"><syllabic>begin</syllabic><text>home</text></lyric></note></measure><measure width="286.44" number="37"><barline location="left"><ending type="start" number="1"/></barline><harmony print-frame="no"><root><root-step>F</root-step></root><kind text="6">major-sixth</kind></harmony><note default-y="-35.00" default-x="33.82"><pitch><step>F</step><octave>4</octave></pitch><duration>6</duration><voice>1</voice><type>quarter</type><stem>up</stem><lyric number="1"><syllabic>end</syllabic><text>town.</text></lyric></note><harmony print-frame="no"><root><root-step>G</root-step></root><kind text="9">dominant-ninth</kind></harmony><note><rest/><duration>6</duration><voice>1</voice><type>quarter</type></note><harmony print-frame="no"><root><root-step>C</root-step></root><kind text="7">dominant</kind></harmony><note><rest/><duration>3</duration><voice>1</voice><type>eighth</type></note><note default-y="-35.00" default-x="140.21"><pitch><step>F</step><octave>4</octave></pitch><duration>3</duration><voice>1</voice><type>eighth</type><stem>up</stem><beam number="1">begin</beam><lyric number="1"><syllabic>single</syllabic><text>And</text></lyric></note><note default-y="-40.00" default-x="188.07"><pitch><step>E</step><octave>4</octave></pitch><duration>3</duration><voice>1</voice><type>eighth</type><stem>up</stem><beam number="1">continue</beam><lyric number="1"><syllabic>single</syllabic><text>there</text></lyric></note><note default-y="-45.00" default-x="238.42"><pitch><step>D</step><octave>4</octave></pitch><duration>3</duration><voice>1</voice><type>eighth</type><stem>up</stem><beam number="1">end</beam><lyric number="1"><syllabic>single</syllabic><text>were</text></lyric></note><barline location="right"><bar-style>light-heavy</bar-style><ending type="stop" number="1"/><repeat direction="backward"/></barline></measure><measure width="104.32" number="38"><barline location="left"><ending type="start" number="2"/></barline><harmony print-frame="no"><root><root-step>F</root-step></root><kind text="">major</kind></harmony><note default-y="-35.00" default-x="33.82"><pitch><step>F</step><octave>4</octave></pitch><duration>24</duration><voice>1</voice><type>whole</type><lyric number="1"><syllabic>single</syllabic><text>town.</text></lyric></note><barline location="right"><bar-style>light-heavy</bar-style><ending type="stop" number="2"/></barline></measure></part></score-partwise>