<score-partwise version="2.0"><work><work-number/><work-title/></work><movement-number/><movement-title>Candy kisses</movement-title><identification><creator type="composer">George Morgan</creator><creator type="poet"/><rights>All Rights Reserved</rights><encoding><software>MuseScore 0.9.5</software><encoding-date>2010-04-05</encoding-date><software>ProxyMusic 2.0 c</software></encoding><source>http://wikifonia.org/node/5299/revisions/7196/view</source></identification><defaults><scaling><millimeters>7.056</millimeters><tenths>40</tenths></scaling><page-layout><page-height>1683.67</page-height><page-width>1190.48</page-width><page-margins type="both"><left-margin>56.6893</left-margin><right-margin>56.6893</right-margin><top-margin>56.6893</top-margin><bottom-margin>113.379</bottom-margin></page-margins></page-layout></defaults><credit page="1"><credit-words font-size="24" default-y="1626.98" default-x="595.238" justify="center" valign="top">Candy Kisses</credit-words></credit><credit page="1"><credit-words font-size="12" default-y="1556.5" default-x="1133.79" justify="right" valign="top">George Morgan</credit-words></credit><part-list><part-group type="start" number="1"><group-symbol>brace</group-symbol></part-group><score-part id="P1"><part-name>Electric Piano</part-name><score-instrument id="P1-I3"><instrument-name>Electric Piano</instrument-name></score-instrument><midi-instrument id="P1-I3"><midi-channel>1</midi-channel><midi-program>5</midi-program></midi-instrument></score-part></part-list><part id="P1"><measure width="274.30" number="1"><print><system-layout><system-margins><left-margin>169.77</left-margin><right-margin>0.00</right-margin></system-margins><top-system-distance>239.02</top-system-distance></system-layout></print><attributes><divisions>2</divisions><key><fifths>0</fifths><mode>major</mode></key><time><beats>4</beats><beat-type>4</beat-type></time><clef><sign>G</sign><line>2</line></clef></attributes><note><rest/><duration>4</duration><voice>1</voice><type>half</type></note><direction><direction-type><words default-y="100">N.C.</words></direction-type></direction><note default-y="-25.00" default-x="156.43"><pitch><step>A</step><octave>4</octave></pitch><duration>2</duration><voice>1</voice><type>quarter</type><stem>up</stem><lyric number="1"><syllabic>begin</syllabic><text>Can</text></lyric></note><note default-y="-15.00" default-x="207.79"><pitch><step>C</step><octave>5</octave></pitch><duration>2</duration><voice>1</voice><type>quarter</type><stem>down</stem><lyric number="1"><syllabic>end</syllabic><text>dy</text></lyric></note></measure><measure width="174.37" number="2"><barline location="left"><bar-style>heavy-light</bar-style><repeat direction="forward"/></barline><harmony print-frame="no"><root><root-step>F</root-step></root><kind text="">major</kind></harmony><note default-y="-25.00" default-x="26.01"><pitch><step>A</step><octave>4</octave></pitch><duration>2</duration><voice>1</voice><type>quarter</type><stem>up</stem><lyric number="1"><syllabic>begin</syllabic><text>kiss</text></lyric><lyric number="2"><syllabic>begin</syllabic><text>cas</text></lyric></note><note default-y="-35.00" default-x="75.74"><pitch><step>F</step><octave>4</octave></pitch><duration>6</duration><tie type="start"/><voice>1</voice><type>half</type><dot/><stem>up</stem><notations><tied type="start"/></notations><lyric number="1"><syllabic>end</syllabic><text>es</text></lyric><lyric number="2"><syllabic>end</syllabic><text>tle</text></lyric></note></measure><measure width="239.71" number="3"><harmony print-frame="no"><root><root-step>F</root-step></root><kind text="7">dominant</kind></harmony><note default-y="-35.00" default-x="15.00"><pitch><step>F</step><octave>4</octave></pitch><duration>4</duration><tie type="stop"/><voice>1</voice><type>half</type><stem>up</stem><notations><tied type="stop"/></notations></note><note default-y="-10.00" default-x="114.16"><pitch><step>D</step><octave>5</octave></pitch><duration>2</duration><voice>1</voice><type>quarter</type><stem>down</stem><lyric number="1"><syllabic>single</syllabic><text>wrapped</text></lyric><lyric number="2"><syllabic>single</syllabic><text>out</text></lyric></note><note default-y="0.00" default-x="176.14"><pitch><step>F</step><octave>5</octave></pitch><duration>2</duration><voice>1</voice><type>quarter</type><stem>down</stem><lyric number="1"><syllabic>single</syllabic><text>in</text></lyric><lyric number="2"><syllabic>single</syllabic><text>of</text></lyric></note></measure><measure width="218.94" number="4"><harmony print-frame="no"><root><root-step>B</root-step><root-alter>-1</root-alter></root><kind text="">major</kind></harmony><note default-y="-10.00" default-x="41.01"><pitch><step>D</step><octave>5</octave></pitch><duration>4</duration><voice>1</voice><type>half</type><stem>down</stem><lyric number="1"><syllabic>begin</syllabic><text>pa</text></lyric><lyric number="2"><syllabic>single</syllabic><text>dreams</text></lyric></note><note default-y="-20.00" default-x="129.18"><pitch><step>B</step><alter>-1</alter><octave>4</octave></pitch><duration>4</duration><voice>1</voice><type>half</type><accidental>flat</accidental><stem>down</stem><lyric number="1"><syllabic>end</syllabic><text>per</text></lyric><lyric number="2"><syllabic>single</syllabic><text>dear</text></lyric></note></measure><measure width="275.47" number="5"><print new-system="yes"><system-layout><system-margins><left-margin>109.38</left-margin><right-margin>0.00</right-margin></system-margins><system-distance>190.38</system-distance></system-layout></print><note default-y="-20.00" default-x="53.18"><pitch><step>B</step><octave>4</octave></pitch><duration>2</duration><voice>1</voice><type>quarter</type><stem>down</stem></note><note default-y="0.00" default-x="102.49"><pitch><step>F</step><octave>5</octave></pitch><duration>2</duration><voice>1</voice><type>quarter</type><stem>down</stem><lyric number="1"><syllabic>single</syllabic><text>mean</text></lyric><lyric number="2"><syllabic>single</syllabic><text>I</text></lyric></note><note default-y="0.00" default-x="167.28"><pitch><step>F</step><octave>5</octave></pitch><duration>2</duration><voice>1</voice><type>quarter</type><stem>down</stem><lyric number="1"><syllabic>single</syllabic><text>more</text></lyric><lyric number="2"><syllabic>single</syllabic><text>thought</text></lyric></note><note default-y="-10.00" default-x="224.56"><pitch><step>D</step><octave>5</octave></pitch><duration>2</duration><voice>1</voice><type>quarter</type><stem>down</stem><lyric number="1"><syllabic>single</syllabic><text>to</text></lyric><lyric number="2"><syllabic>single</syllabic><text>that</text></lyric></note></measure><measure width="85.07" number="6"><harmony print-frame="no"><root><root-step>F</root-step></root><kind text="">major</kind></harmony><note default-y="-15.00" default-x="25.37"><pitch><step>C</step><octave>5</octave></pitch><duration>8</duration><tie type="start"/><voice>1</voice><type>whole</type><notations><tied type="start"/></notations><lyric number="1"><syllabic>single</syllabic><text>you</text></lyric><lyric number="2"><syllabic>single</syllabic><text>you</text></lyric></note></measure><measure width="243.19" number="7"><note default-y="-15.00" default-x="15.00"><pitch><step>C</step><octave>5</octave></pitch><duration>2</duration><tie type="stop"/><voice>1</voice><type>quarter</type><stem>down</stem><notations><tied type="stop"/></notations></note><note default-y="-25.00" default-x="62.74"><pitch><step>A</step><octave>4</octave></pitch><duration>2</duration><voice>1</voice><type>quarter</type><stem>up</stem><lyric number="1"><syllabic>single</syllabic><text>than</text></lyric><lyric number="2"><syllabic>single</syllabic><text>were</text></lyric></note><harmony print-frame="no"><root><root-step>G</root-step></root><kind text="7">dominant</kind></harmony><note default-y="-25.00" default-x="113.74"><pitch><step>A</step><octave>4</octave></pitch><duration>1</duration><voice>1</voice><type>eighth</type><stem>up</stem><beam number="1">begin</beam><lyric number="1"><syllabic>begin</syllabic><text>an</text></lyric><lyric number="2"><syllabic>begin</syllabic><text>build</text></lyric></note><note default-y="-30.00" default-x="157.24"><pitch><step>G</step><octave>4</octave></pitch><duration>1</duration><voice>1</voice><type>eighth</type><stem>up</stem><beam number="1">end</beam><lyric number="1"><syllabic>end</syllabic><text>y</text></lyric><lyric number="2"><syllabic>end</syllabic><text>ing</text></lyric></note><note default-y="-35.00" default-x="193.85"><pitch><step>F</step><octave>4</octave></pitch><duration>2</duration><voice>1</voice><type>quarter</type><stem>up</stem><lyric number="1"><syllabic>single</syllabic><text>of</text></lyric><lyric number="2"><syllabic>single</syllabic><text>one</text></lyric></note></measure><measure width="94.28" number="8"><harmony print-frame="no"><root><root-step>C</root-step></root><kind text="7">dominant</kind></harmony><note default-y="-30.00" default-x="31.00"><pitch><step>G</step><octave>4</octave></pitch><duration>8</duration><tie type="start"/><voice>1</voice><type>whole</type><notations><tied type="start"/></notations><lyric number="1"><syllabic>single</syllabic><text>mine</text></lyric><lyric number="2"><syllabic>single</syllabic><text>too</text></lyric></note></measure><measure width="148.17" number="9"><note default-y="-30.00" default-x="15.00"><pitch><step>G</step><octave>4</octave></pitch><duration>4</duration><tie type="stop"/><voice>1</voice><type>half</type><stem>up</stem><notations><tied type="stop"/></notations></note><harmony print-frame="no"><root><root-step>F</root-step></root><kind text="">major</kind></harmony><note default-y="-25.00" default-x="71.51"><pitch><step>A</step><octave>4</octave></pitch><duration>2</duration><voice>1</voice><type>quarter</type><stem>up</stem><lyric number="1"><syllabic>begin</syllabic><text>can</text></lyric><lyric number="2"><syllabic>single</syllabic><text>now</text></lyric></note><note default-y="-15.00" default-x="111.25"><pitch><step>C</step><octave>5</octave></pitch><duration>2</duration><voice>1</voice><type>quarter</type><stem>down</stem><lyric number="1"><syllabic>end</syllabic><text>dy</text></lyric><lyric number="2"><syllabic>single</syllabic><text>my</text></lyric></note></measure><measure width="121.54" number="10"><note default-y="-25.00" default-x="26.01"><pitch><step>A</step><octave>4</octave></pitch><duration>2</duration><voice>1</voice><type>quarter</type><stem>up</stem><lyric number="1"><syllabic>begin</syllabic><text>kiss</text></lyric><lyric number="2"><syllabic>begin</syllabic><text>cas</text></lyric></note><note default-y="-35.00" default-x="65.14"><pitch><step>F</step><octave>4</octave></pitch><duration>6</duration><tie type="start"/><voice>1</voice><type>half</type><dot/><stem>up</stem><notations><tied type="start"/></notations><lyric number="1"><syllabic>end</syllabic><text>es</text></lyric><lyric number="2"><syllabic>single</syllabic><text>tles</text></lyric></note></measure><measure width="254.20" number="11"><print new-system="yes"><system-layout><system-margins><left-margin>109.38</left-margin><right-margin>0.00</right-margin></system-margins><system-distance>190.38</system-distance></system-layout></print><harmony print-frame="no"><root><root-step>F</root-step></root><kind text="7">dominant</kind></harmony><note default-y="-35.00" default-x="53.18"><pitch><step>F</step><octave>4</octave></pitch><duration>4</duration><tie type="stop"/><voice>1</voice><type>half</type><stem>up</stem><notations><tied type="stop"/></notations></note><note default-y="-10.00" default-x="135.27"><pitch><step>D</step><octave>5</octave></pitch><duration>2</duration><voice>1</voice><type>quarter</type><stem>down</stem><lyric number="1"><syllabic>single</syllabic><text>wrapped</text></lyric><lyric number="2"><syllabic>single</syllabic><text>all</text></lyric></note><note default-y="0.00" default-x="201.29"><pitch><step>F</step><octave>5</octave></pitch><duration>2</duration><voice>1</voice><type>quarter</type><stem>down</stem><lyric number="1"><syllabic>single</syllabic><text>in</text></lyric><lyric number="2"><syllabic>single</syllabic><text>have</text></lyric></note></measure><measure width="129.24" number="12"><harmony print-frame="no"><root><root-step>B</root-step><root-alter>-1</root-alter></root><kind text="">major</kind></harmony><note default-y="-10.00" default-x="23.48"><pitch><step>D</step><octave>5</octave></pitch><duration>4</duration><voice>1</voice><type>half</type><stem>down</stem><lyric number="1"><syllabic>begin</syllabic><text>pa</text></lyric><lyric number="2"><syllabic>begin</syllabic><text>fall</text></lyric></note><note default-y="-20.00" default-x="75.56"><pitch><step>B</step><alter>-1</alter><octave>4</octave></pitch><duration>4</duration><tie type="start"/><voice>1</voice><type>half</type><accidental>flat</accidental><stem>down</stem><notations><tied type="start"/></notations><lyric number="1"><syllabic>end</syllabic><text>per</text></lyric><lyric number="2"><syllabic>end</syllabic><text>en</text></lyric></note></measure><measure width="212.78" number="13"><note default-y="-20.00" default-x="15.00"><pitch><step>B</step><alter>-1</alter><octave>4</octave></pitch><duration>2</duration><tie type="stop"/><voice>1</voice><type>quarter</type><accidental>flat</accidental><stem>down</stem><notations><tied type="stop"/></notations></note><note default-y="0.00" default-x="64.05"><pitch><step>F</step><octave>5</octave></pitch><duration>2</duration><voice>1</voice><type>quarter</type><stem>down</stem><lyric number="1"><syllabic>single</syllabic><text>you'd</text></lyric><lyric number="2"><syllabic>single</syllabic><text>and</text></lyric></note><note default-y="0.00" default-x="113.09"><pitch><step>F</step><octave>5</octave></pitch><duration>2</duration><voice>1</voice><type>quarter</type><stem>down</stem><lyric number="1"><syllabic>single</syllabic><text>rath</text></lyric><lyric number="2"><syllabic>single</syllabic><text>I</text></lyric></note><note default-y="-10.00" default-x="162.14"><pitch><step>D</step><octave>5</octave></pitch><duration>2</duration><voice>1</voice><type>quarter</type><stem>down</stem><lyric number="1"><syllabic>end</syllabic><text>er</text></lyric><lyric number="2"><syllabic>single</syllabic><text>am</text></lyric></note></measure><measure width="158.05" number="14"><harmony print-frame="no"><root><root-step>F</root-step></root><kind text="">major</kind></harmony><note default-y="-15.00" default-x="29.74"><pitch><step>C</step><octave>5</octave></pitch><duration>4</duration><voice>1</voice><type>half</type><stem>down</stem><lyric number="1"><syllabic>single</syllabic><text>have</text></lyric><lyric number="2"><syllabic>single</syllabic><text>left</text></lyric></note><note default-y="-25.00" default-x="93.10"><pitch><step>A</step><octave>4</octave></pitch><duration>4</duration><tie type="start"/><voice>1</voice><type>half</type><stem>up</stem><notations><tied type="start"/></notations><lyric number="1"><syllabic>single</syllabic><text>them</text></lyric></note></measure><measure width="213.45" number="15"><note default-y="-25.00" default-x="15.00"><pitch><step>A</step><octave>4</octave></pitch><duration>2</duration><tie type="stop"/><voice>1</voice><type>quarter</type><stem>up</stem><notations><tied type="stop"/></notations></note><note default-y="-35.00" default-x="58.81"><pitch><step>F</step><octave>4</octave></pitch><duration>2</duration><voice>1</voice><type>quarter</type><stem>up</stem><lyric number="2"><syllabic>begin</syllabic><text>a</text></lyric></note><harmony print-frame="no"><root><root-step>C</root-step></root><kind text="7">dominant</kind></harmony><note default-y="-40.00" default-x="102.63"><pitch><step>E</step><octave>4</octave></pitch><duration>1</duration><voice>1</voice><type>eighth</type><stem>up</stem><beam number="1">begin</beam><lyric number="1"><syllabic>begin</syllabic><text>an</text></lyric><lyric number="2"><syllabic>end</syllabic><text>lone</text></lyric></note><note default-y="-35.00" default-x="133.60"><pitch><step>F</step><octave>4</octave></pitch><duration>1</duration><voice>1</voice><type>eighth</type><stem>up</stem><beam number="1">end</beam><lyric number="1"><syllabic>end</syllabic><text>y</text></lyric></note><note default-y="-30.00" default-x="168.04"><pitch><step>G</step><octave>4</octave></pitch><duration>2</duration><voice>1</voice><type>quarter</type><stem>up</stem><lyric number="1"><syllabic>single</syllabic><text>old</text></lyric><lyric number="2"><syllabic>single</syllabic><text>and</text></lyric></note></measure><measure width="142.05" number="16"><print new-system="yes"><system-layout><system-margins><left-margin>109.38</left-margin><right-margin>0.00</right-margin></system-margins><system-distance>190.38</system-distance></system-layout></print><harmony print-frame="no"><root><root-step>F</root-step></root><kind text="">major</kind></harmony><note default-y="-35.00" default-x="74.17"><pitch><step>F</step><octave>4</octave></pitch><duration>8</duration><tie type="start"/><voice>1</voice><type>whole</type><notations><tied type="start"/></notations><lyric number="1"><syllabic>single</syllabic><text>time</text></lyric><lyric number="2"><syllabic>single</syllabic><text>blue</text></lyric></note></measure><measure width="170.30" number="17"><harmony print-frame="no"><root><root-step>F</root-step></root><kind text="7">dominant</kind></harmony><note default-y="-35.00" default-x="15.00"><pitch><step>F</step><octave>4</octave></pitch><duration>4</duration><tie type="stop"/><voice>1</voice><type>half</type><stem>up</stem><notations><tied type="stop"/></notations></note><note default-y="-30.00" default-x="80.50"><pitch><step>G</step><octave>4</octave></pitch><duration>2</duration><voice>1</voice><type>quarter</type><stem>up</stem><lyric number="1"><syllabic>single</syllabic><text>you</text></lyric><lyric number="2"><syllabic>single</syllabic><text>once</text></lyric></note><note default-y="-25.00" default-x="127.75"><pitch><step>A</step><octave>4</octave></pitch><duration>2</duration><voice>1</voice><type>quarter</type><stem>up</stem><lyric number="1"><syllabic>single</syllabic><text>dont</text></lyric><lyric number="2"><syllabic>single</syllabic><text>my</text></lyric></note></measure><measure width="146.10" number="18"><harmony print-frame="no"><root><root-step>B</root-step><root-alter>-1</root-alter></root><kind text="">major</kind></harmony><note default-y="-20.00" default-x="32.87"><pitch><step>B</step><alter>-1</alter><octave>4</octave></pitch><duration>4</duration><voice>1</voice><type>half</type><accidental>flat</accidental><stem>down</stem><lyric number="1"><syllabic>single</syllabic><text>mean</text></lyric><lyric number="2"><syllabic>single</syllabic><text>heart</text></lyric></note><note default-y="-20.00" default-x="88.68"><pitch><step>B</step><alter>-1</alter><octave>4</octave></pitch><duration>4</duration><tie type="start"/><voice>1</voice><type>half</type><accidental>flat</accidental><stem>down</stem><notations><tied type="start"/></notations><lyric number="1"><syllabic>single</syllabic><text>it</text></lyric><lyric number="2"><syllabic>single</syllabic><text>was</text></lyric></note></measure><measure width="176.55" number="19"><note default-y="-20.00" default-x="15.00"><pitch><step>B</step><alter>-1</alter><octave>4</octave></pitch><duration>4</duration><tie type="stop"/><voice>1</voice><type>half</type><accidental>flat</accidental><stem>down</stem><notations><tied type="stop"/></notations></note><note default-y="-10.00" default-x="82.43"><pitch><step>D</step><octave>5</octave></pitch><duration>2</duration><voice>1</voice><type>quarter</type><stem>down</stem><lyric number="1"><syllabic>single</syllabic><text>when</text></lyric><lyric number="2"><syllabic>single</syllabic><text>filled</text></lyric></note><note default-y="0.00" default-x="132.81"><pitch><step>F</step><octave>5</octave></pitch><duration>2</duration><voice>1</voice><type>quarter</type><stem>down</stem><lyric number="1"><syllabic>single</syllabic><text>you</text></lyric><lyric number="2"><syllabic>single</syllabic><text>with</text></lyric></note></measure><measure width="143.65" number="20"><harmony print-frame="no"><root><root-step>F</root-step></root><kind text="">major</kind></harmony><note default-y="-10.00" default-x="29.76"><pitch><step>D</step><octave>5</octave></pitch><duration>4</duration><voice>1</voice><type>half</type><stem>down</stem><lyric number="1"><syllabic>begin</syllabic><text>whis</text></lyric><lyric number="2"><syllabic>begin</syllabic><text>glad</text></lyric></note><note default-y="-15.00" default-x="85.90"><pitch><step>C</step><octave>5</octave></pitch><duration>4</duration><tie type="start"/><voice>1</voice><type>half</type><stem>down</stem><notations><tied type="start"/></notations><lyric number="1"><syllabic>end</syllabic><text>per</text></lyric><lyric number="2"><syllabic>end</syllabic><text>ness</text></lyric></note></measure><measure width="189.08" number="21"><note default-y="-15.00" default-x="15.00"><pitch><step>C</step><octave>5</octave></pitch><duration>4</duration><tie type="stop"/><voice>1</voice><type>half</type><stem>down</stem><notations><tied type="stop"/></notations></note><note default-y="-25.00" default-x="86.29"><pitch><step>A</step><octave>4</octave></pitch><duration>2</duration><voice>1</voice><type>quarter</type><stem>up</stem><lyric number="1"><syllabic>single</syllabic><text>those</text></lyric><lyric number="2"><syllabic>single</syllabic><text>now</text></lyric></note><note default-y="-25.00" default-x="142.93"><pitch><step>A</step><alter>-1</alter><octave>4</octave></pitch><duration>2</duration><voice>1</voice><type>quarter</type><accidental>flat</accidental><stem>up</stem><lyric number="1"><syllabic>single</syllabic><text>sweet</text></lyric><lyric number="2"><syllabic>single</syllabic><text>theres</text></lyric></note></measure><measure width="194.69" number="22"><print new-system="yes"><system-layout><system-margins><left-margin>109.38</left-margin><right-margin>0.00</right-margin></system-margins><system-distance>190.38</system-distance></system-layout></print><harmony print-frame="no"><root><root-step>G</root-step></root><kind text="7">dominant</kind></harmony><note default-y="-30.00" default-x="73.55"><pitch><step>G</step><octave>4</octave></pitch><duration>4</duration><voice>1</voice><type>half</type><stem>up</stem><lyric number="1"><syllabic>single</syllabic><text>love</text></lyric><lyric number="2"><syllabic>begin</syllabic><text>sad</text></lyric></note><note default-y="-30.00" default-x="133.32"><pitch><step>G</step><octave>4</octave></pitch><duration>4</duration><tie type="start"/><voice>1</voice><type>half</type><stem>up</stem><notations><tied type="start"/></notations><lyric number="1"><syllabic>single</syllabic><text>words</text></lyric><lyric number="2"><syllabic>end</syllabic><text>ness</text></lyric></note></measure><measure width="132.81" number="23"><note default-y="-30.00" default-x="15.00"><pitch><step>G</step><octave>4</octave></pitch><duration>4</duration><tie type="stop"/><voice>1</voice><type>half</type><stem>up</stem><notations><tied type="stop"/></notations></note><note default-y="-20.00" default-x="66.48"><pitch><step>B</step><octave>4</octave></pitch><duration>2</duration><voice>1</voice><type>quarter</type><stem>down</stem><lyric number="1"><syllabic>single</syllabic><text>in</text></lyric><lyric number="2"><syllabic>begin</syllabic><text>on</text></lyric></note><note default-y="-10.00" default-x="99.04"><pitch><step>D</step><octave>5</octave></pitch><duration>2</duration><voice>1</voice><type>quarter</type><stem>down</stem><lyric number="1"><syllabic>single</syllabic><text>my</text></lyric><lyric number="2"><syllabic>end</syllabic><text>ly</text></lyric></note></measure><measure width="91.72" number="24"><harmony print-frame="no"><root><root-step>C</root-step></root><kind text="7">dominant</kind></harmony><note default-y="-15.00" default-x="29.74"><pitch><step>C</step><octave>5</octave></pitch><duration>8</duration><tie type="start"/><voice>1</voice><type>whole</type><notations><tied type="start"/></notations><lyric number="1"><syllabic>single</syllabic><text>ear</text></lyric><lyric number="2"><syllabic>single</syllabic><text>tears</text></lyric></note></measure><measure width="149.38" number="25"><note default-y="-15.00" default-x="15.00"><pitch><step>C</step><octave>5</octave></pitch><duration>2</duration><tie type="stop"/><voice>1</voice><type>quarter</type><stem>down</stem><notations><tied type="stop"/></notations></note><note><rest/><duration>2</duration><voice>1</voice><type>quarter</type></note><direction><direction-type><words default-y="100">N.C.</words></direction-type></direction><note default-y="-25.00" default-x="81.39"><pitch><step>A</step><octave>4</octave></pitch><duration>2</duration><voice>1</voice><type>quarter</type><stem>up</stem><lyric number="1"><syllabic>begin</syllabic><text>can</text></lyric></note><note default-y="-15.00" default-x="114.58"><pitch><step>C</step><octave>5</octave></pitch><duration>2</duration><voice>1</voice><type>quarter</type><stem>down</stem><lyric number="1"><syllabic>end</syllabic><text>dy</text></lyric></note></measure><measure width="112.52" number="26"><harmony print-frame="no"><root><root-step>F</root-step></root><kind text="">major</kind></harmony><note default-y="-25.00" default-x="26.01"><pitch><step>A</step><octave>4</octave></pitch><duration>2</duration><voice>1</voice><type>quarter</type><stem>up</stem><lyric number="1"><syllabic>begin</syllabic><text>kiss</text></lyric></note><note default-y="-35.00" default-x="58.87"><pitch><step>F</step><octave>4</octave></pitch><duration>6</duration><tie type="start"/><voice>1</voice><type>half</type><dot/><stem>up</stem><notations><tied type="start"/></notations><lyric number="1"><syllabic>end</syllabic><text>es</text></lyric></note></measure><measure width="179.13" number="27"><harmony print-frame="no"><root><root-step>F</root-step></root><kind text="7">dominant</kind></harmony><note default-y="-35.00" default-x="15.00"><pitch><step>F</step><octave>4</octave></pitch><duration>4</duration><tie type="stop"/><voice>1</voice><type>half</type><stem>up</stem><notations><tied type="stop"/></notations></note><note default-y="-10.00" default-x="82.09"><pitch><step>D</step><octave>5</octave></pitch><duration>2</duration><voice>1</voice><type>quarter</type><stem>down</stem><lyric number="1"><syllabic>single</syllabic><text>wrapped</text></lyric></note><note default-y="0.00" default-x="135.59"><pitch><step>F</step><octave>5</octave></pitch><duration>2</duration><voice>1</voice><type>quarter</type><stem>down</stem><lyric number="1"><syllabic>single</syllabic><text>in</text></lyric></note></measure><measure width="107.47" number="28"><harmony print-frame="no"><root><root-step>B</root-step><root-alter>-1</root-alter></root><kind text="">major</kind></harmony><note default-y="-10.00" default-x="19.10"><pitch><step>D</step><octave>5</octave></pitch><duration>4</duration><voice>1</voice><type>half</type><stem>down</stem><lyric number="1"><syllabic>begin</syllabic><text>pa</text></lyric></note><note default-y="-20.00" default-x="62.48"><pitch><step>B</step><alter>-1</alter><octave>4</octave></pitch><duration>4</duration><tie type="start"/><voice>1</voice><type>half</type><accidental>flat</accidental><stem>down</stem><notations><tied type="start"/></notations><lyric number="1"><syllabic>end</syllabic><text>per</text></lyric></note></measure><measure width="240.89" number="29"><print new-system="yes"><system-layout><system-margins><left-margin>109.38</left-margin><right-margin>0.00</right-margin></system-margins><system-distance>190.38</system-distance></system-layout></print><note default-y="-20.00" default-x="53.18"><pitch><step>B</step><alter>-1</alter><octave>4</octave></pitch><duration>2</duration><tie type="stop"/><voice>1</voice><type>quarter</type><accidental>flat</accidental><stem>down</stem><notations><tied type="stop"/></notations></note><note default-y="0.00" default-x="97.39"><pitch><step>F</step><octave>5</octave></pitch><duration>2</duration><voice>1</voice><type>quarter</type><stem>down</stem><lyric number="1"><syllabic>single</syllabic><text>mean</text></lyric></note><note default-y="0.00" default-x="150.88"><pitch><step>F</step><octave>5</octave></pitch><duration>2</duration><voice>1</voice><type>quarter</type><stem>down</stem><lyric number="1"><syllabic>single</syllabic><text>more</text></lyric></note><note default-y="-10.00" default-x="195.08"><pitch><step>D</step><octave>5</octave></pitch><duration>2</duration><voice>1</voice><type>quarter</type><stem>down</stem><lyric number="1"><syllabic>single</syllabic><text>to</text></lyric></note></measure><measure width="85.89" number="30"><harmony print-frame="no"><root><root-step>F</root-step></root><kind text="">major</kind></harmony><note default-y="-15.00" default-x="25.37"><pitch><step>C</step><octave>5</octave></pitch><duration>8</duration><tie type="start"/><voice>1</voice><type>whole</type><notations><tied type="start"/></notations><lyric number="1"><syllabic>single</syllabic><text>you</text></lyric></note></measure><measure width="193.98" number="31"><note default-y="-15.00" default-x="15.00"><pitch><step>C</step><octave>5</octave></pitch><duration>2</duration><tie type="stop"/><voice>1</voice><type>quarter</type><stem>down</stem><notations><tied type="stop"/></notations></note><note default-y="-35.00" default-x="58.17"><pitch><step>F</step><octave>4</octave></pitch><duration>2</duration><voice>1</voice><type>quarter</type><stem>up</stem><lyric number="1"><syllabic>single</syllabic><text>than</text></lyric></note><harmony print-frame="no"><root><root-step>C</root-step></root><kind text="7">dominant</kind></harmony><note default-y="-40.00" default-x="106.04"><pitch><step>E</step><octave>4</octave></pitch><duration>2</duration><voice>1</voice><type>quarter</type><stem>up</stem><lyric number="1"><syllabic>single</syllabic><text>mine</text></lyric></note><note default-y="-35.00" default-x="149.21"><pitch><step>F</step><octave>4</octave></pitch><duration>2</duration><voice>1</voice><type>quarter</type><stem>up</stem><lyric number="1"><syllabic>single</syllabic><text>do</text></lyric></note></measure><measure width="88.81" number="32"><harmony print-frame="no"><root><root-step>F</root-step></root><kind text="">major</kind></harmony><note default-y="-35.00" default-x="27.86"><pitch><step>F</step><octave>4</octave></pitch><duration>8</duration><tie type="start"/><voice>1</voice><type>whole</type><notations><tied type="start"/></notations><lyric number="1"><syllabic>single</syllabic><text>dear</text></lyric></note></measure><measure width="174.70" number="33"><harmony print-frame="no"><root><root-step>B</root-step><root-alter>-1</root-alter></root><kind text="">major</kind></harmony><note default-y="-35.00" default-x="15.00"><pitch><step>F</step><octave>4</octave></pitch><duration>2</duration><tie type="stop"/><voice>1</voice><type>quarter</type><stem>up</stem><notations><tied type="stop"/></notations></note><harmony print-frame="no"><root><root-step>F</root-step></root><kind text="">major</kind></harmony><note default-y="-25.00" default-x="50.24"><pitch><step>A</step><octave>4</octave></pitch><duration>2</duration><voice>1</voice><type>quarter</type><stem>up</stem><lyric number="1"><syllabic>single</syllabic><text>I</text></lyric></note><direction><direction-type><words default-y="100">N.C.</words></direction-type></direction><note default-y="-25.00" default-x="89.07"><pitch><step>A</step><octave>4</octave></pitch><duration>2</duration><voice>1</voice><type>quarter</type><stem>up</stem><lyric number="1"><syllabic>single</syllabic><text>built</text></lyric></note><note default-y="-15.00" default-x="124.31"><pitch><step>C</step><octave>5</octave></pitch><duration>2</duration><voice>1</voice><type>quarter</type><stem>down</stem><lyric number="1"><syllabic>single</syllabic><text>a</text></lyric></note><barline location="right"><bar-style>light-heavy</bar-style><repeat direction="backward"/></barline></measure><measure width="88.81" number="34"><harmony print-frame="no"><root><root-step>F</root-step></root><kind text="">major</kind></harmony><note default-y="-35.00" default-x="27.86"><pitch><step>F</step><octave>4</octave></pitch><duration>8</duration><tie type="start"/><voice>1</voice><type>whole</type><notations><tied type="start"/></notations><lyric number="1"><syllabic>single</syllabic><text>dear</text></lyric></note></measure><measure width="94.63" number="35"><note default-y="-35.00" default-x="15.00"><pitch><step>F</step><octave>4</octave></pitch><duration>4</duration><tie type="stop"/><voice>1</voice><type>half</type><stem>up</stem><notations><tied type="stop"/></notations></note><note><rest/><duration>4</duration><voice>1</voice><type>half</type></note><barline location="right"><bar-style>light-heavy</bar-style></barline></measure></part></score-partwise>