<score-partwise version="2.0"><work><work-number/><work-title/></work><movement-number/><movement-title>High noon</movement-title><identification><creator type="composer">Dimitri Tiomkin</creator><creator type="poet">Ned Washington</creator><rights>All Rights Reserved</rights><encoding><software>MuseScore 0.9.5</software><encoding-date>2010-04-05</encoding-date><software>ProxyMusic 2.0 c</software></encoding><source>http://wikifonia.org/node/5300/revisions/7200/view</source></identification><defaults><scaling><millimeters>7.056</millimeters><tenths>40</tenths></scaling><page-layout><page-height>1683.67</page-height><page-width>1190.48</page-width><page-margins type="both"><left-margin>56.6893</left-margin><right-margin>56.6893</right-margin><top-margin>56.6893</top-margin><bottom-margin>113.379</bottom-margin></page-margins></page-layout></defaults><credit page="1"><credit-words font-size="24" default-y="1626.98" default-x="595.238" justify="center" valign="top">High Noon </credit-words></credit><credit page="1"><credit-words font-size="14" default-y="1570.29" default-x="595.238" justify="center" valign="top">(Do not forsake me)</credit-words></credit><credit page="1"><credit-words font-size="12" default-y="1556.5" default-x="1133.79" justify="right" valign="top">Dimitri Tiomkin</credit-words></credit><credit page="1"><credit-words font-size="12" default-y="1556.5" default-x="56.6893" justify="left" valign="top">Ned Washington</credit-words></credit><part-list><part-group type="start" number="1"><group-symbol>brace</group-symbol></part-group><score-part id="P1"><part-name>Electric Piano</part-name><score-instrument id="P1-I3"><instrument-name>Electric Piano</instrument-name></score-instrument><midi-instrument id="P1-I3"><midi-channel>1</midi-channel><midi-program>5</midi-program></midi-instrument></score-part></part-list><part id="P1"><measure width="253.70" number="1"><print><system-layout><system-margins><left-margin>169.77</left-margin><right-margin>0.00</right-margin></system-margins><top-system-distance>204.31</top-system-distance></system-layout></print><attributes><divisions>2</divisions><key><fifths>0</fifths><mode>major</mode></key><time><beats>4</beats><beat-type>4</beat-type></time><clef><sign>G</sign><line>2</line></clef></attributes><harmony print-frame="no"><root><root-step>F</root-step></root><kind text="">major</kind></harmony><note><rest/><duration>2</duration><voice>1</voice><type>quarter</type></note><note default-y="-50.00" default-x="118.72"><pitch><step>C</step><octave>4</octave></pitch><duration>2</duration><voice>1</voice><type>quarter</type><stem>up</stem><lyric number="1"><syllabic>single</syllabic><text>Do</text></lyric></note><note default-y="-35.00" default-x="163.18"><pitch><step>F</step><octave>4</octave></pitch><duration>2</duration><voice>1</voice><type>quarter</type><stem>up</stem><lyric number="1"><syllabic>single</syllabic><text>not</text></lyric></note><note default-y="-30.00" default-x="207.64"><pitch><step>G</step><octave>4</octave></pitch><duration>2</duration><voice>1</voice><type>quarter</type><stem>up</stem><lyric number="1"><syllabic>begin</syllabic><text>for</text></lyric></note></measure><measure width="215.33" number="2"><note default-y="-25.00" default-x="28.49"><pitch><step>A</step><octave>4</octave></pitch><duration>2</duration><voice>1</voice><type>quarter</type><stem>up</stem><lyric number="1"><syllabic>middle</syllabic><text>sake</text></lyric></note><note default-y="-35.00" default-x="74.80"><pitch><step>F</step><octave>4</octave></pitch><duration>2</duration><voice>1</voice><type>quarter</type><stem>up</stem><lyric number="1"><syllabic>single</syllabic><text>me</text></lyric></note><note default-y="-20.00" default-x="121.11"><pitch><step>B</step><alter>-1</alter><octave>4</octave></pitch><duration>2</duration><voice>1</voice><type>quarter</type><accidental>flat</accidental><stem>down</stem><lyric number="1"><syllabic>single</syllabic><text>oh</text></lyric></note><note default-y="-25.00" default-x="167.42"><pitch><step>A</step><octave>4</octave></pitch><duration>2</duration><voice>1</voice><type>quarter</type><stem>up</stem><lyric number="1"><syllabic>single</syllabic><text>my</text></lyric></note></measure><measure width="137.22" number="3"><note default-y="-30.00" default-x="22.86"><pitch><step>G</step><octave>4</octave></pitch><duration>2</duration><voice>1</voice><type>quarter</type><stem>up</stem><lyric number="1"><syllabic>begin</syllabic><text>dar</text></lyric></note><note default-y="-35.00" default-x="61.07"><pitch><step>F</step><octave>4</octave></pitch><duration>6</duration><tie type="start"/><voice>1</voice><type>half</type><dot/><stem>up</stem><notations><tied type="start"/></notations><lyric number="1"><syllabic>end</syllabic><text>lin</text></lyric></note></measure><measure width="103.14" number="4"><note default-y="-35.00" default-x="15.00"><pitch><step>F</step><octave>4</octave></pitch><duration>8</duration><tie type="stop"/><voice>1</voice><type>whole</type><notations><tied type="stop"/></notations></note></measure><measure width="197.94" number="5"><note><rest/><duration>2</duration><voice>1</voice><type>quarter</type></note><note default-y="-35.00" default-x="60.34"><pitch><step>F</step><octave>4</octave></pitch><duration>2</duration><voice>1</voice><type>quarter</type><stem>up</stem><lyric number="1"><syllabic>single</syllabic><text>on</text></lyric></note><note default-y="-30.00" default-x="105.67"><pitch><step>G</step><octave>4</octave></pitch><duration>2</duration><voice>1</voice><type>quarter</type><stem>up</stem><lyric number="1"><syllabic>single</syllabic><text>this</text></lyric></note><note default-y="-25.00" default-x="151.01"><pitch><step>A</step><octave>4</octave></pitch><duration>2</duration><voice>1</voice><type>quarter</type><stem>up</stem><lyric number="1"><syllabic>single</syllabic><text>our</text></lyric></note></measure><measure width="208.84" number="6"><print new-system="yes"><system-layout><system-margins><left-margin>109.38</left-margin><right-margin>0.00</right-margin></system-margins><system-distance>129.51</system-distance></system-layout></print><harmony print-frame="no"><root><root-step>F</root-step></root><kind text="7">dominant</kind></harmony><note default-y="-30.00" default-x="72.92"><pitch><step>G</step><octave>4</octave></pitch><duration>2</duration><voice>1</voice><type>quarter</type><stem>up</stem><lyric number="1"><syllabic>begin</syllabic><text>wed</text></lyric></note><note default-y="-35.00" default-x="117.66"><pitch><step>F</step><octave>4</octave></pitch><duration>4</duration><voice>1</voice><type>half</type><stem>up</stem><lyric number="1"><syllabic>end</syllabic><text>ding</text></lyric></note><note default-y="-45.00" default-x="172.79"><pitch><step>D</step><octave>4</octave></pitch><duration>2</duration><tie type="start"/><voice>1</voice><type>quarter</type><stem>up</stem><notations><tied type="start"/></notations><lyric number="1"><syllabic>single</syllabic><text>day</text></lyric></note></measure><measure width="66.61" number="7"><harmony print-frame="no"><root><root-step>B</root-step><root-alter>-1</root-alter></root><kind text="">major</kind></harmony><note default-y="-45.00" default-x="15.00"><pitch><step>D</step><octave>4</octave></pitch><duration>8</duration><tie type="stop"/><voice>1</voice><type>whole</type><notations><tied type="stop"/></notations></note></measure><measure width="66.61" number="8"><harmony print-frame="no"><root><root-step>G</root-step></root><kind text="m">minor</kind></harmony><note default-y="-30.00" default-x="15.00"><pitch><step>G</step><octave>4</octave></pitch><duration>8</duration><voice>1</voice><type>whole</type></note></measure><measure width="153.87" number="9"><note><rest/><duration>2</duration><voice>1</voice><type>quarter</type></note><note default-y="-45.00" default-x="49.32"><pitch><step>D</step><octave>4</octave></pitch><duration>2</duration><voice>1</voice><type>quarter</type><stem>up</stem><lyric number="1"><syllabic>single</syllabic><text>do</text></lyric></note><note default-y="-30.00" default-x="83.64"><pitch><step>G</step><octave>4</octave></pitch><duration>2</duration><voice>1</voice><type>quarter</type><stem>up</stem><lyric number="1"><syllabic>single</syllabic><text>not</text></lyric></note><note default-y="-25.00" default-x="117.95"><pitch><step>A</step><octave>4</octave></pitch><duration>2</duration><voice>1</voice><type>quarter</type><stem>up</stem><lyric number="1"><syllabic>begin</syllabic><text>for</text></lyric></note></measure><measure width="178.80" number="10"><note default-y="-20.00" default-x="28.49"><pitch><step>B</step><alter>-1</alter><octave>4</octave></pitch><duration>2</duration><voice>1</voice><type>quarter</type><accidental>flat</accidental><stem>down</stem><lyric number="1"><syllabic>end</syllabic><text>sake</text></lyric></note><note default-y="-30.00" default-x="68.22"><pitch><step>G</step><octave>4</octave></pitch><duration>2</duration><voice>1</voice><type>quarter</type><stem>up</stem><lyric number="1"><syllabic>single</syllabic><text>me</text></lyric></note><harmony print-frame="no"><root><root-step>C</root-step></root><kind text="7">dominant</kind></harmony><note default-y="-15.00" default-x="104.55"><pitch><step>C</step><octave>5</octave></pitch><duration>2</duration><voice>1</voice><type>quarter</type><stem>down</stem><lyric number="1"><syllabic>single</syllabic><text>oh</text></lyric></note><note default-y="-20.00" default-x="140.87"><pitch><step>B</step><alter>-1</alter><octave>4</octave></pitch><duration>2</duration><voice>1</voice><type>quarter</type><accidental>flat</accidental><stem>down</stem><lyric number="1"><syllabic>single</syllabic><text>my</text></lyric></note></measure><measure width="74.47" number="11"><harmony print-frame="no"><root><root-step>F</root-step></root><kind text="">major</kind></harmony><note default-y="-25.00" default-x="22.86"><pitch><step>A</step><octave>4</octave></pitch><duration>8</duration><voice>1</voice><type>whole</type><lyric number="1"><syllabic>begin</syllabic><text>dar</text></lyric></note></measure><measure width="71.98" number="12"><harmony print-frame="no"><root><root-step>D</root-step></root><kind text="m">minor</kind></harmony><note default-y="-10.00" default-x="20.36"><pitch><step>D</step><octave>5</octave></pitch><duration>8</duration><voice>1</voice><type>whole</type><lyric number="1"><syllabic>end</syllabic><text>lin</text></lyric></note></measure><measure width="79.93" number="13"><harmony print-frame="no"><root><root-step>A</root-step></root><kind text="">major</kind></harmony><note default-y="-15.00" default-x="27.87"><pitch><step>C</step><alter>1</alter><octave>5</octave></pitch><duration>8</duration><tie type="start"/><voice>1</voice><type>whole</type><accidental>sharp</accidental><notations><tied type="start"/></notations><lyric number="1"><syllabic>single</syllabic><text>wait</text></lyric></note></measure><measure width="66.61" number="14"><note default-y="-15.00" default-x="15.00"><pitch><step>C</step><alter>1</alter><octave>5</octave></pitch><duration>8</duration><tie type="stop"/><voice>1</voice><type>whole</type><accidental>sharp</accidental><notations><tied type="stop"/></notations></note></measure><measure width="238.07" number="15"><print new-system="yes"><system-layout><system-margins><left-margin>109.38</left-margin><right-margin>0.00</right-margin></system-margins><system-distance>129.51</system-distance></system-layout></print><harmony print-frame="no"><root><root-step>C</root-step></root><kind text="">major</kind></harmony><note default-y="-15.00" default-x="73.55"><pitch><step>C</step><octave>5</octave></pitch><duration>2</duration><voice>1</voice><type>quarter</type><stem>down</stem><lyric number="1"><syllabic>single</syllabic><text>wait</text></lyric></note><note default-y="-25.00" default-x="115.12"><pitch><step>A</step><octave>4</octave></pitch><duration>1</duration><voice>1</voice><type>eighth</type><stem>up</stem><beam number="1">begin</beam><lyric number="1"><syllabic>begin</syllabic><text>a</text></lyric></note><note default-y="-15.00" default-x="153.33"><pitch><step>C</step><octave>5</octave></pitch><duration>1</duration><tie type="start"/><voice>1</voice><type>eighth</type><stem>up</stem><beam number="1">end</beam><notations><tied type="start"/></notations><lyric number="1"><syllabic>end</syllabic><text>long</text></lyric></note><note default-y="-15.00" default-x="179.31"><pitch><step>C</step><octave>5</octave></pitch><duration>4</duration><tie type="stop"/><tie type="start"/><voice>1</voice><type>half</type><stem>down</stem><notations><tied type="stop"/><tied type="start"/></notations></note></measure><measure width="91.98" number="16"><harmony print-frame="no"><root><root-step>C</root-step></root><kind text="7">dominant</kind></harmony><note default-y="-15.00" default-x="15.00"><pitch><step>C</step><octave>5</octave></pitch><duration>8</duration><tie type="stop"/><voice>1</voice><type>whole</type><notations><tied type="stop"/></notations></note></measure><measure width="168.95" number="17"><harmony print-frame="no"><root><root-step>F</root-step></root><kind text="">major</kind></harmony><note><rest/><duration>2</duration><voice>1</voice><type>quarter</type></note><note default-y="-50.00" default-x="53.09"><pitch><step>C</step><octave>4</octave></pitch><duration>2</duration><voice>1</voice><type>quarter</type><stem>up</stem><lyric number="1"><syllabic>single</syllabic><text>I</text></lyric></note><note default-y="-35.00" default-x="91.17"><pitch><step>F</step><octave>4</octave></pitch><duration>2</duration><voice>1</voice><type>quarter</type><stem>up</stem><lyric number="1"><syllabic>single</syllabic><text>do</text></lyric></note><note default-y="-30.00" default-x="129.26"><pitch><step>G</step><octave>4</octave></pitch><duration>2</duration><voice>1</voice><type>quarter</type><stem>up</stem><lyric number="1"><syllabic>single</syllabic><text>not</text></lyric></note></measure><measure width="229.20" number="18"><note default-y="-25.00" default-x="33.51"><pitch><step>A</step><octave>4</octave></pitch><duration>2</duration><voice>1</voice><type>quarter</type><stem>up</stem><lyric number="1"><syllabic>single</syllabic><text>know</text></lyric></note><note default-y="-35.00" default-x="86.39"><pitch><step>F</step><octave>4</octave></pitch><duration>2</duration><voice>1</voice><type>quarter</type><stem>up</stem><lyric number="1"><syllabic>single</syllabic><text>what</text></lyric></note><note default-y="-20.00" default-x="133.46"><pitch><step>B</step><alter>-1</alter><octave>4</octave></pitch><duration>2</duration><voice>1</voice><type>quarter</type><accidental>flat</accidental><stem>down</stem><lyric number="1"><syllabic>single</syllabic><text>fate</text></lyric></note><note default-y="-25.00" default-x="180.53"><pitch><step>A</step><octave>4</octave></pitch><duration>2</duration><voice>1</voice><type>quarter</type><stem>up</stem><lyric number="1"><syllabic>begin</syllabic><text>a</text></lyric></note></measure><measure width="147.53" number="19"><note default-y="-30.00" default-x="32.26"><pitch><step>G</step><octave>4</octave></pitch><duration>2</duration><voice>1</voice><type>quarter</type><stem>up</stem><lyric number="1"><syllabic>end</syllabic><text>waits</text></lyric></note><note default-y="-35.00" default-x="75.74"><pitch><step>F</step><octave>4</octave></pitch><duration>6</duration><tie type="start"/><voice>1</voice><type>half</type><dot/><stem>up</stem><notations><tied type="start"/></notations><lyric number="1"><syllabic>single</syllabic><text>me</text></lyric></note></measure><measure width="91.98" number="20"><note default-y="-35.00" default-x="15.00"><pitch><step>F</step><octave>4</octave></pitch><duration>8</duration><tie type="stop"/><voice>1</voice><type>whole</type><notations><tied type="stop"/></notations></note></measure><measure width="188.17" number="21"><print new-system="yes"><system-layout><system-margins><left-margin>109.38</left-margin><right-margin>0.00</right-margin></system-margins><system-distance>129.51</system-distance></system-layout></print><note><rest/><duration>2</duration><voice>1</voice><type>quarter</type></note><note default-y="-40.00" default-x="86.53"><pitch><step>E</step><octave>4</octave></pitch><duration>2</duration><voice>1</voice><type>quarter</type><stem>up</stem><lyric number="1"><syllabic>single</syllabic><text>I</text></lyric></note><note default-y="-35.00" default-x="119.88"><pitch><step>F</step><octave>4</octave></pitch><duration>2</duration><voice>1</voice><type>quarter</type><stem>up</stem><lyric number="1"><syllabic>begin</syllabic><text>on</text></lyric></note><note default-y="-30.00" default-x="153.22"><pitch><step>G</step><octave>4</octave></pitch><duration>2</duration><voice>1</voice><type>quarter</type><stem>up</stem><lyric number="1"><syllabic>end</syllabic><text>ly</text></lyric></note></measure><measure width="205.92" number="22"><harmony print-frame="no"><root><root-step>F</root-step></root><kind text="7">dominant</kind></harmony><note default-y="-25.00" default-x="33.51"><pitch><step>A</step><octave>4</octave></pitch><duration>2</duration><voice>1</voice><type>quarter</type><stem>up</stem><lyric number="1"><syllabic>single</syllabic><text>know</text></lyric></note><note default-y="-35.00" default-x="76.21"><pitch><step>F</step><octave>4</octave></pitch><duration>2</duration><voice>1</voice><type>quarter</type><stem>up</stem><lyric number="1"><syllabic>single</syllabic><text>I</text></lyric></note><note default-y="-15.00" default-x="118.91"><pitch><step>C</step><octave>5</octave></pitch><duration>2</duration><voice>1</voice><type>quarter</type><stem>down</stem><lyric number="1"><syllabic>single</syllabic><text>must</text></lyric></note><note default-y="-35.00" default-x="161.62"><pitch><step>F</step><octave>4</octave></pitch><duration>2</duration><voice>1</voice><type>quarter</type><stem>up</stem><lyric number="1"><syllabic>single</syllabic><text>be</text></lyric></note></measure><measure width="105.41" number="23"><harmony print-frame="no"><root><root-step>B</root-step><root-alter>-1</root-alter></root><kind text="">major</kind></harmony><note default-y="-10.00" default-x="33.50"><pitch><step>D</step><octave>5</octave></pitch><duration>8</duration><tie type="start"/><voice>1</voice><type>whole</type><notations><tied type="start"/></notations><lyric number="1"><syllabic>single</syllabic><text>brave</text></lyric></note></measure><measure width="80.83" number="24"><harmony print-frame="no"><root><root-step>D</root-step></root><kind text="7">dominant</kind></harmony><note default-y="-10.00" default-x="15.00"><pitch><step>D</step><octave>5</octave></pitch><duration>8</duration><tie type="stop"/><voice>1</voice><type>whole</type><notations><tied type="stop"/></notations></note></measure><measure width="181.88" number="25"><harmony print-frame="no"><root><root-step>G</root-step></root><kind text="m">minor</kind></harmony><note><rest/><duration>2</duration><voice>1</voice><type>quarter</type></note><note default-y="-10.00" default-x="56.32"><pitch><step>D</step><octave>5</octave></pitch><duration>2</duration><voice>1</voice><type>quarter</type><stem>down</stem><lyric number="1"><syllabic>single</syllabic><text>and</text></lyric></note><note default-y="-10.00" default-x="97.64"><pitch><step>D</step><octave>5</octave></pitch><duration>2</duration><voice>1</voice><type>quarter</type><stem>down</stem><lyric number="1"><syllabic>single</syllabic><text>I</text></lyric></note><note default-y="-5.00" default-x="138.96"><pitch><step>E</step><octave>5</octave></pitch><duration>2</duration><voice>1</voice><type>quarter</type><stem>down</stem><lyric number="1"><syllabic>single</syllabic><text>must</text></lyric></note></measure><measure width="205.51" number="26"><note default-y="0.00" default-x="27.23"><pitch><step>F</step><octave>5</octave></pitch><duration>2</duration><voice>1</voice><type>quarter</type><stem>down</stem><lyric number="1"><syllabic>single</syllabic><text>face</text></lyric></note><note default-y="0.00" default-x="71.21"><pitch><step>F</step><octave>5</octave></pitch><duration>2</duration><voice>1</voice><type>quarter</type><stem>down</stem><lyric number="1"><syllabic>single</syllabic><text>a</text></lyric></note><note default-y="-5.00" default-x="115.19"><pitch><step>E</step><octave>5</octave></pitch><duration>2</duration><voice>1</voice><type>quarter</type><stem>down</stem><lyric number="1"><syllabic>single</syllabic><text>man</text></lyric></note><note default-y="-10.00" default-x="159.93"><pitch><step>D</step><octave>5</octave></pitch><duration>2</duration><voice>1</voice><type>quarter</type><stem>down</stem><lyric number="1"><syllabic>single</syllabic><text>who</text></lyric></note></measure><measure width="178.00" number="27"><print new-system="yes"><system-layout><system-margins><left-margin>109.38</left-margin><right-margin>0.00</right-margin></system-margins><system-distance>129.51</system-distance></system-layout></print><harmony print-frame="no"><root><root-step>F</root-step></root><kind text="">major</kind></harmony><note default-y="-15.00" default-x="77.31"><pitch><step>C</step><octave>5</octave></pitch><duration>2</duration><voice>1</voice><type>quarter</type><stem>down</stem><lyric number="1"><syllabic>single</syllabic><text>hates</text></lyric></note><note default-y="-35.00" default-x="120.16"><pitch><step>F</step><octave>4</octave></pitch><duration>6</duration><tie type="start"/><voice>1</voice><type>half</type><dot/><stem>up</stem><notations><tied type="start"/></notations><lyric number="1"><syllabic>single</syllabic><text>me</text></lyric></note></measure><measure width="78.03" number="28"><harmony print-frame="no"><root><root-step>F</root-step></root><kind text="7">dominant</kind></harmony><note default-y="-35.00" default-x="15.00"><pitch><step>F</step><octave>4</octave></pitch><duration>8</duration><tie type="stop"/><voice>1</voice><type>whole</type><notations><tied type="stop"/></notations></note></measure><measure width="149.05" number="29"><harmony print-frame="no"><root><root-step>B</root-step><root-alter>-1</root-alter></root><kind text="">major</kind></harmony><note><rest/><duration>2</duration><voice>1</voice><type>quarter</type></note><note default-y="-35.00" default-x="48.11"><pitch><step>F</step><octave>4</octave></pitch><duration>2</duration><voice>1</voice><type>quarter</type><stem>up</stem><lyric number="1"><syllabic>single</syllabic><text>or</text></lyric></note><note default-y="-35.00" default-x="81.23"><pitch><step>F</step><octave>4</octave></pitch><duration>2</duration><voice>1</voice><type>quarter</type><stem>up</stem><lyric number="1"><syllabic>single</syllabic><text>lie</text></lyric></note><note default-y="-30.00" default-x="114.34"><pitch><step>G</step><octave>4</octave></pitch><duration>2</duration><voice>1</voice><type>quarter</type><stem>up</stem><lyric number="1"><syllabic>single</syllabic><text>a</text></lyric></note></measure><measure width="124.80" number="30"><harmony print-frame="no"><root><root-step>F</root-step></root><kind text="">major</kind></harmony><note default-y="-25.00" default-x="27.24"><pitch><step>A</step><octave>4</octave></pitch><duration>2</duration><voice>1</voice><type>quarter</type><stem>up</stem><lyric number="1"><syllabic>begin</syllabic><text>cow</text></lyric></note><note default-y="-15.00" default-x="66.33"><pitch><step>C</step><octave>5</octave></pitch><duration>6</duration><voice>1</voice><type>half</type><dot/><stem>down</stem><lyric number="1"><syllabic>end</syllabic><text>ard</text></lyric></note></measure><measure width="163.99" number="31"><harmony print-frame="no"><root><root-step>B</root-step><root-alter>-1</root-alter></root><kind text="">major</kind></harmony><note><rest/><duration>2</duration><voice>1</voice><type>quarter</type></note><note default-y="-35.00" default-x="51.85"><pitch><step>F</step><octave>4</octave></pitch><duration>2</duration><voice>1</voice><type>quarter</type><stem>up</stem><lyric number="1"><syllabic>single</syllabic><text>a</text></lyric></note><note default-y="-35.00" default-x="88.70"><pitch><step>F</step><octave>4</octave></pitch><duration>2</duration><voice>1</voice><type>quarter</type><stem>up</stem><lyric number="1"><syllabic>begin</syllabic><text>cra</text></lyric></note><note default-y="-30.00" default-x="125.54"><pitch><step>G</step><octave>4</octave></pitch><duration>2</duration><voice>1</voice><type>quarter</type><stem>up</stem><lyric number="1"><syllabic>end</syllabic><text>ven</text></lyric></note></measure><measure width="124.80" number="32"><harmony print-frame="no"><root><root-step>F</root-step></root><kind text="">major</kind></harmony><note default-y="-25.00" default-x="27.24"><pitch><step>A</step><octave>4</octave></pitch><duration>2</duration><voice>1</voice><type>quarter</type><stem>up</stem><lyric number="1"><syllabic>begin</syllabic><text>cow</text></lyric></note><note default-y="-15.00" default-x="66.33"><pitch><step>C</step><octave>5</octave></pitch><duration>6</duration><voice>1</voice><type>half</type><dot/><stem>down</stem><lyric number="1"><syllabic>end</syllabic><text>ard</text></lyric></note></measure><measure width="149.05" number="33"><harmony print-frame="no"><root><root-step>B</root-step><root-alter>-1</root-alter></root><kind text="">major</kind></harmony><note><rest/><duration>2</duration><voice>1</voice><type>quarter</type></note><note default-y="-35.00" default-x="48.11"><pitch><step>F</step><octave>4</octave></pitch><duration>2</duration><voice>1</voice><type>quarter</type><stem>up</stem><lyric number="1"><syllabic>single</syllabic><text>or</text></lyric></note><note default-y="-35.00" default-x="81.23"><pitch><step>F</step><octave>4</octave></pitch><duration>2</duration><voice>1</voice><type>quarter</type><stem>up</stem><lyric number="1"><syllabic>single</syllabic><text>lie</text></lyric></note><note default-y="-25.00" default-x="114.34"><pitch><step>A</step><octave>4</octave></pitch><duration>2</duration><voice>1</voice><type>quarter</type><stem>up</stem><lyric number="1"><syllabic>single</syllabic><text>a</text></lyric></note></measure><measure width="179.00" number="34"><print new-system="yes"><system-layout><system-margins><left-margin>109.38</left-margin><right-margin>0.00</right-margin></system-margins><system-distance>129.51</system-distance></system-layout></print><harmony print-frame="no"><root><root-step>F</root-step></root><kind text="">major</kind></harmony><note default-y="-15.00" default-x="72.92"><pitch><step>C</step><octave>5</octave></pitch><duration>4</duration><voice>1</voice><type>half</type><stem>down</stem><lyric number="1"><syllabic>begin</syllabic><text>cow</text></lyric></note><note default-y="-25.00" default-x="125.16"><pitch><step>A</step><octave>4</octave></pitch><duration>2</duration><voice>1</voice><type>quarter</type><stem>up</stem><lyric number="1"><syllabic>middle</syllabic><text>ard</text></lyric></note><forward><duration>2</duration></forward></measure><measure width="117.51" number="35"><harmony print-frame="no"><root><root-step>G</root-step></root><kind text="m">minor</kind></harmony><note default-y="-35.00" default-x="17.23"><pitch><step>F</step><octave>4</octave></pitch><duration>4</duration><voice>1</voice><type>half</type><stem>up</stem><lyric number="1"><syllabic>single</syllabic><text>in</text></lyric></note><harmony print-frame="no"><root><root-step>C</root-step></root><kind text="7">dominant</kind></harmony><note default-y="-30.00" default-x="66.57"><pitch><step>G</step><octave>4</octave></pitch><duration>4</duration><voice>1</voice><type>half</type><stem>up</stem><lyric number="1"><syllabic>single</syllabic><text>my</text></lyric></note></measure><measure width="111.13" number="36"><harmony print-frame="no"><root><root-step>F</root-step></root><kind text="">major</kind></harmony><note default-y="-35.00" default-x="33.50"><pitch><step>F</step><octave>4</octave></pitch><duration>8</duration><tie type="start"/><voice>1</voice><type>whole</type><notations><tied type="start"/></notations><lyric number="1"><syllabic>single</syllabic><text>grave</text></lyric></note></measure><measure width="99.95" number="37"><note default-y="-35.00" default-x="15.00"><pitch><step>F</step><octave>4</octave></pitch><duration>6</duration><tie type="stop"/><voice>1</voice><type>half</type><dot/><stem>up</stem><notations><tied type="stop"/></notations></note><note><rest/><duration>2</duration><voice>1</voice><type>quarter</type></note><barline location="right"><bar-style>light-light</bar-style></barline></measure><measure width="262.60" number="38"><harmony print-frame="no"><root><root-step>B</root-step><root-alter>-1</root-alter></root><kind text="">major</kind></harmony><note default-y="-35.00" default-x="19.10"><pitch><step>F</step><octave>4</octave></pitch><duration>2</duration><voice>1</voice><type>quarter</type><stem>up</stem><lyric number="1"><syllabic>single</syllabic><text>he</text></lyric></note><note default-y="-35.00" default-x="75.43"><pitch><step>F</step><octave>4</octave></pitch><duration>1</duration><voice>1</voice><type>eighth</type><stem>up</stem><beam number="1">begin</beam><lyric number="1"><syllabic>single</syllabic><text>made</text></lyric></note><note default-y="-35.00" default-x="110.77"><pitch><step>F</step><octave>4</octave></pitch><duration>1</duration><voice>1</voice><type>eighth</type><stem>up</stem><beam number="1">end</beam><lyric number="1"><syllabic>single</syllabic><text>a</text></lyric></note><note default-y="-35.00" default-x="148.34"><pitch><step>F</step><octave>4</octave></pitch><duration>2</duration><voice>1</voice><type>quarter</type><stem>up</stem><lyric number="1"><syllabic>single</syllabic><text>vow</text></lyric></note><note default-y="-35.00" default-x="204.67"><pitch><step>F</step><octave>4</octave></pitch><duration>2</duration><voice>1</voice><type>quarter</type><stem>up</stem><lyric number="1"><syllabic>single</syllabic><text>while</text></lyric></note></measure><measure width="197.53" number="39"><note default-y="-35.00" default-x="17.23"><pitch><step>F</step><octave>4</octave></pitch><duration>2</duration><voice>1</voice><type>quarter</type><stem>up</stem><lyric number="1"><syllabic>single</syllabic><text>in</text></lyric></note><note default-y="-35.00" default-x="61.91"><pitch><step>F</step><octave>4</octave></pitch><duration>2</duration><voice>1</voice><type>quarter</type><stem>up</stem><lyric number="1"><syllabic>single</syllabic><text>state</text></lyric></note><note default-y="-25.00" default-x="106.58"><pitch><step>A</step><octave>4</octave></pitch><duration>2</duration><voice>1</voice><type>quarter</type><stem>up</stem><lyric number="1"><syllabic>begin</syllabic><text>pri</text></lyric></note><note default-y="-35.00" default-x="151.25"><pitch><step>F</step><octave>4</octave></pitch><duration>2</duration><voice>1</voice><type>quarter</type><stem>up</stem><lyric number="1"><syllabic>end</syllabic><text>son</text></lyric></note></measure><measure width="336.12" number="40"><print new-system="yes"><system-layout><system-margins><left-margin>109.38</left-margin><right-margin>0.00</right-margin></system-margins><system-distance>129.51</system-distance></system-layout></print><harmony print-frame="no"><root><root-step>F</root-step></root><kind text="">major</kind></harmony><note default-y="-35.00" default-x="84.19"><pitch><step>F</step><octave>4</octave></pitch><duration>2</duration><voice>1</voice><type>quarter</type><stem>up</stem><lyric number="1"><syllabic>single</syllabic><text>vowed</text></lyric></note><note default-y="-35.00" default-x="137.27"><pitch><step>F</step><octave>4</octave></pitch><duration>1</duration><voice>1</voice><type>eighth</type><stem>up</stem><beam number="1">begin</beam><lyric number="1"><syllabic>single</syllabic><text>it</text></lyric></note><note default-y="-35.00" default-x="183.62"><pitch><step>F</step><octave>4</octave></pitch><duration>1</duration><voice>1</voice><type>eighth</type><stem>up</stem><beam number="1">end</beam><lyric number="1"><syllabic>single</syllabic><text>would</text></lyric></note><note default-y="-35.00" default-x="228.36"><pitch><step>F</step><octave>4</octave></pitch><duration>2</duration><voice>1</voice><type>quarter</type><stem>up</stem><lyric number="1"><syllabic>single</syllabic><text>be</text></lyric></note><note default-y="-35.00" default-x="281.44"><pitch><step>F</step><octave>4</octave></pitch><duration>2</duration><voice>1</voice><type>quarter</type><stem>up</stem><lyric number="1"><syllabic>single</syllabic><text>my</text></lyric></note></measure><measure width="198.73" number="41"><note default-y="-35.00" default-x="23.48"><pitch><step>F</step><octave>4</octave></pitch><duration>2</duration><voice>1</voice><type>quarter</type><stem>up</stem><lyric number="1"><syllabic>single</syllabic><text>life</text></lyric></note><note default-y="-35.00" default-x="66.89"><pitch><step>F</step><octave>4</octave></pitch><duration>2</duration><voice>1</voice><type>quarter</type><stem>up</stem><lyric number="1"><syllabic>single</syllabic><text>or</text></lyric></note><note default-y="-45.00" default-x="110.31"><pitch><step>D</step><octave>4</octave></pitch><duration>2</duration><voice>1</voice><type>quarter</type><stem>up</stem><lyric number="1"><syllabic>single</syllabic><text>his</text></lyric></note><note default-y="-50.00" default-x="153.72"><pitch><step>C</step><octave>4</octave></pitch><duration>2</duration><voice>1</voice><type>quarter</type><stem>up</stem><lyric number="1"><syllabic>single</syllabic><text>an</text></lyric></note></measure><measure width="239.06" number="42"><harmony print-frame="no"><root><root-step>B</root-step><root-alter>-1</root-alter></root><kind text="">major</kind></harmony><note default-y="-35.00" default-x="20.98"><pitch><step>F</step><octave>4</octave></pitch><duration>2</duration><voice>1</voice><type>quarter</type><stem>up</stem><lyric number="1"><syllabic>single</syllabic><text>Im</text></lyric></note><note default-y="-35.00" default-x="69.82"><pitch><step>F</step><octave>4</octave></pitch><duration>1</duration><voice>1</voice><type>eighth</type><stem>up</stem><beam number="1">begin</beam><lyric number="1"><syllabic>single</syllabic><text>not</text></lyric></note><note default-y="-35.00" default-x="100.34"><pitch><step>F</step><octave>4</octave></pitch><duration>1</duration><voice>1</voice><type>eighth</type><stem>up</stem><beam number="1">end</beam><lyric number="1"><syllabic>begin</syllabic><text>a</text></lyric></note><note default-y="-35.00" default-x="139.78"><pitch><step>F</step><octave>4</octave></pitch><duration>2</duration><voice>1</voice><type>quarter</type><stem>up</stem><lyric number="1"><syllabic>end</syllabic><text>fraid</text></lyric></note><note default-y="-35.00" default-x="188.62"><pitch><step>F</step><octave>4</octave></pitch><duration>2</duration><voice>1</voice><type>quarter</type><stem>up</stem><lyric number="1"><syllabic>single</syllabic><text>of</text></lyric></note></measure><measure width="193.81" number="43"><note default-y="-35.00" default-x="32.88"><pitch><step>F</step><octave>4</octave></pitch><duration>2</duration><voice>1</voice><type>quarter</type><stem>up</stem><lyric number="1"><syllabic>single</syllabic><text>death</text></lyric></note><note default-y="-35.00" default-x="77.62"><pitch><step>F</step><octave>4</octave></pitch><duration>2</duration><voice>1</voice><type>quarter</type><stem>up</stem><lyric number="1"><syllabic>single</syllabic><text>but</text></lyric></note><note default-y="-25.00" default-x="121.70"><pitch><step>A</step><octave>4</octave></pitch><duration>4</duration><voice>1</voice><type>half</type><stem>up</stem><lyric number="1"><syllabic>single</syllabic><text>oh</text></lyric></note></measure><measure width="232.79" number="44"><print new-system="yes"><system-layout><system-margins><left-margin>109.38</left-margin><right-margin>0.00</right-margin></system-margins><system-distance>129.51</system-distance></system-layout></print><harmony print-frame="no"><root><root-step>F</root-step></root><kind text="">major</kind></harmony><note default-y="-15.00" default-x="76.05"><pitch><step>C</step><octave>5</octave></pitch><duration>4</duration><voice>1</voice><type>half</type><stem>down</stem><lyric number="1"><syllabic>single</syllabic><text>what</text></lyric></note><note default-y="-20.00" default-x="145.00"><pitch><step>B</step><alter>-1</alter><octave>4</octave></pitch><duration>2</duration><voice>1</voice><type>quarter</type><accidental>flat</accidental><stem>down</stem><lyric number="1"><syllabic>single</syllabic><text>would</text></lyric></note><note default-y="-25.00" default-x="188.10"><pitch><step>A</step><octave>4</octave></pitch><duration>2</duration><voice>1</voice><type>quarter</type><stem>up</stem><lyric number="1"><syllabic>single</syllabic><text>I</text></lyric></note></measure><measure width="145.61" number="45"><note default-y="-30.00" default-x="17.23"><pitch><step>G</step><octave>4</octave></pitch><duration>4</duration><voice>1</voice><type>half</type><stem>up</stem><lyric number="1"><syllabic>single</syllabic><text>di</text></lyric></note><harmony print-frame="no"><root><root-step>G</root-step></root><kind text="">major</kind></harmony><note default-y="-35.00" default-x="73.58"><pitch><step>F</step><octave>4</octave></pitch><duration>2</duration><voice>1</voice><type>quarter</type><stem>up</stem><lyric number="1"><syllabic>single</syllabic><text>if</text></lyric></note><note default-y="-45.00" default-x="108.80"><pitch><step>D</step><octave>4</octave></pitch><duration>2</duration><voice>1</voice><type>quarter</type><stem>up</stem><lyric number="1"><syllabic>single</syllabic><text>you</text></lyric></note></measure><measure width="123.86" number="46"><harmony print-frame="no"><root><root-step>C</root-step></root><kind text="">major</kind></harmony><note default-y="-30.00" default-x="32.24"><pitch><step>G</step><octave>4</octave></pitch><duration>6</duration><tie type="start"/><voice>1</voice><type>half</type><dot/><stem>up</stem><notations><tied type="start"/></notations><lyric number="1"><syllabic>single</syllabic><text>leave</text></lyric></note><note default-y="-30.00" default-x="91.75"><pitch><step>G</step><octave>4</octave></pitch><duration>2</duration><tie type="stop"/><voice>1</voice><type>quarter</type><stem>up</stem><notations><tied type="stop"/></notations></note></measure><measure width="96.82" number="47"><note default-y="-15.00" default-x="27.23"><pitch><step>C</step><octave>5</octave></pitch><duration>8</duration><voice>1</voice><type>whole</type><lyric number="1"><syllabic>single</syllabic><text>me?</text></lyric></note></measure><measure width="171.85" number="48"><harmony print-frame="no"><root><root-step>F</root-step></root><kind text="">major</kind></harmony><note><rest/><duration>2</duration><voice>1</voice><type>quarter</type></note><note default-y="-50.00" default-x="53.81"><pitch><step>C</step><octave>4</octave></pitch><duration>2</duration><voice>1</voice><type>quarter</type><stem>up</stem><lyric number="1"><syllabic>single</syllabic><text>do</text></lyric></note><note default-y="-35.00" default-x="92.63"><pitch><step>F</step><octave>4</octave></pitch><duration>2</duration><voice>1</voice><type>quarter</type><stem>up</stem><lyric number="1"><syllabic>single</syllabic><text>not</text></lyric></note><note default-y="-30.00" default-x="131.44"><pitch><step>G</step><octave>4</octave></pitch><duration>2</duration><voice>1</voice><type>quarter</type><stem>up</stem><lyric number="1"><syllabic>begin</syllabic><text>for</text></lyric></note></measure><measure width="196.78" number="49"><note default-y="-25.00" default-x="28.49"><pitch><step>A</step><octave>4</octave></pitch><duration>2</duration><voice>1</voice><type>quarter</type><stem>up</stem><lyric number="1"><syllabic>end</syllabic><text>sake</text></lyric></note><note default-y="-35.00" default-x="70.17"><pitch><step>F</step><octave>4</octave></pitch><duration>2</duration><voice>1</voice><type>quarter</type><stem>up</stem><lyric number="1"><syllabic>single</syllabic><text>me</text></lyric></note><note default-y="-20.00" default-x="111.84"><pitch><step>B</step><alter>-1</alter><octave>4</octave></pitch><duration>2</duration><voice>1</voice><type>quarter</type><accidental>flat</accidental><stem>down</stem><lyric number="1"><syllabic>single</syllabic><text>oh</text></lyric></note><note default-y="-25.00" default-x="153.51"><pitch><step>A</step><octave>4</octave></pitch><duration>2</duration><voice>1</voice><type>quarter</type><stem>up</stem><lyric number="1"><syllabic>single</syllabic><text>my</text></lyric></note></measure><measure width="157.75" number="50"><print new-page="yes"><system-layout><system-margins><left-margin>109.38</left-margin><right-margin>0.00</right-margin></system-margins><top-system-distance>70.00</top-system-distance></system-layout></print><note default-y="-30.00" default-x="68.54"><pitch><step>G</step><octave>4</octave></pitch><duration>2</duration><voice>1</voice><type>quarter</type><stem>up</stem><lyric number="1"><syllabic>begin</syllabic><text>dar</text></lyric></note><note default-y="-35.00" default-x="100.75"><pitch><step>F</step><octave>4</octave></pitch><duration>6</duration><tie type="start"/><voice>1</voice><type>half</type><dot/><stem>up</stem><notations><tied type="start"/></notations><lyric number="1"><syllabic>end</syllabic><text>lin</text></lyric></note></measure><measure width="77.99" number="51"><note default-y="-35.00" default-x="15.00"><pitch><step>F</step><octave>4</octave></pitch><duration>8</duration><tie type="stop"/><voice>1</voice><type>whole</type><notations><tied type="stop"/></notations></note></measure><measure width="198.46" number="52"><note><rest/><duration>2</duration><voice>1</voice><type>quarter</type></note><note default-y="-40.00" default-x="55.37"><pitch><step>E</step><octave>4</octave></pitch><duration>2</duration><voice>1</voice><type>quarter</type><stem>up</stem><lyric number="1"><syllabic>begin</syllabic><text>al</text></lyric></note><note default-y="-35.00" default-x="104.85"><pitch><step>F</step><octave>4</octave></pitch><duration>2</duration><voice>1</voice><type>quarter</type><stem>up</stem><lyric number="1"><syllabic>end</syllabic><text>though</text></lyric></note><note default-y="-30.00" default-x="156.49"><pitch><step>G</step><octave>4</octave></pitch><duration>2</duration><voice>1</voice><type>quarter</type><stem>up</stem><lyric number="1"><syllabic>single</syllabic><text>my</text></lyric></note></measure><measure width="196.46" number="53"><harmony print-frame="no"><root><root-step>F</root-step></root><kind text="7">dominant</kind></harmony><note default-y="-25.00" default-x="27.87"><pitch><step>A</step><octave>4</octave></pitch><duration>2</duration><voice>1</voice><type>quarter</type><stem>up</stem><lyric number="1"><syllabic>single</syllabic><text>love</text></lyric></note><note default-y="-35.00" default-x="69.62"><pitch><step>F</step><octave>4</octave></pitch><duration>2</duration><voice>1</voice><type>quarter</type><stem>up</stem><lyric number="1"><syllabic>single</syllabic><text>is</text></lyric></note><note default-y="-15.00" default-x="111.36"><pitch><step>C</step><octave>5</octave></pitch><duration>2</duration><voice>1</voice><type>quarter</type><stem>down</stem><lyric number="1"><syllabic>single</syllabic><text>true</text></lyric></note><note default-y="-35.00" default-x="153.11"><pitch><step>F</step><octave>4</octave></pitch><duration>2</duration><voice>1</voice><type>quarter</type><stem>up</stem><lyric number="1"><syllabic>single</syllabic><text>and</text></lyric></note></measure><measure width="93.82" number="54"><harmony print-frame="no"><root><root-step>B</root-step><root-alter>-1</root-alter></root><kind text="">major</kind></harmony><note default-y="-10.00" default-x="29.12"><pitch><step>D</step><octave>5</octave></pitch><duration>8</duration><tie type="start"/><voice>1</voice><type>whole</type><notations><tied type="start"/></notations><lyric number="1"><syllabic>single</syllabic><text>tried</text></lyric></note></measure><measure width="77.99" number="55"><harmony print-frame="no"><root><root-step>D</root-step></root><kind text="7">dominant</kind></harmony><note default-y="-10.00" default-x="15.00"><pitch><step>D</step><octave>5</octave></pitch><duration>8</duration><tie type="stop"/><voice>1</voice><type>whole</type><notations><tied type="stop"/></notations></note></measure><measure width="165.25" number="56"><harmony print-frame="no"><root><root-step>G</root-step></root><kind text="m">minor</kind></harmony><note><rest/><duration>2</duration><voice>1</voice><type>quarter</type></note><note default-y="-10.00" default-x="52.16"><pitch><step>D</step><octave>5</octave></pitch><duration>2</duration><voice>1</voice><type>quarter</type><stem>down</stem><lyric number="1"><syllabic>single</syllabic><text>do</text></lyric></note><note default-y="-10.00" default-x="89.33"><pitch><step>D</step><octave>5</octave></pitch><duration>2</duration><voice>1</voice><type>quarter</type><stem>down</stem><lyric number="1"><syllabic>single</syllabic><text>not</text></lyric></note><note default-y="-5.00" default-x="126.49"><pitch><step>E</step><octave>5</octave></pitch><duration>2</duration><voice>1</voice><type>quarter</type><stem>down</stem><lyric number="1"><syllabic>begin</syllabic><text>for</text></lyric></note></measure><measure width="232.89" number="57"><print new-system="yes"><system-layout><system-margins><left-margin>109.38</left-margin><right-margin>0.00</right-margin></system-margins><system-distance>105.20</system-distance></system-layout></print><note default-y="0.00" default-x="74.17"><pitch><step>F</step><octave>5</octave></pitch><duration>2</duration><voice>1</voice><type>quarter</type><stem>down</stem><lyric number="1"><syllabic>end</syllabic><text>sake</text></lyric></note><note default-y="0.00" default-x="113.90"><pitch><step>F</step><octave>5</octave></pitch><duration>2</duration><voice>1</voice><type>quarter</type><stem>down</stem><lyric number="1"><syllabic>single</syllabic><text>me</text></lyric></note><note default-y="-5.00" default-x="153.03"><pitch><step>E</step><octave>5</octave></pitch><duration>2</duration><voice>1</voice><type>quarter</type><stem>down</stem><lyric number="1"><syllabic>single</syllabic><text>oh</text></lyric></note><note default-y="-10.00" default-x="192.16"><pitch><step>D</step><octave>5</octave></pitch><duration>2</duration><voice>1</voice><type>quarter</type><stem>down</stem><lyric number="1"><syllabic>single</syllabic><text>my</text></lyric></note></measure><measure width="109.09" number="58"><harmony print-frame="no"><root><root-step>F</root-step></root><kind text="">major</kind></harmony><note default-y="-15.00" default-x="22.86"><pitch><step>C</step><octave>5</octave></pitch><duration>2</duration><voice>1</voice><type>quarter</type><stem>down</stem><lyric number="1"><syllabic>begin</syllabic><text>dar</text></lyric></note><note default-y="-35.00" default-x="55.07"><pitch><step>F</step><octave>4</octave></pitch><duration>6</duration><voice>1</voice><type>half</type><dot/><stem>up</stem><lyric number="1"><syllabic>end</syllabic><text>lin</text></lyric></note></measure><measure width="195.78" number="59"><harmony print-frame="no"><root><root-step>B</root-step><root-alter>-1</root-alter></root><kind text="">major</kind></harmony><note><rest/><duration>2</duration><voice>1</voice><type>quarter</type></note><note default-y="-35.00" default-x="53.95"><pitch><step>F</step><octave>4</octave></pitch><duration>2</duration><voice>1</voice><type>quarter</type><stem>up</stem><lyric number="1"><syllabic>begin</syllabic><text>al</text></lyric></note><note default-y="-35.00" default-x="103.43"><pitch><step>F</step><octave>4</octave></pitch><duration>2</duration><voice>1</voice><type>quarter</type><stem>up</stem><lyric number="1"><syllabic>end</syllabic><text>though</text></lyric></note><note default-y="-30.00" default-x="155.22"><pitch><step>G</step><octave>4</octave></pitch><duration>2</duration><voice>1</voice><type>quarter</type><stem>up</stem><lyric number="1"><syllabic>single</syllabic><text>I'm</text></lyric></note></measure><measure width="123.50" number="60"><harmony print-frame="no"><root><root-step>F</root-step></root><kind text="">major</kind></harmony><note default-y="-25.00" default-x="31.63"><pitch><step>A</step><octave>4</octave></pitch><duration>2</duration><voice>1</voice><type>quarter</type><stem>up</stem><lyric number="1"><syllabic>begin</syllabic><text>griev</text></lyric></note><note default-y="-15.00" default-x="69.48"><pitch><step>C</step><octave>5</octave></pitch><duration>6</duration><voice>1</voice><type>half</type><dot/><stem>down</stem><lyric number="1"><syllabic>end</syllabic><text>in</text></lyric></note></measure><measure width="191.74" number="61"><harmony print-frame="no"><root><root-step>B</root-step><root-alter>-1</root-alter></root><kind text="">major</kind></harmony><note><rest/><duration>2</duration><voice>1</voice><type>quarter</type></note><note default-y="-35.00" default-x="57.00"><pitch><step>F</step><octave>4</octave></pitch><duration>2</duration><voice>1</voice><type>quarter</type><stem>up</stem><lyric number="1"><syllabic>single</syllabic><text>dont</text></lyric></note><note default-y="-35.00" default-x="106.14"><pitch><step>F</step><octave>4</octave></pitch><duration>2</duration><voice>1</voice><type>quarter</type><stem>up</stem><lyric number="1"><syllabic>single</syllabic><text>think</text></lyric></note><note default-y="-30.00" default-x="148.14"><pitch><step>G</step><octave>4</octave></pitch><duration>2</duration><voice>1</voice><type>quarter</type><stem>up</stem><lyric number="1"><syllabic>single</syllabic><text>of</text></lyric></note></measure><measure width="114.73" number="62"><harmony print-frame="no"><root><root-step>F</root-step></root><kind text="">major</kind></harmony><note default-y="-25.00" default-x="27.24"><pitch><step>A</step><octave>4</octave></pitch><duration>2</duration><voice>1</voice><type>quarter</type><stem>up</stem><lyric number="1"><syllabic>begin</syllabic><text>leav</text></lyric></note><note default-y="-15.00" default-x="60.71"><pitch><step>C</step><octave>5</octave></pitch><duration>6</duration><voice>1</voice><type>half</type><dot/><stem>down</stem><lyric number="1"><syllabic>end</syllabic><text>in</text></lyric></note></measure><measure width="224.88" number="63"><print new-system="yes"><system-layout><system-margins><left-margin>109.38</left-margin><right-margin>0.00</right-margin></system-margins><system-distance>105.20</system-distance></system-layout></print><harmony print-frame="no"><root><root-step>B</root-step><root-alter>-1</root-alter></root><kind text="">major</kind></harmony><note><rest/><duration>2</duration><voice>1</voice><type>quarter</type></note><note default-y="-35.00" default-x="95.70"><pitch><step>F</step><octave>4</octave></pitch><duration>2</duration><voice>1</voice><type>quarter</type><stem>up</stem><lyric number="1"><syllabic>single</syllabic><text>now</text></lyric></note><note default-y="-35.00" default-x="138.23"><pitch><step>F</step><octave>4</octave></pitch><duration>2</duration><voice>1</voice><type>quarter</type><stem>up</stem><lyric number="1"><syllabic>single</syllabic><text>that</text></lyric></note><note default-y="-25.00" default-x="180.75"><pitch><step>A</step><octave>4</octave></pitch><duration>2</duration><voice>1</voice><type>quarter</type><stem>up</stem><lyric number="1"><syllabic>single</syllabic><text>I</text></lyric></note></measure><measure width="146.24" number="64"><harmony print-frame="no"><root><root-step>F</root-step></root><kind text="">major</kind></harmony><note default-y="-15.00" default-x="29.74"><pitch><step>C</step><octave>5</octave></pitch><duration>4</duration><voice>1</voice><type>half</type><stem>down</stem><lyric number="1"><syllabic>single</syllabic><text>need</text></lyric></note><note default-y="-25.00" default-x="87.19"><pitch><step>A</step><octave>4</octave></pitch><duration>4</duration><voice>1</voice><type>half</type><stem>up</stem><lyric number="1"><syllabic>single</syllabic><text>you</text></lyric></note></measure><measure width="122.88" number="65"><harmony print-frame="no"><root><root-step>G</root-step></root><kind text="m">minor</kind></harmony><note default-y="-35.00" default-x="19.74"><pitch><step>F</step><octave>4</octave></pitch><duration>4</duration><voice>1</voice><type>half</type><stem>up</stem><lyric number="1"><syllabic>single</syllabic><text>by</text></lyric></note><harmony print-frame="no"><root><root-step>C</root-step></root><kind text="">major</kind></harmony><note default-y="-30.00" default-x="70.51"><pitch><step>G</step><octave>4</octave></pitch><duration>4</duration><voice>1</voice><type>half</type><stem>up</stem><lyric number="1"><syllabic>single</syllabic><text>my</text></lyric></note></measure><measure width="101.05" number="66"><harmony print-frame="no"><root><root-step>F</root-step></root><kind text="">major</kind></harmony><note default-y="-35.00" default-x="26.62"><pitch><step>F</step><octave>4</octave></pitch><duration>8</duration><tie type="start"/><voice>1</voice><type>whole</type><notations><tied type="start"/></notations><lyric number="1"><syllabic>single</syllabic><text>side</text></lyric></note></measure><measure width="98.22" number="67"><note default-y="-35.00" default-x="15.00"><pitch><step>F</step><octave>4</octave></pitch><duration>6</duration><tie type="stop"/><voice>1</voice><type>half</type><dot/><stem>up</stem><notations><tied type="stop"/></notations></note><note><rest/><duration>2</duration><voice>1</voice><type>quarter</type></note></measure><measure width="171.91" number="68"><harmony print-frame="no"><root><root-step>B</root-step><root-alter>-1</root-alter></root><kind text="">major</kind></harmony><note default-y="0.00" default-x="27.87"><pitch><step>F</step><octave>5</octave></pitch><duration>2</duration><voice>1</voice><type>quarter</type><stem>down</stem><lyric number="1"><syllabic>single</syllabic><text>wait</text></lyric></note><note default-y="-10.00" default-x="67.44"><pitch><step>D</step><octave>5</octave></pitch><duration>2</duration><voice>1</voice><type>quarter</type><stem>down</stem><lyric number="1"><syllabic>begin</syllabic><text>a</text></lyric></note><note default-y="0.00" default-x="107.00"><pitch><step>F</step><octave>5</octave></pitch><duration>4</duration><tie type="start"/><voice>1</voice><type>half</type><stem>down</stem><notations><tied type="start"/></notations><lyric number="1"><syllabic>end</syllabic><text>long</text></lyric></note></measure><measure width="102.54" number="69"><note default-y="0.00" default-x="15.00"><pitch><step>F</step><octave>5</octave></pitch><duration>4</duration><tie type="stop"/><voice>1</voice><type>half</type><stem>down</stem><notations><tied type="stop"/></notations></note><note><rest/><duration>4</duration><voice>1</voice><type>half</type></note></measure><measure width="261.71" number="70"><print new-system="yes"><system-layout><system-margins><left-margin>109.38</left-margin><right-margin>0.00</right-margin></system-margins><system-distance>105.20</system-distance></system-layout></print><harmony print-frame="no"><root><root-step>F</root-step></root><kind text="">major</kind></harmony><note default-y="0.00" default-x="73.55"><pitch><step>F</step><octave>5</octave></pitch><duration>2</duration><voice>1</voice><type>quarter</type><stem>down</stem><lyric number="1"><syllabic>single</syllabic><text>wait</text></lyric></note><note default-y="-10.00" default-x="117.44"><pitch><step>D</step><octave>5</octave></pitch><duration>2</duration><voice>1</voice><type>quarter</type><stem>down</stem><lyric number="1"><syllabic>begin</syllabic><text>a</text></lyric></note><note default-y="0.00" default-x="161.34"><pitch><step>F</step><octave>5</octave></pitch><duration>1</duration><voice>1</voice><type>eighth</type><stem>down</stem><beam number="1">begin</beam><lyric number="1"><syllabic>end</syllabic><text>long</text></lyric></note><note default-y="-10.00" default-x="188.77"><pitch><step>D</step><octave>5</octave></pitch><duration>1</duration><voice>1</voice><type>eighth</type><stem>down</stem><beam number="1">end</beam></note><note default-y="-15.00" default-x="216.21"><pitch><step>C</step><octave>5</octave></pitch><duration>2</duration><tie type="start"/><voice>1</voice><type>quarter</type><stem>down</stem><notations><tied type="start"/></notations></note></measure><measure width="112.25" number="71"><note default-y="-15.00" default-x="15.00"><pitch><step>C</step><octave>5</octave></pitch><duration>4</duration><tie type="stop"/><voice>1</voice><type>half</type><stem>down</stem><notations><tied type="stop"/></notations></note><note><rest/><duration>4</duration><voice>1</voice><type>half</type></note></measure><measure width="181.63" number="72"><harmony print-frame="no"><root><root-step>B</root-step><root-alter>-1</root-alter></root><kind text="">major</kind></harmony><note default-y="-35.00" default-x="27.87"><pitch><step>F</step><octave>4</octave></pitch><duration>2</duration><voice>1</voice><type>quarter</type><stem>up</stem><lyric number="1"><syllabic>single</syllabic><text>wait</text></lyric></note><note default-y="-45.00" default-x="70.13"><pitch><step>D</step><octave>4</octave></pitch><duration>2</duration><voice>1</voice><type>quarter</type><stem>up</stem><lyric number="1"><syllabic>begin</syllabic><text>a</text></lyric></note><note default-y="-35.00" default-x="112.40"><pitch><step>F</step><octave>4</octave></pitch><duration>4</duration><tie type="start"/><voice>1</voice><type>half</type><stem>up</stem><notations><tied type="start"/></notations><lyric number="1"><syllabic>end</syllabic><text>long</text></lyric></note></measure><measure width="112.25" number="73"><note default-y="-35.00" default-x="15.00"><pitch><step>F</step><octave>4</octave></pitch><duration>4</duration><tie type="stop"/><voice>1</voice><type>half</type><stem>up</stem><notations><tied type="stop"/></notations></note><note><rest/><duration>4</duration><voice>1</voice><type>half</type></note></measure><measure width="181.63" number="74"><note default-y="-35.00" default-x="27.87"><pitch><step>F</step><octave>4</octave></pitch><duration>2</duration><voice>1</voice><type>quarter</type><stem>up</stem><lyric number="1"><syllabic>single</syllabic><text>wait</text></lyric></note><note default-y="-35.00" default-x="70.13"><pitch><step>F</step><octave>4</octave></pitch><duration>2</duration><voice>1</voice><type>quarter</type><stem>up</stem><lyric number="1"><syllabic>begin</syllabic><text>a</text></lyric></note><harmony print-frame="no"><root><root-step>F</root-step></root><kind text="">major</kind></harmony><note default-y="-15.00" default-x="112.40"><pitch><step>C</step><octave>5</octave></pitch><duration>4</duration><tie type="start"/><voice>1</voice><type>half</type><stem>down</stem><notations><tied type="start"/></notations><lyric number="1"><syllabic>middle</syllabic><text>long</text></lyric></note></measure><measure width="118.25" number="75"><note default-y="-15.00" default-x="15.00"><pitch><step>C</step><octave>5</octave></pitch><duration>4</duration><tie type="stop"/><voice>1</voice><type>half</type><stem>down</stem><notations><tied type="stop"/></notations></note><note><rest/><duration>4</duration><voice>1</voice><type>half</type></note><barline location="right"><bar-style>light-heavy</bar-style></barline></measure></part></score-partwise>