<score-partwise version="2.0"><work><work-number/><work-title/></work><movement-number/><movement-title>From Russia With Love</movement-title><identification><creator type="composer">Lionel Bart</creator><creator type="poet"/><rights>All Rights Reserved</rights><encoding><software>MuseScore 0.9.6</software><encoding-date>2010-04-18</encoding-date><software>ProxyMusic 2.0 c</software></encoding><source>http://wikifonia.org/node/5461/revisions/7422/view</source></identification><defaults><scaling><millimeters>6.256</millimeters><tenths>40</tenths></scaling><page-layout><page-height>1898.98</page-height><page-width>1342.71</page-width><page-margins type="both"><left-margin>63.9386</left-margin><right-margin>63.9386</right-margin><top-margin>63.9386</top-margin><bottom-margin>127.877</bottom-margin></page-margins></page-layout></defaults><credit page="1"><credit-words font-size="24" default-y="1835.04" default-x="671.355" justify="center" valign="top">From Russia with love</credit-words></credit><credit page="1"><credit-words font-size="14" default-y="1771.1" default-x="671.355" justify="center" valign="top">(Theme from James Bond 007)</credit-words></credit><credit page="1"><credit-words font-size="12" default-y="1769.14" default-x="1278.77" justify="right" valign="top">Lionel Bart</credit-words></credit><part-list><score-part id="P1"><part-name/><score-instrument id="P1-I3"><instrument-name/></score-instrument><midi-instrument id="P1-I3"><midi-channel>1</midi-channel><midi-program>5</midi-program></midi-instrument></score-part></part-list><part id="P1"><measure width="310.81" number="1"><print><system-layout><system-margins><left-margin>0.00</left-margin><right-margin>0.00</right-margin></system-margins><top-system-distance>190.06</top-system-distance></system-layout></print><attributes><divisions>3</divisions><key><fifths>1</fifths><mode>major</mode></key><time><beats>4</beats><beat-type>4</beat-type></time><clef><sign>G</sign><line>2</line></clef></attributes><note><rest/><duration>6</duration><voice>1</voice><type>half</type></note><note><rest/><duration>3</duration><voice>1</voice><type>quarter</type></note><note default-y="-55.00" default-x="247.57"><pitch><step>B</step><octave>3</octave></pitch><duration>3</duration><voice>1</voice><type>quarter</type><stem>up</stem><lyric number="1"><syllabic>single</syllabic><text>From</text></lyric></note></measure><measure width="255.41" number="2"><harmony print-frame="no"><root><root-step>E</root-step></root><kind text="m">minor</kind></harmony><note default-y="-40.00" default-x="22.19"><pitch><step>E</step><octave>4</octave></pitch><duration>3</duration><voice>1</voice><type>quarter</type><stem>up</stem><lyric number="1"><syllabic>begin</syllabic><text>Rus</text></lyric></note><note default-y="-30.00" default-x="86.53"><pitch><step>G</step><octave>4</octave></pitch><duration>6</duration><voice>1</voice><type>half</type><stem>up</stem><lyric number="1"><syllabic>end</syllabic><text>sia</text></lyric></note><note default-y="-40.00" default-x="189.47"><pitch><step>E</step><octave>4</octave></pitch><duration>3</duration><voice>1</voice><type>quarter</type><stem>up</stem><lyric number="1"><syllabic>single</syllabic><text>with</text></lyric></note></measure><measure width="205.43" number="3"><harmony print-frame="no"><root><root-step>C</root-step></root><kind text="">major</kind></harmony><note default-y="-15.00" default-x="24.06"><pitch><step>C</step><octave>5</octave></pitch><duration>9</duration><voice>1</voice><type>half</type><dot/><stem>down</stem><lyric number="1"><syllabic>single</syllabic><text>love</text></lyric></note><note default-y="-20.00" default-x="142.91"><pitch><step>B</step><octave>4</octave></pitch><duration>3</duration><voice>1</voice><type>quarter</type><stem>down</stem><lyric number="1"><syllabic>single</syllabic><text>I</text></lyric></note></measure><measure width="203.56" number="4"><harmony print-frame="no"><root><root-step>F</root-step></root><kind text="">major</kind></harmony><note default-y="-25.00" default-x="17.18"><pitch><step>A</step><alter>1</alter><octave>4</octave></pitch><duration>9</duration><voice>1</voice><type>half</type><dot/><accidental>sharp</accidental><stem>up</stem><lyric number="1"><syllabic>single</syllabic><text>fly</text></lyric></note><note default-y="-20.00" default-x="139.35"><pitch><step>B</step><octave>4</octave></pitch><duration>3</duration><voice>1</voice><type>quarter</type><stem>down</stem><lyric number="1"><syllabic>single</syllabic><text>to</text></lyric></note></measure><measure width="239.61" number="5"><harmony print-frame="no"><root><root-step>B</root-step></root><kind text="7">dominant</kind></harmony><note default-y="-35.00" default-x="21.56"><pitch><step>F</step><alter>1</alter><octave>4</octave></pitch><duration>9</duration><voice>1</voice><type>half</type><dot/><stem>up</stem><lyric number="1"><syllabic>single</syllabic><text>you</text></lyric></note><note default-y="-55.00" default-x="164.66"><pitch><step>B</step><octave>3</octave></pitch><duration>3</duration><voice>1</voice><type>quarter</type><stem>up</stem><lyric number="1"><syllabic>single</syllabic><text>Much</text></lyric></note></measure><measure width="229.29" number="6"><print new-system="yes"><system-layout><system-margins><left-margin>0.00</left-margin><right-margin>0.00</right-margin></system-margins><system-distance>114.97</system-distance></system-layout></print><harmony print-frame="no"><root><root-step>E</root-step></root><kind text="m">minor</kind></harmony><note default-y="-40.00" default-x="80.86"><pitch><step>E</step><octave>4</octave></pitch><duration>3</duration><voice>1</voice><type>quarter</type><stem>up</stem><lyric number="1"><syllabic>begin</syllabic><text>wis</text></lyric></note><note default-y="-30.00" default-x="121.64"><pitch><step>G</step><octave>4</octave></pitch><duration>6</duration><voice>1</voice><type>half</type><stem>up</stem><lyric number="1"><syllabic>end</syllabic><text>er</text></lyric></note><note default-y="-40.00" default-x="186.90"><pitch><step>E</step><octave>4</octave></pitch><duration>3</duration><voice>1</voice><type>quarter</type><stem>up</stem><lyric number="1"><syllabic>single</syllabic><text>since</text></lyric></note></measure><measure width="158.13" number="7"><note default-y="-10.00" default-x="32.96"><pitch><step>D</step><octave>5</octave></pitch><duration>9</duration><voice>1</voice><type>half</type><dot/><stem>down</stem><lyric number="1"><syllabic>single</syllabic><text>my</text></lyric></note><note default-y="-15.00" default-x="114.65"><pitch><step>C</step><alter>1</alter><octave>5</octave></pitch><duration>3</duration><voice>1</voice><type>quarter</type><accidental>sharp</accidental><stem>down</stem><lyric number="1"><syllabic>begin</syllabic><text>good</text></lyric></note></measure><measure width="121.92" number="8"><harmony print-frame="no"><root><root-step>A</root-step></root><kind text="m">minor</kind></harmony><note default-y="-15.00" default-x="20.93"><pitch><step>C</step><octave>5</octave></pitch><duration>9</duration><voice>1</voice><type>half</type><dot/><stem>down</stem><lyric number="1"><syllabic>end</syllabic><text>bye</text></lyric></note><note default-y="-20.00" default-x="86.64"><pitch><step>B</step><octave>4</octave></pitch><duration>3</duration><voice>1</voice><type>quarter</type><stem>down</stem><lyric number="1"><syllabic>single</syllabic><text>to</text></lyric></note></measure><measure width="134.51" number="9"><harmony print-frame="no"><root><root-step>B</root-step></root><kind text="7">dominant</kind></harmony><note default-y="-10.00" default-x="21.56"><pitch><step>D</step><alter>1</alter><octave>5</octave></pitch><duration>9</duration><voice>1</voice><type>half</type><dot/><accidental>sharp</accidental><stem>down</stem><lyric number="1"><syllabic>single</syllabic><text>you</text></lyric></note><note default-y="-20.00" default-x="95.18"><pitch><step>B</step><octave>4</octave></pitch><duration>3</duration><voice>1</voice><type>quarter</type><stem>down</stem><lyric number="1"><syllabic>single</syllabic><text>I've</text></lyric></note></measure><measure width="176.11" number="10"><harmony print-frame="no"><root><root-step>E</root-step></root><kind text="7">dominant</kind></harmony><note default-y="-5.00" default-x="16.55"><pitch><step>E</step><octave>5</octave></pitch><duration>3</duration><voice>1</voice><type>quarter</type><stem>down</stem><lyric number="1"><syllabic>begin</syllabic><text>tra</text></lyric></note><note default-y="-20.00" default-x="62.29"><pitch><step>B</step><octave>4</octave></pitch><duration>6</duration><voice>1</voice><type>half</type><stem>down</stem><lyric number="1"><syllabic>end</syllabic><text>velled</text></lyric></note><note default-y="-30.00" default-x="131.35"><pitch><step>G</step><alter>1</alter><octave>4</octave></pitch><duration>3</duration><voice>1</voice><type>quarter</type><accidental>sharp</accidental><stem>up</stem><lyric number="1"><syllabic>single</syllabic><text>the</text></lyric></note></measure><measure width="136.84" number="11"><note default-y="-40.00" default-x="30.93"><pitch><step>E</step><octave>4</octave></pitch><duration>9</duration><voice>1</voice><type>half</type><dot/><stem>up</stem><lyric number="1"><syllabic>single</syllabic><text>world</text></lyric></note><note default-y="-10.00" default-x="99.90"><pitch><step>D</step><octave>5</octave></pitch><duration>3</duration><voice>1</voice><type>quarter</type><stem>down</stem><lyric number="1"><syllabic>single</syllabic><text>to</text></lyric></note></measure><measure width="129.94" number="12"><harmony print-frame="no"><root><root-step>A</root-step></root><kind text="m">minor</kind></harmony><note default-y="-10.00" default-x="29.98"><pitch><step>D</step><octave>5</octave></pitch><duration>9</duration><voice>1</voice><type>half</type><dot/><stem>down</stem><lyric number="1"><syllabic>single</syllabic><text>learn,</text></lyric></note><note default-y="-15.00" default-x="95.01"><pitch><step>C</step><octave>5</octave></pitch><duration>3</duration><voice>1</voice><type>quarter</type><stem>down</stem><lyric number="1"><syllabic>single</syllabic><text>I</text></lyric></note></measure><measure width="128.10" number="13"><harmony print-frame="no"><root><root-step>E</root-step></root><kind text="m">minor</kind></harmony><note default-y="-25.00" default-x="26.56"><pitch><step>A</step><octave>4</octave></pitch><duration>9</duration><voice>1</voice><type>half</type><dot/><stem>up</stem><lyric number="1"><syllabic>single</syllabic><text>must</text></lyric></note><note default-y="-35.00" default-x="92.63"><pitch><step>F</step><alter>1</alter><octave>4</octave></pitch><duration>3</duration><voice>1</voice><type>quarter</type><stem>up</stem><lyric number="1"><syllabic>begin</syllabic><text>re</text></lyric></note></measure><measure width="349.87" number="14"><print new-system="yes"><system-layout><system-margins><left-margin>0.00</left-margin><right-margin>0.00</right-margin></system-margins><system-distance>114.97</system-distance></system-layout></print><harmony print-frame="no"><root><root-step>B</root-step></root><kind text="7">dominant</kind></harmony><note default-y="-15.00" default-x="83.36"><pitch><step>C</step><octave>5</octave></pitch><duration>9</duration><voice>1</voice><type>half</type><dot/><stem>down</stem><lyric number="1"><syllabic>end</syllabic><text>turn</text></lyric></note><note default-y="-20.00" default-x="258.50"><pitch><step>B</step><octave>4</octave></pitch><duration>3</duration><voice>1</voice><type>quarter</type><stem>down</stem><lyric number="1"><syllabic>single</syllabic><text>from</text></lyric></note></measure><measure width="312.63" number="15"><note default-y="-55.00" default-x="22.19"><pitch><step>B</step><octave>3</octave></pitch><duration>3</duration><voice>1</voice><type>quarter</type><stem>up</stem><lyric number="1"><syllabic>begin</syllabic><text>Rus</text></lyric></note><note default-y="-45.00" default-x="102.42"><pitch><step>D</step><alter>1</alter><octave>4</octave></pitch><duration>6</duration><voice>1</voice><type>half</type><accidental>sharp</accidental><stem>up</stem><lyric number="1"><syllabic>end</syllabic><text>sia</text></lyric></note><note default-y="-35.00" default-x="230.80"><pitch><step>F</step><alter>1</alter><octave>4</octave></pitch><duration>3</duration><voice>1</voice><type>quarter</type><stem>up</stem><lyric number="1"><syllabic>single</syllabic><text>with</text></lyric></note></measure><measure width="247.12" number="16"><harmony print-frame="no"><root><root-step>E</root-step></root><kind text="m">minor</kind></harmony><note default-y="-40.00" default-x="12.00"><pitch><step>E</step><octave>4</octave></pitch><duration>12</duration><tie type="start"/><voice>1</voice><type>whole</type><notations><tied type="start"/></notations><lyric number="1"><syllabic>single</syllabic><text>love</text><extend/></lyric></note></measure><measure width="305.22" number="17"><note default-y="-40.00" default-x="12.00"><pitch><step>E</step><octave>4</octave></pitch><duration>6</duration><tie type="stop"/><voice>1</voice><type>half</type><stem>up</stem><notations><tied type="stop"/></notations></note><note default-y="-45.00" default-x="141.61"><pitch><step>D</step><alter>1</alter><octave>4</octave></pitch><duration>3</duration><voice>1</voice><type>quarter</type><accidental>sharp</accidental><stem>up</stem><lyric number="1"><syllabic>single</syllabic><text>I've</text></lyric></note><note default-y="-40.00" default-x="222.61"><pitch><step>E</step><octave>4</octave></pitch><duration>3</duration><voice>1</voice><type>quarter</type><stem>up</stem><lyric number="1"><syllabic>single</syllabic><text>seen</text></lyric></note></measure><measure width="314.64" number="18"><print new-system="yes"><system-layout><system-margins><left-margin>0.00</left-margin><right-margin>0.00</right-margin></system-margins><system-distance>114.97</system-distance></system-layout></print><harmony print-frame="no"><root><root-step>A</root-step></root><kind text="m">minor</kind></harmony><note default-y="-10.00" default-x="78.98"><pitch><step>D</step><octave>5</octave></pitch><duration>3</duration><voice>1</voice><type>quarter</type><stem>down</stem><lyric number="1"><syllabic>begin</syllabic><text>pla</text></lyric></note><note default-y="-15.00" default-x="158.29"><pitch><step>C</step><octave>5</octave></pitch><duration>9</duration><voice>1</voice><type>half</type><dot/><stem>down</stem><lyric number="1"><syllabic>end</syllabic><text>ces</text></lyric></note></measure><measure width="279.23" number="19"><harmony print-frame="no"><root><root-step>D</root-step></root><kind text="7">dominant</kind></harmony><note default-y="-10.00" default-x="18.42"><pitch><step>D</step><octave>5</octave></pitch><duration>3</duration><voice>1</voice><type>quarter</type><stem>down</stem><lyric number="1"><syllabic>begin</syllabic><text>fac</text></lyric></note><note default-y="-15.00" default-x="90.42"><pitch><step>C</step><octave>5</octave></pitch><duration>6</duration><voice>1</voice><type>half</type><stem>down</stem><lyric number="1"><syllabic>end</syllabic><text>es</text></lyric></note><note default-y="-25.00" default-x="205.63"><pitch><step>A</step><octave>4</octave></pitch><duration>3</duration><voice>1</voice><type>quarter</type><stem>up</stem><lyric number="1"><syllabic>single</syllabic><text>and</text></lyric></note></measure><measure width="321.41" number="20"><harmony print-frame="no"><root><root-step>G</root-step></root><kind text="">major</kind></harmony><note default-y="-15.00" default-x="48.58"><pitch><step>C</step><octave>5</octave></pitch><duration>3</duration><voice>1</voice><type>quarter</type><stem>down</stem><lyric number="1"><syllabic>single</syllabic><text>smiled</text></lyric></note><note default-y="-20.00" default-x="123.92"><pitch><step>B</step><octave>4</octave></pitch><duration>6</duration><voice>1</voice><type>half</type><stem>down</stem><lyric number="1"><syllabic>single</syllabic><text>for</text></lyric></note><note default-y="-25.00" default-x="244.47"><pitch><step>A</step><alter>1</alter><octave>4</octave></pitch><duration>3</duration><voice>1</voice><type>quarter</type><accidental>sharp</accidental><stem>up</stem><lyric number="1"><syllabic>single</syllabic><text>a</text></lyric></note></measure><measure width="299.56" number="21"><note default-y="-15.00" default-x="19.06"><pitch><step>C</step><octave>5</octave></pitch><duration>3</duration><voice>1</voice><type>quarter</type><stem>down</stem><lyric number="1"><syllabic>begin</syllabic><text>mo</text></lyric></note><note default-y="-20.00" default-x="96.53"><pitch><step>B</step><octave>4</octave></pitch><duration>6</duration><voice>1</voice><type>half</type><stem>down</stem><lyric number="1"><syllabic>end</syllabic><text>ment</text></lyric></note><note default-y="-30.00" default-x="220.49"><pitch><step>G</step><octave>4</octave></pitch><duration>3</duration><voice>1</voice><type>quarter</type><stem>up</stem><lyric number="1"><syllabic>single</syllabic><text>but</text></lyric></note></measure><measure width="295.06" number="22"><print new-system="yes"><system-layout><system-margins><left-margin>0.00</left-margin><right-margin>0.00</right-margin></system-margins><system-distance>114.97</system-distance></system-layout></print><harmony print-frame="no"><root><root-step>A</root-step></root><kind text="m7">minor-seventh</kind></harmony><note default-y="-25.00" default-x="76.49"><pitch><step>A</step><octave>4</octave></pitch><duration>12</duration><tie type="start"/><voice>1</voice><type>whole</type><notations><tied type="start"/></notations><lyric number="1"><syllabic>single</syllabic><text>oh</text></lyric></note></measure><measure width="381.82" number="23"><harmony print-frame="no"><root><root-step>D</root-step></root><kind text="7">dominant</kind></harmony><note default-y="-25.00" default-x="12.00"><pitch><step>A</step><octave>4</octave></pitch><duration>6</duration><tie type="stop"/><voice>1</voice><type>half</type><stem>up</stem><notations><tied type="stop"/></notations></note><note default-y="-20.00" default-x="137.21"><pitch><step>B</step><octave>4</octave></pitch><duration>3</duration><voice>1</voice><type>quarter</type><stem>down</stem><lyric number="1"><syllabic>single</syllabic><text>you</text></lyric></note><note default-y="-25.00" default-x="232.97"><pitch><step>A</step><octave>4</octave></pitch><duration>1</duration><voice>1</voice><type>eighth</type><time-modification><actual-notes>3</actual-notes><normal-notes>2</normal-notes></time-modification><stem>up</stem><beam number="1">begin</beam><notations><tuplet type="start" bracket="no"/></notations><lyric number="1"><syllabic>begin</syllabic><text>haun</text></lyric></note><note default-y="-30.00" default-x="282.05"><pitch><step>G</step><octave>4</octave></pitch><duration>1</duration><voice>1</voice><type>eighth</type><time-modification><actual-notes>3</actual-notes><normal-notes>2</normal-notes></time-modification><stem>up</stem><beam number="1">continue</beam><lyric number="1"><syllabic>end</syllabic><text>ted</text></lyric></note><note default-y="-25.00" default-x="331.14"><pitch><step>A</step><octave>4</octave></pitch><duration>1</duration><voice>1</voice><type>eighth</type><time-modification><actual-notes>3</actual-notes><normal-notes>2</normal-notes></time-modification><stem>up</stem><beam number="1">end</beam><notations><tuplet type="stop"/></notations><lyric number="1"><syllabic>single</syllabic><text>me</text></lyric></note></measure><measure width="232.95" number="24"><harmony print-frame="no"><root><root-step>G</root-step></root><kind text="Maj7">major-seventh</kind></harmony><note default-y="-20.00" default-x="12.00"><pitch><step>B</step><octave>4</octave></pitch><duration>12</duration><tie type="start"/><voice>1</voice><type>whole</type><notations><tied type="start"/></notations><lyric number="1"><syllabic>single</syllabic><text>so</text><extend/></lyric></note></measure><measure width="305.01" number="25"><harmony print-frame="no"><root><root-step>G</root-step></root><kind text="">major</kind></harmony><note default-y="-20.00" default-x="17.50"><pitch><step>B</step><octave>4</octave></pitch><duration>6</duration><tie type="stop"/><voice>1</voice><type>half</type><stem>down</stem><notations><tied type="stop"/></notations></note><note default-y="-45.00" default-x="144.57"><pitch><step>D</step><alter>1</alter><octave>4</octave></pitch><duration>3</duration><voice>1</voice><type>quarter</type><accidental>sharp</accidental><stem>up</stem><lyric number="1"><syllabic>single</syllabic><text>still</text></lyric></note><note default-y="-40.00" default-x="223.99"><pitch><step>E</step><octave>4</octave></pitch><duration>3</duration><voice>1</voice><type>quarter</type><stem>up</stem><lyric number="1"><syllabic>single</syllabic><text>my</text></lyric></note></measure><measure width="332.90" number="26"><print new-system="yes"><system-layout><system-margins><left-margin>0.00</left-margin><right-margin>0.00</right-margin></system-margins><system-distance>114.97</system-distance></system-layout></print><harmony print-frame="no"><root><root-step>A</root-step></root><kind text="m">minor</kind></harmony><note default-y="-10.00" default-x="95.86"><pitch><step>D</step><octave>5</octave></pitch><duration>3</duration><voice>1</voice><type>quarter</type><stem>down</stem><lyric number="1"><syllabic>begin</syllabic><text>tongue</text></lyric></note><note default-y="-15.00" default-x="175.65"><pitch><step>C</step><octave>5</octave></pitch><duration>9</duration><voice>1</voice><type>half</type><dot/><stem>down</stem><lyric number="1"><syllabic>end</syllabic><text>tied</text></lyric></note></measure><measure width="343.46" number="27"><harmony print-frame="no"><root><root-step>D</root-step></root><kind text="7">dominant</kind></harmony><note default-y="-10.00" default-x="32.82"><pitch><step>D</step><octave>5</octave></pitch><duration>3</duration><voice>1</voice><type>quarter</type><stem>down</stem><lyric number="1"><syllabic>single</syllabic><text>young</text></lyric></note><note default-y="-15.00" default-x="118.66"><pitch><step>C</step><octave>5</octave></pitch><duration>6</duration><voice>1</voice><type>half</type><stem>down</stem><lyric number="1"><syllabic>single</syllabic><text>pride,</text></lyric></note><note default-y="-25.00" default-x="256.02"><pitch><step>A</step><octave>4</octave></pitch><duration>3</duration><voice>1</voice><type>quarter</type><stem>up</stem><lyric number="1"><syllabic>single</syllabic><text>would</text></lyric></note></measure><measure width="260.64" number="28"><harmony print-frame="no"><root><root-step>G</root-step></root><kind text="">major</kind></harmony><note default-y="-15.00" default-x="19.06"><pitch><step>C</step><octave>5</octave></pitch><duration>3</duration><voice>1</voice><type>quarter</type><stem>down</stem><lyric number="1"><syllabic>single</syllabic><text>not</text></lyric></note><note default-y="-20.00" default-x="85.72"><pitch><step>B</step><octave>4</octave></pitch><duration>6</duration><voice>1</voice><type>half</type><stem>down</stem><lyric number="1"><syllabic>single</syllabic><text>let</text></lyric></note><note default-y="-25.00" default-x="192.38"><pitch><step>A</step><octave>4</octave></pitch><duration>3</duration><voice>1</voice><type>quarter</type><stem>up</stem><lyric number="1"><syllabic>single</syllabic><text>my</text></lyric></note></measure><measure width="277.83" number="29"><harmony print-frame="no"><root><root-step>E</root-step></root><kind text="m">minor</kind></harmony><note default-y="-30.00" default-x="24.06"><pitch><step>G</step><octave>4</octave></pitch><duration>3</duration><voice>1</voice><type>quarter</type><stem>up</stem><lyric number="1"><syllabic>single</syllabic><text>love</text></lyric></note><note default-y="-35.00" default-x="94.10"><pitch><step>F</step><alter>1</alter><octave>4</octave></pitch><duration>6</duration><voice>1</voice><type>half</type><stem>up</stem><lyric number="1"><syllabic>single</syllabic><text>for</text></lyric></note><note default-y="-40.00" default-x="206.18"><pitch><step>E</step><octave>4</octave></pitch><duration>3</duration><voice>1</voice><type>quarter</type><stem>up</stem><lyric number="1"><syllabic>single</syllabic><text>you</text></lyric></note></measure><measure width="315.17" number="30"><print new-system="yes"><system-layout><system-margins><left-margin>0.00</left-margin><right-margin>0.00</right-margin></system-margins><system-distance>114.97</system-distance></system-layout></print><harmony print-frame="no"><root><root-step>A</root-step></root><kind text="m">minor</kind></harmony><note default-y="-35.00" default-x="64.15"><pitch><step>F</step><alter>1</alter><octave>4</octave></pitch><duration>12</duration><tie type="start"/><voice>1</voice><type>whole</type><notations><tied type="start"/></notations><lyric number="1"><syllabic>single</syllabic><text>show</text><extend/></lyric></note></measure><measure width="396.04" number="31"><note default-y="-35.00" default-x="17.50"><pitch><step>F</step><alter>1</alter><octave>4</octave></pitch><duration>6</duration><tie type="stop"/><voice>1</voice><type>half</type><stem>up</stem><notations><tied type="stop"/></notations></note><note default-y="-35.00" default-x="145.67"><pitch><step>F</step><alter>1</alter><octave>4</octave></pitch><duration>3</duration><voice>1</voice><type>quarter</type><stem>up</stem><lyric number="1"><syllabic>single</syllabic><text>in</text></lyric></note><note default-y="-35.00" default-x="243.70"><pitch><step>F</step><alter>1</alter><octave>4</octave></pitch><duration>1</duration><voice>1</voice><type>eighth</type><time-modification><actual-notes>3</actual-notes><normal-notes>2</normal-notes></time-modification><stem>up</stem><beam number="1">begin</beam><notations><tuplet type="start" bracket="no"/></notations><lyric number="1"><syllabic>single</syllabic><text>case</text></lyric></note><note default-y="-25.00" default-x="293.95"><pitch><step>A</step><octave>4</octave></pitch><duration>1</duration><voice>1</voice><type>eighth</type><time-modification><actual-notes>3</actual-notes><normal-notes>2</normal-notes></time-modification><stem>up</stem><beam number="1">continue</beam><lyric number="1"><syllabic>single</syllabic><text>you'd</text></lyric></note><note default-y="-15.00" default-x="344.19"><pitch><step>C</step><octave>5</octave></pitch><duration>1</duration><voice>1</voice><type>eighth</type><time-modification><actual-notes>3</actual-notes><normal-notes>2</normal-notes></time-modification><stem>up</stem><beam number="1">end</beam><notations><tuplet type="stop"/></notations><lyric number="1"><syllabic>single</syllabic><text>say</text></lyric></note></measure><measure width="238.02" number="32"><harmony print-frame="no"><root><root-step>B</root-step></root><kind text="7">dominant</kind></harmony><note default-y="-20.00" default-x="12.00"><pitch><step>B</step><octave>4</octave></pitch><duration>12</duration><tie type="start"/><voice>1</voice><type>whole</type><notations><tied type="start"/></notations><lyric number="1"><syllabic>single</syllabic><text>no</text><extend/></lyric></note></measure><measure width="265.61" number="33"><note default-y="-20.00" default-x="12.00"><pitch><step>B</step><octave>4</octave></pitch><duration>9</duration><tie type="stop"/><voice>1</voice><type>half</type><dot/><stem>down</stem><notations><tied type="stop"/></notations></note><note default-y="-55.00" default-x="178.61"><pitch><step>B</step><octave>3</octave></pitch><duration>3</duration><voice>1</voice><type>quarter</type><stem>up</stem><lyric number="1"><syllabic>single</syllabic><text>To</text></lyric></note></measure><measure width="359.85" number="34"><print new-system="yes"><system-layout><system-margins><left-margin>0.00</left-margin><right-margin>-0.00</right-margin></system-margins><system-distance>114.97</system-distance></system-layout></print><harmony print-frame="no"><root><root-step>E</root-step></root><kind text="m">minor</kind></harmony><note default-y="-40.00" default-x="82.74"><pitch><step>E</step><octave>4</octave></pitch><duration>3</duration><voice>1</voice><type>quarter</type><stem>up</stem><lyric number="1"><syllabic>begin</syllabic><text>Rus</text></lyric></note><note default-y="-30.00" default-x="159.27"><pitch><step>G</step><octave>4</octave></pitch><duration>6</duration><voice>1</voice><type>half</type><stem>up</stem><lyric number="1"><syllabic>end</syllabic><text>sia</text></lyric></note><note default-y="-40.00" default-x="281.72"><pitch><step>E</step><octave>4</octave></pitch><duration>3</duration><voice>1</voice><type>quarter</type><stem>up</stem><lyric number="1"><syllabic>single</syllabic><text>I</text></lyric></note></measure><measure width="287.04" number="35"><harmony print-frame="no"><root><root-step>C</root-step></root><kind text="">major</kind></harmony><note default-y="-15.00" default-x="24.67"><pitch><step>C</step><octave>5</octave></pitch><duration>9</duration><voice>1</voice><type>half</type><dot/><stem>down</stem><lyric number="1"><syllabic>single</syllabic><text>flew</text></lyric></note><note default-y="-20.00" default-x="197.07"><pitch><step>B</step><octave>4</octave></pitch><duration>3</duration><voice>1</voice><type>quarter</type><stem>down</stem><lyric number="1"><syllabic>single</syllabic><text>but</text></lyric></note></measure><measure width="294.45" number="36"><harmony print-frame="no"><root><root-step>F</root-step></root><kind text="7">dominant</kind></harmony><note default-y="-25.00" default-x="27.17"><pitch><step>A</step><alter>1</alter><octave>4</octave></pitch><duration>9</duration><voice>1</voice><type>half</type><dot/><accidental>sharp</accidental><stem>up</stem><lyric number="1"><syllabic>single</syllabic><text>there</text></lyric></note><note default-y="-20.00" default-x="202.82"><pitch><step>B</step><octave>4</octave></pitch><duration>3</duration><voice>1</voice><type>quarter</type><stem>down</stem><lyric number="1"><syllabic>single</syllabic><text>and</text></lyric></note></measure><measure width="273.49" number="37"><harmony print-frame="no"><root><root-step>B</root-step></root><kind text="7">dominant</kind></harmony><note default-y="-35.00" default-x="24.06"><pitch><step>F</step><alter>1</alter><octave>4</octave></pitch><duration>9</duration><voice>1</voice><type>half</type><dot/><stem>up</stem><lyric number="1"><syllabic>single</syllabic><text>then</text></lyric></note><note default-y="-55.00" default-x="187.91"><pitch><step>B</step><octave>3</octave></pitch><duration>3</duration><voice>1</voice><type>quarter</type><stem>up</stem><lyric number="1"><syllabic>single</syllabic><text>I</text></lyric></note></measure><measure width="262.43" number="38"><print new-system="yes"><system-layout><system-margins><left-margin>0.00</left-margin><right-margin>0.00</right-margin></system-margins><system-distance>114.97</system-distance></system-layout></print><harmony print-frame="no"><root><root-step>E</root-step></root><kind text="m">minor</kind></harmony><note default-y="-40.00" default-x="80.87"><pitch><step>E</step><octave>4</octave></pitch><duration>3</duration><voice>1</voice><type>quarter</type><stem>up</stem><lyric number="1"><syllabic>begin</syllabic><text>sud</text></lyric></note><note default-y="-30.00" default-x="130.86"><pitch><step>G</step><octave>4</octave></pitch><duration>6</duration><voice>1</voice><type>half</type><stem>up</stem><lyric number="1"><syllabic>middle</syllabic><text>den</text></lyric></note><note default-y="-40.00" default-x="210.84"><pitch><step>E</step><octave>4</octave></pitch><duration>3</duration><voice>1</voice><type>quarter</type><stem>up</stem><lyric number="1"><syllabic>end</syllabic><text>ly</text></lyric></note></measure><measure width="208.92" number="39"><note default-y="-10.00" default-x="29.05"><pitch><step>D</step><octave>5</octave></pitch><duration>9</duration><voice>1</voice><type>half</type><dot/><stem>down</stem><lyric number="1"><syllabic>single</syllabic><text>knew</text></lyric></note><note default-y="-15.00" default-x="146.91"><pitch><step>C</step><alter>1</alter><octave>5</octave></pitch><duration>3</duration><voice>1</voice><type>quarter</type><accidental>sharp</accidental><stem>down</stem><lyric number="1"><syllabic>single</syllabic><text>you'd</text></lyric></note></measure><measure width="168.24" number="40"><harmony print-frame="no"><root><root-step>A</root-step></root><kind text="m">minor</kind></harmony><note default-y="-15.00" default-x="23.41"><pitch><step>C</step><octave>5</octave></pitch><duration>9</duration><voice>1</voice><type>half</type><dot/><stem>down</stem><lyric number="1"><syllabic>single</syllabic><text>care</text></lyric></note><note default-y="-20.00" default-x="118.10"><pitch><step>B</step><octave>4</octave></pitch><duration>3</duration><voice>1</voice><type>quarter</type><stem>down</stem><lyric number="1"><syllabic>begin</syllabic><text>a</text></lyric></note></measure><measure width="180.55" number="41"><harmony print-frame="no"><root><root-step>B</root-step></root><kind text="7">dominant</kind></harmony><note default-y="-10.00" default-x="24.06"><pitch><step>D</step><alter>1</alter><octave>5</octave></pitch><duration>9</duration><voice>1</voice><type>half</type><dot/><accidental>sharp</accidental><stem>down</stem><lyric number="1"><syllabic>end</syllabic><text>gain</text></lyric></note><note default-y="-20.00" default-x="126.46"><pitch><step>B</step><octave>4</octave></pitch><duration>3</duration><voice>1</voice><type>quarter</type><stem>down</stem><lyric number="1"><syllabic>single</syllabic><text>my</text></lyric></note></measure><measure width="211.49" number="42"><harmony print-frame="no"><root><root-step>E</root-step></root><kind text="7">dominant</kind></harmony><note default-y="-5.00" default-x="19.68"><pitch><step>E</step><octave>5</octave></pitch><duration>3</duration><voice>1</voice><type>quarter</type><stem>down</stem><lyric number="1"><syllabic>begin</syllabic><text>run</text></lyric></note><note default-y="-20.00" default-x="72.52"><pitch><step>B</step><octave>4</octave></pitch><duration>6</duration><voice>1</voice><type>half</type><stem>down</stem><lyric number="1"><syllabic>end</syllabic><text>ning</text></lyric></note><note default-y="-30.00" default-x="157.06"><pitch><step>G</step><alter>1</alter><octave>4</octave></pitch><duration>3</duration><voice>1</voice><type>quarter</type><accidental>sharp</accidental><stem>up</stem><lyric number="1"><syllabic>begin</syllabic><text>a</text></lyric></note></measure><measure width="183.21" number="43"><note default-y="-40.00" default-x="30.94"><pitch><step>E</step><octave>4</octave></pitch><duration>9</duration><voice>1</voice><type>half</type><dot/><stem>up</stem><lyric number="1"><syllabic>single</syllabic><text>round</text></lyric></note><note default-y="-10.00" default-x="130.55"><pitch><step>D</step><octave>5</octave></pitch><duration>3</duration><voice>1</voice><type>quarter</type><stem>down</stem><lyric number="1"><syllabic>single</syllabic><text>is</text></lyric></note></measure><measure width="268.99" number="44"><print new-system="yes"><system-layout><system-margins><left-margin>0.00</left-margin><right-margin>0.00</right-margin></system-margins><system-distance>114.97</system-distance></system-layout></print><harmony print-frame="no"><root><root-step>A</root-step></root><kind text="m">minor</kind></harmony><note default-y="-10.00" default-x="100.24"><pitch><step>D</step><octave>5</octave></pitch><duration>9</duration><voice>1</voice><type>half</type><dot/><stem>down</stem><lyric number="1"><syllabic>single</syllabic><text>through</text></lyric></note><note default-y="-15.00" default-x="210.75"><pitch><step>C</step><octave>5</octave></pitch><duration>3</duration><voice>1</voice><type>quarter</type><stem>down</stem><lyric number="1"><syllabic>single</syllabic><text>I</text></lyric></note></measure><measure width="177.25" number="45"><note default-y="-20.00" default-x="17.18"><pitch><step>B</step><octave>4</octave></pitch><duration>9</duration><voice>1</voice><type>half</type><dot/><stem>down</stem><lyric number="1"><syllabic>single</syllabic><text>fly</text></lyric></note><note default-y="-35.00" default-x="121.95"><pitch><step>F</step><alter>1</alter><octave>4</octave></pitch><duration>3</duration><voice>1</voice><type>quarter</type><stem>up</stem><lyric number="1"><syllabic>single</syllabic><text>to</text></lyric></note></measure><measure width="204.53" number="46"><harmony print-frame="no"><root><root-step>E</root-step></root><kind text="m">minor</kind></harmony><note default-y="-15.00" default-x="21.56"><pitch><step>C</step><octave>5</octave></pitch><duration>9</duration><voice>1</voice><type>half</type><dot/><stem>down</stem><lyric number="1"><syllabic>single</syllabic><text>you</text></lyric></note><note default-y="-20.00" default-x="141.47"><pitch><step>B</step><octave>4</octave></pitch><duration>3</duration><voice>1</voice><type>quarter</type><stem>down</stem><lyric number="1"><syllabic>single</syllabic><text>from</text></lyric></note></measure><measure width="229.09" number="47"><harmony print-frame="no"><root><root-step>B</root-step></root><kind text="7">dominant</kind></harmony><note default-y="-10.00" default-x="22.19"><pitch><step>D</step><alter>1</alter><octave>5</octave></pitch><duration>3</duration><voice>1</voice><type>quarter</type><accidental>sharp</accidental><stem>down</stem><lyric number="1"><syllabic>begin</syllabic><text>Rus</text></lyric></note><note default-y="-15.00" default-x="79.22"><pitch><step>C</step><octave>5</octave></pitch><duration>6</duration><voice>1</voice><type>half</type><stem>down</stem><lyric number="1"><syllabic>end</syllabic><text>sia</text></lyric></note><note default-y="-20.00" default-x="170.46"><pitch><step>B</step><octave>4</octave></pitch><duration>3</duration><voice>1</voice><type>quarter</type><stem>down</stem><lyric number="1"><syllabic>single</syllabic><text>with</text></lyric></note></measure><measure width="169.20" number="48"><harmony print-frame="no"><root><root-step>E</root-step></root><kind text="m">minor</kind></harmony><note default-y="-5.00" default-x="12.00"><pitch><step>E</step><octave>5</octave></pitch><duration>12</duration><tie type="start"/><voice>1</voice><type>whole</type><notations><tied type="start"/></notations><lyric number="1"><syllabic>single</syllabic><text>love.</text><extend/></lyric></note></measure><measure width="165.78" number="49"><note default-y="-5.00" default-x="12.00"><pitch><step>E</step><octave>5</octave></pitch><duration>9</duration><tie type="stop"/><voice>1</voice><type>half</type><dot/><stem>down</stem><notations><tied type="stop"/></notations></note><note><rest/><duration>3</duration><voice>1</voice><type>quarter</type></note><barline location="right"><bar-style>light-heavy</bar-style></barline></measure></part></score-partwise>