<score-partwise version="2.0"><work><work-number/><work-title/></work><movement-number/><movement-title>Alright, Okay You Win</movement-title><identification><creator type="composer">Mayme Watts</creator><creator type="poet">Sid Wyche</creator><rights>All Rights Reserved</rights><encoding><software>MuseScore 0.9.5</software><encoding-date>2010-04-20</encoding-date><software>ProxyMusic 2.0 c</software></encoding><source>http://wikifonia.org/node/5513/revisions/7486/view</source></identification><defaults><scaling><millimeters>7.056</millimeters><tenths>40</tenths></scaling><page-layout><page-height>1583.9</page-height><page-width>1223.92</page-width><page-margins type="both"><left-margin>56.6893</left-margin><right-margin>56.6893</right-margin><top-margin>56.6893</top-margin><bottom-margin>113.379</bottom-margin></page-margins></page-layout></defaults><credit page="1"><credit-words font-size="24" default-y="1527.21" default-x="611.961" justify="center" valign="top">Alright, Okay You Win</credit-words></credit><part-list><score-part id="P1"><part-name>Voice</part-name><score-instrument id="P1-I3"><instrument-name>Voice</instrument-name></score-instrument><midi-instrument id="P1-I3"><midi-channel>1</midi-channel><midi-program>53</midi-program></midi-instrument></score-part></part-list><part id="P1"><measure width="359.87" number="1"><print><system-layout><system-margins><left-margin>69.92</left-margin><right-margin>-0.00</right-margin></system-margins><top-system-distance>210.54</top-system-distance></system-layout></print><attributes><divisions>12</divisions><key><fifths>-3</fifths><mode>major</mode></key><time><beats>4</beats><beat-type>4</beat-type></time><clef><sign>G</sign><line>2</line></clef></attributes><note><rest/><duration>24</duration><voice>1</voice><type>half</type></note><note><rest/><duration>9</duration><voice>1</voice><type>eighth</type><dot/></note><note default-y="-50.00" default-x="235.88"><pitch><step>C</step><octave>4</octave></pitch><duration>3</duration><voice>1</voice><type>16th</type><stem>up</stem><beam number="1">begin</beam><lyric number="1"><syllabic>single</syllabic><text>Well</text></lyric></note><note default-y="-45.00" default-x="270.84"><pitch><step>D</step><octave>4</octave></pitch><duration>9</duration><voice>1</voice><type>eighth</type><dot/><stem>up</stem><beam number="1">continue</beam><lyric number="1"><syllabic>begin</syllabic><text>al</text></lyric></note><note default-y="-40.00" default-x="323.20"><pitch><step>E</step><alter>-1</alter><octave>4</octave></pitch><duration>3</duration><tie type="start"/><voice>1</voice><type>16th</type><stem>up</stem><beam number="1">end</beam><notations><tied type="start"/></notations><lyric number="1"><syllabic>end</syllabic><text>right,</text></lyric></note></measure><measure width="221.49" number="2"><harmony print-frame="no"><root><root-step>E</root-step><root-alter>-1</root-alter></root><kind text="">major</kind></harmony><note default-y="-40.00" default-x="15.00"><pitch><step>E</step><alter>-1</alter><octave>4</octave></pitch><duration>12</duration><tie type="stop"/><voice>1</voice><type>quarter</type><stem>up</stem><notations><tied type="stop"/></notations></note><note><rest/><duration>12</duration><voice>1</voice><type>quarter</type></note><note><rest/><duration>12</duration><voice>1</voice><type>quarter</type></note><harmony print-frame="no"><root><root-step>B</root-step><root-alter>-1</root-alter></root><kind text="+">augmented</kind></harmony><note default-y="-30.00" default-x="150.57"><pitch><step>G</step><alter>-1</alter><octave>4</octave></pitch><duration>9</duration><voice>1</voice><type>eighth</type><dot/><accidental>flat</accidental><stem>up</stem><beam number="1">begin</beam><lyric number="1"><syllabic>begin</syllabic><text>O</text></lyric></note><note default-y="-40.00" default-x="190.65"><pitch><step>E</step><alter>-1</alter><octave>4</octave></pitch><duration>3</duration><tie type="start"/><voice>1</voice><type>16th</type><stem>up</stem><beam number="1">end</beam><notations><tied type="start"/></notations><lyric number="1"><syllabic>end</syllabic><text>kay,</text></lyric></note></measure><measure width="239.30" number="3"><harmony print-frame="no"><root><root-step>E</root-step><root-alter>-1</root-alter></root><kind text="">major</kind></harmony><note default-y="-40.00" default-x="15.00"><pitch><step>E</step><alter>-1</alter><octave>4</octave></pitch><duration>12</duration><tie type="stop"/><voice>1</voice><type>quarter</type><stem>up</stem><notations><tied type="stop"/></notations></note><note><rest/><duration>12</duration><voice>1</voice><type>quarter</type></note><note><rest/><duration>12</duration><voice>1</voice><type>quarter</type></note><harmony print-frame="no"><root><root-step>B</root-step><root-alter>-1</root-alter></root><kind text="+">augmented</kind></harmony><note default-y="-35.00" default-x="163.20"><pitch><step>F</step><alter>1</alter><octave>4</octave></pitch><duration>9</duration><voice>1</voice><type>eighth</type><dot/><accidental>sharp</accidental><stem>up</stem><beam number="1">begin</beam><lyric number="1"><syllabic>single</syllabic><text>You</text></lyric></note><note default-y="-30.00" default-x="207.01"><pitch><step>G</step><octave>4</octave></pitch><duration>3</duration><tie type="start"/><voice>1</voice><type>16th</type><stem>up</stem><beam number="1">end</beam><notations><tied type="start"/></notations><lyric number="1"><syllabic>single</syllabic><text>win,</text></lyric></note></measure><measure width="219.96" number="4"><harmony print-frame="no"><root><root-step>E</root-step><root-alter>-1</root-alter></root><kind text="">major</kind></harmony><note default-y="-30.00" default-x="15.00"><pitch><step>G</step><octave>4</octave></pitch><duration>12</duration><tie type="stop"/><voice>1</voice><type>quarter</type><stem>up</stem><notations><tied type="stop"/></notations></note><note><rest/><duration>12</duration><voice>1</voice><type>quarter</type></note><note><rest/><duration>9</duration><voice>1</voice><type>eighth</type><dot/></note><note default-y="-55.00" default-x="139.27"><pitch><step>B</step><alter>-1</alter><octave>3</octave></pitch><duration>3</duration><voice>1</voice><type>16th</type><stem>up</stem><lyric number="1"><syllabic>single</syllabic><text>I'm</text></lyric></note><note default-y="-50.00" default-x="175.32"><pitch><step>C</step><octave>4</octave></pitch><duration>12</duration><voice>1</voice><type>quarter</type><stem>up</stem><lyric number="1"><syllabic>single</syllabic><text>in</text></lyric></note></measure><measure width="431.22" number="5"><print new-system="yes"><system-layout><system-margins><left-margin>47.28</left-margin><right-margin>-0.00</right-margin></system-margins><system-distance>135.74</system-distance></system-layout></print><harmony print-frame="no"><root><root-step>E</root-step><root-alter>-1</root-alter></root><kind text="7">dominant</kind></harmony><note default-y="-40.00" default-x="107.67"><pitch><step>E</step><alter>-1</alter><octave>4</octave></pitch><duration>12</duration><voice>1</voice><type>quarter</type><stem>up</stem><lyric number="1"><syllabic>single</syllabic><text>love</text></lyric></note><note default-y="-35.00" default-x="169.58"><pitch><step>F</step><octave>4</octave></pitch><duration>9</duration><voice>1</voice><type>eighth</type><dot/><stem>up</stem><beam number="1">begin</beam><lyric number="1"><syllabic>single</syllabic><text>with</text></lyric></note><note default-y="-30.00" default-x="224.47"><pitch><step>G</step><alter>-1</alter><octave>4</octave></pitch><duration>3</duration><tie type="start"/><voice>1</voice><type>16th</type><accidental>flat</accidental><stem>up</stem><beam number="1">end</beam><notations><tied type="start"/></notations><lyric number="1"><syllabic>single</syllabic><text>you,</text></lyric></note><note default-y="-30.00" default-x="252.61"><pitch><step>G</step><alter>-1</alter><octave>4</octave></pitch><duration>9</duration><tie type="stop"/><voice>1</voice><type>eighth</type><dot/><accidental>flat</accidental><stem>up</stem><beam number="1">begin</beam><notations><tied type="stop"/></notations></note><note default-y="-55.00" default-x="307.51"><pitch><step>B</step><octave>3</octave></pitch><duration>3</duration><voice>1</voice><type>16th</type><accidental>natural</accidental><stem>up</stem><beam number="1">continue</beam><lyric number="1"><syllabic>single</syllabic><text>Well</text></lyric></note><note default-y="-50.00" default-x="342.47"><pitch><step>C</step><octave>4</octave></pitch><duration>9</duration><voice>1</voice><type>eighth</type><dot/><stem>up</stem><beam number="1">continue</beam><lyric number="1"><syllabic>begin</syllabic><text>al</text></lyric></note><note default-y="-40.00" default-x="397.37"><pitch><step>E</step><alter>-1</alter><octave>4</octave></pitch><duration>3</duration><tie type="start"/><voice>1</voice><type>16th</type><stem>up</stem><beam number="1">end</beam><notations><tied type="start"/></notations><lyric number="1"><syllabic>end</syllabic><text>right</text></lyric></note></measure><measure width="198.64" number="6"><harmony print-frame="no"><root><root-step>A</root-step><root-alter>-1</root-alter></root><kind text="">major</kind></harmony><note default-y="-40.00" default-x="15.00"><pitch><step>E</step><alter>-1</alter><octave>4</octave></pitch><duration>12</duration><tie type="stop"/><voice>1</voice><type>quarter</type><stem>up</stem><notations><tied type="stop"/></notations></note><note><rest/><duration>12</duration><voice>1</voice><type>quarter</type></note><note><rest/><duration>12</duration><voice>1</voice><type>quarter</type></note><note default-y="-35.00" default-x="131.35"><pitch><step>F</step><octave>4</octave></pitch><duration>9</duration><voice>1</voice><type>eighth</type><dot/><stem>up</stem><beam number="1">begin</beam><lyric number="1"><syllabic>begin</syllabic><text>O</text></lyric></note><note default-y="-40.00" default-x="167.80"><pitch><step>E</step><alter>-1</alter><octave>4</octave></pitch><duration>3</duration><tie type="start"/><voice>1</voice><type>16th</type><stem>up</stem><beam number="1">end</beam><notations><tied type="start"/></notations><lyric number="1"><syllabic>end</syllabic><text>kay,</text></lyric></note></measure><measure width="217.47" number="7"><note default-y="-40.00" default-x="15.00"><pitch><step>E</step><alter>-1</alter><octave>4</octave></pitch><duration>12</duration><tie type="stop"/><voice>1</voice><type>quarter</type><stem>up</stem><notations><tied type="stop"/></notations></note><note><rest/><duration>12</duration><voice>1</voice><type>quarter</type></note><note><rest/><duration>12</duration><voice>1</voice><type>quarter</type></note><note default-y="-15.00" default-x="141.38"><pitch><step>C</step><octave>5</octave></pitch><duration>9</duration><voice>1</voice><type>eighth</type><dot/><stem>down</stem><beam number="1">begin</beam><lyric number="1"><syllabic>single</syllabic><text>You</text></lyric></note><note default-y="-20.00" default-x="185.19"><pitch><step>B</step><alter>-1</alter><octave>4</octave></pitch><duration>3</duration><tie type="start"/><voice>1</voice><type>16th</type><stem>down</stem><beam number="1">end</beam><notations><tied type="start"/></notations><lyric number="1"><syllabic>single</syllabic><text>win,</text><extend/></lyric></note></measure><measure width="215.94" number="8"><harmony print-frame="no"><root><root-step>E</root-step><root-alter>-1</root-alter></root><kind text="">major</kind></harmony><note default-y="-20.00" default-x="15.00"><pitch><step>B</step><alter>-1</alter><octave>4</octave></pitch><duration>9</duration><tie type="stop"/><voice>1</voice><type>eighth</type><dot/><stem>up</stem><beam number="1">begin</beam><notations><tied type="stop"/></notations></note><note default-y="-30.00" default-x="51.40"><pitch><step>G</step><octave>4</octave></pitch><duration>3</duration><voice>1</voice><type>16th</type><stem>up</stem><beam number="1">end</beam></note><note><rest/><duration>12</duration><voice>1</voice><type>quarter</type></note><note><rest/><duration>6</duration><voice>1</voice><type>eighth</type></note><note default-y="-30.00" default-x="140.97"><pitch><step>G</step><octave>4</octave></pitch><duration>12</duration><voice>1</voice><type>quarter</type><stem>up</stem><lyric number="1"><syllabic>begin</syllabic><text>ba</text></lyric></note><note default-y="-35.00" default-x="182.02"><pitch><step>F</step><alter>1</alter><octave>4</octave></pitch><duration>6</duration><voice>1</voice><type>eighth</type><accidental>sharp</accidental><stem>up</stem><lyric number="1"><syllabic>end</syllabic><text>by,</text></lyric></note></measure><measure width="432.71" number="9"><print new-system="yes"><system-layout><system-margins><left-margin>47.28</left-margin><right-margin>-0.00</right-margin></system-margins><system-distance>135.74</system-distance></system-layout></print><note default-y="-30.00" default-x="110.17"><pitch><step>G</step><octave>4</octave></pitch><duration>9</duration><voice>1</voice><type>eighth</type><dot/><stem>up</stem><beam number="1">begin</beam><lyric number="1"><syllabic>single</syllabic><text>what</text></lyric></note><note default-y="-40.00" default-x="165.57"><pitch><step>E</step><alter>-1</alter><octave>4</octave></pitch><duration>3</duration><voice>1</voice><type>16th</type><stem>up</stem><beam number="1">continue</beam><lyric number="1"><syllabic>single</syllabic><text>can</text></lyric></note><note default-y="-50.00" default-x="193.97"><pitch><step>C</step><octave>4</octave></pitch><duration>9</duration><voice>1</voice><type>eighth</type><dot/><stem>up</stem><beam number="1">continue</beam><lyric number="1"><syllabic>single</syllabic><text>I</text></lyric></note><note default-y="-55.00" default-x="249.37"><pitch><step>B</step><alter>-1</alter><octave>3</octave></pitch><duration>3</duration><tie type="start"/><voice>1</voice><type>16th</type><stem>up</stem><beam number="1">end</beam><notations><tied type="start"/></notations><lyric number="1"><syllabic>single</syllabic><text>do?</text><extend/></lyric></note><note default-y="-55.00" default-x="277.77"><pitch><step>B</step><alter>-1</alter><octave>3</octave></pitch><duration>12</duration><tie type="stop"/><voice>1</voice><type>quarter</type><stem>up</stem><notations><tied type="stop"/></notations></note><note><rest/><duration>6</duration><voice>1</voice><type>eighth</type></note><note default-y="-25.00" default-x="385.67"><pitch><step>A</step><alter>-1</alter><octave>4</octave></pitch><duration>6</duration><tie type="start"/><voice>1</voice><type>eighth</type><stem>up</stem><notations><tied type="start"/></notations><lyric number="1"><syllabic>single</syllabic><text>I'll</text></lyric></note></measure><measure width="386.65" number="10"><harmony print-frame="no"><root><root-step>B</root-step><root-alter>-1</root-alter></root><kind text="7">dominant</kind></harmony><note default-y="-25.00" default-x="15.00"><pitch><step>A</step><alter>-1</alter><octave>4</octave></pitch><duration>9</duration><tie type="stop"/><voice>1</voice><type>eighth</type><dot/><stem>up</stem><beam number="1">begin</beam><notations><tied type="stop"/></notations></note><note default-y="-35.00" default-x="75.50"><pitch><step>F</step><octave>4</octave></pitch><duration>3</duration><voice>1</voice><type>16th</type><stem>up</stem><beam number="1">end</beam><lyric number="1"><syllabic>single</syllabic><text>do</text></lyric></note><note default-y="-25.00" default-x="106.51"><pitch><step>A</step><alter>-1</alter><octave>4</octave></pitch><duration>4</duration><voice>1</voice><type>eighth</type><time-modification><actual-notes>3</actual-notes><normal-notes>2</normal-notes></time-modification><stem>up</stem><beam number="1">begin</beam><notations><tuplet type="start" bracket="no"/></notations><lyric number="1"><syllabic>begin</syllabic><text>an</text></lyric></note><note default-y="-30.00" default-x="145.24"><pitch><step>G</step><octave>4</octave></pitch><duration>4</duration><voice>1</voice><type>eighth</type><time-modification><actual-notes>3</actual-notes><normal-notes>2</normal-notes></time-modification><stem>up</stem><beam number="1">continue</beam><lyric number="1"><syllabic>middle</syllabic><text>y</text></lyric></note><note default-y="-25.00" default-x="186.58"><pitch><step>A</step><alter>-1</alter><octave>4</octave></pitch><duration>4</duration><tie type="start"/><voice>1</voice><type>eighth</type><time-modification><actual-notes>3</actual-notes><normal-notes>2</normal-notes></time-modification><stem>up</stem><beam number="1">end</beam><notations><tied type="start"/><tuplet type="stop"/></notations><lyric number="1"><syllabic>end</syllabic><text>thing</text></lyric></note><note default-y="-25.00" default-x="225.32"><pitch><step>A</step><alter>-1</alter><octave>4</octave></pitch><duration>12</duration><tie type="stop"/><voice>1</voice><type>quarter</type><stem>up</stem><notations><tied type="stop"/></notations></note><note default-y="-25.00" default-x="293.54"><pitch><step>A</step><octave>4</octave></pitch><duration>9</duration><voice>1</voice><type>eighth</type><dot/><accidental>natural</accidental><stem>up</stem><beam number="1">begin</beam><lyric number="1"><syllabic>single</syllabic><text>you</text></lyric></note><note default-y="-20.00" default-x="354.04"><pitch><step>B</step><alter>-1</alter><octave>4</octave></pitch><duration>3</duration><tie type="start"/><voice>1</voice><type>16th</type><stem>up</stem><beam number="1">end</beam><notations><tied type="start"/></notations><lyric number="1"><syllabic>single</syllabic><text>say</text></lyric></note></measure><measure width="243.91" number="11"><harmony print-frame="no"><root><root-step>A</root-step><root-alter>-1</root-alter></root><kind text="9">dominant-ninth</kind></harmony><note default-y="-20.00" default-x="15.00"><pitch><step>B</step><alter>-1</alter><octave>4</octave></pitch><duration>12</duration><tie type="stop"/><voice>1</voice><type>quarter</type><stem>down</stem><notations><tied type="stop"/></notations></note><note><rest/><duration>12</duration><voice>1</voice><type>quarter</type></note><note><rest/><duration>12</duration><voice>1</voice><type>quarter</type></note><note><rest/><duration>9</duration><voice>1</voice><type>eighth</type><dot/></note><note default-y="-40.00" default-x="209.99"><pitch><step>E</step><alter>-1</alter><octave>4</octave></pitch><duration>3</duration><voice>1</voice><type>16th</type><stem>up</stem><lyric number="1"><syllabic>single</syllabic><text>It's</text></lyric><lyric number="2"><syllabic>single</syllabic><text>as</text></lyric></note></measure><measure width="375.34" number="12"><print new-system="yes"><system-layout><system-margins><left-margin>47.28</left-margin><right-margin>-0.00</right-margin></system-margins><system-distance>161.90</system-distance></system-layout></print><harmony print-frame="no"><root><root-step>E</root-step><root-alter>-1</root-alter></root><kind text="">major</kind></harmony><note default-y="-20.00" default-x="104.55"><pitch><step>B</step><alter>-1</alter><octave>4</octave></pitch><duration>12</duration><voice>1</voice><type>quarter</type><stem>down</stem><lyric number="1"><syllabic>single</syllabic><text>just</text></lyric></note><note default-y="-25.00" default-x="159.84"><pitch><step>A</step><alter>-1</alter><octave>4</octave></pitch><duration>9</duration><voice>1</voice><type>eighth</type><dot/><stem>up</stem><beam number="1">begin</beam><lyric number="1"><syllabic>begin</syllabic><text>got</text></lyric></note><note default-y="-20.00" default-x="208.87"><pitch><step>B</step><alter>-1</alter><octave>4</octave></pitch><duration>3</duration><voice>1</voice><type>16th</type><stem>up</stem><beam number="1">end</beam><lyric number="1"><syllabic>end</syllabic><text>ta</text></lyric></note><harmony print-frame="no"><root><root-step>A</root-step><root-alter>-1</root-alter></root><kind text="7">dominant</kind></harmony><note default-y="-30.00" default-x="237.67"><pitch><step>G</step><alter>-1</alter><octave>4</octave></pitch><duration>12</duration><voice>1</voice><type>quarter</type><accidental>flat</accidental><stem>up</stem><lyric number="1"><syllabic>single</syllabic><text>be</text></lyric></note><note default-y="-40.00" default-x="292.96"><pitch><step>E</step><alter>-1</alter><octave>4</octave></pitch><duration>9</duration><voice>1</voice><type>eighth</type><dot/><stem>up</stem><beam number="1">begin</beam><lyric number="1"><syllabic>single</syllabic><text>that</text></lyric></note><note default-y="-40.00" default-x="341.99"><pitch><step>E</step><alter>-1</alter><octave>4</octave></pitch><duration>3</duration><tie type="start"/><voice>1</voice><type>16th</type><stem>up</stem><beam number="1">end</beam><notations><tied type="start"/></notations><lyric number="1"><syllabic>single</syllabic><text>way.</text></lyric></note></measure><measure width="261.96" number="13"><note default-y="-40.00" default-x="15.00"><pitch><step>E</step><alter>-1</alter><octave>4</octave></pitch><duration>12</duration><tie type="stop"/><voice>1</voice><type>quarter</type><stem>up</stem><notations><tied type="stop"/></notations></note><note><rest/><duration>12</duration><voice>1</voice><type>quarter</type></note><note><rest/><duration>9</duration><voice>1</voice><type>eighth</type><dot/></note><note default-y="-50.00" default-x="148.06"><pitch><step>C</step><octave>4</octave></pitch><duration>3</duration><voice>1</voice><type>16th</type><stem>up</stem><beam number="1">begin</beam><lyric number="1"><syllabic>single</syllabic><text>Well</text></lyric></note><note default-y="-45.00" default-x="183.02"><pitch><step>D</step><octave>4</octave></pitch><duration>9</duration><voice>1</voice><type>eighth</type><dot/><stem>up</stem><beam number="1">continue</beam><lyric number="1"><syllabic>begin</syllabic><text>al</text></lyric></note><note default-y="-40.00" default-x="225.29"><pitch><step>E</step><alter>-1</alter><octave>4</octave></pitch><duration>3</duration><tie type="start"/><voice>1</voice><type>16th</type><stem>up</stem><beam number="1">end</beam><notations><tied type="start"/></notations><lyric number="1"><syllabic>end</syllabic><text>right,</text></lyric></note></measure><measure width="204.08" number="14"><harmony print-frame="no"><root><root-step>E</root-step><root-alter>-1</root-alter></root><kind text="">major</kind></harmony><note default-y="-40.00" default-x="15.00"><pitch><step>E</step><alter>-1</alter><octave>4</octave></pitch><duration>12</duration><tie type="stop"/><voice>1</voice><type>quarter</type><stem>up</stem><notations><tied type="stop"/></notations></note><note><rest/><duration>12</duration><voice>1</voice><type>quarter</type></note><note><rest/><duration>12</duration><voice>1</voice><type>quarter</type></note><harmony print-frame="no"><root><root-step>B</root-step><root-alter>-1</root-alter></root><kind text="+">augmented</kind></harmony><note default-y="-30.00" default-x="136.79"><pitch><step>G</step><alter>-1</alter><octave>4</octave></pitch><duration>9</duration><voice>1</voice><type>eighth</type><dot/><accidental>flat</accidental><stem>up</stem><beam number="1">begin</beam><lyric number="1"><syllabic>begin</syllabic><text>O</text></lyric></note><note default-y="-40.00" default-x="173.24"><pitch><step>E</step><alter>-1</alter><octave>4</octave></pitch><duration>3</duration><tie type="start"/><voice>1</voice><type>16th</type><stem>up</stem><beam number="1">end</beam><notations><tied type="start"/></notations><lyric number="1"><syllabic>end</syllabic><text>kay,</text></lyric></note></measure><measure width="221.89" number="15"><harmony print-frame="no"><root><root-step>E</root-step><root-alter>-1</root-alter></root><kind text="">major</kind></harmony><note default-y="-40.00" default-x="15.00"><pitch><step>E</step><alter>-1</alter><octave>4</octave></pitch><duration>12</duration><tie type="stop"/><voice>1</voice><type>quarter</type><stem>up</stem><notations><tied type="stop"/></notations></note><note><rest/><duration>12</duration><voice>1</voice><type>quarter</type></note><note><rest/><duration>12</duration><voice>1</voice><type>quarter</type></note><harmony print-frame="no"><root><root-step>B</root-step><root-alter>-1</root-alter></root><kind text="+">augmented</kind></harmony><note default-y="-35.00" default-x="145.79"><pitch><step>F</step><alter>1</alter><octave>4</octave></pitch><duration>9</duration><voice>1</voice><type>eighth</type><dot/><accidental>sharp</accidental><stem>up</stem><beam number="1">begin</beam><lyric number="1"><syllabic>single</syllabic><text>You</text></lyric></note><note default-y="-30.00" default-x="189.60"><pitch><step>G</step><octave>4</octave></pitch><duration>3</duration><tie type="start"/><voice>1</voice><type>16th</type><stem>up</stem><beam number="1">end</beam><notations><tied type="start"/></notations><lyric number="1"><syllabic>single</syllabic><text>win,</text></lyric></note></measure><measure width="276.76" number="16"><print new-system="yes"><system-layout><system-margins><left-margin>47.28</left-margin><right-margin>-0.00</right-margin></system-margins><system-distance>135.74</system-distance></system-layout></print><harmony print-frame="no"><root><root-step>E</root-step><root-alter>-1</root-alter></root><kind text="">major</kind></harmony><note default-y="-30.00" default-x="87.30"><pitch><step>G</step><octave>4</octave></pitch><duration>12</duration><tie type="stop"/><voice>1</voice><type>quarter</type><stem>up</stem><notations><tied type="stop"/></notations></note><note><rest/><duration>12</duration><voice>1</voice><type>quarter</type></note><note><rest/><duration>9</duration><voice>1</voice><type>eighth</type><dot/></note><note default-y="-55.00" default-x="200.05"><pitch><step>B</step><alter>-1</alter><octave>3</octave></pitch><duration>3</duration><voice>1</voice><type>16th</type><stem>up</stem><lyric number="1"><syllabic>single</syllabic><text>I'm</text></lyric></note><note default-y="-50.00" default-x="236.10"><pitch><step>C</step><octave>4</octave></pitch><duration>12</duration><voice>1</voice><type>quarter</type><stem>up</stem><lyric number="1"><syllabic>single</syllabic><text>in</text></lyric></note></measure><measure width="357.75" number="17"><harmony print-frame="no"><root><root-step>E</root-step><root-alter>-1</root-alter></root><kind text="7">dominant</kind></harmony><note default-y="-40.00" default-x="27.87"><pitch><step>E</step><alter>-1</alter><octave>4</octave></pitch><duration>12</duration><voice>1</voice><type>quarter</type><stem>up</stem><lyric number="1"><syllabic>single</syllabic><text>love</text></lyric></note><note default-y="-35.00" default-x="91.31"><pitch><step>F</step><octave>4</octave></pitch><duration>9</duration><voice>1</voice><type>eighth</type><dot/><stem>up</stem><beam number="1">begin</beam><lyric number="1"><syllabic>single</syllabic><text>with</text></lyric></note><note default-y="-30.00" default-x="147.57"><pitch><step>G</step><alter>-1</alter><octave>4</octave></pitch><duration>3</duration><tie type="start"/><voice>1</voice><type>16th</type><accidental>flat</accidental><stem>up</stem><beam number="1">end</beam><notations><tied type="start"/></notations><lyric number="1"><syllabic>single</syllabic><text>you,</text></lyric></note><note default-y="-30.00" default-x="176.41"><pitch><step>G</step><alter>-1</alter><octave>4</octave></pitch><duration>9</duration><tie type="stop"/><voice>1</voice><type>eighth</type><dot/><accidental>flat</accidental><stem>up</stem><beam number="1">begin</beam><notations><tied type="stop"/></notations></note><note default-y="-55.00" default-x="232.67"><pitch><step>B</step><octave>3</octave></pitch><duration>3</duration><voice>1</voice><type>16th</type><accidental>natural</accidental><stem>up</stem><beam number="1">continue</beam><lyric number="1"><syllabic>single</syllabic><text>Well</text></lyric></note><note default-y="-50.00" default-x="267.63"><pitch><step>C</step><octave>4</octave></pitch><duration>9</duration><voice>1</voice><type>eighth</type><dot/><stem>up</stem><beam number="1">continue</beam><lyric number="1"><syllabic>begin</syllabic><text>al</text></lyric></note><note default-y="-40.00" default-x="323.89"><pitch><step>E</step><alter>-1</alter><octave>4</octave></pitch><duration>3</duration><tie type="start"/><voice>1</voice><type>16th</type><stem>up</stem><beam number="1">end</beam><notations><tied type="start"/></notations><lyric number="1"><syllabic>end</syllabic><text>right</text></lyric></note></measure><measure width="204.97" number="18"><harmony print-frame="no"><root><root-step>A</root-step><root-alter>-1</root-alter></root><kind text="">major</kind></harmony><note default-y="-40.00" default-x="15.00"><pitch><step>E</step><alter>-1</alter><octave>4</octave></pitch><duration>12</duration><tie type="stop"/><voice>1</voice><type>quarter</type><stem>up</stem><notations><tied type="stop"/></notations></note><note><rest/><duration>12</duration><voice>1</voice><type>quarter</type></note><note><rest/><duration>12</duration><voice>1</voice><type>quarter</type></note><note default-y="-35.00" default-x="137.68"><pitch><step>F</step><octave>4</octave></pitch><duration>9</duration><voice>1</voice><type>eighth</type><dot/><stem>up</stem><beam number="1">begin</beam><lyric number="1"><syllabic>begin</syllabic><text>O</text></lyric></note><note default-y="-40.00" default-x="174.12"><pitch><step>E</step><alter>-1</alter><octave>4</octave></pitch><duration>3</duration><tie type="start"/><voice>1</voice><type>16th</type><stem>up</stem><beam number="1">end</beam><notations><tied type="start"/></notations><lyric number="1"><syllabic>end</syllabic><text>kay,</text></lyric></note></measure><measure width="223.79" number="19"><note default-y="-40.00" default-x="15.00"><pitch><step>E</step><alter>-1</alter><octave>4</octave></pitch><duration>12</duration><tie type="stop"/><voice>1</voice><type>quarter</type><stem>up</stem><notations><tied type="stop"/></notations></note><note><rest/><duration>12</duration><voice>1</voice><type>quarter</type></note><note><rest/><duration>12</duration><voice>1</voice><type>quarter</type></note><note default-y="-15.00" default-x="147.70"><pitch><step>C</step><octave>5</octave></pitch><duration>9</duration><voice>1</voice><type>eighth</type><dot/><stem>down</stem><beam number="1">begin</beam><lyric number="1"><syllabic>single</syllabic><text>You</text></lyric></note><note default-y="-20.00" default-x="191.51"><pitch><step>B</step><alter>-1</alter><octave>4</octave></pitch><duration>3</duration><tie type="start"/><voice>1</voice><type>16th</type><stem>down</stem><beam number="1">end</beam><notations><tied type="start"/></notations><lyric number="1"><syllabic>single</syllabic><text>win,</text><extend/></lyric></note></measure><measure width="281.47" number="20"><print new-system="yes"><system-layout><system-margins><left-margin>47.28</left-margin><right-margin>-0.00</right-margin></system-margins><system-distance>135.74</system-distance></system-layout></print><harmony print-frame="no"><root><root-step>E</root-step><root-alter>-1</root-alter></root><kind text="">major</kind></harmony><note default-y="-20.00" default-x="87.30"><pitch><step>B</step><alter>-1</alter><octave>4</octave></pitch><duration>9</duration><tie type="stop"/><voice>1</voice><type>eighth</type><dot/><stem>up</stem><beam number="1">begin</beam><notations><tied type="stop"/></notations></note><note default-y="-30.00" default-x="122.23"><pitch><step>G</step><octave>4</octave></pitch><duration>3</duration><voice>1</voice><type>16th</type><stem>up</stem><beam number="1">end</beam></note><note><rest/><duration>12</duration><voice>1</voice><type>quarter</type></note><note><rest/><duration>6</duration><voice>1</voice><type>eighth</type></note><note default-y="-30.00" default-x="208.16"><pitch><step>G</step><octave>4</octave></pitch><duration>12</duration><voice>1</voice><type>quarter</type><stem>up</stem><lyric number="1"><syllabic>begin</syllabic><text>ba</text></lyric></note><note default-y="-35.00" default-x="247.55"><pitch><step>F</step><alter>1</alter><octave>4</octave></pitch><duration>6</duration><voice>1</voice><type>eighth</type><accidental>sharp</accidental><stem>up</stem><lyric number="1"><syllabic>end</syllabic><text>by,</text></lyric></note></measure><measure width="286.99" number="21"><note default-y="-30.00" default-x="30.37"><pitch><step>G</step><octave>4</octave></pitch><duration>9</duration><voice>1</voice><type>eighth</type><dot/><stem>up</stem><beam number="1">begin</beam><lyric number="1"><syllabic>single</syllabic><text>what</text></lyric></note><note default-y="-40.00" default-x="73.87"><pitch><step>E</step><alter>-1</alter><octave>4</octave></pitch><duration>3</duration><voice>1</voice><type>16th</type><stem>up</stem><beam number="1">continue</beam><lyric number="1"><syllabic>single</syllabic><text>can</text></lyric></note><note default-y="-50.00" default-x="99.19"><pitch><step>C</step><octave>4</octave></pitch><duration>9</duration><voice>1</voice><type>eighth</type><dot/><stem>up</stem><beam number="1">continue</beam><lyric number="1"><syllabic>single</syllabic><text>I</text></lyric></note><note default-y="-55.00" default-x="142.69"><pitch><step>B</step><alter>-1</alter><octave>3</octave></pitch><duration>3</duration><tie type="start"/><voice>1</voice><type>16th</type><stem>up</stem><beam number="1">end</beam><notations><tied type="start"/></notations><lyric number="1"><syllabic>single</syllabic><text>do?</text><extend/></lyric></note><note default-y="-55.00" default-x="164.99"><pitch><step>B</step><alter>-1</alter><octave>3</octave></pitch><duration>12</duration><tie type="stop"/><voice>1</voice><type>quarter</type><stem>up</stem><notations><tied type="stop"/></notations></note><note><rest/><duration>6</duration><voice>1</voice><type>eighth</type></note><note default-y="-25.00" default-x="249.71"><pitch><step>A</step><alter>-1</alter><octave>4</octave></pitch><duration>6</duration><tie type="start"/><voice>1</voice><type>eighth</type><stem>up</stem><notations><tied type="start"/></notations><lyric number="1"><syllabic>single</syllabic><text>I'll</text></lyric></note></measure><measure width="320.73" number="22"><harmony print-frame="no"><root><root-step>B</root-step><root-alter>-1</root-alter></root><kind text="7">dominant</kind></harmony><note default-y="-25.00" default-x="15.00"><pitch><step>A</step><alter>-1</alter><octave>4</octave></pitch><duration>9</duration><tie type="stop"/><voice>1</voice><type>eighth</type><dot/><stem>up</stem><beam number="1">begin</beam><notations><tied type="stop"/></notations></note><note default-y="-35.00" default-x="62.19"><pitch><step>F</step><octave>4</octave></pitch><duration>3</duration><voice>1</voice><type>16th</type><stem>up</stem><beam number="1">end</beam><lyric number="1"><syllabic>single</syllabic><text>do</text></lyric></note><note default-y="-25.00" default-x="90.99"><pitch><step>A</step><alter>-1</alter><octave>4</octave></pitch><duration>4</duration><voice>1</voice><type>eighth</type><time-modification><actual-notes>3</actual-notes><normal-notes>2</normal-notes></time-modification><stem>up</stem><beam number="1">begin</beam><notations><tuplet type="start" bracket="no"/></notations><lyric number="1"><syllabic>begin</syllabic><text>an</text></lyric></note><note default-y="-30.00" default-x="121.20"><pitch><step>G</step><octave>4</octave></pitch><duration>4</duration><voice>1</voice><type>eighth</type><time-modification><actual-notes>3</actual-notes><normal-notes>2</normal-notes></time-modification><stem>up</stem><beam number="1">continue</beam><lyric number="1"><syllabic>middle</syllabic><text>y</text></lyric></note><note default-y="-25.00" default-x="162.54"><pitch><step>A</step><alter>-1</alter><octave>4</octave></pitch><duration>4</duration><tie type="start"/><voice>1</voice><type>eighth</type><time-modification><actual-notes>3</actual-notes><normal-notes>2</normal-notes></time-modification><stem>up</stem><beam number="1">end</beam><notations><tied type="start"/><tuplet type="stop"/></notations><lyric number="1"><syllabic>end</syllabic><text>thing</text></lyric></note><note default-y="-25.00" default-x="192.74"><pitch><step>A</step><alter>-1</alter><octave>4</octave></pitch><duration>12</duration><tie type="stop"/><voice>1</voice><type>quarter</type><stem>up</stem><notations><tied type="stop"/></notations></note><note default-y="-25.00" default-x="245.95"><pitch><step>A</step><octave>4</octave></pitch><duration>9</duration><voice>1</voice><type>eighth</type><dot/><accidental>natural</accidental><stem>up</stem><beam number="1">begin</beam><lyric number="1"><syllabic>single</syllabic><text>you</text></lyric></note><note default-y="-20.00" default-x="293.14"><pitch><step>B</step><alter>-1</alter><octave>4</octave></pitch><duration>3</duration><tie type="start"/><voice>1</voice><type>16th</type><stem>up</stem><beam number="1">end</beam><notations><tied type="start"/></notations><lyric number="1"><syllabic>single</syllabic><text>say</text></lyric></note></measure><measure width="174.08" number="23"><harmony print-frame="no"><root><root-step>A</root-step><root-alter>-1</root-alter></root><kind text="9">dominant-ninth</kind></harmony><note default-y="-20.00" default-x="15.00"><pitch><step>B</step><alter>-1</alter><octave>4</octave></pitch><duration>12</duration><tie type="stop"/><voice>1</voice><type>quarter</type><stem>down</stem><notations><tied type="stop"/></notations></note><note><rest/><duration>12</duration><voice>1</voice><type>quarter</type></note><note><rest/><duration>12</duration><voice>1</voice><type>quarter</type></note><note><rest/><duration>9</duration><voice>1</voice><type>eighth</type><dot/></note><note default-y="-40.00" default-x="140.16"><pitch><step>E</step><alter>-1</alter><octave>4</octave></pitch><duration>3</duration><voice>1</voice><type>16th</type><stem>up</stem><lyric number="1"><syllabic>single</syllabic><text>as</text></lyric></note></measure><measure width="403.49" number="24"><print new-system="yes"><system-layout><system-margins><left-margin>47.28</left-margin><right-margin>-0.00</right-margin></system-margins><system-distance>135.74</system-distance></system-layout></print><harmony print-frame="no"><root><root-step>E</root-step><root-alter>-1</root-alter></root><kind text="">major</kind></harmony><note default-y="-20.00" default-x="108.31"><pitch><step>B</step><alter>-1</alter><octave>4</octave></pitch><duration>12</duration><voice>1</voice><type>quarter</type><stem>down</stem><lyric number="1"><syllabic>single</syllabic><text>long</text></lyric></note><note default-y="-25.00" default-x="169.39"><pitch><step>A</step><alter>-1</alter><octave>4</octave></pitch><duration>9</duration><voice>1</voice><type>eighth</type><dot/><stem>up</stem><beam number="1">begin</beam><lyric number="1"><syllabic>single</syllabic><text>as</text></lyric></note><note default-y="-20.00" default-x="223.57"><pitch><step>B</step><alter>-1</alter><octave>4</octave></pitch><duration>3</duration><voice>1</voice><type>16th</type><stem>up</stem><beam number="1">end</beam><lyric number="1"><syllabic>single</syllabic><text>it's</text></lyric></note><harmony print-frame="no"><root><root-step>A</root-step><root-alter>-1</root-alter></root><kind text="7">dominant</kind></harmony><note default-y="-30.00" default-x="255.94"><pitch><step>G</step><alter>-1</alter><octave>4</octave></pitch><duration>12</duration><voice>1</voice><type>quarter</type><accidental>flat</accidental><stem>up</stem><lyric number="1"><syllabic>single</syllabic><text>me</text></lyric></note><note default-y="-40.00" default-x="317.03"><pitch><step>E</step><alter>-1</alter><octave>4</octave></pitch><duration>9</duration><voice>1</voice><type>eighth</type><dot/><stem>up</stem><beam number="1">begin</beam><lyric number="1"><syllabic>single</syllabic><text>and</text></lyric></note><note default-y="-40.00" default-x="371.20"><pitch><step>E</step><alter>-1</alter><octave>4</octave></pitch><duration>3</duration><tie type="start"/><voice>1</voice><type>16th</type><stem>up</stem><beam number="1">end</beam><notations><tied type="start"/></notations><lyric number="1"><syllabic>single</syllabic><text>you.</text></lyric></note></measure><measure width="160.14" number="25"><note default-y="-40.00" default-x="15.00"><pitch><step>E</step><alter>-1</alter><octave>4</octave></pitch><duration>12</duration><tie type="stop"/><voice>1</voice><type>quarter</type><stem>up</stem><notations><tied type="stop"/></notations></note><note><rest/><duration>12</duration><voice>1</voice><type>quarter</type></note><note><rest/><duration>24</duration><voice>1</voice><type>half</type></note></measure><measure width="306.35" number="26"><harmony print-frame="no"><root><root-step>A</root-step><root-alter>-1</root-alter></root><kind text="9">dominant-ninth</kind></harmony><note><rest/><duration>6</duration><voice>1</voice><type>eighth</type></note><note default-y="-15.00" default-x="54.88"><pitch><step>C</step><octave>5</octave></pitch><duration>12</duration><voice>1</voice><type>quarter</type><stem>down</stem><lyric number="1"><syllabic>single</syllabic><text>All</text></lyric></note><note default-y="-20.00" default-x="109.71"><pitch><step>B</step><alter>-1</alter><octave>4</octave></pitch><duration>6</duration><tie type="start"/><voice>1</voice><type>eighth</type><stem>down</stem><notations><tied type="start"/></notations><lyric number="1"><syllabic>single</syllabic><text>that</text></lyric></note><note default-y="-20.00" default-x="149.58"><pitch><step>B</step><alter>-1</alter><octave>4</octave></pitch><duration>9</duration><tie type="stop"/><voice>1</voice><type>eighth</type><dot/><stem>up</stem><beam number="1">begin</beam><notations><tied type="stop"/></notations></note><note default-y="-30.00" default-x="198.21"><pitch><step>G</step><octave>4</octave></pitch><duration>3</duration><voice>1</voice><type>16th</type><stem>up</stem><beam number="1">continue</beam><lyric number="1"><syllabic>single</syllabic><text>I</text></lyric></note><note default-y="-50.00" default-x="230.14"><pitch><step>C</step><octave>4</octave></pitch><duration>9</duration><voice>1</voice><type>eighth</type><dot/><stem>up</stem><beam number="1">continue</beam><lyric number="1"><syllabic>single</syllabic><text>am</text></lyric></note><note default-y="-40.00" default-x="278.76"><pitch><step>E</step><alter>-1</alter><octave>4</octave></pitch><duration>3</duration><tie type="start"/><voice>1</voice><type>16th</type><stem>up</stem><beam number="1">end</beam><notations><tied type="start"/></notations><lyric number="1"><syllabic>begin</syllabic><text>ask</text></lyric></note></measure><measure width="193.29" number="27"><note default-y="-40.00" default-x="15.00"><pitch><step>E</step><alter>-1</alter><octave>4</octave></pitch><duration>9</duration><tie type="stop"/><voice>1</voice><type>eighth</type><dot/><stem>up</stem><beam number="1">begin</beam><notations><tied type="stop"/></notations></note><note default-y="-30.00" default-x="58.36"><pitch><step>G</step><alter>-1</alter><octave>4</octave></pitch><duration>3</duration><voice>1</voice><type>16th</type><accidental>flat</accidental><stem>up</stem><beam number="1">end</beam><lyric number="1"><syllabic>end</syllabic><text>in.'</text></lyric></note><note><rest/><duration>12</duration><voice>1</voice><type>quarter</type></note><note><rest/><duration>24</duration><voice>1</voice><type>half</type></note></measure><measure width="382.66" number="28"><print new-page="yes"><system-layout><system-margins><left-margin>47.28</left-margin><right-margin>-0.00</right-margin></system-margins><top-system-distance>70.00</top-system-distance></system-layout></print><harmony print-frame="no"><root><root-step>E</root-step><root-alter>-1</root-alter></root><kind text="">major</kind></harmony><note><rest/><duration>9</duration><voice>1</voice><type>eighth</type><dot/></note><note default-y="-15.00" default-x="138.20"><pitch><step>C</step><octave>5</octave></pitch><duration>3</duration><voice>1</voice><type>16th</type><stem>down</stem><beam number="1">begin</beam><lyric number="1"><syllabic>single</syllabic><text>all</text></lyric></note><note default-y="-20.00" default-x="164.29"><pitch><step>B</step><alter>-1</alter><octave>4</octave></pitch><duration>9</duration><voice>1</voice><type>eighth</type><dot/><stem>down</stem><beam number="1">continue</beam><lyric number="1"><syllabic>single</syllabic><text>I</text></lyric></note><note default-y="-30.00" default-x="215.20"><pitch><step>G</step><alter>-1</alter><octave>4</octave></pitch><duration>3</duration><tie type="start"/><voice>1</voice><type>16th</type><accidental>flat</accidental><stem>down</stem><beam number="1">end</beam><notations><tied type="start"/></notations><lyric number="1"><syllabic>single</syllabic><text>want</text></lyric></note><note default-y="-30.00" default-x="242.07"><pitch><step>G</step><alter>-1</alter><octave>4</octave></pitch><duration>12</duration><tie type="stop"/><voice>1</voice><type>quarter</type><stem>up</stem><notations><tied type="stop"/></notations></note><note default-y="-40.00" default-x="299.47"><pitch><step>E</step><alter>-1</alter><octave>4</octave></pitch><duration>9</duration><voice>1</voice><type>eighth</type><dot/><stem>up</stem><beam number="1">begin</beam><lyric number="1"><syllabic>single</syllabic><text>from</text></lyric></note><note default-y="-40.00" default-x="350.37"><pitch><step>E</step><alter>-1</alter><octave>4</octave></pitch><duration>3</duration><tie type="start"/><voice>1</voice><type>16th</type><stem>up</stem><beam number="1">end</beam><notations><tied type="start"/></notations><lyric number="1"><syllabic>single</syllabic><text>you,</text></lyric></note></measure><measure width="133.76" number="29"><note default-y="-40.00" default-x="15.00"><pitch><step>E</step><alter>-1</alter><octave>4</octave></pitch><duration>12</duration><tie type="stop"/><voice>1</voice><type>quarter</type><stem>up</stem><notations><tied type="stop"/></notations></note><note><rest/><duration>12</duration><voice>1</voice><type>quarter</type></note><note><rest/><duration>24</duration><voice>1</voice><type>half</type></note></measure><measure width="270.60" number="30"><harmony print-frame="no"><root><root-step>A</root-step><root-alter>-1</root-alter></root><kind text="9">dominant-ninth</kind></harmony><note><rest/><duration>6</duration><voice>1</voice><type>eighth</type></note><note default-y="-15.00" default-x="51.42"><pitch><step>C</step><octave>5</octave></pitch><duration>12</duration><voice>1</voice><type>quarter</type><stem>down</stem><lyric number="1"><syllabic>single</syllabic><text>just</text></lyric></note><note default-y="-20.00" default-x="101.50"><pitch><step>B</step><alter>-1</alter><octave>4</octave></pitch><duration>6</duration><tie type="start"/><voice>1</voice><type>eighth</type><stem>down</stem><notations><tied type="start"/></notations><lyric number="1"><syllabic>single</syllabic><text>love</text></lyric></note><note default-y="-20.00" default-x="137.92"><pitch><step>B</step><alter>-1</alter><octave>4</octave></pitch><duration>9</duration><tie type="stop"/><voice>1</voice><type>eighth</type><dot/><stem>up</stem><beam number="1">begin</beam><notations><tied type="stop"/></notations></note><note default-y="-30.00" default-x="182.33"><pitch><step>G</step><alter>-1</alter><octave>4</octave></pitch><duration>3</duration><voice>1</voice><type>16th</type><accidental>flat</accidental><stem>up</stem><beam number="1">end</beam><lyric number="1"><syllabic>single</syllabic><text>me</text></lyric></note><note default-y="-40.00" default-x="218.92"><pitch><step>E</step><alter>-1</alter><octave>4</octave></pitch><duration>12</duration><voice>1</voice><type>quarter</type><stem>up</stem><lyric number="1"><syllabic>single</syllabic><text>like</text></lyric></note></measure><measure width="276.25" number="31"><harmony print-frame="no"><root><root-step>A</root-step></root><kind text="9">dominant-ninth</kind></harmony><note><rest/><duration>6</duration><voice>1</voice><type>eighth</type></note><note default-y="-15.00" default-x="49.56"><pitch><step>C</step><octave>5</octave></pitch><duration>12</duration><voice>1</voice><type>quarter</type><stem>down</stem><lyric number="1"><syllabic>single</syllabic><text>I</text></lyric></note><note default-y="-20.00" default-x="97.09"><pitch><step>B</step><alter>-1</alter><octave>4</octave></pitch><duration>6</duration><tie type="start"/><voice>1</voice><type>eighth</type><stem>down</stem><notations><tied type="start"/></notations><lyric number="1"><syllabic>single</syllabic><text>love</text></lyric></note><note default-y="-20.00" default-x="131.65"><pitch><step>B</step><alter>-1</alter><octave>4</octave></pitch><duration>9</duration><tie type="stop"/><voice>1</voice><type>eighth</type><dot/><stem>up</stem><beam number="1">begin</beam><notations><tied type="stop"/></notations></note><note default-y="-40.00" default-x="173.80"><pitch><step>E</step><alter>-1</alter><octave>4</octave></pitch><duration>3</duration><voice>1</voice><type>16th</type><stem>up</stem><beam number="1">continue</beam><lyric number="1"><syllabic>single</syllabic><text>you</text></lyric></note><note default-y="-40.00" default-x="209.31"><pitch><step>E</step><alter>-1</alter><octave>4</octave></pitch><duration>9</duration><voice>1</voice><type>eighth</type><dot/><stem>up</stem><beam number="1">continue</beam><lyric number="1"><syllabic>single</syllabic><text>an'</text></lyric></note><note default-y="-40.00" default-x="251.45"><pitch><step>E</step><alter>-1</alter><octave>4</octave></pitch><duration>3</duration><voice>1</voice><type>16th</type><stem>up</stem><beam number="1">end</beam><lyric number="1"><syllabic>single</syllabic><text>it</text></lyric></note></measure><measure width="440.68" number="32"><print new-system="yes"><system-layout><system-margins><left-margin>47.28</left-margin><right-margin>-0.00</right-margin></system-margins><system-distance>199.00</system-distance></system-layout></print><harmony print-frame="no"><root><root-step>E</root-step><root-alter>-1</root-alter></root><kind text="">major</kind></harmony><note default-y="-30.00" default-x="133.32"><pitch><step>G</step><alter>-1</alter><octave>4</octave></pitch><duration>12</duration><voice>1</voice><type>quarter</type><accidental>flat</accidental><stem>up</stem><lyric number="1"><syllabic>single</syllabic><text>won't</text></lyric><lyric number="2"><syllabic>single</syllabic><text>                </text></lyric></note><direction><direction-type><words default-y="100">N.C.</words></direction-type></direction><note default-y="-40.00" default-x="203.75"><pitch><step>E</step><alter>-1</alter><octave>4</octave></pitch><duration>12</duration><voice>1</voice><type>quarter</type><stem>up</stem><lyric number="1"><syllabic>single</syllabic><text>be</text></lyric></note><note default-y="-40.00" default-x="274.18"><pitch><step>E</step><alter>-1</alter><octave>4</octave></pitch><duration>12</duration><voice>1</voice><type>quarter</type><stem>up</stem><lyric number="1"><syllabic>single</syllabic><text>hard</text></lyric></note><note default-y="-40.00" default-x="344.61"><pitch><step>E</step><alter>-1</alter><octave>4</octave></pitch><duration>9</duration><voice>1</voice><type>eighth</type><dot/><stem>up</stem><beam number="1">begin</beam><lyric number="1"><syllabic>single</syllabic><text>to</text></lyric></note><note default-y="-35.00" default-x="407.07"><pitch><step>F</step><octave>4</octave></pitch><duration>3</duration><tie type="start"/><voice>1</voice><type>16th</type><stem>up</stem><beam number="1">end</beam><notations><tied type="start"/></notations><lyric number="1"><syllabic>single</syllabic><text>do!</text></lyric></note></measure><measure width="342.75" number="33"><harmony print-frame="no"><root><root-step>B</root-step><root-alter>-1</root-alter></root><kind text="7">dominant</kind></harmony><note default-y="-35.00" default-x="15.00"><pitch><step>F</step><octave>4</octave></pitch><duration>12</duration><tie type="stop"/><voice>1</voice><type>quarter</type><stem>up</stem><notations><tied type="stop"/></notations></note><note><rest/><duration>12</duration><voice>1</voice><type>quarter</type></note><note><rest/><duration>9</duration><voice>1</voice><type>eighth</type><dot/></note><note default-y="-55.00" default-x="210.93"><pitch><step>B</step><alter>-1</alter><octave>3</octave></pitch><duration>3</duration><voice>1</voice><type>16th</type><stem>up</stem><beam number="1">begin</beam><lyric number="1"><syllabic>single</syllabic><text>Well</text></lyric></note><note default-y="-50.00" default-x="245.89"><pitch><step>C</step><octave>4</octave></pitch><duration>9</duration><voice>1</voice><type>eighth</type><dot/><stem>up</stem><beam number="1">continue</beam><lyric number="1"><syllabic>begin</syllabic><text>al</text></lyric></note><note default-y="-40.00" default-x="306.08"><pitch><step>E</step><alter>-1</alter><octave>4</octave></pitch><duration>3</duration><tie type="start"/><voice>1</voice><type>16th</type><stem>up</stem><beam number="1">end</beam><notations><tied type="start"/></notations><lyric number="1"><syllabic>single</syllabic><text>right,</text></lyric></note></measure><measure width="279.84" number="34"><harmony print-frame="no"><root><root-step>E</root-step><root-alter>-1</root-alter></root><kind text="">major</kind></harmony><note default-y="-40.00" default-x="15.00"><pitch><step>E</step><alter>-1</alter><octave>4</octave></pitch><duration>12</duration><tie type="stop"/><voice>1</voice><type>quarter</type><stem>up</stem><notations><tied type="stop"/></notations></note><note><rest/><duration>12</duration><voice>1</voice><type>quarter</type></note><note><rest/><duration>12</duration><voice>1</voice><type>quarter</type></note><harmony print-frame="no"><root><root-step>B</root-step><root-alter>-1</root-alter></root><kind text="7">dominant</kind></harmony><note default-y="-35.00" default-x="196.90"><pitch><step>F</step><octave>4</octave></pitch><duration>9</duration><voice>1</voice><type>eighth</type><dot/><stem>up</stem><beam number="1">begin</beam><lyric number="1"><syllabic>begin</syllabic><text>O</text></lyric></note><note default-y="-30.00" default-x="250.68"><pitch><step>G</step><alter>-1</alter><octave>4</octave></pitch><duration>3</duration><tie type="start"/><voice>1</voice><type>16th</type><accidental>flat</accidental><stem>up</stem><beam number="1">end</beam><notations><tied type="start"/></notations><lyric number="1"><syllabic>end</syllabic><text>kay</text></lyric></note></measure><measure width="291.87" number="35"><print new-system="yes"><system-layout><system-margins><left-margin>47.28</left-margin><right-margin>-0.00</right-margin></system-margins><system-distance>225.15</system-distance></system-layout></print><harmony print-frame="no"><root><root-step>E</root-step><root-alter>-1</root-alter></root><kind text="">major</kind></harmony><note default-y="-30.00" default-x="87.30"><pitch><step>G</step><alter>-1</alter><octave>4</octave></pitch><duration>12</duration><tie type="stop"/><voice>1</voice><type>quarter</type><accidental>flat</accidental><stem>up</stem><notations><tied type="stop"/></notations></note><note><rest/><duration>12</duration><voice>1</voice><type>quarter</type></note><note><rest/><duration>12</duration><voice>1</voice><type>quarter</type></note><harmony print-frame="no"><root><root-step>B</root-step><root-alter>-1</root-alter></root><kind text="m">minor</kind></harmony><note default-y="-30.00" default-x="221.41"><pitch><step>G</step><alter>-1</alter><octave>4</octave></pitch><duration>9</duration><voice>1</voice><type>eighth</type><dot/><accidental>flat</accidental><stem>up</stem><beam number="1">begin</beam><lyric number="1"><syllabic>single</syllabic><text>You</text></lyric></note><note default-y="-30.00" default-x="262.40"><pitch><step>G</step><octave>4</octave></pitch><duration>3</duration><tie type="start"/><voice>1</voice><type>16th</type><accidental>natural</accidental><stem>up</stem><beam number="1">end</beam><notations><tied type="start"/></notations><lyric number="1"><syllabic>single</syllabic><text>win</text></lyric></note></measure><measure width="205.87" number="36"><harmony print-frame="no"><root><root-step>E</root-step><root-alter>-1</root-alter></root><kind text="">major</kind></harmony><note default-y="-30.00" default-x="15.00"><pitch><step>G</step><octave>4</octave></pitch><duration>12</duration><tie type="stop"/><voice>1</voice><type>quarter</type><stem>up</stem><notations><tied type="stop"/></notations></note><note><rest/><duration>12</duration><voice>1</voice><type>quarter</type></note><note><rest/><duration>9</duration><voice>1</voice><type>eighth</type><dot/></note><note default-y="-55.00" default-x="128.80"><pitch><step>B</step><alter>-1</alter><octave>3</octave></pitch><duration>3</duration><voice>1</voice><type>16th</type><stem>up</stem><lyric number="1"><syllabic>single</syllabic><text>I'm</text></lyric></note><note default-y="-50.00" default-x="164.85"><pitch><step>C</step><octave>4</octave></pitch><duration>12</duration><voice>1</voice><type>quarter</type><stem>up</stem><lyric number="1"><syllabic>single</syllabic><text>in</text></lyric></note></measure><measure width="359.15" number="37"><harmony print-frame="no"><root><root-step>E</root-step><root-alter>-1</root-alter></root><kind text="7">dominant</kind></harmony><note default-y="-40.00" default-x="27.87"><pitch><step>E</step><alter>-1</alter><octave>4</octave></pitch><duration>12</duration><voice>1</voice><type>quarter</type><stem>up</stem><lyric number="1"><syllabic>single</syllabic><text>love</text></lyric></note><note default-y="-35.00" default-x="91.65"><pitch><step>F</step><octave>4</octave></pitch><duration>9</duration><voice>1</voice><type>eighth</type><dot/><stem>up</stem><beam number="1">begin</beam><lyric number="1"><syllabic>single</syllabic><text>with</text></lyric></note><note default-y="-30.00" default-x="148.22"><pitch><step>G</step><octave>4</octave></pitch><duration>3</duration><tie type="start"/><voice>1</voice><type>16th</type><stem>up</stem><beam number="1">end</beam><notations><tied type="start"/></notations><lyric number="1"><syllabic>single</syllabic><text>you,</text></lyric></note><note default-y="-30.00" default-x="177.21"><pitch><step>G</step><octave>4</octave></pitch><duration>9</duration><tie type="stop"/><voice>1</voice><type>eighth</type><dot/><stem>up</stem><beam number="1">begin</beam><notations><tied type="stop"/></notations></note><note default-y="-55.00" default-x="233.77"><pitch><step>B</step><octave>3</octave></pitch><duration>3</duration><voice>1</voice><type>16th</type><accidental>natural</accidental><stem>up</stem><beam number="1">continue</beam><lyric number="1"><syllabic>single</syllabic><text>Well</text></lyric></note><note default-y="-50.00" default-x="268.74"><pitch><step>C</step><octave>4</octave></pitch><duration>9</duration><voice>1</voice><type>eighth</type><dot/><stem>up</stem><beam number="1">continue</beam><lyric number="1"><syllabic>begin</syllabic><text>al</text></lyric></note><note default-y="-40.00" default-x="325.30"><pitch><step>E</step><alter>-1</alter><octave>4</octave></pitch><duration>3</duration><tie type="start"/><voice>1</voice><type>16th</type><stem>up</stem><beam number="1">end</beam><notations><tied type="start"/></notations><lyric number="1"><syllabic>end</syllabic><text>right</text></lyric></note></measure><measure width="206.38" number="38"><harmony print-frame="no"><root><root-step>A</root-step><root-alter>-1</root-alter></root><kind text="">major</kind></harmony><note default-y="-40.00" default-x="15.00"><pitch><step>E</step><alter>-1</alter><octave>4</octave></pitch><duration>12</duration><tie type="stop"/><voice>1</voice><type>quarter</type><stem>up</stem><notations><tied type="stop"/></notations></note><note><rest/><duration>12</duration><voice>1</voice><type>quarter</type></note><note><rest/><duration>12</duration><voice>1</voice><type>quarter</type></note><note default-y="-35.00" default-x="138.90"><pitch><step>F</step><octave>4</octave></pitch><duration>9</duration><voice>1</voice><type>eighth</type><dot/><stem>up</stem><beam number="1">begin</beam><lyric number="1"><syllabic>begin</syllabic><text>O</text></lyric></note><note default-y="-40.00" default-x="175.53"><pitch><step>E</step><alter>-1</alter><octave>4</octave></pitch><duration>3</duration><tie type="start"/><voice>1</voice><type>16th</type><stem>up</stem><beam number="1">end</beam><notations><tied type="start"/></notations><lyric number="1"><syllabic>end</syllabic><text>kay,</text></lyric></note></measure><measure width="372.92" number="39"><print new-system="yes"><system-layout><system-margins><left-margin>47.28</left-margin><right-margin>-0.00</right-margin></system-margins><system-distance>199.00</system-distance></system-layout></print><note default-y="-40.00" default-x="87.30"><pitch><step>E</step><alter>-1</alter><octave>4</octave></pitch><duration>12</duration><tie type="stop"/><voice>1</voice><type>quarter</type><stem>up</stem><notations><tied type="stop"/></notations></note><note><rest/><duration>12</duration><voice>1</voice><type>quarter</type></note><note><rest/><duration>12</duration><voice>1</voice><type>quarter</type></note><note default-y="-15.00" default-x="282.83"><pitch><step>C</step><octave>5</octave></pitch><duration>9</duration><voice>1</voice><type>eighth</type><dot/><stem>down</stem><beam number="1">begin</beam><lyric number="1"><syllabic>single</syllabic><text>You</text></lyric></note><note default-y="-20.00" default-x="340.64"><pitch><step>B</step><alter>-1</alter><octave>4</octave></pitch><duration>3</duration><tie type="start"/><voice>1</voice><type>16th</type><stem>down</stem><beam number="1">end</beam><notations><tied type="start"/></notations><lyric number="1"><syllabic>single</syllabic><text>win,</text><extend/></lyric></note></measure><measure width="313.45" number="40"><harmony print-frame="no"><root><root-step>E</root-step><root-alter>-1</root-alter></root><kind text="">major</kind></harmony><note default-y="-20.00" default-x="15.00"><pitch><step>B</step><alter>-1</alter><octave>4</octave></pitch><duration>9</duration><tie type="stop"/><voice>1</voice><type>eighth</type><dot/><stem>up</stem><beam number="1">begin</beam><notations><tied type="stop"/></notations></note><note default-y="-30.00" default-x="69.89"><pitch><step>G</step><octave>4</octave></pitch><duration>3</duration><voice>1</voice><type>16th</type><stem>up</stem><beam number="1">end</beam></note><note><rest/><duration>12</duration><voice>1</voice><type>quarter</type></note><note><rest/><duration>6</duration><voice>1</voice><type>eighth</type></note><note default-y="-30.00" default-x="204.94"><pitch><step>G</step><octave>4</octave></pitch><duration>12</duration><voice>1</voice><type>quarter</type><stem>up</stem><lyric number="1"><syllabic>begin</syllabic><text>ba</text></lyric></note><note default-y="-35.00" default-x="266.83"><pitch><step>F</step><alter>1</alter><octave>4</octave></pitch><duration>6</duration><voice>1</voice><type>eighth</type><accidental>sharp</accidental><stem>up</stem><lyric number="1"><syllabic>end</syllabic><text>by,</text></lyric></note></measure><measure width="376.90" number="41"><note default-y="-30.00" default-x="30.37"><pitch><step>G</step><octave>4</octave></pitch><duration>9</duration><voice>1</voice><type>eighth</type><dot/><stem>up</stem><beam number="1">begin</beam><lyric number="1"><syllabic>single</syllabic><text>what</text></lyric></note><note default-y="-40.00" default-x="89.91"><pitch><step>E</step><alter>-1</alter><octave>4</octave></pitch><duration>3</duration><voice>1</voice><type>16th</type><stem>up</stem><beam number="1">continue</beam><lyric number="1"><syllabic>single</syllabic><text>can</text></lyric></note><note default-y="-50.00" default-x="120.43"><pitch><step>C</step><octave>4</octave></pitch><duration>9</duration><voice>1</voice><type>eighth</type><dot/><stem>up</stem><beam number="1">continue</beam><lyric number="1"><syllabic>single</syllabic><text>I</text></lyric></note><note default-y="-55.00" default-x="179.98"><pitch><step>B</step><alter>-1</alter><octave>3</octave></pitch><duration>3</duration><tie type="start"/><voice>1</voice><type>16th</type><stem>up</stem><beam number="1">end</beam><notations><tied type="start"/></notations><lyric number="1"><syllabic>single</syllabic><text>do?</text><extend/></lyric></note><note default-y="-55.00" default-x="210.50"><pitch><step>B</step><alter>-1</alter><octave>3</octave></pitch><duration>12</duration><tie type="stop"/><voice>1</voice><type>quarter</type><stem>up</stem><notations><tied type="stop"/></notations></note><note><rest/><duration>6</duration><voice>1</voice><type>eighth</type></note><note default-y="-25.00" default-x="326.47"><pitch><step>A</step><alter>-1</alter><octave>4</octave></pitch><duration>6</duration><tie type="start"/><voice>1</voice><type>eighth</type><stem>up</stem><notations><tied type="start"/></notations><lyric number="1"><syllabic>single</syllabic><text>I'll</text></lyric></note></measure><measure width="368.95" number="42"><print new-system="yes"><system-layout><system-margins><left-margin>47.28</left-margin><right-margin>-0.00</right-margin></system-margins><system-distance>199.00</system-distance></system-layout></print><harmony print-frame="no"><root><root-step>B</root-step><root-alter>-1</root-alter></root><kind text="7">dominant</kind></harmony><note default-y="-25.00" default-x="87.30"><pitch><step>A</step><alter>-1</alter><octave>4</octave></pitch><duration>9</duration><tie type="stop"/><voice>1</voice><type>eighth</type><dot/><stem>up</stem><beam number="1">begin</beam><notations><tied type="stop"/></notations></note><note default-y="-35.00" default-x="128.65"><pitch><step>F</step><octave>4</octave></pitch><duration>3</duration><voice>1</voice><type>16th</type><stem>up</stem><beam number="1">end</beam><lyric number="1"><syllabic>single</syllabic><text>do</text></lyric></note><note default-y="-25.00" default-x="157.45"><pitch><step>A</step><alter>-1</alter><octave>4</octave></pitch><duration>4</duration><voice>1</voice><type>eighth</type><time-modification><actual-notes>3</actual-notes><normal-notes>2</normal-notes></time-modification><stem>up</stem><beam number="1">begin</beam><notations><tuplet type="start" bracket="no"/></notations><lyric number="1"><syllabic>begin</syllabic><text>an</text></lyric></note><note default-y="-30.00" default-x="183.92"><pitch><step>G</step><octave>4</octave></pitch><duration>4</duration><voice>1</voice><type>eighth</type><time-modification><actual-notes>3</actual-notes><normal-notes>2</normal-notes></time-modification><stem>up</stem><beam number="1">continue</beam><lyric number="1"><syllabic>middle</syllabic><text>y</text></lyric></note><note default-y="-25.00" default-x="225.26"><pitch><step>A</step><alter>-1</alter><octave>4</octave></pitch><duration>4</duration><tie type="start"/><voice>1</voice><type>eighth</type><time-modification><actual-notes>3</actual-notes><normal-notes>2</normal-notes></time-modification><stem>up</stem><beam number="1">end</beam><notations><tied type="start"/><tuplet type="stop"/></notations><lyric number="1"><syllabic>end</syllabic><text>thing</text></lyric></note><note default-y="-25.00" default-x="253.40"><pitch><step>A</step><alter>-1</alter><octave>4</octave></pitch><duration>12</duration><tie type="stop"/><voice>1</voice><type>quarter</type><stem>up</stem><notations><tied type="stop"/></notations></note><note default-y="-25.00" default-x="300.02"><pitch><step>A</step><octave>4</octave></pitch><duration>9</duration><voice>1</voice><type>eighth</type><dot/><accidental>natural</accidental><stem>up</stem><beam number="1">begin</beam><lyric number="1"><syllabic>single</syllabic><text>you</text></lyric></note><note default-y="-20.00" default-x="341.36"><pitch><step>B</step><alter>-1</alter><octave>4</octave></pitch><duration>3</duration><tie type="start"/><voice>1</voice><type>16th</type><stem>up</stem><beam number="1">end</beam><notations><tied type="start"/></notations><lyric number="1"><syllabic>single</syllabic><text>say</text></lyric></note></measure><measure width="188.34" number="43"><harmony print-frame="no"><root><root-step>A</root-step><root-alter>-1</root-alter></root><kind text="9">dominant-ninth</kind></harmony><note default-y="-20.00" default-x="15.00"><pitch><step>B</step><alter>-1</alter><octave>4</octave></pitch><duration>12</duration><tie type="stop"/><voice>1</voice><type>quarter</type><stem>down</stem><notations><tied type="stop"/></notations></note><note><rest/><duration>12</duration><voice>1</voice><type>quarter</type></note><note><rest/><duration>6</duration><voice>1</voice><type>eighth</type></note><note default-y="-5.00" default-x="119.44"><pitch><step>E</step><alter>-1</alter><octave>5</octave></pitch><duration>12</duration><voice>1</voice><type>quarter</type><stem>down</stem><lyric number="1"><syllabic>single</syllabic><text>Sweet</text></lyric></note><note default-y="-5.00" default-x="163.54"><pitch><step>E</step><alter>-1</alter><octave>5</octave></pitch><duration>6</duration><tie type="start"/><voice>1</voice><type>eighth</type><stem>down</stem><notations><tied type="start"/></notations><lyric number="1"><syllabic>begin</syllabic><text>ba</text></lyric></note></measure><measure width="294.08" number="44"><harmony print-frame="no"><root><root-step>E</root-step><root-alter>-1</root-alter></root><kind text="">major</kind></harmony><note default-y="-5.00" default-x="15.00"><pitch><step>E</step><alter>-1</alter><octave>5</octave></pitch><duration>9</duration><tie type="stop"/><voice>1</voice><type>eighth</type><dot/><stem>up</stem><beam number="1">begin</beam><notations><tied type="stop"/></notations></note><note default-y="-15.00" default-x="56.39"><pitch><step>C</step><octave>5</octave></pitch><duration>3</duration><voice>1</voice><type>16th</type><stem>up</stem><beam number="1">continue</beam><lyric number="1"><syllabic>end</syllabic><text>by</text></lyric></note><note default-y="-20.00" default-x="93.33"><pitch><step>B</step><alter>-1</alter><octave>4</octave></pitch><duration>9</duration><voice>1</voice><type>eighth</type><dot/><stem>up</stem><beam number="1">continue</beam><lyric number="1"><syllabic>single</syllabic><text>take</text></lyric></note><note default-y="-30.00" default-x="134.72"><pitch><step>G</step><alter>-1</alter><octave>4</octave></pitch><duration>3</duration><voice>1</voice><type>16th</type><accidental>flat</accidental><stem>up</stem><beam number="1">end</beam><lyric number="1"><syllabic>single</syllabic><text>me</text></lyric></note><harmony print-frame="no"><root><root-step>A</root-step><root-alter>-1</root-alter></root><kind text="6">major-sixth</kind></harmony><note default-y="-35.00" default-x="165.68"><pitch><step>F</step><octave>4</octave></pitch><duration>12</duration><voice>1</voice><type>quarter</type><stem>up</stem><lyric number="1"><syllabic>single</syllabic><text>by</text></lyric></note><harmony print-frame="no"><root><root-step>A</root-step><root-alter>-1</root-alter></root><kind text="9">dominant-ninth</kind></harmony><note default-y="-40.00" default-x="212.35"><pitch><step>E</step><alter>-1</alter><octave>4</octave></pitch><duration>9</duration><voice>1</voice><type>eighth</type><dot/><stem>up</stem><beam number="1">begin</beam><lyric number="1"><syllabic>single</syllabic><text>the</text></lyric></note><note default-y="-40.00" default-x="256.78"><pitch><step>E</step><alter>-1</alter><octave>4</octave></pitch><duration>3</duration><tie type="start"/><voice>1</voice><type>16th</type><stem>up</stem><beam number="1">end</beam><notations><tied type="start"/></notations><lyric number="1"><syllabic>single</syllabic><text>hand,</text></lyric></note></measure><measure width="211.90" number="45"><harmony print-frame="no"><root><root-step>E</root-step><root-alter>-1</root-alter></root><kind text="">major</kind></harmony><note default-y="-40.00" default-x="15.00"><pitch><step>E</step><alter>-1</alter><octave>4</octave></pitch><duration>12</duration><tie type="stop"/><voice>1</voice><type>quarter</type><stem>up</stem><notations><tied type="stop"/></notations></note><note><rest/><duration>12</duration><voice>1</voice><type>quarter</type></note><note><rest/><duration>9</duration><voice>1</voice><type>eighth</type><dot/></note><note default-y="-5.00" default-x="100.81"><pitch><step>E</step><alter>-1</alter><octave>5</octave></pitch><duration>3</duration><voice>1</voice><type>16th</type><stem>down</stem><beam number="1">begin</beam><lyric number="1"><syllabic>single</syllabic><text>Well,</text></lyric></note><note default-y="-5.00" default-x="138.59"><pitch><step>E</step><alter>-1</alter><octave>5</octave></pitch><duration>9</duration><voice>1</voice><type>eighth</type><dot/><stem>down</stem><beam number="1">continue</beam><lyric number="1"><syllabic>begin</syllabic><text>al</text></lyric></note><note default-y="-5.00" default-x="178.04"><pitch><step>E</step><alter>-1</alter><octave>5</octave></pitch><duration>3</duration><tie type="start"/><voice>1</voice><type>16th</type><stem>down</stem><beam number="1">end</beam><notations><tied type="start"/></notations><lyric number="1"><syllabic>end</syllabic><text>right</text></lyric></note></measure><measure width="330.76" number="46"><print new-system="yes"><system-layout><system-margins><left-margin>47.28</left-margin><right-margin>0.00</right-margin></system-margins><system-distance>199.00</system-distance></system-layout></print><note default-y="-5.00" default-x="87.30"><pitch><step>E</step><alter>-1</alter><octave>5</octave></pitch><duration>12</duration><tie type="stop"/><voice>1</voice><type>quarter</type><stem>down</stem><notations><tied type="stop"/></notations></note><harmony print-frame="no"><root><root-step>A</root-step><root-alter>-1</root-alter></root><kind text="">major</kind></harmony><note><rest/><duration>12</duration><voice>1</voice><type>quarter</type></note><harmony print-frame="no"><root><root-step>E</root-step><root-alter>-1</root-alter></root><kind text="">major</kind></harmony><note><rest/><duration>12</duration><voice>1</voice><type>quarter</type></note><note default-y="-5.00" default-x="252.95"><pitch><step>E</step><alter>-1</alter><octave>5</octave></pitch><duration>9</duration><voice>1</voice><type>eighth</type><dot/><stem>down</stem><beam number="1">begin</beam><lyric number="1"><syllabic>begin</syllabic><text>O</text></lyric></note><note default-y="-5.00" default-x="301.92"><pitch><step>E</step><alter>-1</alter><octave>5</octave></pitch><duration>3</duration><tie type="start"/><voice>1</voice><type>16th</type><stem>down</stem><beam number="1">end</beam><notations><tied type="start"/></notations><lyric number="1"><syllabic>end</syllabic><text>kay</text></lyric></note></measure><measure width="283.17" number="47"><note default-y="-5.00" default-x="15.00"><pitch><step>E</step><alter>-1</alter><octave>5</octave></pitch><duration>12</duration><tie type="stop"/><voice>1</voice><type>quarter</type><stem>down</stem><notations><tied type="stop"/></notations></note><harmony print-frame="no"><root><root-step>A</root-step><root-alter>-1</root-alter></root><kind text="">major</kind></harmony><note><rest/><duration>12</duration><voice>1</voice><type>quarter</type></note><harmony print-frame="no"><root><root-step>E</root-step><root-alter>-1</root-alter></root><kind text="">major</kind></harmony><note><rest/><duration>12</duration><voice>1</voice><type>quarter</type></note><harmony print-frame="no"><root><root-step>A</root-step><root-alter>-1</root-alter></root><kind text="">major</kind></harmony><note default-y="-5.00" default-x="196.35"><pitch><step>E</step><alter>-1</alter><octave>5</octave></pitch><duration>9</duration><voice>1</voice><type>eighth</type><dot/><stem>down</stem><beam number="1">begin</beam><lyric number="1"><syllabic>single</syllabic><text>You</text></lyric></note><note default-y="-5.00" default-x="249.95"><pitch><step>E</step><alter>-1</alter><octave>5</octave></pitch><duration>3</duration><tie type="start"/><voice>1</voice><type>16th</type><stem>down</stem><beam number="1">end</beam><notations><tied type="start"/></notations><lyric number="1"><syllabic>single</syllabic><text>win!</text></lyric></note></measure><measure width="224.07" number="48"><harmony print-frame="no"><root><root-step>E</root-step><root-alter>-1</root-alter></root><kind text="">major</kind></harmony><harmony relative-x="1400.00" print-frame="no"><root><root-step>A</root-step><root-alter>-1</root-alter></root><kind text="">major</kind></harmony><harmony relative-x="2900.00" print-frame="no"><root><root-step>C</root-step><root-alter>-1</root-alter></root><kind text="7">dominant</kind></harmony><note default-y="-5.00" default-x="15.00"><pitch><step>E</step><alter>-1</alter><octave>5</octave></pitch><duration>48</duration><tie type="stop"/><voice>1</voice><type>whole</type><notations><tied type="stop"/></notations></note></measure><measure width="225.27" number="49"><harmony print-frame="no"><root><root-step>E</root-step><root-alter>-1</root-alter></root><kind text="">major</kind></harmony><harmony relative-x="712.50" print-frame="no"><root><root-step>E</root-step></root><kind text="9b5">dominant-ninth</kind><degree><degree-value>5</degree-value><degree-alter>-1</degree-alter><degree-type>alter</degree-type></degree></harmony><harmony relative-x="3400.00" print-frame="no"><root><root-step>E</root-step><root-alter>-1</root-alter></root><kind text="6">major-sixth</kind></harmony><note><rest/><duration>48</duration><voice>1</voice></note><backup><duration>48</duration></backup><barline location="right"><bar-style>light-heavy</bar-style></barline></measure></part></score-partwise>