<score-partwise version="2.0"><work><work-number/><work-title/></work><movement-number/><movement-title>The Story Of My Life</movement-title><identification><creator type="composer">Burt Bacharach, Hal David</creator><creator type="poet">Burt Bacharach, Hal David</creator><rights>All Rights Reserved</rights><encoding><software>MuseScore 0.9.6</software><encoding-date>2010-04-21</encoding-date><software>ProxyMusic 2.0 c</software></encoding><source>http://wikifonia.org/node/5523/revisions/7506/view</source></identification><defaults><scaling><millimeters>6.256</millimeters><tenths>40</tenths></scaling><page-layout><page-height>1898.98</page-height><page-width>1342.71</page-width><page-margins type="both"><left-margin>63.9386</left-margin><right-margin>63.9386</right-margin><top-margin>63.9386</top-margin><bottom-margin>127.877</bottom-margin></page-margins></page-layout></defaults><credit page="1"><credit-words font-size="24" default-y="1835.04" default-x="671.355" justify="center" valign="top">The story of my life</credit-words></credit><credit page="1"><credit-words font-size="12" default-y="1769.14" default-x="1278.77" justify="right" valign="top">Burt Bacharach</credit-words></credit><part-list><score-part id="P1"><part-name/><score-instrument id="P1-I3"><instrument-name/></score-instrument><midi-instrument id="P1-I3"><midi-channel>1</midi-channel><midi-program>5</midi-program></midi-instrument></score-part></part-list><part id="P1"><measure width="287.37" number="1"><print><system-layout><system-margins><left-margin>0.00</left-margin><right-margin>0.00</right-margin></system-margins><top-system-distance>190.06</top-system-distance></system-layout></print><attributes><divisions>2</divisions><key><fifths>0</fifths><mode>major</mode></key><time><beats>4</beats><beat-type>4</beat-type></time><clef><sign>G</sign><line>2</line></clef></attributes><direction placement="above"><direction-type><words>Shuffle</words></direction-type><sound tempo="72"/></direction><note><rest/><duration>4</duration><voice>1</voice><type>half</type></note><note><rest/><duration>2</duration><voice>1</voice><type>quarter</type></note><note default-y="-50.00" default-x="227.58"><pitch><step>C</step><octave>4</octave></pitch><duration>2</duration><voice>1</voice><type>quarter</type><stem>up</stem><lyric number="1"><syllabic>single</syllabic><text>Some</text></lyric></note></measure><measure width="279.94" number="2"><harmony print-frame="no"><root><root-step>C</root-step></root><kind text="">major</kind></harmony><note default-y="-40.00" default-x="20.93"><pitch><step>E</step><octave>4</octave></pitch><duration>2</duration><voice>1</voice><type>quarter</type><stem>up</stem><lyric number="1"><syllabic>single</syllabic><text>day</text></lyric></note><note default-y="-30.00" default-x="85.28"><pitch><step>G</step><octave>4</octave></pitch><duration>2</duration><voice>1</voice><type>quarter</type><stem>up</stem><lyric number="1"><syllabic>single</syllabic><text>I'm</text></lyric></note><note default-y="-30.00" default-x="149.64"><pitch><step>G</step><octave>4</octave></pitch><duration>2</duration><voice>1</voice><type>quarter</type><stem>up</stem><lyric number="1"><syllabic>single</syllabic><text>going</text></lyric></note><note default-y="-25.00" default-x="213.99"><pitch><step>A</step><octave>4</octave></pitch><duration>2</duration><voice>1</voice><type>quarter</type><stem>up</stem><lyric number="1"><syllabic>single</syllabic><text>to</text></lyric></note></measure><measure width="207.70" number="3"><harmony print-frame="no"><root><root-step>F</root-step></root><kind text="">major</kind></harmony><note default-y="-50.00" default-x="27.80"><pitch><step>C</step><octave>4</octave></pitch><duration>6</duration><voice>1</voice><type>half</type><dot/><stem>up</stem><lyric number="1"><syllabic>single</syllabic><text>write</text></lyric></note><note default-y="-45.00" default-x="145.68"><pitch><step>D</step><octave>4</octave></pitch><duration>2</duration><voice>1</voice><type>quarter</type><stem>up</stem><lyric number="1"><syllabic>single</syllabic><text>the</text></lyric></note></measure><measure width="245.44" number="4"><harmony print-frame="no"><root><root-step>C</root-step></root><kind text="">major</kind></harmony><note default-y="-40.00" default-x="17.81"><pitch><step>E</step><octave>4</octave></pitch><duration>2</duration><voice>1</voice><type>quarter</type><stem>up</stem><lyric number="1"><syllabic>begin</syllabic><text>sto</text></lyric></note><note default-y="-30.00" default-x="74.32"><pitch><step>G</step><octave>4</octave></pitch><duration>2</duration><voice>1</voice><type>quarter</type><stem>up</stem><lyric number="1"><syllabic>end</syllabic><text>ry</text></lyric></note><note default-y="-30.00" default-x="130.83"><pitch><step>G</step><octave>4</octave></pitch><duration>2</duration><voice>1</voice><type>quarter</type><stem>up</stem><lyric number="1"><syllabic>single</syllabic><text>of</text></lyric></note><note default-y="-25.00" default-x="187.33"><pitch><step>A</step><octave>4</octave></pitch><duration>2</duration><voice>1</voice><type>quarter</type><stem>up</stem><lyric number="1"><syllabic>single</syllabic><text>my</text></lyric></note></measure><measure width="194.39" number="5"><harmony print-frame="no"><root><root-step>F</root-step></root><kind text="">major</kind></harmony><note default-y="-50.00" default-x="19.68"><pitch><step>C</step><octave>4</octave></pitch><duration>6</duration><voice>1</voice><type>half</type><dot/><stem>up</stem><lyric number="1"><syllabic>single</syllabic><text>life</text></lyric></note><note default-y="-45.00" default-x="134.13"><pitch><step>D</step><octave>4</octave></pitch><duration>2</duration><voice>1</voice><type>quarter</type><stem>up</stem><lyric number="1"><syllabic>single</syllabic><text>I'll</text></lyric></note></measure><measure width="340.86" number="6"><print new-system="yes"><system-layout><system-margins><left-margin>0.00</left-margin><right-margin>0.00</right-margin></system-margins><system-distance>114.97</system-distance></system-layout></print><harmony print-frame="no"><root><root-step>C</root-step></root><kind text="">major</kind></harmony><note default-y="-40.00" default-x="68.60"><pitch><step>E</step><octave>4</octave></pitch><duration>2</duration><voice>1</voice><type>quarter</type><stem>up</stem><lyric number="1"><syllabic>single</syllabic><text>tell</text></lyric></note><note default-y="-30.00" default-x="139.01"><pitch><step>G</step><octave>4</octave></pitch><duration>2</duration><voice>1</voice><type>quarter</type><stem>up</stem><lyric number="1"><syllabic>begin</syllabic><text>a</text></lyric></note><note default-y="-30.00" default-x="209.41"><pitch><step>G</step><octave>4</octave></pitch><duration>3</duration><voice>1</voice><type>quarter</type><dot/><stem>up</stem><lyric number="1"><syllabic>end</syllabic><text>bout</text></lyric></note><note default-y="-30.00" default-x="295.26"><pitch><step>G</step><octave>4</octave></pitch><duration>1</duration><voice>1</voice><type>eighth</type><stem>up</stem><lyric number="1"><syllabic>single</syllabic><text>the</text></lyric></note></measure><measure width="270.14" number="7"><harmony print-frame="no"><root><root-step>G</root-step></root><kind text="7">dominant</kind></harmony><note default-y="-25.00" default-x="27.81"><pitch><step>A</step><octave>4</octave></pitch><duration>2</duration><voice>1</voice><type>quarter</type><stem>up</stem><lyric number="1"><syllabic>single</syllabic><text>night</text></lyric></note><note default-y="-30.00" default-x="94.68"><pitch><step>G</step><octave>4</octave></pitch><duration>2</duration><voice>1</voice><type>quarter</type><stem>up</stem><lyric number="1"><syllabic>single</syllabic><text>we</text></lyric></note><note default-y="-30.00" default-x="161.55"><pitch><step>G</step><octave>4</octave></pitch><duration>4</duration><voice>1</voice><type>half</type><stem>up</stem><lyric number="1"><syllabic>single</syllabic><text>met</text></lyric></note></measure><measure width="315.05" number="8"><harmony print-frame="no"><root><root-step>F</root-step></root><kind text="">major</kind></harmony><note default-y="-35.00" default-x="20.93"><pitch><step>F</step><octave>4</octave></pitch><duration>2</duration><voice>1</voice><type>quarter</type><stem>up</stem><lyric number="1"><syllabic>single</syllabic><text>and</text></lyric></note><note default-y="-15.00" default-x="94.06"><pitch><step>C</step><octave>5</octave></pitch><duration>2</duration><voice>1</voice><type>quarter</type><stem>down</stem><lyric number="1"><syllabic>single</syllabic><text>how</text></lyric></note><note default-y="-15.00" default-x="167.19"><pitch><step>C</step><octave>5</octave></pitch><duration>2</duration><voice>1</voice><type>quarter</type><stem>down</stem><lyric number="1"><syllabic>single</syllabic><text>my</text></lyric></note><note default-y="-15.00" default-x="240.32"><pitch><step>C</step><octave>5</octave></pitch><duration>2</duration><voice>1</voice><type>quarter</type><stem>down</stem><lyric number="1"><syllabic>single</syllabic><text>heart</text></lyric></note></measure><measure width="288.79" number="9"><harmony print-frame="no"><root><root-step>G</root-step></root><kind text="7">dominant</kind></harmony><note default-y="-10.00" default-x="23.42"><pitch><step>D</step><octave>5</octave></pitch><duration>2</duration><voice>1</voice><type>quarter</type><stem>down</stem><lyric number="1"><syllabic>single</syllabic><text>cant</text></lyric></note><note default-y="-5.00" default-x="89.37"><pitch><step>E</step><octave>5</octave></pitch><duration>2</duration><voice>1</voice><type>quarter</type><stem>down</stem><lyric number="1"><syllabic>begin</syllabic><text>for</text></lyric></note><note default-y="-5.00" default-x="155.31"><pitch><step>E</step><octave>5</octave></pitch><duration>2</duration><voice>1</voice><type>quarter</type><stem>down</stem><lyric number="1"><syllabic>end</syllabic><text>get</text></lyric></note><note default-y="-10.00" default-x="221.25"><pitch><step>D</step><octave>5</octave></pitch><duration>2</duration><voice>1</voice><type>quarter</type><stem>down</stem><lyric number="1"><syllabic>single</syllabic><text>the</text></lyric></note></measure><measure width="196.54" number="10"><print new-system="yes"><system-layout><system-margins><left-margin>0.00</left-margin><right-margin>0.00</right-margin></system-margins><system-distance>114.97</system-distance></system-layout></print><harmony print-frame="no"><root><root-step>C</root-step></root><kind text="">major</kind></harmony><note default-y="-15.00" default-x="72.97"><pitch><step>C</step><octave>5</octave></pitch><duration>2</duration><voice>1</voice><type>quarter</type><stem>down</stem><lyric number="1"><syllabic>single</syllabic><text>way</text></lyric></note><note><rest/><duration>4</duration><voice>1</voice><type>half</type></note><note default-y="-30.00" default-x="161.06"><pitch><step>G</step><octave>4</octave></pitch><duration>2</duration><voice>1</voice><type>quarter</type><stem>up</stem><lyric number="1"><syllabic>single</syllabic><text>you</text></lyric></note></measure><measure width="169.84" number="11"><harmony print-frame="no"><root><root-step>F</root-step></root><kind text="">major</kind></harmony><note default-y="-35.00" default-x="48.58"><pitch><step>F</step><octave>4</octave></pitch><duration>2</duration><voice>1</voice><type>quarter</type><stem>up</stem><lyric number="1"><syllabic>single</syllabic><text>smiled</text></lyric></note><harmony print-frame="no"><root><root-step>G</root-step></root><kind text="7">dominant</kind></harmony><note><rest/><duration>4</duration><voice>1</voice><type>half</type></note><note default-y="-45.00" default-x="135.71"><pitch><step>D</step><octave>4</octave></pitch><duration>2</duration><voice>1</voice><type>quarter</type><stem>up</stem><lyric number="1"><syllabic>single</syllabic><text>at</text></lyric></note></measure><measure width="97.06" number="12"><harmony print-frame="no"><root><root-step>C</root-step></root><kind text="">major</kind></harmony><note default-y="-50.00" default-x="18.42"><pitch><step>C</step><octave>4</octave></pitch><duration>4</duration><voice>1</voice><type>half</type><stem>up</stem><lyric number="1"><syllabic>single</syllabic><text>me</text></lyric></note><note><rest/><duration>4</duration><voice>1</voice><type>half</type></note></measure><measure width="108.52" number="13"><note><rest/><duration>4</duration><voice>1</voice><type>half</type></note><note><rest/><duration>2</duration><voice>1</voice><type>quarter</type></note><harmony print-frame="no"><root><root-step>C</root-step></root><kind text="">major</kind></harmony><note default-y="-50.00" default-x="80.55"><pitch><step>C</step><octave>4</octave></pitch><duration>2</duration><voice>1</voice><type>quarter</type><stem>up</stem><lyric number="1"><syllabic>single</syllabic><text>I</text></lyric></note></measure><measure width="211.71" number="14"><note default-y="-40.00" default-x="26.55"><pitch><step>E</step><octave>4</octave></pitch><duration>2</duration><voice>1</voice><type>quarter</type><stem>up</stem><lyric number="1"><syllabic>single</syllabic><text>want</text></lyric></note><note default-y="-30.00" default-x="72.35"><pitch><step>G</step><octave>4</octave></pitch><duration>2</duration><voice>1</voice><type>quarter</type><stem>up</stem><lyric number="1"><syllabic>single</syllabic><text>the</text></lyric></note><note default-y="-30.00" default-x="118.51"><pitch><step>G</step><octave>4</octave></pitch><duration>2</duration><voice>1</voice><type>quarter</type><stem>up</stem><lyric number="1"><syllabic>single</syllabic><text>world</text></lyric></note><note default-y="-25.00" default-x="164.31"><pitch><step>A</step><octave>4</octave></pitch><duration>2</duration><voice>1</voice><type>quarter</type><stem>up</stem><lyric number="1"><syllabic>single</syllabic><text>to</text></lyric></note></measure><measure width="132.33" number="15"><harmony print-frame="no"><root><root-step>F</root-step></root><kind text="">major</kind></harmony><note default-y="-50.00" default-x="29.68"><pitch><step>C</step><octave>4</octave></pitch><duration>6</duration><voice>1</voice><type>half</type><dot/><stem>up</stem><lyric number="1"><syllabic>single</syllabic><text>know</text></lyric></note><note default-y="-45.00" default-x="96.49"><pitch><step>D</step><octave>4</octave></pitch><duration>2</duration><voice>1</voice><type>quarter</type><stem>up</stem><lyric number="1"><syllabic>single</syllabic><text>the</text></lyric></note></measure><measure width="166.29" number="16"><harmony print-frame="no"><root><root-step>C</root-step></root><kind text="">major</kind></harmony><note default-y="-40.00" default-x="17.81"><pitch><step>E</step><octave>4</octave></pitch><duration>2</duration><voice>1</voice><type>quarter</type><stem>up</stem><lyric number="1"><syllabic>begin</syllabic><text>sto</text></lyric></note><note default-y="-30.00" default-x="54.53"><pitch><step>G</step><octave>4</octave></pitch><duration>2</duration><voice>1</voice><type>quarter</type><stem>up</stem><lyric number="1"><syllabic>end</syllabic><text>ry</text></lyric></note><note default-y="-30.00" default-x="91.25"><pitch><step>G</step><octave>4</octave></pitch><duration>2</duration><voice>1</voice><type>quarter</type><stem>up</stem><lyric number="1"><syllabic>single</syllabic><text>of</text></lyric></note><note default-y="-25.00" default-x="127.97"><pitch><step>A</step><octave>4</octave></pitch><duration>2</duration><voice>1</voice><type>quarter</type><stem>up</stem><lyric number="1"><syllabic>single</syllabic><text>my</text></lyric></note></measure><measure width="132.53" number="17"><harmony print-frame="no"><root><root-step>F</root-step></root><kind text="">major</kind></harmony><note default-y="-50.00" default-x="33.58"><pitch><step>C</step><octave>4</octave></pitch><duration>6</duration><voice>1</voice><type>half</type><dot/><stem>up</stem><lyric number="1"><syllabic>single</syllabic><text>life</text></lyric></note><note default-y="-45.00" default-x="97.94"><pitch><step>D</step><octave>4</octave></pitch><duration>2</duration><voice>1</voice><type>quarter</type><stem>up</stem><lyric number="1"><syllabic>single</syllabic><text>the</text></lyric></note></measure><measure width="394.16" number="18"><print new-system="yes"><system-layout><system-margins><left-margin>0.00</left-margin><right-margin>0.00</right-margin></system-margins><system-distance>114.97</system-distance></system-layout></print><harmony print-frame="no"><root><root-step>C</root-step></root><kind text="">major</kind></harmony><note default-y="-40.00" default-x="77.35"><pitch><step>E</step><octave>4</octave></pitch><duration>2</duration><voice>1</voice><type>quarter</type><stem>up</stem><lyric number="1"><syllabic>begin</syllabic><text>mom</text></lyric></note><note default-y="-30.00" default-x="159.34"><pitch><step>G</step><octave>4</octave></pitch><duration>2</duration><voice>1</voice><type>quarter</type><stem>up</stem><lyric number="1"><syllabic>end</syllabic><text>ment</text></lyric></note><note default-y="-30.00" default-x="241.33"><pitch><step>G</step><octave>4</octave></pitch><duration>3</duration><voice>1</voice><type>quarter</type><dot/><stem>up</stem><lyric number="1"><syllabic>single</syllabic><text>when</text></lyric></note><note default-y="-25.00" default-x="341.31"><pitch><step>A</step><octave>4</octave></pitch><duration>1</duration><voice>1</voice><type>eighth</type><stem>up</stem><lyric number="1"><syllabic>single</syllabic><text>your</text></lyric></note></measure><measure width="267.99" number="19"><harmony print-frame="no"><root><root-step>G</root-step></root><kind text="7">dominant</kind></harmony><note default-y="-25.00" default-x="20.94"><pitch><step>A</step><octave>4</octave></pitch><duration>2</duration><voice>1</voice><type>quarter</type><stem>up</stem><lyric number="1"><syllabic>single</syllabic><text>lips</text></lyric></note><note default-y="-30.00" default-x="89.12"><pitch><step>G</step><octave>4</octave></pitch><duration>2</duration><voice>1</voice><type>quarter</type><stem>up</stem><lyric number="1"><syllabic>single</syllabic><text>met</text></lyric></note><note default-y="-30.00" default-x="157.30"><pitch><step>G</step><octave>4</octave></pitch><duration>4</duration><voice>1</voice><type>half</type><stem>up</stem><lyric number="1"><syllabic>single</syllabic><text>mine</text></lyric></note></measure><measure width="281.87" number="20"><harmony print-frame="no"><root><root-step>F</root-step></root><kind text="">major</kind></harmony><note default-y="-35.00" default-x="20.93"><pitch><step>F</step><octave>4</octave></pitch><duration>2</duration><voice>1</voice><type>quarter</type><stem>up</stem><lyric number="1"><syllabic>single</syllabic><text>and</text></lyric></note><note default-y="-15.00" default-x="85.77"><pitch><step>C</step><octave>5</octave></pitch><duration>2</duration><voice>1</voice><type>quarter</type><stem>down</stem><lyric number="1"><syllabic>single</syllabic><text>the</text></lyric></note><note default-y="-15.00" default-x="150.60"><pitch><step>C</step><octave>5</octave></pitch><duration>2</duration><voice>1</voice><type>quarter</type><stem>down</stem><lyric number="1"><syllabic>single</syllabic><text>first</text></lyric></note><note default-y="-15.00" default-x="215.43"><pitch><step>C</step><octave>5</octave></pitch><duration>2</duration><voice>1</voice><type>quarter</type><stem>down</stem><lyric number="1"><syllabic>begin</syllabic><text>ex</text></lyric></note></measure><measure width="270.82" number="21"><harmony print-frame="no"><root><root-step>G</root-step></root><kind text="7">dominant</kind></harmony><note default-y="-10.00" default-x="15.93"><pitch><step>D</step><octave>5</octave></pitch><duration>2</duration><voice>1</voice><type>quarter</type><stem>down</stem><lyric number="1"><syllabic>middle</syllabic><text>cit</text></lyric></note><note default-y="-5.00" default-x="79.25"><pitch><step>E</step><octave>5</octave></pitch><duration>2</duration><voice>1</voice><type>quarter</type><stem>down</stem><lyric number="1"><syllabic>end</syllabic><text>ing</text></lyric></note><note default-y="-5.00" default-x="142.57"><pitch><step>E</step><octave>5</octave></pitch><duration>2</duration><voice>1</voice><type>quarter</type><stem>down</stem><lyric number="1"><syllabic>single</syllabic><text>time</text></lyric></note><note default-y="-10.00" default-x="205.90"><pitch><step>D</step><octave>5</octave></pitch><duration>2</duration><voice>1</voice><type>quarter</type><stem>down</stem><lyric number="1"><syllabic>single</syllabic><text>I</text></lyric></note></measure><measure width="360.18" number="22"><print new-system="yes"><system-layout><system-margins><left-margin>0.00</left-margin><right-margin>0.00</right-margin></system-margins><system-distance>114.97</system-distance></system-layout></print><harmony print-frame="no"><root><root-step>C</root-step></root><kind text="">major</kind></harmony><note default-y="-15.00" default-x="73.61"><pitch><step>C</step><octave>5</octave></pitch><duration>2</duration><voice>1</voice><type>quarter</type><stem>down</stem><lyric number="1"><syllabic>single</syllabic><text>held</text></lyric></note><note><rest/><duration>4</duration><voice>1</voice><type>half</type></note><note default-y="-30.00" default-x="279.42"><pitch><step>G</step><octave>4</octave></pitch><duration>2</duration><voice>1</voice><type>quarter</type><stem>up</stem><lyric number="1"><syllabic>single</syllabic><text>you</text></lyric></note></measure><measure width="305.19" number="23"><harmony print-frame="no"><root><root-step>F</root-step></root><kind text="">major</kind></harmony><note default-y="-35.00" default-x="27.80"><pitch><step>F</step><octave>4</octave></pitch><duration>2</duration><voice>1</voice><type>quarter</type><stem>up</stem><lyric number="1"><syllabic>single</syllabic><text>close</text></lyric></note><harmony print-frame="no"><root><root-step>G</root-step></root><kind text="7">dominant</kind></harmony><note><rest/><duration>4</duration><voice>1</voice><type>half</type></note><note default-y="-45.00" default-x="226.98"><pitch><step>D</step><octave>4</octave></pitch><duration>2</duration><voice>1</voice><type>quarter</type><stem>up</stem><lyric number="1"><syllabic>single</syllabic><text>to</text></lyric></note></measure><measure width="259.43" number="24"><harmony print-frame="no"><root><root-step>C</root-step></root><kind text="">major</kind></harmony><note default-y="-50.00" default-x="18.42"><pitch><step>C</step><octave>4</octave></pitch><duration>4</duration><voice>1</voice><type>half</type><stem>up</stem><lyric number="1"><syllabic>single</syllabic><text>me</text></lyric></note><note><rest/><duration>4</duration><voice>1</voice><type>half</type></note></measure><measure width="290.04" number="25"><harmony print-frame="no"><root><root-step>C</root-step></root><kind text="7">dominant</kind></harmony><note><rest/><duration>4</duration><voice>1</voice><type>half</type></note><note><rest/><duration>2</duration><voice>1</voice><type>quarter</type></note><note default-y="-15.00" default-x="211.65"><pitch><step>C</step><octave>5</octave></pitch><duration>2</duration><voice>1</voice><type>quarter</type><stem>down</stem><lyric number="1"><syllabic>single</syllabic><text>The</text></lyric></note></measure><measure width="392.16" number="26"><print new-system="yes"><system-layout><system-margins><left-margin>0.00</left-margin><right-margin>0.00</right-margin></system-margins><system-distance>114.97</system-distance></system-layout></print><harmony print-frame="no"><root><root-step>F</root-step></root><kind text="">major</kind></harmony><note default-y="-25.00" default-x="67.99"><pitch><step>A</step><octave>4</octave></pitch><duration>1</duration><voice>1</voice><type>eighth</type><stem>down</stem><beam number="1">begin</beam><lyric number="1"><syllabic>begin</syllabic><text>sor</text></lyric></note><note default-y="-15.00" default-x="112.03"><pitch><step>C</step><octave>5</octave></pitch><duration>1</duration><voice>1</voice><type>eighth</type><stem>down</stem><beam number="1">continue</beam><lyric number="1"><syllabic>end</syllabic><text>row</text></lyric></note><note default-y="-15.00" default-x="160.06"><pitch><step>C</step><octave>5</octave></pitch><duration>1</duration><voice>1</voice><type>eighth</type><stem>down</stem><beam number="1">continue</beam><lyric number="1"><syllabic>single</syllabic><text>when</text></lyric></note><note default-y="-15.00" default-x="205.59"><pitch><step>C</step><octave>5</octave></pitch><duration>1</duration><voice>1</voice><type>eighth</type><stem>down</stem><beam number="1">end</beam><lyric number="1"><syllabic>single</syllabic><text>our</text></lyric></note><note default-y="-15.00" default-x="249.63"><pitch><step>C</step><octave>5</octave></pitch><duration>2</duration><voice>1</voice><type>quarter</type><stem>down</stem><lyric number="1"><syllabic>single</syllabic><text>love</text></lyric></note><note default-y="-10.00" default-x="320.10"><pitch><step>D</step><octave>5</octave></pitch><duration>2</duration><voice>1</voice><type>quarter</type><stem>down</stem><lyric number="1"><syllabic>single</syllabic><text>was</text></lyric></note></measure><measure width="291.21" number="27"><harmony print-frame="no"><root><root-step>C</root-step></root><kind text="">major</kind></harmony><note default-y="-5.00" default-x="43.57"><pitch><step>E</step><octave>5</octave></pitch><duration>1</duration><voice>1</voice><type>eighth</type><stem>down</stem><beam number="1">begin</beam><lyric number="1"><syllabic>begin</syllabic><text>break</text></lyric></note><note default-y="-10.00" default-x="77.75"><pitch><step>D</step><octave>5</octave></pitch><duration>1</duration><voice>1</voice><type>eighth</type><stem>down</stem><beam number="1">end</beam></note><note default-y="-15.00" default-x="111.92"><pitch><step>C</step><octave>5</octave></pitch><duration>2</duration><voice>1</voice><type>quarter</type><stem>down</stem><lyric number="1"><syllabic>single</syllabic><text>ing</text></lyric></note><note default-y="-15.00" default-x="166.59"><pitch><step>C</step><octave>5</octave></pitch><duration>2</duration><voice>1</voice><type>quarter</type><stem>down</stem><lyric number="1"><syllabic>single</syllabic><text>up</text></lyric></note><note><rest/><duration>1</duration><voice>1</voice><type>eighth</type></note><note default-y="-15.00" default-x="255.44"><pitch><step>C</step><octave>5</octave></pitch><duration>1</duration><voice>1</voice><type>eighth</type><stem>down</stem><lyric number="1"><syllabic>single</syllabic><text>the</text></lyric></note></measure><measure width="297.65" number="28"><harmony print-frame="no"><root><root-step>F</root-step></root><kind text="">major</kind></harmony><note default-y="-25.00" default-x="18.42"><pitch><step>A</step><octave>4</octave></pitch><duration>1</duration><voice>1</voice><type>eighth</type><stem>down</stem><beam number="1">begin</beam><lyric number="1"><syllabic>begin</syllabic><text>me</text></lyric></note><note default-y="-15.00" default-x="58.48"><pitch><step>C</step><octave>5</octave></pitch><duration>1</duration><voice>1</voice><type>eighth</type><stem>down</stem><beam number="1">continue</beam><lyric number="1"><syllabic>end</syllabic><text>'mry</text></lyric></note><note default-y="-15.00" default-x="96.80"><pitch><step>C</step><octave>5</octave></pitch><duration>1</duration><voice>1</voice><type>eighth</type><stem>down</stem><beam number="1">continue</beam><lyric number="1"><syllabic>single</syllabic><text>of</text></lyric></note><note default-y="-15.00" default-x="135.11"><pitch><step>C</step><octave>5</octave></pitch><duration>1</duration><voice>1</voice><type>eighth</type><stem>down</stem><beam number="1">end</beam><lyric number="1"><syllabic>single</syllabic><text>a</text></lyric></note><note default-y="-15.00" default-x="173.43"><pitch><step>C</step><octave>5</octave></pitch><duration>2</duration><voice>1</voice><type>quarter</type><stem>down</stem><lyric number="1"><syllabic>begin</syllabic><text>bro</text></lyric></note><note default-y="-15.00" default-x="234.74"><pitch><step>C</step><octave>5</octave></pitch><duration>2</duration><voice>1</voice><type>quarter</type><stem>down</stem><lyric number="1"><syllabic>end</syllabic><text>ken</text></lyric></note></measure><measure width="233.81" number="29"><harmony print-frame="no"><root><root-step>C</root-step></root><kind text="">major</kind></harmony><note default-y="-25.00" default-x="27.17"><pitch><step>A</step><octave>4</octave></pitch><duration>1</duration><voice>1</voice><type>eighth</type><stem>up</stem><beam number="1">begin</beam><lyric number="1"><syllabic>single</syllabic><text>heart</text></lyric></note><note default-y="-30.00" default-x="60.24"><pitch><step>G</step><octave>4</octave></pitch><duration>1</duration><voice>1</voice><type>eighth</type><stem>up</stem><beam number="1">end</beam></note><note><rest/><duration>4</duration><voice>1</voice><type>half</type></note><note><rest/><duration>1</duration><voice>1</voice><type>eighth</type></note><note default-y="-15.00" default-x="199.14"><pitch><step>C</step><octave>5</octave></pitch><duration>1</duration><voice>1</voice><type>eighth</type><stem>down</stem><lyric number="1"><syllabic>single</syllabic><text>and</text></lyric></note></measure><measure width="357.21" number="30"><print new-system="yes"><system-layout><system-margins><left-margin>0.00</left-margin><right-margin>-0.00</right-margin></system-margins><system-distance>114.97</system-distance></system-layout></print><harmony print-frame="no"><root><root-step>F</root-step></root><kind text="">major</kind></harmony><note default-y="-25.00" default-x="62.35"><pitch><step>A</step><octave>4</octave></pitch><duration>1</duration><voice>1</voice><type>eighth</type><stem>down</stem><beam number="1">begin</beam><lyric number="1"><syllabic>begin</syllabic><text>la</text></lyric></note><note default-y="-15.00" default-x="103.08"><pitch><step>C</step><octave>5</octave></pitch><duration>1</duration><voice>1</voice><type>eighth</type><stem>down</stem><beam number="1">continue</beam><lyric number="1"><syllabic>end</syllabic><text>ter</text></lyric></note><note default-y="-15.00" default-x="143.81"><pitch><step>C</step><octave>5</octave></pitch><duration>1</duration><voice>1</voice><type>eighth</type><stem>down</stem><beam number="1">continue</beam><lyric number="1"><syllabic>single</syllabic><text>on</text></lyric></note><note default-y="-15.00" default-x="184.54"><pitch><step>C</step><octave>5</octave></pitch><duration>1</duration><voice>1</voice><type>eighth</type><stem>down</stem><beam number="1">end</beam><lyric number="1"><syllabic>single</syllabic><text>the</text></lyric></note><note default-y="-15.00" default-x="225.27"><pitch><step>C</step><octave>5</octave></pitch><duration>2</duration><voice>1</voice><type>quarter</type><stem>down</stem><lyric number="1"><syllabic>single</syllabic><text>joy</text></lyric></note><note default-y="-10.00" default-x="290.44"><pitch><step>D</step><octave>5</octave></pitch><duration>2</duration><voice>1</voice><type>quarter</type><stem>down</stem><lyric number="1"><syllabic>single</syllabic><text>of</text></lyric></note></measure><measure width="265.47" number="31"><harmony print-frame="no"><root><root-step>C</root-step></root><kind text="">major</kind></harmony><note default-y="-5.00" default-x="18.42"><pitch><step>E</step><octave>5</octave></pitch><duration>1</duration><voice>1</voice><type>eighth</type><stem>down</stem><beam number="1">begin</beam><lyric number="1"><syllabic>begin</syllabic><text>ma</text></lyric></note><note default-y="-10.00" default-x="58.34"><pitch><step>D</step><octave>5</octave></pitch><duration>1</duration><voice>1</voice><type>eighth</type><stem>down</stem><beam number="1">end</beam><lyric number="1"><syllabic>end</syllabic><text>king</text></lyric></note><note default-y="-15.00" default-x="93.77"><pitch><step>C</step><octave>5</octave></pitch><duration>2</duration><voice>1</voice><type>quarter</type><stem>down</stem></note><note default-y="-15.00" default-x="150.47"><pitch><step>C</step><octave>5</octave></pitch><duration>2</duration><voice>1</voice><type>quarter</type><stem>down</stem><lyric number="1"><syllabic>single</syllabic><text>up</text></lyric></note><note><rest/><duration>2</duration><voice>1</voice><type>quarter</type></note></measure><measure width="334.96" number="32"><harmony print-frame="no"><root><root-step>D</root-step></root><kind text="7">dominant</kind></harmony><note default-y="-10.00" default-x="20.93"><pitch><step>D</step><octave>5</octave></pitch><duration>1</duration><voice>1</voice><type>eighth</type><stem>down</stem><beam number="1">begin</beam><lyric number="1"><syllabic>begin</syllabic><text>nev</text></lyric></note><note default-y="-10.00" default-x="64.32"><pitch><step>D</step><octave>5</octave></pitch><duration>1</duration><voice>1</voice><type>eighth</type><stem>down</stem><beam number="1">continue</beam><lyric number="1"><syllabic>end</syllabic><text>er</text></lyric></note><note default-y="-10.00" default-x="107.72"><pitch><step>D</step><octave>5</octave></pitch><duration>1</duration><voice>1</voice><type>eighth</type><stem>down</stem><beam number="1">continue</beam><lyric number="1"><syllabic>begin</syllabic><text>nev</text></lyric></note><note default-y="-10.00" default-x="151.11"><pitch><step>D</step><octave>5</octave></pitch><duration>1</duration><voice>1</voice><type>eighth</type><stem>down</stem><beam number="1">end</beam><lyric number="1"><syllabic>end</syllabic><text>er</text></lyric></note><note default-y="-10.00" default-x="194.50"><pitch><step>D</step><octave>5</octave></pitch><duration>2</duration><voice>1</voice><type>quarter</type><stem>down</stem><lyric number="1"><syllabic>single</syllabic><text>more</text></lyric></note><note default-y="-10.00" default-x="263.93"><pitch><step>D</step><octave>5</octave></pitch><duration>2</duration><voice>1</voice><type>quarter</type><stem>down</stem><lyric number="1"><syllabic>single</syllabic><text>to</text></lyric></note></measure><measure width="257.20" number="33"><harmony print-frame="no"><root><root-step>G</root-step></root><kind text="7">dominant</kind></harmony><note default-y="-20.00" default-x="22.18"><pitch><step>B</step><octave>4</octave></pitch><duration>2</duration><voice>1</voice><type>quarter</type><stem>down</stem><lyric number="1"><syllabic>single</syllabic><text>part</text></lyric></note><note default-y="-30.00" default-x="80.53"><pitch><step>G</step><octave>4</octave></pitch><duration>2</duration><voice>1</voice><type>quarter</type><stem>up</stem></note><note><rest/><duration>2</duration><voice>1</voice><type>quarter</type></note><note default-y="-50.00" default-x="197.24"><pitch><step>C</step><octave>4</octave></pitch><duration>2</duration><voice>1</voice><type>quarter</type><stem>up</stem><lyric number="1"><syllabic>single</syllabic><text>theres</text></lyric></note></measure><measure width="386.14" number="34"><print new-system="yes"><system-layout><system-margins><left-margin>0.00</left-margin><right-margin>-0.00</right-margin></system-margins><system-distance>114.97</system-distance></system-layout></print><harmony print-frame="no"><root><root-step>C</root-step></root><kind text="">major</kind></harmony><note default-y="-40.00" default-x="70.48"><pitch><step>E</step><octave>4</octave></pitch><duration>2</duration><voice>1</voice><type>quarter</type><stem>up</stem><lyric number="1"><syllabic>single</syllabic><text>one</text></lyric></note><note default-y="-30.00" default-x="149.00"><pitch><step>G</step><octave>4</octave></pitch><duration>2</duration><voice>1</voice><type>quarter</type><stem>up</stem><lyric number="1"><syllabic>single</syllabic><text>thing</text></lyric></note><note default-y="-30.00" default-x="227.51"><pitch><step>G</step><octave>4</octave></pitch><duration>2</duration><voice>1</voice><type>quarter</type><stem>up</stem><lyric number="1"><syllabic>single</syllabic><text>I</text></lyric></note><note default-y="-25.00" default-x="306.03"><pitch><step>A</step><octave>4</octave></pitch><duration>2</duration><voice>1</voice><type>quarter</type><stem>up</stem><lyric number="1"><syllabic>single</syllabic><text>must</text></lyric></note></measure><measure width="241.19" number="35"><harmony print-frame="no"><root><root-step>F</root-step></root><kind text="">major</kind></harmony><note default-y="-50.00" default-x="15.94"><pitch><step>C</step><octave>4</octave></pitch><duration>6</duration><voice>1</voice><type>half</type><dot/><stem>up</stem><lyric number="1"><syllabic>single</syllabic><text>do</text></lyric></note><note default-y="-45.00" default-x="163.80"><pitch><step>D</step><octave>4</octave></pitch><duration>2</duration><voice>1</voice><type>quarter</type><stem>up</stem><lyric number="1"><syllabic>begin</syllabic><text>be</text></lyric></note></measure><measure width="315.75" number="36"><harmony print-frame="no"><root><root-step>C</root-step></root><kind text="">major</kind></harmony><note default-y="-40.00" default-x="22.80"><pitch><step>E</step><octave>4</octave></pitch><duration>2</duration><voice>1</voice><type>quarter</type><stem>up</stem><lyric number="1"><syllabic>end</syllabic><text>fore</text></lyric></note><note default-y="-30.00" default-x="95.64"><pitch><step>G</step><octave>4</octave></pitch><duration>2</duration><voice>1</voice><type>quarter</type><stem>up</stem><lyric number="1"><syllabic>single</syllabic><text>the</text></lyric></note><note default-y="-30.00" default-x="168.47"><pitch><step>G</step><octave>4</octave></pitch><duration>2</duration><voice>1</voice><type>quarter</type><stem>up</stem><lyric number="1"><syllabic>begin</syllabic><text>sto</text></lyric></note><note default-y="-25.00" default-x="241.31"><pitch><step>A</step><octave>4</octave></pitch><duration>2</duration><voice>1</voice><type>quarter</type><stem>up</stem><lyric number="1"><syllabic>end</syllabic><text>rys</text></lyric></note></measure><measure width="271.76" number="37"><harmony print-frame="no"><root><root-step>F</root-step></root><kind text="">major</kind></harmony><note default-y="-50.00" default-x="39.69"><pitch><step>C</step><octave>4</octave></pitch><duration>6</duration><voice>1</voice><type>half</type><dot/><stem>up</stem><lyric number="1"><syllabic>single</syllabic><text>through</text></lyric></note><note default-y="-45.00" default-x="192.06"><pitch><step>D</step><octave>4</octave></pitch><duration>2</duration><voice>1</voice><type>quarter</type><stem>up</stem><lyric number="1"><syllabic>single</syllabic><text>I</text></lyric></note></measure><measure width="364.69" number="38"><print new-system="yes"><system-layout><system-margins><left-margin>0.00</left-margin><right-margin>0.00</right-margin></system-margins><system-distance>114.97</system-distance></system-layout></print><harmony print-frame="no"><root><root-step>C</root-step></root><kind text="">major</kind></harmony><note default-y="-40.00" default-x="76.10"><pitch><step>E</step><octave>4</octave></pitch><duration>2</duration><voice>1</voice><type>quarter</type><stem>up</stem><lyric number="1"><syllabic>single</syllabic><text>want</text></lyric></note><note default-y="-30.00" default-x="150.75"><pitch><step>G</step><octave>4</octave></pitch><duration>2</duration><voice>1</voice><type>quarter</type><stem>up</stem><lyric number="1"><syllabic>single</syllabic><text>to</text></lyric></note><note default-y="-30.00" default-x="225.41"><pitch><step>G</step><octave>4</octave></pitch><duration>3</duration><voice>1</voice><type>quarter</type><dot/><stem>up</stem><lyric number="1"><syllabic>single</syllabic><text>take</text></lyric></note><note default-y="-30.00" default-x="316.44"><pitch><step>G</step><octave>4</octave></pitch><duration>1</duration><voice>1</voice><type>eighth</type><stem>up</stem><lyric number="1"><syllabic>single</syllabic><text>you</text></lyric></note></measure><measure width="275.99" number="39"><harmony print-frame="no"><root><root-step>G</root-step></root><kind text="7">dominant</kind></harmony><note default-y="-25.00" default-x="31.70"><pitch><step>A</step><octave>4</octave></pitch><duration>2</duration><voice>1</voice><type>quarter</type><stem>up</stem><lyric number="1"><syllabic>single</syllabic><text>for</text></lyric></note><note default-y="-30.00" default-x="99.12"><pitch><step>G</step><octave>4</octave></pitch><duration>2</duration><voice>1</voice><type>quarter</type><stem>up</stem><lyric number="1"><syllabic>single</syllabic><text>my</text></lyric></note><note default-y="-30.00" default-x="166.53"><pitch><step>G</step><octave>4</octave></pitch><duration>4</duration><voice>1</voice><type>half</type><stem>up</stem><lyric number="1"><syllabic>single</syllabic><text>wife</text></lyric></note></measure><measure width="288.23" number="40"><harmony print-frame="no"><root><root-step>F</root-step></root><kind text="">major</kind></harmony><note default-y="-35.00" default-x="28.59"><pitch><step>F</step><octave>4</octave></pitch><duration>2</duration><voice>1</voice><type>quarter</type><stem>up</stem><lyric number="1"><syllabic>single</syllabic><text>so</text></lyric></note><note default-y="-15.00" default-x="93.10"><pitch><step>C</step><octave>5</octave></pitch><duration>2</duration><voice>1</voice><type>quarter</type><stem>down</stem><lyric number="1"><syllabic>single</syllabic><text>the</text></lyric></note><note default-y="-15.00" default-x="157.61"><pitch><step>C</step><octave>5</octave></pitch><duration>2</duration><voice>1</voice><type>quarter</type><stem>down</stem><lyric number="1"><syllabic>begin</syllabic><text>stor</text></lyric></note><note default-y="-15.00" default-x="222.12"><pitch><step>C</step><octave>5</octave></pitch><duration>2</duration><voice>1</voice><type>quarter</type><stem>down</stem><lyric number="1"><syllabic>end</syllabic><text>y</text></lyric></note></measure><measure width="285.92" number="41"><harmony print-frame="no"><root><root-step>G</root-step></root><kind text="7">dominant</kind></harmony><note default-y="-10.00" default-x="15.27"><pitch><step>D</step><octave>5</octave></pitch><duration>2</duration><voice>1</voice><type>quarter</type><stem>down</stem><lyric number="1"><syllabic>single</syllabic><text>of</text></lyric></note><note default-y="-5.00" default-x="82.54"><pitch><step>E</step><octave>5</octave></pitch><duration>2</duration><voice>1</voice><type>quarter</type><stem>down</stem><lyric number="1"><syllabic>single</syllabic><text>my</text></lyric></note><note default-y="-5.00" default-x="149.80"><pitch><step>E</step><octave>5</octave></pitch><duration>2</duration><voice>1</voice><type>quarter</type><stem>down</stem><lyric number="1"><syllabic>single</syllabic><text>life</text></lyric></note><note default-y="-10.00" default-x="217.06"><pitch><step>D</step><octave>5</octave></pitch><duration>2</duration><voice>1</voice><type>quarter</type><stem>down</stem><lyric number="1"><syllabic>single</syllabic><text>can</text></lyric></note></measure><measure width="208.28" number="42"><print new-system="yes"><system-layout><system-margins><left-margin>0.00</left-margin><right-margin>0.00</right-margin></system-margins><system-distance>114.97</system-distance></system-layout></print><harmony print-frame="no"><root><root-step>C</root-step></root><kind text="">major</kind></harmony><note default-y="-15.00" default-x="73.61"><pitch><step>C</step><octave>5</octave></pitch><duration>2</duration><voice>1</voice><type>quarter</type><stem>down</stem><lyric number="1"><syllabic>single</syllabic><text>start</text></lyric></note><note><rest/><duration>4</duration><voice>1</voice><type>half</type></note><note default-y="-30.00" default-x="169.71"><pitch><step>G</step><octave>4</octave></pitch><duration>2</duration><voice>1</voice><type>quarter</type><stem>up</stem><lyric number="1"><syllabic>single</syllabic><text>and</text></lyric></note></measure><measure width="152.48" number="43"><harmony print-frame="no"><root><root-step>F</root-step></root><kind text="">major</kind></harmony><note default-y="-35.00" default-x="20.93"><pitch><step>F</step><octave>4</octave></pitch><duration>2</duration><voice>1</voice><type>quarter</type><stem>up</stem><lyric number="1"><syllabic>single</syllabic><text>end</text></lyric></note><harmony print-frame="no"><root><root-step>G</root-step></root><kind text="7">dominant</kind></harmony><note><rest/><duration>4</duration><voice>1</voice><type>half</type></note><note default-y="-45.00" default-x="114.78"><pitch><step>D</step><octave>4</octave></pitch><duration>2</duration><voice>1</voice><type>quarter</type><stem>up</stem><lyric number="1"><syllabic>single</syllabic><text>and</text></lyric></note></measure><measure width="172.63" number="44"><harmony print-frame="no"><root><root-step>F</root-step></root><kind text="">major</kind></harmony><note default-y="-15.00" default-x="37.95"><pitch><step>C</step><octave>5</octave></pitch><duration>2</duration><voice>1</voice><type>quarter</type><stem>down</stem><lyric number="1"><syllabic>single</syllabic><text>start</text></lyric></note><harmony print-frame="no"><root><root-step>G</root-step></root><kind text="7">dominant</kind></harmony><note><rest/><duration>4</duration><voice>1</voice><type>half</type></note><note default-y="-30.00" default-x="134.06"><pitch><step>G</step><octave>4</octave></pitch><duration>2</duration><voice>1</voice><type>quarter</type><stem>up</stem><lyric number="1"><syllabic>single</syllabic><text>and</text></lyric></note></measure><measure width="152.48" number="45"><harmony print-frame="no"><root><root-step>F</root-step></root><kind text="">major</kind></harmony><note default-y="-35.00" default-x="20.93"><pitch><step>F</step><octave>4</octave></pitch><duration>2</duration><voice>1</voice><type>quarter</type><stem>up</stem><lyric number="1"><syllabic>single</syllabic><text>end</text></lyric></note><harmony print-frame="no"><root><root-step>G</root-step></root><kind text="7">dominant</kind></harmony><note><rest/><duration>4</duration><voice>1</voice><type>half</type></note><note default-y="-45.00" default-x="114.78"><pitch><step>D</step><octave>4</octave></pitch><duration>2</duration><voice>1</voice><type>quarter</type><stem>up</stem><lyric number="1"><syllabic>single</syllabic><text>and</text></lyric></note></measure><measure width="158.73" number="46"><harmony print-frame="no"><root><root-step>C</root-step></root><kind text="">major</kind></harmony><note default-y="-15.00" default-x="24.05"><pitch><step>C</step><octave>5</octave></pitch><duration>2</duration><voice>1</voice><type>quarter</type><stem>down</stem><lyric number="1"><syllabic>single</syllabic><text>start</text></lyric></note><note><rest/><duration>4</duration><voice>1</voice><type>half</type></note><note default-y="-30.00" default-x="120.16"><pitch><step>G</step><octave>4</octave></pitch><duration>2</duration><voice>1</voice><type>quarter</type><stem>up</stem><lyric number="1"><syllabic>single</syllabic><text>and</text></lyric></note></measure><measure width="159.98" number="47"><harmony print-frame="no"><root><root-step>F</root-step></root><kind text="">major</kind></harmony><note default-y="-35.00" default-x="20.93"><pitch><step>F</step><octave>4</octave></pitch><duration>2</duration><voice>1</voice><type>quarter</type><stem>up</stem><lyric number="1"><syllabic>single</syllabic><text>end</text></lyric></note><harmony print-frame="no"><root><root-step>G</root-step></root><kind text="7">dominant</kind></harmony><note><rest/><duration>4</duration><voice>1</voice><type>half</type></note><note default-y="-45.00" default-x="120.20"><pitch><step>D</step><octave>4</octave></pitch><duration>2</duration><voice>1</voice><type>quarter</type><stem>up</stem><lyric number="1"><syllabic>single</syllabic><text>with</text></lyric></note></measure><measure width="120.70" number="48"><harmony print-frame="no"><root><root-step>C</root-step></root><kind text="">major</kind></harmony><note default-y="-50.00" default-x="24.37"><pitch><step>C</step><octave>4</octave></pitch><duration>4</duration><voice>1</voice><type>half</type><stem>up</stem><lyric number="1"><syllabic>single</syllabic><text>you.</text></lyric></note><note><rest/><duration>4</duration><voice>1</voice><type>half</type></note></measure><measure width="89.55" number="49"><note><rest/><duration>8</duration><voice>1</voice></note><barline location="right"><bar-style>light-heavy</bar-style></barline></measure></part></score-partwise>