<score-partwise version="2.0"><work><work-number/><work-title/></work><movement-number/><movement-title>Don't It Make My Brown Eyes Blue</movement-title><identification><creator type="composer">Richard Leigh</creator><creator type="poet">Richard Leigh</creator><rights>All Rights Reserved</rights><encoding><software>MuseScore 0.9.5</software><encoding-date>2010-04-24</encoding-date><software>ProxyMusic 2.0 c</software></encoding><source>http://wikifonia.org/node/5562/revisions/7683/view</source></identification><defaults><scaling><millimeters>7.056</millimeters><tenths>40</tenths></scaling><page-layout><page-height>1683.67</page-height><page-width>1190.48</page-width><page-margins type="both"><left-margin>56.6893</left-margin><right-margin>56.6893</right-margin><top-margin>56.6893</top-margin><bottom-margin>113.379</bottom-margin></page-margins></page-layout></defaults><credit page="1"><credit-words font-size="24" default-y="1626.98" default-x="595.238" justify="center" valign="top">Dont it make my brown eyes blue</credit-words></credit><credit page="1"><credit-words font-size="12" default-y="1556.5" default-x="1133.79" justify="right" valign="top">Richard Leigh</credit-words></credit><part-list><part-group type="start" number="1"><group-symbol>brace</group-symbol></part-group><score-part id="P1"><part-name>Electric Piano</part-name><score-instrument id="P1-I3"><instrument-name>Electric Piano</instrument-name></score-instrument><midi-instrument id="P1-I3"><midi-channel>1</midi-channel><midi-program>5</midi-program></midi-instrument></score-part></part-list><part id="P1"><measure width="448.90" number="1"><print><system-layout><system-margins><left-margin>169.77</left-margin><right-margin>0.00</right-margin></system-margins><top-system-distance>197.78</top-system-distance></system-layout></print><barline location="left"><bar-style>heavy-light</bar-style><repeat direction="forward"/></barline><attributes><divisions>12</divisions><key><fifths>0</fifths><mode>major</mode></key><time><beats>4</beats><beat-type>4</beat-type></time><clef><sign>G</sign><line>2</line></clef></attributes><harmony print-frame="no"><root><root-step>C</root-step></root><kind text="">major</kind></harmony><note><rest/><duration>12</duration><voice>1</voice><type>quarter</type></note><note default-y="-30.00" default-x="195.39"><pitch><step>G</step><octave>4</octave></pitch><duration>6</duration><voice>1</voice><type>eighth</type><stem>up</stem><beam number="1">begin</beam><lyric number="1"><syllabic>single</syllabic><text>Dont</text></lyric><lyric number="2"><syllabic>single</syllabic><text>I'll</text></lyric></note><note default-y="-25.00" default-x="255.37"><pitch><step>A</step><octave>4</octave></pitch><duration>6</duration><voice>1</voice><type>eighth</type><stem>up</stem><beam number="1">end</beam><lyric number="1"><syllabic>single</syllabic><text>know</text></lyric><lyric number="2"><syllabic>single</syllabic><text>be</text></lyric></note><harmony print-frame="no"><root><root-step>A</root-step></root><kind text="m">minor</kind></harmony><note default-y="-15.00" default-x="315.35"><pitch><step>C</step><octave>5</octave></pitch><duration>24</duration><voice>1</voice><type>half</type><stem>down</stem><lyric number="1"><syllabic>single</syllabic><text>when</text></lyric><lyric number="2"><syllabic>single</syllabic><text>fine</text></lyric></note></measure><measure width="458.42" number="2"><harmony print-frame="no"><root><root-step>D</root-step></root><kind text="m7">minor-seventh</kind></harmony><note><rest/><duration>6</duration><voice>1</voice><type>eighth</type></note><note default-y="-30.00" default-x="72.58"><pitch><step>G</step><octave>4</octave></pitch><duration>6</duration><voice>1</voice><type>eighth</type><stem>down</stem><beam number="1">begin</beam><lyric number="1"><syllabic>single</syllabic><text>I've</text></lyric></note><note default-y="-15.00" default-x="130.17"><pitch><step>C</step><octave>5</octave></pitch><duration>6</duration><voice>1</voice><type>eighth</type><stem>down</stem><beam number="1">continue</beam><lyric number="1"><syllabic>single</syllabic><text>been</text></lyric><lyric number="2"><syllabic>single</syllabic><text>when</text></lyric></note><note default-y="-15.00" default-x="188.21"><pitch><step>C</step><octave>5</octave></pitch><duration>6</duration><voice>1</voice><type>eighth</type><stem>down</stem><beam number="1">end</beam><lyric number="1"><syllabic>single</syllabic><text>so</text></lyric><lyric number="2"><syllabic>single</syllabic><text>you're</text></lyric></note><harmony print-frame="no"><root><root-step>G</root-step></root><kind text="7">dominant</kind></harmony><note default-y="-25.00" default-x="245.79"><pitch><step>A</step><octave>4</octave></pitch><duration>4</duration><voice>1</voice><type>eighth</type><time-modification><actual-notes>3</actual-notes><normal-notes>2</normal-notes></time-modification><stem>up</stem><beam number="1">begin</beam><notations><tuplet type="start" bracket="no"/></notations><lyric number="1"><syllabic>single</syllabic><text>blue</text></lyric><lyric number="2"><syllabic>single</syllabic><text>gone</text></lyric></note><note default-y="-30.00" default-x="288.41"><pitch><step>G</step><octave>4</octave></pitch><duration>4</duration><voice>1</voice><type>eighth</type><time-modification><actual-notes>3</actual-notes><normal-notes>2</normal-notes></time-modification><stem>up</stem><beam number="1">continue</beam></note><note default-y="-40.00" default-x="331.04"><pitch><step>E</step><octave>4</octave></pitch><duration>4</duration><voice>1</voice><type>eighth</type><time-modification><actual-notes>3</actual-notes><normal-notes>2</normal-notes></time-modification><stem>up</stem><beam number="1">end</beam><notations><tuplet type="stop"/></notations></note><note default-y="-30.00" default-x="373.66"><pitch><step>G</step><octave>4</octave></pitch><duration>12</duration><voice>1</voice><type>quarter</type><stem>up</stem></note></measure><measure width="346.00" number="3"><print new-system="yes"><system-layout><system-margins><left-margin>109.38</left-margin><right-margin>0.00</right-margin></system-margins><system-distance>149.13</system-distance></system-layout></print><harmony print-frame="no"><root><root-step>C</root-step></root><kind text="">major</kind></harmony><note><rest/><duration>12</duration><voice>1</voice><type>quarter</type></note><note default-y="-30.00" default-x="117.49"><pitch><step>G</step><octave>4</octave></pitch><duration>6</duration><voice>1</voice><type>eighth</type><stem>up</stem><beam number="1">begin</beam><lyric number="1"><syllabic>single</syllabic><text>dont</text></lyric><lyric number="2"><syllabic>single</syllabic><text>I'll</text></lyric></note><note default-y="-25.00" default-x="168.51"><pitch><step>A</step><octave>4</octave></pitch><duration>6</duration><voice>1</voice><type>eighth</type><stem>up</stem><beam number="1">end</beam><lyric number="1"><syllabic>single</syllabic><text>know</text></lyric><lyric number="2"><syllabic>single</syllabic><text>just</text></lyric></note><harmony print-frame="no"><root><root-step>A</root-step></root><kind text="m7">minor-seventh</kind></harmony><note default-y="-25.00" default-x="225.78"><pitch><step>A</step><octave>4</octave></pitch><duration>18</duration><voice>1</voice><type>quarter</type><dot/><stem>up</stem><lyric number="1"><syllabic>single</syllabic><text>whats</text></lyric><lyric number="2"><syllabic>single</syllabic><text>cry</text></lyric></note><note default-y="-40.00" default-x="304.20"><pitch><step>E</step><octave>4</octave></pitch><duration>6</duration><voice>1</voice><type>eighth</type><stem>up</stem><lyric number="1"><syllabic>single</syllabic><text>come</text></lyric></note></measure><measure width="270.58" number="4"><harmony print-frame="no"><root><root-step>E</root-step></root><kind text="m7">minor-seventh</kind></harmony><note default-y="-45.00" default-x="19.73"><pitch><step>D</step><octave>4</octave></pitch><duration>6</duration><voice>1</voice><type>eighth</type><stem>up</stem><lyric number="1"><syllabic>begin</syllabic><text>o</text></lyric><lyric number="2"><syllabic>single</syllabic><text>all</text></lyric></note><note default-y="-40.00" default-x="70.19"><pitch><step>E</step><octave>4</octave></pitch><duration>12</duration><voice>1</voice><type>quarter</type><stem>up</stem><lyric number="1"><syllabic>end</syllabic><text>ver</text></lyric><lyric number="2"><syllabic>single</syllabic><text>night</text></lyric></note><note default-y="-40.00" default-x="119.33"><pitch><step>E</step><octave>4</octave></pitch><duration>4</duration><tie type="start"/><voice>1</voice><type>eighth</type><time-modification><actual-notes>3</actual-notes><normal-notes>2</normal-notes></time-modification><stem>up</stem><beam number="1">begin</beam><notations><tied type="start"/><tuplet type="start" bracket="no"/></notations><lyric number="1"><syllabic>single</syllabic><text>you</text></lyric><lyric number="2"><syllabic>single</syllabic><text>long</text></lyric></note><harmony print-frame="no"><root><root-step>E</root-step></root><kind text="7">dominant</kind></harmony><note default-y="-40.00" default-x="144.34"><pitch><step>E</step><octave>4</octave></pitch><duration>4</duration><tie type="stop"/><voice>1</voice><type>eighth</type><time-modification><actual-notes>3</actual-notes><normal-notes>2</normal-notes></time-modification><stem>up</stem><beam number="1">continue</beam><notations><tied type="stop"/></notations></note><note default-y="-45.00" default-x="167.85"><pitch><step>D</step><octave>4</octave></pitch><duration>4</duration><voice>1</voice><type>eighth</type><time-modification><actual-notes>3</actual-notes><normal-notes>2</normal-notes></time-modification><stem>up</stem><beam number="1">end</beam><notations><tuplet type="stop"/></notations></note><note><rest/><duration>6</duration><voice>1</voice><type>eighth</type></note><note><rest/><duration>12</duration><voice>1</voice><type>quarter</type></note></measure><measure width="351.13" number="5"><harmony print-frame="no"><root><root-step>A</root-step></root><kind text="m">minor</kind></harmony><note><rest/><duration>6</duration><voice>1</voice><type>eighth</type></note><note default-y="-50.00" default-x="59.86"><pitch><step>C</step><octave>4</octave></pitch><duration>12</duration><voice>1</voice><type>quarter</type><stem>up</stem><lyric number="1"><syllabic>single</syllabic><text>you've</text></lyric><lyric number="2"><syllabic>single</syllabic><text>say</text></lyric></note><note default-y="-45.00" default-x="131.35"><pitch><step>D</step><octave>4</octave></pitch><duration>6</duration><voice>1</voice><type>eighth</type><stem>up</stem><lyric number="1"><syllabic>single</syllabic><text>found</text></lyric><lyric number="2"><syllabic>single</syllabic><text>it</text></lyric></note><harmony print-frame="no"><root><root-step>C</root-step></root><kind text="">major</kind></harmony><note default-y="-40.00" default-x="187.37"><pitch><step>E</step><octave>4</octave></pitch><duration>6</duration><voice>1</voice><type>eighth</type><stem>up</stem><lyric number="1"><syllabic>begin</syllabic><text>some</text></lyric><lyric number="2"><syllabic>begin</syllabic><text>is</text></lyric></note><note default-y="-15.00" default-x="233.37"><pitch><step>C</step><octave>5</octave></pitch><duration>12</duration><voice>1</voice><type>quarter</type><stem>down</stem><lyric number="1"><syllabic>end</syllabic><text>one</text></lyric><lyric number="2"><syllabic>end</syllabic><text>nt</text></lyric></note><harmony print-frame="no"><root><root-step>D</root-step></root><kind text="7">dominant</kind></harmony><note default-y="-15.00" default-x="304.85"><pitch><step>C</step><octave>5</octave></pitch><duration>6</duration><tie type="start"/><voice>1</voice><type>eighth</type><stem>down</stem><notations><tied type="start"/></notations><lyric number="1"><syllabic>single</syllabic><text>new</text></lyric><lyric number="2"><syllabic>single</syllabic><text>true</text></lyric></note></measure><measure width="271.14" number="6"><print new-system="yes"><system-layout><system-margins><left-margin>109.38</left-margin><right-margin>0.00</right-margin></system-margins><system-distance>149.13</system-distance></system-layout></print><note default-y="-15.00" default-x="53.18"><pitch><step>C</step><octave>5</octave></pitch><duration>36</duration><tie type="stop"/><voice>1</voice><type>half</type><dot/><stem>down</stem><notations><tied type="stop"/></notations></note><note><rest/><duration>6</duration><voice>1</voice><type>eighth</type></note><note default-y="-25.00" default-x="222.00"><pitch><step>A</step><octave>4</octave></pitch><duration>6</duration><voice>1</voice><type>eighth</type><stem>up</stem><lyric number="1"><syllabic>single</syllabic><text>and</text></lyric></note></measure><measure width="419.09" number="7"><barline location="left"><ending type="start" number="1"/></barline><harmony print-frame="no"><root><root-step>F</root-step></root><kind text="">major</kind></harmony><note default-y="-15.00" default-x="28.51"><pitch><step>C</step><octave>5</octave></pitch><duration>6</duration><voice>1</voice><type>eighth</type><stem>up</stem><beam number="1">begin</beam><lyric number="1"><syllabic>single</syllabic><text>dont</text></lyric></note><note default-y="-15.00" default-x="84.47"><pitch><step>C</step><octave>5</octave></pitch><duration>6</duration><voice>1</voice><type>eighth</type><stem>up</stem><beam number="1">continue</beam><lyric number="1"><syllabic>single</syllabic><text>it</text></lyric></note><note default-y="-25.00" default-x="140.43"><pitch><step>A</step><octave>4</octave></pitch><duration>6</duration><voice>1</voice><type>eighth</type><stem>up</stem><beam number="1">continue</beam><lyric number="1"><syllabic>single</syllabic><text>make</text></lyric></note><note default-y="-30.00" default-x="196.39"><pitch><step>G</step><octave>4</octave></pitch><duration>6</duration><voice>1</voice><type>eighth</type><stem>up</stem><beam number="1">end</beam><lyric number="1"><syllabic>single</syllabic><text>my</text></lyric></note><harmony print-frame="no"><root><root-step>E</root-step></root><kind text="m7">minor-seventh</kind></harmony><note default-y="-30.00" default-x="252.35"><pitch><step>G</step><octave>4</octave></pitch><duration>6</duration><voice>1</voice><type>eighth</type><stem>up</stem><lyric number="1"><syllabic>single</syllabic><text>brown</text></lyric></note><note default-y="-40.00" default-x="308.31"><pitch><step>E</step><octave>4</octave></pitch><duration>18</duration><voice>1</voice><type>quarter</type><dot/><stem>up</stem><lyric number="1"><syllabic>single</syllabic><text>eyes</text></lyric></note><barline location="right"><ending type="stop" number="1"/></barline></measure><measure width="277.49" number="8"><harmony print-frame="no"><root><root-step>F</root-step></root><kind text="">major</kind></harmony><note default-y="-40.00" default-x="27.87"><pitch><step>E</step><octave>4</octave></pitch><duration>6</duration><voice>1</voice><type>eighth</type><stem>up</stem><beam number="1">begin</beam><lyric number="1"><syllabic>single</syllabic><text>blue</text></lyric></note><note default-y="-35.00" default-x="65.69"><pitch><step>F</step><octave>4</octave></pitch><duration>6</duration><voice>1</voice><type>eighth</type><stem>up</stem><beam number="1">continue</beam></note><note default-y="-40.00" default-x="103.50"><pitch><step>E</step><octave>4</octave></pitch><duration>6</duration><voice>1</voice><type>eighth</type><stem>up</stem><beam number="1">continue</beam></note><note default-y="-45.00" default-x="141.32"><pitch><step>D</step><octave>4</octave></pitch><duration>6</duration><tie type="start"/><voice>1</voice><type>eighth</type><stem>up</stem><beam number="1">end</beam><notations><tied type="start"/></notations></note><note default-y="-45.00" default-x="179.13"><pitch><step>D</step><octave>4</octave></pitch><duration>24</duration><tie type="stop"/><voice>1</voice><type>half</type><stem>up</stem><notations><tied type="stop"/></notations></note><barline location="right"><bar-style>light-heavy</bar-style><repeat direction="backward"/></barline></measure><measure width="446.83" number="9"><print new-system="yes"><system-layout><system-margins><left-margin>109.38</left-margin><right-margin>0.00</right-margin></system-margins><system-distance>122.97</system-distance></system-layout></print><barline location="left"><ending type="start" number="2"/></barline><harmony print-frame="no"><root><root-step>F</root-step></root><kind text="">major</kind></harmony><note default-y="-15.00" default-x="74.19"><pitch><step>C</step><octave>5</octave></pitch><duration>6</duration><voice>1</voice><type>eighth</type><stem>up</stem><beam number="1">begin</beam><lyric number="1"><syllabic>single</syllabic><text>dont</text></lyric></note><note default-y="-15.00" default-x="127.34"><pitch><step>C</step><octave>5</octave></pitch><duration>6</duration><voice>1</voice><type>eighth</type><stem>up</stem><beam number="1">continue</beam><lyric number="1"><syllabic>single</syllabic><text>it</text></lyric></note><note default-y="-25.00" default-x="180.48"><pitch><step>A</step><octave>4</octave></pitch><duration>6</duration><voice>1</voice><type>eighth</type><stem>up</stem><beam number="1">continue</beam><lyric number="1"><syllabic>single</syllabic><text>make</text></lyric></note><note default-y="-30.00" default-x="233.63"><pitch><step>G</step><octave>4</octave></pitch><duration>6</duration><voice>1</voice><type>eighth</type><stem>up</stem><beam number="1">end</beam><lyric number="1"><syllabic>single</syllabic><text>my</text></lyric></note><note default-y="-15.00" default-x="286.78"><pitch><step>C</step><octave>5</octave></pitch><duration>6</duration><voice>1</voice><type>eighth</type><stem>down</stem><lyric number="1"><syllabic>single</syllabic><text>brown</text></lyric></note><note default-y="-15.00" default-x="341.54"><pitch><step>C</step><octave>5</octave></pitch><duration>18</duration><voice>1</voice><type>quarter</type><dot/><stem>down</stem><lyric number="1"><syllabic>single</syllabic><text>eyes</text></lyric></note><barline location="right"><ending type="discontinue" number="2"/></barline></measure><measure width="176.48" number="10"><harmony print-frame="no"><root><root-step>C</root-step></root><kind text="">major</kind></harmony><note default-y="-15.00" default-x="27.87"><pitch><step>C</step><octave>5</octave></pitch><duration>48</duration><voice>1</voice><type>whole</type><lyric number="1"><syllabic>single</syllabic><text>blue</text></lyric></note></measure><measure width="344.41" number="11"><harmony print-frame="no"><root><root-step>A</root-step></root><kind text="m">minor</kind></harmony><note><rest/><duration>6</duration><voice>1</voice><type>eighth</type></note><note default-y="-15.00" default-x="58.13"><pitch><step>C</step><octave>5</octave></pitch><duration>6</duration><voice>1</voice><type>eighth</type><stem>down</stem><beam number="1">begin</beam><lyric number="1"><syllabic>single</syllabic><text>tell</text></lyric></note><note default-y="-15.00" default-x="101.27"><pitch><step>C</step><octave>5</octave></pitch><duration>6</duration><voice>1</voice><type>eighth</type><stem>down</stem><beam number="1">continue</beam><lyric number="1"><syllabic>single</syllabic><text>me</text></lyric></note><note default-y="-15.00" default-x="144.40"><pitch><step>C</step><octave>5</octave></pitch><duration>6</duration><voice>1</voice><type>eighth</type><stem>down</stem><beam number="1">end</beam><lyric number="1"><syllabic>single</syllabic><text>no</text></lyric></note><harmony print-frame="no"><root><root-step>E</root-step></root><kind text="m7">minor-seventh</kind></harmony><note default-y="-20.00" default-x="187.53"><pitch><step>B</step><octave>4</octave></pitch><duration>6</duration><voice>1</voice><type>eighth</type><stem>up</stem><beam number="1">begin</beam><lyric number="1"><syllabic>end</syllabic><text>se</text></lyric></note><note default-y="-25.00" default-x="230.66"><pitch><step>A</step><octave>4</octave></pitch><duration>6</duration><voice>1</voice><type>eighth</type><stem>up</stem><beam number="1">end</beam></note><note default-y="-30.00" default-x="273.80"><pitch><step>G</step><octave>4</octave></pitch><duration>12</duration><voice>1</voice><type>quarter</type><stem>up</stem><lyric number="1"><syllabic>single</syllabic><text>crets</text></lyric></note></measure><measure width="321.09" number="12"><print new-system="yes"><system-layout><system-margins><left-margin>109.38</left-margin><right-margin>0.00</right-margin></system-margins><system-distance>122.97</system-distance></system-layout></print><harmony print-frame="no"><root><root-step>F</root-step></root><kind text="">major</kind></harmony><note><rest/><duration>6</duration><voice>1</voice><type>eighth</type></note><note default-y="-25.00" default-x="95.43"><pitch><step>A</step><octave>4</octave></pitch><duration>6</duration><voice>1</voice><type>eighth</type><stem>up</stem><beam number="1">begin</beam><lyric number="1"><syllabic>single</syllabic><text>tell</text></lyric></note><note default-y="-30.00" default-x="137.68"><pitch><step>G</step><octave>4</octave></pitch><duration>6</duration><voice>1</voice><type>eighth</type><stem>up</stem><beam number="1">continue</beam><lyric number="1"><syllabic>single</syllabic><text>me</text></lyric></note><note default-y="-30.00" default-x="181.17"><pitch><step>G</step><octave>4</octave></pitch><duration>6</duration><voice>1</voice><type>eighth</type><stem>up</stem><beam number="1">end</beam><lyric number="1"><syllabic>single</syllabic><text>some</text></lyric></note><harmony print-frame="no"><root><root-step>C</root-step></root><kind text="">major</kind></harmony><note default-y="-30.00" default-x="226.54"><pitch><step>G</step><octave>4</octave></pitch><duration>24</duration><voice>1</voice><type>half</type><stem>up</stem><lyric number="1"><syllabic>single</syllabic><text>lies</text></lyric></note></measure><measure width="423.69" number="13"><harmony print-frame="no"><root><root-step>A</root-step></root><kind text="m">minor</kind></harmony><note><rest/><duration>6</duration><voice>1</voice><type>eighth</type></note><note default-y="-15.00" default-x="60.49"><pitch><step>C</step><octave>5</octave></pitch><duration>6</duration><voice>1</voice><type>eighth</type><stem>down</stem><beam number="1">begin</beam><lyric number="1"><syllabic>single</syllabic><text>give</text></lyric></note><note default-y="-15.00" default-x="105.97"><pitch><step>C</step><octave>5</octave></pitch><duration>6</duration><voice>1</voice><type>eighth</type><stem>down</stem><beam number="1">continue</beam><lyric number="1"><syllabic>single</syllabic><text>me</text></lyric></note><note default-y="-15.00" default-x="151.46"><pitch><step>C</step><octave>5</octave></pitch><duration>6</duration><voice>1</voice><type>eighth</type><stem>down</stem><beam number="1">end</beam><lyric number="1"><syllabic>single</syllabic><text>no</text></lyric></note><harmony print-frame="no"><root><root-step>E</root-step></root><kind text="m7">minor-seventh</kind></harmony><note default-y="-20.00" default-x="196.95"><pitch><step>B</step><octave>4</octave></pitch><duration>3</duration><voice>1</voice><type>16th</type><stem>up</stem><beam number="1">begin</beam><lyric number="1"><syllabic>begin</syllabic><text>rea</text></lyric></note><note default-y="-25.00" default-x="225.37"><pitch><step>A</step><octave>4</octave></pitch><duration>3</duration><voice>1</voice><type>16th</type><stem>up</stem><beam number="1">continue</beam></note><note default-y="-30.00" default-x="263.59"><pitch><step>G</step><octave>4</octave></pitch><duration>6</duration><voice>1</voice><type>eighth</type><stem>up</stem><beam number="1">continue</beam><lyric number="1"><syllabic>end</syllabic><text>sons</text></lyric></note><note default-y="-30.00" default-x="309.07"><pitch><step>G</step><octave>4</octave></pitch><duration>6</duration><voice>1</voice><type>eighth</type><stem>up</stem><beam number="1">continue</beam></note><note default-y="-40.00" default-x="354.56"><pitch><step>E</step><octave>4</octave></pitch><duration>3</duration><voice>1</voice><type>16th</type><stem>up</stem><beam number="1">continue</beam><lyric number="1"><syllabic>single</syllabic><text>give</text></lyric></note><note default-y="-30.00" default-x="393.66"><pitch><step>G</step><octave>4</octave></pitch><duration>3</duration><voice>1</voice><type>16th</type><stem>up</stem><beam number="1">end</beam><lyric number="1"><syllabic>single</syllabic><text>me</text></lyric></note></measure><measure width="222.94" number="14"><harmony print-frame="no"><root><root-step>F</root-step></root><kind text="">major</kind></harmony><note><rest/><duration>6</duration><voice>1</voice><type>eighth</type></note><note default-y="-25.00" default-x="48.52"><pitch><step>A</step><octave>4</octave></pitch><duration>12</duration><voice>1</voice><type>quarter</type><stem>up</stem><lyric number="1"><syllabic>begin</syllabic><text>al</text></lyric></note><note default-y="-30.00" default-x="102.15"><pitch><step>G</step><octave>4</octave></pitch><duration>6</duration><voice>1</voice><type>eighth</type><stem>up</stem><lyric number="1"><syllabic>middle</syllabic><text>i</text></lyric></note><harmony print-frame="no"><root><root-step>C</root-step></root><kind text="">major</kind></harmony><note default-y="-30.00" default-x="147.59"><pitch><step>G</step><octave>4</octave></pitch><duration>24</duration><voice>1</voice><type>half</type><stem>up</stem><lyric number="1"><syllabic>end</syllabic><text>bies</text></lyric></note></measure><measure width="422.63" number="15"><print new-system="yes"><system-layout><system-margins><left-margin>109.38</left-margin><right-margin>0.00</right-margin></system-margins><system-distance>122.97</system-distance></system-layout></print><harmony print-frame="no"><root><root-step>A</root-step></root><kind text="m">minor</kind></harmony><note><rest/><duration>6</duration><voice>1</voice><type>eighth</type></note><note default-y="-15.00" default-x="99.16"><pitch><step>C</step><octave>5</octave></pitch><duration>6</duration><voice>1</voice><type>eighth</type><stem>down</stem><beam number="1">begin</beam><lyric number="1"><syllabic>single</syllabic><text>tell</text></lyric></note><note default-y="-15.00" default-x="145.14"><pitch><step>C</step><octave>5</octave></pitch><duration>6</duration><voice>1</voice><type>eighth</type><stem>down</stem><beam number="1">continue</beam><lyric number="1"><syllabic>single</syllabic><text>me</text></lyric></note><note default-y="-10.00" default-x="191.13"><pitch><step>D</step><octave>5</octave></pitch><duration>6</duration><voice>1</voice><type>eighth</type><stem>down</stem><beam number="1">end</beam><lyric number="1"><syllabic>single</syllabic><text>you</text></lyric></note><harmony print-frame="no"><root><root-step>E</root-step></root><kind text="m7">minor-seventh</kind></harmony><note default-y="-20.00" default-x="237.11"><pitch><step>B</step><octave>4</octave></pitch><duration>6</duration><voice>1</voice><type>eighth</type><stem>up</stem><beam number="1">begin</beam><lyric number="1"><syllabic>single</syllabic><text>love</text></lyric></note><note default-y="-30.00" default-x="283.09"><pitch><step>G</step><octave>4</octave></pitch><duration>6</duration><voice>1</voice><type>eighth</type><stem>up</stem><beam number="1">continue</beam><lyric number="1"><syllabic>single</syllabic><text>me</text></lyric></note><note default-y="-30.00" default-x="329.07"><pitch><step>G</step><octave>4</octave></pitch><duration>6</duration><voice>1</voice><type>eighth</type><stem>up</stem><beam number="1">continue</beam><lyric number="1"><syllabic>single</syllabic><text>and</text></lyric></note><note default-y="-15.00" default-x="375.05"><pitch><step>C</step><octave>5</octave></pitch><duration>6</duration><tie type="start"/><voice>1</voice><type>eighth</type><stem>up</stem><beam number="1">end</beam><notations><tied type="start"/></notations><lyric number="1"><syllabic>single</syllabic><text>dont</text></lyric></note></measure><measure width="248.71" number="16"><harmony print-frame="no"><root><root-step>F</root-step></root><kind text="">major</kind></harmony><note default-y="-15.00" default-x="15.00"><pitch><step>C</step><octave>5</octave></pitch><duration>12</duration><tie type="stop"/><voice>1</voice><type>quarter</type><stem>down</stem><notations><tied type="stop"/></notations></note><note default-y="-25.00" default-x="66.10"><pitch><step>A</step><octave>4</octave></pitch><duration>6</duration><voice>1</voice><type>eighth</type><stem>up</stem><beam number="1">begin</beam><lyric number="1"><syllabic>single</syllabic><text>let</text></lyric></note><note default-y="-30.00" default-x="98.04"><pitch><step>G</step><octave>4</octave></pitch><duration>6</duration><voice>1</voice><type>eighth</type><stem>up</stem><beam number="1">end</beam><lyric number="1"><syllabic>single</syllabic><text>me</text></lyric></note><harmony print-frame="no"><root><root-step>C</root-step></root><kind text="">major</kind></harmony><note default-y="-40.00" default-x="132.13"><pitch><step>E</step><octave>4</octave></pitch><duration>6</duration><voice>1</voice><type>eighth</type><stem>up</stem><beam number="1">begin</beam><lyric number="1"><syllabic>single</syllabic><text>cry</text></lyric></note><note default-y="-45.00" default-x="164.07"><pitch><step>D</step><octave>4</octave></pitch><duration>6</duration><voice>1</voice><type>eighth</type><stem>up</stem><beam number="1">end</beam></note><note default-y="-50.00" default-x="196.01"><pitch><step>C</step><octave>4</octave></pitch><duration>12</duration><voice>1</voice><type>quarter</type><stem>up</stem></note></measure><measure width="296.38" number="17"><harmony print-frame="no"><root><root-step>D</root-step></root><kind text="m7">minor-seventh</kind></harmony><note><rest/><duration>6</duration><voice>1</voice><type>eighth</type></note><note default-y="-45.00" default-x="55.07"><pitch><step>D</step><octave>4</octave></pitch><duration>6</duration><voice>1</voice><type>eighth</type><stem>up</stem><beam number="1">begin</beam><lyric number="1"><syllabic>single</syllabic><text>say</text></lyric></note><note default-y="-45.00" default-x="95.13"><pitch><step>D</step><octave>4</octave></pitch><duration>6</duration><voice>1</voice><type>eighth</type><stem>up</stem><beam number="1">continue</beam><lyric number="1"><syllabic>begin</syllabic><text>an</text></lyric></note><note default-y="-45.00" default-x="135.20"><pitch><step>D</step><octave>4</octave></pitch><duration>6</duration><voice>1</voice><type>eighth</type><stem>up</stem><beam number="1">end</beam><lyric number="1"><syllabic>begin</syllabic><text>y</text></lyric></note><harmony print-frame="no"><root><root-step>E</root-step></root><kind text="m">minor</kind></harmony><note default-y="-40.00" default-x="176.54"><pitch><step>E</step><octave>4</octave></pitch><duration>18</duration><voice>1</voice><type>quarter</type><dot/><stem>up</stem><lyric number="1"><syllabic>end</syllabic><text>thing</text></lyric></note><note default-y="-50.00" default-x="254.71"><pitch><step>C</step><octave>4</octave></pitch><duration>6</duration><voice>1</voice><type>eighth</type><stem>up</stem><lyric number="1"><syllabic>single</syllabic><text>but</text></lyric></note></measure><measure width="379.17" number="18"><print new-system="yes"><system-layout><system-margins><left-margin>109.38</left-margin><right-margin>0.00</right-margin></system-margins><system-distance>122.97</system-distance></system-layout></print><harmony print-frame="no"><root><root-step>F</root-step></root><kind text="">major</kind></harmony><note default-y="-35.00" default-x="74.19"><pitch><step>F</step><octave>4</octave></pitch><duration>6</duration><voice>1</voice><type>eighth</type><stem>up</stem><beam number="1">begin</beam><lyric number="1"><syllabic>single</syllabic><text>dont</text></lyric></note><note default-y="-35.00" default-x="122.38"><pitch><step>F</step><octave>4</octave></pitch><duration>6</duration><voice>1</voice><type>eighth</type><stem>up</stem><beam number="1">continue</beam><lyric number="1"><syllabic>single</syllabic><text>say</text></lyric></note><note default-y="-30.00" default-x="170.57"><pitch><step>G</step><octave>4</octave></pitch><duration>6</duration><voice>1</voice><type>eighth</type><stem>up</stem><beam number="1">continue</beam><lyric number="1"><syllabic>begin</syllabic><text>good</text></lyric></note><note default-y="-30.00" default-x="218.76"><pitch><step>G</step><octave>4</octave></pitch><duration>6</duration><tie type="start"/><voice>1</voice><type>eighth</type><stem>up</stem><beam number="1">end</beam><notations><tied type="start"/></notations><lyric number="1"><syllabic>middle</syllabic><text>bye</text></lyric></note><direction><direction-type><words default-y="100">D.S.alCoda</words></direction-type></direction><note default-y="-30.00" default-x="266.95"><pitch><step>G</step><octave>4</octave></pitch><duration>24</duration><tie type="stop"/><voice>1</voice><type>half</type><stem>up</stem><notations><tied type="stop"/></notations></note><barline location="right"><bar-style>light-light</bar-style></barline></measure><measure width="179.65" number="19"><note><rest/><duration>48</duration><voice>1</voice><type>whole</type></note></measure><measure width="408.90" number="20"><barline location="left"><bar-style>heavy-light</bar-style><repeat direction="forward"/></barline><harmony print-frame="no"><root><root-step>F</root-step></root><kind text="">major</kind></harmony><note default-y="-15.00" default-x="28.51"><pitch><step>C</step><octave>5</octave></pitch><duration>6</duration><voice>1</voice><type>eighth</type><stem>up</stem><beam number="1">begin</beam><lyric number="1"><syllabic>single</syllabic><text>dont</text></lyric></note><direction><direction-type><words default-y="100">Coda</words></direction-type></direction><note default-y="-15.00" default-x="82.96"><pitch><step>C</step><octave>5</octave></pitch><duration>6</duration><voice>1</voice><type>eighth</type><stem>up</stem><beam number="1">continue</beam><lyric number="1"><syllabic>single</syllabic><text>it</text></lyric></note><note default-y="-25.00" default-x="137.41"><pitch><step>A</step><octave>4</octave></pitch><duration>6</duration><voice>1</voice><type>eighth</type><stem>up</stem><beam number="1">continue</beam><lyric number="1"><syllabic>single</syllabic><text>make</text></lyric></note><note default-y="-30.00" default-x="191.86"><pitch><step>G</step><octave>4</octave></pitch><duration>6</duration><voice>1</voice><type>eighth</type><stem>up</stem><beam number="1">end</beam><lyric number="1"><syllabic>single</syllabic><text>my</text></lyric></note><harmony print-frame="no"><root><root-step>E</root-step></root><kind text="m7">minor-seventh</kind></harmony><note default-y="-30.00" default-x="246.31"><pitch><step>G</step><octave>4</octave></pitch><duration>6</duration><voice>1</voice><type>eighth</type><stem>up</stem><lyric number="1"><syllabic>single</syllabic><text>brown</text></lyric></note><note default-y="-25.00" default-x="301.07"><pitch><step>A</step><octave>4</octave></pitch><duration>18</duration><voice>1</voice><type>quarter</type><dot/><stem>up</stem><lyric number="1"><syllabic>single</syllabic><text>eyes</text></lyric></note></measure><measure width="374.83" number="21"><print new-system="yes"><system-layout><system-margins><left-margin>109.38</left-margin><right-margin>0.00</right-margin></system-margins><system-distance>122.97</system-distance></system-layout></print><harmony print-frame="no"><root><root-step>F</root-step></root><kind text="">major</kind></harmony><note default-y="-15.00" default-x="74.19"><pitch><step>C</step><octave>5</octave></pitch><duration>6</duration><voice>1</voice><type>eighth</type><stem>up</stem><beam number="1">begin</beam><lyric number="1"><syllabic>single</syllabic><text>dont</text></lyric></note><note default-y="-15.00" default-x="110.74"><pitch><step>C</step><octave>5</octave></pitch><duration>6</duration><voice>1</voice><type>eighth</type><stem>up</stem><beam number="1">continue</beam><lyric number="1"><syllabic>single</syllabic><text>it</text></lyric></note><note default-y="-25.00" default-x="153.31"><pitch><step>A</step><octave>4</octave></pitch><duration>6</duration><voice>1</voice><type>eighth</type><stem>up</stem><beam number="1">continue</beam><lyric number="1"><syllabic>single</syllabic><text>make</text></lyric></note><note default-y="-30.00" default-x="198.04"><pitch><step>G</step><octave>4</octave></pitch><duration>6</duration><voice>1</voice><type>eighth</type><stem>up</stem><beam number="1">end</beam><lyric number="1"><syllabic>single</syllabic><text>my</text></lyric></note><harmony print-frame="no"><root><root-step>E</root-step></root><kind text="m7">minor-seventh</kind></harmony><note default-y="-30.00" default-x="247.17"><pitch><step>G</step><octave>4</octave></pitch><duration>6</duration><voice>1</voice><type>eighth</type><stem>up</stem><lyric number="1"><syllabic>single</syllabic><text>brown</text></lyric></note><note default-y="-25.00" default-x="301.93"><pitch><step>A</step><octave>4</octave></pitch><duration>18</duration><voice>1</voice><type>quarter</type><dot/><stem>up</stem><lyric number="1"><syllabic>single</syllabic><text>eyes</text></lyric></note></measure><measure width="329.15" number="22"><harmony print-frame="no"><root><root-step>F</root-step></root><kind text="">major</kind></harmony><note default-y="-15.00" default-x="28.51"><pitch><step>C</step><octave>5</octave></pitch><duration>6</duration><voice>1</voice><type>eighth</type><stem>up</stem><beam number="1">begin</beam><lyric number="1"><syllabic>single</syllabic><text>dont</text></lyric></note><note default-y="-15.00" default-x="65.06"><pitch><step>C</step><octave>5</octave></pitch><duration>6</duration><voice>1</voice><type>eighth</type><stem>up</stem><beam number="1">continue</beam><lyric number="1"><syllabic>single</syllabic><text>it</text></lyric></note><note default-y="-30.00" default-x="107.63"><pitch><step>G</step><octave>4</octave></pitch><duration>6</duration><voice>1</voice><type>eighth</type><stem>up</stem><beam number="1">continue</beam><lyric number="1"><syllabic>single</syllabic><text>make</text></lyric></note><note default-y="-30.00" default-x="152.36"><pitch><step>G</step><octave>4</octave></pitch><duration>6</duration><voice>1</voice><type>eighth</type><stem>up</stem><beam number="1">end</beam><lyric number="1"><syllabic>single</syllabic><text>my</text></lyric></note><direction><direction-type><words default-y="100">Repeat</words></direction-type></direction><direction><direction-type><words default-y="100">tofade</words></direction-type></direction><note default-y="-15.00" default-x="201.49"><pitch><step>C</step><octave>5</octave></pitch><duration>6</duration><voice>1</voice><type>eighth</type><stem>down</stem><lyric number="1"><syllabic>single</syllabic><text>brown</text></lyric></note><note default-y="-15.00" default-x="256.25"><pitch><step>C</step><octave>5</octave></pitch><duration>18</duration><voice>1</voice><type>quarter</type><dot/><stem>down</stem><lyric number="1"><syllabic>single</syllabic><text>eyes</text></lyric></note></measure><measure width="91.15" number="23"><harmony print-frame="no"><root><root-step>C</root-step></root><kind text="">major</kind></harmony><note default-y="-15.00" default-x="15.00"><pitch><step>C</step><octave>5</octave></pitch><duration>48</duration><voice>1</voice><type>whole</type></note></measure><measure width="172.59" number="24"><harmony print-frame="no"><root><root-step>D</root-step></root><kind text="m7">minor-seventh</kind></harmony><note><rest/><duration>24</duration><voice>1</voice><type>half</type></note><note><rest/><duration>12</duration><voice>1</voice><type>quarter</type></note><harmony print-frame="no"><root><root-step>G</root-step></root><kind text="7">dominant</kind></harmony><note><rest/><duration>6</duration><voice>1</voice><type>eighth</type></note><note default-y="-25.00" default-x="125.11"><pitch><step>A</step><octave>4</octave></pitch><duration>6</duration><voice>1</voice><type>eighth</type><stem>up</stem><lyric number="1"><syllabic>single</syllabic><text>and</text></lyric></note><barline location="right"><bar-style>light-heavy</bar-style><repeat direction="backward"/></barline></measure></part></score-partwise>