<score-partwise version="2.0"><work><work-number/><work-title/></work><movement-number/><movement-title>Jézussal járok minden nap</movement-title><identification><creator type="composer">Unknown</creator><creator type="poet"/><rights>Public Domain</rights><encoding><software>MuseScore 0.9.5</software><encoding-date>2010-05-02</encoding-date><software>ProxyMusic 2.0 c</software></encoding><source>http://wikifonia.org/node/5645/revisions/7722/view</source></identification><defaults><scaling><millimeters>5.456</millimeters><tenths>40</tenths></scaling><page-layout><page-height>2177.42</page-height><page-width>1539.59</page-width><page-margins type="both"><left-margin>73.3138</left-margin><right-margin>73.3138</right-margin><top-margin>73.3138</top-margin><bottom-margin>146.628</bottom-margin></page-margins></page-layout></defaults><part-list><score-part id="P1"><part-name/><score-instrument id="P1-I3"><instrument-name/></score-instrument><midi-instrument id="P1-I3"><midi-channel>1</midi-channel><midi-program>53</midi-program></midi-instrument></score-part></part-list><part id="P1"><measure width="416.54" number="1"><print><system-layout><system-margins><left-margin>2.50</left-margin><right-margin>-0.00</right-margin></system-margins><top-system-distance>70.00</top-system-distance></system-layout></print><attributes><divisions>4</divisions><key><fifths>2</fifths><mode>major</mode></key><time><beats>2</beats><beat-type>4</beat-type></time><clef><sign>G</sign><line>2</line></clef></attributes><note default-y="-35.00" default-x="127.23"><pitch><step>F</step><alter>1</alter><octave>4</octave></pitch><duration>2</duration><voice>1</voice><type>eighth</type><stem>up</stem><beam number="1">begin</beam><lyric number="1"><syllabic>begin</syllabic><text>1. Jé</text></lyric></note><note default-y="-35.00" default-x="191.16"><pitch><step>F</step><alter>1</alter><octave>4</octave></pitch><duration>1</duration><voice>1</voice><type>16th</type><stem>up</stem><beam number="1">continue</beam><lyric number="1"><syllabic>middle</syllabic><text>zus</text></lyric></note><note default-y="-35.00" default-x="231.12"><pitch><step>F</step><alter>1</alter><octave>4</octave></pitch><duration>1</duration><voice>1</voice><type>16th</type><stem>up</stem><beam number="1">end</beam><lyric number="1"><syllabic>end</syllabic><text>sal</text></lyric></note><note default-y="-35.00" default-x="271.09"><pitch><step>F</step><alter>1</alter><octave>4</octave></pitch><duration>1</duration><voice>1</voice><type>16th</type><stem>up</stem><beam number="1">begin</beam><notations><slur type="start" number="1"/></notations><lyric number="1"><syllabic>begin</syllabic><text>já</text></lyric></note><note default-y="-40.00" default-x="311.05"><pitch><step>E</step><octave>4</octave></pitch><duration>1</duration><voice>1</voice><type>16th</type><stem>up</stem><beam number="1">continue</beam><notations><slur type="stop" number="1"/></notations></note><note default-y="-45.00" default-x="351.01"><pitch><step>D</step><octave>4</octave></pitch><duration>2</duration><voice>1</voice><type>eighth</type><stem>up</stem><beam number="1">end</beam><lyric number="1"><syllabic>end</syllabic><text>rok</text></lyric></note></measure><measure width="266.37" number="2"><note default-y="-30.00" default-x="26.65"><pitch><step>G</step><octave>4</octave></pitch><duration>1</duration><voice>1</voice><type>16th</type><stem>up</stem><beam number="1">begin</beam><lyric number="1"><syllabic>begin</syllabic><text>min</text></lyric></note><note default-y="-30.00" default-x="67.71"><pitch><step>G</step><octave>4</octave></pitch><duration>2</duration><voice>1</voice><type>eighth</type><stem>up</stem><beam number="1">continue</beam><lyric number="1"><syllabic>end</syllabic><text>den</text></lyric></note><note default-y="-30.00" default-x="133.39"><pitch><step>G</step><octave>4</octave></pitch><duration>1</duration><voice>1</voice><type>16th</type><stem>up</stem><beam number="1">end</beam><lyric number="1"><syllabic>single</syllabic><text>nap,</text></lyric></note><note><rest/><duration>4</duration><voice>1</voice><type>quarter</type></note></measure><measure width="271.71" number="3"><note default-y="-35.00" default-x="36.57"><pitch><step>F</step><alter>1</alter><octave>4</octave></pitch><duration>3</duration><voice>1</voice><type>eighth</type><dot/><stem>up</stem><beam number="1">begin</beam><lyric number="1"><syllabic>begin</syllabic><text>zengd</text></lyric></note><note default-y="-35.00" default-x="124.74"><pitch><step>F</step><alter>1</alter><octave>4</octave></pitch><duration>1</duration><voice>1</voice><type>16th</type><stem>up</stem><beam number="1">end</beam><lyric number="1"><syllabic>middle</syllabic><text>di</text></lyric></note><note default-y="-35.00" default-x="170.68"><pitch><step>F</step><alter>1</alter><octave>4</octave></pitch><duration>4</duration><voice>1</voice><type>quarter</type><stem>up</stem><lyric number="1"><syllabic>end</syllabic><text>csérd,</text></lyric></note></measure><measure width="235.55" number="4"><note><rest/><duration>4</duration><voice>1</voice><type>quarter</type></note><note default-y="-40.00" default-x="108.51"><pitch><step>E</step><octave>4</octave></pitch><duration>3</duration><voice>1</voice><type>eighth</type><dot/><stem>up</stem><beam number="1">begin</beam><lyric number="1"><syllabic>begin</syllabic><text>zengd</text></lyric></note><note default-y="-40.00" default-x="191.44"><pitch><step>E</step><octave>4</octave></pitch><duration>1</duration><voice>1</voice><type>16th</type><stem>up</stem><beam number="1">end</beam><lyric number="1"><syllabic>middle</syllabic><text>di</text></lyric></note></measure><measure width="200.29" number="5"><note default-y="-40.00" default-x="36.24"><pitch><step>E</step><octave>4</octave></pitch><duration>4</duration><voice>1</voice><type>quarter</type><stem>up</stem><lyric number="1"><syllabic>end</syllabic><text>csérd,</text></lyric></note><note><rest/><duration>4</duration><voice>1</voice><type>quarter</type></note></measure><measure width="454.54" number="6"><print new-system="yes"><system-layout><system-margins><left-margin>2.50</left-margin><right-margin>0.00</right-margin></system-margins><system-distance>120.45</system-distance></system-layout></print><note default-y="-35.00" default-x="86.87"><pitch><step>F</step><alter>1</alter><octave>4</octave></pitch><duration>1</duration><voice>1</voice><type>16th</type><stem>up</stem><beam number="1">begin</beam><lyric number="1"><syllabic>begin</syllabic><text>E</text></lyric></note><note default-y="-35.00" default-x="137.72"><pitch><step>F</step><alter>1</alter><octave>4</octave></pitch><duration>2</duration><voice>1</voice><type>eighth</type><stem>up</stem><beam number="1">continue</beam><lyric number="1"><syllabic>end</syllabic><text>rős</text></lyric></note><note default-y="-35.00" default-x="219.06"><pitch><step>F</step><alter>1</alter><octave>4</octave></pitch><duration>1</duration><voice>1</voice><type>16th</type><stem>up</stem><beam number="1">end</beam><lyric number="1"><syllabic>begin</syllabic><text>jobb</text></lyric></note><note default-y="-35.00" default-x="269.91"><pitch><step>F</step><alter>1</alter><octave>4</octave></pitch><duration>1</duration><voice>1</voice><type>16th</type><stem>up</stem><beam number="1">begin</beam><notations><slur type="start" number="1"/></notations><lyric number="1"><syllabic>middle</syllabic><text>já</text></lyric></note><note default-y="-40.00" default-x="320.75"><pitch><step>E</step><octave>4</octave></pitch><duration>1</duration><voice>1</voice><type>16th</type><stem>up</stem><beam number="1">continue</beam><notations><slur type="stop" number="1"/></notations></note><note default-y="-45.00" default-x="371.59"><pitch><step>D</step><octave>4</octave></pitch><duration>2</duration><voice>1</voice><type>eighth</type><stem>up</stem><beam number="1">end</beam><lyric number="1"><syllabic>end</syllabic><text>val</text></lyric></note></measure><measure width="321.51" number="7"><note default-y="-30.00" default-x="16.72"><pitch><step>G</step><octave>4</octave></pitch><duration>3</duration><voice>1</voice><type>eighth</type><dot/><stem>up</stem><beam number="1">begin</beam><lyric number="1"><syllabic>begin</syllabic><text>tá</text></lyric></note><note default-y="-30.00" default-x="112.89"><pitch><step>G</step><octave>4</octave></pitch><duration>1</duration><voice>1</voice><type>16th</type><stem>up</stem><beam number="1">end</beam><lyric number="1"><syllabic>middle</syllabic><text>mo</text></lyric></note><note default-y="-30.00" default-x="162.18"><pitch><step>G</step><octave>4</octave></pitch><duration>2</duration><voice>1</voice><type>eighth</type><stem>up</stem><lyric number="1"><syllabic>end</syllabic><text>gat,</text></lyric></note><note><rest/><duration>2</duration><voice>1</voice><type>eighth</type></note></measure><measure width="350.00" number="8"><note default-y="-35.00" default-x="36.57"><pitch><step>F</step><alter>1</alter><octave>4</octave></pitch><duration>2</duration><voice>1</voice><type>eighth</type><stem>up</stem><beam number="1">begin</beam><lyric number="1"><syllabic>single</syllabic><text>zengd</text></lyric></note><note default-y="-35.00" default-x="114.53"><pitch><step>F</step><alter>1</alter><octave>4</octave></pitch><duration>2</duration><voice>1</voice><type>eighth</type><stem>up</stem><beam number="1">end</beam><lyric number="1"><syllabic>begin</syllabic><text>di</text></lyric></note><note default-y="-40.00" default-x="192.48"><pitch><step>E</step><octave>4</octave></pitch><duration>2</duration><voice>1</voice><type>eighth</type><stem>up</stem><beam number="1">begin</beam><lyric number="1"><syllabic>middle</syllabic><text>csé</text></lyric></note><note default-y="-40.00" default-x="270.44"><pitch><step>E</step><octave>4</octave></pitch><duration>2</duration><voice>1</voice><type>eighth</type><stem>up</stem><beam number="1">end</beam><lyric number="1"><syllabic>middle</syllabic><text>re</text></lyric></note></measure><measure width="264.41" number="9"><note default-y="-45.00" default-x="24.00"><pitch><step>D</step><octave>4</octave></pitch><duration>4</duration><voice>1</voice><type>quarter</type><stem>up</stem><lyric number="1"><syllabic>end</syllabic><text>tét!</text></lyric></note><note default-y="-25.00" default-x="143.41"><pitch><step>A</step><octave>4</octave></pitch><duration>4</duration><voice>1</voice><type>quarter</type><stem>up</stem><lyric number="1"><syllabic>single</syllabic><text>Ó,</text></lyric></note></measure><measure width="468.03" number="10"><print new-system="yes"><system-layout><system-margins><left-margin>2.50</left-margin><right-margin>0.00</right-margin></system-margins><system-distance>120.45</system-distance></system-layout></print><direction placement="above"><direction-type><words>Refrén</words></direction-type></direction><note default-y="-35.00" default-x="113.01"><pitch><step>F</step><alter>1</alter><octave>4</octave></pitch><duration>2</duration><voice>1</voice><type>eighth</type><stem>up</stem><beam number="1">begin</beam><lyric number="1"><syllabic>single</syllabic><text>Zengd,</text></lyric></note><note default-y="-35.00" default-x="201.36"><pitch><step>F</step><alter>1</alter><octave>4</octave></pitch><duration>2</duration><voice>1</voice><type>eighth</type><stem>up</stem><beam number="1">end</beam><lyric number="1"><syllabic>single</syllabic><text>zengd,</text></lyric></note><note default-y="-35.00" default-x="289.72"><pitch><step>F</step><alter>1</alter><octave>4</octave></pitch><duration>2</duration><voice>1</voice><type>eighth</type><stem>up</stem><beam number="1">begin</beam><lyric number="1"><syllabic>single</syllabic><text>zengd</text></lyric></note><note default-y="-45.00" default-x="378.07"><pitch><step>D</step><octave>4</octave></pitch><duration>2</duration><voice>1</voice><type>eighth</type><stem>up</stem><beam number="1">end</beam><lyric number="1"><syllabic>begin</syllabic><text>di</text></lyric></note></measure><measure width="264.93" number="11"><note default-y="-30.00" default-x="23.33"><pitch><step>G</step><octave>4</octave></pitch><duration>3</duration><voice>1</voice><type>eighth</type><dot/><stem>up</stem><beam number="1">begin</beam><lyric number="1"><syllabic>middle</syllabic><text>csé</text></lyric></note><note default-y="-30.00" default-x="114.23"><pitch><step>G</step><octave>4</octave></pitch><duration>1</duration><voice>1</voice><type>16th</type><stem>up</stem><beam number="1">end</beam><lyric number="1"><syllabic>middle</syllabic><text>re</text></lyric></note><note default-y="-30.00" default-x="160.83"><pitch><step>G</step><octave>4</octave></pitch><duration>4</duration><voice>1</voice><type>quarter</type><stem>up</stem><lyric number="1"><syllabic>end</syllabic><text>tét,</text></lyric></note></measure><measure width="392.58" number="12"><note default-y="-35.00" default-x="39.54"><pitch><step>F</step><alter>1</alter><octave>4</octave></pitch><duration>2</duration><voice>1</voice><type>eighth</type><stem>up</stem><beam number="1">begin</beam><lyric number="1"><syllabic>single</syllabic><text>zengd,</text></lyric></note><note default-y="-35.00" default-x="127.40"><pitch><step>F</step><alter>1</alter><octave>4</octave></pitch><duration>2</duration><voice>1</voice><type>eighth</type><stem>up</stem><beam number="1">end</beam><lyric number="1"><syllabic>single</syllabic><text>zengd,</text></lyric></note><note default-y="-35.00" default-x="215.26"><pitch><step>F</step><alter>1</alter><octave>4</octave></pitch><duration>2</duration><voice>1</voice><type>eighth</type><stem>up</stem><beam number="1">begin</beam><lyric number="1"><syllabic>single</syllabic><text>zengd</text></lyric></note><note default-y="-45.00" default-x="303.12"><pitch><step>D</step><octave>4</octave></pitch><duration>2</duration><voice>1</voice><type>eighth</type><stem>up</stem><beam number="1">end</beam><lyric number="1"><syllabic>begin</syllabic><text>di</text></lyric></note></measure><measure width="264.93" number="13"><note default-y="-40.00" default-x="23.33"><pitch><step>E</step><octave>4</octave></pitch><duration>3</duration><voice>1</voice><type>eighth</type><dot/><stem>up</stem><beam number="1">begin</beam><lyric number="1"><syllabic>middle</syllabic><text>csé</text></lyric></note><note default-y="-40.00" default-x="114.23"><pitch><step>E</step><octave>4</octave></pitch><duration>1</duration><voice>1</voice><type>16th</type><stem>up</stem><beam number="1">end</beam><lyric number="1"><syllabic>middle</syllabic><text>re</text></lyric></note><note default-y="-40.00" default-x="160.83"><pitch><step>E</step><octave>4</octave></pitch><duration>4</duration><voice>1</voice><type>quarter</type><stem>up</stem><lyric number="1"><syllabic>end</syllabic><text>tét,</text></lyric></note></measure><measure width="476.88" number="14"><print new-system="yes"><system-layout><system-margins><left-margin>2.50</left-margin><right-margin>0.00</right-margin></system-margins><system-distance>120.45</system-distance></system-layout></print><note default-y="-35.00" default-x="111.02"><pitch><step>F</step><alter>1</alter><octave>4</octave></pitch><duration>2</duration><voice>1</voice><type>eighth</type><stem>up</stem><beam number="1">begin</beam><lyric number="1"><syllabic>single</syllabic><text>zengd,</text></lyric></note><note default-y="-35.00" default-x="202.09"><pitch><step>F</step><alter>1</alter><octave>4</octave></pitch><duration>2</duration><voice>1</voice><type>eighth</type><stem>up</stem><beam number="1">end</beam><lyric number="1"><syllabic>single</syllabic><text>zengd,</text></lyric></note><note default-y="-35.00" default-x="293.15"><pitch><step>F</step><alter>1</alter><octave>4</octave></pitch><duration>2</duration><voice>1</voice><type>eighth</type><stem>up</stem><beam number="1">begin</beam><lyric number="1"><syllabic>single</syllabic><text>zengd</text></lyric></note><note default-y="-45.00" default-x="384.22"><pitch><step>D</step><octave>4</octave></pitch><duration>2</duration><voice>1</voice><type>eighth</type><stem>up</stem><beam number="1">end</beam><lyric number="1"><syllabic>begin</syllabic><text>di</text></lyric></note></measure><measure width="277.75" number="15"><note default-y="-30.00" default-x="23.33"><pitch><step>G</step><octave>4</octave></pitch><duration>3</duration><voice>1</voice><type>eighth</type><dot/><stem>up</stem><beam number="1">begin</beam><lyric number="1"><syllabic>middle</syllabic><text>csé</text></lyric></note><note default-y="-30.00" default-x="119.09"><pitch><step>G</step><octave>4</octave></pitch><duration>1</duration><voice>1</voice><type>16th</type><stem>up</stem><beam number="1">end</beam><lyric number="1"><syllabic>middle</syllabic><text>re</text></lyric></note><note default-y="-30.00" default-x="168.17"><pitch><step>G</step><octave>4</octave></pitch><duration>4</duration><voice>1</voice><type>quarter</type><stem>up</stem><lyric number="1"><syllabic>end</syllabic><text>tét,</text></lyric></note></measure><measure width="390.44" number="16"><note default-y="-35.00" default-x="19.69"><pitch><step>F</step><alter>1</alter><octave>4</octave></pitch><duration>2</duration><voice>1</voice><type>eighth</type><stem>up</stem><beam number="1">begin</beam><lyric number="1"><syllabic>single</syllabic><text>Ó,</text></lyric></note><note default-y="-35.00" default-x="101.73"><pitch><step>F</step><alter>1</alter><octave>4</octave></pitch><duration>1</duration><voice>1</voice><type>16th</type><stem>up</stem><beam number="1">continue</beam><lyric number="1"><syllabic>begin</syllabic><text>mi</text></lyric></note><note default-y="-35.00" default-x="153.00"><pitch><step>F</step><alter>1</alter><octave>4</octave></pitch><duration>1</duration><voice>1</voice><type>16th</type><stem>up</stem><beam number="1">end</beam><lyric number="1"><syllabic>end</syllabic><text>lyen</text></lyric></note><note default-y="-40.00" default-x="204.27"><pitch><step>E</step><octave>4</octave></pitch><duration>1</duration><voice>1</voice><type>16th</type><stem>up</stem><beam number="1">begin</beam><lyric number="1"><syllabic>begin</syllabic><text>hat</text></lyric></note><note default-y="-45.00" default-x="255.54"><pitch><step>D</step><octave>4</octave></pitch><duration>2</duration><voice>1</voice><type>eighth</type><stem>up</stem><beam number="1">continue</beam><lyric number="1"><syllabic>middle</syllabic><text>al</text></lyric></note><note default-y="-40.00" default-x="337.57"><pitch><step>E</step><octave>4</octave></pitch><duration>1</duration><voice>1</voice><type>16th</type><stem>up</stem><beam number="1">end</beam><lyric number="1"><syllabic>end</syllabic><text>mas</text></lyric></note></measure><measure width="245.39" number="17"><note default-y="-45.00" default-x="29.29"><pitch><step>D</step><octave>4</octave></pitch><duration>4</duration><voice>1</voice><type>quarter</type><stem>up</stem><lyric number="1"><syllabic>single</syllabic><text>név!</text></lyric></note><note><rest/><duration>4</duration><voice>1</voice><type>quarter</type></note></measure><measure width="367.57" number="18"><print new-system="yes"><system-layout><system-margins><left-margin>2.50</left-margin><right-margin>0.00</right-margin></system-margins><system-distance>120.45</system-distance></system-layout></print><note default-y="-35.00" default-x="98.78"><pitch><step>F</step><alter>1</alter><octave>4</octave></pitch><duration>2</duration><voice>1</voice><type>eighth</type><stem>up</stem><beam number="1">begin</beam><lyric number="1"><syllabic>begin</syllabic><text>2. É</text></lyric></note><note default-y="-35.00" default-x="161.65"><pitch><step>F</step><alter>1</alter><octave>4</octave></pitch><duration>1</duration><voice>1</voice><type>16th</type><stem>up</stem><beam number="1">continue</beam><lyric number="1"><syllabic>middle</syllabic><text>le</text></lyric></note><note default-y="-35.00" default-x="200.94"><pitch><step>F</step><alter>1</alter><octave>4</octave></pitch><duration>1</duration><voice>1</voice><type>16th</type><stem>up</stem><beam number="1">end</beam><lyric number="1"><syllabic>end</syllabic><text>tét</text></lyric></note><note default-y="-40.00" default-x="240.23"><pitch><step>E</step><octave>4</octave></pitch><duration>2</duration><voice>1</voice><type>eighth</type><stem>up</stem><beam number="1">begin</beam><lyric number="1"><syllabic>begin</syllabic><text>ad</text></lyric></note><note default-y="-45.00" default-x="303.10"><pitch><step>D</step><octave>4</octave></pitch><duration>2</duration><voice>1</voice><type>eighth</type><stem>up</stem><beam number="1">end</beam><lyric number="1"><syllabic>end</syllabic><text>ta</text></lyric></note></measure><measure width="243.91" number="19"><note default-y="-30.00" default-x="19.37"><pitch><step>G</step><octave>4</octave></pitch><duration>2</duration><voice>1</voice><type>eighth</type><stem>up</stem><beam number="1">begin</beam><lyric number="1"><syllabic>begin</syllabic><text>én</text></lyric></note><note default-y="-30.00" default-x="81.30"><pitch><step>G</step><octave>4</octave></pitch><duration>2</duration><voice>1</voice><type>eighth</type><stem>up</stem><beam number="1">end</beam><lyric number="1"><syllabic>middle</syllabic><text>ér</text></lyric></note><note default-y="-30.00" default-x="143.22"><pitch><step>G</step><octave>4</octave></pitch><duration>4</duration><voice>1</voice><type>quarter</type><stem>up</stem><lyric number="1"><syllabic>end</syllabic><text>tem,</text></lyric></note></measure><measure width="297.50" number="20"><note default-y="-35.00" default-x="39.54"><pitch><step>F</step><alter>1</alter><octave>4</octave></pitch><duration>3</duration><voice>1</voice><type>eighth</type><dot/><stem>up</stem><beam number="1">begin</beam><lyric number="1"><syllabic>single</syllabic><text>zengd,</text></lyric></note><note default-y="-35.00" default-x="136.64"><pitch><step>F</step><alter>1</alter><octave>4</octave></pitch><duration>1</duration><voice>1</voice><type>16th</type><stem>up</stem><beam number="1">end</beam><lyric number="1"><syllabic>begin</syllabic><text>di</text></lyric></note><note default-y="-35.00" default-x="186.41"><pitch><step>F</step><alter>1</alter><octave>4</octave></pitch><duration>4</duration><voice>1</voice><type>quarter</type><stem>up</stem><lyric number="1"><syllabic>end</syllabic><text>csérd,</text></lyric></note></measure><measure width="261.34" number="21"><note><rest/><duration>4</duration><voice>1</voice><type>quarter</type></note><note default-y="-40.00" default-x="119.53"><pitch><step>E</step><octave>4</octave></pitch><duration>3</duration><voice>1</voice><type>eighth</type><dot/><stem>up</stem><beam number="1">begin</beam><lyric number="1"><syllabic>single</syllabic><text>zengd,</text></lyric></note><note default-y="-40.00" default-x="212.23"><pitch><step>E</step><octave>4</octave></pitch><duration>1</duration><voice>1</voice><type>16th</type><stem>up</stem><beam number="1">end</beam><lyric number="1"><syllabic>begin</syllabic><text>di</text></lyric></note></measure><measure width="220.14" number="22"><note default-y="-40.00" default-x="36.24"><pitch><step>E</step><octave>4</octave></pitch><duration>4</duration><voice>1</voice><type>quarter</type><stem>up</stem><lyric number="1"><syllabic>end</syllabic><text>csérd,</text></lyric></note><note><rest/><duration>4</duration><voice>1</voice><type>quarter</type></note></measure><measure width="449.89" number="23"><print new-system="yes"><system-layout><system-margins><left-margin>2.50</left-margin><right-margin>0.00</right-margin></system-margins><system-distance>120.45</system-distance></system-layout></print><note default-y="-35.00" default-x="106.07"><pitch><step>F</step><alter>1</alter><octave>4</octave></pitch><duration>1</duration><voice>1</voice><type>16th</type><stem>up</stem><beam number="1">begin</beam><lyric number="1"><syllabic>single</syllabic><text>Hogy</text></lyric></note><note default-y="-35.00" default-x="156.40"><pitch><step>F</step><alter>1</alter><octave>4</octave></pitch><duration>2</duration><voice>1</voice><type>eighth</type><stem>up</stem><beam number="1">continue</beam><lyric number="1"><syllabic>single</syllabic><text>a</text></lyric></note><note default-y="-35.00" default-x="236.92"><pitch><step>F</step><alter>1</alter><octave>4</octave></pitch><duration>1</duration><voice>1</voice><type>16th</type><stem>up</stem><beam number="1">end</beam><lyric number="1"><syllabic>begin</syllabic><text>ha</text></lyric></note><note default-y="-40.00" default-x="287.25"><pitch><step>E</step><octave>4</octave></pitch><duration>2</duration><voice>1</voice><type>eighth</type><stem>up</stem><beam number="1">begin</beam><lyric number="1"><syllabic>middle</syllabic><text>lál</text></lyric></note><note default-y="-45.00" default-x="367.77"><pitch><step>D</step><octave>4</octave></pitch><duration>2</duration><voice>1</voice><type>eighth</type><stem>up</stem><beam number="1">end</beam><lyric number="1"><syllabic>single</syllabic><text>ból,</text></lyric></note></measure><measure width="330.83" number="24"><note default-y="-30.00" default-x="28.63"><pitch><step>G</step><octave>4</octave></pitch><duration>2</duration><voice>1</voice><type>eighth</type><stem>up</stem><beam number="1">begin</beam><lyric number="1"><syllabic>single</syllabic><text>meg</text></lyric></note><note default-y="-30.00" default-x="112.13"><pitch><step>G</step><octave>4</octave></pitch><duration>2</duration><voice>1</voice><type>eighth</type><stem>up</stem><beam number="1">end</beam><lyric number="1"><syllabic>begin</syllabic><text>men</text></lyric></note><note default-y="-30.00" default-x="195.63"><pitch><step>G</step><octave>4</octave></pitch><duration>4</duration><voice>1</voice><type>quarter</type><stem>up</stem><lyric number="1"><syllabic>end</syllabic><text>tett,</text></lyric></note></measure><measure width="348.66" number="25"><note default-y="-35.00" default-x="36.57"><pitch><step>F</step><alter>1</alter><octave>4</octave></pitch><duration>2</duration><voice>1</voice><type>eighth</type><stem>up</stem><beam number="1">begin</beam><lyric number="1"><syllabic>single</syllabic><text>zengd</text></lyric></note><note default-y="-35.00" default-x="114.19"><pitch><step>F</step><alter>1</alter><octave>4</octave></pitch><duration>2</duration><voice>1</voice><type>eighth</type><stem>up</stem><beam number="1">end</beam><lyric number="1"><syllabic>begin</syllabic><text>di</text></lyric></note><note default-y="-40.00" default-x="191.81"><pitch><step>E</step><octave>4</octave></pitch><duration>2</duration><voice>1</voice><type>eighth</type><stem>up</stem><beam number="1">begin</beam><lyric number="1"><syllabic>middle</syllabic><text>csé</text></lyric></note><note default-y="-40.00" default-x="269.43"><pitch><step>E</step><octave>4</octave></pitch><duration>2</duration><voice>1</voice><type>eighth</type><stem>up</stem><beam number="1">end</beam><lyric number="1"><syllabic>middle</syllabic><text>re</text></lyric></note></measure><measure width="261.09" number="26"><note default-y="-45.00" default-x="23.01"><pitch><step>D</step><octave>4</octave></pitch><duration>4</duration><voice>1</voice><type>quarter</type><stem>up</stem><lyric number="1"><syllabic>end</syllabic><text>tét,</text></lyric></note><note default-y="-25.00" default-x="141.25"><pitch><step>A</step><octave>4</octave></pitch><duration>4</duration><voice>1</voice><type>quarter</type><stem>up</stem><lyric number="1"><syllabic>single</syllabic><text>Ó,</text></lyric></note></measure><measure width="379.40" number="27"><print new-system="yes"><system-layout><system-margins><left-margin>2.50</left-margin><right-margin>0.00</right-margin></system-margins><system-distance>120.45</system-distance></system-layout></print><note default-y="-35.00" default-x="105.16"><pitch><step>F</step><alter>1</alter><octave>4</octave></pitch><duration>2</duration><voice>1</voice><type>eighth</type><stem>up</stem><beam number="1">begin</beam><lyric number="1"><syllabic>begin</syllabic><text>3. Vé</text></lyric></note><note default-y="-35.00" default-x="169.31"><pitch><step>F</step><alter>1</alter><octave>4</octave></pitch><duration>1</duration><voice>1</voice><type>16th</type><stem>up</stem><beam number="1">continue</beam><lyric number="1"><syllabic>end</syllabic><text>re</text></lyric></note><note default-y="-35.00" default-x="209.40"><pitch><step>F</step><alter>1</alter><octave>4</octave></pitch><duration>1</duration><voice>1</voice><type>16th</type><stem>up</stem><beam number="1">end</beam><lyric number="1"><syllabic>single</syllabic><text>a</text></lyric></note><note default-y="-40.00" default-x="249.49"><pitch><step>E</step><octave>4</octave></pitch><duration>2</duration><voice>1</voice><type>eighth</type><stem>up</stem><beam number="1">begin</beam><lyric number="1"><syllabic>begin</syllabic><text>bűn</text></lyric></note><note default-y="-45.00" default-x="313.65"><pitch><step>D</step><octave>4</octave></pitch><duration>2</duration><voice>1</voice><type>eighth</type><stem>up</stem><beam number="1">end</beam><lyric number="1"><syllabic>end</syllabic><text>től</text></lyric></note></measure><measure width="274.59" number="28"><note default-y="-30.00" default-x="28.63"><pitch><step>G</step><octave>4</octave></pitch><duration>2</duration><voice>1</voice><type>eighth</type><stem>up</stem><beam number="1">begin</beam><lyric number="1"><syllabic>begin</syllabic><text>meg</text></lyric></note><note default-y="-30.00" default-x="91.90"><pitch><step>G</step><octave>4</octave></pitch><duration>1</duration><voice>1</voice><type>16th</type><stem>up</stem><beam number="1">continue</beam><lyric number="1"><syllabic>middle</syllabic><text>mo</text></lyric></note><note default-y="-30.00" default-x="132.55"><pitch><step>G</step><octave>4</octave></pitch><duration>3</duration><voice>1</voice><type>eighth</type><dot/><stem>up</stem><beam number="1">end</beam><lyric number="1"><syllabic>end</syllabic><text>sott,</text></lyric></note><note><rest/><duration>2</duration><voice>1</voice><type>eighth</type></note></measure><measure width="280.69" number="29"><note default-y="-35.00" default-x="36.57"><pitch><step>F</step><alter>1</alter><octave>4</octave></pitch><duration>3</duration><voice>1</voice><type>eighth</type><dot/><stem>up</stem><beam number="1">begin</beam><lyric number="1"><syllabic>begin</syllabic><text>zengd</text></lyric></note><note default-y="-35.00" default-x="128.43"><pitch><step>F</step><alter>1</alter><octave>4</octave></pitch><duration>1</duration><voice>1</voice><type>16th</type><stem>up</stem><beam number="1">end</beam><lyric number="1"><syllabic>middle</syllabic><text>di</text></lyric></note><note default-y="-35.00" default-x="175.51"><pitch><step>F</step><alter>1</alter><octave>4</octave></pitch><duration>4</duration><voice>1</voice><type>quarter</type><stem>up</stem><lyric number="1"><syllabic>end</syllabic><text>csérd,</text></lyric></note></measure><measure width="244.53" number="30"><note><rest/><duration>4</duration><voice>1</voice><type>quarter</type></note><note default-y="-40.00" default-x="112.35"><pitch><step>E</step><octave>4</octave></pitch><duration>3</duration><voice>1</voice><type>eighth</type><dot/><stem>up</stem><beam number="1">begin</beam><lyric number="1"><syllabic>begin</syllabic><text>zengd</text></lyric></note><note default-y="-40.00" default-x="198.68"><pitch><step>E</step><octave>4</octave></pitch><duration>1</duration><voice>1</voice><type>16th</type><stem>up</stem><beam number="1">end</beam><lyric number="1"><syllabic>middle</syllabic><text>di</text></lyric></note></measure><measure width="211.26" number="31"><note default-y="-40.00" default-x="37.23"><pitch><step>E</step><octave>4</octave></pitch><duration>4</duration><voice>1</voice><type>quarter</type><stem>up</stem><lyric number="1"><syllabic>single</syllabic><text>csérd!</text></lyric></note><note><rest/><duration>4</duration><voice>1</voice><type>quarter</type></note></measure><measure width="482.21" number="32"><print new-system="yes"><system-layout><system-margins><left-margin>2.50</left-margin><right-margin>0.00</right-margin></system-margins><system-distance>120.45</system-distance></system-layout></print><note default-y="-35.00" default-x="106.07"><pitch><step>F</step><alter>1</alter><octave>4</octave></pitch><duration>1</duration><voice>1</voice><type>16th</type><stem>up</stem><beam number="1">begin</beam><lyric number="1"><syllabic>begin</syllabic><text>Szent</text></lyric></note><note default-y="-35.00" default-x="158.09"><pitch><step>F</step><alter>1</alter><octave>4</octave></pitch><duration>2</duration><voice>1</voice><type>eighth</type><stem>up</stem><beam number="1">continue</beam><lyric number="1"><syllabic>middle</syllabic><text>lel</text></lyric></note><note default-y="-35.00" default-x="241.32"><pitch><step>F</step><alter>1</alter><octave>4</octave></pitch><duration>1</duration><voice>1</voice><type>16th</type><stem>up</stem><beam number="1">end</beam><lyric number="1"><syllabic>end</syllabic><text>ke</text></lyric></note><note default-y="-35.00" default-x="293.34"><pitch><step>F</step><alter>1</alter><octave>4</octave></pitch><duration>1</duration><voice>1</voice><type>16th</type><stem>up</stem><beam number="1">begin</beam><lyric number="1"><syllabic>begin</syllabic><text>meg</text></lyric></note><note default-y="-40.00" default-x="345.36"><pitch><step>E</step><octave>4</octave></pitch><duration>1</duration><voice>1</voice><type>16th</type><stem>up</stem><beam number="1">continue</beam><lyric number="1"><syllabic>middle</syllabic><text>új</text></lyric></note><note default-y="-45.00" default-x="397.38"><pitch><step>D</step><octave>4</octave></pitch><duration>2</duration><voice>1</voice><type>eighth</type><stem>up</stem><beam number="1">end</beam><lyric number="1"><syllabic>end</syllabic><text>ult</text></lyric></note></measure><measure width="311.85" number="33"><note default-y="-30.00" default-x="15.00"><pitch><step>G</step><octave>4</octave></pitch><duration>1</duration><voice>1</voice><type>16th</type><stem>up</stem><beam number="1">begin</beam><lyric number="1"><syllabic>begin</syllabic><text>e</text></lyric></note><note default-y="-30.00" default-x="65.90"><pitch><step>G</step><octave>4</octave></pitch><duration>2</duration><voice>1</voice><type>eighth</type><stem>up</stem><beam number="1">continue</beam><lyric number="1"><syllabic>end</syllabic><text>rőt</text></lyric></note><note default-y="-30.00" default-x="147.35"><pitch><step>G</step><octave>4</octave></pitch><duration>1</duration><voice>1</voice><type>16th</type><stem>up</stem><beam number="1">end</beam><lyric number="1"><syllabic>begin</syllabic><text>ad</text></lyric></note><note default-y="-30.00" default-x="198.26"><pitch><step>G</step><octave>4</octave></pitch><duration>4</duration><voice>1</voice><type>quarter</type><stem>up</stem><lyric number="1"><syllabic>end</syllabic><text>ott,</text></lyric></note></measure><measure width="341.99" number="34"><note default-y="-35.00" default-x="36.57"><pitch><step>F</step><alter>1</alter><octave>4</octave></pitch><duration>2</duration><voice>1</voice><type>eighth</type><stem>up</stem><beam number="1">begin</beam><lyric number="1"><syllabic>single</syllabic><text>zengd</text></lyric></note><note default-y="-35.00" default-x="112.52"><pitch><step>F</step><alter>1</alter><octave>4</octave></pitch><duration>2</duration><voice>1</voice><type>eighth</type><stem>up</stem><beam number="1">end</beam><lyric number="1"><syllabic>begin</syllabic><text>di</text></lyric></note><note default-y="-40.00" default-x="188.48"><pitch><step>E</step><octave>4</octave></pitch><duration>2</duration><voice>1</voice><type>eighth</type><stem>up</stem><beam number="1">begin</beam><lyric number="1"><syllabic>middle</syllabic><text>csé</text></lyric></note><note default-y="-40.00" default-x="264.43"><pitch><step>E</step><octave>4</octave></pitch><duration>2</duration><voice>1</voice><type>eighth</type><stem>up</stem><beam number="1">end</beam><lyric number="1"><syllabic>middle</syllabic><text>re</text></lyric></note></measure><measure width="254.42" number="35"><note default-y="-45.00" default-x="23.01"><pitch><step>D</step><octave>4</octave></pitch><duration>4</duration><voice>1</voice><type>quarter</type><stem>up</stem><lyric number="1"><syllabic>end</syllabic><text>tét,</text></lyric></note><note default-y="-25.00" default-x="137.91"><pitch><step>A</step><octave>4</octave></pitch><duration>4</duration><voice>1</voice><type>quarter</type><stem>up</stem><lyric number="1"><syllabic>single</syllabic><text>Ó,</text></lyric></note></measure><measure width="374.19" number="36"><print new-system="yes"><system-layout><system-margins><left-margin>2.50</left-margin><right-margin>0.00</right-margin></system-margins><system-distance>120.45</system-distance></system-layout></print><note default-y="-35.00" default-x="103.42"><pitch><step>F</step><alter>1</alter><octave>4</octave></pitch><duration>2</duration><voice>1</voice><type>eighth</type><stem>up</stem><beam number="1">begin</beam><lyric number="1"><syllabic>begin</syllabic><text>4. Ál</text></lyric></note><note default-y="-35.00" default-x="166.75"><pitch><step>F</step><alter>1</alter><octave>4</octave></pitch><duration>1</duration><voice>1</voice><type>16th</type><stem>up</stem><beam number="1">continue</beam><lyric number="1"><syllabic>middle</syllabic><text>ta</text></lyric></note><note default-y="-35.00" default-x="206.34"><pitch><step>F</step><alter>1</alter><octave>4</octave></pitch><duration>1</duration><voice>1</voice><type>16th</type><stem>up</stem><beam number="1">end</beam><lyric number="1"><syllabic>end</syllabic><text>la</text></lyric></note><note default-y="-40.00" default-x="245.92"><pitch><step>E</step><octave>4</octave></pitch><duration>2</duration><voice>1</voice><type>eighth</type><stem>up</stem><beam number="1">begin</beam><lyric number="1"><syllabic>single</syllabic><text>lett</text></lyric></note><note default-y="-45.00" default-x="309.26"><pitch><step>D</step><octave>4</octave></pitch><duration>2</duration><voice>1</voice><type>eighth</type><stem>up</stem><beam number="1">end</beam><lyric number="1"><syllabic>single</syllabic><text>a</text></lyric></note></measure><measure width="257.14" number="37"><note default-y="-30.00" default-x="27.31"><pitch><step>G</step><octave>4</octave></pitch><duration>3</duration><voice>1</voice><type>eighth</type><dot/><stem>up</stem><beam number="1">begin</beam><lyric number="1"><syllabic>single</syllabic><text>föld</text></lyric></note><note default-y="-30.00" default-x="113.76"><pitch><step>G</step><octave>4</octave></pitch><duration>1</duration><voice>1</voice><type>16th</type><stem>up</stem><beam number="1">end</beam><lyric number="1"><syllabic>single</syllabic><text>s az</text></lyric></note><note default-y="-30.00" default-x="158.06"><pitch><step>G</step><octave>4</octave></pitch><duration>4</duration><voice>1</voice><type>quarter</type><stem>up</stem><lyric number="1"><syllabic>single</syllabic><text>ég,</text></lyric></note></measure><measure width="288.90" number="38"><note default-y="-35.00" default-x="36.57"><pitch><step>F</step><alter>1</alter><octave>4</octave></pitch><duration>3</duration><voice>1</voice><type>eighth</type><dot/><stem>up</stem><beam number="1">begin</beam><lyric number="1"><syllabic>begin</syllabic><text>zengd</text></lyric></note><note default-y="-35.00" default-x="131.54"><pitch><step>F</step><alter>1</alter><octave>4</octave></pitch><duration>1</duration><voice>1</voice><type>16th</type><stem>up</stem><beam number="1">end</beam><lyric number="1"><syllabic>middle</syllabic><text>di</text></lyric></note><note default-y="-35.00" default-x="180.21"><pitch><step>F</step><alter>1</alter><octave>4</octave></pitch><duration>4</duration><voice>1</voice><type>quarter</type><stem>up</stem><lyric number="1"><syllabic>end</syllabic><text>csérd,</text></lyric></note></measure><measure width="252.74" number="39"><note><rest/><duration>4</duration><voice>1</voice><type>quarter</type></note><note default-y="-40.00" default-x="115.86"><pitch><step>E</step><octave>4</octave></pitch><duration>3</duration><voice>1</voice><type>eighth</type><dot/><stem>up</stem><beam number="1">begin</beam><lyric number="1"><syllabic>begin</syllabic><text>zengd</text></lyric></note><note default-y="-40.00" default-x="205.30"><pitch><step>E</step><octave>4</octave></pitch><duration>1</duration><voice>1</voice><type>16th</type><stem>up</stem><beam number="1">end</beam><lyric number="1"><syllabic>middle</syllabic><text>di</text></lyric></note></measure><measure width="217.49" number="40"><note default-y="-40.00" default-x="36.24"><pitch><step>E</step><octave>4</octave></pitch><duration>4</duration><voice>1</voice><type>quarter</type><stem>up</stem><lyric number="1"><syllabic>end</syllabic><text>csérd,</text></lyric></note><note><rest/><duration>4</duration><voice>1</voice><type>quarter</type></note></measure><measure width="479.90" number="41"><print new-system="yes"><system-layout><system-margins><left-margin>2.50</left-margin><right-margin>0.00</right-margin></system-margins><system-distance>120.45</system-distance></system-layout></print><note default-y="-35.00" default-x="98.79"><pitch><step>F</step><alter>1</alter><octave>4</octave></pitch><duration>2</duration><voice>1</voice><type>eighth</type><stem>up</stem><beam number="1">begin</beam><lyric number="1"><syllabic>begin</syllabic><text>Ben</text></lyric></note><note default-y="-35.00" default-x="178.69"><pitch><step>F</step><alter>1</alter><octave>4</octave></pitch><duration>1</duration><voice>1</voice><type>16th</type><stem>up</stem><beam number="1">continue</beam><lyric number="1"><syllabic>end</syllabic><text>ne</text></lyric></note><note default-y="-35.00" default-x="228.62"><pitch><step>F</step><alter>1</alter><octave>4</octave></pitch><duration>1</duration><voice>1</voice><type>16th</type><stem>up</stem><beam number="1">end</beam><lyric number="1"><syllabic>single</syllabic><text>és</text></lyric></note><note default-y="-35.00" default-x="278.56"><pitch><step>F</step><alter>1</alter><octave>4</octave></pitch><duration>1</duration><voice>1</voice><type>16th</type><stem>up</stem><beam number="1">begin</beam><lyric number="1"><syllabic>begin</syllabic><text>Ér</text></lyric></note><note default-y="-40.00" default-x="328.49"><pitch><step>E</step><octave>4</octave></pitch><duration>1</duration><voice>1</voice><type>16th</type><stem>up</stem><beam number="1">continue</beam><lyric number="1"><syllabic>end</syllabic><text>te</text></lyric></note><note default-y="-45.00" default-x="378.43"><pitch><step>D</step><octave>4</octave></pitch><duration>1</duration><voice>1</voice><type>16th</type><stem>up</stem><beam number="1">continue</beam><lyric number="1"><syllabic>single</syllabic><text>van</text></lyric></note><note default-y="-45.00" default-x="428.37"><pitch><step>D</step><octave>4</octave></pitch><duration>1</duration><voice>1</voice><type>16th</type><stem>up</stem><beam number="1">end</beam><lyric number="1"><syllabic>single</syllabic><text>a</text></lyric></note></measure><measure width="314.66" number="42"><note default-y="-30.00" default-x="26.65"><pitch><step>G</step><octave>4</octave></pitch><duration>2</duration><voice>1</voice><type>eighth</type><stem>up</stem><beam number="1">begin</beam><lyric number="1"><syllabic>begin</syllabic><text>min</text></lyric></note><note default-y="-30.00" default-x="106.21"><pitch><step>G</step><octave>4</octave></pitch><duration>2</duration><voice>1</voice><type>eighth</type><stem>up</stem><beam number="1">end</beam><lyric number="1"><syllabic>middle</syllabic><text>den</text></lyric></note><note default-y="-30.00" default-x="185.77"><pitch><step>G</step><octave>4</octave></pitch><duration>4</duration><voice>1</voice><type>quarter</type><stem>up</stem><lyric number="1"><syllabic>end</syllabic><text>ség,</text></lyric></note></measure><measure width="341.73" number="43"><note default-y="-35.00" default-x="36.57"><pitch><step>F</step><alter>1</alter><octave>4</octave></pitch><duration>2</duration><voice>1</voice><type>eighth</type><stem>up</stem><beam number="1">begin</beam><lyric number="1"><syllabic>single</syllabic><text>zengd</text></lyric></note><note default-y="-35.00" default-x="112.46"><pitch><step>F</step><alter>1</alter><octave>4</octave></pitch><duration>2</duration><voice>1</voice><type>eighth</type><stem>up</stem><beam number="1">end</beam><lyric number="1"><syllabic>begin</syllabic><text>di</text></lyric></note><note default-y="-40.00" default-x="188.35"><pitch><step>E</step><octave>4</octave></pitch><duration>2</duration><voice>1</voice><type>eighth</type><stem>up</stem><beam number="1">begin</beam><lyric number="1"><syllabic>middle</syllabic><text>csé</text></lyric></note><note default-y="-40.00" default-x="264.24"><pitch><step>E</step><octave>4</octave></pitch><duration>2</duration><voice>1</voice><type>eighth</type><stem>up</stem><beam number="1">end</beam><lyric number="1"><syllabic>middle</syllabic><text>re</text></lyric></note></measure><measure width="254.16" number="44"><note default-y="-45.00" default-x="23.01"><pitch><step>D</step><octave>4</octave></pitch><duration>4</duration><voice>1</voice><type>quarter</type><stem>up</stem><lyric number="1"><syllabic>end</syllabic><text>tét,</text></lyric></note><note default-y="-25.00" default-x="137.78"><pitch><step>A</step><octave>4</octave></pitch><duration>4</duration><voice>1</voice><type>quarter</type><stem>up</stem><lyric number="1"><syllabic>single</syllabic><text>Ó,</text></lyric></note></measure><measure width="448.09" number="45"><print new-system="yes"><system-layout><system-margins><left-margin>2.50</left-margin><right-margin>-0.00</right-margin></system-margins><system-distance>120.45</system-distance></system-layout></print><note default-y="-35.00" default-x="103.42"><pitch><step>F</step><alter>1</alter><octave>4</octave></pitch><duration>1</duration><voice>1</voice><type>16th</type><stem>up</stem><beam number="1">begin</beam><lyric number="1"><syllabic>begin</syllabic><text>5. Di</text></lyric></note><note default-y="-35.00" default-x="148.36"><pitch><step>F</step><alter>1</alter><octave>4</octave></pitch><duration>1</duration><voice>1</voice><type>16th</type><stem>up</stem><beam number="1">continue</beam><lyric number="1"><syllabic>middle</syllabic><text>cső</text></lyric></note><note default-y="-35.00" default-x="190.95"><pitch><step>F</step><alter>1</alter><octave>4</octave></pitch><duration>1</duration><voice>1</voice><type>16th</type><stem>up</stem><beam number="1">continue</beam><lyric number="1"><syllabic>end</syllabic><text>ség</text></lyric></note><note default-y="-35.00" default-x="233.54"><pitch><step>F</step><alter>1</alter><octave>4</octave></pitch><duration>1</duration><voice>1</voice><type>16th</type><stem>up</stem><beam number="1">end</beam><lyric number="1"><syllabic>single</syllabic><text>és</text></lyric></note><note default-y="-35.00" default-x="276.13"><pitch><step>F</step><alter>1</alter><octave>4</octave></pitch><duration>1</duration><voice>1</voice><type>16th</type><stem>up</stem><beam number="1">begin</beam><notations><slur type="start" number="1"/></notations><lyric number="1"><syllabic>begin</syllabic><text>ál</text></lyric></note><note default-y="-40.00" default-x="318.72"><pitch><step>E</step><octave>4</octave></pitch><duration>1</duration><voice>1</voice><type>16th</type><stem>up</stem><beam number="1">continue</beam><notations><slur type="stop" number="1"/></notations></note><note default-y="-45.00" default-x="361.31"><pitch><step>D</step><octave>4</octave></pitch><duration>1</duration><voice>1</voice><type>16th</type><stem>up</stem><beam number="1">continue</beam><lyric number="1"><syllabic>end</syllabic><text>dás</text></lyric></note><note default-y="-45.00" default-x="403.90"><pitch><step>D</step><octave>4</octave></pitch><duration>1</duration><voice>1</voice><type>16th</type><stem>up</stem><beam number="1">end</beam><lyric number="1"><syllabic>single</syllabic><text>a</text></lyric></note></measure><measure width="243.12" number="46"><note default-y="-30.00" default-x="21.35"><pitch><step>G</step><octave>4</octave></pitch><duration>2</duration><voice>1</voice><type>eighth</type><stem>up</stem><beam number="1">begin</beam><lyric number="1"><syllabic>begin</syllabic><text>Bá</text></lyric></note><note default-y="-30.00" default-x="82.51"><pitch><step>G</step><octave>4</octave></pitch><duration>2</duration><voice>1</voice><type>eighth</type><stem>up</stem><beam number="1">end</beam><lyric number="1"><syllabic>middle</syllabic><text>rány</text></lyric></note><note default-y="-30.00" default-x="143.67"><pitch><step>G</step><octave>4</octave></pitch><duration>4</duration><voice>1</voice><type>quarter</type><stem>up</stem><lyric number="1"><syllabic>end</syllabic><text>nak,</text></lyric></note></measure><measure width="268.94" number="47"><note default-y="-35.00" default-x="36.57"><pitch><step>F</step><alter>1</alter><octave>4</octave></pitch><duration>3</duration><voice>1</voice><type>eighth</type><dot/><stem>up</stem><beam number="1">begin</beam><lyric number="1"><syllabic>begin</syllabic><text>zengd</text></lyric></note><note default-y="-35.00" default-x="123.44"><pitch><step>F</step><alter>1</alter><octave>4</octave></pitch><duration>1</duration><voice>1</voice><type>16th</type><stem>up</stem><beam number="1">end</beam><lyric number="1"><syllabic>middle</syllabic><text>di</text></lyric></note><note default-y="-35.00" default-x="169.38"><pitch><step>F</step><alter>1</alter><octave>4</octave></pitch><duration>4</duration><voice>1</voice><type>quarter</type><stem>up</stem><lyric number="1"><syllabic>single</syllabic><text>csérd,</text></lyric></note></measure><measure width="232.78" number="48"><note><rest/><duration>4</duration><voice>1</voice><type>quarter</type></note><note default-y="-40.00" default-x="107.33"><pitch><step>E</step><octave>4</octave></pitch><duration>3</duration><voice>1</voice><type>eighth</type><dot/><stem>up</stem><beam number="1">begin</beam><lyric number="1"><syllabic>begin</syllabic><text>zengd</text></lyric></note><note default-y="-40.00" default-x="189.21"><pitch><step>E</step><octave>4</octave></pitch><duration>1</duration><voice>1</voice><type>16th</type><stem>up</stem><beam number="1">end</beam><lyric number="1"><syllabic>middle</syllabic><text>di</text></lyric></note></measure><measure width="197.52" number="49"><note default-y="-40.00" default-x="36.24"><pitch><step>E</step><octave>4</octave></pitch><duration>4</duration><voice>1</voice><type>quarter</type><stem>up</stem><lyric number="1"><syllabic>end</syllabic><text>csérd,</text></lyric></note><note><rest/><duration>4</duration><voice>1</voice><type>quarter</type></note></measure><measure width="502.56" number="50"><print new-system="yes"><system-layout><system-margins><left-margin>2.50</left-margin><right-margin>0.00</right-margin></system-margins><system-distance>120.45</system-distance></system-layout></print><note default-y="-35.00" default-x="94.16"><pitch><step>F</step><alter>1</alter><octave>4</octave></pitch><duration>1</duration><voice>1</voice><type>16th</type><stem>up</stem><beam number="1">begin</beam><lyric number="1"><syllabic>begin</syllabic><text>Hó</text></lyric></note><note default-y="-35.00" default-x="145.01"><pitch><step>F</step><alter>1</alter><octave>4</octave></pitch><duration>1</duration><voice>1</voice><type>16th</type><stem>up</stem><beam number="1">continue</beam><lyric number="1"><syllabic>middle</syllabic><text>dol</text></lyric></note><note default-y="-35.00" default-x="195.86"><pitch><step>F</step><alter>1</alter><octave>4</octave></pitch><duration>1</duration><voice>1</voice><type>16th</type><stem>up</stem><beam number="1">continue</beam><lyric number="1"><syllabic>end</syllabic><text>at</text></lyric></note><note default-y="-35.00" default-x="246.71"><pitch><step>F</step><alter>1</alter><octave>4</octave></pitch><duration>1</duration><voice>1</voice><type>16th</type><stem>up</stem><beam number="1">end</beam><lyric number="1"><syllabic>single</syllabic><text>és</text></lyric></note><note default-y="-35.00" default-x="297.56"><pitch><step>F</step><alter>1</alter><octave>4</octave></pitch><duration>1</duration><voice>1</voice><type>16th</type><stem>up</stem><beam number="1">begin</beam><lyric number="1"><syllabic>begin</syllabic><text>tisz</text></lyric></note><note default-y="-40.00" default-x="348.41"><pitch><step>E</step><octave>4</octave></pitch><duration>1</duration><voice>1</voice><type>16th</type><stem>up</stem><beam number="1">continue</beam><lyric number="1"><syllabic>middle</syllabic><text>tes</text></lyric></note><note default-y="-45.00" default-x="399.26"><pitch><step>D</step><octave>4</octave></pitch><duration>1</duration><voice>1</voice><type>16th</type><stem>up</stem><beam number="1">continue</beam><lyric number="1"><syllabic>end</syllabic><text>ség</text></lyric></note><note default-y="-45.00" default-x="450.11"><pitch><step>D</step><octave>4</octave></pitch><duration>1</duration><voice>1</voice><type>16th</type><stem>up</stem><beam number="1">end</beam><lyric number="1"><syllabic>single</syllabic><text>a</text></lyric></note></measure><measure width="312.13" number="51"><note default-y="-30.00" default-x="20.03"><pitch><step>G</step><octave>4</octave></pitch><duration>1</duration><voice>1</voice><type>16th</type><stem>up</stem><beam number="1">begin</beam><lyric number="1"><syllabic>begin</syllabic><text>Ki</text></lyric></note><note default-y="-30.00" default-x="70.12"><pitch><step>G</step><octave>4</octave></pitch><duration>2</duration><voice>1</voice><type>eighth</type><stem>up</stem><beam number="1">continue</beam><lyric number="1"><syllabic>middle</syllabic><text>rály</text></lyric></note><note default-y="-30.00" default-x="150.25"><pitch><step>G</step><octave>4</octave></pitch><duration>1</duration><voice>1</voice><type>16th</type><stem>up</stem><beam number="1">end</beam><lyric number="1"><syllabic>end</syllabic><text>nak,</text></lyric></note><note><rest/><duration>4</duration><voice>1</voice><type>quarter</type></note></measure><measure width="328.67" number="52"><note default-y="-35.00" default-x="36.57"><pitch><step>F</step><alter>1</alter><octave>4</octave></pitch><duration>2</duration><voice>1</voice><type>eighth</type><stem>up</stem><beam number="1">begin</beam><lyric number="1"><syllabic>single</syllabic><text>zengd</text></lyric></note><note default-y="-35.00" default-x="109.20"><pitch><step>F</step><alter>1</alter><octave>4</octave></pitch><duration>2</duration><voice>1</voice><type>eighth</type><stem>up</stem><beam number="1">end</beam><lyric number="1"><syllabic>begin</syllabic><text>di</text></lyric></note><note default-y="-40.00" default-x="181.82"><pitch><step>E</step><octave>4</octave></pitch><duration>2</duration><voice>1</voice><type>eighth</type><stem>up</stem><beam number="1">begin</beam><lyric number="1"><syllabic>middle</syllabic><text>csé</text></lyric></note><note default-y="-40.00" default-x="254.45"><pitch><step>E</step><octave>4</octave></pitch><duration>2</duration><voice>1</voice><type>eighth</type><stem>up</stem><beam number="1">end</beam><lyric number="1"><syllabic>middle</syllabic><text>re</text></lyric></note></measure><measure width="247.10" number="53"><note default-y="-45.00" default-x="23.01"><pitch><step>D</step><octave>4</octave></pitch><duration>4</duration><voice>1</voice><type>quarter</type><stem>up</stem><lyric number="1"><syllabic>end</syllabic><text>tét,</text></lyric></note><note default-y="-25.00" default-x="131.25"><pitch><step>A</step><octave>4</octave></pitch><duration>4</duration><voice>1</voice><type>quarter</type><stem>up</stem><lyric number="1"><syllabic>single</syllabic><text>Ó,</text></lyric></note><barline location="right"><bar-style>light-heavy</bar-style></barline></measure></part></score-partwise>