<score-partwise version="2.0"><work><work-number/><work-title/></work><movement-number/><movement-title>Along the pineapple trail</movement-title><identification><creator type="composer">Andy Iona,Johnny Kamano,Billy Faber</creator><creator type="poet"/><rights>All Rights Reserved</rights><encoding><software>MuseScore 0.9.5</software><encoding-date>2010-05-03</encoding-date><software>ProxyMusic 2.0 c</software></encoding><source>http://wikifonia.org/node/5667/revisions/7744/view</source></identification><defaults><scaling><millimeters>7.056</millimeters><tenths>40</tenths></scaling><page-layout><page-height>1683.67</page-height><page-width>1190.48</page-width><page-margins type="both"><left-margin>56.6893</left-margin><right-margin>56.6893</right-margin><top-margin>56.6893</top-margin><bottom-margin>113.379</bottom-margin></page-margins></page-layout></defaults><credit page="1"><credit-words font-size="24" default-y="1626.98" default-x="595.238" justify="center" valign="top">Along the pineapple trail</credit-words></credit><credit page="1"><credit-words font-size="12" default-y="1556.5" default-x="1133.79" justify="right" valign="top">Andy Iona,Johnny Kamano,Billy Faber</credit-words></credit><credit page="1"><credit-words font-size="12" default-y="1556.5" default-x="56.6893" justify="left" valign="top">Hawaiian beat</credit-words></credit><part-list><part-group type="start" number="1"><group-symbol>brace</group-symbol></part-group><score-part id="P1"><part-name>Electric Piano</part-name><score-instrument id="P1-I3"><instrument-name>Electric Piano</instrument-name></score-instrument><midi-instrument id="P1-I3"><midi-channel>1</midi-channel><midi-program>5</midi-program></midi-instrument></score-part></part-list><part id="P1"><measure width="312.04" number="1"><print><system-layout><system-margins><left-margin>169.77</left-margin><right-margin>0.00</right-margin></system-margins><top-system-distance>228.53</top-system-distance></system-layout></print><attributes><divisions>480</divisions><key><fifths>0</fifths><mode>major</mode></key><time><beats>4</beats><beat-type>4</beat-type></time><clef><sign>G</sign><line>2</line></clef></attributes><note><rest/><duration>960</duration><voice>1</voice><type>half</type></note><direction><direction-type><words default-y="100">N.C.</words></direction-type></direction><note default-y="-40.00" default-x="153.03"><pitch><step>E</step><octave>4</octave></pitch><duration>480</duration><voice>1</voice><type>quarter</type><stem>up</stem><lyric number="1"><syllabic>single</syllabic><text>In</text></lyric></note><note default-y="-35.00" default-x="210.32"><pitch><step>F</step><octave>4</octave></pitch><duration>240</duration><voice>1</voice><type>eighth</type><stem>up</stem><beam number="1">begin</beam><lyric number="1"><syllabic>single</syllabic><text>dreams</text></lyric></note><note default-y="-35.00" default-x="261.07"><pitch><step>F</step><alter>1</alter><octave>4</octave></pitch><duration>240</duration><voice>1</voice><type>eighth</type><accidental>sharp</accidental><stem>up</stem><beam number="1">end</beam><lyric number="1"><syllabic>single</syllabic><text>I</text></lyric></note></measure><measure width="249.07" number="2"><barline location="left"><bar-style>heavy-light</bar-style><repeat direction="forward"/></barline><harmony print-frame="no"><root><root-step>C</root-step></root><kind text="">major</kind></harmony><note default-y="-30.00" default-x="26.62"><pitch><step>G</step><octave>4</octave></pitch><duration>240</duration><voice>1</voice><type>eighth</type><stem>up</stem><beam number="1">begin</beam><lyric number="1"><syllabic>single</syllabic><text>find</text></lyric></note><note default-y="-25.00" default-x="67.61"><pitch><step>A</step><octave>4</octave></pitch><duration>240</duration><voice>1</voice><type>eighth</type><stem>up</stem><beam number="1">end</beam><lyric number="1"><syllabic>single</syllabic><text>that</text></lyric></note><note default-y="-40.00" default-x="105.08"><pitch><step>E</step><octave>4</octave></pitch><duration>480</duration><voice>1</voice><type>quarter</type><stem>up</stem><lyric number="1"><syllabic>single</syllabic><text>I'm</text></lyric></note><note default-y="-30.00" default-x="165.03"><pitch><step>G</step><octave>4</octave></pitch><duration>960</duration><tie type="start"/><voice>1</voice><type>half</type><stem>up</stem><notations><tied type="start"/></notations><lyric number="1"><syllabic>single</syllabic><text>back</text></lyric></note></measure><measure width="202.15" number="3"><note default-y="-30.00" default-x="15.00"><pitch><step>G</step><octave>4</octave></pitch><duration>480</duration><tie type="stop"/><voice>1</voice><type>quarter</type><stem>up</stem><notations><tied type="stop"/></notations></note><note default-y="-5.00" default-x="61.39"><pitch><step>E</step><octave>5</octave></pitch><duration>480</duration><voice>1</voice><type>quarter</type><stem>down</stem><lyric number="1"><syllabic>single</syllabic><text>in</text></lyric></note><harmony print-frame="no"><root><root-step>A</root-step></root><kind text="7">dominant</kind></harmony><note default-y="-5.00" default-x="107.78"><pitch><step>E</step><octave>5</octave></pitch><duration>480</duration><voice>1</voice><type>quarter</type><stem>down</stem><lyric number="1"><syllabic>single</syllabic><text>old</text></lyric></note><note default-y="-5.00" default-x="154.16"><pitch><step>E</step><alter>-1</alter><octave>5</octave></pitch><duration>480</duration><voice>1</voice><type>quarter</type><accidental>flat</accidental><stem>down</stem><lyric number="1"><syllabic>begin</syllabic><text>Ha</text></lyric></note></measure><measure width="144.06" number="4"><harmony print-frame="no"><root><root-step>D</root-step></root><kind text="7">dominant</kind></harmony><note default-y="-10.00" default-x="24.73"><pitch><step>D</step><octave>5</octave></pitch><duration>960</duration><voice>1</voice><type>half</type><stem>down</stem><lyric number="1"><syllabic>middle</syllabic><text>wai</text></lyric></note><note default-y="-25.00" default-x="83.60"><pitch><step>A</step><octave>4</octave></pitch><duration>960</duration><tie type="start"/><voice>1</voice><type>half</type><stem>up</stem><notations><tied type="start"/></notations><lyric number="1"><syllabic>end</syllabic><text>i</text></lyric></note></measure><measure width="237.47" number="5"><print new-system="yes"><system-layout><system-margins><left-margin>109.38</left-margin><right-margin>0.00</right-margin></system-margins><system-distance>153.73</system-distance></system-layout></print><note default-y="-25.00" default-x="53.18"><pitch><step>A</step><octave>4</octave></pitch><duration>960</duration><tie type="stop"/><voice>1</voice><type>half</type><stem>up</stem><notations><tied type="stop"/></notations></note><note default-y="-50.00" default-x="118.70"><pitch><step>C</step><octave>4</octave></pitch><duration>480</duration><voice>1</voice><type>quarter</type><stem>up</stem><lyric number="1"><syllabic>begin</syllabic><text>a</text></lyric></note><note default-y="-45.00" default-x="166.35"><pitch><step>D</step><octave>4</octave></pitch><duration>240</duration><voice>1</voice><type>eighth</type><stem>up</stem><beam number="1">begin</beam><lyric number="1"><syllabic>end</syllabic><text>long</text></lyric></note><note default-y="-40.00" default-x="206.09"><pitch><step>E</step><octave>4</octave></pitch><duration>240</duration><voice>1</voice><type>eighth</type><stem>up</stem><beam number="1">end</beam><lyric number="1"><syllabic>single</syllabic><text>the</text></lyric></note></measure><measure width="220.48" number="6"><harmony print-frame="no"><root><root-step>G</root-step></root><kind text="7">dominant</kind></harmony><note default-y="-35.00" default-x="27.87"><pitch><step>F</step><octave>4</octave></pitch><duration>240</duration><voice>1</voice><type>eighth</type><stem>up</stem><beam number="1">begin</beam><lyric number="1"><syllabic>begin</syllabic><text>pine</text></lyric></note><note default-y="-30.00" default-x="63.85"><pitch><step>G</step><octave>4</octave></pitch><duration>240</duration><voice>1</voice><type>eighth</type><stem>up</stem><beam number="1">end</beam><lyric number="1"><syllabic>middle</syllabic><text>ap</text></lyric></note><note default-y="-40.00" default-x="96.14"><pitch><step>E</step><octave>4</octave></pitch><duration>480</duration><voice>1</voice><type>quarter</type><stem>up</stem><lyric number="1"><syllabic>end</syllabic><text>ple</text></lyric></note><note default-y="-35.00" default-x="147.82"><pitch><step>F</step><octave>4</octave></pitch><duration>960</duration><tie type="start"/><voice>1</voice><type>half</type><stem>up</stem><notations><tied type="start"/></notations><lyric number="1"><syllabic>single</syllabic><text>trail</text></lyric></note></measure><measure width="192.03" number="7"><note default-y="-35.00" default-x="15.00"><pitch><step>F</step><octave>4</octave></pitch><duration>480</duration><tie type="stop"/><voice>1</voice><type>quarter</type><stem>up</stem><notations><tied type="stop"/></notations></note><note default-y="-10.00" default-x="58.86"><pitch><step>D</step><octave>5</octave></pitch><duration>480</duration><voice>1</voice><type>quarter</type><stem>down</stem><lyric number="1"><syllabic>single</syllabic><text>I</text></lyric></note><note default-y="-10.00" default-x="102.72"><pitch><step>D</step><octave>5</octave></pitch><duration>480</duration><voice>1</voice><type>quarter</type><stem>down</stem><lyric number="1"><syllabic>single</syllabic><text>used</text></lyric></note><note default-y="-20.00" default-x="146.57"><pitch><step>B</step><octave>4</octave></pitch><duration>480</duration><voice>1</voice><type>quarter</type><stem>down</stem><lyric number="1"><syllabic>single</syllabic><text>to</text></lyric></note></measure><measure width="123.47" number="8"><harmony print-frame="no"><root><root-step>C</root-step></root><kind text="">major</kind></harmony><note default-y="-25.00" default-x="31.62"><pitch><step>A</step><octave>4</octave></pitch><duration>1920</duration><tie type="start"/><voice>1</voice><type>whole</type><notations><tied type="start"/></notations><lyric number="1"><syllabic>single</syllabic><text>roam</text></lyric></note></measure><measure width="194.27" number="9"><note default-y="-25.00" default-x="15.00"><pitch><step>A</step><octave>4</octave></pitch><duration>960</duration><tie type="stop"/><voice>1</voice><type>half</type><stem>up</stem><notations><tied type="stop"/></notations></note><direction><direction-type><words default-y="100">N.C.</words></direction-type></direction><note default-y="-40.00" default-x="79.08"><pitch><step>E</step><octave>4</octave></pitch><duration>480</duration><voice>1</voice><type>quarter</type><stem>up</stem><lyric number="1"><syllabic>single</syllabic><text>I</text></lyric></note><note default-y="-35.00" default-x="125.69"><pitch><step>F</step><octave>4</octave></pitch><duration>240</duration><voice>1</voice><type>eighth</type><stem>up</stem><beam number="1">begin</beam><lyric number="1"><syllabic>single</syllabic><text>saw</text></lyric></note><note default-y="-35.00" default-x="163.54"><pitch><step>F</step><alter>1</alter><octave>4</octave></pitch><duration>240</duration><voice>1</voice><type>eighth</type><accidental>sharp</accidental><stem>up</stem><beam number="1">end</beam><lyric number="1"><syllabic>single</syllabic><text>my</text></lyric></note></measure><measure width="353.98" number="10"><print new-system="yes"><system-layout><system-margins><left-margin>109.38</left-margin><right-margin>0.00</right-margin></system-margins><system-distance>153.73</system-distance></system-layout></print><harmony print-frame="no"><root><root-step>C</root-step></root><kind text="">major</kind></harmony><note default-y="-30.00" default-x="85.45"><pitch><step>G</step><octave>4</octave></pitch><duration>240</duration><voice>1</voice><type>eighth</type><stem>up</stem><beam number="1">begin</beam><lyric number="1"><syllabic>single</syllabic><text>friends</text></lyric></note><note default-y="-25.00" default-x="144.59"><pitch><step>A</step><octave>4</octave></pitch><duration>240</duration><voice>1</voice><type>eighth</type><stem>up</stem><beam number="1">end</beam><lyric number="1"><syllabic>single</syllabic><text>from</text></lyric></note><note default-y="-40.00" default-x="193.07"><pitch><step>E</step><octave>4</octave></pitch><duration>480</duration><voice>1</voice><type>quarter</type><stem>up</stem><lyric number="1"><syllabic>single</syllabic><text>each</text></lyric></note><note default-y="-30.00" default-x="260.14"><pitch><step>G</step><octave>4</octave></pitch><duration>960</duration><tie type="start"/><voice>1</voice><type>half</type><stem>up</stem><notations><tied type="start"/></notations><lyric number="1"><syllabic>single</syllabic><text>shack</text></lyric></note></measure><measure width="227.03" number="11"><note default-y="-30.00" default-x="15.00"><pitch><step>G</step><octave>4</octave></pitch><duration>480</duration><tie type="stop"/><voice>1</voice><type>quarter</type><stem>up</stem><notations><tied type="stop"/></notations></note><note default-y="-5.00" default-x="67.61"><pitch><step>E</step><octave>5</octave></pitch><duration>480</duration><voice>1</voice><type>quarter</type><stem>down</stem><lyric number="1"><syllabic>single</syllabic><text>come</text></lyric></note><harmony print-frame="no"><root><root-step>A</root-step></root><kind text="7">dominant</kind></harmony><note default-y="-5.00" default-x="120.22"><pitch><step>E</step><octave>5</octave></pitch><duration>480</duration><voice>1</voice><type>quarter</type><stem>down</stem><lyric number="1"><syllabic>single</syllabic><text>out</text></lyric></note><note default-y="-5.00" default-x="172.82"><pitch><step>E</step><alter>-1</alter><octave>5</octave></pitch><duration>480</duration><voice>1</voice><type>quarter</type><accidental>flat</accidental><stem>down</stem><lyric number="1"><syllabic>single</syllabic><text>to</text></lyric></note></measure><measure width="169.98" number="12"><harmony print-frame="no"><root><root-step>D</root-step></root><kind text="7">dominant</kind></harmony><note default-y="-10.00" default-x="30.99"><pitch><step>D</step><octave>5</octave></pitch><duration>960</duration><voice>1</voice><type>half</type><stem>down</stem><lyric number="1"><syllabic>single</syllabic><text>greet</text></lyric></note><note default-y="-25.00" default-x="99.68"><pitch><step>A</step><octave>4</octave></pitch><duration>960</duration><tie type="start"/><voice>1</voice><type>half</type><stem>up</stem><notations><tied type="start"/></notations><lyric number="1"><syllabic>single</syllabic><text>me</text></lyric></note></measure><measure width="216.73" number="13"><note default-y="-25.00" default-x="15.00"><pitch><step>A</step><octave>4</octave></pitch><duration>960</duration><tie type="stop"/><voice>1</voice><type>half</type><stem>up</stem><notations><tied type="stop"/></notations></note><note default-y="-50.00" default-x="88.51"><pitch><step>C</step><octave>4</octave></pitch><duration>480</duration><voice>1</voice><type>quarter</type><stem>up</stem><lyric number="1"><syllabic>begin</syllabic><text>A</text></lyric></note><note default-y="-45.00" default-x="141.98"><pitch><step>D</step><octave>4</octave></pitch><duration>240</duration><voice>1</voice><type>eighth</type><stem>up</stem><beam number="1">begin</beam><lyric number="1"><syllabic>end</syllabic><text>long</text></lyric></note><note default-y="-40.00" default-x="181.72"><pitch><step>E</step><octave>4</octave></pitch><duration>240</duration><voice>1</voice><type>eighth</type><stem>up</stem><beam number="1">end</beam><lyric number="1"><syllabic>single</syllabic><text>the</text></lyric></note></measure><measure width="247.79" number="14"><print new-system="yes"><system-layout><system-margins><left-margin>109.38</left-margin><right-margin>0.00</right-margin></system-margins><system-distance>153.73</system-distance></system-layout></print><harmony print-frame="no"><root><root-step>G</root-step></root><kind text="7">dominant</kind></harmony><note default-y="-35.00" default-x="73.55"><pitch><step>F</step><octave>4</octave></pitch><duration>240</duration><voice>1</voice><type>eighth</type><stem>up</stem><beam number="1">begin</beam><lyric number="1"><syllabic>begin</syllabic><text>pine</text></lyric></note><note default-y="-30.00" default-x="109.53"><pitch><step>G</step><octave>4</octave></pitch><duration>240</duration><voice>1</voice><type>eighth</type><stem>up</stem><beam number="1">end</beam><lyric number="1"><syllabic>middle</syllabic><text>ap</text></lyric></note><note default-y="-40.00" default-x="141.46"><pitch><step>E</step><octave>4</octave></pitch><duration>480</duration><voice>1</voice><type>quarter</type><stem>up</stem><lyric number="1"><syllabic>end</syllabic><text>ple</text></lyric></note><note default-y="-35.00" default-x="185.56"><pitch><step>F</step><octave>4</octave></pitch><duration>960</duration><tie type="start"/><voice>1</voice><type>half</type><stem>up</stem><notations><tied type="start"/></notations><lyric number="1"><syllabic>single</syllabic><text>trail</text></lyric></note></measure><measure width="188.96" number="15"><note default-y="-35.00" default-x="15.00"><pitch><step>F</step><octave>4</octave></pitch><duration>480</duration><tie type="stop"/><voice>1</voice><type>quarter</type><stem>up</stem><notations><tied type="stop"/></notations></note><note default-y="-10.00" default-x="58.09"><pitch><step>D</step><octave>5</octave></pitch><duration>480</duration><voice>1</voice><type>quarter</type><stem>down</stem><lyric number="1"><syllabic>single</syllabic><text>when</text></lyric></note><note default-y="-10.00" default-x="101.18"><pitch><step>D</step><octave>5</octave></pitch><duration>480</duration><voice>1</voice><type>quarter</type><stem>down</stem><lyric number="1"><syllabic>single</syllabic><text>I</text></lyric></note><note default-y="-25.00" default-x="144.27"><pitch><step>A</step><octave>4</octave></pitch><duration>480</duration><voice>1</voice><type>quarter</type><stem>up</stem><lyric number="1"><syllabic>single</syllabic><text>got</text></lyric></note></measure><measure width="108.87" number="16"><harmony print-frame="no"><root><root-step>C</root-step></root><kind text="">major</kind></harmony><note default-y="-15.00" default-x="33.50"><pitch><step>C</step><octave>5</octave></pitch><duration>1920</duration><tie type="start"/><voice>1</voice><type>whole</type><notations><tied type="start"/></notations><lyric number="1"><syllabic>single</syllabic><text>home</text></lyric></note></measure><measure width="166.40" number="17"><note default-y="-15.00" default-x="15.00"><pitch><step>C</step><octave>5</octave></pitch><duration>480</duration><tie type="stop"/><voice>1</voice><type>quarter</type><stem>down</stem><notations><tied type="stop"/></notations></note><note default-y="-15.00" default-x="52.45"><pitch><step>C</step><octave>5</octave></pitch><duration>480</duration><voice>1</voice><type>quarter</type><stem>down</stem><lyric number="1"><syllabic>single</syllabic><text>the</text></lyric></note><note default-y="-15.00" default-x="89.90"><pitch><step>C</step><octave>5</octave></pitch><duration>480</duration><voice>1</voice><type>quarter</type><stem>down</stem><lyric number="1"><syllabic>begin</syllabic><text>cel</text></lyric></note><note default-y="-15.00" default-x="127.35"><pitch><step>C</step><octave>5</octave></pitch><duration>480</duration><voice>1</voice><type>quarter</type><stem>down</stem><lyric number="1"><syllabic>middle</syllabic><text>e</text></lyric></note></measure><measure width="128.57" number="18"><harmony print-frame="no"><root><root-step>F</root-step></root><kind text="">major</kind></harmony><note default-y="-25.00" default-x="22.86"><pitch><step>A</step><octave>4</octave></pitch><duration>480</duration><voice>1</voice><type>quarter</type><stem>up</stem><lyric number="1"><syllabic>middle</syllabic><text>bra</text></lyric></note><note default-y="-15.00" default-x="60.71"><pitch><step>C</step><octave>5</octave></pitch><duration>1440</duration><voice>1</voice><type>half</type><dot/><stem>down</stem><lyric number="1"><syllabic>end</syllabic><text>tion</text></lyric></note></measure><measure width="127.13" number="19"><harmony print-frame="no"><root><root-step>F</root-step></root><kind text="m">minor</kind></harmony><note default-y="-25.00" default-x="27.87"><pitch><step>A</step><alter>-1</alter><octave>4</octave></pitch><duration>480</duration><voice>1</voice><type>quarter</type><accidental>flat</accidental><stem>up</stem><lyric number="1"><syllabic>begin</syllabic><text>start</text></lyric></note><note default-y="-15.00" default-x="63.85"><pitch><step>C</step><octave>5</octave></pitch><duration>1440</duration><voice>1</voice><type>half</type><dot/><stem>down</stem><lyric number="1"><syllabic>end</syllabic><text>ed</text></lyric></note></measure><measure width="214.48" number="20"><print new-system="yes"><system-layout><system-margins><left-margin>109.38</left-margin><right-margin>0.00</right-margin></system-margins><system-distance>153.73</system-distance></system-layout></print><harmony print-frame="no"><root><root-step>C</root-step></root><kind text="">major</kind></harmony><note default-y="-30.00" default-x="74.18"><pitch><step>G</step><octave>4</octave></pitch><duration>480</duration><voice>1</voice><type>quarter</type><stem>up</stem><lyric number="1"><syllabic>single</syllabic><text>with</text></lyric></note><note default-y="-25.00" default-x="117.05"><pitch><step>A</step><octave>4</octave></pitch><duration>960</duration><voice>1</voice><type>half</type><stem>up</stem><lyric number="1"><syllabic>single</syllabic><text>fish</text></lyric></note><note default-y="-40.00" default-x="176.02"><pitch><step>E</step><octave>4</octave></pitch><duration>480</duration><voice>1</voice><type>quarter</type><stem>up</stem><lyric number="1"><syllabic>single</syllabic><text>and</text></lyric></note></measure><measure width="167.87" number="21"><harmony print-frame="no"><root><root-step>C</root-step></root><kind text="7">dominant</kind></harmony><note default-y="-30.00" default-x="22.87"><pitch><step>G</step><octave>4</octave></pitch><duration>480</duration><voice>1</voice><type>quarter</type><stem>up</stem><lyric number="1"><syllabic>single</syllabic><text>poi</text></lyric></note><note default-y="-15.00" default-x="58.72"><pitch><step>C</step><octave>5</octave></pitch><duration>480</duration><voice>1</voice><type>quarter</type><stem>down</stem><lyric number="1"><syllabic>single</syllabic><text>the</text></lyric></note><note default-y="-15.00" default-x="94.57"><pitch><step>C</step><octave>5</octave></pitch><duration>480</duration><voice>1</voice><type>quarter</type><stem>down</stem><lyric number="1"><syllabic>begin</syllabic><text>de</text></lyric></note><note default-y="-15.00" default-x="130.42"><pitch><step>C</step><octave>5</octave></pitch><duration>480</duration><voice>1</voice><type>quarter</type><stem>down</stem><lyric number="1"><syllabic>middle</syllabic><text>le</text></lyric></note></measure><measure width="114.37" number="22"><harmony print-frame="no"><root><root-step>F</root-step></root><kind text="">major</kind></harmony><note default-y="-25.00" default-x="19.10"><pitch><step>A</step><octave>4</octave></pitch><duration>480</duration><voice>1</voice><type>quarter</type><stem>up</stem><lyric number="1"><syllabic>middle</syllabic><text>ga</text></lyric></note><note default-y="-15.00" default-x="54.80"><pitch><step>C</step><octave>5</octave></pitch><duration>1440</duration><voice>1</voice><type>half</type><dot/><stem>down</stem><lyric number="1"><syllabic>end</syllabic><text>tion</text></lyric></note></measure><measure width="115.07" number="23"><harmony print-frame="no"><root><root-step>F</root-step></root><kind text="m">minor</kind></harmony><note default-y="-25.00" default-x="25.99"><pitch><step>A</step><alter>-1</alter><octave>4</octave></pitch><duration>480</duration><voice>1</voice><type>quarter</type><accidental>flat</accidental><stem>up</stem><lyric number="1"><syllabic>begin</syllabic><text>part</text></lyric></note><note default-y="-15.00" default-x="60.08"><pitch><step>C</step><octave>5</octave></pitch><duration>1440</duration><voice>1</voice><type>half</type><dot/><stem>down</stem><lyric number="1"><syllabic>end</syllabic><text>ed</text></lyric></note></measure><measure width="168.82" number="24"><harmony print-frame="no"><root><root-step>D</root-step></root><kind text="7">dominant</kind></harmony><note default-y="-5.00" default-x="27.26"><pitch><step>E</step><octave>5</octave></pitch><duration>480</duration><voice>1</voice><type>quarter</type><stem>down</stem><lyric number="1"><syllabic>begin</syllabic><text>sing</text></lyric></note><note default-y="-15.00" default-x="66.38"><pitch><step>C</step><octave>5</octave></pitch><duration>960</duration><voice>1</voice><type>half</type><stem>down</stem><lyric number="1"><syllabic>end</syllabic><text>ing</text></lyric></note><note default-y="-5.00" default-x="128.44"><pitch><step>E</step><octave>5</octave></pitch><duration>480</duration><voice>1</voice><type>quarter</type><stem>down</stem><lyric number="1"><syllabic>single</syllabic><text>with</text></lyric></note></measure><measure width="187.10" number="25"><harmony print-frame="no"><root><root-step>G</root-step></root><kind text="7">dominant</kind></harmony><note default-y="-10.00" default-x="22.87"><pitch><step>D</step><octave>5</octave></pitch><duration>960</duration><voice>1</voice><type>half</type><stem>down</stem><lyric number="1"><syllabic>single</syllabic><text>joy</text></lyric></note><note default-y="-40.00" default-x="79.48"><pitch><step>E</step><octave>4</octave></pitch><duration>480</duration><voice>1</voice><type>quarter</type><stem>up</stem><lyric number="1"><syllabic>single</syllabic><text>I'd</text></lyric></note><note default-y="-35.00" default-x="120.66"><pitch><step>F</step><octave>4</octave></pitch><duration>240</duration><voice>1</voice><type>eighth</type><stem>up</stem><beam number="1">begin</beam><lyric number="1"><syllabic>single</syllabic><text>give</text></lyric></note><note default-y="-35.00" default-x="159.77"><pitch><step>F</step><alter>1</alter><octave>4</octave></pitch><duration>240</duration><voice>1</voice><type>eighth</type><accidental>sharp</accidental><stem>up</stem><beam number="1">end</beam><lyric number="1"><syllabic>single</syllabic><text>the</text></lyric></note></measure><measure width="259.13" number="26"><print new-system="yes"><system-layout><system-margins><left-margin>109.38</left-margin><right-margin>0.00</right-margin></system-margins><system-distance>153.73</system-distance></system-layout></print><harmony print-frame="no"><root><root-step>C</root-step></root><kind text="">major</kind></harmony><note default-y="-30.00" default-x="80.44"><pitch><step>G</step><octave>4</octave></pitch><duration>480</duration><voice>1</voice><type>quarter</type><stem>up</stem><lyric number="1"><syllabic>single</syllabic><text>world</text></lyric></note><note default-y="-25.00" default-x="126.27"><pitch><step>A</step><octave>4</octave></pitch><duration>240</duration><voice>1</voice><type>eighth</type><stem>up</stem><beam number="1">begin</beam><lyric number="1"><syllabic>single</syllabic><text>to</text></lyric></note><note default-y="-40.00" default-x="155.07"><pitch><step>E</step><octave>4</octave></pitch><duration>240</duration><voice>1</voice><type>eighth</type><stem>up</stem><beam number="1">end</beam><lyric number="1"><syllabic>single</syllabic><text>be</text></lyric></note><note default-y="-30.00" default-x="194.51"><pitch><step>G</step><octave>4</octave></pitch><duration>960</duration><tie type="start"/><voice>1</voice><type>half</type><stem>up</stem><notations><tied type="start"/></notations><lyric number="1"><syllabic>single</syllabic><text>back</text></lyric></note></measure><measure width="182.15" number="27"><note default-y="-30.00" default-x="15.00"><pitch><step>G</step><octave>4</octave></pitch><duration>480</duration><tie type="stop"/><voice>1</voice><type>quarter</type><stem>up</stem><notations><tied type="stop"/></notations></note><note default-y="-5.00" default-x="56.39"><pitch><step>E</step><octave>5</octave></pitch><duration>480</duration><voice>1</voice><type>quarter</type><stem>down</stem><lyric number="1"><syllabic>begin</syllabic><text>in</text></lyric></note><harmony print-frame="no"><root><root-step>A</root-step></root><kind text="7">dominant</kind></harmony><note default-y="-5.00" default-x="97.78"><pitch><step>E</step><octave>5</octave></pitch><duration>480</duration><voice>1</voice><type>quarter</type><stem>down</stem><lyric number="1"><syllabic>end</syllabic><text>stead</text></lyric></note><note default-y="-5.00" default-x="139.16"><pitch><step>E</step><alter>-1</alter><octave>5</octave></pitch><duration>480</duration><voice>1</voice><type>quarter</type><accidental>flat</accidental><stem>down</stem><lyric number="1"><syllabic>single</syllabic><text>of</text></lyric></note></measure><measure width="147.70" number="28"><harmony print-frame="no"><root><root-step>D</root-step></root><kind text="7">dominant</kind></harmony><note default-y="-10.00" default-x="36.62"><pitch><step>D</step><octave>5</octave></pitch><duration>960</duration><voice>1</voice><type>half</type><stem>down</stem><lyric number="1"><syllabic>begin</syllabic><text>dream</text></lyric></note><note default-y="-25.00" default-x="91.36"><pitch><step>A</step><octave>4</octave></pitch><duration>960</duration><tie type="start"/><voice>1</voice><type>half</type><stem>up</stem><notations><tied type="start"/></notations><lyric number="1"><syllabic>end</syllabic><text>ing</text></lyric></note></measure><measure width="178.78" number="29"><note default-y="-25.00" default-x="15.00"><pitch><step>A</step><octave>4</octave></pitch><duration>960</duration><tie type="stop"/><voice>1</voice><type>half</type><stem>up</stem><notations><tied type="stop"/></notations></note><note default-y="-50.00" default-x="71.12"><pitch><step>C</step><octave>4</octave></pitch><duration>480</duration><voice>1</voice><type>quarter</type><stem>up</stem><lyric number="1"><syllabic>begin</syllabic><text>a</text></lyric></note><note default-y="-45.00" default-x="111.93"><pitch><step>D</step><octave>4</octave></pitch><duration>240</duration><voice>1</voice><type>eighth</type><stem>up</stem><beam number="1">begin</beam><lyric number="1"><syllabic>end</syllabic><text>long</text></lyric></note><note default-y="-40.00" default-x="151.67"><pitch><step>E</step><octave>4</octave></pitch><duration>240</duration><voice>1</voice><type>eighth</type><stem>up</stem><beam number="1">end</beam><lyric number="1"><syllabic>single</syllabic><text>the</text></lyric></note></measure><measure width="199.96" number="30"><harmony print-frame="no"><root><root-step>G</root-step></root><kind text="7">dominant</kind></harmony><note default-y="-35.00" default-x="27.87"><pitch><step>F</step><octave>4</octave></pitch><duration>240</duration><voice>1</voice><type>eighth</type><stem>up</stem><beam number="1">begin</beam><lyric number="1"><syllabic>begin</syllabic><text>pine</text></lyric></note><note default-y="-30.00" default-x="63.85"><pitch><step>G</step><octave>4</octave></pitch><duration>240</duration><voice>1</voice><type>eighth</type><stem>up</stem><beam number="1">end</beam><lyric number="1"><syllabic>middle</syllabic><text>ap</text></lyric></note><note default-y="-40.00" default-x="95.78"><pitch><step>E</step><octave>4</octave></pitch><duration>480</duration><voice>1</voice><type>quarter</type><stem>up</stem><lyric number="1"><syllabic>end</syllabic><text>ple</text></lyric></note><note default-y="-35.00" default-x="138.97"><pitch><step>F</step><octave>4</octave></pitch><duration>960</duration><tie type="start"/><voice>1</voice><type>half</type><stem>up</stem><notations><tied type="start"/></notations><lyric number="1"><syllabic>single</syllabic><text>trail</text></lyric></note></measure><measure width="294.89" number="31"><print new-system="yes"><system-layout><system-margins><left-margin>109.38</left-margin><right-margin>0.00</right-margin></system-margins><system-distance>153.73</system-distance></system-layout></print><note default-y="-35.00" default-x="53.18"><pitch><step>F</step><octave>4</octave></pitch><duration>480</duration><tie type="stop"/><voice>1</voice><type>quarter</type><stem>up</stem><notations><tied type="stop"/></notations></note><note default-y="-10.00" default-x="113.21"><pitch><step>D</step><octave>5</octave></pitch><duration>480</duration><voice>1</voice><type>quarter</type><stem>down</stem><lyric number="1"><syllabic>single</syllabic><text>my</text></lyric></note><note default-y="-10.00" default-x="173.23"><pitch><step>D</step><octave>5</octave></pitch><duration>480</duration><voice>1</voice><type>quarter</type><stem>down</stem><lyric number="1"><syllabic>single</syllabic><text>home</text></lyric></note><note default-y="-25.00" default-x="233.26"><pitch><step>A</step><octave>4</octave></pitch><duration>480</duration><voice>1</voice><type>quarter</type><stem>up</stem><lyric number="1"><syllabic>single</syllabic><text>sweet</text></lyric></note></measure><measure width="145.66" number="32"><barline location="left"><ending type="start" number="1"/></barline><harmony print-frame="no"><root><root-step>C</root-step></root><kind text="">major</kind></harmony><note default-y="-15.00" default-x="36.32"><pitch><step>C</step><octave>5</octave></pitch><duration>1920</duration><tie type="start"/><voice>1</voice><type>whole</type><notations><tied type="start"/></notations><lyric number="1"><syllabic>single</syllabic><text>home.</text></lyric></note><barline location="right"><ending type="stop" number="1"/></barline></measure><measure width="251.39" number="33"><note default-y="-15.00" default-x="15.00"><pitch><step>C</step><octave>5</octave></pitch><duration>960</duration><tie type="stop"/><voice>1</voice><type>half</type><stem>down</stem><notations><tied type="stop"/></notations></note><direction><direction-type><words default-y="100">N.C.</words></direction-type></direction><note default-y="-40.00" default-x="93.14"><pitch><step>E</step><octave>4</octave></pitch><duration>480</duration><voice>1</voice><type>quarter</type><stem>up</stem><lyric number="1"><syllabic>single</syllabic><text>in</text></lyric></note><note default-y="-35.00" default-x="149.96"><pitch><step>F</step><octave>4</octave></pitch><duration>240</duration><voice>1</voice><type>eighth</type><stem>up</stem><beam number="1">begin</beam><lyric number="1"><syllabic>single</syllabic><text>dreams</text></lyric></note><note default-y="-35.00" default-x="200.72"><pitch><step>F</step><alter>1</alter><octave>4</octave></pitch><duration>240</duration><voice>1</voice><type>eighth</type><accidental>sharp</accidental><stem>up</stem><beam number="1">end</beam><lyric number="1"><syllabic>single</syllabic><text>I</text></lyric></note><barline location="right"><bar-style>light-heavy</bar-style><repeat direction="backward"/></barline></measure><measure width="159.14" number="34"><barline location="left"><ending type="start" number="2"/></barline><harmony print-frame="no"><root><root-step>C</root-step></root><kind text="">major</kind></harmony><note default-y="-15.00" default-x="33.50"><pitch><step>C</step><octave>5</octave></pitch><duration>960</duration><voice>1</voice><type>half</type><stem>down</stem><lyric number="1"><syllabic>single</syllabic><text>home</text></lyric></note><note><rest/><duration>960</duration><voice>1</voice><type>half</type></note><barline location="right"><ending type="stop" number="2"/></barline></measure><measure width="116.64" number="35"><note><rest/><duration>1920</duration><voice>1</voice></note><barline location="right"><bar-style>light-heavy</bar-style></barline></measure></part></score-partwise>