<score-partwise version="2.0"><work><work-number/><work-title/></work><movement-number/><movement-title>After You've Gone</movement-title><identification><creator type="composer">Turner Layton</creator><creator type="poet">Henry Creamer</creator><rights>All Rights Reserved</rights><encoding><software>MuseScore 0.9.3</software><encoding-date>2008-08-13</encoding-date><software>ProxyMusic 2.0 c</software></encoding><source>http://wikifonia.org/node/674/revisions/892/view</source></identification><part-list><score-part id="P1"><part-name/><score-instrument id="P1-I3"><instrument-name/></score-instrument><midi-instrument id="P1-I3"><midi-channel>1</midi-channel><midi-program>1</midi-program></midi-instrument></score-part></part-list><part id="P1"><measure number="1"><barline location="left"><bar-style>heavy-light</bar-style><repeat direction="forward"/></barline><attributes><divisions>480</divisions><key><fifths>-2</fifths><mode>major</mode></key><time><beats>4</beats><beat-type>4</beat-type></time><clef><sign>G</sign><line>2</line></clef></attributes><harmony print-frame="no"><root><root-step>E</root-step><root-alter>-1</root-alter></root><kind text="Maj7">major-seventh</kind></harmony><direction placement="above"><direction-type><words>Medium slow</words></direction-type></direction><note><pitch><step>G</step><octave>4</octave></pitch><duration>240</duration><voice>1</voice><type>eighth</type><stem>down</stem><beam number="1">begin</beam><lyric number="1"><syllabic>single</syllabic><text>Af-</text></lyric></note><note><pitch><step>B</step><alter>-1</alter><octave>4</octave></pitch><duration>240</duration><voice>1</voice><type>eighth</type><stem>down</stem><beam number="1">continue</beam><lyric number="1"><syllabic>single</syllabic><text>ter</text></lyric></note><note><pitch><step>C</step><octave>5</octave></pitch><duration>240</duration><voice>1</voice><type>eighth</type><stem>down</stem><beam number="1">continue</beam><lyric number="1"><syllabic>single</syllabic><text>you've</text></lyric></note><note><pitch><step>D</step><octave>5</octave></pitch><duration>240</duration><tie type="start"/><voice>1</voice><type>eighth</type><stem>down</stem><beam number="1">end</beam><notations><tied type="start"/></notations><lyric number="1"><syllabic>single</syllabic><text>gone</text></lyric></note><note><pitch><step>D</step><octave>5</octave></pitch><duration>960</duration><tie type="stop"/><voice>1</voice><type>half</type><stem>down</stem><notations><tied type="stop"/></notations></note></measure><measure number="2"><harmony print-frame="no"><root><root-step>E</root-step><root-alter>-1</root-alter></root><kind text="m6">minor-sixth</kind></harmony><note><rest/><duration>240</duration><voice>1</voice><type>eighth</type></note><note><pitch><step>C</step><octave>5</octave></pitch><duration>240</duration><voice>1</voice><type>eighth</type><stem>down</stem><beam number="1">begin</beam><lyric number="1"><syllabic>single</syllabic><text>and</text></lyric></note><note><pitch><step>D</step><octave>5</octave></pitch><duration>240</duration><voice>1</voice><type>eighth</type><stem>down</stem><beam number="1">continue</beam><lyric number="1"><syllabic>single</syllabic><text>left</text></lyric></note><note><pitch><step>C</step><octave>5</octave></pitch><duration>240</duration><voice>1</voice><type>eighth</type><stem>down</stem><beam number="1">end</beam><lyric number="1"><syllabic>single</syllabic><text>me</text></lyric></note><note><pitch><step>D</step><octave>5</octave></pitch><duration>240</duration><voice>1</voice><type>eighth</type><stem>down</stem><lyric number="1"><syllabic>single</syllabic><text>cry-</text></lyric></note><note><pitch><step>C</step><octave>5</octave></pitch><duration>720</duration><voice>1</voice><type>quarter</type><dot/><stem>down</stem><lyric number="1"><syllabic>single</syllabic><text>ing,</text></lyric></note></measure><measure number="3"><harmony print-frame="no"><root><root-step>B</root-step><root-alter>-1</root-alter></root><kind text="Maj7">major-seventh</kind></harmony><note><pitch><step>D</step><octave>4</octave></pitch><duration>240</duration><voice>1</voice><type>eighth</type><stem>up</stem><beam number="1">begin</beam><lyric number="1"><syllabic>single</syllabic><text>Af-</text></lyric></note><note><pitch><step>F</step><octave>4</octave></pitch><duration>240</duration><voice>1</voice><type>eighth</type><stem>up</stem><beam number="1">continue</beam><lyric number="1"><syllabic>single</syllabic><text>ter</text></lyric></note><note><pitch><step>G</step><octave>4</octave></pitch><duration>240</duration><voice>1</voice><type>eighth</type><stem>up</stem><beam number="1">continue</beam><lyric number="1"><syllabic>single</syllabic><text>you've</text></lyric></note><note><pitch><step>A</step><octave>4</octave></pitch><duration>240</duration><tie type="start"/><voice>1</voice><type>eighth</type><stem>up</stem><beam number="1">end</beam><notations><tied type="start"/></notations><lyric number="1"><syllabic>single</syllabic><text>gone</text></lyric></note><note><pitch><step>A</step><octave>4</octave></pitch><duration>960</duration><tie type="stop"/><voice>1</voice><type>half</type><stem>up</stem><notations><tied type="stop"/></notations></note></measure><measure number="4"><print new-system="yes"/><harmony print-frame="no"><root><root-step>G</root-step></root><kind text="9">dominant-ninth</kind></harmony><note><rest/><duration>240</duration><voice>1</voice><type>eighth</type></note><note><pitch><step>G</step><octave>4</octave></pitch><duration>240</duration><voice>1</voice><type>eighth</type><stem>up</stem><beam number="1">begin</beam><lyric number="1"><syllabic>single</syllabic><text>there's</text></lyric></note><note><pitch><step>A</step><octave>4</octave></pitch><duration>240</duration><voice>1</voice><type>eighth</type><stem>up</stem><beam number="1">continue</beam><lyric number="1"><syllabic>single</syllabic><text>no</text></lyric></note><note><pitch><step>G</step><octave>4</octave></pitch><duration>240</duration><voice>1</voice><type>eighth</type><stem>up</stem><beam number="1">end</beam><lyric number="1"><syllabic>single</syllabic><text>de-</text></lyric></note><note><pitch><step>A</step><octave>4</octave></pitch><duration>240</duration><voice>1</voice><type>eighth</type><stem>up</stem><lyric number="1"><syllabic>single</syllabic><text>ny-</text></lyric></note><note><pitch><step>G</step><octave>4</octave></pitch><duration>720</duration><voice>1</voice><type>quarter</type><dot/><stem>up</stem><lyric number="1"><syllabic>single</syllabic><text>ing,</text></lyric></note></measure><measure number="5"><harmony print-frame="no"><root><root-step>C</root-step></root><kind text="9">dominant-ninth</kind></harmony><note><pitch><step>G</step><octave>4</octave></pitch><duration>240</duration><voice>1</voice><type>eighth</type><stem>up</stem><lyric number="1"><syllabic>single</syllabic><text>You'll</text></lyric></note><note><pitch><step>D</step><octave>5</octave></pitch><duration>480</duration><voice>1</voice><type>quarter</type><stem>down</stem><lyric number="1"><syllabic>single</syllabic><text>feel</text></lyric></note><note><pitch><step>D</step><octave>5</octave></pitch><duration>240</duration><tie type="start"/><voice>1</voice><type>eighth</type><stem>down</stem><notations><tied type="start"/></notations><lyric number="1"><syllabic>single</syllabic><text>blue,</text></lyric></note><note><pitch><step>D</step><octave>5</octave></pitch><duration>960</duration><tie type="stop"/><voice>1</voice><type>half</type><stem>down</stem><notations><tied type="stop"/></notations></note></measure><measure number="6"><harmony print-frame="no"><root><root-step>F</root-step></root><kind text="9">dominant-ninth</kind></harmony><note><pitch><step>G</step><octave>4</octave></pitch><duration>240</duration><voice>1</voice><type>eighth</type><stem>up</stem><lyric number="1"><syllabic>single</syllabic><text>you'll</text></lyric></note><note><pitch><step>C</step><octave>5</octave></pitch><duration>480</duration><voice>1</voice><type>quarter</type><stem>down</stem><lyric number="1"><syllabic>single</syllabic><text>feel</text></lyric></note><note><pitch><step>C</step><octave>5</octave></pitch><duration>240</duration><tie type="start"/><voice>1</voice><type>eighth</type><stem>down</stem><notations><tied type="start"/></notations><lyric number="1"><syllabic>single</syllabic><text>sad,</text></lyric></note><note><pitch><step>C</step><octave>5</octave></pitch><duration>960</duration><tie type="stop"/><voice>1</voice><type>half</type><stem>down</stem><notations><tied type="stop"/></notations></note></measure><measure number="7"><print new-system="yes"/><harmony print-frame="no"><root><root-step>B</root-step><root-alter>-1</root-alter></root><kind text="">major</kind></harmony><note><rest/><duration>240</duration><voice>1</voice><type>eighth</type></note><note><pitch><step>F</step><octave>4</octave></pitch><duration>240</duration><voice>1</voice><type>eighth</type><stem>up</stem><beam number="1">begin</beam><lyric number="1"><syllabic>single</syllabic><text>You'll</text></lyric></note><note><pitch><step>G</step><octave>4</octave></pitch><duration>240</duration><voice>1</voice><type>eighth</type><stem>up</stem><beam number="1">continue</beam><lyric number="1"><syllabic>single</syllabic><text>miss</text></lyric></note><note><pitch><step>F</step><octave>4</octave></pitch><duration>240</duration><voice>1</voice><type>eighth</type><stem>up</stem><beam number="1">end</beam><lyric number="1"><syllabic>single</syllabic><text>the</text></lyric></note><note><pitch><step>A</step><octave>4</octave></pitch><duration>240</duration><voice>1</voice><type>eighth</type><stem>up</stem><beam number="1">begin</beam><lyric number="1"><syllabic>single</syllabic><text>best</text></lyric></note><note><pitch><step>F</step><octave>4</octave></pitch><duration>240</duration><voice>1</voice><type>eighth</type><stem>up</stem><beam number="1">continue</beam><lyric number="1"><syllabic>single</syllabic><text>est</text></lyric></note><note><pitch><step>G</step><octave>4</octave></pitch><duration>240</duration><voice>1</voice><type>eighth</type><stem>up</stem><beam number="1">continue</beam><lyric number="1"><syllabic>single</syllabic><text>gal</text></lyric></note><note><pitch><step>F</step><octave>4</octave></pitch><duration>240</duration><voice>1</voice><type>eighth</type><stem>up</stem><beam number="1">end</beam><lyric number="1"><syllabic>single</syllabic><text>you've</text></lyric></note></measure><measure number="8"><note><pitch><step>B</step><alter>-1</alter><octave>4</octave></pitch><duration>240</duration><voice>1</voice><type>eighth</type><stem>down</stem><lyric number="1"><syllabic>single</syllabic><text>ev-</text></lyric></note><note><pitch><step>D</step><octave>4</octave></pitch><duration>480</duration><voice>1</voice><type>quarter</type><stem>up</stem><lyric number="1"><syllabic>single</syllabic><text>er</text></lyric></note><note><pitch><step>F</step><octave>4</octave></pitch><duration>240</duration><tie type="start"/><voice>1</voice><type>eighth</type><stem>up</stem><notations><tied type="start"/></notations><lyric number="1"><syllabic>single</syllabic><text>had.</text></lyric></note><harmony print-frame="no"><root><root-step>B</root-step><root-alter>-1</root-alter></root><kind text="7">dominant</kind></harmony><note><pitch><step>F</step><octave>4</octave></pitch><duration>960</duration><tie type="stop"/><voice>1</voice><type>half</type><stem>up</stem><notations><tied type="stop"/></notations></note></measure><measure number="9"><harmony print-frame="no"><root><root-step>E</root-step><root-alter>-1</root-alter></root><kind text="Maj7">major-seventh</kind></harmony><note><pitch><step>G</step><octave>4</octave></pitch><duration>240</duration><voice>1</voice><type>eighth</type><stem>down</stem><beam number="1">begin</beam><lyric number="1"><syllabic>single</syllabic><text>There'll</text></lyric></note><note><pitch><step>B</step><alter>-1</alter><octave>4</octave></pitch><duration>240</duration><voice>1</voice><type>eighth</type><stem>down</stem><beam number="1">continue</beam><lyric number="1"><syllabic>single</syllabic><text>come</text></lyric></note><note><pitch><step>C</step><octave>5</octave></pitch><duration>240</duration><voice>1</voice><type>eighth</type><stem>down</stem><beam number="1">continue</beam><lyric number="1"><syllabic>single</syllabic><text>a</text></lyric></note><note><pitch><step>D</step><octave>5</octave></pitch><duration>240</duration><tie type="start"/><voice>1</voice><type>eighth</type><stem>down</stem><beam number="1">end</beam><notations><tied type="start"/></notations><lyric number="1"><syllabic>single</syllabic><text>time,</text></lyric></note><note><pitch><step>D</step><octave>5</octave></pitch><duration>960</duration><tie type="stop"/><voice>1</voice><type>half</type><stem>down</stem><notations><tied type="stop"/></notations></note></measure><measure number="10"><print new-system="yes"/><harmony print-frame="no"><root><root-step>E</root-step><root-alter>-1</root-alter></root><kind text="m6">minor-sixth</kind></harmony><note><rest/><duration>240</duration><voice>1</voice><type>eighth</type></note><note><pitch><step>C</step><octave>5</octave></pitch><duration>240</duration><voice>1</voice><type>eighth</type><stem>down</stem><beam number="1">begin</beam><lyric number="1"><syllabic>single</syllabic><text>now</text></lyric></note><note><pitch><step>D</step><octave>5</octave></pitch><duration>240</duration><voice>1</voice><type>eighth</type><stem>down</stem><beam number="1">continue</beam><lyric number="1"><syllabic>single</syllabic><text>don't</text></lyric></note><note><pitch><step>C</step><octave>5</octave></pitch><duration>240</duration><voice>1</voice><type>eighth</type><stem>down</stem><beam number="1">end</beam><lyric number="1"><syllabic>single</syllabic><text>for-</text></lyric></note><note><pitch><step>D</step><octave>5</octave></pitch><duration>240</duration><voice>1</voice><type>eighth</type><stem>down</stem><lyric number="1"><syllabic>single</syllabic><text>get</text></lyric></note><note><pitch><step>C</step><octave>5</octave></pitch><duration>720</duration><voice>1</voice><type>quarter</type><dot/><stem>down</stem><lyric number="1"><syllabic>single</syllabic><text>it,</text></lyric></note></measure><measure number="11"><harmony print-frame="no"><root><root-step>B</root-step><root-alter>-1</root-alter></root><kind text="Maj7">major-seventh</kind></harmony><note><pitch><step>D</step><octave>4</octave></pitch><duration>240</duration><voice>1</voice><type>eighth</type><stem>up</stem><beam number="1">begin</beam><lyric number="1"><syllabic>single</syllabic><text>There'll</text></lyric></note><note><pitch><step>F</step><octave>4</octave></pitch><duration>240</duration><voice>1</voice><type>eighth</type><stem>up</stem><beam number="1">continue</beam><lyric number="1"><syllabic>single</syllabic><text>come</text></lyric></note><note><pitch><step>G</step><octave>4</octave></pitch><duration>240</duration><voice>1</voice><type>eighth</type><stem>up</stem><beam number="1">continue</beam><lyric number="1"><syllabic>single</syllabic><text>a</text></lyric></note><note><pitch><step>A</step><octave>4</octave></pitch><duration>240</duration><tie type="start"/><voice>1</voice><type>eighth</type><stem>up</stem><beam number="1">end</beam><notations><tied type="start"/></notations><lyric number="1"><syllabic>single</syllabic><text>time</text></lyric></note><note><pitch><step>A</step><octave>4</octave></pitch><duration>960</duration><tie type="stop"/><voice>1</voice><type>half</type><stem>up</stem><notations><tied type="stop"/></notations></note></measure><measure number="12"><harmony print-frame="no"><root><root-step>G</root-step></root><kind text="7">dominant</kind></harmony><note><rest/><duration>240</duration><voice>1</voice><type>eighth</type></note><note><pitch><step>G</step><octave>4</octave></pitch><duration>240</duration><voice>1</voice><type>eighth</type><stem>up</stem><beam number="1">begin</beam><lyric number="1"><syllabic>single</syllabic><text>when</text></lyric></note><note><pitch><step>A</step><octave>4</octave></pitch><duration>240</duration><voice>1</voice><type>eighth</type><stem>up</stem><beam number="1">continue</beam><lyric number="1"><syllabic>single</syllabic><text>you'll</text></lyric></note><note><pitch><step>G</step><octave>4</octave></pitch><duration>240</duration><voice>1</voice><type>eighth</type><stem>up</stem><beam number="1">end</beam><lyric number="1"><syllabic>single</syllabic><text>re-</text></lyric></note><note><pitch><step>A</step><octave>4</octave></pitch><duration>240</duration><voice>1</voice><type>eighth</type><stem>up</stem><lyric number="1"><syllabic>single</syllabic><text>gret</text></lyric></note><note><pitch><step>G</step><octave>4</octave></pitch><duration>720</duration><voice>1</voice><type>quarter</type><dot/><stem>up</stem><lyric number="1"><syllabic>single</syllabic><text>it.</text></lyric></note></measure><measure number="13"><print new-system="yes"/><harmony print-frame="no"><root><root-step>C</root-step></root><kind text="m">minor</kind></harmony><note><pitch><step>E</step><alter>-1</alter><octave>5</octave></pitch><duration>960</duration><voice>1</voice><type>half</type><stem>up</stem><lyric number="1"><syllabic>single</syllabic><text>Oh!</text></lyric></note><harmony print-frame="no"><root><root-step>G</root-step></root><kind text="7">dominant</kind></harmony><note><pitch><step>D</step><octave>5</octave></pitch><duration>960</duration><voice>1</voice><type>half</type><stem>down</stem><lyric number="1"><syllabic>single</syllabic><text>Babe,</text></lyric></note></measure><measure number="14"><harmony print-frame="no"><root><root-step>C</root-step></root><kind text="m">minor</kind></harmony><note><pitch><step>C</step><octave>5</octave></pitch><duration>240</duration><voice>1</voice><type>eighth</type><stem>up</stem><beam number="1">begin</beam><lyric number="1"><syllabic>single</syllabic><text>think</text></lyric></note><note><pitch><step>F</step><alter>1</alter><octave>4</octave></pitch><duration>240</duration><voice>1</voice><type>eighth</type><accidental>sharp</accidental><stem>up</stem><beam number="1">continue</beam><lyric number="1"><syllabic>single</syllabic><text>what</text></lyric></note><note><pitch><step>G</step><octave>4</octave></pitch><duration>240</duration><voice>1</voice><type>eighth</type><stem>up</stem><beam number="1">continue</beam><lyric number="1"><syllabic>single</syllabic><text>you're</text></lyric></note><note><pitch><step>D</step><octave>5</octave></pitch><duration>240</duration><tie type="start"/><voice>1</voice><type>eighth</type><stem>up</stem><beam number="1">end</beam><notations><tied type="start"/></notations><lyric number="1"><syllabic>single</syllabic><text>do-</text></lyric></note><harmony print-frame="no"><root><root-step>E</root-step><root-alter>-1</root-alter></root><kind text="m6">minor-sixth</kind></harmony><note><pitch><step>D</step><octave>5</octave></pitch><duration>240</duration><tie type="stop"/><voice>1</voice><type>eighth</type><stem>down</stem><notations><tied type="stop"/></notations></note><note><pitch><step>C</step><octave>5</octave></pitch><duration>720</duration><voice>1</voice><type>quarter</type><dot/><stem>down</stem><lyric number="1"><syllabic>single</syllabic><text>ing,</text></lyric></note></measure><measure number="15"><harmony print-frame="no"><root><root-step>B</root-step><root-alter>-1</root-alter></root><kind text="">major</kind></harmony><note><rest/><duration>240</duration><voice>1</voice><type>eighth</type></note><note><pitch><step>C</step><alter>1</alter><octave>5</octave></pitch><duration>240</duration><voice>1</voice><type>eighth</type><accidental>sharp</accidental><stem>down</stem><beam number="1">begin</beam><lyric number="1"><syllabic>single</syllabic><text>You</text></lyric></note><note><pitch><step>D</step><octave>5</octave></pitch><duration>240</duration><voice>1</voice><type>eighth</type><stem>down</stem><beam number="1">continue</beam><lyric number="1"><syllabic>single</syllabic><text>know</text></lyric></note><note><pitch><step>B</step><alter>-1</alter><octave>4</octave></pitch><duration>240</duration><voice>1</voice><type>eighth</type><stem>down</stem><beam number="1">end</beam><lyric number="1"><syllabic>single</syllabic><text>my</text></lyric></note><harmony print-frame="no"><root><root-step>D</root-step></root><kind text="7">dominant</kind></harmony><note><pitch><step>C</step><octave>5</octave></pitch><duration>240</duration><voice>1</voice><type>eighth</type><accidental>natural</accidental><stem>down</stem><beam number="1">begin</beam><lyric number="1"><syllabic>single</syllabic><text>love</text></lyric></note><note><pitch><step>B</step><octave>4</octave></pitch><duration>240</duration><voice>1</voice><type>eighth</type><accidental>natural</accidental><stem>down</stem><beam number="1">continue</beam><lyric number="1"><syllabic>single</syllabic><text>for</text></lyric></note><note><pitch><step>C</step><octave>5</octave></pitch><duration>240</duration><voice>1</voice><type>eighth</type><stem>down</stem><beam number="1">continue</beam><lyric number="1"><syllabic>single</syllabic><text>you</text></lyric></note><note><pitch><step>A</step><octave>4</octave></pitch><duration>240</duration><voice>1</voice><type>eighth</type><stem>down</stem><beam number="1">end</beam><lyric number="1"><syllabic>single</syllabic><text>will</text></lyric></note></measure><measure number="16"><print new-system="yes"/><harmony print-frame="no"><root><root-step>G</root-step></root><kind text="m7">minor-seventh</kind></harmony><note><pitch><step>B</step><alter>-1</alter><octave>4</octave></pitch><duration>240</duration><voice>1</voice><type>eighth</type><stem>up</stem><beam number="1">begin</beam><lyric number="1"><syllabic>single</syllabic><text>drive</text></lyric></note><note><pitch><step>C</step><alter>1</alter><octave>4</octave></pitch><duration>240</duration><voice>1</voice><type>eighth</type><accidental>sharp</accidental><stem>up</stem><beam number="1">continue</beam><lyric number="1"><syllabic>single</syllabic><text>me</text></lyric></note><note><pitch><step>D</step><octave>4</octave></pitch><duration>240</duration><voice>1</voice><type>eighth</type><stem>up</stem><beam number="1">continue</beam><lyric number="1"><syllabic>single</syllabic><text>to</text></lyric></note><note><pitch><step>A</step><octave>4</octave></pitch><duration>240</duration><tie type="start"/><voice>1</voice><type>eighth</type><stem>up</stem><beam number="1">end</beam><notations><tied type="start"/></notations><lyric number="1"><syllabic>single</syllabic><text>ru-</text></lyric></note><harmony print-frame="no"><root><root-step>A</root-step></root><kind text="7">dominant</kind></harmony><note><pitch><step>A</step><octave>4</octave></pitch><duration>240</duration><tie type="stop"/><voice>1</voice><type>eighth</type><stem>up</stem><notations><tied type="stop"/></notations></note><note><pitch><step>G</step><octave>4</octave></pitch><duration>720</duration><voice>1</voice><type>quarter</type><dot/><stem>up</stem><lyric number="1"><syllabic>single</syllabic><text>in;</text></lyric></note></measure><measure number="17"><harmony print-frame="no"><root><root-step>B</root-step><root-alter>-1</root-alter></root><kind text="">major</kind></harmony><note><pitch><step>F</step><alter>1</alter><octave>4</octave></pitch><duration>240</duration><voice>1</voice><type>eighth</type><accidental>sharp</accidental><stem>up</stem><beam number="1">begin</beam><lyric number="1"><syllabic>single</syllabic><text>Af-</text></lyric></note><note><pitch><step>G</step><octave>4</octave></pitch><duration>240</duration><voice>1</voice><type>eighth</type><stem>up</stem><beam number="1">continue</beam><lyric number="1"><syllabic>single</syllabic><text>ter</text></lyric></note><note><pitch><step>B</step><alter>-1</alter><octave>4</octave></pitch><duration>240</duration><voice>1</voice><type>eighth</type><stem>up</stem><beam number="1">continue</beam><lyric number="1"><syllabic>single</syllabic><text>you've</text></lyric></note><note><pitch><step>D</step><octave>5</octave></pitch><duration>240</duration><tie type="start"/><voice>1</voice><type>eighth</type><stem>up</stem><beam number="1">end</beam><notations><tied type="start"/></notations><lyric number="1"><syllabic>single</syllabic><text>gone,</text></lyric></note><note><pitch><step>D</step><octave>5</octave></pitch><duration>960</duration><tie type="stop"/><voice>1</voice><type>half</type><stem>down</stem><notations><tied type="stop"/></notations></note></measure><measure number="18"><harmony print-frame="no"><root><root-step>F</root-step></root><kind text="7">dominant</kind></harmony><note><rest/><duration>240</duration><voice>1</voice><type>eighth</type></note><note><pitch><step>E</step><alter>-1</alter><octave>4</octave></pitch><duration>240</duration><voice>1</voice><type>eighth</type><stem>up</stem><beam number="1">begin</beam><lyric number="1"><syllabic>single</syllabic><text>af-</text></lyric></note><note><pitch><step>F</step><alter>1</alter><octave>4</octave></pitch><duration>240</duration><voice>1</voice><type>eighth</type><accidental>sharp</accidental><stem>up</stem><beam number="1">continue</beam><lyric number="1"><syllabic>single</syllabic><text>ter</text></lyric></note><note><pitch><step>A</step><octave>4</octave></pitch><duration>240</duration><voice>1</voice><type>eighth</type><stem>up</stem><beam number="1">end</beam><lyric number="1"><syllabic>single</syllabic><text>you've</text></lyric></note><note><pitch><step>C</step><octave>5</octave></pitch><duration>480</duration><voice>1</voice><type>quarter</type><stem>down</stem><lyric number="1"><syllabic>single</syllabic><text>gone</text></lyric></note><note><pitch><step>C</step><octave>5</octave></pitch><duration>480</duration><voice>1</voice><type>quarter</type><stem>down</stem><lyric number="1"><syllabic>single</syllabic><text>a-</text></lyric></note></measure><measure number="19"><print new-system="yes"/><harmony print-frame="no"><root><root-step>B</root-step><root-alter>-1</root-alter></root><kind text="">major</kind></harmony><note><pitch><step>D</step><octave>5</octave></pitch><duration>240</duration><voice>1</voice><type>eighth</type><stem>down</stem><beam number="1">begin</beam><notations><slur type="start" number="1"/></notations><lyric number="1"><syllabic>single</syllabic><text>way.</text></lyric></note><note><pitch><step>B</step><alter>-1</alter><octave>4</octave></pitch><duration>240</duration><tie type="start"/><voice>1</voice><type>eighth</type><stem>down</stem><beam number="1">end</beam><notations><tied type="start"/></notations></note><note><pitch><step>B</step><alter>-1</alter><octave>4</octave></pitch><duration>960</duration><tie type="stop"/><tie type="start"/><voice>1</voice><type>half</type><stem>down</stem><notations><tied type="stop"/><tied type="start"/></notations></note><harmony print-frame="no"><root><root-step>E</root-step><root-alter>-1</root-alter></root><kind text="">major</kind></harmony><note><pitch><step>B</step><alter>-1</alter><octave>4</octave></pitch><duration>480</duration><tie type="stop"/><tie type="start"/><voice>1</voice><type>quarter</type><stem>up</stem><notations><tied type="stop"/><tied type="start"/></notations></note></measure><measure number="20"><barline location="left"><ending type="start" number="1"/></barline><harmony print-frame="no"><root><root-step>B</root-step><root-alter>-1</root-alter></root><kind text="">major</kind></harmony><note><pitch><step>B</step><alter>-1</alter><octave>4</octave></pitch><duration>240</duration><tie type="stop"/><voice>1</voice><type>eighth</type><stem>down</stem><notations><tied type="stop"/><slur type="stop" number="1"/></notations></note><note><rest/><duration>240</duration><voice>1</voice><type>eighth</type></note><note><rest/><duration>480</duration><voice>1</voice><type>quarter</type></note><harmony print-frame="no"><root><root-step>F</root-step></root><kind text="7">dominant</kind></harmony><note><rest/><duration>480</duration><voice>1</voice><type>quarter</type></note><harmony print-frame="no"><root><root-step>B</root-step><root-alter>-1</root-alter></root><kind text="7">dominant</kind></harmony><note><rest/><duration>480</duration><voice>1</voice><type>quarter</type></note><barline location="right"><bar-style>light-heavy</bar-style><ending type="stop" number="1"/><repeat direction="backward"/></barline></measure><measure number="21"><barline location="left"><ending type="start" number="2"/></barline><harmony print-frame="no"><root><root-step>B</root-step><root-alter>-1</root-alter></root><kind text="">major</kind></harmony><note><pitch><step>B</step><alter>-1</alter><octave>4</octave></pitch><duration>1440</duration><voice>1</voice><type>half</type><dot/><stem>down</stem></note><note><rest/><duration>480</duration><voice>1</voice><type>quarter</type></note><barline location="right"><ending type="stop" number="2"/></barline></measure></part></score-partwise>