<score-partwise version="2.0"><work><work-number/><work-title/></work><movement-number/><movement-title>What A Wonderful World</movement-title><identification><creator type="composer">Bob Thiele, George David Weiss</creator><creator type="poet">Bob Thiele, George David Weiss</creator><rights>All Rights Reserved</rights><encoding><software>Sibelius 5.2</software><software>Dolet 4 for Sibelius, Beta 2</software><supports type="no" element="accidental"/><supports type="no" element="transpose"/><software>ProxyMusic 2.0 c</software></encoding><source>http://wikifonia.org/node/689/revisions/4306/view</source></identification><defaults><scaling><millimeters>6</millimeters><tenths>40</tenths></scaling><page-layout><page-height>1980</page-height><page-width>1400</page-width></page-layout></defaults><part-list><score-part id="P1"><part-name> </part-name><part-abbreviation> </part-abbreviation></score-part></part-list><part id="P1"><measure number="1"><attributes><divisions>768</divisions><key><fifths>-1</fifths><mode>major</mode></key><time symbol="common"><beats>4</beats><beat-type>4</beat-type></time><clef><sign>G</sign><line>2</line></clef></attributes><note><pitch><step>C</step><octave>4</octave></pitch><duration>384</duration><voice>1</voice><type>eighth</type><beam number="1">begin</beam><lyric default-y="-80" number="1" name="verse"><syllabic>single</syllabic><text>I</text></lyric></note><note><pitch><step>E</step><octave>4</octave></pitch><duration>384</duration><voice>1</voice><type>eighth</type><beam number="1">end</beam><lyric default-y="-80" number="1" name="verse"><syllabic>single</syllabic><text>see</text></lyric></note></measure><measure number="2"><print new-system="no"/><harmony relative-x="8" default-y="25" print-frame="no"><root><root-step>F</root-step></root><kind text="">major</kind></harmony><note><pitch><step>F</step><octave>4</octave></pitch><duration>1152</duration><voice>1</voice><type>quarter</type><dot/><lyric default-y="-80" number="1" name="verse"><syllabic>single</syllabic><text>trees</text></lyric></note><note><pitch><step>A</step><octave>4</octave></pitch><duration>384</duration><voice>1</voice><type>eighth</type><lyric default-y="-80" number="1" name="verse"><syllabic>single</syllabic><text>of</text></lyric></note><harmony relative-x="8" default-y="25" print-frame="no"><root><root-step>A</root-step></root><kind text="m">minor</kind></harmony><note><pitch><step>C</step><octave>5</octave></pitch><duration>1536</duration><voice>1</voice><type>half</type><lyric default-y="-80" number="1" name="verse"><syllabic>single</syllabic><text>green,</text></lyric></note></measure><measure number="3"><harmony relative-x="8" default-y="25" print-frame="no"><root><root-step>B</root-step><root-alter>-1</root-alter></root><kind text="">major</kind></harmony><note><rest/><duration>384</duration><voice>1</voice><type>eighth</type></note><note><pitch><step>D</step><octave>5</octave></pitch><duration>384</duration><voice>1</voice><type>eighth</type><beam number="1">end</beam><lyric default-y="-80" number="1" name="verse"><syllabic>single</syllabic><text>red</text></lyric></note><note><pitch><step>D</step><octave>5</octave></pitch><duration>384</duration><voice>1</voice><type>eighth</type><beam number="1">begin</beam><lyric default-y="-80" number="1" name="verse"><syllabic>single</syllabic><text>ros-</text></lyric></note><note><pitch><step>D</step><octave>5</octave></pitch><duration>384</duration><voice>1</voice><type>eighth</type><beam number="1">end</beam><lyric default-y="-80" number="1" name="verse"><syllabic>single</syllabic><text>es</text></lyric></note><harmony relative-x="8" default-y="25" print-frame="no"><root><root-step>A</root-step></root><kind text="m">minor</kind></harmony><note><pitch><step>C</step><octave>5</octave></pitch><duration>1536</duration><voice>1</voice><type>half</type><lyric default-y="-80" number="1" name="verse"><syllabic>single</syllabic><text>too,</text></lyric></note></measure><measure number="4"><harmony relative-x="8" default-y="25" print-frame="no"><root><root-step>G</root-step></root><kind text="m7">minor-seventh</kind></harmony><note><rest/><duration>384</duration><voice>1</voice><type>eighth</type></note><note><pitch><step>B</step><alter>-1</alter><octave>4</octave></pitch><duration>384</duration><voice>1</voice><type>eighth</type><beam number="1">end</beam><lyric default-y="-80" number="1" name="verse"><syllabic>single</syllabic><text>I</text></lyric></note><note><pitch><step>B</step><alter>-1</alter><octave>4</octave></pitch><duration>384</duration><voice>1</voice><type>eighth</type><beam number="1">begin</beam><lyric default-y="-80" number="1" name="verse"><syllabic>single</syllabic><text>see</text></lyric></note><note><pitch><step>B</step><alter>-1</alter><octave>4</octave></pitch><duration>384</duration><voice>1</voice><type>eighth</type><beam number="1">end</beam><lyric default-y="-80" number="1" name="verse"><syllabic>single</syllabic><text>them</text></lyric></note><harmony relative-x="8" default-y="25" print-frame="no"><root><root-step>F</root-step></root><kind text="">major</kind></harmony><note><pitch><step>A</step><octave>4</octave></pitch><duration>1536</duration><voice>1</voice><type>half</type><lyric default-y="-80" number="1" name="verse"><syllabic>single</syllabic><text>bloom</text></lyric></note></measure><measure number="5"><harmony relative-x="8" default-y="25" print-frame="no"><root><root-step>A</root-step></root><kind text="7">dominant</kind></harmony><note><rest/><duration>384</duration><voice>1</voice><type>eighth</type></note><note><pitch><step>G</step><octave>4</octave></pitch><duration>384</duration><voice>1</voice><type>eighth</type><beam number="1">end</beam><lyric default-y="-80" number="1" name="verse"><syllabic>single</syllabic><text>for</text></lyric></note><note><pitch><step>G</step><octave>4</octave></pitch><duration>384</duration><voice>1</voice><type>eighth</type><beam number="1">begin</beam><lyric default-y="-80" number="1" name="verse"><syllabic>single</syllabic><text>me</text></lyric></note><note><pitch><step>G</step><octave>4</octave></pitch><duration>384</duration><voice>1</voice><type>eighth</type><beam number="1">end</beam><lyric default-y="-80" number="1" name="verse"><syllabic>single</syllabic><text>and</text></lyric></note><harmony relative-x="8" default-y="25" print-frame="no"><root><root-step>D</root-step></root><kind text="m">minor</kind></harmony><note><pitch><step>F</step><octave>4</octave></pitch><duration>768</duration><tie type="start"/><voice>1</voice><type>quarter</type><notations><tied type="start"/></notations><lyric default-y="-80" number="1" name="verse"><syllabic>single</syllabic><text>you,</text></lyric></note><note><pitch><step>F</step><octave>4</octave></pitch><duration>256</duration><tie type="stop"/><voice>1</voice><type>eighth</type><time-modification><actual-notes>3</actual-notes><normal-notes>2</normal-notes></time-modification><beam number="1">begin</beam><notations><tied type="stop"/><tuplet type="start" number="1"/></notations></note><note><pitch><step>F</step><octave>4</octave></pitch><duration>256</duration><voice>1</voice><type>eighth</type><time-modification><actual-notes>3</actual-notes><normal-notes>2</normal-notes></time-modification><beam number="1">continue</beam><lyric default-y="-80" number="1" name="verse"><syllabic>single</syllabic><text>and</text></lyric></note><note><pitch><step>F</step><octave>4</octave></pitch><duration>256</duration><voice>1</voice><type>eighth</type><time-modification><actual-notes>3</actual-notes><normal-notes>2</normal-notes></time-modification><beam number="1">end</beam><notations><tuplet type="stop" number="1"/></notations><lyric default-y="-80" number="1" name="verse"><syllabic>single</syllabic><text>I</text></lyric></note></measure><measure number="6"><print new-system="yes"/><harmony relative-x="8" default-y="25" print-frame="no"><root><root-step>D</root-step><root-alter>-1</root-alter></root><kind text="">major</kind></harmony><note><pitch><step>F</step><octave>4</octave></pitch><duration>768</duration><tie type="start"/><voice>1</voice><type>quarter</type><notations><tied type="start"/></notations><lyric default-y="-80" number="1" name="verse"><syllabic>single</syllabic><text>think</text></lyric></note><note><pitch><step>F</step><octave>4</octave></pitch><duration>256</duration><tie type="stop"/><voice>1</voice><type>eighth</type><time-modification><actual-notes>3</actual-notes><normal-notes>2</normal-notes></time-modification><beam number="1">begin</beam><notations><tied type="stop"/><tuplet type="start" number="1"/></notations></note><note><pitch><step>F</step><octave>4</octave></pitch><duration>256</duration><voice>1</voice><type>eighth</type><time-modification><actual-notes>3</actual-notes><normal-notes>2</normal-notes></time-modification><beam number="1">continue</beam><lyric default-y="-80" number="1" name="verse"><syllabic>single</syllabic><text>to</text></lyric></note><note><pitch><step>F</step><octave>4</octave></pitch><duration>256</duration><voice>1</voice><type>eighth</type><time-modification><actual-notes>3</actual-notes><normal-notes>2</normal-notes></time-modification><beam number="1">end</beam><notations><tuplet type="stop" number="1"/></notations><lyric default-y="-80" number="1" name="verse"><syllabic>single</syllabic><text>my-</text></lyric></note><note><pitch><step>F</step><octave>4</octave></pitch><duration>1536</duration><voice>1</voice><type>half</type><lyric default-y="-80" number="1" name="verse"><syllabic>single</syllabic><text>self</text></lyric></note></measure><measure number="7"><harmony relative-x="8" default-y="25" print-frame="no"><root><root-step>G</root-step></root><kind text="m7">minor-seventh</kind><bass><bass-step>C</bass-step></bass></harmony><note><rest/><duration>768</duration><voice>1</voice><type>quarter</type></note><note><pitch><step>F</step><octave>4</octave></pitch><duration>384</duration><voice>1</voice><type>eighth</type><beam number="1">begin</beam><lyric default-y="-80" number="1" name="verse"><syllabic>single</syllabic><text>What</text></lyric></note><note><pitch><step>F</step><octave>4</octave></pitch><duration>384</duration><voice>1</voice><type>eighth</type><beam number="1">end</beam><lyric default-y="-80" number="1" name="verse"><syllabic>single</syllabic><text>A</text></lyric></note><harmony relative-x="8" default-y="25" print-frame="no"><root><root-step>C</root-step></root><kind text="7">dominant</kind></harmony><note><pitch><step>E</step><octave>4</octave></pitch><duration>512</duration><voice>1</voice><type>quarter</type><time-modification><actual-notes>3</actual-notes><normal-notes>2</normal-notes></time-modification><notations><tuplet type="start" number="1"/></notations><lyric default-y="-80" number="1" name="verse"><syllabic>single</syllabic><text>Won-</text></lyric></note><note><pitch><step>F</step><octave>4</octave></pitch><duration>512</duration><voice>1</voice><type>quarter</type><time-modification><actual-notes>3</actual-notes><normal-notes>2</normal-notes></time-modification><lyric default-y="-80" number="1" name="verse"><syllabic>single</syllabic><text>der-</text></lyric></note><note><pitch><step>G</step><octave>4</octave></pitch><duration>512</duration><voice>1</voice><type>quarter</type><time-modification><actual-notes>3</actual-notes><normal-notes>2</normal-notes></time-modification><notations><tuplet type="stop" number="1"/></notations><lyric default-y="-80" number="1" name="verse"><syllabic>single</syllabic><text>ful</text></lyric></note></measure><measure number="8"><harmony relative-x="8" default-y="25" print-frame="no"><root><root-step>F</root-step></root><kind text="">major</kind></harmony><note><pitch><step>A</step><octave>4</octave></pitch><duration>1536</duration><tie type="start"/><voice>1</voice><type>half</type><notations><tied type="start"/></notations><lyric default-y="-80" number="1" name="verse"><syllabic>single</syllabic><text>World.</text></lyric></note><harmony relative-x="8" default-y="25" print-frame="no"><root><root-step>F</root-step></root><kind text="aug">augmented</kind></harmony><note><pitch><step>A</step><octave>4</octave></pitch><duration>1536</duration><tie type="stop"/><tie type="start"/><voice>1</voice><type>half</type><notations><tied type="stop"/><tied type="start"/></notations></note></measure><measure number="9"><harmony relative-x="8" default-y="25" print-frame="no"><root><root-step>B</root-step><root-alter>-1</root-alter></root><kind text="maj7">major-seventh</kind></harmony><note><pitch><step>A</step><octave>4</octave></pitch><duration>1536</duration><tie type="stop"/><voice>1</voice><type>half</type><notations><tied type="stop"/></notations></note><harmony relative-x="8" default-y="25" print-frame="no"><root><root-step>C</root-step></root><kind text="7">dominant</kind></harmony><note><rest/><duration>768</duration><voice>1</voice><type>quarter</type></note><note><pitch><step>C</step><octave>4</octave></pitch><duration>384</duration><voice>1</voice><type>eighth</type><beam number="1">begin</beam><lyric default-y="-80" number="1" name="verse"><syllabic>single</syllabic><text>I</text></lyric></note><note><pitch><step>E</step><octave>4</octave></pitch><duration>384</duration><voice>1</voice><type>eighth</type><beam number="1">end</beam><lyric default-y="-80" number="1" name="verse"><syllabic>single</syllabic><text>see</text></lyric></note></measure><measure number="10"><print new-system="yes"/><harmony relative-x="8" default-y="25" print-frame="no"><root><root-step>F</root-step></root><kind text="">major</kind></harmony><note><pitch><step>F</step><octave>4</octave></pitch><duration>1152</duration><voice>1</voice><type>quarter</type><dot/><lyric default-y="-80" number="1" name="verse"><syllabic>single</syllabic><text>skies</text></lyric></note><note><pitch><step>A</step><octave>4</octave></pitch><duration>384</duration><voice>1</voice><type>eighth</type><lyric default-y="-80" number="1" name="verse"><syllabic>single</syllabic><text>of</text></lyric></note><harmony relative-x="8" default-y="25" print-frame="no"><root><root-step>A</root-step></root><kind text="m">minor</kind></harmony><note><pitch><step>C</step><octave>5</octave></pitch><duration>1152</duration><voice>1</voice><type>quarter</type><dot/><lyric default-y="-80" number="1" name="verse"><syllabic>single</syllabic><text>blue</text></lyric></note><note><pitch><step>C</step><octave>5</octave></pitch><duration>384</duration><voice>1</voice><type>eighth</type><lyric default-y="-80" number="1" name="verse"><syllabic>single</syllabic><text>and</text></lyric></note></measure><measure number="11"><harmony relative-x="8" default-y="25" print-frame="no"><root><root-step>B</root-step><root-alter>-1</root-alter></root><kind text="">major</kind></harmony><note><pitch><step>D</step><octave>5</octave></pitch><duration>1152</duration><voice>1</voice><type>quarter</type><dot/><lyric default-y="-80" number="1" name="verse"><syllabic>single</syllabic><text>clouds</text></lyric></note><note><pitch><step>D</step><octave>5</octave></pitch><duration>384</duration><voice>1</voice><type>eighth</type><lyric default-y="-80" number="1" name="verse"><syllabic>single</syllabic><text>of</text></lyric></note><harmony relative-x="8" default-y="25" print-frame="no"><root><root-step>A</root-step></root><kind text="m">minor</kind></harmony><note><pitch><step>C</step><octave>5</octave></pitch><duration>1152</duration><voice>1</voice><type>quarter</type><dot/><lyric default-y="-80" number="1" name="verse"><syllabic>single</syllabic><text>white,</text></lyric></note><note><pitch><step>C</step><octave>5</octave></pitch><duration>384</duration><voice>1</voice><type>eighth</type><lyric default-y="-80" number="1" name="verse"><syllabic>single</syllabic><text>the</text></lyric></note></measure><measure number="12"><harmony relative-x="8" default-y="25" print-frame="no"><root><root-step>G</root-step></root><kind text="m7">minor-seventh</kind></harmony><note><pitch><step>B</step><alter>-1</alter><octave>4</octave></pitch><duration>768</duration><tie type="start"/><voice>1</voice><type>quarter</type><notations><tied type="start"/></notations><lyric default-y="-80" number="1" name="verse"><syllabic>single</syllabic><text>bright</text></lyric></note><note><pitch><step>B</step><alter>-1</alter><octave>4</octave></pitch><duration>256</duration><tie type="stop"/><voice>1</voice><type>eighth</type><time-modification><actual-notes>3</actual-notes><normal-notes>2</normal-notes></time-modification><beam number="1">begin</beam><notations><tied type="stop"/><tuplet type="start" number="1"/></notations></note><note><pitch><step>B</step><alter>-1</alter><octave>4</octave></pitch><duration>256</duration><voice>1</voice><type>eighth</type><time-modification><actual-notes>3</actual-notes><normal-notes>2</normal-notes></time-modification><beam number="1">continue</beam><lyric default-y="-80" number="1" name="verse"><syllabic>single</syllabic><text>bless-</text></lyric></note><note><pitch><step>B</step><alter>-1</alter><octave>4</octave></pitch><duration>256</duration><voice>1</voice><type>eighth</type><time-modification><actual-notes>3</actual-notes><normal-notes>2</normal-notes></time-modification><beam number="1">end</beam><notations><tuplet type="stop" number="1"/></notations><lyric default-y="-80" number="1" name="verse"><syllabic>single</syllabic><text>-ed</text></lyric></note><harmony relative-x="8" default-y="25" print-frame="no"><root><root-step>F</root-step></root><kind text="">major</kind></harmony><note><pitch><step>A</step><octave>4</octave></pitch><duration>1152</duration><voice>1</voice><type>quarter</type><dot/><lyric default-y="-80" number="1" name="verse"><syllabic>single</syllabic><text>day,</text></lyric></note><note><pitch><step>A</step><octave>4</octave></pitch><duration>384</duration><voice>1</voice><type>eighth</type><lyric default-y="-80" number="1" name="verse"><syllabic>single</syllabic><text>the</text></lyric></note></measure><measure number="13"><harmony relative-x="8" default-y="25" print-frame="no"><root><root-step>A</root-step></root><kind text="7">dominant</kind></harmony><note><pitch><step>G</step><octave>4</octave></pitch><duration>768</duration><tie type="start"/><voice>1</voice><type>quarter</type><notations><tied type="start"/></notations><lyric default-y="-80" number="1" name="verse"><syllabic>single</syllabic><text>dark</text></lyric></note><note><pitch><step>G</step><octave>4</octave></pitch><duration>256</duration><tie type="stop"/><voice>1</voice><type>eighth</type><time-modification><actual-notes>3</actual-notes><normal-notes>2</normal-notes></time-modification><beam number="1">begin</beam><notations><tied type="stop"/><tuplet type="start" number="1"/></notations></note><note><pitch><step>G</step><octave>4</octave></pitch><duration>256</duration><voice>1</voice><type>eighth</type><time-modification><actual-notes>3</actual-notes><normal-notes>2</normal-notes></time-modification><beam number="1">continue</beam><lyric default-y="-80" number="1" name="verse"><syllabic>single</syllabic><text>sac-</text></lyric></note><note><pitch><step>G</step><octave>4</octave></pitch><duration>256</duration><voice>1</voice><type>eighth</type><time-modification><actual-notes>3</actual-notes><normal-notes>2</normal-notes></time-modification><beam number="1">end</beam><notations><tuplet type="stop" number="1"/></notations><lyric default-y="-80" number="1" name="verse"><syllabic>single</syllabic><text>red</text></lyric></note><harmony relative-x="8" default-y="25" print-frame="no"><root><root-step>D</root-step></root><kind text="m">minor</kind></harmony><note><pitch><step>F</step><octave>4</octave></pitch><duration>768</duration><tie type="start"/><voice>1</voice><type>quarter</type><notations><tied type="start"/></notations><lyric default-y="-80" number="1" name="verse"><syllabic>single</syllabic><text>night,</text></lyric></note><note><pitch><step>F</step><octave>4</octave></pitch><duration>256</duration><tie type="stop"/><voice>1</voice><type>eighth</type><time-modification><actual-notes>3</actual-notes><normal-notes>2</normal-notes></time-modification><beam number="1">begin</beam><notations><tied type="stop"/><tuplet type="start" number="1"/></notations></note><note><pitch><step>F</step><octave>4</octave></pitch><duration>256</duration><voice>1</voice><type>eighth</type><time-modification><actual-notes>3</actual-notes><normal-notes>2</normal-notes></time-modification><beam number="1">continue</beam><lyric default-y="-80" number="1" name="verse"><syllabic>single</syllabic><text>and</text></lyric></note><note><pitch><step>F</step><octave>4</octave></pitch><duration>256</duration><voice>1</voice><type>eighth</type><time-modification><actual-notes>3</actual-notes><normal-notes>2</normal-notes></time-modification><beam number="1">end</beam><notations><tuplet type="stop" number="1"/></notations><lyric default-y="-80" number="1" name="verse"><syllabic>single</syllabic><text>I</text></lyric></note></measure><measure number="14"><print new-system="yes"/><harmony relative-x="8" default-y="25" print-frame="no"><root><root-step>D</root-step><root-alter>-1</root-alter></root><kind text="">major</kind></harmony><note><pitch><step>F</step><octave>4</octave></pitch><duration>768</duration><tie type="start"/><voice>1</voice><type>quarter</type><notations><tied type="start"/></notations><lyric default-y="-80" number="1" name="verse"><syllabic>single</syllabic><text>think</text></lyric></note><note><pitch><step>F</step><octave>4</octave></pitch><duration>256</duration><tie type="stop"/><voice>1</voice><type>eighth</type><time-modification><actual-notes>3</actual-notes><normal-notes>2</normal-notes></time-modification><beam number="1">begin</beam><notations><tied type="stop"/><tuplet type="start" number="1"/></notations></note><note><pitch><step>F</step><octave>4</octave></pitch><duration>256</duration><voice>1</voice><type>eighth</type><time-modification><actual-notes>3</actual-notes><normal-notes>2</normal-notes></time-modification><beam number="1">continue</beam><lyric default-y="-80" number="1" name="verse"><syllabic>single</syllabic><text>to</text></lyric></note><note><pitch><step>F</step><octave>4</octave></pitch><duration>256</duration><voice>1</voice><type>eighth</type><time-modification><actual-notes>3</actual-notes><normal-notes>2</normal-notes></time-modification><beam number="1">end</beam><notations><tuplet type="stop" number="1"/></notations><lyric default-y="-80" number="1" name="verse"><syllabic>single</syllabic><text>my-</text></lyric></note><note><pitch><step>F</step><octave>4</octave></pitch><duration>1536</duration><voice>1</voice><type>half</type><lyric default-y="-80" number="1" name="verse"><syllabic>single</syllabic><text>self</text></lyric></note></measure><measure number="15"><harmony relative-x="8" default-y="25" print-frame="no"><root><root-step>G</root-step></root><kind text="m7">minor-seventh</kind><bass><bass-step>C</bass-step></bass></harmony><note><rest/><duration>768</duration><voice>1</voice><type>quarter</type></note><note><pitch><step>F</step><octave>4</octave></pitch><duration>384</duration><voice>1</voice><type>eighth</type><beam number="1">begin</beam><lyric default-y="-80" number="1" name="verse"><syllabic>single</syllabic><text>What</text></lyric></note><note><pitch><step>F</step><octave>4</octave></pitch><duration>384</duration><voice>1</voice><type>eighth</type><beam number="1">end</beam><lyric default-y="-80" number="1" name="verse"><syllabic>single</syllabic><text>A</text></lyric></note><harmony relative-x="8" default-y="25" print-frame="no"><root><root-step>C</root-step></root><kind text="7">dominant</kind></harmony><note><pitch><step>E</step><octave>4</octave></pitch><duration>512</duration><voice>1</voice><type>quarter</type><time-modification><actual-notes>3</actual-notes><normal-notes>2</normal-notes></time-modification><notations><tuplet type="start" number="1"/></notations><lyric default-y="-80" number="1" name="verse"><syllabic>single</syllabic><text>Won-</text></lyric></note><note><pitch><step>F</step><octave>4</octave></pitch><duration>512</duration><voice>1</voice><type>quarter</type><time-modification><actual-notes>3</actual-notes><normal-notes>2</normal-notes></time-modification><lyric default-y="-80" number="1" name="verse"><syllabic>single</syllabic><text>der-</text></lyric></note><note><pitch><step>G</step><octave>4</octave></pitch><duration>512</duration><voice>1</voice><type>quarter</type><time-modification><actual-notes>3</actual-notes><normal-notes>2</normal-notes></time-modification><notations><tuplet type="stop" number="1"/></notations><lyric default-y="-80" number="1" name="verse"><syllabic>single</syllabic><text>ful</text></lyric></note></measure><measure number="16"><harmony relative-x="8" default-y="25" print-frame="no"><root><root-step>F</root-step></root><kind text="">major</kind></harmony><note><pitch><step>F</step><octave>4</octave></pitch><duration>1536</duration><tie type="start"/><voice>1</voice><type>half</type><notations><tied type="start"/></notations><lyric default-y="-80" number="1" name="verse"><syllabic>single</syllabic><text>World.</text></lyric></note><harmony relative-x="8" default-y="25" print-frame="no"><root><root-step>B</root-step><root-alter>-1</root-alter></root><kind text="">major</kind></harmony><note><pitch><step>F</step><octave>4</octave></pitch><duration>1536</duration><tie type="stop"/><tie type="start"/><voice>1</voice><type>half</type><notations><tied type="stop"/><tied type="start"/></notations></note></measure><measure number="17"><note><pitch><step>F</step><octave>4</octave></pitch><duration>1536</duration><tie type="stop"/><voice>1</voice><type>half</type><notations><tied type="stop"/></notations></note><harmony relative-x="8" default-y="25" print-frame="no"><root><root-step>F</root-step></root><kind text="">major</kind></harmony><note><rest/><duration>768</duration><voice>1</voice><type>quarter</type></note><note><pitch><step>F</step><octave>4</octave></pitch><duration>768</duration><voice>1</voice><type>quarter</type><lyric default-y="-80" number="1" name="verse"><syllabic>single</syllabic><text>The</text></lyric></note><barline location="right"><bar-style>light-light</bar-style></barline></measure><measure number="18"><print new-system="yes"/><harmony relative-x="8" default-y="25" print-frame="no"><root><root-step>C</root-step></root><kind text="7">dominant</kind></harmony><note><pitch><step>G</step><octave>4</octave></pitch><duration>384</duration><voice>1</voice><type>eighth</type><beam number="1">begin</beam><lyric default-y="-80" number="1" name="verse"><syllabic>single</syllabic><text>col-</text></lyric></note><note><pitch><step>G</step><octave>4</octave></pitch><duration>384</duration><voice>1</voice><type>eighth</type><beam number="1">continue</beam><lyric default-y="-80" number="1" name="verse"><syllabic>single</syllabic><text>ors</text></lyric></note><note><pitch><step>G</step><octave>4</octave></pitch><duration>384</duration><voice>1</voice><type>eighth</type><beam number="1">continue</beam><lyric default-y="-80" number="1" name="verse"><syllabic>single</syllabic><text>of</text></lyric></note><note><pitch><step>G</step><octave>4</octave></pitch><duration>384</duration><voice>1</voice><type>eighth</type><beam number="1">end</beam><lyric default-y="-80" number="1" name="verse"><syllabic>single</syllabic><text>the</text></lyric></note><note><pitch><step>G</step><octave>4</octave></pitch><duration>384</duration><voice>1</voice><type>eighth</type><beam number="1">begin</beam><lyric default-y="-80" number="1" name="verse"><syllabic>single</syllabic><text>rain-</text></lyric></note><note><pitch><step>C</step><octave>4</octave></pitch><duration>768</duration><voice>1</voice><type>quarter</type><lyric default-y="-80" number="1" name="verse"><syllabic>single</syllabic><text>bow,</text></lyric></note><note><pitch><step>C</step><octave>4</octave></pitch><duration>384</duration><voice>1</voice><type>eighth</type><lyric default-y="-80" number="1" name="verse"><syllabic>single</syllabic><text>so</text></lyric></note></measure><measure number="19"><harmony relative-x="8" default-y="25" print-frame="no"><root><root-step>F</root-step></root><kind text="">major</kind></harmony><note><pitch><step>B</step><alter>-1</alter><octave>4</octave></pitch><duration>384</duration><voice>1</voice><type>eighth</type><beam number="1">begin</beam><lyric default-y="-80" number="1" name="verse"><syllabic>single</syllabic><text>pret-</text></lyric></note><note><pitch><step>A</step><octave>4</octave></pitch><duration>384</duration><voice>1</voice><type>eighth</type><beam number="1">continue</beam><lyric default-y="-80" number="1" name="verse"><syllabic>single</syllabic><text>ty</text></lyric></note><note><pitch><step>A</step><octave>4</octave></pitch><duration>384</duration><voice>1</voice><type>eighth</type><beam number="1">continue</beam><lyric default-y="-80" number="1" name="verse"><syllabic>single</syllabic><text>in</text></lyric></note><note><pitch><step>G</step><alter>1</alter><octave>4</octave></pitch><duration>384</duration><voice>1</voice><type>eighth</type><beam number="1">end</beam><lyric default-y="-80" number="1" name="verse"><syllabic>single</syllabic><text>the</text></lyric></note><note><pitch><step>A</step><octave>4</octave></pitch><duration>1152</duration><voice>1</voice><type>quarter</type><dot/><lyric default-y="-80" number="1" name="verse"><syllabic>single</syllabic><text>sky</text></lyric></note><note><pitch><step>F</step><octave>4</octave></pitch><duration>384</duration><voice>1</voice><type>eighth</type><lyric default-y="-80" number="1" name="verse"><syllabic>single</syllabic><text>are</text></lyric></note></measure><measure number="20"><harmony relative-x="8" default-y="25" print-frame="no"><root><root-step>C</root-step></root><kind text="7">dominant</kind></harmony><note><pitch><step>G</step><octave>4</octave></pitch><duration>384</duration><voice>1</voice><type>eighth</type><beam number="1">begin</beam><lyric default-y="-80" number="1" name="verse"><syllabic>single</syllabic><text>al-</text></lyric></note><note><pitch><step>G</step><octave>4</octave></pitch><duration>384</duration><voice>1</voice><type>eighth</type><beam number="1">continue</beam><lyric default-y="-80" number="1" name="verse"><syllabic>single</syllabic><text>so</text></lyric></note><note><pitch><step>G</step><octave>4</octave></pitch><duration>384</duration><voice>1</voice><type>eighth</type><beam number="1">continue</beam><lyric default-y="-80" number="1" name="verse"><syllabic>single</syllabic><text>on</text></lyric></note><note><pitch><step>G</step><octave>4</octave></pitch><duration>384</duration><voice>1</voice><type>eighth</type><beam number="1">end</beam><lyric default-y="-80" number="1" name="verse"><syllabic>single</syllabic><text>the</text></lyric></note><note><pitch><step>G</step><octave>4</octave></pitch><duration>384</duration><voice>1</voice><type>eighth</type><beam number="1">begin</beam><lyric default-y="-80" number="1" name="verse"><syllabic>single</syllabic><text>fac-</text></lyric></note><note><pitch><step>C</step><octave>4</octave></pitch><duration>768</duration><voice>1</voice><type>quarter</type><lyric default-y="-80" number="1" name="verse"><syllabic>single</syllabic><text>es</text></lyric></note><note><pitch><step>G</step><octave>4</octave></pitch><duration>384</duration><voice>1</voice><type>eighth</type><lyric default-y="-80" number="1" name="verse"><syllabic>single</syllabic><text>of</text></lyric></note></measure><measure number="21"><harmony relative-x="8" default-y="25" print-frame="no"><root><root-step>F</root-step></root><kind text="">major</kind></harmony><note><pitch><step>B</step><alter>-1</alter><octave>4</octave></pitch><duration>384</duration><voice>1</voice><type>eighth</type><beam number="1">begin</beam><lyric default-y="-80" number="1" name="verse"><syllabic>single</syllabic><text>peo-</text></lyric></note><note><pitch><step>A</step><octave>4</octave></pitch><duration>384</duration><voice>1</voice><type>eighth</type><beam number="1">continue</beam><lyric default-y="-80" number="1" name="verse"><syllabic>single</syllabic><text>ple</text></lyric></note><note><pitch><step>A</step><octave>4</octave></pitch><duration>384</duration><voice>1</voice><type>eighth</type><beam number="1">continue</beam><lyric default-y="-80" number="1" name="verse"><syllabic>single</syllabic><text>go-</text></lyric></note><note><pitch><step>G</step><alter>1</alter><octave>4</octave></pitch><duration>384</duration><voice>1</voice><type>eighth</type><beam number="1">end</beam><lyric default-y="-80" number="1" name="verse"><syllabic>single</syllabic><text>in'</text></lyric></note><note><pitch><step>A</step><octave>4</octave></pitch><duration>768</duration><voice>1</voice><type>quarter</type><lyric default-y="-80" number="1" name="verse"><syllabic>single</syllabic><text>by,</text></lyric></note><note><pitch><step>A</step><octave>4</octave></pitch><duration>384</duration><voice>1</voice><type>eighth</type><beam number="1">begin</beam><lyric default-y="-80" number="1" name="verse"><syllabic>single</syllabic><text>I</text></lyric></note><note><pitch><step>C</step><octave>5</octave></pitch><duration>384</duration><voice>1</voice><type>eighth</type><beam number="1">end</beam><lyric default-y="-80" number="1" name="verse"><syllabic>single</syllabic><text>see</text></lyric></note></measure><measure number="22"><print new-system="yes"/><harmony relative-x="8" default-y="25" print-frame="no"><root><root-step>D</root-step></root><kind text="m">minor</kind></harmony><note><pitch><step>D</step><octave>5</octave></pitch><duration>768</duration><voice>1</voice><type>quarter</type><lyric default-y="-80" number="1" name="verse"><syllabic>single</syllabic><text>friends</text></lyric></note><note><pitch><step>D</step><octave>5</octave></pitch><duration>384</duration><voice>1</voice><type>eighth</type><beam number="1">begin</beam><lyric default-y="-80" number="1" name="verse"><syllabic>single</syllabic><text>shak-</text></lyric></note><note><pitch><step>D</step><octave>5</octave></pitch><duration>384</duration><voice>1</voice><type>eighth</type><beam number="1">end</beam><lyric default-y="-80" number="1" name="verse"><syllabic>single</syllabic><text>in'</text></lyric></note><harmony relative-x="8" default-y="25" print-frame="no"><root><root-step>C</root-step></root><kind text="">major</kind></harmony><note><pitch><step>C</step><octave>5</octave></pitch><duration>768</duration><tie type="start"/><voice>1</voice><type>quarter</type><notations><tied type="start"/></notations><lyric default-y="-80" number="1" name="verse"><syllabic>single</syllabic><text>hands,</text></lyric></note><note><pitch><step>C</step><octave>5</octave></pitch><duration>256</duration><tie type="stop"/><voice>1</voice><type>eighth</type><time-modification><actual-notes>3</actual-notes><normal-notes>2</normal-notes></time-modification><beam number="1">begin</beam><notations><tied type="stop"/><tuplet type="start" number="1"/></notations></note><note><pitch><step>A</step><octave>4</octave></pitch><duration>256</duration><voice>1</voice><type>eighth</type><time-modification><actual-notes>3</actual-notes><normal-notes>2</normal-notes></time-modification><beam number="1">continue</beam><lyric default-y="-80" number="1" name="verse"><syllabic>single</syllabic><text>say-</text></lyric></note><note><pitch><step>C</step><octave>5</octave></pitch><duration>256</duration><voice>1</voice><type>eighth</type><time-modification><actual-notes>3</actual-notes><normal-notes>2</normal-notes></time-modification><beam number="1">end</beam><notations><tuplet type="stop" number="1"/></notations><lyric default-y="-80" number="1" name="verse"><syllabic>single</syllabic><text>in',</text></lyric></note></measure><measure number="23"><harmony relative-x="8" default-y="25" print-frame="no"><root><root-step>D</root-step></root><kind text="m">minor</kind></harmony><note><pitch><step>D</step><octave>5</octave></pitch><duration>768</duration><voice>1</voice><type>quarter</type><lyric default-y="-80" number="1" name="verse"><syllabic>single</syllabic><text>"How</text></lyric></note><note><pitch><step>D</step><octave>5</octave></pitch><duration>384</duration><voice>1</voice><type>eighth</type><beam number="1">begin</beam><lyric default-y="-80" number="1" name="verse"><syllabic>single</syllabic><text>do</text></lyric></note><note><pitch><step>D</step><octave>5</octave></pitch><duration>384</duration><voice>1</voice><type>eighth</type><beam number="1">end</beam><lyric default-y="-80" number="1" name="verse"><syllabic>single</syllabic><text>you</text></lyric></note><harmony relative-x="8" default-y="25" print-frame="no"><root><root-step>C</root-step></root><kind text="">major</kind></harmony><note><pitch><step>C</step><octave>5</octave></pitch><duration>1536</duration><voice>1</voice><type>half</type><lyric default-y="-80" number="1" name="verse"><syllabic>single</syllabic><text>do!"</text></lyric></note></measure><measure number="24"><harmony relative-x="8" default-y="25" print-frame="no"><root><root-step>D</root-step></root><kind text="m">minor</kind></harmony><note><rest/><duration>384</duration><voice>1</voice><type>eighth</type></note><note><pitch><step>D</step><octave>5</octave></pitch><duration>384</duration><voice>1</voice><type>eighth</type><beam number="1">end</beam><lyric default-y="-80" number="1" name="verse"><syllabic>single</syllabic><text>They're</text></lyric></note><note><pitch><step>D</step><octave>5</octave></pitch><duration>384</duration><voice>1</voice><type>eighth</type><beam number="1">begin</beam><lyric default-y="-80" number="1" name="verse"><syllabic>single</syllabic><text>real-</text></lyric></note><note><pitch><step>D</step><octave>5</octave></pitch><duration>384</duration><voice>1</voice><type>eighth</type><beam number="1">end</beam><lyric default-y="-80" number="1" name="verse"><syllabic>single</syllabic><text>ly</text></lyric></note><harmony relative-x="8" default-y="25" print-frame="no"><root><root-step>F</root-step><root-alter>1</root-alter></root><kind text="dim7">diminished-seventh</kind></harmony><note><pitch><step>C</step><octave>5</octave></pitch><duration>384</duration><voice>1</voice><type>eighth</type><beam number="1">begin</beam><lyric default-y="-80" number="1" name="verse"><syllabic>single</syllabic><text>say-</text></lyric></note><note><pitch><step>C</step><octave>5</octave></pitch><duration>1152</duration><voice>1</voice><type>quarter</type><dot/><lyric default-y="-80" number="1" name="verse"><syllabic>single</syllabic><text>in'</text></lyric></note></measure><measure number="25"><harmony relative-x="8" default-y="25" print-frame="no"><root><root-step>G</root-step></root><kind text="m7">minor-seventh</kind></harmony><note><pitch><step>B</step><alter>-1</alter><octave>4</octave></pitch><duration>768</duration><voice>1</voice><type>quarter</type><lyric default-y="-80" number="1" name="verse"><syllabic>single</syllabic><text>"I</text></lyric></note><harmony relative-x="8" default-y="25" print-frame="no"><root><root-step>F</root-step><root-alter>1</root-alter></root><kind text="dim7">diminished-seventh</kind></harmony><note><pitch><step>A</step><octave>4</octave></pitch><duration>768</duration><voice>1</voice><type>quarter</type><lyric default-y="-80" number="1" name="verse"><syllabic>single</syllabic><text>Iove</text></lyric></note><harmony relative-x="8" default-y="25" print-frame="no"><root><root-step>G</root-step></root><kind text="m7">minor-seventh</kind></harmony><note><pitch><step>G</step><octave>4</octave></pitch><duration>768</duration><voice>1</voice><type>quarter</type><lyric default-y="-80" number="1" name="verse"><syllabic>single</syllabic><text>you,"</text></lyric></note><harmony relative-x="8" default-y="25" print-frame="no"><root><root-step>C</root-step></root><kind text="7">dominant</kind></harmony><note><pitch><step>C</step><octave>4</octave></pitch><duration>384</duration><voice>1</voice><type>eighth</type><beam number="1">begin</beam><lyric default-y="-80" number="1" name="verse"><syllabic>single</syllabic><text>I</text></lyric></note><note><pitch><step>E</step><octave>4</octave></pitch><duration>384</duration><voice>1</voice><type>eighth</type><beam number="1">end</beam><lyric default-y="-80" number="1" name="verse"><syllabic>single</syllabic><text>hear</text></lyric></note><barline location="right"><bar-style>light-light</bar-style></barline></measure><measure number="26"><print new-system="yes"/><harmony relative-x="8" default-y="25" print-frame="no"><root><root-step>F</root-step></root><kind text="">major</kind></harmony><note><pitch><step>F</step><octave>4</octave></pitch><duration>1152</duration><voice>1</voice><type>quarter</type><dot/><lyric default-y="-80" number="1" name="verse"><syllabic>single</syllabic><text>ba-</text></lyric></note><note><pitch><step>A</step><octave>4</octave></pitch><duration>384</duration><voice>1</voice><type>eighth</type><lyric default-y="-80" number="1" name="verse"><syllabic>single</syllabic><text>bies</text></lyric></note><harmony relative-x="8" default-y="25" print-frame="no"><root><root-step>A</root-step></root><kind text="m">minor</kind></harmony><note><pitch><step>C</step><octave>5</octave></pitch><duration>1152</duration><voice>1</voice><type>quarter</type><dot/><lyric default-y="-80" number="1" name="verse"><syllabic>single</syllabic><text>cry</text></lyric></note><note><pitch><step>C</step><octave>5</octave></pitch><duration>384</duration><voice>1</voice><type>eighth</type><lyric default-y="-80" number="1" name="verse"><syllabic>single</syllabic><text>I</text></lyric><lyric default-y="-105" number="2" name="verse"><syllabic>single</syllabic><text>watch</text></lyric></note></measure><measure number="27"><harmony relative-x="8" default-y="25" print-frame="no"><root><root-step>B</root-step><root-alter>-1</root-alter></root><kind text="">major</kind></harmony><note><pitch><step>D</step><octave>5</octave></pitch><duration>1152</duration><voice>1</voice><type>quarter</type><dot/></note><note><pitch><step>D</step><octave>5</octave></pitch><duration>384</duration><voice>1</voice><type>eighth</type><lyric default-y="-80" number="1" name="verse"><syllabic>single</syllabic><text>them</text></lyric></note><harmony relative-x="8" default-y="25" print-frame="no"><root><root-step>A</root-step></root><kind text="m">minor</kind></harmony><note><pitch><step>C</step><octave>5</octave></pitch><duration>1536</duration><voice>1</voice><type>half</type><lyric default-y="-80" number="1" name="verse"><syllabic>single</syllabic><text>grow.</text></lyric></note></measure><measure number="28"><harmony relative-x="8" default-y="25" print-frame="no"><root><root-step>G</root-step></root><kind text="m7">minor-seventh</kind></harmony><note><rest/><duration>384</duration><voice>1</voice><type>eighth</type><lyric default-y="-80" number="1" name="verse"><syllabic>single</syllabic><text>They'll</text></lyric></note><note><pitch><step>B</step><alter>-1</alter><octave>4</octave></pitch><duration>384</duration><voice>1</voice><type>eighth</type><beam number="1">end</beam></note><note><pitch><step>B</step><alter>-1</alter><octave>4</octave></pitch><duration>384</duration><voice>1</voice><type>eighth</type><beam number="1">begin</beam><lyric default-y="-80" number="1" name="verse"><syllabic>single</syllabic><text>learn</text></lyric></note><note><pitch><step>B</step><alter>-1</alter><octave>4</octave></pitch><duration>384</duration><voice>1</voice><type>eighth</type><beam number="1">end</beam><lyric default-y="-80" number="1" name="verse"><syllabic>single</syllabic><text>much</text></lyric></note><harmony relative-x="8" default-y="25" print-frame="no"><root><root-step>F</root-step></root><kind text="">major</kind></harmony><note><pitch><step>A</step><octave>4</octave></pitch><duration>1152</duration><voice>1</voice><type>quarter</type><dot/><lyric default-y="-80" number="1" name="verse"><syllabic>single</syllabic><text>more</text></lyric></note><note><pitch><step>A</step><octave>4</octave></pitch><duration>384</duration><voice>1</voice><type>eighth</type><lyric default-y="-80" number="1" name="verse"><syllabic>single</syllabic><text>than</text></lyric></note></measure><measure number="29"><harmony relative-x="8" default-y="25" print-frame="no"><root><root-step>A</root-step></root><kind text="7">dominant</kind></harmony><note><pitch><step>G</step><octave>4</octave></pitch><duration>768</duration><tie type="start"/><voice>1</voice><type>quarter</type><notations><tied type="start"/></notations><lyric default-y="-80" number="1" name="verse"><syllabic>single</syllabic><text>I'll</text></lyric></note><note><pitch><step>G</step><octave>4</octave></pitch><duration>256</duration><tie type="stop"/><voice>1</voice><type>eighth</type><time-modification><actual-notes>3</actual-notes><normal-notes>2</normal-notes></time-modification><beam number="1">begin</beam><notations><tied type="stop"/><tuplet type="start" number="1"/></notations></note><note><pitch><step>G</step><octave>4</octave></pitch><duration>256</duration><voice>1</voice><type>eighth</type><time-modification><actual-notes>3</actual-notes><normal-notes>2</normal-notes></time-modification><beam number="1">continue</beam><lyric default-y="-80" number="1" name="verse"><syllabic>single</syllabic><text>ev-</text></lyric></note><note><pitch><step>G</step><octave>4</octave></pitch><duration>256</duration><voice>1</voice><type>eighth</type><time-modification><actual-notes>3</actual-notes><normal-notes>2</normal-notes></time-modification><beam number="1">end</beam><notations><tuplet type="stop" number="1"/></notations><lyric default-y="-80" number="1" name="verse"><syllabic>single</syllabic><text>er</text></lyric></note><harmony relative-x="8" default-y="25" print-frame="no"><root><root-step>D</root-step></root><kind text="m">minor</kind></harmony><note><pitch><step>F</step><octave>4</octave></pitch><duration>768</duration><tie type="start"/><voice>1</voice><type>quarter</type><notations><tied type="start"/></notations><lyric default-y="-80" number="1" name="verse"><syllabic>single</syllabic><text>know,</text></lyric></note><note><pitch><step>F</step><octave>4</octave></pitch><duration>256</duration><tie type="stop"/><voice>1</voice><type>eighth</type><time-modification><actual-notes>3</actual-notes><normal-notes>2</normal-notes></time-modification><beam number="1">begin</beam><notations><tied type="stop"/><tuplet type="start" number="1"/></notations></note><note><pitch><step>F</step><octave>4</octave></pitch><duration>256</duration><voice>1</voice><type>eighth</type><time-modification><actual-notes>3</actual-notes><normal-notes>2</normal-notes></time-modification><beam number="1">continue</beam><lyric default-y="-80" number="1" name="verse"><syllabic>single</syllabic><text>and</text></lyric></note><note><pitch><step>F</step><octave>4</octave></pitch><duration>256</duration><voice>1</voice><type>eighth</type><time-modification><actual-notes>3</actual-notes><normal-notes>2</normal-notes></time-modification><beam number="1">end</beam><notations><tuplet type="stop" number="1"/></notations><lyric default-y="-80" number="1" name="verse"><syllabic>single</syllabic><text>I</text></lyric></note></measure><measure number="30"><print new-system="yes"/><harmony relative-x="8" default-y="25" print-frame="no"><root><root-step>D</root-step><root-alter>-1</root-alter></root><kind text="">major</kind></harmony><note><pitch><step>F</step><octave>4</octave></pitch><duration>768</duration><tie type="start"/><voice>1</voice><type>quarter</type><notations><tied type="start"/></notations><lyric default-y="-80" number="1" name="verse"><syllabic>single</syllabic><text>think</text></lyric></note><note><pitch><step>F</step><octave>4</octave></pitch><duration>256</duration><tie type="stop"/><voice>1</voice><type>eighth</type><time-modification><actual-notes>3</actual-notes><normal-notes>2</normal-notes></time-modification><beam number="1">begin</beam><notations><tied type="stop"/><tuplet type="start" number="1"/></notations></note><note><pitch><step>F</step><octave>4</octave></pitch><duration>256</duration><voice>1</voice><type>eighth</type><time-modification><actual-notes>3</actual-notes><normal-notes>2</normal-notes></time-modification><beam number="1">continue</beam><lyric default-y="-80" number="1" name="verse"><syllabic>single</syllabic><text>to</text></lyric></note><note><pitch><step>F</step><octave>4</octave></pitch><duration>256</duration><voice>1</voice><type>eighth</type><time-modification><actual-notes>3</actual-notes><normal-notes>2</normal-notes></time-modification><beam number="1">end</beam><notations><tuplet type="stop" number="1"/></notations><lyric default-y="-80" number="1" name="verse"><syllabic>single</syllabic><text>my-</text></lyric></note><note><pitch><step>F</step><octave>4</octave></pitch><duration>1536</duration><voice>1</voice><type>half</type><lyric default-y="-80" number="1" name="verse"><syllabic>single</syllabic><text>self</text></lyric></note></measure><measure number="31"><harmony relative-x="8" default-y="25" print-frame="no"><root><root-step>G</root-step></root><kind text="m7">minor-seventh</kind><bass><bass-step>C</bass-step></bass></harmony><note><rest/><duration>768</duration><voice>1</voice><type>quarter</type></note><note><pitch><step>F</step><octave>4</octave></pitch><duration>384</duration><voice>1</voice><type>eighth</type><beam number="1">begin</beam><lyric default-y="-80" number="1" name="verse"><syllabic>single</syllabic><text>What</text></lyric></note><note><pitch><step>F</step><octave>4</octave></pitch><duration>384</duration><voice>1</voice><type>eighth</type><beam number="1">end</beam><lyric default-y="-80" number="1" name="verse"><syllabic>single</syllabic><text>A</text></lyric></note><harmony relative-x="8" default-y="25" print-frame="no"><root><root-step>C</root-step></root><kind text="7">dominant</kind></harmony><note><pitch><step>E</step><octave>4</octave></pitch><duration>512</duration><voice>1</voice><type>quarter</type><time-modification><actual-notes>3</actual-notes><normal-notes>2</normal-notes></time-modification><notations><tuplet type="start" number="1"/></notations><lyric default-y="-80" number="1" name="verse"><syllabic>single</syllabic><text>Won</text></lyric></note><note><pitch><step>F</step><octave>4</octave></pitch><duration>512</duration><voice>1</voice><type>quarter</type><time-modification><actual-notes>3</actual-notes><normal-notes>2</normal-notes></time-modification><lyric default-y="-80" number="1" name="verse"><syllabic>single</syllabic><text>-der</text></lyric></note><note><pitch><step>G</step><octave>4</octave></pitch><duration>512</duration><voice>1</voice><type>quarter</type><time-modification><actual-notes>3</actual-notes><normal-notes>2</normal-notes></time-modification><notations><tuplet type="stop" number="1"/></notations><lyric default-y="-80" number="1" name="verse"><syllabic>single</syllabic><text>ful</text></lyric></note></measure><measure number="32"><harmony relative-x="8" default-y="25" print-frame="no"><root><root-step>F</root-step></root><kind text="">major</kind></harmony><note><pitch><step>A</step><octave>4</octave></pitch><duration>1536</duration><tie type="start"/><voice>1</voice><type>half</type><notations><tied type="start"/></notations><lyric default-y="-80" number="1" name="verse"><syllabic>single</syllabic><text>World.</text></lyric></note><harmony relative-x="8" default-y="25" print-frame="no"><root><root-step>A</root-step></root><kind>minor-seventh</kind><degree><degree-value>5</degree-value><degree-alter>-1</degree-alter><degree-type>alter</degree-type></degree></harmony><note><pitch><step>A</step><octave>4</octave></pitch><duration>1536</duration><tie type="stop"/><tie type="start"/><voice>1</voice><type>half</type><notations><tied type="stop"/><tied type="start"/></notations></note></measure><measure number="33"><harmony relative-x="8" default-y="25" print-frame="no"><root><root-step>D</root-step></root><kind text="7">dominant</kind></harmony><note><pitch><step>A</step><octave>4</octave></pitch><duration>768</duration><tie type="stop"/><voice>1</voice><type>quarter</type><notations><tied type="stop"/></notations></note><note><rest/><duration>768</duration><voice>1</voice><type>quarter</type></note><note><pitch><step>A</step><octave>4</octave></pitch><duration>768</duration><voice>1</voice><type>quarter</type><lyric default-y="-80" number="1" name="verse"><syllabic>single</syllabic><text>Yes,</text></lyric></note><note><pitch><step>A</step><octave>4</octave></pitch><duration>768</duration><voice>1</voice><type>quarter</type><lyric default-y="-80" number="1" name="verse"><syllabic>single</syllabic><text>I</text></lyric></note></measure><measure number="34"><print new-system="yes"/><harmony relative-x="8" default-y="25" print-frame="no"><root><root-step>G</root-step></root><kind text="m7">minor-seventh</kind></harmony><note><pitch><step>A</step><octave>4</octave></pitch><duration>512</duration><voice>1</voice><type>quarter</type><time-modification><actual-notes>3</actual-notes><normal-notes>2</normal-notes></time-modification><notations><tuplet type="start" number="1"/></notations><lyric default-y="-80" number="1" name="verse"><syllabic>single</syllabic><text>think</text></lyric></note><note><pitch><step>F</step><octave>4</octave></pitch><duration>512</duration><voice>1</voice><type>quarter</type><time-modification><actual-notes>3</actual-notes><normal-notes>2</normal-notes></time-modification><lyric default-y="-80" number="1" name="verse"><syllabic>single</syllabic><text>to</text></lyric></note><note><pitch><step>G</step><octave>4</octave></pitch><duration>512</duration><voice>1</voice><type>quarter</type><time-modification><actual-notes>3</actual-notes><normal-notes>2</normal-notes></time-modification><notations><tuplet type="stop" number="1"/></notations><lyric default-y="-80" number="1" name="verse"><syllabic>single</syllabic><text>my</text></lyric></note><note><pitch><step>F</step><octave>4</octave></pitch><duration>1536</duration><voice>1</voice><type>half</type><lyric default-y="-80" number="1" name="verse"><syllabic>single</syllabic><text>self</text></lyric></note></measure><measure number="35"><harmony relative-x="8" default-y="25" print-frame="no"><root><root-step>G</root-step></root><kind text="m7">minor-seventh</kind><bass><bass-step>C</bass-step></bass></harmony><note><rest/><duration>768</duration><voice>1</voice><type>quarter</type></note><note><pitch><step>F</step><octave>4</octave></pitch><duration>384</duration><voice>1</voice><type>eighth</type><beam number="1">begin</beam><lyric default-y="-80" number="1" name="verse"><syllabic>single</syllabic><text>What</text></lyric></note><note><pitch><step>F</step><octave>4</octave></pitch><duration>384</duration><voice>1</voice><type>eighth</type><beam number="1">end</beam><lyric default-y="-80" number="1" name="verse"><syllabic>single</syllabic><text>A</text></lyric></note><harmony relative-x="8" default-y="25" print-frame="no"><root><root-step>C</root-step></root><kind>dominant</kind><degree><degree-value>9</degree-value><degree-alter>-1</degree-alter><degree-type>add</degree-type></degree></harmony><note><pitch><step>E</step><octave>4</octave></pitch><duration>512</duration><voice>1</voice><type>quarter</type><time-modification><actual-notes>3</actual-notes><normal-notes>2</normal-notes></time-modification><notations><tuplet type="start" number="1"/></notations><lyric default-y="-80" number="1" name="verse"><syllabic>single</syllabic><text>Won</text></lyric></note><note><pitch><step>F</step><octave>4</octave></pitch><duration>512</duration><voice>1</voice><type>quarter</type><time-modification><actual-notes>3</actual-notes><normal-notes>2</normal-notes></time-modification><lyric default-y="-80" number="1" name="verse"><syllabic>single</syllabic><text>der</text></lyric></note><note><pitch><step>G</step><octave>4</octave></pitch><duration>512</duration><voice>1</voice><type>quarter</type><time-modification><actual-notes>3</actual-notes><normal-notes>2</normal-notes></time-modification><notations><tuplet type="stop" number="1"/></notations><lyric default-y="-80" number="1" name="verse"><syllabic>single</syllabic><text>ful</text></lyric></note></measure><measure number="36"><harmony relative-x="8" default-y="25" print-frame="no"><root><root-step>F</root-step></root><kind text="">major</kind></harmony><note><pitch><step>F</step><octave>4</octave></pitch><duration>1536</duration><tie type="start"/><voice>1</voice><type>half</type><notations><tied type="start"/></notations><lyric default-y="-80" number="1" name="verse"><syllabic>single</syllabic><text>World.</text></lyric></note><harmony relative-x="8" default-y="25" print-frame="no"><root><root-step>B</root-step><root-alter>-1</root-alter></root><kind text="6">major-sixth</kind></harmony><note><pitch><step>F</step><octave>4</octave></pitch><duration>1536</duration><tie type="stop"/><tie type="start"/><voice>1</voice><type>half</type><notations><tied type="stop"/><tied type="start"/></notations></note></measure><measure number="37"><note><pitch><step>F</step><octave>4</octave></pitch><duration>1536</duration><tie type="stop"/><tie type="start"/><voice>1</voice><type>half</type><notations><tied type="stop"/><tied type="start"/></notations></note><harmony relative-x="8" default-y="25" print-frame="no"><root><root-step>F</root-step></root><kind text="">major</kind></harmony><note><pitch><step>F</step><octave>4</octave></pitch><duration>1536</duration><tie type="stop"/><voice>1</voice><type>half</type><notations><tied type="stop"/><fermata/></notations></note><barline location="right"><bar-style>light-heavy</bar-style></barline></measure></part></score-partwise>