<score-partwise version="2.0"><work><work-number/><work-title/></work><movement-number/><movement-title>You've Got a Friend</movement-title><identification><creator type="composer">Carole King</creator><creator type="poet"/><rights>All Rights Reserved</rights><encoding><software>Sibelius 5.2</software><software>Dolet 4 for Sibelius, Beta 4</software><supports type="no" element="accidental"/><supports type="no" element="transpose"/><software>ProxyMusic 2.0 c</software></encoding><source>http://wikifonia.org/node/697/revisions/6780/view</source></identification><defaults><scaling><millimeters>6</millimeters><tenths>40</tenths></scaling><page-layout><page-height>1980</page-height><page-width>1400</page-width></page-layout></defaults><part-list><score-part id="P1"><part-name> </part-name><part-abbreviation> </part-abbreviation><score-instrument id="P1-I1"><instrument-name>Unnamed (treble staff)</instrument-name><instrument-abbreviation> </instrument-abbreviation></score-instrument><midi-instrument id="P1-I1"><volume>79</volume><pan>0</pan></midi-instrument></score-part></part-list><part id="P1"><measure number="1"><attributes><divisions>768</divisions><key><fifths>-4</fifths><mode>major</mode></key><time><beats>4</beats><beat-type>4</beat-type></time><clef><sign>G</sign><line>2</line></clef></attributes><harmony relative-x="8" default-y="25" print-frame="no"><root><root-step>A</root-step><root-alter>-1</root-alter></root><kind text="">major</kind></harmony><note><rest/><duration>3072</duration><voice>1</voice></note></measure><measure number="2"><harmony relative-x="8" default-y="25" print-frame="no"><root><root-step>D</root-step><root-alter>-1</root-alter></root><kind text="">major</kind><bass><bass-step>A</bass-step><bass-alter>-1</bass-alter></bass></harmony><note><rest/><duration>3072</duration><voice>1</voice></note></measure><measure number="3"><harmony relative-x="11" default-y="25" print-frame="no"><root><root-step>D</root-step><root-alter>-1</root-alter></root><kind text="">major</kind><bass><bass-step>A</bass-step><bass-alter>-1</bass-alter></bass></harmony><note><rest/><duration>3072</duration><voice>1</voice></note><harmony default-y="25" print-frame="no"><root><root-step>A</root-step><root-alter>-1</root-alter></root><kind text="">major</kind><offset>-1035</offset></harmony></measure><measure number="4"><harmony relative-x="8" default-y="25" print-frame="no"><root><root-step>G</root-step></root><kind text="m">minor</kind></harmony><note><rest/><duration>1536</duration><voice>1</voice><type>half</type></note><harmony relative-x="8" default-y="25" print-frame="no"><root><root-step>C</root-step></root><kind text="7">dominant</kind></harmony><note><rest/><duration>384</duration><voice>1</voice><type>eighth</type></note><note><pitch><step>A</step><alter>-1</alter><octave>3</octave></pitch><duration>384</duration><voice>1</voice><type>eighth</type><lyric default-y="-80" number="1" name="verse"><syllabic>single</syllabic><text>When</text></lyric></note><note><pitch><step>B</step><alter>-1</alter><octave>3</octave></pitch><duration>384</duration><voice>1</voice><type>eighth</type><beam number="1">begin</beam><lyric default-y="-80" number="1" name="verse"><syllabic>single</syllabic><text>you're</text></lyric></note><note><pitch><step>C</step><octave>4</octave></pitch><duration>384</duration><tie type="start"/><voice>1</voice><type>eighth</type><beam number="1">end</beam><notations><tied type="start"/></notations><lyric default-y="-80" number="1" name="verse"><syllabic>single</syllabic><text>down</text></lyric></note></measure><measure number="5"><print new-system="yes"/><barline location="left"><bar-style>heavy-light</bar-style><repeat direction="forward"/></barline><harmony relative-x="8" default-y="25" print-frame="no"><root><root-step>F</root-step></root><kind text="m">minor</kind></harmony><note><pitch><step>C</step><octave>4</octave></pitch><duration>768</duration><tie type="stop"/><voice>1</voice><type>quarter</type><notations><tied type="stop"/></notations></note><note><rest/><duration>768</duration><voice>1</voice><type>quarter</type></note><note><rest/><duration>768</duration><voice>1</voice><type>quarter</type></note><note><pitch><step>C</step><octave>4</octave></pitch><duration>384</duration><voice>1</voice><type>eighth</type><beam number="1">begin</beam><lyric default-y="-80" number="1" name="verse"><syllabic>single</syllabic><text>and</text></lyric></note><note><pitch><step>D</step><alter>-1</alter><octave>4</octave></pitch><duration>384</duration><voice>1</voice><type>eighth</type><beam number="1">end</beam><notations><slur type="start" number="1"/></notations><lyric default-y="-80" number="1" name="verse"><syllabic>single</syllabic><text>trou-</text></lyric></note></measure><measure number="6"><note><pitch><step>C</step><octave>4</octave></pitch><duration>384</duration><voice>1</voice><type>eighth</type><notations><slur type="stop" number="1"/></notations></note><harmony relative-x="8" default-y="25" print-frame="no"><root><root-step>C</root-step></root><kind text="7">dominant</kind><bass><bass-step>G</bass-step></bass></harmony><note><pitch><step>C</step><octave>4</octave></pitch><duration>1152</duration><voice>1</voice><type>quarter</type><dot/><lyric default-y="-80" number="1" name="verse"><syllabic>single</syllabic><text>bled</text></lyric></note><note><rest/><duration>384</duration><voice>1</voice><type>eighth</type></note><note><pitch><step>F</step><octave>4</octave></pitch><duration>384</duration><voice>1</voice><type>eighth</type><lyric default-y="-80" number="1" name="verse"><syllabic>single</syllabic><text>and</text></lyric></note><note><pitch><step>G</step><octave>4</octave></pitch><duration>384</duration><voice>1</voice><type>eighth</type><beam number="1">begin</beam><lyric default-y="-80" number="1" name="verse"><syllabic>single</syllabic><text>you</text></lyric></note><note><pitch><step>A</step><alter>-1</alter><octave>4</octave></pitch><duration>384</duration><tie type="start"/><voice>1</voice><type>eighth</type><beam number="1">end</beam><notations><tied type="start"/></notations><lyric default-y="-80" number="1" name="verse"><syllabic>single</syllabic><text>need</text></lyric></note></measure><measure number="7"><harmony relative-x="8" default-y="25" print-frame="no"><root><root-step>F</root-step></root><kind text="m">minor</kind></harmony><note><pitch><step>A</step><alter>-1</alter><octave>4</octave></pitch><duration>1152</duration><tie type="stop"/><voice>1</voice><type>quarter</type><dot/><notations><tied type="stop"/></notations></note><note><pitch><step>A</step><alter>-1</alter><octave>4</octave></pitch><duration>384</duration><voice>1</voice><type>eighth</type><lyric default-y="-80" number="1" name="verse"><syllabic>single</syllabic><text>some</text></lyric></note><note><pitch><step>G</step><octave>4</octave></pitch><duration>384</duration><voice>1</voice><type>eighth</type><lyric default-y="-79" number="1" name="verse"><syllabic>begin</syllabic><text>lov</text></lyric></note><harmony relative-x="8" default-y="25" print-frame="no"><root><root-step>C</root-step></root><kind text="7">dominant</kind><bass><bass-step>G</bass-step></bass></harmony><note><pitch><step>F</step><octave>4</octave></pitch><duration>768</duration><voice>1</voice><type>quarter</type><lyric default-y="-80" number="1" name="verse"><syllabic>end</syllabic><text>ing</text></lyric></note><note><pitch><step>C</step><octave>4</octave></pitch><duration>384</duration><tie type="start"/><voice>1</voice><type>eighth</type><notations><tied type="start"/></notations><lyric default-y="-80" number="1" name="verse"><syllabic>single</syllabic><text>care</text></lyric></note></measure><measure number="8"><harmony relative-x="8" default-y="25" print-frame="no"><root><root-step>F</root-step></root><kind text="m">minor</kind><bass><bass-step>A</bass-step><bass-alter>-1</bass-alter></bass></harmony><note><pitch><step>C</step><octave>4</octave></pitch><duration>768</duration><tie type="stop"/><voice>1</voice><type>quarter</type><notations><tied type="stop"/></notations></note><note><rest/><duration>768</duration><voice>1</voice><type>quarter</type></note><harmony relative-x="8" default-y="25" print-frame="no"><root><root-step>G</root-step></root><kind text="m7">minor-seventh</kind></harmony><note><rest/><duration>768</duration><voice>1</voice><type>quarter</type></note><note><rest/><duration>384</duration><voice>1</voice><type>eighth</type></note><note><pitch><step>C</step><octave>4</octave></pitch><duration>384</duration><voice>1</voice><type>eighth</type><lyric default-y="-80" number="1" name="verse"><syllabic>single</syllabic><text>and</text></lyric></note></measure><measure number="9"><print new-system="yes"/><harmony relative-x="8" default-y="25" print-frame="no"><root><root-step>B</root-step><root-alter>-1</root-alter></root><kind text="m7">minor-seventh</kind></harmony><note><pitch><step>D</step><alter>-1</alter><octave>4</octave></pitch><duration>384</duration><voice>1</voice><type>eighth</type><beam number="1">begin</beam><lyric relative-x="-1" default-y="-80" number="1" name="verse"><syllabic>begin</syllabic><text>no</text></lyric></note><note><pitch><step>D</step><alter>-1</alter><octave>4</octave></pitch><duration>384</duration><voice>1</voice><type>eighth</type><beam number="1">end</beam><lyric default-y="-80" number="1" name="verse"><syllabic>end</syllabic><text>thing,</text></lyric></note><note><rest/><duration>768</duration><voice>1</voice><type>quarter</type></note><note><rest/><duration>1536</duration><voice>1</voice><type>half</type></note></measure><measure number="10"><harmony relative-x="8" default-y="25" print-frame="no"><root><root-step>E</root-step><root-alter>-1</root-alter></root><kind text="7">dominant</kind></harmony><note><pitch><step>F</step><octave>4</octave></pitch><duration>384</duration><voice>1</voice><type>eighth</type><beam number="1">begin</beam><lyric default-y="-80" number="1" name="verse"><syllabic>single</syllabic><text>no-</text></lyric></note><note><pitch><step>E</step><alter>-1</alter><octave>4</octave></pitch><duration>384</duration><voice>1</voice><type>eighth</type><beam number="1">end</beam><lyric default-y="-80" number="1" name="verse"><syllabic>single</syllabic><text>thing</text></lyric></note><note><pitch><step>C</step><octave>4</octave></pitch><duration>384</duration><voice>1</voice><type>eighth</type><beam number="1">begin</beam><lyric default-y="-80" number="1" name="verse"><syllabic>single</syllabic><text>is</text></lyric></note><note><pitch><step>E</step><alter>-1</alter><octave>4</octave></pitch><duration>384</duration><tie type="start"/><voice>1</voice><type>eighth</type><beam number="1">end</beam><notations><tied type="start"/></notations><lyric default-y="-80" number="1" name="verse"><syllabic>single</syllabic><text>go-</text></lyric></note><note><pitch><step>E</step><alter>-1</alter><octave>4</octave></pitch><duration>384</duration><tie type="stop"/><voice>1</voice><type>eighth</type><notations><tied type="stop"/></notations></note><note><pitch><step>F</step><octave>4</octave></pitch><duration>768</duration><voice>1</voice><type>quarter</type><lyric default-y="-80" number="1" name="verse"><syllabic>single</syllabic><text>ing</text></lyric></note><note><pitch><step>C</step><octave>4</octave></pitch><duration>384</duration><tie type="start"/><voice>1</voice><type>eighth</type><notations><tied type="start"/></notations><lyric default-y="-80" number="1" name="verse"><syllabic>single</syllabic><text>right</text></lyric></note></measure><measure number="11"><harmony relative-x="8" default-y="25" print-frame="no"><root><root-step>A</root-step><root-alter>-1</root-alter></root><kind text="">major</kind></harmony><note><pitch><step>C</step><octave>4</octave></pitch><duration>768</duration><tie type="stop"/><voice>1</voice><type>quarter</type><notations><tied type="stop"/></notations></note><note><rest/><duration>768</duration><voice>1</voice><type>quarter</type></note><note><rest/><duration>1536</duration><voice>1</voice><type>half</type></note></measure><measure number="12"><note><rest/><duration>3072</duration><voice>1</voice></note></measure><measure number="13"><print new-system="yes"/><harmony relative-x="8" default-y="25" print-frame="no"><root><root-step>G</root-step></root><kind text="m7">minor-seventh</kind></harmony><note><pitch><step>C</step><octave>4</octave></pitch><duration>768</duration><voice>1</voice><type>quarter</type><lyric default-y="-80" number="1" name="verse"><syllabic>single</syllabic><text>Close</text></lyric></note><note><pitch><step>C</step><octave>4</octave></pitch><duration>384</duration><voice>1</voice><type>eighth</type><beam number="1">begin</beam><lyric default-y="-80" number="1" name="verse"><syllabic>single</syllabic><text>your</text></lyric></note><note><pitch><step>C</step><octave>4</octave></pitch><duration>384</duration><tie type="start"/><voice>1</voice><type>eighth</type><beam number="1">end</beam><notations><tied type="start"/></notations><lyric default-y="-80" number="1" name="verse"><syllabic>single</syllabic><text>eyes</text></lyric></note><note><pitch><step>C</step><octave>4</octave></pitch><duration>1152</duration><tie type="stop"/><voice>1</voice><type>quarter</type><dot/><notations><tied type="stop"/></notations></note><note><pitch><step>C</step><octave>4</octave></pitch><duration>384</duration><voice>1</voice><type>eighth</type><lyric default-y="-80" number="1" name="verse"><syllabic>single</syllabic><text>and</text></lyric></note></measure><measure number="14"><harmony relative-x="8" default-y="25" print-frame="no"><root><root-step>C</root-step></root><kind text="7">dominant</kind></harmony><note><pitch><step>D</step><alter>-1</alter><octave>4</octave></pitch><duration>384</duration><voice>1</voice><type>eighth</type><beam number="1">begin</beam><lyric default-y="-80" number="1" name="verse"><syllabic>single</syllabic><text>think</text></lyric></note><note><pitch><step>C</step><octave>4</octave></pitch><duration>384</duration><voice>1</voice><type>eighth</type><beam number="1">end</beam><lyric default-y="-80" number="1" name="verse"><syllabic>single</syllabic><text>of</text></lyric></note><note><pitch><step>C</step><octave>4</octave></pitch><duration>768</duration><voice>1</voice><type>quarter</type><lyric default-y="-80" number="1" name="verse"><syllabic>single</syllabic><text>me</text></lyric></note><note><rest/><duration>768</duration><voice>1</voice><type>quarter</type></note><note><rest/><duration>384</duration><voice>1</voice><type>eighth</type></note><note><pitch><step>C</step><octave>4</octave></pitch><duration>384</duration><voice>1</voice><type>eighth</type><lyric default-y="-80" number="1" name="verse"><syllabic>single</syllabic><text>and</text></lyric></note></measure><measure number="15"><harmony relative-x="8" default-y="25" print-frame="no"><root><root-step>F</root-step></root><kind text="m">minor</kind></harmony><note><pitch><step>A</step><alter>-1</alter><octave>4</octave></pitch><duration>1152</duration><voice>1</voice><type>quarter</type><dot/><lyric default-y="-80" number="1" name="verse"><syllabic>single</syllabic><text>soon</text></lyric></note><note><pitch><step>A</step><alter>-1</alter><octave>4</octave></pitch><duration>384</duration><tie type="start"/><voice>1</voice><type>eighth</type><notations><tied type="start"/></notations><lyric default-y="-80" number="1" name="verse"><syllabic>single</syllabic><text>I</text></lyric></note><note><pitch><step>A</step><alter>-1</alter><octave>4</octave></pitch><duration>384</duration><tie type="stop"/><voice>1</voice><type>eighth</type><beam number="1">begin</beam><notations><tied type="stop"/></notations></note><harmony relative-x="8" default-y="25" print-frame="no"><root><root-step>C</root-step></root><kind text="7">dominant</kind><bass><bass-step>G</bass-step></bass></harmony><note><pitch><step>G</step><octave>4</octave></pitch><duration>384</duration><voice>1</voice><type>eighth</type><beam number="1">end</beam><lyric default-y="-80" number="1" name="verse"><syllabic>single</syllabic><text>will</text></lyric></note><note><pitch><step>F</step><octave>4</octave></pitch><duration>384</duration><voice>1</voice><type>eighth</type><beam number="1">begin</beam><lyric default-y="-80" number="1" name="verse"><syllabic>single</syllabic><text>be</text></lyric></note><note><pitch><step>C</step><octave>4</octave></pitch><duration>384</duration><tie type="start"/><voice>1</voice><type>eighth</type><beam number="1">end</beam><notations><tied type="start"/></notations><lyric default-y="-80" number="1" name="verse"><syllabic>single</syllabic><text>there</text></lyric></note></measure><measure number="16"><harmony relative-x="8" default-y="25" print-frame="no"><root><root-step>F</root-step></root><kind text="m">minor</kind><bass><bass-step>A</bass-step><bass-alter>-1</bass-alter></bass></harmony><note><pitch><step>C</step><octave>4</octave></pitch><duration>768</duration><tie type="stop"/><voice>1</voice><type>quarter</type><notations><tied type="stop"/></notations></note><note><rest/><duration>768</duration><voice>1</voice><type>quarter</type></note><harmony relative-x="8" default-y="25" print-frame="no"><root><root-step>C</root-step></root><kind text="7">dominant</kind><bass><bass-step>G</bass-step></bass></harmony><note><rest/><duration>768</duration><voice>1</voice><type>quarter</type></note><harmony relative-x="8" default-y="25" print-frame="no"><root><root-step>F</root-step></root><kind text="m">minor</kind></harmony><note><rest/><duration>384</duration><voice>1</voice><type>eighth</type></note><note><pitch><step>C</step><octave>4</octave></pitch><duration>384</duration><voice>1</voice><type>eighth</type><lyric default-y="-80" number="1" name="verse"><syllabic>single</syllabic><text>to</text></lyric></note></measure><measure number="17"><print new-system="yes"/><harmony relative-x="8" default-y="25" print-frame="no"><root><root-step>B</root-step><root-alter>-1</root-alter></root><kind text="m7">minor-seventh</kind></harmony><note><pitch><step>D</step><alter>-1</alter><octave>4</octave></pitch><duration>768</duration><voice>1</voice><type>quarter</type><lyric default-y="-80" number="1" name="verse"><syllabic>single</syllabic><text>bright-</text></lyric></note><note><pitch><step>D</step><alter>-1</alter><octave>4</octave></pitch><duration>384</duration><voice>1</voice><type>eighth</type><beam number="1">begin</beam><lyric default-y="-80" number="1" name="verse"><syllabic>single</syllabic><text>en</text></lyric></note><note><pitch><step>D</step><alter>-1</alter><octave>4</octave></pitch><duration>384</duration><voice>1</voice><type>eighth</type><beam number="1">end</beam><lyric default-y="-80" number="1" name="verse"><syllabic>single</syllabic><text>up</text></lyric></note><note><rest/><duration>768</duration><voice>1</voice><type>quarter</type></note><note><rest/><duration>384</duration><voice>1</voice><type>eighth</type></note><note><pitch><step>F</step><octave>4</octave></pitch><duration>384</duration><voice>1</voice><type>eighth</type><notations><slur type="start" number="1"/></notations><lyric default-y="-80" number="1" name="verse"><syllabic>single</syllabic><text>e-</text></lyric></note></measure><measure number="18"><note><pitch><step>F</step><octave>4</octave></pitch><duration>384</duration><voice>1</voice><type>eighth</type><beam number="1">begin</beam><notations><slur type="stop" number="1"/></notations></note><harmony relative-x="8" default-y="25" print-frame="no"><root><root-step>C</root-step></root><kind text="m7">minor-seventh</kind></harmony><note><pitch><step>E</step><alter>-1</alter><octave>4</octave></pitch><duration>384</duration><voice>1</voice><type>eighth</type><beam number="1">end</beam><lyric default-y="-80" number="1" name="verse"><syllabic>single</syllabic><text>ven</text></lyric></note><note><pitch><step>C</step><octave>4</octave></pitch><duration>384</duration><voice>1</voice><type>eighth</type><beam number="1">begin</beam><lyric default-y="-80" number="1" name="verse"><syllabic>single</syllabic><text>your</text></lyric></note><note><pitch><step>E</step><alter>-1</alter><octave>4</octave></pitch><duration>384</duration><tie type="start"/><voice>1</voice><type>eighth</type><beam number="1">end</beam><notations><tied type="start"/></notations><lyric default-y="-80" number="1" name="verse"><syllabic>single</syllabic><text>dark-</text></lyric></note><note><pitch><step>E</step><alter>-1</alter><octave>4</octave></pitch><duration>384</duration><tie type="stop"/><voice>1</voice><type>eighth</type><notations><tied type="stop"/></notations></note><note><pitch><step>C</step><octave>4</octave></pitch><duration>768</duration><voice>1</voice><type>quarter</type><lyric default-y="-80" number="1" name="verse"><syllabic>single</syllabic><text>est</text></lyric></note><note><pitch><step>B</step><alter>-1</alter><octave>3</octave></pitch><duration>384</duration><tie type="start"/><voice>1</voice><type>eighth</type><notations><tied type="start"/></notations><lyric default-y="-80" number="1" name="verse"><syllabic>single</syllabic><text>night</text></lyric></note></measure><measure number="19"><harmony relative-x="8" default-y="25" print-frame="no"><root><root-step>D</root-step><root-alter>-1</root-alter></root><kind text="">major</kind><bass><bass-step>E</bass-step><bass-alter>-1</bass-alter></bass></harmony><note><pitch><step>B</step><alter>-1</alter><octave>3</octave></pitch><duration>768</duration><tie type="stop"/><voice>1</voice><type>quarter</type><notations><tied type="stop"/></notations></note><note><rest/><duration>768</duration><voice>1</voice><type>quarter</type></note><harmony relative-x="8" default-y="25" print-frame="no"><root><root-step>E</root-step><root-alter>-1</root-alter></root><kind text="">major</kind></harmony><note><rest/><duration>1536</duration><voice>1</voice><type>half</type></note></measure><measure number="20"><harmony relative-x="8" default-y="25" print-frame="no"><root><root-step>D</root-step><root-alter>-1</root-alter></root><kind text="">major</kind><bass><bass-step>E</bass-step><bass-alter>-1</bass-alter></bass></harmony><note><rest/><duration>1536</duration><voice>1</voice><type>half</type></note><harmony relative-x="8" default-y="25" print-frame="no"><root><root-step>E</root-step><root-alter>-1</root-alter></root><kind text="">major</kind></harmony><note><pitch><step>A</step><alter>-1</alter><octave>3</octave></pitch><duration>384</duration><voice>1</voice><type>eighth</type><lyric default-y="-80" number="1" name="verse"><syllabic>single</syllabic><text>You</text></lyric></note><note><pitch><step>B</step><alter>-1</alter><octave>3</octave></pitch><duration>768</duration><voice>1</voice><type>quarter</type><lyric default-y="-80" number="1" name="verse"><syllabic>single</syllabic><text>just</text></lyric></note><note><pitch><step>C</step><octave>4</octave></pitch><duration>384</duration><tie type="start"/><voice>1</voice><type>eighth</type><notations><tied type="start"/></notations><lyric default-y="-80" number="1" name="verse"><syllabic>single</syllabic><text>call</text></lyric></note></measure><measure number="21"><print new-system="yes"/><harmony relative-x="8" default-y="25" print-frame="no"><root><root-step>A</root-step><root-alter>-1</root-alter></root><kind text="">major</kind></harmony><note><pitch><step>C</step><octave>4</octave></pitch><duration>768</duration><tie type="stop"/><voice>1</voice><type>quarter</type><notations><tied type="stop"/></notations></note><note><rest/><duration>768</duration><voice>1</voice><type>quarter</type></note><note><pitch><step>A</step><alter>-1</alter><octave>3</octave></pitch><duration>384</duration><voice>1</voice><type>eighth</type><beam number="1">begin</beam><lyric default-y="-80" number="1" name="verse"><syllabic>single</syllabic><text>out</text></lyric></note><note><pitch><step>B</step><alter>-1</alter><octave>3</octave></pitch><duration>384</duration><voice>1</voice><type>eighth</type><beam number="1">end</beam><notations><slur type="start" number="1"/></notations><lyric default-y="-80" number="1" name="verse"><syllabic>single</syllabic><text>my</text></lyric></note><note><pitch><step>A</step><alter>-1</alter><octave>3</octave></pitch><duration>384</duration><voice>1</voice><type>eighth</type><beam number="1">begin</beam><notations><slur type="stop" number="1"/></notations></note><note><pitch><step>C</step><octave>4</octave></pitch><duration>384</duration><tie type="start"/><voice>1</voice><type>eighth</type><beam number="1">end</beam><notations><tied type="start"/></notations><lyric default-y="-80" number="1" name="verse"><syllabic>single</syllabic><text>name</text></lyric></note></measure><measure number="22"><note><pitch><step>C</step><octave>4</octave></pitch><duration>768</duration><tie type="stop"/><voice>1</voice><type>quarter</type><notations><tied type="stop"/></notations></note><note><rest/><duration>768</duration><voice>1</voice><type>quarter</type></note><note><rest/><duration>384</duration><voice>1</voice><type>eighth</type></note><note><pitch><step>B</step><alter>-1</alter><octave>3</octave></pitch><duration>384</duration><voice>1</voice><type>eighth</type><lyric default-y="-80" number="1" name="verse"><syllabic>single</syllabic><text>and</text></lyric></note><note><pitch><step>C</step><octave>4</octave></pitch><duration>384</duration><voice>1</voice><type>eighth</type><beam number="1">begin</beam><lyric default-y="-80" number="1" name="verse"><syllabic>single</syllabic><text>you</text></lyric></note><note><pitch><step>D</step><alter>-1</alter><octave>4</octave></pitch><duration>384</duration><tie type="start"/><voice>1</voice><type>eighth</type><beam number="1">end</beam><notations><tied type="start"/></notations><lyric default-y="-80" number="1" name="verse"><syllabic>single</syllabic><text>know</text></lyric></note></measure><measure number="23"><harmony relative-x="8" default-y="25" print-frame="no"><root><root-step>D</root-step><root-alter>-1</root-alter></root><kind text="">major</kind></harmony><note><pitch><step>D</step><alter>-1</alter><octave>4</octave></pitch><duration>768</duration><tie type="stop"/><voice>1</voice><type>quarter</type><notations><tied type="stop"/></notations></note><note><rest/><duration>384</duration><voice>1</voice><type>eighth</type></note><note><pitch><step>D</step><alter>-1</alter><octave>4</octave></pitch><duration>384</duration><voice>1</voice><type>eighth</type><lyric default-y="-80" number="1" name="verse"><syllabic>single</syllabic><text>wher-</text></lyric></note><note><pitch><step>D</step><alter>-1</alter><octave>4</octave></pitch><duration>384</duration><voice>1</voice><type>eighth</type><beam number="1">begin</beam><lyric default-y="-80" number="1" name="verse"><syllabic>single</syllabic><text>e-</text></lyric></note><note><pitch><step>C</step><octave>4</octave></pitch><duration>384</duration><voice>1</voice><type>eighth</type><beam number="1">end</beam><lyric default-y="-80" number="1" name="verse"><syllabic>single</syllabic><text>ver</text></lyric></note><note><pitch><step>B</step><alter>-1</alter><octave>3</octave></pitch><duration>384</duration><voice>1</voice><type>eighth</type><beam number="1">begin</beam><lyric default-y="-80" number="1" name="verse"><syllabic>single</syllabic><text>I</text></lyric></note><note><pitch><step>D</step><alter>-1</alter><octave>4</octave></pitch><duration>384</duration><tie type="start"/><voice>1</voice><type>eighth</type><beam number="1">end</beam><notations><tied type="start"/></notations><lyric default-y="-80" number="1" name="verse"><syllabic>single</syllabic><text>am</text></lyric></note></measure><measure number="24"><note><pitch><step>D</step><alter>-1</alter><octave>4</octave></pitch><duration>768</duration><tie type="stop"/><voice>1</voice><type>quarter</type><notations><tied type="stop"/></notations></note><note><rest/><duration>768</duration><voice>1</voice><type>quarter</type></note><note><pitch><step>D</step><alter>-1</alter><octave>4</octave></pitch><duration>768</duration><voice>1</voice><type>quarter</type><lyric default-y="-80" number="1" name="verse"><syllabic>single</syllabic><text>I'll</text></lyric></note><note><pitch><step>E</step><alter>-1</alter><octave>4</octave></pitch><duration>384</duration><voice>1</voice><type>eighth</type><beam number="1">begin</beam><lyric default-y="-80" number="1" name="verse"><syllabic>single</syllabic><text>come</text></lyric></note><note><pitch><step>D</step><alter>-1</alter><octave>4</octave></pitch><duration>384</duration><tie type="start"/><voice>1</voice><type>eighth</type><beam number="1">end</beam><notations><tied type="start"/></notations><lyric default-y="-80" number="1" name="verse"><syllabic>single</syllabic><text>run-</text></lyric></note></measure><measure number="25"><print new-system="yes"/><harmony relative-x="8" default-y="25" print-frame="no"><root><root-step>A</root-step><root-alter>-1</root-alter></root><kind text="">major</kind></harmony><note><pitch><step>D</step><alter>-1</alter><octave>4</octave></pitch><duration>384</duration><tie type="stop"/><voice>1</voice><type>eighth</type><notations><tied type="stop"/></notations></note><note><pitch><step>C</step><octave>4</octave></pitch><duration>1152</duration><voice>1</voice><type>quarter</type><dot/><lyric default-y="-80" number="1" name="verse"><syllabic>single</syllabic><text>ning</text></lyric></note><note><rest/><duration>1536</duration><voice>1</voice><type>half</type></note></measure><measure number="26"><note><rest/><duration>768</duration><voice>1</voice><type>quarter</type></note><note><rest/><duration>384</duration><voice>1</voice><type>eighth</type></note><note><pitch><step>A</step><alter>-1</alter><octave>3</octave></pitch><duration>384</duration><voice>1</voice><type>eighth</type><lyric default-y="-80" number="1" name="verse"><syllabic>single</syllabic><text>to</text></lyric></note><note><pitch><step>C</step><octave>4</octave></pitch><duration>384</duration><voice>1</voice><type>eighth</type><beam number="1">begin</beam><lyric default-y="-80" number="1" name="verse"><syllabic>single</syllabic><text>see</text></lyric></note><note><pitch><step>D</step><alter>-1</alter><octave>4</octave></pitch><duration>384</duration><voice>1</voice><type>eighth</type><beam number="1">end</beam><lyric default-y="-80" number="1" name="verse"><syllabic>single</syllabic><text>you</text></lyric></note><note><pitch><step>C</step><octave>4</octave></pitch><duration>384</duration><voice>1</voice><type>eighth</type><beam number="1">begin</beam><lyric default-y="-80" number="1" name="verse"><syllabic>single</syllabic><text>a-</text></lyric></note><note><pitch><step>C</step><octave>4</octave></pitch><duration>384</duration><voice>1</voice><type>eighth</type><beam number="1">end</beam><notations><slur type="start" number="1"/></notations><lyric default-y="-80" number="1" name="verse"><syllabic>single</syllabic><text>gain</text></lyric></note></measure><measure number="27"><note><pitch><step>B</step><alter>-1</alter><octave>3</octave></pitch><duration>768</duration><voice>1</voice><type>quarter</type><notations><slur type="stop" number="1"/></notations></note><harmony relative-x="8" default-y="25" print-frame="no"><root><root-step>D</root-step><root-alter>-1</root-alter></root><kind text="">major</kind><bass><bass-step>E</bass-step><bass-alter>-1</bass-alter></bass></harmony><note><rest/><duration>768</duration><voice>1</voice><type>quarter</type></note><note><rest/><duration>1536</duration><voice>1</voice><type>half</type></note></measure><measure number="28"><note><rest/><duration>3072</duration><voice>1</voice></note></measure><measure number="29"><harmony relative-x="8" default-y="25" print-frame="no"><root><root-step>A</root-step><root-alter>-1</root-alter></root><kind text="">major</kind></harmony><note><pitch><step>C</step><octave>4</octave></pitch><duration>384</duration><voice>1</voice><type>eighth</type><beam number="1">begin</beam><lyric default-y="-80" number="1" name="verse"><syllabic>single</syllabic><text>Win-ter,</text></lyric></note><note><pitch><step>E</step><alter>-1</alter><octave>4</octave></pitch><duration>384</duration><voice>1</voice><type>eighth</type><beam number="1">end</beam></note><note><pitch><step>E</step><alter>-1</alter><octave>4</octave></pitch><duration>768</duration><voice>1</voice><type>quarter</type><lyric default-y="-80" number="1" name="verse"><syllabic>single</syllabic><text>spring,</text></lyric></note><note><pitch><step>E</step><alter>-1</alter><octave>4</octave></pitch><duration>384</duration><voice>1</voice><type>eighth</type><beam number="1">begin</beam><lyric default-y="-80" number="1" name="verse"><syllabic>single</syllabic><text>sum-</text></lyric></note><note><pitch><step>C</step><octave>4</octave></pitch><duration>384</duration><voice>1</voice><type size="cue">eighth</type><beam number="1">end</beam><lyric default-y="-80" number="1" name="verse"><syllabic>single</syllabic><text>mer</text></lyric></note><note><rest/><duration>384</duration><voice>1</voice><type>eighth</type><lyric default-y="-80" number="1" name="verse"><syllabic>single</syllabic><text>or</text></lyric></note><note><pitch><step>F</step><octave>4</octave></pitch><duration>384</duration><voice>1</voice><type>eighth</type><notations><slur type="start" number="1"/></notations><lyric default-y="-80" number="1" name="verse"><syllabic>single</syllabic><text>fall</text></lyric></note></measure><measure number="30"><print new-system="yes"/><harmony relative-x="8" default-y="25" print-frame="no"><root><root-step>A</root-step><root-alter>-1</root-alter></root><kind text="maj9">major-ninth</kind></harmony><note><pitch><step>E</step><alter>-1</alter><octave>4</octave></pitch><duration>768</duration><voice>1</voice><type>quarter</type><notations><slur type="stop" number="1"/></notations></note><note><rest/><duration>768</duration><voice>1</voice><type>quarter</type></note><note><rest/><duration>1536</duration><voice>1</voice><type>half</type></note></measure><measure number="31"><harmony relative-x="8" default-y="25" print-frame="no"><root><root-step>D</root-step><root-alter>-1</root-alter></root><kind text="maj9">major-ninth</kind></harmony><note><pitch><step>F</step><octave>4</octave></pitch><duration>384</duration><voice>1</voice><type>eighth</type><beam number="1">begin</beam><lyric default-y="-80" number="1" name="verse"><syllabic>single</syllabic><text>all</text></lyric></note><note><pitch><step>A</step><alter>-1</alter><octave>4</octave></pitch><duration>384</duration><voice>1</voice><type>eighth</type><beam number="1">end</beam><lyric default-y="-80" number="1" name="verse"><syllabic>single</syllabic><text>you</text></lyric></note><note><pitch><step>A</step><alter>-1</alter><octave>4</octave></pitch><duration>384</duration><voice>1</voice><type>eighth</type><beam number="1">begin</beam><lyric default-y="-80" number="1" name="verse"><syllabic>single</syllabic><text>have</text></lyric></note><note><pitch><step>F</step><octave>4</octave></pitch><duration>384</duration><voice>1</voice><type>eighth</type><beam number="1">end</beam><lyric default-y="-80" number="1" name="verse"><syllabic>single</syllabic><text>to</text></lyric></note><harmony relative-x="8" default-y="25" print-frame="no"><root><root-step>D</root-step><root-alter>-1</root-alter></root><kind text="6">major-sixth</kind></harmony><note><pitch><step>A</step><alter>-1</alter><octave>4</octave></pitch><duration>384</duration><voice>1</voice><type>eighth</type><beam number="1">begin</beam><lyric default-y="-80" number="1" name="verse"><syllabic>single</syllabic><text>do</text></lyric></note><note><pitch><step>F</step><octave>4</octave></pitch><duration>384</duration><voice>1</voice><type>eighth</type><beam number="1">end</beam><lyric default-y="-80" number="1" name="verse"><syllabic>single</syllabic><text>is</text></lyric></note><note><pitch><step>B</step><alter>-1</alter><octave>4</octave></pitch><duration>384</duration><voice>1</voice><type>eighth</type><beam number="1">begin</beam><notations><slur type="start" number="1"/></notations><lyric default-y="-80" number="1" name="verse"><syllabic>single</syllabic><text>call</text></lyric></note><note><pitch><step>A</step><alter>-1</alter><octave>4</octave></pitch><duration>384</duration><tie type="start"/><voice>1</voice><type>eighth</type><beam number="1">end</beam><notations><tied type="start"/></notations></note></measure><measure number="32"><note><pitch><step>A</step><alter>-1</alter><octave>4</octave></pitch><duration>192</duration><tie type="stop"/><voice>1</voice><type>16th</type><beam number="1">begin</beam><beam number="2">begin</beam><notations><tied type="stop"/></notations></note><harmony relative-x="8" default-y="25" print-frame="no"><root><root-step>F</root-step></root><kind text="m7">minor-seventh</kind></harmony><note><pitch><step>F</step><octave>4</octave></pitch><duration>192</duration><voice>1</voice><type>16th</type><beam number="1">continue</beam><beam number="2">end</beam></note><note><pitch><step>E</step><alter>-1</alter><octave>4</octave></pitch><duration>384</duration><voice>1</voice><type>eighth</type><beam number="1">end</beam><notations><slur type="stop" number="1"/></notations></note><note><rest/><duration>768</duration><voice>1</voice><type>quarter</type></note><harmony relative-x="8" default-y="25" print-frame="no"><root><root-step>A</root-step><root-alter>-1</root-alter></root><kind text="7">dominant</kind><bass><bass-step>E</bass-step><bass-alter>-1</bass-alter></bass></harmony><note><rest/><duration>384</duration><voice>1</voice><type>eighth</type></note><note><pitch><step>E</step><alter>-1</alter><octave>4</octave></pitch><duration>384</duration><voice>1</voice><type>eighth</type><lyric default-y="-80" number="1" name="verse"><syllabic>single</syllabic><text>and</text></lyric></note><note><pitch><step>F</step><octave>4</octave></pitch><duration>384</duration><voice>1</voice><type>eighth</type><beam number="1">begin</beam><lyric default-y="-80" number="1" name="verse"><syllabic>single</syllabic><text>I'll</text></lyric></note><note><pitch><step>C</step><octave>5</octave></pitch><duration>384</duration><tie type="start"/><voice>1</voice><type>eighth</type><beam number="1">end</beam><notations><tied type="start"/></notations><lyric default-y="-80" number="1" name="verse"><syllabic>single</syllabic><text>be</text></lyric></note></measure><measure number="33"><harmony relative-x="8" default-y="25" print-frame="no"><root><root-step>D</root-step><root-alter>-1</root-alter></root><kind text="">major</kind></harmony><note><pitch><step>C</step><octave>5</octave></pitch><duration>384</duration><tie type="stop"/><voice>1</voice><type>eighth</type><beam number="1">begin</beam><notations><tied type="stop"/></notations></note><note><pitch><step>B</step><alter>-1</alter><octave>4</octave></pitch><duration>384</duration><voice>1</voice><type>eighth</type><beam number="1">end</beam><notations><slur type="start" number="1"/></notations><lyric default-y="-80" number="1" name="verse"><syllabic>single</syllabic><text>there</text></lyric></note><note><pitch><step>A</step><alter>-1</alter><octave>4</octave></pitch><duration>576</duration><voice>1</voice><type>eighth</type><dot/><beam number="1">begin</beam></note><note><pitch><step>F</step><octave>4</octave></pitch><duration>192</duration><voice>1</voice><type>16th</type><beam number="1">end</beam><beam number="2">backward hook</beam></note><note><pitch><step>F</step><octave>4</octave></pitch><duration>384</duration><voice>1</voice><type>eighth</type><beam number="1">begin</beam></note><harmony relative-x="8" default-y="25" print-frame="no"><root><root-step>C</root-step></root><kind text="7">dominant</kind></harmony><note><pitch><step>E</step><alter>-1</alter><octave>4</octave></pitch><duration>384</duration><voice>1</voice><type>eighth</type><beam number="1">end</beam></note><note><pitch><step>C</step><octave>4</octave></pitch><duration>192</duration><voice>1</voice><type>16th</type><beam number="1">begin</beam><beam number="2">begin</beam></note><note><pitch><step>B</step><alter>-1</alter><octave>3</octave></pitch><duration>192</duration><voice>1</voice><type>16th</type><beam number="1">continue</beam><beam number="2">continue</beam></note><note><pitch><step>A</step><alter>-1</alter><octave>3</octave></pitch><duration>192</duration><voice>1</voice><type>16th</type><beam number="1">continue</beam><beam number="2">continue</beam></note><note><pitch><step>B</step><alter>-1</alter><octave>3</octave></pitch><duration>192</duration><voice>1</voice><type>16th</type><beam number="1">end</beam><beam number="2">end</beam><notations><slur type="stop" number="1"/></notations></note></measure><measure number="34"><print new-system="yes"/><note><pitch><step>A</step><alter>-1</alter><octave>3</octave></pitch><duration>768</duration><voice>1</voice><type>quarter</type></note><harmony relative-x="8" default-y="25" print-frame="no"><root><root-step>B</root-step><root-alter>-1</root-alter></root><kind text="m">minor</kind></harmony><note><rest/><duration>768</duration><voice>1</voice><type>quarter</type></note><harmony relative-x="8" default-y="25" print-frame="no"><root><root-step>D</root-step><root-alter>-1</root-alter></root><kind text="">major</kind><bass><bass-step>E</bass-step><bass-alter>-1</bass-alter></bass></harmony><note><pitch><step>A</step><alter>-1</alter><octave>3</octave></pitch><duration>384</duration><voice>1</voice><type>eighth</type><beam number="1">begin</beam><lyric default-y="-80" number="1" name="verse"><syllabic>single</syllabic><text>you've</text></lyric></note><note><pitch><step>B</step><alter>-1</alter><octave>3</octave></pitch><duration>384</duration><voice>1</voice><type>eighth</type><beam number="1">end</beam><lyric default-y="-80" number="1" name="verse"><syllabic>single</syllabic><text>got</text></lyric></note><note><pitch><step>A</step><alter>-1</alter><octave>3</octave></pitch><duration>384</duration><voice>1</voice><type>eighth</type><beam number="1">begin</beam><lyric default-y="-80" number="1" name="verse"><syllabic>single</syllabic><text>a</text></lyric></note><note><pitch><step>E</step><alter>-1</alter><octave>4</octave></pitch><duration>384</duration><tie type="start"/><voice>1</voice><type>eighth</type><beam number="1">end</beam><notations><tied type="start"/><slur type="start" number="1"/></notations><lyric default-y="-80" number="1" name="verse"><syllabic>single</syllabic><text>friend</text></lyric></note></measure><measure number="35"><barline location="left"><ending type="start" number="1"/></barline><note><pitch><step>E</step><alter>-1</alter><octave>4</octave></pitch><duration>192</duration><tie type="stop"/><voice>1</voice><type>16th</type><beam number="1">begin</beam><beam number="2">begin</beam><notations><tied type="stop"/></notations></note><harmony relative-x="8" default-y="25" print-frame="no"><root><root-step>A</root-step><root-alter>-1</root-alter></root><kind text="">major</kind></harmony><note><pitch><step>D</step><alter>-1</alter><octave>4</octave></pitch><duration>192</duration><voice>1</voice><type>16th</type><beam number="1">continue</beam><beam number="2">end</beam></note><note><pitch><step>C</step><octave>4</octave></pitch><duration>384</duration><voice>1</voice><type>eighth</type><beam number="1">end</beam><notations><slur type="stop" number="1"/></notations></note><note><rest/><duration>768</duration><voice>1</voice><type>quarter</type></note><note><rest/><duration>1536</duration><voice>1</voice><type>half</type></note></measure><measure number="36"><harmony relative-x="8" default-y="25" print-frame="no"><root><root-step>D</root-step><root-alter>-1</root-alter></root><kind text="">major</kind><bass><bass-step>A</bass-step><bass-alter>-1</bass-alter></bass></harmony><note><rest/><duration>3072</duration><voice>1</voice></note></measure><measure number="37"><harmony relative-x="8" default-y="25" print-frame="no"><root><root-step>A</root-step><root-alter>-1</root-alter></root><kind text="">major</kind></harmony><harmony relative-x="8" default-y="25" print-frame="no"><root><root-step>D</root-step><root-alter>-1</root-alter></root><kind text="">major</kind><bass><bass-step>A</bass-step><bass-alter>-1</bass-alter></bass></harmony><note><rest/><duration>3072</duration><voice>1</voice></note></measure><measure number="38"><harmony default-y="25" print-frame="no"><root><root-step>G</root-step></root><kind text="m7">minor-seventh</kind><offset>381</offset></harmony><note><rest/><duration>1536</duration><voice>1</voice><type>half</type></note><harmony relative-x="8" default-y="25" print-frame="no"><root><root-step>C</root-step></root><kind text="7">dominant</kind></harmony><note><rest/><duration>384</duration><voice>1</voice><type>eighth</type></note><note><pitch><step>A</step><alter>-1</alter><octave>3</octave></pitch><duration>384</duration><voice>1</voice><type>eighth</type><lyric default-y="-110" number="1" name="verse"><syllabic>single</syllabic><text>2.If</text></lyric></note><note><pitch><step>B</step><alter>-1</alter><octave>3</octave></pitch><duration>384</duration><voice>1</voice><type>eighth</type><beam number="1">begin</beam><lyric default-y="-111" number="1" name="verse"><syllabic>single</syllabic><text>the</text></lyric></note><note><pitch><step>C</step><octave>4</octave></pitch><duration>384</duration><voice>1</voice><type>eighth</type><beam number="1">end</beam><notations><slur type="start" number="1"/></notations><lyric default-y="-112" number="1" name="verse"><syllabic>single</syllabic><text>sky</text></lyric></note><barline location="right"><bar-style>light-heavy</bar-style><ending type="stop" number="1"/><repeat direction="backward"/></barline></measure><measure number="39"><print new-system="yes"/><barline location="left"><ending type="start" number="2"/></barline><harmony relative-x="8" default-y="25" print-frame="no"><root><root-step>G</root-step><root-alter>-1</root-alter></root><kind text="">major</kind></harmony><note><pitch><step>D</step><alter>-1</alter><octave>4</octave></pitch><duration>384</duration><voice>1</voice><type>eighth</type><beam number="1">begin</beam><notations><slur type="stop" number="1"/></notations><lyric default-y="-80" number="1" name="verse"><syllabic>single</syllabic><text>Ain't</text></lyric></note><note><pitch><step>C</step><octave>4</octave></pitch><duration>384</duration><voice>1</voice><type>eighth</type><beam number="1">end</beam><lyric default-y="-80" number="1" name="verse"><syllabic>single</syllabic><text>it</text></lyric></note><note><pitch><step>D</step><alter>-1</alter><octave>4</octave></pitch><duration>384</duration><voice>1</voice><type>eighth</type><beam number="1">begin</beam><lyric default-y="-80" number="1" name="verse"><syllabic>single</syllabic><text>good</text></lyric></note><note><pitch><step>C</step><octave>4</octave></pitch><duration>384</duration><voice>1</voice><type>eighth</type><beam number="1">end</beam><lyric default-y="-80" number="1" name="verse"><syllabic>single</syllabic><text>to</text></lyric></note><note><pitch><step>D</step><alter>-1</alter><octave>4</octave></pitch><duration>384</duration><voice>1</voice><type>eighth</type><beam number="1">begin</beam><notations><slur type="start" number="1"/></notations><lyric default-y="-80" number="1" name="verse"><syllabic>single</syllabic><text>know</text></lyric></note><note><pitch><step>C</step><octave>4</octave></pitch><duration>384</duration><voice>1</voice><type>eighth</type><beam number="1">end</beam><notations><slur type="stop" number="1"/></notations><lyric default-y="-80" number="1" name="verse"><syllabic>single</syllabic><text>that</text></lyric></note><note><pitch><step>C</step><octave>4</octave></pitch><duration>384</duration><voice>1</voice><type>eighth</type><beam number="1">begin</beam><lyric default-y="-80" number="1" name="verse"><syllabic>single</syllabic><text>you</text></lyric></note><note><pitch><step>E</step><alter>-1</alter><octave>4</octave></pitch><duration>384</duration><tie type="start"/><voice>1</voice><type>eighth</type><beam number="1">end</beam><notations><tied type="start"/></notations><lyric default-y="-80" number="1" name="verse"><syllabic>single</syllabic><text>'ve</text></lyric></note></measure><measure number="40"><harmony relative-x="8" default-y="25" print-frame="no"><root><root-step>D</root-step><root-alter>-1</root-alter></root><kind text="">major</kind></harmony><note><pitch><step>E</step><alter>-1</alter><octave>4</octave></pitch><duration>384</duration><tie type="stop"/><voice>1</voice><type>eighth</type><beam number="1">begin</beam><notations><tied type="stop"/></notations></note><note><pitch><step>D</step><alter>-1</alter><octave>4</octave></pitch><duration>384</duration><voice>1</voice><type>eighth</type><beam number="1">end</beam><lyric default-y="-80" number="1" name="verse"><syllabic>single</syllabic><text>got</text></lyric></note><note><pitch><step>C</step><octave>4</octave></pitch><duration>384</duration><voice>1</voice><type>eighth</type><beam number="1">begin</beam><lyric default-y="-80" number="1" name="verse"><syllabic>single</syllabic><text>friend</text></lyric><lyric default-y="-105" number="2" name="verse"><syllabic>single</syllabic><text>a</text></lyric></note><note><pitch><step>D</step><alter>-1</alter><octave>4</octave></pitch><duration>384</duration><voice>1</voice><type>eighth</type><beam number="1">end</beam></note><note><rest/><duration>768</duration><voice>1</voice><type>quarter</type></note><note><rest/><duration>384</duration><voice>1</voice><type>eighth</type></note><note><pitch><step>D</step><alter>-1</alter><octave>4</octave></pitch><duration>384</duration><voice>1</voice><type>eighth</type><lyric default-y="-80" number="1" name="verse"><syllabic>single</syllabic><text>when</text></lyric></note><barline location="right"><ending type="discontinue" number="2"/></barline></measure><measure number="41"><harmony relative-x="8" default-y="25" print-frame="no"><root><root-step>A</root-step><root-alter>-1</root-alter></root><kind text="">major</kind></harmony><note><pitch><step>C</step><octave>4</octave></pitch><duration>384</duration><voice>1</voice><type>eighth</type><beam number="1">begin</beam><lyric default-y="-80" number="1" name="verse"><syllabic>single</syllabic><text>peo-</text></lyric></note><note><pitch><step>E</step><alter>-1</alter><octave>4</octave></pitch><duration>384</duration><voice>1</voice><type>eighth</type><beam number="1">end</beam><lyric default-y="-80" number="1" name="verse"><syllabic>single</syllabic><text>ple</text></lyric></note><note><pitch><step>C</step><octave>4</octave></pitch><duration>384</duration><voice>1</voice><type>eighth</type><beam number="1">begin</beam><lyric default-y="-80" number="1" name="verse"><syllabic>single</syllabic><text>can</text></lyric></note><note><pitch><step>E</step><alter>-1</alter><octave>4</octave></pitch><duration>384</duration><voice>1</voice><type>eighth</type><beam number="1">end</beam><lyric default-y="-80" number="1" name="verse"><syllabic>single</syllabic><text>be</text></lyric></note><note><rest/><duration>384</duration><voice>1</voice><type>eighth</type></note><note><pitch><step>F</step><octave>4</octave></pitch><duration>768</duration><voice>1</voice><type>quarter</type><lyric default-y="-80" number="1" name="verse"><syllabic>single</syllabic><text>so</text></lyric></note><note><pitch><step>E</step><alter>-1</alter><octave>4</octave></pitch><duration>384</duration><voice>1</voice><type>eighth</type><notations><slur type="start" number="1"/></notations><lyric default-y="-80" number="1" name="verse"><syllabic>single</syllabic><text>cold</text></lyric></note></measure><measure number="42"><harmony relative-x="8" default-y="25" print-frame="no"><root><root-step>A</root-step><root-alter>-1</root-alter></root><kind text="maj9">major-ninth</kind></harmony><note><pitch><step>C</step><octave>4</octave></pitch><duration>768</duration><voice>1</voice><type>quarter</type><notations><slur type="stop" number="1"/></notations></note><note><rest/><duration>768</duration><voice>1</voice><type>quarter</type></note><note><rest/><duration>768</duration><voice>1</voice><type>quarter</type><lyric relative-x="1" default-y="-80" number="1" name="verse"><syllabic>single</syllabic><text>They'll</text></lyric></note><note><pitch><step>E</step><alter>-1</alter><octave>4</octave></pitch><duration>384</duration><voice>1</voice><type>eighth</type><beam number="1">begin</beam></note><note><pitch><step>F</step><octave>4</octave></pitch><duration>384</duration><tie type="start"/><voice>1</voice><type>eighth</type><beam number="1">end</beam><notations><tied type="start"/></notations><lyric default-y="-80" number="1" name="verse"><syllabic>single</syllabic><text>hurt</text></lyric></note></measure><measure number="43"><harmony relative-x="8" default-y="25" print-frame="no"><root><root-step>D</root-step><root-alter>-1</root-alter></root><kind text="maj7">major-seventh</kind></harmony><note><pitch><step>F</step><octave>4</octave></pitch><duration>384</duration><tie type="stop"/><voice>1</voice><type>eighth</type><beam number="1">begin</beam><notations><tied type="stop"/></notations></note><note><pitch><step>G</step><octave>4</octave></pitch><duration>384</duration><voice>1</voice><type>eighth</type><beam number="1">end</beam><lyric default-y="-80" number="1" name="verse"><syllabic>single</syllabic><text>you</text></lyric></note><note><rest/><duration>768</duration><voice>1</voice><type>quarter</type></note><note><pitch><step>A</step><alter>-1</alter><octave>3</octave></pitch><duration>384</duration><voice>1</voice><type>eighth</type><beam number="1">begin</beam><lyric default-y="-80" number="1" name="verse"><syllabic>single</syllabic><text>yes,</text></lyric></note><note><pitch><step>B</step><alter>-1</alter><octave>3</octave></pitch><duration>384</duration><voice>1</voice><type>eighth</type><beam number="1">end</beam><lyric default-y="-80" number="1" name="verse"><syllabic>single</syllabic><text>and</text></lyric></note><note><pitch><step>A</step><alter>-1</alter><octave>3</octave></pitch><duration>384</duration><voice>1</voice><type>eighth</type><beam number="1">begin</beam><lyric default-y="-80" number="1" name="verse"><syllabic>single</syllabic><text>de-</text></lyric></note><note><pitch><step>E</step><alter>-1</alter><octave>4</octave></pitch><duration>384</duration><voice>1</voice><type>eighth</type><beam number="1">end</beam><notations><slur type="start" number="1"/></notations><lyric default-y="-80" number="1" name="verse"><syllabic>single</syllabic><text>sert</text></lyric></note></measure><measure number="44"><harmony relative-x="8" default-y="25" print-frame="no"><root><root-step>G</root-step><root-alter>-1</root-alter></root><kind text="7">dominant</kind></harmony><note><pitch><step>D</step><alter>-1</alter><octave>4</octave></pitch><duration>384</duration><voice>1</voice><type>eighth</type><notations><slur type="stop" number="1"/></notations></note><note><pitch><step>D</step><alter>-1</alter><octave>4</octave></pitch><duration>1152</duration><voice>1</voice><type>quarter</type><dot/><lyric default-y="-80" number="1" name="verse"><syllabic>single</syllabic><text>you</text></lyric></note><note><rest/><duration>768</duration><voice>1</voice><type>quarter</type></note><note><rest/><duration>384</duration><voice>1</voice><type>eighth</type></note><note><pitch><step>D</step><alter>-1</alter><octave>4</octave></pitch><duration>384</duration><voice>1</voice><type>eighth</type><lyric default-y="-80" number="1" name="verse"><syllabic>single</syllabic><text>and</text></lyric></note></measure><measure number="45"><harmony relative-x="8" default-y="25" print-frame="no"><root><root-step>F</root-step></root><kind text="m">minor</kind></harmony><note><pitch><step>C</step><octave>4</octave></pitch><duration>384</duration><voice>1</voice><type>eighth</type><lyric default-y="-80" number="1" name="verse"><syllabic>single</syllabic><text>take</text></lyric></note><note><pitch><step>D</step><alter>-1</alter><octave>4</octave></pitch><duration>768</duration><voice>1</voice><type>quarter</type><lyric default-y="-80" number="1" name="verse"><syllabic>single</syllabic><text>your</text></lyric></note><note><pitch><step>A</step><alter>-1</alter><octave>4</octave></pitch><duration>384</duration><tie type="start"/><voice>1</voice><type>eighth</type><notations><tied type="start"/></notations><lyric default-y="-80" number="1" name="verse"><syllabic>single</syllabic><text>soul</text></lyric></note><note><pitch><step>A</step><alter>-1</alter><octave>4</octave></pitch><duration>384</duration><tie type="stop"/><voice>1</voice><type>eighth</type><beam number="1">begin</beam><notations><tied type="stop"/></notations></note><note><pitch><step>F</step><octave>4</octave></pitch><duration>384</duration><voice>1</voice><type>eighth</type><beam number="1">end</beam><lyric default-y="-80" number="1" name="verse"><syllabic>single</syllabic><text>if</text></lyric></note><note><pitch><step>A</step><alter>-1</alter><octave>4</octave></pitch><duration>384</duration><voice>1</voice><type>eighth</type><beam number="1">begin</beam><lyric default-y="-80" number="1" name="verse"><syllabic>single</syllabic><text>you</text></lyric></note><note><pitch><step>G</step><octave>4</octave></pitch><duration>384</duration><voice>1</voice><type>eighth</type><beam number="1">end</beam><lyric default-y="-80" number="1" name="verse"><syllabic>single</syllabic><text>let</text></lyric></note></measure><measure number="46"><harmony relative-x="8" default-y="25" print-frame="no"><root><root-step>B</root-step><root-alter>-1</root-alter></root><kind text="7">dominant</kind></harmony><note><pitch><step>F</step><octave>4</octave></pitch><duration>768</duration><voice>1</voice><type>quarter</type><lyric default-y="-80" number="1" name="verse"><syllabic>single</syllabic><text>them</text></lyric></note><note><rest/><duration>768</duration><voice>1</voice><type>quarter</type></note><note><rest/><duration>384</duration><voice>1</voice><type>eighth</type></note><note><pitch><step>C</step><octave>4</octave></pitch><duration>768</duration><voice>1</voice><type>quarter</type><lyric default-y="-80" number="1" name="verse"><syllabic>single</syllabic><text>Oh,</text></lyric></note><note><pitch><step>C</step><octave>4</octave></pitch><duration>384</duration><voice>1</voice><type>eighth</type><lyric default-y="-80" number="1" name="verse"><syllabic>single</syllabic><text>but</text></lyric></note></measure><measure number="47"><harmony relative-x="8" default-y="25" print-frame="no"><root><root-step>D</root-step><root-alter>-1</root-alter></root><kind text="">major</kind><bass><bass-step>E</bass-step><bass-alter>-1</bass-alter></bass></harmony><note><pitch><step>C</step><octave>4</octave></pitch><duration>768</duration><voice>1</voice><type>quarter</type><lyric default-y="-80" number="1" name="verse"><syllabic>single</syllabic><text>don't</text></lyric></note><note><pitch><step>E</step><alter>-1</alter><octave>4</octave></pitch><duration>384</duration><voice>1</voice><type>eighth</type><beam number="1">begin</beam><lyric default-y="-80" number="1" name="verse"><syllabic>single</syllabic><text>you</text></lyric></note><note><pitch><step>C</step><octave>4</octave></pitch><duration>384</duration><tie type="start"/><voice>1</voice><type>eighth</type><beam number="1">end</beam><notations><tied type="start"/></notations><lyric default-y="-80" number="1" name="verse"><syllabic>single</syllabic><text>let</text></lyric></note><note><pitch><step>C</step><octave>4</octave></pitch><duration>384</duration><tie type="stop"/><voice>1</voice><type>eighth</type><notations><tied type="stop"/></notations></note><note><pitch><step>B</step><alter>-1</alter><octave>3</octave></pitch><duration>1152</duration><voice>1</voice><type>quarter</type><dot/><lyric default-y="-80" number="1" name="verse"><syllabic>single</syllabic><text>them</text></lyric></note></measure><measure number="48"><harmony relative-x="8" default-y="25" print-frame="no"><root><root-step>E</root-step><root-alter>-1</root-alter></root><kind text="">major</kind></harmony><note><rest/><duration>1536</duration><voice>1</voice><type>half</type></note><note><pitch><step>A</step><alter>-1</alter><octave>3</octave></pitch><duration>384</duration><voice>1</voice><type>eighth</type><lyric default-y="-80" number="1" name="verse"><syllabic>single</syllabic><text>You</text></lyric></note><note><pitch><step>B</step><alter>-1</alter><octave>3</octave></pitch><duration>768</duration><voice>1</voice><type>quarter</type><lyric default-y="-80" number="1" name="verse"><syllabic>single</syllabic><text>just</text></lyric></note><note><pitch><step>C</step><octave>4</octave></pitch><duration>384</duration><voice>1</voice><type>eighth</type><lyric default-y="-80" number="1" name="verse"><syllabic>single</syllabic><text>call</text></lyric></note><barline location="right"><bar-style>light-heavy</bar-style></barline></measure></part></score-partwise>