<score-partwise version="2.0"><work><work-number/><work-title/></work><movement-number/><movement-title>La vie en rose</movement-title><identification><creator type="composer">Louiguy</creator><creator type="poet">Edith Piaf</creator><rights>All Rights Reserved</rights><encoding><software>MuseScore 0.9.5</software><encoding-date>2009-04-04</encoding-date><software>ProxyMusic 2.0 c</software></encoding><source>http://wikifonia.org/node/847/revisions/2003/view</source></identification><defaults><scaling><millimeters>5.7</millimeters><tenths>40</tenths></scaling><page-layout><page-margins type="both"><left-margin>62.9921</left-margin><right-margin>62.9921</right-margin><top-margin>62.9921</top-margin><bottom-margin>125.984</bottom-margin></page-margins></page-layout></defaults><part-list><score-part id="P1"><part-name>Flute</part-name><score-instrument id="P1-I3"><instrument-name>Flute</instrument-name></score-instrument><midi-instrument id="P1-I3"><midi-channel>1</midi-channel><midi-program>74</midi-program></midi-instrument></score-part></part-list><part id="P1"><measure number="0" implicit="yes"><attributes><divisions>2</divisions><key><fifths>0</fifths><mode>major</mode></key><time><beats>4</beats><beat-type>4</beat-type></time><clef><sign>G</sign><line>2</line></clef></attributes><note><pitch><step>E</step><octave>4</octave></pitch><duration>1</duration><voice>1</voice><type>eighth</type><stem>up</stem><lyric number="1"><syllabic>single</syllabic><text>Des</text></lyric></note><harmony print-frame="yes"><root><root-step>G</root-step></root><kind text="7b9">dominant</kind><degree><degree-value>9</degree-value><degree-alter>-1</degree-alter><degree-type>add</degree-type></degree></harmony><note><pitch><step>E</step><octave>4</octave></pitch><duration>1</duration><voice>1</voice><type>eighth</type><stem>up</stem><beam number="1">begin</beam><lyric number="1"><syllabic>single</syllabic><text>yeux</text></lyric></note><note><pitch><step>D</step><octave>4</octave></pitch><duration>1</duration><voice>1</voice><type>eighth</type><stem>up</stem><beam number="1">end</beam><lyric number="1"><syllabic>single</syllabic><text>qui</text></lyric></note></measure><measure number="1"><harmony print-frame="yes"><root><root-step>C</root-step></root><kind text="">major</kind></harmony><note><pitch><step>C</step><octave>4</octave></pitch><duration>1</duration><voice>1</voice><type>eighth</type><stem>up</stem><beam number="1">begin</beam><lyric number="1"><syllabic>single</syllabic><text>font</text></lyric></note><note><pitch><step>B</step><octave>3</octave></pitch><duration>1</duration><voice>1</voice><type>eighth</type><stem>up</stem><beam number="1">continue</beam><lyric number="1"><syllabic>begin</syllabic><text>bais</text></lyric></note><note><pitch><step>C</step><octave>4</octave></pitch><duration>1</duration><voice>1</voice><type>eighth</type><stem>up</stem><beam number="1">continue</beam><lyric number="1"><syllabic>end</syllabic><text>ser</text></lyric></note><note><pitch><step>D</step><octave>4</octave></pitch><duration>1</duration><voice>1</voice><type>eighth</type><stem>up</stem><beam number="1">end</beam><lyric number="1"><syllabic>single</syllabic><text>les</text></lyric></note><note><pitch><step>E</step><octave>4</octave></pitch><duration>3</duration><voice>1</voice><type>quarter</type><dot/><stem>up</stem><lyric number="1"><syllabic>single</syllabic><text>miens,</text></lyric></note><note><pitch><step>F</step><octave>4</octave></pitch><duration>1</duration><voice>1</voice><type>eighth</type><stem>up</stem><lyric number="1"><syllabic>single</syllabic><text>Un</text></lyric></note></measure><measure number="2"><harmony print-frame="yes"><root><root-step>A</root-step></root><kind text="7b9">dominant</kind><degree><degree-value>9</degree-value><degree-alter>-1</degree-alter><degree-type>add</degree-type></degree></harmony><note><pitch><step>F</step><octave>4</octave></pitch><duration>1</duration><voice>1</voice><type>eighth</type><stem>up</stem><beam number="1">begin</beam><lyric number="1"><syllabic>single</syllabic><text>rir'</text></lyric></note><note><pitch><step>E</step><octave>4</octave></pitch><duration>1</duration><voice>1</voice><type>eighth</type><stem>up</stem><beam number="1">continue</beam><lyric number="1"><syllabic>single</syllabic><text>qui</text></lyric></note><harmony print-frame="yes"><root><root-step>D</root-step></root><kind text="m">minor</kind></harmony><note><pitch><step>D</step><octave>4</octave></pitch><duration>1</duration><voice>1</voice><type>eighth</type><stem>up</stem><beam number="1">continue</beam><lyric number="1"><syllabic>single</syllabic><text>se</text></lyric></note><note><pitch><step>C</step><alter>1</alter><octave>4</octave></pitch><duration>1</duration><voice>1</voice><type>eighth</type><accidental>sharp</accidental><stem>up</stem><beam number="1">end</beam><lyric number="1"><syllabic>single</syllabic><text>perd</text></lyric></note><note><pitch><step>D</step><octave>4</octave></pitch><duration>1</duration><voice>1</voice><type>eighth</type><stem>up</stem><beam number="1">begin</beam><lyric number="1"><syllabic>single</syllabic><text>sur</text></lyric></note><note><pitch><step>E</step><octave>4</octave></pitch><duration>1</duration><voice>1</voice><type>eighth</type><stem>up</stem><beam number="1">end</beam><lyric number="1"><syllabic>single</syllabic><text>sa</text></lyric></note><note><pitch><step>F</step><octave>4</octave></pitch><duration>2</duration><tie type="start"/><voice>1</voice><type>quarter</type><stem>up</stem><notations><tied type="start"/></notations><lyric number="1"><syllabic>single</syllabic><text>bouch'</text></lyric></note></measure><measure number="3"><print new-system="yes"/><note><pitch><step>F</step><octave>4</octave></pitch><duration>1</duration><tie type="stop"/><voice>1</voice><type>eighth</type><stem>up</stem><beam number="1">begin</beam><notations><tied type="stop"/></notations></note><note><pitch><step>G</step><octave>4</octave></pitch><duration>1</duration><voice>1</voice><type>eighth</type><stem>up</stem><beam number="1">continue</beam><lyric number="1"><syllabic>begin</syllabic><text>Voi</text></lyric></note><harmony print-frame="yes"><root><root-step>G</root-step></root><kind text="7">dominant</kind></harmony><note><pitch><step>G</step><octave>4</octave></pitch><duration>1</duration><voice>1</voice><type>eighth</type><stem>up</stem><beam number="1">continue</beam><lyric number="1"><syllabic>end</syllabic><text>là</text></lyric></note><note><pitch><step>F</step><octave>4</octave></pitch><duration>1</duration><voice>1</voice><type>eighth</type><stem>up</stem><beam number="1">end</beam><lyric number="1"><syllabic>single</syllabic><text>le</text></lyric></note><harmony print-frame="yes"><root><root-step>C</root-step></root><kind text="">major</kind></harmony><note><pitch><step>E</step><octave>4</octave></pitch><duration>1</duration><voice>1</voice><type>eighth</type><stem>up</stem><beam number="1">begin</beam><lyric number="1"><syllabic>begin</syllabic><text>por</text></lyric></note><note><pitch><step>D</step><octave>4</octave></pitch><duration>1</duration><voice>1</voice><type>eighth</type><stem>up</stem><beam number="1">continue</beam><lyric number="1"><syllabic>end</syllabic><text>trait</text></lyric></note><note><pitch><step>E</step><octave>4</octave></pitch><duration>1</duration><voice>1</voice><type>eighth</type><stem>up</stem><beam number="1">continue</beam><lyric number="1"><syllabic>single</syllabic><text>sans</text></lyric></note><note><pitch><step>F</step><octave>4</octave></pitch><duration>1</duration><voice>1</voice><type>eighth</type><stem>up</stem><beam number="1">end</beam><lyric number="1"><syllabic>begin</syllabic><text>re</text></lyric></note></measure><measure number="4"><harmony print-frame="yes"><root><root-step>G</root-step></root><kind text="m">minor</kind></harmony><note><pitch><step>G</step><octave>4</octave></pitch><duration>3</duration><voice>1</voice><type>quarter</type><dot/><stem>up</stem><lyric number="1"><syllabic>end</syllabic><text>touch'</text></lyric></note><note><pitch><step>G</step><octave>4</octave></pitch><duration>1</duration><voice>1</voice><type>eighth</type><stem>up</stem><beam number="1">begin</beam><lyric number="1"><syllabic>single</syllabic><text>De</text></lyric></note><note><pitch><step>G</step><octave>4</octave></pitch><duration>1</duration><voice>1</voice><type>eighth</type><stem>up</stem><beam number="1">continue</beam><lyric number="1"><syllabic>begin</syllabic><text>l'hom</text></lyric></note><note><pitch><step>G</step><octave>4</octave></pitch><duration>1</duration><voice>1</voice><type>eighth</type><stem>up</stem><beam number="1">continue</beam><lyric number="1"><syllabic>end</syllabic><text>me</text></lyric></note><harmony print-frame="yes"><root><root-step>A</root-step></root><kind text="7">dominant</kind></harmony><note><pitch><step>G</step><octave>4</octave></pitch><duration>1</duration><voice>1</voice><type>eighth</type><stem>up</stem><beam number="1">continue</beam><lyric number="1"><syllabic>begin</syllabic><text>au</text></lyric></note><note><pitch><step>G</step><octave>4</octave></pitch><duration>1</duration><voice>1</voice><type>eighth</type><stem>up</stem><beam number="1">end</beam><lyric number="1"><syllabic>end</syllabic><text>quel</text></lyric></note></measure><measure number="5"><note><pitch><step>D</step><alter>1</alter><octave>4</octave></pitch><duration>1</duration><voice>1</voice><type>eighth</type><accidental>sharp</accidental><stem>up</stem><beam number="1">begin</beam><lyric number="1"><syllabic>begin</syllabic><text>j'ap</text></lyric></note><note><pitch><step>E</step><octave>4</octave></pitch><duration>1</duration><voice>1</voice><type>eighth</type><stem>up</stem><beam number="1">end</beam><lyric number="1"><syllabic>middle</syllabic><text>par</text></lyric></note><harmony print-frame="yes"><root><root-step>D</root-step></root><kind text="m7">minor-seventh</kind></harmony><note><pitch><step>G</step><octave>4</octave></pitch><duration>4</duration><voice>1</voice><type>half</type><stem>up</stem><lyric number="1"><syllabic>end</syllabic><text>tiens</text></lyric></note><harmony print-frame="yes"><root><root-step>G</root-step></root><kind text="7">dominant</kind></harmony><note><rest/><duration>2</duration><voice>1</voice><type>quarter</type></note></measure><measure number="6"><print new-system="yes"/><barline location="left"><bar-style>heavy-light</bar-style><repeat direction="forward"/></barline><harmony print-frame="yes"><root><root-step>C</root-step></root><kind text="">major</kind></harmony><note><pitch><step>C</step><octave>5</octave></pitch><duration>3</duration><voice>1</voice><type>quarter</type><dot/><stem>down</stem><lyric number="1"><syllabic>single</syllabic><text>Quand</text></lyric></note><note><pitch><step>B</step><octave>4</octave></pitch><duration>1</duration><voice>1</voice><type>eighth</type><stem>down</stem><lyric number="1"><syllabic>single</syllabic><text>il</text></lyric></note><note><pitch><step>A</step><octave>4</octave></pitch><duration>1</duration><voice>1</voice><type>eighth</type><stem>up</stem><beam number="1">begin</beam><lyric number="1"><syllabic>single</syllabic><text>me</text></lyric></note><note><pitch><step>G</step><octave>4</octave></pitch><duration>1</duration><voice>1</voice><type>eighth</type><stem>up</stem><beam number="1">continue</beam><lyric number="1"><syllabic>single</syllabic><text>prend</text></lyric></note><note><pitch><step>E</step><octave>4</octave></pitch><duration>1</duration><voice>1</voice><type>eighth</type><stem>up</stem><beam number="1">continue</beam><lyric number="1"><syllabic>single</syllabic><text>dans</text></lyric></note><note><pitch><step>C</step><octave>5</octave></pitch><duration>1</duration><voice>1</voice><type>eighth</type><stem>down</stem><beam number="1">end</beam><lyric number="1"><syllabic>single</syllabic><text>ses</text></lyric></note></measure><measure number="7"><harmony print-frame="yes"><root><root-step>C</root-step></root><kind text="Maj7">major-seventh</kind></harmony><note><pitch><step>B</step><octave>4</octave></pitch><duration>3</duration><voice>1</voice><type>quarter</type><dot/><stem>down</stem><lyric number="1"><syllabic>single</syllabic><text>bras</text></lyric></note><note><pitch><step>A</step><octave>4</octave></pitch><duration>1</duration><voice>1</voice><type>eighth</type><stem>up</stem><lyric number="1"><syllabic>single</syllabic><text>Il</text></lyric></note><harmony print-frame="yes"><root><root-step>C</root-step></root><kind text="6">major-sixth</kind></harmony><note><pitch><step>G</step><octave>4</octave></pitch><duration>1</duration><voice>1</voice><type>eighth</type><stem>up</stem><beam number="1">begin</beam><lyric number="1"><syllabic>single</syllabic><text>me</text></lyric></note><note><pitch><step>E</step><octave>4</octave></pitch><duration>1</duration><voice>1</voice><type>eighth</type><stem>up</stem><beam number="1">continue</beam><lyric number="1"><syllabic>begin</syllabic><text>par</text></lyric></note><note><pitch><step>C</step><octave>4</octave></pitch><duration>1</duration><voice>1</voice><type>eighth</type><stem>up</stem><beam number="1">continue</beam><lyric number="1"><syllabic>end</syllabic><text>le</text></lyric></note><note><pitch><step>B</step><octave>4</octave></pitch><duration>1</duration><voice>1</voice><type>eighth</type><stem>down</stem><beam number="1">end</beam><lyric number="1"><syllabic>single</syllabic><text>tout</text></lyric></note></measure><measure number="8"><harmony print-frame="yes"><root><root-step>C</root-step></root><kind text="">major</kind></harmony><note><pitch><step>A</step><octave>4</octave></pitch><duration>3</duration><voice>1</voice><type>quarter</type><dot/><stem>up</stem><lyric number="1"><syllabic>single</syllabic><text>bas,</text></lyric></note><note><pitch><step>G</step><octave>4</octave></pitch><duration>1</duration><voice>1</voice><type>eighth</type><stem>up</stem><lyric number="1"><syllabic>single</syllabic><text>Je</text></lyric></note><note><pitch><step>E</step><octave>4</octave></pitch><duration>1</duration><voice>1</voice><type>eighth</type><stem>up</stem><beam number="1">begin</beam><lyric number="1"><syllabic>single</syllabic><text>vois</text></lyric></note><note><pitch><step>B</step><octave>3</octave></pitch><duration>1</duration><voice>1</voice><type>eighth</type><stem>up</stem><beam number="1">continue</beam><lyric number="1"><syllabic>single</syllabic><text>la</text></lyric></note><note><pitch><step>C</step><octave>4</octave></pitch><duration>1</duration><voice>1</voice><type>eighth</type><stem>up</stem><beam number="1">continue</beam><lyric number="1"><syllabic>single</syllabic><text>vie</text></lyric></note><note><pitch><step>B</step><octave>4</octave></pitch><duration>1</duration><voice>1</voice><type>eighth</type><stem>down</stem><beam number="1">end</beam><lyric number="1"><syllabic>single</syllabic><text>en</text></lyric></note></measure><measure number="9"><harmony print-frame="yes"><root><root-step>D</root-step></root><kind text="m7">minor-seventh</kind></harmony><note><pitch><step>A</step><octave>4</octave></pitch><duration>4</duration><voice>1</voice><type>half</type><stem>up</stem><notations><slur type="start" number="1"/></notations><lyric number="1"><syllabic>begin</syllabic><text>ro</text></lyric></note><harmony print-frame="yes"><root><root-step>G</root-step></root><kind text="7">dominant</kind></harmony><note><pitch><step>G</step><octave>4</octave></pitch><duration>4</duration><voice>1</voice><type>half</type><stem>up</stem><notations><slur type="stop" number="1"/></notations><lyric number="1"><syllabic>end</syllabic><text>se</text></lyric></note></measure><measure number="10"><print new-system="yes"/><harmony print-frame="yes"><root><root-step>D</root-step></root><kind text="m7">minor-seventh</kind></harmony><note><pitch><step>F</step><octave>5</octave></pitch><duration>3</duration><voice>1</voice><type>quarter</type><dot/><stem>down</stem><lyric number="1"><syllabic>single</syllabic><text>Il</text></lyric></note><note><pitch><step>C</step><octave>5</octave></pitch><duration>1</duration><voice>1</voice><type>eighth</type><stem>down</stem><lyric number="1"><syllabic>single</syllabic><text>me</text></lyric></note><harmony print-frame="yes"><root><root-step>G</root-step></root><kind text="7">dominant</kind></harmony><note><pitch><step>B</step><octave>4</octave></pitch><duration>1</duration><voice>1</voice><type>eighth</type><stem>down</stem><beam number="1">begin</beam><lyric number="1"><syllabic>single</syllabic><text>dit</text></lyric></note><note><pitch><step>A</step><octave>4</octave></pitch><duration>1</duration><voice>1</voice><type>eighth</type><stem>up</stem><beam number="1">continue</beam><lyric number="1"><syllabic>single</syllabic><text>des</text></lyric></note><note><pitch><step>F</step><octave>4</octave></pitch><duration>1</duration><voice>1</voice><type>eighth</type><stem>up</stem><beam number="1">continue</beam><lyric number="1"><syllabic>single</syllabic><text>mots</text></lyric></note><note><pitch><step>C</step><octave>5</octave></pitch><duration>1</duration><voice>1</voice><type>eighth</type><stem>down</stem><beam number="1">end</beam><lyric number="1"><syllabic>begin</syllabic><text>d'a</text></lyric></note></measure><measure number="11"><harmony print-frame="yes"><root><root-step>G</root-step></root><kind text="7">dominant</kind></harmony><note><pitch><step>B</step><octave>4</octave></pitch><duration>3</duration><voice>1</voice><type>quarter</type><dot/><stem>down</stem><lyric number="1"><syllabic>end</syllabic><text>mour,</text></lyric></note><note><pitch><step>A</step><octave>4</octave></pitch><duration>1</duration><voice>1</voice><type>eighth</type><stem>up</stem><lyric number="1"><syllabic>single</syllabic><text>Des</text></lyric></note><note><pitch><step>G</step><octave>4</octave></pitch><duration>1</duration><voice>1</voice><type>eighth</type><stem>up</stem><beam number="1">begin</beam><lyric number="1"><syllabic>single</syllabic><text>mots</text></lyric></note><note><pitch><step>F</step><octave>4</octave></pitch><duration>1</duration><voice>1</voice><type>eighth</type><stem>up</stem><beam number="1">continue</beam><lyric number="1"><syllabic>single</syllabic><text>de</text></lyric></note><note><pitch><step>D</step><octave>4</octave></pitch><duration>1</duration><voice>1</voice><type>eighth</type><stem>up</stem><beam number="1">continue</beam><lyric number="1"><syllabic>single</syllabic><text>tous</text></lyric></note><note><pitch><step>B</step><octave>4</octave></pitch><duration>1</duration><voice>1</voice><type>eighth</type><stem>down</stem><beam number="1">end</beam><lyric number="1"><syllabic>single</syllabic><text>les</text></lyric></note></measure><measure number="12"><harmony print-frame="yes"><root><root-step>D</root-step></root><kind text="m7">minor-seventh</kind></harmony><note><pitch><step>A</step><octave>4</octave></pitch><duration>3</duration><voice>1</voice><type>quarter</type><dot/><stem>up</stem><lyric number="1"><syllabic>single</syllabic><text>jours,</text></lyric></note><note><pitch><step>G</step><octave>4</octave></pitch><duration>1</duration><voice>1</voice><type>eighth</type><stem>up</stem><lyric number="1"><syllabic>single</syllabic><text>Et</text></lyric></note><harmony print-frame="yes"><root><root-step>G</root-step></root><kind text="7">dominant</kind></harmony><note><pitch><step>F</step><octave>4</octave></pitch><duration>1</duration><voice>1</voice><type>eighth</type><stem>up</stem><beam number="1">begin</beam><lyric number="1"><syllabic>single</syllabic><text>ça</text></lyric></note><note><pitch><step>C</step><alter>1</alter><octave>4</octave></pitch><duration>1</duration><voice>1</voice><type>eighth</type><accidental>sharp</accidental><stem>up</stem><beam number="1">continue</beam><lyric number="1"><syllabic>single</syllabic><text>m'fait</text></lyric></note><note><pitch><step>D</step><octave>4</octave></pitch><duration>1</duration><voice>1</voice><type>eighth</type><stem>up</stem><beam number="1">continue</beam><lyric number="1"><syllabic>begin</syllabic><text>quel</text></lyric></note><note><pitch><step>B</step><octave>4</octave></pitch><duration>1</duration><voice>1</voice><type>eighth</type><stem>down</stem><beam number="1">end</beam><lyric number="1"><syllabic>end</syllabic><text>que</text></lyric></note></measure><measure number="13"><harmony print-frame="yes"><root><root-step>C</root-step></root><kind text="">major</kind></harmony><harmony relative-x="18.57" print-frame="yes"><root><root-step>F</root-step><root-alter>1</root-alter></root><kind text="m6">minor-sixth</kind></harmony><note><pitch><step>A</step><octave>4</octave></pitch><duration>4</duration><voice>1</voice><type>half</type><stem>up</stem><notations><slur type="start" number="1"/></notations><lyric number="1"><syllabic>begin</syllabic><text>cho</text></lyric></note><harmony relative-x="7.43" print-frame="yes"><root><root-step>D</root-step></root><kind text="m7">minor-seventh</kind></harmony><harmony relative-x="51.99" print-frame="yes"><root><root-step>G</root-step></root><kind text="7">dominant</kind></harmony><note><pitch><step>G</step><octave>4</octave></pitch><duration>4</duration><voice>1</voice><type>half</type><stem>up</stem><notations><slur type="stop" number="1"/></notations><lyric number="1"><syllabic>single</syllabic><text>se</text></lyric></note></measure><measure number="14"><print new-system="yes"/><harmony print-frame="yes"><root><root-step>C</root-step></root><kind text="">major</kind></harmony><note><pitch><step>C</step><octave>5</octave></pitch><duration>3</duration><voice>1</voice><type>quarter</type><dot/><stem>down</stem><lyric number="1"><syllabic>single</syllabic><text>Il</text></lyric></note><note><pitch><step>B</step><octave>4</octave></pitch><duration>1</duration><voice>1</voice><type>eighth</type><stem>down</stem><lyric number="1"><syllabic>single</syllabic><text>est</text></lyric></note><note><pitch><step>A</step><octave>4</octave></pitch><duration>1</duration><voice>1</voice><type>eighth</type><stem>up</stem><beam number="1">begin</beam><lyric number="1"><syllabic>begin</syllabic><text>en</text></lyric></note><note><pitch><step>G</step><octave>4</octave></pitch><duration>1</duration><voice>1</voice><type>eighth</type><stem>up</stem><beam number="1">continue</beam><lyric number="1"><syllabic>end</syllabic><text>tré</text></lyric></note><note><pitch><step>E</step><octave>4</octave></pitch><duration>1</duration><voice>1</voice><type>eighth</type><stem>up</stem><beam number="1">continue</beam><lyric number="1"><syllabic>single</syllabic><text>dans</text></lyric></note><note><pitch><step>C</step><octave>5</octave></pitch><duration>1</duration><voice>1</voice><type>eighth</type><stem>down</stem><beam number="1">end</beam><lyric number="1"><syllabic>single</syllabic><text>mon</text></lyric></note></measure><measure number="15"><harmony print-frame="yes"><root><root-step>C</root-step></root><kind text="Maj7">major-seventh</kind></harmony><note><pitch><step>B</step><octave>4</octave></pitch><duration>3</duration><voice>1</voice><type>quarter</type><dot/><stem>down</stem><lyric number="1"><syllabic>single</syllabic><text>cœur</text></lyric></note><note><pitch><step>A</step><octave>4</octave></pitch><duration>1</duration><voice>1</voice><type>eighth</type><stem>up</stem><lyric number="1"><syllabic>begin</syllabic><text>U</text></lyric></note><harmony print-frame="yes"><root><root-step>C</root-step></root><kind text="6">major-sixth</kind></harmony><note><pitch><step>G</step><octave>4</octave></pitch><duration>1</duration><voice>1</voice><type>eighth</type><stem>up</stem><beam number="1">begin</beam><lyric number="1"><syllabic>end</syllabic><text>ne</text></lyric></note><note><pitch><step>E</step><octave>4</octave></pitch><duration>1</duration><voice>1</voice><type>eighth</type><stem>up</stem><beam number="1">continue</beam><lyric number="1"><syllabic>single</syllabic><text>part</text></lyric></note><note><pitch><step>C</step><octave>4</octave></pitch><duration>1</duration><voice>1</voice><type>eighth</type><stem>up</stem><beam number="1">continue</beam><lyric number="1"><syllabic>single</syllabic><text>de</text></lyric></note><note><pitch><step>B</step><octave>4</octave></pitch><duration>1</duration><voice>1</voice><type>eighth</type><stem>down</stem><beam number="1">end</beam><lyric number="1"><syllabic>begin</syllabic><text>bon</text></lyric></note></measure><measure number="16"><harmony print-frame="yes"><root><root-step>C</root-step></root><kind text="">major</kind></harmony><note><pitch><step>A</step><octave>4</octave></pitch><duration>3</duration><voice>1</voice><type>quarter</type><dot/><stem>up</stem><lyric number="1"><syllabic>end</syllabic><text>heur</text></lyric></note><note><pitch><step>G</step><octave>4</octave></pitch><duration>1</duration><voice>1</voice><type>eighth</type><stem>up</stem><lyric number="1"><syllabic>single</syllabic><text>Dont</text></lyric></note><note><pitch><step>E</step><octave>4</octave></pitch><duration>1</duration><voice>1</voice><type>eighth</type><stem>up</stem><beam number="1">begin</beam><lyric number="1"><syllabic>single</syllabic><text>je</text></lyric></note><note><pitch><step>B</step><octave>3</octave></pitch><duration>1</duration><voice>1</voice><type>eighth</type><stem>up</stem><beam number="1">continue</beam><lyric number="1"><syllabic>begin</syllabic><text>con</text></lyric></note><harmony print-frame="yes"><root><root-step>C</root-step></root><kind text="7">dominant</kind></harmony><note><pitch><step>C</step><octave>4</octave></pitch><duration>1</duration><voice>1</voice><type>eighth</type><stem>up</stem><beam number="1">continue</beam><lyric number="1"><syllabic>end</syllabic><text>nais</text></lyric></note><note><pitch><step>C</step><octave>5</octave></pitch><duration>1</duration><voice>1</voice><type>eighth</type><stem>down</stem><beam number="1">end</beam><lyric number="1"><syllabic>single</syllabic><text>la</text></lyric></note></measure><measure number="17"><harmony print-frame="yes"><root><root-step>F</root-step></root><kind text="">major</kind></harmony><note><pitch><step>C</step><octave>5</octave></pitch><duration>8</duration><voice>1</voice><type>whole</type><lyric number="1"><syllabic>single</syllabic><text>cause</text></lyric></note></measure><measure number="18"><print new-system="yes"/><harmony print-frame="yes"><root><root-step>F</root-step></root><kind text="m">minor</kind></harmony><note><pitch><step>D</step><octave>5</octave></pitch><duration>1</duration><voice>1</voice><type>eighth</type><stem>down</stem><lyric number="1"><syllabic>single</syllabic><text>C'est</text></lyric></note><note><pitch><step>D</step><octave>5</octave></pitch><duration>2</duration><voice>1</voice><type>quarter</type><stem>down</stem><lyric number="1"><syllabic>single</syllabic><text>lui</text></lyric></note><note><pitch><step>C</step><octave>5</octave></pitch><duration>1</duration><voice>1</voice><type>eighth</type><stem>down</stem><lyric number="1"><syllabic>single</syllabic><text>pour</text></lyric></note><note><pitch><step>D</step><octave>5</octave></pitch><duration>1</duration><voice>1</voice><type>eighth</type><stem>down</stem><lyric number="1"><syllabic>single</syllabic><text>moi,</text></lyric></note><note><pitch><step>D</step><octave>5</octave></pitch><duration>2</duration><voice>1</voice><type>quarter</type><stem>down</stem><lyric number="1"><syllabic>single</syllabic><text>Moi</text></lyric></note><note><pitch><step>C</step><octave>5</octave></pitch><duration>1</duration><voice>1</voice><type>eighth</type><stem>down</stem><lyric number="1"><syllabic>single</syllabic><text>pour</text></lyric></note></measure><measure number="19"><harmony print-frame="yes"><root><root-step>C</root-step></root><kind text="">major</kind></harmony><note><pitch><step>D</step><octave>5</octave></pitch><duration>1</duration><voice>1</voice><type>eighth</type><stem>down</stem><lyric number="1"><syllabic>single</syllabic><text>lui,</text></lyric></note><note><pitch><step>D</step><octave>5</octave></pitch><duration>2</duration><voice>1</voice><type>quarter</type><stem>down</stem><lyric number="1"><syllabic>single</syllabic><text>dans</text></lyric></note><note><pitch><step>C</step><octave>5</octave></pitch><duration>1</duration><voice>1</voice><type>eighth</type><stem>down</stem><lyric number="1"><syllabic>single</syllabic><text>la</text></lyric></note><harmony print-frame="yes"><root><root-step>C</root-step></root><kind text="">major</kind></harmony><note><pitch><step>G</step><octave>4</octave></pitch><duration>4</duration><voice>1</voice><type>half</type><stem>up</stem><lyric number="1"><syllabic>single</syllabic><text>vie</text></lyric></note></measure><measure number="20"><harmony print-frame="yes"><root><root-step>E</root-step><root-alter>-1</root-alter></root><kind text="">major</kind></harmony><note><pitch><step>D</step><octave>5</octave></pitch><duration>1</duration><voice>1</voice><type>eighth</type><stem>down</stem><lyric number="1"><syllabic>single</syllabic><text>Il</text></lyric></note><note><pitch><step>D</step><octave>5</octave></pitch><duration>2</duration><voice>1</voice><type>quarter</type><stem>down</stem><lyric number="1"><syllabic>single</syllabic><text>me</text></lyric></note><note><pitch><step>C</step><octave>5</octave></pitch><duration>1</duration><voice>1</voice><type>eighth</type><stem>down</stem><lyric number="1"><syllabic>single</syllabic><text>l'a</text></lyric></note><note><pitch><step>D</step><octave>5</octave></pitch><duration>1</duration><voice>1</voice><type>eighth</type><stem>down</stem><lyric number="1"><syllabic>single</syllabic><text>dit,</text></lyric></note><note><pitch><step>D</step><octave>5</octave></pitch><duration>2</duration><voice>1</voice><type>quarter</type><stem>down</stem><lyric number="1"><syllabic>single</syllabic><text>l'a</text></lyric></note><note><pitch><step>C</step><octave>5</octave></pitch><duration>1</duration><voice>1</voice><type>eighth</type><stem>down</stem><lyric number="1"><syllabic>begin</syllabic><text>ju</text></lyric></note></measure><measure number="21"><harmony print-frame="yes"><root><root-step>D</root-step></root><kind text="m7">minor-seventh</kind></harmony><note><pitch><step>D</step><octave>5</octave></pitch><duration>1</duration><voice>1</voice><type>eighth</type><stem>down</stem><lyric number="1"><syllabic>end</syllabic><text>ré</text></lyric></note><note><pitch><step>D</step><octave>5</octave></pitch><duration>2</duration><voice>1</voice><type>quarter</type><stem>down</stem><lyric number="1"><syllabic>single</syllabic><text>pour</text></lyric></note><note><pitch><step>C</step><octave>5</octave></pitch><duration>1</duration><voice>1</voice><type>eighth</type><stem>down</stem><lyric number="1"><syllabic>single</syllabic><text>la</text></lyric></note><note><pitch><step>E</step><octave>5</octave></pitch><duration>2</duration><voice>1</voice><type>quarter</type><stem>down</stem><lyric number="1"><syllabic>begin</syllabic><text>vi</text></lyric></note><harmony print-frame="yes"><root><root-step>G</root-step></root><kind text="7b9">dominant</kind><degree><degree-value>9</degree-value><degree-alter>-1</degree-alter><degree-type>add</degree-type></degree></harmony><note><pitch><step>D</step><octave>5</octave></pitch><duration>2</duration><voice>1</voice><type>quarter</type><stem>down</stem><notations><fermata type="upright"/></notations><lyric number="1"><syllabic>end</syllabic><text>e</text></lyric></note></measure><measure number="22"><print new-system="yes"/><harmony print-frame="yes"><root><root-step>C</root-step></root><kind text="">major</kind></harmony><note><pitch><step>C</step><octave>5</octave></pitch><duration>3</duration><voice>1</voice><type>quarter</type><dot/><stem>down</stem><lyric number="1"><syllabic>single</syllabic><text>Et</text></lyric></note><note><pitch><step>B</step><octave>4</octave></pitch><duration>1</duration><voice>1</voice><type>eighth</type><stem>down</stem><lyric number="1"><syllabic>single</syllabic><text>dès</text></lyric></note><note><pitch><step>A</step><octave>4</octave></pitch><duration>1</duration><voice>1</voice><type>eighth</type><stem>up</stem><beam number="1">begin</beam><lyric number="1"><syllabic>single</syllabic><text>que</text></lyric></note><note><pitch><step>G</step><octave>4</octave></pitch><duration>1</duration><voice>1</voice><type>eighth</type><stem>up</stem><beam number="1">continue</beam><lyric number="1"><syllabic>single</syllabic><text>je</text></lyric></note><note><pitch><step>E</step><octave>4</octave></pitch><duration>1</duration><voice>1</voice><type>eighth</type><stem>up</stem><beam number="1">continue</beam><lyric number="1"><syllabic>begin</syllabic><text>l'a</text></lyric></note><note><pitch><step>C</step><octave>5</octave></pitch><duration>1</duration><voice>1</voice><type>eighth</type><stem>down</stem><beam number="1">end</beam><lyric number="1"><syllabic>middle</syllabic><text>per</text></lyric></note></measure><measure number="23"><harmony print-frame="yes"><root><root-step>C</root-step></root><kind text="Maj7">major-seventh</kind></harmony><note><pitch><step>B</step><octave>4</octave></pitch><duration>3</duration><voice>1</voice><type>quarter</type><dot/><stem>down</stem><lyric number="1"><syllabic>end</syllabic><text>çois</text></lyric></note><note><pitch><step>A</step><octave>4</octave></pitch><duration>1</duration><voice>1</voice><type>eighth</type><stem>up</stem><lyric number="1"><syllabic>begin</syllabic><text>A</text></lyric></note><harmony print-frame="yes"><root><root-step>C</root-step></root><kind text="6">major-sixth</kind></harmony><note><pitch><step>G</step><octave>4</octave></pitch><duration>1</duration><voice>1</voice><type>eighth</type><stem>up</stem><beam number="1">begin</beam><lyric number="1"><syllabic>end</syllabic><text>lors</text></lyric></note><note><pitch><step>E</step><octave>4</octave></pitch><duration>1</duration><voice>1</voice><type>eighth</type><stem>up</stem><beam number="1">continue</beam><lyric number="1"><syllabic>single</syllabic><text>je</text></lyric></note><note><pitch><step>C</step><octave>4</octave></pitch><duration>1</duration><voice>1</voice><type>eighth</type><stem>up</stem><beam number="1">continue</beam><lyric number="1"><syllabic>single</syllabic><text>sens</text></lyric></note><note><pitch><step>B</step><octave>4</octave></pitch><duration>1</duration><voice>1</voice><type>eighth</type><stem>down</stem><beam number="1">end</beam><lyric number="1"><syllabic>single</syllabic><text>en</text></lyric></note></measure><measure number="24"><harmony print-frame="yes"><root><root-step>D</root-step></root><kind text="m7">minor-seventh</kind></harmony><note><pitch><step>A</step><octave>4</octave></pitch><duration>3</duration><voice>1</voice><type>quarter</type><dot/><stem>up</stem><lyric number="1"><syllabic>single</syllabic><text>moi</text></lyric></note><note><pitch><step>G</step><octave>4</octave></pitch><duration>1</duration><voice>1</voice><type>eighth</type><stem>up</stem><lyric number="1"><syllabic>single</syllabic><text>Mon</text></lyric></note><note><pitch><step>A</step><octave>4</octave></pitch><duration>2</duration><voice>1</voice><type>quarter</type><stem>up</stem><lyric number="1"><syllabic>single</syllabic><text>cœur</text></lyric></note><harmony print-frame="yes"><root><root-step>G</root-step></root><kind text="7">dominant</kind></harmony><note><pitch><step>B</step><octave>4</octave></pitch><duration>2</duration><voice>1</voice><type>quarter</type><stem>down</stem><lyric number="1"><syllabic>single</syllabic><text>qui</text></lyric></note></measure><measure number="25"><barline location="left"><ending type="start" number="1"/></barline><harmony print-frame="yes"><root><root-step>C</root-step></root><kind text="">major</kind></harmony><harmony relative-x="1.86" print-frame="yes"><root><root-step>A</root-step><root-alter>-1</root-alter></root><kind text="9">dominant-ninth</kind></harmony><harmony relative-x="37.13" print-frame="yes"><root><root-step>D</root-step></root><kind text="m7">minor-seventh</kind></harmony><note><pitch><step>C</step><octave>5</octave></pitch><duration>6</duration><voice>1</voice><type>half</type><dot/><stem>down</stem><lyric number="1"><syllabic>single</syllabic><text>bat.</text></lyric></note><harmony print-frame="yes"><root><root-step>G</root-step></root><kind text="7">dominant</kind></harmony><note><rest/><duration>2</duration><voice>1</voice><type>quarter</type></note><barline location="right"><bar-style>light-heavy</bar-style><ending type="stop" number="1"/><repeat direction="backward"/></barline></measure><measure number="26"><barline location="left"><ending type="start" number="2"/></barline><harmony print-frame="yes"><root><root-step>C</root-step></root><kind text="">major</kind></harmony><harmony print-frame="yes"><root><root-step>D</root-step></root><kind text="m7">minor-seventh</kind></harmony><harmony print-frame="yes"><root><root-step>C</root-step></root><kind text="">major</kind></harmony><note><pitch><step>C</step><octave>5</octave></pitch><duration>6</duration><voice>1</voice><type>half</type><dot/><stem>down</stem><lyric number="1"><syllabic>single</syllabic><text>bat.</text></lyric></note><note><rest/><duration>2</duration><voice>1</voice><type>quarter</type></note><barline location="right"><bar-style>light-heavy</bar-style><ending type="stop" number="2"/></barline></measure></part></score-partwise>