<score-partwise version="2.0"><work><work-number/><work-title/></work><movement-number/><movement-title>Can't Help Falling In Love</movement-title><identification><creator type="composer">George Weiss, Hugo Peretti, Luigi Creatore</creator><creator type="poet"/><rights>All Rights Reserved</rights><encoding><software>MuseScore 0.9.4</software><encoding-date>2008-11-03</encoding-date><software>ProxyMusic 2.0 c</software></encoding><source>http://wikifonia.org/node/848/revisions/1128/view</source></identification><part-list><score-part id="P1"><part-name>Flute</part-name><score-instrument id="P1-I3"><instrument-name>Flute</instrument-name></score-instrument><midi-instrument id="P1-I3"><midi-channel>1</midi-channel><midi-program>74</midi-program></midi-instrument></score-part></part-list><part id="P1"><measure number="1"><attributes><divisions>480</divisions><key><fifths>-1</fifths><mode>major</mode></key><time><beats>4</beats><beat-type>4</beat-type></time><clef><sign>G</sign><line>2</line></clef></attributes><harmony print-frame="no"><root><root-step>F</root-step></root><kind text="">major</kind></harmony><note><pitch><step>F</step><octave>4</octave></pitch><duration>960</duration><voice>1</voice><type>half</type><stem>up</stem><lyric number="1"><syllabic>single</syllabic><text>Wise</text></lyric></note><harmony print-frame="no"><root><root-step>A</root-step></root><kind text="m">minor</kind></harmony><note><pitch><step>C</step><octave>5</octave></pitch><duration>960</duration><voice>1</voice><type>half</type><stem>down</stem><lyric number="1"><syllabic>single</syllabic><text>men</text></lyric></note></measure><measure number="2"><harmony print-frame="no"><root><root-step>D</root-step></root><kind text="m">minor</kind></harmony><note><pitch><step>F</step><octave>4</octave></pitch><duration>1440</duration><voice>1</voice><type>half</type><dot/><stem>up</stem><lyric number="1"><syllabic>single</syllabic><text>say</text></lyric></note><note><pitch><step>G</step><octave>4</octave></pitch><duration>360</duration><voice>1</voice><type>eighth</type><dot/><stem>up</stem><beam number="1">begin</beam><lyric number="1"><syllabic>begin</syllabic><text>on</text></lyric></note><note><pitch><step>A</step><octave>4</octave></pitch><duration>120</duration><voice>1</voice><type>16th</type><stem>up</stem><beam number="1">end</beam><lyric number="1"><syllabic>end</syllabic><text>ly</text></lyric></note></measure><measure number="3"><harmony print-frame="no"><root><root-step>B</root-step><root-alter>-1</root-alter></root><kind text="">major</kind></harmony><note><pitch><step>B</step><alter>-1</alter><octave>4</octave></pitch><duration>960</duration><voice>1</voice><type>half</type><stem>down</stem><lyric number="1"><syllabic>single</syllabic><text>fools</text></lyric></note><harmony print-frame="no"><root><root-step>F</root-step></root><kind text="">major</kind></harmony><note><pitch><step>A</step><octave>4</octave></pitch><duration>960</duration><voice>1</voice><type>half</type><stem>up</stem><lyric number="1"><syllabic>single</syllabic><text>rush</text></lyric></note></measure><measure number="4"><harmony print-frame="no"><root><root-step>G</root-step></root><kind text="m7">minor-seventh</kind></harmony><harmony print-frame="no"><root><root-step>C</root-step></root><kind text="7">dominant-seventh</kind></harmony><note><pitch><step>G</step><octave>4</octave></pitch><duration>1440</duration><voice>1</voice><type>half</type><dot/><stem>up</stem><lyric number="1"><syllabic>single</syllabic><text>in</text></lyric></note><note><pitch><step>C</step><octave>4</octave></pitch><duration>480</duration><voice>1</voice><type>quarter</type><stem>up</stem><lyric number="1"><syllabic>single</syllabic><text>But</text></lyric></note></measure><measure number="5"><print new-system="yes"/><harmony print-frame="no"><root><root-step>B</root-step><root-alter>-1</root-alter></root><kind text="">major</kind></harmony><note><pitch><step>D</step><octave>4</octave></pitch><duration>960</duration><voice>1</voice><type>half</type><stem>up</stem><lyric number="1"><syllabic>single</syllabic><text>I</text></lyric></note><harmony print-frame="no"><root><root-step>C</root-step></root><kind text="7">dominant-seventh</kind></harmony><note><pitch><step>E</step><octave>4</octave></pitch><duration>960</duration><voice>1</voice><type>half</type><stem>up</stem><lyric number="1"><syllabic>single</syllabic><text>can't</text></lyric></note></measure><measure number="6"><harmony print-frame="no"><root><root-step>D</root-step></root><kind text="m">minor</kind></harmony><note><pitch><step>F</step><octave>4</octave></pitch><duration>960</duration><voice>1</voice><type>half</type><stem>up</stem><lyric number="1"><syllabic>single</syllabic><text>help</text></lyric></note><harmony print-frame="no"><root><root-step>B</root-step><root-alter>-1</root-alter></root><kind text="">major</kind></harmony><note><pitch><step>G</step><octave>4</octave></pitch><duration>480</duration><voice>1</voice><type>quarter</type><stem>up</stem><lyric number="1"><syllabic>begin</syllabic><text>fal</text></lyric></note><note><pitch><step>A</step><octave>4</octave></pitch><duration>360</duration><voice>1</voice><type>eighth</type><dot/><stem>up</stem><beam number="1">begin</beam><lyric number="1"><syllabic>end</syllabic><text>ling</text></lyric></note><note><pitch><step>B</step><alter>-1</alter><octave>4</octave></pitch><duration>120</duration><voice>1</voice><type>16th</type><stem>down</stem><beam number="1">end</beam><lyric number="1"><syllabic>single</syllabic><text>in</text></lyric></note></measure><measure number="7"><harmony print-frame="no"><root><root-step>F</root-step></root><kind text="">major</kind></harmony><note><pitch><step>A</step><octave>4</octave></pitch><duration>960</duration><voice>1</voice><type>half</type><stem>up</stem><lyric number="1"><syllabic>single</syllabic><text>love</text></lyric></note><harmony print-frame="no"><root><root-step>C</root-step></root><kind text="7">dominant-seventh</kind></harmony><note><pitch><step>G</step><octave>4</octave></pitch><duration>960</duration><voice>1</voice><type>half</type><stem>up</stem><lyric number="1"><syllabic>single</syllabic><text>with</text></lyric></note></measure><measure number="8"><print new-system="yes"/><harmony print-frame="no"><root><root-step>F</root-step></root><kind text="">major</kind></harmony><note><pitch><step>F</step><octave>4</octave></pitch><duration>1440</duration><voice>1</voice><type>half</type><dot/><stem>up</stem><lyric number="1"><syllabic>single</syllabic><text>you</text></lyric></note><note><rest/><duration>480</duration><voice>1</voice><type>quarter</type></note></measure><measure number="9"><harmony print-frame="no"><root><root-step>F</root-step></root><kind text="">major</kind></harmony><note><pitch><step>F</step><octave>4</octave></pitch><duration>960</duration><voice>1</voice><type>half</type><stem>up</stem><lyric number="1"><syllabic>single</syllabic><text>shall</text></lyric></note><harmony print-frame="no"><root><root-step>A</root-step></root><kind text="m">minor</kind></harmony><note><pitch><step>C</step><octave>5</octave></pitch><duration>960</duration><voice>1</voice><type>half</type><stem>down</stem><lyric number="1"><syllabic>single</syllabic><text>I</text></lyric></note></measure><measure number="10"><harmony print-frame="no"><root><root-step>D</root-step></root><kind text="m">minor</kind></harmony><note><pitch><step>F</step><octave>4</octave></pitch><duration>1440</duration><voice>1</voice><type>half</type><dot/><stem>up</stem><lyric number="1"><syllabic>single</syllabic><text>stay</text></lyric></note><note><pitch><step>G</step><octave>4</octave></pitch><duration>360</duration><voice>1</voice><type>eighth</type><dot/><stem>up</stem><beam number="1">begin</beam><lyric number="1"><syllabic>single</syllabic><text>would</text></lyric></note><note><pitch><step>A</step><octave>4</octave></pitch><duration>120</duration><voice>1</voice><type>16th</type><stem>up</stem><beam number="1">end</beam><lyric number="1"><syllabic>single</syllabic><text>it</text></lyric></note></measure><measure number="11"><harmony print-frame="no"><root><root-step>B</root-step><root-alter>-1</root-alter></root><kind text="">major</kind></harmony><note><pitch><step>B</step><alter>-1</alter><octave>4</octave></pitch><duration>960</duration><voice>1</voice><type>half</type><stem>down</stem><lyric number="1"><syllabic>single</syllabic><text>be</text></lyric></note><harmony print-frame="no"><root><root-step>F</root-step></root><kind text="">major</kind></harmony><note><pitch><step>A</step><octave>4</octave></pitch><duration>960</duration><voice>1</voice><type>half</type><stem>up</stem><lyric number="1"><syllabic>single</syllabic><text>a</text></lyric></note></measure><measure number="12"><harmony print-frame="no"><root><root-step>G</root-step></root><kind text="m7">minor-seventh</kind></harmony><harmony print-frame="no"><root><root-step>C</root-step></root><kind text="7">dominant-seventh</kind></harmony><note><pitch><step>G</step><octave>4</octave></pitch><duration>1440</duration><voice>1</voice><type>half</type><dot/><stem>up</stem><lyric number="1"><syllabic>single</syllabic><text>sin.</text></lyric></note><note><pitch><step>C</step><octave>4</octave></pitch><duration>480</duration><voice>1</voice><type>quarter</type><stem>up</stem><lyric number="1"><syllabic>single</syllabic><text>But</text></lyric></note></measure><measure number="13"><print new-system="yes"/><harmony print-frame="no"><root><root-step>B</root-step><root-alter>-1</root-alter></root><kind text="">major</kind></harmony><note><pitch><step>D</step><octave>4</octave></pitch><duration>960</duration><voice>1</voice><type>half</type><stem>up</stem><lyric number="1"><syllabic>single</syllabic><text>I</text></lyric></note><harmony print-frame="no"><root><root-step>C</root-step></root><kind text="7">dominant-seventh</kind></harmony><note><pitch><step>E</step><octave>4</octave></pitch><duration>960</duration><voice>1</voice><type>half</type><stem>up</stem><lyric number="1"><syllabic>single</syllabic><text>can't</text></lyric></note></measure><measure number="14"><harmony print-frame="no"><root><root-step>D</root-step></root><kind text="m">minor</kind></harmony><note><pitch><step>F</step><octave>4</octave></pitch><duration>960</duration><voice>1</voice><type>half</type><stem>up</stem><lyric number="1"><syllabic>single</syllabic><text>help</text></lyric></note><harmony print-frame="no"><root><root-step>B</root-step><root-alter>-1</root-alter></root><kind text="">major</kind></harmony><note><pitch><step>G</step><octave>4</octave></pitch><duration>480</duration><voice>1</voice><type>quarter</type><stem>up</stem><lyric number="1"><syllabic>begin</syllabic><text>fal</text></lyric></note><note><pitch><step>A</step><octave>4</octave></pitch><duration>360</duration><voice>1</voice><type>eighth</type><dot/><stem>up</stem><beam number="1">begin</beam><lyric number="1"><syllabic>end</syllabic><text>ling</text></lyric></note><note><pitch><step>B</step><alter>-1</alter><octave>4</octave></pitch><duration>120</duration><voice>1</voice><type>16th</type><stem>down</stem><beam number="1">end</beam><lyric number="1"><syllabic>single</syllabic><text>in</text></lyric></note></measure><measure number="15"><harmony print-frame="no"><root><root-step>F</root-step></root><kind text="">major</kind></harmony><note><pitch><step>A</step><octave>4</octave></pitch><duration>960</duration><voice>1</voice><type>half</type><stem>up</stem><lyric number="1"><syllabic>single</syllabic><text>love</text></lyric></note><harmony print-frame="no"><root><root-step>C</root-step></root><kind text="7">dominant-seventh</kind></harmony><note><pitch><step>G</step><octave>4</octave></pitch><duration>960</duration><voice>1</voice><type>half</type><stem>up</stem><lyric number="1"><syllabic>single</syllabic><text>with</text></lyric></note></measure><measure number="16"><harmony print-frame="no"><root><root-step>F</root-step></root><kind text="">major</kind></harmony><note><pitch><step>F</step><octave>4</octave></pitch><duration>1440</duration><voice>1</voice><type>half</type><dot/><stem>up</stem><lyric number="1"><syllabic>single</syllabic><text>you</text></lyric></note><note><rest/><duration>480</duration><voice>1</voice><type>quarter</type></note><barline location="right"><bar-style>light-light</bar-style></barline></measure><measure number="17"><print new-system="yes"/><harmony print-frame="no"><root><root-step>A</root-step></root><kind text="m">minor</kind></harmony><note><pitch><step>E</step><octave>4</octave></pitch><duration>360</duration><voice>1</voice><type>eighth</type><dot/><stem>up</stem><beam number="1">begin</beam><lyric number="1"><syllabic>single</syllabic><text>like</text></lyric></note><note><pitch><step>A</step><octave>4</octave></pitch><duration>120</duration><voice>1</voice><type>16th</type><stem>up</stem><beam number="1">end</beam><lyric number="1"><syllabic>single</syllabic><text>a</text></lyric></note><note><pitch><step>C</step><octave>5</octave></pitch><duration>360</duration><voice>1</voice><type>eighth</type><dot/><stem>down</stem><beam number="1">begin</beam><lyric number="1"><syllabic>begin</syllabic><text>ri</text></lyric></note><note><pitch><step>E</step><octave>5</octave></pitch><duration>120</duration><voice>1</voice><type>16th</type><stem>down</stem><beam number="1">end</beam><lyric number="1"><syllabic>end</syllabic><text>ver</text></lyric></note><harmony print-frame="no"><root><root-step>E</root-step></root><kind text="7">dominant-seventh</kind></harmony><note><pitch><step>D</step><octave>5</octave></pitch><duration>960</duration><voice>1</voice><type>half</type><stem>down</stem><lyric number="1"><syllabic>single</syllabic><text>flows</text></lyric></note></measure><measure number="18"><harmony print-frame="no"><root><root-step>A</root-step></root><kind text="m">minor</kind></harmony><note><pitch><step>E</step><octave>4</octave></pitch><duration>360</duration><voice>1</voice><type>eighth</type><dot/><stem>up</stem><beam number="1">begin</beam><lyric number="1"><syllabic>begin</syllabic><text>sure</text></lyric></note><note><pitch><step>A</step><octave>4</octave></pitch><duration>120</duration><voice>1</voice><type>16th</type><stem>up</stem><beam number="1">end</beam><lyric number="1"><syllabic>end</syllabic><text>ly</text></lyric></note><note><pitch><step>C</step><octave>5</octave></pitch><duration>360</duration><voice>1</voice><type>eighth</type><dot/><stem>down</stem><beam number="1">begin</beam><lyric number="1"><syllabic>single</syllabic><text>to</text></lyric></note><note><pitch><step>E</step><octave>5</octave></pitch><duration>120</duration><voice>1</voice><type>16th</type><stem>down</stem><beam number="1">end</beam><lyric number="1"><syllabic>single</syllabic><text>the</text></lyric></note><harmony print-frame="no"><root><root-step>E</root-step></root><kind text="7">dominant-seventh</kind></harmony><note><pitch><step>D</step><octave>5</octave></pitch><duration>960</duration><voice>1</voice><type>half</type><stem>down</stem><lyric number="1"><syllabic>single</syllabic><text>sea.</text></lyric></note></measure><measure number="19"><harmony print-frame="no"><root><root-step>A</root-step></root><kind text="m">minor</kind></harmony><note><pitch><step>E</step><octave>4</octave></pitch><duration>360</duration><voice>1</voice><type>eighth</type><dot/><stem>up</stem><beam number="1">begin</beam><lyric number="1"><syllabic>begin</syllabic><text>Dar</text></lyric></note><note><pitch><step>A</step><octave>4</octave></pitch><duration>120</duration><voice>1</voice><type>16th</type><stem>up</stem><beam number="1">end</beam><lyric number="1"><syllabic>end</syllabic><text>ling</text></lyric></note><note><pitch><step>C</step><octave>5</octave></pitch><duration>360</duration><voice>1</voice><type>eighth</type><dot/><stem>down</stem><beam number="1">begin</beam><lyric number="1"><syllabic>single</syllabic><text>so</text></lyric></note><note><pitch><step>E</step><octave>5</octave></pitch><duration>120</duration><voice>1</voice><type>16th</type><stem>down</stem><beam number="1">end</beam><lyric number="1"><syllabic>single</syllabic><text>it</text></lyric></note><harmony print-frame="no"><root><root-step>E</root-step></root><kind text="7">dominant-seventh</kind></harmony><note><pitch><step>D</step><octave>5</octave></pitch><duration>960</duration><voice>1</voice><type>half</type><stem>down</stem><lyric number="1"><syllabic>single</syllabic><text>goes</text></lyric></note></measure><measure number="20"><print new-system="yes"/><harmony print-frame="no"><root><root-step>A</root-step></root><kind text="m">minor</kind></harmony><note><pitch><step>C</step><octave>5</octave></pitch><duration>240</duration><voice>1</voice><type>eighth</type><stem>down</stem><beam number="1">begin</beam><lyric number="1"><syllabic>single</syllabic><text>some</text></lyric></note><note><pitch><step>C</step><octave>5</octave></pitch><duration>240</duration><tie type="start"/><voice>1</voice><type>eighth</type><stem>down</stem><beam number="1">end</beam><notations><tied type="start"/></notations><lyric number="1"><syllabic>single</syllabic><text>things</text></lyric></note><note><pitch><step>C</step><octave>5</octave></pitch><duration>480</duration><tie type="stop"/><voice>1</voice><type>quarter</type><stem>down</stem><notations><tied type="stop"/></notations></note><harmony print-frame="no"><root><root-step>D</root-step></root><kind text="7">dominant-seventh</kind></harmony><note><rest/><duration>240</duration><voice>1</voice><type>eighth</type></note><note><pitch><step>A</step><octave>4</octave></pitch><duration>240</duration><voice>1</voice><type>eighth</type><stem>up</stem><lyric number="1"><syllabic>single</syllabic><text>are</text></lyric></note><note><pitch><step>C</step><octave>5</octave></pitch><duration>360</duration><voice>1</voice><type>eighth</type><dot/><stem>down</stem><beam number="1">begin</beam><lyric number="1"><syllabic>single</syllabic><text>meant</text></lyric></note><note><pitch><step>A</step><octave>4</octave></pitch><duration>120</duration><voice>1</voice><type>16th</type><stem>up</stem><beam number="1">end</beam><lyric number="1"><syllabic>single</syllabic><text>to</text></lyric></note></measure><measure number="21"><harmony print-frame="no"><root><root-step>G</root-step></root><kind text="m7">minor-seventh</kind></harmony><harmony print-frame="no"><root><root-step>C</root-step></root><kind text="7">dominant-seventh</kind></harmony><note><pitch><step>B</step><alter>-1</alter><octave>4</octave></pitch><duration>1440</duration><voice>1</voice><type>half</type><dot/><stem>down</stem><lyric number="1"><syllabic>single</syllabic><text>be</text></lyric></note><note><rest/><duration>480</duration><voice>1</voice><type>quarter</type></note><barline location="right"><bar-style>light-light</bar-style></barline></measure><measure number="22"><harmony print-frame="no"><root><root-step>F</root-step></root><kind text="">major</kind></harmony><note><pitch><step>F</step><octave>4</octave></pitch><duration>960</duration><voice>1</voice><type>half</type><stem>up</stem><lyric number="1"><syllabic>single</syllabic><text>Take</text></lyric></note><harmony print-frame="no"><root><root-step>A</root-step></root><kind text="m">minor</kind></harmony><note><pitch><step>C</step><octave>5</octave></pitch><duration>960</duration><voice>1</voice><type>half</type><stem>down</stem><lyric number="1"><syllabic>single</syllabic><text>my</text></lyric></note></measure><measure number="23"><harmony print-frame="no"><root><root-step>D</root-step></root><kind text="m">minor</kind></harmony><note><pitch><step>F</step><octave>4</octave></pitch><duration>1440</duration><voice>1</voice><type>half</type><dot/><stem>up</stem><lyric number="1"><syllabic>single</syllabic><text>hand</text></lyric></note><note><pitch><step>G</step><octave>4</octave></pitch><duration>360</duration><voice>1</voice><type>eighth</type><dot/><stem>up</stem><beam number="1">begin</beam><lyric number="1"><syllabic>single</syllabic><text>take</text></lyric></note><note><pitch><step>A</step><octave>4</octave></pitch><duration>120</duration><voice>1</voice><type>16th</type><stem>up</stem><beam number="1">end</beam><lyric number="1"><syllabic>single</syllabic><text>my</text></lyric></note></measure><measure number="24"><print new-system="yes"/><harmony print-frame="no"><root><root-step>B</root-step><root-alter>-1</root-alter></root><kind text="">major</kind></harmony><note><pitch><step>B</step><alter>-1</alter><octave>4</octave></pitch><duration>960</duration><voice>1</voice><type>half</type><stem>down</stem><lyric number="1"><syllabic>single</syllabic><text>whole</text></lyric></note><harmony print-frame="no"><root><root-step>F</root-step></root><kind text="">major</kind></harmony><note><pitch><step>A</step><octave>4</octave></pitch><duration>960</duration><voice>1</voice><type>half</type><stem>up</stem><lyric number="1"><syllabic>single</syllabic><text>life</text></lyric></note></measure><measure number="25"><harmony print-frame="no"><root><root-step>G</root-step></root><kind text="m7">minor-seventh</kind></harmony><harmony print-frame="no"><root><root-step>C</root-step></root><kind text="7">dominant-seventh</kind></harmony><note><pitch><step>G</step><octave>4</octave></pitch><duration>1440</duration><voice>1</voice><type>half</type><dot/><stem>up</stem><lyric number="1"><syllabic>single</syllabic><text>too</text></lyric></note><note><pitch><step>C</step><octave>4</octave></pitch><duration>480</duration><voice>1</voice><type>quarter</type><stem>up</stem><lyric number="1"><syllabic>single</syllabic><text>for</text></lyric></note></measure><measure number="26"><harmony print-frame="no"><root><root-step>B</root-step><root-alter>-1</root-alter></root><kind text="">major</kind></harmony><note><pitch><step>D</step><octave>4</octave></pitch><duration>960</duration><voice>1</voice><type>half</type><stem>up</stem><lyric number="1"><syllabic>single</syllabic><text>I</text></lyric></note><harmony print-frame="no"><root><root-step>C</root-step></root><kind text="7">dominant-seventh</kind></harmony><note><pitch><step>E</step><octave>4</octave></pitch><duration>960</duration><voice>1</voice><type>half</type><stem>up</stem><lyric number="1"><syllabic>single</syllabic><text>can't</text></lyric></note></measure><measure number="27"><harmony print-frame="no"><root><root-step>D</root-step></root><kind text="m">minor</kind></harmony><note><pitch><step>F</step><octave>4</octave></pitch><duration>960</duration><voice>1</voice><type>half</type><stem>up</stem><lyric number="1"><syllabic>single</syllabic><text>help</text></lyric></note><harmony print-frame="no"><root><root-step>B</root-step><root-alter>-1</root-alter></root><kind text="">major</kind></harmony><note><pitch><step>G</step><octave>4</octave></pitch><duration>480</duration><voice>1</voice><type>quarter</type><stem>up</stem><lyric number="1"><syllabic>begin</syllabic><text>fal</text></lyric></note><note><pitch><step>A</step><octave>4</octave></pitch><duration>360</duration><voice>1</voice><type>eighth</type><dot/><stem>up</stem><beam number="1">begin</beam><lyric number="1"><syllabic>end</syllabic><text>ling</text></lyric></note><note><pitch><step>B</step><alter>-1</alter><octave>4</octave></pitch><duration>120</duration><voice>1</voice><type>16th</type><stem>down</stem><beam number="1">end</beam><lyric number="1"><syllabic>single</syllabic><text>in</text></lyric></note></measure><measure number="28"><harmony print-frame="no"><root><root-step>F</root-step></root><kind text="">major</kind></harmony><note><pitch><step>A</step><octave>4</octave></pitch><duration>960</duration><voice>1</voice><type>half</type><stem>up</stem><lyric number="1"><syllabic>single</syllabic><text>love</text></lyric></note><harmony print-frame="no"><root><root-step>C</root-step></root><kind text="7">dominant-seventh</kind></harmony><note><pitch><step>G</step><octave>4</octave></pitch><duration>960</duration><voice>1</voice><type>half</type><stem>up</stem><lyric number="1"><syllabic>single</syllabic><text>with</text></lyric></note></measure><measure number="29"><harmony print-frame="no"><root><root-step>F</root-step></root><kind text="">major</kind></harmony><note><pitch><step>F</step><octave>4</octave></pitch><duration>1440</duration><voice>1</voice><type>half</type><dot/><stem>up</stem><lyric number="1"><syllabic>single</syllabic><text>you</text></lyric></note><note><pitch><step>C</step><octave>4</octave></pitch><duration>480</duration><voice>1</voice><type>quarter</type><stem>up</stem><lyric number="1"><syllabic>single</syllabic><text>for</text></lyric></note></measure><measure number="30"><print new-system="yes"/><harmony print-frame="no"><root><root-step>B</root-step><root-alter>-1</root-alter></root><kind text="">major</kind></harmony><note><pitch><step>D</step><octave>4</octave></pitch><duration>960</duration><voice>1</voice><type>half</type><stem>up</stem><lyric number="1"><syllabic>single</syllabic><text>I</text></lyric></note><harmony print-frame="no"><root><root-step>C</root-step></root><kind text="7">dominant-seventh</kind></harmony><note><pitch><step>E</step><octave>4</octave></pitch><duration>960</duration><voice>1</voice><type>half</type><stem>up</stem><lyric number="1"><syllabic>single</syllabic><text>can't</text></lyric></note></measure><measure number="31"><harmony print-frame="no"><root><root-step>D</root-step></root><kind text="m">minor</kind></harmony><note><pitch><step>F</step><octave>4</octave></pitch><duration>960</duration><voice>1</voice><type>half</type><stem>up</stem><lyric number="1"><syllabic>single</syllabic><text>help</text></lyric></note><harmony print-frame="no"><root><root-step>B</root-step><root-alter>-1</root-alter></root><kind text="">major</kind></harmony><note><pitch><step>G</step><octave>4</octave></pitch><duration>480</duration><voice>1</voice><type>quarter</type><stem>up</stem><lyric number="1"><syllabic>begin</syllabic><text>fal</text></lyric></note><note><pitch><step>A</step><octave>4</octave></pitch><duration>360</duration><voice>1</voice><type>eighth</type><dot/><stem>up</stem><beam number="1">begin</beam><lyric number="1"><syllabic>end</syllabic><text>ing</text></lyric></note><note><pitch><step>B</step><alter>-1</alter><octave>4</octave></pitch><duration>120</duration><voice>1</voice><type>16th</type><stem>down</stem><beam number="1">end</beam><lyric number="1"><syllabic>single</syllabic><text>in</text></lyric></note></measure><measure number="32"><harmony print-frame="no"><root><root-step>F</root-step></root><kind text="">major</kind></harmony><note><pitch><step>A</step><octave>4</octave></pitch><duration>960</duration><voice>1</voice><type>half</type><stem>up</stem><lyric number="1"><syllabic>single</syllabic><text>love</text></lyric></note><harmony print-frame="no"><root><root-step>C</root-step></root><kind text="7">dominant-seventh</kind></harmony><note><pitch><step>G</step><octave>4</octave></pitch><duration>960</duration><voice>1</voice><type>half</type><stem>up</stem><lyric number="1"><syllabic>single</syllabic><text>with</text></lyric></note></measure><measure number="33"><harmony print-frame="no"><root><root-step>F</root-step></root><kind text="">major</kind></harmony><note><pitch><step>F</step><octave>4</octave></pitch><duration>1920</duration><voice>1</voice><type>whole</type><lyric number="1"><syllabic>single</syllabic><text>you</text></lyric></note><barline location="right"><bar-style>light-heavy</bar-style></barline></measure></part></score-partwise>