<score-partwise version="2.0"><work><work-number/><work-title/></work><movement-number/><movement-title>Away in a manger</movement-title><identification><creator type="composer">Traditional</creator><creator type="poet"/><rights>Public Domain</rights><encoding><software>MuseScore 0.9.4</software><encoding-date>2008-11-19</encoding-date><software>ProxyMusic 2.0 c</software></encoding><source>http://wikifonia.org/node/872/revisions/1160/view</source></identification><part-list><score-part id="P1"><part-name/><score-instrument id="P1-I3"><instrument-name/></score-instrument><midi-instrument id="P1-I3"><midi-channel>1</midi-channel><midi-program>1</midi-program></midi-instrument></score-part></part-list><part id="P1"><measure number="1"><attributes><divisions>480</divisions><key><fifths>1</fifths><mode>major</mode></key><time><beats>3</beats><beat-type>4</beat-type></time><clef><sign>G</sign><line>2</line></clef></attributes><note><pitch><step>D</step><octave>4</octave></pitch><duration>480</duration><voice>1</voice><type>quarter</type><stem>up</stem><lyric number="1"><syllabic>begin</syllabic><text>A</text></lyric><lyric number="2"><syllabic>begin</syllabic><text>Be</text></lyric></note></measure><measure number="2"><harmony print-frame="no"><root><root-step>G</root-step></root><kind text="">major</kind></harmony><note><pitch><step>G</step><octave>4</octave></pitch><duration>480</duration><voice>1</voice><type>quarter</type><stem>up</stem><lyric number="1"><syllabic>end</syllabic><text>way</text></lyric><lyric number="2"><syllabic>end</syllabic><text>neath</text></lyric></note><note><pitch><step>G</step><octave>4</octave></pitch><duration>480</duration><voice>1</voice><type>quarter</type><stem>up</stem><lyric number="1"><syllabic>single</syllabic><text>in</text></lyric><lyric number="2"><syllabic>single</syllabic><text>me</text></lyric></note><note><pitch><step>B</step><octave>4</octave></pitch><duration>240</duration><voice>1</voice><type>eighth</type><stem>up</stem><beam number="1">begin</beam><lyric number="1"><syllabic>end</syllabic><text>a</text></lyric><lyric number="2"><syllabic>single</syllabic><text>Lord</text></lyric></note><note><pitch><step>A</step><octave>4</octave></pitch><duration>240</duration><voice>1</voice><type>eighth</type><stem>up</stem><beam number="1">end</beam></note></measure><measure number="3"><note><pitch><step>G</step><octave>4</octave></pitch><duration>480</duration><voice>1</voice><type>quarter</type><stem>up</stem><lyric number="1"><syllabic>begin</syllabic><text>man</text></lyric><lyric number="2"><syllabic>begin</syllabic><text>Je</text></lyric></note><note><pitch><step>G</step><octave>4</octave></pitch><duration>480</duration><voice>1</voice><type>quarter</type><stem>up</stem><lyric number="1"><syllabic>end</syllabic><text>ger</text></lyric><lyric number="2"><syllabic>end</syllabic><text>sus</text></lyric></note><note><pitch><step>D</step><octave>4</octave></pitch><duration>480</duration><voice>1</voice><type>quarter</type><stem>up</stem><lyric number="1"><syllabic>single</syllabic><text>no</text></lyric><lyric number="2"><syllabic>single</syllabic><text>I</text></lyric></note></measure><measure number="4"><harmony print-frame="no"><root><root-step>C</root-step></root><kind text="">major</kind></harmony><note><pitch><step>E</step><octave>4</octave></pitch><duration>480</duration><voice>1</voice><type>quarter</type><stem>up</stem><lyric number="1"><syllabic>single</syllabic><text>crib</text></lyric><lyric number="2"><syllabic>single</syllabic><text>ask</text></lyric></note><note><pitch><step>G</step><octave>4</octave></pitch><duration>480</duration><voice>1</voice><type>quarter</type><stem>up</stem><lyric number="1"><syllabic>single</syllabic><text>for</text></lyric><lyric number="2"><syllabic>single</syllabic><text>Thee</text></lyric></note><note><pitch><step>E</step><octave>4</octave></pitch><duration>480</duration><voice>1</voice><type>quarter</type><stem>up</stem><lyric number="1"><syllabic>single</syllabic><text>His</text></lyric><lyric number="2"><syllabic>single</syllabic><text>to</text></lyric></note></measure><measure number="5"><print new-system="yes"/><harmony print-frame="no"><root><root-step>G</root-step></root><kind text="">major</kind></harmony><note><pitch><step>D</step><octave>4</octave></pitch><duration>960</duration><voice>1</voice><type>half</type><stem>up</stem><lyric number="1"><syllabic>single</syllabic><text>bed,</text></lyric><lyric number="2"><syllabic>single</syllabic><text>stay,</text></lyric></note><note><pitch><step>D</step><octave>4</octave></pitch><duration>480</duration><voice>1</voice><type>quarter</type><stem>up</stem><lyric number="1"><syllabic>single</syllabic><text>The</text></lyric><lyric number="2"><syllabic>single</syllabic><text>Close</text></lyric></note></measure><measure number="6"><note><pitch><step>G</step><octave>4</octave></pitch><duration>480</duration><voice>1</voice><type>quarter</type><stem>up</stem><lyric number="1"><syllabic>begin</syllabic><text>lit</text></lyric><lyric number="2"><syllabic>single</syllabic><text>by</text></lyric></note><note><pitch><step>G</step><octave>4</octave></pitch><duration>480</duration><voice>1</voice><type>quarter</type><stem>up</stem><lyric number="1"><syllabic>end</syllabic><text>tle</text></lyric><lyric number="2"><syllabic>single</syllabic><text>me</text></lyric></note><harmony print-frame="no"><root><root-step>D</root-step></root><kind text="">major</kind></harmony><note><pitch><step>A</step><octave>4</octave></pitch><duration>480</duration><voice>1</voice><type>quarter</type><stem>up</stem><lyric number="1"><syllabic>single</syllabic><text>Lord</text></lyric><lyric number="2"><syllabic>begin</syllabic><text>for</text></lyric></note></measure><measure number="7"><harmony print-frame="no"><root><root-step>G</root-step></root><kind text="">major</kind></harmony><note><pitch><step>B</step><octave>4</octave></pitch><duration>480</duration><voice>1</voice><type>quarter</type><stem>down</stem><lyric number="1"><syllabic>begin</syllabic><text>Je</text></lyric><lyric number="2"><syllabic>middle</syllabic><text>ev</text></lyric></note><note><pitch><step>B</step><octave>4</octave></pitch><duration>480</duration><voice>1</voice><type>quarter</type><stem>down</stem><lyric number="1"><syllabic>end</syllabic><text>sus</text></lyric><lyric number="2"><syllabic>end</syllabic><text>er</text></lyric></note><note><pitch><step>D</step><octave>5</octave></pitch><duration>480</duration><voice>1</voice><type>quarter</type><stem>down</stem><lyric number="1"><syllabic>single</syllabic><text>lay</text></lyric><lyric number="2"><syllabic>single</syllabic><text>and</text></lyric></note></measure><measure number="8"><note><pitch><step>D</step><octave>5</octave></pitch><duration>480</duration><voice>1</voice><type>quarter</type><stem>down</stem><lyric number="1"><syllabic>single</syllabic><text>down</text></lyric><lyric number="2"><syllabic>single</syllabic><text>love</text></lyric></note><note><pitch><step>B</step><octave>4</octave></pitch><duration>480</duration><voice>1</voice><type>quarter</type><stem>down</stem><lyric number="1"><syllabic>single</syllabic><text>His</text></lyric><lyric number="2"><syllabic>single</syllabic><text>me</text></lyric></note><harmony print-frame="no"><root><root-step>A</root-step></root><kind text="7">dominant</kind></harmony><note><pitch><step>G</step><octave>4</octave></pitch><duration>480</duration><voice>1</voice><type>quarter</type><stem>up</stem><lyric number="1"><syllabic>single</syllabic><text>sweet</text></lyric><lyric number="2"><syllabic>single</syllabic><text>I</text></lyric></note></measure><measure number="9"><print new-system="yes"/><harmony print-frame="no"><root><root-step>D</root-step></root><kind text="">major</kind></harmony><note><pitch><step>A</step><octave>4</octave></pitch><duration>960</duration><voice>1</voice><type>half</type><stem>up</stem><lyric number="1"><syllabic>single</syllabic><text>head,</text></lyric><lyric number="2"><syllabic>single</syllabic><text>pray,</text></lyric></note><note><pitch><step>D</step><octave>4</octave></pitch><duration>480</duration><voice>1</voice><type>quarter</type><stem>up</stem><lyric number="1"><syllabic>single</syllabic><text>The</text></lyric><lyric number="2"><syllabic>single</syllabic><text>Bless</text></lyric></note></measure><measure number="10"><harmony print-frame="no"><root><root-step>G</root-step></root><kind text="">major</kind></harmony><note><pitch><step>G</step><octave>4</octave></pitch><duration>480</duration><voice>1</voice><type>quarter</type><stem>up</stem><lyric number="1"><syllabic>single</syllabic><text>stars</text></lyric><lyric number="2"><syllabic>single</syllabic><text>all</text></lyric></note><note><pitch><step>G</step><octave>4</octave></pitch><duration>480</duration><voice>1</voice><type>quarter</type><stem>up</stem><lyric number="1"><syllabic>single</syllabic><text>in</text></lyric><lyric number="2"><syllabic>single</syllabic><text>the</text></lyric></note><note><pitch><step>B</step><octave>4</octave></pitch><duration>240</duration><voice>1</voice><type>eighth</type><stem>up</stem><beam number="1">begin</beam><notations><slur type="start" number="1"/></notations><lyric number="1"><syllabic>single</syllabic><text>the</text></lyric><lyric number="2"><syllabic>single</syllabic><text>dear</text></lyric></note><note><pitch><step>A</step><octave>4</octave></pitch><duration>240</duration><voice>1</voice><type>eighth</type><stem>up</stem><beam number="1">end</beam><notations><slur type="stop" number="1"/></notations></note></measure><measure number="11"><note><pitch><step>G</step><octave>4</octave></pitch><duration>480</duration><voice>1</voice><type>quarter</type><stem>up</stem><lyric number="1"><syllabic>begin</syllabic><text>hea</text></lyric><lyric number="2"><syllabic>begin</syllabic><text>chil</text></lyric></note><note><pitch><step>G</step><octave>4</octave></pitch><duration>480</duration><voice>1</voice><type>quarter</type><stem>up</stem><lyric number="1"><syllabic>end</syllabic><text>vens</text></lyric><lyric number="2"><syllabic>single</syllabic><text>dren</text></lyric></note><note><pitch><step>D</step><octave>4</octave></pitch><duration>480</duration><voice>1</voice><type>quarter</type><stem>up</stem><lyric number="1"><syllabic>single</syllabic><text>looked</text></lyric><lyric number="2"><syllabic>single</syllabic><text>in</text></lyric></note></measure><measure number="12"><harmony print-frame="no"><root><root-step>C</root-step></root><kind text="">major</kind></harmony><note><pitch><step>E</step><octave>4</octave></pitch><duration>480</duration><voice>1</voice><type>quarter</type><stem>up</stem><lyric number="1"><syllabic>single</syllabic><text>down</text></lyric><lyric number="2"><syllabic>single</syllabic><text>Thy</text></lyric></note><note><pitch><step>C</step><octave>5</octave></pitch><duration>480</duration><voice>1</voice><type>quarter</type><stem>down</stem><lyric number="1"><syllabic>single</syllabic><text>where</text></lyric><lyric number="2"><syllabic>begin</syllabic><text>ten</text></lyric></note><note><pitch><step>E</step><octave>4</octave></pitch><duration>480</duration><voice>1</voice><type>quarter</type><stem>up</stem><lyric number="1"><syllabic>single</syllabic><text>He</text></lyric><lyric number="2"><syllabic>end</syllabic><text>der</text></lyric></note></measure><measure number="13"><print new-system="yes"/><harmony print-frame="no"><root><root-step>G</root-step></root><kind text="">major</kind></harmony><note><pitch><step>D</step><octave>4</octave></pitch><duration>960</duration><voice>1</voice><type>half</type><stem>up</stem><lyric number="1"><syllabic>single</syllabic><text>lay,</text></lyric><lyric number="2"><syllabic>single</syllabic><text>care</text></lyric></note><note><pitch><step>D</step><octave>4</octave></pitch><duration>480</duration><voice>1</voice><type>quarter</type><stem>up</stem><lyric number="1"><syllabic>single</syllabic><text>The</text></lyric><lyric number="2"><syllabic>single</syllabic><text>and</text></lyric></note></measure><measure number="14"><note><pitch><step>G</step><octave>4</octave></pitch><duration>480</duration><voice>1</voice><type>quarter</type><stem>up</stem><lyric number="1"><syllabic>begin</syllabic><text>lit</text></lyric><lyric number="2"><syllabic>single</syllabic><text>take</text></lyric></note><note><pitch><step>G</step><octave>4</octave></pitch><duration>480</duration><voice>1</voice><type>quarter</type><stem>up</stem><lyric number="1"><syllabic>end</syllabic><text>tle</text></lyric><lyric number="2"><syllabic>single</syllabic><text>us</text></lyric></note><note><pitch><step>A</step><octave>4</octave></pitch><duration>480</duration><voice>1</voice><type>quarter</type><stem>up</stem><lyric number="1"><syllabic>single</syllabic><text>Lord</text></lyric><lyric number="2"><syllabic>single</syllabic><text>to</text></lyric></note></measure><measure number="15"><note><pitch><step>B</step><octave>4</octave></pitch><duration>480</duration><voice>1</voice><type>quarter</type><stem>down</stem><lyric number="1"><syllabic>begin</syllabic><text>Je</text></lyric><lyric number="2"><syllabic>begin</syllabic><text>hea</text></lyric></note><note><pitch><step>D</step><octave>5</octave></pitch><duration>480</duration><voice>1</voice><type>quarter</type><stem>down</stem><notations><fermata type="upright"/></notations><lyric number="1"><syllabic>end</syllabic><text>sus,</text></lyric><lyric number="2"><syllabic>end</syllabic><text>ven</text></lyric></note><harmony print-frame="no"><root><root-step>A</root-step></root><kind text="m7">minor-seventh</kind></harmony><note><pitch><step>C</step><octave>5</octave></pitch><duration>480</duration><voice>1</voice><type>quarter</type><stem>down</stem><lyric number="1"><syllabic>begin</syllabic><text>a</text></lyric><lyric number="2"><syllabic>single</syllabic><text>to</text></lyric></note></measure><measure number="16"><harmony print-frame="no"><root><root-step>D</root-step></root><kind text="7">dominant</kind></harmony><note><pitch><step>D</step><octave>4</octave></pitch><duration>480</duration><voice>1</voice><type>quarter</type><stem>up</stem><lyric number="1"><syllabic>end</syllabic><text>sleep</text></lyric><lyric number="2"><syllabic>single</syllabic><text>live</text></lyric></note><note><pitch><step>E</step><octave>4</octave></pitch><duration>480</duration><voice>1</voice><type>quarter</type><stem>up</stem><lyric number="1"><syllabic>single</syllabic><text>in</text></lyric><lyric number="2"><syllabic>single</syllabic><text>with</text></lyric></note><note><pitch><step>F</step><alter>1</alter><octave>4</octave></pitch><duration>480</duration><voice>1</voice><type>quarter</type><stem>up</stem><lyric number="1"><syllabic>single</syllabic><text>the</text></lyric><lyric number="2"><syllabic>single</syllabic><text>Thee</text></lyric></note></measure><measure number="17"><print new-system="yes"/><harmony print-frame="no"><root><root-step>G</root-step></root><kind text="">major</kind></harmony><note><pitch><step>G</step><octave>4</octave></pitch><duration>960</duration><voice>1</voice><type>half</type><stem>up</stem><lyric number="1"><syllabic>single</syllabic><text>hay.</text></lyric><lyric number="2"><syllabic>single</syllabic><text>there.</text></lyric></note><note><pitch><step>F</step><alter>1</alter><octave>4</octave></pitch><duration>240</duration><voice>1</voice><type>eighth</type><stem>up</stem><beam number="1">begin</beam><notations><slur type="start" number="1"/></notations><lyric number="1"><syllabic>single</syllabic><text>The</text></lyric><lyric number="2"><syllabic>middle</syllabic><text>A</text></lyric></note><note><pitch><step>G</step><octave>4</octave></pitch><duration>240</duration><voice>1</voice><type>eighth</type><stem>up</stem><beam number="1">end</beam><notations><slur type="stop" number="1"/></notations></note></measure><measure number="18"><harmony print-frame="no"><root><root-step>D</root-step></root><kind text="">major</kind></harmony><note><pitch><step>A</step><octave>4</octave></pitch><duration>480</duration><voice>1</voice><type>quarter</type><stem>up</stem><lyric number="1"><syllabic>begin</syllabic><text>cat</text></lyric><lyric number="2"><syllabic>end</syllabic><text>way</text></lyric></note><note><pitch><step>A</step><octave>4</octave></pitch><duration>480</duration><voice>1</voice><type>quarter</type><stem>up</stem><lyric number="1"><syllabic>end</syllabic><text>tle</text></lyric><lyric number="2"><syllabic>single</syllabic><text>in</text></lyric></note><note><pitch><step>D</step><octave>5</octave></pitch><duration>480</duration><voice>1</voice><type>quarter</type><stem>down</stem><lyric number="1"><syllabic>single</syllabic><text>are</text></lyric><lyric number="2"><syllabic>single</syllabic><text>a</text></lyric></note></measure><measure number="19"><note><pitch><step>A</step><octave>4</octave></pitch><duration>480</duration><voice>1</voice><type>quarter</type><stem>up</stem><lyric number="1"><syllabic>begin</syllabic><text>low</text></lyric><lyric number="2"><syllabic>begin</syllabic><text>man</text></lyric></note><note><pitch><step>A</step><octave>4</octave></pitch><duration>480</duration><voice>1</voice><type>quarter</type><stem>up</stem><lyric number="1"><syllabic>end</syllabic><text>ing</text></lyric><lyric number="2"><syllabic>end</syllabic><text>ger</text></lyric></note><note><pitch><step>F</step><alter>1</alter><octave>4</octave></pitch><duration>480</duration><voice>1</voice><type>quarter</type><stem>up</stem><lyric number="1"><syllabic>single</syllabic><text>the</text></lyric><lyric number="2"><syllabic>single</syllabic><text>no</text></lyric></note></measure><measure number="20"><harmony print-frame="no"><root><root-step>A</root-step></root><kind text="">major</kind></harmony><note><pitch><step>A</step><octave>4</octave></pitch><duration>480</duration><voice>1</voice><type>quarter</type><stem>up</stem><lyric number="1"><syllabic>single</syllabic><text>poor</text></lyric><lyric number="2"><syllabic>single</syllabic><text>crib</text></lyric></note><note><pitch><step>G</step><octave>4</octave></pitch><duration>480</duration><voice>1</voice><type>quarter</type><stem>up</stem><lyric number="1"><syllabic>begin</syllabic><text>ba</text></lyric><lyric number="2"><syllabic>single</syllabic><text>for</text></lyric></note><note><pitch><step>E</step><octave>4</octave></pitch><duration>480</duration><voice>1</voice><type>quarter</type><stem>up</stem><lyric number="1"><syllabic>end</syllabic><text>by</text></lyric><lyric number="2"><syllabic>single</syllabic><text>his</text></lyric></note></measure><measure number="21"><print new-system="yes"/><harmony print-frame="no"><root><root-step>D</root-step></root><kind text="">major</kind></harmony><note><pitch><step>D</step><octave>4</octave></pitch><duration>960</duration><voice>1</voice><type>half</type><stem>up</stem><lyric number="1"><syllabic>single</syllabic><text>wakes,</text></lyric><lyric number="2"><syllabic>single</syllabic><text>bed,</text></lyric></note><note><pitch><step>F</step><alter>1</alter><octave>4</octave></pitch><duration>240</duration><voice>1</voice><type>eighth</type><stem>up</stem><beam number="1">begin</beam><lyric number="1"><syllabic>single</syllabic><text>But</text></lyric><lyric number="2"><syllabic>single</syllabic><text>The</text></lyric></note><note><pitch><step>G</step><octave>4</octave></pitch><duration>240</duration><voice>1</voice><type>eighth</type><stem>up</stem><beam number="1">end</beam><lyric number="1"><syllabic>single</syllabic><text>the</text></lyric></note></measure><measure number="22"><note><pitch><step>A</step><octave>4</octave></pitch><duration>480</duration><voice>1</voice><type>quarter</type><stem>up</stem><lyric number="1"><syllabic>begin</syllabic><text>lit</text></lyric><lyric number="2"><syllabic>begin</syllabic><text>lit</text></lyric></note><note><pitch><step>A</step><octave>4</octave></pitch><duration>480</duration><voice>1</voice><type>quarter</type><stem>up</stem><lyric number="1"><syllabic>end</syllabic><text>tle</text></lyric><lyric number="2"><syllabic>end</syllabic><text>tle</text></lyric></note><note><pitch><step>D</step><octave>5</octave></pitch><duration>480</duration><voice>1</voice><type>quarter</type><stem>down</stem><lyric number="1"><syllabic>single</syllabic><text>Lord</text></lyric><lyric number="2"><syllabic>single</syllabic><text>Lord</text></lyric></note></measure><measure number="23"><note><pitch><step>A</step><octave>4</octave></pitch><duration>480</duration><voice>1</voice><type>quarter</type><stem>up</stem><lyric number="1"><syllabic>begin</syllabic><text>Je</text></lyric><lyric number="2"><syllabic>begin</syllabic><text>Je</text></lyric></note><note><pitch><step>A</step><octave>4</octave></pitch><duration>480</duration><voice>1</voice><type>quarter</type><stem>up</stem><lyric number="1"><syllabic>end</syllabic><text>sus</text></lyric><lyric number="2"><syllabic>end</syllabic><text>sus</text></lyric></note><note><pitch><step>F</step><alter>1</alter><octave>4</octave></pitch><duration>480</duration><voice>1</voice><type>quarter</type><stem>up</stem><lyric number="1"><syllabic>single</syllabic><text>no</text></lyric><lyric number="2"><syllabic>single</syllabic><text>lay</text></lyric></note></measure><measure number="24"><harmony print-frame="no"><root><root-step>A</root-step></root><kind text="7">dominant</kind></harmony><note><pitch><step>G</step><octave>4</octave></pitch><duration>240</duration><voice>1</voice><type>eighth</type><stem>up</stem><beam number="1">begin</beam><lyric number="1"><syllabic>middle</syllabic><text>cry</text></lyric><lyric number="2"><syllabic>single</syllabic><text>down</text></lyric></note><note><pitch><step>F</step><alter>1</alter><octave>4</octave></pitch><duration>240</duration><voice>1</voice><type>eighth</type><stem>up</stem><beam number="1">end</beam></note><note><pitch><step>G</step><octave>4</octave></pitch><duration>240</duration><voice>1</voice><type>eighth</type><stem>up</stem><beam number="1">begin</beam><notations><slur type="start" number="1"/></notations><lyric number="1"><syllabic>end</syllabic><text>ing</text></lyric><lyric number="2"><syllabic>single</syllabic><text>His</text></lyric></note><note><pitch><step>A</step><octave>4</octave></pitch><duration>240</duration><voice>1</voice><type>eighth</type><stem>up</stem><beam number="1">end</beam><notations><slur type="stop" number="1"/></notations></note><note><pitch><step>B</step><octave>4</octave></pitch><duration>240</duration><voice>1</voice><type>eighth</type><stem>down</stem><beam number="1">begin</beam><notations><slur type="start" number="1"/></notations><lyric number="1"><syllabic>single</syllabic><text>He</text></lyric><lyric number="2"><syllabic>single</syllabic><text>sweet</text></lyric></note><note><pitch><step>C</step><alter>1</alter><octave>5</octave></pitch><duration>240</duration><voice>1</voice><type>eighth</type><accidental>sharp</accidental><stem>down</stem><beam number="1">end</beam><notations><slur type="stop" number="1"/></notations></note></measure><measure number="25"><print new-system="yes"/><harmony print-frame="no"><root><root-step>D</root-step></root><kind text="7">dominant</kind></harmony><note><pitch><step>D</step><octave>5</octave></pitch><duration>960</duration><voice>1</voice><type>half</type><stem>down</stem><lyric number="1"><syllabic>single</syllabic><text>makes;</text></lyric><lyric number="2"><syllabic>single</syllabic><text>head,</text></lyric></note><note><pitch><step>E</step><octave>5</octave></pitch><duration>480</duration><voice>1</voice><type>quarter</type><stem>down</stem><lyric number="1"><syllabic>single</syllabic><text>I</text></lyric><lyric number="2"><syllabic>single</syllabic><text>The</text></lyric></note></measure><measure number="26"><harmony print-frame="no"><root><root-step>G</root-step></root><kind text="">major</kind></harmony><note><pitch><step>D</step><octave>5</octave></pitch><duration>480</duration><voice>1</voice><type>quarter</type><stem>down</stem><lyric number="1"><syllabic>single</syllabic><text>love</text></lyric><lyric number="2"><syllabic>single</syllabic><text>stars</text></lyric></note><note><pitch><step>B</step><octave>4</octave></pitch><duration>480</duration><voice>1</voice><type>quarter</type><stem>down</stem><lyric number="1"><syllabic>single</syllabic><text>Thee</text></lyric><lyric number="2"><syllabic>single</syllabic><text>in</text></lyric></note><note><pitch><step>B</step><octave>4</octave></pitch><duration>240</duration><voice>1</voice><type>eighth</type><stem>up</stem><beam number="1">begin</beam><notations><slur type="start" number="1"/></notations><lyric number="1"><syllabic>single</syllabic><text>Lord</text></lyric><lyric number="2"><syllabic>single</syllabic><text>the</text></lyric></note><note><pitch><step>A</step><octave>4</octave></pitch><duration>240</duration><voice>1</voice><type>eighth</type><stem>up</stem><beam number="1">end</beam><notations><slur type="stop" number="1"/></notations></note></measure><measure number="27"><note><pitch><step>G</step><octave>4</octave></pitch><duration>480</duration><voice>1</voice><type>quarter</type><stem>up</stem><lyric number="1"><syllabic>begin</syllabic><text>Je</text></lyric><lyric number="2"><syllabic>begin</syllabic><text>heav</text></lyric></note><note><pitch><step>G</step><octave>4</octave></pitch><duration>480</duration><voice>1</voice><type>quarter</type><stem>up</stem><lyric number="1"><syllabic>end</syllabic><text>sus</text></lyric><lyric number="2"><syllabic>end</syllabic><text>ens</text></lyric></note><note><pitch><step>D</step><octave>4</octave></pitch><duration>480</duration><voice>1</voice><type>quarter</type><stem>up</stem><lyric number="1"><syllabic>single</syllabic><text>look</text></lyric><lyric number="2"><syllabic>single</syllabic><text>looked</text></lyric></note></measure><measure number="28"><harmony print-frame="no"><root><root-step>C</root-step></root><kind text="">major</kind></harmony><note><pitch><step>E</step><octave>4</octave></pitch><duration>480</duration><voice>1</voice><type>quarter</type><stem>up</stem><lyric number="1"><syllabic>single</syllabic><text>down</text></lyric><lyric number="2"><syllabic>single</syllabic><text>down</text></lyric></note><note><pitch><step>C</step><octave>5</octave></pitch><duration>480</duration><voice>1</voice><type>quarter</type><stem>down</stem><lyric number="1"><syllabic>single</syllabic><text>from</text></lyric><lyric number="2"><syllabic>single</syllabic><text>where</text></lyric></note><note><pitch><step>E</step><octave>4</octave></pitch><duration>480</duration><voice>1</voice><type>quarter</type><stem>up</stem><lyric number="1"><syllabic>single</syllabic><text>the</text></lyric><lyric number="2"><syllabic>single</syllabic><text>He</text></lyric></note></measure><measure number="29"><print new-system="yes"/><harmony print-frame="no"><root><root-step>G</root-step></root><kind text="">major</kind></harmony><note><pitch><step>D</step><octave>4</octave></pitch><duration>960</duration><voice>1</voice><type>half</type><stem>up</stem><lyric number="1"><syllabic>single</syllabic><text>sky,</text></lyric><lyric number="2"><syllabic>single</syllabic><text>lay,</text></lyric></note><note><pitch><step>D</step><octave>4</octave></pitch><duration>480</duration><voice>1</voice><type>quarter</type><stem>up</stem><lyric number="1"><syllabic>single</syllabic><text>And</text></lyric><lyric number="2"><syllabic>single</syllabic><text>The</text></lyric></note></measure><measure number="30"><note><pitch><step>G</step><octave>4</octave></pitch><duration>480</duration><voice>1</voice><type>quarter</type><stem>up</stem><lyric number="1"><syllabic>single</syllabic><text>stay</text></lyric><lyric number="2"><syllabic>begin</syllabic><text>lit</text></lyric></note><note><pitch><step>G</step><octave>4</octave></pitch><duration>480</duration><voice>1</voice><type>quarter</type><stem>up</stem><lyric number="1"><syllabic>single</syllabic><text>by</text></lyric><lyric number="2"><syllabic>end</syllabic><text>tle</text></lyric></note><note><pitch><step>A</step><octave>4</octave></pitch><duration>480</duration><voice>1</voice><type>quarter</type><stem>up</stem><lyric number="1"><syllabic>single</syllabic><text>my</text></lyric><lyric number="2"><syllabic>single</syllabic><text>Lord</text></lyric></note></measure><measure number="31"><note><pitch><step>B</step><octave>4</octave></pitch><duration>480</duration><voice>1</voice><type>quarter</type><stem>down</stem><lyric number="1"><syllabic>begin</syllabic><text>cra</text></lyric><lyric number="2"><syllabic>begin</syllabic><text>Je</text></lyric></note><note><pitch><step>D</step><octave>5</octave></pitch><duration>480</duration><voice>1</voice><type>quarter</type><stem>down</stem><notations><fermata type="upright"/></notations><lyric number="1"><syllabic>end</syllabic><text>dle</text></lyric><lyric number="2"><syllabic>end</syllabic><text>sus</text></lyric></note><harmony print-frame="no"><root><root-step>A</root-step></root><kind text="m7">minor-seventh</kind></harmony><note><pitch><step>C</step><octave>5</octave></pitch><duration>480</duration><voice>1</voice><type>quarter</type><stem>down</stem><lyric number="1"><syllabic>single</syllabic><text>to</text></lyric><lyric number="2"><syllabic>begin</syllabic><text>a</text></lyric></note></measure><measure number="32"><harmony print-frame="no"><root><root-step>D</root-step></root><kind text="7">dominant</kind></harmony><note><pitch><step>D</step><octave>4</octave></pitch><duration>480</duration><voice>1</voice><type>quarter</type><stem>up</stem><lyric number="1"><syllabic>single</syllabic><text>watch</text></lyric><lyric number="2"><syllabic>end</syllabic><text>sleep</text></lyric></note><note><pitch><step>E</step><octave>4</octave></pitch><duration>480</duration><voice>1</voice><type>quarter</type><stem>up</stem><lyric number="1"><syllabic>begin</syllabic><text>lul</text></lyric><lyric number="2"><syllabic>single</syllabic><text>in</text></lyric></note><note><pitch><step>F</step><alter>1</alter><octave>4</octave></pitch><duration>480</duration><voice>1</voice><type>quarter</type><stem>up</stem><lyric number="1"><syllabic>begin</syllabic><text>la</text></lyric><lyric number="2"><syllabic>single</syllabic><text>the</text></lyric></note></measure><measure number="33"><harmony print-frame="no"><root><root-step>G</root-step></root><kind text="">major</kind></harmony><note><pitch><step>G</step><octave>4</octave></pitch><duration>960</duration><voice>1</voice><type>half</type><stem>up</stem><lyric number="1"><syllabic>middle</syllabic><text>by.</text></lyric><lyric number="2"><syllabic>single</syllabic><text>hay.</text></lyric></note><note><rest/><duration>480</duration><voice>1</voice><type>quarter</type></note><barline location="right"><bar-style>light-heavy</bar-style></barline></measure></part></score-partwise>